<?xml version="1.0" standalone="no"?>
 <!DOCTYPE svg PUBLIC "-//W3C//DTD SVG 1.1//EN" 
 "http://www.w3.org/Graphics/SVG/1.1/DTD/svg11.dtd"> 
<svg xmlns="http://www.w3.org/2000/svg" version="1.1" 
    width="27.94cm" height="21.59cm" viewBox="0 0 110000 85000 ">
<title>SVG Picture created as dropbot_control_board-F.Mask.svg date 2016/12/19 01:07:02 </title>
  <desc>Picture generated by PCBNEW </desc>
<g style="fill:#000000; fill-opacity:1;stroke:#000000; stroke-opacity:1;
stroke-linecap:round; stroke-linejoin:round; "
 transform="translate(0 0) scale(1 1)">
</g>
<g style="fill:#000000; fill-opacity:0.0; 
stroke:#000000; stroke-width:-0.000393701; stroke-opacity:1; 
stroke-linecap:round; stroke-linejoin:round;">
</g>
<g style="fill:#000000; fill-opacity:0.0; 
stroke:#000000; stroke-width:39.3701; stroke-opacity:1; 
stroke-linecap:round; stroke-linejoin:round;">
</g>
<g style="fill:#000000; fill-opacity:0.0; 
stroke:#000000; stroke-width:59.0551; stroke-opacity:1; 
stroke-linecap:round; stroke-linejoin:round;">
<rect x="62755.9" y="67677.2" width="42519.7" height="12598.4" rx="0" />
</g>
<g style="fill:#000000; fill-opacity:0.0; 
stroke:#000000; stroke-width:39.3701; stroke-opacity:1; 
stroke-linecap:round; stroke-linejoin:round;">
</g>
<g style="fill:#000000; fill-opacity:0.0; 
stroke:#000000; stroke-width:59.0551; stroke-opacity:1; 
stroke-linecap:round; stroke-linejoin:round;">
<rect x="3937.01" y="3937.01" width="102126" height="77126" rx="0" />
</g>
<g style="fill:#000000; fill-opacity:0.0; 
stroke:#000000; stroke-width:39.3701; stroke-opacity:1; 
stroke-linecap:round; stroke-linejoin:round;">
</g>
<g style="fill:#000000; fill-opacity:0.0; 
stroke:#000000; stroke-width:59.0551; stroke-opacity:1; 
stroke-linecap:round; stroke-linejoin:round;">
<rect x="4724.41" y="4724.41" width="100551" height="75551.2" rx="0" />
</g>
<g style="fill:#000000; fill-opacity:0.0; 
stroke:#000000; stroke-width:39.3701; stroke-opacity:1; 
stroke-linecap:round; stroke-linejoin:round;">
</g>
<g style="fill:#000000; fill-opacity:0.0; 
stroke:#000000; stroke-width:59.0551; stroke-opacity:1; 
stroke-linecap:round; stroke-linejoin:round;">
<path d="M23622 4724
L23622 3937
" />
</g>
<g style="fill:#000000; fill-opacity:0.0; 
stroke:#000000; stroke-width:39.3701; stroke-opacity:1; 
stroke-linecap:round; stroke-linejoin:round;">
</g>
<g style="fill:#000000; fill-opacity:0.0; 
stroke:#000000; stroke-width:59.0551; stroke-opacity:1; 
stroke-linecap:round; stroke-linejoin:round;">
<path d="M43307 4724
L43307 3937
" />
</g>
<g style="fill:#000000; fill-opacity:0.0; 
stroke:#000000; stroke-width:39.3701; stroke-opacity:1; 
stroke-linecap:round; stroke-linejoin:round;">
</g>
<g style="fill:#000000; fill-opacity:0.0; 
stroke:#000000; stroke-width:59.0551; stroke-opacity:1; 
stroke-linecap:round; stroke-linejoin:round;">
<path d="M62992 4724
L62992 3937
" />
</g>
<g style="fill:#000000; fill-opacity:0.0; 
stroke:#000000; stroke-width:39.3701; stroke-opacity:1; 
stroke-linecap:round; stroke-linejoin:round;">
</g>
<g style="fill:#000000; fill-opacity:0.0; 
stroke:#000000; stroke-width:59.0551; stroke-opacity:1; 
stroke-linecap:round; stroke-linejoin:round;">
<path d="M82677 4724
L82677 3937
" />
</g>
<g style="fill:#000000; fill-opacity:0.0; 
stroke:#000000; stroke-width:39.3701; stroke-opacity:1; 
stroke-linecap:round; stroke-linejoin:round;">
</g>
<g style="fill:#000000; fill-opacity:0.0; 
stroke:#000000; stroke-width:59.0551; stroke-opacity:1; 
stroke-linecap:round; stroke-linejoin:round;">
<path d="M102362 4724
L102362 3937
" />
</g>
<g style="fill:#000000; fill-opacity:0.0; 
stroke:#000000; stroke-width:39.3701; stroke-opacity:1; 
stroke-linecap:round; stroke-linejoin:round;">
</g>
<g style="fill:#000000; fill-opacity:0.0; 
stroke:#000000; stroke-width:59.0551; stroke-opacity:1; 
stroke-linecap:round; stroke-linejoin:round;">
<path d="M14169 4562
L13877 4562
" />
<path d="M14023 4562
L14023 4050
L13974 4123
L13925 4172
L13877 4196
" />
</g>
<g style="fill:#000000; fill-opacity:0.0; 
stroke:#000000; stroke-width:39.3701; stroke-opacity:1; 
stroke-linecap:round; stroke-linejoin:round;">
</g>
<g style="fill:#000000; fill-opacity:0.0; 
stroke:#000000; stroke-width:59.0551; stroke-opacity:1; 
stroke-linecap:round; stroke-linejoin:round;">
<path d="M33562 4099
L33586 4074
L33635 4050
L33757 4050
L33805 4074
L33830 4099
L33854 4147
L33854 4196
L33830 4269
L33537 4562
L33854 4562
" />
</g>
<g style="fill:#000000; fill-opacity:0.0; 
stroke:#000000; stroke-width:39.3701; stroke-opacity:1; 
stroke-linecap:round; stroke-linejoin:round;">
</g>
<g style="fill:#000000; fill-opacity:0.0; 
stroke:#000000; stroke-width:59.0551; stroke-opacity:1; 
stroke-linecap:round; stroke-linejoin:round;">
<path d="M53222 4050
L53539 4050
L53368 4245
L53442 4245
L53490 4269
L53515 4294
L53539 4342
L53539 4464
L53515 4513
L53490 4537
L53442 4562
L53295 4562
L53247 4537
L53222 4513
" />
</g>
<g style="fill:#000000; fill-opacity:0.0; 
stroke:#000000; stroke-width:39.3701; stroke-opacity:1; 
stroke-linecap:round; stroke-linejoin:round;">
</g>
<g style="fill:#000000; fill-opacity:0.0; 
stroke:#000000; stroke-width:59.0551; stroke-opacity:1; 
stroke-linecap:round; stroke-linejoin:round;">
<path d="M73175 4221
L73175 4562
" />
<path d="M73053 4026
L72932 4391
L73248 4391
" />
</g>
<g style="fill:#000000; fill-opacity:0.0; 
stroke:#000000; stroke-width:39.3701; stroke-opacity:1; 
stroke-linecap:round; stroke-linejoin:round;">
</g>
<g style="fill:#000000; fill-opacity:0.0; 
stroke:#000000; stroke-width:59.0551; stroke-opacity:1; 
stroke-linecap:round; stroke-linejoin:round;">
<path d="M92885 4050
L92641 4050
L92617 4294
L92641 4269
L92690 4245
L92812 4245
L92860 4269
L92885 4294
L92909 4342
L92909 4464
L92885 4513
L92860 4537
L92812 4562
L92690 4562
L92641 4537
L92617 4513
" />
</g>
<g style="fill:#000000; fill-opacity:0.0; 
stroke:#000000; stroke-width:39.3701; stroke-opacity:1; 
stroke-linecap:round; stroke-linejoin:round;">
</g>
<g style="fill:#000000; fill-opacity:0.0; 
stroke:#000000; stroke-width:59.0551; stroke-opacity:1; 
stroke-linecap:round; stroke-linejoin:round;">
<path d="M23622 80275
L23622 81062
" />
</g>
<g style="fill:#000000; fill-opacity:0.0; 
stroke:#000000; stroke-width:39.3701; stroke-opacity:1; 
stroke-linecap:round; stroke-linejoin:round;">
</g>
<g style="fill:#000000; fill-opacity:0.0; 
stroke:#000000; stroke-width:59.0551; stroke-opacity:1; 
stroke-linecap:round; stroke-linejoin:round;">
<path d="M43307 80275
L43307 81062
" />
</g>
<g style="fill:#000000; fill-opacity:0.0; 
stroke:#000000; stroke-width:39.3701; stroke-opacity:1; 
stroke-linecap:round; stroke-linejoin:round;">
</g>
<g style="fill:#000000; fill-opacity:0.0; 
stroke:#000000; stroke-width:59.0551; stroke-opacity:1; 
stroke-linecap:round; stroke-linejoin:round;">
<path d="M62992 80275
L62992 81062
" />
</g>
<g style="fill:#000000; fill-opacity:0.0; 
stroke:#000000; stroke-width:39.3701; stroke-opacity:1; 
stroke-linecap:round; stroke-linejoin:round;">
</g>
<g style="fill:#000000; fill-opacity:0.0; 
stroke:#000000; stroke-width:59.0551; stroke-opacity:1; 
stroke-linecap:round; stroke-linejoin:round;">
<path d="M82677 80275
L82677 81062
" />
</g>
<g style="fill:#000000; fill-opacity:0.0; 
stroke:#000000; stroke-width:39.3701; stroke-opacity:1; 
stroke-linecap:round; stroke-linejoin:round;">
</g>
<g style="fill:#000000; fill-opacity:0.0; 
stroke:#000000; stroke-width:59.0551; stroke-opacity:1; 
stroke-linecap:round; stroke-linejoin:round;">
<path d="M102362 80275
L102362 81062
" />
</g>
<g style="fill:#000000; fill-opacity:0.0; 
stroke:#000000; stroke-width:39.3701; stroke-opacity:1; 
stroke-linecap:round; stroke-linejoin:round;">
</g>
<g style="fill:#000000; fill-opacity:0.0; 
stroke:#000000; stroke-width:59.0551; stroke-opacity:1; 
stroke-linecap:round; stroke-linejoin:round;">
<path d="M14169 80900
L13877 80900
" />
<path d="M14023 80900
L14023 80389
L13974 80462
L13925 80510
L13877 80535
" />
</g>
<g style="fill:#000000; fill-opacity:0.0; 
stroke:#000000; stroke-width:39.3701; stroke-opacity:1; 
stroke-linecap:round; stroke-linejoin:round;">
</g>
<g style="fill:#000000; fill-opacity:0.0; 
stroke:#000000; stroke-width:59.0551; stroke-opacity:1; 
stroke-linecap:round; stroke-linejoin:round;">
<path d="M33562 80437
L33586 80413
L33635 80389
L33757 80389
L33805 80413
L33830 80437
L33854 80486
L33854 80535
L33830 80608
L33537 80900
L33854 80900
" />
</g>
<g style="fill:#000000; fill-opacity:0.0; 
stroke:#000000; stroke-width:39.3701; stroke-opacity:1; 
stroke-linecap:round; stroke-linejoin:round;">
</g>
<g style="fill:#000000; fill-opacity:0.0; 
stroke:#000000; stroke-width:59.0551; stroke-opacity:1; 
stroke-linecap:round; stroke-linejoin:round;">
<path d="M53222 80389
L53539 80389
L53368 80583
L53442 80583
L53490 80608
L53515 80632
L53539 80681
L53539 80803
L53515 80852
L53490 80876
L53442 80900
L53295 80900
L53247 80876
L53222 80852
" />
</g>
<g style="fill:#000000; fill-opacity:0.0; 
stroke:#000000; stroke-width:39.3701; stroke-opacity:1; 
stroke-linecap:round; stroke-linejoin:round;">
</g>
<g style="fill:#000000; fill-opacity:0.0; 
stroke:#000000; stroke-width:59.0551; stroke-opacity:1; 
stroke-linecap:round; stroke-linejoin:round;">
<path d="M73175 80559
L73175 80900
" />
<path d="M73053 80364
L72932 80730
L73248 80730
" />
</g>
<g style="fill:#000000; fill-opacity:0.0; 
stroke:#000000; stroke-width:39.3701; stroke-opacity:1; 
stroke-linecap:round; stroke-linejoin:round;">
</g>
<g style="fill:#000000; fill-opacity:0.0; 
stroke:#000000; stroke-width:59.0551; stroke-opacity:1; 
stroke-linecap:round; stroke-linejoin:round;">
<path d="M92885 80389
L92641 80389
L92617 80632
L92641 80608
L92690 80583
L92812 80583
L92860 80608
L92885 80632
L92909 80681
L92909 80803
L92885 80852
L92860 80876
L92812 80900
L92690 80900
L92641 80876
L92617 80852
" />
</g>
<g style="fill:#000000; fill-opacity:0.0; 
stroke:#000000; stroke-width:39.3701; stroke-opacity:1; 
stroke-linecap:round; stroke-linejoin:round;">
</g>
<g style="fill:#000000; fill-opacity:0.0; 
stroke:#000000; stroke-width:59.0551; stroke-opacity:1; 
stroke-linecap:round; stroke-linejoin:round;">
<path d="M3937 23622
L4724 23622
" />
</g>
<g style="fill:#000000; fill-opacity:0.0; 
stroke:#000000; stroke-width:39.3701; stroke-opacity:1; 
stroke-linecap:round; stroke-linejoin:round;">
</g>
<g style="fill:#000000; fill-opacity:0.0; 
stroke:#000000; stroke-width:59.0551; stroke-opacity:1; 
stroke-linecap:round; stroke-linejoin:round;">
<path d="M3937 43307
L4724 43307
" />
</g>
<g style="fill:#000000; fill-opacity:0.0; 
stroke:#000000; stroke-width:39.3701; stroke-opacity:1; 
stroke-linecap:round; stroke-linejoin:round;">
</g>
<g style="fill:#000000; fill-opacity:0.0; 
stroke:#000000; stroke-width:59.0551; stroke-opacity:1; 
stroke-linecap:round; stroke-linejoin:round;">
<path d="M3937 62992
L4724 62992
" />
</g>
<g style="fill:#000000; fill-opacity:0.0; 
stroke:#000000; stroke-width:39.3701; stroke-opacity:1; 
stroke-linecap:round; stroke-linejoin:round;">
</g>
<g style="fill:#000000; fill-opacity:0.0; 
stroke:#000000; stroke-width:59.0551; stroke-opacity:1; 
stroke-linecap:round; stroke-linejoin:round;">
<path d="M4208 13864
L4452 13864
" />
<path d="M4160 14011
L4330 13499
L4501 14011
" />
</g>
<g style="fill:#000000; fill-opacity:0.0; 
stroke:#000000; stroke-width:39.3701; stroke-opacity:1; 
stroke-linecap:round; stroke-linejoin:round;">
</g>
<g style="fill:#000000; fill-opacity:0.0; 
stroke:#000000; stroke-width:59.0551; stroke-opacity:1; 
stroke-linecap:round; stroke-linejoin:round;">
<path d="M4367 33428
L4440 33452
L4464 33476
L4489 33525
L4489 33598
L4464 33647
L4440 33671
L4391 33696
L4196 33696
L4196 33184
L4367 33184
L4416 33208
L4440 33233
L4464 33281
L4464 33330
L4440 33379
L4416 33403
L4367 33428
L4196 33428
" />
</g>
<g style="fill:#000000; fill-opacity:0.0; 
stroke:#000000; stroke-width:39.3701; stroke-opacity:1; 
stroke-linecap:round; stroke-linejoin:round;">
</g>
<g style="fill:#000000; fill-opacity:0.0; 
stroke:#000000; stroke-width:59.0551; stroke-opacity:1; 
stroke-linecap:round; stroke-linejoin:round;">
<path d="M4489 53332
L4464 53356
L4391 53381
L4342 53381
L4269 53356
L4221 53308
L4196 53259
L4172 53161
L4172 53088
L4196 52991
L4221 52942
L4269 52893
L4342 52869
L4391 52869
L4464 52893
L4489 52918
" />
</g>
<g style="fill:#000000; fill-opacity:0.0; 
stroke:#000000; stroke-width:39.3701; stroke-opacity:1; 
stroke-linecap:round; stroke-linejoin:round;">
</g>
<g style="fill:#000000; fill-opacity:0.0; 
stroke:#000000; stroke-width:59.0551; stroke-opacity:1; 
stroke-linecap:round; stroke-linejoin:round;">
<path d="M4196 73066
L4196 72554
L4318 72554
L4391 72578
L4440 72627
L4464 72676
L4489 72773
L4489 72846
L4464 72944
L4440 72993
L4391 73041
L4318 73066
L4196 73066
" />
</g>
<g style="fill:#000000; fill-opacity:0.0; 
stroke:#000000; stroke-width:39.3701; stroke-opacity:1; 
stroke-linecap:round; stroke-linejoin:round;">
</g>
<g style="fill:#000000; fill-opacity:0.0; 
stroke:#000000; stroke-width:59.0551; stroke-opacity:1; 
stroke-linecap:round; stroke-linejoin:round;">
<path d="M106062 23622
L105275 23622
" />
</g>
<g style="fill:#000000; fill-opacity:0.0; 
stroke:#000000; stroke-width:39.3701; stroke-opacity:1; 
stroke-linecap:round; stroke-linejoin:round;">
</g>
<g style="fill:#000000; fill-opacity:0.0; 
stroke:#000000; stroke-width:59.0551; stroke-opacity:1; 
stroke-linecap:round; stroke-linejoin:round;">
<path d="M106062 43307
L105275 43307
" />
</g>
<g style="fill:#000000; fill-opacity:0.0; 
stroke:#000000; stroke-width:39.3701; stroke-opacity:1; 
stroke-linecap:round; stroke-linejoin:round;">
</g>
<g style="fill:#000000; fill-opacity:0.0; 
stroke:#000000; stroke-width:59.0551; stroke-opacity:1; 
stroke-linecap:round; stroke-linejoin:round;">
<path d="M106062 62992
L105275 62992
" />
</g>
<g style="fill:#000000; fill-opacity:0.0; 
stroke:#000000; stroke-width:39.3701; stroke-opacity:1; 
stroke-linecap:round; stroke-linejoin:round;">
</g>
<g style="fill:#000000; fill-opacity:0.0; 
stroke:#000000; stroke-width:59.0551; stroke-opacity:1; 
stroke-linecap:round; stroke-linejoin:round;">
<path d="M105547 13864
L105791 13864
" />
<path d="M105498 14011
L105669 13499
L105839 14011
" />
</g>
<g style="fill:#000000; fill-opacity:0.0; 
stroke:#000000; stroke-width:39.3701; stroke-opacity:1; 
stroke-linecap:round; stroke-linejoin:round;">
</g>
<g style="fill:#000000; fill-opacity:0.0; 
stroke:#000000; stroke-width:59.0551; stroke-opacity:1; 
stroke-linecap:round; stroke-linejoin:round;">
<path d="M105705 33428
L105778 33452
L105803 33476
L105827 33525
L105827 33598
L105803 33647
L105778 33671
L105730 33696
L105535 33696
L105535 33184
L105705 33184
L105754 33208
L105778 33233
L105803 33281
L105803 33330
L105778 33379
L105754 33403
L105705 33428
L105535 33428
" />
</g>
<g style="fill:#000000; fill-opacity:0.0; 
stroke:#000000; stroke-width:39.3701; stroke-opacity:1; 
stroke-linecap:round; stroke-linejoin:round;">
</g>
<g style="fill:#000000; fill-opacity:0.0; 
stroke:#000000; stroke-width:59.0551; stroke-opacity:1; 
stroke-linecap:round; stroke-linejoin:round;">
<path d="M105827 53332
L105803 53356
L105730 53381
L105681 53381
L105608 53356
L105559 53308
L105535 53259
L105510 53161
L105510 53088
L105535 52991
L105559 52942
L105608 52893
L105681 52869
L105730 52869
L105803 52893
L105827 52918
" />
</g>
<g style="fill:#000000; fill-opacity:0.0; 
stroke:#000000; stroke-width:39.3701; stroke-opacity:1; 
stroke-linecap:round; stroke-linejoin:round;">
</g>
<g style="fill:#000000; fill-opacity:0.0; 
stroke:#000000; stroke-width:59.0551; stroke-opacity:1; 
stroke-linecap:round; stroke-linejoin:round;">
<path d="M105535 73066
L105535 72554
L105657 72554
L105730 72578
L105778 72627
L105803 72676
L105827 72773
L105827 72846
L105803 72944
L105778 72993
L105730 73041
L105657 73066
L105535 73066
" />
</g>
<g style="fill:#000000; fill-opacity:0.0; 
stroke:#000000; stroke-width:39.3701; stroke-opacity:1; 
stroke-linecap:round; stroke-linejoin:round;">
</g>
<g style="fill:#000000; fill-opacity:0.0; 
stroke:#000000; stroke-width:59.0551; stroke-opacity:1; 
stroke-linecap:round; stroke-linejoin:round;">
<path d="M71951 78613
L71951 78023
L72092 78023
L72176 78051
L72232 78107
L72260 78163
L72289 78276
L72289 78360
L72260 78473
L72232 78529
L72176 78585
L72092 78613
L71951 78613
" />
<path d="M72795 78613
L72795 78304
L72767 78248
L72710 78219
L72598 78219
L72542 78248
" />
<path d="M72795 78585
L72739 78613
L72598 78613
L72542 78585
L72514 78529
L72514 78473
L72542 78416
L72598 78388
L72739 78388
L72795 78360
" />
<path d="M72992 78219
L73217 78219
" />
<path d="M73076 78023
L73076 78529
L73104 78585
L73160 78613
L73217 78613
" />
<path d="M73638 78585
L73582 78613
L73470 78613
L73413 78585
L73385 78529
L73385 78304
L73413 78248
L73470 78219
L73582 78219
L73638 78248
L73667 78304
L73667 78360
L73385 78416
" />
<path d="M73920 78557
L73948 78585
L73920 78613
L73892 78585
L73920 78557
L73920 78613
" />
<path d="M73920 78248
L73948 78276
L73920 78304
L73892 78276
L73920 78248
L73920 78304
" />
<path d="M74623 78079
L74651 78051
L74707 78023
L74848 78023
L74904 78051
L74932 78079
L74960 78135
L74960 78191
L74932 78276
L74595 78613
L74960 78613
" />
<path d="M75326 78023
L75382 78023
L75438 78051
L75466 78079
L75494 78135
L75523 78248
L75523 78388
L75494 78501
L75466 78557
L75438 78585
L75382 78613
L75326 78613
L75269 78585
L75241 78557
L75213 78501
L75185 78388
L75185 78248
L75213 78135
L75241 78079
L75269 78051
L75326 78023
" />
<path d="M76085 78613
L75748 78613
" />
<path d="M75916 78613
L75916 78023
L75860 78107
L75804 78163
L75748 78191
" />
<path d="M76591 78023
L76479 78023
L76422 78051
L76394 78079
L76338 78163
L76310 78276
L76310 78501
L76338 78557
L76366 78585
L76422 78613
L76535 78613
L76591 78585
L76619 78557
L76647 78501
L76647 78360
L76619 78304
L76591 78276
L76535 78248
L76422 78248
L76366 78276
L76338 78304
L76310 78360
" />
<path d="M76901 78388
L77350 78388
" />
<path d="M77941 78613
L77604 78613
" />
<path d="M77772 78613
L77772 78023
L77716 78107
L77660 78163
L77604 78191
" />
<path d="M78166 78079
L78194 78051
L78250 78023
L78391 78023
L78447 78051
L78475 78079
L78503 78135
L78503 78191
L78475 78276
L78138 78613
L78503 78613
" />
<path d="M78757 78388
L79206 78388
" />
<path d="M79797 78613
L79460 78613
" />
<path d="M79628 78613
L79628 78023
L79572 78107
L79516 78163
L79460 78191
" />
<path d="M80078 78613
L80191 78613
L80247 78585
L80275 78557
L80331 78473
L80359 78360
L80359 78135
L80331 78079
L80303 78051
L80247 78023
L80134 78023
L80078 78051
L80050 78079
L80022 78135
L80022 78276
L80050 78332
L80078 78360
L80134 78388
L80247 78388
L80303 78360
L80331 78332
L80359 78276
" />
</g>
<g style="fill:#000000; fill-opacity:0.0; 
stroke:#000000; stroke-width:39.3701; stroke-opacity:1; 
stroke-linecap:round; stroke-linejoin:round;">
</g>
<g style="fill:#000000; fill-opacity:0.0; 
stroke:#000000; stroke-width:59.0551; stroke-opacity:1; 
stroke-linecap:round; stroke-linejoin:round;">
<path d="M62755 78897
L105275 78897
" />
</g>
<g style="fill:#000000; fill-opacity:0.0; 
stroke:#000000; stroke-width:39.3701; stroke-opacity:1; 
stroke-linecap:round; stroke-linejoin:round;">
</g>
<g style="fill:#000000; fill-opacity:0.0; 
stroke:#000000; stroke-width:59.0551; stroke-opacity:1; 
stroke-linecap:round; stroke-linejoin:round;">
<path d="M63290 79715
L63290 79125
" />
<path d="M63627 79715
L63374 79378
" />
<path d="M63627 79125
L63290 79462
" />
<path d="M63880 79715
L63880 79322
" />
<path d="M63880 79125
L63852 79153
L63880 79181
L63908 79153
L63880 79125
L63880 79181
" />
<path d="M64499 79659
L64471 79687
L64386 79715
L64330 79715
L64246 79687
L64190 79631
L64161 79575
L64133 79462
L64133 79378
L64161 79266
L64190 79209
L64246 79153
L64330 79125
L64386 79125
L64471 79153
L64499 79181
" />
<path d="M65005 79715
L65005 79406
L64977 79350
L64921 79322
L64808 79322
L64752 79350
" />
<path d="M65005 79687
L64949 79715
L64808 79715
L64752 79687
L64724 79631
L64724 79575
L64752 79519
L64808 79491
L64949 79491
L65005 79462
" />
<path d="M65539 79715
L65539 79125
" />
<path d="M65539 79687
L65483 79715
L65371 79715
L65314 79687
L65286 79659
L65258 79603
L65258 79434
L65286 79378
L65314 79350
L65371 79322
L65483 79322
L65539 79350
" />
<path d="M66271 79406
L66467 79406
" />
<path d="M66552 79715
L66271 79715
L66271 79125
L66552 79125
" />
<path d="M66805 79659
L66833 79687
L66805 79715
L66777 79687
L66805 79659
L66805 79715
" />
<path d="M67086 79715
L67086 79125
L67227 79125
L67311 79153
L67367 79209
L67395 79266
L67424 79378
L67424 79462
L67395 79575
L67367 79631
L67311 79687
L67227 79715
L67086 79715
" />
<path d="M67677 79659
L67705 79687
L67677 79715
L67649 79687
L67677 79659
L67677 79715
" />
<path d="M67930 79547
L68211 79547
" />
<path d="M67874 79715
L68070 79125
L68267 79715
" />
<path d="M68464 79659
L68492 79687
L68464 79715
L68436 79687
L68464 79659
L68464 79715
" />
<path d="M69645 79715
L69645 79125
" />
<path d="M69701 79491
L69870 79715
" />
<path d="M69870 79322
L69645 79547
" />
<path d="M70123 79715
L70123 79322
" />
<path d="M70123 79125
L70095 79153
L70123 79181
L70151 79153
L70123 79125
L70123 79181
" />
<path d="M70658 79687
L70601 79715
L70489 79715
L70433 79687
L70404 79659
L70376 79603
L70376 79434
L70404 79378
L70433 79350
L70489 79322
L70601 79322
L70658 79350
" />
<path d="M71164 79715
L71164 79406
L71136 79350
L71079 79322
L70967 79322
L70911 79350
" />
<path d="M71164 79687
L71107 79715
L70967 79715
L70911 79687
L70883 79631
L70883 79575
L70911 79519
L70967 79491
L71107 79491
L71164 79462
" />
<path d="M71698 79715
L71698 79125
" />
<path d="M71698 79687
L71642 79715
L71529 79715
L71473 79687
L71445 79659
L71417 79603
L71417 79434
L71445 79378
L71473 79350
L71529 79322
L71642 79322
L71698 79350
" />
<path d="M72682 79322
L72682 79715
" />
<path d="M72542 79097
L72401 79519
L72767 79519
" />
<path d="M72992 79659
L73020 79687
L72992 79715
L72964 79687
L72992 79659
L72992 79715
" />
<path d="M73385 79125
L73442 79125
L73498 79153
L73526 79181
L73554 79237
L73582 79350
L73582 79491
L73554 79603
L73526 79659
L73498 79687
L73442 79715
L73385 79715
L73329 79687
L73301 79659
L73273 79603
L73245 79491
L73245 79350
L73273 79237
L73301 79181
L73329 79153
L73385 79125
" />
<path d="M73835 79659
L73863 79687
L73835 79715
L73807 79687
L73835 79659
L73835 79715
" />
<path d="M74426 79715
L74088 79715
" />
<path d="M74257 79715
L74257 79125
L74201 79209
L74145 79266
L74088 79294
" />
<path d="M74679 79491
L75129 79491
" />
<path d="M75382 79687
L75438 79715
L75551 79715
L75607 79687
L75635 79631
L75635 79603
L75607 79547
L75551 79519
L75466 79519
L75410 79491
L75382 79434
L75382 79406
L75410 79350
L75466 79322
L75551 79322
L75607 79350
" />
<path d="M75804 79322
L76029 79322
" />
<path d="M75888 79125
L75888 79631
L75916 79687
L75973 79715
L76029 79715
" />
<path d="M76479 79715
L76479 79406
L76451 79350
L76394 79322
L76282 79322
L76226 79350
" />
<path d="M76479 79687
L76422 79715
L76282 79715
L76226 79687
L76197 79631
L76197 79575
L76226 79519
L76282 79491
L76422 79491
L76479 79462
" />
<path d="M76760 79715
L76760 79125
" />
<path d="M76760 79350
L76816 79322
L76929 79322
L76985 79350
L77013 79378
L77041 79434
L77041 79603
L77013 79659
L76985 79687
L76929 79715
L76816 79715
L76760 79687
" />
<path d="M77379 79715
L77322 79687
L77294 79631
L77294 79125
" />
<path d="M77829 79687
L77772 79715
L77660 79715
L77604 79687
L77575 79631
L77575 79406
L77604 79350
L77660 79322
L77772 79322
L77829 79350
L77857 79406
L77857 79462
L77575 79519
" />
</g>
<g style="fill:#000000; fill-opacity:0.0; 
stroke:#000000; stroke-width:39.3701; stroke-opacity:1; 
stroke-linecap:round; stroke-linejoin:round;">
</g>
<g style="fill:#000000; fill-opacity:0.0; 
stroke:#000000; stroke-width:59.0551; stroke-opacity:1; 
stroke-linecap:round; stroke-linejoin:round;">
<path d="M62755 77716
L105275 77716
" />
</g>
<g style="fill:#000000; fill-opacity:0.0; 
stroke:#000000; stroke-width:39.3701; stroke-opacity:1; 
stroke-linecap:round; stroke-linejoin:round;">
</g>
<g style="fill:#000000; fill-opacity:0.0; 
stroke:#000000; stroke-width:118.11; stroke-opacity:1; 
stroke-linecap:round; stroke-linejoin:round;">
<path d="M97092 78613
L96895 78332
" />
<path d="M96754 78613
L96754 78023
L96979 78023
L97035 78051
L97064 78079
L97092 78135
L97092 78219
L97064 78276
L97035 78304
L96979 78332
L96754 78332
" />
<path d="M97570 78585
L97514 78613
L97401 78613
L97345 78585
L97317 78529
L97317 78304
L97345 78248
L97401 78219
L97514 78219
L97570 78248
L97598 78304
L97598 78360
L97317 78416
" />
<path d="M97795 78219
L97935 78613
L98076 78219
" />
<path d="M98301 78557
L98329 78585
L98301 78613
L98273 78585
L98301 78557
L98301 78613
" />
<path d="M98301 78248
L98329 78276
L98301 78304
L98273 78276
L98301 78248
L98301 78304
" />
<path d="M98976 78023
L99341 78023
L99145 78248
L99229 78248
L99285 78276
L99313 78304
L99341 78360
L99341 78501
L99313 78557
L99285 78585
L99229 78613
L99060 78613
L99004 78585
L98976 78557
" />
<path d="M99595 78557
L99623 78585
L99595 78613
L99566 78585
L99595 78557
L99595 78613
" />
<path d="M99988 78023
L100044 78023
L100101 78051
L100129 78079
L100157 78135
L100185 78248
L100185 78388
L100157 78501
L100129 78557
L100101 78585
L100044 78613
L99988 78613
L99932 78585
L99904 78557
L99876 78501
L99848 78388
L99848 78248
L99876 78135
L99904 78079
L99932 78051
L99988 78023
" />
</g>
<g style="fill:#000000; fill-opacity:0.0; 
stroke:#000000; stroke-width:39.3701; stroke-opacity:1; 
stroke-linecap:round; stroke-linejoin:round;">
</g>
<g style="fill:#000000; fill-opacity:0.0; 
stroke:#000000; stroke-width:59.0551; stroke-opacity:1; 
stroke-linecap:round; stroke-linejoin:round;">
<path d="M63262 78585
L63346 78613
L63487 78613
L63543 78585
L63571 78557
L63599 78501
L63599 78444
L63571 78388
L63543 78360
L63487 78332
L63374 78304
L63318 78276
L63290 78248
L63262 78191
L63262 78135
L63290 78079
L63318 78051
L63374 78023
L63515 78023
L63599 78051
" />
<path d="M63852 78613
L63852 78219
" />
<path d="M63852 78023
L63824 78051
L63852 78079
L63880 78051
L63852 78023
L63852 78079
" />
<path d="M64077 78219
L64386 78219
L64077 78613
L64386 78613
" />
<path d="M64836 78585
L64780 78613
L64668 78613
L64611 78585
L64583 78529
L64583 78304
L64611 78248
L64668 78219
L64780 78219
L64836 78248
L64865 78304
L64865 78360
L64583 78416
" />
<path d="M65118 78557
L65146 78585
L65118 78613
L65089 78585
L65118 78557
L65118 78613
" />
<path d="M65118 78248
L65146 78276
L65118 78304
L65089 78276
L65118 78248
L65118 78304
" />
<path d="M65849 78023
L65849 78501
L65877 78557
L65905 78585
L65961 78613
L66074 78613
L66130 78585
L66158 78557
L66186 78501
L66186 78023
" />
<path d="M66439 78585
L66524 78613
L66664 78613
L66721 78585
L66749 78557
L66777 78501
L66777 78444
L66749 78388
L66721 78360
L66664 78332
L66552 78304
L66496 78276
L66467 78248
L66439 78191
L66439 78135
L66467 78079
L66496 78051
L66552 78023
L66692 78023
L66777 78051
" />
<path d="M67311 78613
L67030 78613
L67030 78023
" />
<path d="M67733 78585
L67677 78613
L67564 78613
L67508 78585
L67480 78529
L67480 78304
L67508 78248
L67564 78219
L67677 78219
L67733 78248
L67761 78304
L67761 78360
L67480 78416
" />
<path d="M67930 78219
L68155 78219
" />
<path d="M68014 78023
L68014 78529
L68042 78585
L68098 78613
L68155 78613
" />
<path d="M68267 78219
L68492 78219
" />
<path d="M68352 78023
L68352 78529
L68380 78585
L68436 78613
L68492 78613
" />
<path d="M68914 78585
L68858 78613
L68745 78613
L68689 78585
L68661 78529
L68661 78304
L68689 78248
L68745 78219
L68858 78219
L68914 78248
L68942 78304
L68942 78360
L68661 78416
" />
<path d="M69195 78613
L69195 78219
" />
<path d="M69195 78332
L69223 78276
L69251 78248
L69308 78219
L69364 78219
" />
</g>
<g style="fill:#000000; fill-opacity:0.0; 
stroke:#000000; stroke-width:39.3701; stroke-opacity:1; 
stroke-linecap:round; stroke-linejoin:round;">
</g>
<g style="fill:#000000; fill-opacity:0.0; 
stroke:#000000; stroke-width:59.0551; stroke-opacity:1; 
stroke-linecap:round; stroke-linejoin:round;">
<path d="M96754 79715
L96754 79125
" />
<path d="M97289 79715
L97289 79125
" />
<path d="M97289 79687
L97232 79715
L97120 79715
L97064 79687
L97035 79659
L97007 79603
L97007 79434
L97035 79378
L97064 79350
L97120 79322
L97232 79322
L97289 79350
" />
<path d="M97570 79659
L97598 79687
L97570 79715
L97542 79687
L97570 79659
L97570 79715
" />
<path d="M97570 79350
L97598 79378
L97570 79406
L97542 79378
L97570 79350
L97570 79406
" />
<path d="M98610 79715
L98273 79715
" />
<path d="M98442 79715
L98442 79125
L98385 79209
L98329 79266
L98273 79294
" />
<path d="M99285 79097
L98779 79856
" />
<path d="M99791 79715
L99454 79715
" />
<path d="M99623 79715
L99623 79125
L99566 79209
L99510 79266
L99454 79294
" />
</g>
<g style="fill:#000000; fill-opacity:0.0; 
stroke:#000000; stroke-width:39.3701; stroke-opacity:1; 
stroke-linecap:round; stroke-linejoin:round;">
</g>
<g style="fill:#000000; fill-opacity:0.0; 
stroke:#000000; stroke-width:59.0551; stroke-opacity:1; 
stroke-linecap:round; stroke-linejoin:round;">
<path d="M62755 76141
L105275 76141
" />
</g>
<g style="fill:#000000; fill-opacity:0.0; 
stroke:#000000; stroke-width:39.3701; stroke-opacity:1; 
stroke-linecap:round; stroke-linejoin:round;">
</g>
<g style="fill:#000000; fill-opacity:0.0; 
stroke:#000000; stroke-width:157.48; stroke-opacity:1; 
stroke-linecap:round; stroke-linejoin:round;">
<path d="M63327 76419
L63777 76419
" />
<path d="M63454 77206
L63552 76419
" />
<path d="M63941 77206
L64007 76681
" />
<path d="M64040 76419
L63997 76456
L64030 76494
L64072 76456
L64040 76419
L64030 76494
" />
<path d="M64269 76681
L64569 76681
" />
<path d="M64415 76419
L64330 77094
L64358 77169
L64429 77206
L64504 77206
" />
<path d="M64879 77206
L64808 77169
L64780 77094
L64865 76419
" />
<path d="M65483 77169
L65404 77206
L65254 77206
L65183 77169
L65155 77094
L65193 76794
L65239 76719
L65319 76681
L65469 76681
L65539 76719
L65568 76794
L65558 76869
L65174 76944
" />
<path d="M65863 77131
L65896 77169
L65853 77206
L65821 77169
L65863 77131
L65853 77206
" />
<path d="M65914 76719
L65947 76756
L65905 76794
L65872 76756
L65914 76719
L65905 76794
" />
<path d="M66828 77206
L66927 76419
L67114 76419
L67222 76456
L67288 76531
L67316 76606
L67335 76756
L67320 76869
L67264 77019
L67217 77094
L67133 77169
L67016 77206
L66828 77206
" />
<path d="M67616 77206
L67681 76681
" />
<path d="M67663 76831
L67709 76756
L67752 76719
L67831 76681
L67906 76681
" />
<path d="M68216 77206
L68145 77169
L68113 77131
L68084 77056
L68113 76831
L68159 76756
L68202 76719
L68281 76681
L68394 76681
L68464 76719
L68497 76756
L68525 76831
L68497 77056
L68450 77131
L68408 77169
L68328 77206
L68216 77206
" />
<path d="M68881 76681
L68783 77469
" />
<path d="M68877 76719
L68956 76681
L69106 76681
L69176 76719
L69209 76756
L69237 76831
L69209 77056
L69162 77131
L69120 77169
L69041 77206
L68891 77206
L68820 77169
" />
<path d="M69842 76794
L69950 76831
L69983 76869
L70011 76944
L69997 77056
L69950 77131
L69908 77169
L69828 77206
L69528 77206
L69626 76419
L69889 76419
L69959 76456
L69992 76494
L70020 76569
L70011 76644
L69964 76719
L69922 76756
L69842 76794
L69580 76794
" />
<path d="M70428 77206
L70358 77169
L70325 77131
L70297 77056
L70325 76831
L70372 76756
L70414 76719
L70494 76681
L70606 76681
L70676 76719
L70709 76756
L70737 76831
L70709 77056
L70662 77131
L70620 77169
L70540 77206
L70428 77206
" />
<path d="M70981 76681
L71281 76681
" />
<path d="M71126 76419
L71042 77094
L71070 77169
L71140 77206
L71215 77206
" />
<path d="M72420 77169
L72340 77206
L72190 77206
L72120 77169
L72087 77131
L72059 77056
L72087 76831
L72134 76756
L72176 76719
L72256 76681
L72406 76681
L72476 76719
" />
<path d="M72865 77206
L72795 77169
L72762 77131
L72734 77056
L72762 76831
L72809 76756
L72851 76719
L72931 76681
L73043 76681
L73113 76719
L73146 76756
L73174 76831
L73146 77056
L73099 77131
L73057 77169
L72978 77206
L72865 77206
" />
<path d="M73531 76681
L73465 77206
" />
<path d="M73521 76756
L73563 76719
L73643 76681
L73756 76681
L73826 76719
L73854 76794
L73802 77206
" />
<path d="M74131 76681
L74431 76681
" />
<path d="M74276 76419
L74191 77094
L74220 77169
L74290 77206
L74365 77206
" />
<path d="M74627 77206
L74693 76681
" />
<path d="M74674 76831
L74721 76756
L74763 76719
L74843 76681
L74918 76681
" />
<path d="M75227 77206
L75157 77169
L75124 77131
L75096 77056
L75124 76831
L75171 76756
L75213 76719
L75293 76681
L75405 76681
L75476 76719
L75508 76756
L75537 76831
L75508 77056
L75462 77131
L75419 77169
L75340 77206
L75227 77206
" />
<path d="M75940 77206
L75869 77169
L75841 77094
L75926 76419
" />
<path d="M76840 77206
L76938 76419
" />
<path d="M76901 76719
L76980 76681
L77130 76681
L77200 76719
L77233 76756
L77261 76831
L77233 77056
L77186 77131
L77144 77169
L77065 77206
L76915 77206
L76844 77169
" />
<path d="M77664 77206
L77594 77169
L77561 77131
L77533 77056
L77561 76831
L77608 76756
L77650 76719
L77730 76681
L77843 76681
L77913 76719
L77946 76756
L77974 76831
L77946 77056
L77899 77131
L77857 77169
L77777 77206
L77664 77206
" />
<path d="M78602 77206
L78653 76794
L78625 76719
L78555 76681
L78405 76681
L78325 76719
" />
<path d="M78607 77169
L78527 77206
L78339 77206
L78269 77169
L78241 77094
L78250 77019
L78297 76944
L78377 76906
L78564 76906
L78644 76869
" />
<path d="M78977 77206
L79042 76681
" />
<path d="M79024 76831
L79071 76756
L79113 76719
L79192 76681
L79267 76681
" />
<path d="M79802 77206
L79900 76419
" />
<path d="M79806 77169
L79727 77206
L79577 77206
L79506 77169
L79474 77131
L79446 77056
L79474 76831
L79520 76756
L79563 76719
L79642 76681
L79792 76681
L79863 76719
" />
</g>
<g style="fill:#000000; fill-opacity:0.0; 
stroke:#000000; stroke-width:39.3701; stroke-opacity:1; 
stroke-linecap:round; stroke-linejoin:round;">
</g>
<g style="fill:#000000; fill-opacity:0.0; 
stroke:#000000; stroke-width:59.0551; stroke-opacity:1; 
stroke-linecap:round; stroke-linejoin:round;">
<path d="M63487 75390
L63290 75390
" />
<path d="M63290 75700
L63290 75109
L63571 75109
" />
<path d="M63796 75700
L63796 75306
" />
<path d="M63796 75109
L63768 75137
L63796 75165
L63824 75137
L63796 75109
L63796 75165
" />
<path d="M64161 75700
L64105 75672
L64077 75615
L64077 75109
" />
<path d="M64611 75672
L64555 75700
L64443 75700
L64386 75672
L64358 75615
L64358 75390
L64386 75334
L64443 75306
L64555 75306
L64611 75334
L64640 75390
L64640 75447
L64358 75503
" />
<path d="M64893 75643
L64921 75672
L64893 75700
L64865 75672
L64893 75643
L64893 75700
" />
<path d="M64893 75334
L64921 75362
L64893 75390
L64865 75362
L64893 75334
L64893 75390
" />
<path d="M65877 75700
L65877 75109
" />
<path d="M65877 75672
L65821 75700
L65708 75700
L65652 75672
L65624 75643
L65596 75587
L65596 75419
L65624 75362
L65652 75334
L65708 75306
L65821 75306
L65877 75334
" />
<path d="M66158 75700
L66158 75306
" />
<path d="M66158 75419
L66186 75362
L66214 75334
L66271 75306
L66327 75306
" />
<path d="M66608 75700
L66552 75672
L66524 75643
L66496 75587
L66496 75419
L66524 75362
L66552 75334
L66608 75306
L66692 75306
L66749 75334
L66777 75362
L66805 75419
L66805 75587
L66777 75643
L66749 75672
L66692 75700
L66608 75700
" />
<path d="M67058 75306
L67058 75897
" />
<path d="M67058 75334
L67114 75306
L67227 75306
L67283 75334
L67311 75362
L67339 75419
L67339 75587
L67311 75643
L67283 75672
L67227 75700
L67114 75700
L67058 75672
" />
<path d="M67592 75700
L67592 75109
" />
<path d="M67592 75334
L67649 75306
L67761 75306
L67817 75334
L67845 75362
L67874 75419
L67874 75587
L67845 75643
L67817 75672
L67761 75700
L67649 75700
L67592 75672
" />
<path d="M68211 75700
L68155 75672
L68127 75643
L68098 75587
L68098 75419
L68127 75362
L68155 75334
L68211 75306
L68295 75306
L68352 75334
L68380 75362
L68408 75419
L68408 75587
L68380 75643
L68352 75672
L68295 75700
L68211 75700
" />
<path d="M68577 75306
L68802 75306
" />
<path d="M68661 75109
L68661 75615
L68689 75672
L68745 75700
L68802 75700
" />
<path d="M68858 75756
L69308 75756
" />
<path d="M69701 75672
L69645 75700
L69533 75700
L69476 75672
L69448 75643
L69420 75587
L69420 75419
L69448 75362
L69476 75334
L69533 75306
L69645 75306
L69701 75334
" />
<path d="M70039 75700
L69983 75672
L69955 75643
L69926 75587
L69926 75419
L69955 75362
L69983 75334
L70039 75306
L70123 75306
L70179 75334
L70208 75362
L70236 75419
L70236 75587
L70208 75643
L70179 75672
L70123 75700
L70039 75700
" />
<path d="M70489 75306
L70489 75700
" />
<path d="M70489 75362
L70517 75334
L70573 75306
L70658 75306
L70714 75334
L70742 75390
L70742 75700
" />
<path d="M70939 75306
L71164 75306
" />
<path d="M71023 75109
L71023 75615
L71051 75672
L71107 75700
L71164 75700
" />
<path d="M71361 75700
L71361 75306
" />
<path d="M71361 75419
L71389 75362
L71417 75334
L71473 75306
L71529 75306
" />
<path d="M71811 75700
L71754 75672
L71726 75643
L71698 75587
L71698 75419
L71726 75362
L71754 75334
L71811 75306
L71895 75306
L71951 75334
L71979 75362
L72007 75419
L72007 75587
L71979 75643
L71951 75672
L71895 75700
L71811 75700
" />
<path d="M72345 75700
L72289 75672
L72260 75615
L72260 75109
" />
<path d="M72429 75756
L72879 75756
" />
<path d="M73020 75700
L73020 75109
" />
<path d="M73020 75334
L73076 75306
L73188 75306
L73245 75334
L73273 75362
L73301 75419
L73301 75587
L73273 75643
L73245 75672
L73188 75700
L73076 75700
L73020 75672
" />
<path d="M73638 75700
L73582 75672
L73554 75643
L73526 75587
L73526 75419
L73554 75362
L73582 75334
L73638 75306
L73723 75306
L73779 75334
L73807 75362
L73835 75419
L73835 75587
L73807 75643
L73779 75672
L73723 75700
L73638 75700
" />
<path d="M74341 75700
L74341 75390
L74313 75334
L74257 75306
L74145 75306
L74088 75334
" />
<path d="M74341 75672
L74285 75700
L74145 75700
L74088 75672
L74060 75615
L74060 75559
L74088 75503
L74145 75475
L74285 75475
L74341 75447
" />
<path d="M74623 75700
L74623 75306
" />
<path d="M74623 75419
L74651 75362
L74679 75334
L74735 75306
L74791 75306
" />
<path d="M75241 75700
L75241 75109
" />
<path d="M75241 75672
L75185 75700
L75073 75700
L75016 75672
L74988 75643
L74960 75587
L74960 75419
L74988 75362
L75016 75334
L75073 75306
L75185 75306
L75241 75334
" />
<path d="M75523 75643
L75551 75672
L75523 75700
L75494 75672
L75523 75643
L75523 75700
" />
<path d="M75804 75700
L75804 75109
" />
<path d="M75860 75475
L76029 75700
" />
<path d="M76029 75306
L75804 75531
" />
<path d="M76282 75700
L76282 75306
" />
<path d="M76282 75109
L76254 75137
L76282 75165
L76310 75137
L76282 75109
L76282 75165
" />
<path d="M76816 75672
L76760 75700
L76647 75700
L76591 75672
L76563 75643
L76535 75587
L76535 75419
L76563 75362
L76591 75334
L76647 75306
L76760 75306
L76816 75334
" />
<path d="M77322 75700
L77322 75390
L77294 75334
L77238 75306
L77125 75306
L77069 75334
" />
<path d="M77322 75672
L77266 75700
L77125 75700
L77069 75672
L77041 75615
L77041 75559
L77069 75503
L77125 75475
L77266 75475
L77322 75447
" />
<path d="M77857 75700
L77857 75109
" />
<path d="M77857 75672
L77800 75700
L77688 75700
L77632 75672
L77604 75643
L77575 75587
L77575 75419
L77604 75362
L77632 75334
L77688 75306
L77800 75306
L77857 75334
" />
<path d="M77997 75756
L78447 75756
" />
<path d="M78588 75306
L78588 75897
" />
<path d="M78588 75334
L78644 75306
L78757 75306
L78813 75334
L78841 75362
L78869 75419
L78869 75587
L78841 75643
L78813 75672
L78757 75700
L78644 75700
L78588 75672
" />
<path d="M79375 75672
L79319 75700
L79206 75700
L79150 75672
L79122 75643
L79094 75587
L79094 75419
L79122 75362
L79150 75334
L79206 75306
L79319 75306
L79375 75334
" />
<path d="M79628 75700
L79628 75109
" />
<path d="M79628 75334
L79685 75306
L79797 75306
L79853 75334
L79881 75362
L79910 75419
L79910 75587
L79881 75643
L79853 75672
L79797 75700
L79685 75700
L79628 75672
" />
</g>
<g style="fill:#000000; fill-opacity:0.0; 
stroke:#000000; stroke-width:39.3701; stroke-opacity:1; 
stroke-linecap:round; stroke-linejoin:round;">
</g>
<g style="fill:#000000; fill-opacity:0.0; 
stroke:#000000; stroke-width:59.0551; stroke-opacity:1; 
stroke-linecap:round; stroke-linejoin:round;">
<path d="M62755 73779
L105275 73779
" />
</g>
<g style="fill:#000000; fill-opacity:0.0; 
stroke:#000000; stroke-width:39.3701; stroke-opacity:1; 
stroke-linecap:round; stroke-linejoin:round;">
</g>
<g style="fill:#000000; fill-opacity:0.0; 
stroke:#000000; stroke-width:59.0551; stroke-opacity:1; 
stroke-linecap:round; stroke-linejoin:round;">
<path d="M63262 74609
L63346 74637
L63487 74637
L63543 74609
L63571 74580
L63599 74524
L63599 74468
L63571 74412
L63543 74384
L63487 74356
L63374 74327
L63318 74299
L63290 74271
L63262 74215
L63262 74159
L63290 74102
L63318 74074
L63374 74046
L63515 74046
L63599 74074
" />
<path d="M63852 74637
L63852 74046
" />
<path d="M64105 74637
L64105 74327
L64077 74271
L64021 74243
L63937 74243
L63880 74271
L63852 74299
" />
<path d="M64611 74609
L64555 74637
L64443 74637
L64386 74609
L64358 74552
L64358 74327
L64386 74271
L64443 74243
L64555 74243
L64611 74271
L64640 74327
L64640 74384
L64358 74440
" />
<path d="M65118 74609
L65061 74637
L64949 74637
L64893 74609
L64865 74552
L64865 74327
L64893 74271
L64949 74243
L65061 74243
L65118 74271
L65146 74327
L65146 74384
L64865 74440
" />
<path d="M65314 74243
L65539 74243
" />
<path d="M65399 74046
L65399 74552
L65427 74609
L65483 74637
L65539 74637
" />
<path d="M65736 74580
L65764 74609
L65736 74637
L65708 74609
L65736 74580
L65736 74637
" />
<path d="M65736 74271
L65764 74299
L65736 74327
L65708 74299
L65736 74271
L65736 74327
" />
</g>
<g style="fill:#000000; fill-opacity:0.0; 
stroke:#000000; stroke-width:39.3701; stroke-opacity:1; 
stroke-linecap:round; stroke-linejoin:round;">
</g>
<g style="fill:#000000; fill-opacity:0.0; 
stroke:#000000; stroke-width:118.11; stroke-opacity:1; 
stroke-linecap:round; stroke-linejoin:round;">
<path d="M63262 73428
L63346 73456
L63487 73456
L63543 73428
L63571 73399
L63599 73343
L63599 73287
L63571 73231
L63543 73203
L63487 73174
L63374 73146
L63318 73118
L63290 73090
L63262 73034
L63262 72978
L63290 72921
L63318 72893
L63374 72865
L63515 72865
L63599 72893
" />
<path d="M64105 73428
L64049 73456
L63937 73456
L63880 73428
L63852 73399
L63824 73343
L63824 73174
L63852 73118
L63880 73090
L63937 73062
L64049 73062
L64105 73090
" />
<path d="M64358 73456
L64358 73062
" />
<path d="M64358 72865
L64330 72893
L64358 72921
L64386 72893
L64358 72865
L64358 72921
" />
<path d="M64640 73231
L65089 73231
" />
<path d="M65371 73456
L65371 72865
" />
<path d="M65371 73090
L65427 73062
L65539 73062
L65596 73090
L65624 73118
L65652 73174
L65652 73343
L65624 73399
L65596 73428
L65539 73456
L65427 73456
L65371 73428
" />
<path d="M65989 73456
L65933 73428
L65905 73399
L65877 73343
L65877 73174
L65905 73118
L65933 73090
L65989 73062
L66074 73062
L66130 73090
L66158 73118
L66186 73174
L66186 73343
L66158 73399
L66130 73428
L66074 73456
L65989 73456
" />
<path d="M66355 73062
L66580 73062
" />
<path d="M66439 72865
L66439 73371
L66467 73428
L66524 73456
L66580 73456
" />
<path d="M66749 73428
L66805 73456
L66917 73456
L66974 73428
L67002 73371
L67002 73343
L66974 73287
L66917 73259
L66833 73259
L66777 73231
L66749 73174
L66749 73146
L66777 73090
L66833 73062
L66917 73062
L66974 73090
" />
</g>
<g style="fill:#000000; fill-opacity:0.0; 
stroke:#000000; stroke-width:39.3701; stroke-opacity:1; 
stroke-linecap:round; stroke-linejoin:round;">
</g>
<g style="fill:#000000; fill-opacity:0.0; 
stroke:#000000; stroke-width:59.0551; stroke-opacity:1; 
stroke-linecap:round; stroke-linejoin:round;">
<path d="M70629 77716
L70629 78897
" />
</g>
<g style="fill:#000000; fill-opacity:0.0; 
stroke:#000000; stroke-width:39.3701; stroke-opacity:1; 
stroke-linecap:round; stroke-linejoin:round;">
</g>
<g style="fill:#000000; fill-opacity:0.0; 
stroke:#000000; stroke-width:59.0551; stroke-opacity:1; 
stroke-linecap:round; stroke-linejoin:round;">
<path d="M95826 77716
L95826 80275
" />
</g>
<g style="fill:#000000; fill-opacity:0.0; 
stroke:#000000; stroke-width:39.3701; stroke-opacity:1; 
stroke-linecap:round; stroke-linejoin:round;">
<path d="M38629 10629
L42519 10629
" />
<path d="M9448 10629
L34992 10629
" />
<path d="M38629 8267
L38629 10629
" />
<path d="M34992 8267
L38629 8267
" />
<path d="M34992 10629
L34992 8267
" />
<path d="M42519 10629
L42519 32677
" />
<path d="M9448 32677
L9448 10629
" />
<path d="M9448 32677
L42519 32677
" />
</g>
<g style="fill:#000000; fill-opacity:0.0; 
stroke:#000000; stroke-width:829.921; stroke-opacity:1; 
stroke-linecap:round; stroke-linejoin:round;">
<path d="M15511 15078
L15511 15078
" />
<path d="M15511 16078
L15511 16078
" />
<path d="M15511 17078
L15511 17078
" />
<path d="M15511 18078
L15511 18078
" />
<path d="M15511 19078
L15511 19078
" />
<path d="M15511 20078
L15511 20078
" />
<path d="M15511 21078
L15511 21078
" />
<path d="M12511 21078
L12511 21078
" />
<path d="M12511 20078
L12511 20078
" />
<path d="M12511 19078
L12511 19078
" />
<path d="M12511 18078
L12511 18078
" />
<path d="M12511 17078
L12511 17078
" />
<path d="M12511 16078
L12511 16078
" />
<path d="M12511 15078
L12511 15078
" />
</g>
<g style="fill:#000000; fill-opacity:0.0; 
stroke:#000000; stroke-width:0; stroke-opacity:1; 
stroke-linecap:round; stroke-linejoin:round;">
</g>
<g style="fill:#000000; fill-opacity:1.0; 
stroke:#000000; stroke-width:0; stroke-opacity:1; 
stroke-linecap:round; stroke-linejoin:round;">
<polyline style="fill-rule:evenodd;"
points="34782,13975
35454,13975
35454,14647
34782,14647
34782,13975
" /> 
<polyline style="fill-rule:evenodd;"
points="34782,14801
35454,14801
35454,15473
34782,15473
34782,14801
" /> 
<circle cx="22544.9" cy="14771.7" r="474.016" /> 
</g>
<g style="fill:#000000; fill-opacity:1.0; 
stroke:#000000; stroke-width:39.3701; stroke-opacity:1; 
stroke-linecap:round; stroke-linejoin:round;">
</g>
<g style="fill:#000000; fill-opacity:1.0; 
stroke:#000000; stroke-width:0; stroke-opacity:1; 
stroke-linecap:round; stroke-linejoin:round;">
<circle cx="23544.9" cy="14771.7" r="474.016" /> 
</g>
<g style="fill:#000000; fill-opacity:1.0; 
stroke:#000000; stroke-width:39.3701; stroke-opacity:1; 
stroke-linecap:round; stroke-linejoin:round;">
</g>
<g style="fill:#000000; fill-opacity:1.0; 
stroke:#000000; stroke-width:0; stroke-opacity:1; 
stroke-linecap:round; stroke-linejoin:round;">
<circle cx="24544.9" cy="14771.7" r="474.016" /> 
</g>
<g style="fill:#000000; fill-opacity:1.0; 
stroke:#000000; stroke-width:39.3701; stroke-opacity:1; 
stroke-linecap:round; stroke-linejoin:round;">
</g>
<g style="fill:#000000; fill-opacity:1.0; 
stroke:#000000; stroke-width:0; stroke-opacity:1; 
stroke-linecap:round; stroke-linejoin:round;">
<circle cx="20544.9" cy="19771.7" r="474.016" /> 
</g>
<g style="fill:#000000; fill-opacity:1.0; 
stroke:#000000; stroke-width:39.3701; stroke-opacity:1; 
stroke-linecap:round; stroke-linejoin:round;">
</g>
<g style="fill:#000000; fill-opacity:1.0; 
stroke:#000000; stroke-width:0; stroke-opacity:1; 
stroke-linecap:round; stroke-linejoin:round;">
<circle cx="21544.9" cy="19771.7" r="474.016" /> 
</g>
<g style="fill:#000000; fill-opacity:1.0; 
stroke:#000000; stroke-width:39.3701; stroke-opacity:1; 
stroke-linecap:round; stroke-linejoin:round;">
</g>
<g style="fill:#000000; fill-opacity:1.0; 
stroke:#000000; stroke-width:0; stroke-opacity:1; 
stroke-linecap:round; stroke-linejoin:round;">
<circle cx="22544.9" cy="19771.7" r="474.016" /> 
</g>
<g style="fill:#000000; fill-opacity:1.0; 
stroke:#000000; stroke-width:39.3701; stroke-opacity:1; 
stroke-linecap:round; stroke-linejoin:round;">
</g>
<g style="fill:#000000; fill-opacity:1.0; 
stroke:#000000; stroke-width:0; stroke-opacity:1; 
stroke-linecap:round; stroke-linejoin:round;">
<circle cx="23544.9" cy="19771.7" r="474.016" /> 
</g>
<g style="fill:#000000; fill-opacity:1.0; 
stroke:#000000; stroke-width:39.3701; stroke-opacity:1; 
stroke-linecap:round; stroke-linejoin:round;">
</g>
<g style="fill:#000000; fill-opacity:1.0; 
stroke:#000000; stroke-width:0; stroke-opacity:1; 
stroke-linecap:round; stroke-linejoin:round;">
<circle cx="24544.9" cy="19771.7" r="474.016" /> 
</g>
<g style="fill:#000000; fill-opacity:1.0; 
stroke:#000000; stroke-width:39.3701; stroke-opacity:1; 
stroke-linecap:round; stroke-linejoin:round;">
</g>
<g style="fill:#000000; fill-opacity:1.0; 
stroke:#000000; stroke-width:0; stroke-opacity:1; 
stroke-linecap:round; stroke-linejoin:round;">
<circle cx="25544.9" cy="19771.7" r="474.016" /> 
</g>
<g style="fill:#000000; fill-opacity:1.0; 
stroke:#000000; stroke-width:39.3701; stroke-opacity:1; 
stroke-linecap:round; stroke-linejoin:round;">
</g>
<g style="fill:#000000; fill-opacity:1.0; 
stroke:#000000; stroke-width:0; stroke-opacity:1; 
stroke-linecap:round; stroke-linejoin:round;">
<circle cx="26544.9" cy="19771.7" r="474.016" /> 
</g>
<g style="fill:#000000; fill-opacity:1.0; 
stroke:#000000; stroke-width:39.3701; stroke-opacity:1; 
stroke-linecap:round; stroke-linejoin:round;">
</g>
<g style="fill:#000000; fill-opacity:1.0; 
stroke:#000000; stroke-width:0; stroke-opacity:1; 
stroke-linecap:round; stroke-linejoin:round;">
<circle cx="27544.9" cy="19771.7" r="474.016" /> 
</g>
<g style="fill:#000000; fill-opacity:1.0; 
stroke:#000000; stroke-width:39.3701; stroke-opacity:1; 
stroke-linecap:round; stroke-linejoin:round;">
</g>
<g style="fill:#000000; fill-opacity:1.0; 
stroke:#000000; stroke-width:0; stroke-opacity:1; 
stroke-linecap:round; stroke-linejoin:round;">
<circle cx="28544.9" cy="19771.7" r="474.016" /> 
</g>
<g style="fill:#000000; fill-opacity:1.0; 
stroke:#000000; stroke-width:39.3701; stroke-opacity:1; 
stroke-linecap:round; stroke-linejoin:round;">
</g>
<g style="fill:#000000; fill-opacity:1.0; 
stroke:#000000; stroke-width:0; stroke-opacity:1; 
stroke-linecap:round; stroke-linejoin:round;">
<circle cx="29544.9" cy="19771.7" r="474.016" /> 
</g>
<g style="fill:#000000; fill-opacity:1.0; 
stroke:#000000; stroke-width:39.3701; stroke-opacity:1; 
stroke-linecap:round; stroke-linejoin:round;">
</g>
<g style="fill:#000000; fill-opacity:1.0; 
stroke:#000000; stroke-width:0; stroke-opacity:1; 
stroke-linecap:round; stroke-linejoin:round;">
<circle cx="30544.9" cy="19771.7" r="474.016" /> 
</g>
<g style="fill:#000000; fill-opacity:1.0; 
stroke:#000000; stroke-width:39.3701; stroke-opacity:1; 
stroke-linecap:round; stroke-linejoin:round;">
</g>
<g style="fill:#000000; fill-opacity:1.0; 
stroke:#000000; stroke-width:0; stroke-opacity:1; 
stroke-linecap:round; stroke-linejoin:round;">
<circle cx="31544.9" cy="19771.7" r="474.016" /> 
</g>
<g style="fill:#000000; fill-opacity:1.0; 
stroke:#000000; stroke-width:39.3701; stroke-opacity:1; 
stroke-linecap:round; stroke-linejoin:round;">
</g>
<g style="fill:#000000; fill-opacity:1.0; 
stroke:#000000; stroke-width:0; stroke-opacity:1; 
stroke-linecap:round; stroke-linejoin:round;">
<circle cx="32544.9" cy="19771.7" r="474.016" /> 
</g>
<g style="fill:#000000; fill-opacity:1.0; 
stroke:#000000; stroke-width:39.3701; stroke-opacity:1; 
stroke-linecap:round; stroke-linejoin:round;">
</g>
<g style="fill:#000000; fill-opacity:1.0; 
stroke:#000000; stroke-width:0; stroke-opacity:1; 
stroke-linecap:round; stroke-linejoin:round;">
<circle cx="32544.9" cy="13771.7" r="474.016" /> 
</g>
<g style="fill:#000000; fill-opacity:1.0; 
stroke:#000000; stroke-width:39.3701; stroke-opacity:1; 
stroke-linecap:round; stroke-linejoin:round;">
</g>
<g style="fill:#000000; fill-opacity:1.0; 
stroke:#000000; stroke-width:0; stroke-opacity:1; 
stroke-linecap:round; stroke-linejoin:round;">
<circle cx="31544.9" cy="13771.7" r="474.016" /> 
</g>
<g style="fill:#000000; fill-opacity:1.0; 
stroke:#000000; stroke-width:39.3701; stroke-opacity:1; 
stroke-linecap:round; stroke-linejoin:round;">
</g>
<g style="fill:#000000; fill-opacity:1.0; 
stroke:#000000; stroke-width:0; stroke-opacity:1; 
stroke-linecap:round; stroke-linejoin:round;">
<circle cx="30544.9" cy="13771.7" r="474.016" /> 
</g>
<g style="fill:#000000; fill-opacity:1.0; 
stroke:#000000; stroke-width:39.3701; stroke-opacity:1; 
stroke-linecap:round; stroke-linejoin:round;">
</g>
<g style="fill:#000000; fill-opacity:1.0; 
stroke:#000000; stroke-width:0; stroke-opacity:1; 
stroke-linecap:round; stroke-linejoin:round;">
<circle cx="29544.9" cy="13771.7" r="474.016" /> 
</g>
<g style="fill:#000000; fill-opacity:1.0; 
stroke:#000000; stroke-width:39.3701; stroke-opacity:1; 
stroke-linecap:round; stroke-linejoin:round;">
</g>
<g style="fill:#000000; fill-opacity:1.0; 
stroke:#000000; stroke-width:0; stroke-opacity:1; 
stroke-linecap:round; stroke-linejoin:round;">
<circle cx="28544.9" cy="13771.7" r="474.016" /> 
</g>
<g style="fill:#000000; fill-opacity:1.0; 
stroke:#000000; stroke-width:39.3701; stroke-opacity:1; 
stroke-linecap:round; stroke-linejoin:round;">
</g>
<g style="fill:#000000; fill-opacity:1.0; 
stroke:#000000; stroke-width:0; stroke-opacity:1; 
stroke-linecap:round; stroke-linejoin:round;">
<circle cx="27544.9" cy="13771.7" r="474.016" /> 
</g>
<g style="fill:#000000; fill-opacity:1.0; 
stroke:#000000; stroke-width:39.3701; stroke-opacity:1; 
stroke-linecap:round; stroke-linejoin:round;">
</g>
<g style="fill:#000000; fill-opacity:1.0; 
stroke:#000000; stroke-width:0; stroke-opacity:1; 
stroke-linecap:round; stroke-linejoin:round;">
<circle cx="26544.9" cy="13771.7" r="474.016" /> 
</g>
<g style="fill:#000000; fill-opacity:1.0; 
stroke:#000000; stroke-width:39.3701; stroke-opacity:1; 
stroke-linecap:round; stroke-linejoin:round;">
</g>
<g style="fill:#000000; fill-opacity:1.0; 
stroke:#000000; stroke-width:0; stroke-opacity:1; 
stroke-linecap:round; stroke-linejoin:round;">
<circle cx="25544.9" cy="13771.7" r="474.016" /> 
</g>
<g style="fill:#000000; fill-opacity:1.0; 
stroke:#000000; stroke-width:39.3701; stroke-opacity:1; 
stroke-linecap:round; stroke-linejoin:round;">
</g>
<g style="fill:#000000; fill-opacity:1.0; 
stroke:#000000; stroke-width:0; stroke-opacity:1; 
stroke-linecap:round; stroke-linejoin:round;">
<circle cx="24544.9" cy="13771.7" r="474.016" /> 
</g>
<g style="fill:#000000; fill-opacity:1.0; 
stroke:#000000; stroke-width:39.3701; stroke-opacity:1; 
stroke-linecap:round; stroke-linejoin:round;">
</g>
<g style="fill:#000000; fill-opacity:1.0; 
stroke:#000000; stroke-width:0; stroke-opacity:1; 
stroke-linecap:round; stroke-linejoin:round;">
<circle cx="23544.9" cy="13771.7" r="474.016" /> 
</g>
<g style="fill:#000000; fill-opacity:1.0; 
stroke:#000000; stroke-width:39.3701; stroke-opacity:1; 
stroke-linecap:round; stroke-linejoin:round;">
</g>
<g style="fill:#000000; fill-opacity:1.0; 
stroke:#000000; stroke-width:0; stroke-opacity:1; 
stroke-linecap:round; stroke-linejoin:round;">
<circle cx="22544.9" cy="13771.7" r="474.016" /> 
</g>
<g style="fill:#000000; fill-opacity:1.0; 
stroke:#000000; stroke-width:39.3701; stroke-opacity:1; 
stroke-linecap:round; stroke-linejoin:round;">
</g>
<g style="fill:#000000; fill-opacity:1.0; 
stroke:#000000; stroke-width:0; stroke-opacity:1; 
stroke-linecap:round; stroke-linejoin:round;">
<circle cx="21544.9" cy="13771.7" r="474.016" /> 
</g>
<g style="fill:#000000; fill-opacity:1.0; 
stroke:#000000; stroke-width:39.3701; stroke-opacity:1; 
stroke-linecap:round; stroke-linejoin:round;">
</g>
<g style="fill:#000000; fill-opacity:1.0; 
stroke:#000000; stroke-width:0; stroke-opacity:1; 
stroke-linecap:round; stroke-linejoin:round;">
<circle cx="20544.9" cy="13771.7" r="474.016" /> 
</g>
<g style="fill:#000000; fill-opacity:1.0; 
stroke:#000000; stroke-width:39.3701; stroke-opacity:1; 
stroke-linecap:round; stroke-linejoin:round;">
</g>
<g style="fill:#000000; fill-opacity:1.0; 
stroke:#000000; stroke-width:0; stroke-opacity:1; 
stroke-linecap:round; stroke-linejoin:round;">
<circle cx="19544.9" cy="13771.7" r="474.016" /> 
</g>
<g style="fill:#000000; fill-opacity:1.0; 
stroke:#000000; stroke-width:39.3701; stroke-opacity:1; 
stroke-linecap:round; stroke-linejoin:round;">
</g>
<g style="fill:#000000; fill-opacity:1.0; 
stroke:#000000; stroke-width:0; stroke-opacity:1; 
stroke-linecap:round; stroke-linejoin:round;">
<circle cx="19544.9" cy="19771.7" r="474.016" /> 
</g>
<g style="fill:#000000; fill-opacity:1.0; 
stroke:#000000; stroke-width:39.3701; stroke-opacity:1; 
stroke-linecap:round; stroke-linejoin:round;">
</g>
<g style="fill:#000000; fill-opacity:1.0; 
stroke:#000000; stroke-width:869; stroke-opacity:1; 
stroke-linecap:round; stroke-linejoin:round;">
</g>
<g style="fill:#000000; fill-opacity:0.0; 
stroke:#000000; stroke-width:869; stroke-opacity:1; 
stroke-linecap:round; stroke-linejoin:round;">
<path d="M13977 24662
L14686 24662
" />
<path d="M13977 25662
L14686 25662
" />
<path d="M13977 23662
L14686 23662
" />
<path d="M11877 29112
L12586 29112
" />
<path d="M11877 30112
L12586 30112
" />
<path d="M11877 28112
L12586 28112
" />
<path d="M33231 31067
L33231 30358
" />
<path d="M34231 31067
L34231 30358
" />
<path d="M32231 31067
L32231 30358
" />
</g>
<g style="fill:#000000; fill-opacity:0.0; 
stroke:#000000; stroke-width:0; stroke-opacity:1; 
stroke-linecap:round; stroke-linejoin:round;">
</g>
<g style="fill:#000000; fill-opacity:1.0; 
stroke:#000000; stroke-width:0; stroke-opacity:1; 
stroke-linecap:round; stroke-linejoin:round;">
<polyline style="fill-rule:evenodd;"
points="38310,24301
37153,24301
37153,23168
38310,23168
38310,24301
" /> 
<polyline style="fill-rule:evenodd;"
points="38310,26757
37153,26757
37153,25624
38310,25624
38310,26757
" /> 
<polyline style="fill-rule:evenodd;"
points="41444,24501
39618,24501
39618,23368
41444,23368
41444,24501
" /> 
<polyline style="fill-rule:evenodd;"
points="41444,26957
39618,26957
39618,25824
41444,25824
41444,26957
" /> 
<polyline style="fill-rule:evenodd;"
points="36081,13975
36753,13975
36753,14647
36081,14647
36081,13975
" /> 
<polyline style="fill-rule:evenodd;"
points="36081,14801
36753,14801
36753,15473
36081,15473
36081,14801
" /> 
<polyline style="fill-rule:evenodd;"
points="34700,28794
34700,29231
33889,29231
33889,28794
34700,28794
" /> 
<polyline style="fill-rule:evenodd;"
points="34700,28294
34700,28731
33889,28731
33889,28294
34700,28294
" /> 
<polyline style="fill-rule:evenodd;"
points="34700,27794
34700,28231
33889,28231
33889,27794
34700,27794
" /> 
<polyline style="fill-rule:evenodd;"
points="34700,27294
34700,27731
33889,27731
33889,27294
34700,27294
" /> 
<polyline style="fill-rule:evenodd;"
points="32574,27294
32574,27731
31763,27731
31763,27294
32574,27294
" /> 
<polyline style="fill-rule:evenodd;"
points="32574,27794
32574,28231
31763,28231
31763,27794
32574,27794
" /> 
<polyline style="fill-rule:evenodd;"
points="32574,28294
32574,28731
31763,28731
31763,28294
32574,28294
" /> 
<polyline style="fill-rule:evenodd;"
points="32574,28794
32574,29231
31763,29231
31763,28794
32574,28794
" /> 
<polyline style="fill-rule:evenodd;"
points="26194,25800
26194,26472
25837,26472
25837,25800
26194,25800
" /> 
<polyline style="fill-rule:evenodd;"
points="25938,25800
25938,26472
25581,26472
25581,25800
25938,25800
" /> 
<polyline style="fill-rule:evenodd;"
points="25682,25800
25682,26472
25325,26472
25325,25800
25682,25800
" /> 
<polyline style="fill-rule:evenodd;"
points="25426,25800
25426,26472
25069,26472
25069,25800
25426,25800
" /> 
<polyline style="fill-rule:evenodd;"
points="25426,27453
25426,28125
25069,28125
25069,27453
25426,27453
" /> 
<polyline style="fill-rule:evenodd;"
points="25682,27453
25682,28125
25325,28125
25325,27453
25682,27453
" /> 
<polyline style="fill-rule:evenodd;"
points="25938,27453
25938,28125
25581,28125
25581,27453
25938,27453
" /> 
<polyline style="fill-rule:evenodd;"
points="26194,27453
26194,28125
25837,28125
25837,27453
26194,27453
" /> 
<polyline style="fill-rule:evenodd;"
points="27219,30735
27219,29590
28994,29590
28994,30735
27219,30735
" /> 
<polyline style="fill-rule:evenodd;"
points="24069,30735
24069,29590
25844,29590
25844,30735
24069,30735
" /> 
<polyline style="fill-rule:evenodd;"
points="11371,23212
10491,23212
10491,22212
11371,22212
11371,23212
" /> 
</g>
<g style="fill:#000000; fill-opacity:1.0; 
stroke:#000000; stroke-width:880; stroke-opacity:1; 
stroke-linecap:round; stroke-linejoin:round;">
</g>
<g style="fill:#000000; fill-opacity:0.0; 
stroke:#000000; stroke-width:880; stroke-opacity:1; 
stroke-linecap:round; stroke-linejoin:round;">
<path d="M11931 22772
L11931 22652
" />
<path d="M12931 22772
L12931 22652
" />
</g>
<g style="fill:#000000; fill-opacity:1.0; 
stroke:#000000; stroke-width:0; stroke-opacity:1; 
stroke-linecap:round; stroke-linejoin:round;">
<circle cx="11023.6" cy="12204.7" r="900" /> 
</g>
<g style="fill:#000000; fill-opacity:1.0; 
stroke:#000000; stroke-width:39.3701; stroke-opacity:1; 
stroke-linecap:round; stroke-linejoin:round;">
</g>
<g style="fill:#000000; fill-opacity:1.0; 
stroke:#000000; stroke-width:0; stroke-opacity:1; 
stroke-linecap:round; stroke-linejoin:round;">
<circle cx="40944.9" cy="12204.7" r="900" /> 
</g>
<g style="fill:#000000; fill-opacity:1.0; 
stroke:#000000; stroke-width:39.3701; stroke-opacity:1; 
stroke-linecap:round; stroke-linejoin:round;">
</g>
<g style="fill:#000000; fill-opacity:1.0; 
stroke:#000000; stroke-width:0; stroke-opacity:1; 
stroke-linecap:round; stroke-linejoin:round;">
<polyline style="fill-rule:evenodd;"
points="10177,28083
11086,28083
11086,29267
10177,29267
10177,28083
" /> 
<polyline style="fill-rule:evenodd;"
points="10177,29657
11086,29657
11086,30841
10177,30841
10177,29657
" /> 
<polyline style="fill-rule:evenodd;"
points="16277,27783
17186,27783
17186,28967
16277,28967
16277,27783
" /> 
<polyline style="fill-rule:evenodd;"
points="16277,29357
17186,29357
17186,30541
16277,30541
16277,29357
" /> 
<circle cx="12615.9" cy="25063" r="493.5" /> 
</g>
<g style="fill:#000000; fill-opacity:1.0; 
stroke:#000000; stroke-width:39.3701; stroke-opacity:1; 
stroke-linecap:round; stroke-linejoin:round;">
</g>
<g style="fill:#000000; fill-opacity:1.0; 
stroke:#000000; stroke-width:0; stroke-opacity:1; 
stroke-linecap:round; stroke-linejoin:round;">
<circle cx="10646.9" cy="25063" r="493.5" /> 
</g>
<g style="fill:#000000; fill-opacity:1.0; 
stroke:#000000; stroke-width:39.3701; stroke-opacity:1; 
stroke-linecap:round; stroke-linejoin:round;">
</g>
<g style="fill:#000000; fill-opacity:1.0; 
stroke:#000000; stroke-width:0; stroke-opacity:1; 
stroke-linecap:round; stroke-linejoin:round;">
<polyline style="fill-rule:evenodd;"
points="13981,28337
13981,27687
14381,27687
14381,28337
13981,28337
" /> 
<polyline style="fill-rule:evenodd;"
points="14481,28337
14481,27687
14881,27687
14881,28337
14481,28337
" /> 
<polyline style="fill-rule:evenodd;"
points="14981,28337
14981,27687
15381,27687
15381,28337
14981,28337
" /> 
<polyline style="fill-rule:evenodd;"
points="15481,28337
15481,27687
15881,27687
15881,28337
15481,28337
" /> 
<polyline style="fill-rule:evenodd;"
points="15481,30837
15481,30187
15881,30187
15881,30837
15481,30837
" /> 
<polyline style="fill-rule:evenodd;"
points="14981,30837
14981,30187
15381,30187
15381,30837
14981,30837
" /> 
<polyline style="fill-rule:evenodd;"
points="14481,30837
14481,30187
14881,30187
14881,30837
14481,30837
" /> 
<polyline style="fill-rule:evenodd;"
points="13981,30837
13981,30187
14381,30187
14381,30837
13981,30837
" /> 
<polyline style="fill-rule:evenodd;"
points="15178,15874
15178,16566
14585,16566
14585,15874
15178,15874
" /> 
<polyline style="fill-rule:evenodd;"
points="14391,15874
14391,16566
13797,16566
13797,15874
14391,15874
" /> 
<polyline style="fill-rule:evenodd;"
points="37577,21290
37577,20598
38170,20598
38170,21290
37577,21290
" /> 
<polyline style="fill-rule:evenodd;"
points="38364,21290
38364,20598
38958,20598
38958,21290
38364,21290
" /> 
<polyline style="fill-rule:evenodd;"
points="40493,20598
40493,21290
39900,21290
39900,20598
40493,20598
" /> 
<polyline style="fill-rule:evenodd;"
points="39706,20598
39706,21290
39112,21290
39112,20598
39706,20598
" /> 
<polyline style="fill-rule:evenodd;"
points="14484,14612
15176,14612
15176,15206
14484,15206
14484,14612
" /> 
<polyline style="fill-rule:evenodd;"
points="14484,15400
15176,15400
15176,15993
14484,15993
14484,15400
" /> 
<polyline style="fill-rule:evenodd;"
points="14261,18079
14261,18771
13667,18771
13667,18079
14261,18079
" /> 
<polyline style="fill-rule:evenodd;"
points="13474,18079
13474,18771
12880,18771
12880,18079
13474,18079
" /> 
<polyline style="fill-rule:evenodd;"
points="11911,14181
11911,14873
11317,14873
11317,14181
11911,14181
" /> 
<polyline style="fill-rule:evenodd;"
points="11123,14181
11123,14873
10529,14873
10529,14181
11123,14181
" /> 
<polyline style="fill-rule:evenodd;"
points="12301,14716
12301,14024
12895,14024
12895,14716
12301,14716
" /> 
<polyline style="fill-rule:evenodd;"
points="13088,14716
13088,14024
13682,14024
13682,14716
13088,14716
" /> 
<polyline style="fill-rule:evenodd;"
points="14261,18854
14261,19546
13667,19546
13667,18854
14261,18854
" /> 
<polyline style="fill-rule:evenodd;"
points="13474,18854
13474,19546
12880,19546
12880,18854
13474,18854
" /> 
<polyline style="fill-rule:evenodd;"
points="12880,20806
12880,20114
13474,20114
13474,20806
12880,20806
" /> 
<polyline style="fill-rule:evenodd;"
points="13667,20806
13667,20114
14261,20114
14261,20806
13667,20806
" /> 
<polyline style="fill-rule:evenodd;"
points="12301,14086
12301,13394
12895,13394
12895,14086
12301,14086
" /> 
<polyline style="fill-rule:evenodd;"
points="13088,14086
13088,13394
13682,13394
13682,14086
13088,14086
" /> 
<polyline style="fill-rule:evenodd;"
points="17088,14706
16376,14706
16376,14230
17088,14230
17088,14706
" /> 
<polyline style="fill-rule:evenodd;"
points="17088,13958
16376,13958
16376,13482
17088,13482
17088,13958
" /> 
<polyline style="fill-rule:evenodd;"
points="12970,17481
12970,16770
13446,16770
13446,17481
12970,17481
" /> 
<polyline style="fill-rule:evenodd;"
points="13718,17481
13718,16770
14194,16770
14194,17481
13718,17481
" /> 
<polyline style="fill-rule:evenodd;"
points="14194,17400
14194,18111
13718,18111
13718,17400
14194,17400
" /> 
<polyline style="fill-rule:evenodd;"
points="13446,17400
13446,18111
12970,18111
12970,17400
13446,17400
" /> 
<polyline style="fill-rule:evenodd;"
points="13805,14691
14517,14691
14517,15166
13805,15166
13805,14691
" /> 
<polyline style="fill-rule:evenodd;"
points="13805,15439
14517,15439
14517,15914
13805,15914
13805,15439
" /> 
<polyline style="fill-rule:evenodd;"
points="38207,16143
38207,15431
38682,15431
38682,16143
38207,16143
" /> 
<polyline style="fill-rule:evenodd;"
points="38955,16143
38955,15431
39430,15431
39430,16143
38955,16143
" /> 
<polyline style="fill-rule:evenodd;"
points="40214,16418
40214,15707
40690,15707
40690,16418
40214,16418
" /> 
<polyline style="fill-rule:evenodd;"
points="40962,16418
40962,15707
41438,15707
41438,16418
40962,16418
" /> 
<polyline style="fill-rule:evenodd;"
points="14222,19474
14222,20186
13746,20186
13746,19474
14222,19474
" /> 
<polyline style="fill-rule:evenodd;"
points="13474,19474
13474,20186
12998,20186
12998,19474
13474,19474
" /> 
<polyline style="fill-rule:evenodd;"
points="15206,13226
15206,13938
14730,13938
14730,13226
15206,13226
" /> 
<polyline style="fill-rule:evenodd;"
points="14458,13226
14458,13938
13982,13938
13982,13226
14458,13226
" /> 
<polyline style="fill-rule:evenodd;"
points="12970,21497
12970,20785
13446,20785
13446,21497
12970,21497
" /> 
<polyline style="fill-rule:evenodd;"
points="13718,21497
13718,20785
14194,20785
14194,21497
13718,21497
" /> 
<polyline style="fill-rule:evenodd;"
points="15855,14706
15144,14706
15144,14230
15855,14230
15855,14706
" /> 
<polyline style="fill-rule:evenodd;"
points="15855,13958
15144,13958
15144,13482
15855,13482
15855,13958
" /> 
<polyline style="fill-rule:evenodd;"
points="41703,16503
41703,17503
40903,17503
40903,16503
41703,16503
" /> 
<polyline style="fill-rule:evenodd;"
points="40703,16503
40703,17503
39903,17503
39903,16503
40703,16503
" /> 
<polyline style="fill-rule:evenodd;"
points="39703,16503
39703,17503
38903,17503
38903,16503
39703,16503
" /> 
<polyline style="fill-rule:evenodd;"
points="38703,16503
38703,17503
37903,17503
37903,16503
38703,16503
" /> 
<polyline style="fill-rule:evenodd;"
points="38703,19503
38703,20503
37903,20503
37903,19503
38703,19503
" /> 
<polyline style="fill-rule:evenodd;"
points="39703,19503
39703,20503
38903,20503
38903,19503
39703,19503
" /> 
<polyline style="fill-rule:evenodd;"
points="40703,19503
40703,20503
39903,20503
39903,19503
40703,19503
" /> 
<polyline style="fill-rule:evenodd;"
points="41703,19503
41703,20503
40903,20503
40903,19503
41703,19503
" /> 
<polyline style="fill-rule:evenodd;"
points="36677,26753
35985,26753
35985,26159
36677,26159
36677,26753
" /> 
<polyline style="fill-rule:evenodd;"
points="36677,25966
35985,25966
35985,25372
36677,25372
36677,25966
" /> 
<polyline style="fill-rule:evenodd;"
points="16222,30916
16222,31609
15628,31609
15628,30916
16222,30916
" /> 
<polyline style="fill-rule:evenodd;"
points="15435,30916
15435,31609
14841,31609
14841,30916
15435,30916
" /> 
<polyline style="fill-rule:evenodd;"
points="31677,27753
30985,27753
30985,27159
31677,27159
31677,27753
" /> 
<polyline style="fill-rule:evenodd;"
points="31677,26966
30985,26966
30985,26372
31677,26372
31677,26966
" /> 
<polyline style="fill-rule:evenodd;"
points="36872,23816
36872,24509
36278,24509
36278,23816
36872,23816
" /> 
<polyline style="fill-rule:evenodd;"
points="36085,23816
36085,24509
35491,24509
35491,23816
36085,23816
" /> 
<polyline style="fill-rule:evenodd;"
points="11371,32212
10491,32212
10491,31212
11371,31212
11371,32212
" /> 
</g>
<g style="fill:#000000; fill-opacity:1.0; 
stroke:#000000; stroke-width:880; stroke-opacity:1; 
stroke-linecap:round; stroke-linejoin:round;">
</g>
<g style="fill:#000000; fill-opacity:0.0; 
stroke:#000000; stroke-width:880; stroke-opacity:1; 
stroke-linecap:round; stroke-linejoin:round;">
<path d="M11931 31772
L11931 31652
" />
<path d="M12931 31772
L12931 31652
" />
<path d="M13931 31772
L13931 31652
" />
</g>
<g style="fill:#000000; fill-opacity:0.0; 
stroke:#000000; stroke-width:0; stroke-opacity:1; 
stroke-linecap:round; stroke-linejoin:round;">
</g>
<g style="fill:#000000; fill-opacity:1.0; 
stroke:#000000; stroke-width:0; stroke-opacity:1; 
stroke-linecap:round; stroke-linejoin:round;">
<polyline style="fill-rule:evenodd;"
points="34762,12813
35474,12813
35474,13288
34762,13288
34762,12813
" /> 
<polyline style="fill-rule:evenodd;"
points="34762,13561
35474,13561
35474,14037
34762,14037
34762,13561
" /> 
<polyline style="fill-rule:evenodd;"
points="37360,12813
38072,12813
38072,13288
37360,13288
37360,12813
" /> 
<polyline style="fill-rule:evenodd;"
points="37360,13561
38072,13561
38072,14037
37360,14037
37360,13561
" /> 
<polyline style="fill-rule:evenodd;"
points="35570,25318
35570,24607
36045,24607
36045,25318
35570,25318
" /> 
<polyline style="fill-rule:evenodd;"
points="36318,25318
36318,24607
36793,24607
36793,25318
36318,25318
" /> 
<polyline style="fill-rule:evenodd;"
points="23775,23451
24487,23451
24487,23926
23775,23926
23775,23451
" /> 
<polyline style="fill-rule:evenodd;"
points="23775,24199
24487,24199
24487,24674
23775,24674
23775,24199
" /> 
<polyline style="fill-rule:evenodd;"
points="27393,25757
27393,26468
26918,26468
26918,25757
27393,25757
" /> 
<polyline style="fill-rule:evenodd;"
points="26645,25757
26645,26468
26170,26468
26170,25757
26645,25757
" /> 
<polyline style="fill-rule:evenodd;"
points="26670,27268
26670,26557
27145,26557
27145,27268
26670,27268
" /> 
<polyline style="fill-rule:evenodd;"
points="27418,27268
27418,26557
27893,26557
27893,27268
27418,27268
" /> 
<polyline style="fill-rule:evenodd;"
points="24337,28624
23625,28624
23625,28149
24337,28149
24337,28624
" /> 
<polyline style="fill-rule:evenodd;"
points="24337,27876
23625,27876
23625,27401
24337,27401
24337,27876
" /> 
<polyline style="fill-rule:evenodd;"
points="23875,26001
24587,26001
24587,26476
23875,26476
23875,26001
" /> 
<polyline style="fill-rule:evenodd;"
points="23875,26749
24587,26749
24587,27224
23875,27224
23875,26749
" /> 
<polyline style="fill-rule:evenodd;"
points="14120,27318
14120,26607
14595,26607
14595,27318
14120,27318
" /> 
<polyline style="fill-rule:evenodd;"
points="14868,27318
14868,26607
15343,26607
15343,27318
14868,27318
" /> 
<polyline style="fill-rule:evenodd;"
points="29316,28311
28447,28311
28447,27756
29316,27756
29316,28311
" /> 
<polyline style="fill-rule:evenodd;"
points="29316,27169
28447,27169
28447,26614
29316,26614
29316,27169
" /> 
<polyline style="fill-rule:evenodd;"
points="24083,25497
24083,24628
24638,24628
24638,25497
24083,25497
" /> 
<polyline style="fill-rule:evenodd;"
points="25225,25497
25225,24628
25779,24628
25779,25497
25225,25497
" /> 
<polyline style="fill-rule:evenodd;"
points="30911,28330
29451,28330
29451,27736
30911,27736
30911,28330
" /> 
<polyline style="fill-rule:evenodd;"
points="30911,25889
29451,25889
29451,25295
30911,25295
30911,25889
" /> 
<polyline style="fill-rule:evenodd;"
points="12119,26070
12119,27255
11525,27255
11525,26070
12119,26070
" /> 
<polyline style="fill-rule:evenodd;"
points="10938,26070
10938,27255
10344,27255
10344,26070
10938,26070
" /> 
<polyline style="fill-rule:evenodd;"
points="16524,25650
15339,25650
15339,25056
16524,25056
16524,25650
" /> 
<polyline style="fill-rule:evenodd;"
points="16524,24469
15339,24469
15339,23875
16524,23875
16524,24469
" /> 
<polyline style="fill-rule:evenodd;"
points="11779,23328
11779,24197
11225,24197
11225,23328
11779,23328
" /> 
<polyline style="fill-rule:evenodd;"
points="10638,23328
10638,24197
10083,24197
10083,23328
10638,23328
" /> 
<polyline style="fill-rule:evenodd;"
points="35579,31032
35579,28903
36960,28903
36960,31032
35579,31032
" /> 
<polyline style="fill-rule:evenodd;"
points="39202,31111
39202,28982
40583,28982
40583,31111
39202,31111
" /> 
<polyline style="fill-rule:evenodd;"
points="29615,29732
29615,28548
31114,28548
31114,29732
29615,29732
" /> 
<polyline style="fill-rule:evenodd;"
points="29615,32410
29615,31226
31114,31226
31114,32410
29615,32410
" /> 
<polyline style="fill-rule:evenodd;"
points="37714,9863
37714,8561
38111,8561
38111,9863
37714,9863
" /> 
<polyline style="fill-rule:evenodd;"
points="38029,9863
38029,8561
38426,8561
38426,9863
38029,9863
" /> 
<polyline style="fill-rule:evenodd;"
points="35825,9863
35825,8561
36222,8561
36222,9863
35825,9863
" /> 
<polyline style="fill-rule:evenodd;"
points="36140,9863
36140,8561
36537,8561
36537,9863
36140,9863
" /> 
<polyline style="fill-rule:evenodd;"
points="35510,9863
35510,8561
35907,8561
35907,9863
35510,9863
" /> 
<polyline style="fill-rule:evenodd;"
points="35195,9863
35195,8561
35592,8561
35592,9863
35195,9863
" /> 
<polyline style="fill-rule:evenodd;"
points="36455,9863
36455,8561
36851,8561
36851,9863
36455,9863
" /> 
<polyline style="fill-rule:evenodd;"
points="36770,9863
36770,8561
37166,8561
37166,9863
36770,9863
" /> 
<polyline style="fill-rule:evenodd;"
points="37400,9863
37400,8561
37796,8561
37796,9863
37400,9863
" /> 
<polyline style="fill-rule:evenodd;"
points="37085,9863
37085,8561
37481,8561
37481,9863
37085,9863
" /> 
<polyline style="fill-rule:evenodd;"
points="37380,13975
38052,13975
38052,14647
37380,14647
37380,13975
" /> 
<polyline style="fill-rule:evenodd;"
points="37380,14801
38052,14801
38052,15473
37380,15473
37380,14801
" /> 
<polyline style="fill-rule:evenodd;"
points="18050,16202
18050,15322
19050,15322
19050,16202
18050,16202
" /> 
</g>
<g style="fill:#000000; fill-opacity:1.0; 
stroke:#000000; stroke-width:880; stroke-opacity:1; 
stroke-linecap:round; stroke-linejoin:round;">
</g>
<g style="fill:#000000; fill-opacity:0.0; 
stroke:#000000; stroke-width:880; stroke-opacity:1; 
stroke-linecap:round; stroke-linejoin:round;">
<path d="M18490 16762
L18610 16762
" />
<path d="M18490 17762
L18610 17762
" />
<path d="M18490 18762
L18610 18762
" />
</g>
<g style="fill:#000000; fill-opacity:0.0; 
stroke:#000000; stroke-width:0; stroke-opacity:1; 
stroke-linecap:round; stroke-linejoin:round;">
</g>
<g style="fill:#000000; fill-opacity:1.0; 
stroke:#000000; stroke-width:0; stroke-opacity:1; 
stroke-linecap:round; stroke-linejoin:round;">
<polyline style="fill-rule:evenodd;"
points="36061,12813
36773,12813
36773,13288
36061,13288
36061,12813
" /> 
<polyline style="fill-rule:evenodd;"
points="36061,13561
36773,13561
36773,14037
36061,14037
36061,13561
" /> 
<polyline style="fill-rule:evenodd;"
points="34201,26754
33321,26754
33321,26375
34201,26375
34201,26754
" /> 
<polyline style="fill-rule:evenodd;"
points="34201,26499
33321,26499
33321,26119
34201,26119
34201,26499
" /> 
<polyline style="fill-rule:evenodd;"
points="34201,26243
33321,26243
33321,25863
34201,25863
34201,26243
" /> 
<polyline style="fill-rule:evenodd;"
points="34201,25987
33321,25987
33321,25607
34201,25607
34201,25987
" /> 
<polyline style="fill-rule:evenodd;"
points="33371,25987
32491,25987
32491,25607
33371,25607
33371,25987
" /> 
<polyline style="fill-rule:evenodd;"
points="33371,26243
32491,26243
32491,25863
33371,25863
33371,26243
" /> 
<polyline style="fill-rule:evenodd;"
points="33371,26499
32491,26499
32491,26119
33371,26119
33371,26499
" /> 
<polyline style="fill-rule:evenodd;"
points="33371,26754
32491,26754
32491,26375
33371,26375
33371,26754
" /> 
<polyline style="fill-rule:evenodd;"
points="24211,21396
24922,21396
24922,21871
24211,21871
24211,21396
" /> 
<polyline style="fill-rule:evenodd;"
points="24211,22144
24922,22144
24922,22619
24211,22619
24211,22144
" /> 
<polyline style="fill-rule:evenodd;"
points="25195,21396
25907,21396
25907,21871
25195,21871
25195,21396
" /> 
<polyline style="fill-rule:evenodd;"
points="25195,22144
25907,22144
25907,22619
25195,22619
25195,22144
" /> 
<polyline style="fill-rule:evenodd;"
points="11000,16002
11000,15122
12000,15122
12000,16002
11000,16002
" /> 
</g>
<g style="fill:#000000; fill-opacity:1.0; 
stroke:#000000; stroke-width:880; stroke-opacity:1; 
stroke-linecap:round; stroke-linejoin:round;">
</g>
<g style="fill:#000000; fill-opacity:0.0; 
stroke:#000000; stroke-width:880; stroke-opacity:1; 
stroke-linecap:round; stroke-linejoin:round;">
<path d="M11440 16562
L11560 16562
" />
<path d="M11440 17562
L11560 17562
" />
<path d="M11440 18562
L11560 18562
" />
</g>
<g style="fill:#000000; fill-opacity:0.0; 
stroke:#000000; stroke-width:0; stroke-opacity:1; 
stroke-linecap:round; stroke-linejoin:round;">
</g>
<g style="fill:#000000; fill-opacity:1.0; 
stroke:#000000; stroke-width:0; stroke-opacity:1; 
stroke-linecap:round; stroke-linejoin:round;">
<polyline style="fill-rule:evenodd;"
points="16000,16002
16000,15122
17000,15122
17000,16002
16000,16002
" /> 
</g>
<g style="fill:#000000; fill-opacity:1.0; 
stroke:#000000; stroke-width:880; stroke-opacity:1; 
stroke-linecap:round; stroke-linejoin:round;">
</g>
<g style="fill:#000000; fill-opacity:0.0; 
stroke:#000000; stroke-width:880; stroke-opacity:1; 
stroke-linecap:round; stroke-linejoin:round;">
<path d="M16440 16562
L16560 16562
" />
<path d="M16440 17562
L16560 17562
" />
<path d="M16440 18562
L16560 18562
" />
</g>
<g style="fill:#000000; fill-opacity:0.0; 
stroke:#000000; stroke-width:0; stroke-opacity:1; 
stroke-linecap:round; stroke-linejoin:round;">
</g>
<g style="fill:#000000; fill-opacity:1.0; 
stroke:#000000; stroke-width:0; stroke-opacity:1; 
stroke-linecap:round; stroke-linejoin:round;">
<polyline style="fill-rule:evenodd;"
points="35159,21293
35159,21659
34722,21659
34722,21293
35159,21293
" /> 
<polyline style="fill-rule:evenodd;"
points="35159,20781
35159,21147
34722,21147
34722,20781
35159,20781
" /> 
<polyline style="fill-rule:evenodd;"
points="34411,21293
34411,21659
33974,21659
33974,21293
34411,21293
" /> 
<polyline style="fill-rule:evenodd;"
points="35159,21037
35159,21403
34722,21403
34722,21037
35159,21037
" /> 
<polyline style="fill-rule:evenodd;"
points="34411,20781
34411,21147
33974,21147
33974,20781
34411,20781
" /> 
<polyline style="fill-rule:evenodd;"
points="31097,15728
31097,15078
31497,15078
31497,15728
31097,15728
" /> 
<polyline style="fill-rule:evenodd;"
points="31597,15728
31597,15078
31997,15078
31997,15728
31597,15728
" /> 
<polyline style="fill-rule:evenodd;"
points="32097,15728
32097,15078
32497,15078
32497,15728
32097,15728
" /> 
<polyline style="fill-rule:evenodd;"
points="32597,15728
32597,15078
32997,15078
32997,15728
32597,15728
" /> 
<polyline style="fill-rule:evenodd;"
points="32597,18228
32597,17578
32997,17578
32997,18228
32597,18228
" /> 
<polyline style="fill-rule:evenodd;"
points="32097,18228
32097,17578
32497,17578
32497,18228
32097,18228
" /> 
<polyline style="fill-rule:evenodd;"
points="31597,18228
31597,17578
31997,17578
31997,18228
31597,18228
" /> 
<polyline style="fill-rule:evenodd;"
points="31097,18228
31097,17578
31497,17578
31497,18228
31097,18228
" /> 
<polyline style="fill-rule:evenodd;"
points="30985,18170
30274,18170
30274,17695
30985,17695
30985,18170
" /> 
<polyline style="fill-rule:evenodd;"
points="30985,17422
30274,17422
30274,16947
30985,16947
30985,17422
" /> 
<polyline style="fill-rule:evenodd;"
points="31094,15690
30401,15690
30401,15096
31094,15096
31094,15690
" /> 
<polyline style="fill-rule:evenodd;"
points="31094,14903
30401,14903
30401,14309
31094,14309
31094,14903
" /> 
<polyline style="fill-rule:evenodd;"
points="34722,21789
35434,21789
35434,22265
34722,22265
34722,21789
" /> 
<polyline style="fill-rule:evenodd;"
points="34722,22537
35434,22537
35434,23013
34722,23013
34722,22537
" /> 
</g> 
</svg>
