<?xml version="1.0" standalone="no"?>
 <!DOCTYPE svg PUBLIC "-//W3C//DTD SVG 1.1//EN" 
 "http://www.w3.org/Graphics/SVG/1.1/DTD/svg11.dtd"> 
<svg xmlns="http://www.w3.org/2000/svg" version="1.1" 
    width="27.94cm" height="21.59cm" viewBox="0 0 110000 85000 ">
<title>SVG Picture created as dropbot_control_board-B.SilkS.svg date 2017/03/07 17:39:21 </title>
  <desc>Picture generated by PCBNEW </desc>
<g style="fill:#000000; fill-opacity:1;stroke:#000000; stroke-opacity:1;
stroke-linecap:round; stroke-linejoin:round; "
 transform="translate(0 0) scale(1 1)">
</g>
<g style="fill:#000000; fill-opacity:0.0; 
stroke:#000000; stroke-width:-0.000393701; stroke-opacity:1; 
stroke-linecap:round; stroke-linejoin:round;">
</g>
<g style="fill:#000000; fill-opacity:0.0; 
stroke:#000000; stroke-width:39.3701; stroke-opacity:1; 
stroke-linecap:round; stroke-linejoin:round;">
</g>
<g style="fill:#000000; fill-opacity:0.0; 
stroke:#000000; stroke-width:59.0551; stroke-opacity:1; 
stroke-linecap:round; stroke-linejoin:round;">
<rect x="62755.9" y="67677.2" width="42519.7" height="12598.4" rx="0" />
</g>
<g style="fill:#000000; fill-opacity:0.0; 
stroke:#000000; stroke-width:39.3701; stroke-opacity:1; 
stroke-linecap:round; stroke-linejoin:round;">
</g>
<g style="fill:#000000; fill-opacity:0.0; 
stroke:#000000; stroke-width:59.0551; stroke-opacity:1; 
stroke-linecap:round; stroke-linejoin:round;">
<rect x="3937.01" y="3937.01" width="102126" height="77126" rx="0" />
</g>
<g style="fill:#000000; fill-opacity:0.0; 
stroke:#000000; stroke-width:39.3701; stroke-opacity:1; 
stroke-linecap:round; stroke-linejoin:round;">
</g>
<g style="fill:#000000; fill-opacity:0.0; 
stroke:#000000; stroke-width:59.0551; stroke-opacity:1; 
stroke-linecap:round; stroke-linejoin:round;">
<rect x="4724.41" y="4724.41" width="100551" height="75551.2" rx="0" />
</g>
<g style="fill:#000000; fill-opacity:0.0; 
stroke:#000000; stroke-width:39.3701; stroke-opacity:1; 
stroke-linecap:round; stroke-linejoin:round;">
</g>
<g style="fill:#000000; fill-opacity:0.0; 
stroke:#000000; stroke-width:59.0551; stroke-opacity:1; 
stroke-linecap:round; stroke-linejoin:round;">
<path d="M23622 4724
L23622 3937
" />
</g>
<g style="fill:#000000; fill-opacity:0.0; 
stroke:#000000; stroke-width:39.3701; stroke-opacity:1; 
stroke-linecap:round; stroke-linejoin:round;">
</g>
<g style="fill:#000000; fill-opacity:0.0; 
stroke:#000000; stroke-width:59.0551; stroke-opacity:1; 
stroke-linecap:round; stroke-linejoin:round;">
<path d="M43307 4724
L43307 3937
" />
</g>
<g style="fill:#000000; fill-opacity:0.0; 
stroke:#000000; stroke-width:39.3701; stroke-opacity:1; 
stroke-linecap:round; stroke-linejoin:round;">
</g>
<g style="fill:#000000; fill-opacity:0.0; 
stroke:#000000; stroke-width:59.0551; stroke-opacity:1; 
stroke-linecap:round; stroke-linejoin:round;">
<path d="M62992 4724
L62992 3937
" />
</g>
<g style="fill:#000000; fill-opacity:0.0; 
stroke:#000000; stroke-width:39.3701; stroke-opacity:1; 
stroke-linecap:round; stroke-linejoin:round;">
</g>
<g style="fill:#000000; fill-opacity:0.0; 
stroke:#000000; stroke-width:59.0551; stroke-opacity:1; 
stroke-linecap:round; stroke-linejoin:round;">
<path d="M82677 4724
L82677 3937
" />
</g>
<g style="fill:#000000; fill-opacity:0.0; 
stroke:#000000; stroke-width:39.3701; stroke-opacity:1; 
stroke-linecap:round; stroke-linejoin:round;">
</g>
<g style="fill:#000000; fill-opacity:0.0; 
stroke:#000000; stroke-width:59.0551; stroke-opacity:1; 
stroke-linecap:round; stroke-linejoin:round;">
<path d="M102362 4724
L102362 3937
" />
</g>
<g style="fill:#000000; fill-opacity:0.0; 
stroke:#000000; stroke-width:39.3701; stroke-opacity:1; 
stroke-linecap:round; stroke-linejoin:round;">
</g>
<g style="fill:#000000; fill-opacity:0.0; 
stroke:#000000; stroke-width:59.0551; stroke-opacity:1; 
stroke-linecap:round; stroke-linejoin:round;">
<path d="M14169 4562
L13877 4562
" />
<path d="M14023 4562
L14023 4050
L13974 4123
L13925 4172
L13877 4196
" />
</g>
<g style="fill:#000000; fill-opacity:0.0; 
stroke:#000000; stroke-width:39.3701; stroke-opacity:1; 
stroke-linecap:round; stroke-linejoin:round;">
</g>
<g style="fill:#000000; fill-opacity:0.0; 
stroke:#000000; stroke-width:59.0551; stroke-opacity:1; 
stroke-linecap:round; stroke-linejoin:round;">
<path d="M33562 4099
L33586 4074
L33635 4050
L33757 4050
L33805 4074
L33830 4099
L33854 4147
L33854 4196
L33830 4269
L33537 4562
L33854 4562
" />
</g>
<g style="fill:#000000; fill-opacity:0.0; 
stroke:#000000; stroke-width:39.3701; stroke-opacity:1; 
stroke-linecap:round; stroke-linejoin:round;">
</g>
<g style="fill:#000000; fill-opacity:0.0; 
stroke:#000000; stroke-width:59.0551; stroke-opacity:1; 
stroke-linecap:round; stroke-linejoin:round;">
<path d="M53222 4050
L53539 4050
L53368 4245
L53442 4245
L53490 4269
L53515 4294
L53539 4342
L53539 4464
L53515 4513
L53490 4537
L53442 4562
L53295 4562
L53247 4537
L53222 4513
" />
</g>
<g style="fill:#000000; fill-opacity:0.0; 
stroke:#000000; stroke-width:39.3701; stroke-opacity:1; 
stroke-linecap:round; stroke-linejoin:round;">
</g>
<g style="fill:#000000; fill-opacity:0.0; 
stroke:#000000; stroke-width:59.0551; stroke-opacity:1; 
stroke-linecap:round; stroke-linejoin:round;">
<path d="M73175 4221
L73175 4562
" />
<path d="M73053 4026
L72932 4391
L73248 4391
" />
</g>
<g style="fill:#000000; fill-opacity:0.0; 
stroke:#000000; stroke-width:39.3701; stroke-opacity:1; 
stroke-linecap:round; stroke-linejoin:round;">
</g>
<g style="fill:#000000; fill-opacity:0.0; 
stroke:#000000; stroke-width:59.0551; stroke-opacity:1; 
stroke-linecap:round; stroke-linejoin:round;">
<path d="M92885 4050
L92641 4050
L92617 4294
L92641 4269
L92690 4245
L92812 4245
L92860 4269
L92885 4294
L92909 4342
L92909 4464
L92885 4513
L92860 4537
L92812 4562
L92690 4562
L92641 4537
L92617 4513
" />
</g>
<g style="fill:#000000; fill-opacity:0.0; 
stroke:#000000; stroke-width:39.3701; stroke-opacity:1; 
stroke-linecap:round; stroke-linejoin:round;">
</g>
<g style="fill:#000000; fill-opacity:0.0; 
stroke:#000000; stroke-width:59.0551; stroke-opacity:1; 
stroke-linecap:round; stroke-linejoin:round;">
<path d="M23622 80275
L23622 81062
" />
</g>
<g style="fill:#000000; fill-opacity:0.0; 
stroke:#000000; stroke-width:39.3701; stroke-opacity:1; 
stroke-linecap:round; stroke-linejoin:round;">
</g>
<g style="fill:#000000; fill-opacity:0.0; 
stroke:#000000; stroke-width:59.0551; stroke-opacity:1; 
stroke-linecap:round; stroke-linejoin:round;">
<path d="M43307 80275
L43307 81062
" />
</g>
<g style="fill:#000000; fill-opacity:0.0; 
stroke:#000000; stroke-width:39.3701; stroke-opacity:1; 
stroke-linecap:round; stroke-linejoin:round;">
</g>
<g style="fill:#000000; fill-opacity:0.0; 
stroke:#000000; stroke-width:59.0551; stroke-opacity:1; 
stroke-linecap:round; stroke-linejoin:round;">
<path d="M62992 80275
L62992 81062
" />
</g>
<g style="fill:#000000; fill-opacity:0.0; 
stroke:#000000; stroke-width:39.3701; stroke-opacity:1; 
stroke-linecap:round; stroke-linejoin:round;">
</g>
<g style="fill:#000000; fill-opacity:0.0; 
stroke:#000000; stroke-width:59.0551; stroke-opacity:1; 
stroke-linecap:round; stroke-linejoin:round;">
<path d="M82677 80275
L82677 81062
" />
</g>
<g style="fill:#000000; fill-opacity:0.0; 
stroke:#000000; stroke-width:39.3701; stroke-opacity:1; 
stroke-linecap:round; stroke-linejoin:round;">
</g>
<g style="fill:#000000; fill-opacity:0.0; 
stroke:#000000; stroke-width:59.0551; stroke-opacity:1; 
stroke-linecap:round; stroke-linejoin:round;">
<path d="M102362 80275
L102362 81062
" />
</g>
<g style="fill:#000000; fill-opacity:0.0; 
stroke:#000000; stroke-width:39.3701; stroke-opacity:1; 
stroke-linecap:round; stroke-linejoin:round;">
</g>
<g style="fill:#000000; fill-opacity:0.0; 
stroke:#000000; stroke-width:59.0551; stroke-opacity:1; 
stroke-linecap:round; stroke-linejoin:round;">
<path d="M14169 80900
L13877 80900
" />
<path d="M14023 80900
L14023 80389
L13974 80462
L13925 80510
L13877 80535
" />
</g>
<g style="fill:#000000; fill-opacity:0.0; 
stroke:#000000; stroke-width:39.3701; stroke-opacity:1; 
stroke-linecap:round; stroke-linejoin:round;">
</g>
<g style="fill:#000000; fill-opacity:0.0; 
stroke:#000000; stroke-width:59.0551; stroke-opacity:1; 
stroke-linecap:round; stroke-linejoin:round;">
<path d="M33562 80437
L33586 80413
L33635 80389
L33757 80389
L33805 80413
L33830 80437
L33854 80486
L33854 80535
L33830 80608
L33537 80900
L33854 80900
" />
</g>
<g style="fill:#000000; fill-opacity:0.0; 
stroke:#000000; stroke-width:39.3701; stroke-opacity:1; 
stroke-linecap:round; stroke-linejoin:round;">
</g>
<g style="fill:#000000; fill-opacity:0.0; 
stroke:#000000; stroke-width:59.0551; stroke-opacity:1; 
stroke-linecap:round; stroke-linejoin:round;">
<path d="M53222 80389
L53539 80389
L53368 80583
L53442 80583
L53490 80608
L53515 80632
L53539 80681
L53539 80803
L53515 80852
L53490 80876
L53442 80900
L53295 80900
L53247 80876
L53222 80852
" />
</g>
<g style="fill:#000000; fill-opacity:0.0; 
stroke:#000000; stroke-width:39.3701; stroke-opacity:1; 
stroke-linecap:round; stroke-linejoin:round;">
</g>
<g style="fill:#000000; fill-opacity:0.0; 
stroke:#000000; stroke-width:59.0551; stroke-opacity:1; 
stroke-linecap:round; stroke-linejoin:round;">
<path d="M73175 80559
L73175 80900
" />
<path d="M73053 80364
L72932 80730
L73248 80730
" />
</g>
<g style="fill:#000000; fill-opacity:0.0; 
stroke:#000000; stroke-width:39.3701; stroke-opacity:1; 
stroke-linecap:round; stroke-linejoin:round;">
</g>
<g style="fill:#000000; fill-opacity:0.0; 
stroke:#000000; stroke-width:59.0551; stroke-opacity:1; 
stroke-linecap:round; stroke-linejoin:round;">
<path d="M92885 80389
L92641 80389
L92617 80632
L92641 80608
L92690 80583
L92812 80583
L92860 80608
L92885 80632
L92909 80681
L92909 80803
L92885 80852
L92860 80876
L92812 80900
L92690 80900
L92641 80876
L92617 80852
" />
</g>
<g style="fill:#000000; fill-opacity:0.0; 
stroke:#000000; stroke-width:39.3701; stroke-opacity:1; 
stroke-linecap:round; stroke-linejoin:round;">
</g>
<g style="fill:#000000; fill-opacity:0.0; 
stroke:#000000; stroke-width:59.0551; stroke-opacity:1; 
stroke-linecap:round; stroke-linejoin:round;">
<path d="M3937 23622
L4724 23622
" />
</g>
<g style="fill:#000000; fill-opacity:0.0; 
stroke:#000000; stroke-width:39.3701; stroke-opacity:1; 
stroke-linecap:round; stroke-linejoin:round;">
</g>
<g style="fill:#000000; fill-opacity:0.0; 
stroke:#000000; stroke-width:59.0551; stroke-opacity:1; 
stroke-linecap:round; stroke-linejoin:round;">
<path d="M3937 43307
L4724 43307
" />
</g>
<g style="fill:#000000; fill-opacity:0.0; 
stroke:#000000; stroke-width:39.3701; stroke-opacity:1; 
stroke-linecap:round; stroke-linejoin:round;">
</g>
<g style="fill:#000000; fill-opacity:0.0; 
stroke:#000000; stroke-width:59.0551; stroke-opacity:1; 
stroke-linecap:round; stroke-linejoin:round;">
<path d="M3937 62992
L4724 62992
" />
</g>
<g style="fill:#000000; fill-opacity:0.0; 
stroke:#000000; stroke-width:39.3701; stroke-opacity:1; 
stroke-linecap:round; stroke-linejoin:round;">
</g>
<g style="fill:#000000; fill-opacity:0.0; 
stroke:#000000; stroke-width:59.0551; stroke-opacity:1; 
stroke-linecap:round; stroke-linejoin:round;">
<path d="M4208 13864
L4452 13864
" />
<path d="M4160 14011
L4330 13499
L4501 14011
" />
</g>
<g style="fill:#000000; fill-opacity:0.0; 
stroke:#000000; stroke-width:39.3701; stroke-opacity:1; 
stroke-linecap:round; stroke-linejoin:round;">
</g>
<g style="fill:#000000; fill-opacity:0.0; 
stroke:#000000; stroke-width:59.0551; stroke-opacity:1; 
stroke-linecap:round; stroke-linejoin:round;">
<path d="M4367 33428
L4440 33452
L4464 33476
L4489 33525
L4489 33598
L4464 33647
L4440 33671
L4391 33696
L4196 33696
L4196 33184
L4367 33184
L4416 33208
L4440 33233
L4464 33281
L4464 33330
L4440 33379
L4416 33403
L4367 33428
L4196 33428
" />
</g>
<g style="fill:#000000; fill-opacity:0.0; 
stroke:#000000; stroke-width:39.3701; stroke-opacity:1; 
stroke-linecap:round; stroke-linejoin:round;">
</g>
<g style="fill:#000000; fill-opacity:0.0; 
stroke:#000000; stroke-width:59.0551; stroke-opacity:1; 
stroke-linecap:round; stroke-linejoin:round;">
<path d="M4489 53332
L4464 53356
L4391 53381
L4342 53381
L4269 53356
L4221 53308
L4196 53259
L4172 53161
L4172 53088
L4196 52991
L4221 52942
L4269 52893
L4342 52869
L4391 52869
L4464 52893
L4489 52918
" />
</g>
<g style="fill:#000000; fill-opacity:0.0; 
stroke:#000000; stroke-width:39.3701; stroke-opacity:1; 
stroke-linecap:round; stroke-linejoin:round;">
</g>
<g style="fill:#000000; fill-opacity:0.0; 
stroke:#000000; stroke-width:59.0551; stroke-opacity:1; 
stroke-linecap:round; stroke-linejoin:round;">
<path d="M4196 73066
L4196 72554
L4318 72554
L4391 72578
L4440 72627
L4464 72676
L4489 72773
L4489 72846
L4464 72944
L4440 72993
L4391 73041
L4318 73066
L4196 73066
" />
</g>
<g style="fill:#000000; fill-opacity:0.0; 
stroke:#000000; stroke-width:39.3701; stroke-opacity:1; 
stroke-linecap:round; stroke-linejoin:round;">
</g>
<g style="fill:#000000; fill-opacity:0.0; 
stroke:#000000; stroke-width:59.0551; stroke-opacity:1; 
stroke-linecap:round; stroke-linejoin:round;">
<path d="M106062 23622
L105275 23622
" />
</g>
<g style="fill:#000000; fill-opacity:0.0; 
stroke:#000000; stroke-width:39.3701; stroke-opacity:1; 
stroke-linecap:round; stroke-linejoin:round;">
</g>
<g style="fill:#000000; fill-opacity:0.0; 
stroke:#000000; stroke-width:59.0551; stroke-opacity:1; 
stroke-linecap:round; stroke-linejoin:round;">
<path d="M106062 43307
L105275 43307
" />
</g>
<g style="fill:#000000; fill-opacity:0.0; 
stroke:#000000; stroke-width:39.3701; stroke-opacity:1; 
stroke-linecap:round; stroke-linejoin:round;">
</g>
<g style="fill:#000000; fill-opacity:0.0; 
stroke:#000000; stroke-width:59.0551; stroke-opacity:1; 
stroke-linecap:round; stroke-linejoin:round;">
<path d="M106062 62992
L105275 62992
" />
</g>
<g style="fill:#000000; fill-opacity:0.0; 
stroke:#000000; stroke-width:39.3701; stroke-opacity:1; 
stroke-linecap:round; stroke-linejoin:round;">
</g>
<g style="fill:#000000; fill-opacity:0.0; 
stroke:#000000; stroke-width:59.0551; stroke-opacity:1; 
stroke-linecap:round; stroke-linejoin:round;">
<path d="M105547 13864
L105791 13864
" />
<path d="M105498 14011
L105669 13499
L105839 14011
" />
</g>
<g style="fill:#000000; fill-opacity:0.0; 
stroke:#000000; stroke-width:39.3701; stroke-opacity:1; 
stroke-linecap:round; stroke-linejoin:round;">
</g>
<g style="fill:#000000; fill-opacity:0.0; 
stroke:#000000; stroke-width:59.0551; stroke-opacity:1; 
stroke-linecap:round; stroke-linejoin:round;">
<path d="M105705 33428
L105778 33452
L105803 33476
L105827 33525
L105827 33598
L105803 33647
L105778 33671
L105730 33696
L105535 33696
L105535 33184
L105705 33184
L105754 33208
L105778 33233
L105803 33281
L105803 33330
L105778 33379
L105754 33403
L105705 33428
L105535 33428
" />
</g>
<g style="fill:#000000; fill-opacity:0.0; 
stroke:#000000; stroke-width:39.3701; stroke-opacity:1; 
stroke-linecap:round; stroke-linejoin:round;">
</g>
<g style="fill:#000000; fill-opacity:0.0; 
stroke:#000000; stroke-width:59.0551; stroke-opacity:1; 
stroke-linecap:round; stroke-linejoin:round;">
<path d="M105827 53332
L105803 53356
L105730 53381
L105681 53381
L105608 53356
L105559 53308
L105535 53259
L105510 53161
L105510 53088
L105535 52991
L105559 52942
L105608 52893
L105681 52869
L105730 52869
L105803 52893
L105827 52918
" />
</g>
<g style="fill:#000000; fill-opacity:0.0; 
stroke:#000000; stroke-width:39.3701; stroke-opacity:1; 
stroke-linecap:round; stroke-linejoin:round;">
</g>
<g style="fill:#000000; fill-opacity:0.0; 
stroke:#000000; stroke-width:59.0551; stroke-opacity:1; 
stroke-linecap:round; stroke-linejoin:round;">
<path d="M105535 73066
L105535 72554
L105657 72554
L105730 72578
L105778 72627
L105803 72676
L105827 72773
L105827 72846
L105803 72944
L105778 72993
L105730 73041
L105657 73066
L105535 73066
" />
</g>
<g style="fill:#000000; fill-opacity:0.0; 
stroke:#000000; stroke-width:39.3701; stroke-opacity:1; 
stroke-linecap:round; stroke-linejoin:round;">
</g>
<g style="fill:#000000; fill-opacity:0.0; 
stroke:#000000; stroke-width:59.0551; stroke-opacity:1; 
stroke-linecap:round; stroke-linejoin:round;">
<path d="M71951 78613
L71951 78023
L72092 78023
L72176 78051
L72232 78107
L72260 78163
L72289 78276
L72289 78360
L72260 78473
L72232 78529
L72176 78585
L72092 78613
L71951 78613
" />
<path d="M72795 78613
L72795 78304
L72767 78248
L72710 78219
L72598 78219
L72542 78248
" />
<path d="M72795 78585
L72739 78613
L72598 78613
L72542 78585
L72514 78529
L72514 78473
L72542 78416
L72598 78388
L72739 78388
L72795 78360
" />
<path d="M72992 78219
L73217 78219
" />
<path d="M73076 78023
L73076 78529
L73104 78585
L73160 78613
L73217 78613
" />
<path d="M73638 78585
L73582 78613
L73470 78613
L73413 78585
L73385 78529
L73385 78304
L73413 78248
L73470 78219
L73582 78219
L73638 78248
L73667 78304
L73667 78360
L73385 78416
" />
<path d="M73920 78557
L73948 78585
L73920 78613
L73892 78585
L73920 78557
L73920 78613
" />
<path d="M73920 78248
L73948 78276
L73920 78304
L73892 78276
L73920 78248
L73920 78304
" />
<path d="M74623 78079
L74651 78051
L74707 78023
L74848 78023
L74904 78051
L74932 78079
L74960 78135
L74960 78191
L74932 78276
L74595 78613
L74960 78613
" />
<path d="M75326 78023
L75382 78023
L75438 78051
L75466 78079
L75494 78135
L75523 78248
L75523 78388
L75494 78501
L75466 78557
L75438 78585
L75382 78613
L75326 78613
L75269 78585
L75241 78557
L75213 78501
L75185 78388
L75185 78248
L75213 78135
L75241 78079
L75269 78051
L75326 78023
" />
<path d="M76085 78613
L75748 78613
" />
<path d="M75916 78613
L75916 78023
L75860 78107
L75804 78163
L75748 78191
" />
<path d="M76282 78023
L76676 78023
L76422 78613
" />
<path d="M76901 78388
L77350 78388
" />
<path d="M77744 78023
L77800 78023
L77857 78051
L77885 78079
L77913 78135
L77941 78248
L77941 78388
L77913 78501
L77885 78557
L77857 78585
L77800 78613
L77744 78613
L77688 78585
L77660 78557
L77632 78501
L77604 78388
L77604 78248
L77632 78135
L77660 78079
L77688 78051
L77744 78023
" />
<path d="M78138 78023
L78503 78023
L78307 78248
L78391 78248
L78447 78276
L78475 78304
L78503 78360
L78503 78501
L78475 78557
L78447 78585
L78391 78613
L78222 78613
L78166 78585
L78138 78557
" />
<path d="M78757 78388
L79206 78388
" />
<path d="M79600 78023
L79656 78023
L79713 78051
L79741 78079
L79769 78135
L79797 78248
L79797 78388
L79769 78501
L79741 78557
L79713 78585
L79656 78613
L79600 78613
L79544 78585
L79516 78557
L79488 78501
L79460 78388
L79460 78248
L79488 78135
L79516 78079
L79544 78051
L79600 78023
" />
<path d="M79994 78023
L80388 78023
L80134 78613
" />
</g>
<g style="fill:#000000; fill-opacity:0.0; 
stroke:#000000; stroke-width:39.3701; stroke-opacity:1; 
stroke-linecap:round; stroke-linejoin:round;">
</g>
<g style="fill:#000000; fill-opacity:0.0; 
stroke:#000000; stroke-width:59.0551; stroke-opacity:1; 
stroke-linecap:round; stroke-linejoin:round;">
<path d="M62755 78897
L105275 78897
" />
</g>
<g style="fill:#000000; fill-opacity:0.0; 
stroke:#000000; stroke-width:39.3701; stroke-opacity:1; 
stroke-linecap:round; stroke-linejoin:round;">
</g>
<g style="fill:#000000; fill-opacity:0.0; 
stroke:#000000; stroke-width:59.0551; stroke-opacity:1; 
stroke-linecap:round; stroke-linejoin:round;">
<path d="M63290 79715
L63290 79125
" />
<path d="M63627 79715
L63374 79378
" />
<path d="M63627 79125
L63290 79462
" />
<path d="M63880 79715
L63880 79322
" />
<path d="M63880 79125
L63852 79153
L63880 79181
L63908 79153
L63880 79125
L63880 79181
" />
<path d="M64499 79659
L64471 79687
L64386 79715
L64330 79715
L64246 79687
L64190 79631
L64161 79575
L64133 79462
L64133 79378
L64161 79266
L64190 79209
L64246 79153
L64330 79125
L64386 79125
L64471 79153
L64499 79181
" />
<path d="M65005 79715
L65005 79406
L64977 79350
L64921 79322
L64808 79322
L64752 79350
" />
<path d="M65005 79687
L64949 79715
L64808 79715
L64752 79687
L64724 79631
L64724 79575
L64752 79519
L64808 79491
L64949 79491
L65005 79462
" />
<path d="M65539 79715
L65539 79125
" />
<path d="M65539 79687
L65483 79715
L65371 79715
L65314 79687
L65286 79659
L65258 79603
L65258 79434
L65286 79378
L65314 79350
L65371 79322
L65483 79322
L65539 79350
" />
<path d="M66271 79406
L66467 79406
" />
<path d="M66552 79715
L66271 79715
L66271 79125
L66552 79125
" />
<path d="M66805 79659
L66833 79687
L66805 79715
L66777 79687
L66805 79659
L66805 79715
" />
<path d="M67086 79715
L67086 79125
L67227 79125
L67311 79153
L67367 79209
L67395 79266
L67424 79378
L67424 79462
L67395 79575
L67367 79631
L67311 79687
L67227 79715
L67086 79715
" />
<path d="M67677 79659
L67705 79687
L67677 79715
L67649 79687
L67677 79659
L67677 79715
" />
<path d="M67930 79547
L68211 79547
" />
<path d="M67874 79715
L68070 79125
L68267 79715
" />
<path d="M68464 79659
L68492 79687
L68464 79715
L68436 79687
L68464 79659
L68464 79715
" />
<path d="M69645 79715
L69645 79125
" />
<path d="M69701 79491
L69870 79715
" />
<path d="M69870 79322
L69645 79547
" />
<path d="M70123 79715
L70123 79322
" />
<path d="M70123 79125
L70095 79153
L70123 79181
L70151 79153
L70123 79125
L70123 79181
" />
<path d="M70658 79687
L70601 79715
L70489 79715
L70433 79687
L70404 79659
L70376 79603
L70376 79434
L70404 79378
L70433 79350
L70489 79322
L70601 79322
L70658 79350
" />
<path d="M71164 79715
L71164 79406
L71136 79350
L71079 79322
L70967 79322
L70911 79350
" />
<path d="M71164 79687
L71107 79715
L70967 79715
L70911 79687
L70883 79631
L70883 79575
L70911 79519
L70967 79491
L71107 79491
L71164 79462
" />
<path d="M71698 79715
L71698 79125
" />
<path d="M71698 79687
L71642 79715
L71529 79715
L71473 79687
L71445 79659
L71417 79603
L71417 79434
L71445 79378
L71473 79350
L71529 79322
L71642 79322
L71698 79350
" />
<path d="M72682 79322
L72682 79715
" />
<path d="M72542 79097
L72401 79519
L72767 79519
" />
<path d="M72992 79659
L73020 79687
L72992 79715
L72964 79687
L72992 79659
L72992 79715
" />
<path d="M73385 79125
L73442 79125
L73498 79153
L73526 79181
L73554 79237
L73582 79350
L73582 79491
L73554 79603
L73526 79659
L73498 79687
L73442 79715
L73385 79715
L73329 79687
L73301 79659
L73273 79603
L73245 79491
L73245 79350
L73273 79237
L73301 79181
L73329 79153
L73385 79125
" />
<path d="M73835 79659
L73863 79687
L73835 79715
L73807 79687
L73835 79659
L73835 79715
" />
<path d="M74426 79715
L74088 79715
" />
<path d="M74257 79715
L74257 79125
L74201 79209
L74145 79266
L74088 79294
" />
<path d="M74679 79491
L75129 79491
" />
<path d="M75382 79687
L75438 79715
L75551 79715
L75607 79687
L75635 79631
L75635 79603
L75607 79547
L75551 79519
L75466 79519
L75410 79491
L75382 79434
L75382 79406
L75410 79350
L75466 79322
L75551 79322
L75607 79350
" />
<path d="M75804 79322
L76029 79322
" />
<path d="M75888 79125
L75888 79631
L75916 79687
L75973 79715
L76029 79715
" />
<path d="M76479 79715
L76479 79406
L76451 79350
L76394 79322
L76282 79322
L76226 79350
" />
<path d="M76479 79687
L76422 79715
L76282 79715
L76226 79687
L76197 79631
L76197 79575
L76226 79519
L76282 79491
L76422 79491
L76479 79462
" />
<path d="M76760 79715
L76760 79125
" />
<path d="M76760 79350
L76816 79322
L76929 79322
L76985 79350
L77013 79378
L77041 79434
L77041 79603
L77013 79659
L76985 79687
L76929 79715
L76816 79715
L76760 79687
" />
<path d="M77379 79715
L77322 79687
L77294 79631
L77294 79125
" />
<path d="M77829 79687
L77772 79715
L77660 79715
L77604 79687
L77575 79631
L77575 79406
L77604 79350
L77660 79322
L77772 79322
L77829 79350
L77857 79406
L77857 79462
L77575 79519
" />
</g>
<g style="fill:#000000; fill-opacity:0.0; 
stroke:#000000; stroke-width:39.3701; stroke-opacity:1; 
stroke-linecap:round; stroke-linejoin:round;">
</g>
<g style="fill:#000000; fill-opacity:0.0; 
stroke:#000000; stroke-width:59.0551; stroke-opacity:1; 
stroke-linecap:round; stroke-linejoin:round;">
<path d="M62755 77716
L105275 77716
" />
</g>
<g style="fill:#000000; fill-opacity:0.0; 
stroke:#000000; stroke-width:39.3701; stroke-opacity:1; 
stroke-linecap:round; stroke-linejoin:round;">
</g>
<g style="fill:#000000; fill-opacity:0.0; 
stroke:#000000; stroke-width:118.11; stroke-opacity:1; 
stroke-linecap:round; stroke-linejoin:round;">
<path d="M97092 78613
L96895 78332
" />
<path d="M96754 78613
L96754 78023
L96979 78023
L97035 78051
L97064 78079
L97092 78135
L97092 78219
L97064 78276
L97035 78304
L96979 78332
L96754 78332
" />
<path d="M97570 78585
L97514 78613
L97401 78613
L97345 78585
L97317 78529
L97317 78304
L97345 78248
L97401 78219
L97514 78219
L97570 78248
L97598 78304
L97598 78360
L97317 78416
" />
<path d="M97795 78219
L97935 78613
L98076 78219
" />
<path d="M98301 78557
L98329 78585
L98301 78613
L98273 78585
L98301 78557
L98301 78613
" />
<path d="M98301 78248
L98329 78276
L98301 78304
L98273 78276
L98301 78248
L98301 78304
" />
<path d="M98976 78023
L99341 78023
L99145 78248
L99229 78248
L99285 78276
L99313 78304
L99341 78360
L99341 78501
L99313 78557
L99285 78585
L99229 78613
L99060 78613
L99004 78585
L98976 78557
" />
<path d="M99595 78557
L99623 78585
L99595 78613
L99566 78585
L99595 78557
L99595 78613
" />
<path d="M100185 78613
L99848 78613
" />
<path d="M100016 78613
L100016 78023
L99960 78107
L99904 78163
L99848 78191
" />
</g>
<g style="fill:#000000; fill-opacity:0.0; 
stroke:#000000; stroke-width:39.3701; stroke-opacity:1; 
stroke-linecap:round; stroke-linejoin:round;">
</g>
<g style="fill:#000000; fill-opacity:0.0; 
stroke:#000000; stroke-width:59.0551; stroke-opacity:1; 
stroke-linecap:round; stroke-linejoin:round;">
<path d="M63262 78585
L63346 78613
L63487 78613
L63543 78585
L63571 78557
L63599 78501
L63599 78444
L63571 78388
L63543 78360
L63487 78332
L63374 78304
L63318 78276
L63290 78248
L63262 78191
L63262 78135
L63290 78079
L63318 78051
L63374 78023
L63515 78023
L63599 78051
" />
<path d="M63852 78613
L63852 78219
" />
<path d="M63852 78023
L63824 78051
L63852 78079
L63880 78051
L63852 78023
L63852 78079
" />
<path d="M64077 78219
L64386 78219
L64077 78613
L64386 78613
" />
<path d="M64836 78585
L64780 78613
L64668 78613
L64611 78585
L64583 78529
L64583 78304
L64611 78248
L64668 78219
L64780 78219
L64836 78248
L64865 78304
L64865 78360
L64583 78416
" />
<path d="M65118 78557
L65146 78585
L65118 78613
L65089 78585
L65118 78557
L65118 78613
" />
<path d="M65118 78248
L65146 78276
L65118 78304
L65089 78276
L65118 78248
L65118 78304
" />
<path d="M65849 78023
L65849 78501
L65877 78557
L65905 78585
L65961 78613
L66074 78613
L66130 78585
L66158 78557
L66186 78501
L66186 78023
" />
<path d="M66439 78585
L66524 78613
L66664 78613
L66721 78585
L66749 78557
L66777 78501
L66777 78444
L66749 78388
L66721 78360
L66664 78332
L66552 78304
L66496 78276
L66467 78248
L66439 78191
L66439 78135
L66467 78079
L66496 78051
L66552 78023
L66692 78023
L66777 78051
" />
<path d="M67311 78613
L67030 78613
L67030 78023
" />
<path d="M67733 78585
L67677 78613
L67564 78613
L67508 78585
L67480 78529
L67480 78304
L67508 78248
L67564 78219
L67677 78219
L67733 78248
L67761 78304
L67761 78360
L67480 78416
" />
<path d="M67930 78219
L68155 78219
" />
<path d="M68014 78023
L68014 78529
L68042 78585
L68098 78613
L68155 78613
" />
<path d="M68267 78219
L68492 78219
" />
<path d="M68352 78023
L68352 78529
L68380 78585
L68436 78613
L68492 78613
" />
<path d="M68914 78585
L68858 78613
L68745 78613
L68689 78585
L68661 78529
L68661 78304
L68689 78248
L68745 78219
L68858 78219
L68914 78248
L68942 78304
L68942 78360
L68661 78416
" />
<path d="M69195 78613
L69195 78219
" />
<path d="M69195 78332
L69223 78276
L69251 78248
L69308 78219
L69364 78219
" />
</g>
<g style="fill:#000000; fill-opacity:0.0; 
stroke:#000000; stroke-width:39.3701; stroke-opacity:1; 
stroke-linecap:round; stroke-linejoin:round;">
</g>
<g style="fill:#000000; fill-opacity:0.0; 
stroke:#000000; stroke-width:59.0551; stroke-opacity:1; 
stroke-linecap:round; stroke-linejoin:round;">
<path d="M96754 79715
L96754 79125
" />
<path d="M97289 79715
L97289 79125
" />
<path d="M97289 79687
L97232 79715
L97120 79715
L97064 79687
L97035 79659
L97007 79603
L97007 79434
L97035 79378
L97064 79350
L97120 79322
L97232 79322
L97289 79350
" />
<path d="M97570 79659
L97598 79687
L97570 79715
L97542 79687
L97570 79659
L97570 79715
" />
<path d="M97570 79350
L97598 79378
L97570 79406
L97542 79378
L97570 79350
L97570 79406
" />
<path d="M98610 79715
L98273 79715
" />
<path d="M98442 79715
L98442 79125
L98385 79209
L98329 79266
L98273 79294
" />
<path d="M99285 79097
L98779 79856
" />
<path d="M99791 79715
L99454 79715
" />
<path d="M99623 79715
L99623 79125
L99566 79209
L99510 79266
L99454 79294
" />
</g>
<g style="fill:#000000; fill-opacity:0.0; 
stroke:#000000; stroke-width:39.3701; stroke-opacity:1; 
stroke-linecap:round; stroke-linejoin:round;">
</g>
<g style="fill:#000000; fill-opacity:0.0; 
stroke:#000000; stroke-width:59.0551; stroke-opacity:1; 
stroke-linecap:round; stroke-linejoin:round;">
<path d="M62755 76141
L105275 76141
" />
</g>
<g style="fill:#000000; fill-opacity:0.0; 
stroke:#000000; stroke-width:39.3701; stroke-opacity:1; 
stroke-linecap:round; stroke-linejoin:round;">
</g>
<g style="fill:#000000; fill-opacity:0.0; 
stroke:#000000; stroke-width:157.48; stroke-opacity:1; 
stroke-linecap:round; stroke-linejoin:round;">
<path d="M63327 76419
L63777 76419
" />
<path d="M63454 77206
L63552 76419
" />
<path d="M63941 77206
L64007 76681
" />
<path d="M64040 76419
L63997 76456
L64030 76494
L64072 76456
L64040 76419
L64030 76494
" />
<path d="M64269 76681
L64569 76681
" />
<path d="M64415 76419
L64330 77094
L64358 77169
L64429 77206
L64504 77206
" />
<path d="M64879 77206
L64808 77169
L64780 77094
L64865 76419
" />
<path d="M65483 77169
L65404 77206
L65254 77206
L65183 77169
L65155 77094
L65193 76794
L65239 76719
L65319 76681
L65469 76681
L65539 76719
L65568 76794
L65558 76869
L65174 76944
" />
<path d="M65863 77131
L65896 77169
L65853 77206
L65821 77169
L65863 77131
L65853 77206
" />
<path d="M65914 76719
L65947 76756
L65905 76794
L65872 76756
L65914 76719
L65905 76794
" />
<path d="M66828 77206
L66927 76419
L67114 76419
L67222 76456
L67288 76531
L67316 76606
L67335 76756
L67320 76869
L67264 77019
L67217 77094
L67133 77169
L67016 77206
L66828 77206
" />
<path d="M67616 77206
L67681 76681
" />
<path d="M67663 76831
L67709 76756
L67752 76719
L67831 76681
L67906 76681
" />
<path d="M68216 77206
L68145 77169
L68113 77131
L68084 77056
L68113 76831
L68159 76756
L68202 76719
L68281 76681
L68394 76681
L68464 76719
L68497 76756
L68525 76831
L68497 77056
L68450 77131
L68408 77169
L68328 77206
L68216 77206
" />
<path d="M68881 76681
L68783 77469
" />
<path d="M68877 76719
L68956 76681
L69106 76681
L69176 76719
L69209 76756
L69237 76831
L69209 77056
L69162 77131
L69120 77169
L69041 77206
L68891 77206
L68820 77169
" />
<path d="M69842 76794
L69950 76831
L69983 76869
L70011 76944
L69997 77056
L69950 77131
L69908 77169
L69828 77206
L69528 77206
L69626 76419
L69889 76419
L69959 76456
L69992 76494
L70020 76569
L70011 76644
L69964 76719
L69922 76756
L69842 76794
L69580 76794
" />
<path d="M70428 77206
L70358 77169
L70325 77131
L70297 77056
L70325 76831
L70372 76756
L70414 76719
L70494 76681
L70606 76681
L70676 76719
L70709 76756
L70737 76831
L70709 77056
L70662 77131
L70620 77169
L70540 77206
L70428 77206
" />
<path d="M70981 76681
L71281 76681
" />
<path d="M71126 76419
L71042 77094
L71070 77169
L71140 77206
L71215 77206
" />
<path d="M72420 77169
L72340 77206
L72190 77206
L72120 77169
L72087 77131
L72059 77056
L72087 76831
L72134 76756
L72176 76719
L72256 76681
L72406 76681
L72476 76719
" />
<path d="M72865 77206
L72795 77169
L72762 77131
L72734 77056
L72762 76831
L72809 76756
L72851 76719
L72931 76681
L73043 76681
L73113 76719
L73146 76756
L73174 76831
L73146 77056
L73099 77131
L73057 77169
L72978 77206
L72865 77206
" />
<path d="M73531 76681
L73465 77206
" />
<path d="M73521 76756
L73563 76719
L73643 76681
L73756 76681
L73826 76719
L73854 76794
L73802 77206
" />
<path d="M74131 76681
L74431 76681
" />
<path d="M74276 76419
L74191 77094
L74220 77169
L74290 77206
L74365 77206
" />
<path d="M74627 77206
L74693 76681
" />
<path d="M74674 76831
L74721 76756
L74763 76719
L74843 76681
L74918 76681
" />
<path d="M75227 77206
L75157 77169
L75124 77131
L75096 77056
L75124 76831
L75171 76756
L75213 76719
L75293 76681
L75405 76681
L75476 76719
L75508 76756
L75537 76831
L75508 77056
L75462 77131
L75419 77169
L75340 77206
L75227 77206
" />
<path d="M75940 77206
L75869 77169
L75841 77094
L75926 76419
" />
<path d="M76840 77206
L76938 76419
" />
<path d="M76901 76719
L76980 76681
L77130 76681
L77200 76719
L77233 76756
L77261 76831
L77233 77056
L77186 77131
L77144 77169
L77065 77206
L76915 77206
L76844 77169
" />
<path d="M77664 77206
L77594 77169
L77561 77131
L77533 77056
L77561 76831
L77608 76756
L77650 76719
L77730 76681
L77843 76681
L77913 76719
L77946 76756
L77974 76831
L77946 77056
L77899 77131
L77857 77169
L77777 77206
L77664 77206
" />
<path d="M78602 77206
L78653 76794
L78625 76719
L78555 76681
L78405 76681
L78325 76719
" />
<path d="M78607 77169
L78527 77206
L78339 77206
L78269 77169
L78241 77094
L78250 77019
L78297 76944
L78377 76906
L78564 76906
L78644 76869
" />
<path d="M78977 77206
L79042 76681
" />
<path d="M79024 76831
L79071 76756
L79113 76719
L79192 76681
L79267 76681
" />
<path d="M79802 77206
L79900 76419
" />
<path d="M79806 77169
L79727 77206
L79577 77206
L79506 77169
L79474 77131
L79446 77056
L79474 76831
L79520 76756
L79563 76719
L79642 76681
L79792 76681
L79863 76719
" />
</g>
<g style="fill:#000000; fill-opacity:0.0; 
stroke:#000000; stroke-width:39.3701; stroke-opacity:1; 
stroke-linecap:round; stroke-linejoin:round;">
</g>
<g style="fill:#000000; fill-opacity:0.0; 
stroke:#000000; stroke-width:59.0551; stroke-opacity:1; 
stroke-linecap:round; stroke-linejoin:round;">
<path d="M63487 75390
L63290 75390
" />
<path d="M63290 75700
L63290 75109
L63571 75109
" />
<path d="M63796 75700
L63796 75306
" />
<path d="M63796 75109
L63768 75137
L63796 75165
L63824 75137
L63796 75109
L63796 75165
" />
<path d="M64161 75700
L64105 75672
L64077 75615
L64077 75109
" />
<path d="M64611 75672
L64555 75700
L64443 75700
L64386 75672
L64358 75615
L64358 75390
L64386 75334
L64443 75306
L64555 75306
L64611 75334
L64640 75390
L64640 75447
L64358 75503
" />
<path d="M64893 75643
L64921 75672
L64893 75700
L64865 75672
L64893 75643
L64893 75700
" />
<path d="M64893 75334
L64921 75362
L64893 75390
L64865 75362
L64893 75334
L64893 75390
" />
<path d="M65877 75700
L65877 75109
" />
<path d="M65877 75672
L65821 75700
L65708 75700
L65652 75672
L65624 75643
L65596 75587
L65596 75419
L65624 75362
L65652 75334
L65708 75306
L65821 75306
L65877 75334
" />
<path d="M66158 75700
L66158 75306
" />
<path d="M66158 75419
L66186 75362
L66214 75334
L66271 75306
L66327 75306
" />
<path d="M66608 75700
L66552 75672
L66524 75643
L66496 75587
L66496 75419
L66524 75362
L66552 75334
L66608 75306
L66692 75306
L66749 75334
L66777 75362
L66805 75419
L66805 75587
L66777 75643
L66749 75672
L66692 75700
L66608 75700
" />
<path d="M67058 75306
L67058 75897
" />
<path d="M67058 75334
L67114 75306
L67227 75306
L67283 75334
L67311 75362
L67339 75419
L67339 75587
L67311 75643
L67283 75672
L67227 75700
L67114 75700
L67058 75672
" />
<path d="M67592 75700
L67592 75109
" />
<path d="M67592 75334
L67649 75306
L67761 75306
L67817 75334
L67845 75362
L67874 75419
L67874 75587
L67845 75643
L67817 75672
L67761 75700
L67649 75700
L67592 75672
" />
<path d="M68211 75700
L68155 75672
L68127 75643
L68098 75587
L68098 75419
L68127 75362
L68155 75334
L68211 75306
L68295 75306
L68352 75334
L68380 75362
L68408 75419
L68408 75587
L68380 75643
L68352 75672
L68295 75700
L68211 75700
" />
<path d="M68577 75306
L68802 75306
" />
<path d="M68661 75109
L68661 75615
L68689 75672
L68745 75700
L68802 75700
" />
<path d="M68858 75756
L69308 75756
" />
<path d="M69701 75672
L69645 75700
L69533 75700
L69476 75672
L69448 75643
L69420 75587
L69420 75419
L69448 75362
L69476 75334
L69533 75306
L69645 75306
L69701 75334
" />
<path d="M70039 75700
L69983 75672
L69955 75643
L69926 75587
L69926 75419
L69955 75362
L69983 75334
L70039 75306
L70123 75306
L70179 75334
L70208 75362
L70236 75419
L70236 75587
L70208 75643
L70179 75672
L70123 75700
L70039 75700
" />
<path d="M70489 75306
L70489 75700
" />
<path d="M70489 75362
L70517 75334
L70573 75306
L70658 75306
L70714 75334
L70742 75390
L70742 75700
" />
<path d="M70939 75306
L71164 75306
" />
<path d="M71023 75109
L71023 75615
L71051 75672
L71107 75700
L71164 75700
" />
<path d="M71361 75700
L71361 75306
" />
<path d="M71361 75419
L71389 75362
L71417 75334
L71473 75306
L71529 75306
" />
<path d="M71811 75700
L71754 75672
L71726 75643
L71698 75587
L71698 75419
L71726 75362
L71754 75334
L71811 75306
L71895 75306
L71951 75334
L71979 75362
L72007 75419
L72007 75587
L71979 75643
L71951 75672
L71895 75700
L71811 75700
" />
<path d="M72345 75700
L72289 75672
L72260 75615
L72260 75109
" />
<path d="M72429 75756
L72879 75756
" />
<path d="M73020 75700
L73020 75109
" />
<path d="M73020 75334
L73076 75306
L73188 75306
L73245 75334
L73273 75362
L73301 75419
L73301 75587
L73273 75643
L73245 75672
L73188 75700
L73076 75700
L73020 75672
" />
<path d="M73638 75700
L73582 75672
L73554 75643
L73526 75587
L73526 75419
L73554 75362
L73582 75334
L73638 75306
L73723 75306
L73779 75334
L73807 75362
L73835 75419
L73835 75587
L73807 75643
L73779 75672
L73723 75700
L73638 75700
" />
<path d="M74341 75700
L74341 75390
L74313 75334
L74257 75306
L74145 75306
L74088 75334
" />
<path d="M74341 75672
L74285 75700
L74145 75700
L74088 75672
L74060 75615
L74060 75559
L74088 75503
L74145 75475
L74285 75475
L74341 75447
" />
<path d="M74623 75700
L74623 75306
" />
<path d="M74623 75419
L74651 75362
L74679 75334
L74735 75306
L74791 75306
" />
<path d="M75241 75700
L75241 75109
" />
<path d="M75241 75672
L75185 75700
L75073 75700
L75016 75672
L74988 75643
L74960 75587
L74960 75419
L74988 75362
L75016 75334
L75073 75306
L75185 75306
L75241 75334
" />
<path d="M75523 75643
L75551 75672
L75523 75700
L75494 75672
L75523 75643
L75523 75700
" />
<path d="M75804 75700
L75804 75109
" />
<path d="M75860 75475
L76029 75700
" />
<path d="M76029 75306
L75804 75531
" />
<path d="M76282 75700
L76282 75306
" />
<path d="M76282 75109
L76254 75137
L76282 75165
L76310 75137
L76282 75109
L76282 75165
" />
<path d="M76816 75672
L76760 75700
L76647 75700
L76591 75672
L76563 75643
L76535 75587
L76535 75419
L76563 75362
L76591 75334
L76647 75306
L76760 75306
L76816 75334
" />
<path d="M77322 75700
L77322 75390
L77294 75334
L77238 75306
L77125 75306
L77069 75334
" />
<path d="M77322 75672
L77266 75700
L77125 75700
L77069 75672
L77041 75615
L77041 75559
L77069 75503
L77125 75475
L77266 75475
L77322 75447
" />
<path d="M77857 75700
L77857 75109
" />
<path d="M77857 75672
L77800 75700
L77688 75700
L77632 75672
L77604 75643
L77575 75587
L77575 75419
L77604 75362
L77632 75334
L77688 75306
L77800 75306
L77857 75334
" />
<path d="M77997 75756
L78447 75756
" />
<path d="M78588 75306
L78588 75897
" />
<path d="M78588 75334
L78644 75306
L78757 75306
L78813 75334
L78841 75362
L78869 75419
L78869 75587
L78841 75643
L78813 75672
L78757 75700
L78644 75700
L78588 75672
" />
<path d="M79375 75672
L79319 75700
L79206 75700
L79150 75672
L79122 75643
L79094 75587
L79094 75419
L79122 75362
L79150 75334
L79206 75306
L79319 75306
L79375 75334
" />
<path d="M79628 75700
L79628 75109
" />
<path d="M79628 75334
L79685 75306
L79797 75306
L79853 75334
L79881 75362
L79910 75419
L79910 75587
L79881 75643
L79853 75672
L79797 75700
L79685 75700
L79628 75672
" />
</g>
<g style="fill:#000000; fill-opacity:0.0; 
stroke:#000000; stroke-width:39.3701; stroke-opacity:1; 
stroke-linecap:round; stroke-linejoin:round;">
</g>
<g style="fill:#000000; fill-opacity:0.0; 
stroke:#000000; stroke-width:59.0551; stroke-opacity:1; 
stroke-linecap:round; stroke-linejoin:round;">
<path d="M62755 73779
L105275 73779
" />
</g>
<g style="fill:#000000; fill-opacity:0.0; 
stroke:#000000; stroke-width:39.3701; stroke-opacity:1; 
stroke-linecap:round; stroke-linejoin:round;">
</g>
<g style="fill:#000000; fill-opacity:0.0; 
stroke:#000000; stroke-width:59.0551; stroke-opacity:1; 
stroke-linecap:round; stroke-linejoin:round;">
<path d="M63262 74609
L63346 74637
L63487 74637
L63543 74609
L63571 74580
L63599 74524
L63599 74468
L63571 74412
L63543 74384
L63487 74356
L63374 74327
L63318 74299
L63290 74271
L63262 74215
L63262 74159
L63290 74102
L63318 74074
L63374 74046
L63515 74046
L63599 74074
" />
<path d="M63852 74637
L63852 74046
" />
<path d="M64105 74637
L64105 74327
L64077 74271
L64021 74243
L63937 74243
L63880 74271
L63852 74299
" />
<path d="M64611 74609
L64555 74637
L64443 74637
L64386 74609
L64358 74552
L64358 74327
L64386 74271
L64443 74243
L64555 74243
L64611 74271
L64640 74327
L64640 74384
L64358 74440
" />
<path d="M65118 74609
L65061 74637
L64949 74637
L64893 74609
L64865 74552
L64865 74327
L64893 74271
L64949 74243
L65061 74243
L65118 74271
L65146 74327
L65146 74384
L64865 74440
" />
<path d="M65314 74243
L65539 74243
" />
<path d="M65399 74046
L65399 74552
L65427 74609
L65483 74637
L65539 74637
" />
<path d="M65736 74580
L65764 74609
L65736 74637
L65708 74609
L65736 74580
L65736 74637
" />
<path d="M65736 74271
L65764 74299
L65736 74327
L65708 74299
L65736 74271
L65736 74327
" />
</g>
<g style="fill:#000000; fill-opacity:0.0; 
stroke:#000000; stroke-width:39.3701; stroke-opacity:1; 
stroke-linecap:round; stroke-linejoin:round;">
</g>
<g style="fill:#000000; fill-opacity:0.0; 
stroke:#000000; stroke-width:118.11; stroke-opacity:1; 
stroke-linecap:round; stroke-linejoin:round;">
<path d="M63262 73428
L63346 73456
L63487 73456
L63543 73428
L63571 73399
L63599 73343
L63599 73287
L63571 73231
L63543 73203
L63487 73174
L63374 73146
L63318 73118
L63290 73090
L63262 73034
L63262 72978
L63290 72921
L63318 72893
L63374 72865
L63515 72865
L63599 72893
" />
<path d="M64105 73428
L64049 73456
L63937 73456
L63880 73428
L63852 73399
L63824 73343
L63824 73174
L63852 73118
L63880 73090
L63937 73062
L64049 73062
L64105 73090
" />
<path d="M64358 73456
L64358 73062
" />
<path d="M64358 72865
L64330 72893
L64358 72921
L64386 72893
L64358 72865
L64358 72921
" />
<path d="M64640 73231
L65089 73231
" />
<path d="M65568 73146
L65652 73174
L65680 73203
L65708 73259
L65708 73343
L65680 73399
L65652 73428
L65596 73456
L65371 73456
L65371 72865
L65568 72865
L65624 72893
L65652 72921
L65680 72978
L65680 73034
L65652 73090
L65624 73118
L65568 73146
L65371 73146
" />
<path d="M66046 73456
L65989 73428
L65961 73399
L65933 73343
L65933 73174
L65961 73118
L65989 73090
L66046 73062
L66130 73062
L66186 73090
L66214 73118
L66242 73174
L66242 73343
L66214 73399
L66186 73428
L66130 73456
L66046 73456
" />
<path d="M66411 73062
L66636 73062
" />
<path d="M66496 72865
L66496 73371
L66524 73428
L66580 73456
L66636 73456
" />
<path d="M66805 73428
L66861 73456
L66974 73456
L67030 73428
L67058 73371
L67058 73343
L67030 73287
L66974 73259
L66889 73259
L66833 73231
L66805 73174
L66805 73146
L66833 73090
L66889 73062
L66974 73062
L67030 73090
" />
<path d="M67761 73456
L67761 72865
" />
<path d="M68042 73062
L68042 73456
" />
<path d="M68042 73118
L68070 73090
L68127 73062
L68211 73062
L68267 73090
L68295 73146
L68295 73456
" />
<path d="M68830 73428
L68773 73456
L68661 73456
L68605 73428
L68577 73399
L68548 73343
L68548 73174
L68577 73118
L68605 73090
L68661 73062
L68773 73062
L68830 73090
" />
<path d="M69083 73399
L69111 73428
L69083 73456
L69055 73428
L69083 73399
L69083 73456
" />
</g>
<g style="fill:#000000; fill-opacity:0.0; 
stroke:#000000; stroke-width:39.3701; stroke-opacity:1; 
stroke-linecap:round; stroke-linejoin:round;">
</g>
<g style="fill:#000000; fill-opacity:0.0; 
stroke:#000000; stroke-width:59.0551; stroke-opacity:1; 
stroke-linecap:round; stroke-linejoin:round;">
<path d="M70629 77716
L70629 78897
" />
</g>
<g style="fill:#000000; fill-opacity:0.0; 
stroke:#000000; stroke-width:39.3701; stroke-opacity:1; 
stroke-linecap:round; stroke-linejoin:round;">
</g>
<g style="fill:#000000; fill-opacity:0.0; 
stroke:#000000; stroke-width:59.0551; stroke-opacity:1; 
stroke-linecap:round; stroke-linejoin:round;">
<path d="M95826 77716
L95826 80275
" />
</g>
<g style="fill:#000000; fill-opacity:0.0; 
stroke:#000000; stroke-width:39.3701; stroke-opacity:1; 
stroke-linecap:round; stroke-linejoin:round;">
<path d="M9448 16929
L9448 44488
" />
<path d="M33070 16929
L9448 16929
" />
<path d="M33070 8267
L33070 16929
" />
<path d="M42519 8267
L42519 44488
" />
<path d="M33070 8267
L42519 8267
" />
<path d="M9448 44488
L42519 44488
" />
</g>
<g style="fill:#000000; fill-opacity:0.0; 
stroke:#000000; stroke-width:59.0551; stroke-opacity:1; 
stroke-linecap:round; stroke-linejoin:round;">
<path d="M13819 20876
L13819 20483
" />
<path d="M13406 20839
L13425 20858
L13481 20876
L13519 20876
L13575 20858
L13613 20820
L13631 20783
L13650 20708
L13650 20651
L13631 20576
L13613 20539
L13575 20501
L13519 20483
L13481 20483
L13425 20501
L13406 20520
" />
<path d="M13031 20876
L13256 20876
" />
<path d="M13144 20876
L13144 20483
L13181 20539
L13219 20576
L13256 20595
" />
<path d="M23543 33188
L23524 33151
L23487 33113
L23431 33057
L23412 33020
L23412 32982
" />
<path d="M23505 33001
L23487 32963
L23449 32926
L23374 32907
L23243 32907
L23168 32926
L23131 32963
L23112 33001
L23112 33076
L23131 33113
L23168 33151
L23243 33170
L23374 33170
L23449 33151
L23487 33113
L23505 33076
L23505 33001
" />
<path d="M23112 33507
L23112 33432
L23131 33395
L23149 33376
L23206 33338
L23281 33320
L23431 33320
L23468 33338
L23487 33357
L23505 33395
L23505 33470
L23487 33507
L23468 33526
L23431 33545
L23337 33545
L23299 33526
L23281 33507
L23262 33470
L23262 33395
L23281 33357
L23299 33338
L23337 33320
" />
<path d="M21443 37638
L21424 37601
L21387 37563
L21331 37507
L21312 37470
L21312 37432
" />
<path d="M21405 37451
L21387 37413
L21349 37376
L21274 37357
L21143 37357
L21068 37376
L21031 37413
L21012 37451
L21012 37526
L21031 37563
L21068 37601
L21143 37620
L21274 37620
L21349 37601
L21387 37563
L21405 37526
L21405 37451
" />
<path d="M21012 37976
L21012 37788
L21199 37770
L21181 37788
L21162 37826
L21162 37920
L21181 37957
L21199 37976
L21237 37995
L21331 37995
L21368 37976
L21387 37957
L21405 37920
L21405 37826
L21387 37788
L21368 37770
" />
<path d="M31454 38522
L31492 38503
L31529 38466
L31586 38410
L31623 38391
L31661 38391
" />
<path d="M31642 38485
L31679 38466
L31717 38428
L31736 38353
L31736 38222
L31717 38147
L31679 38110
L31642 38091
L31567 38091
L31529 38110
L31492 38147
L31473 38222
L31473 38353
L31492 38428
L31529 38466
L31567 38485
L31642 38485
" />
<path d="M31098 38485
L31323 38485
" />
<path d="M31211 38485
L31211 38091
L31248 38147
L31286 38185
L31323 38203
" />
<path d="M41910 26865
L42229 26865
L42266 26884
L42285 26902
L42304 26940
L42304 27015
L42285 27052
L42266 27071
L42229 27090
L41910 27090
" />
<path d="M41910 27240
L41910 27502
L42304 27334
" />
<path d="M33130 26314
L33449 26314
L33487 26332
L33505 26351
L33524 26389
L33524 26464
L33505 26501
L33487 26520
L33449 26539
L33130 26539
" />
<path d="M33130 26914
L33130 26726
L33318 26707
L33299 26726
L33280 26764
L33280 26857
L33299 26895
L33318 26914
L33355 26932
L33449 26932
L33487 26914
L33505 26895
L33524 26857
L33524 26764
L33505 26726
L33487 26707
" />
<path d="M41552 30376
L41571 30395
L41627 30414
L41664 30414
L41721 30395
L41758 30358
L41777 30320
L41796 30245
L41796 30189
L41777 30114
L41758 30076
L41721 30039
L41664 30020
L41627 30020
L41571 30039
L41552 30058
" />
<path d="M41177 30414
L41402 30414
" />
<path d="M41289 30414
L41289 30020
L41327 30076
L41364 30114
L41402 30133
" />
<path d="M41027 30058
L41008 30039
L40971 30020
L40877 30020
L40839 30039
L40821 30058
L40802 30095
L40802 30133
L40821 30189
L41046 30414
L40802 30414
" />
<path d="M40376 30219
L40395 30200
L40414 30144
L40414 30106
L40395 30050
L40358 30013
L40320 29994
L40245 29975
L40189 29975
L40114 29994
L40076 30013
L40039 30050
L40020 30106
L40020 30144
L40039 30200
L40058 30219
" />
<path d="M40414 30594
L40414 30369
" />
<path d="M40414 30481
L40020 30481
L40076 30444
L40114 30406
L40133 30369
" />
<path d="M40020 30725
L40020 30969
L40170 30838
L40170 30894
L40189 30931
L40208 30950
L40245 30969
L40339 30969
L40376 30950
L40395 30931
L40414 30894
L40414 30781
L40395 30744
L40376 30725
" />
<path d="M41119 24311
L41250 24124
" />
<path d="M41344 24311
L41344 23918
L41194 23918
L41156 23937
L41137 23955
L41119 23993
L41119 24049
L41137 24086
L41156 24105
L41194 24124
L41344 24124
" />
<path d="M40969 23955
L40950 23937
L40913 23918
L40819 23918
L40781 23937
L40763 23955
L40744 23993
L40744 24030
L40763 24086
L40988 24311
L40744 24311
" />
<path d="M40406 24049
L40406 24311
" />
<path d="M40500 23899
L40594 24180
L40350 24180
" />
<path d="M38757 24036
L38888 23848
" />
<path d="M38982 24036
L38982 23642
L38832 23642
L38794 23661
L38775 23680
L38757 23717
L38757 23773
L38775 23811
L38794 23830
L38832 23848
L38982 23848
" />
<path d="M38607 23680
L38588 23661
L38550 23642
L38457 23642
L38419 23661
L38400 23680
L38382 23717
L38382 23755
L38400 23811
L38625 24036
L38382 24036
" />
<path d="M38157 23811
L38194 23792
L38213 23773
L38232 23736
L38232 23717
L38213 23680
L38194 23661
L38157 23642
L38082 23642
L38044 23661
L38025 23680
L38007 23717
L38007 23736
L38025 23773
L38044 23792
L38082 23811
L38157 23811
L38194 23830
L38213 23848
L38232 23886
L38232 23961
L38213 23998
L38194 24017
L38157 24036
L38082 24036
L38044 24017
L38025 23998
L38007 23961
L38007 23886
L38025 23848
L38044 23830
L38082 23811
" />
<path d="M36670 30493
L36801 30305
" />
<path d="M36895 30493
L36895 30099
L36745 30099
L36707 30118
L36689 30136
L36670 30174
L36670 30230
L36689 30268
L36707 30286
L36745 30305
L36895 30305
" />
<path d="M36295 30493
L36520 30493
" />
<path d="M36407 30493
L36407 30099
L36445 30155
L36482 30193
L36520 30211
" />
<path d="M36051 30099
L36014 30099
L35976 30118
L35958 30136
L35939 30174
L35920 30249
L35920 30343
L35939 30418
L35958 30455
L35976 30474
L36014 30493
L36051 30493
L36089 30474
L36107 30455
L36126 30418
L36145 30343
L36145 30249
L36126 30174
L36107 30136
L36089 30118
L36051 30099
" />
<path d="M33953 30335
L34085 30148
" />
<path d="M34178 30335
L34178 29941
L34028 29941
L33991 29960
L33972 29979
L33953 30016
L33953 30073
L33972 30110
L33991 30129
L34028 30148
L34178 30148
" />
<path d="M33578 30335
L33803 30335
" />
<path d="M33691 30335
L33691 29941
L33728 29998
L33766 30035
L33803 30054
" />
<path d="M33203 30335
L33428 30335
" />
<path d="M33316 30335
L33316 29941
L33353 29998
L33391 30035
L33428 30054
" />
<path d="M36670 29784
L36801 29596
" />
<path d="M36895 29784
L36895 29390
L36745 29390
L36707 29409
L36689 29428
L36670 29465
L36670 29521
L36689 29559
L36707 29578
L36745 29596
L36895 29596
" />
<path d="M36295 29784
L36520 29784
" />
<path d="M36407 29784
L36407 29390
L36445 29446
L36482 29484
L36520 29503
" />
<path d="M36145 29428
L36126 29409
L36089 29390
L35995 29390
L35958 29409
L35939 29428
L35920 29465
L35920 29503
L35939 29559
L36164 29784
L35920 29784
" />
<path d="M33402 24863
L33533 24675
" />
<path d="M33627 24863
L33627 24469
L33477 24469
L33440 24488
L33421 24506
L33402 24544
L33402 24600
L33421 24638
L33440 24656
L33477 24675
L33627 24675
" />
<path d="M33027 24863
L33252 24863
" />
<path d="M33140 24863
L33140 24469
L33177 24525
L33215 24563
L33252 24581
" />
<path d="M32896 24469
L32634 24469
L32802 24863
" />
<path d="M28091 19619
L27904 19488
" />
<path d="M28091 19394
L27697 19394
L27697 19544
L27716 19581
L27735 19600
L27772 19619
L27829 19619
L27866 19600
L27885 19581
L27904 19544
L27904 19394
" />
<path d="M27697 19750
L27697 19994
L27847 19863
L27847 19919
L27866 19956
L27885 19975
L27922 19994
L28016 19994
L28053 19975
L28072 19956
L28091 19919
L28091 19806
L28072 19769
L28053 19750
" />
<path d="M26162 19580
L25974 19448
" />
<path d="M26162 19355
L25768 19355
L25768 19505
L25787 19542
L25806 19561
L25843 19580
L25899 19580
L25937 19561
L25956 19542
L25974 19505
L25974 19355
" />
<path d="M25899 19917
L26162 19917
" />
<path d="M25749 19823
L26031 19730
L26031 19973
" />
<path d="M26241 30731
L26053 30599
" />
<path d="M26241 30506
L25847 30506
L25847 30656
L25866 30693
L25884 30712
L25922 30731
L25978 30731
L26016 30712
L26034 30693
L26053 30656
L26053 30506
" />
<path d="M26241 31106
L26241 30881
" />
<path d="M26241 30993
L25847 30993
L25903 30956
L25941 30918
L25959 30881
" />
<path d="M26241 31293
L26241 31368
L26222 31406
L26203 31424
L26147 31462
L26072 31481
L25922 31481
L25884 31462
L25866 31443
L25847 31406
L25847 31331
L25866 31293
L25884 31274
L25922 31256
L26016 31256
L26053 31274
L26072 31293
L26091 31331
L26091 31406
L26072 31443
L26053 31462
L26016 31481
" />
<path d="M24626 29628
L24439 29497
" />
<path d="M24626 29403
L24233 29403
L24233 29553
L24251 29591
L24270 29610
L24308 29628
L24364 29628
L24401 29610
L24420 29591
L24439 29553
L24439 29403
" />
<path d="M24270 29778
L24251 29797
L24233 29835
L24233 29928
L24251 29966
L24270 29985
L24308 30003
L24345 30003
L24401 29985
L24626 29760
L24626 30003
" />
<path d="M24233 30247
L24233 30284
L24251 30322
L24270 30341
L24308 30359
L24383 30378
L24476 30378
L24551 30359
L24589 30341
L24608 30322
L24626 30284
L24626 30247
L24608 30209
L24589 30191
L24551 30172
L24476 30153
L24383 30153
L24308 30172
L24270 30191
L24251 30209
L24233 30247
" />
<path d="M26518 23565
L26537 23547
L26556 23490
L26556 23453
L26537 23397
L26499 23359
L26462 23340
L26387 23322
L26331 23322
L26256 23340
L26218 23359
L26181 23397
L26162 23453
L26162 23490
L26181 23547
L26199 23565
" />
<path d="M26199 23715
L26181 23734
L26162 23772
L26162 23865
L26181 23903
L26199 23922
L26237 23940
L26274 23940
L26331 23922
L26556 23697
L26556 23940
" />
<path d="M26331 24165
L26312 24128
L26293 24109
L26256 24090
L26237 24090
L26199 24109
L26181 24128
L26162 24165
L26162 24240
L26181 24278
L26199 24296
L26237 24315
L26256 24315
L26293 24296
L26312 24278
L26331 24240
L26331 24165
L26349 24128
L26368 24109
L26406 24090
L26481 24090
L26518 24109
L26537 24128
L26556 24165
L26556 24240
L26537 24278
L26518 24296
L26481 24315
L26406 24315
L26368 24296
L26349 24278
L26331 24240
" />
<path d="M28841 23526
L28860 23507
L28878 23451
L28878 23413
L28860 23357
L28822 23320
L28785 23301
L28710 23282
L28653 23282
L28578 23301
L28541 23320
L28503 23357
L28485 23413
L28485 23451
L28503 23507
L28522 23526
" />
<path d="M28522 23676
L28503 23695
L28485 23732
L28485 23826
L28503 23863
L28522 23882
L28560 23901
L28597 23901
L28653 23882
L28878 23657
L28878 23901
" />
<path d="M28878 24088
L28878 24163
L28860 24201
L28841 24220
L28785 24257
L28710 24276
L28560 24276
L28522 24257
L28503 24238
L28485 24201
L28485 24126
L28503 24088
L28522 24070
L28560 24051
L28653 24051
L28691 24070
L28710 24088
L28728 24126
L28728 24201
L28710 24238
L28691 24257
L28653 24276
" />
<path d="M12969 32187
L12988 32206
L13044 32225
L13082 32225
L13138 32206
L13175 32169
L13194 32131
L13213 32056
L13213 32000
L13194 31925
L13175 31887
L13138 31850
L13082 31831
L13044 31831
L12988 31850
L12969 31869
" />
<path d="M12838 31831
L12594 31831
L12725 31981
L12669 31981
L12632 32000
L12613 32019
L12594 32056
L12594 32150
L12613 32187
L12632 32206
L12669 32225
L12782 32225
L12819 32206
L12838 32187
" />
<path d="M12238 31831
L12425 31831
L12444 32019
L12425 32000
L12388 31981
L12294 31981
L12257 32000
L12238 32019
L12219 32056
L12219 32150
L12238 32187
L12257 32206
L12294 32225
L12388 32225
L12425 32206
L12444 32187
" />
<path d="M25406 20109
L25538 20109
" />
<path d="M25538 20315
L25538 19922
L25350 19922
" />
<path d="M25069 20109
L25013 20128
L24994 20147
L24975 20184
L24975 20240
L24994 20278
L25013 20297
L25050 20315
L25200 20315
L25200 19922
L25069 19922
L25031 19940
L25013 19959
L24994 19997
L24994 20034
L25013 20072
L25031 20090
L25069 20109
L25200 20109
" />
<path d="M24600 20315
L24825 20315
" />
<path d="M24713 20315
L24713 19922
L24750 19978
L24788 20015
L24825 20034
" />
<path d="M10208 32309
L10208 32178
" />
<path d="M10414 32178
L10020 32178
L10020 32365
" />
<path d="M10208 32647
L10226 32703
L10245 32722
L10283 32740
L10339 32740
L10376 32722
L10395 32703
L10414 32665
L10414 32515
L10020 32515
L10020 32647
L10039 32684
L10058 32703
L10095 32722
L10133 32722
L10170 32703
L10189 32684
L10208 32647
L10208 32515
" />
<path d="M10058 32890
L10039 32909
L10020 32947
L10020 33040
L10039 33078
L10058 33097
L10095 33115
L10133 33115
L10189 33097
L10414 32872
L10414 33115
" />
<path d="M24666 28329
L24478 28198
" />
<path d="M24666 28104
L24272 28104
L24272 28254
L24291 28292
L24310 28310
L24347 28329
L24403 28329
L24441 28310
L24460 28292
L24478 28254
L24478 28104
" />
<path d="M24403 28667
L24666 28667
" />
<path d="M24253 28573
L24535 28479
L24535 28723
" />
<path d="M24272 28948
L24272 28985
L24291 29023
L24310 29041
L24347 29060
L24422 29079
L24516 29079
L24591 29060
L24628 29041
L24647 29023
L24666 28985
L24666 28948
L24647 28910
L24628 28892
L24591 28873
L24516 28854
L24422 28854
L24347 28873
L24310 28892
L24291 28910
L24272 28948
" />
<path d="M26890 28290
L26703 28158
" />
<path d="M26890 28065
L26497 28065
L26497 28215
L26515 28252
L26534 28271
L26571 28290
L26628 28290
L26665 28271
L26684 28252
L26703 28215
L26703 28065
" />
<path d="M26628 28627
L26890 28627
" />
<path d="M26478 28533
L26759 28440
L26759 28683
" />
<path d="M26890 29040
L26890 28815
" />
<path d="M26890 28927
L26497 28927
L26553 28890
L26590 28852
L26609 28815
" />
<path d="M26595 22305
L26407 22174
" />
<path d="M26595 22080
L26201 22080
L26201 22230
L26220 22268
L26239 22287
L26276 22305
L26332 22305
L26370 22287
L26389 22268
L26407 22230
L26407 22080
" />
<path d="M26332 22643
L26595 22643
" />
<path d="M26182 22549
L26464 22455
L26464 22699
" />
<path d="M26332 23018
L26595 23018
" />
<path d="M26182 22924
L26464 22830
L26464 23074
" />
<path d="M28878 22305
L28691 22174
" />
<path d="M28878 22080
L28485 22080
L28485 22230
L28503 22268
L28522 22287
L28560 22305
L28616 22305
L28653 22287
L28672 22268
L28691 22230
L28691 22080
" />
<path d="M28616 22643
L28878 22643
" />
<path d="M28466 22549
L28747 22455
L28747 22699
" />
<path d="M28485 23037
L28485 22849
L28672 22830
L28653 22849
L28635 22887
L28635 22980
L28653 23018
L28672 23037
L28710 23055
L28803 23055
L28841 23037
L28860 23018
L28878 22980
L28878 22887
L28860 22849
L28841 22830
" />
<path d="M26831 19313
L26644 19182
" />
<path d="M26831 19088
L26437 19088
L26437 19238
L26456 19276
L26475 19295
L26512 19313
L26569 19313
L26606 19295
L26625 19276
L26644 19238
L26644 19088
" />
<path d="M26437 19670
L26437 19482
L26625 19463
L26606 19482
L26587 19520
L26587 19613
L26606 19651
L26625 19670
L26662 19688
L26756 19688
L26794 19670
L26812 19651
L26831 19613
L26831 19520
L26812 19482
L26794 19463
" />
<path d="M26437 19932
L26437 19970
L26456 20007
L26475 20026
L26512 20044
L26587 20063
L26681 20063
L26756 20044
L26794 20026
L26812 20007
L26831 19970
L26831 19932
L26812 19895
L26794 19876
L26756 19857
L26681 19838
L26587 19838
L26512 19857
L26475 19876
L26456 19895
L26437 19932
" />
<path d="M29351 20337
L29163 20206
" />
<path d="M29351 20112
L28957 20112
L28957 20262
L28976 20299
L28995 20318
L29032 20337
L29088 20337
L29126 20318
L29145 20299
L29163 20262
L29163 20112
" />
<path d="M28957 20693
L28957 20506
L29145 20487
L29126 20506
L29107 20543
L29107 20637
L29126 20674
L29145 20693
L29182 20712
L29276 20712
L29313 20693
L29332 20674
L29351 20637
L29351 20543
L29332 20506
L29313 20487
" />
<path d="M29351 21087
L29351 20862
" />
<path d="M29351 20974
L28957 20974
L29013 20937
L29051 20899
L29070 20862
" />
<path d="M23329 29589
L23348 29570
L23367 29514
L23367 29476
L23348 29420
L23310 29383
L23273 29364
L23198 29345
L23142 29345
L23067 29364
L23029 29383
L22992 29420
L22973 29476
L22973 29514
L22992 29570
L23010 29589
" />
<path d="M22973 29720
L22973 29964
L23123 29833
L23123 29889
L23142 29926
L23160 29945
L23198 29964
L23292 29964
L23329 29945
L23348 29926
L23367 29889
L23367 29776
L23348 29739
L23329 29720
" />
<path d="M22973 30301
L22973 30226
L22992 30189
L23010 30170
L23067 30133
L23142 30114
L23292 30114
L23329 30133
L23348 30151
L23367 30189
L23367 30264
L23348 30301
L23329 30320
L23292 30339
L23198 30339
L23160 30320
L23142 30301
L23123 30264
L23123 30189
L23142 30151
L23160 30133
L23198 30114
" />
<path d="M32296 29381
L32427 29381
" />
<path d="M32427 29587
L32427 29193
L32240 29193
" />
<path d="M31959 29381
L31902 29400
L31884 29418
L31865 29456
L31865 29512
L31884 29550
L31902 29568
L31940 29587
L32090 29587
L32090 29193
L31959 29193
L31921 29212
L31902 29231
L31884 29268
L31884 29306
L31902 29343
L31921 29362
L31959 29381
L32090 29381
" />
<path d="M31734 29193
L31490 29193
L31621 29343
L31565 29343
L31527 29362
L31509 29381
L31490 29418
L31490 29512
L31509 29550
L31527 29568
L31565 29587
L31677 29587
L31715 29568
L31734 29550
" />
<path d="M31430 28239
L31561 28239
" />
<path d="M31561 28445
L31561 28052
L31374 28052
" />
<path d="M31092 28239
L31036 28258
L31017 28277
L30999 28314
L30999 28370
L31017 28408
L31036 28427
L31074 28445
L31224 28445
L31224 28052
L31092 28052
L31055 28070
L31036 28089
L31017 28127
L31017 28164
L31036 28202
L31055 28220
L31092 28239
L31224 28239
" />
<path d="M30661 28183
L30661 28445
" />
<path d="M30755 28033
L30849 28314
L30605 28314
" />
<path d="M32393 22191
L32393 22060
" />
<path d="M32599 22060
L32205 22060
L32205 22247
" />
<path d="M32393 22529
L32411 22585
L32430 22604
L32468 22622
L32524 22622
L32561 22604
L32580 22585
L32599 22547
L32599 22397
L32205 22397
L32205 22529
L32224 22566
L32243 22585
L32280 22604
L32318 22604
L32355 22585
L32374 22566
L32393 22529
L32393 22397
" />
<path d="M32205 22979
L32205 22791
L32393 22772
L32374 22791
L32355 22829
L32355 22922
L32374 22960
L32393 22979
L32430 22997
L32524 22997
L32561 22979
L32580 22960
L32599 22922
L32599 22829
L32580 22791
L32561 22772
" />
<path d="M14789 21084
L14789 21584
" />
<path d="M11895 21084
L11895 21584
" />
<path d="M11895 28891
L11895 28391
" />
<path d="M14789 28891
L14789 28391
" />
<path d="M14789 21084
L11895 21084
" />
<path d="M14789 28891
L11895 28891
" />
<path d="M14789 21584
L15157 21584
" />
<path d="M15781 34324
L15231 34324
" />
<path d="M15781 33324
L15231 33324
" />
<path d="M15781 32324
L15231 32324
" />
<circle cx="20931.9" cy="33324.4" r="989.95" /> 
<path d="M19131 31224
L22281 31224
" />
<path d="M22281 31224
L22281 35424
" />
<path d="M22281 35424
L19131 35424
" />
<path d="M15781 31224
L19131 31224
" />
<path d="M19131 31224
L19131 35424
" />
<path d="M19131 35424
L15781 35424
" />
<path d="M15781 33324
L15781 35424
" />
<path d="M15781 33324
L15781 31224
" />
<path d="M13681 38774
L13131 38774
" />
<path d="M13681 37774
L13131 37774
" />
<path d="M13681 36774
L13131 36774
" />
<circle cx="18831.9" cy="37774.4" r="989.95" /> 
<path d="M17031 35674
L20181 35674
" />
<path d="M20181 35674
L20181 39874
" />
<path d="M20181 39874
L17031 39874
" />
<path d="M13681 35674
L17031 35674
" />
<path d="M17031 35674
L17031 39874
" />
<path d="M17031 39874
L13681 39874
" />
<path d="M13681 37774
L13681 39874
" />
<path d="M13681 37774
L13681 35674
" />
<path d="M34231 37924
L34231 38474
" />
<path d="M33231 37924
L33231 38474
" />
<path d="M32231 37924
L32231 38474
" />
<circle cx="33231.9" cy="32774.4" r="989.95" /> 
<path d="M31131 34574
L31131 31424
" />
<path d="M31131 31424
L35331 31424
" />
<path d="M35331 31424
L35331 34574
" />
<path d="M31131 37924
L31131 34574
" />
<path d="M31131 34574
L35331 34574
" />
<path d="M35331 34574
L35331 37924
" />
<path d="M33231 37924
L35331 37924
" />
<path d="M33231 37924
L31131 37924
" />
<path d="M37803 28165
L37803 26165
" />
<path d="M37803 26165
L41803 26165
" />
<path d="M41803 26165
L41803 28165
" />
<path d="M41803 28165
L37803 28165
" />
<path d="M37803 27665
L38303 27665
" />
<path d="M38303 27665
L38303 26665
" />
<path d="M38303 26665
L37803 26665
" />
<path d="M37590 26165
L37590 28165
" />
<path d="M37590 28165
L33590 28165
" />
<path d="M33590 28165
L33590 26165
" />
<path d="M33590 26165
L37590 26165
" />
<path d="M37590 26665
L37090 26665
" />
<path d="M37090 26665
L37090 27665
" />
<path d="M37090 27665
L37590 27665
" />
<path d="M41102 29271
L41496 29271
" />
<path d="M41496 29940
L41102 29940
" />
<path d="M40000 29940
L39606 29940
" />
<path d="M39606 29271
L40000 29271
" />
<path d="M40590 25068
L41062 25068
" />
<path d="M41062 24379
L40590 24379
" />
<path d="M38582 24793
L39055 24793
" />
<path d="M39055 24104
L38582 24104
" />
<path d="M37283 30659
L37755 30659
" />
<path d="M37755 29970
L37283 29970
" />
<path d="M33897 29261
L33425 29261
" />
<path d="M33425 29950
L33897 29950
" />
<path d="M37283 29911
L37755 29911
" />
<path d="M37755 29222
L37283 29222
" />
<path d="M34438 24842
L34438 24370
" />
<path d="M33750 24370
L33750 24842
" />
<path d="M27568 20354
L27568 20826
" />
<path d="M28257 20826
L28257 20354
" />
<path d="M25639 20354
L25639 20826
" />
<path d="M26328 20826
L26328 20354
" />
<path d="M26407 30078
L26407 29606
" />
<path d="M25718 29606
L25718 30078
" />
<path d="M25383 30078
L25383 29606
" />
<path d="M24694 29606
L24694 30078
" />
</g>
<g style="fill:#000000; fill-opacity:0.0; 
stroke:#000000; stroke-width:47.2441; stroke-opacity:1; 
stroke-linecap:round; stroke-linejoin:round;">
<path d="M26712 23976
L26712 23582
" />
<path d="M27381 23582
L27381 23976
" />
<path d="M28366 23582
L28366 23976
" />
<path d="M27696 23976
L27696 23582
" />
<path d="M12244 32196
L13031 32196
" />
<path d="M13031 33000
L12244 33000
" />
<path d="M24842 21133
L25314 21133
" />
<path d="M25314 20440
L24842 20440
" />
<path d="M11259 32251
L10787 32251
" />
<path d="M10787 32944
L11259 32944
" />
<path d="M24732 28307
L24732 28779
" />
<path d="M25425 28779
L25425 28307
" />
<path d="M25716 28307
L25716 28779
" />
<path d="M26409 28779
L26409 28307
" />
<path d="M26700 22322
L26700 22795
" />
<path d="M27393 22795
L27393 22322
" />
<path d="M27685 22322
L27685 22795
" />
<path d="M28377 22795
L28377 22322
" />
<path d="M26960 20905
L26960 20433
" />
<path d="M26267 20433
L26267 20905
" />
<path d="M28889 20866
L28889 20393
" />
<path d="M28196 20393
L28196 20866
" />
<path d="M23444 30039
L23444 29645
" />
<path d="M24114 29645
L24114 30039
" />
<path d="M30629 29598
L31102 29598
" />
<path d="M31102 28905
L30629 28905
" />
<path d="M31929 28614
L32401 28614
" />
<path d="M32401 27921
L31929 27921
" />
<path d="M33417 22755
L33417 22283
" />
<path d="M32724 22283
L32724 22755
" />
</g>
<g style="fill:#000000; fill-opacity:0.0; 
stroke:#000000; stroke-width:669; stroke-opacity:1; 
stroke-linecap:round; stroke-linejoin:round;">
<path d="M13977 33324
L14686 33324
" />
<path d="M13977 34324
L14686 34324
" />
<path d="M13977 32324
L14686 32324
" />
<path d="M11877 37774
L12586 37774
" />
<path d="M11877 38774
L12586 38774
" />
<path d="M11877 36774
L12586 36774
" />
<path d="M33231 39728
L33231 39019
" />
<path d="M34231 39728
L34231 39019
" />
<path d="M32231 39728
L32231 39019
" />
</g>
<g style="fill:#000000; fill-opacity:1.0; 
stroke:#000000; stroke-width:0; stroke-opacity:1; 
stroke-linecap:round; stroke-linejoin:round;">
<circle cx="12615.9" cy="33724.4" r="393.5" /> 
</g>
<g style="fill:#000000; fill-opacity:1.0; 
stroke:#000000; stroke-width:39.3701; stroke-opacity:1; 
stroke-linecap:round; stroke-linejoin:round;">
</g>
<g style="fill:#000000; fill-opacity:1.0; 
stroke:#000000; stroke-width:0; stroke-opacity:1; 
stroke-linecap:round; stroke-linejoin:round;">
<circle cx="10646.9" cy="33724.4" r="393.5" /> 
</g>
<g style="fill:#000000; fill-opacity:1.0; 
stroke:#000000; stroke-width:39.3701; stroke-opacity:1; 
stroke-linecap:round; stroke-linejoin:round;">
</g> 
</svg>
