<?xml version="1.0" standalone="no"?>
 <!DOCTYPE svg PUBLIC "-//W3C//DTD SVG 1.1//EN" 
 "http://www.w3.org/Graphics/SVG/1.1/DTD/svg11.dtd"> 
<svg xmlns="http://www.w3.org/2000/svg" version="1.1" 
    width="27.94cm" height="21.59cm" viewBox="0 0 110000 85000 ">
<title>SVG Picture created as dropbot_control_board-B.SilkS.svg date 2017/06/19 01:31:15 </title>
  <desc>Picture generated by PCBNEW </desc>
<g style="fill:#000000; fill-opacity:1;stroke:#000000; stroke-opacity:1;
stroke-linecap:round; stroke-linejoin:round; "
 transform="translate(0 0) scale(1 1)">
</g>
<g style="fill:#000000; fill-opacity:0.0; 
stroke:#000000; stroke-width:-0.000393701; stroke-opacity:1; 
stroke-linecap:round; stroke-linejoin:round;">
</g>
<g style="fill:#000000; fill-opacity:0.0; 
stroke:#000000; stroke-width:39.3701; stroke-opacity:1; 
stroke-linecap:round; stroke-linejoin:round;">
</g>
<g style="fill:#000000; fill-opacity:0.0; 
stroke:#000000; stroke-width:59.0551; stroke-opacity:1; 
stroke-linecap:round; stroke-linejoin:round;">
<rect x="62755.9" y="67677.2" width="42519.7" height="12598.4" rx="0" />
</g>
<g style="fill:#000000; fill-opacity:0.0; 
stroke:#000000; stroke-width:39.3701; stroke-opacity:1; 
stroke-linecap:round; stroke-linejoin:round;">
</g>
<g style="fill:#000000; fill-opacity:0.0; 
stroke:#000000; stroke-width:59.0551; stroke-opacity:1; 
stroke-linecap:round; stroke-linejoin:round;">
<rect x="3937.01" y="3937.01" width="102126" height="77126" rx="0" />
</g>
<g style="fill:#000000; fill-opacity:0.0; 
stroke:#000000; stroke-width:39.3701; stroke-opacity:1; 
stroke-linecap:round; stroke-linejoin:round;">
</g>
<g style="fill:#000000; fill-opacity:0.0; 
stroke:#000000; stroke-width:59.0551; stroke-opacity:1; 
stroke-linecap:round; stroke-linejoin:round;">
<rect x="4724.41" y="4724.41" width="100551" height="75551.2" rx="0" />
</g>
<g style="fill:#000000; fill-opacity:0.0; 
stroke:#000000; stroke-width:39.3701; stroke-opacity:1; 
stroke-linecap:round; stroke-linejoin:round;">
</g>
<g style="fill:#000000; fill-opacity:0.0; 
stroke:#000000; stroke-width:59.0551; stroke-opacity:1; 
stroke-linecap:round; stroke-linejoin:round;">
<path d="M23622 4724
L23622 3937
" />
</g>
<g style="fill:#000000; fill-opacity:0.0; 
stroke:#000000; stroke-width:39.3701; stroke-opacity:1; 
stroke-linecap:round; stroke-linejoin:round;">
</g>
<g style="fill:#000000; fill-opacity:0.0; 
stroke:#000000; stroke-width:59.0551; stroke-opacity:1; 
stroke-linecap:round; stroke-linejoin:round;">
<path d="M43307 4724
L43307 3937
" />
</g>
<g style="fill:#000000; fill-opacity:0.0; 
stroke:#000000; stroke-width:39.3701; stroke-opacity:1; 
stroke-linecap:round; stroke-linejoin:round;">
</g>
<g style="fill:#000000; fill-opacity:0.0; 
stroke:#000000; stroke-width:59.0551; stroke-opacity:1; 
stroke-linecap:round; stroke-linejoin:round;">
<path d="M62992 4724
L62992 3937
" />
</g>
<g style="fill:#000000; fill-opacity:0.0; 
stroke:#000000; stroke-width:39.3701; stroke-opacity:1; 
stroke-linecap:round; stroke-linejoin:round;">
</g>
<g style="fill:#000000; fill-opacity:0.0; 
stroke:#000000; stroke-width:59.0551; stroke-opacity:1; 
stroke-linecap:round; stroke-linejoin:round;">
<path d="M82677 4724
L82677 3937
" />
</g>
<g style="fill:#000000; fill-opacity:0.0; 
stroke:#000000; stroke-width:39.3701; stroke-opacity:1; 
stroke-linecap:round; stroke-linejoin:round;">
</g>
<g style="fill:#000000; fill-opacity:0.0; 
stroke:#000000; stroke-width:59.0551; stroke-opacity:1; 
stroke-linecap:round; stroke-linejoin:round;">
<path d="M102362 4724
L102362 3937
" />
</g>
<g style="fill:#000000; fill-opacity:0.0; 
stroke:#000000; stroke-width:39.3701; stroke-opacity:1; 
stroke-linecap:round; stroke-linejoin:round;">
</g>
<g style="fill:#000000; fill-opacity:0.0; 
stroke:#000000; stroke-width:59.0551; stroke-opacity:1; 
stroke-linecap:round; stroke-linejoin:round;">
<path d="M14169 4562
L13877 4562
" />
<path d="M14023 4562
L14023 4050
L13974 4123
L13925 4172
L13877 4196
" />
</g>
<g style="fill:#000000; fill-opacity:0.0; 
stroke:#000000; stroke-width:39.3701; stroke-opacity:1; 
stroke-linecap:round; stroke-linejoin:round;">
</g>
<g style="fill:#000000; fill-opacity:0.0; 
stroke:#000000; stroke-width:59.0551; stroke-opacity:1; 
stroke-linecap:round; stroke-linejoin:round;">
<path d="M33562 4099
L33586 4074
L33635 4050
L33757 4050
L33805 4074
L33830 4099
L33854 4147
L33854 4196
L33830 4269
L33537 4562
L33854 4562
" />
</g>
<g style="fill:#000000; fill-opacity:0.0; 
stroke:#000000; stroke-width:39.3701; stroke-opacity:1; 
stroke-linecap:round; stroke-linejoin:round;">
</g>
<g style="fill:#000000; fill-opacity:0.0; 
stroke:#000000; stroke-width:59.0551; stroke-opacity:1; 
stroke-linecap:round; stroke-linejoin:round;">
<path d="M53222 4050
L53539 4050
L53368 4245
L53442 4245
L53490 4269
L53515 4294
L53539 4342
L53539 4464
L53515 4513
L53490 4537
L53442 4562
L53295 4562
L53247 4537
L53222 4513
" />
</g>
<g style="fill:#000000; fill-opacity:0.0; 
stroke:#000000; stroke-width:39.3701; stroke-opacity:1; 
stroke-linecap:round; stroke-linejoin:round;">
</g>
<g style="fill:#000000; fill-opacity:0.0; 
stroke:#000000; stroke-width:59.0551; stroke-opacity:1; 
stroke-linecap:round; stroke-linejoin:round;">
<path d="M73175 4221
L73175 4562
" />
<path d="M73053 4026
L72932 4391
L73248 4391
" />
</g>
<g style="fill:#000000; fill-opacity:0.0; 
stroke:#000000; stroke-width:39.3701; stroke-opacity:1; 
stroke-linecap:round; stroke-linejoin:round;">
</g>
<g style="fill:#000000; fill-opacity:0.0; 
stroke:#000000; stroke-width:59.0551; stroke-opacity:1; 
stroke-linecap:round; stroke-linejoin:round;">
<path d="M92885 4050
L92641 4050
L92617 4294
L92641 4269
L92690 4245
L92812 4245
L92860 4269
L92885 4294
L92909 4342
L92909 4464
L92885 4513
L92860 4537
L92812 4562
L92690 4562
L92641 4537
L92617 4513
" />
</g>
<g style="fill:#000000; fill-opacity:0.0; 
stroke:#000000; stroke-width:39.3701; stroke-opacity:1; 
stroke-linecap:round; stroke-linejoin:round;">
</g>
<g style="fill:#000000; fill-opacity:0.0; 
stroke:#000000; stroke-width:59.0551; stroke-opacity:1; 
stroke-linecap:round; stroke-linejoin:round;">
<path d="M23622 80275
L23622 81062
" />
</g>
<g style="fill:#000000; fill-opacity:0.0; 
stroke:#000000; stroke-width:39.3701; stroke-opacity:1; 
stroke-linecap:round; stroke-linejoin:round;">
</g>
<g style="fill:#000000; fill-opacity:0.0; 
stroke:#000000; stroke-width:59.0551; stroke-opacity:1; 
stroke-linecap:round; stroke-linejoin:round;">
<path d="M43307 80275
L43307 81062
" />
</g>
<g style="fill:#000000; fill-opacity:0.0; 
stroke:#000000; stroke-width:39.3701; stroke-opacity:1; 
stroke-linecap:round; stroke-linejoin:round;">
</g>
<g style="fill:#000000; fill-opacity:0.0; 
stroke:#000000; stroke-width:59.0551; stroke-opacity:1; 
stroke-linecap:round; stroke-linejoin:round;">
<path d="M62992 80275
L62992 81062
" />
</g>
<g style="fill:#000000; fill-opacity:0.0; 
stroke:#000000; stroke-width:39.3701; stroke-opacity:1; 
stroke-linecap:round; stroke-linejoin:round;">
</g>
<g style="fill:#000000; fill-opacity:0.0; 
stroke:#000000; stroke-width:59.0551; stroke-opacity:1; 
stroke-linecap:round; stroke-linejoin:round;">
<path d="M82677 80275
L82677 81062
" />
</g>
<g style="fill:#000000; fill-opacity:0.0; 
stroke:#000000; stroke-width:39.3701; stroke-opacity:1; 
stroke-linecap:round; stroke-linejoin:round;">
</g>
<g style="fill:#000000; fill-opacity:0.0; 
stroke:#000000; stroke-width:59.0551; stroke-opacity:1; 
stroke-linecap:round; stroke-linejoin:round;">
<path d="M102362 80275
L102362 81062
" />
</g>
<g style="fill:#000000; fill-opacity:0.0; 
stroke:#000000; stroke-width:39.3701; stroke-opacity:1; 
stroke-linecap:round; stroke-linejoin:round;">
</g>
<g style="fill:#000000; fill-opacity:0.0; 
stroke:#000000; stroke-width:59.0551; stroke-opacity:1; 
stroke-linecap:round; stroke-linejoin:round;">
<path d="M14169 80900
L13877 80900
" />
<path d="M14023 80900
L14023 80389
L13974 80462
L13925 80510
L13877 80535
" />
</g>
<g style="fill:#000000; fill-opacity:0.0; 
stroke:#000000; stroke-width:39.3701; stroke-opacity:1; 
stroke-linecap:round; stroke-linejoin:round;">
</g>
<g style="fill:#000000; fill-opacity:0.0; 
stroke:#000000; stroke-width:59.0551; stroke-opacity:1; 
stroke-linecap:round; stroke-linejoin:round;">
<path d="M33562 80437
L33586 80413
L33635 80389
L33757 80389
L33805 80413
L33830 80437
L33854 80486
L33854 80535
L33830 80608
L33537 80900
L33854 80900
" />
</g>
<g style="fill:#000000; fill-opacity:0.0; 
stroke:#000000; stroke-width:39.3701; stroke-opacity:1; 
stroke-linecap:round; stroke-linejoin:round;">
</g>
<g style="fill:#000000; fill-opacity:0.0; 
stroke:#000000; stroke-width:59.0551; stroke-opacity:1; 
stroke-linecap:round; stroke-linejoin:round;">
<path d="M53222 80389
L53539 80389
L53368 80583
L53442 80583
L53490 80608
L53515 80632
L53539 80681
L53539 80803
L53515 80852
L53490 80876
L53442 80900
L53295 80900
L53247 80876
L53222 80852
" />
</g>
<g style="fill:#000000; fill-opacity:0.0; 
stroke:#000000; stroke-width:39.3701; stroke-opacity:1; 
stroke-linecap:round; stroke-linejoin:round;">
</g>
<g style="fill:#000000; fill-opacity:0.0; 
stroke:#000000; stroke-width:59.0551; stroke-opacity:1; 
stroke-linecap:round; stroke-linejoin:round;">
<path d="M73175 80559
L73175 80900
" />
<path d="M73053 80364
L72932 80730
L73248 80730
" />
</g>
<g style="fill:#000000; fill-opacity:0.0; 
stroke:#000000; stroke-width:39.3701; stroke-opacity:1; 
stroke-linecap:round; stroke-linejoin:round;">
</g>
<g style="fill:#000000; fill-opacity:0.0; 
stroke:#000000; stroke-width:59.0551; stroke-opacity:1; 
stroke-linecap:round; stroke-linejoin:round;">
<path d="M92885 80389
L92641 80389
L92617 80632
L92641 80608
L92690 80583
L92812 80583
L92860 80608
L92885 80632
L92909 80681
L92909 80803
L92885 80852
L92860 80876
L92812 80900
L92690 80900
L92641 80876
L92617 80852
" />
</g>
<g style="fill:#000000; fill-opacity:0.0; 
stroke:#000000; stroke-width:39.3701; stroke-opacity:1; 
stroke-linecap:round; stroke-linejoin:round;">
</g>
<g style="fill:#000000; fill-opacity:0.0; 
stroke:#000000; stroke-width:59.0551; stroke-opacity:1; 
stroke-linecap:round; stroke-linejoin:round;">
<path d="M3937 23622
L4724 23622
" />
</g>
<g style="fill:#000000; fill-opacity:0.0; 
stroke:#000000; stroke-width:39.3701; stroke-opacity:1; 
stroke-linecap:round; stroke-linejoin:round;">
</g>
<g style="fill:#000000; fill-opacity:0.0; 
stroke:#000000; stroke-width:59.0551; stroke-opacity:1; 
stroke-linecap:round; stroke-linejoin:round;">
<path d="M3937 43307
L4724 43307
" />
</g>
<g style="fill:#000000; fill-opacity:0.0; 
stroke:#000000; stroke-width:39.3701; stroke-opacity:1; 
stroke-linecap:round; stroke-linejoin:round;">
</g>
<g style="fill:#000000; fill-opacity:0.0; 
stroke:#000000; stroke-width:59.0551; stroke-opacity:1; 
stroke-linecap:round; stroke-linejoin:round;">
<path d="M3937 62992
L4724 62992
" />
</g>
<g style="fill:#000000; fill-opacity:0.0; 
stroke:#000000; stroke-width:39.3701; stroke-opacity:1; 
stroke-linecap:round; stroke-linejoin:round;">
</g>
<g style="fill:#000000; fill-opacity:0.0; 
stroke:#000000; stroke-width:59.0551; stroke-opacity:1; 
stroke-linecap:round; stroke-linejoin:round;">
<path d="M4208 13864
L4452 13864
" />
<path d="M4160 14011
L4330 13499
L4501 14011
" />
</g>
<g style="fill:#000000; fill-opacity:0.0; 
stroke:#000000; stroke-width:39.3701; stroke-opacity:1; 
stroke-linecap:round; stroke-linejoin:round;">
</g>
<g style="fill:#000000; fill-opacity:0.0; 
stroke:#000000; stroke-width:59.0551; stroke-opacity:1; 
stroke-linecap:round; stroke-linejoin:round;">
<path d="M4367 33428
L4440 33452
L4464 33476
L4489 33525
L4489 33598
L4464 33647
L4440 33671
L4391 33696
L4196 33696
L4196 33184
L4367 33184
L4416 33208
L4440 33233
L4464 33281
L4464 33330
L4440 33379
L4416 33403
L4367 33428
L4196 33428
" />
</g>
<g style="fill:#000000; fill-opacity:0.0; 
stroke:#000000; stroke-width:39.3701; stroke-opacity:1; 
stroke-linecap:round; stroke-linejoin:round;">
</g>
<g style="fill:#000000; fill-opacity:0.0; 
stroke:#000000; stroke-width:59.0551; stroke-opacity:1; 
stroke-linecap:round; stroke-linejoin:round;">
<path d="M4489 53332
L4464 53356
L4391 53381
L4342 53381
L4269 53356
L4221 53308
L4196 53259
L4172 53161
L4172 53088
L4196 52991
L4221 52942
L4269 52893
L4342 52869
L4391 52869
L4464 52893
L4489 52918
" />
</g>
<g style="fill:#000000; fill-opacity:0.0; 
stroke:#000000; stroke-width:39.3701; stroke-opacity:1; 
stroke-linecap:round; stroke-linejoin:round;">
</g>
<g style="fill:#000000; fill-opacity:0.0; 
stroke:#000000; stroke-width:59.0551; stroke-opacity:1; 
stroke-linecap:round; stroke-linejoin:round;">
<path d="M4196 73066
L4196 72554
L4318 72554
L4391 72578
L4440 72627
L4464 72676
L4489 72773
L4489 72846
L4464 72944
L4440 72993
L4391 73041
L4318 73066
L4196 73066
" />
</g>
<g style="fill:#000000; fill-opacity:0.0; 
stroke:#000000; stroke-width:39.3701; stroke-opacity:1; 
stroke-linecap:round; stroke-linejoin:round;">
</g>
<g style="fill:#000000; fill-opacity:0.0; 
stroke:#000000; stroke-width:59.0551; stroke-opacity:1; 
stroke-linecap:round; stroke-linejoin:round;">
<path d="M106062 23622
L105275 23622
" />
</g>
<g style="fill:#000000; fill-opacity:0.0; 
stroke:#000000; stroke-width:39.3701; stroke-opacity:1; 
stroke-linecap:round; stroke-linejoin:round;">
</g>
<g style="fill:#000000; fill-opacity:0.0; 
stroke:#000000; stroke-width:59.0551; stroke-opacity:1; 
stroke-linecap:round; stroke-linejoin:round;">
<path d="M106062 43307
L105275 43307
" />
</g>
<g style="fill:#000000; fill-opacity:0.0; 
stroke:#000000; stroke-width:39.3701; stroke-opacity:1; 
stroke-linecap:round; stroke-linejoin:round;">
</g>
<g style="fill:#000000; fill-opacity:0.0; 
stroke:#000000; stroke-width:59.0551; stroke-opacity:1; 
stroke-linecap:round; stroke-linejoin:round;">
<path d="M106062 62992
L105275 62992
" />
</g>
<g style="fill:#000000; fill-opacity:0.0; 
stroke:#000000; stroke-width:39.3701; stroke-opacity:1; 
stroke-linecap:round; stroke-linejoin:round;">
</g>
<g style="fill:#000000; fill-opacity:0.0; 
stroke:#000000; stroke-width:59.0551; stroke-opacity:1; 
stroke-linecap:round; stroke-linejoin:round;">
<path d="M105547 13864
L105791 13864
" />
<path d="M105498 14011
L105669 13499
L105839 14011
" />
</g>
<g style="fill:#000000; fill-opacity:0.0; 
stroke:#000000; stroke-width:39.3701; stroke-opacity:1; 
stroke-linecap:round; stroke-linejoin:round;">
</g>
<g style="fill:#000000; fill-opacity:0.0; 
stroke:#000000; stroke-width:59.0551; stroke-opacity:1; 
stroke-linecap:round; stroke-linejoin:round;">
<path d="M105705 33428
L105778 33452
L105803 33476
L105827 33525
L105827 33598
L105803 33647
L105778 33671
L105730 33696
L105535 33696
L105535 33184
L105705 33184
L105754 33208
L105778 33233
L105803 33281
L105803 33330
L105778 33379
L105754 33403
L105705 33428
L105535 33428
" />
</g>
<g style="fill:#000000; fill-opacity:0.0; 
stroke:#000000; stroke-width:39.3701; stroke-opacity:1; 
stroke-linecap:round; stroke-linejoin:round;">
</g>
<g style="fill:#000000; fill-opacity:0.0; 
stroke:#000000; stroke-width:59.0551; stroke-opacity:1; 
stroke-linecap:round; stroke-linejoin:round;">
<path d="M105827 53332
L105803 53356
L105730 53381
L105681 53381
L105608 53356
L105559 53308
L105535 53259
L105510 53161
L105510 53088
L105535 52991
L105559 52942
L105608 52893
L105681 52869
L105730 52869
L105803 52893
L105827 52918
" />
</g>
<g style="fill:#000000; fill-opacity:0.0; 
stroke:#000000; stroke-width:39.3701; stroke-opacity:1; 
stroke-linecap:round; stroke-linejoin:round;">
</g>
<g style="fill:#000000; fill-opacity:0.0; 
stroke:#000000; stroke-width:59.0551; stroke-opacity:1; 
stroke-linecap:round; stroke-linejoin:round;">
<path d="M105535 73066
L105535 72554
L105657 72554
L105730 72578
L105778 72627
L105803 72676
L105827 72773
L105827 72846
L105803 72944
L105778 72993
L105730 73041
L105657 73066
L105535 73066
" />
</g>
<g style="fill:#000000; fill-opacity:0.0; 
stroke:#000000; stroke-width:39.3701; stroke-opacity:1; 
stroke-linecap:round; stroke-linejoin:round;">
</g>
<g style="fill:#000000; fill-opacity:0.0; 
stroke:#000000; stroke-width:59.0551; stroke-opacity:1; 
stroke-linecap:round; stroke-linejoin:round;">
<path d="M71951 78613
L71951 78023
L72092 78023
L72176 78051
L72232 78107
L72260 78163
L72289 78276
L72289 78360
L72260 78473
L72232 78529
L72176 78585
L72092 78613
L71951 78613
" />
<path d="M72795 78613
L72795 78304
L72767 78248
L72710 78219
L72598 78219
L72542 78248
" />
<path d="M72795 78585
L72739 78613
L72598 78613
L72542 78585
L72514 78529
L72514 78473
L72542 78416
L72598 78388
L72739 78388
L72795 78360
" />
<path d="M72992 78219
L73217 78219
" />
<path d="M73076 78023
L73076 78529
L73104 78585
L73160 78613
L73217 78613
" />
<path d="M73638 78585
L73582 78613
L73470 78613
L73413 78585
L73385 78529
L73385 78304
L73413 78248
L73470 78219
L73582 78219
L73638 78248
L73667 78304
L73667 78360
L73385 78416
" />
<path d="M73920 78557
L73948 78585
L73920 78613
L73892 78585
L73920 78557
L73920 78613
" />
<path d="M73920 78248
L73948 78276
L73920 78304
L73892 78276
L73920 78248
L73920 78304
" />
<path d="M74623 78079
L74651 78051
L74707 78023
L74848 78023
L74904 78051
L74932 78079
L74960 78135
L74960 78191
L74932 78276
L74595 78613
L74960 78613
" />
<path d="M75326 78023
L75382 78023
L75438 78051
L75466 78079
L75494 78135
L75523 78248
L75523 78388
L75494 78501
L75466 78557
L75438 78585
L75382 78613
L75326 78613
L75269 78585
L75241 78557
L75213 78501
L75185 78388
L75185 78248
L75213 78135
L75241 78079
L75269 78051
L75326 78023
" />
<path d="M76085 78613
L75748 78613
" />
<path d="M75916 78613
L75916 78023
L75860 78107
L75804 78163
L75748 78191
" />
<path d="M76282 78023
L76676 78023
L76422 78613
" />
<path d="M76901 78388
L77350 78388
" />
<path d="M77744 78023
L77800 78023
L77857 78051
L77885 78079
L77913 78135
L77941 78248
L77941 78388
L77913 78501
L77885 78557
L77857 78585
L77800 78613
L77744 78613
L77688 78585
L77660 78557
L77632 78501
L77604 78388
L77604 78248
L77632 78135
L77660 78079
L77688 78051
L77744 78023
" />
<path d="M78447 78023
L78335 78023
L78278 78051
L78250 78079
L78194 78163
L78166 78276
L78166 78501
L78194 78557
L78222 78585
L78278 78613
L78391 78613
L78447 78585
L78475 78557
L78503 78501
L78503 78360
L78475 78304
L78447 78276
L78391 78248
L78278 78248
L78222 78276
L78194 78304
L78166 78360
" />
<path d="M78757 78388
L79206 78388
" />
<path d="M79797 78613
L79460 78613
" />
<path d="M79628 78613
L79628 78023
L79572 78107
L79516 78163
L79460 78191
" />
<path d="M80078 78613
L80191 78613
L80247 78585
L80275 78557
L80331 78473
L80359 78360
L80359 78135
L80331 78079
L80303 78051
L80247 78023
L80134 78023
L80078 78051
L80050 78079
L80022 78135
L80022 78276
L80050 78332
L80078 78360
L80134 78388
L80247 78388
L80303 78360
L80331 78332
L80359 78276
" />
</g>
<g style="fill:#000000; fill-opacity:0.0; 
stroke:#000000; stroke-width:39.3701; stroke-opacity:1; 
stroke-linecap:round; stroke-linejoin:round;">
</g>
<g style="fill:#000000; fill-opacity:0.0; 
stroke:#000000; stroke-width:59.0551; stroke-opacity:1; 
stroke-linecap:round; stroke-linejoin:round;">
<path d="M62755 78897
L105275 78897
" />
</g>
<g style="fill:#000000; fill-opacity:0.0; 
stroke:#000000; stroke-width:39.3701; stroke-opacity:1; 
stroke-linecap:round; stroke-linejoin:round;">
</g>
<g style="fill:#000000; fill-opacity:0.0; 
stroke:#000000; stroke-width:59.0551; stroke-opacity:1; 
stroke-linecap:round; stroke-linejoin:round;">
<path d="M63290 79715
L63290 79125
" />
<path d="M63627 79715
L63374 79378
" />
<path d="M63627 79125
L63290 79462
" />
<path d="M63880 79715
L63880 79322
" />
<path d="M63880 79125
L63852 79153
L63880 79181
L63908 79153
L63880 79125
L63880 79181
" />
<path d="M64499 79659
L64471 79687
L64386 79715
L64330 79715
L64246 79687
L64190 79631
L64161 79575
L64133 79462
L64133 79378
L64161 79266
L64190 79209
L64246 79153
L64330 79125
L64386 79125
L64471 79153
L64499 79181
" />
<path d="M65005 79715
L65005 79406
L64977 79350
L64921 79322
L64808 79322
L64752 79350
" />
<path d="M65005 79687
L64949 79715
L64808 79715
L64752 79687
L64724 79631
L64724 79575
L64752 79519
L64808 79491
L64949 79491
L65005 79462
" />
<path d="M65539 79715
L65539 79125
" />
<path d="M65539 79687
L65483 79715
L65371 79715
L65314 79687
L65286 79659
L65258 79603
L65258 79434
L65286 79378
L65314 79350
L65371 79322
L65483 79322
L65539 79350
" />
<path d="M66271 79406
L66467 79406
" />
<path d="M66552 79715
L66271 79715
L66271 79125
L66552 79125
" />
<path d="M66805 79659
L66833 79687
L66805 79715
L66777 79687
L66805 79659
L66805 79715
" />
<path d="M67086 79715
L67086 79125
L67227 79125
L67311 79153
L67367 79209
L67395 79266
L67424 79378
L67424 79462
L67395 79575
L67367 79631
L67311 79687
L67227 79715
L67086 79715
" />
<path d="M67677 79659
L67705 79687
L67677 79715
L67649 79687
L67677 79659
L67677 79715
" />
<path d="M67930 79547
L68211 79547
" />
<path d="M67874 79715
L68070 79125
L68267 79715
" />
<path d="M68464 79659
L68492 79687
L68464 79715
L68436 79687
L68464 79659
L68464 79715
" />
<path d="M69645 79715
L69645 79125
" />
<path d="M69701 79491
L69870 79715
" />
<path d="M69870 79322
L69645 79547
" />
<path d="M70123 79715
L70123 79322
" />
<path d="M70123 79125
L70095 79153
L70123 79181
L70151 79153
L70123 79125
L70123 79181
" />
<path d="M70658 79687
L70601 79715
L70489 79715
L70433 79687
L70404 79659
L70376 79603
L70376 79434
L70404 79378
L70433 79350
L70489 79322
L70601 79322
L70658 79350
" />
<path d="M71164 79715
L71164 79406
L71136 79350
L71079 79322
L70967 79322
L70911 79350
" />
<path d="M71164 79687
L71107 79715
L70967 79715
L70911 79687
L70883 79631
L70883 79575
L70911 79519
L70967 79491
L71107 79491
L71164 79462
" />
<path d="M71698 79715
L71698 79125
" />
<path d="M71698 79687
L71642 79715
L71529 79715
L71473 79687
L71445 79659
L71417 79603
L71417 79434
L71445 79378
L71473 79350
L71529 79322
L71642 79322
L71698 79350
" />
<path d="M72682 79322
L72682 79715
" />
<path d="M72542 79097
L72401 79519
L72767 79519
" />
<path d="M72992 79659
L73020 79687
L72992 79715
L72964 79687
L72992 79659
L72992 79715
" />
<path d="M73385 79125
L73442 79125
L73498 79153
L73526 79181
L73554 79237
L73582 79350
L73582 79491
L73554 79603
L73526 79659
L73498 79687
L73442 79715
L73385 79715
L73329 79687
L73301 79659
L73273 79603
L73245 79491
L73245 79350
L73273 79237
L73301 79181
L73329 79153
L73385 79125
" />
<path d="M73835 79659
L73863 79687
L73835 79715
L73807 79687
L73835 79659
L73835 79715
" />
<path d="M74370 79125
L74257 79125
L74201 79153
L74173 79181
L74116 79266
L74088 79378
L74088 79603
L74116 79659
L74145 79687
L74201 79715
L74313 79715
L74370 79687
L74398 79659
L74426 79603
L74426 79462
L74398 79406
L74370 79378
L74313 79350
L74201 79350
L74145 79378
L74116 79406
L74088 79462
" />
</g>
<g style="fill:#000000; fill-opacity:0.0; 
stroke:#000000; stroke-width:39.3701; stroke-opacity:1; 
stroke-linecap:round; stroke-linejoin:round;">
</g>
<g style="fill:#000000; fill-opacity:0.0; 
stroke:#000000; stroke-width:59.0551; stroke-opacity:1; 
stroke-linecap:round; stroke-linejoin:round;">
<path d="M62755 77716
L105275 77716
" />
</g>
<g style="fill:#000000; fill-opacity:0.0; 
stroke:#000000; stroke-width:39.3701; stroke-opacity:1; 
stroke-linecap:round; stroke-linejoin:round;">
</g>
<g style="fill:#000000; fill-opacity:0.0; 
stroke:#000000; stroke-width:118.11; stroke-opacity:1; 
stroke-linecap:round; stroke-linejoin:round;">
<path d="M97092 78613
L96895 78332
" />
<path d="M96754 78613
L96754 78023
L96979 78023
L97035 78051
L97064 78079
L97092 78135
L97092 78219
L97064 78276
L97035 78304
L96979 78332
L96754 78332
" />
<path d="M97570 78585
L97514 78613
L97401 78613
L97345 78585
L97317 78529
L97317 78304
L97345 78248
L97401 78219
L97514 78219
L97570 78248
L97598 78304
L97598 78360
L97317 78416
" />
<path d="M97795 78219
L97935 78613
L98076 78219
" />
<path d="M98301 78557
L98329 78585
L98301 78613
L98273 78585
L98301 78557
L98301 78613
" />
<path d="M98301 78248
L98329 78276
L98301 78304
L98273 78276
L98301 78248
L98301 78304
" />
<path d="M98976 78219
L99116 78613
L99257 78219
" />
<path d="M99426 78023
L99791 78023
L99595 78248
L99679 78248
L99735 78276
L99763 78304
L99791 78360
L99791 78501
L99763 78557
L99735 78585
L99679 78613
L99510 78613
L99454 78585
L99426 78557
" />
<path d="M100044 78557
L100073 78585
L100044 78613
L100016 78585
L100044 78557
L100044 78613
" />
<path d="M100579 78023
L100466 78023
L100410 78051
L100382 78079
L100326 78163
L100298 78276
L100298 78501
L100326 78557
L100354 78585
L100410 78613
L100523 78613
L100579 78585
L100607 78557
L100635 78501
L100635 78360
L100607 78304
L100579 78276
L100523 78248
L100410 78248
L100354 78276
L100326 78304
L100298 78360
" />
</g>
<g style="fill:#000000; fill-opacity:0.0; 
stroke:#000000; stroke-width:39.3701; stroke-opacity:1; 
stroke-linecap:round; stroke-linejoin:round;">
</g>
<g style="fill:#000000; fill-opacity:0.0; 
stroke:#000000; stroke-width:59.0551; stroke-opacity:1; 
stroke-linecap:round; stroke-linejoin:round;">
<path d="M63262 78585
L63346 78613
L63487 78613
L63543 78585
L63571 78557
L63599 78501
L63599 78444
L63571 78388
L63543 78360
L63487 78332
L63374 78304
L63318 78276
L63290 78248
L63262 78191
L63262 78135
L63290 78079
L63318 78051
L63374 78023
L63515 78023
L63599 78051
" />
<path d="M63852 78613
L63852 78219
" />
<path d="M63852 78023
L63824 78051
L63852 78079
L63880 78051
L63852 78023
L63852 78079
" />
<path d="M64077 78219
L64386 78219
L64077 78613
L64386 78613
" />
<path d="M64836 78585
L64780 78613
L64668 78613
L64611 78585
L64583 78529
L64583 78304
L64611 78248
L64668 78219
L64780 78219
L64836 78248
L64865 78304
L64865 78360
L64583 78416
" />
<path d="M65118 78557
L65146 78585
L65118 78613
L65089 78585
L65118 78557
L65118 78613
" />
<path d="M65118 78248
L65146 78276
L65118 78304
L65089 78276
L65118 78248
L65118 78304
" />
<path d="M65849 78023
L65849 78501
L65877 78557
L65905 78585
L65961 78613
L66074 78613
L66130 78585
L66158 78557
L66186 78501
L66186 78023
" />
<path d="M66439 78585
L66524 78613
L66664 78613
L66721 78585
L66749 78557
L66777 78501
L66777 78444
L66749 78388
L66721 78360
L66664 78332
L66552 78304
L66496 78276
L66467 78248
L66439 78191
L66439 78135
L66467 78079
L66496 78051
L66552 78023
L66692 78023
L66777 78051
" />
<path d="M67311 78613
L67030 78613
L67030 78023
" />
<path d="M67733 78585
L67677 78613
L67564 78613
L67508 78585
L67480 78529
L67480 78304
L67508 78248
L67564 78219
L67677 78219
L67733 78248
L67761 78304
L67761 78360
L67480 78416
" />
<path d="M67930 78219
L68155 78219
" />
<path d="M68014 78023
L68014 78529
L68042 78585
L68098 78613
L68155 78613
" />
<path d="M68267 78219
L68492 78219
" />
<path d="M68352 78023
L68352 78529
L68380 78585
L68436 78613
L68492 78613
" />
<path d="M68914 78585
L68858 78613
L68745 78613
L68689 78585
L68661 78529
L68661 78304
L68689 78248
L68745 78219
L68858 78219
L68914 78248
L68942 78304
L68942 78360
L68661 78416
" />
<path d="M69195 78613
L69195 78219
" />
<path d="M69195 78332
L69223 78276
L69251 78248
L69308 78219
L69364 78219
" />
</g>
<g style="fill:#000000; fill-opacity:0.0; 
stroke:#000000; stroke-width:39.3701; stroke-opacity:1; 
stroke-linecap:round; stroke-linejoin:round;">
</g>
<g style="fill:#000000; fill-opacity:0.0; 
stroke:#000000; stroke-width:59.0551; stroke-opacity:1; 
stroke-linecap:round; stroke-linejoin:round;">
<path d="M96754 79715
L96754 79125
" />
<path d="M97289 79715
L97289 79125
" />
<path d="M97289 79687
L97232 79715
L97120 79715
L97064 79687
L97035 79659
L97007 79603
L97007 79434
L97035 79378
L97064 79350
L97120 79322
L97232 79322
L97289 79350
" />
<path d="M97570 79659
L97598 79687
L97570 79715
L97542 79687
L97570 79659
L97570 79715
" />
<path d="M97570 79350
L97598 79378
L97570 79406
L97542 79378
L97570 79350
L97570 79406
" />
<path d="M98610 79715
L98273 79715
" />
<path d="M98442 79715
L98442 79125
L98385 79209
L98329 79266
L98273 79294
" />
<path d="M99285 79097
L98779 79856
" />
<path d="M99791 79715
L99454 79715
" />
<path d="M99623 79715
L99623 79125
L99566 79209
L99510 79266
L99454 79294
" />
</g>
<g style="fill:#000000; fill-opacity:0.0; 
stroke:#000000; stroke-width:39.3701; stroke-opacity:1; 
stroke-linecap:round; stroke-linejoin:round;">
</g>
<g style="fill:#000000; fill-opacity:0.0; 
stroke:#000000; stroke-width:59.0551; stroke-opacity:1; 
stroke-linecap:round; stroke-linejoin:round;">
<path d="M62755 76141
L105275 76141
" />
</g>
<g style="fill:#000000; fill-opacity:0.0; 
stroke:#000000; stroke-width:39.3701; stroke-opacity:1; 
stroke-linecap:round; stroke-linejoin:round;">
</g>
<g style="fill:#000000; fill-opacity:0.0; 
stroke:#000000; stroke-width:157.48; stroke-opacity:1; 
stroke-linecap:round; stroke-linejoin:round;">
<path d="M63327 76419
L63777 76419
" />
<path d="M63454 77206
L63552 76419
" />
<path d="M63941 77206
L64007 76681
" />
<path d="M64040 76419
L63997 76456
L64030 76494
L64072 76456
L64040 76419
L64030 76494
" />
<path d="M64269 76681
L64569 76681
" />
<path d="M64415 76419
L64330 77094
L64358 77169
L64429 77206
L64504 77206
" />
<path d="M64879 77206
L64808 77169
L64780 77094
L64865 76419
" />
<path d="M65483 77169
L65404 77206
L65254 77206
L65183 77169
L65155 77094
L65193 76794
L65239 76719
L65319 76681
L65469 76681
L65539 76719
L65568 76794
L65558 76869
L65174 76944
" />
<path d="M65863 77131
L65896 77169
L65853 77206
L65821 77169
L65863 77131
L65853 77206
" />
<path d="M65914 76719
L65947 76756
L65905 76794
L65872 76756
L65914 76719
L65905 76794
" />
<path d="M66828 77206
L66927 76419
L67114 76419
L67222 76456
L67288 76531
L67316 76606
L67335 76756
L67320 76869
L67264 77019
L67217 77094
L67133 77169
L67016 77206
L66828 77206
" />
<path d="M67616 77206
L67681 76681
" />
<path d="M67663 76831
L67709 76756
L67752 76719
L67831 76681
L67906 76681
" />
<path d="M68216 77206
L68145 77169
L68113 77131
L68084 77056
L68113 76831
L68159 76756
L68202 76719
L68281 76681
L68394 76681
L68464 76719
L68497 76756
L68525 76831
L68497 77056
L68450 77131
L68408 77169
L68328 77206
L68216 77206
" />
<path d="M68881 76681
L68783 77469
" />
<path d="M68877 76719
L68956 76681
L69106 76681
L69176 76719
L69209 76756
L69237 76831
L69209 77056
L69162 77131
L69120 77169
L69041 77206
L68891 77206
L68820 77169
" />
<path d="M69842 76794
L69950 76831
L69983 76869
L70011 76944
L69997 77056
L69950 77131
L69908 77169
L69828 77206
L69528 77206
L69626 76419
L69889 76419
L69959 76456
L69992 76494
L70020 76569
L70011 76644
L69964 76719
L69922 76756
L69842 76794
L69580 76794
" />
<path d="M70428 77206
L70358 77169
L70325 77131
L70297 77056
L70325 76831
L70372 76756
L70414 76719
L70494 76681
L70606 76681
L70676 76719
L70709 76756
L70737 76831
L70709 77056
L70662 77131
L70620 77169
L70540 77206
L70428 77206
" />
<path d="M70981 76681
L71281 76681
" />
<path d="M71126 76419
L71042 77094
L71070 77169
L71140 77206
L71215 77206
" />
<path d="M72420 77169
L72340 77206
L72190 77206
L72120 77169
L72087 77131
L72059 77056
L72087 76831
L72134 76756
L72176 76719
L72256 76681
L72406 76681
L72476 76719
" />
<path d="M72865 77206
L72795 77169
L72762 77131
L72734 77056
L72762 76831
L72809 76756
L72851 76719
L72931 76681
L73043 76681
L73113 76719
L73146 76756
L73174 76831
L73146 77056
L73099 77131
L73057 77169
L72978 77206
L72865 77206
" />
<path d="M73531 76681
L73465 77206
" />
<path d="M73521 76756
L73563 76719
L73643 76681
L73756 76681
L73826 76719
L73854 76794
L73802 77206
" />
<path d="M74131 76681
L74431 76681
" />
<path d="M74276 76419
L74191 77094
L74220 77169
L74290 77206
L74365 77206
" />
<path d="M74627 77206
L74693 76681
" />
<path d="M74674 76831
L74721 76756
L74763 76719
L74843 76681
L74918 76681
" />
<path d="M75227 77206
L75157 77169
L75124 77131
L75096 77056
L75124 76831
L75171 76756
L75213 76719
L75293 76681
L75405 76681
L75476 76719
L75508 76756
L75537 76831
L75508 77056
L75462 77131
L75419 77169
L75340 77206
L75227 77206
" />
<path d="M75940 77206
L75869 77169
L75841 77094
L75926 76419
" />
<path d="M76840 77206
L76938 76419
" />
<path d="M76901 76719
L76980 76681
L77130 76681
L77200 76719
L77233 76756
L77261 76831
L77233 77056
L77186 77131
L77144 77169
L77065 77206
L76915 77206
L76844 77169
" />
<path d="M77664 77206
L77594 77169
L77561 77131
L77533 77056
L77561 76831
L77608 76756
L77650 76719
L77730 76681
L77843 76681
L77913 76719
L77946 76756
L77974 76831
L77946 77056
L77899 77131
L77857 77169
L77777 77206
L77664 77206
" />
<path d="M78602 77206
L78653 76794
L78625 76719
L78555 76681
L78405 76681
L78325 76719
" />
<path d="M78607 77169
L78527 77206
L78339 77206
L78269 77169
L78241 77094
L78250 77019
L78297 76944
L78377 76906
L78564 76906
L78644 76869
" />
<path d="M78977 77206
L79042 76681
" />
<path d="M79024 76831
L79071 76756
L79113 76719
L79192 76681
L79267 76681
" />
<path d="M79802 77206
L79900 76419
" />
<path d="M79806 77169
L79727 77206
L79577 77206
L79506 77169
L79474 77131
L79446 77056
L79474 76831
L79520 76756
L79563 76719
L79642 76681
L79792 76681
L79863 76719
" />
</g>
<g style="fill:#000000; fill-opacity:0.0; 
stroke:#000000; stroke-width:39.3701; stroke-opacity:1; 
stroke-linecap:round; stroke-linejoin:round;">
</g>
<g style="fill:#000000; fill-opacity:0.0; 
stroke:#000000; stroke-width:59.0551; stroke-opacity:1; 
stroke-linecap:round; stroke-linejoin:round;">
<path d="M63487 75390
L63290 75390
" />
<path d="M63290 75700
L63290 75109
L63571 75109
" />
<path d="M63796 75700
L63796 75306
" />
<path d="M63796 75109
L63768 75137
L63796 75165
L63824 75137
L63796 75109
L63796 75165
" />
<path d="M64161 75700
L64105 75672
L64077 75615
L64077 75109
" />
<path d="M64611 75672
L64555 75700
L64443 75700
L64386 75672
L64358 75615
L64358 75390
L64386 75334
L64443 75306
L64555 75306
L64611 75334
L64640 75390
L64640 75447
L64358 75503
" />
<path d="M64893 75643
L64921 75672
L64893 75700
L64865 75672
L64893 75643
L64893 75700
" />
<path d="M64893 75334
L64921 75362
L64893 75390
L64865 75362
L64893 75334
L64893 75390
" />
<path d="M65877 75700
L65877 75109
" />
<path d="M65877 75672
L65821 75700
L65708 75700
L65652 75672
L65624 75643
L65596 75587
L65596 75419
L65624 75362
L65652 75334
L65708 75306
L65821 75306
L65877 75334
" />
<path d="M66158 75700
L66158 75306
" />
<path d="M66158 75419
L66186 75362
L66214 75334
L66271 75306
L66327 75306
" />
<path d="M66608 75700
L66552 75672
L66524 75643
L66496 75587
L66496 75419
L66524 75362
L66552 75334
L66608 75306
L66692 75306
L66749 75334
L66777 75362
L66805 75419
L66805 75587
L66777 75643
L66749 75672
L66692 75700
L66608 75700
" />
<path d="M67058 75306
L67058 75897
" />
<path d="M67058 75334
L67114 75306
L67227 75306
L67283 75334
L67311 75362
L67339 75419
L67339 75587
L67311 75643
L67283 75672
L67227 75700
L67114 75700
L67058 75672
" />
<path d="M67592 75700
L67592 75109
" />
<path d="M67592 75334
L67649 75306
L67761 75306
L67817 75334
L67845 75362
L67874 75419
L67874 75587
L67845 75643
L67817 75672
L67761 75700
L67649 75700
L67592 75672
" />
<path d="M68211 75700
L68155 75672
L68127 75643
L68098 75587
L68098 75419
L68127 75362
L68155 75334
L68211 75306
L68295 75306
L68352 75334
L68380 75362
L68408 75419
L68408 75587
L68380 75643
L68352 75672
L68295 75700
L68211 75700
" />
<path d="M68577 75306
L68802 75306
" />
<path d="M68661 75109
L68661 75615
L68689 75672
L68745 75700
L68802 75700
" />
<path d="M68858 75756
L69308 75756
" />
<path d="M69701 75672
L69645 75700
L69533 75700
L69476 75672
L69448 75643
L69420 75587
L69420 75419
L69448 75362
L69476 75334
L69533 75306
L69645 75306
L69701 75334
" />
<path d="M70039 75700
L69983 75672
L69955 75643
L69926 75587
L69926 75419
L69955 75362
L69983 75334
L70039 75306
L70123 75306
L70179 75334
L70208 75362
L70236 75419
L70236 75587
L70208 75643
L70179 75672
L70123 75700
L70039 75700
" />
<path d="M70489 75306
L70489 75700
" />
<path d="M70489 75362
L70517 75334
L70573 75306
L70658 75306
L70714 75334
L70742 75390
L70742 75700
" />
<path d="M70939 75306
L71164 75306
" />
<path d="M71023 75109
L71023 75615
L71051 75672
L71107 75700
L71164 75700
" />
<path d="M71361 75700
L71361 75306
" />
<path d="M71361 75419
L71389 75362
L71417 75334
L71473 75306
L71529 75306
" />
<path d="M71811 75700
L71754 75672
L71726 75643
L71698 75587
L71698 75419
L71726 75362
L71754 75334
L71811 75306
L71895 75306
L71951 75334
L71979 75362
L72007 75419
L72007 75587
L71979 75643
L71951 75672
L71895 75700
L71811 75700
" />
<path d="M72345 75700
L72289 75672
L72260 75615
L72260 75109
" />
<path d="M72429 75756
L72879 75756
" />
<path d="M73020 75700
L73020 75109
" />
<path d="M73020 75334
L73076 75306
L73188 75306
L73245 75334
L73273 75362
L73301 75419
L73301 75587
L73273 75643
L73245 75672
L73188 75700
L73076 75700
L73020 75672
" />
<path d="M73638 75700
L73582 75672
L73554 75643
L73526 75587
L73526 75419
L73554 75362
L73582 75334
L73638 75306
L73723 75306
L73779 75334
L73807 75362
L73835 75419
L73835 75587
L73807 75643
L73779 75672
L73723 75700
L73638 75700
" />
<path d="M74341 75700
L74341 75390
L74313 75334
L74257 75306
L74145 75306
L74088 75334
" />
<path d="M74341 75672
L74285 75700
L74145 75700
L74088 75672
L74060 75615
L74060 75559
L74088 75503
L74145 75475
L74285 75475
L74341 75447
" />
<path d="M74623 75700
L74623 75306
" />
<path d="M74623 75419
L74651 75362
L74679 75334
L74735 75306
L74791 75306
" />
<path d="M75241 75700
L75241 75109
" />
<path d="M75241 75672
L75185 75700
L75073 75700
L75016 75672
L74988 75643
L74960 75587
L74960 75419
L74988 75362
L75016 75334
L75073 75306
L75185 75306
L75241 75334
" />
<path d="M75523 75643
L75551 75672
L75523 75700
L75494 75672
L75523 75643
L75523 75700
" />
<path d="M75804 75700
L75804 75109
" />
<path d="M75860 75475
L76029 75700
" />
<path d="M76029 75306
L75804 75531
" />
<path d="M76282 75700
L76282 75306
" />
<path d="M76282 75109
L76254 75137
L76282 75165
L76310 75137
L76282 75109
L76282 75165
" />
<path d="M76816 75672
L76760 75700
L76647 75700
L76591 75672
L76563 75643
L76535 75587
L76535 75419
L76563 75362
L76591 75334
L76647 75306
L76760 75306
L76816 75334
" />
<path d="M77322 75700
L77322 75390
L77294 75334
L77238 75306
L77125 75306
L77069 75334
" />
<path d="M77322 75672
L77266 75700
L77125 75700
L77069 75672
L77041 75615
L77041 75559
L77069 75503
L77125 75475
L77266 75475
L77322 75447
" />
<path d="M77857 75700
L77857 75109
" />
<path d="M77857 75672
L77800 75700
L77688 75700
L77632 75672
L77604 75643
L77575 75587
L77575 75419
L77604 75362
L77632 75334
L77688 75306
L77800 75306
L77857 75334
" />
<path d="M77997 75756
L78447 75756
" />
<path d="M78588 75306
L78588 75897
" />
<path d="M78588 75334
L78644 75306
L78757 75306
L78813 75334
L78841 75362
L78869 75419
L78869 75587
L78841 75643
L78813 75672
L78757 75700
L78644 75700
L78588 75672
" />
<path d="M79375 75672
L79319 75700
L79206 75700
L79150 75672
L79122 75643
L79094 75587
L79094 75419
L79122 75362
L79150 75334
L79206 75306
L79319 75306
L79375 75334
" />
<path d="M79628 75700
L79628 75109
" />
<path d="M79628 75334
L79685 75306
L79797 75306
L79853 75334
L79881 75362
L79910 75419
L79910 75587
L79881 75643
L79853 75672
L79797 75700
L79685 75700
L79628 75672
" />
</g>
<g style="fill:#000000; fill-opacity:0.0; 
stroke:#000000; stroke-width:39.3701; stroke-opacity:1; 
stroke-linecap:round; stroke-linejoin:round;">
</g>
<g style="fill:#000000; fill-opacity:0.0; 
stroke:#000000; stroke-width:59.0551; stroke-opacity:1; 
stroke-linecap:round; stroke-linejoin:round;">
<path d="M62755 73779
L105275 73779
" />
</g>
<g style="fill:#000000; fill-opacity:0.0; 
stroke:#000000; stroke-width:39.3701; stroke-opacity:1; 
stroke-linecap:round; stroke-linejoin:round;">
</g>
<g style="fill:#000000; fill-opacity:0.0; 
stroke:#000000; stroke-width:59.0551; stroke-opacity:1; 
stroke-linecap:round; stroke-linejoin:round;">
<path d="M63262 74609
L63346 74637
L63487 74637
L63543 74609
L63571 74580
L63599 74524
L63599 74468
L63571 74412
L63543 74384
L63487 74356
L63374 74327
L63318 74299
L63290 74271
L63262 74215
L63262 74159
L63290 74102
L63318 74074
L63374 74046
L63515 74046
L63599 74074
" />
<path d="M63852 74637
L63852 74046
" />
<path d="M64105 74637
L64105 74327
L64077 74271
L64021 74243
L63937 74243
L63880 74271
L63852 74299
" />
<path d="M64611 74609
L64555 74637
L64443 74637
L64386 74609
L64358 74552
L64358 74327
L64386 74271
L64443 74243
L64555 74243
L64611 74271
L64640 74327
L64640 74384
L64358 74440
" />
<path d="M65118 74609
L65061 74637
L64949 74637
L64893 74609
L64865 74552
L64865 74327
L64893 74271
L64949 74243
L65061 74243
L65118 74271
L65146 74327
L65146 74384
L64865 74440
" />
<path d="M65314 74243
L65539 74243
" />
<path d="M65399 74046
L65399 74552
L65427 74609
L65483 74637
L65539 74637
" />
<path d="M65736 74580
L65764 74609
L65736 74637
L65708 74609
L65736 74580
L65736 74637
" />
<path d="M65736 74271
L65764 74299
L65736 74327
L65708 74299
L65736 74271
L65736 74327
" />
</g>
<g style="fill:#000000; fill-opacity:0.0; 
stroke:#000000; stroke-width:39.3701; stroke-opacity:1; 
stroke-linecap:round; stroke-linejoin:round;">
</g>
<g style="fill:#000000; fill-opacity:0.0; 
stroke:#000000; stroke-width:118.11; stroke-opacity:1; 
stroke-linecap:round; stroke-linejoin:round;">
<path d="M63262 73428
L63346 73456
L63487 73456
L63543 73428
L63571 73399
L63599 73343
L63599 73287
L63571 73231
L63543 73203
L63487 73174
L63374 73146
L63318 73118
L63290 73090
L63262 73034
L63262 72978
L63290 72921
L63318 72893
L63374 72865
L63515 72865
L63599 72893
" />
<path d="M64105 73428
L64049 73456
L63937 73456
L63880 73428
L63852 73399
L63824 73343
L63824 73174
L63852 73118
L63880 73090
L63937 73062
L64049 73062
L64105 73090
" />
<path d="M64358 73456
L64358 73062
" />
<path d="M64358 72865
L64330 72893
L64358 72921
L64386 72893
L64358 72865
L64358 72921
" />
<path d="M64640 73231
L65089 73231
" />
<path d="M65568 73146
L65652 73174
L65680 73203
L65708 73259
L65708 73343
L65680 73399
L65652 73428
L65596 73456
L65371 73456
L65371 72865
L65568 72865
L65624 72893
L65652 72921
L65680 72978
L65680 73034
L65652 73090
L65624 73118
L65568 73146
L65371 73146
" />
<path d="M66046 73456
L65989 73428
L65961 73399
L65933 73343
L65933 73174
L65961 73118
L65989 73090
L66046 73062
L66130 73062
L66186 73090
L66214 73118
L66242 73174
L66242 73343
L66214 73399
L66186 73428
L66130 73456
L66046 73456
" />
<path d="M66411 73062
L66636 73062
" />
<path d="M66496 72865
L66496 73371
L66524 73428
L66580 73456
L66636 73456
" />
<path d="M66805 73428
L66861 73456
L66974 73456
L67030 73428
L67058 73371
L67058 73343
L67030 73287
L66974 73259
L66889 73259
L66833 73231
L66805 73174
L66805 73146
L66833 73090
L66889 73062
L66974 73062
L67030 73090
" />
<path d="M67761 73456
L67761 72865
" />
<path d="M68042 73062
L68042 73456
" />
<path d="M68042 73118
L68070 73090
L68127 73062
L68211 73062
L68267 73090
L68295 73146
L68295 73456
" />
<path d="M68830 73428
L68773 73456
L68661 73456
L68605 73428
L68577 73399
L68548 73343
L68548 73174
L68577 73118
L68605 73090
L68661 73062
L68773 73062
L68830 73090
" />
<path d="M69083 73399
L69111 73428
L69083 73456
L69055 73428
L69083 73399
L69083 73456
" />
</g>
<g style="fill:#000000; fill-opacity:0.0; 
stroke:#000000; stroke-width:39.3701; stroke-opacity:1; 
stroke-linecap:round; stroke-linejoin:round;">
</g>
<g style="fill:#000000; fill-opacity:0.0; 
stroke:#000000; stroke-width:59.0551; stroke-opacity:1; 
stroke-linecap:round; stroke-linejoin:round;">
<path d="M70629 77716
L70629 78897
" />
</g>
<g style="fill:#000000; fill-opacity:0.0; 
stroke:#000000; stroke-width:39.3701; stroke-opacity:1; 
stroke-linecap:round; stroke-linejoin:round;">
</g>
<g style="fill:#000000; fill-opacity:0.0; 
stroke:#000000; stroke-width:59.0551; stroke-opacity:1; 
stroke-linecap:round; stroke-linejoin:round;">
<path d="M95826 77716
L95826 80275
" />
</g>
<g style="fill:#000000; fill-opacity:0.0; 
stroke:#000000; stroke-width:39.3701; stroke-opacity:1; 
stroke-linecap:round; stroke-linejoin:round;">
<path d="M12992 16929
L48818 16929
" />
<path d="M12992 35826
L25196 35826
" />
<path d="M12992 16929
L12992 35826
" />
<path d="M25196 35826
L25196 44488
" />
<path d="M48818 8267
L48818 16929
" />
<path d="M58267 8267
L58267 44488
" />
<path d="M48818 8267
L58267 8267
" />
<path d="M25196 44488
L58267 44488
" />
</g>
<g style="fill:#000000; fill-opacity:0.0; 
stroke:#000000; stroke-width:59.0551; stroke-opacity:1; 
stroke-linecap:round; stroke-linejoin:round;">
<path d="M39291 33188
L39272 33151
L39235 33113
L39179 33057
L39160 33020
L39160 32982
" />
<path d="M39254 33001
L39235 32963
L39197 32926
L39122 32907
L38991 32907
L38916 32926
L38879 32963
L38860 33001
L38860 33076
L38879 33113
L38916 33151
L38991 33170
L39122 33170
L39197 33151
L39235 33113
L39254 33076
L39254 33001
" />
<path d="M38860 33507
L38860 33432
L38879 33395
L38897 33376
L38954 33338
L39029 33320
L39179 33320
L39216 33338
L39235 33357
L39254 33395
L39254 33470
L39235 33507
L39216 33526
L39179 33545
L39085 33545
L39047 33526
L39029 33507
L39010 33470
L39010 33395
L39029 33357
L39047 33338
L39085 33320
" />
<path d="M37191 37638
L37172 37601
L37135 37563
L37079 37507
L37060 37470
L37060 37432
" />
<path d="M37154 37451
L37135 37413
L37097 37376
L37022 37357
L36891 37357
L36816 37376
L36779 37413
L36760 37451
L36760 37526
L36779 37563
L36816 37601
L36891 37620
L37022 37620
L37097 37601
L37135 37563
L37154 37526
L37154 37451
" />
<path d="M36760 37976
L36760 37788
L36947 37770
L36929 37788
L36910 37826
L36910 37920
L36929 37957
L36947 37976
L36985 37995
L37079 37995
L37116 37976
L37135 37957
L37154 37920
L37154 37826
L37135 37788
L37116 37770
" />
<path d="M48754 41383
L48735 41345
L48698 41308
L48642 41252
L48623 41214
L48623 41177
" />
<path d="M48717 41195
L48698 41158
L48660 41120
L48585 41102
L48454 41102
L48379 41120
L48342 41158
L48323 41195
L48323 41270
L48342 41308
L48379 41345
L48454 41364
L48585 41364
L48660 41345
L48698 41308
L48717 41270
L48717 41195
" />
<path d="M48717 41739
L48717 41514
" />
<path d="M48717 41627
L48323 41627
L48379 41589
L48417 41552
L48435 41514
" />
<path d="M57658 26865
L57977 26865
L58014 26884
L58033 26902
L58052 26940
L58052 27015
L58033 27052
L58014 27071
L57977 27090
L57658 27090
" />
<path d="M57658 27240
L57658 27502
L58052 27334
" />
<path d="M48878 26314
L49197 26314
L49235 26332
L49253 26351
L49272 26389
L49272 26464
L49253 26501
L49235 26520
L49197 26539
L48878 26539
" />
<path d="M48878 26914
L48878 26726
L49066 26707
L49047 26726
L49028 26764
L49028 26857
L49047 26895
L49066 26914
L49103 26932
L49197 26932
L49235 26914
L49253 26895
L49272 26857
L49272 26764
L49253 26726
L49235 26707
" />
<path d="M58008 24941
L58140 24754
" />
<path d="M58233 24941
L58233 24548
L58083 24548
L58046 24566
L58027 24585
L58008 24623
L58008 24679
L58027 24716
L58046 24735
L58083 24754
L58233 24754
" />
<path d="M57859 24585
L57840 24566
L57802 24548
L57709 24548
L57671 24566
L57652 24585
L57634 24623
L57634 24660
L57652 24716
L57877 24941
L57634 24941
" />
<path d="M57296 24679
L57296 24941
" />
<path d="M57390 24529
L57484 24810
L57240 24810
" />
<path d="M53363 24941
L53494 24754
" />
<path d="M53588 24941
L53588 24548
L53438 24548
L53400 24566
L53382 24585
L53363 24623
L53363 24679
L53382 24716
L53400 24735
L53438 24754
L53588 24754
" />
<path d="M53213 24585
L53194 24566
L53157 24548
L53063 24548
L53025 24566
L53007 24585
L52988 24623
L52988 24660
L53007 24716
L53232 24941
L52988 24941
" />
<path d="M52763 24716
L52800 24698
L52819 24679
L52838 24641
L52838 24623
L52819 24585
L52800 24566
L52763 24548
L52688 24548
L52650 24566
L52632 24585
L52613 24623
L52613 24641
L52632 24679
L52650 24698
L52688 24716
L52763 24716
L52800 24735
L52819 24754
L52838 24791
L52838 24866
L52819 24904
L52800 24923
L52763 24941
L52688 24941
L52650 24923
L52632 24904
L52613 24866
L52613 24791
L52632 24754
L52650 24735
L52688 24716
" />
<path d="M52418 30493
L52549 30305
" />
<path d="M52643 30493
L52643 30099
L52493 30099
L52455 30118
L52437 30136
L52418 30174
L52418 30230
L52437 30268
L52455 30286
L52493 30305
L52643 30305
" />
<path d="M52043 30493
L52268 30493
" />
<path d="M52155 30493
L52155 30099
L52193 30155
L52230 30193
L52268 30211
" />
<path d="M51799 30099
L51762 30099
L51724 30118
L51706 30136
L51687 30174
L51668 30249
L51668 30343
L51687 30418
L51706 30455
L51724 30474
L51762 30493
L51799 30493
L51837 30474
L51856 30455
L51874 30418
L51893 30343
L51893 30249
L51874 30174
L51856 30136
L51837 30118
L51799 30099
" />
<path d="M49701 30335
L49833 30148
" />
<path d="M49926 30335
L49926 29941
L49776 29941
L49739 29960
L49720 29979
L49701 30016
L49701 30073
L49720 30110
L49739 30129
L49776 30148
L49926 30148
" />
<path d="M49326 30335
L49551 30335
" />
<path d="M49439 30335
L49439 29941
L49476 29998
L49514 30035
L49551 30054
" />
<path d="M48952 30335
L49176 30335
" />
<path d="M49064 30335
L49064 29941
L49101 29998
L49139 30035
L49176 30054
" />
<path d="M52418 29784
L52549 29596
" />
<path d="M52643 29784
L52643 29390
L52493 29390
L52455 29409
L52437 29428
L52418 29465
L52418 29521
L52437 29559
L52455 29578
L52493 29596
L52643 29596
" />
<path d="M52043 29784
L52268 29784
" />
<path d="M52155 29784
L52155 29390
L52193 29446
L52230 29484
L52268 29503
" />
<path d="M51893 29428
L51874 29409
L51837 29390
L51743 29390
L51706 29409
L51687 29428
L51668 29465
L51668 29503
L51687 29559
L51912 29784
L51668 29784
" />
<path d="M47624 36713
L47755 36526
" />
<path d="M47849 36713
L47849 36319
L47699 36319
L47662 36338
L47643 36357
L47624 36394
L47624 36451
L47643 36488
L47662 36507
L47699 36526
L47849 36526
" />
<path d="M47287 36319
L47362 36319
L47399 36338
L47418 36357
L47455 36413
L47474 36488
L47474 36638
L47455 36676
L47437 36694
L47399 36713
L47324 36713
L47287 36694
L47268 36676
L47249 36638
L47249 36544
L47268 36507
L47287 36488
L47324 36469
L47399 36469
L47437 36488
L47455 36507
L47474 36544
" />
<path d="M43839 19619
L43652 19488
" />
<path d="M43839 19394
L43445 19394
L43445 19544
L43464 19581
L43483 19600
L43520 19619
L43577 19619
L43614 19600
L43633 19581
L43652 19544
L43652 19394
" />
<path d="M43445 19750
L43445 19994
L43595 19863
L43595 19919
L43614 19956
L43633 19975
L43670 19994
L43764 19994
L43802 19975
L43820 19956
L43839 19919
L43839 19806
L43820 19769
L43802 19750
" />
<path d="M41910 19580
L41722 19448
" />
<path d="M41910 19355
L41516 19355
L41516 19505
L41535 19542
L41554 19561
L41591 19580
L41647 19580
L41685 19561
L41704 19542
L41722 19505
L41722 19355
" />
<path d="M41647 19917
L41910 19917
" />
<path d="M41497 19823
L41779 19730
L41779 19973
" />
<path d="M41989 30731
L41801 30599
" />
<path d="M41989 30506
L41595 30506
L41595 30656
L41614 30693
L41632 30712
L41670 30731
L41726 30731
L41764 30712
L41782 30693
L41801 30656
L41801 30506
" />
<path d="M41989 31106
L41989 30881
" />
<path d="M41989 30993
L41595 30993
L41651 30956
L41689 30918
L41707 30881
" />
<path d="M41989 31293
L41989 31368
L41970 31406
L41951 31424
L41895 31462
L41820 31481
L41670 31481
L41632 31462
L41614 31443
L41595 31406
L41595 31331
L41614 31293
L41632 31274
L41670 31256
L41764 31256
L41801 31274
L41820 31293
L41839 31331
L41839 31406
L41820 31443
L41801 31462
L41764 31481
" />
<path d="M41004 30691
L40817 30560
" />
<path d="M41004 30466
L40611 30466
L40611 30616
L40629 30654
L40648 30673
L40686 30691
L40742 30691
L40779 30673
L40798 30654
L40817 30616
L40817 30466
" />
<path d="M40648 30841
L40629 30860
L40611 30898
L40611 30991
L40629 31029
L40648 31047
L40686 31066
L40723 31066
L40779 31047
L41004 30823
L41004 31066
" />
<path d="M40611 31310
L40611 31347
L40629 31385
L40648 31404
L40686 31422
L40761 31441
L40854 31441
L40929 31422
L40967 31404
L40986 31385
L41004 31347
L41004 31310
L40986 31272
L40967 31254
L40929 31235
L40854 31216
L40761 31216
L40686 31235
L40648 31254
L40629 31272
L40611 31310
" />
<path d="M42266 23565
L42285 23547
L42304 23490
L42304 23453
L42285 23397
L42247 23359
L42210 23340
L42135 23322
L42079 23322
L42004 23340
L41966 23359
L41929 23397
L41910 23453
L41910 23490
L41929 23547
L41947 23565
" />
<path d="M41947 23715
L41929 23734
L41910 23772
L41910 23865
L41929 23903
L41947 23922
L41985 23940
L42022 23940
L42079 23922
L42304 23697
L42304 23940
" />
<path d="M42079 24165
L42060 24128
L42041 24109
L42004 24090
L41985 24090
L41947 24109
L41929 24128
L41910 24165
L41910 24240
L41929 24278
L41947 24296
L41985 24315
L42004 24315
L42041 24296
L42060 24278
L42079 24240
L42079 24165
L42097 24128
L42116 24109
L42154 24090
L42229 24090
L42266 24109
L42285 24128
L42304 24165
L42304 24240
L42285 24278
L42266 24296
L42229 24315
L42154 24315
L42116 24296
L42097 24278
L42079 24240
" />
<path d="M44589 23526
L44608 23507
L44626 23451
L44626 23413
L44608 23357
L44570 23320
L44533 23301
L44458 23282
L44401 23282
L44326 23301
L44289 23320
L44251 23357
L44233 23413
L44233 23451
L44251 23507
L44270 23526
" />
<path d="M44270 23676
L44251 23695
L44233 23732
L44233 23826
L44251 23863
L44270 23882
L44308 23901
L44345 23901
L44401 23882
L44626 23657
L44626 23901
" />
<path d="M44626 24088
L44626 24163
L44608 24201
L44589 24220
L44533 24257
L44458 24276
L44308 24276
L44270 24257
L44251 24238
L44233 24201
L44233 24126
L44251 24088
L44270 24070
L44308 24051
L44401 24051
L44439 24070
L44458 24088
L44476 24126
L44476 24201
L44458 24238
L44439 24257
L44401 24276
" />
<path d="M41154 20109
L41286 20109
" />
<path d="M41286 20315
L41286 19922
L41098 19922
" />
<path d="M40817 20109
L40761 20128
L40742 20147
L40723 20184
L40723 20240
L40742 20278
L40761 20297
L40798 20315
L40948 20315
L40948 19922
L40817 19922
L40779 19940
L40761 19959
L40742 19997
L40742 20034
L40761 20072
L40779 20090
L40817 20109
L40948 20109
" />
<path d="M40348 20315
L40573 20315
" />
<path d="M40461 20315
L40461 19922
L40498 19978
L40536 20015
L40573 20034
" />
<path d="M25997 32570
L26128 32570
" />
<path d="M26128 32776
L26128 32382
L25941 32382
" />
<path d="M25659 32570
L25603 32589
L25584 32607
L25566 32645
L25566 32701
L25584 32739
L25603 32757
L25641 32776
L25791 32776
L25791 32382
L25659 32382
L25622 32401
L25603 32420
L25584 32457
L25584 32495
L25603 32532
L25622 32551
L25659 32570
L25791 32570
" />
<path d="M25416 32420
L25397 32401
L25359 32382
L25266 32382
L25228 32401
L25209 32420
L25191 32457
L25191 32495
L25209 32551
L25434 32776
L25191 32776
" />
<path d="M40414 28329
L40226 28198
" />
<path d="M40414 28104
L40020 28104
L40020 28254
L40039 28292
L40058 28310
L40095 28329
L40151 28329
L40189 28310
L40208 28292
L40226 28254
L40226 28104
" />
<path d="M40151 28667
L40414 28667
" />
<path d="M40001 28573
L40283 28479
L40283 28723
" />
<path d="M40020 28948
L40020 28985
L40039 29023
L40058 29041
L40095 29060
L40170 29079
L40264 29079
L40339 29060
L40376 29041
L40395 29023
L40414 28985
L40414 28948
L40395 28910
L40376 28892
L40339 28873
L40264 28854
L40170 28854
L40095 28873
L40058 28892
L40039 28910
L40020 28948
" />
<path d="M42638 28290
L42451 28158
" />
<path d="M42638 28065
L42245 28065
L42245 28215
L42263 28252
L42282 28271
L42320 28290
L42376 28290
L42413 28271
L42432 28252
L42451 28215
L42451 28065
" />
<path d="M42376 28627
L42638 28627
" />
<path d="M42226 28533
L42507 28440
L42507 28683
" />
<path d="M42638 29040
L42638 28815
" />
<path d="M42638 28927
L42245 28927
L42301 28890
L42338 28852
L42357 28815
" />
<path d="M42343 22305
L42155 22174
" />
<path d="M42343 22080
L41949 22080
L41949 22230
L41968 22268
L41987 22287
L42024 22305
L42080 22305
L42118 22287
L42137 22268
L42155 22230
L42155 22080
" />
<path d="M42080 22643
L42343 22643
" />
<path d="M41931 22549
L42212 22455
L42212 22699
" />
<path d="M42080 23018
L42343 23018
" />
<path d="M41931 22924
L42212 22830
L42212 23074
" />
<path d="M44626 22305
L44439 22174
" />
<path d="M44626 22080
L44233 22080
L44233 22230
L44251 22268
L44270 22287
L44308 22305
L44364 22305
L44401 22287
L44420 22268
L44439 22230
L44439 22080
" />
<path d="M44364 22643
L44626 22643
" />
<path d="M44214 22549
L44495 22455
L44495 22699
" />
<path d="M44233 23037
L44233 22849
L44420 22830
L44401 22849
L44383 22887
L44383 22980
L44401 23018
L44420 23037
L44458 23055
L44551 23055
L44589 23037
L44608 23018
L44626 22980
L44626 22887
L44608 22849
L44589 22830
" />
<path d="M42579 19313
L42392 19182
" />
<path d="M42579 19088
L42185 19088
L42185 19238
L42204 19276
L42223 19295
L42260 19313
L42317 19313
L42354 19295
L42373 19276
L42392 19238
L42392 19088
" />
<path d="M42185 19670
L42185 19482
L42373 19463
L42354 19482
L42335 19520
L42335 19613
L42354 19651
L42373 19670
L42410 19688
L42504 19688
L42542 19670
L42560 19651
L42579 19613
L42579 19520
L42560 19482
L42542 19463
" />
<path d="M42185 19932
L42185 19970
L42204 20007
L42223 20026
L42260 20044
L42335 20063
L42429 20063
L42504 20044
L42542 20026
L42560 20007
L42579 19970
L42579 19932
L42560 19895
L42542 19876
L42504 19857
L42429 19838
L42335 19838
L42260 19857
L42223 19876
L42204 19895
L42185 19932
" />
<path d="M45099 20337
L44911 20206
" />
<path d="M45099 20112
L44705 20112
L44705 20262
L44724 20299
L44743 20318
L44780 20337
L44836 20337
L44874 20318
L44893 20299
L44911 20262
L44911 20112
" />
<path d="M44705 20693
L44705 20506
L44893 20487
L44874 20506
L44855 20543
L44855 20637
L44874 20674
L44893 20693
L44930 20712
L45024 20712
L45061 20693
L45080 20674
L45099 20637
L45099 20543
L45080 20506
L45061 20487
" />
<path d="M45099 21087
L45099 20862
" />
<path d="M45099 20974
L44705 20974
L44761 20937
L44799 20899
L44818 20862
" />
<path d="M46981 29893
L47112 29893
" />
<path d="M47112 30099
L47112 29705
L46925 29705
" />
<path d="M46644 29893
L46587 29911
L46569 29930
L46550 29968
L46550 30024
L46569 30061
L46587 30080
L46625 30099
L46775 30099
L46775 29705
L46644 29705
L46606 29724
L46587 29743
L46569 29780
L46569 29818
L46587 29855
L46606 29874
L46644 29893
L46775 29893
" />
<path d="M46419 29705
L46175 29705
L46306 29855
L46250 29855
L46212 29874
L46194 29893
L46175 29930
L46175 30024
L46194 30061
L46212 30080
L46250 30099
L46362 30099
L46400 30080
L46419 30061
" />
<path d="M49068 28318
L49199 28318
" />
<path d="M49199 28524
L49199 28130
L49011 28130
" />
<path d="M48730 28318
L48674 28337
L48655 28355
L48637 28393
L48637 28449
L48655 28487
L48674 28505
L48712 28524
L48862 28524
L48862 28130
L48730 28130
L48693 28149
L48674 28168
L48655 28205
L48655 28243
L48674 28280
L48693 28299
L48730 28318
L48862 28318
" />
<path d="M48299 28262
L48299 28524
" />
<path d="M48393 28112
L48487 28393
L48243 28393
" />
<path d="M50247 21601
L50247 21469
" />
<path d="M50453 21469
L50059 21469
L50059 21657
" />
<path d="M50247 21938
L50266 21994
L50284 22013
L50322 22032
L50378 22032
L50416 22013
L50434 21994
L50453 21957
L50453 21807
L50059 21807
L50059 21938
L50078 21976
L50097 21994
L50134 22013
L50172 22013
L50209 21994
L50228 21976
L50247 21938
L50247 21807
" />
<path d="M50059 22388
L50059 22200
L50247 22182
L50228 22200
L50209 22238
L50209 22332
L50228 22369
L50247 22388
L50284 22407
L50378 22407
L50416 22388
L50434 22369
L50453 22332
L50453 22238
L50434 22200
L50416 22182
" />
<path d="M27851 33368
L27870 33387
L27926 33406
L27964 33406
L28020 33387
L28057 33350
L28076 33312
L28095 33237
L28095 33181
L28076 33106
L28057 33068
L28020 33031
L27964 33012
L27926 33012
L27870 33031
L27851 33050
" />
<path d="M27720 33012
L27476 33012
L27607 33162
L27551 33162
L27514 33181
L27495 33200
L27476 33237
L27476 33331
L27495 33368
L27514 33387
L27551 33406
L27664 33406
L27701 33387
L27720 33368
" />
<path d="M27120 33012
L27307 33012
L27326 33200
L27307 33181
L27270 33162
L27176 33162
L27139 33181
L27120 33200
L27101 33237
L27101 33331
L27120 33368
L27139 33387
L27176 33406
L27270 33406
L27307 33387
L27326 33368
" />
<path d="M14225 31222
L14169 31241
L14075 31241
L14038 31222
L14019 31203
L14000 31166
L14000 31128
L14019 31091
L14038 31072
L14075 31053
L14150 31034
L14188 31016
L14206 30997
L14225 30959
L14225 30922
L14206 30884
L14188 30866
L14150 30847
L14056 30847
L14000 30866
" />
<path d="M13869 30847
L13775 31241
L13700 30959
L13625 31241
L13532 30847
" />
<path d="M13175 31241
L13400 31241
" />
<path d="M13288 31241
L13288 30847
L13325 30903
L13363 30941
L13400 30959
" />
<path d="M14600 33937
L14600 33544
L14450 33544
L14413 33562
L14394 33581
L14375 33619
L14375 33675
L14394 33712
L14413 33731
L14450 33750
L14600 33750
" />
<path d="M13982 33937
L14113 33750
" />
<path d="M14206 33937
L14206 33544
L14056 33544
L14019 33562
L14000 33581
L13982 33619
L13982 33675
L14000 33712
L14019 33731
L14056 33750
L14206 33750
" />
<path d="M13738 33544
L13663 33544
L13625 33562
L13588 33600
L13569 33675
L13569 33806
L13588 33881
L13625 33919
L13663 33937
L13738 33937
L13775 33919
L13813 33881
L13832 33806
L13832 33675
L13813 33600
L13775 33562
L13738 33544
" />
<path d="M13194 33562
L13232 33544
L13288 33544
L13344 33562
L13382 33600
L13400 33637
L13419 33712
L13419 33769
L13400 33844
L13382 33881
L13344 33919
L13288 33937
L13250 33937
L13194 33919
L13175 33900
L13175 33769
L13250 33769
" />
</g>
<g style="fill:#000000; fill-opacity:0.0; 
stroke:#000000; stroke-width:30; stroke-opacity:1; 
stroke-linecap:round; stroke-linejoin:round;">
<path d="M10281 25457
L9781 25457
L9781 25648
L9805 25695
L9829 25719
L9877 25743
L9948 25743
L9996 25719
L10020 25695
L10043 25648
L10043 25457
" />
<path d="M9781 26172
L9781 26076
L9805 26029
L9829 26005
L9900 25957
L9996 25933
L10186 25933
L10234 25957
L10258 25981
L10281 26029
L10281 26124
L10258 26172
L10234 26195
L10186 26219
L10067 26219
L10020 26195
L9996 26172
L9972 26124
L9972 26029
L9996 25981
L10020 25957
L10067 25933
" />
</g>
<g style="fill:#000000; fill-opacity:0.0; 
stroke:#000000; stroke-width:59.0551; stroke-opacity:1; 
stroke-linecap:round; stroke-linejoin:round;">
<path d="M31782 20536
L31782 20855
L31763 20892
L31745 20911
L31707 20930
L31632 20930
L31595 20911
L31576 20892
L31557 20855
L31557 20536
" />
<path d="M31164 20930
L31389 20930
" />
<path d="M31276 20930
L31276 20536
L31314 20592
L31351 20630
L31389 20648
" />
<path d="M30789 20930
L31014 20930
" />
<path d="M30901 20930
L30901 20536
L30939 20592
L30976 20630
L31014 20648
" />
<path d="M57658 21914
L57977 21914
L58014 21932
L58033 21951
L58052 21989
L58052 22064
L58033 22101
L58014 22120
L57977 22139
L57658 22139
" />
<path d="M58052 22532
L58052 22307
" />
<path d="M58052 22420
L57658 22420
L57714 22382
L57752 22345
L57770 22307
" />
<path d="M57695 22682
L57677 22701
L57658 22739
L57658 22832
L57677 22870
L57695 22889
L57733 22907
L57770 22907
L57827 22889
L58052 22664
L58052 22907
" />
<path d="M48087 37345
L48106 37364
L48162 37382
L48200 37382
L48256 37364
L48293 37326
L48312 37289
L48331 37214
L48331 37157
L48312 37082
L48293 37045
L48256 37007
L48200 36989
L48162 36989
L48106 37007
L48087 37026
" />
<path d="M47712 37382
L47937 37382
" />
<path d="M47825 37382
L47825 36989
L47862 37045
L47900 37082
L47937 37101
" />
<path d="M47525 37382
L47450 37382
L47412 37364
L47394 37345
L47356 37289
L47337 37214
L47337 37064
L47356 37026
L47375 37007
L47412 36989
L47487 36989
L47525 37007
L47544 37026
L47562 37064
L47562 37157
L47544 37195
L47525 37214
L47487 37232
L47412 37232
L47375 37214
L47356 37195
L47337 37157
" />
<path d="M50140 34589
L50159 34570
L50178 34514
L50178 34476
L50159 34420
L50121 34383
L50084 34364
L50009 34345
L49953 34345
L49878 34364
L49840 34383
L49803 34420
L49784 34476
L49784 34514
L49803 34570
L49821 34589
" />
<path d="M49821 34739
L49803 34758
L49784 34795
L49784 34889
L49803 34926
L49821 34945
L49859 34964
L49896 34964
L49953 34945
L50178 34720
L50178 34964
" />
<path d="M50178 35339
L50178 35114
" />
<path d="M50178 35226
L49784 35226
L49840 35189
L49878 35151
L49896 35114
" />
<path d="M39983 23487
L40001 23468
L40020 23412
L40020 23374
L40001 23318
L39964 23280
L39926 23262
L39851 23243
L39795 23243
L39720 23262
L39683 23280
L39645 23318
L39626 23374
L39626 23412
L39645 23468
L39664 23487
" />
<path d="M39664 23637
L39645 23655
L39626 23693
L39626 23787
L39645 23824
L39664 23843
L39701 23862
L39739 23862
L39795 23843
L40020 23618
L40020 23862
" />
<path d="M39664 24011
L39645 24030
L39626 24068
L39626 24161
L39645 24199
L39664 24218
L39701 24236
L39739 24236
L39795 24218
L40020 23993
L40020 24236
" />
</g>
<g style="fill:#000000; fill-opacity:0.0; 
stroke:#000000; stroke-width:39.3701; stroke-opacity:1; 
stroke-linecap:round; stroke-linejoin:round;">
<path d="M19516 22887
L19280 22887
L19280 22952
L19291 22992
L19313 23018
L19336 23031
L19381 23044
L19415 23044
L19460 23031
L19482 23018
L19505 22992
L19516 22952
L19516 22887
" />
<path d="M19280 23293
L19280 23162
L19392 23149
L19381 23162
L19370 23188
L19370 23254
L19381 23280
L19392 23293
L19415 23307
L19471 23307
L19493 23293
L19505 23280
L19516 23254
L19516 23188
L19505 23162
L19493 23149
" />
<path d="M19990 24365
L20121 24365
L20121 24090
" />
<path d="M19911 24116
L19898 24103
L19872 24090
L19806 24090
L19780 24103
L19767 24116
L19754 24142
L19754 24168
L19767 24208
L19924 24365
L19754 24365
" />
</g>
<g style="fill:#000000; fill-opacity:0.0; 
stroke:#000000; stroke-width:59.0551; stroke-opacity:1; 
stroke-linecap:round; stroke-linejoin:round;">
<path d="M31529 34324
L30979 34324
" />
<path d="M31529 33324
L30979 33324
" />
<path d="M31529 32324
L30979 32324
" />
<circle cx="36679.9" cy="33324.4" r="989.95" /> 
<path d="M34879 31224
L38029 31224
" />
<path d="M38029 31224
L38029 35424
" />
<path d="M38029 35424
L34879 35424
" />
<path d="M31529 31224
L34879 31224
" />
<path d="M34879 31224
L34879 35424
" />
<path d="M34879 35424
L31529 35424
" />
<path d="M31529 33324
L31529 35424
" />
<path d="M31529 33324
L31529 31224
" />
<path d="M29429 38774
L28879 38774
" />
<path d="M29429 37774
L28879 37774
" />
<path d="M29429 36774
L28879 36774
" />
<circle cx="34579.9" cy="37774.4" r="989.95" /> 
<path d="M32779 35674
L35929 35674
" />
<path d="M35929 35674
L35929 39874
" />
<path d="M35929 39874
L32779 39874
" />
<path d="M29429 35674
L32779 35674
" />
<path d="M32779 35674
L32779 39874
" />
<path d="M32779 39874
L29429 39874
" />
<path d="M29429 37774
L29429 39874
" />
<path d="M29429 37774
L29429 35674
" />
<path d="M48156 38606
L48706 38606
" />
<path d="M48156 39606
L48706 39606
" />
<path d="M48156 40606
L48706 40606
" />
<circle cx="43006.3" cy="39606.3" r="989.95" /> 
<path d="M44806 41706
L41656 41706
" />
<path d="M41656 41706
L41656 37506
" />
<path d="M41656 37506
L44806 37506
" />
<path d="M48156 41706
L44806 41706
" />
<path d="M44806 41706
L44806 37506
" />
<path d="M44806 37506
L48156 37506
" />
<path d="M48156 39606
L48156 37506
" />
<path d="M48156 39606
L48156 41706
" />
<path d="M53551 28165
L53551 26165
" />
<path d="M53551 26165
L57551 26165
" />
<path d="M57551 26165
L57551 28165
" />
<path d="M57551 28165
L53551 28165
" />
<path d="M53551 27665
L54051 27665
" />
<path d="M54051 27665
L54051 26665
" />
<path d="M54051 26665
L53551 26665
" />
<path d="M53338 26165
L53338 28165
" />
<path d="M53338 28165
L49338 28165
" />
<path d="M49338 28165
L49338 26165
" />
<path d="M49338 26165
L53338 26165
" />
<path d="M53338 26665
L52838 26665
" />
<path d="M52838 26665
L52838 27665
" />
<path d="M52838 27665
L53338 27665
" />
<path d="M56929 24419
L56456 24419
" />
<path d="M56456 25108
L56929 25108
" />
<path d="M54055 25108
L54527 25108
" />
<path d="M54527 24419
L54055 24419
" />
<path d="M53031 30659
L53503 30659
" />
<path d="M53503 29970
L53031 29970
" />
<path d="M49645 29261
L49173 29261
" />
<path d="M49173 29950
L49645 29950
" />
<path d="M53031 29911
L53503 29911
" />
<path d="M53503 29222
L53031 29222
" />
<path d="M49173 36112
L48385 36112
" />
<path d="M48385 36958
L49173 36958
" />
<path d="M43316 20354
L43316 20826
" />
<path d="M44005 20826
L44005 20354
" />
<path d="M41387 20354
L41387 20826
" />
<path d="M42076 20826
L42076 20354
" />
<path d="M42155 30078
L42155 29606
" />
<path d="M41466 29606
L41466 30078
" />
<path d="M41131 30078
L41131 29606
" />
<path d="M40442 29606
L40442 30078
" />
</g>
<g style="fill:#000000; fill-opacity:0.0; 
stroke:#000000; stroke-width:47.2441; stroke-opacity:1; 
stroke-linecap:round; stroke-linejoin:round;">
<path d="M42460 23976
L42460 23582
" />
<path d="M43129 23582
L43129 23976
" />
<path d="M44114 23582
L44114 23976
" />
<path d="M43444 23976
L43444 23582
" />
<path d="M40590 21133
L41062 21133
" />
<path d="M41062 20440
L40590 20440
" />
<path d="M27007 32251
L26535 32251
" />
<path d="M26535 32944
L27007 32944
" />
<path d="M40480 28307
L40480 28779
" />
<path d="M41173 28779
L41173 28307
" />
<path d="M41464 28307
L41464 28779
" />
<path d="M42157 28779
L42157 28307
" />
<path d="M42448 22322
L42448 22795
" />
<path d="M43141 22795
L43141 22322
" />
<path d="M43433 22322
L43433 22795
" />
<path d="M44125 22795
L44125 22322
" />
<path d="M42708 20905
L42708 20433
" />
<path d="M42015 20433
L42015 20905
" />
<path d="M44637 20866
L44637 20393
" />
<path d="M43944 20393
L43944 20866
" />
<path d="M46377 29598
L46850 29598
" />
<path d="M46850 28905
L46377 28905
" />
<path d="M47488 28425
L47488 28897
" />
<path d="M48181 28897
L48181 28425
" />
<path d="M49952 22165
L49952 21692
" />
<path d="M49259 21692
L49259 22165
" />
<path d="M27992 32196
L28779 32196
" />
<path d="M28779 33000
L27992 33000
" />
<path d="M13090 33090
L13090 31712
" />
<path d="M14232 33090
L14232 31712
" />
</g>
<g style="fill:#000000; fill-opacity:0.0; 
stroke:#000000; stroke-width:60; stroke-opacity:1; 
stroke-linecap:round; stroke-linejoin:round;">
<path d="M16824 23381
L16824 24822
" />
<path d="M16824 28261
L15565 28261
" />
<path d="M10425 28261
L10425 23381
" />
<path d="M10425 23381
L12925 23381
" />
<path d="M16824 26831
L16824 28261
" />
<path d="M15565 23381
L16824 23381
" />
<path d="M12925 28261
L10425 28261
" />
</g>
<g style="fill:#000000; fill-opacity:0.0; 
stroke:#000000; stroke-width:47.2441; stroke-opacity:1; 
stroke-linecap:round; stroke-linejoin:round;">
<path d="M31688 21145
L32385 21145
" />
<path d="M32385 21145
L32385 25240
" />
<path d="M32385 25240
L30204 25240
" />
<path d="M30204 25240
L30204 21145
" />
<path d="M30204 21145
L30901 21145
" />
<path d="M30901.6 21145.7 A393.701 393.701 0.0 0 0 31689 21145.7 " />
</g>
<g style="fill:#000000; fill-opacity:0.0; 
stroke:#000000; stroke-width:59.0551; stroke-opacity:1; 
stroke-linecap:round; stroke-linejoin:round;">
<path d="M57551 21362
L57551 23362
" />
<path d="M57551 23362
L53551 23362
" />
<path d="M53551 23362
L53551 21362
" />
<path d="M53551 21362
L57551 21362
" />
<path d="M57551 21862
L57051 21862
" />
<path d="M57051 21862
L57051 22862
" />
<path d="M57051 22862
L57551 22862
" />
</g>
<g style="fill:#000000; fill-opacity:0.0; 
stroke:#000000; stroke-width:47.2441; stroke-opacity:1; 
stroke-linecap:round; stroke-linejoin:round;">
<path d="M48858 37027
L49251 37027
" />
<path d="M49251 37696
L48858 37696
" />
<path d="M49665 36299
L49665 35905
" />
<path d="M50334 35905
L50334 36299
" />
<path d="M39586 23543
L39586 23937
" />
<path d="M38917 23937
L38917 23543
" />
</g>
<g style="fill:#000000; fill-opacity:0.0; 
stroke:#000000; stroke-width:50; stroke-opacity:1; 
stroke-linecap:round; stroke-linejoin:round;">
<path d="M17933 24093
L17933 23465
" />
<path d="M19073 23465
L19073 24093
" />
<path d="M19191 22894
L17815 22894
" />
<path d="M17815 22894
L17815 24664
" />
<path d="M17815 24664
L19191 24664
" />
<path d="M19191 24664
L19191 22894
" />
</g>
<g style="fill:#000000; fill-opacity:0.0; 
stroke:#000000; stroke-width:196.85; stroke-opacity:1; 
stroke-linecap:round; stroke-linejoin:round;">
<circle cx="19339.9" cy="24533.5" r="4.24252" /> 
</g>
<g style="fill:#000000; fill-opacity:0.0; 
stroke:#000000; stroke-width:50; stroke-opacity:1; 
stroke-linecap:round; stroke-linejoin:round;">
<path d="M20550 23445
L19370 23445
" />
<path d="M19370 23445
L19370 24035
" />
<path d="M19370 24035
L20550 24035
" />
<path d="M20550 24035
L20550 23445
" />
</g>
<g style="fill:#000000; fill-opacity:0.0; 
stroke:#000000; stroke-width:19; stroke-opacity:1; 
stroke-linecap:round; stroke-linejoin:round;">
<circle cx="19370.6" cy="24035.2" r="12.728" /> 
</g>
<g style="fill:#000000; fill-opacity:0.0; 
stroke:#000000; stroke-width:669; stroke-opacity:1; 
stroke-linecap:round; stroke-linejoin:round;">
<path d="M29725 33324
L30434 33324
" />
<path d="M29725 34324
L30434 34324
" />
<path d="M29725 32324
L30434 32324
" />
<path d="M27625 37774
L28334 37774
" />
<path d="M27625 38774
L28334 38774
" />
<path d="M27625 36774
L28334 36774
" />
<path d="M49960 39606
L49251 39606
" />
<path d="M49960 38606
L49251 38606
" />
<path d="M49960 40606
L49251 40606
" />
</g>
<g style="fill:#000000; fill-opacity:1.0; 
stroke:#000000; stroke-width:0; stroke-opacity:1; 
stroke-linecap:round; stroke-linejoin:round;">
<circle cx="28363.9" cy="33724.4" r="393.5" /> 
</g>
<g style="fill:#000000; fill-opacity:1.0; 
stroke:#000000; stroke-width:39.3701; stroke-opacity:1; 
stroke-linecap:round; stroke-linejoin:round;">
</g>
<g style="fill:#000000; fill-opacity:1.0; 
stroke:#000000; stroke-width:0; stroke-opacity:1; 
stroke-linecap:round; stroke-linejoin:round;">
<circle cx="26394.9" cy="33724.4" r="393.5" /> 
</g>
<g style="fill:#000000; fill-opacity:1.0; 
stroke:#000000; stroke-width:39.3701; stroke-opacity:1; 
stroke-linecap:round; stroke-linejoin:round;">
</g>
<g style="fill:#000000; fill-opacity:1.0; 
stroke:#000000; stroke-width:0; stroke-opacity:1; 
stroke-linecap:round; stroke-linejoin:round;">
<circle cx="13307.1" cy="32401.6" r="157.48" /> 
</g>
<g style="fill:#000000; fill-opacity:1.0; 
stroke:#000000; stroke-width:39.3701; stroke-opacity:1; 
stroke-linecap:round; stroke-linejoin:round;">
</g>
<g style="fill:#000000; fill-opacity:1.0; 
stroke:#000000; stroke-width:0; stroke-opacity:1; 
stroke-linecap:round; stroke-linejoin:round;">
<circle cx="14015.7" cy="32401.6" r="157.48" /> 
</g>
<g style="fill:#000000; fill-opacity:1.0; 
stroke:#000000; stroke-width:39.3701; stroke-opacity:1; 
stroke-linecap:round; stroke-linejoin:round;">
</g> 
</svg>
