<?xml version="1.0" standalone="no"?>
 <!DOCTYPE svg PUBLIC "-//W3C//DTD SVG 1.1//EN" 
 "http://www.w3.org/Graphics/SVG/1.1/DTD/svg11.dtd"> 
<svg xmlns="http://www.w3.org/2000/svg" version="1.1" 
    width="27.94cm" height="21.59cm" viewBox="0 0 110000 85000 ">
<title>SVG Picture created as dropbot_control_board-F.Paste.svg date 2017/04/25 14:37:54 </title>
  <desc>Picture generated by PCBNEW </desc>
<g style="fill:#000000; fill-opacity:1;stroke:#000000; stroke-opacity:1;
stroke-linecap:round; stroke-linejoin:round; "
 transform="translate(0 0) scale(1 1)">
</g>
<g style="fill:#000000; fill-opacity:0.0; 
stroke:#000000; stroke-width:-0.000393701; stroke-opacity:1; 
stroke-linecap:round; stroke-linejoin:round;">
</g>
<g style="fill:#000000; fill-opacity:0.0; 
stroke:#000000; stroke-width:39.3701; stroke-opacity:1; 
stroke-linecap:round; stroke-linejoin:round;">
</g>
<g style="fill:#000000; fill-opacity:0.0; 
stroke:#000000; stroke-width:59.0551; stroke-opacity:1; 
stroke-linecap:round; stroke-linejoin:round;">
<rect x="62755.9" y="67677.2" width="42519.7" height="12598.4" rx="0" />
</g>
<g style="fill:#000000; fill-opacity:0.0; 
stroke:#000000; stroke-width:39.3701; stroke-opacity:1; 
stroke-linecap:round; stroke-linejoin:round;">
</g>
<g style="fill:#000000; fill-opacity:0.0; 
stroke:#000000; stroke-width:59.0551; stroke-opacity:1; 
stroke-linecap:round; stroke-linejoin:round;">
<rect x="3937.01" y="3937.01" width="102126" height="77126" rx="0" />
</g>
<g style="fill:#000000; fill-opacity:0.0; 
stroke:#000000; stroke-width:39.3701; stroke-opacity:1; 
stroke-linecap:round; stroke-linejoin:round;">
</g>
<g style="fill:#000000; fill-opacity:0.0; 
stroke:#000000; stroke-width:59.0551; stroke-opacity:1; 
stroke-linecap:round; stroke-linejoin:round;">
<rect x="4724.41" y="4724.41" width="100551" height="75551.2" rx="0" />
</g>
<g style="fill:#000000; fill-opacity:0.0; 
stroke:#000000; stroke-width:39.3701; stroke-opacity:1; 
stroke-linecap:round; stroke-linejoin:round;">
</g>
<g style="fill:#000000; fill-opacity:0.0; 
stroke:#000000; stroke-width:59.0551; stroke-opacity:1; 
stroke-linecap:round; stroke-linejoin:round;">
<path d="M23622 4724
L23622 3937
" />
</g>
<g style="fill:#000000; fill-opacity:0.0; 
stroke:#000000; stroke-width:39.3701; stroke-opacity:1; 
stroke-linecap:round; stroke-linejoin:round;">
</g>
<g style="fill:#000000; fill-opacity:0.0; 
stroke:#000000; stroke-width:59.0551; stroke-opacity:1; 
stroke-linecap:round; stroke-linejoin:round;">
<path d="M43307 4724
L43307 3937
" />
</g>
<g style="fill:#000000; fill-opacity:0.0; 
stroke:#000000; stroke-width:39.3701; stroke-opacity:1; 
stroke-linecap:round; stroke-linejoin:round;">
</g>
<g style="fill:#000000; fill-opacity:0.0; 
stroke:#000000; stroke-width:59.0551; stroke-opacity:1; 
stroke-linecap:round; stroke-linejoin:round;">
<path d="M62992 4724
L62992 3937
" />
</g>
<g style="fill:#000000; fill-opacity:0.0; 
stroke:#000000; stroke-width:39.3701; stroke-opacity:1; 
stroke-linecap:round; stroke-linejoin:round;">
</g>
<g style="fill:#000000; fill-opacity:0.0; 
stroke:#000000; stroke-width:59.0551; stroke-opacity:1; 
stroke-linecap:round; stroke-linejoin:round;">
<path d="M82677 4724
L82677 3937
" />
</g>
<g style="fill:#000000; fill-opacity:0.0; 
stroke:#000000; stroke-width:39.3701; stroke-opacity:1; 
stroke-linecap:round; stroke-linejoin:round;">
</g>
<g style="fill:#000000; fill-opacity:0.0; 
stroke:#000000; stroke-width:59.0551; stroke-opacity:1; 
stroke-linecap:round; stroke-linejoin:round;">
<path d="M102362 4724
L102362 3937
" />
</g>
<g style="fill:#000000; fill-opacity:0.0; 
stroke:#000000; stroke-width:39.3701; stroke-opacity:1; 
stroke-linecap:round; stroke-linejoin:round;">
</g>
<g style="fill:#000000; fill-opacity:0.0; 
stroke:#000000; stroke-width:59.0551; stroke-opacity:1; 
stroke-linecap:round; stroke-linejoin:round;">
<path d="M14169 4562
L13877 4562
" />
<path d="M14023 4562
L14023 4050
L13974 4123
L13925 4172
L13877 4196
" />
</g>
<g style="fill:#000000; fill-opacity:0.0; 
stroke:#000000; stroke-width:39.3701; stroke-opacity:1; 
stroke-linecap:round; stroke-linejoin:round;">
</g>
<g style="fill:#000000; fill-opacity:0.0; 
stroke:#000000; stroke-width:59.0551; stroke-opacity:1; 
stroke-linecap:round; stroke-linejoin:round;">
<path d="M33562 4099
L33586 4074
L33635 4050
L33757 4050
L33805 4074
L33830 4099
L33854 4147
L33854 4196
L33830 4269
L33537 4562
L33854 4562
" />
</g>
<g style="fill:#000000; fill-opacity:0.0; 
stroke:#000000; stroke-width:39.3701; stroke-opacity:1; 
stroke-linecap:round; stroke-linejoin:round;">
</g>
<g style="fill:#000000; fill-opacity:0.0; 
stroke:#000000; stroke-width:59.0551; stroke-opacity:1; 
stroke-linecap:round; stroke-linejoin:round;">
<path d="M53222 4050
L53539 4050
L53368 4245
L53442 4245
L53490 4269
L53515 4294
L53539 4342
L53539 4464
L53515 4513
L53490 4537
L53442 4562
L53295 4562
L53247 4537
L53222 4513
" />
</g>
<g style="fill:#000000; fill-opacity:0.0; 
stroke:#000000; stroke-width:39.3701; stroke-opacity:1; 
stroke-linecap:round; stroke-linejoin:round;">
</g>
<g style="fill:#000000; fill-opacity:0.0; 
stroke:#000000; stroke-width:59.0551; stroke-opacity:1; 
stroke-linecap:round; stroke-linejoin:round;">
<path d="M73175 4221
L73175 4562
" />
<path d="M73053 4026
L72932 4391
L73248 4391
" />
</g>
<g style="fill:#000000; fill-opacity:0.0; 
stroke:#000000; stroke-width:39.3701; stroke-opacity:1; 
stroke-linecap:round; stroke-linejoin:round;">
</g>
<g style="fill:#000000; fill-opacity:0.0; 
stroke:#000000; stroke-width:59.0551; stroke-opacity:1; 
stroke-linecap:round; stroke-linejoin:round;">
<path d="M92885 4050
L92641 4050
L92617 4294
L92641 4269
L92690 4245
L92812 4245
L92860 4269
L92885 4294
L92909 4342
L92909 4464
L92885 4513
L92860 4537
L92812 4562
L92690 4562
L92641 4537
L92617 4513
" />
</g>
<g style="fill:#000000; fill-opacity:0.0; 
stroke:#000000; stroke-width:39.3701; stroke-opacity:1; 
stroke-linecap:round; stroke-linejoin:round;">
</g>
<g style="fill:#000000; fill-opacity:0.0; 
stroke:#000000; stroke-width:59.0551; stroke-opacity:1; 
stroke-linecap:round; stroke-linejoin:round;">
<path d="M23622 80275
L23622 81062
" />
</g>
<g style="fill:#000000; fill-opacity:0.0; 
stroke:#000000; stroke-width:39.3701; stroke-opacity:1; 
stroke-linecap:round; stroke-linejoin:round;">
</g>
<g style="fill:#000000; fill-opacity:0.0; 
stroke:#000000; stroke-width:59.0551; stroke-opacity:1; 
stroke-linecap:round; stroke-linejoin:round;">
<path d="M43307 80275
L43307 81062
" />
</g>
<g style="fill:#000000; fill-opacity:0.0; 
stroke:#000000; stroke-width:39.3701; stroke-opacity:1; 
stroke-linecap:round; stroke-linejoin:round;">
</g>
<g style="fill:#000000; fill-opacity:0.0; 
stroke:#000000; stroke-width:59.0551; stroke-opacity:1; 
stroke-linecap:round; stroke-linejoin:round;">
<path d="M62992 80275
L62992 81062
" />
</g>
<g style="fill:#000000; fill-opacity:0.0; 
stroke:#000000; stroke-width:39.3701; stroke-opacity:1; 
stroke-linecap:round; stroke-linejoin:round;">
</g>
<g style="fill:#000000; fill-opacity:0.0; 
stroke:#000000; stroke-width:59.0551; stroke-opacity:1; 
stroke-linecap:round; stroke-linejoin:round;">
<path d="M82677 80275
L82677 81062
" />
</g>
<g style="fill:#000000; fill-opacity:0.0; 
stroke:#000000; stroke-width:39.3701; stroke-opacity:1; 
stroke-linecap:round; stroke-linejoin:round;">
</g>
<g style="fill:#000000; fill-opacity:0.0; 
stroke:#000000; stroke-width:59.0551; stroke-opacity:1; 
stroke-linecap:round; stroke-linejoin:round;">
<path d="M102362 80275
L102362 81062
" />
</g>
<g style="fill:#000000; fill-opacity:0.0; 
stroke:#000000; stroke-width:39.3701; stroke-opacity:1; 
stroke-linecap:round; stroke-linejoin:round;">
</g>
<g style="fill:#000000; fill-opacity:0.0; 
stroke:#000000; stroke-width:59.0551; stroke-opacity:1; 
stroke-linecap:round; stroke-linejoin:round;">
<path d="M14169 80900
L13877 80900
" />
<path d="M14023 80900
L14023 80389
L13974 80462
L13925 80510
L13877 80535
" />
</g>
<g style="fill:#000000; fill-opacity:0.0; 
stroke:#000000; stroke-width:39.3701; stroke-opacity:1; 
stroke-linecap:round; stroke-linejoin:round;">
</g>
<g style="fill:#000000; fill-opacity:0.0; 
stroke:#000000; stroke-width:59.0551; stroke-opacity:1; 
stroke-linecap:round; stroke-linejoin:round;">
<path d="M33562 80437
L33586 80413
L33635 80389
L33757 80389
L33805 80413
L33830 80437
L33854 80486
L33854 80535
L33830 80608
L33537 80900
L33854 80900
" />
</g>
<g style="fill:#000000; fill-opacity:0.0; 
stroke:#000000; stroke-width:39.3701; stroke-opacity:1; 
stroke-linecap:round; stroke-linejoin:round;">
</g>
<g style="fill:#000000; fill-opacity:0.0; 
stroke:#000000; stroke-width:59.0551; stroke-opacity:1; 
stroke-linecap:round; stroke-linejoin:round;">
<path d="M53222 80389
L53539 80389
L53368 80583
L53442 80583
L53490 80608
L53515 80632
L53539 80681
L53539 80803
L53515 80852
L53490 80876
L53442 80900
L53295 80900
L53247 80876
L53222 80852
" />
</g>
<g style="fill:#000000; fill-opacity:0.0; 
stroke:#000000; stroke-width:39.3701; stroke-opacity:1; 
stroke-linecap:round; stroke-linejoin:round;">
</g>
<g style="fill:#000000; fill-opacity:0.0; 
stroke:#000000; stroke-width:59.0551; stroke-opacity:1; 
stroke-linecap:round; stroke-linejoin:round;">
<path d="M73175 80559
L73175 80900
" />
<path d="M73053 80364
L72932 80730
L73248 80730
" />
</g>
<g style="fill:#000000; fill-opacity:0.0; 
stroke:#000000; stroke-width:39.3701; stroke-opacity:1; 
stroke-linecap:round; stroke-linejoin:round;">
</g>
<g style="fill:#000000; fill-opacity:0.0; 
stroke:#000000; stroke-width:59.0551; stroke-opacity:1; 
stroke-linecap:round; stroke-linejoin:round;">
<path d="M92885 80389
L92641 80389
L92617 80632
L92641 80608
L92690 80583
L92812 80583
L92860 80608
L92885 80632
L92909 80681
L92909 80803
L92885 80852
L92860 80876
L92812 80900
L92690 80900
L92641 80876
L92617 80852
" />
</g>
<g style="fill:#000000; fill-opacity:0.0; 
stroke:#000000; stroke-width:39.3701; stroke-opacity:1; 
stroke-linecap:round; stroke-linejoin:round;">
</g>
<g style="fill:#000000; fill-opacity:0.0; 
stroke:#000000; stroke-width:59.0551; stroke-opacity:1; 
stroke-linecap:round; stroke-linejoin:round;">
<path d="M3937 23622
L4724 23622
" />
</g>
<g style="fill:#000000; fill-opacity:0.0; 
stroke:#000000; stroke-width:39.3701; stroke-opacity:1; 
stroke-linecap:round; stroke-linejoin:round;">
</g>
<g style="fill:#000000; fill-opacity:0.0; 
stroke:#000000; stroke-width:59.0551; stroke-opacity:1; 
stroke-linecap:round; stroke-linejoin:round;">
<path d="M3937 43307
L4724 43307
" />
</g>
<g style="fill:#000000; fill-opacity:0.0; 
stroke:#000000; stroke-width:39.3701; stroke-opacity:1; 
stroke-linecap:round; stroke-linejoin:round;">
</g>
<g style="fill:#000000; fill-opacity:0.0; 
stroke:#000000; stroke-width:59.0551; stroke-opacity:1; 
stroke-linecap:round; stroke-linejoin:round;">
<path d="M3937 62992
L4724 62992
" />
</g>
<g style="fill:#000000; fill-opacity:0.0; 
stroke:#000000; stroke-width:39.3701; stroke-opacity:1; 
stroke-linecap:round; stroke-linejoin:round;">
</g>
<g style="fill:#000000; fill-opacity:0.0; 
stroke:#000000; stroke-width:59.0551; stroke-opacity:1; 
stroke-linecap:round; stroke-linejoin:round;">
<path d="M4208 13864
L4452 13864
" />
<path d="M4160 14011
L4330 13499
L4501 14011
" />
</g>
<g style="fill:#000000; fill-opacity:0.0; 
stroke:#000000; stroke-width:39.3701; stroke-opacity:1; 
stroke-linecap:round; stroke-linejoin:round;">
</g>
<g style="fill:#000000; fill-opacity:0.0; 
stroke:#000000; stroke-width:59.0551; stroke-opacity:1; 
stroke-linecap:round; stroke-linejoin:round;">
<path d="M4367 33428
L4440 33452
L4464 33476
L4489 33525
L4489 33598
L4464 33647
L4440 33671
L4391 33696
L4196 33696
L4196 33184
L4367 33184
L4416 33208
L4440 33233
L4464 33281
L4464 33330
L4440 33379
L4416 33403
L4367 33428
L4196 33428
" />
</g>
<g style="fill:#000000; fill-opacity:0.0; 
stroke:#000000; stroke-width:39.3701; stroke-opacity:1; 
stroke-linecap:round; stroke-linejoin:round;">
</g>
<g style="fill:#000000; fill-opacity:0.0; 
stroke:#000000; stroke-width:59.0551; stroke-opacity:1; 
stroke-linecap:round; stroke-linejoin:round;">
<path d="M4489 53332
L4464 53356
L4391 53381
L4342 53381
L4269 53356
L4221 53308
L4196 53259
L4172 53161
L4172 53088
L4196 52991
L4221 52942
L4269 52893
L4342 52869
L4391 52869
L4464 52893
L4489 52918
" />
</g>
<g style="fill:#000000; fill-opacity:0.0; 
stroke:#000000; stroke-width:39.3701; stroke-opacity:1; 
stroke-linecap:round; stroke-linejoin:round;">
</g>
<g style="fill:#000000; fill-opacity:0.0; 
stroke:#000000; stroke-width:59.0551; stroke-opacity:1; 
stroke-linecap:round; stroke-linejoin:round;">
<path d="M4196 73066
L4196 72554
L4318 72554
L4391 72578
L4440 72627
L4464 72676
L4489 72773
L4489 72846
L4464 72944
L4440 72993
L4391 73041
L4318 73066
L4196 73066
" />
</g>
<g style="fill:#000000; fill-opacity:0.0; 
stroke:#000000; stroke-width:39.3701; stroke-opacity:1; 
stroke-linecap:round; stroke-linejoin:round;">
</g>
<g style="fill:#000000; fill-opacity:0.0; 
stroke:#000000; stroke-width:59.0551; stroke-opacity:1; 
stroke-linecap:round; stroke-linejoin:round;">
<path d="M106062 23622
L105275 23622
" />
</g>
<g style="fill:#000000; fill-opacity:0.0; 
stroke:#000000; stroke-width:39.3701; stroke-opacity:1; 
stroke-linecap:round; stroke-linejoin:round;">
</g>
<g style="fill:#000000; fill-opacity:0.0; 
stroke:#000000; stroke-width:59.0551; stroke-opacity:1; 
stroke-linecap:round; stroke-linejoin:round;">
<path d="M106062 43307
L105275 43307
" />
</g>
<g style="fill:#000000; fill-opacity:0.0; 
stroke:#000000; stroke-width:39.3701; stroke-opacity:1; 
stroke-linecap:round; stroke-linejoin:round;">
</g>
<g style="fill:#000000; fill-opacity:0.0; 
stroke:#000000; stroke-width:59.0551; stroke-opacity:1; 
stroke-linecap:round; stroke-linejoin:round;">
<path d="M106062 62992
L105275 62992
" />
</g>
<g style="fill:#000000; fill-opacity:0.0; 
stroke:#000000; stroke-width:39.3701; stroke-opacity:1; 
stroke-linecap:round; stroke-linejoin:round;">
</g>
<g style="fill:#000000; fill-opacity:0.0; 
stroke:#000000; stroke-width:59.0551; stroke-opacity:1; 
stroke-linecap:round; stroke-linejoin:round;">
<path d="M105547 13864
L105791 13864
" />
<path d="M105498 14011
L105669 13499
L105839 14011
" />
</g>
<g style="fill:#000000; fill-opacity:0.0; 
stroke:#000000; stroke-width:39.3701; stroke-opacity:1; 
stroke-linecap:round; stroke-linejoin:round;">
</g>
<g style="fill:#000000; fill-opacity:0.0; 
stroke:#000000; stroke-width:59.0551; stroke-opacity:1; 
stroke-linecap:round; stroke-linejoin:round;">
<path d="M105705 33428
L105778 33452
L105803 33476
L105827 33525
L105827 33598
L105803 33647
L105778 33671
L105730 33696
L105535 33696
L105535 33184
L105705 33184
L105754 33208
L105778 33233
L105803 33281
L105803 33330
L105778 33379
L105754 33403
L105705 33428
L105535 33428
" />
</g>
<g style="fill:#000000; fill-opacity:0.0; 
stroke:#000000; stroke-width:39.3701; stroke-opacity:1; 
stroke-linecap:round; stroke-linejoin:round;">
</g>
<g style="fill:#000000; fill-opacity:0.0; 
stroke:#000000; stroke-width:59.0551; stroke-opacity:1; 
stroke-linecap:round; stroke-linejoin:round;">
<path d="M105827 53332
L105803 53356
L105730 53381
L105681 53381
L105608 53356
L105559 53308
L105535 53259
L105510 53161
L105510 53088
L105535 52991
L105559 52942
L105608 52893
L105681 52869
L105730 52869
L105803 52893
L105827 52918
" />
</g>
<g style="fill:#000000; fill-opacity:0.0; 
stroke:#000000; stroke-width:39.3701; stroke-opacity:1; 
stroke-linecap:round; stroke-linejoin:round;">
</g>
<g style="fill:#000000; fill-opacity:0.0; 
stroke:#000000; stroke-width:59.0551; stroke-opacity:1; 
stroke-linecap:round; stroke-linejoin:round;">
<path d="M105535 73066
L105535 72554
L105657 72554
L105730 72578
L105778 72627
L105803 72676
L105827 72773
L105827 72846
L105803 72944
L105778 72993
L105730 73041
L105657 73066
L105535 73066
" />
</g>
<g style="fill:#000000; fill-opacity:0.0; 
stroke:#000000; stroke-width:39.3701; stroke-opacity:1; 
stroke-linecap:round; stroke-linejoin:round;">
</g>
<g style="fill:#000000; fill-opacity:0.0; 
stroke:#000000; stroke-width:59.0551; stroke-opacity:1; 
stroke-linecap:round; stroke-linejoin:round;">
<path d="M71951 78613
L71951 78023
L72092 78023
L72176 78051
L72232 78107
L72260 78163
L72289 78276
L72289 78360
L72260 78473
L72232 78529
L72176 78585
L72092 78613
L71951 78613
" />
<path d="M72795 78613
L72795 78304
L72767 78248
L72710 78219
L72598 78219
L72542 78248
" />
<path d="M72795 78585
L72739 78613
L72598 78613
L72542 78585
L72514 78529
L72514 78473
L72542 78416
L72598 78388
L72739 78388
L72795 78360
" />
<path d="M72992 78219
L73217 78219
" />
<path d="M73076 78023
L73076 78529
L73104 78585
L73160 78613
L73217 78613
" />
<path d="M73638 78585
L73582 78613
L73470 78613
L73413 78585
L73385 78529
L73385 78304
L73413 78248
L73470 78219
L73582 78219
L73638 78248
L73667 78304
L73667 78360
L73385 78416
" />
<path d="M73920 78557
L73948 78585
L73920 78613
L73892 78585
L73920 78557
L73920 78613
" />
<path d="M73920 78248
L73948 78276
L73920 78304
L73892 78276
L73920 78248
L73920 78304
" />
<path d="M74623 78079
L74651 78051
L74707 78023
L74848 78023
L74904 78051
L74932 78079
L74960 78135
L74960 78191
L74932 78276
L74595 78613
L74960 78613
" />
<path d="M75326 78023
L75382 78023
L75438 78051
L75466 78079
L75494 78135
L75523 78248
L75523 78388
L75494 78501
L75466 78557
L75438 78585
L75382 78613
L75326 78613
L75269 78585
L75241 78557
L75213 78501
L75185 78388
L75185 78248
L75213 78135
L75241 78079
L75269 78051
L75326 78023
" />
<path d="M76085 78613
L75748 78613
" />
<path d="M75916 78613
L75916 78023
L75860 78107
L75804 78163
L75748 78191
" />
<path d="M76282 78023
L76676 78023
L76422 78613
" />
<path d="M76901 78388
L77350 78388
" />
<path d="M77744 78023
L77800 78023
L77857 78051
L77885 78079
L77913 78135
L77941 78248
L77941 78388
L77913 78501
L77885 78557
L77857 78585
L77800 78613
L77744 78613
L77688 78585
L77660 78557
L77632 78501
L77604 78388
L77604 78248
L77632 78135
L77660 78079
L77688 78051
L77744 78023
" />
<path d="M78447 78219
L78447 78613
" />
<path d="M78307 77994
L78166 78416
L78532 78416
" />
<path d="M78757 78388
L79206 78388
" />
<path d="M79460 78079
L79488 78051
L79544 78023
L79685 78023
L79741 78051
L79769 78079
L79797 78135
L79797 78191
L79769 78276
L79431 78613
L79797 78613
" />
<path d="M80331 78023
L80050 78023
L80022 78304
L80050 78276
L80106 78248
L80247 78248
L80303 78276
L80331 78304
L80359 78360
L80359 78501
L80331 78557
L80303 78585
L80247 78613
L80106 78613
L80050 78585
L80022 78557
" />
</g>
<g style="fill:#000000; fill-opacity:0.0; 
stroke:#000000; stroke-width:39.3701; stroke-opacity:1; 
stroke-linecap:round; stroke-linejoin:round;">
</g>
<g style="fill:#000000; fill-opacity:0.0; 
stroke:#000000; stroke-width:59.0551; stroke-opacity:1; 
stroke-linecap:round; stroke-linejoin:round;">
<path d="M62755 78897
L105275 78897
" />
</g>
<g style="fill:#000000; fill-opacity:0.0; 
stroke:#000000; stroke-width:39.3701; stroke-opacity:1; 
stroke-linecap:round; stroke-linejoin:round;">
</g>
<g style="fill:#000000; fill-opacity:0.0; 
stroke:#000000; stroke-width:59.0551; stroke-opacity:1; 
stroke-linecap:round; stroke-linejoin:round;">
<path d="M63290 79715
L63290 79125
" />
<path d="M63627 79715
L63374 79378
" />
<path d="M63627 79125
L63290 79462
" />
<path d="M63880 79715
L63880 79322
" />
<path d="M63880 79125
L63852 79153
L63880 79181
L63908 79153
L63880 79125
L63880 79181
" />
<path d="M64499 79659
L64471 79687
L64386 79715
L64330 79715
L64246 79687
L64190 79631
L64161 79575
L64133 79462
L64133 79378
L64161 79266
L64190 79209
L64246 79153
L64330 79125
L64386 79125
L64471 79153
L64499 79181
" />
<path d="M65005 79715
L65005 79406
L64977 79350
L64921 79322
L64808 79322
L64752 79350
" />
<path d="M65005 79687
L64949 79715
L64808 79715
L64752 79687
L64724 79631
L64724 79575
L64752 79519
L64808 79491
L64949 79491
L65005 79462
" />
<path d="M65539 79715
L65539 79125
" />
<path d="M65539 79687
L65483 79715
L65371 79715
L65314 79687
L65286 79659
L65258 79603
L65258 79434
L65286 79378
L65314 79350
L65371 79322
L65483 79322
L65539 79350
" />
<path d="M66271 79406
L66467 79406
" />
<path d="M66552 79715
L66271 79715
L66271 79125
L66552 79125
" />
<path d="M66805 79659
L66833 79687
L66805 79715
L66777 79687
L66805 79659
L66805 79715
" />
<path d="M67086 79715
L67086 79125
L67227 79125
L67311 79153
L67367 79209
L67395 79266
L67424 79378
L67424 79462
L67395 79575
L67367 79631
L67311 79687
L67227 79715
L67086 79715
" />
<path d="M67677 79659
L67705 79687
L67677 79715
L67649 79687
L67677 79659
L67677 79715
" />
<path d="M67930 79547
L68211 79547
" />
<path d="M67874 79715
L68070 79125
L68267 79715
" />
<path d="M68464 79659
L68492 79687
L68464 79715
L68436 79687
L68464 79659
L68464 79715
" />
<path d="M69645 79715
L69645 79125
" />
<path d="M69701 79491
L69870 79715
" />
<path d="M69870 79322
L69645 79547
" />
<path d="M70123 79715
L70123 79322
" />
<path d="M70123 79125
L70095 79153
L70123 79181
L70151 79153
L70123 79125
L70123 79181
" />
<path d="M70658 79687
L70601 79715
L70489 79715
L70433 79687
L70404 79659
L70376 79603
L70376 79434
L70404 79378
L70433 79350
L70489 79322
L70601 79322
L70658 79350
" />
<path d="M71164 79715
L71164 79406
L71136 79350
L71079 79322
L70967 79322
L70911 79350
" />
<path d="M71164 79687
L71107 79715
L70967 79715
L70911 79687
L70883 79631
L70883 79575
L70911 79519
L70967 79491
L71107 79491
L71164 79462
" />
<path d="M71698 79715
L71698 79125
" />
<path d="M71698 79687
L71642 79715
L71529 79715
L71473 79687
L71445 79659
L71417 79603
L71417 79434
L71445 79378
L71473 79350
L71529 79322
L71642 79322
L71698 79350
" />
<path d="M72682 79322
L72682 79715
" />
<path d="M72542 79097
L72401 79519
L72767 79519
" />
<path d="M72992 79659
L73020 79687
L72992 79715
L72964 79687
L72992 79659
L72992 79715
" />
<path d="M73385 79125
L73442 79125
L73498 79153
L73526 79181
L73554 79237
L73582 79350
L73582 79491
L73554 79603
L73526 79659
L73498 79687
L73442 79715
L73385 79715
L73329 79687
L73301 79659
L73273 79603
L73245 79491
L73245 79350
L73273 79237
L73301 79181
L73329 79153
L73385 79125
" />
<path d="M73835 79659
L73863 79687
L73835 79715
L73807 79687
L73835 79659
L73835 79715
" />
<path d="M74426 79715
L74088 79715
" />
<path d="M74257 79715
L74257 79125
L74201 79209
L74145 79266
L74088 79294
" />
<path d="M74679 79491
L75129 79491
" />
<path d="M75382 79687
L75438 79715
L75551 79715
L75607 79687
L75635 79631
L75635 79603
L75607 79547
L75551 79519
L75466 79519
L75410 79491
L75382 79434
L75382 79406
L75410 79350
L75466 79322
L75551 79322
L75607 79350
" />
<path d="M75804 79322
L76029 79322
" />
<path d="M75888 79125
L75888 79631
L75916 79687
L75973 79715
L76029 79715
" />
<path d="M76479 79715
L76479 79406
L76451 79350
L76394 79322
L76282 79322
L76226 79350
" />
<path d="M76479 79687
L76422 79715
L76282 79715
L76226 79687
L76197 79631
L76197 79575
L76226 79519
L76282 79491
L76422 79491
L76479 79462
" />
<path d="M76760 79715
L76760 79125
" />
<path d="M76760 79350
L76816 79322
L76929 79322
L76985 79350
L77013 79378
L77041 79434
L77041 79603
L77013 79659
L76985 79687
L76929 79715
L76816 79715
L76760 79687
" />
<path d="M77379 79715
L77322 79687
L77294 79631
L77294 79125
" />
<path d="M77829 79687
L77772 79715
L77660 79715
L77604 79687
L77575 79631
L77575 79406
L77604 79350
L77660 79322
L77772 79322
L77829 79350
L77857 79406
L77857 79462
L77575 79519
" />
</g>
<g style="fill:#000000; fill-opacity:0.0; 
stroke:#000000; stroke-width:39.3701; stroke-opacity:1; 
stroke-linecap:round; stroke-linejoin:round;">
</g>
<g style="fill:#000000; fill-opacity:0.0; 
stroke:#000000; stroke-width:59.0551; stroke-opacity:1; 
stroke-linecap:round; stroke-linejoin:round;">
<path d="M62755 77716
L105275 77716
" />
</g>
<g style="fill:#000000; fill-opacity:0.0; 
stroke:#000000; stroke-width:39.3701; stroke-opacity:1; 
stroke-linecap:round; stroke-linejoin:round;">
</g>
<g style="fill:#000000; fill-opacity:0.0; 
stroke:#000000; stroke-width:118.11; stroke-opacity:1; 
stroke-linecap:round; stroke-linejoin:round;">
<path d="M97092 78613
L96895 78332
" />
<path d="M96754 78613
L96754 78023
L96979 78023
L97035 78051
L97064 78079
L97092 78135
L97092 78219
L97064 78276
L97035 78304
L96979 78332
L96754 78332
" />
<path d="M97570 78585
L97514 78613
L97401 78613
L97345 78585
L97317 78529
L97317 78304
L97345 78248
L97401 78219
L97514 78219
L97570 78248
L97598 78304
L97598 78360
L97317 78416
" />
<path d="M97795 78219
L97935 78613
L98076 78219
" />
<path d="M98301 78557
L98329 78585
L98301 78613
L98273 78585
L98301 78557
L98301 78613
" />
<path d="M98301 78248
L98329 78276
L98301 78304
L98273 78276
L98301 78248
L98301 78304
" />
<path d="M98976 78219
L99116 78613
L99257 78219
" />
<path d="M99426 78023
L99791 78023
L99595 78248
L99679 78248
L99735 78276
L99763 78304
L99791 78360
L99791 78501
L99763 78557
L99735 78585
L99679 78613
L99510 78613
L99454 78585
L99426 78557
" />
<path d="M100044 78557
L100073 78585
L100044 78613
L100016 78585
L100044 78557
L100044 78613
" />
<path d="M100579 78219
L100579 78613
" />
<path d="M100438 77994
L100298 78416
L100663 78416
" />
</g>
<g style="fill:#000000; fill-opacity:0.0; 
stroke:#000000; stroke-width:39.3701; stroke-opacity:1; 
stroke-linecap:round; stroke-linejoin:round;">
</g>
<g style="fill:#000000; fill-opacity:0.0; 
stroke:#000000; stroke-width:59.0551; stroke-opacity:1; 
stroke-linecap:round; stroke-linejoin:round;">
<path d="M63262 78585
L63346 78613
L63487 78613
L63543 78585
L63571 78557
L63599 78501
L63599 78444
L63571 78388
L63543 78360
L63487 78332
L63374 78304
L63318 78276
L63290 78248
L63262 78191
L63262 78135
L63290 78079
L63318 78051
L63374 78023
L63515 78023
L63599 78051
" />
<path d="M63852 78613
L63852 78219
" />
<path d="M63852 78023
L63824 78051
L63852 78079
L63880 78051
L63852 78023
L63852 78079
" />
<path d="M64077 78219
L64386 78219
L64077 78613
L64386 78613
" />
<path d="M64836 78585
L64780 78613
L64668 78613
L64611 78585
L64583 78529
L64583 78304
L64611 78248
L64668 78219
L64780 78219
L64836 78248
L64865 78304
L64865 78360
L64583 78416
" />
<path d="M65118 78557
L65146 78585
L65118 78613
L65089 78585
L65118 78557
L65118 78613
" />
<path d="M65118 78248
L65146 78276
L65118 78304
L65089 78276
L65118 78248
L65118 78304
" />
<path d="M65849 78023
L65849 78501
L65877 78557
L65905 78585
L65961 78613
L66074 78613
L66130 78585
L66158 78557
L66186 78501
L66186 78023
" />
<path d="M66439 78585
L66524 78613
L66664 78613
L66721 78585
L66749 78557
L66777 78501
L66777 78444
L66749 78388
L66721 78360
L66664 78332
L66552 78304
L66496 78276
L66467 78248
L66439 78191
L66439 78135
L66467 78079
L66496 78051
L66552 78023
L66692 78023
L66777 78051
" />
<path d="M67311 78613
L67030 78613
L67030 78023
" />
<path d="M67733 78585
L67677 78613
L67564 78613
L67508 78585
L67480 78529
L67480 78304
L67508 78248
L67564 78219
L67677 78219
L67733 78248
L67761 78304
L67761 78360
L67480 78416
" />
<path d="M67930 78219
L68155 78219
" />
<path d="M68014 78023
L68014 78529
L68042 78585
L68098 78613
L68155 78613
" />
<path d="M68267 78219
L68492 78219
" />
<path d="M68352 78023
L68352 78529
L68380 78585
L68436 78613
L68492 78613
" />
<path d="M68914 78585
L68858 78613
L68745 78613
L68689 78585
L68661 78529
L68661 78304
L68689 78248
L68745 78219
L68858 78219
L68914 78248
L68942 78304
L68942 78360
L68661 78416
" />
<path d="M69195 78613
L69195 78219
" />
<path d="M69195 78332
L69223 78276
L69251 78248
L69308 78219
L69364 78219
" />
</g>
<g style="fill:#000000; fill-opacity:0.0; 
stroke:#000000; stroke-width:39.3701; stroke-opacity:1; 
stroke-linecap:round; stroke-linejoin:round;">
</g>
<g style="fill:#000000; fill-opacity:0.0; 
stroke:#000000; stroke-width:59.0551; stroke-opacity:1; 
stroke-linecap:round; stroke-linejoin:round;">
<path d="M96754 79715
L96754 79125
" />
<path d="M97289 79715
L97289 79125
" />
<path d="M97289 79687
L97232 79715
L97120 79715
L97064 79687
L97035 79659
L97007 79603
L97007 79434
L97035 79378
L97064 79350
L97120 79322
L97232 79322
L97289 79350
" />
<path d="M97570 79659
L97598 79687
L97570 79715
L97542 79687
L97570 79659
L97570 79715
" />
<path d="M97570 79350
L97598 79378
L97570 79406
L97542 79378
L97570 79350
L97570 79406
" />
<path d="M98610 79715
L98273 79715
" />
<path d="M98442 79715
L98442 79125
L98385 79209
L98329 79266
L98273 79294
" />
<path d="M99285 79097
L98779 79856
" />
<path d="M99791 79715
L99454 79715
" />
<path d="M99623 79715
L99623 79125
L99566 79209
L99510 79266
L99454 79294
" />
</g>
<g style="fill:#000000; fill-opacity:0.0; 
stroke:#000000; stroke-width:39.3701; stroke-opacity:1; 
stroke-linecap:round; stroke-linejoin:round;">
</g>
<g style="fill:#000000; fill-opacity:0.0; 
stroke:#000000; stroke-width:59.0551; stroke-opacity:1; 
stroke-linecap:round; stroke-linejoin:round;">
<path d="M62755 76141
L105275 76141
" />
</g>
<g style="fill:#000000; fill-opacity:0.0; 
stroke:#000000; stroke-width:39.3701; stroke-opacity:1; 
stroke-linecap:round; stroke-linejoin:round;">
</g>
<g style="fill:#000000; fill-opacity:0.0; 
stroke:#000000; stroke-width:157.48; stroke-opacity:1; 
stroke-linecap:round; stroke-linejoin:round;">
<path d="M63327 76419
L63777 76419
" />
<path d="M63454 77206
L63552 76419
" />
<path d="M63941 77206
L64007 76681
" />
<path d="M64040 76419
L63997 76456
L64030 76494
L64072 76456
L64040 76419
L64030 76494
" />
<path d="M64269 76681
L64569 76681
" />
<path d="M64415 76419
L64330 77094
L64358 77169
L64429 77206
L64504 77206
" />
<path d="M64879 77206
L64808 77169
L64780 77094
L64865 76419
" />
<path d="M65483 77169
L65404 77206
L65254 77206
L65183 77169
L65155 77094
L65193 76794
L65239 76719
L65319 76681
L65469 76681
L65539 76719
L65568 76794
L65558 76869
L65174 76944
" />
<path d="M65863 77131
L65896 77169
L65853 77206
L65821 77169
L65863 77131
L65853 77206
" />
<path d="M65914 76719
L65947 76756
L65905 76794
L65872 76756
L65914 76719
L65905 76794
" />
<path d="M66828 77206
L66927 76419
L67114 76419
L67222 76456
L67288 76531
L67316 76606
L67335 76756
L67320 76869
L67264 77019
L67217 77094
L67133 77169
L67016 77206
L66828 77206
" />
<path d="M67616 77206
L67681 76681
" />
<path d="M67663 76831
L67709 76756
L67752 76719
L67831 76681
L67906 76681
" />
<path d="M68216 77206
L68145 77169
L68113 77131
L68084 77056
L68113 76831
L68159 76756
L68202 76719
L68281 76681
L68394 76681
L68464 76719
L68497 76756
L68525 76831
L68497 77056
L68450 77131
L68408 77169
L68328 77206
L68216 77206
" />
<path d="M68881 76681
L68783 77469
" />
<path d="M68877 76719
L68956 76681
L69106 76681
L69176 76719
L69209 76756
L69237 76831
L69209 77056
L69162 77131
L69120 77169
L69041 77206
L68891 77206
L68820 77169
" />
<path d="M69842 76794
L69950 76831
L69983 76869
L70011 76944
L69997 77056
L69950 77131
L69908 77169
L69828 77206
L69528 77206
L69626 76419
L69889 76419
L69959 76456
L69992 76494
L70020 76569
L70011 76644
L69964 76719
L69922 76756
L69842 76794
L69580 76794
" />
<path d="M70428 77206
L70358 77169
L70325 77131
L70297 77056
L70325 76831
L70372 76756
L70414 76719
L70494 76681
L70606 76681
L70676 76719
L70709 76756
L70737 76831
L70709 77056
L70662 77131
L70620 77169
L70540 77206
L70428 77206
" />
<path d="M70981 76681
L71281 76681
" />
<path d="M71126 76419
L71042 77094
L71070 77169
L71140 77206
L71215 77206
" />
<path d="M72420 77169
L72340 77206
L72190 77206
L72120 77169
L72087 77131
L72059 77056
L72087 76831
L72134 76756
L72176 76719
L72256 76681
L72406 76681
L72476 76719
" />
<path d="M72865 77206
L72795 77169
L72762 77131
L72734 77056
L72762 76831
L72809 76756
L72851 76719
L72931 76681
L73043 76681
L73113 76719
L73146 76756
L73174 76831
L73146 77056
L73099 77131
L73057 77169
L72978 77206
L72865 77206
" />
<path d="M73531 76681
L73465 77206
" />
<path d="M73521 76756
L73563 76719
L73643 76681
L73756 76681
L73826 76719
L73854 76794
L73802 77206
" />
<path d="M74131 76681
L74431 76681
" />
<path d="M74276 76419
L74191 77094
L74220 77169
L74290 77206
L74365 77206
" />
<path d="M74627 77206
L74693 76681
" />
<path d="M74674 76831
L74721 76756
L74763 76719
L74843 76681
L74918 76681
" />
<path d="M75227 77206
L75157 77169
L75124 77131
L75096 77056
L75124 76831
L75171 76756
L75213 76719
L75293 76681
L75405 76681
L75476 76719
L75508 76756
L75537 76831
L75508 77056
L75462 77131
L75419 77169
L75340 77206
L75227 77206
" />
<path d="M75940 77206
L75869 77169
L75841 77094
L75926 76419
" />
<path d="M76840 77206
L76938 76419
" />
<path d="M76901 76719
L76980 76681
L77130 76681
L77200 76719
L77233 76756
L77261 76831
L77233 77056
L77186 77131
L77144 77169
L77065 77206
L76915 77206
L76844 77169
" />
<path d="M77664 77206
L77594 77169
L77561 77131
L77533 77056
L77561 76831
L77608 76756
L77650 76719
L77730 76681
L77843 76681
L77913 76719
L77946 76756
L77974 76831
L77946 77056
L77899 77131
L77857 77169
L77777 77206
L77664 77206
" />
<path d="M78602 77206
L78653 76794
L78625 76719
L78555 76681
L78405 76681
L78325 76719
" />
<path d="M78607 77169
L78527 77206
L78339 77206
L78269 77169
L78241 77094
L78250 77019
L78297 76944
L78377 76906
L78564 76906
L78644 76869
" />
<path d="M78977 77206
L79042 76681
" />
<path d="M79024 76831
L79071 76756
L79113 76719
L79192 76681
L79267 76681
" />
<path d="M79802 77206
L79900 76419
" />
<path d="M79806 77169
L79727 77206
L79577 77206
L79506 77169
L79474 77131
L79446 77056
L79474 76831
L79520 76756
L79563 76719
L79642 76681
L79792 76681
L79863 76719
" />
</g>
<g style="fill:#000000; fill-opacity:0.0; 
stroke:#000000; stroke-width:39.3701; stroke-opacity:1; 
stroke-linecap:round; stroke-linejoin:round;">
</g>
<g style="fill:#000000; fill-opacity:0.0; 
stroke:#000000; stroke-width:59.0551; stroke-opacity:1; 
stroke-linecap:round; stroke-linejoin:round;">
<path d="M63487 75390
L63290 75390
" />
<path d="M63290 75700
L63290 75109
L63571 75109
" />
<path d="M63796 75700
L63796 75306
" />
<path d="M63796 75109
L63768 75137
L63796 75165
L63824 75137
L63796 75109
L63796 75165
" />
<path d="M64161 75700
L64105 75672
L64077 75615
L64077 75109
" />
<path d="M64611 75672
L64555 75700
L64443 75700
L64386 75672
L64358 75615
L64358 75390
L64386 75334
L64443 75306
L64555 75306
L64611 75334
L64640 75390
L64640 75447
L64358 75503
" />
<path d="M64893 75643
L64921 75672
L64893 75700
L64865 75672
L64893 75643
L64893 75700
" />
<path d="M64893 75334
L64921 75362
L64893 75390
L64865 75362
L64893 75334
L64893 75390
" />
<path d="M65877 75700
L65877 75109
" />
<path d="M65877 75672
L65821 75700
L65708 75700
L65652 75672
L65624 75643
L65596 75587
L65596 75419
L65624 75362
L65652 75334
L65708 75306
L65821 75306
L65877 75334
" />
<path d="M66158 75700
L66158 75306
" />
<path d="M66158 75419
L66186 75362
L66214 75334
L66271 75306
L66327 75306
" />
<path d="M66608 75700
L66552 75672
L66524 75643
L66496 75587
L66496 75419
L66524 75362
L66552 75334
L66608 75306
L66692 75306
L66749 75334
L66777 75362
L66805 75419
L66805 75587
L66777 75643
L66749 75672
L66692 75700
L66608 75700
" />
<path d="M67058 75306
L67058 75897
" />
<path d="M67058 75334
L67114 75306
L67227 75306
L67283 75334
L67311 75362
L67339 75419
L67339 75587
L67311 75643
L67283 75672
L67227 75700
L67114 75700
L67058 75672
" />
<path d="M67592 75700
L67592 75109
" />
<path d="M67592 75334
L67649 75306
L67761 75306
L67817 75334
L67845 75362
L67874 75419
L67874 75587
L67845 75643
L67817 75672
L67761 75700
L67649 75700
L67592 75672
" />
<path d="M68211 75700
L68155 75672
L68127 75643
L68098 75587
L68098 75419
L68127 75362
L68155 75334
L68211 75306
L68295 75306
L68352 75334
L68380 75362
L68408 75419
L68408 75587
L68380 75643
L68352 75672
L68295 75700
L68211 75700
" />
<path d="M68577 75306
L68802 75306
" />
<path d="M68661 75109
L68661 75615
L68689 75672
L68745 75700
L68802 75700
" />
<path d="M68858 75756
L69308 75756
" />
<path d="M69701 75672
L69645 75700
L69533 75700
L69476 75672
L69448 75643
L69420 75587
L69420 75419
L69448 75362
L69476 75334
L69533 75306
L69645 75306
L69701 75334
" />
<path d="M70039 75700
L69983 75672
L69955 75643
L69926 75587
L69926 75419
L69955 75362
L69983 75334
L70039 75306
L70123 75306
L70179 75334
L70208 75362
L70236 75419
L70236 75587
L70208 75643
L70179 75672
L70123 75700
L70039 75700
" />
<path d="M70489 75306
L70489 75700
" />
<path d="M70489 75362
L70517 75334
L70573 75306
L70658 75306
L70714 75334
L70742 75390
L70742 75700
" />
<path d="M70939 75306
L71164 75306
" />
<path d="M71023 75109
L71023 75615
L71051 75672
L71107 75700
L71164 75700
" />
<path d="M71361 75700
L71361 75306
" />
<path d="M71361 75419
L71389 75362
L71417 75334
L71473 75306
L71529 75306
" />
<path d="M71811 75700
L71754 75672
L71726 75643
L71698 75587
L71698 75419
L71726 75362
L71754 75334
L71811 75306
L71895 75306
L71951 75334
L71979 75362
L72007 75419
L72007 75587
L71979 75643
L71951 75672
L71895 75700
L71811 75700
" />
<path d="M72345 75700
L72289 75672
L72260 75615
L72260 75109
" />
<path d="M72429 75756
L72879 75756
" />
<path d="M73020 75700
L73020 75109
" />
<path d="M73020 75334
L73076 75306
L73188 75306
L73245 75334
L73273 75362
L73301 75419
L73301 75587
L73273 75643
L73245 75672
L73188 75700
L73076 75700
L73020 75672
" />
<path d="M73638 75700
L73582 75672
L73554 75643
L73526 75587
L73526 75419
L73554 75362
L73582 75334
L73638 75306
L73723 75306
L73779 75334
L73807 75362
L73835 75419
L73835 75587
L73807 75643
L73779 75672
L73723 75700
L73638 75700
" />
<path d="M74341 75700
L74341 75390
L74313 75334
L74257 75306
L74145 75306
L74088 75334
" />
<path d="M74341 75672
L74285 75700
L74145 75700
L74088 75672
L74060 75615
L74060 75559
L74088 75503
L74145 75475
L74285 75475
L74341 75447
" />
<path d="M74623 75700
L74623 75306
" />
<path d="M74623 75419
L74651 75362
L74679 75334
L74735 75306
L74791 75306
" />
<path d="M75241 75700
L75241 75109
" />
<path d="M75241 75672
L75185 75700
L75073 75700
L75016 75672
L74988 75643
L74960 75587
L74960 75419
L74988 75362
L75016 75334
L75073 75306
L75185 75306
L75241 75334
" />
<path d="M75523 75643
L75551 75672
L75523 75700
L75494 75672
L75523 75643
L75523 75700
" />
<path d="M75804 75700
L75804 75109
" />
<path d="M75860 75475
L76029 75700
" />
<path d="M76029 75306
L75804 75531
" />
<path d="M76282 75700
L76282 75306
" />
<path d="M76282 75109
L76254 75137
L76282 75165
L76310 75137
L76282 75109
L76282 75165
" />
<path d="M76816 75672
L76760 75700
L76647 75700
L76591 75672
L76563 75643
L76535 75587
L76535 75419
L76563 75362
L76591 75334
L76647 75306
L76760 75306
L76816 75334
" />
<path d="M77322 75700
L77322 75390
L77294 75334
L77238 75306
L77125 75306
L77069 75334
" />
<path d="M77322 75672
L77266 75700
L77125 75700
L77069 75672
L77041 75615
L77041 75559
L77069 75503
L77125 75475
L77266 75475
L77322 75447
" />
<path d="M77857 75700
L77857 75109
" />
<path d="M77857 75672
L77800 75700
L77688 75700
L77632 75672
L77604 75643
L77575 75587
L77575 75419
L77604 75362
L77632 75334
L77688 75306
L77800 75306
L77857 75334
" />
<path d="M77997 75756
L78447 75756
" />
<path d="M78588 75306
L78588 75897
" />
<path d="M78588 75334
L78644 75306
L78757 75306
L78813 75334
L78841 75362
L78869 75419
L78869 75587
L78841 75643
L78813 75672
L78757 75700
L78644 75700
L78588 75672
" />
<path d="M79375 75672
L79319 75700
L79206 75700
L79150 75672
L79122 75643
L79094 75587
L79094 75419
L79122 75362
L79150 75334
L79206 75306
L79319 75306
L79375 75334
" />
<path d="M79628 75700
L79628 75109
" />
<path d="M79628 75334
L79685 75306
L79797 75306
L79853 75334
L79881 75362
L79910 75419
L79910 75587
L79881 75643
L79853 75672
L79797 75700
L79685 75700
L79628 75672
" />
</g>
<g style="fill:#000000; fill-opacity:0.0; 
stroke:#000000; stroke-width:39.3701; stroke-opacity:1; 
stroke-linecap:round; stroke-linejoin:round;">
</g>
<g style="fill:#000000; fill-opacity:0.0; 
stroke:#000000; stroke-width:59.0551; stroke-opacity:1; 
stroke-linecap:round; stroke-linejoin:round;">
<path d="M62755 73779
L105275 73779
" />
</g>
<g style="fill:#000000; fill-opacity:0.0; 
stroke:#000000; stroke-width:39.3701; stroke-opacity:1; 
stroke-linecap:round; stroke-linejoin:round;">
</g>
<g style="fill:#000000; fill-opacity:0.0; 
stroke:#000000; stroke-width:59.0551; stroke-opacity:1; 
stroke-linecap:round; stroke-linejoin:round;">
<path d="M63262 74609
L63346 74637
L63487 74637
L63543 74609
L63571 74580
L63599 74524
L63599 74468
L63571 74412
L63543 74384
L63487 74356
L63374 74327
L63318 74299
L63290 74271
L63262 74215
L63262 74159
L63290 74102
L63318 74074
L63374 74046
L63515 74046
L63599 74074
" />
<path d="M63852 74637
L63852 74046
" />
<path d="M64105 74637
L64105 74327
L64077 74271
L64021 74243
L63937 74243
L63880 74271
L63852 74299
" />
<path d="M64611 74609
L64555 74637
L64443 74637
L64386 74609
L64358 74552
L64358 74327
L64386 74271
L64443 74243
L64555 74243
L64611 74271
L64640 74327
L64640 74384
L64358 74440
" />
<path d="M65118 74609
L65061 74637
L64949 74637
L64893 74609
L64865 74552
L64865 74327
L64893 74271
L64949 74243
L65061 74243
L65118 74271
L65146 74327
L65146 74384
L64865 74440
" />
<path d="M65314 74243
L65539 74243
" />
<path d="M65399 74046
L65399 74552
L65427 74609
L65483 74637
L65539 74637
" />
<path d="M65736 74580
L65764 74609
L65736 74637
L65708 74609
L65736 74580
L65736 74637
" />
<path d="M65736 74271
L65764 74299
L65736 74327
L65708 74299
L65736 74271
L65736 74327
" />
</g>
<g style="fill:#000000; fill-opacity:0.0; 
stroke:#000000; stroke-width:39.3701; stroke-opacity:1; 
stroke-linecap:round; stroke-linejoin:round;">
</g>
<g style="fill:#000000; fill-opacity:0.0; 
stroke:#000000; stroke-width:118.11; stroke-opacity:1; 
stroke-linecap:round; stroke-linejoin:round;">
<path d="M63262 73428
L63346 73456
L63487 73456
L63543 73428
L63571 73399
L63599 73343
L63599 73287
L63571 73231
L63543 73203
L63487 73174
L63374 73146
L63318 73118
L63290 73090
L63262 73034
L63262 72978
L63290 72921
L63318 72893
L63374 72865
L63515 72865
L63599 72893
" />
<path d="M64105 73428
L64049 73456
L63937 73456
L63880 73428
L63852 73399
L63824 73343
L63824 73174
L63852 73118
L63880 73090
L63937 73062
L64049 73062
L64105 73090
" />
<path d="M64358 73456
L64358 73062
" />
<path d="M64358 72865
L64330 72893
L64358 72921
L64386 72893
L64358 72865
L64358 72921
" />
<path d="M64640 73231
L65089 73231
" />
<path d="M65568 73146
L65652 73174
L65680 73203
L65708 73259
L65708 73343
L65680 73399
L65652 73428
L65596 73456
L65371 73456
L65371 72865
L65568 72865
L65624 72893
L65652 72921
L65680 72978
L65680 73034
L65652 73090
L65624 73118
L65568 73146
L65371 73146
" />
<path d="M66046 73456
L65989 73428
L65961 73399
L65933 73343
L65933 73174
L65961 73118
L65989 73090
L66046 73062
L66130 73062
L66186 73090
L66214 73118
L66242 73174
L66242 73343
L66214 73399
L66186 73428
L66130 73456
L66046 73456
" />
<path d="M66411 73062
L66636 73062
" />
<path d="M66496 72865
L66496 73371
L66524 73428
L66580 73456
L66636 73456
" />
<path d="M66805 73428
L66861 73456
L66974 73456
L67030 73428
L67058 73371
L67058 73343
L67030 73287
L66974 73259
L66889 73259
L66833 73231
L66805 73174
L66805 73146
L66833 73090
L66889 73062
L66974 73062
L67030 73090
" />
<path d="M67761 73456
L67761 72865
" />
<path d="M68042 73062
L68042 73456
" />
<path d="M68042 73118
L68070 73090
L68127 73062
L68211 73062
L68267 73090
L68295 73146
L68295 73456
" />
<path d="M68830 73428
L68773 73456
L68661 73456
L68605 73428
L68577 73399
L68548 73343
L68548 73174
L68577 73118
L68605 73090
L68661 73062
L68773 73062
L68830 73090
" />
<path d="M69083 73399
L69111 73428
L69083 73456
L69055 73428
L69083 73399
L69083 73456
" />
</g>
<g style="fill:#000000; fill-opacity:0.0; 
stroke:#000000; stroke-width:39.3701; stroke-opacity:1; 
stroke-linecap:round; stroke-linejoin:round;">
</g>
<g style="fill:#000000; fill-opacity:0.0; 
stroke:#000000; stroke-width:59.0551; stroke-opacity:1; 
stroke-linecap:round; stroke-linejoin:round;">
<path d="M70629 77716
L70629 78897
" />
</g>
<g style="fill:#000000; fill-opacity:0.0; 
stroke:#000000; stroke-width:39.3701; stroke-opacity:1; 
stroke-linecap:round; stroke-linejoin:round;">
</g>
<g style="fill:#000000; fill-opacity:0.0; 
stroke:#000000; stroke-width:59.0551; stroke-opacity:1; 
stroke-linecap:round; stroke-linejoin:round;">
<path d="M95826 77716
L95826 80275
" />
</g>
<g style="fill:#000000; fill-opacity:0.0; 
stroke:#000000; stroke-width:39.3701; stroke-opacity:1; 
stroke-linecap:round; stroke-linejoin:round;">
<path d="M12992 16929
L48818 16929
" />
<path d="M12992 35826
L25196 35826
" />
<path d="M12992 16929
L12992 35826
" />
<path d="M25196 35826
L25196 44488
" />
<path d="M48818 8267
L48818 16929
" />
<path d="M58267 8267
L58267 44488
" />
<path d="M48818 8267
L58267 8267
" />
<path d="M25196 44488
L58267 44488
" />
</g>
<g style="fill:#000000; fill-opacity:0.0; 
stroke:#000000; stroke-width:0; stroke-opacity:1; 
stroke-linecap:round; stroke-linejoin:round;">
</g>
<g style="fill:#000000; fill-opacity:1.0; 
stroke:#000000; stroke-width:0; stroke-opacity:1; 
stroke-linecap:round; stroke-linejoin:round;">
<polyline style="fill-rule:evenodd;"
points="49849,35316
49169,35316
49169,35136
49849,35136
49849,35316
" /> 
<polyline style="fill-rule:evenodd;"
points="49849,35060
49169,35060
49169,34880
49849,34880
49849,35060
" /> 
<polyline style="fill-rule:evenodd;"
points="49849,34804
49169,34804
49169,34624
49849,34624
49849,34804
" /> 
<polyline style="fill-rule:evenodd;"
points="49849,34548
49169,34548
49169,34368
49849,34368
49849,34548
" /> 
<polyline style="fill-rule:evenodd;"
points="49019,34548
48339,34548
48339,34368
49019,34368
49019,34548
" /> 
<polyline style="fill-rule:evenodd;"
points="49019,34804
48339,34804
48339,34624
49019,34624
49019,34804
" /> 
<polyline style="fill-rule:evenodd;"
points="49019,35060
48339,35060
48339,34880
49019,34880
49019,35060
" /> 
<polyline style="fill-rule:evenodd;"
points="49019,35316
48339,35316
48339,35136
49019,35136
49019,35316
" /> 
<polyline style="fill-rule:evenodd;"
points="50348,37556
50348,37792
49737,37792
49737,37556
50348,37556
" /> 
<polyline style="fill-rule:evenodd;"
points="50348,37056
50348,37292
49737,37292
49737,37056
50348,37056
" /> 
<polyline style="fill-rule:evenodd;"
points="50348,36556
50348,36792
49737,36792
49737,36556
50348,36556
" /> 
<polyline style="fill-rule:evenodd;"
points="50348,36056
50348,36292
49737,36292
49737,36056
50348,36056
" /> 
<polyline style="fill-rule:evenodd;"
points="48222,36056
48222,36292
47611,36292
47611,36056
48222,36056
" /> 
<polyline style="fill-rule:evenodd;"
points="48222,36556
48222,36792
47611,36792
47611,36556
48222,36556
" /> 
<polyline style="fill-rule:evenodd;"
points="48222,37056
48222,37292
47611,37292
47611,37056
48222,37056
" /> 
<polyline style="fill-rule:evenodd;"
points="48222,37556
48222,37792
47611,37792
47611,37556
48222,37556
" /> 
<polyline style="fill-rule:evenodd;"
points="21456,28582
21850,28582
21850,29685
21456,29685
21456,28582
" /> 
<polyline style="fill-rule:evenodd;"
points="22440,28582
22834,28582
22834,29685
22440,29685
22440,28582
" /> 
<polyline style="fill-rule:evenodd;"
points="20669,28582
21062,28582
21062,29685
20669,29685
20669,28582
" /> 
<polyline style="fill-rule:evenodd;"
points="19685,28582
20078,28582
20078,29685
19685,29685
19685,28582
" /> 
<polyline style="fill-rule:evenodd;"
points="56378,21555
56850,21555
56850,22027
56378,22027
56378,21555
" /> 
<polyline style="fill-rule:evenodd;"
points="56378,22381
56850,22381
56850,22853
56378,22853
56378,22381
" /> 
<polyline style="fill-rule:evenodd;"
points="54567,21555
55039,21555
55039,22027
54567,22027
54567,21555
" /> 
<polyline style="fill-rule:evenodd;"
points="54567,22381
55039,22381
55039,22853
54567,22853
54567,22381
" /> 
<polyline style="fill-rule:evenodd;"
points="53958,32862
53001,32862
53001,31929
53958,31929
53958,32862
" /> 
<polyline style="fill-rule:evenodd;"
points="53958,35319
53001,35319
53001,34386
53958,34386
53958,35319
" /> 
<polyline style="fill-rule:evenodd;"
points="57092,33062
55466,33062
55466,32129
57092,32129
57092,33062
" /> 
<polyline style="fill-rule:evenodd;"
points="57092,35519
55466,35519
55466,34586
57092,34586
57092,35519
" /> 
<polyline style="fill-rule:evenodd;"
points="41505,34429
41505,34901
41348,34901
41348,34429
41505,34429
" /> 
<polyline style="fill-rule:evenodd;"
points="41250,34429
41250,34901
41092,34901
41092,34429
41250,34429
" /> 
<polyline style="fill-rule:evenodd;"
points="40994,34429
40994,34901
40836,34901
40836,34429
40994,34429
" /> 
<polyline style="fill-rule:evenodd;"
points="40738,34429
40738,34901
40580,34901
40580,34429
40738,34429
" /> 
<polyline style="fill-rule:evenodd;"
points="40738,36082
40738,36555
40580,36555
40580,36082
40738,36082
" /> 
<polyline style="fill-rule:evenodd;"
points="40994,36082
40994,36555
40836,36555
40836,36082
40994,36082
" /> 
<polyline style="fill-rule:evenodd;"
points="41250,36082
41250,36555
41092,36555
41092,36082
41250,36082
" /> 
<polyline style="fill-rule:evenodd;"
points="41505,36082
41505,36555
41348,36555
41348,36082
41505,36082
" /> 
<polyline style="fill-rule:evenodd;"
points="42106,39291
42106,38346
43681,38346
43681,39291
42106,39291
" /> 
<polyline style="fill-rule:evenodd;"
points="38956,39291
38956,38346
40531,38346
40531,39291
38956,39291
" /> 
<polyline style="fill-rule:evenodd;"
points="26025,36845
26734,36845
26734,37829
26025,37829
26025,36845
" /> 
<polyline style="fill-rule:evenodd;"
points="26025,38419
26734,38419
26734,39403
26025,39403
26025,38419
" /> 
<polyline style="fill-rule:evenodd;"
points="32125,36545
32834,36545
32834,37529
32125,37529
32125,36545
" /> 
<polyline style="fill-rule:evenodd;"
points="32125,38119
32834,38119
32834,39103
32125,39103
32125,38119
" /> 
<polyline style="fill-rule:evenodd;"
points="29829,36899
29829,36449
30029,36449
30029,36899
29829,36899
" /> 
<polyline style="fill-rule:evenodd;"
points="30329,36899
30329,36449
30529,36449
30529,36899
30329,36899
" /> 
<polyline style="fill-rule:evenodd;"
points="30829,36899
30829,36449
31029,36449
31029,36899
30829,36899
" /> 
<polyline style="fill-rule:evenodd;"
points="31329,36899
31329,36449
31529,36449
31529,36899
31329,36899
" /> 
<polyline style="fill-rule:evenodd;"
points="31329,39399
31329,38949
31529,38949
31529,39399
31329,39399
" /> 
<polyline style="fill-rule:evenodd;"
points="30829,39399
30829,38949
31029,38949
31029,39399
30829,39399
" /> 
<polyline style="fill-rule:evenodd;"
points="30329,39399
30329,38949
30529,38949
30529,39399
30329,39399
" /> 
<polyline style="fill-rule:evenodd;"
points="29829,39399
29829,38949
30029,38949
30029,39399
29829,39399
" /> 
<polyline style="fill-rule:evenodd;"
points="30196,22893
30196,23385
29803,23385
29803,22893
30196,22893
" /> 
<polyline style="fill-rule:evenodd;"
points="29409,22893
29409,23385
29015,23385
29015,22893
29409,22893
" /> 
<polyline style="fill-rule:evenodd;"
points="53425,29852
53425,29360
53818,29360
53818,29852
53425,29852
" /> 
<polyline style="fill-rule:evenodd;"
points="54212,29852
54212,29360
54606,29360
54606,29852
54212,29852
" /> 
<polyline style="fill-rule:evenodd;"
points="56141,29360
56141,29852
55748,29852
55748,29360
56141,29360
" /> 
<polyline style="fill-rule:evenodd;"
points="55354,29360
55354,29852
54960,29852
54960,29360
55354,29360
" /> 
<polyline style="fill-rule:evenodd;"
points="29714,21614
30206,21614
30206,22007
29714,22007
29714,21614
" /> 
<polyline style="fill-rule:evenodd;"
points="29714,22401
30206,22401
30206,22795
29714,22795
29714,22401
" /> 
<polyline style="fill-rule:evenodd;"
points="29240,25088
29240,25580
28846,25580
28846,25088
29240,25088
" /> 
<polyline style="fill-rule:evenodd;"
points="28452,25088
28452,25580
28059,25580
28059,25088
28452,25088
" /> 
<polyline style="fill-rule:evenodd;"
points="30127,25078
29635,25078
29635,24685
30127,24685
30127,25078
" /> 
<polyline style="fill-rule:evenodd;"
points="30127,24291
29635,24291
29635,23897
30127,23897
30127,24291
" /> 
<polyline style="fill-rule:evenodd;"
points="27480,21525
27480,21033
27874,21033
27874,21525
27480,21525
" /> 
<polyline style="fill-rule:evenodd;"
points="28267,21525
28267,21033
28661,21033
28661,21525
28267,21525
" /> 
<polyline style="fill-rule:evenodd;"
points="29240,25864
29240,26356
28846,26356
28846,25864
29240,25864
" /> 
<polyline style="fill-rule:evenodd;"
points="28452,25864
28452,26356
28059,26356
28059,25864
28452,25864
" /> 
<polyline style="fill-rule:evenodd;"
points="28059,27616
28059,27124
28452,27124
28452,27616
28059,27616
" /> 
<polyline style="fill-rule:evenodd;"
points="28846,27616
28846,27124
29240,27124
29240,27616
28846,27616
" /> 
<polyline style="fill-rule:evenodd;"
points="27480,20895
27480,20403
27874,20403
27874,20895
27480,20895
" /> 
<polyline style="fill-rule:evenodd;"
points="28267,20895
28267,20403
28661,20403
28661,20895
28267,20895
" /> 
<polyline style="fill-rule:evenodd;"
points="31220,21909
31220,21397
31496,21397
31496,21909
31220,21909
" /> 
<polyline style="fill-rule:evenodd;"
points="31968,21909
31968,21397
32244,21397
32244,21909
31968,21909
" /> 
<polyline style="fill-rule:evenodd;"
points="28149,24291
28149,23779
28425,23779
28425,24291
28149,24291
" /> 
<polyline style="fill-rule:evenodd;"
points="28897,24291
28897,23779
29173,23779
29173,24291
28897,24291
" /> 
<polyline style="fill-rule:evenodd;"
points="29173,24409
29173,24921
28897,24921
28897,24409
29173,24409
" /> 
<polyline style="fill-rule:evenodd;"
points="28425,24409
28425,24921
28149,24921
28149,24409
28425,24409
" /> 
<polyline style="fill-rule:evenodd;"
points="29114,21653
29625,21653
29625,21929
29114,21929
29114,21653
" /> 
<polyline style="fill-rule:evenodd;"
points="29114,22401
29625,22401
29625,22677
29114,22677
29114,22401
" /> 
<polyline style="fill-rule:evenodd;"
points="54055,24704
54055,24192
54330,24192
54330,24704
54055,24704
" /> 
<polyline style="fill-rule:evenodd;"
points="54803,24704
54803,24192
55078,24192
55078,24704
54803,24704
" /> 
<polyline style="fill-rule:evenodd;"
points="56062,24980
56062,24468
56338,24468
56338,24980
56062,24980
" /> 
<polyline style="fill-rule:evenodd;"
points="56811,24980
56811,24468
57086,24468
57086,24980
56811,24980
" /> 
<polyline style="fill-rule:evenodd;"
points="29200,26484
29200,26996
28925,26996
28925,26484
29200,26484
" /> 
<polyline style="fill-rule:evenodd;"
points="28452,26484
28452,26996
28177,26996
28177,26484
28452,26484
" /> 
<polyline style="fill-rule:evenodd;"
points="30185,20236
30185,20748
29909,20748
29909,20236
30185,20236
" /> 
<polyline style="fill-rule:evenodd;"
points="29437,20236
29437,20748
29161,20748
29161,20236
29437,20236
" /> 
<polyline style="fill-rule:evenodd;"
points="28149,28307
28149,27795
28425,27795
28425,28307
28149,28307
" /> 
<polyline style="fill-rule:evenodd;"
points="28897,28307
28897,27795
29173,27795
29173,28307
28897,28307
" /> 
<polyline style="fill-rule:evenodd;"
points="30834,21515
30322,21515
30322,21240
30834,21240
30834,21515
" /> 
<polyline style="fill-rule:evenodd;"
points="30834,20767
30322,20767
30322,20492
30834,20492
30834,20767
" /> 
<polyline style="fill-rule:evenodd;"
points="57351,25265
57351,26065
56751,26065
56751,25265
57351,25265
" /> 
<polyline style="fill-rule:evenodd;"
points="56351,25265
56351,26065
55751,26065
55751,25265
56351,25265
" /> 
<polyline style="fill-rule:evenodd;"
points="55351,25265
55351,26065
54751,26065
54751,25265
55351,25265
" /> 
<polyline style="fill-rule:evenodd;"
points="54351,25265
54351,26065
53751,26065
53751,25265
54351,25265
" /> 
<polyline style="fill-rule:evenodd;"
points="54351,28265
54351,29065
53751,29065
53751,28265
54351,28265
" /> 
<polyline style="fill-rule:evenodd;"
points="55351,28265
55351,29065
54751,29065
54751,28265
55351,28265
" /> 
<polyline style="fill-rule:evenodd;"
points="56351,28265
56351,29065
55751,29065
55751,28265
56351,28265
" /> 
<polyline style="fill-rule:evenodd;"
points="57351,28265
57351,29065
56751,29065
56751,28265
57351,28265
" /> 
<polyline style="fill-rule:evenodd;"
points="51840,34133
52332,34133
52332,34527
51840,34527
51840,34133
" /> 
<polyline style="fill-rule:evenodd;"
points="51840,34921
52332,34921
52332,35314
51840,35314
51840,34921
" /> 
<polyline style="fill-rule:evenodd;"
points="31870,39678
31870,40170
31476,40170
31476,39678
31870,39678
" /> 
<polyline style="fill-rule:evenodd;"
points="31083,39678
31083,40170
30689,40170
30689,39678
31083,39678
" /> 
<polyline style="fill-rule:evenodd;"
points="47325,36314
46833,36314
46833,35921
47325,35921
47325,36314
" /> 
<polyline style="fill-rule:evenodd;"
points="47325,35527
46833,35527
46833,35133
47325,35133
47325,35527
" /> 
<polyline style="fill-rule:evenodd;"
points="52520,32578
52520,33070
52126,33070
52126,32578
52520,32578
" /> 
<polyline style="fill-rule:evenodd;"
points="51733,32578
51733,33070
51339,33070
51339,32578
51733,32578
" /> 
<polyline style="fill-rule:evenodd;"
points="54547,20433
55059,20433
55059,20708
54547,20708
54547,20433
" /> 
<polyline style="fill-rule:evenodd;"
points="54547,21181
55059,21181
55059,21456
54547,21456
54547,21181
" /> 
<polyline style="fill-rule:evenodd;"
points="56358,20433
56870,20433
56870,20708
56358,20708
56358,20433
" /> 
<polyline style="fill-rule:evenodd;"
points="56358,21181
56870,21181
56870,21456
56358,21456
56358,21181
" /> 
<polyline style="fill-rule:evenodd;"
points="51418,33880
51418,33368
51693,33368
51693,33880
51418,33880
" /> 
<polyline style="fill-rule:evenodd;"
points="52166,33880
52166,33368
52441,33368
52441,33880
52166,33880
" /> 
<polyline style="fill-rule:evenodd;"
points="42657,31968
43169,31968
43169,32244
42657,32244
42657,31968
" /> 
<polyline style="fill-rule:evenodd;"
points="42657,32716
43169,32716
43169,32992
42657,32992
42657,32716
" /> 
<polyline style="fill-rule:evenodd;"
points="42854,34921
42854,35433
42578,35433
42578,34921
42854,34921
" /> 
<polyline style="fill-rule:evenodd;"
points="42106,34921
42106,35433
41830,35433
41830,34921
42106,34921
" /> 
<polyline style="fill-rule:evenodd;"
points="41830,36161
41830,35649
42106,35649
42106,36161
41830,36161
" /> 
<polyline style="fill-rule:evenodd;"
points="42578,36161
42578,35649
42854,35649
42854,36161
42578,36161
" /> 
<polyline style="fill-rule:evenodd;"
points="39330,36564
39330,36053
39606,36053
39606,36564
39330,36564
" /> 
<polyline style="fill-rule:evenodd;"
points="40078,36564
40078,36053
40354,36053
40354,36564
40078,36564
" /> 
<polyline style="fill-rule:evenodd;"
points="39724,34762
40235,34762
40235,35038
39724,35038
39724,34762
" /> 
<polyline style="fill-rule:evenodd;"
points="39724,35510
40235,35510
40235,35786
39724,35786
39724,35510
" /> 
<polyline style="fill-rule:evenodd;"
points="29968,35880
29968,35368
30243,35368
30243,35880
29968,35880
" /> 
<polyline style="fill-rule:evenodd;"
points="30716,35880
30716,35368
30991,35368
30991,35880
30716,35880
" /> 
<polyline style="fill-rule:evenodd;"
points="44964,36872
44295,36872
44295,36518
44964,36518
44964,36872
" /> 
<polyline style="fill-rule:evenodd;"
points="44964,35730
44295,35730
44295,35376
44964,35376
44964,35730
" /> 
<polyline style="fill-rule:evenodd;"
points="42578,33110
43248,33110
43248,33464
42578,33464
42578,33110
" /> 
<polyline style="fill-rule:evenodd;"
points="42578,34251
43248,34251
43248,34606
42578,34606
42578,34251
" /> 
<polyline style="fill-rule:evenodd;"
points="46559,36891
45300,36891
45300,36498
46559,36498
46559,36891
" /> 
<polyline style="fill-rule:evenodd;"
points="46559,34450
45300,34450
45300,34057
46559,34057
46559,34450
" /> 
<polyline style="fill-rule:evenodd;"
points="32172,34211
31187,34211
31187,33818
32172,33818
32172,34211
" /> 
<polyline style="fill-rule:evenodd;"
points="32172,33030
31187,33030
31187,32637
32172,32637
32172,33030
" /> 
<polyline style="fill-rule:evenodd;"
points="51428,39594
51428,37664
52609,37664
52609,39594
51428,39594
" /> 
<polyline style="fill-rule:evenodd;"
points="55050,39672
55050,37743
56231,37743
56231,39672
55050,39672
" /> 
<polyline style="fill-rule:evenodd;"
points="45463,38294
45463,37310
46762,37310
46762,38294
45463,38294
" /> 
<polyline style="fill-rule:evenodd;"
points="45463,40972
45463,39988
46762,39988
46762,40972
45463,40972
" /> 
<polyline style="fill-rule:evenodd;"
points="50807,30055
50807,30220
50570,30220
50570,30055
50807,30055
" /> 
<polyline style="fill-rule:evenodd;"
points="50807,29543
50807,29708
50570,29708
50570,29543
50807,29543
" /> 
<polyline style="fill-rule:evenodd;"
points="50059,30055
50059,30220
49822,30220
49822,30055
50059,30055
" /> 
<polyline style="fill-rule:evenodd;"
points="50807,29799
50807,29964
50570,29964
50570,29799
50807,29799
" /> 
<polyline style="fill-rule:evenodd;"
points="50059,29543
50059,29708
49822,29708
49822,29543
50059,29543
" /> 
<polyline style="fill-rule:evenodd;"
points="47678,28638
48128,28638
48128,28838
47678,28838
47678,28638
" /> 
<polyline style="fill-rule:evenodd;"
points="47678,29138
48128,29138
48128,29338
47678,29338
47678,29138
" /> 
<polyline style="fill-rule:evenodd;"
points="47678,29638
48128,29638
48128,29838
47678,29838
47678,29638
" /> 
<polyline style="fill-rule:evenodd;"
points="47678,30138
48128,30138
48128,30338
47678,30338
47678,30138
" /> 
<polyline style="fill-rule:evenodd;"
points="45178,30138
45628,30138
45628,30338
45178,30338
45178,30138
" /> 
<polyline style="fill-rule:evenodd;"
points="45178,29638
45628,29638
45628,29838
45178,29838
45178,29638
" /> 
<polyline style="fill-rule:evenodd;"
points="45178,29138
45628,29138
45628,29338
45178,29338
45178,29138
" /> 
<polyline style="fill-rule:evenodd;"
points="45178,28638
45628,28638
45628,28838
45178,28838
45178,28638
" /> 
<polyline style="fill-rule:evenodd;"
points="44468,28267
44980,28267
44980,28543
44468,28543
44468,28267
" /> 
<polyline style="fill-rule:evenodd;"
points="44468,29015
44980,29015
44980,29291
44468,29291
44468,29015
" /> 
<polyline style="fill-rule:evenodd;"
points="44478,29409
44970,29409
44970,29803
44478,29803
44478,29409
" /> 
<polyline style="fill-rule:evenodd;"
points="44478,30196
44970,30196
44970,30590
44478,30590
44478,30196
" /> 
<polyline style="fill-rule:evenodd;"
points="50570,30551
51082,30551
51082,30826
50570,30826
50570,30551
" /> 
<polyline style="fill-rule:evenodd;"
points="50570,31299
51082,31299
51082,31574
50570,31574
50570,31299
" /> 
<polyline style="fill-rule:evenodd;"
points="44153,37962
44645,37962
44645,38356
44153,38356
44153,37962
" /> 
<polyline style="fill-rule:evenodd;"
points="44153,38750
44645,38750
44645,39143
44153,39143
44153,38750
" /> 
<polyline style="fill-rule:evenodd;"
points="32381,20846
32381,21161
32027,21161
32027,20846
32381,20846
" /> 
<polyline style="fill-rule:evenodd;"
points="32381,20098
32381,20413
32027,20413
32027,20098
32381,20098
" /> 
<polyline style="fill-rule:evenodd;"
points="31594,20472
31594,20787
31240,20787
31240,20472
31594,20472
" /> 
<polyline style="fill-rule:evenodd;"
points="52429,11082
52429,10632
52719,10632
52719,11082
52429,11082
" /> 
<polyline style="fill-rule:evenodd;"
points="52429,11682
52429,11232
52719,11232
52719,11682
52429,11682
" /> 
<polyline style="fill-rule:evenodd;"
points="51929,11082
51929,10632
52219,10632
52219,11082
51929,11082
" /> 
<polyline style="fill-rule:evenodd;"
points="51929,11682
51929,11232
52219,11232
52219,11682
51929,11682
" /> 
<polyline style="fill-rule:evenodd;"
points="51429,11082
51429,10632
51719,10632
51719,11082
51429,11082
" /> 
<polyline style="fill-rule:evenodd;"
points="51429,11682
51429,11232
51719,11232
51719,11682
51429,11682
" /> 
<polyline style="fill-rule:evenodd;"
points="50929,11082
50929,10632
51219,10632
51219,11082
50929,11082
" /> 
<polyline style="fill-rule:evenodd;"
points="50929,11682
50929,11232
51219,11232
51219,11682
50929,11682
" /> 
<polyline style="fill-rule:evenodd;"
points="50429,11082
50429,10632
50719,10632
50719,11082
50429,11082
" /> 
<polyline style="fill-rule:evenodd;"
points="50429,11682
50429,11232
50719,11232
50719,11682
50429,11682
" /> 
<circle cx="53594.8" cy="8847.72" r="250" /> 
</g>
<g style="fill:#000000; fill-opacity:1.0; 
stroke:#000000; stroke-width:39.3701; stroke-opacity:1; 
stroke-linecap:round; stroke-linejoin:round;">
</g>
<g style="fill:#000000; fill-opacity:1.0; 
stroke:#000000; stroke-width:0; stroke-opacity:1; 
stroke-linecap:round; stroke-linejoin:round;">
<circle cx="49554.8" cy="8847.72" r="250" /> 
</g>
<g style="fill:#000000; fill-opacity:1.0; 
stroke:#000000; stroke-width:39.3701; stroke-opacity:1; 
stroke-linecap:round; stroke-linejoin:round;">
</g>
<g style="fill:#000000; fill-opacity:1.0; 
stroke:#000000; stroke-width:0; stroke-opacity:1; 
stroke-linecap:round; stroke-linejoin:round;">
<circle cx="53594.8" cy="9737.72" r="250" /> 
</g>
<g style="fill:#000000; fill-opacity:1.0; 
stroke:#000000; stroke-width:39.3701; stroke-opacity:1; 
stroke-linecap:round; stroke-linejoin:round;">
</g>
<g style="fill:#000000; fill-opacity:1.0; 
stroke:#000000; stroke-width:0; stroke-opacity:1; 
stroke-linecap:round; stroke-linejoin:round;">
<circle cx="49554.8" cy="9737.72" r="250" /> 
</g>
<g style="fill:#000000; fill-opacity:1.0; 
stroke:#000000; stroke-width:39.3701; stroke-opacity:1; 
stroke-linecap:round; stroke-linejoin:round;">
</g>
<g style="fill:#000000; fill-opacity:1.0; 
stroke:#000000; stroke-width:0; stroke-opacity:1; 
stroke-linecap:round; stroke-linejoin:round;">
<polyline style="fill-rule:evenodd;"
points="50994,38562
50482,38562
50482,38287
50994,38287
50994,38562
" /> 
<polyline style="fill-rule:evenodd;"
points="50994,37814
50482,37814
50482,37539
50994,37539
50994,37814
" /> 
<polyline style="fill-rule:evenodd;"
points="44143,39822
44655,39822
44655,40098
44143,40098
44143,39822
" /> 
<polyline style="fill-rule:evenodd;"
points="44143,40570
44655,40570
44655,40846
44143,40846
44143,40570
" /> 
<polyline style="fill-rule:evenodd;"
points="40541,29173
41033,29173
41033,29566
40541,29566
40541,29173
" /> 
<polyline style="fill-rule:evenodd;"
points="40541,29960
41033,29960
41033,30354
40541,30354
40541,29960
" /> 
<polyline style="fill-rule:evenodd;"
points="42057,30354
41564,30354
41564,29960
42057,29960
42057,30354
" /> 
<polyline style="fill-rule:evenodd;"
points="42057,29566
41564,29566
41564,29173
42057,29173
42057,29566
" /> 
<polyline style="fill-rule:evenodd;"
points="40196,21033
40196,20541
40590,20541
40590,21033
40196,21033
" /> 
<polyline style="fill-rule:evenodd;"
points="40984,21033
40984,20541
41377,20541
41377,21033
40984,21033
" /> 
<polyline style="fill-rule:evenodd;"
points="40196,20364
40196,19872
40590,19872
40590,20364
40196,20364
" /> 
<polyline style="fill-rule:evenodd;"
points="40984,20364
40984,19872
41377,19872
41377,20364
40984,20364
" /> 
<polyline style="fill-rule:evenodd;"
points="48297,33228
47805,33228
47805,32834
48297,32834
48297,33228
" /> 
<polyline style="fill-rule:evenodd;"
points="48297,32440
47805,32440
47805,32047
48297,32047
48297,32440
" /> 
<polyline style="fill-rule:evenodd;"
points="49881,32047
50374,32047
50374,32440
49881,32440
49881,32047
" /> 
<polyline style="fill-rule:evenodd;"
points="49881,32834
50374,32834
50374,33228
49881,33228
49881,32834
" /> 
<polyline style="fill-rule:evenodd;"
points="55167,15521
56643,15521
56643,16525
55167,16525
55167,15521
" /> 
<polyline style="fill-rule:evenodd;"
points="55167,17647
56643,17647
56643,18651
55167,18651
55167,17647
" /> 
<polyline style="fill-rule:evenodd;"
points="54970,17322
54478,17322
54478,16929
54970,16929
54970,17322
" /> 
<polyline style="fill-rule:evenodd;"
points="54970,16535
54478,16535
54478,16141
54970,16141
54970,16535
" /> 
<polyline style="fill-rule:evenodd;"
points="54183,17322
53690,17322
53690,16929
54183,16929
54183,17322
" /> 
<polyline style="fill-rule:evenodd;"
points="54183,16535
53690,16535
53690,16141
54183,16141
54183,16535
" /> 
<polyline style="fill-rule:evenodd;"
points="40570,28031
41082,28031
41082,28307
40570,28307
40570,28031
" /> 
<polyline style="fill-rule:evenodd;"
points="40570,28779
41082,28779
41082,29055
40570,29055
40570,28779
" /> 
<polyline style="fill-rule:evenodd;"
points="41555,28031
42066,28031
42066,28307
41555,28307
41555,28031
" /> 
<polyline style="fill-rule:evenodd;"
points="41555,28779
42066,28779
42066,29055
41555,29055
41555,28779
" /> 
<polyline style="fill-rule:evenodd;"
points="48415,33208
48927,33208
48927,33484
48415,33484
48415,33208
" /> 
<polyline style="fill-rule:evenodd;"
points="48415,33956
48927,33956
48927,34232
48415,34232
48415,33956
" /> 
<polyline style="fill-rule:evenodd;"
points="49251,33208
49763,33208
49763,33484
49251,33484
49251,33208
" /> 
<polyline style="fill-rule:evenodd;"
points="49251,33956
49763,33956
49763,34232
49251,34232
49251,33956
" /> 
<polyline style="fill-rule:evenodd;"
points="48415,32086
48927,32086
48927,32362
48415,32362
48415,32086
" /> 
<polyline style="fill-rule:evenodd;"
points="48415,32834
48927,32834
48927,33110
48415,33110
48415,32834
" /> 
<polyline style="fill-rule:evenodd;"
points="49251,32086
49763,32086
49763,32362
49251,32362
49251,32086
" /> 
<polyline style="fill-rule:evenodd;"
points="49251,32834
49763,32834
49763,33110
49251,33110
49251,32834
" /> 
<polyline style="fill-rule:evenodd;"
points="31023,34950
31023,34438
31299,34438
31299,34950
31023,34950
" /> 
<polyline style="fill-rule:evenodd;"
points="31771,34950
31771,34438
32047,34438
32047,34950
31771,34950
" /> 
<polyline style="fill-rule:evenodd;"
points="52086,17312
52086,17805
51692,17805
51692,17312
52086,17312
" /> 
<polyline style="fill-rule:evenodd;"
points="51299,17312
51299,17805
50905,17805
50905,17312
51299,17312
" /> 
<polyline style="fill-rule:evenodd;"
points="52785,16141
53277,16141
53277,16535
52785,16535
52785,16141
" /> 
<polyline style="fill-rule:evenodd;"
points="52785,16929
53277,16929
53277,17322
52785,17322
52785,16929
" /> 
<polyline style="fill-rule:evenodd;"
points="52618,17244
52106,17244
52106,16968
52618,16968
52618,17244
" /> 
<polyline style="fill-rule:evenodd;"
points="52618,16496
52106,16496
52106,16220
52618,16220
52618,16496
" /> 
<polyline style="fill-rule:evenodd;"
points="38700,20452
38700,20964
38425,20964
38425,20452
38700,20452
" /> 
<polyline style="fill-rule:evenodd;"
points="37952,20452
37952,20964
37677,20964
37677,20452
37952,20452
" /> 
<polyline style="fill-rule:evenodd;"
points="18385,24547
18385,24035
18661,24035
18661,24547
18385,24547
" /> 
<polyline style="fill-rule:evenodd;"
points="19133,24547
19133,24035
19409,24035
19409,24547
19133,24547
" /> 
<polyline style="fill-rule:evenodd;"
points="19527,24547
19527,24035
19803,24035
19803,24547
19527,24547
" /> 
<polyline style="fill-rule:evenodd;"
points="20275,24547
20275,24035
20551,24035
20551,24547
20275,24547
" /> 
<polyline style="fill-rule:evenodd;"
points="27767,34832
27767,35816
27373,35816
27373,34832
27767,34832
" /> 
<polyline style="fill-rule:evenodd;"
points="26586,34832
26586,35816
26192,35816
26192,34832
26586,34832
" /> 
<polyline style="fill-rule:evenodd;"
points="19202,22716
19694,22716
19694,23110
19202,23110
19202,22716
" /> 
<polyline style="fill-rule:evenodd;"
points="19202,23503
19694,23503
19694,23897
19202,23897
19202,23503
" /> 
<polyline style="fill-rule:evenodd;"
points="27427,32089
27427,32759
27073,32759
27073,32089
27427,32089
" /> 
<polyline style="fill-rule:evenodd;"
points="26286,32089
26286,32759
25931,32759
25931,32089
26286,32089
" /> 
<polyline style="fill-rule:evenodd;"
points="29350,38877
28838,38877
28838,38602
29350,38602
29350,38877
" /> 
<polyline style="fill-rule:evenodd;"
points="29350,38129
28838,38129
28838,37854
29350,37854
29350,38129
" /> 
<polyline style="fill-rule:evenodd;"
points="27964,21633
28948,21633
28948,21988
27964,21988
27964,21633
" /> 
<polyline style="fill-rule:evenodd;"
points="27964,22775
28948,22775
28948,23129
27964,23129
27964,22775
" /> 
<circle cx="14015.7" cy="24741.3" r="393.701" /> 
</g>
<g style="fill:#000000; fill-opacity:1.0; 
stroke:#000000; stroke-width:39.3701; stroke-opacity:1; 
stroke-linecap:round; stroke-linejoin:round;">
</g>
<g style="fill:#000000; fill-opacity:1.0; 
stroke:#000000; stroke-width:0; stroke-opacity:1; 
stroke-linecap:round; stroke-linejoin:round;">
<circle cx="14015.7" cy="26911.3" r="393.701" /> 
</g>
<g style="fill:#000000; fill-opacity:1.0; 
stroke:#000000; stroke-width:39.3701; stroke-opacity:1; 
stroke-linecap:round; stroke-linejoin:round;">
</g> 
</svg>
