<?xml version="1.0" standalone="no"?>
 <!DOCTYPE svg PUBLIC "-//W3C//DTD SVG 1.1//EN" 
 "http://www.w3.org/Graphics/SVG/1.1/DTD/svg11.dtd"> 
<svg xmlns="http://www.w3.org/2000/svg" version="1.1" 
    width="27.94cm" height="21.59cm" viewBox="0 0 110000 85000 ">
<title>SVG Picture created as dropbot_control_board-F.Paste.svg date 2017/03/07 17:39:21 </title>
  <desc>Picture generated by PCBNEW </desc>
<g style="fill:#000000; fill-opacity:1;stroke:#000000; stroke-opacity:1;
stroke-linecap:round; stroke-linejoin:round; "
 transform="translate(0 0) scale(1 1)">
</g>
<g style="fill:#000000; fill-opacity:0.0; 
stroke:#000000; stroke-width:-0.000393701; stroke-opacity:1; 
stroke-linecap:round; stroke-linejoin:round;">
</g>
<g style="fill:#000000; fill-opacity:0.0; 
stroke:#000000; stroke-width:39.3701; stroke-opacity:1; 
stroke-linecap:round; stroke-linejoin:round;">
</g>
<g style="fill:#000000; fill-opacity:0.0; 
stroke:#000000; stroke-width:59.0551; stroke-opacity:1; 
stroke-linecap:round; stroke-linejoin:round;">
<rect x="62755.9" y="67677.2" width="42519.7" height="12598.4" rx="0" />
</g>
<g style="fill:#000000; fill-opacity:0.0; 
stroke:#000000; stroke-width:39.3701; stroke-opacity:1; 
stroke-linecap:round; stroke-linejoin:round;">
</g>
<g style="fill:#000000; fill-opacity:0.0; 
stroke:#000000; stroke-width:59.0551; stroke-opacity:1; 
stroke-linecap:round; stroke-linejoin:round;">
<rect x="3937.01" y="3937.01" width="102126" height="77126" rx="0" />
</g>
<g style="fill:#000000; fill-opacity:0.0; 
stroke:#000000; stroke-width:39.3701; stroke-opacity:1; 
stroke-linecap:round; stroke-linejoin:round;">
</g>
<g style="fill:#000000; fill-opacity:0.0; 
stroke:#000000; stroke-width:59.0551; stroke-opacity:1; 
stroke-linecap:round; stroke-linejoin:round;">
<rect x="4724.41" y="4724.41" width="100551" height="75551.2" rx="0" />
</g>
<g style="fill:#000000; fill-opacity:0.0; 
stroke:#000000; stroke-width:39.3701; stroke-opacity:1; 
stroke-linecap:round; stroke-linejoin:round;">
</g>
<g style="fill:#000000; fill-opacity:0.0; 
stroke:#000000; stroke-width:59.0551; stroke-opacity:1; 
stroke-linecap:round; stroke-linejoin:round;">
<path d="M23622 4724
L23622 3937
" />
</g>
<g style="fill:#000000; fill-opacity:0.0; 
stroke:#000000; stroke-width:39.3701; stroke-opacity:1; 
stroke-linecap:round; stroke-linejoin:round;">
</g>
<g style="fill:#000000; fill-opacity:0.0; 
stroke:#000000; stroke-width:59.0551; stroke-opacity:1; 
stroke-linecap:round; stroke-linejoin:round;">
<path d="M43307 4724
L43307 3937
" />
</g>
<g style="fill:#000000; fill-opacity:0.0; 
stroke:#000000; stroke-width:39.3701; stroke-opacity:1; 
stroke-linecap:round; stroke-linejoin:round;">
</g>
<g style="fill:#000000; fill-opacity:0.0; 
stroke:#000000; stroke-width:59.0551; stroke-opacity:1; 
stroke-linecap:round; stroke-linejoin:round;">
<path d="M62992 4724
L62992 3937
" />
</g>
<g style="fill:#000000; fill-opacity:0.0; 
stroke:#000000; stroke-width:39.3701; stroke-opacity:1; 
stroke-linecap:round; stroke-linejoin:round;">
</g>
<g style="fill:#000000; fill-opacity:0.0; 
stroke:#000000; stroke-width:59.0551; stroke-opacity:1; 
stroke-linecap:round; stroke-linejoin:round;">
<path d="M82677 4724
L82677 3937
" />
</g>
<g style="fill:#000000; fill-opacity:0.0; 
stroke:#000000; stroke-width:39.3701; stroke-opacity:1; 
stroke-linecap:round; stroke-linejoin:round;">
</g>
<g style="fill:#000000; fill-opacity:0.0; 
stroke:#000000; stroke-width:59.0551; stroke-opacity:1; 
stroke-linecap:round; stroke-linejoin:round;">
<path d="M102362 4724
L102362 3937
" />
</g>
<g style="fill:#000000; fill-opacity:0.0; 
stroke:#000000; stroke-width:39.3701; stroke-opacity:1; 
stroke-linecap:round; stroke-linejoin:round;">
</g>
<g style="fill:#000000; fill-opacity:0.0; 
stroke:#000000; stroke-width:59.0551; stroke-opacity:1; 
stroke-linecap:round; stroke-linejoin:round;">
<path d="M14169 4562
L13877 4562
" />
<path d="M14023 4562
L14023 4050
L13974 4123
L13925 4172
L13877 4196
" />
</g>
<g style="fill:#000000; fill-opacity:0.0; 
stroke:#000000; stroke-width:39.3701; stroke-opacity:1; 
stroke-linecap:round; stroke-linejoin:round;">
</g>
<g style="fill:#000000; fill-opacity:0.0; 
stroke:#000000; stroke-width:59.0551; stroke-opacity:1; 
stroke-linecap:round; stroke-linejoin:round;">
<path d="M33562 4099
L33586 4074
L33635 4050
L33757 4050
L33805 4074
L33830 4099
L33854 4147
L33854 4196
L33830 4269
L33537 4562
L33854 4562
" />
</g>
<g style="fill:#000000; fill-opacity:0.0; 
stroke:#000000; stroke-width:39.3701; stroke-opacity:1; 
stroke-linecap:round; stroke-linejoin:round;">
</g>
<g style="fill:#000000; fill-opacity:0.0; 
stroke:#000000; stroke-width:59.0551; stroke-opacity:1; 
stroke-linecap:round; stroke-linejoin:round;">
<path d="M53222 4050
L53539 4050
L53368 4245
L53442 4245
L53490 4269
L53515 4294
L53539 4342
L53539 4464
L53515 4513
L53490 4537
L53442 4562
L53295 4562
L53247 4537
L53222 4513
" />
</g>
<g style="fill:#000000; fill-opacity:0.0; 
stroke:#000000; stroke-width:39.3701; stroke-opacity:1; 
stroke-linecap:round; stroke-linejoin:round;">
</g>
<g style="fill:#000000; fill-opacity:0.0; 
stroke:#000000; stroke-width:59.0551; stroke-opacity:1; 
stroke-linecap:round; stroke-linejoin:round;">
<path d="M73175 4221
L73175 4562
" />
<path d="M73053 4026
L72932 4391
L73248 4391
" />
</g>
<g style="fill:#000000; fill-opacity:0.0; 
stroke:#000000; stroke-width:39.3701; stroke-opacity:1; 
stroke-linecap:round; stroke-linejoin:round;">
</g>
<g style="fill:#000000; fill-opacity:0.0; 
stroke:#000000; stroke-width:59.0551; stroke-opacity:1; 
stroke-linecap:round; stroke-linejoin:round;">
<path d="M92885 4050
L92641 4050
L92617 4294
L92641 4269
L92690 4245
L92812 4245
L92860 4269
L92885 4294
L92909 4342
L92909 4464
L92885 4513
L92860 4537
L92812 4562
L92690 4562
L92641 4537
L92617 4513
" />
</g>
<g style="fill:#000000; fill-opacity:0.0; 
stroke:#000000; stroke-width:39.3701; stroke-opacity:1; 
stroke-linecap:round; stroke-linejoin:round;">
</g>
<g style="fill:#000000; fill-opacity:0.0; 
stroke:#000000; stroke-width:59.0551; stroke-opacity:1; 
stroke-linecap:round; stroke-linejoin:round;">
<path d="M23622 80275
L23622 81062
" />
</g>
<g style="fill:#000000; fill-opacity:0.0; 
stroke:#000000; stroke-width:39.3701; stroke-opacity:1; 
stroke-linecap:round; stroke-linejoin:round;">
</g>
<g style="fill:#000000; fill-opacity:0.0; 
stroke:#000000; stroke-width:59.0551; stroke-opacity:1; 
stroke-linecap:round; stroke-linejoin:round;">
<path d="M43307 80275
L43307 81062
" />
</g>
<g style="fill:#000000; fill-opacity:0.0; 
stroke:#000000; stroke-width:39.3701; stroke-opacity:1; 
stroke-linecap:round; stroke-linejoin:round;">
</g>
<g style="fill:#000000; fill-opacity:0.0; 
stroke:#000000; stroke-width:59.0551; stroke-opacity:1; 
stroke-linecap:round; stroke-linejoin:round;">
<path d="M62992 80275
L62992 81062
" />
</g>
<g style="fill:#000000; fill-opacity:0.0; 
stroke:#000000; stroke-width:39.3701; stroke-opacity:1; 
stroke-linecap:round; stroke-linejoin:round;">
</g>
<g style="fill:#000000; fill-opacity:0.0; 
stroke:#000000; stroke-width:59.0551; stroke-opacity:1; 
stroke-linecap:round; stroke-linejoin:round;">
<path d="M82677 80275
L82677 81062
" />
</g>
<g style="fill:#000000; fill-opacity:0.0; 
stroke:#000000; stroke-width:39.3701; stroke-opacity:1; 
stroke-linecap:round; stroke-linejoin:round;">
</g>
<g style="fill:#000000; fill-opacity:0.0; 
stroke:#000000; stroke-width:59.0551; stroke-opacity:1; 
stroke-linecap:round; stroke-linejoin:round;">
<path d="M102362 80275
L102362 81062
" />
</g>
<g style="fill:#000000; fill-opacity:0.0; 
stroke:#000000; stroke-width:39.3701; stroke-opacity:1; 
stroke-linecap:round; stroke-linejoin:round;">
</g>
<g style="fill:#000000; fill-opacity:0.0; 
stroke:#000000; stroke-width:59.0551; stroke-opacity:1; 
stroke-linecap:round; stroke-linejoin:round;">
<path d="M14169 80900
L13877 80900
" />
<path d="M14023 80900
L14023 80389
L13974 80462
L13925 80510
L13877 80535
" />
</g>
<g style="fill:#000000; fill-opacity:0.0; 
stroke:#000000; stroke-width:39.3701; stroke-opacity:1; 
stroke-linecap:round; stroke-linejoin:round;">
</g>
<g style="fill:#000000; fill-opacity:0.0; 
stroke:#000000; stroke-width:59.0551; stroke-opacity:1; 
stroke-linecap:round; stroke-linejoin:round;">
<path d="M33562 80437
L33586 80413
L33635 80389
L33757 80389
L33805 80413
L33830 80437
L33854 80486
L33854 80535
L33830 80608
L33537 80900
L33854 80900
" />
</g>
<g style="fill:#000000; fill-opacity:0.0; 
stroke:#000000; stroke-width:39.3701; stroke-opacity:1; 
stroke-linecap:round; stroke-linejoin:round;">
</g>
<g style="fill:#000000; fill-opacity:0.0; 
stroke:#000000; stroke-width:59.0551; stroke-opacity:1; 
stroke-linecap:round; stroke-linejoin:round;">
<path d="M53222 80389
L53539 80389
L53368 80583
L53442 80583
L53490 80608
L53515 80632
L53539 80681
L53539 80803
L53515 80852
L53490 80876
L53442 80900
L53295 80900
L53247 80876
L53222 80852
" />
</g>
<g style="fill:#000000; fill-opacity:0.0; 
stroke:#000000; stroke-width:39.3701; stroke-opacity:1; 
stroke-linecap:round; stroke-linejoin:round;">
</g>
<g style="fill:#000000; fill-opacity:0.0; 
stroke:#000000; stroke-width:59.0551; stroke-opacity:1; 
stroke-linecap:round; stroke-linejoin:round;">
<path d="M73175 80559
L73175 80900
" />
<path d="M73053 80364
L72932 80730
L73248 80730
" />
</g>
<g style="fill:#000000; fill-opacity:0.0; 
stroke:#000000; stroke-width:39.3701; stroke-opacity:1; 
stroke-linecap:round; stroke-linejoin:round;">
</g>
<g style="fill:#000000; fill-opacity:0.0; 
stroke:#000000; stroke-width:59.0551; stroke-opacity:1; 
stroke-linecap:round; stroke-linejoin:round;">
<path d="M92885 80389
L92641 80389
L92617 80632
L92641 80608
L92690 80583
L92812 80583
L92860 80608
L92885 80632
L92909 80681
L92909 80803
L92885 80852
L92860 80876
L92812 80900
L92690 80900
L92641 80876
L92617 80852
" />
</g>
<g style="fill:#000000; fill-opacity:0.0; 
stroke:#000000; stroke-width:39.3701; stroke-opacity:1; 
stroke-linecap:round; stroke-linejoin:round;">
</g>
<g style="fill:#000000; fill-opacity:0.0; 
stroke:#000000; stroke-width:59.0551; stroke-opacity:1; 
stroke-linecap:round; stroke-linejoin:round;">
<path d="M3937 23622
L4724 23622
" />
</g>
<g style="fill:#000000; fill-opacity:0.0; 
stroke:#000000; stroke-width:39.3701; stroke-opacity:1; 
stroke-linecap:round; stroke-linejoin:round;">
</g>
<g style="fill:#000000; fill-opacity:0.0; 
stroke:#000000; stroke-width:59.0551; stroke-opacity:1; 
stroke-linecap:round; stroke-linejoin:round;">
<path d="M3937 43307
L4724 43307
" />
</g>
<g style="fill:#000000; fill-opacity:0.0; 
stroke:#000000; stroke-width:39.3701; stroke-opacity:1; 
stroke-linecap:round; stroke-linejoin:round;">
</g>
<g style="fill:#000000; fill-opacity:0.0; 
stroke:#000000; stroke-width:59.0551; stroke-opacity:1; 
stroke-linecap:round; stroke-linejoin:round;">
<path d="M3937 62992
L4724 62992
" />
</g>
<g style="fill:#000000; fill-opacity:0.0; 
stroke:#000000; stroke-width:39.3701; stroke-opacity:1; 
stroke-linecap:round; stroke-linejoin:round;">
</g>
<g style="fill:#000000; fill-opacity:0.0; 
stroke:#000000; stroke-width:59.0551; stroke-opacity:1; 
stroke-linecap:round; stroke-linejoin:round;">
<path d="M4208 13864
L4452 13864
" />
<path d="M4160 14011
L4330 13499
L4501 14011
" />
</g>
<g style="fill:#000000; fill-opacity:0.0; 
stroke:#000000; stroke-width:39.3701; stroke-opacity:1; 
stroke-linecap:round; stroke-linejoin:round;">
</g>
<g style="fill:#000000; fill-opacity:0.0; 
stroke:#000000; stroke-width:59.0551; stroke-opacity:1; 
stroke-linecap:round; stroke-linejoin:round;">
<path d="M4367 33428
L4440 33452
L4464 33476
L4489 33525
L4489 33598
L4464 33647
L4440 33671
L4391 33696
L4196 33696
L4196 33184
L4367 33184
L4416 33208
L4440 33233
L4464 33281
L4464 33330
L4440 33379
L4416 33403
L4367 33428
L4196 33428
" />
</g>
<g style="fill:#000000; fill-opacity:0.0; 
stroke:#000000; stroke-width:39.3701; stroke-opacity:1; 
stroke-linecap:round; stroke-linejoin:round;">
</g>
<g style="fill:#000000; fill-opacity:0.0; 
stroke:#000000; stroke-width:59.0551; stroke-opacity:1; 
stroke-linecap:round; stroke-linejoin:round;">
<path d="M4489 53332
L4464 53356
L4391 53381
L4342 53381
L4269 53356
L4221 53308
L4196 53259
L4172 53161
L4172 53088
L4196 52991
L4221 52942
L4269 52893
L4342 52869
L4391 52869
L4464 52893
L4489 52918
" />
</g>
<g style="fill:#000000; fill-opacity:0.0; 
stroke:#000000; stroke-width:39.3701; stroke-opacity:1; 
stroke-linecap:round; stroke-linejoin:round;">
</g>
<g style="fill:#000000; fill-opacity:0.0; 
stroke:#000000; stroke-width:59.0551; stroke-opacity:1; 
stroke-linecap:round; stroke-linejoin:round;">
<path d="M4196 73066
L4196 72554
L4318 72554
L4391 72578
L4440 72627
L4464 72676
L4489 72773
L4489 72846
L4464 72944
L4440 72993
L4391 73041
L4318 73066
L4196 73066
" />
</g>
<g style="fill:#000000; fill-opacity:0.0; 
stroke:#000000; stroke-width:39.3701; stroke-opacity:1; 
stroke-linecap:round; stroke-linejoin:round;">
</g>
<g style="fill:#000000; fill-opacity:0.0; 
stroke:#000000; stroke-width:59.0551; stroke-opacity:1; 
stroke-linecap:round; stroke-linejoin:round;">
<path d="M106062 23622
L105275 23622
" />
</g>
<g style="fill:#000000; fill-opacity:0.0; 
stroke:#000000; stroke-width:39.3701; stroke-opacity:1; 
stroke-linecap:round; stroke-linejoin:round;">
</g>
<g style="fill:#000000; fill-opacity:0.0; 
stroke:#000000; stroke-width:59.0551; stroke-opacity:1; 
stroke-linecap:round; stroke-linejoin:round;">
<path d="M106062 43307
L105275 43307
" />
</g>
<g style="fill:#000000; fill-opacity:0.0; 
stroke:#000000; stroke-width:39.3701; stroke-opacity:1; 
stroke-linecap:round; stroke-linejoin:round;">
</g>
<g style="fill:#000000; fill-opacity:0.0; 
stroke:#000000; stroke-width:59.0551; stroke-opacity:1; 
stroke-linecap:round; stroke-linejoin:round;">
<path d="M106062 62992
L105275 62992
" />
</g>
<g style="fill:#000000; fill-opacity:0.0; 
stroke:#000000; stroke-width:39.3701; stroke-opacity:1; 
stroke-linecap:round; stroke-linejoin:round;">
</g>
<g style="fill:#000000; fill-opacity:0.0; 
stroke:#000000; stroke-width:59.0551; stroke-opacity:1; 
stroke-linecap:round; stroke-linejoin:round;">
<path d="M105547 13864
L105791 13864
" />
<path d="M105498 14011
L105669 13499
L105839 14011
" />
</g>
<g style="fill:#000000; fill-opacity:0.0; 
stroke:#000000; stroke-width:39.3701; stroke-opacity:1; 
stroke-linecap:round; stroke-linejoin:round;">
</g>
<g style="fill:#000000; fill-opacity:0.0; 
stroke:#000000; stroke-width:59.0551; stroke-opacity:1; 
stroke-linecap:round; stroke-linejoin:round;">
<path d="M105705 33428
L105778 33452
L105803 33476
L105827 33525
L105827 33598
L105803 33647
L105778 33671
L105730 33696
L105535 33696
L105535 33184
L105705 33184
L105754 33208
L105778 33233
L105803 33281
L105803 33330
L105778 33379
L105754 33403
L105705 33428
L105535 33428
" />
</g>
<g style="fill:#000000; fill-opacity:0.0; 
stroke:#000000; stroke-width:39.3701; stroke-opacity:1; 
stroke-linecap:round; stroke-linejoin:round;">
</g>
<g style="fill:#000000; fill-opacity:0.0; 
stroke:#000000; stroke-width:59.0551; stroke-opacity:1; 
stroke-linecap:round; stroke-linejoin:round;">
<path d="M105827 53332
L105803 53356
L105730 53381
L105681 53381
L105608 53356
L105559 53308
L105535 53259
L105510 53161
L105510 53088
L105535 52991
L105559 52942
L105608 52893
L105681 52869
L105730 52869
L105803 52893
L105827 52918
" />
</g>
<g style="fill:#000000; fill-opacity:0.0; 
stroke:#000000; stroke-width:39.3701; stroke-opacity:1; 
stroke-linecap:round; stroke-linejoin:round;">
</g>
<g style="fill:#000000; fill-opacity:0.0; 
stroke:#000000; stroke-width:59.0551; stroke-opacity:1; 
stroke-linecap:round; stroke-linejoin:round;">
<path d="M105535 73066
L105535 72554
L105657 72554
L105730 72578
L105778 72627
L105803 72676
L105827 72773
L105827 72846
L105803 72944
L105778 72993
L105730 73041
L105657 73066
L105535 73066
" />
</g>
<g style="fill:#000000; fill-opacity:0.0; 
stroke:#000000; stroke-width:39.3701; stroke-opacity:1; 
stroke-linecap:round; stroke-linejoin:round;">
</g>
<g style="fill:#000000; fill-opacity:0.0; 
stroke:#000000; stroke-width:59.0551; stroke-opacity:1; 
stroke-linecap:round; stroke-linejoin:round;">
<path d="M71951 78613
L71951 78023
L72092 78023
L72176 78051
L72232 78107
L72260 78163
L72289 78276
L72289 78360
L72260 78473
L72232 78529
L72176 78585
L72092 78613
L71951 78613
" />
<path d="M72795 78613
L72795 78304
L72767 78248
L72710 78219
L72598 78219
L72542 78248
" />
<path d="M72795 78585
L72739 78613
L72598 78613
L72542 78585
L72514 78529
L72514 78473
L72542 78416
L72598 78388
L72739 78388
L72795 78360
" />
<path d="M72992 78219
L73217 78219
" />
<path d="M73076 78023
L73076 78529
L73104 78585
L73160 78613
L73217 78613
" />
<path d="M73638 78585
L73582 78613
L73470 78613
L73413 78585
L73385 78529
L73385 78304
L73413 78248
L73470 78219
L73582 78219
L73638 78248
L73667 78304
L73667 78360
L73385 78416
" />
<path d="M73920 78557
L73948 78585
L73920 78613
L73892 78585
L73920 78557
L73920 78613
" />
<path d="M73920 78248
L73948 78276
L73920 78304
L73892 78276
L73920 78248
L73920 78304
" />
<path d="M74623 78079
L74651 78051
L74707 78023
L74848 78023
L74904 78051
L74932 78079
L74960 78135
L74960 78191
L74932 78276
L74595 78613
L74960 78613
" />
<path d="M75326 78023
L75382 78023
L75438 78051
L75466 78079
L75494 78135
L75523 78248
L75523 78388
L75494 78501
L75466 78557
L75438 78585
L75382 78613
L75326 78613
L75269 78585
L75241 78557
L75213 78501
L75185 78388
L75185 78248
L75213 78135
L75241 78079
L75269 78051
L75326 78023
" />
<path d="M76085 78613
L75748 78613
" />
<path d="M75916 78613
L75916 78023
L75860 78107
L75804 78163
L75748 78191
" />
<path d="M76282 78023
L76676 78023
L76422 78613
" />
<path d="M76901 78388
L77350 78388
" />
<path d="M77744 78023
L77800 78023
L77857 78051
L77885 78079
L77913 78135
L77941 78248
L77941 78388
L77913 78501
L77885 78557
L77857 78585
L77800 78613
L77744 78613
L77688 78585
L77660 78557
L77632 78501
L77604 78388
L77604 78248
L77632 78135
L77660 78079
L77688 78051
L77744 78023
" />
<path d="M78138 78023
L78503 78023
L78307 78248
L78391 78248
L78447 78276
L78475 78304
L78503 78360
L78503 78501
L78475 78557
L78447 78585
L78391 78613
L78222 78613
L78166 78585
L78138 78557
" />
<path d="M78757 78388
L79206 78388
" />
<path d="M79600 78023
L79656 78023
L79713 78051
L79741 78079
L79769 78135
L79797 78248
L79797 78388
L79769 78501
L79741 78557
L79713 78585
L79656 78613
L79600 78613
L79544 78585
L79516 78557
L79488 78501
L79460 78388
L79460 78248
L79488 78135
L79516 78079
L79544 78051
L79600 78023
" />
<path d="M79994 78023
L80388 78023
L80134 78613
" />
</g>
<g style="fill:#000000; fill-opacity:0.0; 
stroke:#000000; stroke-width:39.3701; stroke-opacity:1; 
stroke-linecap:round; stroke-linejoin:round;">
</g>
<g style="fill:#000000; fill-opacity:0.0; 
stroke:#000000; stroke-width:59.0551; stroke-opacity:1; 
stroke-linecap:round; stroke-linejoin:round;">
<path d="M62755 78897
L105275 78897
" />
</g>
<g style="fill:#000000; fill-opacity:0.0; 
stroke:#000000; stroke-width:39.3701; stroke-opacity:1; 
stroke-linecap:round; stroke-linejoin:round;">
</g>
<g style="fill:#000000; fill-opacity:0.0; 
stroke:#000000; stroke-width:59.0551; stroke-opacity:1; 
stroke-linecap:round; stroke-linejoin:round;">
<path d="M63290 79715
L63290 79125
" />
<path d="M63627 79715
L63374 79378
" />
<path d="M63627 79125
L63290 79462
" />
<path d="M63880 79715
L63880 79322
" />
<path d="M63880 79125
L63852 79153
L63880 79181
L63908 79153
L63880 79125
L63880 79181
" />
<path d="M64499 79659
L64471 79687
L64386 79715
L64330 79715
L64246 79687
L64190 79631
L64161 79575
L64133 79462
L64133 79378
L64161 79266
L64190 79209
L64246 79153
L64330 79125
L64386 79125
L64471 79153
L64499 79181
" />
<path d="M65005 79715
L65005 79406
L64977 79350
L64921 79322
L64808 79322
L64752 79350
" />
<path d="M65005 79687
L64949 79715
L64808 79715
L64752 79687
L64724 79631
L64724 79575
L64752 79519
L64808 79491
L64949 79491
L65005 79462
" />
<path d="M65539 79715
L65539 79125
" />
<path d="M65539 79687
L65483 79715
L65371 79715
L65314 79687
L65286 79659
L65258 79603
L65258 79434
L65286 79378
L65314 79350
L65371 79322
L65483 79322
L65539 79350
" />
<path d="M66271 79406
L66467 79406
" />
<path d="M66552 79715
L66271 79715
L66271 79125
L66552 79125
" />
<path d="M66805 79659
L66833 79687
L66805 79715
L66777 79687
L66805 79659
L66805 79715
" />
<path d="M67086 79715
L67086 79125
L67227 79125
L67311 79153
L67367 79209
L67395 79266
L67424 79378
L67424 79462
L67395 79575
L67367 79631
L67311 79687
L67227 79715
L67086 79715
" />
<path d="M67677 79659
L67705 79687
L67677 79715
L67649 79687
L67677 79659
L67677 79715
" />
<path d="M67930 79547
L68211 79547
" />
<path d="M67874 79715
L68070 79125
L68267 79715
" />
<path d="M68464 79659
L68492 79687
L68464 79715
L68436 79687
L68464 79659
L68464 79715
" />
<path d="M69645 79715
L69645 79125
" />
<path d="M69701 79491
L69870 79715
" />
<path d="M69870 79322
L69645 79547
" />
<path d="M70123 79715
L70123 79322
" />
<path d="M70123 79125
L70095 79153
L70123 79181
L70151 79153
L70123 79125
L70123 79181
" />
<path d="M70658 79687
L70601 79715
L70489 79715
L70433 79687
L70404 79659
L70376 79603
L70376 79434
L70404 79378
L70433 79350
L70489 79322
L70601 79322
L70658 79350
" />
<path d="M71164 79715
L71164 79406
L71136 79350
L71079 79322
L70967 79322
L70911 79350
" />
<path d="M71164 79687
L71107 79715
L70967 79715
L70911 79687
L70883 79631
L70883 79575
L70911 79519
L70967 79491
L71107 79491
L71164 79462
" />
<path d="M71698 79715
L71698 79125
" />
<path d="M71698 79687
L71642 79715
L71529 79715
L71473 79687
L71445 79659
L71417 79603
L71417 79434
L71445 79378
L71473 79350
L71529 79322
L71642 79322
L71698 79350
" />
<path d="M72682 79322
L72682 79715
" />
<path d="M72542 79097
L72401 79519
L72767 79519
" />
<path d="M72992 79659
L73020 79687
L72992 79715
L72964 79687
L72992 79659
L72992 79715
" />
<path d="M73385 79125
L73442 79125
L73498 79153
L73526 79181
L73554 79237
L73582 79350
L73582 79491
L73554 79603
L73526 79659
L73498 79687
L73442 79715
L73385 79715
L73329 79687
L73301 79659
L73273 79603
L73245 79491
L73245 79350
L73273 79237
L73301 79181
L73329 79153
L73385 79125
" />
<path d="M73835 79659
L73863 79687
L73835 79715
L73807 79687
L73835 79659
L73835 79715
" />
<path d="M74426 79715
L74088 79715
" />
<path d="M74257 79715
L74257 79125
L74201 79209
L74145 79266
L74088 79294
" />
<path d="M74679 79491
L75129 79491
" />
<path d="M75382 79687
L75438 79715
L75551 79715
L75607 79687
L75635 79631
L75635 79603
L75607 79547
L75551 79519
L75466 79519
L75410 79491
L75382 79434
L75382 79406
L75410 79350
L75466 79322
L75551 79322
L75607 79350
" />
<path d="M75804 79322
L76029 79322
" />
<path d="M75888 79125
L75888 79631
L75916 79687
L75973 79715
L76029 79715
" />
<path d="M76479 79715
L76479 79406
L76451 79350
L76394 79322
L76282 79322
L76226 79350
" />
<path d="M76479 79687
L76422 79715
L76282 79715
L76226 79687
L76197 79631
L76197 79575
L76226 79519
L76282 79491
L76422 79491
L76479 79462
" />
<path d="M76760 79715
L76760 79125
" />
<path d="M76760 79350
L76816 79322
L76929 79322
L76985 79350
L77013 79378
L77041 79434
L77041 79603
L77013 79659
L76985 79687
L76929 79715
L76816 79715
L76760 79687
" />
<path d="M77379 79715
L77322 79687
L77294 79631
L77294 79125
" />
<path d="M77829 79687
L77772 79715
L77660 79715
L77604 79687
L77575 79631
L77575 79406
L77604 79350
L77660 79322
L77772 79322
L77829 79350
L77857 79406
L77857 79462
L77575 79519
" />
</g>
<g style="fill:#000000; fill-opacity:0.0; 
stroke:#000000; stroke-width:39.3701; stroke-opacity:1; 
stroke-linecap:round; stroke-linejoin:round;">
</g>
<g style="fill:#000000; fill-opacity:0.0; 
stroke:#000000; stroke-width:59.0551; stroke-opacity:1; 
stroke-linecap:round; stroke-linejoin:round;">
<path d="M62755 77716
L105275 77716
" />
</g>
<g style="fill:#000000; fill-opacity:0.0; 
stroke:#000000; stroke-width:39.3701; stroke-opacity:1; 
stroke-linecap:round; stroke-linejoin:round;">
</g>
<g style="fill:#000000; fill-opacity:0.0; 
stroke:#000000; stroke-width:118.11; stroke-opacity:1; 
stroke-linecap:round; stroke-linejoin:round;">
<path d="M97092 78613
L96895 78332
" />
<path d="M96754 78613
L96754 78023
L96979 78023
L97035 78051
L97064 78079
L97092 78135
L97092 78219
L97064 78276
L97035 78304
L96979 78332
L96754 78332
" />
<path d="M97570 78585
L97514 78613
L97401 78613
L97345 78585
L97317 78529
L97317 78304
L97345 78248
L97401 78219
L97514 78219
L97570 78248
L97598 78304
L97598 78360
L97317 78416
" />
<path d="M97795 78219
L97935 78613
L98076 78219
" />
<path d="M98301 78557
L98329 78585
L98301 78613
L98273 78585
L98301 78557
L98301 78613
" />
<path d="M98301 78248
L98329 78276
L98301 78304
L98273 78276
L98301 78248
L98301 78304
" />
<path d="M98976 78023
L99341 78023
L99145 78248
L99229 78248
L99285 78276
L99313 78304
L99341 78360
L99341 78501
L99313 78557
L99285 78585
L99229 78613
L99060 78613
L99004 78585
L98976 78557
" />
<path d="M99595 78557
L99623 78585
L99595 78613
L99566 78585
L99595 78557
L99595 78613
" />
<path d="M100185 78613
L99848 78613
" />
<path d="M100016 78613
L100016 78023
L99960 78107
L99904 78163
L99848 78191
" />
</g>
<g style="fill:#000000; fill-opacity:0.0; 
stroke:#000000; stroke-width:39.3701; stroke-opacity:1; 
stroke-linecap:round; stroke-linejoin:round;">
</g>
<g style="fill:#000000; fill-opacity:0.0; 
stroke:#000000; stroke-width:59.0551; stroke-opacity:1; 
stroke-linecap:round; stroke-linejoin:round;">
<path d="M63262 78585
L63346 78613
L63487 78613
L63543 78585
L63571 78557
L63599 78501
L63599 78444
L63571 78388
L63543 78360
L63487 78332
L63374 78304
L63318 78276
L63290 78248
L63262 78191
L63262 78135
L63290 78079
L63318 78051
L63374 78023
L63515 78023
L63599 78051
" />
<path d="M63852 78613
L63852 78219
" />
<path d="M63852 78023
L63824 78051
L63852 78079
L63880 78051
L63852 78023
L63852 78079
" />
<path d="M64077 78219
L64386 78219
L64077 78613
L64386 78613
" />
<path d="M64836 78585
L64780 78613
L64668 78613
L64611 78585
L64583 78529
L64583 78304
L64611 78248
L64668 78219
L64780 78219
L64836 78248
L64865 78304
L64865 78360
L64583 78416
" />
<path d="M65118 78557
L65146 78585
L65118 78613
L65089 78585
L65118 78557
L65118 78613
" />
<path d="M65118 78248
L65146 78276
L65118 78304
L65089 78276
L65118 78248
L65118 78304
" />
<path d="M65849 78023
L65849 78501
L65877 78557
L65905 78585
L65961 78613
L66074 78613
L66130 78585
L66158 78557
L66186 78501
L66186 78023
" />
<path d="M66439 78585
L66524 78613
L66664 78613
L66721 78585
L66749 78557
L66777 78501
L66777 78444
L66749 78388
L66721 78360
L66664 78332
L66552 78304
L66496 78276
L66467 78248
L66439 78191
L66439 78135
L66467 78079
L66496 78051
L66552 78023
L66692 78023
L66777 78051
" />
<path d="M67311 78613
L67030 78613
L67030 78023
" />
<path d="M67733 78585
L67677 78613
L67564 78613
L67508 78585
L67480 78529
L67480 78304
L67508 78248
L67564 78219
L67677 78219
L67733 78248
L67761 78304
L67761 78360
L67480 78416
" />
<path d="M67930 78219
L68155 78219
" />
<path d="M68014 78023
L68014 78529
L68042 78585
L68098 78613
L68155 78613
" />
<path d="M68267 78219
L68492 78219
" />
<path d="M68352 78023
L68352 78529
L68380 78585
L68436 78613
L68492 78613
" />
<path d="M68914 78585
L68858 78613
L68745 78613
L68689 78585
L68661 78529
L68661 78304
L68689 78248
L68745 78219
L68858 78219
L68914 78248
L68942 78304
L68942 78360
L68661 78416
" />
<path d="M69195 78613
L69195 78219
" />
<path d="M69195 78332
L69223 78276
L69251 78248
L69308 78219
L69364 78219
" />
</g>
<g style="fill:#000000; fill-opacity:0.0; 
stroke:#000000; stroke-width:39.3701; stroke-opacity:1; 
stroke-linecap:round; stroke-linejoin:round;">
</g>
<g style="fill:#000000; fill-opacity:0.0; 
stroke:#000000; stroke-width:59.0551; stroke-opacity:1; 
stroke-linecap:round; stroke-linejoin:round;">
<path d="M96754 79715
L96754 79125
" />
<path d="M97289 79715
L97289 79125
" />
<path d="M97289 79687
L97232 79715
L97120 79715
L97064 79687
L97035 79659
L97007 79603
L97007 79434
L97035 79378
L97064 79350
L97120 79322
L97232 79322
L97289 79350
" />
<path d="M97570 79659
L97598 79687
L97570 79715
L97542 79687
L97570 79659
L97570 79715
" />
<path d="M97570 79350
L97598 79378
L97570 79406
L97542 79378
L97570 79350
L97570 79406
" />
<path d="M98610 79715
L98273 79715
" />
<path d="M98442 79715
L98442 79125
L98385 79209
L98329 79266
L98273 79294
" />
<path d="M99285 79097
L98779 79856
" />
<path d="M99791 79715
L99454 79715
" />
<path d="M99623 79715
L99623 79125
L99566 79209
L99510 79266
L99454 79294
" />
</g>
<g style="fill:#000000; fill-opacity:0.0; 
stroke:#000000; stroke-width:39.3701; stroke-opacity:1; 
stroke-linecap:round; stroke-linejoin:round;">
</g>
<g style="fill:#000000; fill-opacity:0.0; 
stroke:#000000; stroke-width:59.0551; stroke-opacity:1; 
stroke-linecap:round; stroke-linejoin:round;">
<path d="M62755 76141
L105275 76141
" />
</g>
<g style="fill:#000000; fill-opacity:0.0; 
stroke:#000000; stroke-width:39.3701; stroke-opacity:1; 
stroke-linecap:round; stroke-linejoin:round;">
</g>
<g style="fill:#000000; fill-opacity:0.0; 
stroke:#000000; stroke-width:157.48; stroke-opacity:1; 
stroke-linecap:round; stroke-linejoin:round;">
<path d="M63327 76419
L63777 76419
" />
<path d="M63454 77206
L63552 76419
" />
<path d="M63941 77206
L64007 76681
" />
<path d="M64040 76419
L63997 76456
L64030 76494
L64072 76456
L64040 76419
L64030 76494
" />
<path d="M64269 76681
L64569 76681
" />
<path d="M64415 76419
L64330 77094
L64358 77169
L64429 77206
L64504 77206
" />
<path d="M64879 77206
L64808 77169
L64780 77094
L64865 76419
" />
<path d="M65483 77169
L65404 77206
L65254 77206
L65183 77169
L65155 77094
L65193 76794
L65239 76719
L65319 76681
L65469 76681
L65539 76719
L65568 76794
L65558 76869
L65174 76944
" />
<path d="M65863 77131
L65896 77169
L65853 77206
L65821 77169
L65863 77131
L65853 77206
" />
<path d="M65914 76719
L65947 76756
L65905 76794
L65872 76756
L65914 76719
L65905 76794
" />
<path d="M66828 77206
L66927 76419
L67114 76419
L67222 76456
L67288 76531
L67316 76606
L67335 76756
L67320 76869
L67264 77019
L67217 77094
L67133 77169
L67016 77206
L66828 77206
" />
<path d="M67616 77206
L67681 76681
" />
<path d="M67663 76831
L67709 76756
L67752 76719
L67831 76681
L67906 76681
" />
<path d="M68216 77206
L68145 77169
L68113 77131
L68084 77056
L68113 76831
L68159 76756
L68202 76719
L68281 76681
L68394 76681
L68464 76719
L68497 76756
L68525 76831
L68497 77056
L68450 77131
L68408 77169
L68328 77206
L68216 77206
" />
<path d="M68881 76681
L68783 77469
" />
<path d="M68877 76719
L68956 76681
L69106 76681
L69176 76719
L69209 76756
L69237 76831
L69209 77056
L69162 77131
L69120 77169
L69041 77206
L68891 77206
L68820 77169
" />
<path d="M69842 76794
L69950 76831
L69983 76869
L70011 76944
L69997 77056
L69950 77131
L69908 77169
L69828 77206
L69528 77206
L69626 76419
L69889 76419
L69959 76456
L69992 76494
L70020 76569
L70011 76644
L69964 76719
L69922 76756
L69842 76794
L69580 76794
" />
<path d="M70428 77206
L70358 77169
L70325 77131
L70297 77056
L70325 76831
L70372 76756
L70414 76719
L70494 76681
L70606 76681
L70676 76719
L70709 76756
L70737 76831
L70709 77056
L70662 77131
L70620 77169
L70540 77206
L70428 77206
" />
<path d="M70981 76681
L71281 76681
" />
<path d="M71126 76419
L71042 77094
L71070 77169
L71140 77206
L71215 77206
" />
<path d="M72420 77169
L72340 77206
L72190 77206
L72120 77169
L72087 77131
L72059 77056
L72087 76831
L72134 76756
L72176 76719
L72256 76681
L72406 76681
L72476 76719
" />
<path d="M72865 77206
L72795 77169
L72762 77131
L72734 77056
L72762 76831
L72809 76756
L72851 76719
L72931 76681
L73043 76681
L73113 76719
L73146 76756
L73174 76831
L73146 77056
L73099 77131
L73057 77169
L72978 77206
L72865 77206
" />
<path d="M73531 76681
L73465 77206
" />
<path d="M73521 76756
L73563 76719
L73643 76681
L73756 76681
L73826 76719
L73854 76794
L73802 77206
" />
<path d="M74131 76681
L74431 76681
" />
<path d="M74276 76419
L74191 77094
L74220 77169
L74290 77206
L74365 77206
" />
<path d="M74627 77206
L74693 76681
" />
<path d="M74674 76831
L74721 76756
L74763 76719
L74843 76681
L74918 76681
" />
<path d="M75227 77206
L75157 77169
L75124 77131
L75096 77056
L75124 76831
L75171 76756
L75213 76719
L75293 76681
L75405 76681
L75476 76719
L75508 76756
L75537 76831
L75508 77056
L75462 77131
L75419 77169
L75340 77206
L75227 77206
" />
<path d="M75940 77206
L75869 77169
L75841 77094
L75926 76419
" />
<path d="M76840 77206
L76938 76419
" />
<path d="M76901 76719
L76980 76681
L77130 76681
L77200 76719
L77233 76756
L77261 76831
L77233 77056
L77186 77131
L77144 77169
L77065 77206
L76915 77206
L76844 77169
" />
<path d="M77664 77206
L77594 77169
L77561 77131
L77533 77056
L77561 76831
L77608 76756
L77650 76719
L77730 76681
L77843 76681
L77913 76719
L77946 76756
L77974 76831
L77946 77056
L77899 77131
L77857 77169
L77777 77206
L77664 77206
" />
<path d="M78602 77206
L78653 76794
L78625 76719
L78555 76681
L78405 76681
L78325 76719
" />
<path d="M78607 77169
L78527 77206
L78339 77206
L78269 77169
L78241 77094
L78250 77019
L78297 76944
L78377 76906
L78564 76906
L78644 76869
" />
<path d="M78977 77206
L79042 76681
" />
<path d="M79024 76831
L79071 76756
L79113 76719
L79192 76681
L79267 76681
" />
<path d="M79802 77206
L79900 76419
" />
<path d="M79806 77169
L79727 77206
L79577 77206
L79506 77169
L79474 77131
L79446 77056
L79474 76831
L79520 76756
L79563 76719
L79642 76681
L79792 76681
L79863 76719
" />
</g>
<g style="fill:#000000; fill-opacity:0.0; 
stroke:#000000; stroke-width:39.3701; stroke-opacity:1; 
stroke-linecap:round; stroke-linejoin:round;">
</g>
<g style="fill:#000000; fill-opacity:0.0; 
stroke:#000000; stroke-width:59.0551; stroke-opacity:1; 
stroke-linecap:round; stroke-linejoin:round;">
<path d="M63487 75390
L63290 75390
" />
<path d="M63290 75700
L63290 75109
L63571 75109
" />
<path d="M63796 75700
L63796 75306
" />
<path d="M63796 75109
L63768 75137
L63796 75165
L63824 75137
L63796 75109
L63796 75165
" />
<path d="M64161 75700
L64105 75672
L64077 75615
L64077 75109
" />
<path d="M64611 75672
L64555 75700
L64443 75700
L64386 75672
L64358 75615
L64358 75390
L64386 75334
L64443 75306
L64555 75306
L64611 75334
L64640 75390
L64640 75447
L64358 75503
" />
<path d="M64893 75643
L64921 75672
L64893 75700
L64865 75672
L64893 75643
L64893 75700
" />
<path d="M64893 75334
L64921 75362
L64893 75390
L64865 75362
L64893 75334
L64893 75390
" />
<path d="M65877 75700
L65877 75109
" />
<path d="M65877 75672
L65821 75700
L65708 75700
L65652 75672
L65624 75643
L65596 75587
L65596 75419
L65624 75362
L65652 75334
L65708 75306
L65821 75306
L65877 75334
" />
<path d="M66158 75700
L66158 75306
" />
<path d="M66158 75419
L66186 75362
L66214 75334
L66271 75306
L66327 75306
" />
<path d="M66608 75700
L66552 75672
L66524 75643
L66496 75587
L66496 75419
L66524 75362
L66552 75334
L66608 75306
L66692 75306
L66749 75334
L66777 75362
L66805 75419
L66805 75587
L66777 75643
L66749 75672
L66692 75700
L66608 75700
" />
<path d="M67058 75306
L67058 75897
" />
<path d="M67058 75334
L67114 75306
L67227 75306
L67283 75334
L67311 75362
L67339 75419
L67339 75587
L67311 75643
L67283 75672
L67227 75700
L67114 75700
L67058 75672
" />
<path d="M67592 75700
L67592 75109
" />
<path d="M67592 75334
L67649 75306
L67761 75306
L67817 75334
L67845 75362
L67874 75419
L67874 75587
L67845 75643
L67817 75672
L67761 75700
L67649 75700
L67592 75672
" />
<path d="M68211 75700
L68155 75672
L68127 75643
L68098 75587
L68098 75419
L68127 75362
L68155 75334
L68211 75306
L68295 75306
L68352 75334
L68380 75362
L68408 75419
L68408 75587
L68380 75643
L68352 75672
L68295 75700
L68211 75700
" />
<path d="M68577 75306
L68802 75306
" />
<path d="M68661 75109
L68661 75615
L68689 75672
L68745 75700
L68802 75700
" />
<path d="M68858 75756
L69308 75756
" />
<path d="M69701 75672
L69645 75700
L69533 75700
L69476 75672
L69448 75643
L69420 75587
L69420 75419
L69448 75362
L69476 75334
L69533 75306
L69645 75306
L69701 75334
" />
<path d="M70039 75700
L69983 75672
L69955 75643
L69926 75587
L69926 75419
L69955 75362
L69983 75334
L70039 75306
L70123 75306
L70179 75334
L70208 75362
L70236 75419
L70236 75587
L70208 75643
L70179 75672
L70123 75700
L70039 75700
" />
<path d="M70489 75306
L70489 75700
" />
<path d="M70489 75362
L70517 75334
L70573 75306
L70658 75306
L70714 75334
L70742 75390
L70742 75700
" />
<path d="M70939 75306
L71164 75306
" />
<path d="M71023 75109
L71023 75615
L71051 75672
L71107 75700
L71164 75700
" />
<path d="M71361 75700
L71361 75306
" />
<path d="M71361 75419
L71389 75362
L71417 75334
L71473 75306
L71529 75306
" />
<path d="M71811 75700
L71754 75672
L71726 75643
L71698 75587
L71698 75419
L71726 75362
L71754 75334
L71811 75306
L71895 75306
L71951 75334
L71979 75362
L72007 75419
L72007 75587
L71979 75643
L71951 75672
L71895 75700
L71811 75700
" />
<path d="M72345 75700
L72289 75672
L72260 75615
L72260 75109
" />
<path d="M72429 75756
L72879 75756
" />
<path d="M73020 75700
L73020 75109
" />
<path d="M73020 75334
L73076 75306
L73188 75306
L73245 75334
L73273 75362
L73301 75419
L73301 75587
L73273 75643
L73245 75672
L73188 75700
L73076 75700
L73020 75672
" />
<path d="M73638 75700
L73582 75672
L73554 75643
L73526 75587
L73526 75419
L73554 75362
L73582 75334
L73638 75306
L73723 75306
L73779 75334
L73807 75362
L73835 75419
L73835 75587
L73807 75643
L73779 75672
L73723 75700
L73638 75700
" />
<path d="M74341 75700
L74341 75390
L74313 75334
L74257 75306
L74145 75306
L74088 75334
" />
<path d="M74341 75672
L74285 75700
L74145 75700
L74088 75672
L74060 75615
L74060 75559
L74088 75503
L74145 75475
L74285 75475
L74341 75447
" />
<path d="M74623 75700
L74623 75306
" />
<path d="M74623 75419
L74651 75362
L74679 75334
L74735 75306
L74791 75306
" />
<path d="M75241 75700
L75241 75109
" />
<path d="M75241 75672
L75185 75700
L75073 75700
L75016 75672
L74988 75643
L74960 75587
L74960 75419
L74988 75362
L75016 75334
L75073 75306
L75185 75306
L75241 75334
" />
<path d="M75523 75643
L75551 75672
L75523 75700
L75494 75672
L75523 75643
L75523 75700
" />
<path d="M75804 75700
L75804 75109
" />
<path d="M75860 75475
L76029 75700
" />
<path d="M76029 75306
L75804 75531
" />
<path d="M76282 75700
L76282 75306
" />
<path d="M76282 75109
L76254 75137
L76282 75165
L76310 75137
L76282 75109
L76282 75165
" />
<path d="M76816 75672
L76760 75700
L76647 75700
L76591 75672
L76563 75643
L76535 75587
L76535 75419
L76563 75362
L76591 75334
L76647 75306
L76760 75306
L76816 75334
" />
<path d="M77322 75700
L77322 75390
L77294 75334
L77238 75306
L77125 75306
L77069 75334
" />
<path d="M77322 75672
L77266 75700
L77125 75700
L77069 75672
L77041 75615
L77041 75559
L77069 75503
L77125 75475
L77266 75475
L77322 75447
" />
<path d="M77857 75700
L77857 75109
" />
<path d="M77857 75672
L77800 75700
L77688 75700
L77632 75672
L77604 75643
L77575 75587
L77575 75419
L77604 75362
L77632 75334
L77688 75306
L77800 75306
L77857 75334
" />
<path d="M77997 75756
L78447 75756
" />
<path d="M78588 75306
L78588 75897
" />
<path d="M78588 75334
L78644 75306
L78757 75306
L78813 75334
L78841 75362
L78869 75419
L78869 75587
L78841 75643
L78813 75672
L78757 75700
L78644 75700
L78588 75672
" />
<path d="M79375 75672
L79319 75700
L79206 75700
L79150 75672
L79122 75643
L79094 75587
L79094 75419
L79122 75362
L79150 75334
L79206 75306
L79319 75306
L79375 75334
" />
<path d="M79628 75700
L79628 75109
" />
<path d="M79628 75334
L79685 75306
L79797 75306
L79853 75334
L79881 75362
L79910 75419
L79910 75587
L79881 75643
L79853 75672
L79797 75700
L79685 75700
L79628 75672
" />
</g>
<g style="fill:#000000; fill-opacity:0.0; 
stroke:#000000; stroke-width:39.3701; stroke-opacity:1; 
stroke-linecap:round; stroke-linejoin:round;">
</g>
<g style="fill:#000000; fill-opacity:0.0; 
stroke:#000000; stroke-width:59.0551; stroke-opacity:1; 
stroke-linecap:round; stroke-linejoin:round;">
<path d="M62755 73779
L105275 73779
" />
</g>
<g style="fill:#000000; fill-opacity:0.0; 
stroke:#000000; stroke-width:39.3701; stroke-opacity:1; 
stroke-linecap:round; stroke-linejoin:round;">
</g>
<g style="fill:#000000; fill-opacity:0.0; 
stroke:#000000; stroke-width:59.0551; stroke-opacity:1; 
stroke-linecap:round; stroke-linejoin:round;">
<path d="M63262 74609
L63346 74637
L63487 74637
L63543 74609
L63571 74580
L63599 74524
L63599 74468
L63571 74412
L63543 74384
L63487 74356
L63374 74327
L63318 74299
L63290 74271
L63262 74215
L63262 74159
L63290 74102
L63318 74074
L63374 74046
L63515 74046
L63599 74074
" />
<path d="M63852 74637
L63852 74046
" />
<path d="M64105 74637
L64105 74327
L64077 74271
L64021 74243
L63937 74243
L63880 74271
L63852 74299
" />
<path d="M64611 74609
L64555 74637
L64443 74637
L64386 74609
L64358 74552
L64358 74327
L64386 74271
L64443 74243
L64555 74243
L64611 74271
L64640 74327
L64640 74384
L64358 74440
" />
<path d="M65118 74609
L65061 74637
L64949 74637
L64893 74609
L64865 74552
L64865 74327
L64893 74271
L64949 74243
L65061 74243
L65118 74271
L65146 74327
L65146 74384
L64865 74440
" />
<path d="M65314 74243
L65539 74243
" />
<path d="M65399 74046
L65399 74552
L65427 74609
L65483 74637
L65539 74637
" />
<path d="M65736 74580
L65764 74609
L65736 74637
L65708 74609
L65736 74580
L65736 74637
" />
<path d="M65736 74271
L65764 74299
L65736 74327
L65708 74299
L65736 74271
L65736 74327
" />
</g>
<g style="fill:#000000; fill-opacity:0.0; 
stroke:#000000; stroke-width:39.3701; stroke-opacity:1; 
stroke-linecap:round; stroke-linejoin:round;">
</g>
<g style="fill:#000000; fill-opacity:0.0; 
stroke:#000000; stroke-width:118.11; stroke-opacity:1; 
stroke-linecap:round; stroke-linejoin:round;">
<path d="M63262 73428
L63346 73456
L63487 73456
L63543 73428
L63571 73399
L63599 73343
L63599 73287
L63571 73231
L63543 73203
L63487 73174
L63374 73146
L63318 73118
L63290 73090
L63262 73034
L63262 72978
L63290 72921
L63318 72893
L63374 72865
L63515 72865
L63599 72893
" />
<path d="M64105 73428
L64049 73456
L63937 73456
L63880 73428
L63852 73399
L63824 73343
L63824 73174
L63852 73118
L63880 73090
L63937 73062
L64049 73062
L64105 73090
" />
<path d="M64358 73456
L64358 73062
" />
<path d="M64358 72865
L64330 72893
L64358 72921
L64386 72893
L64358 72865
L64358 72921
" />
<path d="M64640 73231
L65089 73231
" />
<path d="M65568 73146
L65652 73174
L65680 73203
L65708 73259
L65708 73343
L65680 73399
L65652 73428
L65596 73456
L65371 73456
L65371 72865
L65568 72865
L65624 72893
L65652 72921
L65680 72978
L65680 73034
L65652 73090
L65624 73118
L65568 73146
L65371 73146
" />
<path d="M66046 73456
L65989 73428
L65961 73399
L65933 73343
L65933 73174
L65961 73118
L65989 73090
L66046 73062
L66130 73062
L66186 73090
L66214 73118
L66242 73174
L66242 73343
L66214 73399
L66186 73428
L66130 73456
L66046 73456
" />
<path d="M66411 73062
L66636 73062
" />
<path d="M66496 72865
L66496 73371
L66524 73428
L66580 73456
L66636 73456
" />
<path d="M66805 73428
L66861 73456
L66974 73456
L67030 73428
L67058 73371
L67058 73343
L67030 73287
L66974 73259
L66889 73259
L66833 73231
L66805 73174
L66805 73146
L66833 73090
L66889 73062
L66974 73062
L67030 73090
" />
<path d="M67761 73456
L67761 72865
" />
<path d="M68042 73062
L68042 73456
" />
<path d="M68042 73118
L68070 73090
L68127 73062
L68211 73062
L68267 73090
L68295 73146
L68295 73456
" />
<path d="M68830 73428
L68773 73456
L68661 73456
L68605 73428
L68577 73399
L68548 73343
L68548 73174
L68577 73118
L68605 73090
L68661 73062
L68773 73062
L68830 73090
" />
<path d="M69083 73399
L69111 73428
L69083 73456
L69055 73428
L69083 73399
L69083 73456
" />
</g>
<g style="fill:#000000; fill-opacity:0.0; 
stroke:#000000; stroke-width:39.3701; stroke-opacity:1; 
stroke-linecap:round; stroke-linejoin:round;">
</g>
<g style="fill:#000000; fill-opacity:0.0; 
stroke:#000000; stroke-width:59.0551; stroke-opacity:1; 
stroke-linecap:round; stroke-linejoin:round;">
<path d="M70629 77716
L70629 78897
" />
</g>
<g style="fill:#000000; fill-opacity:0.0; 
stroke:#000000; stroke-width:39.3701; stroke-opacity:1; 
stroke-linecap:round; stroke-linejoin:round;">
</g>
<g style="fill:#000000; fill-opacity:0.0; 
stroke:#000000; stroke-width:59.0551; stroke-opacity:1; 
stroke-linecap:round; stroke-linejoin:round;">
<path d="M95826 77716
L95826 80275
" />
</g>
<g style="fill:#000000; fill-opacity:0.0; 
stroke:#000000; stroke-width:39.3701; stroke-opacity:1; 
stroke-linecap:round; stroke-linejoin:round;">
<path d="M9448 16929
L9448 44488
" />
<path d="M33070 16929
L9448 16929
" />
<path d="M33070 8267
L33070 16929
" />
<path d="M42519 8267
L42519 44488
" />
<path d="M33070 8267
L42519 8267
" />
<path d="M9448 44488
L42519 44488
" />
</g>
<g style="fill:#000000; fill-opacity:0.0; 
stroke:#000000; stroke-width:0; stroke-opacity:1; 
stroke-linecap:round; stroke-linejoin:round;">
</g>
<g style="fill:#000000; fill-opacity:1.0; 
stroke:#000000; stroke-width:0; stroke-opacity:1; 
stroke-linecap:round; stroke-linejoin:round;">
<polyline style="fill-rule:evenodd;"
points="40630,21555
41102,21555
41102,22027
40630,22027
40630,21555
" /> 
<polyline style="fill-rule:evenodd;"
points="40630,22381
41102,22381
41102,22853
40630,22853
40630,22381
" /> 
<polyline style="fill-rule:evenodd;"
points="38819,21555
39291,21555
39291,22027
38819,22027
38819,21555
" /> 
<polyline style="fill-rule:evenodd;"
points="38819,22381
39291,22381
39291,22853
38819,22853
38819,22381
" /> 
<polyline style="fill-rule:evenodd;"
points="38210,32862
37253,32862
37253,31929
38210,31929
38210,32862
" /> 
<polyline style="fill-rule:evenodd;"
points="38210,35319
37253,35319
37253,34386
38210,34386
38210,35319
" /> 
<polyline style="fill-rule:evenodd;"
points="41344,33062
39718,33062
39718,32129
41344,32129
41344,33062
" /> 
<polyline style="fill-rule:evenodd;"
points="41344,35519
39718,35519
39718,34586
41344,34586
41344,35519
" /> 
<polyline style="fill-rule:evenodd;"
points="34600,37556
34600,37792
33989,37792
33989,37556
34600,37556
" /> 
<polyline style="fill-rule:evenodd;"
points="34600,37056
34600,37292
33989,37292
33989,37056
34600,37056
" /> 
<polyline style="fill-rule:evenodd;"
points="34600,36556
34600,36792
33989,36792
33989,36556
34600,36556
" /> 
<polyline style="fill-rule:evenodd;"
points="34600,36056
34600,36292
33989,36292
33989,36056
34600,36056
" /> 
<polyline style="fill-rule:evenodd;"
points="32474,36056
32474,36292
31863,36292
31863,36056
32474,36056
" /> 
<polyline style="fill-rule:evenodd;"
points="32474,36556
32474,36792
31863,36792
31863,36556
32474,36556
" /> 
<polyline style="fill-rule:evenodd;"
points="32474,37056
32474,37292
31863,37292
31863,37056
32474,37056
" /> 
<polyline style="fill-rule:evenodd;"
points="32474,37556
32474,37792
31863,37792
31863,37556
32474,37556
" /> 
<polyline style="fill-rule:evenodd;"
points="25757,34429
25757,34901
25600,34901
25600,34429
25757,34429
" /> 
<polyline style="fill-rule:evenodd;"
points="25501,34429
25501,34901
25344,34901
25344,34429
25501,34429
" /> 
<polyline style="fill-rule:evenodd;"
points="25246,34429
25246,34901
25088,34901
25088,34429
25246,34429
" /> 
<polyline style="fill-rule:evenodd;"
points="24990,34429
24990,34901
24832,34901
24832,34429
24990,34429
" /> 
<polyline style="fill-rule:evenodd;"
points="24990,36082
24990,36555
24832,36555
24832,36082
24990,36082
" /> 
<polyline style="fill-rule:evenodd;"
points="25246,36082
25246,36555
25088,36555
25088,36082
25246,36082
" /> 
<polyline style="fill-rule:evenodd;"
points="25501,36082
25501,36555
25344,36555
25344,36082
25501,36082
" /> 
<polyline style="fill-rule:evenodd;"
points="25757,36082
25757,36555
25600,36555
25600,36082
25757,36082
" /> 
<polyline style="fill-rule:evenodd;"
points="26358,39291
26358,38346
27933,38346
27933,39291
26358,39291
" /> 
<polyline style="fill-rule:evenodd;"
points="23208,39291
23208,38346
24783,38346
24783,39291
23208,39291
" /> 
<polyline style="fill-rule:evenodd;"
points="10277,36845
10986,36845
10986,37829
10277,37829
10277,36845
" /> 
<polyline style="fill-rule:evenodd;"
points="10277,38419
10986,38419
10986,39403
10277,39403
10277,38419
" /> 
<polyline style="fill-rule:evenodd;"
points="16377,36545
17086,36545
17086,37529
16377,37529
16377,36545
" /> 
<polyline style="fill-rule:evenodd;"
points="16377,38119
17086,38119
17086,39103
16377,39103
16377,38119
" /> 
<polyline style="fill-rule:evenodd;"
points="14081,36899
14081,36449
14281,36449
14281,36899
14081,36899
" /> 
<polyline style="fill-rule:evenodd;"
points="14581,36899
14581,36449
14781,36449
14781,36899
14581,36899
" /> 
<polyline style="fill-rule:evenodd;"
points="15081,36899
15081,36449
15281,36449
15281,36899
15081,36899
" /> 
<polyline style="fill-rule:evenodd;"
points="15581,36899
15581,36449
15781,36449
15781,36899
15581,36899
" /> 
<polyline style="fill-rule:evenodd;"
points="15581,39399
15581,38949
15781,38949
15781,39399
15581,39399
" /> 
<polyline style="fill-rule:evenodd;"
points="15081,39399
15081,38949
15281,38949
15281,39399
15081,39399
" /> 
<polyline style="fill-rule:evenodd;"
points="14581,39399
14581,38949
14781,38949
14781,39399
14581,39399
" /> 
<polyline style="fill-rule:evenodd;"
points="14081,39399
14081,38949
14281,38949
14281,39399
14081,39399
" /> 
<polyline style="fill-rule:evenodd;"
points="14448,22893
14448,23385
14055,23385
14055,22893
14448,22893
" /> 
<polyline style="fill-rule:evenodd;"
points="13661,22893
13661,23385
13267,23385
13267,22893
13661,22893
" /> 
<polyline style="fill-rule:evenodd;"
points="37677,29852
37677,29360
38070,29360
38070,29852
37677,29852
" /> 
<polyline style="fill-rule:evenodd;"
points="38464,29852
38464,29360
38858,29360
38858,29852
38464,29852
" /> 
<polyline style="fill-rule:evenodd;"
points="40393,29360
40393,29852
40000,29852
40000,29360
40393,29360
" /> 
<polyline style="fill-rule:evenodd;"
points="39606,29360
39606,29852
39212,29852
39212,29360
39606,29360
" /> 
<polyline style="fill-rule:evenodd;"
points="13966,21614
14458,21614
14458,22007
13966,22007
13966,21614
" /> 
<polyline style="fill-rule:evenodd;"
points="13966,22401
14458,22401
14458,22795
13966,22795
13966,22401
" /> 
<polyline style="fill-rule:evenodd;"
points="13492,25088
13492,25580
13098,25580
13098,25088
13492,25088
" /> 
<polyline style="fill-rule:evenodd;"
points="12704,25088
12704,25580
12311,25580
12311,25088
12704,25088
" /> 
<polyline style="fill-rule:evenodd;"
points="14379,25078
13887,25078
13887,24685
14379,24685
14379,25078
" /> 
<polyline style="fill-rule:evenodd;"
points="14379,24291
13887,24291
13887,23897
14379,23897
14379,24291
" /> 
<polyline style="fill-rule:evenodd;"
points="11732,21525
11732,21033
12125,21033
12125,21525
11732,21525
" /> 
<polyline style="fill-rule:evenodd;"
points="12519,21525
12519,21033
12913,21033
12913,21525
12519,21525
" /> 
<polyline style="fill-rule:evenodd;"
points="13492,25864
13492,26356
13098,26356
13098,25864
13492,25864
" /> 
<polyline style="fill-rule:evenodd;"
points="12704,25864
12704,26356
12311,26356
12311,25864
12704,25864
" /> 
<polyline style="fill-rule:evenodd;"
points="12311,27616
12311,27124
12704,27124
12704,27616
12311,27616
" /> 
<polyline style="fill-rule:evenodd;"
points="13098,27616
13098,27124
13492,27124
13492,27616
13098,27616
" /> 
<polyline style="fill-rule:evenodd;"
points="11732,20895
11732,20403
12125,20403
12125,20895
11732,20895
" /> 
<polyline style="fill-rule:evenodd;"
points="12519,20895
12519,20403
12913,20403
12913,20895
12519,20895
" /> 
<polyline style="fill-rule:evenodd;"
points="15472,21909
15472,21397
15748,21397
15748,21909
15472,21909
" /> 
<polyline style="fill-rule:evenodd;"
points="16220,21909
16220,21397
16496,21397
16496,21909
16220,21909
" /> 
<polyline style="fill-rule:evenodd;"
points="12401,24291
12401,23779
12677,23779
12677,24291
12401,24291
" /> 
<polyline style="fill-rule:evenodd;"
points="13149,24291
13149,23779
13425,23779
13425,24291
13149,24291
" /> 
<polyline style="fill-rule:evenodd;"
points="13425,24409
13425,24921
13149,24921
13149,24409
13425,24409
" /> 
<polyline style="fill-rule:evenodd;"
points="12677,24409
12677,24921
12401,24921
12401,24409
12677,24409
" /> 
<polyline style="fill-rule:evenodd;"
points="13366,21653
13877,21653
13877,21929
13366,21929
13366,21653
" /> 
<polyline style="fill-rule:evenodd;"
points="13366,22401
13877,22401
13877,22677
13366,22677
13366,22401
" /> 
<polyline style="fill-rule:evenodd;"
points="38307,24704
38307,24192
38582,24192
38582,24704
38307,24704
" /> 
<polyline style="fill-rule:evenodd;"
points="39055,24704
39055,24192
39330,24192
39330,24704
39055,24704
" /> 
<polyline style="fill-rule:evenodd;"
points="40314,24980
40314,24468
40590,24468
40590,24980
40314,24980
" /> 
<polyline style="fill-rule:evenodd;"
points="41062,24980
41062,24468
41338,24468
41338,24980
41062,24980
" /> 
<polyline style="fill-rule:evenodd;"
points="13452,26484
13452,26996
13177,26996
13177,26484
13452,26484
" /> 
<polyline style="fill-rule:evenodd;"
points="12704,26484
12704,26996
12429,26996
12429,26484
12704,26484
" /> 
<polyline style="fill-rule:evenodd;"
points="14437,20236
14437,20748
14161,20748
14161,20236
14437,20236
" /> 
<polyline style="fill-rule:evenodd;"
points="13688,20236
13688,20748
13413,20748
13413,20236
13688,20236
" /> 
<polyline style="fill-rule:evenodd;"
points="12401,28307
12401,27795
12677,27795
12677,28307
12401,28307
" /> 
<polyline style="fill-rule:evenodd;"
points="13149,28307
13149,27795
13425,27795
13425,28307
13149,28307
" /> 
<polyline style="fill-rule:evenodd;"
points="15086,21515
14574,21515
14574,21240
15086,21240
15086,21515
" /> 
<polyline style="fill-rule:evenodd;"
points="15086,20767
14574,20767
14574,20492
15086,20492
15086,20767
" /> 
<polyline style="fill-rule:evenodd;"
points="41603,25265
41603,26065
41003,26065
41003,25265
41603,25265
" /> 
<polyline style="fill-rule:evenodd;"
points="40603,25265
40603,26065
40003,26065
40003,25265
40603,25265
" /> 
<polyline style="fill-rule:evenodd;"
points="39603,25265
39603,26065
39003,26065
39003,25265
39603,25265
" /> 
<polyline style="fill-rule:evenodd;"
points="38603,25265
38603,26065
38003,26065
38003,25265
38603,25265
" /> 
<polyline style="fill-rule:evenodd;"
points="38603,28265
38603,29065
38003,29065
38003,28265
38603,28265
" /> 
<polyline style="fill-rule:evenodd;"
points="39603,28265
39603,29065
39003,29065
39003,28265
39603,28265
" /> 
<polyline style="fill-rule:evenodd;"
points="40603,28265
40603,29065
40003,29065
40003,28265
40603,28265
" /> 
<polyline style="fill-rule:evenodd;"
points="41603,28265
41603,29065
41003,29065
41003,28265
41603,28265
" /> 
<polyline style="fill-rule:evenodd;"
points="36577,35314
36085,35314
36085,34921
36577,34921
36577,35314
" /> 
<polyline style="fill-rule:evenodd;"
points="36577,34527
36085,34527
36085,34133
36577,34133
36577,34527
" /> 
<polyline style="fill-rule:evenodd;"
points="16122,39678
16122,40170
15728,40170
15728,39678
16122,39678
" /> 
<polyline style="fill-rule:evenodd;"
points="15335,39678
15335,40170
14941,40170
14941,39678
15335,39678
" /> 
<polyline style="fill-rule:evenodd;"
points="31577,36314
31085,36314
31085,35921
31577,35921
31577,36314
" /> 
<polyline style="fill-rule:evenodd;"
points="31577,35527
31085,35527
31085,35133
31577,35133
31577,35527
" /> 
<polyline style="fill-rule:evenodd;"
points="36772,32578
36772,33070
36378,33070
36378,32578
36772,32578
" /> 
<polyline style="fill-rule:evenodd;"
points="35985,32578
35985,33070
35591,33070
35591,32578
35985,32578
" /> 
<polyline style="fill-rule:evenodd;"
points="38799,20433
39311,20433
39311,20708
38799,20708
38799,20433
" /> 
<polyline style="fill-rule:evenodd;"
points="38799,21181
39311,21181
39311,21456
38799,21456
38799,21181
" /> 
<polyline style="fill-rule:evenodd;"
points="40610,20433
41122,20433
41122,20708
40610,20708
40610,20433
" /> 
<polyline style="fill-rule:evenodd;"
points="40610,21181
41122,21181
41122,21456
40610,21456
40610,21181
" /> 
<polyline style="fill-rule:evenodd;"
points="35670,33880
35670,33368
35945,33368
35945,33880
35670,33880
" /> 
<polyline style="fill-rule:evenodd;"
points="36418,33880
36418,33368
36693,33368
36693,33880
36418,33880
" /> 
<polyline style="fill-rule:evenodd;"
points="26909,31968
27421,31968
27421,32244
26909,32244
26909,31968
" /> 
<polyline style="fill-rule:evenodd;"
points="26909,32716
27421,32716
27421,32992
26909,32992
26909,32716
" /> 
<polyline style="fill-rule:evenodd;"
points="27106,34921
27106,35433
26830,35433
26830,34921
27106,34921
" /> 
<polyline style="fill-rule:evenodd;"
points="26358,34921
26358,35433
26082,35433
26082,34921
26358,34921
" /> 
<polyline style="fill-rule:evenodd;"
points="26082,36161
26082,35649
26358,35649
26358,36161
26082,36161
" /> 
<polyline style="fill-rule:evenodd;"
points="26830,36161
26830,35649
27106,35649
27106,36161
26830,36161
" /> 
<polyline style="fill-rule:evenodd;"
points="23582,36564
23582,36053
23858,36053
23858,36564
23582,36564
" /> 
<polyline style="fill-rule:evenodd;"
points="24330,36564
24330,36053
24606,36053
24606,36564
24330,36564
" /> 
<polyline style="fill-rule:evenodd;"
points="23975,34762
24487,34762
24487,35038
23975,35038
23975,34762
" /> 
<polyline style="fill-rule:evenodd;"
points="23975,35510
24487,35510
24487,35786
23975,35786
23975,35510
" /> 
<polyline style="fill-rule:evenodd;"
points="14220,35880
14220,35368
14495,35368
14495,35880
14220,35880
" /> 
<polyline style="fill-rule:evenodd;"
points="14968,35880
14968,35368
15243,35368
15243,35880
14968,35880
" /> 
<polyline style="fill-rule:evenodd;"
points="29216,36872
28547,36872
28547,36518
29216,36518
29216,36872
" /> 
<polyline style="fill-rule:evenodd;"
points="29216,35730
28547,35730
28547,35376
29216,35376
29216,35730
" /> 
<polyline style="fill-rule:evenodd;"
points="26830,33110
27500,33110
27500,33464
26830,33464
26830,33110
" /> 
<polyline style="fill-rule:evenodd;"
points="26830,34251
27500,34251
27500,34606
26830,34606
26830,34251
" /> 
<polyline style="fill-rule:evenodd;"
points="30811,36891
29551,36891
29551,36498
30811,36498
30811,36891
" /> 
<polyline style="fill-rule:evenodd;"
points="30811,34450
29551,34450
29551,34057
30811,34057
30811,34450
" /> 
<polyline style="fill-rule:evenodd;"
points="12019,34832
12019,35816
11625,35816
11625,34832
12019,34832
" /> 
<polyline style="fill-rule:evenodd;"
points="10838,34832
10838,35816
10444,35816
10444,34832
10838,34832
" /> 
<polyline style="fill-rule:evenodd;"
points="16424,34211
15439,34211
15439,33818
16424,33818
16424,34211
" /> 
<polyline style="fill-rule:evenodd;"
points="16424,33030
15439,33030
15439,32637
16424,32637
16424,33030
" /> 
<polyline style="fill-rule:evenodd;"
points="11679,32089
11679,32759
11325,32759
11325,32089
11679,32089
" /> 
<polyline style="fill-rule:evenodd;"
points="10538,32089
10538,32759
10183,32759
10183,32089
10538,32089
" /> 
<polyline style="fill-rule:evenodd;"
points="35679,39594
35679,37664
36860,37664
36860,39594
35679,39594
" /> 
<polyline style="fill-rule:evenodd;"
points="39302,39672
39302,37743
40483,37743
40483,39672
39302,39672
" /> 
<polyline style="fill-rule:evenodd;"
points="29715,38294
29715,37310
31014,37310
31014,38294
29715,38294
" /> 
<polyline style="fill-rule:evenodd;"
points="29715,40972
29715,39988
31014,39988
31014,40972
29715,40972
" /> 
<polyline style="fill-rule:evenodd;"
points="34101,35316
33421,35316
33421,35136
34101,35136
34101,35316
" /> 
<polyline style="fill-rule:evenodd;"
points="34101,35060
33421,35060
33421,34880
34101,34880
34101,35060
" /> 
<polyline style="fill-rule:evenodd;"
points="34101,34804
33421,34804
33421,34624
34101,34624
34101,34804
" /> 
<polyline style="fill-rule:evenodd;"
points="34101,34548
33421,34548
33421,34368
34101,34368
34101,34548
" /> 
<polyline style="fill-rule:evenodd;"
points="33271,34548
32591,34548
32591,34368
33271,34368
33271,34548
" /> 
<polyline style="fill-rule:evenodd;"
points="33271,34804
32591,34804
32591,34624
33271,34624
33271,34804
" /> 
<polyline style="fill-rule:evenodd;"
points="33271,35060
32591,35060
32591,34880
33271,34880
33271,35060
" /> 
<polyline style="fill-rule:evenodd;"
points="33271,35316
32591,35316
32591,35136
33271,35136
33271,35316
" /> 
<polyline style="fill-rule:evenodd;"
points="35059,30055
35059,30220
34822,30220
34822,30055
35059,30055
" /> 
<polyline style="fill-rule:evenodd;"
points="35059,29543
35059,29708
34822,29708
34822,29543
35059,29543
" /> 
<polyline style="fill-rule:evenodd;"
points="34311,30055
34311,30220
34074,30220
34074,30055
34311,30055
" /> 
<polyline style="fill-rule:evenodd;"
points="35059,29799
35059,29964
34822,29964
34822,29799
35059,29799
" /> 
<polyline style="fill-rule:evenodd;"
points="34311,29543
34311,29708
34074,29708
34074,29543
34311,29543
" /> 
<polyline style="fill-rule:evenodd;"
points="31930,28638
32380,28638
32380,28838
31930,28838
31930,28638
" /> 
<polyline style="fill-rule:evenodd;"
points="31930,29138
32380,29138
32380,29338
31930,29338
31930,29138
" /> 
<polyline style="fill-rule:evenodd;"
points="31930,29638
32380,29638
32380,29838
31930,29838
31930,29638
" /> 
<polyline style="fill-rule:evenodd;"
points="31930,30138
32380,30138
32380,30338
31930,30338
31930,30138
" /> 
<polyline style="fill-rule:evenodd;"
points="29430,30138
29880,30138
29880,30338
29430,30338
29430,30138
" /> 
<polyline style="fill-rule:evenodd;"
points="29430,29638
29880,29638
29880,29838
29430,29838
29430,29638
" /> 
<polyline style="fill-rule:evenodd;"
points="29430,29138
29880,29138
29880,29338
29430,29338
29430,29138
" /> 
<polyline style="fill-rule:evenodd;"
points="29430,28638
29880,28638
29880,28838
29430,28838
29430,28638
" /> 
<polyline style="fill-rule:evenodd;"
points="28720,28267
29232,28267
29232,28543
28720,28543
28720,28267
" /> 
<polyline style="fill-rule:evenodd;"
points="28720,29015
29232,29015
29232,29291
28720,29291
28720,29015
" /> 
<polyline style="fill-rule:evenodd;"
points="28730,29409
29222,29409
29222,29803
28730,29803
28730,29409
" /> 
<polyline style="fill-rule:evenodd;"
points="28730,30196
29222,30196
29222,30590
28730,30590
28730,30196
" /> 
<polyline style="fill-rule:evenodd;"
points="34822,30551
35334,30551
35334,30826
34822,30826
34822,30551
" /> 
<polyline style="fill-rule:evenodd;"
points="34822,31299
35334,31299
35334,31574
34822,31574
34822,31299
" /> 
<polyline style="fill-rule:evenodd;"
points="28405,37962
28897,37962
28897,38356
28405,38356
28405,37962
" /> 
<polyline style="fill-rule:evenodd;"
points="28405,38750
28897,38750
28897,39143
28405,39143
28405,38750
" /> 
<polyline style="fill-rule:evenodd;"
points="16633,20846
16633,21161
16279,21161
16279,20846
16633,20846
" /> 
<polyline style="fill-rule:evenodd;"
points="16633,20098
16633,20413
16279,20413
16279,20098
16633,20098
" /> 
<polyline style="fill-rule:evenodd;"
points="15846,20472
15846,20787
15492,20787
15492,20472
15846,20472
" /> 
<polyline style="fill-rule:evenodd;"
points="12657,22362
13169,22362
13169,22637
12657,22637
12657,22362
" /> 
<polyline style="fill-rule:evenodd;"
points="12657,23110
13169,23110
13169,23385
12657,23385
12657,23110
" /> 
<polyline style="fill-rule:evenodd;"
points="36681,11082
36681,10632
36971,10632
36971,11082
36681,11082
" /> 
<polyline style="fill-rule:evenodd;"
points="36681,11682
36681,11232
36971,11232
36971,11682
36681,11682
" /> 
<polyline style="fill-rule:evenodd;"
points="36181,11082
36181,10632
36471,10632
36471,11082
36181,11082
" /> 
<polyline style="fill-rule:evenodd;"
points="36181,11682
36181,11232
36471,11232
36471,11682
36181,11682
" /> 
<polyline style="fill-rule:evenodd;"
points="35681,11082
35681,10632
35971,10632
35971,11082
35681,11082
" /> 
<polyline style="fill-rule:evenodd;"
points="35681,11682
35681,11232
35971,11232
35971,11682
35681,11682
" /> 
<polyline style="fill-rule:evenodd;"
points="35181,11082
35181,10632
35471,10632
35471,11082
35181,11082
" /> 
<polyline style="fill-rule:evenodd;"
points="35181,11682
35181,11232
35471,11232
35471,11682
35181,11682
" /> 
<polyline style="fill-rule:evenodd;"
points="34681,11082
34681,10632
34971,10632
34971,11082
34681,11082
" /> 
<polyline style="fill-rule:evenodd;"
points="34681,11682
34681,11232
34971,11232
34971,11682
34681,11682
" /> 
<circle cx="37846.8" cy="8847.72" r="250" /> 
</g>
<g style="fill:#000000; fill-opacity:1.0; 
stroke:#000000; stroke-width:39.3701; stroke-opacity:1; 
stroke-linecap:round; stroke-linejoin:round;">
</g>
<g style="fill:#000000; fill-opacity:1.0; 
stroke:#000000; stroke-width:0; stroke-opacity:1; 
stroke-linecap:round; stroke-linejoin:round;">
<circle cx="33806.8" cy="8847.72" r="250" /> 
</g>
<g style="fill:#000000; fill-opacity:1.0; 
stroke:#000000; stroke-width:39.3701; stroke-opacity:1; 
stroke-linecap:round; stroke-linejoin:round;">
</g>
<g style="fill:#000000; fill-opacity:1.0; 
stroke:#000000; stroke-width:0; stroke-opacity:1; 
stroke-linecap:round; stroke-linejoin:round;">
<circle cx="37846.8" cy="9737.72" r="250" /> 
</g>
<g style="fill:#000000; fill-opacity:1.0; 
stroke:#000000; stroke-width:39.3701; stroke-opacity:1; 
stroke-linecap:round; stroke-linejoin:round;">
</g>
<g style="fill:#000000; fill-opacity:1.0; 
stroke:#000000; stroke-width:0; stroke-opacity:1; 
stroke-linecap:round; stroke-linejoin:round;">
<circle cx="33806.8" cy="9737.72" r="250" /> 
</g>
<g style="fill:#000000; fill-opacity:1.0; 
stroke:#000000; stroke-width:39.3701; stroke-opacity:1; 
stroke-linecap:round; stroke-linejoin:round;">
</g>
<g style="fill:#000000; fill-opacity:1.0; 
stroke:#000000; stroke-width:0; stroke-opacity:1; 
stroke-linecap:round; stroke-linejoin:round;">
<polyline style="fill-rule:evenodd;"
points="13602,38877
13090,38877
13090,38602
13602,38602
13602,38877
" /> 
<polyline style="fill-rule:evenodd;"
points="13602,38129
13090,38129
13090,37854
13602,37854
13602,38129
" /> 
<polyline style="fill-rule:evenodd;"
points="35246,38562
34734,38562
34734,38287
35246,38287
35246,38562
" /> 
<polyline style="fill-rule:evenodd;"
points="35246,37814
34734,37814
34734,37539
35246,37539
35246,37814
" /> 
<polyline style="fill-rule:evenodd;"
points="28395,39822
28907,39822
28907,40098
28395,40098
28395,39822
" /> 
<polyline style="fill-rule:evenodd;"
points="28395,40570
28907,40570
28907,40846
28395,40846
28395,40570
" /> 
<polyline style="fill-rule:evenodd;"
points="24793,29173
25285,29173
25285,29566
24793,29566
24793,29173
" /> 
<polyline style="fill-rule:evenodd;"
points="24793,29960
25285,29960
25285,30354
24793,30354
24793,29960
" /> 
<polyline style="fill-rule:evenodd;"
points="26309,30354
25816,30354
25816,29960
26309,29960
26309,30354
" /> 
<polyline style="fill-rule:evenodd;"
points="26309,29566
25816,29566
25816,29173
26309,29173
26309,29566
" /> 
<polyline style="fill-rule:evenodd;"
points="24448,21033
24448,20541
24842,20541
24842,21033
24448,21033
" /> 
<polyline style="fill-rule:evenodd;"
points="25236,21033
25236,20541
25629,20541
25629,21033
25236,21033
" /> 
<polyline style="fill-rule:evenodd;"
points="24448,20364
24448,19872
24842,19872
24842,20364
24448,20364
" /> 
<polyline style="fill-rule:evenodd;"
points="25236,20364
25236,19872
25629,19872
25629,20364
25236,20364
" /> 
<polyline style="fill-rule:evenodd;"
points="32549,33228
32057,33228
32057,32834
32549,32834
32549,33228
" /> 
<polyline style="fill-rule:evenodd;"
points="32549,32440
32057,32440
32057,32047
32549,32047
32549,32440
" /> 
<polyline style="fill-rule:evenodd;"
points="34133,32047
34625,32047
34625,32440
34133,32440
34133,32047
" /> 
<polyline style="fill-rule:evenodd;"
points="34133,32834
34625,32834
34625,33228
34133,33228
34133,32834
" /> 
<polyline style="fill-rule:evenodd;"
points="39419,15521
40895,15521
40895,16525
39419,16525
39419,15521
" /> 
<polyline style="fill-rule:evenodd;"
points="39419,17647
40895,17647
40895,18651
39419,18651
39419,17647
" /> 
<polyline style="fill-rule:evenodd;"
points="39222,17322
38730,17322
38730,16929
39222,16929
39222,17322
" /> 
<polyline style="fill-rule:evenodd;"
points="39222,16535
38730,16535
38730,16141
39222,16141
39222,16535
" /> 
<polyline style="fill-rule:evenodd;"
points="38435,17322
37942,17322
37942,16929
38435,16929
38435,17322
" /> 
<polyline style="fill-rule:evenodd;"
points="38435,16535
37942,16535
37942,16141
38435,16141
38435,16535
" /> 
<polyline style="fill-rule:evenodd;"
points="24822,28031
25334,28031
25334,28307
24822,28307
24822,28031
" /> 
<polyline style="fill-rule:evenodd;"
points="24822,28779
25334,28779
25334,29055
24822,29055
24822,28779
" /> 
<polyline style="fill-rule:evenodd;"
points="25807,28031
26318,28031
26318,28307
25807,28307
25807,28031
" /> 
<polyline style="fill-rule:evenodd;"
points="25807,28779
26318,28779
26318,29055
25807,29055
25807,28779
" /> 
<polyline style="fill-rule:evenodd;"
points="32667,33208
33179,33208
33179,33484
32667,33484
32667,33208
" /> 
<polyline style="fill-rule:evenodd;"
points="32667,33956
33179,33956
33179,34232
32667,34232
32667,33956
" /> 
<polyline style="fill-rule:evenodd;"
points="33503,33208
34015,33208
34015,33484
33503,33484
33503,33208
" /> 
<polyline style="fill-rule:evenodd;"
points="33503,33956
34015,33956
34015,34232
33503,34232
33503,33956
" /> 
<polyline style="fill-rule:evenodd;"
points="32667,32086
33179,32086
33179,32362
32667,32362
32667,32086
" /> 
<polyline style="fill-rule:evenodd;"
points="32667,32834
33179,32834
33179,33110
32667,33110
32667,32834
" /> 
<polyline style="fill-rule:evenodd;"
points="33503,32086
34015,32086
34015,32362
33503,32362
33503,32086
" /> 
<polyline style="fill-rule:evenodd;"
points="33503,32834
34015,32834
34015,33110
33503,33110
33503,32834
" /> 
<polyline style="fill-rule:evenodd;"
points="15275,34950
15275,34438
15551,34438
15551,34950
15275,34950
" /> 
<polyline style="fill-rule:evenodd;"
points="16023,34950
16023,34438
16299,34438
16299,34950
16023,34950
" /> 
<polyline style="fill-rule:evenodd;"
points="36338,17312
36338,17805
35944,17805
35944,17312
36338,17312
" /> 
<polyline style="fill-rule:evenodd;"
points="35551,17312
35551,17805
35157,17805
35157,17312
35551,17312
" /> 
<polyline style="fill-rule:evenodd;"
points="37037,16141
37529,16141
37529,16535
37037,16535
37037,16141
" /> 
<polyline style="fill-rule:evenodd;"
points="37037,16929
37529,16929
37529,17322
37037,17322
37037,16929
" /> 
<polyline style="fill-rule:evenodd;"
points="36870,17244
36358,17244
36358,16968
36870,16968
36870,17244
" /> 
<polyline style="fill-rule:evenodd;"
points="36870,16496
36358,16496
36358,16220
36870,16220
36870,16496
" /> 
<polyline style="fill-rule:evenodd;"
points="22952,20452
22952,20964
22677,20964
22677,20452
22952,20452
" /> 
<polyline style="fill-rule:evenodd;"
points="22204,20452
22204,20964
21929,20964
21929,20452
22204,20452
" /> 
</g> 
</svg>
