<?xml version="1.0" standalone="no"?>
 <!DOCTYPE svg PUBLIC "-//W3C//DTD SVG 1.1//EN" 
 "http://www.w3.org/Graphics/SVG/1.1/DTD/svg11.dtd"> 
<svg xmlns="http://www.w3.org/2000/svg" version="1.1" 
    width="27.94cm" height="21.59cm" viewBox="0 0 110000 85000 ">
<title>SVG Picture created as dropbot_control_board-B.SilkS.svg date 2017/04/05 08:05:12 </title>
  <desc>Picture generated by PCBNEW </desc>
<g style="fill:#000000; fill-opacity:1;stroke:#000000; stroke-opacity:1;
stroke-linecap:round; stroke-linejoin:round; "
 transform="translate(0 0) scale(1 1)">
</g>
<g style="fill:#000000; fill-opacity:0.0; 
stroke:#000000; stroke-width:-0.000393701; stroke-opacity:1; 
stroke-linecap:round; stroke-linejoin:round;">
</g>
<g style="fill:#000000; fill-opacity:0.0; 
stroke:#000000; stroke-width:39.3701; stroke-opacity:1; 
stroke-linecap:round; stroke-linejoin:round;">
</g>
<g style="fill:#000000; fill-opacity:0.0; 
stroke:#000000; stroke-width:59.0551; stroke-opacity:1; 
stroke-linecap:round; stroke-linejoin:round;">
<rect x="62755.9" y="67677.2" width="42519.7" height="12598.4" rx="0" />
</g>
<g style="fill:#000000; fill-opacity:0.0; 
stroke:#000000; stroke-width:39.3701; stroke-opacity:1; 
stroke-linecap:round; stroke-linejoin:round;">
</g>
<g style="fill:#000000; fill-opacity:0.0; 
stroke:#000000; stroke-width:59.0551; stroke-opacity:1; 
stroke-linecap:round; stroke-linejoin:round;">
<rect x="3937.01" y="3937.01" width="102126" height="77126" rx="0" />
</g>
<g style="fill:#000000; fill-opacity:0.0; 
stroke:#000000; stroke-width:39.3701; stroke-opacity:1; 
stroke-linecap:round; stroke-linejoin:round;">
</g>
<g style="fill:#000000; fill-opacity:0.0; 
stroke:#000000; stroke-width:59.0551; stroke-opacity:1; 
stroke-linecap:round; stroke-linejoin:round;">
<rect x="4724.41" y="4724.41" width="100551" height="75551.2" rx="0" />
</g>
<g style="fill:#000000; fill-opacity:0.0; 
stroke:#000000; stroke-width:39.3701; stroke-opacity:1; 
stroke-linecap:round; stroke-linejoin:round;">
</g>
<g style="fill:#000000; fill-opacity:0.0; 
stroke:#000000; stroke-width:59.0551; stroke-opacity:1; 
stroke-linecap:round; stroke-linejoin:round;">
<path d="M23622 4724
L23622 3937
" />
</g>
<g style="fill:#000000; fill-opacity:0.0; 
stroke:#000000; stroke-width:39.3701; stroke-opacity:1; 
stroke-linecap:round; stroke-linejoin:round;">
</g>
<g style="fill:#000000; fill-opacity:0.0; 
stroke:#000000; stroke-width:59.0551; stroke-opacity:1; 
stroke-linecap:round; stroke-linejoin:round;">
<path d="M43307 4724
L43307 3937
" />
</g>
<g style="fill:#000000; fill-opacity:0.0; 
stroke:#000000; stroke-width:39.3701; stroke-opacity:1; 
stroke-linecap:round; stroke-linejoin:round;">
</g>
<g style="fill:#000000; fill-opacity:0.0; 
stroke:#000000; stroke-width:59.0551; stroke-opacity:1; 
stroke-linecap:round; stroke-linejoin:round;">
<path d="M62992 4724
L62992 3937
" />
</g>
<g style="fill:#000000; fill-opacity:0.0; 
stroke:#000000; stroke-width:39.3701; stroke-opacity:1; 
stroke-linecap:round; stroke-linejoin:round;">
</g>
<g style="fill:#000000; fill-opacity:0.0; 
stroke:#000000; stroke-width:59.0551; stroke-opacity:1; 
stroke-linecap:round; stroke-linejoin:round;">
<path d="M82677 4724
L82677 3937
" />
</g>
<g style="fill:#000000; fill-opacity:0.0; 
stroke:#000000; stroke-width:39.3701; stroke-opacity:1; 
stroke-linecap:round; stroke-linejoin:round;">
</g>
<g style="fill:#000000; fill-opacity:0.0; 
stroke:#000000; stroke-width:59.0551; stroke-opacity:1; 
stroke-linecap:round; stroke-linejoin:round;">
<path d="M102362 4724
L102362 3937
" />
</g>
<g style="fill:#000000; fill-opacity:0.0; 
stroke:#000000; stroke-width:39.3701; stroke-opacity:1; 
stroke-linecap:round; stroke-linejoin:round;">
</g>
<g style="fill:#000000; fill-opacity:0.0; 
stroke:#000000; stroke-width:59.0551; stroke-opacity:1; 
stroke-linecap:round; stroke-linejoin:round;">
<path d="M14169 4562
L13877 4562
" />
<path d="M14023 4562
L14023 4050
L13974 4123
L13925 4172
L13877 4196
" />
</g>
<g style="fill:#000000; fill-opacity:0.0; 
stroke:#000000; stroke-width:39.3701; stroke-opacity:1; 
stroke-linecap:round; stroke-linejoin:round;">
</g>
<g style="fill:#000000; fill-opacity:0.0; 
stroke:#000000; stroke-width:59.0551; stroke-opacity:1; 
stroke-linecap:round; stroke-linejoin:round;">
<path d="M33562 4099
L33586 4074
L33635 4050
L33757 4050
L33805 4074
L33830 4099
L33854 4147
L33854 4196
L33830 4269
L33537 4562
L33854 4562
" />
</g>
<g style="fill:#000000; fill-opacity:0.0; 
stroke:#000000; stroke-width:39.3701; stroke-opacity:1; 
stroke-linecap:round; stroke-linejoin:round;">
</g>
<g style="fill:#000000; fill-opacity:0.0; 
stroke:#000000; stroke-width:59.0551; stroke-opacity:1; 
stroke-linecap:round; stroke-linejoin:round;">
<path d="M53222 4050
L53539 4050
L53368 4245
L53442 4245
L53490 4269
L53515 4294
L53539 4342
L53539 4464
L53515 4513
L53490 4537
L53442 4562
L53295 4562
L53247 4537
L53222 4513
" />
</g>
<g style="fill:#000000; fill-opacity:0.0; 
stroke:#000000; stroke-width:39.3701; stroke-opacity:1; 
stroke-linecap:round; stroke-linejoin:round;">
</g>
<g style="fill:#000000; fill-opacity:0.0; 
stroke:#000000; stroke-width:59.0551; stroke-opacity:1; 
stroke-linecap:round; stroke-linejoin:round;">
<path d="M73175 4221
L73175 4562
" />
<path d="M73053 4026
L72932 4391
L73248 4391
" />
</g>
<g style="fill:#000000; fill-opacity:0.0; 
stroke:#000000; stroke-width:39.3701; stroke-opacity:1; 
stroke-linecap:round; stroke-linejoin:round;">
</g>
<g style="fill:#000000; fill-opacity:0.0; 
stroke:#000000; stroke-width:59.0551; stroke-opacity:1; 
stroke-linecap:round; stroke-linejoin:round;">
<path d="M92885 4050
L92641 4050
L92617 4294
L92641 4269
L92690 4245
L92812 4245
L92860 4269
L92885 4294
L92909 4342
L92909 4464
L92885 4513
L92860 4537
L92812 4562
L92690 4562
L92641 4537
L92617 4513
" />
</g>
<g style="fill:#000000; fill-opacity:0.0; 
stroke:#000000; stroke-width:39.3701; stroke-opacity:1; 
stroke-linecap:round; stroke-linejoin:round;">
</g>
<g style="fill:#000000; fill-opacity:0.0; 
stroke:#000000; stroke-width:59.0551; stroke-opacity:1; 
stroke-linecap:round; stroke-linejoin:round;">
<path d="M23622 80275
L23622 81062
" />
</g>
<g style="fill:#000000; fill-opacity:0.0; 
stroke:#000000; stroke-width:39.3701; stroke-opacity:1; 
stroke-linecap:round; stroke-linejoin:round;">
</g>
<g style="fill:#000000; fill-opacity:0.0; 
stroke:#000000; stroke-width:59.0551; stroke-opacity:1; 
stroke-linecap:round; stroke-linejoin:round;">
<path d="M43307 80275
L43307 81062
" />
</g>
<g style="fill:#000000; fill-opacity:0.0; 
stroke:#000000; stroke-width:39.3701; stroke-opacity:1; 
stroke-linecap:round; stroke-linejoin:round;">
</g>
<g style="fill:#000000; fill-opacity:0.0; 
stroke:#000000; stroke-width:59.0551; stroke-opacity:1; 
stroke-linecap:round; stroke-linejoin:round;">
<path d="M62992 80275
L62992 81062
" />
</g>
<g style="fill:#000000; fill-opacity:0.0; 
stroke:#000000; stroke-width:39.3701; stroke-opacity:1; 
stroke-linecap:round; stroke-linejoin:round;">
</g>
<g style="fill:#000000; fill-opacity:0.0; 
stroke:#000000; stroke-width:59.0551; stroke-opacity:1; 
stroke-linecap:round; stroke-linejoin:round;">
<path d="M82677 80275
L82677 81062
" />
</g>
<g style="fill:#000000; fill-opacity:0.0; 
stroke:#000000; stroke-width:39.3701; stroke-opacity:1; 
stroke-linecap:round; stroke-linejoin:round;">
</g>
<g style="fill:#000000; fill-opacity:0.0; 
stroke:#000000; stroke-width:59.0551; stroke-opacity:1; 
stroke-linecap:round; stroke-linejoin:round;">
<path d="M102362 80275
L102362 81062
" />
</g>
<g style="fill:#000000; fill-opacity:0.0; 
stroke:#000000; stroke-width:39.3701; stroke-opacity:1; 
stroke-linecap:round; stroke-linejoin:round;">
</g>
<g style="fill:#000000; fill-opacity:0.0; 
stroke:#000000; stroke-width:59.0551; stroke-opacity:1; 
stroke-linecap:round; stroke-linejoin:round;">
<path d="M14169 80900
L13877 80900
" />
<path d="M14023 80900
L14023 80389
L13974 80462
L13925 80510
L13877 80535
" />
</g>
<g style="fill:#000000; fill-opacity:0.0; 
stroke:#000000; stroke-width:39.3701; stroke-opacity:1; 
stroke-linecap:round; stroke-linejoin:round;">
</g>
<g style="fill:#000000; fill-opacity:0.0; 
stroke:#000000; stroke-width:59.0551; stroke-opacity:1; 
stroke-linecap:round; stroke-linejoin:round;">
<path d="M33562 80437
L33586 80413
L33635 80389
L33757 80389
L33805 80413
L33830 80437
L33854 80486
L33854 80535
L33830 80608
L33537 80900
L33854 80900
" />
</g>
<g style="fill:#000000; fill-opacity:0.0; 
stroke:#000000; stroke-width:39.3701; stroke-opacity:1; 
stroke-linecap:round; stroke-linejoin:round;">
</g>
<g style="fill:#000000; fill-opacity:0.0; 
stroke:#000000; stroke-width:59.0551; stroke-opacity:1; 
stroke-linecap:round; stroke-linejoin:round;">
<path d="M53222 80389
L53539 80389
L53368 80583
L53442 80583
L53490 80608
L53515 80632
L53539 80681
L53539 80803
L53515 80852
L53490 80876
L53442 80900
L53295 80900
L53247 80876
L53222 80852
" />
</g>
<g style="fill:#000000; fill-opacity:0.0; 
stroke:#000000; stroke-width:39.3701; stroke-opacity:1; 
stroke-linecap:round; stroke-linejoin:round;">
</g>
<g style="fill:#000000; fill-opacity:0.0; 
stroke:#000000; stroke-width:59.0551; stroke-opacity:1; 
stroke-linecap:round; stroke-linejoin:round;">
<path d="M73175 80559
L73175 80900
" />
<path d="M73053 80364
L72932 80730
L73248 80730
" />
</g>
<g style="fill:#000000; fill-opacity:0.0; 
stroke:#000000; stroke-width:39.3701; stroke-opacity:1; 
stroke-linecap:round; stroke-linejoin:round;">
</g>
<g style="fill:#000000; fill-opacity:0.0; 
stroke:#000000; stroke-width:59.0551; stroke-opacity:1; 
stroke-linecap:round; stroke-linejoin:round;">
<path d="M92885 80389
L92641 80389
L92617 80632
L92641 80608
L92690 80583
L92812 80583
L92860 80608
L92885 80632
L92909 80681
L92909 80803
L92885 80852
L92860 80876
L92812 80900
L92690 80900
L92641 80876
L92617 80852
" />
</g>
<g style="fill:#000000; fill-opacity:0.0; 
stroke:#000000; stroke-width:39.3701; stroke-opacity:1; 
stroke-linecap:round; stroke-linejoin:round;">
</g>
<g style="fill:#000000; fill-opacity:0.0; 
stroke:#000000; stroke-width:59.0551; stroke-opacity:1; 
stroke-linecap:round; stroke-linejoin:round;">
<path d="M3937 23622
L4724 23622
" />
</g>
<g style="fill:#000000; fill-opacity:0.0; 
stroke:#000000; stroke-width:39.3701; stroke-opacity:1; 
stroke-linecap:round; stroke-linejoin:round;">
</g>
<g style="fill:#000000; fill-opacity:0.0; 
stroke:#000000; stroke-width:59.0551; stroke-opacity:1; 
stroke-linecap:round; stroke-linejoin:round;">
<path d="M3937 43307
L4724 43307
" />
</g>
<g style="fill:#000000; fill-opacity:0.0; 
stroke:#000000; stroke-width:39.3701; stroke-opacity:1; 
stroke-linecap:round; stroke-linejoin:round;">
</g>
<g style="fill:#000000; fill-opacity:0.0; 
stroke:#000000; stroke-width:59.0551; stroke-opacity:1; 
stroke-linecap:round; stroke-linejoin:round;">
<path d="M3937 62992
L4724 62992
" />
</g>
<g style="fill:#000000; fill-opacity:0.0; 
stroke:#000000; stroke-width:39.3701; stroke-opacity:1; 
stroke-linecap:round; stroke-linejoin:round;">
</g>
<g style="fill:#000000; fill-opacity:0.0; 
stroke:#000000; stroke-width:59.0551; stroke-opacity:1; 
stroke-linecap:round; stroke-linejoin:round;">
<path d="M4208 13864
L4452 13864
" />
<path d="M4160 14011
L4330 13499
L4501 14011
" />
</g>
<g style="fill:#000000; fill-opacity:0.0; 
stroke:#000000; stroke-width:39.3701; stroke-opacity:1; 
stroke-linecap:round; stroke-linejoin:round;">
</g>
<g style="fill:#000000; fill-opacity:0.0; 
stroke:#000000; stroke-width:59.0551; stroke-opacity:1; 
stroke-linecap:round; stroke-linejoin:round;">
<path d="M4367 33428
L4440 33452
L4464 33476
L4489 33525
L4489 33598
L4464 33647
L4440 33671
L4391 33696
L4196 33696
L4196 33184
L4367 33184
L4416 33208
L4440 33233
L4464 33281
L4464 33330
L4440 33379
L4416 33403
L4367 33428
L4196 33428
" />
</g>
<g style="fill:#000000; fill-opacity:0.0; 
stroke:#000000; stroke-width:39.3701; stroke-opacity:1; 
stroke-linecap:round; stroke-linejoin:round;">
</g>
<g style="fill:#000000; fill-opacity:0.0; 
stroke:#000000; stroke-width:59.0551; stroke-opacity:1; 
stroke-linecap:round; stroke-linejoin:round;">
<path d="M4489 53332
L4464 53356
L4391 53381
L4342 53381
L4269 53356
L4221 53308
L4196 53259
L4172 53161
L4172 53088
L4196 52991
L4221 52942
L4269 52893
L4342 52869
L4391 52869
L4464 52893
L4489 52918
" />
</g>
<g style="fill:#000000; fill-opacity:0.0; 
stroke:#000000; stroke-width:39.3701; stroke-opacity:1; 
stroke-linecap:round; stroke-linejoin:round;">
</g>
<g style="fill:#000000; fill-opacity:0.0; 
stroke:#000000; stroke-width:59.0551; stroke-opacity:1; 
stroke-linecap:round; stroke-linejoin:round;">
<path d="M4196 73066
L4196 72554
L4318 72554
L4391 72578
L4440 72627
L4464 72676
L4489 72773
L4489 72846
L4464 72944
L4440 72993
L4391 73041
L4318 73066
L4196 73066
" />
</g>
<g style="fill:#000000; fill-opacity:0.0; 
stroke:#000000; stroke-width:39.3701; stroke-opacity:1; 
stroke-linecap:round; stroke-linejoin:round;">
</g>
<g style="fill:#000000; fill-opacity:0.0; 
stroke:#000000; stroke-width:59.0551; stroke-opacity:1; 
stroke-linecap:round; stroke-linejoin:round;">
<path d="M106062 23622
L105275 23622
" />
</g>
<g style="fill:#000000; fill-opacity:0.0; 
stroke:#000000; stroke-width:39.3701; stroke-opacity:1; 
stroke-linecap:round; stroke-linejoin:round;">
</g>
<g style="fill:#000000; fill-opacity:0.0; 
stroke:#000000; stroke-width:59.0551; stroke-opacity:1; 
stroke-linecap:round; stroke-linejoin:round;">
<path d="M106062 43307
L105275 43307
" />
</g>
<g style="fill:#000000; fill-opacity:0.0; 
stroke:#000000; stroke-width:39.3701; stroke-opacity:1; 
stroke-linecap:round; stroke-linejoin:round;">
</g>
<g style="fill:#000000; fill-opacity:0.0; 
stroke:#000000; stroke-width:59.0551; stroke-opacity:1; 
stroke-linecap:round; stroke-linejoin:round;">
<path d="M106062 62992
L105275 62992
" />
</g>
<g style="fill:#000000; fill-opacity:0.0; 
stroke:#000000; stroke-width:39.3701; stroke-opacity:1; 
stroke-linecap:round; stroke-linejoin:round;">
</g>
<g style="fill:#000000; fill-opacity:0.0; 
stroke:#000000; stroke-width:59.0551; stroke-opacity:1; 
stroke-linecap:round; stroke-linejoin:round;">
<path d="M105547 13864
L105791 13864
" />
<path d="M105498 14011
L105669 13499
L105839 14011
" />
</g>
<g style="fill:#000000; fill-opacity:0.0; 
stroke:#000000; stroke-width:39.3701; stroke-opacity:1; 
stroke-linecap:round; stroke-linejoin:round;">
</g>
<g style="fill:#000000; fill-opacity:0.0; 
stroke:#000000; stroke-width:59.0551; stroke-opacity:1; 
stroke-linecap:round; stroke-linejoin:round;">
<path d="M105705 33428
L105778 33452
L105803 33476
L105827 33525
L105827 33598
L105803 33647
L105778 33671
L105730 33696
L105535 33696
L105535 33184
L105705 33184
L105754 33208
L105778 33233
L105803 33281
L105803 33330
L105778 33379
L105754 33403
L105705 33428
L105535 33428
" />
</g>
<g style="fill:#000000; fill-opacity:0.0; 
stroke:#000000; stroke-width:39.3701; stroke-opacity:1; 
stroke-linecap:round; stroke-linejoin:round;">
</g>
<g style="fill:#000000; fill-opacity:0.0; 
stroke:#000000; stroke-width:59.0551; stroke-opacity:1; 
stroke-linecap:round; stroke-linejoin:round;">
<path d="M105827 53332
L105803 53356
L105730 53381
L105681 53381
L105608 53356
L105559 53308
L105535 53259
L105510 53161
L105510 53088
L105535 52991
L105559 52942
L105608 52893
L105681 52869
L105730 52869
L105803 52893
L105827 52918
" />
</g>
<g style="fill:#000000; fill-opacity:0.0; 
stroke:#000000; stroke-width:39.3701; stroke-opacity:1; 
stroke-linecap:round; stroke-linejoin:round;">
</g>
<g style="fill:#000000; fill-opacity:0.0; 
stroke:#000000; stroke-width:59.0551; stroke-opacity:1; 
stroke-linecap:round; stroke-linejoin:round;">
<path d="M105535 73066
L105535 72554
L105657 72554
L105730 72578
L105778 72627
L105803 72676
L105827 72773
L105827 72846
L105803 72944
L105778 72993
L105730 73041
L105657 73066
L105535 73066
" />
</g>
<g style="fill:#000000; fill-opacity:0.0; 
stroke:#000000; stroke-width:39.3701; stroke-opacity:1; 
stroke-linecap:round; stroke-linejoin:round;">
</g>
<g style="fill:#000000; fill-opacity:0.0; 
stroke:#000000; stroke-width:59.0551; stroke-opacity:1; 
stroke-linecap:round; stroke-linejoin:round;">
<path d="M71951 78613
L71951 78023
L72092 78023
L72176 78051
L72232 78107
L72260 78163
L72289 78276
L72289 78360
L72260 78473
L72232 78529
L72176 78585
L72092 78613
L71951 78613
" />
<path d="M72795 78613
L72795 78304
L72767 78248
L72710 78219
L72598 78219
L72542 78248
" />
<path d="M72795 78585
L72739 78613
L72598 78613
L72542 78585
L72514 78529
L72514 78473
L72542 78416
L72598 78388
L72739 78388
L72795 78360
" />
<path d="M72992 78219
L73217 78219
" />
<path d="M73076 78023
L73076 78529
L73104 78585
L73160 78613
L73217 78613
" />
<path d="M73638 78585
L73582 78613
L73470 78613
L73413 78585
L73385 78529
L73385 78304
L73413 78248
L73470 78219
L73582 78219
L73638 78248
L73667 78304
L73667 78360
L73385 78416
" />
<path d="M73920 78557
L73948 78585
L73920 78613
L73892 78585
L73920 78557
L73920 78613
" />
<path d="M73920 78248
L73948 78276
L73920 78304
L73892 78276
L73920 78248
L73920 78304
" />
<path d="M74623 78079
L74651 78051
L74707 78023
L74848 78023
L74904 78051
L74932 78079
L74960 78135
L74960 78191
L74932 78276
L74595 78613
L74960 78613
" />
<path d="M75326 78023
L75382 78023
L75438 78051
L75466 78079
L75494 78135
L75523 78248
L75523 78388
L75494 78501
L75466 78557
L75438 78585
L75382 78613
L75326 78613
L75269 78585
L75241 78557
L75213 78501
L75185 78388
L75185 78248
L75213 78135
L75241 78079
L75269 78051
L75326 78023
" />
<path d="M76085 78613
L75748 78613
" />
<path d="M75916 78613
L75916 78023
L75860 78107
L75804 78163
L75748 78191
" />
<path d="M76282 78023
L76676 78023
L76422 78613
" />
<path d="M76901 78388
L77350 78388
" />
<path d="M77744 78023
L77800 78023
L77857 78051
L77885 78079
L77913 78135
L77941 78248
L77941 78388
L77913 78501
L77885 78557
L77857 78585
L77800 78613
L77744 78613
L77688 78585
L77660 78557
L77632 78501
L77604 78388
L77604 78248
L77632 78135
L77660 78079
L77688 78051
L77744 78023
" />
<path d="M78447 78219
L78447 78613
" />
<path d="M78307 77994
L78166 78416
L78532 78416
" />
<path d="M78757 78388
L79206 78388
" />
<path d="M79600 78023
L79656 78023
L79713 78051
L79741 78079
L79769 78135
L79797 78248
L79797 78388
L79769 78501
L79741 78557
L79713 78585
L79656 78613
L79600 78613
L79544 78585
L79516 78557
L79488 78501
L79460 78388
L79460 78248
L79488 78135
L79516 78079
L79544 78051
L79600 78023
" />
<path d="M80303 78219
L80303 78613
" />
<path d="M80163 77994
L80022 78416
L80388 78416
" />
</g>
<g style="fill:#000000; fill-opacity:0.0; 
stroke:#000000; stroke-width:39.3701; stroke-opacity:1; 
stroke-linecap:round; stroke-linejoin:round;">
</g>
<g style="fill:#000000; fill-opacity:0.0; 
stroke:#000000; stroke-width:59.0551; stroke-opacity:1; 
stroke-linecap:round; stroke-linejoin:round;">
<path d="M62755 78897
L105275 78897
" />
</g>
<g style="fill:#000000; fill-opacity:0.0; 
stroke:#000000; stroke-width:39.3701; stroke-opacity:1; 
stroke-linecap:round; stroke-linejoin:round;">
</g>
<g style="fill:#000000; fill-opacity:0.0; 
stroke:#000000; stroke-width:59.0551; stroke-opacity:1; 
stroke-linecap:round; stroke-linejoin:round;">
<path d="M63290 79715
L63290 79125
" />
<path d="M63627 79715
L63374 79378
" />
<path d="M63627 79125
L63290 79462
" />
<path d="M63880 79715
L63880 79322
" />
<path d="M63880 79125
L63852 79153
L63880 79181
L63908 79153
L63880 79125
L63880 79181
" />
<path d="M64499 79659
L64471 79687
L64386 79715
L64330 79715
L64246 79687
L64190 79631
L64161 79575
L64133 79462
L64133 79378
L64161 79266
L64190 79209
L64246 79153
L64330 79125
L64386 79125
L64471 79153
L64499 79181
" />
<path d="M65005 79715
L65005 79406
L64977 79350
L64921 79322
L64808 79322
L64752 79350
" />
<path d="M65005 79687
L64949 79715
L64808 79715
L64752 79687
L64724 79631
L64724 79575
L64752 79519
L64808 79491
L64949 79491
L65005 79462
" />
<path d="M65539 79715
L65539 79125
" />
<path d="M65539 79687
L65483 79715
L65371 79715
L65314 79687
L65286 79659
L65258 79603
L65258 79434
L65286 79378
L65314 79350
L65371 79322
L65483 79322
L65539 79350
" />
<path d="M66271 79406
L66467 79406
" />
<path d="M66552 79715
L66271 79715
L66271 79125
L66552 79125
" />
<path d="M66805 79659
L66833 79687
L66805 79715
L66777 79687
L66805 79659
L66805 79715
" />
<path d="M67086 79715
L67086 79125
L67227 79125
L67311 79153
L67367 79209
L67395 79266
L67424 79378
L67424 79462
L67395 79575
L67367 79631
L67311 79687
L67227 79715
L67086 79715
" />
<path d="M67677 79659
L67705 79687
L67677 79715
L67649 79687
L67677 79659
L67677 79715
" />
<path d="M67930 79547
L68211 79547
" />
<path d="M67874 79715
L68070 79125
L68267 79715
" />
<path d="M68464 79659
L68492 79687
L68464 79715
L68436 79687
L68464 79659
L68464 79715
" />
<path d="M69645 79715
L69645 79125
" />
<path d="M69701 79491
L69870 79715
" />
<path d="M69870 79322
L69645 79547
" />
<path d="M70123 79715
L70123 79322
" />
<path d="M70123 79125
L70095 79153
L70123 79181
L70151 79153
L70123 79125
L70123 79181
" />
<path d="M70658 79687
L70601 79715
L70489 79715
L70433 79687
L70404 79659
L70376 79603
L70376 79434
L70404 79378
L70433 79350
L70489 79322
L70601 79322
L70658 79350
" />
<path d="M71164 79715
L71164 79406
L71136 79350
L71079 79322
L70967 79322
L70911 79350
" />
<path d="M71164 79687
L71107 79715
L70967 79715
L70911 79687
L70883 79631
L70883 79575
L70911 79519
L70967 79491
L71107 79491
L71164 79462
" />
<path d="M71698 79715
L71698 79125
" />
<path d="M71698 79687
L71642 79715
L71529 79715
L71473 79687
L71445 79659
L71417 79603
L71417 79434
L71445 79378
L71473 79350
L71529 79322
L71642 79322
L71698 79350
" />
<path d="M72682 79322
L72682 79715
" />
<path d="M72542 79097
L72401 79519
L72767 79519
" />
<path d="M72992 79659
L73020 79687
L72992 79715
L72964 79687
L72992 79659
L72992 79715
" />
<path d="M73385 79125
L73442 79125
L73498 79153
L73526 79181
L73554 79237
L73582 79350
L73582 79491
L73554 79603
L73526 79659
L73498 79687
L73442 79715
L73385 79715
L73329 79687
L73301 79659
L73273 79603
L73245 79491
L73245 79350
L73273 79237
L73301 79181
L73329 79153
L73385 79125
" />
<path d="M73835 79659
L73863 79687
L73835 79715
L73807 79687
L73835 79659
L73835 79715
" />
<path d="M74426 79715
L74088 79715
" />
<path d="M74257 79715
L74257 79125
L74201 79209
L74145 79266
L74088 79294
" />
<path d="M74679 79491
L75129 79491
" />
<path d="M75382 79687
L75438 79715
L75551 79715
L75607 79687
L75635 79631
L75635 79603
L75607 79547
L75551 79519
L75466 79519
L75410 79491
L75382 79434
L75382 79406
L75410 79350
L75466 79322
L75551 79322
L75607 79350
" />
<path d="M75804 79322
L76029 79322
" />
<path d="M75888 79125
L75888 79631
L75916 79687
L75973 79715
L76029 79715
" />
<path d="M76479 79715
L76479 79406
L76451 79350
L76394 79322
L76282 79322
L76226 79350
" />
<path d="M76479 79687
L76422 79715
L76282 79715
L76226 79687
L76197 79631
L76197 79575
L76226 79519
L76282 79491
L76422 79491
L76479 79462
" />
<path d="M76760 79715
L76760 79125
" />
<path d="M76760 79350
L76816 79322
L76929 79322
L76985 79350
L77013 79378
L77041 79434
L77041 79603
L77013 79659
L76985 79687
L76929 79715
L76816 79715
L76760 79687
" />
<path d="M77379 79715
L77322 79687
L77294 79631
L77294 79125
" />
<path d="M77829 79687
L77772 79715
L77660 79715
L77604 79687
L77575 79631
L77575 79406
L77604 79350
L77660 79322
L77772 79322
L77829 79350
L77857 79406
L77857 79462
L77575 79519
" />
</g>
<g style="fill:#000000; fill-opacity:0.0; 
stroke:#000000; stroke-width:39.3701; stroke-opacity:1; 
stroke-linecap:round; stroke-linejoin:round;">
</g>
<g style="fill:#000000; fill-opacity:0.0; 
stroke:#000000; stroke-width:59.0551; stroke-opacity:1; 
stroke-linecap:round; stroke-linejoin:round;">
<path d="M62755 77716
L105275 77716
" />
</g>
<g style="fill:#000000; fill-opacity:0.0; 
stroke:#000000; stroke-width:39.3701; stroke-opacity:1; 
stroke-linecap:round; stroke-linejoin:round;">
</g>
<g style="fill:#000000; fill-opacity:0.0; 
stroke:#000000; stroke-width:118.11; stroke-opacity:1; 
stroke-linecap:round; stroke-linejoin:round;">
<path d="M97092 78613
L96895 78332
" />
<path d="M96754 78613
L96754 78023
L96979 78023
L97035 78051
L97064 78079
L97092 78135
L97092 78219
L97064 78276
L97035 78304
L96979 78332
L96754 78332
" />
<path d="M97570 78585
L97514 78613
L97401 78613
L97345 78585
L97317 78529
L97317 78304
L97345 78248
L97401 78219
L97514 78219
L97570 78248
L97598 78304
L97598 78360
L97317 78416
" />
<path d="M97795 78219
L97935 78613
L98076 78219
" />
<path d="M98301 78557
L98329 78585
L98301 78613
L98273 78585
L98301 78557
L98301 78613
" />
<path d="M98301 78248
L98329 78276
L98301 78304
L98273 78276
L98301 78248
L98301 78304
" />
<path d="M98976 78023
L99341 78023
L99145 78248
L99229 78248
L99285 78276
L99313 78304
L99341 78360
L99341 78501
L99313 78557
L99285 78585
L99229 78613
L99060 78613
L99004 78585
L98976 78557
" />
<path d="M99595 78557
L99623 78585
L99595 78613
L99566 78585
L99595 78557
L99595 78613
" />
<path d="M99820 78023
L100185 78023
L99988 78248
L100073 78248
L100129 78276
L100157 78304
L100185 78360
L100185 78501
L100157 78557
L100129 78585
L100073 78613
L99904 78613
L99848 78585
L99820 78557
" />
</g>
<g style="fill:#000000; fill-opacity:0.0; 
stroke:#000000; stroke-width:39.3701; stroke-opacity:1; 
stroke-linecap:round; stroke-linejoin:round;">
</g>
<g style="fill:#000000; fill-opacity:0.0; 
stroke:#000000; stroke-width:59.0551; stroke-opacity:1; 
stroke-linecap:round; stroke-linejoin:round;">
<path d="M63262 78585
L63346 78613
L63487 78613
L63543 78585
L63571 78557
L63599 78501
L63599 78444
L63571 78388
L63543 78360
L63487 78332
L63374 78304
L63318 78276
L63290 78248
L63262 78191
L63262 78135
L63290 78079
L63318 78051
L63374 78023
L63515 78023
L63599 78051
" />
<path d="M63852 78613
L63852 78219
" />
<path d="M63852 78023
L63824 78051
L63852 78079
L63880 78051
L63852 78023
L63852 78079
" />
<path d="M64077 78219
L64386 78219
L64077 78613
L64386 78613
" />
<path d="M64836 78585
L64780 78613
L64668 78613
L64611 78585
L64583 78529
L64583 78304
L64611 78248
L64668 78219
L64780 78219
L64836 78248
L64865 78304
L64865 78360
L64583 78416
" />
<path d="M65118 78557
L65146 78585
L65118 78613
L65089 78585
L65118 78557
L65118 78613
" />
<path d="M65118 78248
L65146 78276
L65118 78304
L65089 78276
L65118 78248
L65118 78304
" />
<path d="M65849 78023
L65849 78501
L65877 78557
L65905 78585
L65961 78613
L66074 78613
L66130 78585
L66158 78557
L66186 78501
L66186 78023
" />
<path d="M66439 78585
L66524 78613
L66664 78613
L66721 78585
L66749 78557
L66777 78501
L66777 78444
L66749 78388
L66721 78360
L66664 78332
L66552 78304
L66496 78276
L66467 78248
L66439 78191
L66439 78135
L66467 78079
L66496 78051
L66552 78023
L66692 78023
L66777 78051
" />
<path d="M67311 78613
L67030 78613
L67030 78023
" />
<path d="M67733 78585
L67677 78613
L67564 78613
L67508 78585
L67480 78529
L67480 78304
L67508 78248
L67564 78219
L67677 78219
L67733 78248
L67761 78304
L67761 78360
L67480 78416
" />
<path d="M67930 78219
L68155 78219
" />
<path d="M68014 78023
L68014 78529
L68042 78585
L68098 78613
L68155 78613
" />
<path d="M68267 78219
L68492 78219
" />
<path d="M68352 78023
L68352 78529
L68380 78585
L68436 78613
L68492 78613
" />
<path d="M68914 78585
L68858 78613
L68745 78613
L68689 78585
L68661 78529
L68661 78304
L68689 78248
L68745 78219
L68858 78219
L68914 78248
L68942 78304
L68942 78360
L68661 78416
" />
<path d="M69195 78613
L69195 78219
" />
<path d="M69195 78332
L69223 78276
L69251 78248
L69308 78219
L69364 78219
" />
</g>
<g style="fill:#000000; fill-opacity:0.0; 
stroke:#000000; stroke-width:39.3701; stroke-opacity:1; 
stroke-linecap:round; stroke-linejoin:round;">
</g>
<g style="fill:#000000; fill-opacity:0.0; 
stroke:#000000; stroke-width:59.0551; stroke-opacity:1; 
stroke-linecap:round; stroke-linejoin:round;">
<path d="M96754 79715
L96754 79125
" />
<path d="M97289 79715
L97289 79125
" />
<path d="M97289 79687
L97232 79715
L97120 79715
L97064 79687
L97035 79659
L97007 79603
L97007 79434
L97035 79378
L97064 79350
L97120 79322
L97232 79322
L97289 79350
" />
<path d="M97570 79659
L97598 79687
L97570 79715
L97542 79687
L97570 79659
L97570 79715
" />
<path d="M97570 79350
L97598 79378
L97570 79406
L97542 79378
L97570 79350
L97570 79406
" />
<path d="M98610 79715
L98273 79715
" />
<path d="M98442 79715
L98442 79125
L98385 79209
L98329 79266
L98273 79294
" />
<path d="M99285 79097
L98779 79856
" />
<path d="M99791 79715
L99454 79715
" />
<path d="M99623 79715
L99623 79125
L99566 79209
L99510 79266
L99454 79294
" />
</g>
<g style="fill:#000000; fill-opacity:0.0; 
stroke:#000000; stroke-width:39.3701; stroke-opacity:1; 
stroke-linecap:round; stroke-linejoin:round;">
</g>
<g style="fill:#000000; fill-opacity:0.0; 
stroke:#000000; stroke-width:59.0551; stroke-opacity:1; 
stroke-linecap:round; stroke-linejoin:round;">
<path d="M62755 76141
L105275 76141
" />
</g>
<g style="fill:#000000; fill-opacity:0.0; 
stroke:#000000; stroke-width:39.3701; stroke-opacity:1; 
stroke-linecap:round; stroke-linejoin:round;">
</g>
<g style="fill:#000000; fill-opacity:0.0; 
stroke:#000000; stroke-width:157.48; stroke-opacity:1; 
stroke-linecap:round; stroke-linejoin:round;">
<path d="M63327 76419
L63777 76419
" />
<path d="M63454 77206
L63552 76419
" />
<path d="M63941 77206
L64007 76681
" />
<path d="M64040 76419
L63997 76456
L64030 76494
L64072 76456
L64040 76419
L64030 76494
" />
<path d="M64269 76681
L64569 76681
" />
<path d="M64415 76419
L64330 77094
L64358 77169
L64429 77206
L64504 77206
" />
<path d="M64879 77206
L64808 77169
L64780 77094
L64865 76419
" />
<path d="M65483 77169
L65404 77206
L65254 77206
L65183 77169
L65155 77094
L65193 76794
L65239 76719
L65319 76681
L65469 76681
L65539 76719
L65568 76794
L65558 76869
L65174 76944
" />
<path d="M65863 77131
L65896 77169
L65853 77206
L65821 77169
L65863 77131
L65853 77206
" />
<path d="M65914 76719
L65947 76756
L65905 76794
L65872 76756
L65914 76719
L65905 76794
" />
<path d="M66828 77206
L66927 76419
L67114 76419
L67222 76456
L67288 76531
L67316 76606
L67335 76756
L67320 76869
L67264 77019
L67217 77094
L67133 77169
L67016 77206
L66828 77206
" />
<path d="M67616 77206
L67681 76681
" />
<path d="M67663 76831
L67709 76756
L67752 76719
L67831 76681
L67906 76681
" />
<path d="M68216 77206
L68145 77169
L68113 77131
L68084 77056
L68113 76831
L68159 76756
L68202 76719
L68281 76681
L68394 76681
L68464 76719
L68497 76756
L68525 76831
L68497 77056
L68450 77131
L68408 77169
L68328 77206
L68216 77206
" />
<path d="M68881 76681
L68783 77469
" />
<path d="M68877 76719
L68956 76681
L69106 76681
L69176 76719
L69209 76756
L69237 76831
L69209 77056
L69162 77131
L69120 77169
L69041 77206
L68891 77206
L68820 77169
" />
<path d="M69842 76794
L69950 76831
L69983 76869
L70011 76944
L69997 77056
L69950 77131
L69908 77169
L69828 77206
L69528 77206
L69626 76419
L69889 76419
L69959 76456
L69992 76494
L70020 76569
L70011 76644
L69964 76719
L69922 76756
L69842 76794
L69580 76794
" />
<path d="M70428 77206
L70358 77169
L70325 77131
L70297 77056
L70325 76831
L70372 76756
L70414 76719
L70494 76681
L70606 76681
L70676 76719
L70709 76756
L70737 76831
L70709 77056
L70662 77131
L70620 77169
L70540 77206
L70428 77206
" />
<path d="M70981 76681
L71281 76681
" />
<path d="M71126 76419
L71042 77094
L71070 77169
L71140 77206
L71215 77206
" />
<path d="M72420 77169
L72340 77206
L72190 77206
L72120 77169
L72087 77131
L72059 77056
L72087 76831
L72134 76756
L72176 76719
L72256 76681
L72406 76681
L72476 76719
" />
<path d="M72865 77206
L72795 77169
L72762 77131
L72734 77056
L72762 76831
L72809 76756
L72851 76719
L72931 76681
L73043 76681
L73113 76719
L73146 76756
L73174 76831
L73146 77056
L73099 77131
L73057 77169
L72978 77206
L72865 77206
" />
<path d="M73531 76681
L73465 77206
" />
<path d="M73521 76756
L73563 76719
L73643 76681
L73756 76681
L73826 76719
L73854 76794
L73802 77206
" />
<path d="M74131 76681
L74431 76681
" />
<path d="M74276 76419
L74191 77094
L74220 77169
L74290 77206
L74365 77206
" />
<path d="M74627 77206
L74693 76681
" />
<path d="M74674 76831
L74721 76756
L74763 76719
L74843 76681
L74918 76681
" />
<path d="M75227 77206
L75157 77169
L75124 77131
L75096 77056
L75124 76831
L75171 76756
L75213 76719
L75293 76681
L75405 76681
L75476 76719
L75508 76756
L75537 76831
L75508 77056
L75462 77131
L75419 77169
L75340 77206
L75227 77206
" />
<path d="M75940 77206
L75869 77169
L75841 77094
L75926 76419
" />
<path d="M76840 77206
L76938 76419
" />
<path d="M76901 76719
L76980 76681
L77130 76681
L77200 76719
L77233 76756
L77261 76831
L77233 77056
L77186 77131
L77144 77169
L77065 77206
L76915 77206
L76844 77169
" />
<path d="M77664 77206
L77594 77169
L77561 77131
L77533 77056
L77561 76831
L77608 76756
L77650 76719
L77730 76681
L77843 76681
L77913 76719
L77946 76756
L77974 76831
L77946 77056
L77899 77131
L77857 77169
L77777 77206
L77664 77206
" />
<path d="M78602 77206
L78653 76794
L78625 76719
L78555 76681
L78405 76681
L78325 76719
" />
<path d="M78607 77169
L78527 77206
L78339 77206
L78269 77169
L78241 77094
L78250 77019
L78297 76944
L78377 76906
L78564 76906
L78644 76869
" />
<path d="M78977 77206
L79042 76681
" />
<path d="M79024 76831
L79071 76756
L79113 76719
L79192 76681
L79267 76681
" />
<path d="M79802 77206
L79900 76419
" />
<path d="M79806 77169
L79727 77206
L79577 77206
L79506 77169
L79474 77131
L79446 77056
L79474 76831
L79520 76756
L79563 76719
L79642 76681
L79792 76681
L79863 76719
" />
</g>
<g style="fill:#000000; fill-opacity:0.0; 
stroke:#000000; stroke-width:39.3701; stroke-opacity:1; 
stroke-linecap:round; stroke-linejoin:round;">
</g>
<g style="fill:#000000; fill-opacity:0.0; 
stroke:#000000; stroke-width:59.0551; stroke-opacity:1; 
stroke-linecap:round; stroke-linejoin:round;">
<path d="M63487 75390
L63290 75390
" />
<path d="M63290 75700
L63290 75109
L63571 75109
" />
<path d="M63796 75700
L63796 75306
" />
<path d="M63796 75109
L63768 75137
L63796 75165
L63824 75137
L63796 75109
L63796 75165
" />
<path d="M64161 75700
L64105 75672
L64077 75615
L64077 75109
" />
<path d="M64611 75672
L64555 75700
L64443 75700
L64386 75672
L64358 75615
L64358 75390
L64386 75334
L64443 75306
L64555 75306
L64611 75334
L64640 75390
L64640 75447
L64358 75503
" />
<path d="M64893 75643
L64921 75672
L64893 75700
L64865 75672
L64893 75643
L64893 75700
" />
<path d="M64893 75334
L64921 75362
L64893 75390
L64865 75362
L64893 75334
L64893 75390
" />
<path d="M65877 75700
L65877 75109
" />
<path d="M65877 75672
L65821 75700
L65708 75700
L65652 75672
L65624 75643
L65596 75587
L65596 75419
L65624 75362
L65652 75334
L65708 75306
L65821 75306
L65877 75334
" />
<path d="M66158 75700
L66158 75306
" />
<path d="M66158 75419
L66186 75362
L66214 75334
L66271 75306
L66327 75306
" />
<path d="M66608 75700
L66552 75672
L66524 75643
L66496 75587
L66496 75419
L66524 75362
L66552 75334
L66608 75306
L66692 75306
L66749 75334
L66777 75362
L66805 75419
L66805 75587
L66777 75643
L66749 75672
L66692 75700
L66608 75700
" />
<path d="M67058 75306
L67058 75897
" />
<path d="M67058 75334
L67114 75306
L67227 75306
L67283 75334
L67311 75362
L67339 75419
L67339 75587
L67311 75643
L67283 75672
L67227 75700
L67114 75700
L67058 75672
" />
<path d="M67592 75700
L67592 75109
" />
<path d="M67592 75334
L67649 75306
L67761 75306
L67817 75334
L67845 75362
L67874 75419
L67874 75587
L67845 75643
L67817 75672
L67761 75700
L67649 75700
L67592 75672
" />
<path d="M68211 75700
L68155 75672
L68127 75643
L68098 75587
L68098 75419
L68127 75362
L68155 75334
L68211 75306
L68295 75306
L68352 75334
L68380 75362
L68408 75419
L68408 75587
L68380 75643
L68352 75672
L68295 75700
L68211 75700
" />
<path d="M68577 75306
L68802 75306
" />
<path d="M68661 75109
L68661 75615
L68689 75672
L68745 75700
L68802 75700
" />
<path d="M68858 75756
L69308 75756
" />
<path d="M69701 75672
L69645 75700
L69533 75700
L69476 75672
L69448 75643
L69420 75587
L69420 75419
L69448 75362
L69476 75334
L69533 75306
L69645 75306
L69701 75334
" />
<path d="M70039 75700
L69983 75672
L69955 75643
L69926 75587
L69926 75419
L69955 75362
L69983 75334
L70039 75306
L70123 75306
L70179 75334
L70208 75362
L70236 75419
L70236 75587
L70208 75643
L70179 75672
L70123 75700
L70039 75700
" />
<path d="M70489 75306
L70489 75700
" />
<path d="M70489 75362
L70517 75334
L70573 75306
L70658 75306
L70714 75334
L70742 75390
L70742 75700
" />
<path d="M70939 75306
L71164 75306
" />
<path d="M71023 75109
L71023 75615
L71051 75672
L71107 75700
L71164 75700
" />
<path d="M71361 75700
L71361 75306
" />
<path d="M71361 75419
L71389 75362
L71417 75334
L71473 75306
L71529 75306
" />
<path d="M71811 75700
L71754 75672
L71726 75643
L71698 75587
L71698 75419
L71726 75362
L71754 75334
L71811 75306
L71895 75306
L71951 75334
L71979 75362
L72007 75419
L72007 75587
L71979 75643
L71951 75672
L71895 75700
L71811 75700
" />
<path d="M72345 75700
L72289 75672
L72260 75615
L72260 75109
" />
<path d="M72429 75756
L72879 75756
" />
<path d="M73020 75700
L73020 75109
" />
<path d="M73020 75334
L73076 75306
L73188 75306
L73245 75334
L73273 75362
L73301 75419
L73301 75587
L73273 75643
L73245 75672
L73188 75700
L73076 75700
L73020 75672
" />
<path d="M73638 75700
L73582 75672
L73554 75643
L73526 75587
L73526 75419
L73554 75362
L73582 75334
L73638 75306
L73723 75306
L73779 75334
L73807 75362
L73835 75419
L73835 75587
L73807 75643
L73779 75672
L73723 75700
L73638 75700
" />
<path d="M74341 75700
L74341 75390
L74313 75334
L74257 75306
L74145 75306
L74088 75334
" />
<path d="M74341 75672
L74285 75700
L74145 75700
L74088 75672
L74060 75615
L74060 75559
L74088 75503
L74145 75475
L74285 75475
L74341 75447
" />
<path d="M74623 75700
L74623 75306
" />
<path d="M74623 75419
L74651 75362
L74679 75334
L74735 75306
L74791 75306
" />
<path d="M75241 75700
L75241 75109
" />
<path d="M75241 75672
L75185 75700
L75073 75700
L75016 75672
L74988 75643
L74960 75587
L74960 75419
L74988 75362
L75016 75334
L75073 75306
L75185 75306
L75241 75334
" />
<path d="M75523 75643
L75551 75672
L75523 75700
L75494 75672
L75523 75643
L75523 75700
" />
<path d="M75804 75700
L75804 75109
" />
<path d="M75860 75475
L76029 75700
" />
<path d="M76029 75306
L75804 75531
" />
<path d="M76282 75700
L76282 75306
" />
<path d="M76282 75109
L76254 75137
L76282 75165
L76310 75137
L76282 75109
L76282 75165
" />
<path d="M76816 75672
L76760 75700
L76647 75700
L76591 75672
L76563 75643
L76535 75587
L76535 75419
L76563 75362
L76591 75334
L76647 75306
L76760 75306
L76816 75334
" />
<path d="M77322 75700
L77322 75390
L77294 75334
L77238 75306
L77125 75306
L77069 75334
" />
<path d="M77322 75672
L77266 75700
L77125 75700
L77069 75672
L77041 75615
L77041 75559
L77069 75503
L77125 75475
L77266 75475
L77322 75447
" />
<path d="M77857 75700
L77857 75109
" />
<path d="M77857 75672
L77800 75700
L77688 75700
L77632 75672
L77604 75643
L77575 75587
L77575 75419
L77604 75362
L77632 75334
L77688 75306
L77800 75306
L77857 75334
" />
<path d="M77997 75756
L78447 75756
" />
<path d="M78588 75306
L78588 75897
" />
<path d="M78588 75334
L78644 75306
L78757 75306
L78813 75334
L78841 75362
L78869 75419
L78869 75587
L78841 75643
L78813 75672
L78757 75700
L78644 75700
L78588 75672
" />
<path d="M79375 75672
L79319 75700
L79206 75700
L79150 75672
L79122 75643
L79094 75587
L79094 75419
L79122 75362
L79150 75334
L79206 75306
L79319 75306
L79375 75334
" />
<path d="M79628 75700
L79628 75109
" />
<path d="M79628 75334
L79685 75306
L79797 75306
L79853 75334
L79881 75362
L79910 75419
L79910 75587
L79881 75643
L79853 75672
L79797 75700
L79685 75700
L79628 75672
" />
</g>
<g style="fill:#000000; fill-opacity:0.0; 
stroke:#000000; stroke-width:39.3701; stroke-opacity:1; 
stroke-linecap:round; stroke-linejoin:round;">
</g>
<g style="fill:#000000; fill-opacity:0.0; 
stroke:#000000; stroke-width:59.0551; stroke-opacity:1; 
stroke-linecap:round; stroke-linejoin:round;">
<path d="M62755 73779
L105275 73779
" />
</g>
<g style="fill:#000000; fill-opacity:0.0; 
stroke:#000000; stroke-width:39.3701; stroke-opacity:1; 
stroke-linecap:round; stroke-linejoin:round;">
</g>
<g style="fill:#000000; fill-opacity:0.0; 
stroke:#000000; stroke-width:59.0551; stroke-opacity:1; 
stroke-linecap:round; stroke-linejoin:round;">
<path d="M63262 74609
L63346 74637
L63487 74637
L63543 74609
L63571 74580
L63599 74524
L63599 74468
L63571 74412
L63543 74384
L63487 74356
L63374 74327
L63318 74299
L63290 74271
L63262 74215
L63262 74159
L63290 74102
L63318 74074
L63374 74046
L63515 74046
L63599 74074
" />
<path d="M63852 74637
L63852 74046
" />
<path d="M64105 74637
L64105 74327
L64077 74271
L64021 74243
L63937 74243
L63880 74271
L63852 74299
" />
<path d="M64611 74609
L64555 74637
L64443 74637
L64386 74609
L64358 74552
L64358 74327
L64386 74271
L64443 74243
L64555 74243
L64611 74271
L64640 74327
L64640 74384
L64358 74440
" />
<path d="M65118 74609
L65061 74637
L64949 74637
L64893 74609
L64865 74552
L64865 74327
L64893 74271
L64949 74243
L65061 74243
L65118 74271
L65146 74327
L65146 74384
L64865 74440
" />
<path d="M65314 74243
L65539 74243
" />
<path d="M65399 74046
L65399 74552
L65427 74609
L65483 74637
L65539 74637
" />
<path d="M65736 74580
L65764 74609
L65736 74637
L65708 74609
L65736 74580
L65736 74637
" />
<path d="M65736 74271
L65764 74299
L65736 74327
L65708 74299
L65736 74271
L65736 74327
" />
</g>
<g style="fill:#000000; fill-opacity:0.0; 
stroke:#000000; stroke-width:39.3701; stroke-opacity:1; 
stroke-linecap:round; stroke-linejoin:round;">
</g>
<g style="fill:#000000; fill-opacity:0.0; 
stroke:#000000; stroke-width:118.11; stroke-opacity:1; 
stroke-linecap:round; stroke-linejoin:round;">
<path d="M63262 73428
L63346 73456
L63487 73456
L63543 73428
L63571 73399
L63599 73343
L63599 73287
L63571 73231
L63543 73203
L63487 73174
L63374 73146
L63318 73118
L63290 73090
L63262 73034
L63262 72978
L63290 72921
L63318 72893
L63374 72865
L63515 72865
L63599 72893
" />
<path d="M64105 73428
L64049 73456
L63937 73456
L63880 73428
L63852 73399
L63824 73343
L63824 73174
L63852 73118
L63880 73090
L63937 73062
L64049 73062
L64105 73090
" />
<path d="M64358 73456
L64358 73062
" />
<path d="M64358 72865
L64330 72893
L64358 72921
L64386 72893
L64358 72865
L64358 72921
" />
<path d="M64640 73231
L65089 73231
" />
<path d="M65568 73146
L65652 73174
L65680 73203
L65708 73259
L65708 73343
L65680 73399
L65652 73428
L65596 73456
L65371 73456
L65371 72865
L65568 72865
L65624 72893
L65652 72921
L65680 72978
L65680 73034
L65652 73090
L65624 73118
L65568 73146
L65371 73146
" />
<path d="M66046 73456
L65989 73428
L65961 73399
L65933 73343
L65933 73174
L65961 73118
L65989 73090
L66046 73062
L66130 73062
L66186 73090
L66214 73118
L66242 73174
L66242 73343
L66214 73399
L66186 73428
L66130 73456
L66046 73456
" />
<path d="M66411 73062
L66636 73062
" />
<path d="M66496 72865
L66496 73371
L66524 73428
L66580 73456
L66636 73456
" />
<path d="M66805 73428
L66861 73456
L66974 73456
L67030 73428
L67058 73371
L67058 73343
L67030 73287
L66974 73259
L66889 73259
L66833 73231
L66805 73174
L66805 73146
L66833 73090
L66889 73062
L66974 73062
L67030 73090
" />
<path d="M67761 73456
L67761 72865
" />
<path d="M68042 73062
L68042 73456
" />
<path d="M68042 73118
L68070 73090
L68127 73062
L68211 73062
L68267 73090
L68295 73146
L68295 73456
" />
<path d="M68830 73428
L68773 73456
L68661 73456
L68605 73428
L68577 73399
L68548 73343
L68548 73174
L68577 73118
L68605 73090
L68661 73062
L68773 73062
L68830 73090
" />
<path d="M69083 73399
L69111 73428
L69083 73456
L69055 73428
L69083 73399
L69083 73456
" />
</g>
<g style="fill:#000000; fill-opacity:0.0; 
stroke:#000000; stroke-width:39.3701; stroke-opacity:1; 
stroke-linecap:round; stroke-linejoin:round;">
</g>
<g style="fill:#000000; fill-opacity:0.0; 
stroke:#000000; stroke-width:59.0551; stroke-opacity:1; 
stroke-linecap:round; stroke-linejoin:round;">
<path d="M70629 77716
L70629 78897
" />
</g>
<g style="fill:#000000; fill-opacity:0.0; 
stroke:#000000; stroke-width:39.3701; stroke-opacity:1; 
stroke-linecap:round; stroke-linejoin:round;">
</g>
<g style="fill:#000000; fill-opacity:0.0; 
stroke:#000000; stroke-width:59.0551; stroke-opacity:1; 
stroke-linecap:round; stroke-linejoin:round;">
<path d="M95826 77716
L95826 80275
" />
</g>
<g style="fill:#000000; fill-opacity:0.0; 
stroke:#000000; stroke-width:39.3701; stroke-opacity:1; 
stroke-linecap:round; stroke-linejoin:round;">
<path d="M12992 16929
L48818 16929
" />
<path d="M12992 35826
L25196 35826
" />
<path d="M12992 16929
L12992 35826
" />
<path d="M25196 35826
L25196 44488
" />
<path d="M48818 8267
L48818 16929
" />
<path d="M58267 8267
L58267 44488
" />
<path d="M48818 8267
L58267 8267
" />
<path d="M25196 44488
L58267 44488
" />
</g>
<g style="fill:#000000; fill-opacity:0.0; 
stroke:#000000; stroke-width:30; stroke-opacity:1; 
stroke-linecap:round; stroke-linejoin:round;">
<path d="M14384 22588
L14384 22088
L14194 22088
L14146 22112
L14122 22136
L14099 22183
L14099 22255
L14122 22302
L14146 22326
L14194 22350
L14384 22350
" />
<path d="M13670 22088
L13765 22088
L13813 22112
L13837 22136
L13884 22207
L13908 22302
L13908 22493
L13884 22540
L13860 22564
L13813 22588
L13718 22588
L13670 22564
L13646 22540
L13622 22493
L13622 22374
L13646 22326
L13670 22302
L13718 22278
L13813 22278
L13860 22302
L13884 22326
L13908 22374
" />
</g>
<g style="fill:#000000; fill-opacity:0.0; 
stroke:#000000; stroke-width:59.0551; stroke-opacity:1; 
stroke-linecap:round; stroke-linejoin:round;">
<path d="M29567 20876
L29567 20483
" />
<path d="M29154 20839
L29173 20858
L29229 20876
L29267 20876
L29323 20858
L29361 20820
L29379 20783
L29398 20708
L29398 20651
L29379 20576
L29361 20539
L29323 20501
L29267 20483
L29229 20483
L29173 20501
L29154 20520
" />
<path d="M28779 20876
L29004 20876
" />
<path d="M28892 20876
L28892 20483
L28929 20539
L28967 20576
L29004 20595
" />
<path d="M39291 33188
L39272 33151
L39235 33113
L39179 33057
L39160 33020
L39160 32982
" />
<path d="M39254 33001
L39235 32963
L39197 32926
L39122 32907
L38991 32907
L38916 32926
L38879 32963
L38860 33001
L38860 33076
L38879 33113
L38916 33151
L38991 33170
L39122 33170
L39197 33151
L39235 33113
L39254 33076
L39254 33001
" />
<path d="M38860 33507
L38860 33432
L38879 33395
L38897 33376
L38954 33338
L39029 33320
L39179 33320
L39216 33338
L39235 33357
L39254 33395
L39254 33470
L39235 33507
L39216 33526
L39179 33545
L39085 33545
L39047 33526
L39029 33507
L39010 33470
L39010 33395
L39029 33357
L39047 33338
L39085 33320
" />
<path d="M37191 37638
L37172 37601
L37135 37563
L37079 37507
L37060 37470
L37060 37432
" />
<path d="M37154 37451
L37135 37413
L37097 37376
L37022 37357
L36891 37357
L36816 37376
L36779 37413
L36760 37451
L36760 37526
L36779 37563
L36816 37601
L36891 37620
L37022 37620
L37097 37601
L37135 37563
L37154 37526
L37154 37451
" />
<path d="M36760 37976
L36760 37788
L36947 37770
L36929 37788
L36910 37826
L36910 37920
L36929 37957
L36947 37976
L36985 37995
L37079 37995
L37116 37976
L37135 37957
L37154 37920
L37154 37826
L37135 37788
L37116 37770
" />
<path d="M47202 38522
L47240 38503
L47277 38466
L47334 38410
L47371 38391
L47409 38391
" />
<path d="M47390 38485
L47427 38466
L47465 38428
L47484 38353
L47484 38222
L47465 38147
L47427 38110
L47390 38091
L47315 38091
L47277 38110
L47240 38147
L47221 38222
L47221 38353
L47240 38428
L47277 38466
L47315 38485
L47390 38485
" />
<path d="M46846 38485
L47071 38485
" />
<path d="M46959 38485
L46959 38091
L46996 38147
L47034 38185
L47071 38203
" />
<path d="M57658 26865
L57977 26865
L58014 26884
L58033 26902
L58052 26940
L58052 27015
L58033 27052
L58014 27071
L57977 27090
L57658 27090
" />
<path d="M57658 27240
L57658 27502
L58052 27334
" />
<path d="M48878 26314
L49197 26314
L49235 26332
L49253 26351
L49272 26389
L49272 26464
L49253 26501
L49235 26520
L49197 26539
L48878 26539
" />
<path d="M48878 26914
L48878 26726
L49066 26707
L49047 26726
L49028 26764
L49028 26857
L49047 26895
L49066 26914
L49103 26932
L49197 26932
L49235 26914
L49253 26895
L49272 26857
L49272 26764
L49253 26726
L49235 26707
" />
<path d="M57300 30376
L57319 30395
L57375 30414
L57412 30414
L57469 30395
L57506 30358
L57525 30320
L57544 30245
L57544 30189
L57525 30114
L57506 30076
L57469 30039
L57412 30020
L57375 30020
L57319 30039
L57300 30058
" />
<path d="M56925 30414
L57150 30414
" />
<path d="M57037 30414
L57037 30020
L57075 30076
L57112 30114
L57150 30133
" />
<path d="M56775 30058
L56756 30039
L56719 30020
L56625 30020
L56587 30039
L56569 30058
L56550 30095
L56550 30133
L56569 30189
L56794 30414
L56550 30414
" />
<path d="M56124 30219
L56143 30200
L56162 30144
L56162 30106
L56143 30050
L56106 30013
L56068 29994
L55993 29975
L55937 29975
L55862 29994
L55824 30013
L55787 30050
L55768 30106
L55768 30144
L55787 30200
L55806 30219
" />
<path d="M56162 30594
L56162 30369
" />
<path d="M56162 30481
L55768 30481
L55824 30444
L55862 30406
L55881 30369
" />
<path d="M55768 30725
L55768 30969
L55918 30838
L55918 30894
L55937 30931
L55956 30950
L55993 30969
L56087 30969
L56124 30950
L56143 30931
L56162 30894
L56162 30781
L56143 30744
L56124 30725
" />
<path d="M56867 24311
L56998 24124
" />
<path d="M57092 24311
L57092 23918
L56942 23918
L56904 23937
L56886 23955
L56867 23993
L56867 24049
L56886 24086
L56904 24105
L56942 24124
L57092 24124
" />
<path d="M56717 23955
L56698 23937
L56661 23918
L56567 23918
L56529 23937
L56511 23955
L56492 23993
L56492 24030
L56511 24086
L56736 24311
L56492 24311
" />
<path d="M56154 24049
L56154 24311
" />
<path d="M56248 23899
L56342 24180
L56098 24180
" />
<path d="M54505 24036
L54636 23848
" />
<path d="M54730 24036
L54730 23642
L54580 23642
L54542 23661
L54523 23680
L54505 23717
L54505 23773
L54523 23811
L54542 23830
L54580 23848
L54730 23848
" />
<path d="M54355 23680
L54336 23661
L54298 23642
L54205 23642
L54167 23661
L54148 23680
L54130 23717
L54130 23755
L54148 23811
L54373 24036
L54130 24036
" />
<path d="M53905 23811
L53942 23792
L53961 23773
L53980 23736
L53980 23717
L53961 23680
L53942 23661
L53905 23642
L53830 23642
L53792 23661
L53773 23680
L53755 23717
L53755 23736
L53773 23773
L53792 23792
L53830 23811
L53905 23811
L53942 23830
L53961 23848
L53980 23886
L53980 23961
L53961 23998
L53942 24017
L53905 24036
L53830 24036
L53792 24017
L53773 23998
L53755 23961
L53755 23886
L53773 23848
L53792 23830
L53830 23811
" />
<path d="M52418 30493
L52549 30305
" />
<path d="M52643 30493
L52643 30099
L52493 30099
L52455 30118
L52437 30136
L52418 30174
L52418 30230
L52437 30268
L52455 30286
L52493 30305
L52643 30305
" />
<path d="M52043 30493
L52268 30493
" />
<path d="M52155 30493
L52155 30099
L52193 30155
L52230 30193
L52268 30211
" />
<path d="M51799 30099
L51762 30099
L51724 30118
L51706 30136
L51687 30174
L51668 30249
L51668 30343
L51687 30418
L51706 30455
L51724 30474
L51762 30493
L51799 30493
L51837 30474
L51856 30455
L51874 30418
L51893 30343
L51893 30249
L51874 30174
L51856 30136
L51837 30118
L51799 30099
" />
<path d="M49701 30335
L49833 30148
" />
<path d="M49926 30335
L49926 29941
L49776 29941
L49739 29960
L49720 29979
L49701 30016
L49701 30073
L49720 30110
L49739 30129
L49776 30148
L49926 30148
" />
<path d="M49326 30335
L49551 30335
" />
<path d="M49439 30335
L49439 29941
L49476 29998
L49514 30035
L49551 30054
" />
<path d="M48952 30335
L49176 30335
" />
<path d="M49064 30335
L49064 29941
L49101 29998
L49139 30035
L49176 30054
" />
<path d="M52418 29784
L52549 29596
" />
<path d="M52643 29784
L52643 29390
L52493 29390
L52455 29409
L52437 29428
L52418 29465
L52418 29521
L52437 29559
L52455 29578
L52493 29596
L52643 29596
" />
<path d="M52043 29784
L52268 29784
" />
<path d="M52155 29784
L52155 29390
L52193 29446
L52230 29484
L52268 29503
" />
<path d="M51893 29428
L51874 29409
L51837 29390
L51743 29390
L51706 29409
L51687 29428
L51668 29465
L51668 29503
L51687 29559
L51912 29784
L51668 29784
" />
<path d="M49150 24863
L49281 24675
" />
<path d="M49375 24863
L49375 24469
L49225 24469
L49188 24488
L49169 24506
L49150 24544
L49150 24600
L49169 24638
L49188 24656
L49225 24675
L49375 24675
" />
<path d="M48775 24863
L49000 24863
" />
<path d="M48888 24863
L48888 24469
L48925 24525
L48963 24563
L49000 24581
" />
<path d="M48644 24469
L48382 24469
L48550 24863
" />
<path d="M43839 19619
L43652 19488
" />
<path d="M43839 19394
L43445 19394
L43445 19544
L43464 19581
L43483 19600
L43520 19619
L43577 19619
L43614 19600
L43633 19581
L43652 19544
L43652 19394
" />
<path d="M43445 19750
L43445 19994
L43595 19863
L43595 19919
L43614 19956
L43633 19975
L43670 19994
L43764 19994
L43802 19975
L43820 19956
L43839 19919
L43839 19806
L43820 19769
L43802 19750
" />
<path d="M41910 19580
L41722 19448
" />
<path d="M41910 19355
L41516 19355
L41516 19505
L41535 19542
L41554 19561
L41591 19580
L41647 19580
L41685 19561
L41704 19542
L41722 19505
L41722 19355
" />
<path d="M41647 19917
L41910 19917
" />
<path d="M41497 19823
L41779 19730
L41779 19973
" />
<path d="M41989 30731
L41801 30599
" />
<path d="M41989 30506
L41595 30506
L41595 30656
L41614 30693
L41632 30712
L41670 30731
L41726 30731
L41764 30712
L41782 30693
L41801 30656
L41801 30506
" />
<path d="M41989 31106
L41989 30881
" />
<path d="M41989 30993
L41595 30993
L41651 30956
L41689 30918
L41707 30881
" />
<path d="M41989 31293
L41989 31368
L41970 31406
L41951 31424
L41895 31462
L41820 31481
L41670 31481
L41632 31462
L41614 31443
L41595 31406
L41595 31331
L41614 31293
L41632 31274
L41670 31256
L41764 31256
L41801 31274
L41820 31293
L41839 31331
L41839 31406
L41820 31443
L41801 31462
L41764 31481
" />
<path d="M40374 29628
L40187 29497
" />
<path d="M40374 29403
L39981 29403
L39981 29553
L40000 29591
L40018 29610
L40056 29628
L40112 29628
L40149 29610
L40168 29591
L40187 29553
L40187 29403
" />
<path d="M40018 29778
L40000 29797
L39981 29835
L39981 29928
L40000 29966
L40018 29985
L40056 30003
L40093 30003
L40149 29985
L40374 29760
L40374 30003
" />
<path d="M39981 30247
L39981 30284
L40000 30322
L40018 30341
L40056 30359
L40131 30378
L40224 30378
L40299 30359
L40337 30341
L40356 30322
L40374 30284
L40374 30247
L40356 30209
L40337 30191
L40299 30172
L40224 30153
L40131 30153
L40056 30172
L40018 30191
L40000 30209
L39981 30247
" />
<path d="M42266 23565
L42285 23547
L42304 23490
L42304 23453
L42285 23397
L42247 23359
L42210 23340
L42135 23322
L42079 23322
L42004 23340
L41966 23359
L41929 23397
L41910 23453
L41910 23490
L41929 23547
L41947 23565
" />
<path d="M41947 23715
L41929 23734
L41910 23772
L41910 23865
L41929 23903
L41947 23922
L41985 23940
L42022 23940
L42079 23922
L42304 23697
L42304 23940
" />
<path d="M42079 24165
L42060 24128
L42041 24109
L42004 24090
L41985 24090
L41947 24109
L41929 24128
L41910 24165
L41910 24240
L41929 24278
L41947 24296
L41985 24315
L42004 24315
L42041 24296
L42060 24278
L42079 24240
L42079 24165
L42097 24128
L42116 24109
L42154 24090
L42229 24090
L42266 24109
L42285 24128
L42304 24165
L42304 24240
L42285 24278
L42266 24296
L42229 24315
L42154 24315
L42116 24296
L42097 24278
L42079 24240
" />
<path d="M44589 23526
L44608 23507
L44626 23451
L44626 23413
L44608 23357
L44570 23320
L44533 23301
L44458 23282
L44401 23282
L44326 23301
L44289 23320
L44251 23357
L44233 23413
L44233 23451
L44251 23507
L44270 23526
" />
<path d="M44270 23676
L44251 23695
L44233 23732
L44233 23826
L44251 23863
L44270 23882
L44308 23901
L44345 23901
L44401 23882
L44626 23657
L44626 23901
" />
<path d="M44626 24088
L44626 24163
L44608 24201
L44589 24220
L44533 24257
L44458 24276
L44308 24276
L44270 24257
L44251 24238
L44233 24201
L44233 24126
L44251 24088
L44270 24070
L44308 24051
L44401 24051
L44439 24070
L44458 24088
L44476 24126
L44476 24201
L44458 24238
L44439 24257
L44401 24276
" />
<path d="M41154 20109
L41286 20109
" />
<path d="M41286 20315
L41286 19922
L41098 19922
" />
<path d="M40817 20109
L40761 20128
L40742 20147
L40723 20184
L40723 20240
L40742 20278
L40761 20297
L40798 20315
L40948 20315
L40948 19922
L40817 19922
L40779 19940
L40761 19959
L40742 19997
L40742 20034
L40761 20072
L40779 20090
L40817 20109
L40948 20109
" />
<path d="M40348 20315
L40573 20315
" />
<path d="M40461 20315
L40461 19922
L40498 19978
L40536 20015
L40573 20034
" />
<path d="M25956 32309
L25956 32178
" />
<path d="M26162 32178
L25768 32178
L25768 32365
" />
<path d="M25956 32647
L25974 32703
L25993 32722
L26031 32740
L26087 32740
L26124 32722
L26143 32703
L26162 32665
L26162 32515
L25768 32515
L25768 32647
L25787 32684
L25806 32703
L25843 32722
L25881 32722
L25918 32703
L25937 32684
L25956 32647
L25956 32515
" />
<path d="M25806 32890
L25787 32909
L25768 32947
L25768 33040
L25787 33078
L25806 33097
L25843 33115
L25881 33115
L25937 33097
L26162 32872
L26162 33115
" />
<path d="M40414 28329
L40226 28198
" />
<path d="M40414 28104
L40020 28104
L40020 28254
L40039 28292
L40058 28310
L40095 28329
L40151 28329
L40189 28310
L40208 28292
L40226 28254
L40226 28104
" />
<path d="M40151 28667
L40414 28667
" />
<path d="M40001 28573
L40283 28479
L40283 28723
" />
<path d="M40020 28948
L40020 28985
L40039 29023
L40058 29041
L40095 29060
L40170 29079
L40264 29079
L40339 29060
L40376 29041
L40395 29023
L40414 28985
L40414 28948
L40395 28910
L40376 28892
L40339 28873
L40264 28854
L40170 28854
L40095 28873
L40058 28892
L40039 28910
L40020 28948
" />
<path d="M42638 28290
L42451 28158
" />
<path d="M42638 28065
L42245 28065
L42245 28215
L42263 28252
L42282 28271
L42320 28290
L42376 28290
L42413 28271
L42432 28252
L42451 28215
L42451 28065
" />
<path d="M42376 28627
L42638 28627
" />
<path d="M42226 28533
L42507 28440
L42507 28683
" />
<path d="M42638 29040
L42638 28815
" />
<path d="M42638 28927
L42245 28927
L42301 28890
L42338 28852
L42357 28815
" />
<path d="M42343 22305
L42155 22174
" />
<path d="M42343 22080
L41949 22080
L41949 22230
L41968 22268
L41987 22287
L42024 22305
L42080 22305
L42118 22287
L42137 22268
L42155 22230
L42155 22080
" />
<path d="M42080 22643
L42343 22643
" />
<path d="M41931 22549
L42212 22455
L42212 22699
" />
<path d="M42080 23018
L42343 23018
" />
<path d="M41931 22924
L42212 22830
L42212 23074
" />
<path d="M44626 22305
L44439 22174
" />
<path d="M44626 22080
L44233 22080
L44233 22230
L44251 22268
L44270 22287
L44308 22305
L44364 22305
L44401 22287
L44420 22268
L44439 22230
L44439 22080
" />
<path d="M44364 22643
L44626 22643
" />
<path d="M44214 22549
L44495 22455
L44495 22699
" />
<path d="M44233 23037
L44233 22849
L44420 22830
L44401 22849
L44383 22887
L44383 22980
L44401 23018
L44420 23037
L44458 23055
L44551 23055
L44589 23037
L44608 23018
L44626 22980
L44626 22887
L44608 22849
L44589 22830
" />
<path d="M42579 19313
L42392 19182
" />
<path d="M42579 19088
L42185 19088
L42185 19238
L42204 19276
L42223 19295
L42260 19313
L42317 19313
L42354 19295
L42373 19276
L42392 19238
L42392 19088
" />
<path d="M42185 19670
L42185 19482
L42373 19463
L42354 19482
L42335 19520
L42335 19613
L42354 19651
L42373 19670
L42410 19688
L42504 19688
L42542 19670
L42560 19651
L42579 19613
L42579 19520
L42560 19482
L42542 19463
" />
<path d="M42185 19932
L42185 19970
L42204 20007
L42223 20026
L42260 20044
L42335 20063
L42429 20063
L42504 20044
L42542 20026
L42560 20007
L42579 19970
L42579 19932
L42560 19895
L42542 19876
L42504 19857
L42429 19838
L42335 19838
L42260 19857
L42223 19876
L42204 19895
L42185 19932
" />
<path d="M45099 20337
L44911 20206
" />
<path d="M45099 20112
L44705 20112
L44705 20262
L44724 20299
L44743 20318
L44780 20337
L44836 20337
L44874 20318
L44893 20299
L44911 20262
L44911 20112
" />
<path d="M44705 20693
L44705 20506
L44893 20487
L44874 20506
L44855 20543
L44855 20637
L44874 20674
L44893 20693
L44930 20712
L45024 20712
L45061 20693
L45080 20674
L45099 20637
L45099 20543
L45080 20506
L45061 20487
" />
<path d="M45099 21087
L45099 20862
" />
<path d="M45099 20974
L44705 20974
L44761 20937
L44799 20899
L44818 20862
" />
<path d="M39077 29589
L39096 29570
L39115 29514
L39115 29476
L39096 29420
L39058 29383
L39021 29364
L38946 29345
L38890 29345
L38815 29364
L38777 29383
L38740 29420
L38721 29476
L38721 29514
L38740 29570
L38758 29589
" />
<path d="M38721 29720
L38721 29964
L38871 29833
L38871 29889
L38890 29926
L38908 29945
L38946 29964
L39040 29964
L39077 29945
L39096 29926
L39115 29889
L39115 29776
L39096 29739
L39077 29720
" />
<path d="M38721 30301
L38721 30226
L38740 30189
L38758 30170
L38815 30133
L38890 30114
L39040 30114
L39077 30133
L39096 30151
L39115 30189
L39115 30264
L39096 30301
L39077 30320
L39040 30339
L38946 30339
L38908 30320
L38890 30301
L38871 30264
L38871 30189
L38890 30151
L38908 30133
L38946 30114
" />
<path d="M48044 29381
L48175 29381
" />
<path d="M48175 29587
L48175 29193
L47988 29193
" />
<path d="M47707 29381
L47650 29400
L47632 29418
L47613 29456
L47613 29512
L47632 29550
L47650 29568
L47688 29587
L47838 29587
L47838 29193
L47707 29193
L47669 29212
L47650 29231
L47632 29268
L47632 29306
L47650 29343
L47669 29362
L47707 29381
L47838 29381
" />
<path d="M47482 29193
L47238 29193
L47369 29343
L47313 29343
L47275 29362
L47257 29381
L47238 29418
L47238 29512
L47257 29550
L47275 29568
L47313 29587
L47425 29587
L47463 29568
L47482 29550
" />
<path d="M47178 28239
L47309 28239
" />
<path d="M47309 28445
L47309 28052
L47122 28052
" />
<path d="M46841 28239
L46784 28258
L46766 28277
L46747 28314
L46747 28370
L46766 28408
L46784 28427
L46822 28445
L46972 28445
L46972 28052
L46841 28052
L46803 28070
L46784 28089
L46766 28127
L46766 28164
L46784 28202
L46803 28220
L46841 28239
L46972 28239
" />
<path d="M46409 28183
L46409 28445
" />
<path d="M46503 28033
L46597 28314
L46353 28314
" />
<path d="M48141 22191
L48141 22060
" />
<path d="M48347 22060
L47953 22060
L47953 22247
" />
<path d="M48141 22529
L48159 22585
L48178 22604
L48216 22622
L48272 22622
L48309 22604
L48328 22585
L48347 22547
L48347 22397
L47953 22397
L47953 22529
L47972 22566
L47991 22585
L48028 22604
L48066 22604
L48103 22585
L48122 22566
L48141 22529
L48141 22397
" />
<path d="M47953 22979
L47953 22791
L48141 22772
L48122 22791
L48103 22829
L48103 22922
L48122 22960
L48141 22979
L48178 22997
L48272 22997
L48309 22979
L48328 22960
L48347 22922
L48347 22829
L48328 22791
L48309 22772
" />
</g>
<g style="fill:#000000; fill-opacity:0.0; 
stroke:#000000; stroke-width:20; stroke-opacity:1; 
stroke-linecap:round; stroke-linejoin:round;">
<path d="M19518 26791
L19278 26791
L19278 26848
L19289 26882
L19312 26905
L19335 26917
L19380 26928
L19415 26928
L19460 26917
L19483 26905
L19506 26882
L19518 26848
L19518 26791
" />
<path d="M19278 27145
L19278 27031
L19392 27019
L19380 27031
L19369 27054
L19369 27111
L19380 27134
L19392 27145
L19415 27157
L19472 27157
L19495 27145
L19506 27134
L19518 27111
L19518 27054
L19506 27031
L19495 27019
" />
</g>
<g style="fill:#000000; fill-opacity:0.0; 
stroke:#000000; stroke-width:10; stroke-opacity:1; 
stroke-linecap:round; stroke-linejoin:round;">
<path d="M19971 26754
L20047 26754
L20047 26594
" />
<path d="M19925 26609
L19917 26602
L19902 26594
L19864 26594
L19849 26602
L19841 26609
L19834 26624
L19834 26640
L19841 26663
L19933 26754
L19834 26754
" />
</g>
<g style="fill:#000000; fill-opacity:0.0; 
stroke:#000000; stroke-width:59.0551; stroke-opacity:1; 
stroke-linecap:round; stroke-linejoin:round;">
<path d="M28638 32050
L28657 32068
L28713 32087
L28751 32087
L28807 32068
L28845 32031
L28863 31993
L28882 31918
L28882 31862
L28863 31787
L28845 31750
L28807 31712
L28751 31693
L28713 31693
L28657 31712
L28638 31731
" />
<path d="M28507 31693
L28263 31693
L28395 31843
L28338 31843
L28301 31862
L28282 31881
L28263 31918
L28263 32012
L28282 32050
L28301 32068
L28338 32087
L28451 32087
L28488 32068
L28507 32050
" />
<path d="M27907 31693
L28095 31693
L28113 31881
L28095 31862
L28057 31843
L27964 31843
L27926 31862
L27907 31881
L27889 31918
L27889 32012
L27907 32050
L27926 32068
L27964 32087
L28057 32087
L28095 32068
L28113 32050
" />
<path d="M14206 31616
L14149 31634
L14056 31634
L14018 31616
L13999 31597
L13981 31559
L13981 31522
L13999 31484
L14018 31466
L14056 31447
L14131 31428
L14168 31409
L14187 31391
L14206 31353
L14206 31316
L14187 31278
L14168 31259
L14131 31241
L14037 31241
L13981 31259
" />
<path d="M13849 31241
L13756 31634
L13681 31353
L13606 31634
L13512 31241
" />
<path d="M13156 31634
L13381 31634
" />
<path d="M13268 31634
L13268 31241
L13306 31297
L13343 31334
L13381 31353
" />
<path d="M14580 34331
L14580 33937
L14431 33937
L14393 33956
L14374 33975
L14356 34012
L14356 34069
L14374 34106
L14393 34125
L14431 34144
L14580 34144
" />
<path d="M13962 34331
L14093 34144
" />
<path d="M14187 34331
L14187 33937
L14037 33937
L13999 33956
L13981 33975
L13962 34012
L13962 34069
L13981 34106
L13999 34125
L14037 34144
L14187 34144
" />
<path d="M13718 33937
L13643 33937
L13606 33956
L13568 33994
L13549 34069
L13549 34200
L13568 34275
L13606 34312
L13643 34331
L13718 34331
L13756 34312
L13793 34275
L13812 34200
L13812 34069
L13793 33994
L13756 33956
L13718 33937
" />
<path d="M13174 33956
L13212 33937
L13268 33937
L13324 33956
L13362 33994
L13381 34031
L13399 34106
L13399 34162
L13381 34237
L13362 34275
L13324 34312
L13268 34331
L13231 34331
L13174 34312
L13156 34294
L13156 34162
L13231 34162
" />
</g>
<g style="fill:#000000; fill-opacity:0.0; 
stroke:#000000; stroke-width:60; stroke-opacity:1; 
stroke-linecap:round; stroke-linejoin:round;">
<path d="M16824 23774
L16824 25215
" />
<path d="M16824 28654
L15565 28654
" />
<path d="M10425 28654
L10425 23774
" />
<path d="M10425 23774
L12925 23774
" />
<path d="M16824 27224
L16824 28654
" />
<path d="M15565 23774
L16824 23774
" />
<path d="M12925 28654
L10425 28654
" />
</g>
<g style="fill:#000000; fill-opacity:0.0; 
stroke:#000000; stroke-width:59.0551; stroke-opacity:1; 
stroke-linecap:round; stroke-linejoin:round;">
<path d="M30537 21084
L30537 21584
" />
<path d="M27643 21084
L27643 21584
" />
<path d="M27643 28891
L27643 28391
" />
<path d="M30537 28891
L30537 28391
" />
<path d="M30537 21084
L27643 21084
" />
<path d="M30537 28891
L27643 28891
" />
<path d="M30537 21584
L30905 21584
" />
<path d="M31529 34324
L30979 34324
" />
<path d="M31529 33324
L30979 33324
" />
<path d="M31529 32324
L30979 32324
" />
<circle cx="36679.9" cy="33324.4" r="989.95" /> 
<path d="M34879 31224
L38029 31224
" />
<path d="M38029 31224
L38029 35424
" />
<path d="M38029 35424
L34879 35424
" />
<path d="M31529 31224
L34879 31224
" />
<path d="M34879 31224
L34879 35424
" />
<path d="M34879 35424
L31529 35424
" />
<path d="M31529 33324
L31529 35424
" />
<path d="M31529 33324
L31529 31224
" />
<path d="M29429 38774
L28879 38774
" />
<path d="M29429 37774
L28879 37774
" />
<path d="M29429 36774
L28879 36774
" />
<circle cx="34579.9" cy="37774.4" r="989.95" /> 
<path d="M32779 35674
L35929 35674
" />
<path d="M35929 35674
L35929 39874
" />
<path d="M35929 39874
L32779 39874
" />
<path d="M29429 35674
L32779 35674
" />
<path d="M32779 35674
L32779 39874
" />
<path d="M32779 39874
L29429 39874
" />
<path d="M29429 37774
L29429 39874
" />
<path d="M29429 37774
L29429 35674
" />
<path d="M49979 37924
L49979 38474
" />
<path d="M48979 37924
L48979 38474
" />
<path d="M47979 37924
L47979 38474
" />
<circle cx="48979.9" cy="32774.4" r="989.95" /> 
<path d="M46879 34574
L46879 31424
" />
<path d="M46879 31424
L51079 31424
" />
<path d="M51079 31424
L51079 34574
" />
<path d="M46879 37924
L46879 34574
" />
<path d="M46879 34574
L51079 34574
" />
<path d="M51079 34574
L51079 37924
" />
<path d="M48979 37924
L51079 37924
" />
<path d="M48979 37924
L46879 37924
" />
<path d="M53551 28165
L53551 26165
" />
<path d="M53551 26165
L57551 26165
" />
<path d="M57551 26165
L57551 28165
" />
<path d="M57551 28165
L53551 28165
" />
<path d="M53551 27665
L54051 27665
" />
<path d="M54051 27665
L54051 26665
" />
<path d="M54051 26665
L53551 26665
" />
<path d="M53338 26165
L53338 28165
" />
<path d="M53338 28165
L49338 28165
" />
<path d="M49338 28165
L49338 26165
" />
<path d="M49338 26165
L53338 26165
" />
<path d="M53338 26665
L52838 26665
" />
<path d="M52838 26665
L52838 27665
" />
<path d="M52838 27665
L53338 27665
" />
<path d="M56850 29271
L57244 29271
" />
<path d="M57244 29940
L56850 29940
" />
<path d="M55748 29940
L55354 29940
" />
<path d="M55354 29271
L55748 29271
" />
<path d="M56338 25068
L56811 25068
" />
<path d="M56811 24379
L56338 24379
" />
<path d="M54330 24793
L54803 24793
" />
<path d="M54803 24104
L54330 24104
" />
<path d="M53031 30659
L53503 30659
" />
<path d="M53503 29970
L53031 29970
" />
<path d="M49645 29261
L49173 29261
" />
<path d="M49173 29950
L49645 29950
" />
<path d="M53031 29911
L53503 29911
" />
<path d="M53503 29222
L53031 29222
" />
<path d="M50187 24842
L50187 24370
" />
<path d="M49498 24370
L49498 24842
" />
<path d="M43316 20354
L43316 20826
" />
<path d="M44005 20826
L44005 20354
" />
<path d="M41387 20354
L41387 20826
" />
<path d="M42076 20826
L42076 20354
" />
<path d="M42155 30078
L42155 29606
" />
<path d="M41466 29606
L41466 30078
" />
<path d="M41131 30078
L41131 29606
" />
<path d="M40442 29606
L40442 30078
" />
</g>
<g style="fill:#000000; fill-opacity:0.0; 
stroke:#000000; stroke-width:47.2441; stroke-opacity:1; 
stroke-linecap:round; stroke-linejoin:round;">
<path d="M42460 23976
L42460 23582
" />
<path d="M43129 23582
L43129 23976
" />
<path d="M44114 23582
L44114 23976
" />
<path d="M43444 23976
L43444 23582
" />
<path d="M40590 21133
L41062 21133
" />
<path d="M41062 20440
L40590 20440
" />
<path d="M27007 32251
L26535 32251
" />
<path d="M26535 32944
L27007 32944
" />
<path d="M40480 28307
L40480 28779
" />
<path d="M41173 28779
L41173 28307
" />
<path d="M41464 28307
L41464 28779
" />
<path d="M42157 28779
L42157 28307
" />
<path d="M42448 22322
L42448 22795
" />
<path d="M43141 22795
L43141 22322
" />
<path d="M43433 22322
L43433 22795
" />
<path d="M44125 22795
L44125 22322
" />
<path d="M42708 20905
L42708 20433
" />
<path d="M42015 20433
L42015 20905
" />
<path d="M44637 20866
L44637 20393
" />
<path d="M43944 20393
L43944 20866
" />
<path d="M39192 30039
L39192 29645
" />
<path d="M39862 29645
L39862 30039
" />
<path d="M46377 29598
L46850 29598
" />
<path d="M46850 28905
L46377 28905
" />
<path d="M47677 28614
L48149 28614
" />
<path d="M48149 27921
L47677 27921
" />
<path d="M49165 22755
L49165 22283
" />
<path d="M48472 22283
L48472 22755
" />
</g>
<g style="fill:#000000; fill-opacity:0.0; 
stroke:#000000; stroke-width:50; stroke-opacity:1; 
stroke-linecap:round; stroke-linejoin:round;">
<path d="M17933 26534
L17933 25906
" />
<path d="M19073 25906
L19073 26534
" />
<path d="M19191 25335
L17815 25335
" />
<path d="M17815 25335
L17815 27105
" />
<path d="M17815 27105
L19191 27105
" />
<path d="M19191 27105
L19191 25335
" />
</g>
<g style="fill:#000000; fill-opacity:0.0; 
stroke:#000000; stroke-width:25; stroke-opacity:1; 
stroke-linecap:round; stroke-linejoin:round;">
<circle cx="18979.9" cy="26444.5" r="4.24252" /> 
</g>
<g style="fill:#000000; fill-opacity:0.0; 
stroke:#000000; stroke-width:50; stroke-opacity:1; 
stroke-linecap:round; stroke-linejoin:round;">
<path d="M20550 25886
L19370 25886
" />
<path d="M19370 25886
L19370 26476
" />
<path d="M19370 26476
L20550 26476
" />
<path d="M20550 26476
L20550 25886
" />
</g>
<g style="fill:#000000; fill-opacity:0.0; 
stroke:#000000; stroke-width:19; stroke-opacity:1; 
stroke-linecap:round; stroke-linejoin:round;">
<circle cx="19370.6" cy="26476.1" r="12.728" /> 
</g>
<g style="fill:#000000; fill-opacity:0.0; 
stroke:#000000; stroke-width:47.2441; stroke-opacity:1; 
stroke-linecap:round; stroke-linejoin:round;">
<path d="M27992 32196
L28779 32196
" />
<path d="M28779 33000
L27992 33000
" />
<path d="M13070 33484
L13070 32106
" />
<path d="M14212 33484
L14212 32106
" />
</g>
<g style="fill:#000000; fill-opacity:0.0; 
stroke:#000000; stroke-width:669; stroke-opacity:1; 
stroke-linecap:round; stroke-linejoin:round;">
<path d="M29725 33324
L30434 33324
" />
<path d="M29725 34324
L30434 34324
" />
<path d="M29725 32324
L30434 32324
" />
<path d="M27625 37774
L28334 37774
" />
<path d="M27625 38774
L28334 38774
" />
<path d="M27625 36774
L28334 36774
" />
<path d="M48979 39728
L48979 39019
" />
<path d="M49979 39728
L49979 39019
" />
<path d="M47979 39728
L47979 39019
" />
</g>
<g style="fill:#000000; fill-opacity:1.0; 
stroke:#000000; stroke-width:0; stroke-opacity:1; 
stroke-linecap:round; stroke-linejoin:round;">
<circle cx="28363.9" cy="33724.4" r="393.5" /> 
</g>
<g style="fill:#000000; fill-opacity:1.0; 
stroke:#000000; stroke-width:39.3701; stroke-opacity:1; 
stroke-linecap:round; stroke-linejoin:round;">
</g>
<g style="fill:#000000; fill-opacity:1.0; 
stroke:#000000; stroke-width:0; stroke-opacity:1; 
stroke-linecap:round; stroke-linejoin:round;">
<circle cx="26394.9" cy="33724.4" r="393.5" /> 
</g>
<g style="fill:#000000; fill-opacity:1.0; 
stroke:#000000; stroke-width:39.3701; stroke-opacity:1; 
stroke-linecap:round; stroke-linejoin:round;">
</g>
<g style="fill:#000000; fill-opacity:1.0; 
stroke:#000000; stroke-width:0; stroke-opacity:1; 
stroke-linecap:round; stroke-linejoin:round;">
<circle cx="13287.4" cy="32795.3" r="157.48" /> 
</g>
<g style="fill:#000000; fill-opacity:1.0; 
stroke:#000000; stroke-width:39.3701; stroke-opacity:1; 
stroke-linecap:round; stroke-linejoin:round;">
</g>
<g style="fill:#000000; fill-opacity:1.0; 
stroke:#000000; stroke-width:0; stroke-opacity:1; 
stroke-linecap:round; stroke-linejoin:round;">
<circle cx="13996.1" cy="32795.3" r="157.48" /> 
</g>
<g style="fill:#000000; fill-opacity:1.0; 
stroke:#000000; stroke-width:39.3701; stroke-opacity:1; 
stroke-linecap:round; stroke-linejoin:round;">
</g> 
</svg>
