<?xml version="1.0" standalone="no"?>
 <!DOCTYPE svg PUBLIC "-//W3C//DTD SVG 1.1//EN" 
 "http://www.w3.org/Graphics/SVG/1.1/DTD/svg11.dtd"> 
<svg xmlns="http://www.w3.org/2000/svg" version="1.1" 
    width="27.94cm" height="21.59cm" viewBox="0 0 110000 85000 ">
<title>SVG Picture created as dropbot_control_board-F.Mask.svg date 2017/04/04 09:13:40 </title>
  <desc>Picture generated by PCBNEW </desc>
<g style="fill:#000000; fill-opacity:1;stroke:#000000; stroke-opacity:1;
stroke-linecap:round; stroke-linejoin:round; "
 transform="translate(0 0) scale(1 1)">
</g>
<g style="fill:#000000; fill-opacity:0.0; 
stroke:#000000; stroke-width:-0.000393701; stroke-opacity:1; 
stroke-linecap:round; stroke-linejoin:round;">
</g>
<g style="fill:#000000; fill-opacity:0.0; 
stroke:#000000; stroke-width:39.3701; stroke-opacity:1; 
stroke-linecap:round; stroke-linejoin:round;">
</g>
<g style="fill:#000000; fill-opacity:0.0; 
stroke:#000000; stroke-width:59.0551; stroke-opacity:1; 
stroke-linecap:round; stroke-linejoin:round;">
<rect x="62755.9" y="67677.2" width="42519.7" height="12598.4" rx="0" />
</g>
<g style="fill:#000000; fill-opacity:0.0; 
stroke:#000000; stroke-width:39.3701; stroke-opacity:1; 
stroke-linecap:round; stroke-linejoin:round;">
</g>
<g style="fill:#000000; fill-opacity:0.0; 
stroke:#000000; stroke-width:59.0551; stroke-opacity:1; 
stroke-linecap:round; stroke-linejoin:round;">
<rect x="3937.01" y="3937.01" width="102126" height="77126" rx="0" />
</g>
<g style="fill:#000000; fill-opacity:0.0; 
stroke:#000000; stroke-width:39.3701; stroke-opacity:1; 
stroke-linecap:round; stroke-linejoin:round;">
</g>
<g style="fill:#000000; fill-opacity:0.0; 
stroke:#000000; stroke-width:59.0551; stroke-opacity:1; 
stroke-linecap:round; stroke-linejoin:round;">
<rect x="4724.41" y="4724.41" width="100551" height="75551.2" rx="0" />
</g>
<g style="fill:#000000; fill-opacity:0.0; 
stroke:#000000; stroke-width:39.3701; stroke-opacity:1; 
stroke-linecap:round; stroke-linejoin:round;">
</g>
<g style="fill:#000000; fill-opacity:0.0; 
stroke:#000000; stroke-width:59.0551; stroke-opacity:1; 
stroke-linecap:round; stroke-linejoin:round;">
<path d="M23622 4724
L23622 3937
" />
</g>
<g style="fill:#000000; fill-opacity:0.0; 
stroke:#000000; stroke-width:39.3701; stroke-opacity:1; 
stroke-linecap:round; stroke-linejoin:round;">
</g>
<g style="fill:#000000; fill-opacity:0.0; 
stroke:#000000; stroke-width:59.0551; stroke-opacity:1; 
stroke-linecap:round; stroke-linejoin:round;">
<path d="M43307 4724
L43307 3937
" />
</g>
<g style="fill:#000000; fill-opacity:0.0; 
stroke:#000000; stroke-width:39.3701; stroke-opacity:1; 
stroke-linecap:round; stroke-linejoin:round;">
</g>
<g style="fill:#000000; fill-opacity:0.0; 
stroke:#000000; stroke-width:59.0551; stroke-opacity:1; 
stroke-linecap:round; stroke-linejoin:round;">
<path d="M62992 4724
L62992 3937
" />
</g>
<g style="fill:#000000; fill-opacity:0.0; 
stroke:#000000; stroke-width:39.3701; stroke-opacity:1; 
stroke-linecap:round; stroke-linejoin:round;">
</g>
<g style="fill:#000000; fill-opacity:0.0; 
stroke:#000000; stroke-width:59.0551; stroke-opacity:1; 
stroke-linecap:round; stroke-linejoin:round;">
<path d="M82677 4724
L82677 3937
" />
</g>
<g style="fill:#000000; fill-opacity:0.0; 
stroke:#000000; stroke-width:39.3701; stroke-opacity:1; 
stroke-linecap:round; stroke-linejoin:round;">
</g>
<g style="fill:#000000; fill-opacity:0.0; 
stroke:#000000; stroke-width:59.0551; stroke-opacity:1; 
stroke-linecap:round; stroke-linejoin:round;">
<path d="M102362 4724
L102362 3937
" />
</g>
<g style="fill:#000000; fill-opacity:0.0; 
stroke:#000000; stroke-width:39.3701; stroke-opacity:1; 
stroke-linecap:round; stroke-linejoin:round;">
</g>
<g style="fill:#000000; fill-opacity:0.0; 
stroke:#000000; stroke-width:59.0551; stroke-opacity:1; 
stroke-linecap:round; stroke-linejoin:round;">
<path d="M14169 4562
L13877 4562
" />
<path d="M14023 4562
L14023 4050
L13974 4123
L13925 4172
L13877 4196
" />
</g>
<g style="fill:#000000; fill-opacity:0.0; 
stroke:#000000; stroke-width:39.3701; stroke-opacity:1; 
stroke-linecap:round; stroke-linejoin:round;">
</g>
<g style="fill:#000000; fill-opacity:0.0; 
stroke:#000000; stroke-width:59.0551; stroke-opacity:1; 
stroke-linecap:round; stroke-linejoin:round;">
<path d="M33562 4099
L33586 4074
L33635 4050
L33757 4050
L33805 4074
L33830 4099
L33854 4147
L33854 4196
L33830 4269
L33537 4562
L33854 4562
" />
</g>
<g style="fill:#000000; fill-opacity:0.0; 
stroke:#000000; stroke-width:39.3701; stroke-opacity:1; 
stroke-linecap:round; stroke-linejoin:round;">
</g>
<g style="fill:#000000; fill-opacity:0.0; 
stroke:#000000; stroke-width:59.0551; stroke-opacity:1; 
stroke-linecap:round; stroke-linejoin:round;">
<path d="M53222 4050
L53539 4050
L53368 4245
L53442 4245
L53490 4269
L53515 4294
L53539 4342
L53539 4464
L53515 4513
L53490 4537
L53442 4562
L53295 4562
L53247 4537
L53222 4513
" />
</g>
<g style="fill:#000000; fill-opacity:0.0; 
stroke:#000000; stroke-width:39.3701; stroke-opacity:1; 
stroke-linecap:round; stroke-linejoin:round;">
</g>
<g style="fill:#000000; fill-opacity:0.0; 
stroke:#000000; stroke-width:59.0551; stroke-opacity:1; 
stroke-linecap:round; stroke-linejoin:round;">
<path d="M73175 4221
L73175 4562
" />
<path d="M73053 4026
L72932 4391
L73248 4391
" />
</g>
<g style="fill:#000000; fill-opacity:0.0; 
stroke:#000000; stroke-width:39.3701; stroke-opacity:1; 
stroke-linecap:round; stroke-linejoin:round;">
</g>
<g style="fill:#000000; fill-opacity:0.0; 
stroke:#000000; stroke-width:59.0551; stroke-opacity:1; 
stroke-linecap:round; stroke-linejoin:round;">
<path d="M92885 4050
L92641 4050
L92617 4294
L92641 4269
L92690 4245
L92812 4245
L92860 4269
L92885 4294
L92909 4342
L92909 4464
L92885 4513
L92860 4537
L92812 4562
L92690 4562
L92641 4537
L92617 4513
" />
</g>
<g style="fill:#000000; fill-opacity:0.0; 
stroke:#000000; stroke-width:39.3701; stroke-opacity:1; 
stroke-linecap:round; stroke-linejoin:round;">
</g>
<g style="fill:#000000; fill-opacity:0.0; 
stroke:#000000; stroke-width:59.0551; stroke-opacity:1; 
stroke-linecap:round; stroke-linejoin:round;">
<path d="M23622 80275
L23622 81062
" />
</g>
<g style="fill:#000000; fill-opacity:0.0; 
stroke:#000000; stroke-width:39.3701; stroke-opacity:1; 
stroke-linecap:round; stroke-linejoin:round;">
</g>
<g style="fill:#000000; fill-opacity:0.0; 
stroke:#000000; stroke-width:59.0551; stroke-opacity:1; 
stroke-linecap:round; stroke-linejoin:round;">
<path d="M43307 80275
L43307 81062
" />
</g>
<g style="fill:#000000; fill-opacity:0.0; 
stroke:#000000; stroke-width:39.3701; stroke-opacity:1; 
stroke-linecap:round; stroke-linejoin:round;">
</g>
<g style="fill:#000000; fill-opacity:0.0; 
stroke:#000000; stroke-width:59.0551; stroke-opacity:1; 
stroke-linecap:round; stroke-linejoin:round;">
<path d="M62992 80275
L62992 81062
" />
</g>
<g style="fill:#000000; fill-opacity:0.0; 
stroke:#000000; stroke-width:39.3701; stroke-opacity:1; 
stroke-linecap:round; stroke-linejoin:round;">
</g>
<g style="fill:#000000; fill-opacity:0.0; 
stroke:#000000; stroke-width:59.0551; stroke-opacity:1; 
stroke-linecap:round; stroke-linejoin:round;">
<path d="M82677 80275
L82677 81062
" />
</g>
<g style="fill:#000000; fill-opacity:0.0; 
stroke:#000000; stroke-width:39.3701; stroke-opacity:1; 
stroke-linecap:round; stroke-linejoin:round;">
</g>
<g style="fill:#000000; fill-opacity:0.0; 
stroke:#000000; stroke-width:59.0551; stroke-opacity:1; 
stroke-linecap:round; stroke-linejoin:round;">
<path d="M102362 80275
L102362 81062
" />
</g>
<g style="fill:#000000; fill-opacity:0.0; 
stroke:#000000; stroke-width:39.3701; stroke-opacity:1; 
stroke-linecap:round; stroke-linejoin:round;">
</g>
<g style="fill:#000000; fill-opacity:0.0; 
stroke:#000000; stroke-width:59.0551; stroke-opacity:1; 
stroke-linecap:round; stroke-linejoin:round;">
<path d="M14169 80900
L13877 80900
" />
<path d="M14023 80900
L14023 80389
L13974 80462
L13925 80510
L13877 80535
" />
</g>
<g style="fill:#000000; fill-opacity:0.0; 
stroke:#000000; stroke-width:39.3701; stroke-opacity:1; 
stroke-linecap:round; stroke-linejoin:round;">
</g>
<g style="fill:#000000; fill-opacity:0.0; 
stroke:#000000; stroke-width:59.0551; stroke-opacity:1; 
stroke-linecap:round; stroke-linejoin:round;">
<path d="M33562 80437
L33586 80413
L33635 80389
L33757 80389
L33805 80413
L33830 80437
L33854 80486
L33854 80535
L33830 80608
L33537 80900
L33854 80900
" />
</g>
<g style="fill:#000000; fill-opacity:0.0; 
stroke:#000000; stroke-width:39.3701; stroke-opacity:1; 
stroke-linecap:round; stroke-linejoin:round;">
</g>
<g style="fill:#000000; fill-opacity:0.0; 
stroke:#000000; stroke-width:59.0551; stroke-opacity:1; 
stroke-linecap:round; stroke-linejoin:round;">
<path d="M53222 80389
L53539 80389
L53368 80583
L53442 80583
L53490 80608
L53515 80632
L53539 80681
L53539 80803
L53515 80852
L53490 80876
L53442 80900
L53295 80900
L53247 80876
L53222 80852
" />
</g>
<g style="fill:#000000; fill-opacity:0.0; 
stroke:#000000; stroke-width:39.3701; stroke-opacity:1; 
stroke-linecap:round; stroke-linejoin:round;">
</g>
<g style="fill:#000000; fill-opacity:0.0; 
stroke:#000000; stroke-width:59.0551; stroke-opacity:1; 
stroke-linecap:round; stroke-linejoin:round;">
<path d="M73175 80559
L73175 80900
" />
<path d="M73053 80364
L72932 80730
L73248 80730
" />
</g>
<g style="fill:#000000; fill-opacity:0.0; 
stroke:#000000; stroke-width:39.3701; stroke-opacity:1; 
stroke-linecap:round; stroke-linejoin:round;">
</g>
<g style="fill:#000000; fill-opacity:0.0; 
stroke:#000000; stroke-width:59.0551; stroke-opacity:1; 
stroke-linecap:round; stroke-linejoin:round;">
<path d="M92885 80389
L92641 80389
L92617 80632
L92641 80608
L92690 80583
L92812 80583
L92860 80608
L92885 80632
L92909 80681
L92909 80803
L92885 80852
L92860 80876
L92812 80900
L92690 80900
L92641 80876
L92617 80852
" />
</g>
<g style="fill:#000000; fill-opacity:0.0; 
stroke:#000000; stroke-width:39.3701; stroke-opacity:1; 
stroke-linecap:round; stroke-linejoin:round;">
</g>
<g style="fill:#000000; fill-opacity:0.0; 
stroke:#000000; stroke-width:59.0551; stroke-opacity:1; 
stroke-linecap:round; stroke-linejoin:round;">
<path d="M3937 23622
L4724 23622
" />
</g>
<g style="fill:#000000; fill-opacity:0.0; 
stroke:#000000; stroke-width:39.3701; stroke-opacity:1; 
stroke-linecap:round; stroke-linejoin:round;">
</g>
<g style="fill:#000000; fill-opacity:0.0; 
stroke:#000000; stroke-width:59.0551; stroke-opacity:1; 
stroke-linecap:round; stroke-linejoin:round;">
<path d="M3937 43307
L4724 43307
" />
</g>
<g style="fill:#000000; fill-opacity:0.0; 
stroke:#000000; stroke-width:39.3701; stroke-opacity:1; 
stroke-linecap:round; stroke-linejoin:round;">
</g>
<g style="fill:#000000; fill-opacity:0.0; 
stroke:#000000; stroke-width:59.0551; stroke-opacity:1; 
stroke-linecap:round; stroke-linejoin:round;">
<path d="M3937 62992
L4724 62992
" />
</g>
<g style="fill:#000000; fill-opacity:0.0; 
stroke:#000000; stroke-width:39.3701; stroke-opacity:1; 
stroke-linecap:round; stroke-linejoin:round;">
</g>
<g style="fill:#000000; fill-opacity:0.0; 
stroke:#000000; stroke-width:59.0551; stroke-opacity:1; 
stroke-linecap:round; stroke-linejoin:round;">
<path d="M4208 13864
L4452 13864
" />
<path d="M4160 14011
L4330 13499
L4501 14011
" />
</g>
<g style="fill:#000000; fill-opacity:0.0; 
stroke:#000000; stroke-width:39.3701; stroke-opacity:1; 
stroke-linecap:round; stroke-linejoin:round;">
</g>
<g style="fill:#000000; fill-opacity:0.0; 
stroke:#000000; stroke-width:59.0551; stroke-opacity:1; 
stroke-linecap:round; stroke-linejoin:round;">
<path d="M4367 33428
L4440 33452
L4464 33476
L4489 33525
L4489 33598
L4464 33647
L4440 33671
L4391 33696
L4196 33696
L4196 33184
L4367 33184
L4416 33208
L4440 33233
L4464 33281
L4464 33330
L4440 33379
L4416 33403
L4367 33428
L4196 33428
" />
</g>
<g style="fill:#000000; fill-opacity:0.0; 
stroke:#000000; stroke-width:39.3701; stroke-opacity:1; 
stroke-linecap:round; stroke-linejoin:round;">
</g>
<g style="fill:#000000; fill-opacity:0.0; 
stroke:#000000; stroke-width:59.0551; stroke-opacity:1; 
stroke-linecap:round; stroke-linejoin:round;">
<path d="M4489 53332
L4464 53356
L4391 53381
L4342 53381
L4269 53356
L4221 53308
L4196 53259
L4172 53161
L4172 53088
L4196 52991
L4221 52942
L4269 52893
L4342 52869
L4391 52869
L4464 52893
L4489 52918
" />
</g>
<g style="fill:#000000; fill-opacity:0.0; 
stroke:#000000; stroke-width:39.3701; stroke-opacity:1; 
stroke-linecap:round; stroke-linejoin:round;">
</g>
<g style="fill:#000000; fill-opacity:0.0; 
stroke:#000000; stroke-width:59.0551; stroke-opacity:1; 
stroke-linecap:round; stroke-linejoin:round;">
<path d="M4196 73066
L4196 72554
L4318 72554
L4391 72578
L4440 72627
L4464 72676
L4489 72773
L4489 72846
L4464 72944
L4440 72993
L4391 73041
L4318 73066
L4196 73066
" />
</g>
<g style="fill:#000000; fill-opacity:0.0; 
stroke:#000000; stroke-width:39.3701; stroke-opacity:1; 
stroke-linecap:round; stroke-linejoin:round;">
</g>
<g style="fill:#000000; fill-opacity:0.0; 
stroke:#000000; stroke-width:59.0551; stroke-opacity:1; 
stroke-linecap:round; stroke-linejoin:round;">
<path d="M106062 23622
L105275 23622
" />
</g>
<g style="fill:#000000; fill-opacity:0.0; 
stroke:#000000; stroke-width:39.3701; stroke-opacity:1; 
stroke-linecap:round; stroke-linejoin:round;">
</g>
<g style="fill:#000000; fill-opacity:0.0; 
stroke:#000000; stroke-width:59.0551; stroke-opacity:1; 
stroke-linecap:round; stroke-linejoin:round;">
<path d="M106062 43307
L105275 43307
" />
</g>
<g style="fill:#000000; fill-opacity:0.0; 
stroke:#000000; stroke-width:39.3701; stroke-opacity:1; 
stroke-linecap:round; stroke-linejoin:round;">
</g>
<g style="fill:#000000; fill-opacity:0.0; 
stroke:#000000; stroke-width:59.0551; stroke-opacity:1; 
stroke-linecap:round; stroke-linejoin:round;">
<path d="M106062 62992
L105275 62992
" />
</g>
<g style="fill:#000000; fill-opacity:0.0; 
stroke:#000000; stroke-width:39.3701; stroke-opacity:1; 
stroke-linecap:round; stroke-linejoin:round;">
</g>
<g style="fill:#000000; fill-opacity:0.0; 
stroke:#000000; stroke-width:59.0551; stroke-opacity:1; 
stroke-linecap:round; stroke-linejoin:round;">
<path d="M105547 13864
L105791 13864
" />
<path d="M105498 14011
L105669 13499
L105839 14011
" />
</g>
<g style="fill:#000000; fill-opacity:0.0; 
stroke:#000000; stroke-width:39.3701; stroke-opacity:1; 
stroke-linecap:round; stroke-linejoin:round;">
</g>
<g style="fill:#000000; fill-opacity:0.0; 
stroke:#000000; stroke-width:59.0551; stroke-opacity:1; 
stroke-linecap:round; stroke-linejoin:round;">
<path d="M105705 33428
L105778 33452
L105803 33476
L105827 33525
L105827 33598
L105803 33647
L105778 33671
L105730 33696
L105535 33696
L105535 33184
L105705 33184
L105754 33208
L105778 33233
L105803 33281
L105803 33330
L105778 33379
L105754 33403
L105705 33428
L105535 33428
" />
</g>
<g style="fill:#000000; fill-opacity:0.0; 
stroke:#000000; stroke-width:39.3701; stroke-opacity:1; 
stroke-linecap:round; stroke-linejoin:round;">
</g>
<g style="fill:#000000; fill-opacity:0.0; 
stroke:#000000; stroke-width:59.0551; stroke-opacity:1; 
stroke-linecap:round; stroke-linejoin:round;">
<path d="M105827 53332
L105803 53356
L105730 53381
L105681 53381
L105608 53356
L105559 53308
L105535 53259
L105510 53161
L105510 53088
L105535 52991
L105559 52942
L105608 52893
L105681 52869
L105730 52869
L105803 52893
L105827 52918
" />
</g>
<g style="fill:#000000; fill-opacity:0.0; 
stroke:#000000; stroke-width:39.3701; stroke-opacity:1; 
stroke-linecap:round; stroke-linejoin:round;">
</g>
<g style="fill:#000000; fill-opacity:0.0; 
stroke:#000000; stroke-width:59.0551; stroke-opacity:1; 
stroke-linecap:round; stroke-linejoin:round;">
<path d="M105535 73066
L105535 72554
L105657 72554
L105730 72578
L105778 72627
L105803 72676
L105827 72773
L105827 72846
L105803 72944
L105778 72993
L105730 73041
L105657 73066
L105535 73066
" />
</g>
<g style="fill:#000000; fill-opacity:0.0; 
stroke:#000000; stroke-width:39.3701; stroke-opacity:1; 
stroke-linecap:round; stroke-linejoin:round;">
</g>
<g style="fill:#000000; fill-opacity:0.0; 
stroke:#000000; stroke-width:59.0551; stroke-opacity:1; 
stroke-linecap:round; stroke-linejoin:round;">
<path d="M71951 78613
L71951 78023
L72092 78023
L72176 78051
L72232 78107
L72260 78163
L72289 78276
L72289 78360
L72260 78473
L72232 78529
L72176 78585
L72092 78613
L71951 78613
" />
<path d="M72795 78613
L72795 78304
L72767 78248
L72710 78219
L72598 78219
L72542 78248
" />
<path d="M72795 78585
L72739 78613
L72598 78613
L72542 78585
L72514 78529
L72514 78473
L72542 78416
L72598 78388
L72739 78388
L72795 78360
" />
<path d="M72992 78219
L73217 78219
" />
<path d="M73076 78023
L73076 78529
L73104 78585
L73160 78613
L73217 78613
" />
<path d="M73638 78585
L73582 78613
L73470 78613
L73413 78585
L73385 78529
L73385 78304
L73413 78248
L73470 78219
L73582 78219
L73638 78248
L73667 78304
L73667 78360
L73385 78416
" />
<path d="M73920 78557
L73948 78585
L73920 78613
L73892 78585
L73920 78557
L73920 78613
" />
<path d="M73920 78248
L73948 78276
L73920 78304
L73892 78276
L73920 78248
L73920 78304
" />
<path d="M74623 78079
L74651 78051
L74707 78023
L74848 78023
L74904 78051
L74932 78079
L74960 78135
L74960 78191
L74932 78276
L74595 78613
L74960 78613
" />
<path d="M75326 78023
L75382 78023
L75438 78051
L75466 78079
L75494 78135
L75523 78248
L75523 78388
L75494 78501
L75466 78557
L75438 78585
L75382 78613
L75326 78613
L75269 78585
L75241 78557
L75213 78501
L75185 78388
L75185 78248
L75213 78135
L75241 78079
L75269 78051
L75326 78023
" />
<path d="M76085 78613
L75748 78613
" />
<path d="M75916 78613
L75916 78023
L75860 78107
L75804 78163
L75748 78191
" />
<path d="M76282 78023
L76676 78023
L76422 78613
" />
<path d="M76901 78388
L77350 78388
" />
<path d="M77744 78023
L77800 78023
L77857 78051
L77885 78079
L77913 78135
L77941 78248
L77941 78388
L77913 78501
L77885 78557
L77857 78585
L77800 78613
L77744 78613
L77688 78585
L77660 78557
L77632 78501
L77604 78388
L77604 78248
L77632 78135
L77660 78079
L77688 78051
L77744 78023
" />
<path d="M78447 78219
L78447 78613
" />
<path d="M78307 77994
L78166 78416
L78532 78416
" />
<path d="M78757 78388
L79206 78388
" />
<path d="M79600 78023
L79656 78023
L79713 78051
L79741 78079
L79769 78135
L79797 78248
L79797 78388
L79769 78501
L79741 78557
L79713 78585
L79656 78613
L79600 78613
L79544 78585
L79516 78557
L79488 78501
L79460 78388
L79460 78248
L79488 78135
L79516 78079
L79544 78051
L79600 78023
" />
<path d="M80303 78219
L80303 78613
" />
<path d="M80163 77994
L80022 78416
L80388 78416
" />
</g>
<g style="fill:#000000; fill-opacity:0.0; 
stroke:#000000; stroke-width:39.3701; stroke-opacity:1; 
stroke-linecap:round; stroke-linejoin:round;">
</g>
<g style="fill:#000000; fill-opacity:0.0; 
stroke:#000000; stroke-width:59.0551; stroke-opacity:1; 
stroke-linecap:round; stroke-linejoin:round;">
<path d="M62755 78897
L105275 78897
" />
</g>
<g style="fill:#000000; fill-opacity:0.0; 
stroke:#000000; stroke-width:39.3701; stroke-opacity:1; 
stroke-linecap:round; stroke-linejoin:round;">
</g>
<g style="fill:#000000; fill-opacity:0.0; 
stroke:#000000; stroke-width:59.0551; stroke-opacity:1; 
stroke-linecap:round; stroke-linejoin:round;">
<path d="M63290 79715
L63290 79125
" />
<path d="M63627 79715
L63374 79378
" />
<path d="M63627 79125
L63290 79462
" />
<path d="M63880 79715
L63880 79322
" />
<path d="M63880 79125
L63852 79153
L63880 79181
L63908 79153
L63880 79125
L63880 79181
" />
<path d="M64499 79659
L64471 79687
L64386 79715
L64330 79715
L64246 79687
L64190 79631
L64161 79575
L64133 79462
L64133 79378
L64161 79266
L64190 79209
L64246 79153
L64330 79125
L64386 79125
L64471 79153
L64499 79181
" />
<path d="M65005 79715
L65005 79406
L64977 79350
L64921 79322
L64808 79322
L64752 79350
" />
<path d="M65005 79687
L64949 79715
L64808 79715
L64752 79687
L64724 79631
L64724 79575
L64752 79519
L64808 79491
L64949 79491
L65005 79462
" />
<path d="M65539 79715
L65539 79125
" />
<path d="M65539 79687
L65483 79715
L65371 79715
L65314 79687
L65286 79659
L65258 79603
L65258 79434
L65286 79378
L65314 79350
L65371 79322
L65483 79322
L65539 79350
" />
<path d="M66271 79406
L66467 79406
" />
<path d="M66552 79715
L66271 79715
L66271 79125
L66552 79125
" />
<path d="M66805 79659
L66833 79687
L66805 79715
L66777 79687
L66805 79659
L66805 79715
" />
<path d="M67086 79715
L67086 79125
L67227 79125
L67311 79153
L67367 79209
L67395 79266
L67424 79378
L67424 79462
L67395 79575
L67367 79631
L67311 79687
L67227 79715
L67086 79715
" />
<path d="M67677 79659
L67705 79687
L67677 79715
L67649 79687
L67677 79659
L67677 79715
" />
<path d="M67930 79547
L68211 79547
" />
<path d="M67874 79715
L68070 79125
L68267 79715
" />
<path d="M68464 79659
L68492 79687
L68464 79715
L68436 79687
L68464 79659
L68464 79715
" />
<path d="M69645 79715
L69645 79125
" />
<path d="M69701 79491
L69870 79715
" />
<path d="M69870 79322
L69645 79547
" />
<path d="M70123 79715
L70123 79322
" />
<path d="M70123 79125
L70095 79153
L70123 79181
L70151 79153
L70123 79125
L70123 79181
" />
<path d="M70658 79687
L70601 79715
L70489 79715
L70433 79687
L70404 79659
L70376 79603
L70376 79434
L70404 79378
L70433 79350
L70489 79322
L70601 79322
L70658 79350
" />
<path d="M71164 79715
L71164 79406
L71136 79350
L71079 79322
L70967 79322
L70911 79350
" />
<path d="M71164 79687
L71107 79715
L70967 79715
L70911 79687
L70883 79631
L70883 79575
L70911 79519
L70967 79491
L71107 79491
L71164 79462
" />
<path d="M71698 79715
L71698 79125
" />
<path d="M71698 79687
L71642 79715
L71529 79715
L71473 79687
L71445 79659
L71417 79603
L71417 79434
L71445 79378
L71473 79350
L71529 79322
L71642 79322
L71698 79350
" />
<path d="M72682 79322
L72682 79715
" />
<path d="M72542 79097
L72401 79519
L72767 79519
" />
<path d="M72992 79659
L73020 79687
L72992 79715
L72964 79687
L72992 79659
L72992 79715
" />
<path d="M73385 79125
L73442 79125
L73498 79153
L73526 79181
L73554 79237
L73582 79350
L73582 79491
L73554 79603
L73526 79659
L73498 79687
L73442 79715
L73385 79715
L73329 79687
L73301 79659
L73273 79603
L73245 79491
L73245 79350
L73273 79237
L73301 79181
L73329 79153
L73385 79125
" />
<path d="M73835 79659
L73863 79687
L73835 79715
L73807 79687
L73835 79659
L73835 79715
" />
<path d="M74426 79715
L74088 79715
" />
<path d="M74257 79715
L74257 79125
L74201 79209
L74145 79266
L74088 79294
" />
<path d="M74679 79491
L75129 79491
" />
<path d="M75382 79687
L75438 79715
L75551 79715
L75607 79687
L75635 79631
L75635 79603
L75607 79547
L75551 79519
L75466 79519
L75410 79491
L75382 79434
L75382 79406
L75410 79350
L75466 79322
L75551 79322
L75607 79350
" />
<path d="M75804 79322
L76029 79322
" />
<path d="M75888 79125
L75888 79631
L75916 79687
L75973 79715
L76029 79715
" />
<path d="M76479 79715
L76479 79406
L76451 79350
L76394 79322
L76282 79322
L76226 79350
" />
<path d="M76479 79687
L76422 79715
L76282 79715
L76226 79687
L76197 79631
L76197 79575
L76226 79519
L76282 79491
L76422 79491
L76479 79462
" />
<path d="M76760 79715
L76760 79125
" />
<path d="M76760 79350
L76816 79322
L76929 79322
L76985 79350
L77013 79378
L77041 79434
L77041 79603
L77013 79659
L76985 79687
L76929 79715
L76816 79715
L76760 79687
" />
<path d="M77379 79715
L77322 79687
L77294 79631
L77294 79125
" />
<path d="M77829 79687
L77772 79715
L77660 79715
L77604 79687
L77575 79631
L77575 79406
L77604 79350
L77660 79322
L77772 79322
L77829 79350
L77857 79406
L77857 79462
L77575 79519
" />
</g>
<g style="fill:#000000; fill-opacity:0.0; 
stroke:#000000; stroke-width:39.3701; stroke-opacity:1; 
stroke-linecap:round; stroke-linejoin:round;">
</g>
<g style="fill:#000000; fill-opacity:0.0; 
stroke:#000000; stroke-width:59.0551; stroke-opacity:1; 
stroke-linecap:round; stroke-linejoin:round;">
<path d="M62755 77716
L105275 77716
" />
</g>
<g style="fill:#000000; fill-opacity:0.0; 
stroke:#000000; stroke-width:39.3701; stroke-opacity:1; 
stroke-linecap:round; stroke-linejoin:round;">
</g>
<g style="fill:#000000; fill-opacity:0.0; 
stroke:#000000; stroke-width:118.11; stroke-opacity:1; 
stroke-linecap:round; stroke-linejoin:round;">
<path d="M97092 78613
L96895 78332
" />
<path d="M96754 78613
L96754 78023
L96979 78023
L97035 78051
L97064 78079
L97092 78135
L97092 78219
L97064 78276
L97035 78304
L96979 78332
L96754 78332
" />
<path d="M97570 78585
L97514 78613
L97401 78613
L97345 78585
L97317 78529
L97317 78304
L97345 78248
L97401 78219
L97514 78219
L97570 78248
L97598 78304
L97598 78360
L97317 78416
" />
<path d="M97795 78219
L97935 78613
L98076 78219
" />
<path d="M98301 78557
L98329 78585
L98301 78613
L98273 78585
L98301 78557
L98301 78613
" />
<path d="M98301 78248
L98329 78276
L98301 78304
L98273 78276
L98301 78248
L98301 78304
" />
<path d="M98976 78023
L99341 78023
L99145 78248
L99229 78248
L99285 78276
L99313 78304
L99341 78360
L99341 78501
L99313 78557
L99285 78585
L99229 78613
L99060 78613
L99004 78585
L98976 78557
" />
<path d="M99595 78557
L99623 78585
L99595 78613
L99566 78585
L99595 78557
L99595 78613
" />
<path d="M99820 78023
L100185 78023
L99988 78248
L100073 78248
L100129 78276
L100157 78304
L100185 78360
L100185 78501
L100157 78557
L100129 78585
L100073 78613
L99904 78613
L99848 78585
L99820 78557
" />
</g>
<g style="fill:#000000; fill-opacity:0.0; 
stroke:#000000; stroke-width:39.3701; stroke-opacity:1; 
stroke-linecap:round; stroke-linejoin:round;">
</g>
<g style="fill:#000000; fill-opacity:0.0; 
stroke:#000000; stroke-width:59.0551; stroke-opacity:1; 
stroke-linecap:round; stroke-linejoin:round;">
<path d="M63262 78585
L63346 78613
L63487 78613
L63543 78585
L63571 78557
L63599 78501
L63599 78444
L63571 78388
L63543 78360
L63487 78332
L63374 78304
L63318 78276
L63290 78248
L63262 78191
L63262 78135
L63290 78079
L63318 78051
L63374 78023
L63515 78023
L63599 78051
" />
<path d="M63852 78613
L63852 78219
" />
<path d="M63852 78023
L63824 78051
L63852 78079
L63880 78051
L63852 78023
L63852 78079
" />
<path d="M64077 78219
L64386 78219
L64077 78613
L64386 78613
" />
<path d="M64836 78585
L64780 78613
L64668 78613
L64611 78585
L64583 78529
L64583 78304
L64611 78248
L64668 78219
L64780 78219
L64836 78248
L64865 78304
L64865 78360
L64583 78416
" />
<path d="M65118 78557
L65146 78585
L65118 78613
L65089 78585
L65118 78557
L65118 78613
" />
<path d="M65118 78248
L65146 78276
L65118 78304
L65089 78276
L65118 78248
L65118 78304
" />
<path d="M65849 78023
L65849 78501
L65877 78557
L65905 78585
L65961 78613
L66074 78613
L66130 78585
L66158 78557
L66186 78501
L66186 78023
" />
<path d="M66439 78585
L66524 78613
L66664 78613
L66721 78585
L66749 78557
L66777 78501
L66777 78444
L66749 78388
L66721 78360
L66664 78332
L66552 78304
L66496 78276
L66467 78248
L66439 78191
L66439 78135
L66467 78079
L66496 78051
L66552 78023
L66692 78023
L66777 78051
" />
<path d="M67311 78613
L67030 78613
L67030 78023
" />
<path d="M67733 78585
L67677 78613
L67564 78613
L67508 78585
L67480 78529
L67480 78304
L67508 78248
L67564 78219
L67677 78219
L67733 78248
L67761 78304
L67761 78360
L67480 78416
" />
<path d="M67930 78219
L68155 78219
" />
<path d="M68014 78023
L68014 78529
L68042 78585
L68098 78613
L68155 78613
" />
<path d="M68267 78219
L68492 78219
" />
<path d="M68352 78023
L68352 78529
L68380 78585
L68436 78613
L68492 78613
" />
<path d="M68914 78585
L68858 78613
L68745 78613
L68689 78585
L68661 78529
L68661 78304
L68689 78248
L68745 78219
L68858 78219
L68914 78248
L68942 78304
L68942 78360
L68661 78416
" />
<path d="M69195 78613
L69195 78219
" />
<path d="M69195 78332
L69223 78276
L69251 78248
L69308 78219
L69364 78219
" />
</g>
<g style="fill:#000000; fill-opacity:0.0; 
stroke:#000000; stroke-width:39.3701; stroke-opacity:1; 
stroke-linecap:round; stroke-linejoin:round;">
</g>
<g style="fill:#000000; fill-opacity:0.0; 
stroke:#000000; stroke-width:59.0551; stroke-opacity:1; 
stroke-linecap:round; stroke-linejoin:round;">
<path d="M96754 79715
L96754 79125
" />
<path d="M97289 79715
L97289 79125
" />
<path d="M97289 79687
L97232 79715
L97120 79715
L97064 79687
L97035 79659
L97007 79603
L97007 79434
L97035 79378
L97064 79350
L97120 79322
L97232 79322
L97289 79350
" />
<path d="M97570 79659
L97598 79687
L97570 79715
L97542 79687
L97570 79659
L97570 79715
" />
<path d="M97570 79350
L97598 79378
L97570 79406
L97542 79378
L97570 79350
L97570 79406
" />
<path d="M98610 79715
L98273 79715
" />
<path d="M98442 79715
L98442 79125
L98385 79209
L98329 79266
L98273 79294
" />
<path d="M99285 79097
L98779 79856
" />
<path d="M99791 79715
L99454 79715
" />
<path d="M99623 79715
L99623 79125
L99566 79209
L99510 79266
L99454 79294
" />
</g>
<g style="fill:#000000; fill-opacity:0.0; 
stroke:#000000; stroke-width:39.3701; stroke-opacity:1; 
stroke-linecap:round; stroke-linejoin:round;">
</g>
<g style="fill:#000000; fill-opacity:0.0; 
stroke:#000000; stroke-width:59.0551; stroke-opacity:1; 
stroke-linecap:round; stroke-linejoin:round;">
<path d="M62755 76141
L105275 76141
" />
</g>
<g style="fill:#000000; fill-opacity:0.0; 
stroke:#000000; stroke-width:39.3701; stroke-opacity:1; 
stroke-linecap:round; stroke-linejoin:round;">
</g>
<g style="fill:#000000; fill-opacity:0.0; 
stroke:#000000; stroke-width:157.48; stroke-opacity:1; 
stroke-linecap:round; stroke-linejoin:round;">
<path d="M63327 76419
L63777 76419
" />
<path d="M63454 77206
L63552 76419
" />
<path d="M63941 77206
L64007 76681
" />
<path d="M64040 76419
L63997 76456
L64030 76494
L64072 76456
L64040 76419
L64030 76494
" />
<path d="M64269 76681
L64569 76681
" />
<path d="M64415 76419
L64330 77094
L64358 77169
L64429 77206
L64504 77206
" />
<path d="M64879 77206
L64808 77169
L64780 77094
L64865 76419
" />
<path d="M65483 77169
L65404 77206
L65254 77206
L65183 77169
L65155 77094
L65193 76794
L65239 76719
L65319 76681
L65469 76681
L65539 76719
L65568 76794
L65558 76869
L65174 76944
" />
<path d="M65863 77131
L65896 77169
L65853 77206
L65821 77169
L65863 77131
L65853 77206
" />
<path d="M65914 76719
L65947 76756
L65905 76794
L65872 76756
L65914 76719
L65905 76794
" />
<path d="M66828 77206
L66927 76419
L67114 76419
L67222 76456
L67288 76531
L67316 76606
L67335 76756
L67320 76869
L67264 77019
L67217 77094
L67133 77169
L67016 77206
L66828 77206
" />
<path d="M67616 77206
L67681 76681
" />
<path d="M67663 76831
L67709 76756
L67752 76719
L67831 76681
L67906 76681
" />
<path d="M68216 77206
L68145 77169
L68113 77131
L68084 77056
L68113 76831
L68159 76756
L68202 76719
L68281 76681
L68394 76681
L68464 76719
L68497 76756
L68525 76831
L68497 77056
L68450 77131
L68408 77169
L68328 77206
L68216 77206
" />
<path d="M68881 76681
L68783 77469
" />
<path d="M68877 76719
L68956 76681
L69106 76681
L69176 76719
L69209 76756
L69237 76831
L69209 77056
L69162 77131
L69120 77169
L69041 77206
L68891 77206
L68820 77169
" />
<path d="M69842 76794
L69950 76831
L69983 76869
L70011 76944
L69997 77056
L69950 77131
L69908 77169
L69828 77206
L69528 77206
L69626 76419
L69889 76419
L69959 76456
L69992 76494
L70020 76569
L70011 76644
L69964 76719
L69922 76756
L69842 76794
L69580 76794
" />
<path d="M70428 77206
L70358 77169
L70325 77131
L70297 77056
L70325 76831
L70372 76756
L70414 76719
L70494 76681
L70606 76681
L70676 76719
L70709 76756
L70737 76831
L70709 77056
L70662 77131
L70620 77169
L70540 77206
L70428 77206
" />
<path d="M70981 76681
L71281 76681
" />
<path d="M71126 76419
L71042 77094
L71070 77169
L71140 77206
L71215 77206
" />
<path d="M72420 77169
L72340 77206
L72190 77206
L72120 77169
L72087 77131
L72059 77056
L72087 76831
L72134 76756
L72176 76719
L72256 76681
L72406 76681
L72476 76719
" />
<path d="M72865 77206
L72795 77169
L72762 77131
L72734 77056
L72762 76831
L72809 76756
L72851 76719
L72931 76681
L73043 76681
L73113 76719
L73146 76756
L73174 76831
L73146 77056
L73099 77131
L73057 77169
L72978 77206
L72865 77206
" />
<path d="M73531 76681
L73465 77206
" />
<path d="M73521 76756
L73563 76719
L73643 76681
L73756 76681
L73826 76719
L73854 76794
L73802 77206
" />
<path d="M74131 76681
L74431 76681
" />
<path d="M74276 76419
L74191 77094
L74220 77169
L74290 77206
L74365 77206
" />
<path d="M74627 77206
L74693 76681
" />
<path d="M74674 76831
L74721 76756
L74763 76719
L74843 76681
L74918 76681
" />
<path d="M75227 77206
L75157 77169
L75124 77131
L75096 77056
L75124 76831
L75171 76756
L75213 76719
L75293 76681
L75405 76681
L75476 76719
L75508 76756
L75537 76831
L75508 77056
L75462 77131
L75419 77169
L75340 77206
L75227 77206
" />
<path d="M75940 77206
L75869 77169
L75841 77094
L75926 76419
" />
<path d="M76840 77206
L76938 76419
" />
<path d="M76901 76719
L76980 76681
L77130 76681
L77200 76719
L77233 76756
L77261 76831
L77233 77056
L77186 77131
L77144 77169
L77065 77206
L76915 77206
L76844 77169
" />
<path d="M77664 77206
L77594 77169
L77561 77131
L77533 77056
L77561 76831
L77608 76756
L77650 76719
L77730 76681
L77843 76681
L77913 76719
L77946 76756
L77974 76831
L77946 77056
L77899 77131
L77857 77169
L77777 77206
L77664 77206
" />
<path d="M78602 77206
L78653 76794
L78625 76719
L78555 76681
L78405 76681
L78325 76719
" />
<path d="M78607 77169
L78527 77206
L78339 77206
L78269 77169
L78241 77094
L78250 77019
L78297 76944
L78377 76906
L78564 76906
L78644 76869
" />
<path d="M78977 77206
L79042 76681
" />
<path d="M79024 76831
L79071 76756
L79113 76719
L79192 76681
L79267 76681
" />
<path d="M79802 77206
L79900 76419
" />
<path d="M79806 77169
L79727 77206
L79577 77206
L79506 77169
L79474 77131
L79446 77056
L79474 76831
L79520 76756
L79563 76719
L79642 76681
L79792 76681
L79863 76719
" />
</g>
<g style="fill:#000000; fill-opacity:0.0; 
stroke:#000000; stroke-width:39.3701; stroke-opacity:1; 
stroke-linecap:round; stroke-linejoin:round;">
</g>
<g style="fill:#000000; fill-opacity:0.0; 
stroke:#000000; stroke-width:59.0551; stroke-opacity:1; 
stroke-linecap:round; stroke-linejoin:round;">
<path d="M63487 75390
L63290 75390
" />
<path d="M63290 75700
L63290 75109
L63571 75109
" />
<path d="M63796 75700
L63796 75306
" />
<path d="M63796 75109
L63768 75137
L63796 75165
L63824 75137
L63796 75109
L63796 75165
" />
<path d="M64161 75700
L64105 75672
L64077 75615
L64077 75109
" />
<path d="M64611 75672
L64555 75700
L64443 75700
L64386 75672
L64358 75615
L64358 75390
L64386 75334
L64443 75306
L64555 75306
L64611 75334
L64640 75390
L64640 75447
L64358 75503
" />
<path d="M64893 75643
L64921 75672
L64893 75700
L64865 75672
L64893 75643
L64893 75700
" />
<path d="M64893 75334
L64921 75362
L64893 75390
L64865 75362
L64893 75334
L64893 75390
" />
<path d="M65877 75700
L65877 75109
" />
<path d="M65877 75672
L65821 75700
L65708 75700
L65652 75672
L65624 75643
L65596 75587
L65596 75419
L65624 75362
L65652 75334
L65708 75306
L65821 75306
L65877 75334
" />
<path d="M66158 75700
L66158 75306
" />
<path d="M66158 75419
L66186 75362
L66214 75334
L66271 75306
L66327 75306
" />
<path d="M66608 75700
L66552 75672
L66524 75643
L66496 75587
L66496 75419
L66524 75362
L66552 75334
L66608 75306
L66692 75306
L66749 75334
L66777 75362
L66805 75419
L66805 75587
L66777 75643
L66749 75672
L66692 75700
L66608 75700
" />
<path d="M67058 75306
L67058 75897
" />
<path d="M67058 75334
L67114 75306
L67227 75306
L67283 75334
L67311 75362
L67339 75419
L67339 75587
L67311 75643
L67283 75672
L67227 75700
L67114 75700
L67058 75672
" />
<path d="M67592 75700
L67592 75109
" />
<path d="M67592 75334
L67649 75306
L67761 75306
L67817 75334
L67845 75362
L67874 75419
L67874 75587
L67845 75643
L67817 75672
L67761 75700
L67649 75700
L67592 75672
" />
<path d="M68211 75700
L68155 75672
L68127 75643
L68098 75587
L68098 75419
L68127 75362
L68155 75334
L68211 75306
L68295 75306
L68352 75334
L68380 75362
L68408 75419
L68408 75587
L68380 75643
L68352 75672
L68295 75700
L68211 75700
" />
<path d="M68577 75306
L68802 75306
" />
<path d="M68661 75109
L68661 75615
L68689 75672
L68745 75700
L68802 75700
" />
<path d="M68858 75756
L69308 75756
" />
<path d="M69701 75672
L69645 75700
L69533 75700
L69476 75672
L69448 75643
L69420 75587
L69420 75419
L69448 75362
L69476 75334
L69533 75306
L69645 75306
L69701 75334
" />
<path d="M70039 75700
L69983 75672
L69955 75643
L69926 75587
L69926 75419
L69955 75362
L69983 75334
L70039 75306
L70123 75306
L70179 75334
L70208 75362
L70236 75419
L70236 75587
L70208 75643
L70179 75672
L70123 75700
L70039 75700
" />
<path d="M70489 75306
L70489 75700
" />
<path d="M70489 75362
L70517 75334
L70573 75306
L70658 75306
L70714 75334
L70742 75390
L70742 75700
" />
<path d="M70939 75306
L71164 75306
" />
<path d="M71023 75109
L71023 75615
L71051 75672
L71107 75700
L71164 75700
" />
<path d="M71361 75700
L71361 75306
" />
<path d="M71361 75419
L71389 75362
L71417 75334
L71473 75306
L71529 75306
" />
<path d="M71811 75700
L71754 75672
L71726 75643
L71698 75587
L71698 75419
L71726 75362
L71754 75334
L71811 75306
L71895 75306
L71951 75334
L71979 75362
L72007 75419
L72007 75587
L71979 75643
L71951 75672
L71895 75700
L71811 75700
" />
<path d="M72345 75700
L72289 75672
L72260 75615
L72260 75109
" />
<path d="M72429 75756
L72879 75756
" />
<path d="M73020 75700
L73020 75109
" />
<path d="M73020 75334
L73076 75306
L73188 75306
L73245 75334
L73273 75362
L73301 75419
L73301 75587
L73273 75643
L73245 75672
L73188 75700
L73076 75700
L73020 75672
" />
<path d="M73638 75700
L73582 75672
L73554 75643
L73526 75587
L73526 75419
L73554 75362
L73582 75334
L73638 75306
L73723 75306
L73779 75334
L73807 75362
L73835 75419
L73835 75587
L73807 75643
L73779 75672
L73723 75700
L73638 75700
" />
<path d="M74341 75700
L74341 75390
L74313 75334
L74257 75306
L74145 75306
L74088 75334
" />
<path d="M74341 75672
L74285 75700
L74145 75700
L74088 75672
L74060 75615
L74060 75559
L74088 75503
L74145 75475
L74285 75475
L74341 75447
" />
<path d="M74623 75700
L74623 75306
" />
<path d="M74623 75419
L74651 75362
L74679 75334
L74735 75306
L74791 75306
" />
<path d="M75241 75700
L75241 75109
" />
<path d="M75241 75672
L75185 75700
L75073 75700
L75016 75672
L74988 75643
L74960 75587
L74960 75419
L74988 75362
L75016 75334
L75073 75306
L75185 75306
L75241 75334
" />
<path d="M75523 75643
L75551 75672
L75523 75700
L75494 75672
L75523 75643
L75523 75700
" />
<path d="M75804 75700
L75804 75109
" />
<path d="M75860 75475
L76029 75700
" />
<path d="M76029 75306
L75804 75531
" />
<path d="M76282 75700
L76282 75306
" />
<path d="M76282 75109
L76254 75137
L76282 75165
L76310 75137
L76282 75109
L76282 75165
" />
<path d="M76816 75672
L76760 75700
L76647 75700
L76591 75672
L76563 75643
L76535 75587
L76535 75419
L76563 75362
L76591 75334
L76647 75306
L76760 75306
L76816 75334
" />
<path d="M77322 75700
L77322 75390
L77294 75334
L77238 75306
L77125 75306
L77069 75334
" />
<path d="M77322 75672
L77266 75700
L77125 75700
L77069 75672
L77041 75615
L77041 75559
L77069 75503
L77125 75475
L77266 75475
L77322 75447
" />
<path d="M77857 75700
L77857 75109
" />
<path d="M77857 75672
L77800 75700
L77688 75700
L77632 75672
L77604 75643
L77575 75587
L77575 75419
L77604 75362
L77632 75334
L77688 75306
L77800 75306
L77857 75334
" />
<path d="M77997 75756
L78447 75756
" />
<path d="M78588 75306
L78588 75897
" />
<path d="M78588 75334
L78644 75306
L78757 75306
L78813 75334
L78841 75362
L78869 75419
L78869 75587
L78841 75643
L78813 75672
L78757 75700
L78644 75700
L78588 75672
" />
<path d="M79375 75672
L79319 75700
L79206 75700
L79150 75672
L79122 75643
L79094 75587
L79094 75419
L79122 75362
L79150 75334
L79206 75306
L79319 75306
L79375 75334
" />
<path d="M79628 75700
L79628 75109
" />
<path d="M79628 75334
L79685 75306
L79797 75306
L79853 75334
L79881 75362
L79910 75419
L79910 75587
L79881 75643
L79853 75672
L79797 75700
L79685 75700
L79628 75672
" />
</g>
<g style="fill:#000000; fill-opacity:0.0; 
stroke:#000000; stroke-width:39.3701; stroke-opacity:1; 
stroke-linecap:round; stroke-linejoin:round;">
</g>
<g style="fill:#000000; fill-opacity:0.0; 
stroke:#000000; stroke-width:59.0551; stroke-opacity:1; 
stroke-linecap:round; stroke-linejoin:round;">
<path d="M62755 73779
L105275 73779
" />
</g>
<g style="fill:#000000; fill-opacity:0.0; 
stroke:#000000; stroke-width:39.3701; stroke-opacity:1; 
stroke-linecap:round; stroke-linejoin:round;">
</g>
<g style="fill:#000000; fill-opacity:0.0; 
stroke:#000000; stroke-width:59.0551; stroke-opacity:1; 
stroke-linecap:round; stroke-linejoin:round;">
<path d="M63262 74609
L63346 74637
L63487 74637
L63543 74609
L63571 74580
L63599 74524
L63599 74468
L63571 74412
L63543 74384
L63487 74356
L63374 74327
L63318 74299
L63290 74271
L63262 74215
L63262 74159
L63290 74102
L63318 74074
L63374 74046
L63515 74046
L63599 74074
" />
<path d="M63852 74637
L63852 74046
" />
<path d="M64105 74637
L64105 74327
L64077 74271
L64021 74243
L63937 74243
L63880 74271
L63852 74299
" />
<path d="M64611 74609
L64555 74637
L64443 74637
L64386 74609
L64358 74552
L64358 74327
L64386 74271
L64443 74243
L64555 74243
L64611 74271
L64640 74327
L64640 74384
L64358 74440
" />
<path d="M65118 74609
L65061 74637
L64949 74637
L64893 74609
L64865 74552
L64865 74327
L64893 74271
L64949 74243
L65061 74243
L65118 74271
L65146 74327
L65146 74384
L64865 74440
" />
<path d="M65314 74243
L65539 74243
" />
<path d="M65399 74046
L65399 74552
L65427 74609
L65483 74637
L65539 74637
" />
<path d="M65736 74580
L65764 74609
L65736 74637
L65708 74609
L65736 74580
L65736 74637
" />
<path d="M65736 74271
L65764 74299
L65736 74327
L65708 74299
L65736 74271
L65736 74327
" />
</g>
<g style="fill:#000000; fill-opacity:0.0; 
stroke:#000000; stroke-width:39.3701; stroke-opacity:1; 
stroke-linecap:round; stroke-linejoin:round;">
</g>
<g style="fill:#000000; fill-opacity:0.0; 
stroke:#000000; stroke-width:118.11; stroke-opacity:1; 
stroke-linecap:round; stroke-linejoin:round;">
<path d="M63262 73428
L63346 73456
L63487 73456
L63543 73428
L63571 73399
L63599 73343
L63599 73287
L63571 73231
L63543 73203
L63487 73174
L63374 73146
L63318 73118
L63290 73090
L63262 73034
L63262 72978
L63290 72921
L63318 72893
L63374 72865
L63515 72865
L63599 72893
" />
<path d="M64105 73428
L64049 73456
L63937 73456
L63880 73428
L63852 73399
L63824 73343
L63824 73174
L63852 73118
L63880 73090
L63937 73062
L64049 73062
L64105 73090
" />
<path d="M64358 73456
L64358 73062
" />
<path d="M64358 72865
L64330 72893
L64358 72921
L64386 72893
L64358 72865
L64358 72921
" />
<path d="M64640 73231
L65089 73231
" />
<path d="M65568 73146
L65652 73174
L65680 73203
L65708 73259
L65708 73343
L65680 73399
L65652 73428
L65596 73456
L65371 73456
L65371 72865
L65568 72865
L65624 72893
L65652 72921
L65680 72978
L65680 73034
L65652 73090
L65624 73118
L65568 73146
L65371 73146
" />
<path d="M66046 73456
L65989 73428
L65961 73399
L65933 73343
L65933 73174
L65961 73118
L65989 73090
L66046 73062
L66130 73062
L66186 73090
L66214 73118
L66242 73174
L66242 73343
L66214 73399
L66186 73428
L66130 73456
L66046 73456
" />
<path d="M66411 73062
L66636 73062
" />
<path d="M66496 72865
L66496 73371
L66524 73428
L66580 73456
L66636 73456
" />
<path d="M66805 73428
L66861 73456
L66974 73456
L67030 73428
L67058 73371
L67058 73343
L67030 73287
L66974 73259
L66889 73259
L66833 73231
L66805 73174
L66805 73146
L66833 73090
L66889 73062
L66974 73062
L67030 73090
" />
<path d="M67761 73456
L67761 72865
" />
<path d="M68042 73062
L68042 73456
" />
<path d="M68042 73118
L68070 73090
L68127 73062
L68211 73062
L68267 73090
L68295 73146
L68295 73456
" />
<path d="M68830 73428
L68773 73456
L68661 73456
L68605 73428
L68577 73399
L68548 73343
L68548 73174
L68577 73118
L68605 73090
L68661 73062
L68773 73062
L68830 73090
" />
<path d="M69083 73399
L69111 73428
L69083 73456
L69055 73428
L69083 73399
L69083 73456
" />
</g>
<g style="fill:#000000; fill-opacity:0.0; 
stroke:#000000; stroke-width:39.3701; stroke-opacity:1; 
stroke-linecap:round; stroke-linejoin:round;">
</g>
<g style="fill:#000000; fill-opacity:0.0; 
stroke:#000000; stroke-width:59.0551; stroke-opacity:1; 
stroke-linecap:round; stroke-linejoin:round;">
<path d="M70629 77716
L70629 78897
" />
</g>
<g style="fill:#000000; fill-opacity:0.0; 
stroke:#000000; stroke-width:39.3701; stroke-opacity:1; 
stroke-linecap:round; stroke-linejoin:round;">
</g>
<g style="fill:#000000; fill-opacity:0.0; 
stroke:#000000; stroke-width:59.0551; stroke-opacity:1; 
stroke-linecap:round; stroke-linejoin:round;">
<path d="M95826 77716
L95826 80275
" />
</g>
<g style="fill:#000000; fill-opacity:0.0; 
stroke:#000000; stroke-width:39.3701; stroke-opacity:1; 
stroke-linecap:round; stroke-linejoin:round;">
<path d="M12992 16929
L48818 16929
" />
<path d="M12992 35826
L25196 35826
" />
<path d="M12992 16929
L12992 35826
" />
<path d="M25196 35826
L25196 44488
" />
<path d="M48818 8267
L48818 16929
" />
<path d="M58267 8267
L58267 44488
" />
<path d="M48818 8267
L58267 8267
" />
<path d="M25196 44488
L58267 44488
" />
</g>
<g style="fill:#000000; fill-opacity:0.0; 
stroke:#000000; stroke-width:0; stroke-opacity:1; 
stroke-linecap:round; stroke-linejoin:round;">
</g>
<g style="fill:#000000; fill-opacity:1.0; 
stroke:#000000; stroke-width:0; stroke-opacity:1; 
stroke-linecap:round; stroke-linejoin:round;">
<polyline style="fill-rule:evenodd;"
points="21356,28482
21950,28482
21950,29785
21356,29785
21356,28482
" /> 
<polyline style="fill-rule:evenodd;"
points="22340,28482
22934,28482
22934,29785
22340,29785
22340,28482
" /> 
<polyline style="fill-rule:evenodd;"
points="20569,28482
21162,28482
21162,29785
20569,29785
20569,28482
" /> 
<polyline style="fill-rule:evenodd;"
points="19585,28482
20178,28482
20178,29785
19585,29785
19585,28482
" /> 
<circle cx="23846.5" cy="30669.3" r="690.551" /> 
</g>
<g style="fill:#000000; fill-opacity:1.0; 
stroke:#000000; stroke-width:39.3701; stroke-opacity:1; 
stroke-linecap:round; stroke-linejoin:round;">
</g>
<g style="fill:#000000; fill-opacity:1.0; 
stroke:#000000; stroke-width:0; stroke-opacity:1; 
stroke-linecap:round; stroke-linejoin:round;">
<circle cx="18673.2" cy="30669.3" r="690.551" /> 
</g>
<g style="fill:#000000; fill-opacity:1.0; 
stroke:#000000; stroke-width:39.3701; stroke-opacity:1; 
stroke-linecap:round; stroke-linejoin:round;">
</g>
<g style="fill:#000000; fill-opacity:1.0; 
stroke:#000000; stroke-width:0; stroke-opacity:1; 
stroke-linecap:round; stroke-linejoin:round;">
<circle cx="14015.7" cy="25135" r="350" /> 
</g>
<g style="fill:#000000; fill-opacity:1.0; 
stroke:#000000; stroke-width:39.3701; stroke-opacity:1; 
stroke-linecap:round; stroke-linejoin:round;">
</g>
<g style="fill:#000000; fill-opacity:1.0; 
stroke:#000000; stroke-width:0; stroke-opacity:1; 
stroke-linecap:round; stroke-linejoin:round;">
<circle cx="14015.7" cy="27305" r="350" /> 
</g>
<g style="fill:#000000; fill-opacity:1.0; 
stroke:#000000; stroke-width:39.3701; stroke-opacity:1; 
stroke-linecap:round; stroke-linejoin:round;">
</g>
<g style="fill:#000000; fill-opacity:1.0; 
stroke:#000000; stroke-width:0; stroke-opacity:1; 
stroke-linecap:round; stroke-linejoin:round;">
<polyline style="fill-rule:evenodd;"
points="27119,40874
26239,40874
26239,39874
27119,39874
27119,40874
" /> 
</g>
<g style="fill:#000000; fill-opacity:1.0; 
stroke:#000000; stroke-width:880; stroke-opacity:1; 
stroke-linecap:round; stroke-linejoin:round;">
</g>
<g style="fill:#000000; fill-opacity:0.0; 
stroke:#000000; stroke-width:880; stroke-opacity:1; 
stroke-linecap:round; stroke-linejoin:round;">
<path d="M27679 40434
L27679 40314
" />
<path d="M28679 40434
L28679 40314
" />
<path d="M29679 40434
L29679 40314
" />
</g>
<g style="fill:#000000; fill-opacity:0.0; 
stroke:#000000; stroke-width:0; stroke-opacity:1; 
stroke-linecap:round; stroke-linejoin:round;">
</g>
<g style="fill:#000000; fill-opacity:1.0; 
stroke:#000000; stroke-width:0; stroke-opacity:1; 
stroke-linecap:round; stroke-linejoin:round;">
<polyline style="fill-rule:evenodd;"
points="56278,21455
56950,21455
56950,22127
56278,22127
56278,21455
" /> 
<polyline style="fill-rule:evenodd;"
points="56278,22281
56950,22281
56950,22953
56278,22953
56278,22281
" /> 
</g>
<g style="fill:#000000; fill-opacity:1.0; 
stroke:#000000; stroke-width:829.921; stroke-opacity:1; 
stroke-linecap:round; stroke-linejoin:round;">
</g>
<g style="fill:#000000; fill-opacity:0.0; 
stroke:#000000; stroke-width:829.921; stroke-opacity:1; 
stroke-linecap:round; stroke-linejoin:round;">
<path d="M30590 21988
L30590 21988
" />
<path d="M30590 22988
L30590 22988
" />
<path d="M30590 23988
L30590 23988
" />
<path d="M30590 24988
L30590 24988
" />
<path d="M30590 25988
L30590 25988
" />
<path d="M30590 26988
L30590 26988
" />
<path d="M30590 27988
L30590 27988
" />
<path d="M27590 27988
L27590 27988
" />
<path d="M27590 26988
L27590 26988
" />
<path d="M27590 25988
L27590 25988
" />
<path d="M27590 24988
L27590 24988
" />
<path d="M27590 23988
L27590 23988
" />
<path d="M27590 22988
L27590 22988
" />
<path d="M27590 21988
L27590 21988
" />
</g>
<g style="fill:#000000; fill-opacity:0.0; 
stroke:#000000; stroke-width:0; stroke-opacity:1; 
stroke-linecap:round; stroke-linejoin:round;">
</g>
<g style="fill:#000000; fill-opacity:1.0; 
stroke:#000000; stroke-width:0; stroke-opacity:1; 
stroke-linecap:round; stroke-linejoin:round;">
<polyline style="fill-rule:evenodd;"
points="54467,21455
55139,21455
55139,22127
54467,22127
54467,21455
" /> 
<polyline style="fill-rule:evenodd;"
points="54467,22281
55139,22281
55139,22953
54467,22953
54467,22281
" /> 
<circle cx="38804.7" cy="22566.9" r="474.016" /> 
</g>
<g style="fill:#000000; fill-opacity:1.0; 
stroke:#000000; stroke-width:39.3701; stroke-opacity:1; 
stroke-linecap:round; stroke-linejoin:round;">
</g>
<g style="fill:#000000; fill-opacity:1.0; 
stroke:#000000; stroke-width:0; stroke-opacity:1; 
stroke-linecap:round; stroke-linejoin:round;">
<circle cx="39804.7" cy="22566.9" r="474.016" /> 
</g>
<g style="fill:#000000; fill-opacity:1.0; 
stroke:#000000; stroke-width:39.3701; stroke-opacity:1; 
stroke-linecap:round; stroke-linejoin:round;">
</g>
<g style="fill:#000000; fill-opacity:1.0; 
stroke:#000000; stroke-width:0; stroke-opacity:1; 
stroke-linecap:round; stroke-linejoin:round;">
<circle cx="40804.7" cy="22566.9" r="474.016" /> 
</g>
<g style="fill:#000000; fill-opacity:1.0; 
stroke:#000000; stroke-width:39.3701; stroke-opacity:1; 
stroke-linecap:round; stroke-linejoin:round;">
</g>
<g style="fill:#000000; fill-opacity:1.0; 
stroke:#000000; stroke-width:0; stroke-opacity:1; 
stroke-linecap:round; stroke-linejoin:round;">
<circle cx="36804.7" cy="27566.9" r="474.016" /> 
</g>
<g style="fill:#000000; fill-opacity:1.0; 
stroke:#000000; stroke-width:39.3701; stroke-opacity:1; 
stroke-linecap:round; stroke-linejoin:round;">
</g>
<g style="fill:#000000; fill-opacity:1.0; 
stroke:#000000; stroke-width:0; stroke-opacity:1; 
stroke-linecap:round; stroke-linejoin:round;">
<circle cx="37804.7" cy="27566.9" r="474.016" /> 
</g>
<g style="fill:#000000; fill-opacity:1.0; 
stroke:#000000; stroke-width:39.3701; stroke-opacity:1; 
stroke-linecap:round; stroke-linejoin:round;">
</g>
<g style="fill:#000000; fill-opacity:1.0; 
stroke:#000000; stroke-width:0; stroke-opacity:1; 
stroke-linecap:round; stroke-linejoin:round;">
<circle cx="38804.7" cy="27566.9" r="474.016" /> 
</g>
<g style="fill:#000000; fill-opacity:1.0; 
stroke:#000000; stroke-width:39.3701; stroke-opacity:1; 
stroke-linecap:round; stroke-linejoin:round;">
</g>
<g style="fill:#000000; fill-opacity:1.0; 
stroke:#000000; stroke-width:0; stroke-opacity:1; 
stroke-linecap:round; stroke-linejoin:round;">
<circle cx="39804.7" cy="27566.9" r="474.016" /> 
</g>
<g style="fill:#000000; fill-opacity:1.0; 
stroke:#000000; stroke-width:39.3701; stroke-opacity:1; 
stroke-linecap:round; stroke-linejoin:round;">
</g>
<g style="fill:#000000; fill-opacity:1.0; 
stroke:#000000; stroke-width:0; stroke-opacity:1; 
stroke-linecap:round; stroke-linejoin:round;">
<circle cx="40804.7" cy="27566.9" r="474.016" /> 
</g>
<g style="fill:#000000; fill-opacity:1.0; 
stroke:#000000; stroke-width:39.3701; stroke-opacity:1; 
stroke-linecap:round; stroke-linejoin:round;">
</g>
<g style="fill:#000000; fill-opacity:1.0; 
stroke:#000000; stroke-width:0; stroke-opacity:1; 
stroke-linecap:round; stroke-linejoin:round;">
<circle cx="41804.7" cy="27566.9" r="474.016" /> 
</g>
<g style="fill:#000000; fill-opacity:1.0; 
stroke:#000000; stroke-width:39.3701; stroke-opacity:1; 
stroke-linecap:round; stroke-linejoin:round;">
</g>
<g style="fill:#000000; fill-opacity:1.0; 
stroke:#000000; stroke-width:0; stroke-opacity:1; 
stroke-linecap:round; stroke-linejoin:round;">
<circle cx="42804.7" cy="27566.9" r="474.016" /> 
</g>
<g style="fill:#000000; fill-opacity:1.0; 
stroke:#000000; stroke-width:39.3701; stroke-opacity:1; 
stroke-linecap:round; stroke-linejoin:round;">
</g>
<g style="fill:#000000; fill-opacity:1.0; 
stroke:#000000; stroke-width:0; stroke-opacity:1; 
stroke-linecap:round; stroke-linejoin:round;">
<circle cx="43804.7" cy="27566.9" r="474.016" /> 
</g>
<g style="fill:#000000; fill-opacity:1.0; 
stroke:#000000; stroke-width:39.3701; stroke-opacity:1; 
stroke-linecap:round; stroke-linejoin:round;">
</g>
<g style="fill:#000000; fill-opacity:1.0; 
stroke:#000000; stroke-width:0; stroke-opacity:1; 
stroke-linecap:round; stroke-linejoin:round;">
<circle cx="44804.7" cy="27566.9" r="474.016" /> 
</g>
<g style="fill:#000000; fill-opacity:1.0; 
stroke:#000000; stroke-width:39.3701; stroke-opacity:1; 
stroke-linecap:round; stroke-linejoin:round;">
</g>
<g style="fill:#000000; fill-opacity:1.0; 
stroke:#000000; stroke-width:0; stroke-opacity:1; 
stroke-linecap:round; stroke-linejoin:round;">
<circle cx="45804.7" cy="27566.9" r="474.016" /> 
</g>
<g style="fill:#000000; fill-opacity:1.0; 
stroke:#000000; stroke-width:39.3701; stroke-opacity:1; 
stroke-linecap:round; stroke-linejoin:round;">
</g>
<g style="fill:#000000; fill-opacity:1.0; 
stroke:#000000; stroke-width:0; stroke-opacity:1; 
stroke-linecap:round; stroke-linejoin:round;">
<circle cx="46804.7" cy="27566.9" r="474.016" /> 
</g>
<g style="fill:#000000; fill-opacity:1.0; 
stroke:#000000; stroke-width:39.3701; stroke-opacity:1; 
stroke-linecap:round; stroke-linejoin:round;">
</g>
<g style="fill:#000000; fill-opacity:1.0; 
stroke:#000000; stroke-width:0; stroke-opacity:1; 
stroke-linecap:round; stroke-linejoin:round;">
<circle cx="47804.7" cy="27566.9" r="474.016" /> 
</g>
<g style="fill:#000000; fill-opacity:1.0; 
stroke:#000000; stroke-width:39.3701; stroke-opacity:1; 
stroke-linecap:round; stroke-linejoin:round;">
</g>
<g style="fill:#000000; fill-opacity:1.0; 
stroke:#000000; stroke-width:0; stroke-opacity:1; 
stroke-linecap:round; stroke-linejoin:round;">
<circle cx="48804.7" cy="27566.9" r="474.016" /> 
</g>
<g style="fill:#000000; fill-opacity:1.0; 
stroke:#000000; stroke-width:39.3701; stroke-opacity:1; 
stroke-linecap:round; stroke-linejoin:round;">
</g>
<g style="fill:#000000; fill-opacity:1.0; 
stroke:#000000; stroke-width:0; stroke-opacity:1; 
stroke-linecap:round; stroke-linejoin:round;">
<circle cx="48804.7" cy="21566.9" r="474.016" /> 
</g>
<g style="fill:#000000; fill-opacity:1.0; 
stroke:#000000; stroke-width:39.3701; stroke-opacity:1; 
stroke-linecap:round; stroke-linejoin:round;">
</g>
<g style="fill:#000000; fill-opacity:1.0; 
stroke:#000000; stroke-width:0; stroke-opacity:1; 
stroke-linecap:round; stroke-linejoin:round;">
<circle cx="47804.7" cy="21566.9" r="474.016" /> 
</g>
<g style="fill:#000000; fill-opacity:1.0; 
stroke:#000000; stroke-width:39.3701; stroke-opacity:1; 
stroke-linecap:round; stroke-linejoin:round;">
</g>
<g style="fill:#000000; fill-opacity:1.0; 
stroke:#000000; stroke-width:0; stroke-opacity:1; 
stroke-linecap:round; stroke-linejoin:round;">
<circle cx="46804.7" cy="21566.9" r="474.016" /> 
</g>
<g style="fill:#000000; fill-opacity:1.0; 
stroke:#000000; stroke-width:39.3701; stroke-opacity:1; 
stroke-linecap:round; stroke-linejoin:round;">
</g>
<g style="fill:#000000; fill-opacity:1.0; 
stroke:#000000; stroke-width:0; stroke-opacity:1; 
stroke-linecap:round; stroke-linejoin:round;">
<circle cx="45804.7" cy="21566.9" r="474.016" /> 
</g>
<g style="fill:#000000; fill-opacity:1.0; 
stroke:#000000; stroke-width:39.3701; stroke-opacity:1; 
stroke-linecap:round; stroke-linejoin:round;">
</g>
<g style="fill:#000000; fill-opacity:1.0; 
stroke:#000000; stroke-width:0; stroke-opacity:1; 
stroke-linecap:round; stroke-linejoin:round;">
<circle cx="44804.7" cy="21566.9" r="474.016" /> 
</g>
<g style="fill:#000000; fill-opacity:1.0; 
stroke:#000000; stroke-width:39.3701; stroke-opacity:1; 
stroke-linecap:round; stroke-linejoin:round;">
</g>
<g style="fill:#000000; fill-opacity:1.0; 
stroke:#000000; stroke-width:0; stroke-opacity:1; 
stroke-linecap:round; stroke-linejoin:round;">
<circle cx="43804.7" cy="21566.9" r="474.016" /> 
</g>
<g style="fill:#000000; fill-opacity:1.0; 
stroke:#000000; stroke-width:39.3701; stroke-opacity:1; 
stroke-linecap:round; stroke-linejoin:round;">
</g>
<g style="fill:#000000; fill-opacity:1.0; 
stroke:#000000; stroke-width:0; stroke-opacity:1; 
stroke-linecap:round; stroke-linejoin:round;">
<circle cx="42804.7" cy="21566.9" r="474.016" /> 
</g>
<g style="fill:#000000; fill-opacity:1.0; 
stroke:#000000; stroke-width:39.3701; stroke-opacity:1; 
stroke-linecap:round; stroke-linejoin:round;">
</g>
<g style="fill:#000000; fill-opacity:1.0; 
stroke:#000000; stroke-width:0; stroke-opacity:1; 
stroke-linecap:round; stroke-linejoin:round;">
<circle cx="41804.7" cy="21566.9" r="474.016" /> 
</g>
<g style="fill:#000000; fill-opacity:1.0; 
stroke:#000000; stroke-width:39.3701; stroke-opacity:1; 
stroke-linecap:round; stroke-linejoin:round;">
</g>
<g style="fill:#000000; fill-opacity:1.0; 
stroke:#000000; stroke-width:0; stroke-opacity:1; 
stroke-linecap:round; stroke-linejoin:round;">
<circle cx="40804.7" cy="21566.9" r="474.016" /> 
</g>
<g style="fill:#000000; fill-opacity:1.0; 
stroke:#000000; stroke-width:39.3701; stroke-opacity:1; 
stroke-linecap:round; stroke-linejoin:round;">
</g>
<g style="fill:#000000; fill-opacity:1.0; 
stroke:#000000; stroke-width:0; stroke-opacity:1; 
stroke-linecap:round; stroke-linejoin:round;">
<circle cx="39804.7" cy="21566.9" r="474.016" /> 
</g>
<g style="fill:#000000; fill-opacity:1.0; 
stroke:#000000; stroke-width:39.3701; stroke-opacity:1; 
stroke-linecap:round; stroke-linejoin:round;">
</g>
<g style="fill:#000000; fill-opacity:1.0; 
stroke:#000000; stroke-width:0; stroke-opacity:1; 
stroke-linecap:round; stroke-linejoin:round;">
<circle cx="38804.7" cy="21566.9" r="474.016" /> 
</g>
<g style="fill:#000000; fill-opacity:1.0; 
stroke:#000000; stroke-width:39.3701; stroke-opacity:1; 
stroke-linecap:round; stroke-linejoin:round;">
</g>
<g style="fill:#000000; fill-opacity:1.0; 
stroke:#000000; stroke-width:0; stroke-opacity:1; 
stroke-linecap:round; stroke-linejoin:round;">
<circle cx="37804.7" cy="21566.9" r="474.016" /> 
</g>
<g style="fill:#000000; fill-opacity:1.0; 
stroke:#000000; stroke-width:39.3701; stroke-opacity:1; 
stroke-linecap:round; stroke-linejoin:round;">
</g>
<g style="fill:#000000; fill-opacity:1.0; 
stroke:#000000; stroke-width:0; stroke-opacity:1; 
stroke-linecap:round; stroke-linejoin:round;">
<circle cx="36804.7" cy="21566.9" r="474.016" /> 
</g>
<g style="fill:#000000; fill-opacity:1.0; 
stroke:#000000; stroke-width:39.3701; stroke-opacity:1; 
stroke-linecap:round; stroke-linejoin:round;">
</g>
<g style="fill:#000000; fill-opacity:1.0; 
stroke:#000000; stroke-width:0; stroke-opacity:1; 
stroke-linecap:round; stroke-linejoin:round;">
<circle cx="35804.7" cy="21566.9" r="474.016" /> 
</g>
<g style="fill:#000000; fill-opacity:1.0; 
stroke:#000000; stroke-width:39.3701; stroke-opacity:1; 
stroke-linecap:round; stroke-linejoin:round;">
</g>
<g style="fill:#000000; fill-opacity:1.0; 
stroke:#000000; stroke-width:0; stroke-opacity:1; 
stroke-linecap:round; stroke-linejoin:round;">
<circle cx="35804.7" cy="27566.9" r="474.016" /> 
</g>
<g style="fill:#000000; fill-opacity:1.0; 
stroke:#000000; stroke-width:39.3701; stroke-opacity:1; 
stroke-linecap:round; stroke-linejoin:round;">
</g>
<g style="fill:#000000; fill-opacity:1.0; 
stroke:#000000; stroke-width:869; stroke-opacity:1; 
stroke-linecap:round; stroke-linejoin:round;">
</g>
<g style="fill:#000000; fill-opacity:0.0; 
stroke:#000000; stroke-width:869; stroke-opacity:1; 
stroke-linecap:round; stroke-linejoin:round;">
<path d="M29725 33324
L30434 33324
" />
<path d="M29725 34324
L30434 34324
" />
<path d="M29725 32324
L30434 32324
" />
<path d="M27625 37774
L28334 37774
" />
<path d="M27625 38774
L28334 38774
" />
<path d="M27625 36774
L28334 36774
" />
<path d="M48979 39728
L48979 39019
" />
<path d="M49979 39728
L49979 39019
" />
<path d="M47979 39728
L47979 39019
" />
</g>
<g style="fill:#000000; fill-opacity:0.0; 
stroke:#000000; stroke-width:0; stroke-opacity:1; 
stroke-linecap:round; stroke-linejoin:round;">
</g>
<g style="fill:#000000; fill-opacity:1.0; 
stroke:#000000; stroke-width:0; stroke-opacity:1; 
stroke-linecap:round; stroke-linejoin:round;">
<polyline style="fill-rule:evenodd;"
points="54058,32962
52901,32962
52901,31829
54058,31829
54058,32962
" /> 
<polyline style="fill-rule:evenodd;"
points="54058,35419
52901,35419
52901,34286
54058,34286
54058,35419
" /> 
<polyline style="fill-rule:evenodd;"
points="57192,33162
55366,33162
55366,32029
57192,32029
57192,33162
" /> 
<polyline style="fill-rule:evenodd;"
points="57192,35619
55366,35619
55366,34486
57192,34486
57192,35619
" /> 
<polyline style="fill-rule:evenodd;"
points="50448,37456
50448,37892
49637,37892
49637,37456
50448,37456
" /> 
<polyline style="fill-rule:evenodd;"
points="50448,36956
50448,37392
49637,37392
49637,36956
50448,36956
" /> 
<polyline style="fill-rule:evenodd;"
points="50448,36456
50448,36892
49637,36892
49637,36456
50448,36456
" /> 
<polyline style="fill-rule:evenodd;"
points="50448,35956
50448,36392
49637,36392
49637,35956
50448,35956
" /> 
<polyline style="fill-rule:evenodd;"
points="48322,35956
48322,36392
47511,36392
47511,35956
48322,35956
" /> 
<polyline style="fill-rule:evenodd;"
points="48322,36456
48322,36892
47511,36892
47511,36456
48322,36456
" /> 
<polyline style="fill-rule:evenodd;"
points="48322,36956
48322,37392
47511,37392
47511,36956
48322,36956
" /> 
<polyline style="fill-rule:evenodd;"
points="48322,37456
48322,37892
47511,37892
47511,37456
48322,37456
" /> 
<polyline style="fill-rule:evenodd;"
points="41605,34329
41605,35001
41248,35001
41248,34329
41605,34329
" /> 
<polyline style="fill-rule:evenodd;"
points="41350,34329
41350,35001
40992,35001
40992,34329
41350,34329
" /> 
<polyline style="fill-rule:evenodd;"
points="41094,34329
41094,35001
40736,35001
40736,34329
41094,34329
" /> 
<polyline style="fill-rule:evenodd;"
points="40838,34329
40838,35001
40480,35001
40480,34329
40838,34329
" /> 
<polyline style="fill-rule:evenodd;"
points="40838,35982
40838,36655
40480,36655
40480,35982
40838,35982
" /> 
<polyline style="fill-rule:evenodd;"
points="41094,35982
41094,36655
40736,36655
40736,35982
41094,35982
" /> 
<polyline style="fill-rule:evenodd;"
points="41350,35982
41350,36655
40992,36655
40992,35982
41350,35982
" /> 
<polyline style="fill-rule:evenodd;"
points="41605,35982
41605,36655
41248,36655
41248,35982
41605,35982
" /> 
<polyline style="fill-rule:evenodd;"
points="42006,39391
42006,38246
43781,38246
43781,39391
42006,39391
" /> 
<polyline style="fill-rule:evenodd;"
points="38856,39391
38856,38246
40631,38246
40631,39391
38856,39391
" /> 
<polyline style="fill-rule:evenodd;"
points="27119,31874
26239,31874
26239,30874
27119,30874
27119,31874
" /> 
</g>
<g style="fill:#000000; fill-opacity:1.0; 
stroke:#000000; stroke-width:880; stroke-opacity:1; 
stroke-linecap:round; stroke-linejoin:round;">
</g>
<g style="fill:#000000; fill-opacity:0.0; 
stroke:#000000; stroke-width:880; stroke-opacity:1; 
stroke-linecap:round; stroke-linejoin:round;">
<path d="M27679 31434
L27679 31314
" />
<path d="M28679 31434
L28679 31314
" />
</g>
<g style="fill:#000000; fill-opacity:0.0; 
stroke:#000000; stroke-width:0; stroke-opacity:1; 
stroke-linecap:round; stroke-linejoin:round;">
</g>
<g style="fill:#000000; fill-opacity:1.0; 
stroke:#000000; stroke-width:0; stroke-opacity:1; 
stroke-linecap:round; stroke-linejoin:round;">
<polyline style="fill-rule:evenodd;"
points="25925,36745
26834,36745
26834,37929
25925,37929
25925,36745
" /> 
<polyline style="fill-rule:evenodd;"
points="25925,38319
26834,38319
26834,39503
25925,39503
25925,38319
" /> 
<polyline style="fill-rule:evenodd;"
points="32025,36445
32934,36445
32934,37629
32025,37629
32025,36445
" /> 
<polyline style="fill-rule:evenodd;"
points="32025,38019
32934,38019
32934,39203
32025,39203
32025,38019
" /> 
<circle cx="28363.9" cy="33724.4" r="493.5" /> 
</g>
<g style="fill:#000000; fill-opacity:1.0; 
stroke:#000000; stroke-width:39.3701; stroke-opacity:1; 
stroke-linecap:round; stroke-linejoin:round;">
</g>
<g style="fill:#000000; fill-opacity:1.0; 
stroke:#000000; stroke-width:0; stroke-opacity:1; 
stroke-linecap:round; stroke-linejoin:round;">
<circle cx="26394.9" cy="33724.4" r="493.5" /> 
</g>
<g style="fill:#000000; fill-opacity:1.0; 
stroke:#000000; stroke-width:39.3701; stroke-opacity:1; 
stroke-linecap:round; stroke-linejoin:round;">
</g>
<g style="fill:#000000; fill-opacity:1.0; 
stroke:#000000; stroke-width:0; stroke-opacity:1; 
stroke-linecap:round; stroke-linejoin:round;">
<polyline style="fill-rule:evenodd;"
points="29729,36999
29729,36349
30129,36349
30129,36999
29729,36999
" /> 
<polyline style="fill-rule:evenodd;"
points="30229,36999
30229,36349
30629,36349
30629,36999
30229,36999
" /> 
<polyline style="fill-rule:evenodd;"
points="30729,36999
30729,36349
31129,36349
31129,36999
30729,36999
" /> 
<polyline style="fill-rule:evenodd;"
points="31229,36999
31229,36349
31629,36349
31629,36999
31229,36999
" /> 
<polyline style="fill-rule:evenodd;"
points="31229,39499
31229,38849
31629,38849
31629,39499
31229,39499
" /> 
<polyline style="fill-rule:evenodd;"
points="30729,39499
30729,38849
31129,38849
31129,39499
30729,39499
" /> 
<polyline style="fill-rule:evenodd;"
points="30229,39499
30229,38849
30629,38849
30629,39499
30229,39499
" /> 
<polyline style="fill-rule:evenodd;"
points="29729,39499
29729,38849
30129,38849
30129,39499
29729,39499
" /> 
<polyline style="fill-rule:evenodd;"
points="30296,22793
30296,23485
29703,23485
29703,22793
30296,22793
" /> 
<polyline style="fill-rule:evenodd;"
points="29509,22793
29509,23485
28915,23485
28915,22793
29509,22793
" /> 
<polyline style="fill-rule:evenodd;"
points="53325,29952
53325,29260
53918,29260
53918,29952
53325,29952
" /> 
<polyline style="fill-rule:evenodd;"
points="54112,29952
54112,29260
54706,29260
54706,29952
54112,29952
" /> 
<polyline style="fill-rule:evenodd;"
points="56241,29260
56241,29952
55648,29952
55648,29260
56241,29260
" /> 
<polyline style="fill-rule:evenodd;"
points="55454,29260
55454,29952
54860,29952
54860,29260
55454,29260
" /> 
<polyline style="fill-rule:evenodd;"
points="29614,21514
30306,21514
30306,22107
29614,22107
29614,21514
" /> 
<polyline style="fill-rule:evenodd;"
points="29614,22301
30306,22301
30306,22895
29614,22895
29614,22301
" /> 
<polyline style="fill-rule:evenodd;"
points="29340,24988
29340,25680
28746,25680
28746,24988
29340,24988
" /> 
<polyline style="fill-rule:evenodd;"
points="28552,24988
28552,25680
27959,25680
27959,24988
28552,24988
" /> 
<polyline style="fill-rule:evenodd;"
points="30227,25178
29535,25178
29535,24585
30227,24585
30227,25178
" /> 
<polyline style="fill-rule:evenodd;"
points="30227,24391
29535,24391
29535,23797
30227,23797
30227,24391
" /> 
<polyline style="fill-rule:evenodd;"
points="27380,21625
27380,20933
27974,20933
27974,21625
27380,21625
" /> 
<polyline style="fill-rule:evenodd;"
points="28167,21625
28167,20933
28761,20933
28761,21625
28167,21625
" /> 
<polyline style="fill-rule:evenodd;"
points="29340,25764
29340,26456
28746,26456
28746,25764
29340,25764
" /> 
<polyline style="fill-rule:evenodd;"
points="28552,25764
28552,26456
27959,26456
27959,25764
28552,25764
" /> 
<polyline style="fill-rule:evenodd;"
points="27959,27716
27959,27024
28552,27024
28552,27716
27959,27716
" /> 
<polyline style="fill-rule:evenodd;"
points="28746,27716
28746,27024
29340,27024
29340,27716
28746,27716
" /> 
<polyline style="fill-rule:evenodd;"
points="27380,20995
27380,20303
27974,20303
27974,20995
27380,20995
" /> 
<polyline style="fill-rule:evenodd;"
points="28167,20995
28167,20303
28761,20303
28761,20995
28167,20995
" /> 
<polyline style="fill-rule:evenodd;"
points="31120,22009
31120,21297
31596,21297
31596,22009
31120,22009
" /> 
<polyline style="fill-rule:evenodd;"
points="31868,22009
31868,21297
32344,21297
32344,22009
31868,22009
" /> 
<polyline style="fill-rule:evenodd;"
points="28049,24391
28049,23679
28525,23679
28525,24391
28049,24391
" /> 
<polyline style="fill-rule:evenodd;"
points="28797,24391
28797,23679
29273,23679
29273,24391
28797,24391
" /> 
<polyline style="fill-rule:evenodd;"
points="29273,24309
29273,25021
28797,25021
28797,24309
29273,24309
" /> 
<polyline style="fill-rule:evenodd;"
points="28525,24309
28525,25021
28049,25021
28049,24309
28525,24309
" /> 
<polyline style="fill-rule:evenodd;"
points="29014,21553
29725,21553
29725,22029
29014,22029
29014,21553
" /> 
<polyline style="fill-rule:evenodd;"
points="29014,22301
29725,22301
29725,22777
29014,22777
29014,22301
" /> 
<polyline style="fill-rule:evenodd;"
points="53955,24804
53955,24092
54430,24092
54430,24804
53955,24804
" /> 
<polyline style="fill-rule:evenodd;"
points="54703,24804
54703,24092
55178,24092
55178,24804
54703,24804
" /> 
<polyline style="fill-rule:evenodd;"
points="55962,25080
55962,24368
56438,24368
56438,25080
55962,25080
" /> 
<polyline style="fill-rule:evenodd;"
points="56711,25080
56711,24368
57186,24368
57186,25080
56711,25080
" /> 
<polyline style="fill-rule:evenodd;"
points="29300,26384
29300,27096
28825,27096
28825,26384
29300,26384
" /> 
<polyline style="fill-rule:evenodd;"
points="28552,26384
28552,27096
28077,27096
28077,26384
28552,26384
" /> 
<polyline style="fill-rule:evenodd;"
points="30285,20136
30285,20848
29809,20848
29809,20136
30285,20136
" /> 
<polyline style="fill-rule:evenodd;"
points="29537,20136
29537,20848
29061,20848
29061,20136
29537,20136
" /> 
<polyline style="fill-rule:evenodd;"
points="28049,28407
28049,27695
28525,27695
28525,28407
28049,28407
" /> 
<polyline style="fill-rule:evenodd;"
points="28797,28407
28797,27695
29273,27695
29273,28407
28797,28407
" /> 
<polyline style="fill-rule:evenodd;"
points="30934,21615
30222,21615
30222,21140
30934,21140
30934,21615
" /> 
<polyline style="fill-rule:evenodd;"
points="30934,20867
30222,20867
30222,20392
30934,20392
30934,20867
" /> 
<polyline style="fill-rule:evenodd;"
points="57451,25165
57451,26165
56651,26165
56651,25165
57451,25165
" /> 
<polyline style="fill-rule:evenodd;"
points="56451,25165
56451,26165
55651,26165
55651,25165
56451,25165
" /> 
<polyline style="fill-rule:evenodd;"
points="55451,25165
55451,26165
54651,26165
54651,25165
55451,25165
" /> 
<polyline style="fill-rule:evenodd;"
points="54451,25165
54451,26165
53651,26165
53651,25165
54451,25165
" /> 
<polyline style="fill-rule:evenodd;"
points="54451,28165
54451,29165
53651,29165
53651,28165
54451,28165
" /> 
<polyline style="fill-rule:evenodd;"
points="55451,28165
55451,29165
54651,29165
54651,28165
55451,28165
" /> 
<polyline style="fill-rule:evenodd;"
points="56451,28165
56451,29165
55651,29165
55651,28165
56451,28165
" /> 
<polyline style="fill-rule:evenodd;"
points="57451,28165
57451,29165
56651,29165
56651,28165
57451,28165
" /> 
<polyline style="fill-rule:evenodd;"
points="51740,34033
52432,34033
52432,34627
51740,34627
51740,34033
" /> 
<polyline style="fill-rule:evenodd;"
points="51740,34821
52432,34821
52432,35414
51740,35414
51740,34821
" /> 
<polyline style="fill-rule:evenodd;"
points="31970,39578
31970,40270
31376,40270
31376,39578
31970,39578
" /> 
<polyline style="fill-rule:evenodd;"
points="31183,39578
31183,40270
30589,40270
30589,39578
31183,39578
" /> 
<polyline style="fill-rule:evenodd;"
points="47425,36414
46733,36414
46733,35821
47425,35821
47425,36414
" /> 
<polyline style="fill-rule:evenodd;"
points="47425,35627
46733,35627
46733,35033
47425,35033
47425,35627
" /> 
<polyline style="fill-rule:evenodd;"
points="52620,32478
52620,33170
52026,33170
52026,32478
52620,32478
" /> 
<polyline style="fill-rule:evenodd;"
points="51833,32478
51833,33170
51239,33170
51239,32478
51833,32478
" /> 
<polyline style="fill-rule:evenodd;"
points="54447,20333
55159,20333
55159,20808
54447,20808
54447,20333
" /> 
<polyline style="fill-rule:evenodd;"
points="54447,21081
55159,21081
55159,21556
54447,21556
54447,21081
" /> 
<polyline style="fill-rule:evenodd;"
points="56258,20333
56970,20333
56970,20808
56258,20808
56258,20333
" /> 
<polyline style="fill-rule:evenodd;"
points="56258,21081
56970,21081
56970,21556
56258,21556
56258,21081
" /> 
<polyline style="fill-rule:evenodd;"
points="51318,33980
51318,33268
51793,33268
51793,33980
51318,33980
" /> 
<polyline style="fill-rule:evenodd;"
points="52066,33980
52066,33268
52541,33268
52541,33980
52066,33980
" /> 
<polyline style="fill-rule:evenodd;"
points="42557,31868
43269,31868
43269,32344
42557,32344
42557,31868
" /> 
<polyline style="fill-rule:evenodd;"
points="42557,32616
43269,32616
43269,33092
42557,33092
42557,32616
" /> 
<polyline style="fill-rule:evenodd;"
points="42954,34821
42954,35533
42478,35533
42478,34821
42954,34821
" /> 
<polyline style="fill-rule:evenodd;"
points="42206,34821
42206,35533
41730,35533
41730,34821
42206,34821
" /> 
<polyline style="fill-rule:evenodd;"
points="41730,36261
41730,35549
42206,35549
42206,36261
41730,36261
" /> 
<polyline style="fill-rule:evenodd;"
points="42478,36261
42478,35549
42954,35549
42954,36261
42478,36261
" /> 
<polyline style="fill-rule:evenodd;"
points="39230,36664
39230,35953
39706,35953
39706,36664
39230,36664
" /> 
<polyline style="fill-rule:evenodd;"
points="39978,36664
39978,35953
40454,35953
40454,36664
39978,36664
" /> 
<polyline style="fill-rule:evenodd;"
points="39624,34662
40335,34662
40335,35138
39624,35138
39624,34662
" /> 
<polyline style="fill-rule:evenodd;"
points="39624,35410
40335,35410
40335,35886
39624,35886
39624,35410
" /> 
<polyline style="fill-rule:evenodd;"
points="29868,35980
29868,35268
30343,35268
30343,35980
29868,35980
" /> 
<polyline style="fill-rule:evenodd;"
points="30616,35980
30616,35268
31091,35268
31091,35980
30616,35980
" /> 
<polyline style="fill-rule:evenodd;"
points="45064,36972
44195,36972
44195,36418
45064,36418
45064,36972
" /> 
<polyline style="fill-rule:evenodd;"
points="45064,35830
44195,35830
44195,35276
45064,35276
45064,35830
" /> 
<polyline style="fill-rule:evenodd;"
points="42478,33010
43348,33010
43348,33564
42478,33564
42478,33010
" /> 
<polyline style="fill-rule:evenodd;"
points="42478,34151
43348,34151
43348,34706
42478,34706
42478,34151
" /> 
<polyline style="fill-rule:evenodd;"
points="46659,36991
45200,36991
45200,36398
46659,36398
46659,36991
" /> 
<polyline style="fill-rule:evenodd;"
points="46659,34550
45200,34550
45200,33957
46659,33957
46659,34550
" /> 
<polyline style="fill-rule:evenodd;"
points="32272,34311
31087,34311
31087,33718
32272,33718
32272,34311
" /> 
<polyline style="fill-rule:evenodd;"
points="32272,33130
31087,33130
31087,32537
32272,32537
32272,33130
" /> 
<polyline style="fill-rule:evenodd;"
points="51328,39694
51328,37564
52709,37564
52709,39694
51328,39694
" /> 
<polyline style="fill-rule:evenodd;"
points="54950,39772
54950,37643
56331,37643
56331,39772
54950,39772
" /> 
<polyline style="fill-rule:evenodd;"
points="45363,38394
45363,37210
46862,37210
46862,38394
45363,38394
" /> 
<polyline style="fill-rule:evenodd;"
points="45363,41072
45363,39888
46862,39888
46862,41072
45363,41072
" /> 
<polyline style="fill-rule:evenodd;"
points="49949,35416
49069,35416
49069,35036
49949,35036
49949,35416
" /> 
<polyline style="fill-rule:evenodd;"
points="49949,35160
49069,35160
49069,34780
49949,34780
49949,35160
" /> 
<polyline style="fill-rule:evenodd;"
points="49949,34904
49069,34904
49069,34524
49949,34524
49949,34904
" /> 
<polyline style="fill-rule:evenodd;"
points="49949,34648
49069,34648
49069,34268
49949,34268
49949,34648
" /> 
<polyline style="fill-rule:evenodd;"
points="49119,34648
48239,34648
48239,34268
49119,34268
49119,34648
" /> 
<polyline style="fill-rule:evenodd;"
points="49119,34904
48239,34904
48239,34524
49119,34524
49119,34904
" /> 
<polyline style="fill-rule:evenodd;"
points="49119,35160
48239,35160
48239,34780
49119,34780
49119,35160
" /> 
<polyline style="fill-rule:evenodd;"
points="49119,35416
48239,35416
48239,35036
49119,35036
49119,35416
" /> 
<polyline style="fill-rule:evenodd;"
points="26078,22912
26078,22032
27078,22032
27078,22912
26078,22912
" /> 
</g>
<g style="fill:#000000; fill-opacity:1.0; 
stroke:#000000; stroke-width:880; stroke-opacity:1; 
stroke-linecap:round; stroke-linejoin:round;">
</g>
<g style="fill:#000000; fill-opacity:0.0; 
stroke:#000000; stroke-width:880; stroke-opacity:1; 
stroke-linecap:round; stroke-linejoin:round;">
<path d="M26518 23472
L26638 23472
" />
<path d="M26518 24472
L26638 24472
" />
<path d="M26518 25472
L26638 25472
" />
</g>
<g style="fill:#000000; fill-opacity:0.0; 
stroke:#000000; stroke-width:0; stroke-opacity:1; 
stroke-linecap:round; stroke-linejoin:round;">
</g>
<g style="fill:#000000; fill-opacity:1.0; 
stroke:#000000; stroke-width:0; stroke-opacity:1; 
stroke-linecap:round; stroke-linejoin:round;">
<polyline style="fill-rule:evenodd;"
points="31078,22912
31078,22032
32078,22032
32078,22912
31078,22912
" /> 
</g>
<g style="fill:#000000; fill-opacity:1.0; 
stroke:#000000; stroke-width:880; stroke-opacity:1; 
stroke-linecap:round; stroke-linejoin:round;">
</g>
<g style="fill:#000000; fill-opacity:0.0; 
stroke:#000000; stroke-width:880; stroke-opacity:1; 
stroke-linecap:round; stroke-linejoin:round;">
<path d="M31518 23472
L31638 23472
" />
<path d="M31518 24472
L31638 24472
" />
<path d="M31518 25472
L31638 25472
" />
</g>
<g style="fill:#000000; fill-opacity:0.0; 
stroke:#000000; stroke-width:0; stroke-opacity:1; 
stroke-linecap:round; stroke-linejoin:round;">
</g>
<g style="fill:#000000; fill-opacity:1.0; 
stroke:#000000; stroke-width:0; stroke-opacity:1; 
stroke-linecap:round; stroke-linejoin:round;">
<polyline style="fill-rule:evenodd;"
points="50907,29955
50907,30320
50470,30320
50470,29955
50907,29955
" /> 
<polyline style="fill-rule:evenodd;"
points="50907,29443
50907,29808
50470,29808
50470,29443
50907,29443
" /> 
<polyline style="fill-rule:evenodd;"
points="50159,29955
50159,30320
49722,30320
49722,29955
50159,29955
" /> 
<polyline style="fill-rule:evenodd;"
points="50907,29699
50907,30064
50470,30064
50470,29699
50907,29699
" /> 
<polyline style="fill-rule:evenodd;"
points="50159,29443
50159,29808
49722,29808
49722,29443
50159,29443
" /> 
<polyline style="fill-rule:evenodd;"
points="47578,28538
48228,28538
48228,28938
47578,28938
47578,28538
" /> 
<polyline style="fill-rule:evenodd;"
points="47578,29038
48228,29038
48228,29438
47578,29438
47578,29038
" /> 
<polyline style="fill-rule:evenodd;"
points="47578,29538
48228,29538
48228,29938
47578,29938
47578,29538
" /> 
<polyline style="fill-rule:evenodd;"
points="47578,30038
48228,30038
48228,30438
47578,30438
47578,30038
" /> 
<polyline style="fill-rule:evenodd;"
points="45078,30038
45728,30038
45728,30438
45078,30438
45078,30038
" /> 
<polyline style="fill-rule:evenodd;"
points="45078,29538
45728,29538
45728,29938
45078,29938
45078,29538
" /> 
<polyline style="fill-rule:evenodd;"
points="45078,29038
45728,29038
45728,29438
45078,29438
45078,29038
" /> 
<polyline style="fill-rule:evenodd;"
points="45078,28538
45728,28538
45728,28938
45078,28938
45078,28538
" /> 
<polyline style="fill-rule:evenodd;"
points="44368,28167
45080,28167
45080,28643
44368,28643
44368,28167
" /> 
<polyline style="fill-rule:evenodd;"
points="44368,28915
45080,28915
45080,29391
44368,29391
44368,28915
" /> 
<polyline style="fill-rule:evenodd;"
points="44378,29309
45070,29309
45070,29903
44378,29903
44378,29309
" /> 
<polyline style="fill-rule:evenodd;"
points="44378,30096
45070,30096
45070,30690
44378,30690
44378,30096
" /> 
<polyline style="fill-rule:evenodd;"
points="50470,30451
51182,30451
51182,30926
50470,30926
50470,30451
" /> 
<polyline style="fill-rule:evenodd;"
points="50470,31199
51182,31199
51182,31674
50470,31674
50470,31199
" /> 
<polyline style="fill-rule:evenodd;"
points="44053,37862
44745,37862
44745,38456
44053,38456
44053,37862
" /> 
<polyline style="fill-rule:evenodd;"
points="44053,38650
44745,38650
44745,39243
44053,39243
44053,38650
" /> 
<polyline style="fill-rule:evenodd;"
points="32481,20746
32481,21261
31927,21261
31927,20746
32481,20746
" /> 
<polyline style="fill-rule:evenodd;"
points="32481,19998
32481,20513
31927,20513
31927,19998
32481,19998
" /> 
<polyline style="fill-rule:evenodd;"
points="31694,20372
31694,20887
31140,20887
31140,20372
31694,20372
" /> 
<polyline style="fill-rule:evenodd;"
points="52329,11182
52329,10532
52819,10532
52819,11182
52329,11182
" /> 
<polyline style="fill-rule:evenodd;"
points="52329,11782
52329,11132
52819,11132
52819,11782
52329,11782
" /> 
<polyline style="fill-rule:evenodd;"
points="51829,11182
51829,10532
52319,10532
52319,11182
51829,11182
" /> 
<polyline style="fill-rule:evenodd;"
points="51829,11782
51829,11132
52319,11132
52319,11782
51829,11782
" /> 
<polyline style="fill-rule:evenodd;"
points="51329,11182
51329,10532
51819,10532
51819,11182
51329,11182
" /> 
<polyline style="fill-rule:evenodd;"
points="51329,11782
51329,11132
51819,11132
51819,11782
51329,11782
" /> 
<polyline style="fill-rule:evenodd;"
points="50829,11182
50829,10532
51319,10532
51319,11182
50829,11182
" /> 
<polyline style="fill-rule:evenodd;"
points="50829,11782
50829,11132
51319,11132
51319,11782
50829,11782
" /> 
<polyline style="fill-rule:evenodd;"
points="50329,11182
50329,10532
50819,10532
50819,11182
50329,11182
" /> 
<polyline style="fill-rule:evenodd;"
points="50329,11782
50329,11132
50819,11132
50819,11782
50329,11782
" /> 
<circle cx="53594.8" cy="8847.72" r="350" /> 
</g>
<g style="fill:#000000; fill-opacity:1.0; 
stroke:#000000; stroke-width:39.3701; stroke-opacity:1; 
stroke-linecap:round; stroke-linejoin:round;">
</g>
<g style="fill:#000000; fill-opacity:1.0; 
stroke:#000000; stroke-width:0; stroke-opacity:1; 
stroke-linecap:round; stroke-linejoin:round;">
<circle cx="49554.8" cy="8847.72" r="350" /> 
</g>
<g style="fill:#000000; fill-opacity:1.0; 
stroke:#000000; stroke-width:39.3701; stroke-opacity:1; 
stroke-linecap:round; stroke-linejoin:round;">
</g>
<g style="fill:#000000; fill-opacity:1.0; 
stroke:#000000; stroke-width:0; stroke-opacity:1; 
stroke-linecap:round; stroke-linejoin:round;">
<circle cx="53594.8" cy="9737.72" r="350" /> 
</g>
<g style="fill:#000000; fill-opacity:1.0; 
stroke:#000000; stroke-width:39.3701; stroke-opacity:1; 
stroke-linecap:round; stroke-linejoin:round;">
</g>
<g style="fill:#000000; fill-opacity:1.0; 
stroke:#000000; stroke-width:0; stroke-opacity:1; 
stroke-linecap:round; stroke-linejoin:round;">
<circle cx="49554.8" cy="9737.72" r="350" /> 
</g>
<g style="fill:#000000; fill-opacity:1.0; 
stroke:#000000; stroke-width:39.3701; stroke-opacity:1; 
stroke-linecap:round; stroke-linejoin:round;">
</g>
<g style="fill:#000000; fill-opacity:1.0; 
stroke:#000000; stroke-width:0; stroke-opacity:1; 
stroke-linecap:round; stroke-linejoin:round;">
<polyline style="fill-rule:evenodd;"
points="51094,38662
50382,38662
50382,38187
51094,38187
51094,38662
" /> 
<polyline style="fill-rule:evenodd;"
points="51094,37914
50382,37914
50382,37439
51094,37439
51094,37914
" /> 
<polyline style="fill-rule:evenodd;"
points="44043,39722
44755,39722
44755,40198
44043,40198
44043,39722
" /> 
<polyline style="fill-rule:evenodd;"
points="44043,40470
44755,40470
44755,40946
44043,40946
44043,40470
" /> 
<polyline style="fill-rule:evenodd;"
points="40441,29073
41133,29073
41133,29666
40441,29666
40441,29073
" /> 
<polyline style="fill-rule:evenodd;"
points="40441,29860
41133,29860
41133,30454
40441,30454
40441,29860
" /> 
<polyline style="fill-rule:evenodd;"
points="42157,30454
41464,30454
41464,29860
42157,29860
42157,30454
" /> 
<polyline style="fill-rule:evenodd;"
points="42157,29666
41464,29666
41464,29073
42157,29073
42157,29666
" /> 
<polyline style="fill-rule:evenodd;"
points="40096,21133
40096,20441
40690,20441
40690,21133
40096,21133
" /> 
<polyline style="fill-rule:evenodd;"
points="40884,21133
40884,20441
41477,20441
41477,21133
40884,21133
" /> 
<polyline style="fill-rule:evenodd;"
points="40096,20464
40096,19772
40690,19772
40690,20464
40096,20464
" /> 
<polyline style="fill-rule:evenodd;"
points="40884,20464
40884,19772
41477,19772
41477,20464
40884,20464
" /> 
<polyline style="fill-rule:evenodd;"
points="48397,33328
47705,33328
47705,32734
48397,32734
48397,33328
" /> 
<polyline style="fill-rule:evenodd;"
points="48397,32540
47705,32540
47705,31947
48397,31947
48397,32540
" /> 
<polyline style="fill-rule:evenodd;"
points="49781,31947
50474,31947
50474,32540
49781,32540
49781,31947
" /> 
<polyline style="fill-rule:evenodd;"
points="49781,32734
50474,32734
50474,33328
49781,33328
49781,32734
" /> 
<polyline style="fill-rule:evenodd;"
points="55067,15421
56743,15421
56743,16625
55067,16625
55067,15421
" /> 
<polyline style="fill-rule:evenodd;"
points="55067,17547
56743,17547
56743,18751
55067,18751
55067,17547
" /> 
<polyline style="fill-rule:evenodd;"
points="55070,17422
54378,17422
54378,16829
55070,16829
55070,17422
" /> 
<polyline style="fill-rule:evenodd;"
points="55070,16635
54378,16635
54378,16041
55070,16041
55070,16635
" /> 
<polyline style="fill-rule:evenodd;"
points="54283,17422
53590,17422
53590,16829
54283,16829
54283,17422
" /> 
<polyline style="fill-rule:evenodd;"
points="54283,16635
53590,16635
53590,16041
54283,16041
54283,16635
" /> 
<polyline style="fill-rule:evenodd;"
points="40470,27931
41182,27931
41182,28407
40470,28407
40470,27931
" /> 
<polyline style="fill-rule:evenodd;"
points="40470,28679
41182,28679
41182,29155
40470,29155
40470,28679
" /> 
<polyline style="fill-rule:evenodd;"
points="41455,27931
42166,27931
42166,28407
41455,28407
41455,27931
" /> 
<polyline style="fill-rule:evenodd;"
points="41455,28679
42166,28679
42166,29155
41455,29155
41455,28679
" /> 
<polyline style="fill-rule:evenodd;"
points="48315,33108
49027,33108
49027,33584
48315,33584
48315,33108
" /> 
<polyline style="fill-rule:evenodd;"
points="48315,33856
49027,33856
49027,34332
48315,34332
48315,33856
" /> 
<polyline style="fill-rule:evenodd;"
points="49151,33108
49863,33108
49863,33584
49151,33584
49151,33108
" /> 
<polyline style="fill-rule:evenodd;"
points="49151,33856
49863,33856
49863,34332
49151,34332
49151,33856
" /> 
<polyline style="fill-rule:evenodd;"
points="48315,31986
49027,31986
49027,32462
48315,32462
48315,31986
" /> 
<polyline style="fill-rule:evenodd;"
points="48315,32734
49027,32734
49027,33210
48315,33210
48315,32734
" /> 
<polyline style="fill-rule:evenodd;"
points="49151,31986
49863,31986
49863,32462
49151,32462
49151,31986
" /> 
<polyline style="fill-rule:evenodd;"
points="49151,32734
49863,32734
49863,33210
49151,33210
49151,32734
" /> 
<polyline style="fill-rule:evenodd;"
points="30923,35050
30923,34338
31399,34338
31399,35050
30923,35050
" /> 
<polyline style="fill-rule:evenodd;"
points="31671,35050
31671,34338
32147,34338
32147,35050
31671,35050
" /> 
<circle cx="56692.9" cy="9842.52" r="900" /> 
</g>
<g style="fill:#000000; fill-opacity:1.0; 
stroke:#000000; stroke-width:39.3701; stroke-opacity:1; 
stroke-linecap:round; stroke-linejoin:round;">
</g>
<g style="fill:#000000; fill-opacity:1.0; 
stroke:#000000; stroke-width:0; stroke-opacity:1; 
stroke-linecap:round; stroke-linejoin:round;">
<circle cx="26771.7" cy="42913.4" r="900" /> 
</g>
<g style="fill:#000000; fill-opacity:1.0; 
stroke:#000000; stroke-width:39.3701; stroke-opacity:1; 
stroke-linecap:round; stroke-linejoin:round;">
</g>
<g style="fill:#000000; fill-opacity:1.0; 
stroke:#000000; stroke-width:0; stroke-opacity:1; 
stroke-linecap:round; stroke-linejoin:round;">
<circle cx="56692.9" cy="42913.4" r="900" /> 
</g>
<g style="fill:#000000; fill-opacity:1.0; 
stroke:#000000; stroke-width:39.3701; stroke-opacity:1; 
stroke-linecap:round; stroke-linejoin:round;">
</g>
<g style="fill:#000000; fill-opacity:1.0; 
stroke:#000000; stroke-width:0; stroke-opacity:1; 
stroke-linecap:round; stroke-linejoin:round;">
<polyline style="fill-rule:evenodd;"
points="52186,17212
52186,17905
51592,17905
51592,17212
52186,17212
" /> 
<polyline style="fill-rule:evenodd;"
points="51399,17212
51399,17905
50805,17905
50805,17212
51399,17212
" /> 
<polyline style="fill-rule:evenodd;"
points="52685,16041
53377,16041
53377,16635
52685,16635
52685,16041
" /> 
<polyline style="fill-rule:evenodd;"
points="52685,16829
53377,16829
53377,17422
52685,17422
52685,16829
" /> 
<polyline style="fill-rule:evenodd;"
points="52718,17344
52006,17344
52006,16868
52718,16868
52718,17344
" /> 
<polyline style="fill-rule:evenodd;"
points="52718,16596
52006,16596
52006,16120
52718,16120
52718,16596
" /> 
<polyline style="fill-rule:evenodd;"
points="38800,20352
38800,21064
38325,21064
38325,20352
38800,20352
" /> 
<polyline style="fill-rule:evenodd;"
points="38052,20352
38052,21064
37577,21064
37577,20352
38052,20352
" /> 
<polyline style="fill-rule:evenodd;"
points="18285,24647
18285,23935
18761,23935
18761,24647
18285,24647
" /> 
<polyline style="fill-rule:evenodd;"
points="19033,24647
19033,23935
19509,23935
19509,24647
19033,24647
" /> 
<polyline style="fill-rule:evenodd;"
points="19427,24647
19427,23935
19903,23935
19903,24647
19427,24647
" /> 
<polyline style="fill-rule:evenodd;"
points="20175,24647
20175,23935
20651,23935
20651,24647
20175,24647
" /> 
<polyline style="fill-rule:evenodd;"
points="27867,34732
27867,35916
27273,35916
27273,34732
27867,34732
" /> 
<polyline style="fill-rule:evenodd;"
points="26686,34732
26686,35916
26092,35916
26092,34732
26686,34732
" /> 
<polyline style="fill-rule:evenodd;"
points="19102,22616
19794,22616
19794,23210
19102,23210
19102,22616
" /> 
<polyline style="fill-rule:evenodd;"
points="19102,23403
19794,23403
19794,23997
19102,23997
19102,23403
" /> 
<polyline style="fill-rule:evenodd;"
points="27527,31989
27527,32859
26973,32859
26973,31989
27527,31989
" /> 
<polyline style="fill-rule:evenodd;"
points="26386,31989
26386,32859
25831,32859
25831,31989
26386,31989
" /> 
<polyline style="fill-rule:evenodd;"
points="29450,38977
28738,38977
28738,38502
29450,38502
29450,38977
" /> 
<polyline style="fill-rule:evenodd;"
points="29450,38229
28738,38229
28738,37754
29450,37754
29450,38229
" /> 
<polyline style="fill-rule:evenodd;"
points="14939,33190
14939,32321
15808,32321
15808,33190
14939,33190
" /> 
<circle cx="13287.4" cy="32795.3" r="257.48" /> 
</g>
<g style="fill:#000000; fill-opacity:1.0; 
stroke:#000000; stroke-width:39.3701; stroke-opacity:1; 
stroke-linecap:round; stroke-linejoin:round;">
</g>
<g style="fill:#000000; fill-opacity:1.0; 
stroke:#000000; stroke-width:0; stroke-opacity:1; 
stroke-linecap:round; stroke-linejoin:round;">
<circle cx="13996.1" cy="32795.3" r="257.48" /> 
</g>
<g style="fill:#000000; fill-opacity:1.0; 
stroke:#000000; stroke-width:39.3701; stroke-opacity:1; 
stroke-linecap:round; stroke-linejoin:round;">
</g>
<g style="fill:#000000; fill-opacity:1.0; 
stroke:#000000; stroke-width:0; stroke-opacity:1; 
stroke-linecap:round; stroke-linejoin:round;">
<polyline style="fill-rule:evenodd;"
points="27864,21533
29048,21533
29048,22088
27864,22088
27864,21533
" /> 
<polyline style="fill-rule:evenodd;"
points="27864,22675
29048,22675
29048,23229
27864,23229
27864,22675
" /> 
</g> 
</svg>
