G04 #@! TF.GenerationSoftware,KiCad,Pcbnew,5.1.9+dfsg1-1~bpo10+1*
G04 #@! TF.CreationDate,2021-11-10T17:09:55+00:00*
G04 #@! TF.ProjectId,dropbot_control_board,64726f70-626f-4745-9f63-6f6e74726f6c,v3.6*
G04 #@! TF.SameCoordinates,Original*
G04 #@! TF.FileFunction,Soldermask,Bot*
G04 #@! TF.FilePolarity,Negative*
%FSLAX46Y46*%
G04 Gerber Fmt 4.6, Leading zero omitted, Abs format (unit mm)*
G04 Created by KiCad (PCBNEW 5.1.9+dfsg1-1~bpo10+1) date 2021-11-10 17:09:55*
%MOMM*%
%LPD*%
G01*
G04 APERTURE LIST*
%ADD10C,3.508000*%
%ADD11O,2.235200X2.540000*%
%ADD12O,4.008120X2.207260*%
%ADD13C,2.506980*%
%ADD14C,1.778000*%
%ADD15C,4.572000*%
%ADD16C,1.308000*%
%ADD17C,2.508000*%
%ADD18O,2.208000X2.208000*%
%ADD19O,2.108000X2.108000*%
%ADD20C,2.408000*%
G04 APERTURE END LIST*
D10*
X60570000Y-69900000D03*
X47430000Y-69900000D03*
G36*
G01*
X68630600Y-103821000D02*
X66903400Y-103821000D01*
G75*
G02*
X66649400Y-103567000I0J254000D01*
G01*
X66649400Y-101535000D01*
G75*
G02*
X66903400Y-101281000I254000J0D01*
G01*
X68630600Y-101281000D01*
G75*
G02*
X68884600Y-101535000I0J-254000D01*
G01*
X68884600Y-103567000D01*
G75*
G02*
X68630600Y-103821000I-254000J0D01*
G01*
G37*
D11*
X70307000Y-102551000D03*
X72847000Y-102551000D03*
X75387000Y-102551000D03*
D12*
X76403000Y-84644000D03*
X76403000Y-87184000D03*
X76403000Y-82104000D03*
G36*
G01*
X97667000Y-90398000D02*
X88667000Y-90398000D01*
G75*
G02*
X88413000Y-90144000I0J254000D01*
G01*
X88413000Y-79144000D01*
G75*
G02*
X88667000Y-78890000I254000J0D01*
G01*
X97667000Y-78890000D01*
G75*
G02*
X97921000Y-79144000I0J-254000D01*
G01*
X97921000Y-90144000D01*
G75*
G02*
X97667000Y-90398000I-254000J0D01*
G01*
G37*
X71069000Y-95947000D03*
X71069000Y-98487000D03*
X71069000Y-93407000D03*
G36*
G01*
X92333000Y-101701000D02*
X83333000Y-101701000D01*
G75*
G02*
X83079000Y-101447000I0J254000D01*
G01*
X83079000Y-90447000D01*
G75*
G02*
X83333000Y-90193000I254000J0D01*
G01*
X92333000Y-90193000D01*
G75*
G02*
X92587000Y-90447000I0J-254000D01*
G01*
X92587000Y-101447000D01*
G75*
G02*
X92333000Y-101701000I-254000J0D01*
G01*
G37*
X126000000Y-100600000D03*
X126000000Y-98060000D03*
X126000000Y-103140000D03*
G36*
G01*
X105236000Y-95096000D02*
X111236000Y-95096000D01*
G75*
G02*
X111490000Y-95350000I0J-254000D01*
G01*
X111490000Y-105850000D01*
G75*
G02*
X111236000Y-106104000I-254000J0D01*
G01*
X105236000Y-106104000D01*
G75*
G02*
X104982000Y-105850000I0J254000D01*
G01*
X104982000Y-95350000D01*
G75*
G02*
X105236000Y-95096000I254000J0D01*
G01*
G37*
G36*
G01*
X136274000Y-66206000D02*
X136274000Y-64174000D01*
G75*
G02*
X136528000Y-63920000I254000J0D01*
G01*
X138052000Y-63920000D01*
G75*
G02*
X138306000Y-64174000I0J-254000D01*
G01*
X138306000Y-66206000D01*
G75*
G02*
X138052000Y-66460000I-254000J0D01*
G01*
X136528000Y-66460000D01*
G75*
G02*
X136274000Y-66206000I0J254000D01*
G01*
G37*
G36*
G01*
X138814000Y-66206000D02*
X138814000Y-64174000D01*
G75*
G02*
X139068000Y-63920000I254000J0D01*
G01*
X140592000Y-63920000D01*
G75*
G02*
X140846000Y-64174000I0J-254000D01*
G01*
X140846000Y-66206000D01*
G75*
G02*
X140592000Y-66460000I-254000J0D01*
G01*
X139068000Y-66460000D01*
G75*
G02*
X138814000Y-66206000I0J254000D01*
G01*
G37*
G36*
G01*
X141354000Y-66206000D02*
X141354000Y-64174000D01*
G75*
G02*
X141608000Y-63920000I254000J0D01*
G01*
X143132000Y-63920000D01*
G75*
G02*
X143386000Y-64174000I0J-254000D01*
G01*
X143386000Y-66206000D01*
G75*
G02*
X143132000Y-66460000I-254000J0D01*
G01*
X141608000Y-66460000D01*
G75*
G02*
X141354000Y-66206000I0J254000D01*
G01*
G37*
G36*
G01*
X143894000Y-66206000D02*
X143894000Y-64174000D01*
G75*
G02*
X144148000Y-63920000I254000J0D01*
G01*
X145672000Y-63920000D01*
G75*
G02*
X145926000Y-64174000I0J-254000D01*
G01*
X145926000Y-66206000D01*
G75*
G02*
X145672000Y-66460000I-254000J0D01*
G01*
X144148000Y-66460000D01*
G75*
G02*
X143894000Y-66206000I0J254000D01*
G01*
G37*
G36*
G01*
X143894000Y-73826000D02*
X143894000Y-71794000D01*
G75*
G02*
X144148000Y-71540000I254000J0D01*
G01*
X145672000Y-71540000D01*
G75*
G02*
X145926000Y-71794000I0J-254000D01*
G01*
X145926000Y-73826000D01*
G75*
G02*
X145672000Y-74080000I-254000J0D01*
G01*
X144148000Y-74080000D01*
G75*
G02*
X143894000Y-73826000I0J254000D01*
G01*
G37*
G36*
G01*
X141354000Y-73826000D02*
X141354000Y-71794000D01*
G75*
G02*
X141608000Y-71540000I254000J0D01*
G01*
X143132000Y-71540000D01*
G75*
G02*
X143386000Y-71794000I0J-254000D01*
G01*
X143386000Y-73826000D01*
G75*
G02*
X143132000Y-74080000I-254000J0D01*
G01*
X141608000Y-74080000D01*
G75*
G02*
X141354000Y-73826000I0J254000D01*
G01*
G37*
G36*
G01*
X138814000Y-73826000D02*
X138814000Y-71794000D01*
G75*
G02*
X139068000Y-71540000I254000J0D01*
G01*
X140592000Y-71540000D01*
G75*
G02*
X140846000Y-71794000I0J-254000D01*
G01*
X140846000Y-73826000D01*
G75*
G02*
X140592000Y-74080000I-254000J0D01*
G01*
X139068000Y-74080000D01*
G75*
G02*
X138814000Y-73826000I0J254000D01*
G01*
G37*
G36*
G01*
X136274000Y-73826000D02*
X136274000Y-71794000D01*
G75*
G02*
X136528000Y-71540000I254000J0D01*
G01*
X138052000Y-71540000D01*
G75*
G02*
X138306000Y-71794000I0J-254000D01*
G01*
X138306000Y-73826000D01*
G75*
G02*
X138052000Y-74080000I-254000J0D01*
G01*
X136528000Y-74080000D01*
G75*
G02*
X136274000Y-73826000I0J254000D01*
G01*
G37*
G36*
G01*
X135226000Y-71794000D02*
X135226000Y-73826000D01*
G75*
G02*
X134972000Y-74080000I-254000J0D01*
G01*
X133448000Y-74080000D01*
G75*
G02*
X133194000Y-73826000I0J254000D01*
G01*
X133194000Y-71794000D01*
G75*
G02*
X133448000Y-71540000I254000J0D01*
G01*
X134972000Y-71540000D01*
G75*
G02*
X135226000Y-71794000I0J-254000D01*
G01*
G37*
G36*
G01*
X132686000Y-71794000D02*
X132686000Y-73826000D01*
G75*
G02*
X132432000Y-74080000I-254000J0D01*
G01*
X130908000Y-74080000D01*
G75*
G02*
X130654000Y-73826000I0J254000D01*
G01*
X130654000Y-71794000D01*
G75*
G02*
X130908000Y-71540000I254000J0D01*
G01*
X132432000Y-71540000D01*
G75*
G02*
X132686000Y-71794000I0J-254000D01*
G01*
G37*
G36*
G01*
X130146000Y-71794000D02*
X130146000Y-73826000D01*
G75*
G02*
X129892000Y-74080000I-254000J0D01*
G01*
X128368000Y-74080000D01*
G75*
G02*
X128114000Y-73826000I0J254000D01*
G01*
X128114000Y-71794000D01*
G75*
G02*
X128368000Y-71540000I254000J0D01*
G01*
X129892000Y-71540000D01*
G75*
G02*
X130146000Y-71794000I0J-254000D01*
G01*
G37*
G36*
G01*
X127606000Y-71794000D02*
X127606000Y-73826000D01*
G75*
G02*
X127352000Y-74080000I-254000J0D01*
G01*
X125828000Y-74080000D01*
G75*
G02*
X125574000Y-73826000I0J254000D01*
G01*
X125574000Y-71794000D01*
G75*
G02*
X125828000Y-71540000I254000J0D01*
G01*
X127352000Y-71540000D01*
G75*
G02*
X127606000Y-71794000I0J-254000D01*
G01*
G37*
G36*
G01*
X127606000Y-64174000D02*
X127606000Y-66206000D01*
G75*
G02*
X127352000Y-66460000I-254000J0D01*
G01*
X125828000Y-66460000D01*
G75*
G02*
X125574000Y-66206000I0J254000D01*
G01*
X125574000Y-64174000D01*
G75*
G02*
X125828000Y-63920000I254000J0D01*
G01*
X127352000Y-63920000D01*
G75*
G02*
X127606000Y-64174000I0J-254000D01*
G01*
G37*
G36*
G01*
X130146000Y-64174000D02*
X130146000Y-66206000D01*
G75*
G02*
X129892000Y-66460000I-254000J0D01*
G01*
X128368000Y-66460000D01*
G75*
G02*
X128114000Y-66206000I0J254000D01*
G01*
X128114000Y-64174000D01*
G75*
G02*
X128368000Y-63920000I254000J0D01*
G01*
X129892000Y-63920000D01*
G75*
G02*
X130146000Y-64174000I0J-254000D01*
G01*
G37*
G36*
G01*
X132686000Y-64174000D02*
X132686000Y-66206000D01*
G75*
G02*
X132432000Y-66460000I-254000J0D01*
G01*
X130908000Y-66460000D01*
G75*
G02*
X130654000Y-66206000I0J254000D01*
G01*
X130654000Y-64174000D01*
G75*
G02*
X130908000Y-63920000I254000J0D01*
G01*
X132432000Y-63920000D01*
G75*
G02*
X132686000Y-64174000I0J-254000D01*
G01*
G37*
G36*
G01*
X135226000Y-64174000D02*
X135226000Y-66206000D01*
G75*
G02*
X134972000Y-66460000I-254000J0D01*
G01*
X133448000Y-66460000D01*
G75*
G02*
X133194000Y-66206000I0J254000D01*
G01*
X133194000Y-64174000D01*
G75*
G02*
X133448000Y-63920000I254000J0D01*
G01*
X134972000Y-63920000D01*
G75*
G02*
X135226000Y-64174000I0J-254000D01*
G01*
G37*
G36*
G01*
X68630600Y-80961000D02*
X66903400Y-80961000D01*
G75*
G02*
X66649400Y-80707000I0J254000D01*
G01*
X66649400Y-78675000D01*
G75*
G02*
X66903400Y-78421000I254000J0D01*
G01*
X68630600Y-78421000D01*
G75*
G02*
X68884600Y-78675000I0J-254000D01*
G01*
X68884600Y-80707000D01*
G75*
G02*
X68630600Y-80961000I-254000J0D01*
G01*
G37*
D11*
X70307000Y-79691000D03*
X72847000Y-79691000D03*
D13*
X72044360Y-85660000D03*
X67043100Y-85660000D03*
G36*
G01*
X142446000Y-63550000D02*
X142446000Y-62250000D01*
G75*
G02*
X142700000Y-61996000I254000J0D01*
G01*
X143400000Y-61996000D01*
G75*
G02*
X143654000Y-62250000I0J-254000D01*
G01*
X143654000Y-63550000D01*
G75*
G02*
X143400000Y-63804000I-254000J0D01*
G01*
X142700000Y-63804000D01*
G75*
G02*
X142446000Y-63550000I0J254000D01*
G01*
G37*
G36*
G01*
X144346000Y-63550000D02*
X144346000Y-62250000D01*
G75*
G02*
X144600000Y-61996000I254000J0D01*
G01*
X145300000Y-61996000D01*
G75*
G02*
X145554000Y-62250000I0J-254000D01*
G01*
X145554000Y-63550000D01*
G75*
G02*
X145300000Y-63804000I-254000J0D01*
G01*
X144600000Y-63804000D01*
G75*
G02*
X144346000Y-63550000I0J254000D01*
G01*
G37*
G36*
G01*
X139454000Y-62250000D02*
X139454000Y-63550000D01*
G75*
G02*
X139200000Y-63804000I-254000J0D01*
G01*
X138500000Y-63804000D01*
G75*
G02*
X138246000Y-63550000I0J254000D01*
G01*
X138246000Y-62250000D01*
G75*
G02*
X138500000Y-61996000I254000J0D01*
G01*
X139200000Y-61996000D01*
G75*
G02*
X139454000Y-62250000I0J-254000D01*
G01*
G37*
G36*
G01*
X137554000Y-62250000D02*
X137554000Y-63550000D01*
G75*
G02*
X137300000Y-63804000I-254000J0D01*
G01*
X136600000Y-63804000D01*
G75*
G02*
X136346000Y-63550000I0J254000D01*
G01*
X136346000Y-62250000D01*
G75*
G02*
X136600000Y-61996000I254000J0D01*
G01*
X137300000Y-61996000D01*
G75*
G02*
X137554000Y-62250000I0J-254000D01*
G01*
G37*
G36*
G01*
X136854000Y-76350000D02*
X136854000Y-77650000D01*
G75*
G02*
X136600000Y-77904000I-254000J0D01*
G01*
X135900000Y-77904000D01*
G75*
G02*
X135646000Y-77650000I0J254000D01*
G01*
X135646000Y-76350000D01*
G75*
G02*
X135900000Y-76096000I254000J0D01*
G01*
X136600000Y-76096000D01*
G75*
G02*
X136854000Y-76350000I0J-254000D01*
G01*
G37*
G36*
G01*
X134954000Y-76350000D02*
X134954000Y-77650000D01*
G75*
G02*
X134700000Y-77904000I-254000J0D01*
G01*
X134000000Y-77904000D01*
G75*
G02*
X133746000Y-77650000I0J254000D01*
G01*
X133746000Y-76350000D01*
G75*
G02*
X134000000Y-76096000I254000J0D01*
G01*
X134700000Y-76096000D01*
G75*
G02*
X134954000Y-76350000I0J-254000D01*
G01*
G37*
G36*
G01*
X123946000Y-75850000D02*
X123946000Y-74550000D01*
G75*
G02*
X124200000Y-74296000I254000J0D01*
G01*
X124900000Y-74296000D01*
G75*
G02*
X125154000Y-74550000I0J-254000D01*
G01*
X125154000Y-75850000D01*
G75*
G02*
X124900000Y-76104000I-254000J0D01*
G01*
X124200000Y-76104000D01*
G75*
G02*
X123946000Y-75850000I0J254000D01*
G01*
G37*
G36*
G01*
X125846000Y-75850000D02*
X125846000Y-74550000D01*
G75*
G02*
X126100000Y-74296000I254000J0D01*
G01*
X126800000Y-74296000D01*
G75*
G02*
X127054000Y-74550000I0J-254000D01*
G01*
X127054000Y-75850000D01*
G75*
G02*
X126800000Y-76104000I-254000J0D01*
G01*
X126100000Y-76104000D01*
G75*
G02*
X125846000Y-75850000I0J254000D01*
G01*
G37*
G36*
G01*
X136854000Y-74450000D02*
X136854000Y-75750000D01*
G75*
G02*
X136600000Y-76004000I-254000J0D01*
G01*
X135900000Y-76004000D01*
G75*
G02*
X135646000Y-75750000I0J254000D01*
G01*
X135646000Y-74450000D01*
G75*
G02*
X135900000Y-74196000I254000J0D01*
G01*
X136600000Y-74196000D01*
G75*
G02*
X136854000Y-74450000I0J-254000D01*
G01*
G37*
G36*
G01*
X134954000Y-74450000D02*
X134954000Y-75750000D01*
G75*
G02*
X134700000Y-76004000I-254000J0D01*
G01*
X134000000Y-76004000D01*
G75*
G02*
X133746000Y-75750000I0J254000D01*
G01*
X133746000Y-74450000D01*
G75*
G02*
X134000000Y-74196000I254000J0D01*
G01*
X134700000Y-74196000D01*
G75*
G02*
X134954000Y-74450000I0J-254000D01*
G01*
G37*
G36*
G01*
X121746000Y-93650000D02*
X121746000Y-91950000D01*
G75*
G02*
X122000000Y-91696000I254000J0D01*
G01*
X122900000Y-91696000D01*
G75*
G02*
X123154000Y-91950000I0J-254000D01*
G01*
X123154000Y-93650000D01*
G75*
G02*
X122900000Y-93904000I-254000J0D01*
G01*
X122000000Y-93904000D01*
G75*
G02*
X121746000Y-93650000I0J254000D01*
G01*
G37*
G36*
G01*
X124646000Y-93650000D02*
X124646000Y-91950000D01*
G75*
G02*
X124900000Y-91696000I254000J0D01*
G01*
X125800000Y-91696000D01*
G75*
G02*
X126054000Y-91950000I0J-254000D01*
G01*
X126054000Y-93650000D01*
G75*
G02*
X125800000Y-93904000I-254000J0D01*
G01*
X124900000Y-93904000D01*
G75*
G02*
X124646000Y-93650000I0J254000D01*
G01*
G37*
G36*
G01*
X111550000Y-53854000D02*
X110250000Y-53854000D01*
G75*
G02*
X109996000Y-53600000I0J254000D01*
G01*
X109996000Y-52900000D01*
G75*
G02*
X110250000Y-52646000I254000J0D01*
G01*
X111550000Y-52646000D01*
G75*
G02*
X111804000Y-52900000I0J-254000D01*
G01*
X111804000Y-53600000D01*
G75*
G02*
X111550000Y-53854000I-254000J0D01*
G01*
G37*
G36*
G01*
X111550000Y-51954000D02*
X110250000Y-51954000D01*
G75*
G02*
X109996000Y-51700000I0J254000D01*
G01*
X109996000Y-51000000D01*
G75*
G02*
X110250000Y-50746000I254000J0D01*
G01*
X111550000Y-50746000D01*
G75*
G02*
X111804000Y-51000000I0J-254000D01*
G01*
X111804000Y-51700000D01*
G75*
G02*
X111550000Y-51954000I-254000J0D01*
G01*
G37*
G36*
G01*
X106650000Y-53854000D02*
X105350000Y-53854000D01*
G75*
G02*
X105096000Y-53600000I0J254000D01*
G01*
X105096000Y-52900000D01*
G75*
G02*
X105350000Y-52646000I254000J0D01*
G01*
X106650000Y-52646000D01*
G75*
G02*
X106904000Y-52900000I0J-254000D01*
G01*
X106904000Y-53600000D01*
G75*
G02*
X106650000Y-53854000I-254000J0D01*
G01*
G37*
G36*
G01*
X106650000Y-51954000D02*
X105350000Y-51954000D01*
G75*
G02*
X105096000Y-51700000I0J254000D01*
G01*
X105096000Y-51000000D01*
G75*
G02*
X105350000Y-50746000I254000J0D01*
G01*
X106650000Y-50746000D01*
G75*
G02*
X106904000Y-51000000I0J-254000D01*
G01*
X106904000Y-51700000D01*
G75*
G02*
X106650000Y-51954000I-254000J0D01*
G01*
G37*
G36*
G01*
X105550000Y-74246000D02*
X106850000Y-74246000D01*
G75*
G02*
X107104000Y-74500000I0J-254000D01*
G01*
X107104000Y-75200000D01*
G75*
G02*
X106850000Y-75454000I-254000J0D01*
G01*
X105550000Y-75454000D01*
G75*
G02*
X105296000Y-75200000I0J254000D01*
G01*
X105296000Y-74500000D01*
G75*
G02*
X105550000Y-74246000I254000J0D01*
G01*
G37*
G36*
G01*
X105550000Y-76146000D02*
X106850000Y-76146000D01*
G75*
G02*
X107104000Y-76400000I0J-254000D01*
G01*
X107104000Y-77100000D01*
G75*
G02*
X106850000Y-77354000I-254000J0D01*
G01*
X105550000Y-77354000D01*
G75*
G02*
X105296000Y-77100000I0J254000D01*
G01*
X105296000Y-76400000D01*
G75*
G02*
X105550000Y-76146000I254000J0D01*
G01*
G37*
G36*
G01*
X102950000Y-74246000D02*
X104250000Y-74246000D01*
G75*
G02*
X104504000Y-74500000I0J-254000D01*
G01*
X104504000Y-75200000D01*
G75*
G02*
X104250000Y-75454000I-254000J0D01*
G01*
X102950000Y-75454000D01*
G75*
G02*
X102696000Y-75200000I0J254000D01*
G01*
X102696000Y-74500000D01*
G75*
G02*
X102950000Y-74246000I254000J0D01*
G01*
G37*
G36*
G01*
X102950000Y-76146000D02*
X104250000Y-76146000D01*
G75*
G02*
X104504000Y-76400000I0J-254000D01*
G01*
X104504000Y-77100000D01*
G75*
G02*
X104250000Y-77354000I-254000J0D01*
G01*
X102950000Y-77354000D01*
G75*
G02*
X102696000Y-77100000I0J254000D01*
G01*
X102696000Y-76400000D01*
G75*
G02*
X102950000Y-76146000I254000J0D01*
G01*
G37*
D14*
X136130800Y-22473200D03*
X125869200Y-22473200D03*
X136130800Y-24733800D03*
X125869200Y-24733800D03*
G36*
G01*
X108075000Y-58646000D02*
X109325000Y-58646000D01*
G75*
G02*
X109579000Y-58900000I0J-254000D01*
G01*
X109579000Y-59900000D01*
G75*
G02*
X109325000Y-60154000I-254000J0D01*
G01*
X108075000Y-60154000D01*
G75*
G02*
X107821000Y-59900000I0J254000D01*
G01*
X107821000Y-58900000D01*
G75*
G02*
X108075000Y-58646000I254000J0D01*
G01*
G37*
G36*
G01*
X108075000Y-60646000D02*
X109325000Y-60646000D01*
G75*
G02*
X109579000Y-60900000I0J-254000D01*
G01*
X109579000Y-61900000D01*
G75*
G02*
X109325000Y-62154000I-254000J0D01*
G01*
X108075000Y-62154000D01*
G75*
G02*
X107821000Y-61900000I0J254000D01*
G01*
X107821000Y-60900000D01*
G75*
G02*
X108075000Y-60646000I254000J0D01*
G01*
G37*
G36*
G01*
X111825000Y-62154000D02*
X110575000Y-62154000D01*
G75*
G02*
X110321000Y-61900000I0J254000D01*
G01*
X110321000Y-60900000D01*
G75*
G02*
X110575000Y-60646000I254000J0D01*
G01*
X111825000Y-60646000D01*
G75*
G02*
X112079000Y-60900000I0J-254000D01*
G01*
X112079000Y-61900000D01*
G75*
G02*
X111825000Y-62154000I-254000J0D01*
G01*
G37*
G36*
G01*
X111825000Y-60154000D02*
X110575000Y-60154000D01*
G75*
G02*
X110321000Y-59900000I0J254000D01*
G01*
X110321000Y-58900000D01*
G75*
G02*
X110575000Y-58646000I254000J0D01*
G01*
X111825000Y-58646000D01*
G75*
G02*
X112079000Y-58900000I0J-254000D01*
G01*
X112079000Y-59900000D01*
G75*
G02*
X111825000Y-60154000I-254000J0D01*
G01*
G37*
G36*
G01*
X105254000Y-52150000D02*
X105254000Y-53450000D01*
G75*
G02*
X105000000Y-53704000I-254000J0D01*
G01*
X104300000Y-53704000D01*
G75*
G02*
X104046000Y-53450000I0J254000D01*
G01*
X104046000Y-52150000D01*
G75*
G02*
X104300000Y-51896000I254000J0D01*
G01*
X105000000Y-51896000D01*
G75*
G02*
X105254000Y-52150000I0J-254000D01*
G01*
G37*
G36*
G01*
X103354000Y-52150000D02*
X103354000Y-53450000D01*
G75*
G02*
X103100000Y-53704000I-254000J0D01*
G01*
X102400000Y-53704000D01*
G75*
G02*
X102146000Y-53450000I0J254000D01*
G01*
X102146000Y-52150000D01*
G75*
G02*
X102400000Y-51896000I254000J0D01*
G01*
X103100000Y-51896000D01*
G75*
G02*
X103354000Y-52150000I0J-254000D01*
G01*
G37*
G36*
G01*
X66446000Y-83450000D02*
X66446000Y-82150000D01*
G75*
G02*
X66700000Y-81896000I254000J0D01*
G01*
X67400000Y-81896000D01*
G75*
G02*
X67654000Y-82150000I0J-254000D01*
G01*
X67654000Y-83450000D01*
G75*
G02*
X67400000Y-83704000I-254000J0D01*
G01*
X66700000Y-83704000D01*
G75*
G02*
X66446000Y-83450000I0J254000D01*
G01*
G37*
G36*
G01*
X68346000Y-83450000D02*
X68346000Y-82150000D01*
G75*
G02*
X68600000Y-81896000I254000J0D01*
G01*
X69300000Y-81896000D01*
G75*
G02*
X69554000Y-82150000I0J-254000D01*
G01*
X69554000Y-83450000D01*
G75*
G02*
X69300000Y-83704000I-254000J0D01*
G01*
X68600000Y-83704000D01*
G75*
G02*
X68346000Y-83450000I0J254000D01*
G01*
G37*
G36*
G01*
X104350000Y-74054000D02*
X103050000Y-74054000D01*
G75*
G02*
X102796000Y-73800000I0J254000D01*
G01*
X102796000Y-73100000D01*
G75*
G02*
X103050000Y-72846000I254000J0D01*
G01*
X104350000Y-72846000D01*
G75*
G02*
X104604000Y-73100000I0J-254000D01*
G01*
X104604000Y-73800000D01*
G75*
G02*
X104350000Y-74054000I-254000J0D01*
G01*
G37*
G36*
G01*
X104350000Y-72154000D02*
X103050000Y-72154000D01*
G75*
G02*
X102796000Y-71900000I0J254000D01*
G01*
X102796000Y-71200000D01*
G75*
G02*
X103050000Y-70946000I254000J0D01*
G01*
X104350000Y-70946000D01*
G75*
G02*
X104604000Y-71200000I0J-254000D01*
G01*
X104604000Y-71900000D01*
G75*
G02*
X104350000Y-72154000I-254000J0D01*
G01*
G37*
G36*
G01*
X106850000Y-74054000D02*
X105550000Y-74054000D01*
G75*
G02*
X105296000Y-73800000I0J254000D01*
G01*
X105296000Y-73100000D01*
G75*
G02*
X105550000Y-72846000I254000J0D01*
G01*
X106850000Y-72846000D01*
G75*
G02*
X107104000Y-73100000I0J-254000D01*
G01*
X107104000Y-73800000D01*
G75*
G02*
X106850000Y-74054000I-254000J0D01*
G01*
G37*
G36*
G01*
X106850000Y-72154000D02*
X105550000Y-72154000D01*
G75*
G02*
X105296000Y-71900000I0J254000D01*
G01*
X105296000Y-71200000D01*
G75*
G02*
X105550000Y-70946000I254000J0D01*
G01*
X106850000Y-70946000D01*
G75*
G02*
X107104000Y-71200000I0J-254000D01*
G01*
X107104000Y-71900000D01*
G75*
G02*
X106850000Y-72154000I-254000J0D01*
G01*
G37*
G36*
G01*
X109350000Y-58854000D02*
X108050000Y-58854000D01*
G75*
G02*
X107796000Y-58600000I0J254000D01*
G01*
X107796000Y-57900000D01*
G75*
G02*
X108050000Y-57646000I254000J0D01*
G01*
X109350000Y-57646000D01*
G75*
G02*
X109604000Y-57900000I0J-254000D01*
G01*
X109604000Y-58600000D01*
G75*
G02*
X109350000Y-58854000I-254000J0D01*
G01*
G37*
G36*
G01*
X109350000Y-56954000D02*
X108050000Y-56954000D01*
G75*
G02*
X107796000Y-56700000I0J254000D01*
G01*
X107796000Y-56000000D01*
G75*
G02*
X108050000Y-55746000I254000J0D01*
G01*
X109350000Y-55746000D01*
G75*
G02*
X109604000Y-56000000I0J-254000D01*
G01*
X109604000Y-56700000D01*
G75*
G02*
X109350000Y-56954000I-254000J0D01*
G01*
G37*
G36*
G01*
X111850000Y-58854000D02*
X110550000Y-58854000D01*
G75*
G02*
X110296000Y-58600000I0J254000D01*
G01*
X110296000Y-57900000D01*
G75*
G02*
X110550000Y-57646000I254000J0D01*
G01*
X111850000Y-57646000D01*
G75*
G02*
X112104000Y-57900000I0J-254000D01*
G01*
X112104000Y-58600000D01*
G75*
G02*
X111850000Y-58854000I-254000J0D01*
G01*
G37*
G36*
G01*
X111850000Y-56954000D02*
X110550000Y-56954000D01*
G75*
G02*
X110296000Y-56700000I0J254000D01*
G01*
X110296000Y-56000000D01*
G75*
G02*
X110550000Y-55746000I254000J0D01*
G01*
X111850000Y-55746000D01*
G75*
G02*
X112104000Y-56000000I0J-254000D01*
G01*
X112104000Y-56700000D01*
G75*
G02*
X111850000Y-56954000I-254000J0D01*
G01*
G37*
G36*
G01*
X106950000Y-50946000D02*
X108250000Y-50946000D01*
G75*
G02*
X108504000Y-51200000I0J-254000D01*
G01*
X108504000Y-51900000D01*
G75*
G02*
X108250000Y-52154000I-254000J0D01*
G01*
X106950000Y-52154000D01*
G75*
G02*
X106696000Y-51900000I0J254000D01*
G01*
X106696000Y-51200000D01*
G75*
G02*
X106950000Y-50946000I254000J0D01*
G01*
G37*
G36*
G01*
X106950000Y-52846000D02*
X108250000Y-52846000D01*
G75*
G02*
X108504000Y-53100000I0J-254000D01*
G01*
X108504000Y-53800000D01*
G75*
G02*
X108250000Y-54054000I-254000J0D01*
G01*
X106950000Y-54054000D01*
G75*
G02*
X106696000Y-53800000I0J254000D01*
G01*
X106696000Y-53100000D01*
G75*
G02*
X106950000Y-52846000I254000J0D01*
G01*
G37*
G36*
G01*
X111850000Y-50846000D02*
X113150000Y-50846000D01*
G75*
G02*
X113404000Y-51100000I0J-254000D01*
G01*
X113404000Y-51800000D01*
G75*
G02*
X113150000Y-52054000I-254000J0D01*
G01*
X111850000Y-52054000D01*
G75*
G02*
X111596000Y-51800000I0J254000D01*
G01*
X111596000Y-51100000D01*
G75*
G02*
X111850000Y-50846000I254000J0D01*
G01*
G37*
G36*
G01*
X111850000Y-52746000D02*
X113150000Y-52746000D01*
G75*
G02*
X113404000Y-53000000I0J-254000D01*
G01*
X113404000Y-53700000D01*
G75*
G02*
X113150000Y-53954000I-254000J0D01*
G01*
X111850000Y-53954000D01*
G75*
G02*
X111596000Y-53700000I0J254000D01*
G01*
X111596000Y-53000000D01*
G75*
G02*
X111850000Y-52746000I254000J0D01*
G01*
G37*
D15*
X144000000Y-25000000D03*
G36*
G01*
X119954000Y-73650000D02*
X119954000Y-74950000D01*
G75*
G02*
X119700000Y-75204000I-254000J0D01*
G01*
X119000000Y-75204000D01*
G75*
G02*
X118746000Y-74950000I0J254000D01*
G01*
X118746000Y-73650000D01*
G75*
G02*
X119000000Y-73396000I254000J0D01*
G01*
X119700000Y-73396000D01*
G75*
G02*
X119954000Y-73650000I0J-254000D01*
G01*
G37*
G36*
G01*
X118054000Y-73650000D02*
X118054000Y-74950000D01*
G75*
G02*
X117800000Y-75204000I-254000J0D01*
G01*
X117100000Y-75204000D01*
G75*
G02*
X116846000Y-74950000I0J254000D01*
G01*
X116846000Y-73650000D01*
G75*
G02*
X117100000Y-73396000I254000J0D01*
G01*
X117800000Y-73396000D01*
G75*
G02*
X118054000Y-73650000I0J-254000D01*
G01*
G37*
G36*
G01*
X122150000Y-74354000D02*
X120850000Y-74354000D01*
G75*
G02*
X120596000Y-74100000I0J254000D01*
G01*
X120596000Y-73400000D01*
G75*
G02*
X120850000Y-73146000I254000J0D01*
G01*
X122150000Y-73146000D01*
G75*
G02*
X122404000Y-73400000I0J-254000D01*
G01*
X122404000Y-74100000D01*
G75*
G02*
X122150000Y-74354000I-254000J0D01*
G01*
G37*
G36*
G01*
X122150000Y-72454000D02*
X120850000Y-72454000D01*
G75*
G02*
X120596000Y-72200000I0J254000D01*
G01*
X120596000Y-71500000D01*
G75*
G02*
X120850000Y-71246000I254000J0D01*
G01*
X122150000Y-71246000D01*
G75*
G02*
X122404000Y-71500000I0J-254000D01*
G01*
X122404000Y-72200000D01*
G75*
G02*
X122150000Y-72454000I-254000J0D01*
G01*
G37*
G36*
G01*
X125350000Y-54146000D02*
X126650000Y-54146000D01*
G75*
G02*
X126904000Y-54400000I0J-254000D01*
G01*
X126904000Y-55100000D01*
G75*
G02*
X126650000Y-55354000I-254000J0D01*
G01*
X125350000Y-55354000D01*
G75*
G02*
X125096000Y-55100000I0J254000D01*
G01*
X125096000Y-54400000D01*
G75*
G02*
X125350000Y-54146000I254000J0D01*
G01*
G37*
G36*
G01*
X125350000Y-56046000D02*
X126650000Y-56046000D01*
G75*
G02*
X126904000Y-56300000I0J-254000D01*
G01*
X126904000Y-57000000D01*
G75*
G02*
X126650000Y-57254000I-254000J0D01*
G01*
X125350000Y-57254000D01*
G75*
G02*
X125096000Y-57000000I0J254000D01*
G01*
X125096000Y-56300000D01*
G75*
G02*
X125350000Y-56046000I254000J0D01*
G01*
G37*
X68000000Y-109000000D03*
X144000000Y-109000000D03*
G36*
G01*
X74354000Y-82000000D02*
X74354000Y-83600000D01*
G75*
G02*
X74100000Y-83854000I-254000J0D01*
G01*
X73100000Y-83854000D01*
G75*
G02*
X72846000Y-83600000I0J254000D01*
G01*
X72846000Y-82000000D01*
G75*
G02*
X73100000Y-81746000I254000J0D01*
G01*
X74100000Y-81746000D01*
G75*
G02*
X74354000Y-82000000I0J-254000D01*
G01*
G37*
G36*
G01*
X71354000Y-82000000D02*
X71354000Y-83600000D01*
G75*
G02*
X71100000Y-83854000I-254000J0D01*
G01*
X70100000Y-83854000D01*
G75*
G02*
X69846000Y-83600000I0J254000D01*
G01*
X69846000Y-82000000D01*
G75*
G02*
X70100000Y-81746000I254000J0D01*
G01*
X71100000Y-81746000D01*
G75*
G02*
X71354000Y-82000000I0J-254000D01*
G01*
G37*
G36*
G01*
X37946000Y-84050000D02*
X37946000Y-82350000D01*
G75*
G02*
X38200000Y-82096000I254000J0D01*
G01*
X39900000Y-82096000D01*
G75*
G02*
X40154000Y-82350000I0J-254000D01*
G01*
X40154000Y-84050000D01*
G75*
G02*
X39900000Y-84304000I-254000J0D01*
G01*
X38200000Y-84304000D01*
G75*
G02*
X37946000Y-84050000I0J254000D01*
G01*
G37*
G36*
G01*
X36650000Y-83104000D02*
X36150000Y-83104000D01*
G75*
G02*
X35896000Y-82850000I0J254000D01*
G01*
X35896000Y-81750000D01*
G75*
G02*
X36150000Y-81496000I254000J0D01*
G01*
X36650000Y-81496000D01*
G75*
G02*
X36904000Y-81750000I0J-254000D01*
G01*
X36904000Y-82850000D01*
G75*
G02*
X36650000Y-83104000I-254000J0D01*
G01*
G37*
D16*
X33800000Y-82300000D03*
G36*
G01*
X34500000Y-81454000D02*
X33450000Y-81454000D01*
G75*
G02*
X33196000Y-81200000I0J254000D01*
G01*
X33196000Y-79800000D01*
G75*
G02*
X33450000Y-79546000I254000J0D01*
G01*
X34500000Y-79546000D01*
G75*
G02*
X34754000Y-79800000I0J-254000D01*
G01*
X34754000Y-81200000D01*
G75*
G02*
X34500000Y-81454000I-254000J0D01*
G01*
G37*
G36*
G01*
X34500000Y-85054000D02*
X33450000Y-85054000D01*
G75*
G02*
X33196000Y-84800000I0J254000D01*
G01*
X33196000Y-83400000D01*
G75*
G02*
X33450000Y-83146000I254000J0D01*
G01*
X34500000Y-83146000D01*
G75*
G02*
X34754000Y-83400000I0J-254000D01*
G01*
X34754000Y-84800000D01*
G75*
G02*
X34500000Y-85054000I-254000J0D01*
G01*
G37*
G36*
G01*
X35950000Y-81454000D02*
X34900000Y-81454000D01*
G75*
G02*
X34646000Y-81200000I0J254000D01*
G01*
X34646000Y-79800000D01*
G75*
G02*
X34900000Y-79546000I254000J0D01*
G01*
X35950000Y-79546000D01*
G75*
G02*
X36204000Y-79800000I0J-254000D01*
G01*
X36204000Y-81200000D01*
G75*
G02*
X35950000Y-81454000I-254000J0D01*
G01*
G37*
G36*
G01*
X35950000Y-85054000D02*
X34900000Y-85054000D01*
G75*
G02*
X34646000Y-84800000I0J254000D01*
G01*
X34646000Y-83400000D01*
G75*
G02*
X34900000Y-83146000I254000J0D01*
G01*
X35950000Y-83146000D01*
G75*
G02*
X36204000Y-83400000I0J-254000D01*
G01*
X36204000Y-84800000D01*
G75*
G02*
X35950000Y-85054000I-254000J0D01*
G01*
G37*
X35600000Y-82300000D03*
G36*
G01*
X41111800Y-63122230D02*
X44109000Y-63122230D01*
G75*
G02*
X44363000Y-63376230I0J-254000D01*
G01*
X44363000Y-64087430D01*
G75*
G02*
X44109000Y-64341430I-254000J0D01*
G01*
X41111800Y-64341430D01*
G75*
G02*
X40857800Y-64087430I0J254000D01*
G01*
X40857800Y-63376230D01*
G75*
G02*
X41111800Y-63122230I254000J0D01*
G01*
G37*
G36*
G01*
X41111800Y-64366830D02*
X44109000Y-64366830D01*
G75*
G02*
X44363000Y-64620830I0J-254000D01*
G01*
X44363000Y-65332030D01*
G75*
G02*
X44109000Y-65586030I-254000J0D01*
G01*
X41111800Y-65586030D01*
G75*
G02*
X40857800Y-65332030I0J254000D01*
G01*
X40857800Y-64620830D01*
G75*
G02*
X41111800Y-64366830I254000J0D01*
G01*
G37*
G36*
G01*
X41111800Y-65561430D02*
X44109000Y-65561430D01*
G75*
G02*
X44363000Y-65815430I0J-254000D01*
G01*
X44363000Y-66526630D01*
G75*
G02*
X44109000Y-66780630I-254000J0D01*
G01*
X41111800Y-66780630D01*
G75*
G02*
X40857800Y-66526630I0J254000D01*
G01*
X40857800Y-65815430D01*
G75*
G02*
X41111800Y-65561430I254000J0D01*
G01*
G37*
G36*
G01*
X41111800Y-66856030D02*
X44109000Y-66856030D01*
G75*
G02*
X44363000Y-67110030I0J-254000D01*
G01*
X44363000Y-67821230D01*
G75*
G02*
X44109000Y-68075230I-254000J0D01*
G01*
X41111800Y-68075230D01*
G75*
G02*
X40857800Y-67821230I0J254000D01*
G01*
X40857800Y-67110030D01*
G75*
G02*
X41111800Y-66856030I254000J0D01*
G01*
G37*
G36*
G01*
X33159059Y-56723970D02*
X39204261Y-56723970D01*
G75*
G02*
X39458260Y-56977969I0J-253999D01*
G01*
X39458260Y-60381571D01*
G75*
G02*
X39204261Y-60635570I-253999J0D01*
G01*
X33159059Y-60635570D01*
G75*
G02*
X32905060Y-60381571I0J253999D01*
G01*
X32905060Y-56977969D01*
G75*
G02*
X33159059Y-56723970I253999J0D01*
G01*
G37*
G36*
G01*
X33159059Y-70564430D02*
X39204261Y-70564430D01*
G75*
G02*
X39458260Y-70818429I0J-253999D01*
G01*
X39458260Y-74222031D01*
G75*
G02*
X39204261Y-74476030I-253999J0D01*
G01*
X33159059Y-74476030D01*
G75*
G02*
X32905060Y-74222031I0J253999D01*
G01*
X32905060Y-70818429D01*
G75*
G02*
X33159059Y-70564430I253999J0D01*
G01*
G37*
D17*
X35600000Y-62842830D03*
X35600000Y-68354630D03*
G36*
G01*
X70016000Y-55460000D02*
X70016000Y-53760000D01*
G75*
G02*
X70270000Y-53506000I254000J0D01*
G01*
X71970000Y-53506000D01*
G75*
G02*
X72224000Y-53760000I0J-254000D01*
G01*
X72224000Y-55460000D01*
G75*
G02*
X71970000Y-55714000I-254000J0D01*
G01*
X70270000Y-55714000D01*
G75*
G02*
X70016000Y-55460000I0J254000D01*
G01*
G37*
D18*
X71120000Y-57150000D03*
X71120000Y-59690000D03*
G36*
G01*
X85256000Y-55460000D02*
X85256000Y-53760000D01*
G75*
G02*
X85510000Y-53506000I254000J0D01*
G01*
X87210000Y-53506000D01*
G75*
G02*
X87464000Y-53760000I0J-254000D01*
G01*
X87464000Y-55460000D01*
G75*
G02*
X87210000Y-55714000I-254000J0D01*
G01*
X85510000Y-55714000D01*
G75*
G02*
X85256000Y-55460000I0J254000D01*
G01*
G37*
X86360000Y-57150000D03*
G36*
G01*
X84354000Y-54300000D02*
X84354000Y-55900000D01*
G75*
G02*
X84100000Y-56154000I-254000J0D01*
G01*
X82500000Y-56154000D01*
G75*
G02*
X82246000Y-55900000I0J254000D01*
G01*
X82246000Y-54300000D01*
G75*
G02*
X82500000Y-54046000I254000J0D01*
G01*
X84100000Y-54046000D01*
G75*
G02*
X84354000Y-54300000I0J-254000D01*
G01*
G37*
D19*
X75680000Y-62720000D03*
X83300000Y-57640000D03*
X75680000Y-60180000D03*
X83300000Y-60180000D03*
X75680000Y-57640000D03*
X83300000Y-62720000D03*
X75680000Y-55100000D03*
G36*
G01*
X145926000Y-59594000D02*
X145926000Y-61626000D01*
G75*
G02*
X145672000Y-61880000I-254000J0D01*
G01*
X144148000Y-61880000D01*
G75*
G02*
X143894000Y-61626000I0J254000D01*
G01*
X143894000Y-59594000D01*
G75*
G02*
X144148000Y-59340000I254000J0D01*
G01*
X145672000Y-59340000D01*
G75*
G02*
X145926000Y-59594000I0J-254000D01*
G01*
G37*
G36*
G01*
X143386000Y-59594000D02*
X143386000Y-61626000D01*
G75*
G02*
X143132000Y-61880000I-254000J0D01*
G01*
X141608000Y-61880000D01*
G75*
G02*
X141354000Y-61626000I0J254000D01*
G01*
X141354000Y-59594000D01*
G75*
G02*
X141608000Y-59340000I254000J0D01*
G01*
X143132000Y-59340000D01*
G75*
G02*
X143386000Y-59594000I0J-254000D01*
G01*
G37*
G36*
G01*
X140846000Y-59594000D02*
X140846000Y-61626000D01*
G75*
G02*
X140592000Y-61880000I-254000J0D01*
G01*
X139068000Y-61880000D01*
G75*
G02*
X138814000Y-61626000I0J254000D01*
G01*
X138814000Y-59594000D01*
G75*
G02*
X139068000Y-59340000I254000J0D01*
G01*
X140592000Y-59340000D01*
G75*
G02*
X140846000Y-59594000I0J-254000D01*
G01*
G37*
G36*
G01*
X138306000Y-59594000D02*
X138306000Y-61626000D01*
G75*
G02*
X138052000Y-61880000I-254000J0D01*
G01*
X136528000Y-61880000D01*
G75*
G02*
X136274000Y-61626000I0J254000D01*
G01*
X136274000Y-59594000D01*
G75*
G02*
X136528000Y-59340000I254000J0D01*
G01*
X138052000Y-59340000D01*
G75*
G02*
X138306000Y-59594000I0J-254000D01*
G01*
G37*
G36*
G01*
X138306000Y-51974000D02*
X138306000Y-54006000D01*
G75*
G02*
X138052000Y-54260000I-254000J0D01*
G01*
X136528000Y-54260000D01*
G75*
G02*
X136274000Y-54006000I0J254000D01*
G01*
X136274000Y-51974000D01*
G75*
G02*
X136528000Y-51720000I254000J0D01*
G01*
X138052000Y-51720000D01*
G75*
G02*
X138306000Y-51974000I0J-254000D01*
G01*
G37*
G36*
G01*
X140846000Y-51974000D02*
X140846000Y-54006000D01*
G75*
G02*
X140592000Y-54260000I-254000J0D01*
G01*
X139068000Y-54260000D01*
G75*
G02*
X138814000Y-54006000I0J254000D01*
G01*
X138814000Y-51974000D01*
G75*
G02*
X139068000Y-51720000I254000J0D01*
G01*
X140592000Y-51720000D01*
G75*
G02*
X140846000Y-51974000I0J-254000D01*
G01*
G37*
G36*
G01*
X143386000Y-51974000D02*
X143386000Y-54006000D01*
G75*
G02*
X143132000Y-54260000I-254000J0D01*
G01*
X141608000Y-54260000D01*
G75*
G02*
X141354000Y-54006000I0J254000D01*
G01*
X141354000Y-51974000D01*
G75*
G02*
X141608000Y-51720000I254000J0D01*
G01*
X143132000Y-51720000D01*
G75*
G02*
X143386000Y-51974000I0J-254000D01*
G01*
G37*
G36*
G01*
X145926000Y-51974000D02*
X145926000Y-54006000D01*
G75*
G02*
X145672000Y-54260000I-254000J0D01*
G01*
X144148000Y-54260000D01*
G75*
G02*
X143894000Y-54006000I0J254000D01*
G01*
X143894000Y-51974000D01*
G75*
G02*
X144148000Y-51720000I254000J0D01*
G01*
X145672000Y-51720000D01*
G75*
G02*
X145926000Y-51974000I0J-254000D01*
G01*
G37*
G36*
G01*
X126354000Y-94275000D02*
X126354000Y-95525000D01*
G75*
G02*
X126100000Y-95779000I-254000J0D01*
G01*
X125100000Y-95779000D01*
G75*
G02*
X124846000Y-95525000I0J254000D01*
G01*
X124846000Y-94275000D01*
G75*
G02*
X125100000Y-94021000I254000J0D01*
G01*
X126100000Y-94021000D01*
G75*
G02*
X126354000Y-94275000I0J-254000D01*
G01*
G37*
G36*
G01*
X124354000Y-94275000D02*
X124354000Y-95525000D01*
G75*
G02*
X124100000Y-95779000I-254000J0D01*
G01*
X123100000Y-95779000D01*
G75*
G02*
X122846000Y-95525000I0J254000D01*
G01*
X122846000Y-94275000D01*
G75*
G02*
X123100000Y-94021000I254000J0D01*
G01*
X124100000Y-94021000D01*
G75*
G02*
X124354000Y-94275000I0J-254000D01*
G01*
G37*
G36*
G01*
X126375000Y-89946000D02*
X127625000Y-89946000D01*
G75*
G02*
X127879000Y-90200000I0J-254000D01*
G01*
X127879000Y-91200000D01*
G75*
G02*
X127625000Y-91454000I-254000J0D01*
G01*
X126375000Y-91454000D01*
G75*
G02*
X126121000Y-91200000I0J254000D01*
G01*
X126121000Y-90200000D01*
G75*
G02*
X126375000Y-89946000I254000J0D01*
G01*
G37*
G36*
G01*
X126375000Y-91946000D02*
X127625000Y-91946000D01*
G75*
G02*
X127879000Y-92200000I0J-254000D01*
G01*
X127879000Y-93200000D01*
G75*
G02*
X127625000Y-93454000I-254000J0D01*
G01*
X126375000Y-93454000D01*
G75*
G02*
X126121000Y-93200000I0J254000D01*
G01*
X126121000Y-92200000D01*
G75*
G02*
X126375000Y-91946000I254000J0D01*
G01*
G37*
G36*
G01*
X100325000Y-62054000D02*
X99075000Y-62054000D01*
G75*
G02*
X98821000Y-61800000I0J254000D01*
G01*
X98821000Y-60800000D01*
G75*
G02*
X99075000Y-60546000I254000J0D01*
G01*
X100325000Y-60546000D01*
G75*
G02*
X100579000Y-60800000I0J-254000D01*
G01*
X100579000Y-61800000D01*
G75*
G02*
X100325000Y-62054000I-254000J0D01*
G01*
G37*
G36*
G01*
X100325000Y-60054000D02*
X99075000Y-60054000D01*
G75*
G02*
X98821000Y-59800000I0J254000D01*
G01*
X98821000Y-58800000D01*
G75*
G02*
X99075000Y-58546000I254000J0D01*
G01*
X100325000Y-58546000D01*
G75*
G02*
X100579000Y-58800000I0J-254000D01*
G01*
X100579000Y-59800000D01*
G75*
G02*
X100325000Y-60054000I-254000J0D01*
G01*
G37*
G36*
G01*
X48503680Y-61099770D02*
X48503680Y-62199590D01*
G75*
G02*
X48249680Y-62453590I-254000J0D01*
G01*
X47650240Y-62453590D01*
G75*
G02*
X47396240Y-62199590I0J254000D01*
G01*
X47396240Y-61099770D01*
G75*
G02*
X47650240Y-60845770I254000J0D01*
G01*
X48249680Y-60845770D01*
G75*
G02*
X48503680Y-61099770I0J-254000D01*
G01*
G37*
G36*
G01*
X47553720Y-61099770D02*
X47553720Y-62199590D01*
G75*
G02*
X47299720Y-62453590I-254000J0D01*
G01*
X46700280Y-62453590D01*
G75*
G02*
X46446280Y-62199590I0J254000D01*
G01*
X46446280Y-61099770D01*
G75*
G02*
X46700280Y-60845770I254000J0D01*
G01*
X47299720Y-60845770D01*
G75*
G02*
X47553720Y-61099770I0J-254000D01*
G01*
G37*
G36*
G01*
X46603760Y-61099770D02*
X46603760Y-62199590D01*
G75*
G02*
X46349760Y-62453590I-254000J0D01*
G01*
X45750320Y-62453590D01*
G75*
G02*
X45496320Y-62199590I0J254000D01*
G01*
X45496320Y-61099770D01*
G75*
G02*
X45750320Y-60845770I254000J0D01*
G01*
X46349760Y-60845770D01*
G75*
G02*
X46603760Y-61099770I0J-254000D01*
G01*
G37*
G36*
G01*
X46603760Y-58600410D02*
X46603760Y-59700230D01*
G75*
G02*
X46349760Y-59954230I-254000J0D01*
G01*
X45750320Y-59954230D01*
G75*
G02*
X45496320Y-59700230I0J254000D01*
G01*
X45496320Y-58600410D01*
G75*
G02*
X45750320Y-58346410I254000J0D01*
G01*
X46349760Y-58346410D01*
G75*
G02*
X46603760Y-58600410I0J-254000D01*
G01*
G37*
G36*
G01*
X47553720Y-58600410D02*
X47553720Y-59700230D01*
G75*
G02*
X47299720Y-59954230I-254000J0D01*
G01*
X46700280Y-59954230D01*
G75*
G02*
X46446280Y-59700230I0J254000D01*
G01*
X46446280Y-58600410D01*
G75*
G02*
X46700280Y-58346410I254000J0D01*
G01*
X47299720Y-58346410D01*
G75*
G02*
X47553720Y-58600410I0J-254000D01*
G01*
G37*
G36*
G01*
X48503680Y-58600410D02*
X48503680Y-59700230D01*
G75*
G02*
X48249680Y-59954230I-254000J0D01*
G01*
X47650240Y-59954230D01*
G75*
G02*
X47396240Y-59700230I0J254000D01*
G01*
X47396240Y-58600410D01*
G75*
G02*
X47650240Y-58346410I254000J0D01*
G01*
X48249680Y-58346410D01*
G75*
G02*
X48503680Y-58600410I0J-254000D01*
G01*
G37*
G36*
G01*
X50555220Y-60499390D02*
X50555220Y-60898170D01*
G75*
G02*
X50301220Y-61152170I-254000J0D01*
G01*
X49402060Y-61152170D01*
G75*
G02*
X49148060Y-60898170I0J254000D01*
G01*
X49148060Y-60499390D01*
G75*
G02*
X49402060Y-60245390I254000J0D01*
G01*
X50301220Y-60245390D01*
G75*
G02*
X50555220Y-60499390I0J-254000D01*
G01*
G37*
G36*
G01*
X52251940Y-60499390D02*
X52251940Y-60898170D01*
G75*
G02*
X51997940Y-61152170I-254000J0D01*
G01*
X51098780Y-61152170D01*
G75*
G02*
X50844780Y-60898170I0J254000D01*
G01*
X50844780Y-60499390D01*
G75*
G02*
X51098780Y-60245390I254000J0D01*
G01*
X51997940Y-60245390D01*
G75*
G02*
X52251940Y-60499390I0J-254000D01*
G01*
G37*
G36*
G01*
X52251940Y-59701830D02*
X52251940Y-60100610D01*
G75*
G02*
X51997940Y-60354610I-254000J0D01*
G01*
X51098780Y-60354610D01*
G75*
G02*
X50844780Y-60100610I0J254000D01*
G01*
X50844780Y-59701830D01*
G75*
G02*
X51098780Y-59447830I254000J0D01*
G01*
X51997940Y-59447830D01*
G75*
G02*
X52251940Y-59701830I0J-254000D01*
G01*
G37*
G36*
G01*
X50555220Y-59701830D02*
X50555220Y-60100610D01*
G75*
G02*
X50301220Y-60354610I-254000J0D01*
G01*
X49402060Y-60354610D01*
G75*
G02*
X49148060Y-60100610I0J254000D01*
G01*
X49148060Y-59701830D01*
G75*
G02*
X49402060Y-59447830I254000J0D01*
G01*
X50301220Y-59447830D01*
G75*
G02*
X50555220Y-59701830I0J-254000D01*
G01*
G37*
D20*
X98564000Y-57320000D03*
X101104000Y-57320000D03*
X103644000Y-57320000D03*
X123964000Y-59860000D03*
X93484000Y-70020000D03*
X96024000Y-70020000D03*
X98564000Y-70020000D03*
X101104000Y-70020000D03*
X103644000Y-70020000D03*
X106184000Y-70020000D03*
X108724000Y-70020000D03*
X111264000Y-70020000D03*
X113804000Y-70020000D03*
X116344000Y-70020000D03*
X118884000Y-70020000D03*
X121424000Y-70020000D03*
X123964000Y-70020000D03*
X123964000Y-54780000D03*
X121424000Y-54780000D03*
X118884000Y-54780000D03*
X116344000Y-54780000D03*
X113804000Y-54780000D03*
X111264000Y-54780000D03*
X108724000Y-54780000D03*
X106184000Y-54780000D03*
X103644000Y-54780000D03*
X101104000Y-54780000D03*
X98564000Y-54780000D03*
X96024000Y-54780000D03*
X93484000Y-54780000D03*
X90944000Y-54780000D03*
X90944000Y-70020000D03*
M02*
