G04 #@! TF.GenerationSoftware,KiCad,Pcbnew,5.1.9+dfsg1-1~bpo10+1*
G04 #@! TF.CreationDate,2021-11-10T17:09:55+00:00*
G04 #@! TF.ProjectId,dropbot_control_board,64726f70-626f-4745-9f63-6f6e74726f6c,v3.6*
G04 #@! TF.SameCoordinates,Original*
G04 #@! TF.FileFunction,Copper,L4,Bot*
G04 #@! TF.FilePolarity,Positive*
%FSLAX46Y46*%
G04 Gerber Fmt 4.6, Leading zero omitted, Abs format (unit mm)*
G04 Created by KiCad (PCBNEW 5.1.9+dfsg1-1~bpo10+1) date 2021-11-10 17:09:55*
%MOMM*%
%LPD*%
G01*
G04 APERTURE LIST*
G04 #@! TA.AperFunction,ComponentPad*
%ADD10C,3.000000*%
G04 #@! TD*
G04 #@! TA.AperFunction,ComponentPad*
%ADD11R,1.727200X2.032000*%
G04 #@! TD*
G04 #@! TA.AperFunction,ComponentPad*
%ADD12O,1.727200X2.032000*%
G04 #@! TD*
G04 #@! TA.AperFunction,ComponentPad*
%ADD13O,3.500120X1.699260*%
G04 #@! TD*
G04 #@! TA.AperFunction,SMDPad,CuDef*
%ADD14R,9.000000X11.000000*%
G04 #@! TD*
G04 #@! TA.AperFunction,SMDPad,CuDef*
%ADD15R,6.000000X10.500000*%
G04 #@! TD*
G04 #@! TA.AperFunction,SMDPad,CuDef*
%ADD16R,1.524000X2.032000*%
G04 #@! TD*
G04 #@! TA.AperFunction,ComponentPad*
%ADD17C,1.998980*%
G04 #@! TD*
G04 #@! TA.AperFunction,SMDPad,CuDef*
%ADD18R,0.700000X1.300000*%
G04 #@! TD*
G04 #@! TA.AperFunction,SMDPad,CuDef*
%ADD19R,0.900000X1.700000*%
G04 #@! TD*
G04 #@! TA.AperFunction,SMDPad,CuDef*
%ADD20R,1.300000X0.700000*%
G04 #@! TD*
G04 #@! TA.AperFunction,ComponentPad*
%ADD21C,1.270000*%
G04 #@! TD*
G04 #@! TA.AperFunction,SMDPad,CuDef*
%ADD22R,1.250000X1.000000*%
G04 #@! TD*
G04 #@! TA.AperFunction,ComponentPad*
%ADD23C,4.064000*%
G04 #@! TD*
G04 #@! TA.AperFunction,SMDPad,CuDef*
%ADD24R,1.000000X1.600000*%
G04 #@! TD*
G04 #@! TA.AperFunction,ComponentPad*
%ADD25R,1.700000X1.700000*%
G04 #@! TD*
G04 #@! TA.AperFunction,SMDPad,CuDef*
%ADD26R,0.500000X1.100000*%
G04 #@! TD*
G04 #@! TA.AperFunction,SMDPad,CuDef*
%ADD27R,1.050000X1.400000*%
G04 #@! TD*
G04 #@! TA.AperFunction,SMDPad,CuDef*
%ADD28R,2.997200X0.711200*%
G04 #@! TD*
G04 #@! TA.AperFunction,SMDPad,CuDef*
%ADD29R,6.045200X3.403600*%
G04 #@! TD*
G04 #@! TA.AperFunction,ComponentPad*
%ADD30C,2.000000*%
G04 #@! TD*
G04 #@! TA.AperFunction,ComponentPad*
%ADD31O,1.700000X1.700000*%
G04 #@! TD*
G04 #@! TA.AperFunction,ComponentPad*
%ADD32R,1.600000X1.600000*%
G04 #@! TD*
G04 #@! TA.AperFunction,ComponentPad*
%ADD33O,1.600000X1.600000*%
G04 #@! TD*
G04 #@! TA.AperFunction,SMDPad,CuDef*
%ADD34R,1.000000X1.250000*%
G04 #@! TD*
G04 #@! TA.AperFunction,SMDPad,CuDef*
%ADD35R,0.599440X1.099820*%
G04 #@! TD*
G04 #@! TA.AperFunction,SMDPad,CuDef*
%ADD36R,0.899160X0.398780*%
G04 #@! TD*
G04 #@! TA.AperFunction,ComponentPad*
%ADD37C,1.900000*%
G04 #@! TD*
G04 #@! TA.AperFunction,ViaPad*
%ADD38C,0.800000*%
G04 #@! TD*
G04 #@! TA.AperFunction,Conductor*
%ADD39C,0.254000*%
G04 #@! TD*
G04 #@! TA.AperFunction,Conductor*
%ADD40C,0.500000*%
G04 #@! TD*
G04 #@! TA.AperFunction,Conductor*
%ADD41C,0.100000*%
G04 #@! TD*
G04 APERTURE END LIST*
D10*
X60570000Y-69900000D03*
X47430000Y-69900000D03*
D11*
X67767000Y-102551000D03*
D12*
X70307000Y-102551000D03*
X72847000Y-102551000D03*
X75387000Y-102551000D03*
D13*
X76403000Y-84644000D03*
X76403000Y-87184000D03*
X76403000Y-82104000D03*
D14*
X93167000Y-84644000D03*
D13*
X71069000Y-95947000D03*
X71069000Y-98487000D03*
X71069000Y-93407000D03*
D14*
X87833000Y-95947000D03*
D13*
X126000000Y-100600000D03*
X126000000Y-98060000D03*
X126000000Y-103140000D03*
D15*
X108236000Y-100600000D03*
D16*
X137290000Y-65190000D03*
X139830000Y-65190000D03*
X142370000Y-65190000D03*
X144910000Y-65190000D03*
X144910000Y-72810000D03*
X142370000Y-72810000D03*
X139830000Y-72810000D03*
X137290000Y-72810000D03*
X134210000Y-72810000D03*
X131670000Y-72810000D03*
X129130000Y-72810000D03*
X126590000Y-72810000D03*
X126590000Y-65190000D03*
X129130000Y-65190000D03*
X131670000Y-65190000D03*
X134210000Y-65190000D03*
D11*
X67767000Y-79691000D03*
D12*
X70307000Y-79691000D03*
X72847000Y-79691000D03*
D17*
X72044360Y-85660000D03*
X67043100Y-85660000D03*
D18*
X143050000Y-62900000D03*
X144950000Y-62900000D03*
X138850000Y-62900000D03*
X136950000Y-62900000D03*
X136250000Y-77000000D03*
X134350000Y-77000000D03*
X124550000Y-75200000D03*
X126450000Y-75200000D03*
X136250000Y-75100000D03*
X134350000Y-75100000D03*
D19*
X122450000Y-92800000D03*
X125350000Y-92800000D03*
D20*
X110900000Y-53250000D03*
X110900000Y-51350000D03*
X106000000Y-53250000D03*
X106000000Y-51350000D03*
X106200000Y-74850000D03*
X106200000Y-76750000D03*
X103600000Y-74850000D03*
X103600000Y-76750000D03*
D21*
X136130800Y-22473200D03*
X125869200Y-22473200D03*
X136130800Y-24733800D03*
X125869200Y-24733800D03*
D22*
X108700000Y-59400000D03*
X108700000Y-61400000D03*
X111200000Y-61400000D03*
X111200000Y-59400000D03*
D18*
X104650000Y-52800000D03*
X102750000Y-52800000D03*
X67050000Y-82800000D03*
X68950000Y-82800000D03*
D20*
X103700000Y-73450000D03*
X103700000Y-71550000D03*
X106200000Y-73450000D03*
X106200000Y-71550000D03*
X108700000Y-58250000D03*
X108700000Y-56350000D03*
X111200000Y-58250000D03*
X111200000Y-56350000D03*
X107600000Y-51550000D03*
X107600000Y-53450000D03*
X112500000Y-51450000D03*
X112500000Y-53350000D03*
D23*
X144000000Y-25000000D03*
D18*
X119350000Y-74300000D03*
X117450000Y-74300000D03*
D20*
X121500000Y-73750000D03*
X121500000Y-71850000D03*
X126000000Y-54750000D03*
X126000000Y-56650000D03*
D23*
X68000000Y-109000000D03*
X144000000Y-109000000D03*
D24*
X73600000Y-82800000D03*
X70600000Y-82800000D03*
D25*
X39050000Y-83200000D03*
D26*
X36400000Y-82300000D03*
D27*
X33975000Y-80500000D03*
X33975000Y-84100000D03*
X35425000Y-80500000D03*
X35425000Y-84100000D03*
D28*
X42610400Y-63731830D03*
X42610400Y-64976430D03*
X42610400Y-66171030D03*
X42610400Y-67465630D03*
D29*
X36181660Y-58679770D03*
X36181660Y-72520230D03*
D30*
X35600000Y-62842830D03*
X35600000Y-68354630D03*
D25*
X71120000Y-54610000D03*
D31*
X71120000Y-57150000D03*
X71120000Y-59690000D03*
D25*
X86360000Y-54610000D03*
D31*
X86360000Y-57150000D03*
D32*
X83300000Y-55100000D03*
D33*
X75680000Y-62720000D03*
X83300000Y-57640000D03*
X75680000Y-60180000D03*
X83300000Y-60180000D03*
X75680000Y-57640000D03*
X83300000Y-62720000D03*
X75680000Y-55100000D03*
D16*
X144910000Y-60610000D03*
X142370000Y-60610000D03*
X139830000Y-60610000D03*
X137290000Y-60610000D03*
X137290000Y-52990000D03*
X139830000Y-52990000D03*
X142370000Y-52990000D03*
X144910000Y-52990000D03*
D34*
X125600000Y-94900000D03*
X123600000Y-94900000D03*
D22*
X127000000Y-90700000D03*
X127000000Y-92700000D03*
X99700000Y-61300000D03*
X99700000Y-59300000D03*
D35*
X47949960Y-61649680D03*
X47000000Y-61649680D03*
X46050040Y-61649680D03*
X46050040Y-59150320D03*
X47000000Y-59150320D03*
X47949960Y-59150320D03*
D36*
X49851640Y-60698780D03*
X51548360Y-60698780D03*
X51548360Y-59901220D03*
X49851640Y-59901220D03*
D37*
X98564000Y-57320000D03*
X101104000Y-57320000D03*
X103644000Y-57320000D03*
X123964000Y-59860000D03*
X93484000Y-70020000D03*
X96024000Y-70020000D03*
X98564000Y-70020000D03*
X101104000Y-70020000D03*
X103644000Y-70020000D03*
X106184000Y-70020000D03*
X108724000Y-70020000D03*
X111264000Y-70020000D03*
X113804000Y-70020000D03*
X116344000Y-70020000D03*
X118884000Y-70020000D03*
X121424000Y-70020000D03*
X123964000Y-70020000D03*
X123964000Y-54780000D03*
X121424000Y-54780000D03*
X118884000Y-54780000D03*
X116344000Y-54780000D03*
X113804000Y-54780000D03*
X111264000Y-54780000D03*
X108724000Y-54780000D03*
X106184000Y-54780000D03*
X103644000Y-54780000D03*
X101104000Y-54780000D03*
X98564000Y-54780000D03*
X96024000Y-54780000D03*
X93484000Y-54780000D03*
X90944000Y-54780000D03*
X90944000Y-70020000D03*
D38*
X122700000Y-56300000D03*
X120100000Y-56300000D03*
X120800000Y-67700000D03*
X117600000Y-56300000D03*
X118500000Y-67700000D03*
X114600000Y-67000000D03*
X130000000Y-67900000D03*
X126000000Y-67800000D03*
X116100000Y-56400000D03*
X116200000Y-67600000D03*
X113000000Y-56400000D03*
X114700000Y-56400000D03*
X142000000Y-83400000D03*
X135000000Y-83400000D03*
X102700000Y-101900000D03*
X103700000Y-101900000D03*
X101500000Y-101900000D03*
X102600000Y-95600000D03*
X103800000Y-95600000D03*
X101500000Y-95600000D03*
X110000000Y-61400000D03*
X99700000Y-62400000D03*
X129400000Y-89800000D03*
X127000000Y-90700000D03*
X124155000Y-93280000D03*
X57500000Y-66000000D03*
X135000000Y-49400000D03*
X137900000Y-70900000D03*
X144100000Y-70100000D03*
X142500000Y-70500000D03*
X139300000Y-70300000D03*
X139800000Y-62900000D03*
X133540000Y-29102600D03*
X126600000Y-28300000D03*
X84900000Y-53800000D03*
X136500000Y-47800000D03*
X137290000Y-52990000D03*
X143900000Y-77800000D03*
X73550000Y-57000000D03*
X73500000Y-64300000D03*
X133000000Y-44600000D03*
X133000000Y-45600000D03*
X129730000Y-27578600D03*
X131800000Y-44600000D03*
X69100000Y-100600000D03*
X68700000Y-77800000D03*
X80451000Y-101408000D03*
X82499000Y-98072980D03*
X124550000Y-75200000D03*
X128800000Y-74700000D03*
X113600000Y-77200000D03*
X102600000Y-51100000D03*
X105300000Y-93600000D03*
X116662000Y-85152000D03*
X118186000Y-83755000D03*
X118186000Y-85152000D03*
X116662000Y-83755000D03*
X115265000Y-83755000D03*
X115265000Y-85152000D03*
X139200000Y-91400000D03*
X133000000Y-91100000D03*
X143600000Y-99500000D03*
X132800000Y-53150000D03*
X129700000Y-50900000D03*
X68900000Y-104700000D03*
X121400000Y-63700000D03*
X126700000Y-63700000D03*
X109000000Y-83450000D03*
X118400000Y-82800000D03*
X86563000Y-89597000D03*
X82499000Y-89597000D03*
X129100000Y-63200000D03*
X71831000Y-89724000D03*
X77165000Y-88962000D03*
X135800000Y-48500000D03*
X132800000Y-31200000D03*
X131000000Y-27578600D03*
X142400000Y-75000000D03*
X140600000Y-56500000D03*
X88600000Y-61600000D03*
X128100000Y-68600000D03*
X141100000Y-62000000D03*
X134000000Y-58100000D03*
X133500000Y-70700000D03*
X144800000Y-71200000D03*
X133500000Y-66800000D03*
X133000000Y-78300000D03*
X111500000Y-48600000D03*
X109600000Y-51400000D03*
X132270000Y-29102600D03*
X112800000Y-48100000D03*
X110900000Y-51400000D03*
X133540000Y-27578600D03*
X98800000Y-80100000D03*
X111200000Y-79800000D03*
X98800000Y-79100000D03*
X108700000Y-79100000D03*
X104800000Y-74400000D03*
X104900000Y-80900000D03*
X118600000Y-81000000D03*
X108000000Y-80500000D03*
X108100000Y-74300000D03*
X118500000Y-80000000D03*
X130600000Y-79200000D03*
X134700000Y-78500000D03*
X122650000Y-48160000D03*
X131000000Y-48240000D03*
X130400000Y-77400000D03*
X129130000Y-72810000D03*
X127600000Y-74700000D03*
X124700000Y-56600000D03*
X118900000Y-77400000D03*
X124800000Y-77400000D03*
X103600000Y-73900000D03*
X106200000Y-73900000D03*
X104600000Y-52800000D03*
X116450000Y-74300000D03*
X121400000Y-74700000D03*
X36957000Y-82296000D03*
X42610400Y-64976430D03*
X47000000Y-62800000D03*
X35433000Y-72644000D03*
X33909000Y-80518000D03*
X33975000Y-84100000D03*
X35581660Y-58679770D03*
X49400000Y-52000000D03*
X133000000Y-41550000D03*
X134700000Y-41500000D03*
X47000008Y-58000000D03*
X54600000Y-63400000D03*
X55000000Y-66000000D03*
X137290000Y-60610000D03*
X144900000Y-60700000D03*
X117100000Y-96000000D03*
X125800000Y-92900000D03*
X102100000Y-92300000D03*
X112500000Y-89000000D03*
X124400000Y-73000000D03*
X130400000Y-60400000D03*
X130400000Y-80300000D03*
X126300000Y-85600000D03*
X142100000Y-63600000D03*
X129300000Y-53150000D03*
X126300000Y-53100000D03*
X137900000Y-62900000D03*
X101800000Y-76600000D03*
X97950000Y-52600000D03*
X136250000Y-77000000D03*
X113600000Y-75200000D03*
X101500000Y-52800000D03*
X115200000Y-67800000D03*
X107700000Y-67800000D03*
X107400000Y-76700000D03*
D39*
X158424000Y-33726000D02*
X158400000Y-33750000D01*
X160964000Y-33714000D02*
X161000000Y-33750000D01*
X116200000Y-67600000D02*
X115600000Y-67000000D01*
X115600000Y-67000000D02*
X114600000Y-67000000D01*
X126000000Y-67800000D02*
X129900000Y-67800000D01*
X129900000Y-67800000D02*
X130000000Y-67900000D01*
X120800000Y-67700000D02*
X125900000Y-67700000D01*
X125900000Y-67700000D02*
X126000000Y-67800000D01*
X120800000Y-67700000D02*
X118500000Y-67700000D01*
X118400000Y-67600000D02*
X118500000Y-67700000D01*
X116200000Y-67600000D02*
X118400000Y-67600000D01*
X114700000Y-56400000D02*
X113000000Y-56400000D01*
X116100000Y-56400000D02*
X114700000Y-56400000D01*
X116200000Y-56300000D02*
X116100000Y-56400000D01*
X117600000Y-56300000D02*
X120100000Y-56300000D01*
X120100000Y-56300000D02*
X122700000Y-56300000D01*
X117600000Y-56300000D02*
X116200000Y-56300000D01*
X111200000Y-61400000D02*
X110000000Y-61400000D01*
X110000000Y-61400000D02*
X108700000Y-61400000D01*
X99700000Y-61300000D02*
X99700000Y-62400000D01*
X127000000Y-90700000D02*
X128500000Y-90700000D01*
X128500000Y-90700000D02*
X129400000Y-89800000D01*
X124155000Y-93280000D02*
X124155000Y-91945000D01*
X125400000Y-90700000D02*
X127000000Y-90700000D01*
X124155000Y-91945000D02*
X125400000Y-90700000D01*
X137900000Y-70900000D02*
X138600000Y-70900000D01*
X134900000Y-49300000D02*
X135000000Y-49400000D01*
X134900000Y-49200000D02*
X134900000Y-49300000D01*
X142900000Y-70100000D02*
X144100000Y-70100000D01*
X142500000Y-70500000D02*
X142900000Y-70100000D01*
X139200000Y-70300000D02*
X139300000Y-70300000D01*
X138600000Y-70900000D02*
X139200000Y-70300000D01*
X143050000Y-62900000D02*
X142800000Y-62900000D01*
X143050000Y-62900000D02*
X141800000Y-62900000D01*
X140000000Y-63100000D02*
X139800000Y-62900000D01*
X141600000Y-63100000D02*
X140000000Y-63100000D01*
X141800000Y-62900000D02*
X141600000Y-63100000D01*
X110700000Y-49418998D02*
X110700000Y-48400000D01*
X133537400Y-29100000D02*
X133540000Y-29102600D01*
X133537400Y-29100000D02*
X133500000Y-29100000D01*
X134200000Y-28442600D02*
X133540000Y-29102600D01*
X134200000Y-27200000D02*
X134200000Y-28442600D01*
X132400000Y-25400000D02*
X134200000Y-27200000D01*
X127322364Y-25400000D02*
X132400000Y-25400000D01*
X125037996Y-27684368D02*
X127322364Y-25400000D01*
X125037996Y-42984368D02*
X125037996Y-27684368D01*
X119946372Y-48075992D02*
X125037996Y-42984368D01*
X113900000Y-48075992D02*
X119946372Y-48075992D01*
X113224008Y-47400000D02*
X113900000Y-48075992D01*
X111700000Y-47400000D02*
X113224008Y-47400000D01*
X110700000Y-48400000D02*
X111700000Y-47400000D01*
X126600000Y-28300000D02*
X126581002Y-28300000D01*
X120700000Y-48938818D02*
X126181002Y-43457816D01*
X120700000Y-48938818D02*
X120700000Y-49218998D01*
X126181002Y-28700000D02*
X126181002Y-43457816D01*
X126581002Y-28300000D02*
X126181002Y-28700000D01*
X84900000Y-53800000D02*
X85200000Y-54100000D01*
X134961182Y-47800000D02*
X133542184Y-49218998D01*
X133542184Y-49218998D02*
X120700000Y-49218998D01*
X120700000Y-49218998D02*
X112800000Y-49218998D01*
X112800000Y-49218998D02*
X112600000Y-49418998D01*
X112600000Y-49418998D02*
X110700000Y-49418998D01*
X110700000Y-49418998D02*
X108200000Y-49418998D01*
X108200000Y-49418998D02*
X108100000Y-49518998D01*
X108100000Y-49518998D02*
X90912184Y-49518998D01*
X90912184Y-49518998D02*
X87031182Y-53400000D01*
X87031182Y-53400000D02*
X85300000Y-53400000D01*
X85300000Y-53400000D02*
X84900000Y-53800000D01*
X136500000Y-47800000D02*
X134961182Y-47800000D01*
X136500000Y-48900000D02*
X136500000Y-47800000D01*
X136200000Y-49200000D02*
X136500000Y-48900000D01*
X134638818Y-49200000D02*
X134900000Y-49200000D01*
X134900000Y-49200000D02*
X136200000Y-49200000D01*
X133838818Y-50000000D02*
X134638818Y-49200000D01*
X113481002Y-50000000D02*
X133838818Y-50000000D01*
X113200000Y-50281002D02*
X113481002Y-50000000D01*
X91227816Y-50281002D02*
X113200000Y-50281002D01*
X87554409Y-53954409D02*
X91227816Y-50281002D01*
X87554409Y-55745591D02*
X87554409Y-53954409D01*
X87500000Y-55800000D02*
X87554409Y-55745591D01*
X85400000Y-55800000D02*
X87500000Y-55800000D01*
X85200000Y-55600000D02*
X85400000Y-55800000D01*
X85200000Y-54100000D02*
X85200000Y-55600000D01*
X144910000Y-72810000D02*
X144910000Y-73990000D01*
X143900000Y-75000000D02*
X143900000Y-77800000D01*
X144910000Y-73990000D02*
X143900000Y-75000000D01*
X129700000Y-27600000D02*
X129708600Y-27600000D01*
X129708600Y-27600000D02*
X129730000Y-27578600D01*
X80500000Y-101400000D02*
X80459000Y-101400000D01*
X80459000Y-101400000D02*
X80451000Y-101408000D01*
X82500000Y-98100000D02*
X82500000Y-98073980D01*
X82500000Y-98073980D02*
X82499000Y-98072980D01*
X75707000Y-82800000D02*
X76403000Y-82104000D01*
X73600000Y-82800000D02*
X75707000Y-82800000D01*
D40*
X132800000Y-53150000D02*
X132800000Y-53200000D01*
D39*
X121400000Y-63700000D02*
X126700000Y-63700000D01*
X126700000Y-63700000D02*
X126590000Y-63810000D01*
X126590000Y-63810000D02*
X126590000Y-65190000D01*
X126600000Y-65180000D02*
X126590000Y-65190000D01*
X109650000Y-82800000D02*
X118400000Y-82800000D01*
X109000000Y-83450000D02*
X109650000Y-82800000D01*
X126450000Y-75200000D02*
X126450000Y-72950000D01*
X126450000Y-72950000D02*
X126590000Y-72810000D01*
D40*
X82499000Y-89597000D02*
X86563000Y-89597000D01*
X71069000Y-95947000D02*
X75006000Y-95947000D01*
X81356000Y-89597000D02*
X82499000Y-89597000D01*
X75006000Y-95947000D02*
X81356000Y-89597000D01*
X129130000Y-65190000D02*
X131670000Y-65190000D01*
X129130000Y-63230000D02*
X129130000Y-65190000D01*
X129100000Y-63200000D02*
X129130000Y-63230000D01*
D39*
X71831000Y-89724000D02*
X74117000Y-89724000D01*
X74117000Y-89724000D02*
X74879000Y-88962000D01*
X74879000Y-88962000D02*
X77165000Y-88962000D01*
X91070000Y-49900000D02*
X108300000Y-49900000D01*
X86360000Y-54610000D02*
X91070000Y-49900000D01*
X134800000Y-48500000D02*
X135800000Y-48500000D01*
X133700000Y-49600000D02*
X113100000Y-49600000D01*
X134800000Y-48500000D02*
X133700000Y-49600000D01*
X112900000Y-49800000D02*
X113100000Y-49600000D01*
X108300000Y-49900000D02*
X108400000Y-49800000D01*
X112900000Y-49800000D02*
X108400000Y-49800000D01*
X131000000Y-27578600D02*
X131000000Y-29400000D01*
X131000000Y-29400000D02*
X132800000Y-31200000D01*
X130800000Y-27778600D02*
X131000000Y-27578600D01*
X142370000Y-72810000D02*
X142370000Y-74970000D01*
X142370000Y-74970000D02*
X142400000Y-75000000D01*
X139830000Y-72810000D02*
X142370000Y-72810000D01*
X141100000Y-52990000D02*
X141100000Y-56000000D01*
X141100000Y-56000000D02*
X140600000Y-56500000D01*
X139830000Y-52990000D02*
X141100000Y-52990000D01*
X141100000Y-52990000D02*
X142370000Y-52990000D01*
X99700000Y-59300000D02*
X99700000Y-58724000D01*
X99700000Y-58724000D02*
X101104000Y-57320000D01*
X90900000Y-59300000D02*
X99700000Y-59300000D01*
X88600000Y-61600000D02*
X90900000Y-59300000D01*
X86360000Y-57150000D02*
X96650000Y-57150000D01*
X102324000Y-56000000D02*
X103644000Y-57320000D01*
X97800000Y-56000000D02*
X102324000Y-56000000D01*
X96650000Y-57150000D02*
X97800000Y-56000000D01*
X113804000Y-70020000D02*
X113804000Y-69996000D01*
X113804000Y-69996000D02*
X115200000Y-68600000D01*
X115200000Y-68600000D02*
X128100000Y-68600000D01*
X136200000Y-58818998D02*
X135761182Y-58818998D01*
X136200000Y-58818998D02*
X142818998Y-58818998D01*
X142370000Y-65190000D02*
X143700000Y-63860000D01*
X143700000Y-59700000D02*
X143700000Y-63860000D01*
X142818998Y-58818998D02*
X143700000Y-59700000D01*
X133442184Y-61137996D02*
X117545550Y-61137996D01*
X135761182Y-58818998D02*
X133442184Y-61137996D01*
X97704000Y-65800000D02*
X93484000Y-70020000D01*
X117500000Y-61183546D02*
X112883546Y-65800000D01*
X112883546Y-65800000D02*
X97704000Y-65800000D01*
X140800000Y-65190000D02*
X140800000Y-65200000D01*
X140800000Y-65200000D02*
X140800000Y-65190000D01*
X142370000Y-65190000D02*
X140800000Y-65190000D01*
X140800000Y-65190000D02*
X139830000Y-65190000D01*
X139830000Y-65190000D02*
X139830000Y-65430000D01*
X139830000Y-65190000D02*
X139830000Y-64730000D01*
X144950000Y-62900000D02*
X144950000Y-65150000D01*
X144950000Y-65150000D02*
X144910000Y-65190000D01*
X144910000Y-63060000D02*
X144750000Y-62900000D01*
X144900000Y-65180000D02*
X144910000Y-65190000D01*
X136200000Y-59211182D02*
X135907816Y-59211182D01*
X113022364Y-66200000D02*
X99844000Y-66200000D01*
X99844000Y-66200000D02*
X96024000Y-70020000D01*
X117703366Y-61518998D02*
X113022364Y-66200000D01*
X133600000Y-61518998D02*
X117703366Y-61518998D01*
X135907816Y-59211182D02*
X133600000Y-61518998D01*
X140711182Y-59211182D02*
X136200000Y-59211182D01*
X141100000Y-62000000D02*
X141100000Y-59600000D01*
X140711182Y-59211182D02*
X141100000Y-59600000D01*
X136950000Y-62900000D02*
X136950000Y-64850000D01*
X136950000Y-64850000D02*
X137290000Y-65190000D01*
X137300000Y-65180000D02*
X137290000Y-65190000D01*
X137300000Y-65180000D02*
X137290000Y-65190000D01*
X117861182Y-61900000D02*
X117530591Y-62230591D01*
X101400000Y-66600000D02*
X113161182Y-66600000D01*
X98564000Y-69436000D02*
X101400000Y-66600000D01*
X138500000Y-61900000D02*
X117861182Y-61900000D01*
X138500000Y-61900000D02*
X139790000Y-60610000D01*
X117530591Y-62230591D02*
X113161182Y-66600000D01*
X139830000Y-60610000D02*
X139790000Y-60610000D01*
X139830000Y-60610000D02*
X139830000Y-61730000D01*
X142370000Y-61730000D02*
X142370000Y-60610000D01*
X141400000Y-62700000D02*
X142370000Y-61730000D01*
X140800000Y-62700000D02*
X141400000Y-62700000D01*
X139830000Y-61730000D02*
X140800000Y-62700000D01*
X98564000Y-70020000D02*
X98564000Y-69436000D01*
D40*
X144910000Y-52990000D02*
X144910000Y-56190000D01*
X143000000Y-58100000D02*
X134000000Y-58100000D01*
X144910000Y-56190000D02*
X143000000Y-58100000D01*
X137290000Y-72810000D02*
X137290000Y-71990000D01*
X137290000Y-71990000D02*
X136000000Y-70700000D01*
X136000000Y-70700000D02*
X133500000Y-70700000D01*
X137290000Y-72810000D02*
X137490000Y-72810000D01*
X137490000Y-72810000D02*
X139000000Y-71300000D01*
X144700000Y-71300000D02*
X144800000Y-71200000D01*
X139000000Y-71300000D02*
X144700000Y-71300000D01*
X144910000Y-52990000D02*
X144910000Y-52510000D01*
X137290000Y-72810000D02*
X137290000Y-72610000D01*
X137290000Y-72810000D02*
X137290000Y-72790000D01*
X68950000Y-82800000D02*
X70600000Y-82800000D01*
X70307000Y-79691000D02*
X70307000Y-79493000D01*
X70307000Y-79493000D02*
X71600000Y-78200000D01*
X133500000Y-66800000D02*
X134210000Y-66090000D01*
X132900000Y-78200000D02*
X133000000Y-78300000D01*
X71600000Y-78200000D02*
X132900000Y-78200000D01*
X134210000Y-66090000D02*
X134210000Y-65190000D01*
X70600000Y-82800000D02*
X70600000Y-79984000D01*
X70600000Y-79984000D02*
X70307000Y-79691000D01*
D39*
X111500000Y-48600000D02*
X112200000Y-48600000D01*
X109450000Y-51550000D02*
X109600000Y-51400000D01*
X107600000Y-51550000D02*
X109450000Y-51550000D01*
X120262004Y-48837996D02*
X121400000Y-47700000D01*
X112437996Y-48837996D02*
X120262004Y-48837996D01*
X112200000Y-48600000D02*
X112437996Y-48837996D01*
X132270000Y-29102600D02*
X132300000Y-29072600D01*
X125800000Y-28000000D02*
X125800000Y-43300000D01*
X127600000Y-26200000D02*
X125800000Y-28000000D01*
X131700000Y-26200000D02*
X127600000Y-26200000D01*
X132270000Y-26770000D02*
X131700000Y-26200000D01*
X132270000Y-29102600D02*
X132270000Y-26770000D01*
X121400000Y-47700000D02*
X125800000Y-43300000D01*
X106000000Y-51350000D02*
X107400000Y-51350000D01*
X112800000Y-48100000D02*
X112943006Y-48100000D01*
X110900000Y-51350000D02*
X110900000Y-51400000D01*
X120104188Y-48456994D02*
X121561182Y-47000000D01*
X113300000Y-48456994D02*
X120104188Y-48456994D01*
X112943006Y-48100000D02*
X113300000Y-48456994D01*
X133500000Y-27538600D02*
X133540000Y-27578600D01*
X125418998Y-43142184D02*
X121561182Y-47000000D01*
X125418998Y-27842184D02*
X125418998Y-43142184D01*
X127461182Y-25800000D02*
X125418998Y-27842184D01*
X132100000Y-25800000D02*
X127461182Y-25800000D01*
X133500000Y-27200000D02*
X132100000Y-25800000D01*
X133500000Y-27538600D02*
X133500000Y-27200000D01*
X110900000Y-51350000D02*
X112400000Y-51350000D01*
X112400000Y-51350000D02*
X112500000Y-51450000D01*
X98800000Y-80100000D02*
X99181002Y-80100000D01*
X99481002Y-79800000D02*
X111200000Y-79800000D01*
X99181002Y-80100000D02*
X99481002Y-79800000D01*
X98800000Y-79100000D02*
X108700000Y-79100000D01*
X118600000Y-81000000D02*
X108500000Y-81000000D01*
X105200000Y-81200000D02*
X104900000Y-80900000D01*
X108300000Y-81200000D02*
X105200000Y-81200000D01*
X108500000Y-81000000D02*
X108300000Y-81200000D01*
X118500000Y-80900000D02*
X118600000Y-81000000D01*
X103650000Y-71575000D02*
X104275000Y-71575000D01*
X104275000Y-71575000D02*
X104800000Y-72100000D01*
X104800000Y-72100000D02*
X104800000Y-74400000D01*
X104800000Y-74400000D02*
X104350000Y-74850000D01*
X104350000Y-74850000D02*
X103600000Y-74850000D01*
X103600000Y-74850000D02*
X104150000Y-74850000D01*
X108000000Y-80500000D02*
X118000000Y-80500000D01*
X107300000Y-74300000D02*
X108100000Y-74300000D01*
X118000000Y-80500000D02*
X118500000Y-80000000D01*
X106200000Y-74850000D02*
X106750000Y-74850000D01*
X106750000Y-74850000D02*
X107300000Y-74300000D01*
X107300000Y-74300000D02*
X107300000Y-72725000D01*
X107300000Y-72725000D02*
X106175000Y-71600000D01*
X134400000Y-78500000D02*
X133700000Y-79200000D01*
X133700000Y-79200000D02*
X130600000Y-79200000D01*
X134700000Y-78500000D02*
X134400000Y-78500000D01*
X122650000Y-48160000D02*
X122730000Y-48240000D01*
X122730000Y-48240000D02*
X131000000Y-48240000D01*
X129130000Y-72810000D02*
X131670000Y-72810000D01*
X130800000Y-77000000D02*
X134350000Y-77000000D01*
X130400000Y-77400000D02*
X130800000Y-77000000D01*
X129130000Y-73170000D02*
X129130000Y-72810000D01*
X129130000Y-73170000D02*
X127600000Y-74700000D01*
X124750000Y-56650000D02*
X124700000Y-56600000D01*
X126000000Y-56650000D02*
X124750000Y-56650000D01*
X124800000Y-77400000D02*
X118900000Y-77400000D01*
X103700000Y-73450000D02*
X103700000Y-73800000D01*
X103700000Y-73800000D02*
X103600000Y-73900000D01*
X106200000Y-73900000D02*
X106200000Y-73450000D01*
X104600000Y-52800000D02*
X104650000Y-52800000D01*
X110900000Y-53250000D02*
X110900000Y-53200000D01*
X106000000Y-53250000D02*
X106000000Y-53100000D01*
X106000000Y-53100000D02*
X106500000Y-52600000D01*
X110250000Y-52600000D02*
X110900000Y-53250000D01*
X106500000Y-52600000D02*
X110250000Y-52600000D01*
X106000000Y-53250000D02*
X105100000Y-53250000D01*
X105100000Y-53250000D02*
X104650000Y-52800000D01*
X108700000Y-58250000D02*
X108350000Y-58250000D01*
X108350000Y-58250000D02*
X107400000Y-57300000D01*
X107400000Y-57300000D02*
X107400000Y-53650000D01*
X107400000Y-53650000D02*
X107600000Y-53450000D01*
X108700000Y-58250000D02*
X108700000Y-59400000D01*
X112250000Y-57450000D02*
X112250000Y-55750000D01*
X112500000Y-55500000D02*
X112500000Y-53350000D01*
X112250000Y-55750000D02*
X112500000Y-55500000D01*
X111200000Y-58250000D02*
X111450000Y-58250000D01*
X111450000Y-58250000D02*
X112250000Y-57450000D01*
X111200000Y-58250000D02*
X111200000Y-59400000D01*
X67050000Y-82800000D02*
X67050000Y-85653100D01*
X67050000Y-85653100D02*
X67043100Y-85660000D01*
X134350000Y-75100000D02*
X134350000Y-72950000D01*
X134350000Y-72950000D02*
X134210000Y-72810000D01*
X108700000Y-56350000D02*
X108700000Y-54804000D01*
X108700000Y-54804000D02*
X108724000Y-54780000D01*
X111200000Y-56350000D02*
X111200000Y-54844000D01*
X111200000Y-54844000D02*
X111264000Y-54780000D01*
X111275000Y-54769000D02*
X111264000Y-54780000D01*
X119350000Y-74300000D02*
X119350000Y-73950000D01*
X119350000Y-73950000D02*
X120600000Y-72700000D01*
X120600000Y-72700000D02*
X122700000Y-72700000D01*
X122700000Y-72700000D02*
X123964000Y-71436000D01*
X123964000Y-71436000D02*
X123964000Y-70020000D01*
X117450000Y-74300000D02*
X116450000Y-74300000D01*
X121424000Y-70020000D02*
X121424000Y-71774000D01*
X121424000Y-71774000D02*
X121500000Y-71850000D01*
X121500000Y-73750000D02*
X121500000Y-74600000D01*
X121500000Y-74600000D02*
X121400000Y-74700000D01*
X123964000Y-54780000D02*
X125970000Y-54780000D01*
X125970000Y-54780000D02*
X126000000Y-54750000D01*
X36400000Y-82300000D02*
X36953000Y-82300000D01*
X36953000Y-82300000D02*
X36957000Y-82296000D01*
X33927000Y-80500000D02*
X33909000Y-80518000D01*
X33950000Y-80500000D02*
X33927000Y-80500000D01*
X47000000Y-61649680D02*
X47000000Y-62800000D01*
X33975000Y-84100000D02*
X33950000Y-84100000D01*
X133000000Y-41550000D02*
X133000000Y-41500000D01*
X42676030Y-67400000D02*
X44500000Y-67400000D01*
X45300000Y-61200000D02*
X45600000Y-60900000D01*
X45600000Y-60900000D02*
X45950000Y-60900000D01*
X45950000Y-60900000D02*
X46050040Y-61000040D01*
X44500000Y-67400000D02*
X45300000Y-66600000D01*
X45300000Y-61200000D02*
X45300000Y-66600000D01*
X42676030Y-67400000D02*
X42610400Y-67465630D01*
X46250080Y-60800000D02*
X46050040Y-61000040D01*
X47949960Y-61149960D02*
X47600000Y-60800000D01*
X47600000Y-60800000D02*
X46250080Y-60800000D01*
X46050040Y-61000040D02*
X46050040Y-61649680D01*
X49851640Y-60848360D02*
X49851640Y-60698780D01*
X49851640Y-60698780D02*
X48401140Y-60698780D01*
X48401140Y-60698780D02*
X47949960Y-61149960D01*
X47949960Y-61149960D02*
X47949960Y-61649680D01*
X47949960Y-61149960D02*
X47949960Y-61649680D01*
X42639370Y-66200000D02*
X44600000Y-66200000D01*
X44800000Y-66000000D02*
X44600000Y-66200000D01*
X45925040Y-59774960D02*
X45875040Y-59774960D01*
X44800000Y-65900000D02*
X44800000Y-60900000D01*
X44800000Y-60900000D02*
X45925040Y-59774960D01*
X45875040Y-59774960D02*
X46050040Y-59599960D01*
X44800000Y-65900000D02*
X44800000Y-66000000D01*
X42639370Y-66200000D02*
X42610400Y-66171030D01*
X46050040Y-59599960D02*
X46050040Y-59150320D01*
X46050040Y-59599960D02*
X46050040Y-59150320D01*
X47600000Y-60000000D02*
X46450080Y-60000000D01*
X46450080Y-60000000D02*
X46050040Y-59599960D01*
X47949960Y-59650040D02*
X47600000Y-60000000D01*
X46050040Y-59599960D02*
X46050040Y-59150320D01*
X46050040Y-59599960D02*
X46050040Y-59150320D01*
X49851640Y-59901220D02*
X48401220Y-59901220D01*
X48401220Y-59901220D02*
X47949960Y-59449960D01*
X47949960Y-59449960D02*
X47949960Y-59150320D01*
X47949960Y-59549960D02*
X47949960Y-59150320D01*
X47949960Y-59650040D02*
X47949960Y-59150320D01*
X47949960Y-59550040D02*
X47949960Y-59150320D01*
X42610400Y-63731830D02*
X42610400Y-60789600D01*
X45400000Y-58000000D02*
X47000008Y-58000000D01*
X42610400Y-60789600D02*
X45400000Y-58000000D01*
X47000000Y-58300000D02*
X47000000Y-58000008D01*
X47000000Y-58000008D02*
X47000008Y-58000000D01*
X47000000Y-59150320D02*
X47000000Y-58300000D01*
X51548360Y-59901220D02*
X52501220Y-59901220D01*
X54600000Y-62000000D02*
X54600000Y-63400000D01*
X52501220Y-59901220D02*
X54600000Y-62000000D01*
X51548360Y-60698780D02*
X52698780Y-60698780D01*
X53800000Y-61800000D02*
X52698780Y-60698780D01*
X53800000Y-64800000D02*
X53800000Y-61800000D01*
X53800000Y-64800000D02*
X55000000Y-66000000D01*
X51548360Y-60698780D02*
X51548360Y-60748360D01*
X144900000Y-60700000D02*
X144910000Y-60690000D01*
X144910000Y-60690000D02*
X144910000Y-60610000D01*
X122450000Y-92800000D02*
X122450000Y-93750000D01*
X122450000Y-93750000D02*
X123600000Y-94900000D01*
X122450000Y-92800000D02*
X120300000Y-92800000D01*
X120300000Y-92800000D02*
X117100000Y-96000000D01*
X125350000Y-92800000D02*
X125350000Y-94650000D01*
X125350000Y-94650000D02*
X125600000Y-94900000D01*
X125350000Y-94650000D02*
X125600000Y-94900000D01*
X125350000Y-92800000D02*
X126900000Y-92800000D01*
X126900000Y-92800000D02*
X127000000Y-92700000D01*
X125800000Y-92900000D02*
X125350000Y-92800000D01*
X123964000Y-59860000D02*
X117840000Y-59860000D01*
X46450000Y-75800000D02*
X39050000Y-83200000D01*
X81400000Y-75800000D02*
X46450000Y-75800000D01*
X92900000Y-64300000D02*
X81400000Y-75800000D01*
X113400000Y-64300000D02*
X92900000Y-64300000D01*
X117840000Y-59860000D02*
X113400000Y-64300000D01*
X35425000Y-80500000D02*
X35425000Y-80462500D01*
X35425000Y-80462500D02*
X34754001Y-81133499D01*
X34754001Y-81133499D02*
X34754001Y-83458501D01*
X34754001Y-83458501D02*
X35425000Y-84129500D01*
X35425000Y-84129500D02*
X35425000Y-84100000D01*
X37454000Y-80500000D02*
X39050000Y-82096000D01*
X35425000Y-80500000D02*
X37454000Y-80500000D01*
X39050000Y-82096000D02*
X39050000Y-83200000D01*
X109200000Y-92300000D02*
X102100000Y-92300000D01*
X112500000Y-89000000D02*
X109200000Y-92300000D01*
D40*
X130400000Y-81500000D02*
X130400000Y-80300000D01*
X126300000Y-85600000D02*
X130400000Y-81500000D01*
X138850000Y-62900000D02*
X138850000Y-63050000D01*
X138850000Y-63050000D02*
X139500000Y-63700000D01*
X142000000Y-63700000D02*
X142100000Y-63600000D01*
X139500000Y-63700000D02*
X142000000Y-63700000D01*
X129300000Y-53150000D02*
X126350000Y-53150000D01*
X129300000Y-53100000D02*
X129300000Y-53150000D01*
X126350000Y-53150000D02*
X126300000Y-53100000D01*
X138850000Y-62900000D02*
X137900000Y-62900000D01*
X97950000Y-52600000D02*
X98000000Y-52600000D01*
X136250000Y-75100000D02*
X136250000Y-77000000D01*
X102750000Y-52800000D02*
X101500000Y-52800000D01*
X107350000Y-76750000D02*
X106200000Y-76750000D01*
X106200000Y-76750000D02*
X103600000Y-76750000D01*
X115200000Y-67800000D02*
X107700000Y-67800000D01*
X107400000Y-76700000D02*
X107350000Y-76750000D01*
D41*
X71621226Y-90773818D02*
X72038942Y-90774182D01*
X72339485Y-90650000D01*
X88256189Y-90650000D01*
X88409159Y-90754520D01*
X88667000Y-90806734D01*
X97667000Y-90806734D01*
X97907876Y-90761410D01*
X97950000Y-90734304D01*
X97950000Y-104950000D01*
X69933115Y-104950000D01*
X69949818Y-104909774D01*
X69950182Y-104492058D01*
X69809094Y-104150599D01*
X70307000Y-104249639D01*
X70886230Y-104134423D01*
X71377277Y-103806316D01*
X71577000Y-103507409D01*
X71776723Y-103806316D01*
X72267770Y-104134423D01*
X72847000Y-104249639D01*
X73426230Y-104134423D01*
X73917277Y-103806316D01*
X74117000Y-103507409D01*
X74316723Y-103806316D01*
X74807770Y-104134423D01*
X75387000Y-104249639D01*
X75966230Y-104134423D01*
X76457277Y-103806316D01*
X76785384Y-103315269D01*
X76900600Y-102736039D01*
X76900600Y-102365961D01*
X76785384Y-101786731D01*
X76671267Y-101615942D01*
X79400818Y-101615942D01*
X79560334Y-102002000D01*
X79855446Y-102297628D01*
X80241226Y-102457818D01*
X80658942Y-102458182D01*
X81045000Y-102298666D01*
X81340628Y-102003554D01*
X81500818Y-101617774D01*
X81501182Y-101200058D01*
X81341666Y-100814000D01*
X81046554Y-100518372D01*
X80660774Y-100358182D01*
X80243058Y-100357818D01*
X79857000Y-100517334D01*
X79561372Y-100812446D01*
X79401182Y-101198226D01*
X79400818Y-101615942D01*
X76671267Y-101615942D01*
X76457277Y-101295684D01*
X75966230Y-100967577D01*
X75387000Y-100852361D01*
X74807770Y-100967577D01*
X74316723Y-101295684D01*
X74117000Y-101594591D01*
X73917277Y-101295684D01*
X73426230Y-100967577D01*
X72847000Y-100852361D01*
X72267770Y-100967577D01*
X71776723Y-101295684D01*
X71577000Y-101594591D01*
X71377277Y-101295684D01*
X70886230Y-100967577D01*
X70307000Y-100852361D01*
X70116391Y-100890276D01*
X70149818Y-100809774D01*
X70150182Y-100392058D01*
X69990666Y-100006000D01*
X69934111Y-99949346D01*
X70121550Y-99986630D01*
X72016450Y-99986630D01*
X72590334Y-99872477D01*
X73076849Y-99547399D01*
X73401927Y-99060884D01*
X73516080Y-98487000D01*
X73475089Y-98280922D01*
X81448818Y-98280922D01*
X81608334Y-98666980D01*
X81903446Y-98962608D01*
X82289226Y-99122798D01*
X82706942Y-99123162D01*
X83093000Y-98963646D01*
X83388628Y-98668534D01*
X83548818Y-98282754D01*
X83549182Y-97865038D01*
X83389666Y-97478980D01*
X83094554Y-97183352D01*
X82708774Y-97023162D01*
X82291058Y-97022798D01*
X81905000Y-97182314D01*
X81609372Y-97477426D01*
X81449182Y-97863206D01*
X81448818Y-98280922D01*
X73475089Y-98280922D01*
X73401927Y-97913116D01*
X73076849Y-97426601D01*
X72590334Y-97101523D01*
X72016450Y-96987370D01*
X70121550Y-96987370D01*
X69547666Y-97101523D01*
X69061151Y-97426601D01*
X68736073Y-97913116D01*
X68621920Y-98487000D01*
X68736073Y-99060884D01*
X69061151Y-99547399D01*
X69064997Y-99549969D01*
X68892058Y-99549818D01*
X68506000Y-99709334D01*
X68210372Y-100004446D01*
X68050182Y-100390226D01*
X68050000Y-100599084D01*
X68050000Y-93407000D01*
X68621920Y-93407000D01*
X68736073Y-93980884D01*
X69061151Y-94467399D01*
X69547666Y-94792477D01*
X70121550Y-94906630D01*
X72016450Y-94906630D01*
X72590334Y-94792477D01*
X73076849Y-94467399D01*
X73401927Y-93980884D01*
X73516080Y-93407000D01*
X73401927Y-92833116D01*
X73076849Y-92346601D01*
X72590334Y-92021523D01*
X72016450Y-91907370D01*
X70121550Y-91907370D01*
X69547666Y-92021523D01*
X69061151Y-92346601D01*
X68736073Y-92833116D01*
X68621920Y-93407000D01*
X68050000Y-93407000D01*
X68050000Y-90650000D01*
X71323039Y-90650000D01*
X71621226Y-90773818D01*
G04 #@! TA.AperFunction,Conductor*
G36*
X71621226Y-90773818D02*
G01*
X72038942Y-90774182D01*
X72339485Y-90650000D01*
X88256189Y-90650000D01*
X88409159Y-90754520D01*
X88667000Y-90806734D01*
X97667000Y-90806734D01*
X97907876Y-90761410D01*
X97950000Y-90734304D01*
X97950000Y-104950000D01*
X69933115Y-104950000D01*
X69949818Y-104909774D01*
X69950182Y-104492058D01*
X69809094Y-104150599D01*
X70307000Y-104249639D01*
X70886230Y-104134423D01*
X71377277Y-103806316D01*
X71577000Y-103507409D01*
X71776723Y-103806316D01*
X72267770Y-104134423D01*
X72847000Y-104249639D01*
X73426230Y-104134423D01*
X73917277Y-103806316D01*
X74117000Y-103507409D01*
X74316723Y-103806316D01*
X74807770Y-104134423D01*
X75387000Y-104249639D01*
X75966230Y-104134423D01*
X76457277Y-103806316D01*
X76785384Y-103315269D01*
X76900600Y-102736039D01*
X76900600Y-102365961D01*
X76785384Y-101786731D01*
X76671267Y-101615942D01*
X79400818Y-101615942D01*
X79560334Y-102002000D01*
X79855446Y-102297628D01*
X80241226Y-102457818D01*
X80658942Y-102458182D01*
X81045000Y-102298666D01*
X81340628Y-102003554D01*
X81500818Y-101617774D01*
X81501182Y-101200058D01*
X81341666Y-100814000D01*
X81046554Y-100518372D01*
X80660774Y-100358182D01*
X80243058Y-100357818D01*
X79857000Y-100517334D01*
X79561372Y-100812446D01*
X79401182Y-101198226D01*
X79400818Y-101615942D01*
X76671267Y-101615942D01*
X76457277Y-101295684D01*
X75966230Y-100967577D01*
X75387000Y-100852361D01*
X74807770Y-100967577D01*
X74316723Y-101295684D01*
X74117000Y-101594591D01*
X73917277Y-101295684D01*
X73426230Y-100967577D01*
X72847000Y-100852361D01*
X72267770Y-100967577D01*
X71776723Y-101295684D01*
X71577000Y-101594591D01*
X71377277Y-101295684D01*
X70886230Y-100967577D01*
X70307000Y-100852361D01*
X70116391Y-100890276D01*
X70149818Y-100809774D01*
X70150182Y-100392058D01*
X69990666Y-100006000D01*
X69934111Y-99949346D01*
X70121550Y-99986630D01*
X72016450Y-99986630D01*
X72590334Y-99872477D01*
X73076849Y-99547399D01*
X73401927Y-99060884D01*
X73516080Y-98487000D01*
X73475089Y-98280922D01*
X81448818Y-98280922D01*
X81608334Y-98666980D01*
X81903446Y-98962608D01*
X82289226Y-99122798D01*
X82706942Y-99123162D01*
X83093000Y-98963646D01*
X83388628Y-98668534D01*
X83548818Y-98282754D01*
X83549182Y-97865038D01*
X83389666Y-97478980D01*
X83094554Y-97183352D01*
X82708774Y-97023162D01*
X82291058Y-97022798D01*
X81905000Y-97182314D01*
X81609372Y-97477426D01*
X81449182Y-97863206D01*
X81448818Y-98280922D01*
X73475089Y-98280922D01*
X73401927Y-97913116D01*
X73076849Y-97426601D01*
X72590334Y-97101523D01*
X72016450Y-96987370D01*
X70121550Y-96987370D01*
X69547666Y-97101523D01*
X69061151Y-97426601D01*
X68736073Y-97913116D01*
X68621920Y-98487000D01*
X68736073Y-99060884D01*
X69061151Y-99547399D01*
X69064997Y-99549969D01*
X68892058Y-99549818D01*
X68506000Y-99709334D01*
X68210372Y-100004446D01*
X68050182Y-100390226D01*
X68050000Y-100599084D01*
X68050000Y-93407000D01*
X68621920Y-93407000D01*
X68736073Y-93980884D01*
X69061151Y-94467399D01*
X69547666Y-94792477D01*
X70121550Y-94906630D01*
X72016450Y-94906630D01*
X72590334Y-94792477D01*
X73076849Y-94467399D01*
X73401927Y-93980884D01*
X73516080Y-93407000D01*
X73401927Y-92833116D01*
X73076849Y-92346601D01*
X72590334Y-92021523D01*
X72016450Y-91907370D01*
X70121550Y-91907370D01*
X69547666Y-92021523D01*
X69061151Y-92346601D01*
X68736073Y-92833116D01*
X68621920Y-93407000D01*
X68050000Y-93407000D01*
X68050000Y-90650000D01*
X71323039Y-90650000D01*
X71621226Y-90773818D01*
G37*
G04 #@! TD.AperFunction*
D39*
X97764821Y-79304971D02*
X97873000Y-79566785D01*
X97873000Y-79633562D01*
X97765180Y-79893223D01*
X97764821Y-80304971D01*
X97873000Y-80566785D01*
X97873000Y-89873000D01*
X92617719Y-89873000D01*
X92584890Y-89850569D01*
X92333000Y-89799560D01*
X87597824Y-89799560D01*
X87598179Y-89392029D01*
X87440942Y-89011485D01*
X87150046Y-88720081D01*
X86769777Y-88562180D01*
X86358029Y-88561821D01*
X85994567Y-88712000D01*
X83066585Y-88712000D01*
X82705777Y-88562180D01*
X82294029Y-88561821D01*
X81930567Y-88712000D01*
X81356005Y-88712000D01*
X81356000Y-88711999D01*
X81017325Y-88779367D01*
X80730210Y-88971210D01*
X80730208Y-88971213D01*
X79828421Y-89873000D01*
X77670508Y-89873000D01*
X77750515Y-89839942D01*
X78041919Y-89549046D01*
X78199820Y-89168777D01*
X78200179Y-88757029D01*
X78073978Y-88451598D01*
X78399948Y-88233792D01*
X78721775Y-87752143D01*
X78834786Y-87184000D01*
X78721775Y-86615857D01*
X78399948Y-86134208D01*
X77918299Y-85812381D01*
X77350156Y-85699370D01*
X75455844Y-85699370D01*
X74887701Y-85812381D01*
X74406052Y-86134208D01*
X74084225Y-86615857D01*
X73971214Y-87184000D01*
X74084225Y-87752143D01*
X74406052Y-88233792D01*
X74514842Y-88306483D01*
X74488377Y-88324166D01*
X74340185Y-88423184D01*
X73801370Y-88962000D01*
X72532765Y-88962000D01*
X72418046Y-88847081D01*
X72037777Y-88689180D01*
X71626029Y-88688821D01*
X71245485Y-88846058D01*
X70954081Y-89136954D01*
X70796180Y-89517223D01*
X70795870Y-89873000D01*
X68127000Y-89873000D01*
X68127000Y-86887495D01*
X68427946Y-86587073D01*
X68677306Y-85986547D01*
X68677874Y-85336306D01*
X68429562Y-84735345D01*
X68127000Y-84432255D01*
X68127000Y-83887594D01*
X68135910Y-83901441D01*
X68348110Y-84046431D01*
X68600000Y-84097440D01*
X69300000Y-84097440D01*
X69535317Y-84053162D01*
X69607237Y-84006882D01*
X69635910Y-84051441D01*
X69848110Y-84196431D01*
X70100000Y-84247440D01*
X71100000Y-84247440D01*
X71252158Y-84218809D01*
X71119705Y-84273538D01*
X70659514Y-84732927D01*
X70410154Y-85333453D01*
X70409586Y-85983694D01*
X70657898Y-86584655D01*
X71117287Y-87044846D01*
X71717813Y-87294206D01*
X72368054Y-87294774D01*
X72969015Y-87046462D01*
X73429206Y-86587073D01*
X73678566Y-85986547D01*
X73679134Y-85336306D01*
X73430822Y-84735345D01*
X72971433Y-84275154D01*
X72370907Y-84025794D01*
X71720666Y-84025226D01*
X71416575Y-84150874D01*
X71551441Y-84064090D01*
X71696431Y-83851890D01*
X71747440Y-83600000D01*
X71747440Y-82000000D01*
X72452560Y-82000000D01*
X72452560Y-83600000D01*
X72496838Y-83835317D01*
X72635910Y-84051441D01*
X72848110Y-84196431D01*
X73100000Y-84247440D01*
X74100000Y-84247440D01*
X74335317Y-84203162D01*
X74551441Y-84064090D01*
X74696431Y-83851890D01*
X74747440Y-83600000D01*
X74747440Y-83562000D01*
X75321966Y-83562000D01*
X75455844Y-83588630D01*
X77350156Y-83588630D01*
X77918299Y-83475619D01*
X78399948Y-83153792D01*
X78721775Y-82672143D01*
X78834786Y-82104000D01*
X78721775Y-81535857D01*
X78399948Y-81054208D01*
X77918299Y-80732381D01*
X77350156Y-80619370D01*
X75455844Y-80619370D01*
X74887701Y-80732381D01*
X74406052Y-81054208D01*
X74193983Y-81371592D01*
X74100000Y-81352560D01*
X73100000Y-81352560D01*
X72864683Y-81396838D01*
X72648559Y-81535910D01*
X72503569Y-81748110D01*
X72452560Y-82000000D01*
X71747440Y-82000000D01*
X71703162Y-81764683D01*
X71564090Y-81548559D01*
X71485000Y-81494519D01*
X71485000Y-80758322D01*
X71577000Y-80620634D01*
X71787330Y-80935415D01*
X72273511Y-81260271D01*
X72847000Y-81374345D01*
X73420489Y-81260271D01*
X73906670Y-80935415D01*
X74231526Y-80449234D01*
X74345600Y-79875745D01*
X74345600Y-79506255D01*
X74261807Y-79085000D01*
X97765013Y-79085000D01*
X97764821Y-79304971D01*
G04 #@! TA.AperFunction,Conductor*
D41*
G36*
X97764821Y-79304971D02*
G01*
X97873000Y-79566785D01*
X97873000Y-79633562D01*
X97765180Y-79893223D01*
X97764821Y-80304971D01*
X97873000Y-80566785D01*
X97873000Y-89873000D01*
X92617719Y-89873000D01*
X92584890Y-89850569D01*
X92333000Y-89799560D01*
X87597824Y-89799560D01*
X87598179Y-89392029D01*
X87440942Y-89011485D01*
X87150046Y-88720081D01*
X86769777Y-88562180D01*
X86358029Y-88561821D01*
X85994567Y-88712000D01*
X83066585Y-88712000D01*
X82705777Y-88562180D01*
X82294029Y-88561821D01*
X81930567Y-88712000D01*
X81356005Y-88712000D01*
X81356000Y-88711999D01*
X81017325Y-88779367D01*
X80730210Y-88971210D01*
X80730208Y-88971213D01*
X79828421Y-89873000D01*
X77670508Y-89873000D01*
X77750515Y-89839942D01*
X78041919Y-89549046D01*
X78199820Y-89168777D01*
X78200179Y-88757029D01*
X78073978Y-88451598D01*
X78399948Y-88233792D01*
X78721775Y-87752143D01*
X78834786Y-87184000D01*
X78721775Y-86615857D01*
X78399948Y-86134208D01*
X77918299Y-85812381D01*
X77350156Y-85699370D01*
X75455844Y-85699370D01*
X74887701Y-85812381D01*
X74406052Y-86134208D01*
X74084225Y-86615857D01*
X73971214Y-87184000D01*
X74084225Y-87752143D01*
X74406052Y-88233792D01*
X74514842Y-88306483D01*
X74488377Y-88324166D01*
X74340185Y-88423184D01*
X73801370Y-88962000D01*
X72532765Y-88962000D01*
X72418046Y-88847081D01*
X72037777Y-88689180D01*
X71626029Y-88688821D01*
X71245485Y-88846058D01*
X70954081Y-89136954D01*
X70796180Y-89517223D01*
X70795870Y-89873000D01*
X68127000Y-89873000D01*
X68127000Y-86887495D01*
X68427946Y-86587073D01*
X68677306Y-85986547D01*
X68677874Y-85336306D01*
X68429562Y-84735345D01*
X68127000Y-84432255D01*
X68127000Y-83887594D01*
X68135910Y-83901441D01*
X68348110Y-84046431D01*
X68600000Y-84097440D01*
X69300000Y-84097440D01*
X69535317Y-84053162D01*
X69607237Y-84006882D01*
X69635910Y-84051441D01*
X69848110Y-84196431D01*
X70100000Y-84247440D01*
X71100000Y-84247440D01*
X71252158Y-84218809D01*
X71119705Y-84273538D01*
X70659514Y-84732927D01*
X70410154Y-85333453D01*
X70409586Y-85983694D01*
X70657898Y-86584655D01*
X71117287Y-87044846D01*
X71717813Y-87294206D01*
X72368054Y-87294774D01*
X72969015Y-87046462D01*
X73429206Y-86587073D01*
X73678566Y-85986547D01*
X73679134Y-85336306D01*
X73430822Y-84735345D01*
X72971433Y-84275154D01*
X72370907Y-84025794D01*
X71720666Y-84025226D01*
X71416575Y-84150874D01*
X71551441Y-84064090D01*
X71696431Y-83851890D01*
X71747440Y-83600000D01*
X71747440Y-82000000D01*
X72452560Y-82000000D01*
X72452560Y-83600000D01*
X72496838Y-83835317D01*
X72635910Y-84051441D01*
X72848110Y-84196431D01*
X73100000Y-84247440D01*
X74100000Y-84247440D01*
X74335317Y-84203162D01*
X74551441Y-84064090D01*
X74696431Y-83851890D01*
X74747440Y-83600000D01*
X74747440Y-83562000D01*
X75321966Y-83562000D01*
X75455844Y-83588630D01*
X77350156Y-83588630D01*
X77918299Y-83475619D01*
X78399948Y-83153792D01*
X78721775Y-82672143D01*
X78834786Y-82104000D01*
X78721775Y-81535857D01*
X78399948Y-81054208D01*
X77918299Y-80732381D01*
X77350156Y-80619370D01*
X75455844Y-80619370D01*
X74887701Y-80732381D01*
X74406052Y-81054208D01*
X74193983Y-81371592D01*
X74100000Y-81352560D01*
X73100000Y-81352560D01*
X72864683Y-81396838D01*
X72648559Y-81535910D01*
X72503569Y-81748110D01*
X72452560Y-82000000D01*
X71747440Y-82000000D01*
X71703162Y-81764683D01*
X71564090Y-81548559D01*
X71485000Y-81494519D01*
X71485000Y-80758322D01*
X71577000Y-80620634D01*
X71787330Y-80935415D01*
X72273511Y-81260271D01*
X72847000Y-81374345D01*
X73420489Y-81260271D01*
X73906670Y-80935415D01*
X74231526Y-80449234D01*
X74345600Y-79875745D01*
X74345600Y-79506255D01*
X74261807Y-79085000D01*
X97765013Y-79085000D01*
X97764821Y-79304971D01*
G37*
G04 #@! TD.AperFunction*
D39*
X129873196Y-27353442D02*
X129872805Y-27801791D01*
X130044019Y-28216160D01*
X130146000Y-28318319D01*
X130146000Y-29400000D01*
X130211007Y-29726812D01*
X130364547Y-29956600D01*
X130396131Y-30003869D01*
X131672929Y-31280667D01*
X131672805Y-31423191D01*
X131844019Y-31837560D01*
X132160772Y-32154867D01*
X132574842Y-32326804D01*
X133023191Y-32327195D01*
X133437560Y-32155981D01*
X133754867Y-31839228D01*
X133926804Y-31425158D01*
X133927195Y-30976809D01*
X133755981Y-30562440D01*
X133439228Y-30245133D01*
X133025158Y-30073196D01*
X132880808Y-30073070D01*
X132878377Y-30070639D01*
X132907560Y-30058581D01*
X133224867Y-29741828D01*
X133396804Y-29327758D01*
X133397195Y-28879409D01*
X133325301Y-28705413D01*
X133763191Y-28705795D01*
X134177560Y-28534581D01*
X134494867Y-28217828D01*
X134666804Y-27803758D01*
X134667195Y-27355409D01*
X134572818Y-27127000D01*
X134873000Y-27127000D01*
X134873000Y-40373151D01*
X134476809Y-40372805D01*
X134062440Y-40544019D01*
X133824907Y-40781137D01*
X133639228Y-40595133D01*
X133225158Y-40423196D01*
X132776809Y-40422805D01*
X132362440Y-40594019D01*
X132045133Y-40910772D01*
X131873196Y-41324842D01*
X131872805Y-41773191D01*
X132044019Y-42187560D01*
X132360772Y-42504867D01*
X132774842Y-42676804D01*
X133223191Y-42677195D01*
X133637560Y-42505981D01*
X133875093Y-42268863D01*
X134060772Y-42454867D01*
X134474842Y-42626804D01*
X134873000Y-42627151D01*
X134873000Y-45873000D01*
X131127000Y-45873000D01*
X131127000Y-32000000D01*
X131116994Y-31950590D01*
X131088553Y-31908965D01*
X131046159Y-31881685D01*
X131000000Y-31873000D01*
X129127000Y-31873000D01*
X129127000Y-27127000D01*
X129967223Y-27127000D01*
X129873196Y-27353442D01*
G04 #@! TA.AperFunction,Conductor*
D41*
G36*
X129873196Y-27353442D02*
G01*
X129872805Y-27801791D01*
X130044019Y-28216160D01*
X130146000Y-28318319D01*
X130146000Y-29400000D01*
X130211007Y-29726812D01*
X130364547Y-29956600D01*
X130396131Y-30003869D01*
X131672929Y-31280667D01*
X131672805Y-31423191D01*
X131844019Y-31837560D01*
X132160772Y-32154867D01*
X132574842Y-32326804D01*
X133023191Y-32327195D01*
X133437560Y-32155981D01*
X133754867Y-31839228D01*
X133926804Y-31425158D01*
X133927195Y-30976809D01*
X133755981Y-30562440D01*
X133439228Y-30245133D01*
X133025158Y-30073196D01*
X132880808Y-30073070D01*
X132878377Y-30070639D01*
X132907560Y-30058581D01*
X133224867Y-29741828D01*
X133396804Y-29327758D01*
X133397195Y-28879409D01*
X133325301Y-28705413D01*
X133763191Y-28705795D01*
X134177560Y-28534581D01*
X134494867Y-28217828D01*
X134666804Y-27803758D01*
X134667195Y-27355409D01*
X134572818Y-27127000D01*
X134873000Y-27127000D01*
X134873000Y-40373151D01*
X134476809Y-40372805D01*
X134062440Y-40544019D01*
X133824907Y-40781137D01*
X133639228Y-40595133D01*
X133225158Y-40423196D01*
X132776809Y-40422805D01*
X132362440Y-40594019D01*
X132045133Y-40910772D01*
X131873196Y-41324842D01*
X131872805Y-41773191D01*
X132044019Y-42187560D01*
X132360772Y-42504867D01*
X132774842Y-42676804D01*
X133223191Y-42677195D01*
X133637560Y-42505981D01*
X133875093Y-42268863D01*
X134060772Y-42454867D01*
X134474842Y-42626804D01*
X134873000Y-42627151D01*
X134873000Y-45873000D01*
X131127000Y-45873000D01*
X131127000Y-32000000D01*
X131116994Y-31950590D01*
X131088553Y-31908965D01*
X131046159Y-31881685D01*
X131000000Y-31873000D01*
X129127000Y-31873000D01*
X129127000Y-27127000D01*
X129967223Y-27127000D01*
X129873196Y-27353442D01*
G37*
G04 #@! TD.AperFunction*
M02*
