G04 #@! TF.GenerationSoftware,KiCad,Pcbnew,5.1.9+dfsg1-1~bpo10+1*
G04 #@! TF.CreationDate,2021-11-10T17:09:55+00:00*
G04 #@! TF.ProjectId,dropbot_control_board,64726f70-626f-4745-9f63-6f6e74726f6c,v3.6*
G04 #@! TF.SameCoordinates,Original*
G04 #@! TF.FileFunction,Legend,Bot*
G04 #@! TF.FilePolarity,Positive*
%FSLAX46Y46*%
G04 Gerber Fmt 4.6, Leading zero omitted, Abs format (unit mm)*
G04 Created by KiCad (PCBNEW 5.1.9+dfsg1-1~bpo10+1) date 2021-11-10 17:09:55*
%MOMM*%
%LPD*%
G01*
G04 APERTURE LIST*
%ADD10C,0.150000*%
%ADD11C,0.120000*%
%ADD12C,0.152400*%
%ADD13C,0.500000*%
%ADD14C,0.127000*%
%ADD15C,0.048260*%
%ADD16C,0.076200*%
%ADD17C,0.100000*%
G04 APERTURE END LIST*
D10*
X80086000Y-84644000D02*
X80086000Y-79310000D01*
X80086000Y-84644000D02*
X80086000Y-89978000D01*
X88595000Y-89978000D02*
X80086000Y-89978000D01*
X88595000Y-79310000D02*
X88595000Y-89978000D01*
X80086000Y-79310000D02*
X88595000Y-79310000D01*
X96596000Y-89978000D02*
X88595000Y-89978000D01*
X96596000Y-79310000D02*
X96596000Y-89978000D01*
X88595000Y-79310000D02*
X96596000Y-79310000D01*
X95681472Y-84644000D02*
G75*
G03*
X95681472Y-84644000I-2514472J0D01*
G01*
X80086000Y-82104000D02*
X78689000Y-82104000D01*
X80086000Y-84644000D02*
X78689000Y-84644000D01*
X80086000Y-87184000D02*
X78689000Y-87184000D01*
X74752000Y-95947000D02*
X74752000Y-90613000D01*
X74752000Y-95947000D02*
X74752000Y-101281000D01*
X83261000Y-101281000D02*
X74752000Y-101281000D01*
X83261000Y-90613000D02*
X83261000Y-101281000D01*
X74752000Y-90613000D02*
X83261000Y-90613000D01*
X91262000Y-101281000D02*
X83261000Y-101281000D01*
X91262000Y-90613000D02*
X91262000Y-101281000D01*
X83261000Y-90613000D02*
X91262000Y-90613000D01*
X90347472Y-95947000D02*
G75*
G03*
X90347472Y-95947000I-2514472J0D01*
G01*
X74752000Y-93407000D02*
X73355000Y-93407000D01*
X74752000Y-95947000D02*
X73355000Y-95947000D01*
X74752000Y-98487000D02*
X73355000Y-98487000D01*
X122317000Y-100600000D02*
X122317000Y-105934000D01*
X122317000Y-100600000D02*
X122317000Y-95266000D01*
X113808000Y-95266000D02*
X122317000Y-95266000D01*
X113808000Y-105934000D02*
X113808000Y-95266000D01*
X122317000Y-105934000D02*
X113808000Y-105934000D01*
X105807000Y-95266000D02*
X113808000Y-95266000D01*
X105807000Y-105934000D02*
X105807000Y-95266000D01*
X113808000Y-105934000D02*
X105807000Y-105934000D01*
X111750472Y-100600000D02*
G75*
G03*
X111750472Y-100600000I-2514472J0D01*
G01*
X122317000Y-103140000D02*
X123714000Y-103140000D01*
X122317000Y-100600000D02*
X123714000Y-100600000D01*
X122317000Y-98060000D02*
X123714000Y-98060000D01*
X137290000Y-67730000D02*
X136020000Y-67730000D01*
X137290000Y-70270000D02*
X137290000Y-67730000D01*
X136020000Y-70270000D02*
X137290000Y-70270000D01*
X146180000Y-71540000D02*
X136020000Y-71540000D01*
X146180000Y-66460000D02*
X146180000Y-71540000D01*
X136020000Y-66460000D02*
X146180000Y-66460000D01*
X136020000Y-71540000D02*
X136020000Y-66460000D01*
X134210000Y-70270000D02*
X135480000Y-70270000D01*
X134210000Y-67730000D02*
X134210000Y-70270000D01*
X135480000Y-67730000D02*
X134210000Y-67730000D01*
X125320000Y-66460000D02*
X135480000Y-66460000D01*
X125320000Y-71540000D02*
X125320000Y-66460000D01*
X135480000Y-71540000D02*
X125320000Y-71540000D01*
X135480000Y-66460000D02*
X135480000Y-71540000D01*
X143400000Y-63775000D02*
X144600000Y-63775000D01*
X144600000Y-62025000D02*
X143400000Y-62025000D01*
X138500000Y-62025000D02*
X137300000Y-62025000D01*
X137300000Y-63775000D02*
X138500000Y-63775000D01*
X135900000Y-76125000D02*
X134700000Y-76125000D01*
X134700000Y-77875000D02*
X135900000Y-77875000D01*
X124900000Y-76075000D02*
X126100000Y-76075000D01*
X126100000Y-74325000D02*
X124900000Y-74325000D01*
X135900000Y-74225000D02*
X134700000Y-74225000D01*
X134700000Y-75975000D02*
X135900000Y-75975000D01*
X122900000Y-93875000D02*
X124900000Y-93875000D01*
X124900000Y-91725000D02*
X122900000Y-91725000D01*
X111775000Y-52900000D02*
X111775000Y-51700000D01*
X110025000Y-51700000D02*
X110025000Y-52900000D01*
X106875000Y-52900000D02*
X106875000Y-51700000D01*
X105125000Y-51700000D02*
X105125000Y-52900000D01*
X105325000Y-75200000D02*
X105325000Y-76400000D01*
X107075000Y-76400000D02*
X107075000Y-75200000D01*
X102725000Y-75200000D02*
X102725000Y-76400000D01*
X104475000Y-76400000D02*
X104475000Y-75200000D01*
D11*
X109550000Y-59900000D02*
X109550000Y-60900000D01*
X107850000Y-60900000D02*
X107850000Y-59900000D01*
X110350000Y-60900000D02*
X110350000Y-59900000D01*
X112050000Y-59900000D02*
X112050000Y-60900000D01*
X104300000Y-51920000D02*
X103100000Y-51920000D01*
X103100000Y-53680000D02*
X104300000Y-53680000D01*
X67400000Y-83680000D02*
X68600000Y-83680000D01*
X68600000Y-81920000D02*
X67400000Y-81920000D01*
X104580000Y-73100000D02*
X104580000Y-71900000D01*
X102820000Y-71900000D02*
X102820000Y-73100000D01*
X107080000Y-73100000D02*
X107080000Y-71900000D01*
X105320000Y-71900000D02*
X105320000Y-73100000D01*
X109580000Y-57900000D02*
X109580000Y-56700000D01*
X107820000Y-56700000D02*
X107820000Y-57900000D01*
X112080000Y-57900000D02*
X112080000Y-56700000D01*
X110320000Y-56700000D02*
X110320000Y-57900000D01*
X106720000Y-51900000D02*
X106720000Y-53100000D01*
X108480000Y-53100000D02*
X108480000Y-51900000D01*
X111620000Y-51800000D02*
X111620000Y-53000000D01*
X113380000Y-53000000D02*
X113380000Y-51800000D01*
X119000000Y-73420000D02*
X117800000Y-73420000D01*
X117800000Y-75180000D02*
X119000000Y-75180000D01*
X122380000Y-73400000D02*
X122380000Y-72200000D01*
X120620000Y-72200000D02*
X120620000Y-73400000D01*
X125120000Y-55100000D02*
X125120000Y-56300000D01*
X126880000Y-56300000D02*
X126880000Y-55100000D01*
X73100000Y-83820000D02*
X71100000Y-83820000D01*
X71100000Y-81780000D02*
X73100000Y-81780000D01*
X36150000Y-84050000D02*
X36150000Y-80550000D01*
X33250000Y-84050000D02*
X33250000Y-80550000D01*
D12*
X32831400Y-71783630D02*
X26481400Y-71783630D01*
X39537000Y-59388430D02*
X42734860Y-59388430D01*
X42734860Y-68151430D02*
X42734860Y-71783630D01*
X26481400Y-59388430D02*
X32831400Y-59388430D01*
X26481400Y-71783630D02*
X26481400Y-59388430D01*
X42734860Y-71783630D02*
X39537000Y-71783630D01*
X42734860Y-59388430D02*
X42734860Y-63048570D01*
D11*
X76720000Y-53710000D02*
X78490000Y-53710000D01*
X76720000Y-64110000D02*
X76720000Y-53710000D01*
X82260000Y-64110000D02*
X76720000Y-64110000D01*
X82260000Y-53710000D02*
X82260000Y-64110000D01*
X80490000Y-53710000D02*
X82260000Y-53710000D01*
X78490000Y-53710000D02*
G75*
G03*
X80490000Y-53710000I1000000J0D01*
G01*
D10*
X144910000Y-58070000D02*
X146180000Y-58070000D01*
X144910000Y-55530000D02*
X144910000Y-58070000D01*
X146180000Y-55530000D02*
X144910000Y-55530000D01*
X136020000Y-54260000D02*
X146180000Y-54260000D01*
X136020000Y-59340000D02*
X136020000Y-54260000D01*
X146180000Y-59340000D02*
X136020000Y-59340000D01*
X146180000Y-54260000D02*
X146180000Y-59340000D01*
D11*
X125100000Y-95750000D02*
X124100000Y-95750000D01*
X124100000Y-94050000D02*
X125100000Y-94050000D01*
X127850000Y-91200000D02*
X127850000Y-92200000D01*
X126150000Y-92200000D02*
X126150000Y-91200000D01*
X98850000Y-60800000D02*
X98850000Y-59800000D01*
X100550000Y-59800000D02*
X100550000Y-60800000D01*
D13*
X49134216Y-62315160D02*
G75*
G03*
X49134216Y-62315160I-10776J0D01*
G01*
D14*
X48747520Y-62647900D02*
X48747520Y-58152100D01*
X45252480Y-62647900D02*
X48747520Y-62647900D01*
X45252480Y-58152100D02*
X45252480Y-62647900D01*
X48747520Y-58152100D02*
X45252480Y-58152100D01*
X48447800Y-59602440D02*
X48447800Y-61197560D01*
X45552200Y-61197560D02*
X45552200Y-59602440D01*
D15*
X49233729Y-61049300D02*
G75*
G03*
X49233729Y-61049300I-32329J0D01*
G01*
D14*
X52198600Y-61049300D02*
X52198600Y-59550700D01*
X49201400Y-61049300D02*
X52198600Y-61049300D01*
X49201400Y-59550700D02*
X49201400Y-61049300D01*
X52198600Y-59550700D02*
X49201400Y-59550700D01*
D10*
X99800459Y-84299841D02*
X99752840Y-84204603D01*
X99657601Y-84109365D01*
X99514744Y-83966508D01*
X99467125Y-83871270D01*
X99467125Y-83776032D01*
X99705220Y-83823651D02*
X99657601Y-83728413D01*
X99562363Y-83633175D01*
X99371887Y-83585556D01*
X99038554Y-83585556D01*
X98848078Y-83633175D01*
X98752840Y-83728413D01*
X98705220Y-83823651D01*
X98705220Y-84014127D01*
X98752840Y-84109365D01*
X98848078Y-84204603D01*
X99038554Y-84252222D01*
X99371887Y-84252222D01*
X99562363Y-84204603D01*
X99657601Y-84109365D01*
X99705220Y-84014127D01*
X99705220Y-83823651D01*
X98705220Y-85109365D02*
X98705220Y-84918889D01*
X98752840Y-84823651D01*
X98800459Y-84776032D01*
X98943316Y-84680794D01*
X99133792Y-84633175D01*
X99514744Y-84633175D01*
X99609982Y-84680794D01*
X99657601Y-84728413D01*
X99705220Y-84823651D01*
X99705220Y-85014127D01*
X99657601Y-85109365D01*
X99609982Y-85156984D01*
X99514744Y-85204603D01*
X99276649Y-85204603D01*
X99181411Y-85156984D01*
X99133792Y-85109365D01*
X99086173Y-85014127D01*
X99086173Y-84823651D01*
X99133792Y-84728413D01*
X99181411Y-84680794D01*
X99276649Y-84633175D01*
X94466459Y-95602841D02*
X94418840Y-95507603D01*
X94323601Y-95412365D01*
X94180744Y-95269508D01*
X94133125Y-95174270D01*
X94133125Y-95079032D01*
X94371220Y-95126651D02*
X94323601Y-95031413D01*
X94228363Y-94936175D01*
X94037887Y-94888556D01*
X93704554Y-94888556D01*
X93514078Y-94936175D01*
X93418840Y-95031413D01*
X93371220Y-95126651D01*
X93371220Y-95317127D01*
X93418840Y-95412365D01*
X93514078Y-95507603D01*
X93704554Y-95555222D01*
X94037887Y-95555222D01*
X94228363Y-95507603D01*
X94323601Y-95412365D01*
X94371220Y-95317127D01*
X94371220Y-95126651D01*
X93371220Y-96459984D02*
X93371220Y-95983794D01*
X93847411Y-95936175D01*
X93799792Y-95983794D01*
X93752173Y-96079032D01*
X93752173Y-96317127D01*
X93799792Y-96412365D01*
X93847411Y-96459984D01*
X93942649Y-96507603D01*
X94180744Y-96507603D01*
X94275982Y-96459984D01*
X94323601Y-96412365D01*
X94371220Y-96317127D01*
X94371220Y-96079032D01*
X94323601Y-95983794D01*
X94275982Y-95936175D01*
X123836619Y-105113761D02*
X123789000Y-105018523D01*
X123693761Y-104923285D01*
X123550904Y-104780428D01*
X123503285Y-104685190D01*
X123503285Y-104589952D01*
X123741380Y-104637571D02*
X123693761Y-104542333D01*
X123598523Y-104447095D01*
X123408047Y-104399476D01*
X123074714Y-104399476D01*
X122884238Y-104447095D01*
X122789000Y-104542333D01*
X122741380Y-104637571D01*
X122741380Y-104828047D01*
X122789000Y-104923285D01*
X122884238Y-105018523D01*
X123074714Y-105066142D01*
X123408047Y-105066142D01*
X123598523Y-105018523D01*
X123693761Y-104923285D01*
X123741380Y-104828047D01*
X123741380Y-104637571D01*
X123741380Y-106018523D02*
X123741380Y-105447095D01*
X123741380Y-105732809D02*
X122741380Y-105732809D01*
X122884238Y-105637571D01*
X122979476Y-105542333D01*
X123027095Y-105447095D01*
X146452380Y-68238095D02*
X147261904Y-68238095D01*
X147357142Y-68285714D01*
X147404761Y-68333333D01*
X147452380Y-68428571D01*
X147452380Y-68619047D01*
X147404761Y-68714285D01*
X147357142Y-68761904D01*
X147261904Y-68809523D01*
X146452380Y-68809523D01*
X146452380Y-69190476D02*
X146452380Y-69857142D01*
X147452380Y-69428571D01*
X124152380Y-66838095D02*
X124961904Y-66838095D01*
X125057142Y-66885714D01*
X125104761Y-66933333D01*
X125152380Y-67028571D01*
X125152380Y-67219047D01*
X125104761Y-67314285D01*
X125057142Y-67361904D01*
X124961904Y-67409523D01*
X124152380Y-67409523D01*
X124152380Y-68361904D02*
X124152380Y-67885714D01*
X124628571Y-67838095D01*
X124580952Y-67885714D01*
X124533333Y-67980952D01*
X124533333Y-68219047D01*
X124580952Y-68314285D01*
X124628571Y-68361904D01*
X124723809Y-68409523D01*
X124961904Y-68409523D01*
X125057142Y-68361904D01*
X125104761Y-68314285D01*
X125152380Y-68219047D01*
X125152380Y-67980952D01*
X125104761Y-67885714D01*
X125057142Y-67838095D01*
X147342857Y-63352380D02*
X147676190Y-62876190D01*
X147914285Y-63352380D02*
X147914285Y-62352380D01*
X147533333Y-62352380D01*
X147438095Y-62400000D01*
X147390476Y-62447619D01*
X147342857Y-62542857D01*
X147342857Y-62685714D01*
X147390476Y-62780952D01*
X147438095Y-62828571D01*
X147533333Y-62876190D01*
X147914285Y-62876190D01*
X146961904Y-62447619D02*
X146914285Y-62400000D01*
X146819047Y-62352380D01*
X146580952Y-62352380D01*
X146485714Y-62400000D01*
X146438095Y-62447619D01*
X146390476Y-62542857D01*
X146390476Y-62638095D01*
X146438095Y-62780952D01*
X147009523Y-63352380D01*
X146390476Y-63352380D01*
X145533333Y-62685714D02*
X145533333Y-63352380D01*
X145771428Y-62304761D02*
X146009523Y-63019047D01*
X145390476Y-63019047D01*
X135542857Y-63352380D02*
X135876190Y-62876190D01*
X136114285Y-63352380D02*
X136114285Y-62352380D01*
X135733333Y-62352380D01*
X135638095Y-62400000D01*
X135590476Y-62447619D01*
X135542857Y-62542857D01*
X135542857Y-62685714D01*
X135590476Y-62780952D01*
X135638095Y-62828571D01*
X135733333Y-62876190D01*
X136114285Y-62876190D01*
X135161904Y-62447619D02*
X135114285Y-62400000D01*
X135019047Y-62352380D01*
X134780952Y-62352380D01*
X134685714Y-62400000D01*
X134638095Y-62447619D01*
X134590476Y-62542857D01*
X134590476Y-62638095D01*
X134638095Y-62780952D01*
X135209523Y-63352380D01*
X134590476Y-63352380D01*
X134019047Y-62780952D02*
X134114285Y-62733333D01*
X134161904Y-62685714D01*
X134209523Y-62590476D01*
X134209523Y-62542857D01*
X134161904Y-62447619D01*
X134114285Y-62400000D01*
X134019047Y-62352380D01*
X133828571Y-62352380D01*
X133733333Y-62400000D01*
X133685714Y-62447619D01*
X133638095Y-62542857D01*
X133638095Y-62590476D01*
X133685714Y-62685714D01*
X133733333Y-62733333D01*
X133828571Y-62780952D01*
X134019047Y-62780952D01*
X134114285Y-62828571D01*
X134161904Y-62876190D01*
X134209523Y-62971428D01*
X134209523Y-63161904D01*
X134161904Y-63257142D01*
X134114285Y-63304761D01*
X134019047Y-63352380D01*
X133828571Y-63352380D01*
X133733333Y-63304761D01*
X133685714Y-63257142D01*
X133638095Y-63161904D01*
X133638095Y-62971428D01*
X133685714Y-62876190D01*
X133733333Y-62828571D01*
X133828571Y-62780952D01*
X133142857Y-77452380D02*
X133476190Y-76976190D01*
X133714285Y-77452380D02*
X133714285Y-76452380D01*
X133333333Y-76452380D01*
X133238095Y-76500000D01*
X133190476Y-76547619D01*
X133142857Y-76642857D01*
X133142857Y-76785714D01*
X133190476Y-76880952D01*
X133238095Y-76928571D01*
X133333333Y-76976190D01*
X133714285Y-76976190D01*
X132190476Y-77452380D02*
X132761904Y-77452380D01*
X132476190Y-77452380D02*
X132476190Y-76452380D01*
X132571428Y-76595238D01*
X132666666Y-76690476D01*
X132761904Y-76738095D01*
X131571428Y-76452380D02*
X131476190Y-76452380D01*
X131380952Y-76500000D01*
X131333333Y-76547619D01*
X131285714Y-76642857D01*
X131238095Y-76833333D01*
X131238095Y-77071428D01*
X131285714Y-77261904D01*
X131333333Y-77357142D01*
X131380952Y-77404761D01*
X131476190Y-77452380D01*
X131571428Y-77452380D01*
X131666666Y-77404761D01*
X131714285Y-77357142D01*
X131761904Y-77261904D01*
X131809523Y-77071428D01*
X131809523Y-76833333D01*
X131761904Y-76642857D01*
X131714285Y-76547619D01*
X131666666Y-76500000D01*
X131571428Y-76452380D01*
X126242857Y-77052380D02*
X126576190Y-76576190D01*
X126814285Y-77052380D02*
X126814285Y-76052380D01*
X126433333Y-76052380D01*
X126338095Y-76100000D01*
X126290476Y-76147619D01*
X126242857Y-76242857D01*
X126242857Y-76385714D01*
X126290476Y-76480952D01*
X126338095Y-76528571D01*
X126433333Y-76576190D01*
X126814285Y-76576190D01*
X125290476Y-77052380D02*
X125861904Y-77052380D01*
X125576190Y-77052380D02*
X125576190Y-76052380D01*
X125671428Y-76195238D01*
X125766666Y-76290476D01*
X125861904Y-76338095D01*
X124338095Y-77052380D02*
X124909523Y-77052380D01*
X124623809Y-77052380D02*
X124623809Y-76052380D01*
X124719047Y-76195238D01*
X124814285Y-76290476D01*
X124909523Y-76338095D01*
X133142857Y-75652380D02*
X133476190Y-75176190D01*
X133714285Y-75652380D02*
X133714285Y-74652380D01*
X133333333Y-74652380D01*
X133238095Y-74700000D01*
X133190476Y-74747619D01*
X133142857Y-74842857D01*
X133142857Y-74985714D01*
X133190476Y-75080952D01*
X133238095Y-75128571D01*
X133333333Y-75176190D01*
X133714285Y-75176190D01*
X132190476Y-75652380D02*
X132761904Y-75652380D01*
X132476190Y-75652380D02*
X132476190Y-74652380D01*
X132571428Y-74795238D01*
X132666666Y-74890476D01*
X132761904Y-74938095D01*
X131809523Y-74747619D02*
X131761904Y-74700000D01*
X131666666Y-74652380D01*
X131428571Y-74652380D01*
X131333333Y-74700000D01*
X131285714Y-74747619D01*
X131238095Y-74842857D01*
X131238095Y-74938095D01*
X131285714Y-75080952D01*
X131857142Y-75652380D01*
X131238095Y-75652380D01*
X120966666Y-93252380D02*
X121300000Y-92776190D01*
X121538095Y-93252380D02*
X121538095Y-92252380D01*
X121157142Y-92252380D01*
X121061904Y-92300000D01*
X121014285Y-92347619D01*
X120966666Y-92442857D01*
X120966666Y-92585714D01*
X121014285Y-92680952D01*
X121061904Y-92728571D01*
X121157142Y-92776190D01*
X121538095Y-92776190D01*
X120109523Y-92252380D02*
X120300000Y-92252380D01*
X120395238Y-92300000D01*
X120442857Y-92347619D01*
X120538095Y-92490476D01*
X120585714Y-92680952D01*
X120585714Y-93061904D01*
X120538095Y-93157142D01*
X120490476Y-93204761D01*
X120395238Y-93252380D01*
X120204761Y-93252380D01*
X120109523Y-93204761D01*
X120061904Y-93157142D01*
X120014285Y-93061904D01*
X120014285Y-92823809D01*
X120061904Y-92728571D01*
X120109523Y-92680952D01*
X120204761Y-92633333D01*
X120395238Y-92633333D01*
X120490476Y-92680952D01*
X120538095Y-92728571D01*
X120585714Y-92823809D01*
X111352380Y-49833333D02*
X110876190Y-49500000D01*
X111352380Y-49261904D02*
X110352380Y-49261904D01*
X110352380Y-49642857D01*
X110400000Y-49738095D01*
X110447619Y-49785714D01*
X110542857Y-49833333D01*
X110685714Y-49833333D01*
X110780952Y-49785714D01*
X110828571Y-49738095D01*
X110876190Y-49642857D01*
X110876190Y-49261904D01*
X110352380Y-50166666D02*
X110352380Y-50785714D01*
X110733333Y-50452380D01*
X110733333Y-50595238D01*
X110780952Y-50690476D01*
X110828571Y-50738095D01*
X110923809Y-50785714D01*
X111161904Y-50785714D01*
X111257142Y-50738095D01*
X111304761Y-50690476D01*
X111352380Y-50595238D01*
X111352380Y-50309523D01*
X111304761Y-50214285D01*
X111257142Y-50166666D01*
X106452380Y-49733333D02*
X105976190Y-49400000D01*
X106452380Y-49161904D02*
X105452380Y-49161904D01*
X105452380Y-49542857D01*
X105500000Y-49638095D01*
X105547619Y-49685714D01*
X105642857Y-49733333D01*
X105785714Y-49733333D01*
X105880952Y-49685714D01*
X105928571Y-49638095D01*
X105976190Y-49542857D01*
X105976190Y-49161904D01*
X105785714Y-50590476D02*
X106452380Y-50590476D01*
X105404761Y-50352380D02*
X106119047Y-50114285D01*
X106119047Y-50733333D01*
X106652380Y-78057142D02*
X106176190Y-77723809D01*
X106652380Y-77485714D02*
X105652380Y-77485714D01*
X105652380Y-77866666D01*
X105700000Y-77961904D01*
X105747619Y-78009523D01*
X105842857Y-78057142D01*
X105985714Y-78057142D01*
X106080952Y-78009523D01*
X106128571Y-77961904D01*
X106176190Y-77866666D01*
X106176190Y-77485714D01*
X106652380Y-79009523D02*
X106652380Y-78438095D01*
X106652380Y-78723809D02*
X105652380Y-78723809D01*
X105795238Y-78628571D01*
X105890476Y-78533333D01*
X105938095Y-78438095D01*
X106652380Y-79485714D02*
X106652380Y-79676190D01*
X106604761Y-79771428D01*
X106557142Y-79819047D01*
X106414285Y-79914285D01*
X106223809Y-79961904D01*
X105842857Y-79961904D01*
X105747619Y-79914285D01*
X105700000Y-79866666D01*
X105652380Y-79771428D01*
X105652380Y-79580952D01*
X105700000Y-79485714D01*
X105747619Y-79438095D01*
X105842857Y-79390476D01*
X106080952Y-79390476D01*
X106176190Y-79438095D01*
X106223809Y-79485714D01*
X106271428Y-79580952D01*
X106271428Y-79771428D01*
X106223809Y-79866666D01*
X106176190Y-79914285D01*
X106080952Y-79961904D01*
X104152380Y-77957142D02*
X103676190Y-77623809D01*
X104152380Y-77385714D02*
X103152380Y-77385714D01*
X103152380Y-77766666D01*
X103200000Y-77861904D01*
X103247619Y-77909523D01*
X103342857Y-77957142D01*
X103485714Y-77957142D01*
X103580952Y-77909523D01*
X103628571Y-77861904D01*
X103676190Y-77766666D01*
X103676190Y-77385714D01*
X103247619Y-78338095D02*
X103200000Y-78385714D01*
X103152380Y-78480952D01*
X103152380Y-78719047D01*
X103200000Y-78814285D01*
X103247619Y-78861904D01*
X103342857Y-78909523D01*
X103438095Y-78909523D01*
X103580952Y-78861904D01*
X104152380Y-78290476D01*
X104152380Y-78909523D01*
X103152380Y-79528571D02*
X103152380Y-79623809D01*
X103200000Y-79719047D01*
X103247619Y-79766666D01*
X103342857Y-79814285D01*
X103533333Y-79861904D01*
X103771428Y-79861904D01*
X103961904Y-79814285D01*
X104057142Y-79766666D01*
X104104761Y-79719047D01*
X104152380Y-79623809D01*
X104152380Y-79528571D01*
X104104761Y-79433333D01*
X104057142Y-79385714D01*
X103961904Y-79338095D01*
X103771428Y-79290476D01*
X103533333Y-79290476D01*
X103342857Y-79338095D01*
X103247619Y-79385714D01*
X103200000Y-79433333D01*
X103152380Y-79528571D01*
X107357142Y-59857142D02*
X107404761Y-59809523D01*
X107452380Y-59666666D01*
X107452380Y-59571428D01*
X107404761Y-59428571D01*
X107309523Y-59333333D01*
X107214285Y-59285714D01*
X107023809Y-59238095D01*
X106880952Y-59238095D01*
X106690476Y-59285714D01*
X106595238Y-59333333D01*
X106500000Y-59428571D01*
X106452380Y-59571428D01*
X106452380Y-59666666D01*
X106500000Y-59809523D01*
X106547619Y-59857142D01*
X106547619Y-60238095D02*
X106500000Y-60285714D01*
X106452380Y-60380952D01*
X106452380Y-60619047D01*
X106500000Y-60714285D01*
X106547619Y-60761904D01*
X106642857Y-60809523D01*
X106738095Y-60809523D01*
X106880952Y-60761904D01*
X107452380Y-60190476D01*
X107452380Y-60809523D01*
X106880952Y-61380952D02*
X106833333Y-61285714D01*
X106785714Y-61238095D01*
X106690476Y-61190476D01*
X106642857Y-61190476D01*
X106547619Y-61238095D01*
X106500000Y-61285714D01*
X106452380Y-61380952D01*
X106452380Y-61571428D01*
X106500000Y-61666666D01*
X106547619Y-61714285D01*
X106642857Y-61761904D01*
X106690476Y-61761904D01*
X106785714Y-61714285D01*
X106833333Y-61666666D01*
X106880952Y-61571428D01*
X106880952Y-61380952D01*
X106928571Y-61285714D01*
X106976190Y-61238095D01*
X107071428Y-61190476D01*
X107261904Y-61190476D01*
X107357142Y-61238095D01*
X107404761Y-61285714D01*
X107452380Y-61380952D01*
X107452380Y-61571428D01*
X107404761Y-61666666D01*
X107357142Y-61714285D01*
X107261904Y-61761904D01*
X107071428Y-61761904D01*
X106976190Y-61714285D01*
X106928571Y-61666666D01*
X106880952Y-61571428D01*
X113257142Y-59757142D02*
X113304761Y-59709523D01*
X113352380Y-59566666D01*
X113352380Y-59471428D01*
X113304761Y-59328571D01*
X113209523Y-59233333D01*
X113114285Y-59185714D01*
X112923809Y-59138095D01*
X112780952Y-59138095D01*
X112590476Y-59185714D01*
X112495238Y-59233333D01*
X112400000Y-59328571D01*
X112352380Y-59471428D01*
X112352380Y-59566666D01*
X112400000Y-59709523D01*
X112447619Y-59757142D01*
X112447619Y-60138095D02*
X112400000Y-60185714D01*
X112352380Y-60280952D01*
X112352380Y-60519047D01*
X112400000Y-60614285D01*
X112447619Y-60661904D01*
X112542857Y-60709523D01*
X112638095Y-60709523D01*
X112780952Y-60661904D01*
X113352380Y-60090476D01*
X113352380Y-60709523D01*
X113352380Y-61185714D02*
X113352380Y-61376190D01*
X113304761Y-61471428D01*
X113257142Y-61519047D01*
X113114285Y-61614285D01*
X112923809Y-61661904D01*
X112542857Y-61661904D01*
X112447619Y-61614285D01*
X112400000Y-61566666D01*
X112352380Y-61471428D01*
X112352380Y-61280952D01*
X112400000Y-61185714D01*
X112447619Y-61138095D01*
X112542857Y-61090476D01*
X112780952Y-61090476D01*
X112876190Y-61138095D01*
X112923809Y-61185714D01*
X112971428Y-61280952D01*
X112971428Y-61471428D01*
X112923809Y-61566666D01*
X112876190Y-61614285D01*
X112780952Y-61661904D01*
X104533333Y-51078571D02*
X104866666Y-51078571D01*
X104866666Y-51602380D02*
X104866666Y-50602380D01*
X104390476Y-50602380D01*
X103676190Y-51078571D02*
X103533333Y-51126190D01*
X103485714Y-51173809D01*
X103438095Y-51269047D01*
X103438095Y-51411904D01*
X103485714Y-51507142D01*
X103533333Y-51554761D01*
X103628571Y-51602380D01*
X104009523Y-51602380D01*
X104009523Y-50602380D01*
X103676190Y-50602380D01*
X103580952Y-50650000D01*
X103533333Y-50697619D01*
X103485714Y-50792857D01*
X103485714Y-50888095D01*
X103533333Y-50983333D01*
X103580952Y-51030952D01*
X103676190Y-51078571D01*
X104009523Y-51078571D01*
X102485714Y-51602380D02*
X103057142Y-51602380D01*
X102771428Y-51602380D02*
X102771428Y-50602380D01*
X102866666Y-50745238D01*
X102961904Y-50840476D01*
X103057142Y-50888095D01*
X66033333Y-82728571D02*
X66366666Y-82728571D01*
X66366666Y-83252380D02*
X66366666Y-82252380D01*
X65890476Y-82252380D01*
X65176190Y-82728571D02*
X65033333Y-82776190D01*
X64985714Y-82823809D01*
X64938095Y-82919047D01*
X64938095Y-83061904D01*
X64985714Y-83157142D01*
X65033333Y-83204761D01*
X65128571Y-83252380D01*
X65509523Y-83252380D01*
X65509523Y-82252380D01*
X65176190Y-82252380D01*
X65080952Y-82300000D01*
X65033333Y-82347619D01*
X64985714Y-82442857D01*
X64985714Y-82538095D01*
X65033333Y-82633333D01*
X65080952Y-82680952D01*
X65176190Y-82728571D01*
X65509523Y-82728571D01*
X64557142Y-82347619D02*
X64509523Y-82300000D01*
X64414285Y-82252380D01*
X64176190Y-82252380D01*
X64080952Y-82300000D01*
X64033333Y-82347619D01*
X63985714Y-82442857D01*
X63985714Y-82538095D01*
X64033333Y-82680952D01*
X64604761Y-83252380D01*
X63985714Y-83252380D01*
X102652380Y-71957142D02*
X102176190Y-71623809D01*
X102652380Y-71385714D02*
X101652380Y-71385714D01*
X101652380Y-71766666D01*
X101700000Y-71861904D01*
X101747619Y-71909523D01*
X101842857Y-71957142D01*
X101985714Y-71957142D01*
X102080952Y-71909523D01*
X102128571Y-71861904D01*
X102176190Y-71766666D01*
X102176190Y-71385714D01*
X101985714Y-72814285D02*
X102652380Y-72814285D01*
X101604761Y-72576190D02*
X102319047Y-72338095D01*
X102319047Y-72957142D01*
X101652380Y-73528571D02*
X101652380Y-73623809D01*
X101700000Y-73719047D01*
X101747619Y-73766666D01*
X101842857Y-73814285D01*
X102033333Y-73861904D01*
X102271428Y-73861904D01*
X102461904Y-73814285D01*
X102557142Y-73766666D01*
X102604761Y-73719047D01*
X102652380Y-73623809D01*
X102652380Y-73528571D01*
X102604761Y-73433333D01*
X102557142Y-73385714D01*
X102461904Y-73338095D01*
X102271428Y-73290476D01*
X102033333Y-73290476D01*
X101842857Y-73338095D01*
X101747619Y-73385714D01*
X101700000Y-73433333D01*
X101652380Y-73528571D01*
X108302380Y-71857142D02*
X107826190Y-71523809D01*
X108302380Y-71285714D02*
X107302380Y-71285714D01*
X107302380Y-71666666D01*
X107350000Y-71761904D01*
X107397619Y-71809523D01*
X107492857Y-71857142D01*
X107635714Y-71857142D01*
X107730952Y-71809523D01*
X107778571Y-71761904D01*
X107826190Y-71666666D01*
X107826190Y-71285714D01*
X107635714Y-72714285D02*
X108302380Y-72714285D01*
X107254761Y-72476190D02*
X107969047Y-72238095D01*
X107969047Y-72857142D01*
X108302380Y-73761904D02*
X108302380Y-73190476D01*
X108302380Y-73476190D02*
X107302380Y-73476190D01*
X107445238Y-73380952D01*
X107540476Y-73285714D01*
X107588095Y-73190476D01*
X107552380Y-56657142D02*
X107076190Y-56323809D01*
X107552380Y-56085714D02*
X106552380Y-56085714D01*
X106552380Y-56466666D01*
X106600000Y-56561904D01*
X106647619Y-56609523D01*
X106742857Y-56657142D01*
X106885714Y-56657142D01*
X106980952Y-56609523D01*
X107028571Y-56561904D01*
X107076190Y-56466666D01*
X107076190Y-56085714D01*
X106885714Y-57514285D02*
X107552380Y-57514285D01*
X106504761Y-57276190D02*
X107219047Y-57038095D01*
X107219047Y-57657142D01*
X106885714Y-58466666D02*
X107552380Y-58466666D01*
X106504761Y-58228571D02*
X107219047Y-57990476D01*
X107219047Y-58609523D01*
X113352380Y-56657142D02*
X112876190Y-56323809D01*
X113352380Y-56085714D02*
X112352380Y-56085714D01*
X112352380Y-56466666D01*
X112400000Y-56561904D01*
X112447619Y-56609523D01*
X112542857Y-56657142D01*
X112685714Y-56657142D01*
X112780952Y-56609523D01*
X112828571Y-56561904D01*
X112876190Y-56466666D01*
X112876190Y-56085714D01*
X112685714Y-57514285D02*
X113352380Y-57514285D01*
X112304761Y-57276190D02*
X113019047Y-57038095D01*
X113019047Y-57657142D01*
X112352380Y-58514285D02*
X112352380Y-58038095D01*
X112828571Y-57990476D01*
X112780952Y-58038095D01*
X112733333Y-58133333D01*
X112733333Y-58371428D01*
X112780952Y-58466666D01*
X112828571Y-58514285D01*
X112923809Y-58561904D01*
X113161904Y-58561904D01*
X113257142Y-58514285D01*
X113304761Y-58466666D01*
X113352380Y-58371428D01*
X113352380Y-58133333D01*
X113304761Y-58038095D01*
X113257142Y-57990476D01*
X108152380Y-49057142D02*
X107676190Y-48723809D01*
X108152380Y-48485714D02*
X107152380Y-48485714D01*
X107152380Y-48866666D01*
X107200000Y-48961904D01*
X107247619Y-49009523D01*
X107342857Y-49057142D01*
X107485714Y-49057142D01*
X107580952Y-49009523D01*
X107628571Y-48961904D01*
X107676190Y-48866666D01*
X107676190Y-48485714D01*
X107152380Y-49961904D02*
X107152380Y-49485714D01*
X107628571Y-49438095D01*
X107580952Y-49485714D01*
X107533333Y-49580952D01*
X107533333Y-49819047D01*
X107580952Y-49914285D01*
X107628571Y-49961904D01*
X107723809Y-50009523D01*
X107961904Y-50009523D01*
X108057142Y-49961904D01*
X108104761Y-49914285D01*
X108152380Y-49819047D01*
X108152380Y-49580952D01*
X108104761Y-49485714D01*
X108057142Y-49438095D01*
X107152380Y-50628571D02*
X107152380Y-50723809D01*
X107200000Y-50819047D01*
X107247619Y-50866666D01*
X107342857Y-50914285D01*
X107533333Y-50961904D01*
X107771428Y-50961904D01*
X107961904Y-50914285D01*
X108057142Y-50866666D01*
X108104761Y-50819047D01*
X108152380Y-50723809D01*
X108152380Y-50628571D01*
X108104761Y-50533333D01*
X108057142Y-50485714D01*
X107961904Y-50438095D01*
X107771428Y-50390476D01*
X107533333Y-50390476D01*
X107342857Y-50438095D01*
X107247619Y-50485714D01*
X107200000Y-50533333D01*
X107152380Y-50628571D01*
X114552380Y-51657142D02*
X114076190Y-51323809D01*
X114552380Y-51085714D02*
X113552380Y-51085714D01*
X113552380Y-51466666D01*
X113600000Y-51561904D01*
X113647619Y-51609523D01*
X113742857Y-51657142D01*
X113885714Y-51657142D01*
X113980952Y-51609523D01*
X114028571Y-51561904D01*
X114076190Y-51466666D01*
X114076190Y-51085714D01*
X113552380Y-52561904D02*
X113552380Y-52085714D01*
X114028571Y-52038095D01*
X113980952Y-52085714D01*
X113933333Y-52180952D01*
X113933333Y-52419047D01*
X113980952Y-52514285D01*
X114028571Y-52561904D01*
X114123809Y-52609523D01*
X114361904Y-52609523D01*
X114457142Y-52561904D01*
X114504761Y-52514285D01*
X114552380Y-52419047D01*
X114552380Y-52180952D01*
X114504761Y-52085714D01*
X114457142Y-52038095D01*
X114552380Y-53561904D02*
X114552380Y-52990476D01*
X114552380Y-53276190D02*
X113552380Y-53276190D01*
X113695238Y-53180952D01*
X113790476Y-53085714D01*
X113838095Y-52990476D01*
X119333333Y-75928571D02*
X119666666Y-75928571D01*
X119666666Y-76452380D02*
X119666666Y-75452380D01*
X119190476Y-75452380D01*
X118476190Y-75928571D02*
X118333333Y-75976190D01*
X118285714Y-76023809D01*
X118238095Y-76119047D01*
X118238095Y-76261904D01*
X118285714Y-76357142D01*
X118333333Y-76404761D01*
X118428571Y-76452380D01*
X118809523Y-76452380D01*
X118809523Y-75452380D01*
X118476190Y-75452380D01*
X118380952Y-75500000D01*
X118333333Y-75547619D01*
X118285714Y-75642857D01*
X118285714Y-75738095D01*
X118333333Y-75833333D01*
X118380952Y-75880952D01*
X118476190Y-75928571D01*
X118809523Y-75928571D01*
X117904761Y-75452380D02*
X117285714Y-75452380D01*
X117619047Y-75833333D01*
X117476190Y-75833333D01*
X117380952Y-75880952D01*
X117333333Y-75928571D01*
X117285714Y-76023809D01*
X117285714Y-76261904D01*
X117333333Y-76357142D01*
X117380952Y-76404761D01*
X117476190Y-76452380D01*
X117761904Y-76452380D01*
X117857142Y-76404761D01*
X117904761Y-76357142D01*
X124633333Y-71928571D02*
X124966666Y-71928571D01*
X124966666Y-72452380D02*
X124966666Y-71452380D01*
X124490476Y-71452380D01*
X123776190Y-71928571D02*
X123633333Y-71976190D01*
X123585714Y-72023809D01*
X123538095Y-72119047D01*
X123538095Y-72261904D01*
X123585714Y-72357142D01*
X123633333Y-72404761D01*
X123728571Y-72452380D01*
X124109523Y-72452380D01*
X124109523Y-71452380D01*
X123776190Y-71452380D01*
X123680952Y-71500000D01*
X123633333Y-71547619D01*
X123585714Y-71642857D01*
X123585714Y-71738095D01*
X123633333Y-71833333D01*
X123680952Y-71880952D01*
X123776190Y-71928571D01*
X124109523Y-71928571D01*
X122680952Y-71785714D02*
X122680952Y-72452380D01*
X122919047Y-71404761D02*
X123157142Y-72119047D01*
X122538095Y-72119047D01*
X127628571Y-54866666D02*
X127628571Y-54533333D01*
X128152380Y-54533333D02*
X127152380Y-54533333D01*
X127152380Y-55009523D01*
X127628571Y-55723809D02*
X127676190Y-55866666D01*
X127723809Y-55914285D01*
X127819047Y-55961904D01*
X127961904Y-55961904D01*
X128057142Y-55914285D01*
X128104761Y-55866666D01*
X128152380Y-55771428D01*
X128152380Y-55390476D01*
X127152380Y-55390476D01*
X127152380Y-55723809D01*
X127200000Y-55819047D01*
X127247619Y-55866666D01*
X127342857Y-55914285D01*
X127438095Y-55914285D01*
X127533333Y-55866666D01*
X127580952Y-55819047D01*
X127628571Y-55723809D01*
X127628571Y-55390476D01*
X127152380Y-56866666D02*
X127152380Y-56390476D01*
X127628571Y-56342857D01*
X127580952Y-56390476D01*
X127533333Y-56485714D01*
X127533333Y-56723809D01*
X127580952Y-56819047D01*
X127628571Y-56866666D01*
X127723809Y-56914285D01*
X127961904Y-56914285D01*
X128057142Y-56866666D01*
X128104761Y-56819047D01*
X128152380Y-56723809D01*
X128152380Y-56485714D01*
X128104761Y-56390476D01*
X128057142Y-56342857D01*
X70742857Y-84757142D02*
X70790476Y-84804761D01*
X70933333Y-84852380D01*
X71028571Y-84852380D01*
X71171428Y-84804761D01*
X71266666Y-84709523D01*
X71314285Y-84614285D01*
X71361904Y-84423809D01*
X71361904Y-84280952D01*
X71314285Y-84090476D01*
X71266666Y-83995238D01*
X71171428Y-83900000D01*
X71028571Y-83852380D01*
X70933333Y-83852380D01*
X70790476Y-83900000D01*
X70742857Y-83947619D01*
X70409523Y-83852380D02*
X69790476Y-83852380D01*
X70123809Y-84233333D01*
X69980952Y-84233333D01*
X69885714Y-84280952D01*
X69838095Y-84328571D01*
X69790476Y-84423809D01*
X69790476Y-84661904D01*
X69838095Y-84757142D01*
X69885714Y-84804761D01*
X69980952Y-84852380D01*
X70266666Y-84852380D01*
X70361904Y-84804761D01*
X70409523Y-84757142D01*
X68885714Y-83852380D02*
X69361904Y-83852380D01*
X69409523Y-84328571D01*
X69361904Y-84280952D01*
X69266666Y-84233333D01*
X69028571Y-84233333D01*
X68933333Y-84280952D01*
X68885714Y-84328571D01*
X68838095Y-84423809D01*
X68838095Y-84661904D01*
X68885714Y-84757142D01*
X68933333Y-84804761D01*
X69028571Y-84852380D01*
X69266666Y-84852380D01*
X69361904Y-84804761D01*
X69409523Y-84757142D01*
X36133333Y-79304761D02*
X35990476Y-79352380D01*
X35752380Y-79352380D01*
X35657142Y-79304761D01*
X35609523Y-79257142D01*
X35561904Y-79161904D01*
X35561904Y-79066666D01*
X35609523Y-78971428D01*
X35657142Y-78923809D01*
X35752380Y-78876190D01*
X35942857Y-78828571D01*
X36038095Y-78780952D01*
X36085714Y-78733333D01*
X36133333Y-78638095D01*
X36133333Y-78542857D01*
X36085714Y-78447619D01*
X36038095Y-78400000D01*
X35942857Y-78352380D01*
X35704761Y-78352380D01*
X35561904Y-78400000D01*
X35228571Y-78352380D02*
X34990476Y-79352380D01*
X34800000Y-78638095D01*
X34609523Y-79352380D01*
X34371428Y-78352380D01*
X33466666Y-79352380D02*
X34038095Y-79352380D01*
X33752380Y-79352380D02*
X33752380Y-78352380D01*
X33847619Y-78495238D01*
X33942857Y-78590476D01*
X34038095Y-78638095D01*
X37085714Y-86202380D02*
X37085714Y-85202380D01*
X36704761Y-85202380D01*
X36609523Y-85250000D01*
X36561904Y-85297619D01*
X36514285Y-85392857D01*
X36514285Y-85535714D01*
X36561904Y-85630952D01*
X36609523Y-85678571D01*
X36704761Y-85726190D01*
X37085714Y-85726190D01*
X35514285Y-86202380D02*
X35847619Y-85726190D01*
X36085714Y-86202380D02*
X36085714Y-85202380D01*
X35704761Y-85202380D01*
X35609523Y-85250000D01*
X35561904Y-85297619D01*
X35514285Y-85392857D01*
X35514285Y-85535714D01*
X35561904Y-85630952D01*
X35609523Y-85678571D01*
X35704761Y-85726190D01*
X36085714Y-85726190D01*
X34895238Y-85202380D02*
X34704761Y-85202380D01*
X34609523Y-85250000D01*
X34514285Y-85345238D01*
X34466666Y-85535714D01*
X34466666Y-85869047D01*
X34514285Y-86059523D01*
X34609523Y-86154761D01*
X34704761Y-86202380D01*
X34895238Y-86202380D01*
X34990476Y-86154761D01*
X35085714Y-86059523D01*
X35133333Y-85869047D01*
X35133333Y-85535714D01*
X35085714Y-85345238D01*
X34990476Y-85250000D01*
X34895238Y-85202380D01*
X33514285Y-85250000D02*
X33609523Y-85202380D01*
X33752380Y-85202380D01*
X33895238Y-85250000D01*
X33990476Y-85345238D01*
X34038095Y-85440476D01*
X34085714Y-85630952D01*
X34085714Y-85773809D01*
X34038095Y-85964285D01*
X33990476Y-86059523D01*
X33895238Y-86154761D01*
X33752380Y-86202380D01*
X33657142Y-86202380D01*
X33514285Y-86154761D01*
X33466666Y-86107142D01*
X33466666Y-85773809D01*
X33657142Y-85773809D01*
D16*
X26116123Y-64662619D02*
X24846123Y-64662619D01*
X24846123Y-65146428D01*
X24906600Y-65267380D01*
X24967076Y-65327857D01*
X25088028Y-65388333D01*
X25269457Y-65388333D01*
X25390409Y-65327857D01*
X25450885Y-65267380D01*
X25511361Y-65146428D01*
X25511361Y-64662619D01*
X24846123Y-66476904D02*
X24846123Y-66235000D01*
X24906600Y-66114047D01*
X24967076Y-66053571D01*
X25148504Y-65932619D01*
X25390409Y-65872142D01*
X25874219Y-65872142D01*
X25995171Y-65932619D01*
X26055647Y-65993095D01*
X26116123Y-66114047D01*
X26116123Y-66355952D01*
X26055647Y-66476904D01*
X25995171Y-66537380D01*
X25874219Y-66597857D01*
X25571838Y-66597857D01*
X25450885Y-66537380D01*
X25390409Y-66476904D01*
X25329933Y-66355952D01*
X25329933Y-66114047D01*
X25390409Y-65993095D01*
X25450885Y-65932619D01*
X25571838Y-65872142D01*
D10*
X80728095Y-52162380D02*
X80728095Y-52971904D01*
X80680476Y-53067142D01*
X80632857Y-53114761D01*
X80537619Y-53162380D01*
X80347142Y-53162380D01*
X80251904Y-53114761D01*
X80204285Y-53067142D01*
X80156666Y-52971904D01*
X80156666Y-52162380D01*
X79156666Y-53162380D02*
X79728095Y-53162380D01*
X79442380Y-53162380D02*
X79442380Y-52162380D01*
X79537619Y-52305238D01*
X79632857Y-52400476D01*
X79728095Y-52448095D01*
X78204285Y-53162380D02*
X78775714Y-53162380D01*
X78490000Y-53162380D02*
X78490000Y-52162380D01*
X78585238Y-52305238D01*
X78680476Y-52400476D01*
X78775714Y-52448095D01*
X146452380Y-55661904D02*
X147261904Y-55661904D01*
X147357142Y-55709523D01*
X147404761Y-55757142D01*
X147452380Y-55852380D01*
X147452380Y-56042857D01*
X147404761Y-56138095D01*
X147357142Y-56185714D01*
X147261904Y-56233333D01*
X146452380Y-56233333D01*
X147452380Y-57233333D02*
X147452380Y-56661904D01*
X147452380Y-56947619D02*
X146452380Y-56947619D01*
X146595238Y-56852380D01*
X146690476Y-56757142D01*
X146738095Y-56661904D01*
X146547619Y-57614285D02*
X146500000Y-57661904D01*
X146452380Y-57757142D01*
X146452380Y-57995238D01*
X146500000Y-58090476D01*
X146547619Y-58138095D01*
X146642857Y-58185714D01*
X146738095Y-58185714D01*
X146880952Y-58138095D01*
X147452380Y-57566666D01*
X147452380Y-58185714D01*
X122142857Y-94857142D02*
X122190476Y-94904761D01*
X122333333Y-94952380D01*
X122428571Y-94952380D01*
X122571428Y-94904761D01*
X122666666Y-94809523D01*
X122714285Y-94714285D01*
X122761904Y-94523809D01*
X122761904Y-94380952D01*
X122714285Y-94190476D01*
X122666666Y-94095238D01*
X122571428Y-94000000D01*
X122428571Y-93952380D01*
X122333333Y-93952380D01*
X122190476Y-94000000D01*
X122142857Y-94047619D01*
X121190476Y-94952380D02*
X121761904Y-94952380D01*
X121476190Y-94952380D02*
X121476190Y-93952380D01*
X121571428Y-94095238D01*
X121666666Y-94190476D01*
X121761904Y-94238095D01*
X120714285Y-94952380D02*
X120523809Y-94952380D01*
X120428571Y-94904761D01*
X120380952Y-94857142D01*
X120285714Y-94714285D01*
X120238095Y-94523809D01*
X120238095Y-94142857D01*
X120285714Y-94047619D01*
X120333333Y-94000000D01*
X120428571Y-93952380D01*
X120619047Y-93952380D01*
X120714285Y-94000000D01*
X120761904Y-94047619D01*
X120809523Y-94142857D01*
X120809523Y-94380952D01*
X120761904Y-94476190D01*
X120714285Y-94523809D01*
X120619047Y-94571428D01*
X120428571Y-94571428D01*
X120333333Y-94523809D01*
X120285714Y-94476190D01*
X120238095Y-94380952D01*
X127357142Y-87857142D02*
X127404761Y-87809523D01*
X127452380Y-87666666D01*
X127452380Y-87571428D01*
X127404761Y-87428571D01*
X127309523Y-87333333D01*
X127214285Y-87285714D01*
X127023809Y-87238095D01*
X126880952Y-87238095D01*
X126690476Y-87285714D01*
X126595238Y-87333333D01*
X126500000Y-87428571D01*
X126452380Y-87571428D01*
X126452380Y-87666666D01*
X126500000Y-87809523D01*
X126547619Y-87857142D01*
X126547619Y-88238095D02*
X126500000Y-88285714D01*
X126452380Y-88380952D01*
X126452380Y-88619047D01*
X126500000Y-88714285D01*
X126547619Y-88761904D01*
X126642857Y-88809523D01*
X126738095Y-88809523D01*
X126880952Y-88761904D01*
X127452380Y-88190476D01*
X127452380Y-88809523D01*
X127452380Y-89761904D02*
X127452380Y-89190476D01*
X127452380Y-89476190D02*
X126452380Y-89476190D01*
X126595238Y-89380952D01*
X126690476Y-89285714D01*
X126738095Y-89190476D01*
X101557142Y-59657142D02*
X101604761Y-59609523D01*
X101652380Y-59466666D01*
X101652380Y-59371428D01*
X101604761Y-59228571D01*
X101509523Y-59133333D01*
X101414285Y-59085714D01*
X101223809Y-59038095D01*
X101080952Y-59038095D01*
X100890476Y-59085714D01*
X100795238Y-59133333D01*
X100700000Y-59228571D01*
X100652380Y-59371428D01*
X100652380Y-59466666D01*
X100700000Y-59609523D01*
X100747619Y-59657142D01*
X100747619Y-60038095D02*
X100700000Y-60085714D01*
X100652380Y-60180952D01*
X100652380Y-60419047D01*
X100700000Y-60514285D01*
X100747619Y-60561904D01*
X100842857Y-60609523D01*
X100938095Y-60609523D01*
X101080952Y-60561904D01*
X101652380Y-59990476D01*
X101652380Y-60609523D01*
X100747619Y-60990476D02*
X100700000Y-61038095D01*
X100652380Y-61133333D01*
X100652380Y-61371428D01*
X100700000Y-61466666D01*
X100747619Y-61514285D01*
X100842857Y-61561904D01*
X100938095Y-61561904D01*
X101080952Y-61514285D01*
X101652380Y-60942857D01*
X101652380Y-61561904D01*
D17*
X49571428Y-58133333D02*
X48971428Y-58133333D01*
X48971428Y-58300000D01*
X49000000Y-58400000D01*
X49057142Y-58466666D01*
X49114285Y-58500000D01*
X49228571Y-58533333D01*
X49314285Y-58533333D01*
X49428571Y-58500000D01*
X49485714Y-58466666D01*
X49542857Y-58400000D01*
X49571428Y-58300000D01*
X49571428Y-58133333D01*
X48971428Y-59166666D02*
X48971428Y-58833333D01*
X49257142Y-58800000D01*
X49228571Y-58833333D01*
X49200000Y-58900000D01*
X49200000Y-59066666D01*
X49228571Y-59133333D01*
X49257142Y-59166666D01*
X49314285Y-59200000D01*
X49457142Y-59200000D01*
X49514285Y-59166666D01*
X49542857Y-59133333D01*
X49571428Y-59066666D01*
X49571428Y-58900000D01*
X49542857Y-58833333D01*
X49514285Y-58800000D01*
X50776026Y-61889206D02*
X51109360Y-61889206D01*
X51109360Y-61189206D01*
X50576026Y-61255873D02*
X50542693Y-61222540D01*
X50476026Y-61189206D01*
X50309360Y-61189206D01*
X50242693Y-61222540D01*
X50209360Y-61255873D01*
X50176026Y-61322540D01*
X50176026Y-61389206D01*
X50209360Y-61489206D01*
X50609360Y-61889206D01*
X50176026Y-61889206D01*
M02*
