G04 #@! TF.GenerationSoftware,KiCad,Pcbnew,5.1.9+dfsg1-1~bpo10+1*
G04 #@! TF.CreationDate,2021-11-10T17:09:55+00:00*
G04 #@! TF.ProjectId,dropbot_control_board,64726f70-626f-4745-9f63-6f6e74726f6c,v3.6*
G04 #@! TF.SameCoordinates,Original*
G04 #@! TF.FileFunction,Paste,Bot*
G04 #@! TF.FilePolarity,Positive*
%FSLAX46Y46*%
G04 Gerber Fmt 4.6, Leading zero omitted, Abs format (unit mm)*
G04 Created by KiCad (PCBNEW 5.1.9+dfsg1-1~bpo10+1) date 2021-11-10 17:09:55*
%MOMM*%
%LPD*%
G01*
G04 APERTURE LIST*
%ADD10R,9.000000X11.000000*%
%ADD11R,6.000000X10.500000*%
%ADD12R,1.524000X2.032000*%
%ADD13R,0.700000X1.300000*%
%ADD14R,0.900000X1.700000*%
%ADD15R,1.300000X0.700000*%
%ADD16C,1.270000*%
%ADD17R,1.250000X1.000000*%
%ADD18R,1.000000X1.600000*%
%ADD19R,0.500000X1.100000*%
%ADD20R,1.050000X1.400000*%
%ADD21R,2.997200X0.711200*%
%ADD22R,6.045200X3.403600*%
%ADD23C,2.000000*%
%ADD24R,1.000000X1.250000*%
%ADD25R,0.599440X1.099820*%
%ADD26R,0.899160X0.398780*%
G04 APERTURE END LIST*
D10*
X93167000Y-84644000D03*
X87833000Y-95947000D03*
D11*
X108236000Y-100600000D03*
D12*
X137290000Y-65190000D03*
X139830000Y-65190000D03*
X142370000Y-65190000D03*
X144910000Y-65190000D03*
X144910000Y-72810000D03*
X142370000Y-72810000D03*
X139830000Y-72810000D03*
X137290000Y-72810000D03*
X134210000Y-72810000D03*
X131670000Y-72810000D03*
X129130000Y-72810000D03*
X126590000Y-72810000D03*
X126590000Y-65190000D03*
X129130000Y-65190000D03*
X131670000Y-65190000D03*
X134210000Y-65190000D03*
D13*
X143050000Y-62900000D03*
X144950000Y-62900000D03*
X138850000Y-62900000D03*
X136950000Y-62900000D03*
X136250000Y-77000000D03*
X134350000Y-77000000D03*
X124550000Y-75200000D03*
X126450000Y-75200000D03*
X136250000Y-75100000D03*
X134350000Y-75100000D03*
D14*
X122450000Y-92800000D03*
X125350000Y-92800000D03*
D15*
X110900000Y-53250000D03*
X110900000Y-51350000D03*
X106000000Y-53250000D03*
X106000000Y-51350000D03*
X106200000Y-74850000D03*
X106200000Y-76750000D03*
X103600000Y-74850000D03*
X103600000Y-76750000D03*
D16*
X136130800Y-22473200D03*
X125869200Y-22473200D03*
X136130800Y-24733800D03*
X125869200Y-24733800D03*
D17*
X108700000Y-59400000D03*
X108700000Y-61400000D03*
X111200000Y-61400000D03*
X111200000Y-59400000D03*
D13*
X104650000Y-52800000D03*
X102750000Y-52800000D03*
X67050000Y-82800000D03*
X68950000Y-82800000D03*
D15*
X103700000Y-73450000D03*
X103700000Y-71550000D03*
X106200000Y-73450000D03*
X106200000Y-71550000D03*
X108700000Y-58250000D03*
X108700000Y-56350000D03*
X111200000Y-58250000D03*
X111200000Y-56350000D03*
X107600000Y-51550000D03*
X107600000Y-53450000D03*
X112500000Y-51450000D03*
X112500000Y-53350000D03*
D13*
X119350000Y-74300000D03*
X117450000Y-74300000D03*
D15*
X121500000Y-73750000D03*
X121500000Y-71850000D03*
X126000000Y-54750000D03*
X126000000Y-56650000D03*
D18*
X73600000Y-82800000D03*
X70600000Y-82800000D03*
D19*
X36400000Y-82300000D03*
D20*
X33975000Y-80500000D03*
X33975000Y-84100000D03*
X35425000Y-80500000D03*
X35425000Y-84100000D03*
D21*
X42610400Y-63731830D03*
X42610400Y-64976430D03*
X42610400Y-66171030D03*
X42610400Y-67465630D03*
D22*
X36181660Y-58679770D03*
X36181660Y-72520230D03*
D23*
X35600000Y-62842830D03*
X35600000Y-68354630D03*
D12*
X144910000Y-60610000D03*
X142370000Y-60610000D03*
X139830000Y-60610000D03*
X137290000Y-60610000D03*
X137290000Y-52990000D03*
X139830000Y-52990000D03*
X142370000Y-52990000D03*
X144910000Y-52990000D03*
D24*
X125600000Y-94900000D03*
X123600000Y-94900000D03*
D17*
X127000000Y-90700000D03*
X127000000Y-92700000D03*
X99700000Y-61300000D03*
X99700000Y-59300000D03*
D25*
X47949960Y-61649680D03*
X47000000Y-61649680D03*
X46050040Y-61649680D03*
X46050040Y-59150320D03*
X47000000Y-59150320D03*
X47949960Y-59150320D03*
D26*
X49851640Y-60698780D03*
X51548360Y-60698780D03*
X51548360Y-59901220D03*
X49851640Y-59901220D03*
M02*
