G04 #@! TF.FileFunction,Paste,Bot*
%FSLAX46Y46*%
G04 Gerber Fmt 4.6, Leading zero omitted, Abs format (unit mm)*
G04 Created by KiCad (PCBNEW 4.0.1-stable) date 2017-03-07 5:39:30 PM*
%MOMM*%
G01*
G04 APERTURE LIST*
%ADD10C,0.150000*%
%ADD11R,9.000000X11.000000*%
%ADD12R,10.500000X6.000000*%
%ADD13R,1.524000X2.032000*%
%ADD14R,1.000000X1.250000*%
%ADD15R,0.700000X1.300000*%
%ADD16R,1.300000X0.700000*%
%ADD17C,1.270000*%
%ADD18R,1.250000X1.000000*%
%ADD19R,1.000000X1.600000*%
G04 APERTURE END LIST*
D10*
D11*
X53167000Y-84644000D03*
X47833000Y-95947000D03*
D12*
X84409000Y-82247000D03*
D13*
X97290000Y-65190000D03*
X99830000Y-65190000D03*
X102370000Y-65190000D03*
X104910000Y-65190000D03*
X104910000Y-72810000D03*
X102370000Y-72810000D03*
X99830000Y-72810000D03*
X97290000Y-72810000D03*
X94210000Y-72810000D03*
X91670000Y-72810000D03*
X89130000Y-72810000D03*
X86590000Y-72810000D03*
X86590000Y-65190000D03*
X89130000Y-65190000D03*
X91670000Y-65190000D03*
X94210000Y-65190000D03*
D14*
X105900000Y-75200000D03*
X103900000Y-75200000D03*
X100100000Y-75200000D03*
X102100000Y-75200000D03*
D15*
X104650000Y-62800000D03*
X102750000Y-62800000D03*
X99550000Y-62100000D03*
X97650000Y-62100000D03*
X96250000Y-77000000D03*
X94350000Y-77000000D03*
X84550000Y-75200000D03*
X86450000Y-75200000D03*
X96250000Y-75100000D03*
X94350000Y-75100000D03*
D16*
X86600000Y-61550000D03*
X86600000Y-63450000D03*
X70900000Y-53250000D03*
X70900000Y-51350000D03*
X66000000Y-53250000D03*
X66000000Y-51350000D03*
X66200000Y-74850000D03*
X66200000Y-76750000D03*
X63600000Y-74850000D03*
X63600000Y-76750000D03*
D17*
X96130800Y-22473200D03*
X85869200Y-22473200D03*
X96130800Y-24733800D03*
X85869200Y-24733800D03*
D18*
X68700000Y-59400000D03*
X68700000Y-61400000D03*
X71200000Y-61400000D03*
X71200000Y-59400000D03*
D19*
X33600000Y-82800000D03*
X30600000Y-82800000D03*
D15*
X64650000Y-52800000D03*
X62750000Y-52800000D03*
X27050000Y-82800000D03*
X28950000Y-82800000D03*
D16*
X63700000Y-73450000D03*
X63700000Y-71550000D03*
X66200000Y-73450000D03*
X66200000Y-71550000D03*
X68700000Y-58250000D03*
X68700000Y-56350000D03*
X71200000Y-58250000D03*
X71200000Y-56350000D03*
X67600000Y-51550000D03*
X67600000Y-53450000D03*
X72500000Y-51450000D03*
X72500000Y-53350000D03*
D18*
X60400000Y-74800000D03*
X60400000Y-76800000D03*
D15*
X79350000Y-74300000D03*
X77450000Y-74300000D03*
X82650000Y-71800000D03*
X80750000Y-71800000D03*
D16*
X84000000Y-56250000D03*
X84000000Y-58150000D03*
M02*
