G04 #@! TF.FileFunction,Copper,L2,Bot,Signal*
%FSLAX46Y46*%
G04 Gerber Fmt 4.6, Leading zero omitted, Abs format (unit mm)*
G04 Created by KiCad (PCBNEW 4.0.1-stable) date 11/23/2016 2:12:10 PM*
%MOMM*%
G01*
G04 APERTURE LIST*
%ADD10C,0.150000*%
%ADD11C,2.400000*%
%ADD12C,2.500000*%
%ADD13O,3.500120X1.699260*%
%ADD14R,9.000000X11.000000*%
%ADD15O,1.699260X3.500120*%
%ADD16R,10.500000X6.000000*%
%ADD17R,13.000000X9.000000*%
%ADD18R,2.032000X2.032000*%
%ADD19O,2.032000X2.032000*%
%ADD20R,2.540000X2.540000*%
%ADD21C,2.540000*%
%ADD22R,1.727200X2.032000*%
%ADD23O,1.727200X2.032000*%
%ADD24C,4.064000*%
%ADD25C,1.998980*%
%ADD26C,1.900000*%
%ADD27C,3.048000*%
%ADD28R,1.524000X1.524000*%
%ADD29C,1.524000*%
%ADD30C,1.200000*%
%ADD31C,0.254000*%
%ADD32C,0.500000*%
%ADD33C,0.100000*%
G04 APERTURE END LIST*
D10*
D11*
X29083000Y-28194000D03*
D12*
X26543000Y-25654000D03*
X31623000Y-25654000D03*
X31623000Y-30734000D03*
X26543000Y-30734000D03*
D11*
X40513000Y-28194000D03*
D12*
X37973000Y-25654000D03*
X43053000Y-25654000D03*
X43053000Y-30734000D03*
X37973000Y-30734000D03*
D13*
X36703000Y-72644000D03*
X36703000Y-75184000D03*
X36703000Y-70104000D03*
D14*
X53467000Y-72644000D03*
D13*
X31369000Y-83947000D03*
X31369000Y-86487000D03*
X31369000Y-81407000D03*
D14*
X48133000Y-83947000D03*
D15*
X84709000Y-88011000D03*
X87249000Y-88011000D03*
X82169000Y-88011000D03*
D16*
X84709000Y-70247000D03*
D15*
X101473000Y-66548000D03*
X104013000Y-66548000D03*
X98933000Y-66548000D03*
D17*
X101473000Y-49784000D03*
D18*
X101473000Y-58166000D03*
D19*
X104013000Y-58166000D03*
D20*
X102743000Y-27559000D03*
D21*
X97663000Y-27559000D03*
X92583000Y-27559000D03*
D22*
X89789000Y-58166000D03*
D23*
X92329000Y-58166000D03*
X94869000Y-58166000D03*
D22*
X28067000Y-67691000D03*
D23*
X30607000Y-67691000D03*
X33147000Y-67691000D03*
D24*
X28527000Y-39019000D03*
X104727000Y-39019000D03*
D25*
X32344360Y-73660000D03*
X27343100Y-73660000D03*
D22*
X28067000Y-90551000D03*
D23*
X30607000Y-90551000D03*
X33147000Y-90551000D03*
X35687000Y-90551000D03*
D26*
X59309000Y-53213000D03*
X61849000Y-53213000D03*
X64389000Y-53213000D03*
X54229000Y-65913000D03*
X56769000Y-65913000D03*
X59309000Y-65913000D03*
X61849000Y-65913000D03*
X64389000Y-65913000D03*
X66929000Y-65913000D03*
X69469000Y-65913000D03*
X72009000Y-65913000D03*
X74549000Y-65913000D03*
X77089000Y-65913000D03*
X79629000Y-65913000D03*
X82169000Y-65913000D03*
X84709000Y-65913000D03*
X84709000Y-50673000D03*
X82169000Y-50673000D03*
X79629000Y-50673000D03*
X77089000Y-50673000D03*
X74549000Y-50673000D03*
X72009000Y-50673000D03*
X69469000Y-50673000D03*
X66929000Y-50673000D03*
X64389000Y-50673000D03*
X61849000Y-50673000D03*
X59309000Y-50673000D03*
X56769000Y-50673000D03*
X54229000Y-50673000D03*
X51689000Y-50673000D03*
X51689000Y-65913000D03*
D27*
X77974000Y-28161000D03*
X56130000Y-28161000D03*
D28*
X61972000Y-29939000D03*
D29*
X61972000Y-27399000D03*
X64512000Y-29939000D03*
X64512000Y-27399000D03*
X67052000Y-29939000D03*
X67052000Y-27399000D03*
X69592000Y-29939000D03*
X69592000Y-27399000D03*
X72132000Y-29939000D03*
X72132000Y-27399000D03*
D30*
X28057000Y-65879000D03*
X37627000Y-63469000D03*
X43977000Y-70119000D03*
X102877000Y-32069000D03*
X45593000Y-53975000D03*
X83312000Y-58166000D03*
X70104000Y-59690000D03*
X81915000Y-77740000D03*
X65024000Y-40513000D03*
X64770000Y-83566000D03*
X63500000Y-83566000D03*
X62230000Y-83566000D03*
X76962000Y-73152000D03*
X78486000Y-71755000D03*
X78486000Y-73152000D03*
X76962000Y-71755000D03*
X75565000Y-71755000D03*
X75565000Y-73152000D03*
X84455000Y-81280000D03*
X99441000Y-70866000D03*
X63500000Y-89408000D03*
X62230000Y-89408000D03*
X64770000Y-89408000D03*
X77343000Y-32004000D03*
X74930000Y-45085000D03*
X97827000Y-91119000D03*
X29337000Y-87884000D03*
X87376000Y-78740000D03*
X100838000Y-62230000D03*
X85979000Y-74422000D03*
X80391000Y-75946000D03*
X50800000Y-54737000D03*
X67183000Y-53340000D03*
X46863000Y-77597000D03*
X42799000Y-77597000D03*
X82804000Y-38735000D03*
X80264000Y-38735000D03*
X45339000Y-64135000D03*
X69469000Y-63627000D03*
X44069000Y-66802000D03*
X83820000Y-46228000D03*
X79121000Y-47879000D03*
X87757000Y-46355000D03*
X78359000Y-51943000D03*
X72627000Y-75594000D03*
X67310000Y-79375000D03*
X37465000Y-76962000D03*
X32131000Y-77724000D03*
X68199000Y-43561000D03*
X58928000Y-43561000D03*
X58039000Y-47498000D03*
X69850000Y-45974000D03*
X68580000Y-41783000D03*
X65659000Y-42164000D03*
X43434000Y-65024000D03*
X53975000Y-61722000D03*
X33782000Y-35814000D03*
X36576000Y-37465000D03*
X56769000Y-60706000D03*
X59309000Y-59817000D03*
X42799000Y-37592000D03*
X61849000Y-58928000D03*
X47625000Y-37592000D03*
X68707000Y-39243000D03*
D31*
X46037500Y-42735500D02*
X46037500Y-42688000D01*
X46037500Y-42688000D02*
X46037500Y-42672000D01*
X46037500Y-42672000D02*
X46037500Y-42688000D01*
X28067000Y-67691000D02*
X28067000Y-65889000D01*
X28067000Y-65889000D02*
X28057000Y-65879000D01*
X36703000Y-70104000D02*
X43962000Y-70104000D01*
X43962000Y-70104000D02*
X43977000Y-70119000D01*
X43053000Y-30734000D02*
X43053000Y-32385000D01*
X45593000Y-34925000D02*
X45593000Y-53975000D01*
X43053000Y-32385000D02*
X45593000Y-34925000D01*
X28067000Y-67691000D02*
X28067000Y-66802000D01*
X83312000Y-58166000D02*
X71628000Y-58166000D01*
X89789000Y-58166000D02*
X83312000Y-58166000D01*
X71628000Y-58166000D02*
X70104000Y-59690000D01*
X36703000Y-70104000D02*
X30480000Y-70104000D01*
X30480000Y-70104000D02*
X28067000Y-67691000D01*
X81915000Y-77740000D02*
X81915000Y-77724000D01*
X77343000Y-32004000D02*
X77343000Y-42672000D01*
X64516000Y-30988000D02*
X65532000Y-32004000D01*
X65532000Y-32004000D02*
X77343000Y-32004000D01*
X64516000Y-29972000D02*
X64516000Y-30988000D01*
X77343000Y-42672000D02*
X74930000Y-45085000D01*
X35687000Y-90551000D02*
X35687000Y-90829000D01*
X35687000Y-90829000D02*
X35977000Y-91119000D01*
X35977000Y-91119000D02*
X97827000Y-91119000D01*
X35687000Y-90551000D02*
X35687000Y-90629000D01*
X35687000Y-90170000D02*
X35687000Y-89408000D01*
X35687000Y-89408000D02*
X34163000Y-87884000D01*
X34163000Y-87884000D02*
X29337000Y-87884000D01*
X64389000Y-65913000D02*
X64389000Y-67818000D01*
X81026000Y-78740000D02*
X87376000Y-78740000D01*
X76835000Y-74549000D02*
X81026000Y-78740000D01*
X71120000Y-74549000D02*
X76835000Y-74549000D01*
X64389000Y-67818000D02*
X71120000Y-74549000D01*
X68199000Y-67183000D02*
X77978000Y-67183000D01*
X66929000Y-65913000D02*
X68199000Y-67183000D01*
X99441000Y-63627000D02*
X100838000Y-62230000D01*
X80010000Y-63627000D02*
X99441000Y-63627000D01*
X78359000Y-65278000D02*
X80010000Y-63627000D01*
X78359000Y-66802000D02*
X78359000Y-65278000D01*
X77978000Y-67183000D02*
X78359000Y-66802000D01*
X81915000Y-74422000D02*
X85979000Y-74422000D01*
X80391000Y-75946000D02*
X81915000Y-74422000D01*
X50800000Y-54737000D02*
X67437000Y-54737000D01*
X79502000Y-53340000D02*
X82169000Y-50673000D01*
X68834000Y-53340000D02*
X79502000Y-53340000D01*
X67437000Y-54737000D02*
X68834000Y-53340000D01*
X67183000Y-53340000D02*
X67691000Y-52832000D01*
X67691000Y-52832000D02*
X78867000Y-52832000D01*
X78867000Y-52832000D02*
X79629000Y-52070000D01*
X79629000Y-50673000D02*
X79629000Y-52070000D01*
D32*
X42799000Y-77597000D02*
X46863000Y-77597000D01*
X31369000Y-83947000D02*
X35306000Y-83947000D01*
X41656000Y-77597000D02*
X42799000Y-77597000D01*
X35306000Y-83947000D02*
X41656000Y-77597000D01*
D31*
X80264000Y-38735000D02*
X82804000Y-38735000D01*
X45466000Y-64135000D02*
X45974000Y-63627000D01*
X69469000Y-63627000D02*
X45974000Y-63627000D01*
X45339000Y-64135000D02*
X45466000Y-64135000D01*
X69469000Y-63627000D02*
X69469000Y-63627000D01*
X44069000Y-66802000D02*
X44069000Y-66675000D01*
X70612000Y-64516000D02*
X72009000Y-65913000D01*
X46228000Y-64516000D02*
X70612000Y-64516000D01*
X44069000Y-66675000D02*
X46228000Y-64516000D01*
X72009000Y-50673000D02*
X72009000Y-50419000D01*
X72009000Y-50419000D02*
X73152000Y-49276000D01*
X73152000Y-49276000D02*
X82677000Y-49276000D01*
X82677000Y-49276000D02*
X83820000Y-48133000D01*
X83820000Y-46228000D02*
X83820000Y-48133000D01*
X56769000Y-50673000D02*
X57150000Y-50673000D01*
X57150000Y-50673000D02*
X58674000Y-49149000D01*
X71374000Y-47879000D02*
X79121000Y-47879000D01*
X70104000Y-49149000D02*
X71374000Y-47879000D01*
X58674000Y-49149000D02*
X70104000Y-49149000D01*
X71501000Y-48768000D02*
X80010000Y-48768000D01*
X86741000Y-45339000D02*
X87757000Y-46355000D01*
X83439000Y-45339000D02*
X86741000Y-45339000D01*
X80010000Y-48768000D02*
X83439000Y-45339000D01*
X69469000Y-50673000D02*
X69596000Y-50673000D01*
X69596000Y-50673000D02*
X71501000Y-48768000D01*
X75946000Y-52070000D02*
X74549000Y-50673000D01*
X78232000Y-52070000D02*
X75946000Y-52070000D01*
X78359000Y-51943000D02*
X78232000Y-52070000D01*
X71091000Y-75594000D02*
X67310000Y-79375000D01*
X72627000Y-75594000D02*
X71091000Y-75594000D01*
X35179000Y-76962000D02*
X37465000Y-76962000D01*
X34417000Y-77724000D02*
X35179000Y-76962000D01*
X32131000Y-77724000D02*
X34417000Y-77724000D01*
X58928000Y-43561000D02*
X68199000Y-43561000D01*
X58039000Y-47498000D02*
X59563000Y-45974000D01*
X59563000Y-45974000D02*
X69850000Y-45974000D01*
X66040000Y-41783000D02*
X68580000Y-41783000D01*
X65659000Y-42164000D02*
X66040000Y-41783000D01*
X77089000Y-65913000D02*
X77089000Y-65659000D01*
X77089000Y-65659000D02*
X79629000Y-63119000D01*
X79629000Y-63119000D02*
X92583000Y-63119000D01*
X92583000Y-63119000D02*
X94869000Y-60833000D01*
X94869000Y-60833000D02*
X94869000Y-58166000D01*
X71374000Y-62738000D02*
X74549000Y-65913000D01*
X45339000Y-62738000D02*
X71374000Y-62738000D01*
X43561000Y-64516000D02*
X45339000Y-62738000D01*
X43561000Y-64897000D02*
X43561000Y-64516000D01*
X43434000Y-65024000D02*
X43561000Y-64897000D01*
X34925000Y-56896000D02*
X34925000Y-36957000D01*
X34925000Y-56896000D02*
X39751000Y-61722000D01*
X39751000Y-61722000D02*
X53975000Y-61722000D01*
X34925000Y-36957000D02*
X33782000Y-35814000D01*
X56769000Y-60706000D02*
X39624000Y-60706000D01*
X35814000Y-56896000D02*
X39624000Y-60706000D01*
X35814000Y-38227000D02*
X35814000Y-56896000D01*
X36576000Y-37465000D02*
X35814000Y-38227000D01*
X56769000Y-60706000D02*
X56642000Y-60706000D01*
X47117000Y-59817000D02*
X59309000Y-59817000D01*
X42799000Y-55499000D02*
X47117000Y-59817000D01*
X42799000Y-37592000D02*
X42799000Y-55499000D01*
X49530000Y-58928000D02*
X61849000Y-58928000D01*
X47625000Y-57023000D02*
X49530000Y-58928000D01*
X47625000Y-37592000D02*
X47625000Y-57023000D01*
X68707000Y-39243000D02*
X67675000Y-39243000D01*
G36*
X36346877Y-24629533D02*
X36078612Y-25329806D01*
X36098750Y-26079435D01*
X36346877Y-26678467D01*
X36639680Y-26807715D01*
X37793395Y-25654000D01*
X37779253Y-25639858D01*
X37958858Y-25460253D01*
X37973000Y-25474395D01*
X37987143Y-25460253D01*
X38166748Y-25639858D01*
X38152605Y-25654000D01*
X38166748Y-25668143D01*
X37987143Y-25847748D01*
X37973000Y-25833605D01*
X36819285Y-26987320D01*
X36948533Y-27280123D01*
X37648806Y-27548388D01*
X38398435Y-27528250D01*
X38886476Y-27326097D01*
X38678319Y-27827395D01*
X38677682Y-28557403D01*
X38887769Y-29065853D01*
X38297194Y-28839612D01*
X37547565Y-28859750D01*
X36948533Y-29107877D01*
X36819285Y-29400680D01*
X37973000Y-30554395D01*
X37987143Y-30540253D01*
X38166748Y-30719858D01*
X38152605Y-30734000D01*
X39306320Y-31887715D01*
X39599123Y-31758467D01*
X39867388Y-31058194D01*
X39847250Y-30308565D01*
X39645097Y-29820524D01*
X40146395Y-30028681D01*
X40876403Y-30029318D01*
X41384853Y-29819231D01*
X41158612Y-30409806D01*
X41178750Y-31159435D01*
X41426877Y-31758467D01*
X41719680Y-31887715D01*
X42873395Y-30734000D01*
X43232605Y-30734000D01*
X44386320Y-31887715D01*
X44679123Y-31758467D01*
X44947388Y-31058194D01*
X44927250Y-30308565D01*
X44679123Y-29709533D01*
X44386320Y-29580285D01*
X43232605Y-30734000D01*
X42873395Y-30734000D01*
X42859253Y-30719858D01*
X43038858Y-30540253D01*
X43053000Y-30554395D01*
X44206715Y-29400680D01*
X44077467Y-29107877D01*
X43377194Y-28839612D01*
X42627565Y-28859750D01*
X42139524Y-29061903D01*
X42336070Y-28588567D01*
X53970626Y-28588567D01*
X54298622Y-29382377D01*
X54905428Y-29990244D01*
X55698664Y-30319624D01*
X56557567Y-30320374D01*
X57351377Y-29992378D01*
X57959244Y-29385572D01*
X58045850Y-29177000D01*
X60562560Y-29177000D01*
X60562560Y-30701000D01*
X60606838Y-30936317D01*
X60745910Y-31152441D01*
X60958110Y-31297431D01*
X61210000Y-31348440D01*
X62734000Y-31348440D01*
X62969317Y-31304162D01*
X63185441Y-31165090D01*
X63330431Y-30952890D01*
X63337250Y-30919213D01*
X63711392Y-30919213D01*
X63780857Y-31161397D01*
X64304302Y-31348144D01*
X64859368Y-31320362D01*
X65243143Y-31161397D01*
X65312608Y-30919213D01*
X64512000Y-30118605D01*
X63711392Y-30919213D01*
X63337250Y-30919213D01*
X63381440Y-30701000D01*
X63381440Y-30696484D01*
X63531787Y-30739608D01*
X64332395Y-29939000D01*
X63531787Y-29138392D01*
X63381440Y-29181516D01*
X63381440Y-29177000D01*
X63337162Y-28941683D01*
X63198090Y-28725559D01*
X62985890Y-28580569D01*
X62802876Y-28543508D01*
X63155629Y-28191370D01*
X63241949Y-27983488D01*
X63326990Y-28189303D01*
X63719630Y-28582629D01*
X63911727Y-28662395D01*
X63780857Y-28716603D01*
X63711392Y-28958787D01*
X64512000Y-29759395D01*
X65312608Y-28958787D01*
X65243143Y-28716603D01*
X65102682Y-28666491D01*
X65302303Y-28584010D01*
X65695629Y-28191370D01*
X65781949Y-27983488D01*
X65866990Y-28189303D01*
X66259630Y-28582629D01*
X66467512Y-28668949D01*
X66261697Y-28753990D01*
X65868371Y-29146630D01*
X65788605Y-29338727D01*
X65734397Y-29207857D01*
X65492213Y-29138392D01*
X64691605Y-29939000D01*
X65492213Y-30739608D01*
X65734397Y-30670143D01*
X65784509Y-30529682D01*
X65866990Y-30729303D01*
X66259630Y-31122629D01*
X66772900Y-31335757D01*
X67328661Y-31336242D01*
X67842303Y-31124010D01*
X68235629Y-30731370D01*
X68321949Y-30523488D01*
X68406990Y-30729303D01*
X68799630Y-31122629D01*
X69312900Y-31335757D01*
X69868661Y-31336242D01*
X70382303Y-31124010D01*
X70775629Y-30731370D01*
X70861949Y-30523488D01*
X70946990Y-30729303D01*
X71339630Y-31122629D01*
X71852900Y-31335757D01*
X72408661Y-31336242D01*
X72922303Y-31124010D01*
X73315629Y-30731370D01*
X73528757Y-30218100D01*
X73529242Y-29662339D01*
X73317010Y-29148697D01*
X72924370Y-28755371D01*
X72716488Y-28669051D01*
X72911274Y-28588567D01*
X75814626Y-28588567D01*
X76142622Y-29382377D01*
X76749428Y-29990244D01*
X77542664Y-30319624D01*
X78401567Y-30320374D01*
X79195377Y-29992378D01*
X79803244Y-29385572D01*
X80002056Y-28906777D01*
X91414828Y-28906777D01*
X91546520Y-29201657D01*
X92254036Y-29473261D01*
X93011632Y-29453436D01*
X93619480Y-29201657D01*
X93751172Y-28906777D01*
X92583000Y-27738605D01*
X91414828Y-28906777D01*
X80002056Y-28906777D01*
X80132624Y-28592336D01*
X80133374Y-27733433D01*
X79925375Y-27230036D01*
X90668739Y-27230036D01*
X90688564Y-27987632D01*
X90940343Y-28595480D01*
X91235223Y-28727172D01*
X92403395Y-27559000D01*
X92762605Y-27559000D01*
X93930777Y-28727172D01*
X94225657Y-28595480D01*
X94478719Y-27936265D01*
X95757670Y-27936265D01*
X96047078Y-28636686D01*
X96582495Y-29173039D01*
X97282410Y-29463668D01*
X98040265Y-29464330D01*
X98740686Y-29174922D01*
X99277039Y-28639505D01*
X99567668Y-27939590D01*
X99568330Y-27181735D01*
X99278922Y-26481314D01*
X99086944Y-26289000D01*
X100825560Y-26289000D01*
X100825560Y-28829000D01*
X100869838Y-29064317D01*
X101008910Y-29280441D01*
X101221110Y-29425431D01*
X101473000Y-29476440D01*
X104013000Y-29476440D01*
X104248317Y-29432162D01*
X104464441Y-29293090D01*
X104609431Y-29080890D01*
X104660440Y-28829000D01*
X104660440Y-26289000D01*
X104616162Y-26053683D01*
X104477090Y-25837559D01*
X104264890Y-25692569D01*
X104013000Y-25641560D01*
X101473000Y-25641560D01*
X101237683Y-25685838D01*
X101021559Y-25824910D01*
X100876569Y-26037110D01*
X100825560Y-26289000D01*
X99086944Y-26289000D01*
X98743505Y-25944961D01*
X98043590Y-25654332D01*
X97285735Y-25653670D01*
X96585314Y-25943078D01*
X96048961Y-26478495D01*
X95758332Y-27178410D01*
X95757670Y-27936265D01*
X94478719Y-27936265D01*
X94497261Y-27887964D01*
X94477436Y-27130368D01*
X94225657Y-26522520D01*
X93930777Y-26390828D01*
X92762605Y-27559000D01*
X92403395Y-27559000D01*
X91235223Y-26390828D01*
X90940343Y-26522520D01*
X90668739Y-27230036D01*
X79925375Y-27230036D01*
X79805378Y-26939623D01*
X79198572Y-26331756D01*
X78908296Y-26211223D01*
X91414828Y-26211223D01*
X92583000Y-27379395D01*
X93751172Y-26211223D01*
X93619480Y-25916343D01*
X92911964Y-25644739D01*
X92154368Y-25664564D01*
X91546520Y-25916343D01*
X91414828Y-26211223D01*
X78908296Y-26211223D01*
X78405336Y-26002376D01*
X77546433Y-26001626D01*
X76752623Y-26329622D01*
X76144756Y-26936428D01*
X75815376Y-27729664D01*
X75814626Y-28588567D01*
X72911274Y-28588567D01*
X72922303Y-28584010D01*
X73315629Y-28191370D01*
X73528757Y-27678100D01*
X73529242Y-27122339D01*
X73317010Y-26608697D01*
X72924370Y-26215371D01*
X72411100Y-26002243D01*
X71855339Y-26001758D01*
X71341697Y-26213990D01*
X70948371Y-26606630D01*
X70862051Y-26814512D01*
X70777010Y-26608697D01*
X70384370Y-26215371D01*
X69871100Y-26002243D01*
X69315339Y-26001758D01*
X68801697Y-26213990D01*
X68408371Y-26606630D01*
X68322051Y-26814512D01*
X68237010Y-26608697D01*
X67844370Y-26215371D01*
X67331100Y-26002243D01*
X66775339Y-26001758D01*
X66261697Y-26213990D01*
X65868371Y-26606630D01*
X65782051Y-26814512D01*
X65697010Y-26608697D01*
X65304370Y-26215371D01*
X64791100Y-26002243D01*
X64235339Y-26001758D01*
X63721697Y-26213990D01*
X63328371Y-26606630D01*
X63242051Y-26814512D01*
X63157010Y-26608697D01*
X62764370Y-26215371D01*
X62251100Y-26002243D01*
X61695339Y-26001758D01*
X61181697Y-26213990D01*
X60788371Y-26606630D01*
X60575243Y-27119900D01*
X60574758Y-27675661D01*
X60786990Y-28189303D01*
X61139833Y-28542763D01*
X60974683Y-28573838D01*
X60758559Y-28712910D01*
X60613569Y-28925110D01*
X60562560Y-29177000D01*
X58045850Y-29177000D01*
X58288624Y-28592336D01*
X58289374Y-27733433D01*
X57961378Y-26939623D01*
X57354572Y-26331756D01*
X56561336Y-26002376D01*
X55702433Y-26001626D01*
X54908623Y-26329622D01*
X54300756Y-26936428D01*
X53971376Y-27729664D01*
X53970626Y-28588567D01*
X42336070Y-28588567D01*
X42347681Y-28560605D01*
X42348318Y-27830597D01*
X42138231Y-27322147D01*
X42728806Y-27548388D01*
X43478435Y-27528250D01*
X44077467Y-27280123D01*
X44206715Y-26987320D01*
X43053000Y-25833605D01*
X43038858Y-25847748D01*
X42859253Y-25668143D01*
X42873395Y-25654000D01*
X42859253Y-25639858D01*
X43038858Y-25460253D01*
X43053000Y-25474395D01*
X43067143Y-25460253D01*
X43246748Y-25639858D01*
X43232605Y-25654000D01*
X44386320Y-26807715D01*
X44679123Y-26678467D01*
X44947388Y-25978194D01*
X44927250Y-25228565D01*
X44679123Y-24629533D01*
X44554449Y-24574500D01*
X107124500Y-24574500D01*
X107124500Y-37837470D01*
X106989291Y-37510239D01*
X106239707Y-36759345D01*
X105259827Y-36352464D01*
X104198828Y-36351538D01*
X103218239Y-36756709D01*
X102467345Y-37506293D01*
X102060464Y-38486173D01*
X102059538Y-39547172D01*
X102464709Y-40527761D01*
X103214293Y-41278655D01*
X104194173Y-41685536D01*
X105255172Y-41686462D01*
X106235761Y-41281291D01*
X106986655Y-40531707D01*
X107124500Y-40199739D01*
X107124500Y-44636560D01*
X94973000Y-44636560D01*
X94737683Y-44680838D01*
X94521559Y-44819910D01*
X94376569Y-45032110D01*
X94325560Y-45284000D01*
X94325560Y-54284000D01*
X94369838Y-54519317D01*
X94508910Y-54735441D01*
X94721110Y-54880431D01*
X94973000Y-54931440D01*
X107124500Y-54931440D01*
X107124500Y-92143500D01*
X103204000Y-92143500D01*
X103204000Y-80319000D01*
X103193994Y-80269590D01*
X103165553Y-80227965D01*
X103123159Y-80200685D01*
X103077000Y-80192000D01*
X90977000Y-80192000D01*
X90927590Y-80202006D01*
X90885965Y-80230447D01*
X90858685Y-80272841D01*
X90850000Y-80319000D01*
X90850000Y-90357000D01*
X87680274Y-90357000D01*
X87817143Y-90329775D01*
X88298792Y-90007948D01*
X88620619Y-89526299D01*
X88733630Y-88958156D01*
X88733630Y-87063844D01*
X88620619Y-86495701D01*
X88298792Y-86014052D01*
X87817143Y-85692225D01*
X87249000Y-85579214D01*
X86680857Y-85692225D01*
X86199208Y-86014052D01*
X85979000Y-86343617D01*
X85758792Y-86014052D01*
X85277143Y-85692225D01*
X84709000Y-85579214D01*
X84140857Y-85692225D01*
X83659208Y-86014052D01*
X83439000Y-86343617D01*
X83218792Y-86014052D01*
X82737143Y-85692225D01*
X82169000Y-85579214D01*
X81600857Y-85692225D01*
X81119208Y-86014052D01*
X80797381Y-86495701D01*
X80684370Y-87063844D01*
X80684370Y-88958156D01*
X80797381Y-89526299D01*
X81119208Y-90007948D01*
X81600857Y-90329775D01*
X81737726Y-90357000D01*
X58788468Y-90357000D01*
X58677940Y-67367174D01*
X58992341Y-67497724D01*
X59622893Y-67498275D01*
X60205657Y-67257481D01*
X60579261Y-66884529D01*
X60949997Y-67255914D01*
X61532341Y-67497724D01*
X62162893Y-67498275D01*
X62745657Y-67257481D01*
X63119261Y-66884529D01*
X63489997Y-67255914D01*
X63627000Y-67312803D01*
X63627000Y-67818000D01*
X63685004Y-68109605D01*
X63850185Y-68356815D01*
X70550369Y-75057000D01*
X67467233Y-78140137D01*
X67065421Y-78139786D01*
X66611343Y-78327408D01*
X66263629Y-78674515D01*
X66075215Y-79128266D01*
X66074786Y-79619579D01*
X66262408Y-80073657D01*
X66609515Y-80421371D01*
X67063266Y-80609785D01*
X67554579Y-80610214D01*
X68008657Y-80422592D01*
X68356371Y-80075485D01*
X68544785Y-79621734D01*
X68545138Y-79217492D01*
X71406631Y-76356000D01*
X71642640Y-76356000D01*
X71926515Y-76640371D01*
X72380266Y-76828785D01*
X72871579Y-76829214D01*
X73325657Y-76641592D01*
X73673371Y-76294485D01*
X73861785Y-75840734D01*
X73862214Y-75349421D01*
X73846339Y-75311000D01*
X76519370Y-75311000D01*
X80487185Y-79278815D01*
X80734395Y-79443996D01*
X81026000Y-79502000D01*
X86391640Y-79502000D01*
X86675515Y-79786371D01*
X87129266Y-79974785D01*
X87620579Y-79975214D01*
X88074657Y-79787592D01*
X88422371Y-79440485D01*
X88610785Y-78986734D01*
X88611214Y-78495421D01*
X88423592Y-78041343D01*
X88076485Y-77693629D01*
X87622734Y-77505215D01*
X87131421Y-77504786D01*
X86677343Y-77692408D01*
X86391252Y-77978000D01*
X81341630Y-77978000D01*
X80544765Y-77181135D01*
X80635579Y-77181214D01*
X81089657Y-76993592D01*
X81437371Y-76646485D01*
X81625785Y-76192734D01*
X81626138Y-75788492D01*
X82230631Y-75184000D01*
X84994640Y-75184000D01*
X85278515Y-75468371D01*
X85732266Y-75656785D01*
X86223579Y-75657214D01*
X86677657Y-75469592D01*
X87025371Y-75122485D01*
X87213785Y-74668734D01*
X87214214Y-74177421D01*
X87097288Y-73894440D01*
X89959000Y-73894440D01*
X90194317Y-73850162D01*
X90410441Y-73711090D01*
X90555431Y-73498890D01*
X90606440Y-73247000D01*
X90606440Y-67247000D01*
X90562162Y-67011683D01*
X90423090Y-66795559D01*
X90246646Y-66675000D01*
X97448370Y-66675000D01*
X97448370Y-67575430D01*
X97609982Y-68133906D01*
X97973011Y-68588024D01*
X98482190Y-68868649D01*
X98576168Y-68889540D01*
X98806000Y-68768214D01*
X98806000Y-66675000D01*
X97448370Y-66675000D01*
X90246646Y-66675000D01*
X90210890Y-66650569D01*
X89959000Y-66599560D01*
X86140128Y-66599560D01*
X86293724Y-66229659D01*
X86294275Y-65599107D01*
X86053481Y-65016343D01*
X85608003Y-64570086D01*
X85171899Y-64389000D01*
X98188887Y-64389000D01*
X97973011Y-64507976D01*
X97609982Y-64962094D01*
X97448370Y-65520570D01*
X97448370Y-66421000D01*
X98806000Y-66421000D01*
X98806000Y-66401000D01*
X99060000Y-66401000D01*
X99060000Y-66421000D01*
X99080000Y-66421000D01*
X99080000Y-66675000D01*
X99060000Y-66675000D01*
X99060000Y-68768214D01*
X99289832Y-68889540D01*
X99383810Y-68868649D01*
X99892989Y-68588024D01*
X100197484Y-68207127D01*
X100423208Y-68544948D01*
X100904857Y-68866775D01*
X101473000Y-68979786D01*
X102041143Y-68866775D01*
X102522792Y-68544948D01*
X102743000Y-68215383D01*
X102963208Y-68544948D01*
X103444857Y-68866775D01*
X104013000Y-68979786D01*
X104581143Y-68866775D01*
X105062792Y-68544948D01*
X105384619Y-68063299D01*
X105497630Y-67495156D01*
X105497630Y-65600844D01*
X105384619Y-65032701D01*
X105062792Y-64551052D01*
X104581143Y-64229225D01*
X104013000Y-64116214D01*
X103444857Y-64229225D01*
X102963208Y-64551052D01*
X102743000Y-64880617D01*
X102522792Y-64551052D01*
X102041143Y-64229225D01*
X101473000Y-64116214D01*
X100904857Y-64229225D01*
X100423208Y-64551052D01*
X100197484Y-64888873D01*
X99892989Y-64507976D01*
X99614496Y-64354489D01*
X99732605Y-64330996D01*
X99979815Y-64165815D01*
X100680767Y-63464863D01*
X101082579Y-63465214D01*
X101536657Y-63277592D01*
X101884371Y-62930485D01*
X102072785Y-62476734D01*
X102073214Y-61985421D01*
X101885592Y-61531343D01*
X101538485Y-61183629D01*
X101084734Y-60995215D01*
X100593421Y-60994786D01*
X100139343Y-61182408D01*
X99791629Y-61529515D01*
X99603215Y-61983266D01*
X99602862Y-62387507D01*
X99125370Y-62865000D01*
X93914630Y-62865000D01*
X95407815Y-61371816D01*
X95572996Y-61124605D01*
X95631000Y-60833000D01*
X95631000Y-59609312D01*
X95928670Y-59410415D01*
X96253526Y-58924234D01*
X96367600Y-58350745D01*
X96367600Y-57981255D01*
X96253526Y-57407766D01*
X96081293Y-57150000D01*
X99809560Y-57150000D01*
X99809560Y-59182000D01*
X99853838Y-59417317D01*
X99992910Y-59633441D01*
X100205110Y-59778431D01*
X100457000Y-59829440D01*
X102489000Y-59829440D01*
X102724317Y-59785162D01*
X102940441Y-59646090D01*
X103042198Y-59497163D01*
X103381190Y-59723670D01*
X104013000Y-59849345D01*
X104644810Y-59723670D01*
X105180433Y-59365778D01*
X105538325Y-58830155D01*
X105664000Y-58198345D01*
X105664000Y-58133655D01*
X105538325Y-57501845D01*
X105180433Y-56966222D01*
X104644810Y-56608330D01*
X104013000Y-56482655D01*
X103381190Y-56608330D01*
X103041208Y-56835499D01*
X102953090Y-56698559D01*
X102740890Y-56553569D01*
X102489000Y-56502560D01*
X100457000Y-56502560D01*
X100221683Y-56546838D01*
X100005559Y-56685910D01*
X99860569Y-56898110D01*
X99809560Y-57150000D01*
X96081293Y-57150000D01*
X95928670Y-56921585D01*
X95442489Y-56596729D01*
X94869000Y-56482655D01*
X94295511Y-56596729D01*
X93809330Y-56921585D01*
X93599000Y-57236366D01*
X93388670Y-56921585D01*
X92902489Y-56596729D01*
X92329000Y-56482655D01*
X91755511Y-56596729D01*
X91269330Y-56921585D01*
X91254500Y-56943780D01*
X91190927Y-56790302D01*
X91012299Y-56611673D01*
X90778910Y-56515000D01*
X90074750Y-56515000D01*
X89916000Y-56673750D01*
X89916000Y-58039000D01*
X89936000Y-58039000D01*
X89936000Y-58293000D01*
X89916000Y-58293000D01*
X89916000Y-59658250D01*
X90074750Y-59817000D01*
X90778910Y-59817000D01*
X91012299Y-59720327D01*
X91190927Y-59541698D01*
X91254500Y-59388220D01*
X91269330Y-59410415D01*
X91755511Y-59735271D01*
X92329000Y-59849345D01*
X92902489Y-59735271D01*
X93388670Y-59410415D01*
X93599000Y-59095634D01*
X93809330Y-59410415D01*
X94107000Y-59609312D01*
X94107000Y-60517369D01*
X92267370Y-62357000D01*
X79629000Y-62357000D01*
X79337395Y-62415004D01*
X79090184Y-62580185D01*
X77342149Y-64328221D01*
X76775107Y-64327725D01*
X76192343Y-64568519D01*
X75818739Y-64941471D01*
X75448003Y-64570086D01*
X74865659Y-64328276D01*
X74235107Y-64327725D01*
X74098005Y-64384375D01*
X71912814Y-62199184D01*
X71665605Y-62034004D01*
X71374000Y-61976000D01*
X55206768Y-61976000D01*
X55209785Y-61968734D01*
X55210214Y-61477421D01*
X55206321Y-61468000D01*
X55784640Y-61468000D01*
X56068515Y-61752371D01*
X56522266Y-61940785D01*
X57013579Y-61941214D01*
X57467657Y-61753592D01*
X57815371Y-61406485D01*
X58003785Y-60952734D01*
X58004111Y-60579000D01*
X58324640Y-60579000D01*
X58608515Y-60863371D01*
X59062266Y-61051785D01*
X59553579Y-61052214D01*
X60007657Y-60864592D01*
X60355371Y-60517485D01*
X60543785Y-60063734D01*
X60544111Y-59690000D01*
X60864640Y-59690000D01*
X61148515Y-59974371D01*
X61602266Y-60162785D01*
X62093579Y-60163214D01*
X62547657Y-59975592D01*
X62895371Y-59628485D01*
X63083785Y-59174734D01*
X63084214Y-58683421D01*
X62988490Y-58451750D01*
X88290400Y-58451750D01*
X88290400Y-59308309D01*
X88387073Y-59541698D01*
X88565701Y-59720327D01*
X88799090Y-59817000D01*
X89503250Y-59817000D01*
X89662000Y-59658250D01*
X89662000Y-58293000D01*
X88449150Y-58293000D01*
X88290400Y-58451750D01*
X62988490Y-58451750D01*
X62896592Y-58229343D01*
X62549485Y-57881629D01*
X62095734Y-57693215D01*
X61604421Y-57692786D01*
X61150343Y-57880408D01*
X60864252Y-58166000D01*
X49845630Y-58166000D01*
X48703321Y-57023691D01*
X88290400Y-57023691D01*
X88290400Y-57880250D01*
X88449150Y-58039000D01*
X89662000Y-58039000D01*
X89662000Y-56673750D01*
X89503250Y-56515000D01*
X88799090Y-56515000D01*
X88565701Y-56611673D01*
X88387073Y-56790302D01*
X88290400Y-57023691D01*
X48703321Y-57023691D01*
X48387000Y-56707370D01*
X48387000Y-54981579D01*
X49564786Y-54981579D01*
X49752408Y-55435657D01*
X50099515Y-55783371D01*
X50553266Y-55971785D01*
X51044579Y-55972214D01*
X51498657Y-55784592D01*
X51784748Y-55499000D01*
X67437000Y-55499000D01*
X67728605Y-55440996D01*
X67975815Y-55275815D01*
X69149631Y-54102000D01*
X79502000Y-54102000D01*
X79793605Y-54043996D01*
X80040815Y-53878815D01*
X81717781Y-52201850D01*
X81852341Y-52257724D01*
X82482893Y-52258275D01*
X83065657Y-52017481D01*
X83439261Y-51644529D01*
X83809997Y-52015914D01*
X84392341Y-52257724D01*
X85022893Y-52258275D01*
X85605657Y-52017481D01*
X86051914Y-51572003D01*
X86293724Y-50989659D01*
X86294275Y-50359107D01*
X86053481Y-49776343D01*
X85608003Y-49330086D01*
X85025659Y-49088276D01*
X84395107Y-49087725D01*
X83812343Y-49328519D01*
X83438739Y-49701471D01*
X83383997Y-49646633D01*
X84358815Y-48671815D01*
X84523996Y-48424605D01*
X84556738Y-48259999D01*
X84582000Y-48133000D01*
X84582000Y-47212360D01*
X84866371Y-46928485D01*
X85054785Y-46474734D01*
X85055111Y-46101000D01*
X86425370Y-46101000D01*
X86522137Y-46197767D01*
X86521786Y-46599579D01*
X86709408Y-47053657D01*
X87056515Y-47401371D01*
X87510266Y-47589785D01*
X88001579Y-47590214D01*
X88455657Y-47402592D01*
X88803371Y-47055485D01*
X88991785Y-46601734D01*
X88992214Y-46110421D01*
X88804592Y-45656343D01*
X88457485Y-45308629D01*
X88003734Y-45120215D01*
X87599492Y-45119862D01*
X87279815Y-44800185D01*
X87187925Y-44738786D01*
X87032605Y-44635004D01*
X86741000Y-44577000D01*
X83439000Y-44577000D01*
X83147395Y-44635004D01*
X82900184Y-44800185D01*
X80271345Y-47429024D01*
X80168592Y-47180343D01*
X79821485Y-46832629D01*
X79367734Y-46644215D01*
X78876421Y-46643786D01*
X78422343Y-46831408D01*
X78136252Y-47117000D01*
X71374000Y-47117000D01*
X71082395Y-47175004D01*
X70835184Y-47340185D01*
X69788370Y-48387000D01*
X58896526Y-48387000D01*
X59085371Y-48198485D01*
X59273785Y-47744734D01*
X59274138Y-47340492D01*
X59878631Y-46736000D01*
X68865640Y-46736000D01*
X69149515Y-47020371D01*
X69603266Y-47208785D01*
X70094579Y-47209214D01*
X70548657Y-47021592D01*
X70896371Y-46674485D01*
X71084785Y-46220734D01*
X71085214Y-45729421D01*
X70897592Y-45275343D01*
X70550485Y-44927629D01*
X70096734Y-44739215D01*
X69605421Y-44738786D01*
X69151343Y-44926408D01*
X68865252Y-45212000D01*
X59563000Y-45212000D01*
X59271395Y-45270004D01*
X59024184Y-45435185D01*
X58196233Y-46263137D01*
X57794421Y-46262786D01*
X57340343Y-46450408D01*
X56992629Y-46797515D01*
X56804215Y-47251266D01*
X56803786Y-47742579D01*
X56991408Y-48196657D01*
X57338515Y-48544371D01*
X57792266Y-48732785D01*
X58012392Y-48732977D01*
X57489432Y-49255937D01*
X57085659Y-49088276D01*
X56455107Y-49087725D01*
X55872343Y-49328519D01*
X55498739Y-49701471D01*
X55128003Y-49330086D01*
X54545659Y-49088276D01*
X53915107Y-49087725D01*
X53332343Y-49328519D01*
X52958739Y-49701471D01*
X52588003Y-49330086D01*
X52005659Y-49088276D01*
X51375107Y-49087725D01*
X50792343Y-49328519D01*
X50346086Y-49773997D01*
X50104276Y-50356341D01*
X50103725Y-50986893D01*
X50344519Y-51569657D01*
X50789997Y-52015914D01*
X51372341Y-52257724D01*
X52002893Y-52258275D01*
X52585657Y-52017481D01*
X52959261Y-51644529D01*
X53329997Y-52015914D01*
X53912341Y-52257724D01*
X54542893Y-52258275D01*
X55125657Y-52017481D01*
X55499261Y-51644529D01*
X55869997Y-52015914D01*
X56452341Y-52257724D01*
X57082893Y-52258275D01*
X57665657Y-52017481D01*
X58039261Y-51644529D01*
X58337471Y-51943261D01*
X57966086Y-52313997D01*
X57724276Y-52896341D01*
X57723725Y-53526893D01*
X57908880Y-53975000D01*
X51784360Y-53975000D01*
X51500485Y-53690629D01*
X51046734Y-53502215D01*
X50555421Y-53501786D01*
X50101343Y-53689408D01*
X49753629Y-54036515D01*
X49565215Y-54490266D01*
X49564786Y-54981579D01*
X48387000Y-54981579D01*
X48387000Y-43805579D01*
X57692786Y-43805579D01*
X57880408Y-44259657D01*
X58227515Y-44607371D01*
X58681266Y-44795785D01*
X59172579Y-44796214D01*
X59626657Y-44608592D01*
X59912748Y-44323000D01*
X67214640Y-44323000D01*
X67498515Y-44607371D01*
X67952266Y-44795785D01*
X68443579Y-44796214D01*
X68897657Y-44608592D01*
X69245371Y-44261485D01*
X69433785Y-43807734D01*
X69434214Y-43316421D01*
X69246592Y-42862343D01*
X69233516Y-42849244D01*
X69278657Y-42830592D01*
X69626371Y-42483485D01*
X69814785Y-42029734D01*
X69815214Y-41538421D01*
X69627592Y-41084343D01*
X69280485Y-40736629D01*
X68826734Y-40548215D01*
X68335421Y-40547786D01*
X67881343Y-40735408D01*
X67595252Y-41021000D01*
X66126777Y-41021000D01*
X65905734Y-40929215D01*
X65414421Y-40928786D01*
X64960343Y-41116408D01*
X64612629Y-41463515D01*
X64424215Y-41917266D01*
X64423786Y-42408579D01*
X64585105Y-42799000D01*
X59912360Y-42799000D01*
X59628485Y-42514629D01*
X59174734Y-42326215D01*
X58683421Y-42325786D01*
X58229343Y-42513408D01*
X57881629Y-42860515D01*
X57693215Y-43314266D01*
X57692786Y-43805579D01*
X48387000Y-43805579D01*
X48387000Y-39243000D01*
X66913000Y-39243000D01*
X66971004Y-39534605D01*
X67136185Y-39781815D01*
X67383395Y-39946996D01*
X67675000Y-40005000D01*
X67722640Y-40005000D01*
X68006515Y-40289371D01*
X68460266Y-40477785D01*
X68951579Y-40478214D01*
X69405657Y-40290592D01*
X69753371Y-39943485D01*
X69941785Y-39489734D01*
X69942214Y-38998421D01*
X69934429Y-38979579D01*
X79028786Y-38979579D01*
X79216408Y-39433657D01*
X79563515Y-39781371D01*
X80017266Y-39969785D01*
X80508579Y-39970214D01*
X80962657Y-39782592D01*
X81248748Y-39497000D01*
X81819640Y-39497000D01*
X82103515Y-39781371D01*
X82557266Y-39969785D01*
X83048579Y-39970214D01*
X83502657Y-39782592D01*
X83850371Y-39435485D01*
X84038785Y-38981734D01*
X84039214Y-38490421D01*
X83851592Y-38036343D01*
X83504485Y-37688629D01*
X83050734Y-37500215D01*
X82559421Y-37499786D01*
X82105343Y-37687408D01*
X81819252Y-37973000D01*
X81248360Y-37973000D01*
X80964485Y-37688629D01*
X80510734Y-37500215D01*
X80019421Y-37499786D01*
X79565343Y-37687408D01*
X79217629Y-38034515D01*
X79029215Y-38488266D01*
X79028786Y-38979579D01*
X69934429Y-38979579D01*
X69754592Y-38544343D01*
X69407485Y-38196629D01*
X68953734Y-38008215D01*
X68462421Y-38007786D01*
X68008343Y-38195408D01*
X67722252Y-38481000D01*
X67675000Y-38481000D01*
X67383395Y-38539004D01*
X67136185Y-38704185D01*
X66971004Y-38951395D01*
X66913000Y-39243000D01*
X48387000Y-39243000D01*
X48387000Y-38576360D01*
X48671371Y-38292485D01*
X48859785Y-37838734D01*
X48860214Y-37347421D01*
X48672592Y-36893343D01*
X48325485Y-36545629D01*
X47871734Y-36357215D01*
X47380421Y-36356786D01*
X46926343Y-36544408D01*
X46578629Y-36891515D01*
X46390215Y-37345266D01*
X46389786Y-37836579D01*
X46577408Y-38290657D01*
X46863000Y-38576748D01*
X46863000Y-57023000D01*
X46921004Y-57314605D01*
X47001326Y-57434815D01*
X47086185Y-57561815D01*
X48579370Y-59055000D01*
X47432630Y-59055000D01*
X43561000Y-55183370D01*
X43561000Y-42672000D01*
X45275500Y-42672000D01*
X45275500Y-42735500D01*
X45333504Y-43027105D01*
X45498685Y-43274315D01*
X45745895Y-43439496D01*
X46037500Y-43497500D01*
X46329105Y-43439496D01*
X46576315Y-43274315D01*
X46741496Y-43027105D01*
X46799500Y-42735500D01*
X46799500Y-42672000D01*
X46741496Y-42380395D01*
X46576315Y-42133185D01*
X46329105Y-41968004D01*
X46037500Y-41910000D01*
X45745895Y-41968004D01*
X45498685Y-42133185D01*
X45333504Y-42380395D01*
X45275500Y-42672000D01*
X43561000Y-42672000D01*
X43561000Y-38576360D01*
X43845371Y-38292485D01*
X44033785Y-37838734D01*
X44034214Y-37347421D01*
X43846592Y-36893343D01*
X43499485Y-36545629D01*
X43045734Y-36357215D01*
X42554421Y-36356786D01*
X42100343Y-36544408D01*
X41752629Y-36891515D01*
X41564215Y-37345266D01*
X41563786Y-37836579D01*
X41751408Y-38290657D01*
X42037000Y-38576748D01*
X42037000Y-55499000D01*
X42095004Y-55790605D01*
X42216065Y-55971785D01*
X42260185Y-56037815D01*
X46166370Y-59944000D01*
X39939631Y-59944000D01*
X36576000Y-56580370D01*
X36576000Y-38700000D01*
X36820579Y-38700214D01*
X37274657Y-38512592D01*
X37622371Y-38165485D01*
X37810785Y-37711734D01*
X37811214Y-37220421D01*
X37623592Y-36766343D01*
X37276485Y-36418629D01*
X36822734Y-36230215D01*
X36331421Y-36229786D01*
X35877343Y-36417408D01*
X35628967Y-36665351D01*
X35463815Y-36418185D01*
X35016863Y-35971233D01*
X35017214Y-35569421D01*
X34829592Y-35115343D01*
X34482485Y-34767629D01*
X34028734Y-34579215D01*
X33537421Y-34578786D01*
X33083343Y-34766408D01*
X32735629Y-35113515D01*
X32547215Y-35567266D01*
X32546786Y-36058579D01*
X32734408Y-36512657D01*
X33081515Y-36860371D01*
X33535266Y-37048785D01*
X33939508Y-37049138D01*
X34163000Y-37272630D01*
X34163000Y-56896000D01*
X34221004Y-57187605D01*
X34305863Y-57314605D01*
X34386185Y-57434815D01*
X39212185Y-62260816D01*
X39356137Y-62357001D01*
X39459395Y-62425996D01*
X39751000Y-62484000D01*
X44515369Y-62484000D01*
X43210565Y-63788804D01*
X43189421Y-63788786D01*
X42735343Y-63976408D01*
X42387629Y-64323515D01*
X42199215Y-64777266D01*
X42198786Y-65268579D01*
X42386408Y-65722657D01*
X42733515Y-66070371D01*
X42991141Y-66177347D01*
X42889967Y-66421000D01*
X34168379Y-66421000D01*
X33720489Y-66121729D01*
X33147000Y-66007655D01*
X32573511Y-66121729D01*
X32125621Y-66421000D01*
X31628379Y-66421000D01*
X31180489Y-66121729D01*
X30607000Y-66007655D01*
X30033511Y-66121729D01*
X29585621Y-66421000D01*
X29512709Y-66421000D01*
X29468927Y-66315302D01*
X29290299Y-66136673D01*
X29056910Y-66040000D01*
X28352750Y-66040000D01*
X28194000Y-66198750D01*
X28194000Y-66421000D01*
X27940000Y-66421000D01*
X27940000Y-66198750D01*
X27781250Y-66040000D01*
X27077090Y-66040000D01*
X26843701Y-66136673D01*
X26665073Y-66315302D01*
X26621291Y-66421000D01*
X25209500Y-66421000D01*
X25209500Y-39547172D01*
X25859538Y-39547172D01*
X26264709Y-40527761D01*
X27014293Y-41278655D01*
X27994173Y-41685536D01*
X29055172Y-41686462D01*
X30035761Y-41281291D01*
X30786655Y-40531707D01*
X31193536Y-39551827D01*
X31194462Y-38490828D01*
X30789291Y-37510239D01*
X30039707Y-36759345D01*
X29059827Y-36352464D01*
X27998828Y-36351538D01*
X27018239Y-36756709D01*
X26267345Y-37506293D01*
X25860464Y-38486173D01*
X25859538Y-39547172D01*
X25209500Y-39547172D01*
X25209500Y-32115000D01*
X25275554Y-32181054D01*
X25389286Y-32067322D01*
X25518533Y-32360123D01*
X26218806Y-32628388D01*
X26968435Y-32608250D01*
X27567467Y-32360123D01*
X27696715Y-32067320D01*
X30469285Y-32067320D01*
X30598533Y-32360123D01*
X31298806Y-32628388D01*
X32048435Y-32608250D01*
X32647467Y-32360123D01*
X32776715Y-32067320D01*
X36819285Y-32067320D01*
X36948533Y-32360123D01*
X37648806Y-32628388D01*
X38398435Y-32608250D01*
X38997467Y-32360123D01*
X39126715Y-32067320D01*
X41899285Y-32067320D01*
X42028533Y-32360123D01*
X42728806Y-32628388D01*
X43478435Y-32608250D01*
X44077467Y-32360123D01*
X44206715Y-32067320D01*
X43053000Y-30913605D01*
X41899285Y-32067320D01*
X39126715Y-32067320D01*
X37973000Y-30913605D01*
X36819285Y-32067320D01*
X32776715Y-32067320D01*
X31623000Y-30913605D01*
X30469285Y-32067320D01*
X27696715Y-32067320D01*
X26543000Y-30913605D01*
X26528858Y-30927748D01*
X26349253Y-30748143D01*
X26363395Y-30734000D01*
X26349253Y-30719858D01*
X26528858Y-30540253D01*
X26543000Y-30554395D01*
X26557143Y-30540253D01*
X26736748Y-30719858D01*
X26722605Y-30734000D01*
X27876320Y-31887715D01*
X28169123Y-31758467D01*
X28437388Y-31058194D01*
X28417250Y-30308565D01*
X28215097Y-29820524D01*
X28716395Y-30028681D01*
X29446403Y-30029318D01*
X29954853Y-29819231D01*
X29728612Y-30409806D01*
X29748750Y-31159435D01*
X29996877Y-31758467D01*
X30289680Y-31887715D01*
X31443395Y-30734000D01*
X31802605Y-30734000D01*
X32956320Y-31887715D01*
X33249123Y-31758467D01*
X33517388Y-31058194D01*
X33499970Y-30409806D01*
X36078612Y-30409806D01*
X36098750Y-31159435D01*
X36346877Y-31758467D01*
X36639680Y-31887715D01*
X37793395Y-30734000D01*
X36639680Y-29580285D01*
X36346877Y-29709533D01*
X36078612Y-30409806D01*
X33499970Y-30409806D01*
X33497250Y-30308565D01*
X33249123Y-29709533D01*
X32956320Y-29580285D01*
X31802605Y-30734000D01*
X31443395Y-30734000D01*
X31429253Y-30719858D01*
X31608858Y-30540253D01*
X31623000Y-30554395D01*
X32776715Y-29400680D01*
X32647467Y-29107877D01*
X31947194Y-28839612D01*
X31197565Y-28859750D01*
X30709524Y-29061903D01*
X30917681Y-28560605D01*
X30918318Y-27830597D01*
X30708231Y-27322147D01*
X31298806Y-27548388D01*
X32048435Y-27528250D01*
X32647467Y-27280123D01*
X32776715Y-26987320D01*
X31623000Y-25833605D01*
X31608858Y-25847748D01*
X31429253Y-25668143D01*
X31443395Y-25654000D01*
X31429253Y-25639858D01*
X31608858Y-25460253D01*
X31623000Y-25474395D01*
X31637143Y-25460253D01*
X31816748Y-25639858D01*
X31802605Y-25654000D01*
X32956320Y-26807715D01*
X33249123Y-26678467D01*
X33517388Y-25978194D01*
X33497250Y-25228565D01*
X33249123Y-24629533D01*
X33124449Y-24574500D01*
X36471551Y-24574500D01*
X36346877Y-24629533D01*
X36346877Y-24629533D01*
G37*
X36346877Y-24629533D02*
X36078612Y-25329806D01*
X36098750Y-26079435D01*
X36346877Y-26678467D01*
X36639680Y-26807715D01*
X37793395Y-25654000D01*
X37779253Y-25639858D01*
X37958858Y-25460253D01*
X37973000Y-25474395D01*
X37987143Y-25460253D01*
X38166748Y-25639858D01*
X38152605Y-25654000D01*
X38166748Y-25668143D01*
X37987143Y-25847748D01*
X37973000Y-25833605D01*
X36819285Y-26987320D01*
X36948533Y-27280123D01*
X37648806Y-27548388D01*
X38398435Y-27528250D01*
X38886476Y-27326097D01*
X38678319Y-27827395D01*
X38677682Y-28557403D01*
X38887769Y-29065853D01*
X38297194Y-28839612D01*
X37547565Y-28859750D01*
X36948533Y-29107877D01*
X36819285Y-29400680D01*
X37973000Y-30554395D01*
X37987143Y-30540253D01*
X38166748Y-30719858D01*
X38152605Y-30734000D01*
X39306320Y-31887715D01*
X39599123Y-31758467D01*
X39867388Y-31058194D01*
X39847250Y-30308565D01*
X39645097Y-29820524D01*
X40146395Y-30028681D01*
X40876403Y-30029318D01*
X41384853Y-29819231D01*
X41158612Y-30409806D01*
X41178750Y-31159435D01*
X41426877Y-31758467D01*
X41719680Y-31887715D01*
X42873395Y-30734000D01*
X43232605Y-30734000D01*
X44386320Y-31887715D01*
X44679123Y-31758467D01*
X44947388Y-31058194D01*
X44927250Y-30308565D01*
X44679123Y-29709533D01*
X44386320Y-29580285D01*
X43232605Y-30734000D01*
X42873395Y-30734000D01*
X42859253Y-30719858D01*
X43038858Y-30540253D01*
X43053000Y-30554395D01*
X44206715Y-29400680D01*
X44077467Y-29107877D01*
X43377194Y-28839612D01*
X42627565Y-28859750D01*
X42139524Y-29061903D01*
X42336070Y-28588567D01*
X53970626Y-28588567D01*
X54298622Y-29382377D01*
X54905428Y-29990244D01*
X55698664Y-30319624D01*
X56557567Y-30320374D01*
X57351377Y-29992378D01*
X57959244Y-29385572D01*
X58045850Y-29177000D01*
X60562560Y-29177000D01*
X60562560Y-30701000D01*
X60606838Y-30936317D01*
X60745910Y-31152441D01*
X60958110Y-31297431D01*
X61210000Y-31348440D01*
X62734000Y-31348440D01*
X62969317Y-31304162D01*
X63185441Y-31165090D01*
X63330431Y-30952890D01*
X63337250Y-30919213D01*
X63711392Y-30919213D01*
X63780857Y-31161397D01*
X64304302Y-31348144D01*
X64859368Y-31320362D01*
X65243143Y-31161397D01*
X65312608Y-30919213D01*
X64512000Y-30118605D01*
X63711392Y-30919213D01*
X63337250Y-30919213D01*
X63381440Y-30701000D01*
X63381440Y-30696484D01*
X63531787Y-30739608D01*
X64332395Y-29939000D01*
X63531787Y-29138392D01*
X63381440Y-29181516D01*
X63381440Y-29177000D01*
X63337162Y-28941683D01*
X63198090Y-28725559D01*
X62985890Y-28580569D01*
X62802876Y-28543508D01*
X63155629Y-28191370D01*
X63241949Y-27983488D01*
X63326990Y-28189303D01*
X63719630Y-28582629D01*
X63911727Y-28662395D01*
X63780857Y-28716603D01*
X63711392Y-28958787D01*
X64512000Y-29759395D01*
X65312608Y-28958787D01*
X65243143Y-28716603D01*
X65102682Y-28666491D01*
X65302303Y-28584010D01*
X65695629Y-28191370D01*
X65781949Y-27983488D01*
X65866990Y-28189303D01*
X66259630Y-28582629D01*
X66467512Y-28668949D01*
X66261697Y-28753990D01*
X65868371Y-29146630D01*
X65788605Y-29338727D01*
X65734397Y-29207857D01*
X65492213Y-29138392D01*
X64691605Y-29939000D01*
X65492213Y-30739608D01*
X65734397Y-30670143D01*
X65784509Y-30529682D01*
X65866990Y-30729303D01*
X66259630Y-31122629D01*
X66772900Y-31335757D01*
X67328661Y-31336242D01*
X67842303Y-31124010D01*
X68235629Y-30731370D01*
X68321949Y-30523488D01*
X68406990Y-30729303D01*
X68799630Y-31122629D01*
X69312900Y-31335757D01*
X69868661Y-31336242D01*
X70382303Y-31124010D01*
X70775629Y-30731370D01*
X70861949Y-30523488D01*
X70946990Y-30729303D01*
X71339630Y-31122629D01*
X71852900Y-31335757D01*
X72408661Y-31336242D01*
X72922303Y-31124010D01*
X73315629Y-30731370D01*
X73528757Y-30218100D01*
X73529242Y-29662339D01*
X73317010Y-29148697D01*
X72924370Y-28755371D01*
X72716488Y-28669051D01*
X72911274Y-28588567D01*
X75814626Y-28588567D01*
X76142622Y-29382377D01*
X76749428Y-29990244D01*
X77542664Y-30319624D01*
X78401567Y-30320374D01*
X79195377Y-29992378D01*
X79803244Y-29385572D01*
X80002056Y-28906777D01*
X91414828Y-28906777D01*
X91546520Y-29201657D01*
X92254036Y-29473261D01*
X93011632Y-29453436D01*
X93619480Y-29201657D01*
X93751172Y-28906777D01*
X92583000Y-27738605D01*
X91414828Y-28906777D01*
X80002056Y-28906777D01*
X80132624Y-28592336D01*
X80133374Y-27733433D01*
X79925375Y-27230036D01*
X90668739Y-27230036D01*
X90688564Y-27987632D01*
X90940343Y-28595480D01*
X91235223Y-28727172D01*
X92403395Y-27559000D01*
X92762605Y-27559000D01*
X93930777Y-28727172D01*
X94225657Y-28595480D01*
X94478719Y-27936265D01*
X95757670Y-27936265D01*
X96047078Y-28636686D01*
X96582495Y-29173039D01*
X97282410Y-29463668D01*
X98040265Y-29464330D01*
X98740686Y-29174922D01*
X99277039Y-28639505D01*
X99567668Y-27939590D01*
X99568330Y-27181735D01*
X99278922Y-26481314D01*
X99086944Y-26289000D01*
X100825560Y-26289000D01*
X100825560Y-28829000D01*
X100869838Y-29064317D01*
X101008910Y-29280441D01*
X101221110Y-29425431D01*
X101473000Y-29476440D01*
X104013000Y-29476440D01*
X104248317Y-29432162D01*
X104464441Y-29293090D01*
X104609431Y-29080890D01*
X104660440Y-28829000D01*
X104660440Y-26289000D01*
X104616162Y-26053683D01*
X104477090Y-25837559D01*
X104264890Y-25692569D01*
X104013000Y-25641560D01*
X101473000Y-25641560D01*
X101237683Y-25685838D01*
X101021559Y-25824910D01*
X100876569Y-26037110D01*
X100825560Y-26289000D01*
X99086944Y-26289000D01*
X98743505Y-25944961D01*
X98043590Y-25654332D01*
X97285735Y-25653670D01*
X96585314Y-25943078D01*
X96048961Y-26478495D01*
X95758332Y-27178410D01*
X95757670Y-27936265D01*
X94478719Y-27936265D01*
X94497261Y-27887964D01*
X94477436Y-27130368D01*
X94225657Y-26522520D01*
X93930777Y-26390828D01*
X92762605Y-27559000D01*
X92403395Y-27559000D01*
X91235223Y-26390828D01*
X90940343Y-26522520D01*
X90668739Y-27230036D01*
X79925375Y-27230036D01*
X79805378Y-26939623D01*
X79198572Y-26331756D01*
X78908296Y-26211223D01*
X91414828Y-26211223D01*
X92583000Y-27379395D01*
X93751172Y-26211223D01*
X93619480Y-25916343D01*
X92911964Y-25644739D01*
X92154368Y-25664564D01*
X91546520Y-25916343D01*
X91414828Y-26211223D01*
X78908296Y-26211223D01*
X78405336Y-26002376D01*
X77546433Y-26001626D01*
X76752623Y-26329622D01*
X76144756Y-26936428D01*
X75815376Y-27729664D01*
X75814626Y-28588567D01*
X72911274Y-28588567D01*
X72922303Y-28584010D01*
X73315629Y-28191370D01*
X73528757Y-27678100D01*
X73529242Y-27122339D01*
X73317010Y-26608697D01*
X72924370Y-26215371D01*
X72411100Y-26002243D01*
X71855339Y-26001758D01*
X71341697Y-26213990D01*
X70948371Y-26606630D01*
X70862051Y-26814512D01*
X70777010Y-26608697D01*
X70384370Y-26215371D01*
X69871100Y-26002243D01*
X69315339Y-26001758D01*
X68801697Y-26213990D01*
X68408371Y-26606630D01*
X68322051Y-26814512D01*
X68237010Y-26608697D01*
X67844370Y-26215371D01*
X67331100Y-26002243D01*
X66775339Y-26001758D01*
X66261697Y-26213990D01*
X65868371Y-26606630D01*
X65782051Y-26814512D01*
X65697010Y-26608697D01*
X65304370Y-26215371D01*
X64791100Y-26002243D01*
X64235339Y-26001758D01*
X63721697Y-26213990D01*
X63328371Y-26606630D01*
X63242051Y-26814512D01*
X63157010Y-26608697D01*
X62764370Y-26215371D01*
X62251100Y-26002243D01*
X61695339Y-26001758D01*
X61181697Y-26213990D01*
X60788371Y-26606630D01*
X60575243Y-27119900D01*
X60574758Y-27675661D01*
X60786990Y-28189303D01*
X61139833Y-28542763D01*
X60974683Y-28573838D01*
X60758559Y-28712910D01*
X60613569Y-28925110D01*
X60562560Y-29177000D01*
X58045850Y-29177000D01*
X58288624Y-28592336D01*
X58289374Y-27733433D01*
X57961378Y-26939623D01*
X57354572Y-26331756D01*
X56561336Y-26002376D01*
X55702433Y-26001626D01*
X54908623Y-26329622D01*
X54300756Y-26936428D01*
X53971376Y-27729664D01*
X53970626Y-28588567D01*
X42336070Y-28588567D01*
X42347681Y-28560605D01*
X42348318Y-27830597D01*
X42138231Y-27322147D01*
X42728806Y-27548388D01*
X43478435Y-27528250D01*
X44077467Y-27280123D01*
X44206715Y-26987320D01*
X43053000Y-25833605D01*
X43038858Y-25847748D01*
X42859253Y-25668143D01*
X42873395Y-25654000D01*
X42859253Y-25639858D01*
X43038858Y-25460253D01*
X43053000Y-25474395D01*
X43067143Y-25460253D01*
X43246748Y-25639858D01*
X43232605Y-25654000D01*
X44386320Y-26807715D01*
X44679123Y-26678467D01*
X44947388Y-25978194D01*
X44927250Y-25228565D01*
X44679123Y-24629533D01*
X44554449Y-24574500D01*
X107124500Y-24574500D01*
X107124500Y-37837470D01*
X106989291Y-37510239D01*
X106239707Y-36759345D01*
X105259827Y-36352464D01*
X104198828Y-36351538D01*
X103218239Y-36756709D01*
X102467345Y-37506293D01*
X102060464Y-38486173D01*
X102059538Y-39547172D01*
X102464709Y-40527761D01*
X103214293Y-41278655D01*
X104194173Y-41685536D01*
X105255172Y-41686462D01*
X106235761Y-41281291D01*
X106986655Y-40531707D01*
X107124500Y-40199739D01*
X107124500Y-44636560D01*
X94973000Y-44636560D01*
X94737683Y-44680838D01*
X94521559Y-44819910D01*
X94376569Y-45032110D01*
X94325560Y-45284000D01*
X94325560Y-54284000D01*
X94369838Y-54519317D01*
X94508910Y-54735441D01*
X94721110Y-54880431D01*
X94973000Y-54931440D01*
X107124500Y-54931440D01*
X107124500Y-92143500D01*
X103204000Y-92143500D01*
X103204000Y-80319000D01*
X103193994Y-80269590D01*
X103165553Y-80227965D01*
X103123159Y-80200685D01*
X103077000Y-80192000D01*
X90977000Y-80192000D01*
X90927590Y-80202006D01*
X90885965Y-80230447D01*
X90858685Y-80272841D01*
X90850000Y-80319000D01*
X90850000Y-90357000D01*
X87680274Y-90357000D01*
X87817143Y-90329775D01*
X88298792Y-90007948D01*
X88620619Y-89526299D01*
X88733630Y-88958156D01*
X88733630Y-87063844D01*
X88620619Y-86495701D01*
X88298792Y-86014052D01*
X87817143Y-85692225D01*
X87249000Y-85579214D01*
X86680857Y-85692225D01*
X86199208Y-86014052D01*
X85979000Y-86343617D01*
X85758792Y-86014052D01*
X85277143Y-85692225D01*
X84709000Y-85579214D01*
X84140857Y-85692225D01*
X83659208Y-86014052D01*
X83439000Y-86343617D01*
X83218792Y-86014052D01*
X82737143Y-85692225D01*
X82169000Y-85579214D01*
X81600857Y-85692225D01*
X81119208Y-86014052D01*
X80797381Y-86495701D01*
X80684370Y-87063844D01*
X80684370Y-88958156D01*
X80797381Y-89526299D01*
X81119208Y-90007948D01*
X81600857Y-90329775D01*
X81737726Y-90357000D01*
X58788468Y-90357000D01*
X58677940Y-67367174D01*
X58992341Y-67497724D01*
X59622893Y-67498275D01*
X60205657Y-67257481D01*
X60579261Y-66884529D01*
X60949997Y-67255914D01*
X61532341Y-67497724D01*
X62162893Y-67498275D01*
X62745657Y-67257481D01*
X63119261Y-66884529D01*
X63489997Y-67255914D01*
X63627000Y-67312803D01*
X63627000Y-67818000D01*
X63685004Y-68109605D01*
X63850185Y-68356815D01*
X70550369Y-75057000D01*
X67467233Y-78140137D01*
X67065421Y-78139786D01*
X66611343Y-78327408D01*
X66263629Y-78674515D01*
X66075215Y-79128266D01*
X66074786Y-79619579D01*
X66262408Y-80073657D01*
X66609515Y-80421371D01*
X67063266Y-80609785D01*
X67554579Y-80610214D01*
X68008657Y-80422592D01*
X68356371Y-80075485D01*
X68544785Y-79621734D01*
X68545138Y-79217492D01*
X71406631Y-76356000D01*
X71642640Y-76356000D01*
X71926515Y-76640371D01*
X72380266Y-76828785D01*
X72871579Y-76829214D01*
X73325657Y-76641592D01*
X73673371Y-76294485D01*
X73861785Y-75840734D01*
X73862214Y-75349421D01*
X73846339Y-75311000D01*
X76519370Y-75311000D01*
X80487185Y-79278815D01*
X80734395Y-79443996D01*
X81026000Y-79502000D01*
X86391640Y-79502000D01*
X86675515Y-79786371D01*
X87129266Y-79974785D01*
X87620579Y-79975214D01*
X88074657Y-79787592D01*
X88422371Y-79440485D01*
X88610785Y-78986734D01*
X88611214Y-78495421D01*
X88423592Y-78041343D01*
X88076485Y-77693629D01*
X87622734Y-77505215D01*
X87131421Y-77504786D01*
X86677343Y-77692408D01*
X86391252Y-77978000D01*
X81341630Y-77978000D01*
X80544765Y-77181135D01*
X80635579Y-77181214D01*
X81089657Y-76993592D01*
X81437371Y-76646485D01*
X81625785Y-76192734D01*
X81626138Y-75788492D01*
X82230631Y-75184000D01*
X84994640Y-75184000D01*
X85278515Y-75468371D01*
X85732266Y-75656785D01*
X86223579Y-75657214D01*
X86677657Y-75469592D01*
X87025371Y-75122485D01*
X87213785Y-74668734D01*
X87214214Y-74177421D01*
X87097288Y-73894440D01*
X89959000Y-73894440D01*
X90194317Y-73850162D01*
X90410441Y-73711090D01*
X90555431Y-73498890D01*
X90606440Y-73247000D01*
X90606440Y-67247000D01*
X90562162Y-67011683D01*
X90423090Y-66795559D01*
X90246646Y-66675000D01*
X97448370Y-66675000D01*
X97448370Y-67575430D01*
X97609982Y-68133906D01*
X97973011Y-68588024D01*
X98482190Y-68868649D01*
X98576168Y-68889540D01*
X98806000Y-68768214D01*
X98806000Y-66675000D01*
X97448370Y-66675000D01*
X90246646Y-66675000D01*
X90210890Y-66650569D01*
X89959000Y-66599560D01*
X86140128Y-66599560D01*
X86293724Y-66229659D01*
X86294275Y-65599107D01*
X86053481Y-65016343D01*
X85608003Y-64570086D01*
X85171899Y-64389000D01*
X98188887Y-64389000D01*
X97973011Y-64507976D01*
X97609982Y-64962094D01*
X97448370Y-65520570D01*
X97448370Y-66421000D01*
X98806000Y-66421000D01*
X98806000Y-66401000D01*
X99060000Y-66401000D01*
X99060000Y-66421000D01*
X99080000Y-66421000D01*
X99080000Y-66675000D01*
X99060000Y-66675000D01*
X99060000Y-68768214D01*
X99289832Y-68889540D01*
X99383810Y-68868649D01*
X99892989Y-68588024D01*
X100197484Y-68207127D01*
X100423208Y-68544948D01*
X100904857Y-68866775D01*
X101473000Y-68979786D01*
X102041143Y-68866775D01*
X102522792Y-68544948D01*
X102743000Y-68215383D01*
X102963208Y-68544948D01*
X103444857Y-68866775D01*
X104013000Y-68979786D01*
X104581143Y-68866775D01*
X105062792Y-68544948D01*
X105384619Y-68063299D01*
X105497630Y-67495156D01*
X105497630Y-65600844D01*
X105384619Y-65032701D01*
X105062792Y-64551052D01*
X104581143Y-64229225D01*
X104013000Y-64116214D01*
X103444857Y-64229225D01*
X102963208Y-64551052D01*
X102743000Y-64880617D01*
X102522792Y-64551052D01*
X102041143Y-64229225D01*
X101473000Y-64116214D01*
X100904857Y-64229225D01*
X100423208Y-64551052D01*
X100197484Y-64888873D01*
X99892989Y-64507976D01*
X99614496Y-64354489D01*
X99732605Y-64330996D01*
X99979815Y-64165815D01*
X100680767Y-63464863D01*
X101082579Y-63465214D01*
X101536657Y-63277592D01*
X101884371Y-62930485D01*
X102072785Y-62476734D01*
X102073214Y-61985421D01*
X101885592Y-61531343D01*
X101538485Y-61183629D01*
X101084734Y-60995215D01*
X100593421Y-60994786D01*
X100139343Y-61182408D01*
X99791629Y-61529515D01*
X99603215Y-61983266D01*
X99602862Y-62387507D01*
X99125370Y-62865000D01*
X93914630Y-62865000D01*
X95407815Y-61371816D01*
X95572996Y-61124605D01*
X95631000Y-60833000D01*
X95631000Y-59609312D01*
X95928670Y-59410415D01*
X96253526Y-58924234D01*
X96367600Y-58350745D01*
X96367600Y-57981255D01*
X96253526Y-57407766D01*
X96081293Y-57150000D01*
X99809560Y-57150000D01*
X99809560Y-59182000D01*
X99853838Y-59417317D01*
X99992910Y-59633441D01*
X100205110Y-59778431D01*
X100457000Y-59829440D01*
X102489000Y-59829440D01*
X102724317Y-59785162D01*
X102940441Y-59646090D01*
X103042198Y-59497163D01*
X103381190Y-59723670D01*
X104013000Y-59849345D01*
X104644810Y-59723670D01*
X105180433Y-59365778D01*
X105538325Y-58830155D01*
X105664000Y-58198345D01*
X105664000Y-58133655D01*
X105538325Y-57501845D01*
X105180433Y-56966222D01*
X104644810Y-56608330D01*
X104013000Y-56482655D01*
X103381190Y-56608330D01*
X103041208Y-56835499D01*
X102953090Y-56698559D01*
X102740890Y-56553569D01*
X102489000Y-56502560D01*
X100457000Y-56502560D01*
X100221683Y-56546838D01*
X100005559Y-56685910D01*
X99860569Y-56898110D01*
X99809560Y-57150000D01*
X96081293Y-57150000D01*
X95928670Y-56921585D01*
X95442489Y-56596729D01*
X94869000Y-56482655D01*
X94295511Y-56596729D01*
X93809330Y-56921585D01*
X93599000Y-57236366D01*
X93388670Y-56921585D01*
X92902489Y-56596729D01*
X92329000Y-56482655D01*
X91755511Y-56596729D01*
X91269330Y-56921585D01*
X91254500Y-56943780D01*
X91190927Y-56790302D01*
X91012299Y-56611673D01*
X90778910Y-56515000D01*
X90074750Y-56515000D01*
X89916000Y-56673750D01*
X89916000Y-58039000D01*
X89936000Y-58039000D01*
X89936000Y-58293000D01*
X89916000Y-58293000D01*
X89916000Y-59658250D01*
X90074750Y-59817000D01*
X90778910Y-59817000D01*
X91012299Y-59720327D01*
X91190927Y-59541698D01*
X91254500Y-59388220D01*
X91269330Y-59410415D01*
X91755511Y-59735271D01*
X92329000Y-59849345D01*
X92902489Y-59735271D01*
X93388670Y-59410415D01*
X93599000Y-59095634D01*
X93809330Y-59410415D01*
X94107000Y-59609312D01*
X94107000Y-60517369D01*
X92267370Y-62357000D01*
X79629000Y-62357000D01*
X79337395Y-62415004D01*
X79090184Y-62580185D01*
X77342149Y-64328221D01*
X76775107Y-64327725D01*
X76192343Y-64568519D01*
X75818739Y-64941471D01*
X75448003Y-64570086D01*
X74865659Y-64328276D01*
X74235107Y-64327725D01*
X74098005Y-64384375D01*
X71912814Y-62199184D01*
X71665605Y-62034004D01*
X71374000Y-61976000D01*
X55206768Y-61976000D01*
X55209785Y-61968734D01*
X55210214Y-61477421D01*
X55206321Y-61468000D01*
X55784640Y-61468000D01*
X56068515Y-61752371D01*
X56522266Y-61940785D01*
X57013579Y-61941214D01*
X57467657Y-61753592D01*
X57815371Y-61406485D01*
X58003785Y-60952734D01*
X58004111Y-60579000D01*
X58324640Y-60579000D01*
X58608515Y-60863371D01*
X59062266Y-61051785D01*
X59553579Y-61052214D01*
X60007657Y-60864592D01*
X60355371Y-60517485D01*
X60543785Y-60063734D01*
X60544111Y-59690000D01*
X60864640Y-59690000D01*
X61148515Y-59974371D01*
X61602266Y-60162785D01*
X62093579Y-60163214D01*
X62547657Y-59975592D01*
X62895371Y-59628485D01*
X63083785Y-59174734D01*
X63084214Y-58683421D01*
X62988490Y-58451750D01*
X88290400Y-58451750D01*
X88290400Y-59308309D01*
X88387073Y-59541698D01*
X88565701Y-59720327D01*
X88799090Y-59817000D01*
X89503250Y-59817000D01*
X89662000Y-59658250D01*
X89662000Y-58293000D01*
X88449150Y-58293000D01*
X88290400Y-58451750D01*
X62988490Y-58451750D01*
X62896592Y-58229343D01*
X62549485Y-57881629D01*
X62095734Y-57693215D01*
X61604421Y-57692786D01*
X61150343Y-57880408D01*
X60864252Y-58166000D01*
X49845630Y-58166000D01*
X48703321Y-57023691D01*
X88290400Y-57023691D01*
X88290400Y-57880250D01*
X88449150Y-58039000D01*
X89662000Y-58039000D01*
X89662000Y-56673750D01*
X89503250Y-56515000D01*
X88799090Y-56515000D01*
X88565701Y-56611673D01*
X88387073Y-56790302D01*
X88290400Y-57023691D01*
X48703321Y-57023691D01*
X48387000Y-56707370D01*
X48387000Y-54981579D01*
X49564786Y-54981579D01*
X49752408Y-55435657D01*
X50099515Y-55783371D01*
X50553266Y-55971785D01*
X51044579Y-55972214D01*
X51498657Y-55784592D01*
X51784748Y-55499000D01*
X67437000Y-55499000D01*
X67728605Y-55440996D01*
X67975815Y-55275815D01*
X69149631Y-54102000D01*
X79502000Y-54102000D01*
X79793605Y-54043996D01*
X80040815Y-53878815D01*
X81717781Y-52201850D01*
X81852341Y-52257724D01*
X82482893Y-52258275D01*
X83065657Y-52017481D01*
X83439261Y-51644529D01*
X83809997Y-52015914D01*
X84392341Y-52257724D01*
X85022893Y-52258275D01*
X85605657Y-52017481D01*
X86051914Y-51572003D01*
X86293724Y-50989659D01*
X86294275Y-50359107D01*
X86053481Y-49776343D01*
X85608003Y-49330086D01*
X85025659Y-49088276D01*
X84395107Y-49087725D01*
X83812343Y-49328519D01*
X83438739Y-49701471D01*
X83383997Y-49646633D01*
X84358815Y-48671815D01*
X84523996Y-48424605D01*
X84556738Y-48259999D01*
X84582000Y-48133000D01*
X84582000Y-47212360D01*
X84866371Y-46928485D01*
X85054785Y-46474734D01*
X85055111Y-46101000D01*
X86425370Y-46101000D01*
X86522137Y-46197767D01*
X86521786Y-46599579D01*
X86709408Y-47053657D01*
X87056515Y-47401371D01*
X87510266Y-47589785D01*
X88001579Y-47590214D01*
X88455657Y-47402592D01*
X88803371Y-47055485D01*
X88991785Y-46601734D01*
X88992214Y-46110421D01*
X88804592Y-45656343D01*
X88457485Y-45308629D01*
X88003734Y-45120215D01*
X87599492Y-45119862D01*
X87279815Y-44800185D01*
X87187925Y-44738786D01*
X87032605Y-44635004D01*
X86741000Y-44577000D01*
X83439000Y-44577000D01*
X83147395Y-44635004D01*
X82900184Y-44800185D01*
X80271345Y-47429024D01*
X80168592Y-47180343D01*
X79821485Y-46832629D01*
X79367734Y-46644215D01*
X78876421Y-46643786D01*
X78422343Y-46831408D01*
X78136252Y-47117000D01*
X71374000Y-47117000D01*
X71082395Y-47175004D01*
X70835184Y-47340185D01*
X69788370Y-48387000D01*
X58896526Y-48387000D01*
X59085371Y-48198485D01*
X59273785Y-47744734D01*
X59274138Y-47340492D01*
X59878631Y-46736000D01*
X68865640Y-46736000D01*
X69149515Y-47020371D01*
X69603266Y-47208785D01*
X70094579Y-47209214D01*
X70548657Y-47021592D01*
X70896371Y-46674485D01*
X71084785Y-46220734D01*
X71085214Y-45729421D01*
X70897592Y-45275343D01*
X70550485Y-44927629D01*
X70096734Y-44739215D01*
X69605421Y-44738786D01*
X69151343Y-44926408D01*
X68865252Y-45212000D01*
X59563000Y-45212000D01*
X59271395Y-45270004D01*
X59024184Y-45435185D01*
X58196233Y-46263137D01*
X57794421Y-46262786D01*
X57340343Y-46450408D01*
X56992629Y-46797515D01*
X56804215Y-47251266D01*
X56803786Y-47742579D01*
X56991408Y-48196657D01*
X57338515Y-48544371D01*
X57792266Y-48732785D01*
X58012392Y-48732977D01*
X57489432Y-49255937D01*
X57085659Y-49088276D01*
X56455107Y-49087725D01*
X55872343Y-49328519D01*
X55498739Y-49701471D01*
X55128003Y-49330086D01*
X54545659Y-49088276D01*
X53915107Y-49087725D01*
X53332343Y-49328519D01*
X52958739Y-49701471D01*
X52588003Y-49330086D01*
X52005659Y-49088276D01*
X51375107Y-49087725D01*
X50792343Y-49328519D01*
X50346086Y-49773997D01*
X50104276Y-50356341D01*
X50103725Y-50986893D01*
X50344519Y-51569657D01*
X50789997Y-52015914D01*
X51372341Y-52257724D01*
X52002893Y-52258275D01*
X52585657Y-52017481D01*
X52959261Y-51644529D01*
X53329997Y-52015914D01*
X53912341Y-52257724D01*
X54542893Y-52258275D01*
X55125657Y-52017481D01*
X55499261Y-51644529D01*
X55869997Y-52015914D01*
X56452341Y-52257724D01*
X57082893Y-52258275D01*
X57665657Y-52017481D01*
X58039261Y-51644529D01*
X58337471Y-51943261D01*
X57966086Y-52313997D01*
X57724276Y-52896341D01*
X57723725Y-53526893D01*
X57908880Y-53975000D01*
X51784360Y-53975000D01*
X51500485Y-53690629D01*
X51046734Y-53502215D01*
X50555421Y-53501786D01*
X50101343Y-53689408D01*
X49753629Y-54036515D01*
X49565215Y-54490266D01*
X49564786Y-54981579D01*
X48387000Y-54981579D01*
X48387000Y-43805579D01*
X57692786Y-43805579D01*
X57880408Y-44259657D01*
X58227515Y-44607371D01*
X58681266Y-44795785D01*
X59172579Y-44796214D01*
X59626657Y-44608592D01*
X59912748Y-44323000D01*
X67214640Y-44323000D01*
X67498515Y-44607371D01*
X67952266Y-44795785D01*
X68443579Y-44796214D01*
X68897657Y-44608592D01*
X69245371Y-44261485D01*
X69433785Y-43807734D01*
X69434214Y-43316421D01*
X69246592Y-42862343D01*
X69233516Y-42849244D01*
X69278657Y-42830592D01*
X69626371Y-42483485D01*
X69814785Y-42029734D01*
X69815214Y-41538421D01*
X69627592Y-41084343D01*
X69280485Y-40736629D01*
X68826734Y-40548215D01*
X68335421Y-40547786D01*
X67881343Y-40735408D01*
X67595252Y-41021000D01*
X66126777Y-41021000D01*
X65905734Y-40929215D01*
X65414421Y-40928786D01*
X64960343Y-41116408D01*
X64612629Y-41463515D01*
X64424215Y-41917266D01*
X64423786Y-42408579D01*
X64585105Y-42799000D01*
X59912360Y-42799000D01*
X59628485Y-42514629D01*
X59174734Y-42326215D01*
X58683421Y-42325786D01*
X58229343Y-42513408D01*
X57881629Y-42860515D01*
X57693215Y-43314266D01*
X57692786Y-43805579D01*
X48387000Y-43805579D01*
X48387000Y-39243000D01*
X66913000Y-39243000D01*
X66971004Y-39534605D01*
X67136185Y-39781815D01*
X67383395Y-39946996D01*
X67675000Y-40005000D01*
X67722640Y-40005000D01*
X68006515Y-40289371D01*
X68460266Y-40477785D01*
X68951579Y-40478214D01*
X69405657Y-40290592D01*
X69753371Y-39943485D01*
X69941785Y-39489734D01*
X69942214Y-38998421D01*
X69934429Y-38979579D01*
X79028786Y-38979579D01*
X79216408Y-39433657D01*
X79563515Y-39781371D01*
X80017266Y-39969785D01*
X80508579Y-39970214D01*
X80962657Y-39782592D01*
X81248748Y-39497000D01*
X81819640Y-39497000D01*
X82103515Y-39781371D01*
X82557266Y-39969785D01*
X83048579Y-39970214D01*
X83502657Y-39782592D01*
X83850371Y-39435485D01*
X84038785Y-38981734D01*
X84039214Y-38490421D01*
X83851592Y-38036343D01*
X83504485Y-37688629D01*
X83050734Y-37500215D01*
X82559421Y-37499786D01*
X82105343Y-37687408D01*
X81819252Y-37973000D01*
X81248360Y-37973000D01*
X80964485Y-37688629D01*
X80510734Y-37500215D01*
X80019421Y-37499786D01*
X79565343Y-37687408D01*
X79217629Y-38034515D01*
X79029215Y-38488266D01*
X79028786Y-38979579D01*
X69934429Y-38979579D01*
X69754592Y-38544343D01*
X69407485Y-38196629D01*
X68953734Y-38008215D01*
X68462421Y-38007786D01*
X68008343Y-38195408D01*
X67722252Y-38481000D01*
X67675000Y-38481000D01*
X67383395Y-38539004D01*
X67136185Y-38704185D01*
X66971004Y-38951395D01*
X66913000Y-39243000D01*
X48387000Y-39243000D01*
X48387000Y-38576360D01*
X48671371Y-38292485D01*
X48859785Y-37838734D01*
X48860214Y-37347421D01*
X48672592Y-36893343D01*
X48325485Y-36545629D01*
X47871734Y-36357215D01*
X47380421Y-36356786D01*
X46926343Y-36544408D01*
X46578629Y-36891515D01*
X46390215Y-37345266D01*
X46389786Y-37836579D01*
X46577408Y-38290657D01*
X46863000Y-38576748D01*
X46863000Y-57023000D01*
X46921004Y-57314605D01*
X47001326Y-57434815D01*
X47086185Y-57561815D01*
X48579370Y-59055000D01*
X47432630Y-59055000D01*
X43561000Y-55183370D01*
X43561000Y-42672000D01*
X45275500Y-42672000D01*
X45275500Y-42735500D01*
X45333504Y-43027105D01*
X45498685Y-43274315D01*
X45745895Y-43439496D01*
X46037500Y-43497500D01*
X46329105Y-43439496D01*
X46576315Y-43274315D01*
X46741496Y-43027105D01*
X46799500Y-42735500D01*
X46799500Y-42672000D01*
X46741496Y-42380395D01*
X46576315Y-42133185D01*
X46329105Y-41968004D01*
X46037500Y-41910000D01*
X45745895Y-41968004D01*
X45498685Y-42133185D01*
X45333504Y-42380395D01*
X45275500Y-42672000D01*
X43561000Y-42672000D01*
X43561000Y-38576360D01*
X43845371Y-38292485D01*
X44033785Y-37838734D01*
X44034214Y-37347421D01*
X43846592Y-36893343D01*
X43499485Y-36545629D01*
X43045734Y-36357215D01*
X42554421Y-36356786D01*
X42100343Y-36544408D01*
X41752629Y-36891515D01*
X41564215Y-37345266D01*
X41563786Y-37836579D01*
X41751408Y-38290657D01*
X42037000Y-38576748D01*
X42037000Y-55499000D01*
X42095004Y-55790605D01*
X42216065Y-55971785D01*
X42260185Y-56037815D01*
X46166370Y-59944000D01*
X39939631Y-59944000D01*
X36576000Y-56580370D01*
X36576000Y-38700000D01*
X36820579Y-38700214D01*
X37274657Y-38512592D01*
X37622371Y-38165485D01*
X37810785Y-37711734D01*
X37811214Y-37220421D01*
X37623592Y-36766343D01*
X37276485Y-36418629D01*
X36822734Y-36230215D01*
X36331421Y-36229786D01*
X35877343Y-36417408D01*
X35628967Y-36665351D01*
X35463815Y-36418185D01*
X35016863Y-35971233D01*
X35017214Y-35569421D01*
X34829592Y-35115343D01*
X34482485Y-34767629D01*
X34028734Y-34579215D01*
X33537421Y-34578786D01*
X33083343Y-34766408D01*
X32735629Y-35113515D01*
X32547215Y-35567266D01*
X32546786Y-36058579D01*
X32734408Y-36512657D01*
X33081515Y-36860371D01*
X33535266Y-37048785D01*
X33939508Y-37049138D01*
X34163000Y-37272630D01*
X34163000Y-56896000D01*
X34221004Y-57187605D01*
X34305863Y-57314605D01*
X34386185Y-57434815D01*
X39212185Y-62260816D01*
X39356137Y-62357001D01*
X39459395Y-62425996D01*
X39751000Y-62484000D01*
X44515369Y-62484000D01*
X43210565Y-63788804D01*
X43189421Y-63788786D01*
X42735343Y-63976408D01*
X42387629Y-64323515D01*
X42199215Y-64777266D01*
X42198786Y-65268579D01*
X42386408Y-65722657D01*
X42733515Y-66070371D01*
X42991141Y-66177347D01*
X42889967Y-66421000D01*
X34168379Y-66421000D01*
X33720489Y-66121729D01*
X33147000Y-66007655D01*
X32573511Y-66121729D01*
X32125621Y-66421000D01*
X31628379Y-66421000D01*
X31180489Y-66121729D01*
X30607000Y-66007655D01*
X30033511Y-66121729D01*
X29585621Y-66421000D01*
X29512709Y-66421000D01*
X29468927Y-66315302D01*
X29290299Y-66136673D01*
X29056910Y-66040000D01*
X28352750Y-66040000D01*
X28194000Y-66198750D01*
X28194000Y-66421000D01*
X27940000Y-66421000D01*
X27940000Y-66198750D01*
X27781250Y-66040000D01*
X27077090Y-66040000D01*
X26843701Y-66136673D01*
X26665073Y-66315302D01*
X26621291Y-66421000D01*
X25209500Y-66421000D01*
X25209500Y-39547172D01*
X25859538Y-39547172D01*
X26264709Y-40527761D01*
X27014293Y-41278655D01*
X27994173Y-41685536D01*
X29055172Y-41686462D01*
X30035761Y-41281291D01*
X30786655Y-40531707D01*
X31193536Y-39551827D01*
X31194462Y-38490828D01*
X30789291Y-37510239D01*
X30039707Y-36759345D01*
X29059827Y-36352464D01*
X27998828Y-36351538D01*
X27018239Y-36756709D01*
X26267345Y-37506293D01*
X25860464Y-38486173D01*
X25859538Y-39547172D01*
X25209500Y-39547172D01*
X25209500Y-32115000D01*
X25275554Y-32181054D01*
X25389286Y-32067322D01*
X25518533Y-32360123D01*
X26218806Y-32628388D01*
X26968435Y-32608250D01*
X27567467Y-32360123D01*
X27696715Y-32067320D01*
X30469285Y-32067320D01*
X30598533Y-32360123D01*
X31298806Y-32628388D01*
X32048435Y-32608250D01*
X32647467Y-32360123D01*
X32776715Y-32067320D01*
X36819285Y-32067320D01*
X36948533Y-32360123D01*
X37648806Y-32628388D01*
X38398435Y-32608250D01*
X38997467Y-32360123D01*
X39126715Y-32067320D01*
X41899285Y-32067320D01*
X42028533Y-32360123D01*
X42728806Y-32628388D01*
X43478435Y-32608250D01*
X44077467Y-32360123D01*
X44206715Y-32067320D01*
X43053000Y-30913605D01*
X41899285Y-32067320D01*
X39126715Y-32067320D01*
X37973000Y-30913605D01*
X36819285Y-32067320D01*
X32776715Y-32067320D01*
X31623000Y-30913605D01*
X30469285Y-32067320D01*
X27696715Y-32067320D01*
X26543000Y-30913605D01*
X26528858Y-30927748D01*
X26349253Y-30748143D01*
X26363395Y-30734000D01*
X26349253Y-30719858D01*
X26528858Y-30540253D01*
X26543000Y-30554395D01*
X26557143Y-30540253D01*
X26736748Y-30719858D01*
X26722605Y-30734000D01*
X27876320Y-31887715D01*
X28169123Y-31758467D01*
X28437388Y-31058194D01*
X28417250Y-30308565D01*
X28215097Y-29820524D01*
X28716395Y-30028681D01*
X29446403Y-30029318D01*
X29954853Y-29819231D01*
X29728612Y-30409806D01*
X29748750Y-31159435D01*
X29996877Y-31758467D01*
X30289680Y-31887715D01*
X31443395Y-30734000D01*
X31802605Y-30734000D01*
X32956320Y-31887715D01*
X33249123Y-31758467D01*
X33517388Y-31058194D01*
X33499970Y-30409806D01*
X36078612Y-30409806D01*
X36098750Y-31159435D01*
X36346877Y-31758467D01*
X36639680Y-31887715D01*
X37793395Y-30734000D01*
X36639680Y-29580285D01*
X36346877Y-29709533D01*
X36078612Y-30409806D01*
X33499970Y-30409806D01*
X33497250Y-30308565D01*
X33249123Y-29709533D01*
X32956320Y-29580285D01*
X31802605Y-30734000D01*
X31443395Y-30734000D01*
X31429253Y-30719858D01*
X31608858Y-30540253D01*
X31623000Y-30554395D01*
X32776715Y-29400680D01*
X32647467Y-29107877D01*
X31947194Y-28839612D01*
X31197565Y-28859750D01*
X30709524Y-29061903D01*
X30917681Y-28560605D01*
X30918318Y-27830597D01*
X30708231Y-27322147D01*
X31298806Y-27548388D01*
X32048435Y-27528250D01*
X32647467Y-27280123D01*
X32776715Y-26987320D01*
X31623000Y-25833605D01*
X31608858Y-25847748D01*
X31429253Y-25668143D01*
X31443395Y-25654000D01*
X31429253Y-25639858D01*
X31608858Y-25460253D01*
X31623000Y-25474395D01*
X31637143Y-25460253D01*
X31816748Y-25639858D01*
X31802605Y-25654000D01*
X32956320Y-26807715D01*
X33249123Y-26678467D01*
X33517388Y-25978194D01*
X33497250Y-25228565D01*
X33249123Y-24629533D01*
X33124449Y-24574500D01*
X36471551Y-24574500D01*
X36346877Y-24629533D01*
G36*
X66029997Y-67255914D02*
X66612341Y-67497724D01*
X67242893Y-67498275D01*
X67379995Y-67441626D01*
X67660184Y-67721815D01*
X67849589Y-67848371D01*
X67907395Y-67886996D01*
X68199000Y-67945000D01*
X77978000Y-67945000D01*
X78269605Y-67886996D01*
X78516815Y-67721815D01*
X78811560Y-67427071D01*
X78811560Y-73247000D01*
X78855838Y-73482317D01*
X78994910Y-73698441D01*
X79207110Y-73843431D01*
X79459000Y-73894440D01*
X81364929Y-73894440D01*
X80548233Y-74711137D01*
X80146421Y-74710786D01*
X79692343Y-74898408D01*
X79344629Y-75245515D01*
X79156215Y-75699266D01*
X79156134Y-75792504D01*
X77373815Y-74010185D01*
X77338438Y-73986547D01*
X77126605Y-73845004D01*
X76835000Y-73787000D01*
X71435631Y-73787000D01*
X65151000Y-67502370D01*
X65151000Y-67313120D01*
X65285657Y-67257481D01*
X65659261Y-66884529D01*
X66029997Y-67255914D01*
X66029997Y-67255914D01*
G37*
X66029997Y-67255914D02*
X66612341Y-67497724D01*
X67242893Y-67498275D01*
X67379995Y-67441626D01*
X67660184Y-67721815D01*
X67849589Y-67848371D01*
X67907395Y-67886996D01*
X68199000Y-67945000D01*
X77978000Y-67945000D01*
X78269605Y-67886996D01*
X78516815Y-67721815D01*
X78811560Y-67427071D01*
X78811560Y-73247000D01*
X78855838Y-73482317D01*
X78994910Y-73698441D01*
X79207110Y-73843431D01*
X79459000Y-73894440D01*
X81364929Y-73894440D01*
X80548233Y-74711137D01*
X80146421Y-74710786D01*
X79692343Y-74898408D01*
X79344629Y-75245515D01*
X79156215Y-75699266D01*
X79156134Y-75792504D01*
X77373815Y-74010185D01*
X77338438Y-73986547D01*
X77126605Y-73845004D01*
X76835000Y-73787000D01*
X71435631Y-73787000D01*
X65151000Y-67502370D01*
X65151000Y-67313120D01*
X65285657Y-67257481D01*
X65659261Y-66884529D01*
X66029997Y-67255914D01*
G36*
X51882748Y-65898858D02*
X51868605Y-65913000D01*
X51882748Y-65927143D01*
X51703143Y-66106748D01*
X51689000Y-66092605D01*
X51674858Y-66106748D01*
X51495253Y-65927143D01*
X51509395Y-65913000D01*
X51495253Y-65898858D01*
X51674858Y-65719253D01*
X51689000Y-65733395D01*
X51703143Y-65719253D01*
X51882748Y-65898858D01*
X51882748Y-65898858D01*
G37*
X51882748Y-65898858D02*
X51868605Y-65913000D01*
X51882748Y-65927143D01*
X51703143Y-66106748D01*
X51689000Y-66092605D01*
X51674858Y-66106748D01*
X51495253Y-65927143D01*
X51509395Y-65913000D01*
X51495253Y-65898858D01*
X51674858Y-65719253D01*
X51689000Y-65733395D01*
X51703143Y-65719253D01*
X51882748Y-65898858D01*
G36*
X26736748Y-25639858D02*
X26722605Y-25654000D01*
X26736748Y-25668143D01*
X26557143Y-25847748D01*
X26543000Y-25833605D01*
X26528858Y-25847748D01*
X26349253Y-25668143D01*
X26363395Y-25654000D01*
X26349253Y-25639858D01*
X26528858Y-25460253D01*
X26543000Y-25474395D01*
X26557143Y-25460253D01*
X26736748Y-25639858D01*
X26736748Y-25639858D01*
G37*
X26736748Y-25639858D02*
X26722605Y-25654000D01*
X26736748Y-25668143D01*
X26557143Y-25847748D01*
X26543000Y-25833605D01*
X26528858Y-25847748D01*
X26349253Y-25668143D01*
X26363395Y-25654000D01*
X26349253Y-25639858D01*
X26528858Y-25460253D01*
X26543000Y-25474395D01*
X26557143Y-25460253D01*
X26736748Y-25639858D01*
D33*
G36*
X31328496Y-78689406D02*
X31422007Y-78783081D01*
X31881269Y-78973783D01*
X32378550Y-78974217D01*
X32838143Y-78784316D01*
X32927130Y-78695484D01*
X48714051Y-78755511D01*
X48967000Y-78806734D01*
X57735000Y-78806734D01*
X57735000Y-90342000D01*
X37195834Y-90342000D01*
X37085384Y-89786731D01*
X36757277Y-89295684D01*
X36343953Y-89019510D01*
X36236422Y-88858578D01*
X34712422Y-87334578D01*
X34460345Y-87166146D01*
X34163000Y-87107000D01*
X33671113Y-87107000D01*
X33701927Y-87060884D01*
X33816080Y-86487000D01*
X33701927Y-85913116D01*
X33376849Y-85426601D01*
X32890334Y-85101523D01*
X32316450Y-84987370D01*
X30421550Y-84987370D01*
X29847666Y-85101523D01*
X29361151Y-85426601D01*
X29036073Y-85913116D01*
X28921920Y-86487000D01*
X28961623Y-86686600D01*
X28629857Y-86823684D01*
X28277919Y-87175007D01*
X28087217Y-87634269D01*
X28086783Y-88131550D01*
X28276684Y-88591143D01*
X28557316Y-88872266D01*
X27203400Y-88872266D01*
X26962524Y-88917590D01*
X26741295Y-89059947D01*
X26592880Y-89277159D01*
X26540666Y-89535000D01*
X26540666Y-91567000D01*
X26585990Y-91807876D01*
X26728347Y-92029105D01*
X26873816Y-92128500D01*
X25224500Y-92128500D01*
X25224500Y-81407000D01*
X28921920Y-81407000D01*
X29036073Y-81980884D01*
X29361151Y-82467399D01*
X29847666Y-82792477D01*
X30421550Y-82906630D01*
X32316450Y-82906630D01*
X32890334Y-82792477D01*
X33376849Y-82467399D01*
X33701927Y-81980884D01*
X33816080Y-81407000D01*
X33701927Y-80833116D01*
X33376849Y-80346601D01*
X32890334Y-80021523D01*
X32316450Y-79907370D01*
X30421550Y-79907370D01*
X29847666Y-80021523D01*
X29361151Y-80346601D01*
X29036073Y-80833116D01*
X28921920Y-81407000D01*
X25224500Y-81407000D01*
X25224500Y-78666197D01*
X31328496Y-78689406D01*
X31328496Y-78689406D01*
G37*
X31328496Y-78689406D02*
X31422007Y-78783081D01*
X31881269Y-78973783D01*
X32378550Y-78974217D01*
X32838143Y-78784316D01*
X32927130Y-78695484D01*
X48714051Y-78755511D01*
X48967000Y-78806734D01*
X57735000Y-78806734D01*
X57735000Y-90342000D01*
X37195834Y-90342000D01*
X37085384Y-89786731D01*
X36757277Y-89295684D01*
X36343953Y-89019510D01*
X36236422Y-88858578D01*
X34712422Y-87334578D01*
X34460345Y-87166146D01*
X34163000Y-87107000D01*
X33671113Y-87107000D01*
X33701927Y-87060884D01*
X33816080Y-86487000D01*
X33701927Y-85913116D01*
X33376849Y-85426601D01*
X32890334Y-85101523D01*
X32316450Y-84987370D01*
X30421550Y-84987370D01*
X29847666Y-85101523D01*
X29361151Y-85426601D01*
X29036073Y-85913116D01*
X28921920Y-86487000D01*
X28961623Y-86686600D01*
X28629857Y-86823684D01*
X28277919Y-87175007D01*
X28087217Y-87634269D01*
X28086783Y-88131550D01*
X28276684Y-88591143D01*
X28557316Y-88872266D01*
X27203400Y-88872266D01*
X26962524Y-88917590D01*
X26741295Y-89059947D01*
X26592880Y-89277159D01*
X26540666Y-89535000D01*
X26540666Y-91567000D01*
X26585990Y-91807876D01*
X26728347Y-92029105D01*
X26873816Y-92128500D01*
X25224500Y-92128500D01*
X25224500Y-81407000D01*
X28921920Y-81407000D01*
X29036073Y-81980884D01*
X29361151Y-82467399D01*
X29847666Y-82792477D01*
X30421550Y-82906630D01*
X32316450Y-82906630D01*
X32890334Y-82792477D01*
X33376849Y-82467399D01*
X33701927Y-81980884D01*
X33816080Y-81407000D01*
X33701927Y-80833116D01*
X33376849Y-80346601D01*
X32890334Y-80021523D01*
X32316450Y-79907370D01*
X30421550Y-79907370D01*
X29847666Y-80021523D01*
X29361151Y-80346601D01*
X29036073Y-80833116D01*
X28921920Y-81407000D01*
X25224500Y-81407000D01*
X25224500Y-78666197D01*
X31328496Y-78689406D01*
D31*
G36*
X26555960Y-68707000D02*
X26600238Y-68942317D01*
X26739310Y-69158441D01*
X26951510Y-69303431D01*
X27203400Y-69354440D01*
X28652810Y-69354440D01*
X29941184Y-70642815D01*
X30188395Y-70807996D01*
X30480000Y-70866000D01*
X34513756Y-70866000D01*
X34706052Y-71153792D01*
X35187701Y-71475619D01*
X35755844Y-71588630D01*
X37650156Y-71588630D01*
X38218299Y-71475619D01*
X38699948Y-71153792D01*
X38892244Y-70866000D01*
X42977667Y-70866000D01*
X43276515Y-71165371D01*
X43730266Y-71353785D01*
X44221579Y-71354214D01*
X44675657Y-71166592D01*
X45023371Y-70819485D01*
X45211785Y-70365734D01*
X45212214Y-69874421D01*
X45024592Y-69420343D01*
X44677485Y-69072629D01*
X44223734Y-68884215D01*
X43732421Y-68883786D01*
X43278343Y-69071408D01*
X43007278Y-69342000D01*
X38892244Y-69342000D01*
X38699948Y-69054208D01*
X38218299Y-68732381D01*
X37650156Y-68619370D01*
X35755844Y-68619370D01*
X35187701Y-68732381D01*
X34706052Y-69054208D01*
X34513756Y-69342000D01*
X33309609Y-69342000D01*
X33720489Y-69260271D01*
X34206670Y-68935415D01*
X34531526Y-68449234D01*
X34645600Y-67875745D01*
X34645600Y-67506255D01*
X34581301Y-67183000D01*
X42890154Y-67183000D01*
X43021408Y-67500657D01*
X43368515Y-67848371D01*
X43822266Y-68036785D01*
X44313579Y-68037214D01*
X44767657Y-67849592D01*
X45115371Y-67502485D01*
X45248033Y-67183000D01*
X50717210Y-67183000D01*
X50789997Y-67255914D01*
X51372341Y-67497724D01*
X52002893Y-67498275D01*
X52585657Y-67257481D01*
X52660268Y-67183000D01*
X53257210Y-67183000D01*
X53329997Y-67255914D01*
X53912341Y-67497724D01*
X54542893Y-67498275D01*
X55125657Y-67257481D01*
X55200268Y-67183000D01*
X55797210Y-67183000D01*
X55869997Y-67255914D01*
X56452341Y-67497724D01*
X57082893Y-67498275D01*
X57658000Y-67260645D01*
X57658000Y-77851000D01*
X52885521Y-77851000D01*
X52884890Y-77850569D01*
X52633000Y-77799560D01*
X48097824Y-77799560D01*
X48098214Y-77352421D01*
X47910592Y-76898343D01*
X47563485Y-76550629D01*
X47109734Y-76362215D01*
X46618421Y-76361786D01*
X46164343Y-76549408D01*
X46001467Y-76712000D01*
X43660574Y-76712000D01*
X43499485Y-76550629D01*
X43045734Y-76362215D01*
X42554421Y-76361786D01*
X42100343Y-76549408D01*
X41937467Y-76712000D01*
X41656005Y-76712000D01*
X41656000Y-76711999D01*
X41317325Y-76779367D01*
X41030210Y-76971210D01*
X41030208Y-76971213D01*
X40150421Y-77851000D01*
X38322526Y-77851000D01*
X38511371Y-77662485D01*
X38699785Y-77208734D01*
X38700214Y-76717421D01*
X38543559Y-76338288D01*
X38699948Y-76233792D01*
X39021775Y-75752143D01*
X39134786Y-75184000D01*
X39021775Y-74615857D01*
X38699948Y-74134208D01*
X38218299Y-73812381D01*
X37650156Y-73699370D01*
X35755844Y-73699370D01*
X35187701Y-73812381D01*
X34706052Y-74134208D01*
X34384225Y-74615857D01*
X34271214Y-75184000D01*
X34384225Y-75752143D01*
X34706052Y-76233792D01*
X34814842Y-76306483D01*
X34788377Y-76324166D01*
X34640185Y-76423184D01*
X34101370Y-76962000D01*
X33115360Y-76962000D01*
X32831485Y-76677629D01*
X32377734Y-76489215D01*
X31886421Y-76488786D01*
X31432343Y-76676408D01*
X31084629Y-77023515D01*
X30896215Y-77477266D01*
X30895889Y-77851000D01*
X25209500Y-77851000D01*
X25209500Y-73983694D01*
X25708326Y-73983694D01*
X25956638Y-74584655D01*
X26416027Y-75044846D01*
X27016553Y-75294206D01*
X27666794Y-75294774D01*
X28267755Y-75046462D01*
X28727946Y-74587073D01*
X28977306Y-73986547D01*
X28977308Y-73983694D01*
X30709586Y-73983694D01*
X30957898Y-74584655D01*
X31417287Y-75044846D01*
X32017813Y-75294206D01*
X32668054Y-75294774D01*
X33269015Y-75046462D01*
X33729206Y-74587073D01*
X33978566Y-73986547D01*
X33979134Y-73336306D01*
X33730822Y-72735345D01*
X33271433Y-72275154D01*
X32670907Y-72025794D01*
X32020666Y-72025226D01*
X31419705Y-72273538D01*
X30959514Y-72732927D01*
X30710154Y-73333453D01*
X30709586Y-73983694D01*
X28977308Y-73983694D01*
X28977874Y-73336306D01*
X28729562Y-72735345D01*
X28270173Y-72275154D01*
X27669647Y-72025794D01*
X27019406Y-72025226D01*
X26418445Y-72273538D01*
X25958254Y-72732927D01*
X25708894Y-73333453D01*
X25708326Y-73983694D01*
X25209500Y-73983694D01*
X25209500Y-67183000D01*
X26555960Y-67183000D01*
X26555960Y-68707000D01*
X26555960Y-68707000D01*
G37*
X26555960Y-68707000D02*
X26600238Y-68942317D01*
X26739310Y-69158441D01*
X26951510Y-69303431D01*
X27203400Y-69354440D01*
X28652810Y-69354440D01*
X29941184Y-70642815D01*
X30188395Y-70807996D01*
X30480000Y-70866000D01*
X34513756Y-70866000D01*
X34706052Y-71153792D01*
X35187701Y-71475619D01*
X35755844Y-71588630D01*
X37650156Y-71588630D01*
X38218299Y-71475619D01*
X38699948Y-71153792D01*
X38892244Y-70866000D01*
X42977667Y-70866000D01*
X43276515Y-71165371D01*
X43730266Y-71353785D01*
X44221579Y-71354214D01*
X44675657Y-71166592D01*
X45023371Y-70819485D01*
X45211785Y-70365734D01*
X45212214Y-69874421D01*
X45024592Y-69420343D01*
X44677485Y-69072629D01*
X44223734Y-68884215D01*
X43732421Y-68883786D01*
X43278343Y-69071408D01*
X43007278Y-69342000D01*
X38892244Y-69342000D01*
X38699948Y-69054208D01*
X38218299Y-68732381D01*
X37650156Y-68619370D01*
X35755844Y-68619370D01*
X35187701Y-68732381D01*
X34706052Y-69054208D01*
X34513756Y-69342000D01*
X33309609Y-69342000D01*
X33720489Y-69260271D01*
X34206670Y-68935415D01*
X34531526Y-68449234D01*
X34645600Y-67875745D01*
X34645600Y-67506255D01*
X34581301Y-67183000D01*
X42890154Y-67183000D01*
X43021408Y-67500657D01*
X43368515Y-67848371D01*
X43822266Y-68036785D01*
X44313579Y-68037214D01*
X44767657Y-67849592D01*
X45115371Y-67502485D01*
X45248033Y-67183000D01*
X50717210Y-67183000D01*
X50789997Y-67255914D01*
X51372341Y-67497724D01*
X52002893Y-67498275D01*
X52585657Y-67257481D01*
X52660268Y-67183000D01*
X53257210Y-67183000D01*
X53329997Y-67255914D01*
X53912341Y-67497724D01*
X54542893Y-67498275D01*
X55125657Y-67257481D01*
X55200268Y-67183000D01*
X55797210Y-67183000D01*
X55869997Y-67255914D01*
X56452341Y-67497724D01*
X57082893Y-67498275D01*
X57658000Y-67260645D01*
X57658000Y-77851000D01*
X52885521Y-77851000D01*
X52884890Y-77850569D01*
X52633000Y-77799560D01*
X48097824Y-77799560D01*
X48098214Y-77352421D01*
X47910592Y-76898343D01*
X47563485Y-76550629D01*
X47109734Y-76362215D01*
X46618421Y-76361786D01*
X46164343Y-76549408D01*
X46001467Y-76712000D01*
X43660574Y-76712000D01*
X43499485Y-76550629D01*
X43045734Y-76362215D01*
X42554421Y-76361786D01*
X42100343Y-76549408D01*
X41937467Y-76712000D01*
X41656005Y-76712000D01*
X41656000Y-76711999D01*
X41317325Y-76779367D01*
X41030210Y-76971210D01*
X41030208Y-76971213D01*
X40150421Y-77851000D01*
X38322526Y-77851000D01*
X38511371Y-77662485D01*
X38699785Y-77208734D01*
X38700214Y-76717421D01*
X38543559Y-76338288D01*
X38699948Y-76233792D01*
X39021775Y-75752143D01*
X39134786Y-75184000D01*
X39021775Y-74615857D01*
X38699948Y-74134208D01*
X38218299Y-73812381D01*
X37650156Y-73699370D01*
X35755844Y-73699370D01*
X35187701Y-73812381D01*
X34706052Y-74134208D01*
X34384225Y-74615857D01*
X34271214Y-75184000D01*
X34384225Y-75752143D01*
X34706052Y-76233792D01*
X34814842Y-76306483D01*
X34788377Y-76324166D01*
X34640185Y-76423184D01*
X34101370Y-76962000D01*
X33115360Y-76962000D01*
X32831485Y-76677629D01*
X32377734Y-76489215D01*
X31886421Y-76488786D01*
X31432343Y-76676408D01*
X31084629Y-77023515D01*
X30896215Y-77477266D01*
X30895889Y-77851000D01*
X25209500Y-77851000D01*
X25209500Y-73983694D01*
X25708326Y-73983694D01*
X25956638Y-74584655D01*
X26416027Y-75044846D01*
X27016553Y-75294206D01*
X27666794Y-75294774D01*
X28267755Y-75046462D01*
X28727946Y-74587073D01*
X28977306Y-73986547D01*
X28977308Y-73983694D01*
X30709586Y-73983694D01*
X30957898Y-74584655D01*
X31417287Y-75044846D01*
X32017813Y-75294206D01*
X32668054Y-75294774D01*
X33269015Y-75046462D01*
X33729206Y-74587073D01*
X33978566Y-73986547D01*
X33979134Y-73336306D01*
X33730822Y-72735345D01*
X33271433Y-72275154D01*
X32670907Y-72025794D01*
X32020666Y-72025226D01*
X31419705Y-72273538D01*
X30959514Y-72732927D01*
X30710154Y-73333453D01*
X30709586Y-73983694D01*
X28977308Y-73983694D01*
X28977874Y-73336306D01*
X28729562Y-72735345D01*
X28270173Y-72275154D01*
X27669647Y-72025794D01*
X27019406Y-72025226D01*
X26418445Y-72273538D01*
X25958254Y-72732927D01*
X25708894Y-73333453D01*
X25708326Y-73983694D01*
X25209500Y-73983694D01*
X25209500Y-67183000D01*
X26555960Y-67183000D01*
X26555960Y-68707000D01*
M02*
