G04 #@! TF.FileFunction,Soldermask,Bot*
%FSLAX46Y46*%
G04 Gerber Fmt 4.6, Leading zero omitted, Abs format (unit mm)*
G04 Created by KiCad (PCBNEW 4.0.1-stable) date 2016-12-19 1:07:11 AM*
%MOMM*%
G01*
G04 APERTURE LIST*
%ADD10C,0.150000*%
%ADD11O,2.108000X2.108000*%
%ADD12C,2.408000*%
%ADD13O,4.008120X2.207260*%
%ADD14R,9.508000X11.508000*%
%ADD15O,2.207260X4.008120*%
%ADD16R,11.008000X6.508000*%
%ADD17R,2.032000X2.540000*%
%ADD18R,2.235200X2.540000*%
%ADD19O,2.235200X2.540000*%
%ADD20C,4.572000*%
%ADD21C,2.506980*%
%ADD22R,1.508000X1.758000*%
%ADD23R,1.208000X1.808000*%
%ADD24R,1.808000X1.208000*%
%ADD25R,1.008000X3.308000*%
%ADD26R,2.540000X2.235200*%
%ADD27O,2.540000X2.235200*%
G04 APERTURE END LIST*
D10*
D11*
X39400000Y-38300000D03*
X39400000Y-40840000D03*
X39400000Y-43380000D03*
X39400000Y-45920000D03*
X39400000Y-48460000D03*
X39400000Y-51000000D03*
X39400000Y-53540000D03*
X31780000Y-53540000D03*
X31780000Y-51000000D03*
X31780000Y-48460000D03*
X31780000Y-45920000D03*
X31780000Y-43380000D03*
X31780000Y-40840000D03*
X31780000Y-38300000D03*
D12*
X57264000Y-37520000D03*
X59804000Y-37520000D03*
X62344000Y-37520000D03*
X52184000Y-50220000D03*
X54724000Y-50220000D03*
X57264000Y-50220000D03*
X59804000Y-50220000D03*
X62344000Y-50220000D03*
X64884000Y-50220000D03*
X67424000Y-50220000D03*
X69964000Y-50220000D03*
X72504000Y-50220000D03*
X75044000Y-50220000D03*
X77584000Y-50220000D03*
X80124000Y-50220000D03*
X82664000Y-50220000D03*
X82664000Y-34980000D03*
X80124000Y-34980000D03*
X77584000Y-34980000D03*
X75044000Y-34980000D03*
X72504000Y-34980000D03*
X69964000Y-34980000D03*
X67424000Y-34980000D03*
X64884000Y-34980000D03*
X62344000Y-34980000D03*
X59804000Y-34980000D03*
X57264000Y-34980000D03*
X54724000Y-34980000D03*
X52184000Y-34980000D03*
X49644000Y-34980000D03*
X49644000Y-50220000D03*
D13*
X36403000Y-62644000D03*
X36403000Y-65184000D03*
X36403000Y-60104000D03*
D14*
X53167000Y-62644000D03*
D13*
X31069000Y-73947000D03*
X31069000Y-76487000D03*
X31069000Y-71407000D03*
D14*
X47833000Y-73947000D03*
D15*
X84409000Y-78011000D03*
X86949000Y-78011000D03*
X81869000Y-78011000D03*
D16*
X84409000Y-60247000D03*
D17*
X97290000Y-43190000D03*
X99830000Y-43190000D03*
X102370000Y-43190000D03*
X104910000Y-43190000D03*
X104910000Y-50810000D03*
X102370000Y-50810000D03*
X99830000Y-50810000D03*
X97290000Y-50810000D03*
X93010000Y-50910000D03*
X90470000Y-50910000D03*
X87930000Y-50910000D03*
X85390000Y-50910000D03*
X85390000Y-43290000D03*
X87930000Y-43290000D03*
X90470000Y-43290000D03*
X93010000Y-43290000D03*
D18*
X27767000Y-57691000D03*
D19*
X30307000Y-57691000D03*
X32847000Y-57691000D03*
D20*
X28000000Y-31000000D03*
X104000000Y-31000000D03*
D21*
X32044360Y-63660000D03*
X27043100Y-63660000D03*
D22*
X105900000Y-53200000D03*
X103900000Y-53200000D03*
X100100000Y-53200000D03*
X102100000Y-53200000D03*
D23*
X104650000Y-40800000D03*
X102750000Y-40800000D03*
X99550000Y-40100000D03*
X97650000Y-40100000D03*
D18*
X27767000Y-80551000D03*
D19*
X30307000Y-80551000D03*
X32847000Y-80551000D03*
X35387000Y-80551000D03*
D23*
X94950000Y-55200000D03*
X93050000Y-55200000D03*
X83550000Y-53200000D03*
X85450000Y-53200000D03*
X93050000Y-53500000D03*
X94950000Y-53500000D03*
D24*
X85400000Y-39650000D03*
X85400000Y-41550000D03*
X70000000Y-38750000D03*
X70000000Y-36850000D03*
X67400000Y-38750000D03*
X67400000Y-36850000D03*
D25*
X97100000Y-23400000D03*
X93900000Y-23400000D03*
X94700000Y-23400000D03*
X96300000Y-23400000D03*
X95500000Y-23400000D03*
X92300000Y-23400000D03*
X93100000Y-23400000D03*
X91500000Y-23400000D03*
X89900000Y-23400000D03*
X90700000Y-23400000D03*
D26*
X47117000Y-40038000D03*
D27*
X47117000Y-42578000D03*
X47117000Y-45118000D03*
X47117000Y-47658000D03*
D26*
X29210000Y-39530000D03*
D27*
X29210000Y-42070000D03*
X29210000Y-44610000D03*
X29210000Y-47150000D03*
D26*
X41910000Y-39530000D03*
D27*
X41910000Y-42070000D03*
X41910000Y-44610000D03*
X41910000Y-47150000D03*
M02*
