G04 #@! TF.FileFunction,Legend,Bot*
%FSLAX46Y46*%
G04 Gerber Fmt 4.6, Leading zero omitted, Abs format (unit mm)*
G04 Created by KiCad (PCBNEW 4.0.6) date 06/02/17 15:16:19*
%MOMM*%
%LPD*%
G01*
G04 APERTURE LIST*
%ADD10C,0.150000*%
%ADD11C,0.127000*%
%ADD12C,0.500000*%
%ADD13C,0.048260*%
%ADD14C,0.120000*%
%ADD15C,0.152400*%
%ADD16C,0.076200*%
G04 APERTURE END LIST*
D10*
D11*
X45552200Y-61197560D02*
X45552200Y-59602440D01*
X48447800Y-59602440D02*
X48447800Y-61197560D01*
X48747520Y-58152100D02*
X45252480Y-58152100D01*
X45252480Y-58152100D02*
X45252480Y-62647900D01*
X45252480Y-62647900D02*
X48747520Y-62647900D01*
X48747520Y-62647900D02*
X48747520Y-58152100D01*
D12*
X49134216Y-62315160D02*
G75*
G03X49134216Y-62315160I-10776J0D01*
G01*
D11*
X52198600Y-59550700D02*
X49201400Y-59550700D01*
X49201400Y-59550700D02*
X49201400Y-61049300D01*
X49201400Y-61049300D02*
X52198600Y-61049300D01*
X52198600Y-61049300D02*
X52198600Y-59550700D01*
D13*
X49233729Y-61049300D02*
G75*
G03X49233729Y-61049300I-32329J0D01*
G01*
D10*
X80086000Y-87184000D02*
X78689000Y-87184000D01*
X80086000Y-84644000D02*
X78689000Y-84644000D01*
X80086000Y-82104000D02*
X78689000Y-82104000D01*
X95681472Y-84644000D02*
G75*
G03X95681472Y-84644000I-2514472J0D01*
G01*
X88595000Y-79310000D02*
X96596000Y-79310000D01*
X96596000Y-79310000D02*
X96596000Y-89978000D01*
X96596000Y-89978000D02*
X88595000Y-89978000D01*
X80086000Y-79310000D02*
X88595000Y-79310000D01*
X88595000Y-79310000D02*
X88595000Y-89978000D01*
X88595000Y-89978000D02*
X80086000Y-89978000D01*
X80086000Y-84644000D02*
X80086000Y-89978000D01*
X80086000Y-84644000D02*
X80086000Y-79310000D01*
X74752000Y-98487000D02*
X73355000Y-98487000D01*
X74752000Y-95947000D02*
X73355000Y-95947000D01*
X74752000Y-93407000D02*
X73355000Y-93407000D01*
X90347472Y-95947000D02*
G75*
G03X90347472Y-95947000I-2514472J0D01*
G01*
X83261000Y-90613000D02*
X91262000Y-90613000D01*
X91262000Y-90613000D02*
X91262000Y-101281000D01*
X91262000Y-101281000D02*
X83261000Y-101281000D01*
X74752000Y-90613000D02*
X83261000Y-90613000D01*
X83261000Y-90613000D02*
X83261000Y-101281000D01*
X83261000Y-101281000D02*
X74752000Y-101281000D01*
X74752000Y-95947000D02*
X74752000Y-101281000D01*
X74752000Y-95947000D02*
X74752000Y-90613000D01*
X126949000Y-96328000D02*
X126949000Y-97725000D01*
X124409000Y-96328000D02*
X124409000Y-97725000D01*
X121869000Y-96328000D02*
X121869000Y-97725000D01*
X126923472Y-83247000D02*
G75*
G03X126923472Y-83247000I-2514472J0D01*
G01*
X119075000Y-87819000D02*
X119075000Y-79818000D01*
X119075000Y-79818000D02*
X129743000Y-79818000D01*
X129743000Y-79818000D02*
X129743000Y-87819000D01*
X119075000Y-96328000D02*
X119075000Y-87819000D01*
X119075000Y-87819000D02*
X129743000Y-87819000D01*
X129743000Y-87819000D02*
X129743000Y-96328000D01*
X124409000Y-96328000D02*
X129743000Y-96328000D01*
X124409000Y-96328000D02*
X119075000Y-96328000D01*
X136020000Y-71540000D02*
X136020000Y-66460000D01*
X136020000Y-66460000D02*
X146180000Y-66460000D01*
X146180000Y-66460000D02*
X146180000Y-71540000D01*
X146180000Y-71540000D02*
X136020000Y-71540000D01*
X136020000Y-70270000D02*
X137290000Y-70270000D01*
X137290000Y-70270000D02*
X137290000Y-67730000D01*
X137290000Y-67730000D02*
X136020000Y-67730000D01*
X135480000Y-66460000D02*
X135480000Y-71540000D01*
X135480000Y-71540000D02*
X125320000Y-71540000D01*
X125320000Y-71540000D02*
X125320000Y-66460000D01*
X125320000Y-66460000D02*
X135480000Y-66460000D01*
X135480000Y-67730000D02*
X134210000Y-67730000D01*
X134210000Y-67730000D02*
X134210000Y-70270000D01*
X134210000Y-70270000D02*
X135480000Y-70270000D01*
X144600000Y-62025000D02*
X143400000Y-62025000D01*
X143400000Y-63775000D02*
X144600000Y-63775000D01*
X137300000Y-63775000D02*
X138500000Y-63775000D01*
X138500000Y-62025000D02*
X137300000Y-62025000D01*
X134700000Y-77875000D02*
X135900000Y-77875000D01*
X135900000Y-76125000D02*
X134700000Y-76125000D01*
X126100000Y-74325000D02*
X124900000Y-74325000D01*
X124900000Y-76075000D02*
X126100000Y-76075000D01*
X134700000Y-75975000D02*
X135900000Y-75975000D01*
X135900000Y-74225000D02*
X134700000Y-74225000D01*
X127475000Y-63100000D02*
X127475000Y-61900000D01*
X125725000Y-61900000D02*
X125725000Y-63100000D01*
X110025000Y-51700000D02*
X110025000Y-52900000D01*
X111775000Y-52900000D02*
X111775000Y-51700000D01*
X105125000Y-51700000D02*
X105125000Y-52900000D01*
X106875000Y-52900000D02*
X106875000Y-51700000D01*
X107075000Y-76400000D02*
X107075000Y-75200000D01*
X105325000Y-75200000D02*
X105325000Y-76400000D01*
X104475000Y-76400000D02*
X104475000Y-75200000D01*
X102725000Y-75200000D02*
X102725000Y-76400000D01*
D14*
X107850000Y-60900000D02*
X107850000Y-59900000D01*
X109550000Y-59900000D02*
X109550000Y-60900000D01*
X112050000Y-59900000D02*
X112050000Y-60900000D01*
X110350000Y-60900000D02*
X110350000Y-59900000D01*
X103100000Y-53680000D02*
X104300000Y-53680000D01*
X104300000Y-51920000D02*
X103100000Y-51920000D01*
X68600000Y-81920000D02*
X67400000Y-81920000D01*
X67400000Y-83680000D02*
X68600000Y-83680000D01*
X102820000Y-71900000D02*
X102820000Y-73100000D01*
X104580000Y-73100000D02*
X104580000Y-71900000D01*
X105320000Y-71900000D02*
X105320000Y-73100000D01*
X107080000Y-73100000D02*
X107080000Y-71900000D01*
X107820000Y-56700000D02*
X107820000Y-57900000D01*
X109580000Y-57900000D02*
X109580000Y-56700000D01*
X110320000Y-56700000D02*
X110320000Y-57900000D01*
X112080000Y-57900000D02*
X112080000Y-56700000D01*
X108480000Y-53100000D02*
X108480000Y-51900000D01*
X106720000Y-51900000D02*
X106720000Y-53100000D01*
X113380000Y-53000000D02*
X113380000Y-51800000D01*
X111620000Y-51800000D02*
X111620000Y-53000000D01*
X117800000Y-75180000D02*
X119000000Y-75180000D01*
X119000000Y-73420000D02*
X117800000Y-73420000D01*
X121100000Y-72680000D02*
X122300000Y-72680000D01*
X122300000Y-70920000D02*
X121100000Y-70920000D01*
X124880000Y-57800000D02*
X124880000Y-56600000D01*
X123120000Y-56600000D02*
X123120000Y-57800000D01*
X71100000Y-81780000D02*
X73100000Y-81780000D01*
X73100000Y-83820000D02*
X71100000Y-83820000D01*
X33250000Y-84050000D02*
X33250000Y-80550000D01*
X36150000Y-84050000D02*
X36150000Y-80550000D01*
D15*
X42734860Y-59388430D02*
X42734860Y-63048570D01*
X42734860Y-71783630D02*
X39537000Y-71783630D01*
X26481400Y-71783630D02*
X26481400Y-59388430D01*
X26481400Y-59388430D02*
X32831400Y-59388430D01*
X42734860Y-68151430D02*
X42734860Y-71783630D01*
X39537000Y-59388430D02*
X42734860Y-59388430D01*
X32831400Y-71783630D02*
X26481400Y-71783630D01*
D14*
X80490000Y-53710000D02*
X82260000Y-53710000D01*
X82260000Y-53710000D02*
X82260000Y-64110000D01*
X82260000Y-64110000D02*
X76720000Y-64110000D01*
X76720000Y-64110000D02*
X76720000Y-53710000D01*
X76720000Y-53710000D02*
X78490000Y-53710000D01*
X78490000Y-53710000D02*
G75*
G03X80490000Y-53710000I1000000J0D01*
G01*
D10*
X146180000Y-54260000D02*
X146180000Y-59340000D01*
X146180000Y-59340000D02*
X136020000Y-59340000D01*
X136020000Y-59340000D02*
X136020000Y-54260000D01*
X136020000Y-54260000D02*
X146180000Y-54260000D01*
X146180000Y-55530000D02*
X144910000Y-55530000D01*
X144910000Y-55530000D02*
X144910000Y-58070000D01*
X144910000Y-58070000D02*
X146180000Y-58070000D01*
X49138095Y-57952381D02*
X49138095Y-56952381D01*
X48900000Y-56952381D01*
X48757142Y-57000000D01*
X48661904Y-57095238D01*
X48614285Y-57190476D01*
X48566666Y-57380952D01*
X48566666Y-57523810D01*
X48614285Y-57714286D01*
X48661904Y-57809524D01*
X48757142Y-57904762D01*
X48900000Y-57952381D01*
X49138095Y-57952381D01*
X47661904Y-56952381D02*
X48138095Y-56952381D01*
X48185714Y-57428571D01*
X48138095Y-57380952D01*
X48042857Y-57333333D01*
X47804761Y-57333333D01*
X47709523Y-57380952D01*
X47661904Y-57428571D01*
X47614285Y-57523810D01*
X47614285Y-57761905D01*
X47661904Y-57857143D01*
X47709523Y-57904762D01*
X47804761Y-57952381D01*
X48042857Y-57952381D01*
X48138095Y-57904762D01*
X48185714Y-57857143D01*
X50966666Y-62252381D02*
X51442857Y-62252381D01*
X51442857Y-61252381D01*
X50680952Y-61347619D02*
X50633333Y-61300000D01*
X50538095Y-61252381D01*
X50299999Y-61252381D01*
X50204761Y-61300000D01*
X50157142Y-61347619D01*
X50109523Y-61442857D01*
X50109523Y-61538095D01*
X50157142Y-61680952D01*
X50728571Y-62252381D01*
X50109523Y-62252381D01*
X99800459Y-84299842D02*
X99752840Y-84204604D01*
X99657602Y-84109366D01*
X99514745Y-83966509D01*
X99467126Y-83871270D01*
X99467126Y-83776032D01*
X99705221Y-83823651D02*
X99657602Y-83728413D01*
X99562364Y-83633175D01*
X99371888Y-83585556D01*
X99038554Y-83585556D01*
X98848078Y-83633175D01*
X98752840Y-83728413D01*
X98705221Y-83823651D01*
X98705221Y-84014128D01*
X98752840Y-84109366D01*
X98848078Y-84204604D01*
X99038554Y-84252223D01*
X99371888Y-84252223D01*
X99562364Y-84204604D01*
X99657602Y-84109366D01*
X99705221Y-84014128D01*
X99705221Y-83823651D01*
X98705221Y-85109366D02*
X98705221Y-84918889D01*
X98752840Y-84823651D01*
X98800459Y-84776032D01*
X98943316Y-84680794D01*
X99133792Y-84633175D01*
X99514745Y-84633175D01*
X99609983Y-84680794D01*
X99657602Y-84728413D01*
X99705221Y-84823651D01*
X99705221Y-85014128D01*
X99657602Y-85109366D01*
X99609983Y-85156985D01*
X99514745Y-85204604D01*
X99276650Y-85204604D01*
X99181411Y-85156985D01*
X99133792Y-85109366D01*
X99086173Y-85014128D01*
X99086173Y-84823651D01*
X99133792Y-84728413D01*
X99181411Y-84680794D01*
X99276650Y-84633175D01*
X94466459Y-95602842D02*
X94418840Y-95507604D01*
X94323602Y-95412366D01*
X94180745Y-95269509D01*
X94133126Y-95174270D01*
X94133126Y-95079032D01*
X94371221Y-95126651D02*
X94323602Y-95031413D01*
X94228364Y-94936175D01*
X94037888Y-94888556D01*
X93704554Y-94888556D01*
X93514078Y-94936175D01*
X93418840Y-95031413D01*
X93371221Y-95126651D01*
X93371221Y-95317128D01*
X93418840Y-95412366D01*
X93514078Y-95507604D01*
X93704554Y-95555223D01*
X94037888Y-95555223D01*
X94228364Y-95507604D01*
X94323602Y-95412366D01*
X94371221Y-95317128D01*
X94371221Y-95126651D01*
X93371221Y-96459985D02*
X93371221Y-95983794D01*
X93847411Y-95936175D01*
X93799792Y-95983794D01*
X93752173Y-96079032D01*
X93752173Y-96317128D01*
X93799792Y-96412366D01*
X93847411Y-96459985D01*
X93942650Y-96507604D01*
X94180745Y-96507604D01*
X94275983Y-96459985D01*
X94323602Y-96412366D01*
X94371221Y-96317128D01*
X94371221Y-96079032D01*
X94323602Y-95983794D01*
X94275983Y-95936175D01*
X119895238Y-97847619D02*
X119990476Y-97800000D01*
X120085714Y-97704762D01*
X120228571Y-97561905D01*
X120323810Y-97514286D01*
X120419048Y-97514286D01*
X120371429Y-97752381D02*
X120466667Y-97704762D01*
X120561905Y-97609524D01*
X120609524Y-97419048D01*
X120609524Y-97085714D01*
X120561905Y-96895238D01*
X120466667Y-96800000D01*
X120371429Y-96752381D01*
X120180952Y-96752381D01*
X120085714Y-96800000D01*
X119990476Y-96895238D01*
X119942857Y-97085714D01*
X119942857Y-97419048D01*
X119990476Y-97609524D01*
X120085714Y-97704762D01*
X120180952Y-97752381D01*
X120371429Y-97752381D01*
X118990476Y-97752381D02*
X119561905Y-97752381D01*
X119276191Y-97752381D02*
X119276191Y-96752381D01*
X119371429Y-96895238D01*
X119466667Y-96990476D01*
X119561905Y-97038095D01*
X146452381Y-68238095D02*
X147261905Y-68238095D01*
X147357143Y-68285714D01*
X147404762Y-68333333D01*
X147452381Y-68428571D01*
X147452381Y-68619048D01*
X147404762Y-68714286D01*
X147357143Y-68761905D01*
X147261905Y-68809524D01*
X146452381Y-68809524D01*
X146452381Y-69190476D02*
X146452381Y-69857143D01*
X147452381Y-69428571D01*
X124152381Y-66838095D02*
X124961905Y-66838095D01*
X125057143Y-66885714D01*
X125104762Y-66933333D01*
X125152381Y-67028571D01*
X125152381Y-67219048D01*
X125104762Y-67314286D01*
X125057143Y-67361905D01*
X124961905Y-67409524D01*
X124152381Y-67409524D01*
X124152381Y-68361905D02*
X124152381Y-67885714D01*
X124628571Y-67838095D01*
X124580952Y-67885714D01*
X124533333Y-67980952D01*
X124533333Y-68219048D01*
X124580952Y-68314286D01*
X124628571Y-68361905D01*
X124723810Y-68409524D01*
X124961905Y-68409524D01*
X125057143Y-68361905D01*
X125104762Y-68314286D01*
X125152381Y-68219048D01*
X125152381Y-67980952D01*
X125104762Y-67885714D01*
X125057143Y-67838095D01*
X147342857Y-63352381D02*
X147676191Y-62876190D01*
X147914286Y-63352381D02*
X147914286Y-62352381D01*
X147533333Y-62352381D01*
X147438095Y-62400000D01*
X147390476Y-62447619D01*
X147342857Y-62542857D01*
X147342857Y-62685714D01*
X147390476Y-62780952D01*
X147438095Y-62828571D01*
X147533333Y-62876190D01*
X147914286Y-62876190D01*
X146961905Y-62447619D02*
X146914286Y-62400000D01*
X146819048Y-62352381D01*
X146580952Y-62352381D01*
X146485714Y-62400000D01*
X146438095Y-62447619D01*
X146390476Y-62542857D01*
X146390476Y-62638095D01*
X146438095Y-62780952D01*
X147009524Y-63352381D01*
X146390476Y-63352381D01*
X145533333Y-62685714D02*
X145533333Y-63352381D01*
X145771429Y-62304762D02*
X146009524Y-63019048D01*
X145390476Y-63019048D01*
X135542857Y-63352381D02*
X135876191Y-62876190D01*
X136114286Y-63352381D02*
X136114286Y-62352381D01*
X135733333Y-62352381D01*
X135638095Y-62400000D01*
X135590476Y-62447619D01*
X135542857Y-62542857D01*
X135542857Y-62685714D01*
X135590476Y-62780952D01*
X135638095Y-62828571D01*
X135733333Y-62876190D01*
X136114286Y-62876190D01*
X135161905Y-62447619D02*
X135114286Y-62400000D01*
X135019048Y-62352381D01*
X134780952Y-62352381D01*
X134685714Y-62400000D01*
X134638095Y-62447619D01*
X134590476Y-62542857D01*
X134590476Y-62638095D01*
X134638095Y-62780952D01*
X135209524Y-63352381D01*
X134590476Y-63352381D01*
X134019048Y-62780952D02*
X134114286Y-62733333D01*
X134161905Y-62685714D01*
X134209524Y-62590476D01*
X134209524Y-62542857D01*
X134161905Y-62447619D01*
X134114286Y-62400000D01*
X134019048Y-62352381D01*
X133828571Y-62352381D01*
X133733333Y-62400000D01*
X133685714Y-62447619D01*
X133638095Y-62542857D01*
X133638095Y-62590476D01*
X133685714Y-62685714D01*
X133733333Y-62733333D01*
X133828571Y-62780952D01*
X134019048Y-62780952D01*
X134114286Y-62828571D01*
X134161905Y-62876190D01*
X134209524Y-62971429D01*
X134209524Y-63161905D01*
X134161905Y-63257143D01*
X134114286Y-63304762D01*
X134019048Y-63352381D01*
X133828571Y-63352381D01*
X133733333Y-63304762D01*
X133685714Y-63257143D01*
X133638095Y-63161905D01*
X133638095Y-62971429D01*
X133685714Y-62876190D01*
X133733333Y-62828571D01*
X133828571Y-62780952D01*
X133142857Y-77452381D02*
X133476191Y-76976190D01*
X133714286Y-77452381D02*
X133714286Y-76452381D01*
X133333333Y-76452381D01*
X133238095Y-76500000D01*
X133190476Y-76547619D01*
X133142857Y-76642857D01*
X133142857Y-76785714D01*
X133190476Y-76880952D01*
X133238095Y-76928571D01*
X133333333Y-76976190D01*
X133714286Y-76976190D01*
X132190476Y-77452381D02*
X132761905Y-77452381D01*
X132476191Y-77452381D02*
X132476191Y-76452381D01*
X132571429Y-76595238D01*
X132666667Y-76690476D01*
X132761905Y-76738095D01*
X131571429Y-76452381D02*
X131476190Y-76452381D01*
X131380952Y-76500000D01*
X131333333Y-76547619D01*
X131285714Y-76642857D01*
X131238095Y-76833333D01*
X131238095Y-77071429D01*
X131285714Y-77261905D01*
X131333333Y-77357143D01*
X131380952Y-77404762D01*
X131476190Y-77452381D01*
X131571429Y-77452381D01*
X131666667Y-77404762D01*
X131714286Y-77357143D01*
X131761905Y-77261905D01*
X131809524Y-77071429D01*
X131809524Y-76833333D01*
X131761905Y-76642857D01*
X131714286Y-76547619D01*
X131666667Y-76500000D01*
X131571429Y-76452381D01*
X126242857Y-77052381D02*
X126576191Y-76576190D01*
X126814286Y-77052381D02*
X126814286Y-76052381D01*
X126433333Y-76052381D01*
X126338095Y-76100000D01*
X126290476Y-76147619D01*
X126242857Y-76242857D01*
X126242857Y-76385714D01*
X126290476Y-76480952D01*
X126338095Y-76528571D01*
X126433333Y-76576190D01*
X126814286Y-76576190D01*
X125290476Y-77052381D02*
X125861905Y-77052381D01*
X125576191Y-77052381D02*
X125576191Y-76052381D01*
X125671429Y-76195238D01*
X125766667Y-76290476D01*
X125861905Y-76338095D01*
X124338095Y-77052381D02*
X124909524Y-77052381D01*
X124623810Y-77052381D02*
X124623810Y-76052381D01*
X124719048Y-76195238D01*
X124814286Y-76290476D01*
X124909524Y-76338095D01*
X133142857Y-75652381D02*
X133476191Y-75176190D01*
X133714286Y-75652381D02*
X133714286Y-74652381D01*
X133333333Y-74652381D01*
X133238095Y-74700000D01*
X133190476Y-74747619D01*
X133142857Y-74842857D01*
X133142857Y-74985714D01*
X133190476Y-75080952D01*
X133238095Y-75128571D01*
X133333333Y-75176190D01*
X133714286Y-75176190D01*
X132190476Y-75652381D02*
X132761905Y-75652381D01*
X132476191Y-75652381D02*
X132476191Y-74652381D01*
X132571429Y-74795238D01*
X132666667Y-74890476D01*
X132761905Y-74938095D01*
X131809524Y-74747619D02*
X131761905Y-74700000D01*
X131666667Y-74652381D01*
X131428571Y-74652381D01*
X131333333Y-74700000D01*
X131285714Y-74747619D01*
X131238095Y-74842857D01*
X131238095Y-74938095D01*
X131285714Y-75080952D01*
X131857143Y-75652381D01*
X131238095Y-75652381D01*
X124842857Y-63152381D02*
X125176191Y-62676190D01*
X125414286Y-63152381D02*
X125414286Y-62152381D01*
X125033333Y-62152381D01*
X124938095Y-62200000D01*
X124890476Y-62247619D01*
X124842857Y-62342857D01*
X124842857Y-62485714D01*
X124890476Y-62580952D01*
X124938095Y-62628571D01*
X125033333Y-62676190D01*
X125414286Y-62676190D01*
X123890476Y-63152381D02*
X124461905Y-63152381D01*
X124176191Y-63152381D02*
X124176191Y-62152381D01*
X124271429Y-62295238D01*
X124366667Y-62390476D01*
X124461905Y-62438095D01*
X123557143Y-62152381D02*
X122890476Y-62152381D01*
X123319048Y-63152381D01*
X111352381Y-49833334D02*
X110876190Y-49500000D01*
X111352381Y-49261905D02*
X110352381Y-49261905D01*
X110352381Y-49642858D01*
X110400000Y-49738096D01*
X110447619Y-49785715D01*
X110542857Y-49833334D01*
X110685714Y-49833334D01*
X110780952Y-49785715D01*
X110828571Y-49738096D01*
X110876190Y-49642858D01*
X110876190Y-49261905D01*
X110352381Y-50166667D02*
X110352381Y-50785715D01*
X110733333Y-50452381D01*
X110733333Y-50595239D01*
X110780952Y-50690477D01*
X110828571Y-50738096D01*
X110923810Y-50785715D01*
X111161905Y-50785715D01*
X111257143Y-50738096D01*
X111304762Y-50690477D01*
X111352381Y-50595239D01*
X111352381Y-50309524D01*
X111304762Y-50214286D01*
X111257143Y-50166667D01*
X106452381Y-49733334D02*
X105976190Y-49400000D01*
X106452381Y-49161905D02*
X105452381Y-49161905D01*
X105452381Y-49542858D01*
X105500000Y-49638096D01*
X105547619Y-49685715D01*
X105642857Y-49733334D01*
X105785714Y-49733334D01*
X105880952Y-49685715D01*
X105928571Y-49638096D01*
X105976190Y-49542858D01*
X105976190Y-49161905D01*
X105785714Y-50590477D02*
X106452381Y-50590477D01*
X105404762Y-50352381D02*
X106119048Y-50114286D01*
X106119048Y-50733334D01*
X106652381Y-78057143D02*
X106176190Y-77723809D01*
X106652381Y-77485714D02*
X105652381Y-77485714D01*
X105652381Y-77866667D01*
X105700000Y-77961905D01*
X105747619Y-78009524D01*
X105842857Y-78057143D01*
X105985714Y-78057143D01*
X106080952Y-78009524D01*
X106128571Y-77961905D01*
X106176190Y-77866667D01*
X106176190Y-77485714D01*
X106652381Y-79009524D02*
X106652381Y-78438095D01*
X106652381Y-78723809D02*
X105652381Y-78723809D01*
X105795238Y-78628571D01*
X105890476Y-78533333D01*
X105938095Y-78438095D01*
X106652381Y-79485714D02*
X106652381Y-79676190D01*
X106604762Y-79771429D01*
X106557143Y-79819048D01*
X106414286Y-79914286D01*
X106223810Y-79961905D01*
X105842857Y-79961905D01*
X105747619Y-79914286D01*
X105700000Y-79866667D01*
X105652381Y-79771429D01*
X105652381Y-79580952D01*
X105700000Y-79485714D01*
X105747619Y-79438095D01*
X105842857Y-79390476D01*
X106080952Y-79390476D01*
X106176190Y-79438095D01*
X106223810Y-79485714D01*
X106271429Y-79580952D01*
X106271429Y-79771429D01*
X106223810Y-79866667D01*
X106176190Y-79914286D01*
X106080952Y-79961905D01*
X104152381Y-77957143D02*
X103676190Y-77623809D01*
X104152381Y-77385714D02*
X103152381Y-77385714D01*
X103152381Y-77766667D01*
X103200000Y-77861905D01*
X103247619Y-77909524D01*
X103342857Y-77957143D01*
X103485714Y-77957143D01*
X103580952Y-77909524D01*
X103628571Y-77861905D01*
X103676190Y-77766667D01*
X103676190Y-77385714D01*
X103247619Y-78338095D02*
X103200000Y-78385714D01*
X103152381Y-78480952D01*
X103152381Y-78719048D01*
X103200000Y-78814286D01*
X103247619Y-78861905D01*
X103342857Y-78909524D01*
X103438095Y-78909524D01*
X103580952Y-78861905D01*
X104152381Y-78290476D01*
X104152381Y-78909524D01*
X103152381Y-79528571D02*
X103152381Y-79623810D01*
X103200000Y-79719048D01*
X103247619Y-79766667D01*
X103342857Y-79814286D01*
X103533333Y-79861905D01*
X103771429Y-79861905D01*
X103961905Y-79814286D01*
X104057143Y-79766667D01*
X104104762Y-79719048D01*
X104152381Y-79623810D01*
X104152381Y-79528571D01*
X104104762Y-79433333D01*
X104057143Y-79385714D01*
X103961905Y-79338095D01*
X103771429Y-79290476D01*
X103533333Y-79290476D01*
X103342857Y-79338095D01*
X103247619Y-79385714D01*
X103200000Y-79433333D01*
X103152381Y-79528571D01*
X107357143Y-59857143D02*
X107404762Y-59809524D01*
X107452381Y-59666667D01*
X107452381Y-59571429D01*
X107404762Y-59428571D01*
X107309524Y-59333333D01*
X107214286Y-59285714D01*
X107023810Y-59238095D01*
X106880952Y-59238095D01*
X106690476Y-59285714D01*
X106595238Y-59333333D01*
X106500000Y-59428571D01*
X106452381Y-59571429D01*
X106452381Y-59666667D01*
X106500000Y-59809524D01*
X106547619Y-59857143D01*
X106547619Y-60238095D02*
X106500000Y-60285714D01*
X106452381Y-60380952D01*
X106452381Y-60619048D01*
X106500000Y-60714286D01*
X106547619Y-60761905D01*
X106642857Y-60809524D01*
X106738095Y-60809524D01*
X106880952Y-60761905D01*
X107452381Y-60190476D01*
X107452381Y-60809524D01*
X106880952Y-61380952D02*
X106833333Y-61285714D01*
X106785714Y-61238095D01*
X106690476Y-61190476D01*
X106642857Y-61190476D01*
X106547619Y-61238095D01*
X106500000Y-61285714D01*
X106452381Y-61380952D01*
X106452381Y-61571429D01*
X106500000Y-61666667D01*
X106547619Y-61714286D01*
X106642857Y-61761905D01*
X106690476Y-61761905D01*
X106785714Y-61714286D01*
X106833333Y-61666667D01*
X106880952Y-61571429D01*
X106880952Y-61380952D01*
X106928571Y-61285714D01*
X106976190Y-61238095D01*
X107071429Y-61190476D01*
X107261905Y-61190476D01*
X107357143Y-61238095D01*
X107404762Y-61285714D01*
X107452381Y-61380952D01*
X107452381Y-61571429D01*
X107404762Y-61666667D01*
X107357143Y-61714286D01*
X107261905Y-61761905D01*
X107071429Y-61761905D01*
X106976190Y-61714286D01*
X106928571Y-61666667D01*
X106880952Y-61571429D01*
X113257143Y-59757143D02*
X113304762Y-59709524D01*
X113352381Y-59566667D01*
X113352381Y-59471429D01*
X113304762Y-59328571D01*
X113209524Y-59233333D01*
X113114286Y-59185714D01*
X112923810Y-59138095D01*
X112780952Y-59138095D01*
X112590476Y-59185714D01*
X112495238Y-59233333D01*
X112400000Y-59328571D01*
X112352381Y-59471429D01*
X112352381Y-59566667D01*
X112400000Y-59709524D01*
X112447619Y-59757143D01*
X112447619Y-60138095D02*
X112400000Y-60185714D01*
X112352381Y-60280952D01*
X112352381Y-60519048D01*
X112400000Y-60614286D01*
X112447619Y-60661905D01*
X112542857Y-60709524D01*
X112638095Y-60709524D01*
X112780952Y-60661905D01*
X113352381Y-60090476D01*
X113352381Y-60709524D01*
X113352381Y-61185714D02*
X113352381Y-61376190D01*
X113304762Y-61471429D01*
X113257143Y-61519048D01*
X113114286Y-61614286D01*
X112923810Y-61661905D01*
X112542857Y-61661905D01*
X112447619Y-61614286D01*
X112400000Y-61566667D01*
X112352381Y-61471429D01*
X112352381Y-61280952D01*
X112400000Y-61185714D01*
X112447619Y-61138095D01*
X112542857Y-61090476D01*
X112780952Y-61090476D01*
X112876190Y-61138095D01*
X112923810Y-61185714D01*
X112971429Y-61280952D01*
X112971429Y-61471429D01*
X112923810Y-61566667D01*
X112876190Y-61614286D01*
X112780952Y-61661905D01*
X104533333Y-51078571D02*
X104866667Y-51078571D01*
X104866667Y-51602381D02*
X104866667Y-50602381D01*
X104390476Y-50602381D01*
X103676190Y-51078571D02*
X103533333Y-51126190D01*
X103485714Y-51173810D01*
X103438095Y-51269048D01*
X103438095Y-51411905D01*
X103485714Y-51507143D01*
X103533333Y-51554762D01*
X103628571Y-51602381D01*
X104009524Y-51602381D01*
X104009524Y-50602381D01*
X103676190Y-50602381D01*
X103580952Y-50650000D01*
X103533333Y-50697619D01*
X103485714Y-50792857D01*
X103485714Y-50888095D01*
X103533333Y-50983333D01*
X103580952Y-51030952D01*
X103676190Y-51078571D01*
X104009524Y-51078571D01*
X102485714Y-51602381D02*
X103057143Y-51602381D01*
X102771429Y-51602381D02*
X102771429Y-50602381D01*
X102866667Y-50745238D01*
X102961905Y-50840476D01*
X103057143Y-50888095D01*
X66033333Y-82728571D02*
X66366667Y-82728571D01*
X66366667Y-83252381D02*
X66366667Y-82252381D01*
X65890476Y-82252381D01*
X65176190Y-82728571D02*
X65033333Y-82776190D01*
X64985714Y-82823810D01*
X64938095Y-82919048D01*
X64938095Y-83061905D01*
X64985714Y-83157143D01*
X65033333Y-83204762D01*
X65128571Y-83252381D01*
X65509524Y-83252381D01*
X65509524Y-82252381D01*
X65176190Y-82252381D01*
X65080952Y-82300000D01*
X65033333Y-82347619D01*
X64985714Y-82442857D01*
X64985714Y-82538095D01*
X65033333Y-82633333D01*
X65080952Y-82680952D01*
X65176190Y-82728571D01*
X65509524Y-82728571D01*
X64557143Y-82347619D02*
X64509524Y-82300000D01*
X64414286Y-82252381D01*
X64176190Y-82252381D01*
X64080952Y-82300000D01*
X64033333Y-82347619D01*
X63985714Y-82442857D01*
X63985714Y-82538095D01*
X64033333Y-82680952D01*
X64604762Y-83252381D01*
X63985714Y-83252381D01*
X102652381Y-71957143D02*
X102176190Y-71623809D01*
X102652381Y-71385714D02*
X101652381Y-71385714D01*
X101652381Y-71766667D01*
X101700000Y-71861905D01*
X101747619Y-71909524D01*
X101842857Y-71957143D01*
X101985714Y-71957143D01*
X102080952Y-71909524D01*
X102128571Y-71861905D01*
X102176190Y-71766667D01*
X102176190Y-71385714D01*
X101985714Y-72814286D02*
X102652381Y-72814286D01*
X101604762Y-72576190D02*
X102319048Y-72338095D01*
X102319048Y-72957143D01*
X101652381Y-73528571D02*
X101652381Y-73623810D01*
X101700000Y-73719048D01*
X101747619Y-73766667D01*
X101842857Y-73814286D01*
X102033333Y-73861905D01*
X102271429Y-73861905D01*
X102461905Y-73814286D01*
X102557143Y-73766667D01*
X102604762Y-73719048D01*
X102652381Y-73623810D01*
X102652381Y-73528571D01*
X102604762Y-73433333D01*
X102557143Y-73385714D01*
X102461905Y-73338095D01*
X102271429Y-73290476D01*
X102033333Y-73290476D01*
X101842857Y-73338095D01*
X101747619Y-73385714D01*
X101700000Y-73433333D01*
X101652381Y-73528571D01*
X108302381Y-71857143D02*
X107826190Y-71523809D01*
X108302381Y-71285714D02*
X107302381Y-71285714D01*
X107302381Y-71666667D01*
X107350000Y-71761905D01*
X107397619Y-71809524D01*
X107492857Y-71857143D01*
X107635714Y-71857143D01*
X107730952Y-71809524D01*
X107778571Y-71761905D01*
X107826190Y-71666667D01*
X107826190Y-71285714D01*
X107635714Y-72714286D02*
X108302381Y-72714286D01*
X107254762Y-72476190D02*
X107969048Y-72238095D01*
X107969048Y-72857143D01*
X108302381Y-73761905D02*
X108302381Y-73190476D01*
X108302381Y-73476190D02*
X107302381Y-73476190D01*
X107445238Y-73380952D01*
X107540476Y-73285714D01*
X107588095Y-73190476D01*
X107552381Y-56657143D02*
X107076190Y-56323809D01*
X107552381Y-56085714D02*
X106552381Y-56085714D01*
X106552381Y-56466667D01*
X106600000Y-56561905D01*
X106647619Y-56609524D01*
X106742857Y-56657143D01*
X106885714Y-56657143D01*
X106980952Y-56609524D01*
X107028571Y-56561905D01*
X107076190Y-56466667D01*
X107076190Y-56085714D01*
X106885714Y-57514286D02*
X107552381Y-57514286D01*
X106504762Y-57276190D02*
X107219048Y-57038095D01*
X107219048Y-57657143D01*
X106885714Y-58466667D02*
X107552381Y-58466667D01*
X106504762Y-58228571D02*
X107219048Y-57990476D01*
X107219048Y-58609524D01*
X113352381Y-56657143D02*
X112876190Y-56323809D01*
X113352381Y-56085714D02*
X112352381Y-56085714D01*
X112352381Y-56466667D01*
X112400000Y-56561905D01*
X112447619Y-56609524D01*
X112542857Y-56657143D01*
X112685714Y-56657143D01*
X112780952Y-56609524D01*
X112828571Y-56561905D01*
X112876190Y-56466667D01*
X112876190Y-56085714D01*
X112685714Y-57514286D02*
X113352381Y-57514286D01*
X112304762Y-57276190D02*
X113019048Y-57038095D01*
X113019048Y-57657143D01*
X112352381Y-58514286D02*
X112352381Y-58038095D01*
X112828571Y-57990476D01*
X112780952Y-58038095D01*
X112733333Y-58133333D01*
X112733333Y-58371429D01*
X112780952Y-58466667D01*
X112828571Y-58514286D01*
X112923810Y-58561905D01*
X113161905Y-58561905D01*
X113257143Y-58514286D01*
X113304762Y-58466667D01*
X113352381Y-58371429D01*
X113352381Y-58133333D01*
X113304762Y-58038095D01*
X113257143Y-57990476D01*
X108152381Y-49057143D02*
X107676190Y-48723809D01*
X108152381Y-48485714D02*
X107152381Y-48485714D01*
X107152381Y-48866667D01*
X107200000Y-48961905D01*
X107247619Y-49009524D01*
X107342857Y-49057143D01*
X107485714Y-49057143D01*
X107580952Y-49009524D01*
X107628571Y-48961905D01*
X107676190Y-48866667D01*
X107676190Y-48485714D01*
X107152381Y-49961905D02*
X107152381Y-49485714D01*
X107628571Y-49438095D01*
X107580952Y-49485714D01*
X107533333Y-49580952D01*
X107533333Y-49819048D01*
X107580952Y-49914286D01*
X107628571Y-49961905D01*
X107723810Y-50009524D01*
X107961905Y-50009524D01*
X108057143Y-49961905D01*
X108104762Y-49914286D01*
X108152381Y-49819048D01*
X108152381Y-49580952D01*
X108104762Y-49485714D01*
X108057143Y-49438095D01*
X107152381Y-50628571D02*
X107152381Y-50723810D01*
X107200000Y-50819048D01*
X107247619Y-50866667D01*
X107342857Y-50914286D01*
X107533333Y-50961905D01*
X107771429Y-50961905D01*
X107961905Y-50914286D01*
X108057143Y-50866667D01*
X108104762Y-50819048D01*
X108152381Y-50723810D01*
X108152381Y-50628571D01*
X108104762Y-50533333D01*
X108057143Y-50485714D01*
X107961905Y-50438095D01*
X107771429Y-50390476D01*
X107533333Y-50390476D01*
X107342857Y-50438095D01*
X107247619Y-50485714D01*
X107200000Y-50533333D01*
X107152381Y-50628571D01*
X114552381Y-51657143D02*
X114076190Y-51323809D01*
X114552381Y-51085714D02*
X113552381Y-51085714D01*
X113552381Y-51466667D01*
X113600000Y-51561905D01*
X113647619Y-51609524D01*
X113742857Y-51657143D01*
X113885714Y-51657143D01*
X113980952Y-51609524D01*
X114028571Y-51561905D01*
X114076190Y-51466667D01*
X114076190Y-51085714D01*
X113552381Y-52561905D02*
X113552381Y-52085714D01*
X114028571Y-52038095D01*
X113980952Y-52085714D01*
X113933333Y-52180952D01*
X113933333Y-52419048D01*
X113980952Y-52514286D01*
X114028571Y-52561905D01*
X114123810Y-52609524D01*
X114361905Y-52609524D01*
X114457143Y-52561905D01*
X114504762Y-52514286D01*
X114552381Y-52419048D01*
X114552381Y-52180952D01*
X114504762Y-52085714D01*
X114457143Y-52038095D01*
X114552381Y-53561905D02*
X114552381Y-52990476D01*
X114552381Y-53276190D02*
X113552381Y-53276190D01*
X113695238Y-53180952D01*
X113790476Y-53085714D01*
X113838095Y-52990476D01*
X122033333Y-74628571D02*
X122366667Y-74628571D01*
X122366667Y-75152381D02*
X122366667Y-74152381D01*
X121890476Y-74152381D01*
X121176190Y-74628571D02*
X121033333Y-74676190D01*
X120985714Y-74723810D01*
X120938095Y-74819048D01*
X120938095Y-74961905D01*
X120985714Y-75057143D01*
X121033333Y-75104762D01*
X121128571Y-75152381D01*
X121509524Y-75152381D01*
X121509524Y-74152381D01*
X121176190Y-74152381D01*
X121080952Y-74200000D01*
X121033333Y-74247619D01*
X120985714Y-74342857D01*
X120985714Y-74438095D01*
X121033333Y-74533333D01*
X121080952Y-74580952D01*
X121176190Y-74628571D01*
X121509524Y-74628571D01*
X120604762Y-74152381D02*
X119985714Y-74152381D01*
X120319048Y-74533333D01*
X120176190Y-74533333D01*
X120080952Y-74580952D01*
X120033333Y-74628571D01*
X119985714Y-74723810D01*
X119985714Y-74961905D01*
X120033333Y-75057143D01*
X120080952Y-75104762D01*
X120176190Y-75152381D01*
X120461905Y-75152381D01*
X120557143Y-75104762D01*
X120604762Y-75057143D01*
X119833333Y-71728571D02*
X120166667Y-71728571D01*
X120166667Y-72252381D02*
X120166667Y-71252381D01*
X119690476Y-71252381D01*
X118976190Y-71728571D02*
X118833333Y-71776190D01*
X118785714Y-71823810D01*
X118738095Y-71919048D01*
X118738095Y-72061905D01*
X118785714Y-72157143D01*
X118833333Y-72204762D01*
X118928571Y-72252381D01*
X119309524Y-72252381D01*
X119309524Y-71252381D01*
X118976190Y-71252381D01*
X118880952Y-71300000D01*
X118833333Y-71347619D01*
X118785714Y-71442857D01*
X118785714Y-71538095D01*
X118833333Y-71633333D01*
X118880952Y-71680952D01*
X118976190Y-71728571D01*
X119309524Y-71728571D01*
X117880952Y-71585714D02*
X117880952Y-72252381D01*
X118119048Y-71204762D02*
X118357143Y-71919048D01*
X117738095Y-71919048D01*
X122278571Y-56366667D02*
X122278571Y-56033333D01*
X122802381Y-56033333D02*
X121802381Y-56033333D01*
X121802381Y-56509524D01*
X122278571Y-57223810D02*
X122326190Y-57366667D01*
X122373810Y-57414286D01*
X122469048Y-57461905D01*
X122611905Y-57461905D01*
X122707143Y-57414286D01*
X122754762Y-57366667D01*
X122802381Y-57271429D01*
X122802381Y-56890476D01*
X121802381Y-56890476D01*
X121802381Y-57223810D01*
X121850000Y-57319048D01*
X121897619Y-57366667D01*
X121992857Y-57414286D01*
X122088095Y-57414286D01*
X122183333Y-57366667D01*
X122230952Y-57319048D01*
X122278571Y-57223810D01*
X122278571Y-56890476D01*
X121802381Y-58366667D02*
X121802381Y-57890476D01*
X122278571Y-57842857D01*
X122230952Y-57890476D01*
X122183333Y-57985714D01*
X122183333Y-58223810D01*
X122230952Y-58319048D01*
X122278571Y-58366667D01*
X122373810Y-58414286D01*
X122611905Y-58414286D01*
X122707143Y-58366667D01*
X122754762Y-58319048D01*
X122802381Y-58223810D01*
X122802381Y-57985714D01*
X122754762Y-57890476D01*
X122707143Y-57842857D01*
X70742857Y-84757143D02*
X70790476Y-84804762D01*
X70933333Y-84852381D01*
X71028571Y-84852381D01*
X71171429Y-84804762D01*
X71266667Y-84709524D01*
X71314286Y-84614286D01*
X71361905Y-84423810D01*
X71361905Y-84280952D01*
X71314286Y-84090476D01*
X71266667Y-83995238D01*
X71171429Y-83900000D01*
X71028571Y-83852381D01*
X70933333Y-83852381D01*
X70790476Y-83900000D01*
X70742857Y-83947619D01*
X70409524Y-83852381D02*
X69790476Y-83852381D01*
X70123810Y-84233333D01*
X69980952Y-84233333D01*
X69885714Y-84280952D01*
X69838095Y-84328571D01*
X69790476Y-84423810D01*
X69790476Y-84661905D01*
X69838095Y-84757143D01*
X69885714Y-84804762D01*
X69980952Y-84852381D01*
X70266667Y-84852381D01*
X70361905Y-84804762D01*
X70409524Y-84757143D01*
X68885714Y-83852381D02*
X69361905Y-83852381D01*
X69409524Y-84328571D01*
X69361905Y-84280952D01*
X69266667Y-84233333D01*
X69028571Y-84233333D01*
X68933333Y-84280952D01*
X68885714Y-84328571D01*
X68838095Y-84423810D01*
X68838095Y-84661905D01*
X68885714Y-84757143D01*
X68933333Y-84804762D01*
X69028571Y-84852381D01*
X69266667Y-84852381D01*
X69361905Y-84804762D01*
X69409524Y-84757143D01*
X36133333Y-79304762D02*
X35990476Y-79352381D01*
X35752380Y-79352381D01*
X35657142Y-79304762D01*
X35609523Y-79257143D01*
X35561904Y-79161905D01*
X35561904Y-79066667D01*
X35609523Y-78971429D01*
X35657142Y-78923810D01*
X35752380Y-78876190D01*
X35942857Y-78828571D01*
X36038095Y-78780952D01*
X36085714Y-78733333D01*
X36133333Y-78638095D01*
X36133333Y-78542857D01*
X36085714Y-78447619D01*
X36038095Y-78400000D01*
X35942857Y-78352381D01*
X35704761Y-78352381D01*
X35561904Y-78400000D01*
X35228571Y-78352381D02*
X34990476Y-79352381D01*
X34799999Y-78638095D01*
X34609523Y-79352381D01*
X34371428Y-78352381D01*
X33466666Y-79352381D02*
X34038095Y-79352381D01*
X33752381Y-79352381D02*
X33752381Y-78352381D01*
X33847619Y-78495238D01*
X33942857Y-78590476D01*
X34038095Y-78638095D01*
X37085714Y-86202381D02*
X37085714Y-85202381D01*
X36704761Y-85202381D01*
X36609523Y-85250000D01*
X36561904Y-85297619D01*
X36514285Y-85392857D01*
X36514285Y-85535714D01*
X36561904Y-85630952D01*
X36609523Y-85678571D01*
X36704761Y-85726190D01*
X37085714Y-85726190D01*
X35514285Y-86202381D02*
X35847619Y-85726190D01*
X36085714Y-86202381D02*
X36085714Y-85202381D01*
X35704761Y-85202381D01*
X35609523Y-85250000D01*
X35561904Y-85297619D01*
X35514285Y-85392857D01*
X35514285Y-85535714D01*
X35561904Y-85630952D01*
X35609523Y-85678571D01*
X35704761Y-85726190D01*
X36085714Y-85726190D01*
X34895238Y-85202381D02*
X34704761Y-85202381D01*
X34609523Y-85250000D01*
X34514285Y-85345238D01*
X34466666Y-85535714D01*
X34466666Y-85869048D01*
X34514285Y-86059524D01*
X34609523Y-86154762D01*
X34704761Y-86202381D01*
X34895238Y-86202381D01*
X34990476Y-86154762D01*
X35085714Y-86059524D01*
X35133333Y-85869048D01*
X35133333Y-85535714D01*
X35085714Y-85345238D01*
X34990476Y-85250000D01*
X34895238Y-85202381D01*
X33514285Y-85250000D02*
X33609523Y-85202381D01*
X33752380Y-85202381D01*
X33895238Y-85250000D01*
X33990476Y-85345238D01*
X34038095Y-85440476D01*
X34085714Y-85630952D01*
X34085714Y-85773810D01*
X34038095Y-85964286D01*
X33990476Y-86059524D01*
X33895238Y-86154762D01*
X33752380Y-86202381D01*
X33657142Y-86202381D01*
X33514285Y-86154762D01*
X33466666Y-86107143D01*
X33466666Y-85773810D01*
X33657142Y-85773810D01*
D16*
X26116124Y-64662619D02*
X24846124Y-64662619D01*
X24846124Y-65146428D01*
X24906600Y-65267381D01*
X24967076Y-65327857D01*
X25088029Y-65388333D01*
X25269457Y-65388333D01*
X25390410Y-65327857D01*
X25450886Y-65267381D01*
X25511362Y-65146428D01*
X25511362Y-64662619D01*
X24846124Y-66476905D02*
X24846124Y-66235000D01*
X24906600Y-66114048D01*
X24967076Y-66053571D01*
X25148505Y-65932619D01*
X25390410Y-65872143D01*
X25874219Y-65872143D01*
X25995171Y-65932619D01*
X26055648Y-65993095D01*
X26116124Y-66114048D01*
X26116124Y-66355952D01*
X26055648Y-66476905D01*
X25995171Y-66537381D01*
X25874219Y-66597857D01*
X25571838Y-66597857D01*
X25450886Y-66537381D01*
X25390410Y-66476905D01*
X25329933Y-66355952D01*
X25329933Y-66114048D01*
X25390410Y-65993095D01*
X25450886Y-65932619D01*
X25571838Y-65872143D01*
D10*
X80728095Y-52162381D02*
X80728095Y-52971905D01*
X80680476Y-53067143D01*
X80632857Y-53114762D01*
X80537619Y-53162381D01*
X80347142Y-53162381D01*
X80251904Y-53114762D01*
X80204285Y-53067143D01*
X80156666Y-52971905D01*
X80156666Y-52162381D01*
X79156666Y-53162381D02*
X79728095Y-53162381D01*
X79442381Y-53162381D02*
X79442381Y-52162381D01*
X79537619Y-52305238D01*
X79632857Y-52400476D01*
X79728095Y-52448095D01*
X78204285Y-53162381D02*
X78775714Y-53162381D01*
X78490000Y-53162381D02*
X78490000Y-52162381D01*
X78585238Y-52305238D01*
X78680476Y-52400476D01*
X78775714Y-52448095D01*
X146452381Y-55661905D02*
X147261905Y-55661905D01*
X147357143Y-55709524D01*
X147404762Y-55757143D01*
X147452381Y-55852381D01*
X147452381Y-56042858D01*
X147404762Y-56138096D01*
X147357143Y-56185715D01*
X147261905Y-56233334D01*
X146452381Y-56233334D01*
X147452381Y-57233334D02*
X147452381Y-56661905D01*
X147452381Y-56947619D02*
X146452381Y-56947619D01*
X146595238Y-56852381D01*
X146690476Y-56757143D01*
X146738095Y-56661905D01*
X146547619Y-57614286D02*
X146500000Y-57661905D01*
X146452381Y-57757143D01*
X146452381Y-57995239D01*
X146500000Y-58090477D01*
X146547619Y-58138096D01*
X146642857Y-58185715D01*
X146738095Y-58185715D01*
X146880952Y-58138096D01*
X147452381Y-57566667D01*
X147452381Y-58185715D01*
M02*
