G04 #@! TF.FileFunction,Copper,L1,Top,Signal*
%FSLAX46Y46*%
G04 Gerber Fmt 4.6, Leading zero omitted, Abs format (unit mm)*
G04 Created by KiCad (PCBNEW 4.0.1-stable) date 2017-04-05 8:05:21 AM*
%MOMM*%
G01*
G04 APERTURE LIST*
%ADD10C,0.150000*%
%ADD11R,1.000000X2.800000*%
%ADD12C,3.000000*%
%ADD13C,1.270000*%
%ADD14R,1.727200X2.032000*%
%ADD15O,1.727200X2.032000*%
%ADD16R,1.198880X1.198880*%
%ADD17O,1.600000X1.600000*%
%ADD18C,1.900000*%
%ADD19O,3.500120X1.699260*%
%ADD20O,1.699260X3.500120*%
%ADD21R,2.430000X2.370000*%
%ADD22R,4.130000X2.370000*%
%ADD23R,1.550000X0.600000*%
%ADD24R,0.400000X1.200000*%
%ADD25R,4.000500X2.400300*%
%ADD26R,1.800860X2.499360*%
%ADD27C,1.998980*%
%ADD28R,0.508000X1.143000*%
%ADD29R,1.000000X1.250000*%
%ADD30R,1.250000X1.000000*%
%ADD31R,0.700000X1.300000*%
%ADD32R,1.300000X0.700000*%
%ADD33R,1.524000X2.032000*%
%ADD34R,1.700000X0.900000*%
%ADD35R,3.200000X1.000000*%
%ADD36R,2.500000X1.000000*%
%ADD37R,2.999740X4.900000*%
%ADD38R,3.299460X2.499360*%
%ADD39R,1.727000X0.457000*%
%ADD40R,2.032000X1.727200*%
%ADD41O,2.032000X1.727200*%
%ADD42R,0.600000X0.420000*%
%ADD43R,1.143000X0.508000*%
%ADD44R,0.900000X0.800000*%
%ADD45R,0.736600X1.143000*%
%ADD46R,3.749040X2.550160*%
%ADD47C,4.064000*%
%ADD48R,1.000000X2.500000*%
%ADD49R,0.900000X1.700000*%
%ADD50R,1.700000X1.700000*%
%ADD51R,2.500000X0.900000*%
%ADD52C,0.800000*%
%ADD53C,0.254000*%
%ADD54C,0.500000*%
G04 APERTURE END LIST*
D10*
D11*
X55000000Y-74000000D03*
X57500000Y-74000000D03*
X53000000Y-74000000D03*
X50500000Y-74000000D03*
D12*
X60570000Y-77900000D03*
X47430000Y-77900000D03*
D13*
X35600000Y-63842830D03*
X35600000Y-69354630D03*
D14*
X67767000Y-102551000D03*
D15*
X70307000Y-102551000D03*
X72847000Y-102551000D03*
X75387000Y-102551000D03*
D16*
X143800000Y-55350980D03*
X143800000Y-57449020D03*
D17*
X77700000Y-55850000D03*
X77700000Y-58390000D03*
X77700000Y-60930000D03*
X77700000Y-63470000D03*
X77700000Y-66010000D03*
X77700000Y-68550000D03*
X77700000Y-71090000D03*
X70080000Y-71090000D03*
X70080000Y-68550000D03*
X70080000Y-66010000D03*
X70080000Y-63470000D03*
X70080000Y-60930000D03*
X70080000Y-58390000D03*
X70080000Y-55850000D03*
D16*
X139200000Y-55350980D03*
X139200000Y-57449020D03*
D18*
X98564000Y-57320000D03*
X101104000Y-57320000D03*
X103644000Y-57320000D03*
X93484000Y-70020000D03*
X96024000Y-70020000D03*
X98564000Y-70020000D03*
X101104000Y-70020000D03*
X103644000Y-70020000D03*
X106184000Y-70020000D03*
X108724000Y-70020000D03*
X111264000Y-70020000D03*
X113804000Y-70020000D03*
X116344000Y-70020000D03*
X118884000Y-70020000D03*
X121424000Y-70020000D03*
X123964000Y-70020000D03*
X123964000Y-54780000D03*
X121424000Y-54780000D03*
X118884000Y-54780000D03*
X116344000Y-54780000D03*
X113804000Y-54780000D03*
X111264000Y-54780000D03*
X108724000Y-54780000D03*
X106184000Y-54780000D03*
X103644000Y-54780000D03*
X101104000Y-54780000D03*
X98564000Y-54780000D03*
X96024000Y-54780000D03*
X93484000Y-54780000D03*
X90944000Y-54780000D03*
X90944000Y-70020000D03*
D19*
X76403000Y-84644000D03*
X76403000Y-87184000D03*
X76403000Y-82104000D03*
X71069000Y-95947000D03*
X71069000Y-98487000D03*
X71069000Y-93407000D03*
D20*
X124409000Y-100011000D03*
X126949000Y-100011000D03*
X121869000Y-100011000D03*
D21*
X135839000Y-82286000D03*
X135839000Y-88526000D03*
D22*
X142951000Y-82794000D03*
X142951000Y-89034000D03*
D23*
X127109000Y-95693000D03*
X127109000Y-94423000D03*
X127109000Y-93153000D03*
X127109000Y-91883000D03*
X121709000Y-91883000D03*
X121709000Y-93153000D03*
X121709000Y-94423000D03*
X121709000Y-95693000D03*
D24*
X105225000Y-88050000D03*
X104575000Y-88050000D03*
X103925000Y-88050000D03*
X103275000Y-88050000D03*
X103275000Y-92250000D03*
X103925000Y-92250000D03*
X104575000Y-92250000D03*
X105225000Y-92250000D03*
D25*
X108950500Y-98600000D03*
X100949500Y-98600000D03*
D14*
X67767000Y-79691000D03*
D15*
X70307000Y-79691000D03*
X72847000Y-79691000D03*
D26*
X67005000Y-94837020D03*
X67005000Y-98834980D03*
X82499000Y-94075020D03*
X82499000Y-98072980D03*
D27*
X72044360Y-85660000D03*
X67043100Y-85660000D03*
D28*
X76022000Y-93153000D03*
X77292000Y-93153000D03*
X78562000Y-93153000D03*
X79832000Y-93153000D03*
X79832000Y-99503000D03*
X78562000Y-99503000D03*
X77292000Y-99503000D03*
X76022000Y-99503000D03*
D29*
X76200000Y-58775000D03*
X74200000Y-58775000D03*
X136200000Y-75200000D03*
X138200000Y-75200000D03*
X142100000Y-75200000D03*
X140100000Y-75200000D03*
D30*
X76100000Y-55400000D03*
X76100000Y-57400000D03*
D29*
X73770000Y-64350000D03*
X71770000Y-64350000D03*
D30*
X75900000Y-63200000D03*
X75900000Y-61200000D03*
D29*
X70300000Y-54050000D03*
X72300000Y-54050000D03*
X73770000Y-66320000D03*
X71770000Y-66320000D03*
X71770000Y-69520000D03*
X73770000Y-69520000D03*
X70300000Y-52450000D03*
X72300000Y-52450000D03*
D31*
X79650000Y-55000000D03*
X81550000Y-55000000D03*
X71850000Y-61050000D03*
X73750000Y-61050000D03*
X73750000Y-62650000D03*
X71850000Y-62650000D03*
D32*
X74600000Y-55350000D03*
X74600000Y-57250000D03*
D31*
X137650000Y-62100000D03*
X139550000Y-62100000D03*
X142750000Y-62800000D03*
X144650000Y-62800000D03*
X73820000Y-67920000D03*
X71920000Y-67920000D03*
X76320000Y-52050000D03*
X74420000Y-52050000D03*
X71850000Y-71250000D03*
X73750000Y-71250000D03*
D32*
X77670000Y-54300000D03*
X77670000Y-52400000D03*
D33*
X144910000Y-65190000D03*
X142370000Y-65190000D03*
X139830000Y-65190000D03*
X137290000Y-65190000D03*
X137290000Y-72810000D03*
X139830000Y-72810000D03*
X142370000Y-72810000D03*
X144910000Y-72810000D03*
D30*
X132300000Y-87200000D03*
X132300000Y-89200000D03*
D29*
X80451000Y-101408000D03*
X78451000Y-101408000D03*
D30*
X119583000Y-91740000D03*
X119583000Y-89740000D03*
D29*
X132902000Y-83374000D03*
X130902000Y-83374000D03*
D32*
X139200000Y-52250000D03*
X139200000Y-54150000D03*
X143800000Y-52250000D03*
X143800000Y-54150000D03*
D31*
X130952000Y-85406000D03*
X132852000Y-85406000D03*
D32*
X109000000Y-81550000D03*
X109000000Y-83450000D03*
D31*
X108500000Y-89350000D03*
X106600000Y-89350000D03*
X106600000Y-91200000D03*
X108500000Y-91200000D03*
X100250000Y-92225000D03*
X102150000Y-92225000D03*
D32*
X101549000Y-88647000D03*
X101549000Y-90547000D03*
D31*
X76469000Y-90486000D03*
X78369000Y-90486000D03*
D34*
X113360000Y-93206000D03*
X113360000Y-90306000D03*
X109000000Y-84550000D03*
X109000000Y-87450000D03*
D35*
X116662000Y-93205000D03*
X116662000Y-87005000D03*
D36*
X80467000Y-86398000D03*
X80467000Y-83398000D03*
D37*
X132127000Y-98119000D03*
X141327000Y-98319000D03*
D38*
X117127000Y-96017940D03*
X117127000Y-102820060D03*
D39*
X125754000Y-89475000D03*
X125754000Y-88825000D03*
X125754000Y-88175000D03*
X125754000Y-87525000D03*
X123646000Y-87525000D03*
X123646000Y-88175000D03*
X123646000Y-88825000D03*
X123646000Y-89475000D03*
D40*
X67510000Y-57080000D03*
D41*
X67510000Y-59620000D03*
X67510000Y-62160000D03*
X67510000Y-64700000D03*
D40*
X80210000Y-57080000D03*
D41*
X80210000Y-59620000D03*
X80210000Y-62160000D03*
X80210000Y-64700000D03*
D42*
X128750000Y-76550000D03*
X128750000Y-75250000D03*
X126850000Y-76550000D03*
X128750000Y-75900000D03*
X126850000Y-75250000D03*
D43*
X121675000Y-72995000D03*
X121675000Y-74265000D03*
X121675000Y-75535000D03*
X121675000Y-76805000D03*
X115325000Y-76805000D03*
X115325000Y-75535000D03*
X115325000Y-74265000D03*
X115325000Y-72995000D03*
D32*
X113600000Y-72150000D03*
X113600000Y-74050000D03*
D30*
X113600000Y-75200000D03*
X113600000Y-77200000D03*
D32*
X129100000Y-77950000D03*
X129100000Y-79850000D03*
D30*
X112775000Y-96925000D03*
X112775000Y-98925000D03*
D44*
X81800000Y-53350000D03*
X81800000Y-51450000D03*
X79800000Y-52400000D03*
D45*
X133540000Y-27578600D03*
X133540000Y-29102600D03*
X132270000Y-27578600D03*
X132270000Y-29102600D03*
X131000000Y-27578600D03*
X131000000Y-29102600D03*
X129730000Y-27578600D03*
X129730000Y-29102600D03*
X128460000Y-27578600D03*
X128460000Y-29102600D03*
D13*
X136130800Y-22473200D03*
X125869200Y-22473200D03*
X136130800Y-24733800D03*
X125869200Y-24733800D03*
D32*
X128875000Y-97600000D03*
X128875000Y-95700000D03*
X112775000Y-101500000D03*
X112775000Y-103400000D03*
D30*
X103600000Y-74600000D03*
X103600000Y-76600000D03*
X106200000Y-76600000D03*
X106200000Y-74600000D03*
D29*
X102600000Y-52800000D03*
X104600000Y-52800000D03*
X102600000Y-51100000D03*
X104600000Y-51100000D03*
D30*
X122050000Y-83900000D03*
X122050000Y-81900000D03*
X127325000Y-81900000D03*
X127325000Y-83900000D03*
D46*
X142000000Y-40699980D03*
X142000000Y-46100020D03*
D30*
X139000000Y-43500000D03*
X139000000Y-41500000D03*
X137000000Y-43500000D03*
X137000000Y-41500000D03*
D32*
X103700000Y-71550000D03*
X103700000Y-73450000D03*
X106200000Y-71550000D03*
X106200000Y-73450000D03*
X123625000Y-84700000D03*
X123625000Y-86600000D03*
X125750000Y-84700000D03*
X125750000Y-86600000D03*
X123625000Y-81850000D03*
X123625000Y-83750000D03*
X125750000Y-81850000D03*
X125750000Y-83750000D03*
D31*
X79150000Y-88125000D03*
X81050000Y-88125000D03*
D47*
X144000000Y-25000000D03*
X68000000Y-109000000D03*
X144000000Y-109000000D03*
D29*
X131800000Y-44600000D03*
X129800000Y-44600000D03*
D30*
X134700000Y-41500000D03*
X134700000Y-43500000D03*
D32*
X133000000Y-43450000D03*
X133000000Y-41550000D03*
D31*
X97950000Y-52600000D03*
X96050000Y-52600000D03*
X47050000Y-61700000D03*
X48950000Y-61700000D03*
X49950000Y-61700000D03*
X51850000Y-61700000D03*
D48*
X70029000Y-89724000D03*
X67029000Y-89724000D03*
D30*
X49400000Y-58200000D03*
X49400000Y-60200000D03*
D49*
X69217000Y-82358000D03*
X66317000Y-82358000D03*
D32*
X73900000Y-98400000D03*
X73900000Y-96500000D03*
D50*
X39050000Y-83200000D03*
D51*
X72280000Y-55400000D03*
X72280000Y-58300000D03*
D52*
X122700000Y-56300000D03*
X120100000Y-56300000D03*
X120800000Y-67700000D03*
X117600000Y-56300000D03*
X118500000Y-67700000D03*
X114600000Y-67000000D03*
X130000000Y-67900000D03*
X126000000Y-67800000D03*
X116100000Y-56400000D03*
X116200000Y-67600000D03*
X113000000Y-56400000D03*
X114700000Y-56400000D03*
X36990000Y-83330000D03*
X57500000Y-74000000D03*
X133000000Y-44600000D03*
X133000000Y-45600000D03*
X133540000Y-29102600D03*
X129730000Y-27578600D03*
X131800000Y-44600000D03*
X121300000Y-48900000D03*
X126500000Y-43600000D03*
X69100000Y-100600000D03*
X68700000Y-77800000D03*
X136800000Y-48600000D03*
X139000000Y-70000000D03*
X112800000Y-50500000D03*
X84400000Y-58300000D03*
X135100000Y-49200000D03*
X137200000Y-70400000D03*
X124000000Y-43600000D03*
X83400000Y-57300000D03*
X100400000Y-74800000D03*
X80451000Y-101408000D03*
X82499000Y-98072980D03*
X108700000Y-61400000D03*
X139200000Y-57449020D03*
X143800000Y-57449020D03*
X124550000Y-75200000D03*
X128800000Y-74700000D03*
X113600000Y-77200000D03*
X102600000Y-51100000D03*
X81600000Y-60300000D03*
X81700000Y-58900000D03*
X76000000Y-60600000D03*
X99800000Y-101575000D03*
X100975000Y-101550000D03*
X105300000Y-93600000D03*
X142300000Y-67300000D03*
X102200000Y-101550000D03*
X100975000Y-95400000D03*
X99700000Y-95350000D03*
X102250000Y-95400000D03*
X121615000Y-89740000D03*
X116662000Y-85152000D03*
X118186000Y-83755000D03*
X118186000Y-85152000D03*
X116662000Y-83755000D03*
X115265000Y-83755000D03*
X115265000Y-85152000D03*
X124155000Y-93280000D03*
X139141000Y-82866000D03*
X143800000Y-52250000D03*
X128700000Y-94300000D03*
X129700000Y-50900000D03*
X68900000Y-104700000D03*
X141700000Y-91200000D03*
X144400000Y-91300000D03*
X144200000Y-99800000D03*
X144200000Y-98300000D03*
X144200000Y-96900000D03*
X142900000Y-92700000D03*
X121400000Y-63500000D03*
X109000000Y-83450000D03*
X118400000Y-82800000D03*
X130600000Y-87000000D03*
X120800000Y-88600000D03*
X86563000Y-89597000D03*
X82499000Y-89597000D03*
X129200000Y-70300000D03*
X129100000Y-63200000D03*
X139800000Y-71000000D03*
X144900000Y-71000000D03*
X97950000Y-52600000D03*
X142000000Y-40699980D03*
X139200000Y-48300000D03*
X71850000Y-61050000D03*
X81800000Y-51450000D03*
X136250000Y-77000000D03*
X125300000Y-61600000D03*
X127300000Y-88900000D03*
X129500000Y-88900000D03*
X130902000Y-83374000D03*
X130400000Y-80300000D03*
X121675000Y-72995000D03*
X113600000Y-75200000D03*
X101500000Y-52800000D03*
X115200000Y-67800000D03*
X107700000Y-67800000D03*
X107400000Y-76700000D03*
X102100000Y-92300000D03*
X112500000Y-89000000D03*
X71831000Y-89724000D03*
X77165000Y-88962000D03*
X79700000Y-55000000D03*
X135800000Y-48500000D03*
X132800000Y-31200000D03*
X131000000Y-27578600D03*
X141100000Y-76500000D03*
X72300000Y-51050000D03*
X128100000Y-68600000D03*
X139900000Y-59300000D03*
X139600000Y-60800000D03*
X137600000Y-59300000D03*
X142700000Y-60100000D03*
X133500000Y-66800000D03*
X133000000Y-78300000D03*
X111500000Y-48600000D03*
X109600000Y-51400000D03*
X132270000Y-29102600D03*
X112800000Y-48100000D03*
X110900000Y-51400000D03*
X133540000Y-27578600D03*
X98800000Y-80100000D03*
X111200000Y-79800000D03*
X98800000Y-79100000D03*
X108700000Y-79100000D03*
X104800000Y-74400000D03*
X104900000Y-80900000D03*
X118600000Y-81000000D03*
X108000000Y-80500000D03*
X108100000Y-74300000D03*
X118500000Y-80000000D03*
X86000000Y-61500000D03*
X131000000Y-48240000D03*
X122650000Y-48160000D03*
X134700000Y-78500000D03*
X130600000Y-79200000D03*
X130400000Y-77400000D03*
X129130000Y-72810000D03*
X127600000Y-74700000D03*
X124000000Y-58150000D03*
X124800000Y-77400000D03*
X118900000Y-77400000D03*
X103600000Y-73900000D03*
X106200000Y-73900000D03*
X104600000Y-52800000D03*
X123400000Y-73600000D03*
X116450000Y-74300000D03*
X124200000Y-72200000D03*
X35581660Y-73520230D03*
X33925000Y-81500000D03*
X33925000Y-85100000D03*
X42610400Y-68465630D03*
X35581660Y-59679770D03*
X47000000Y-69000000D03*
X49400000Y-58200000D03*
X133000000Y-41550000D03*
X134700000Y-41500000D03*
X47000000Y-64500000D03*
X52700000Y-66100000D03*
X53300000Y-66900000D03*
D53*
X122700000Y-56300000D02*
X122700000Y-65800000D01*
X122700000Y-65800000D02*
X120800000Y-67700000D01*
X120100000Y-56300000D02*
X120100000Y-67000000D01*
X120100000Y-67000000D02*
X120800000Y-67700000D01*
X117600000Y-56300000D02*
X117600000Y-66800000D01*
X117600000Y-66800000D02*
X118500000Y-67700000D01*
X114600000Y-67000000D02*
X114600000Y-56500000D01*
X114600000Y-56500000D02*
X114700000Y-56400000D01*
X116100000Y-56400000D02*
X116100000Y-67500000D01*
X116100000Y-67500000D02*
X116200000Y-67600000D01*
X114700000Y-56400000D02*
X114500000Y-56400000D01*
X35375000Y-85100000D02*
X35375000Y-84625000D01*
X133000000Y-43450000D02*
X133000000Y-44600000D01*
X132900000Y-44600000D02*
X133000000Y-44600000D01*
X132900000Y-44600000D02*
X131800000Y-44600000D01*
X133000000Y-45600000D02*
X133000000Y-44600000D01*
X133000000Y-43450000D02*
X134650000Y-43450000D01*
X134650000Y-43450000D02*
X134700000Y-43500000D01*
X132000000Y-44400000D02*
X131800000Y-44600000D01*
X67767000Y-102551000D02*
X67767000Y-101933000D01*
X67767000Y-101933000D02*
X69100000Y-100600000D01*
X67767000Y-79691000D02*
X67767000Y-78733000D01*
X67767000Y-78733000D02*
X68700000Y-77800000D01*
X67767000Y-102551000D02*
X67767000Y-103467000D01*
X136800000Y-48600000D02*
X136181002Y-49218998D01*
X136181002Y-49218998D02*
X136181002Y-67742184D01*
X136181002Y-67742184D02*
X138438818Y-70000000D01*
X138438818Y-70000000D02*
X139000000Y-70000000D01*
X135100000Y-49200000D02*
X135100000Y-49681002D01*
X137200000Y-69838818D02*
X137200000Y-70400000D01*
X135418998Y-68057816D02*
X137200000Y-69838818D01*
X135418998Y-50000000D02*
X135418998Y-68057816D01*
X135100000Y-49681002D02*
X135418998Y-50000000D01*
X83400000Y-57300000D02*
X83400000Y-56850000D01*
X83400000Y-56850000D02*
X81550000Y-55000000D01*
X81550000Y-55000000D02*
X81550000Y-53600000D01*
X81550000Y-53600000D02*
X81800000Y-53350000D01*
X122050000Y-81900000D02*
X122050000Y-82450000D01*
X126900000Y-82800000D02*
X127325000Y-82375000D01*
X122400000Y-82800000D02*
X126900000Y-82800000D01*
X122050000Y-82450000D02*
X122400000Y-82800000D01*
X127325000Y-82375000D02*
X127325000Y-81900000D01*
X127325000Y-81900000D02*
X127325000Y-81825000D01*
X127325000Y-81825000D02*
X124000000Y-78500000D01*
X124000000Y-78500000D02*
X124000000Y-75750000D01*
X124000000Y-75750000D02*
X124550000Y-75200000D01*
X124550000Y-75200000D02*
X124600000Y-75200000D01*
X128750000Y-75250000D02*
X128750000Y-74750000D01*
X128750000Y-74750000D02*
X128800000Y-74700000D01*
X102600000Y-52800000D02*
X102600000Y-51100000D01*
X115325000Y-76805000D02*
X113995000Y-76805000D01*
X113995000Y-76805000D02*
X113600000Y-77200000D01*
X81600000Y-59000000D02*
X81600000Y-60300000D01*
X81700000Y-58900000D02*
X81600000Y-59000000D01*
X75900000Y-61200000D02*
X75900000Y-60700000D01*
X75900000Y-60700000D02*
X76000000Y-60600000D01*
X67510000Y-59620000D02*
X67510000Y-60160000D01*
X67510000Y-60160000D02*
X70080000Y-62730000D01*
X70080000Y-62730000D02*
X70080000Y-63470000D01*
X71850000Y-62650000D02*
X71850000Y-64270000D01*
X71850000Y-64270000D02*
X71770000Y-64350000D01*
X71770000Y-64350000D02*
X70960000Y-64350000D01*
X70960000Y-64350000D02*
X70080000Y-63470000D01*
X99825000Y-101550000D02*
X99800000Y-101575000D01*
X100975000Y-101550000D02*
X99825000Y-101550000D01*
X80975000Y-101408000D02*
X82499000Y-99884000D01*
X80451000Y-101408000D02*
X80975000Y-101408000D01*
X82499000Y-99884000D02*
X82499000Y-98072980D01*
X105225000Y-92250000D02*
X105225000Y-93525000D01*
X105225000Y-93525000D02*
X105300000Y-93600000D01*
X137290000Y-65190000D02*
X137290000Y-64810000D01*
X142099000Y-65078000D02*
X142099000Y-65967000D01*
X142370000Y-65190000D02*
X142370000Y-67230000D01*
X142370000Y-67230000D02*
X142300000Y-67300000D01*
X102200000Y-101550000D02*
X100975000Y-101550000D01*
X100949500Y-101524500D02*
X100975000Y-101550000D01*
X100949500Y-101524500D02*
X100949500Y-98600000D01*
X100975000Y-95400000D02*
X99750000Y-95400000D01*
X99750000Y-95400000D02*
X99700000Y-95350000D01*
X102250000Y-95400000D02*
X100975000Y-95400000D01*
X100949500Y-95425500D02*
X100975000Y-95400000D01*
X100949500Y-95425500D02*
X100949500Y-98600000D01*
X123646000Y-88175000D02*
X125754000Y-88175000D01*
X123646000Y-88175000D02*
X122075000Y-88175000D01*
X117257000Y-87600000D02*
X116662000Y-87005000D01*
X121500000Y-87600000D02*
X117257000Y-87600000D01*
X122075000Y-88175000D02*
X121500000Y-87600000D01*
X82499000Y-98072980D02*
X83223020Y-98072980D01*
X66317000Y-82358000D02*
X66317000Y-81141000D01*
X79832000Y-99503000D02*
X79832000Y-100789000D01*
X79832000Y-100789000D02*
X80451000Y-101408000D01*
X118186000Y-85152000D02*
X116662000Y-85152000D01*
X118186000Y-85152000D02*
X118186000Y-83755000D01*
X118186000Y-83755000D02*
X116662000Y-83755000D01*
X116662000Y-83755000D02*
X115265000Y-83755000D01*
X115265000Y-85152000D02*
X116662000Y-85152000D01*
X116662000Y-87005000D02*
X116662000Y-85152000D01*
X115265000Y-83755000D02*
X115265000Y-85152000D01*
X121615000Y-89740000D02*
X119583000Y-89740000D01*
X121709000Y-93153000D02*
X124028000Y-93153000D01*
X124028000Y-93153000D02*
X124155000Y-93280000D01*
X121709000Y-93153000D02*
X121709000Y-94423000D01*
X142951000Y-82794000D02*
X139213000Y-82794000D01*
X139213000Y-82794000D02*
X139141000Y-82866000D01*
X66317000Y-81141000D02*
X67767000Y-79691000D01*
X119583000Y-91740000D02*
X121566000Y-91740000D01*
X121566000Y-91740000D02*
X121709000Y-91883000D01*
D54*
X128700000Y-92783000D02*
X132283000Y-89200000D01*
X132283000Y-89200000D02*
X135165000Y-89200000D01*
X128700000Y-94300000D02*
X128700000Y-92783000D01*
X128577000Y-94423000D02*
X128700000Y-94300000D01*
X129800000Y-44600000D02*
X129800000Y-50800000D01*
X129700000Y-50900000D02*
X129730000Y-50870000D01*
X129800000Y-50800000D02*
X129700000Y-50900000D01*
X129730000Y-29102600D02*
X129730000Y-44530000D01*
X129730000Y-44530000D02*
X129800000Y-44600000D01*
X67005000Y-98834980D02*
X67005000Y-100395000D01*
X67200000Y-104700000D02*
X68900000Y-104700000D01*
X66200000Y-103700000D02*
X67200000Y-104700000D01*
X66200000Y-101200000D02*
X66200000Y-103700000D01*
X67005000Y-100395000D02*
X66200000Y-101200000D01*
X67005000Y-98834980D02*
X67005000Y-99695000D01*
X129730000Y-29102600D02*
X128460000Y-29102600D01*
X75387000Y-102551000D02*
X77308000Y-102551000D01*
X77308000Y-102551000D02*
X78451000Y-101408000D01*
X127109000Y-94423000D02*
X128577000Y-94423000D01*
X141700000Y-91200000D02*
X141700000Y-90285000D01*
X141700000Y-90285000D02*
X142951000Y-89034000D01*
X144400000Y-91300000D02*
X144400000Y-90483000D01*
X144300000Y-91200000D02*
X144400000Y-91300000D01*
X142900000Y-91200000D02*
X144300000Y-91200000D01*
X144400000Y-90483000D02*
X142951000Y-89034000D01*
X142808000Y-99800000D02*
X144200000Y-99800000D01*
X144200000Y-99800000D02*
X144200000Y-98300000D01*
X144181000Y-98319000D02*
X144200000Y-98300000D01*
X144181000Y-98319000D02*
X141327000Y-98319000D01*
X144200000Y-96900000D02*
X144200000Y-98300000D01*
X142746000Y-96900000D02*
X144200000Y-96900000D01*
X142808000Y-99800000D02*
X141327000Y-98319000D01*
X142746000Y-96900000D02*
X141327000Y-98319000D01*
X142900000Y-91200000D02*
X142900000Y-92700000D01*
X135839000Y-88526000D02*
X135839000Y-89039000D01*
X135839000Y-89039000D02*
X135844000Y-89034000D01*
X135844000Y-89034000D02*
X142951000Y-89034000D01*
X135165000Y-89200000D02*
X135839000Y-88526000D01*
X135839000Y-88526000D02*
X135911000Y-88526000D01*
X135911000Y-88526000D02*
X136419000Y-89034000D01*
X78562000Y-99503000D02*
X78562000Y-101297000D01*
X78562000Y-101297000D02*
X78451000Y-101408000D01*
D53*
X116597060Y-103350000D02*
X117127000Y-102820060D01*
X121424000Y-54780000D02*
X121424000Y-63476000D01*
X121424000Y-63476000D02*
X121400000Y-63500000D01*
X117700000Y-82100000D02*
X117700000Y-79800000D01*
X118400000Y-82800000D02*
X117700000Y-82100000D01*
X120100000Y-72000000D02*
X119700000Y-72400000D01*
X118884000Y-66884000D02*
X118884000Y-54780000D01*
X120100000Y-68100000D02*
X118884000Y-66884000D01*
X120100000Y-68100000D02*
X120100000Y-72000000D01*
X119700000Y-77800000D02*
X119700000Y-72400000D01*
X117700000Y-79800000D02*
X119700000Y-77800000D01*
X109000000Y-84550000D02*
X109000000Y-83450000D01*
X118400000Y-82800000D02*
X118600000Y-82600000D01*
X123646000Y-88825000D02*
X121025000Y-88825000D01*
X130952000Y-86648000D02*
X130952000Y-85406000D01*
X130600000Y-87000000D02*
X130952000Y-86648000D01*
X121025000Y-88825000D02*
X120800000Y-88600000D01*
X104575000Y-88050000D02*
X104575000Y-88875000D01*
X105050000Y-89350000D02*
X106600000Y-89350000D01*
X104575000Y-88875000D02*
X105050000Y-89350000D01*
D54*
X101549000Y-90547000D02*
X105947000Y-90547000D01*
X105947000Y-90547000D02*
X106600000Y-91200000D01*
X87513000Y-90547000D02*
X101549000Y-90547000D01*
X86563000Y-89597000D02*
X87513000Y-90547000D01*
X80086000Y-79691000D02*
X82499000Y-82104000D01*
X82499000Y-82104000D02*
X82499000Y-89597000D01*
X80086000Y-79691000D02*
X72847000Y-79691000D01*
X101737000Y-90359000D02*
X101549000Y-90547000D01*
X101737000Y-90359000D02*
X101549000Y-90547000D01*
D53*
X103925000Y-88050000D02*
X103925000Y-88875000D01*
X101902000Y-89000000D02*
X101549000Y-88647000D01*
X103800000Y-89000000D02*
X101902000Y-89000000D01*
X103925000Y-88875000D02*
X103800000Y-89000000D01*
X139200000Y-54150000D02*
X139200000Y-55350980D01*
X143800000Y-54150000D02*
X143800000Y-55350980D01*
D54*
X128460000Y-27578600D02*
X127921400Y-27578600D01*
X129100000Y-60500000D02*
X129100000Y-63200000D01*
X127600000Y-59000000D02*
X129100000Y-60500000D01*
X127600000Y-27900000D02*
X127600000Y-59000000D01*
X127921400Y-27578600D02*
X127600000Y-27900000D01*
X129100000Y-63200000D02*
X129100000Y-70200000D01*
X129100000Y-70200000D02*
X129200000Y-70300000D01*
X144575500Y-72126500D02*
X144575500Y-72698000D01*
X139830000Y-71030000D02*
X139800000Y-71000000D01*
X139830000Y-72810000D02*
X139830000Y-71030000D01*
X144910000Y-71010000D02*
X144900000Y-71000000D01*
X144910000Y-71010000D02*
X144910000Y-72810000D01*
X139830000Y-72810000D02*
X139830000Y-72280000D01*
X144910000Y-72250000D02*
X144910000Y-72810000D01*
D53*
X123646000Y-89475000D02*
X125754000Y-89475000D01*
X125754000Y-89475000D02*
X125754000Y-90919000D01*
X125754000Y-90919000D02*
X124663000Y-92010000D01*
X122631000Y-90740000D02*
X115265000Y-90740000D01*
X122631000Y-90740000D02*
X123901000Y-92010000D01*
X123901000Y-92010000D02*
X124663000Y-92010000D01*
X124663000Y-92010000D02*
X125806000Y-93153000D01*
X127109000Y-93153000D02*
X125806000Y-93153000D01*
X114831000Y-90306000D02*
X113360000Y-90306000D01*
X115265000Y-90740000D02*
X114831000Y-90306000D01*
D54*
X139200000Y-52250000D02*
X139200000Y-48300000D01*
X142000000Y-40699980D02*
X141199980Y-41500000D01*
X139000000Y-41500000D02*
X141199980Y-41500000D01*
X137000000Y-41500000D02*
X139000000Y-41500000D01*
X132270000Y-27578600D02*
X132270000Y-27230000D01*
X132270000Y-27230000D02*
X133100000Y-26400000D01*
X137000000Y-29000000D02*
X137000000Y-41500000D01*
X134400000Y-26400000D02*
X137000000Y-29000000D01*
X133100000Y-26400000D02*
X134400000Y-26400000D01*
X71850000Y-60650000D02*
X71850000Y-61050000D01*
X70450000Y-59650000D02*
X70850000Y-59650000D01*
X69600000Y-59650000D02*
X70450000Y-59650000D01*
X68900000Y-58950000D02*
X69600000Y-59650000D01*
X68900000Y-58150000D02*
X68900000Y-58950000D01*
X67830000Y-57080000D02*
X68900000Y-58150000D01*
X70850000Y-59650000D02*
X71850000Y-60650000D01*
X132270000Y-27578600D02*
X132270000Y-27030000D01*
X136250000Y-77000000D02*
X136300000Y-77000000D01*
X127225000Y-88825000D02*
X127300000Y-88900000D01*
X125754000Y-88825000D02*
X127225000Y-88825000D01*
X129800000Y-84476000D02*
X130902000Y-83374000D01*
X129800000Y-88600000D02*
X129800000Y-84476000D01*
X129500000Y-88900000D02*
X129800000Y-88600000D01*
X129100000Y-79850000D02*
X129950000Y-79850000D01*
X129950000Y-79850000D02*
X130400000Y-80300000D01*
X121675000Y-74265000D02*
X121675000Y-72995000D01*
X113600000Y-75200000D02*
X114990000Y-75200000D01*
X114990000Y-75200000D02*
X115325000Y-75535000D01*
X113600000Y-74050000D02*
X113600000Y-75200000D01*
X129100000Y-79850000D02*
X128550000Y-79850000D01*
X128550000Y-79850000D02*
X126850000Y-78150000D01*
X126850000Y-78150000D02*
X126850000Y-76550000D01*
X130902000Y-83374000D02*
X131126000Y-83374000D01*
X67510000Y-57080000D02*
X67830000Y-57080000D01*
D53*
X107400000Y-68100000D02*
X107400000Y-76700000D01*
D54*
X107700000Y-67800000D02*
X107400000Y-68100000D01*
X115100000Y-67700000D02*
X115200000Y-67800000D01*
D53*
X113804000Y-54780000D02*
X113804000Y-67696000D01*
X115357000Y-91900000D02*
X116662000Y-93205000D01*
X112800000Y-91900000D02*
X115357000Y-91900000D01*
X111800000Y-90900000D02*
X112800000Y-91900000D01*
X111800000Y-88200000D02*
X111800000Y-90900000D01*
X112500000Y-87500000D02*
X111800000Y-88200000D01*
X112500000Y-69000000D02*
X112500000Y-87500000D01*
X113804000Y-67696000D02*
X112500000Y-69000000D01*
X116662000Y-93205000D02*
X116205000Y-93205000D01*
X116662000Y-93205000D02*
X115805000Y-93205000D01*
X116662000Y-93205000D02*
X115825000Y-93205000D01*
X121107000Y-95693000D02*
X121709000Y-95693000D01*
X116344000Y-54780000D02*
X116344000Y-55244000D01*
X116344000Y-55244000D02*
X116800000Y-55700000D01*
X116800000Y-55700000D02*
X116800000Y-67100000D01*
X116800000Y-67100000D02*
X117600000Y-67900000D01*
X102100000Y-92300000D02*
X102150000Y-92250000D01*
X112900000Y-88600000D02*
X112500000Y-89000000D01*
X112900000Y-81100000D02*
X112900000Y-88600000D01*
X117600000Y-76400000D02*
X112900000Y-81100000D01*
X117600000Y-67900000D02*
X117600000Y-76400000D01*
X102150000Y-92250000D02*
X102150000Y-92225000D01*
X102150000Y-92225000D02*
X102150000Y-92150000D01*
X102150000Y-92150000D02*
X103100000Y-91200000D01*
X103100000Y-91200000D02*
X103700000Y-91200000D01*
X103700000Y-91200000D02*
X103925000Y-91425000D01*
X103925000Y-91425000D02*
X103925000Y-92250000D01*
X70029000Y-89724000D02*
X71831000Y-89724000D01*
X78562000Y-93153000D02*
X78562000Y-93661000D01*
X78562000Y-93661000D02*
X79197000Y-94296000D01*
X79197000Y-94296000D02*
X82278020Y-94296000D01*
X82278020Y-94296000D02*
X82499000Y-94075020D01*
X77165000Y-88962000D02*
X78369000Y-90166000D01*
X78369000Y-90166000D02*
X78369000Y-90486000D01*
X78562000Y-93153000D02*
X78562000Y-90679000D01*
X78562000Y-90679000D02*
X78369000Y-90486000D01*
X67005000Y-89748000D02*
X67029000Y-89724000D01*
X67005000Y-94837020D02*
X68495980Y-94837020D01*
X74498000Y-94677000D02*
X76022000Y-93153000D01*
X68656000Y-94677000D02*
X74498000Y-94677000D01*
X68495980Y-94837020D02*
X68656000Y-94677000D01*
X67800020Y-94042000D02*
X67005000Y-94837020D01*
X67005000Y-94837020D02*
X67005000Y-89748000D01*
X71069000Y-93407000D02*
X71069000Y-92772000D01*
X71069000Y-92772000D02*
X73609000Y-90232000D01*
X73609000Y-90232000D02*
X73609000Y-86168000D01*
X73609000Y-86168000D02*
X75006000Y-84771000D01*
X75006000Y-84771000D02*
X76403000Y-84771000D01*
X80467000Y-86398000D02*
X80062000Y-86398000D01*
X80062000Y-86398000D02*
X78435000Y-84771000D01*
X78435000Y-84771000D02*
X76403000Y-84771000D01*
X73609000Y-90232000D02*
X76215000Y-90232000D01*
X76215000Y-90232000D02*
X76469000Y-90486000D01*
X74601000Y-83398000D02*
X80467000Y-83398000D01*
X69217000Y-82358000D02*
X69217000Y-82832640D01*
X69217000Y-82832640D02*
X72044360Y-85660000D01*
X72044360Y-85660000D02*
X72339000Y-85660000D01*
X72339000Y-85660000D02*
X74601000Y-83398000D01*
X72044360Y-85660000D02*
X72019000Y-85660000D01*
X71069000Y-98487000D02*
X73813000Y-98487000D01*
X73813000Y-98487000D02*
X73900000Y-98400000D01*
X76403000Y-87184000D02*
X78209000Y-87184000D01*
X77546000Y-87311000D02*
X76403000Y-87311000D01*
X78209000Y-87184000D02*
X79150000Y-88125000D01*
X79700000Y-55000000D02*
X79650000Y-55000000D01*
X79800000Y-52400000D02*
X79800000Y-54850000D01*
X79800000Y-54850000D02*
X79650000Y-55000000D01*
X74600000Y-57250000D02*
X75950000Y-57250000D01*
X75950000Y-57250000D02*
X76100000Y-57400000D01*
X76050000Y-57450000D02*
X76100000Y-57400000D01*
X76200000Y-58800000D02*
X76200000Y-57500000D01*
X76200000Y-57500000D02*
X76100000Y-57400000D01*
X76200000Y-58800000D02*
X77290000Y-58800000D01*
X77290000Y-58800000D02*
X77700000Y-58390000D01*
X75970000Y-58620000D02*
X76100000Y-58750000D01*
X75920000Y-57370000D02*
X75970000Y-57420000D01*
X76070000Y-57520000D02*
X75970000Y-57420000D01*
X75920000Y-57370000D02*
X75970000Y-57420000D01*
X73800000Y-56500000D02*
X73380000Y-56500000D01*
X80210000Y-59620000D02*
X78900000Y-58310000D01*
X78900000Y-57900000D02*
X78900000Y-58310000D01*
X78200000Y-57200000D02*
X78900000Y-57900000D01*
X77500000Y-57200000D02*
X78200000Y-57200000D01*
X76800000Y-56500000D02*
X77500000Y-57200000D01*
X73800000Y-56500000D02*
X76800000Y-56500000D01*
X73380000Y-56500000D02*
X72280000Y-55400000D01*
X135800000Y-49000000D02*
X135800000Y-67900000D01*
X135800000Y-67900000D02*
X138600000Y-70700000D01*
X138600000Y-70700000D02*
X138600000Y-74800000D01*
X132800000Y-31200000D02*
X135800000Y-34200000D01*
X135800000Y-34200000D02*
X135800000Y-48500000D01*
X135800000Y-48500000D02*
X135800000Y-49000000D01*
X140100000Y-75200000D02*
X140700000Y-75200000D01*
X141100000Y-75600000D02*
X141100000Y-76500000D01*
X140700000Y-75200000D02*
X141100000Y-75600000D01*
X138600000Y-74800000D02*
X138200000Y-75200000D01*
X138200000Y-75200000D02*
X138200000Y-75700000D01*
X138200000Y-75200000D02*
X140100000Y-75200000D01*
X136146000Y-75111000D02*
X136146000Y-73571000D01*
X136146000Y-73571000D02*
X137019000Y-72698000D01*
X142099000Y-72952000D02*
X142099000Y-72698000D01*
X142370000Y-72810000D02*
X142370000Y-74930000D01*
X142370000Y-74930000D02*
X142100000Y-75200000D01*
X71970000Y-53820000D02*
X74550000Y-53820000D01*
X74550000Y-53820000D02*
X76320000Y-52050000D01*
X76320000Y-52050000D02*
X77320000Y-52050000D01*
X77320000Y-52050000D02*
X77670000Y-52400000D01*
X71920000Y-53770000D02*
X71970000Y-53820000D01*
X70300000Y-52450000D02*
X69600000Y-52450000D01*
X66000000Y-60950000D02*
X66000000Y-56050000D01*
X66000000Y-60950000D02*
X67210000Y-62160000D01*
X69600000Y-52450000D02*
X66000000Y-56050000D01*
X77700000Y-61650000D02*
X79500000Y-63450000D01*
X67510000Y-62160000D02*
X67210000Y-62160000D01*
X70100000Y-52650000D02*
X70300000Y-52450000D01*
X67510000Y-62160000D02*
X67410000Y-62160000D01*
X73770000Y-66320000D02*
X73770000Y-66020000D01*
X73770000Y-66020000D02*
X73100000Y-65350000D01*
X69600000Y-64650000D02*
X67510000Y-62560000D01*
X70400000Y-64650000D02*
X69600000Y-64650000D01*
X71100000Y-65350000D02*
X70400000Y-64650000D01*
X73100000Y-65350000D02*
X71100000Y-65350000D01*
X67510000Y-62560000D02*
X67510000Y-62160000D01*
X77700000Y-60930000D02*
X77700000Y-61650000D01*
X79500000Y-63450000D02*
X80900000Y-63450000D01*
X80900000Y-63450000D02*
X81500000Y-64050000D01*
X81500000Y-64050000D02*
X81500000Y-67050000D01*
X81500000Y-67050000D02*
X80800000Y-67750000D01*
X80800000Y-67750000D02*
X78500000Y-67750000D01*
X78500000Y-67750000D02*
X77700000Y-68550000D01*
X77700000Y-68550000D02*
X77700000Y-71090000D01*
X73770000Y-66320000D02*
X75470000Y-66320000D01*
X75470000Y-66320000D02*
X77700000Y-68550000D01*
X71770000Y-65920000D02*
X70170000Y-65920000D01*
X70170000Y-65920000D02*
X70080000Y-66010000D01*
X71920000Y-67520000D02*
X71920000Y-66070000D01*
X71920000Y-66070000D02*
X71770000Y-65920000D01*
X70080000Y-71090000D02*
X70080000Y-68550000D01*
X70650000Y-69120000D02*
X70080000Y-68550000D01*
X71770000Y-69120000D02*
X70650000Y-69120000D01*
X73770000Y-69520000D02*
X73770000Y-67970000D01*
X73770000Y-67970000D02*
X73820000Y-67920000D01*
X73770000Y-69520000D02*
X73770000Y-71230000D01*
X73770000Y-71230000D02*
X73750000Y-71250000D01*
X72300000Y-52450000D02*
X72300000Y-51050000D01*
X72300000Y-52450000D02*
X74020000Y-52450000D01*
X74020000Y-52450000D02*
X74420000Y-52050000D01*
X74220000Y-52250000D02*
X74420000Y-52050000D01*
X128100000Y-68600000D02*
X128300000Y-68800000D01*
X128300000Y-68800000D02*
X128300000Y-73000000D01*
X128300000Y-73000000D02*
X129600000Y-74300000D01*
X129600000Y-74300000D02*
X129600000Y-75700000D01*
X129600000Y-75700000D02*
X129400000Y-75900000D01*
X129400000Y-75900000D02*
X128750000Y-75900000D01*
X139900000Y-60500000D02*
X139900000Y-59300000D01*
X139600000Y-60800000D02*
X139900000Y-60500000D01*
X137600000Y-59300000D02*
X137650000Y-59350000D01*
X137650000Y-59350000D02*
X137650000Y-62100000D01*
X139830000Y-65190000D02*
X139830000Y-62380000D01*
X139830000Y-62380000D02*
X139550000Y-62100000D01*
X142750000Y-62800000D02*
X142750000Y-60150000D01*
X142750000Y-60150000D02*
X142700000Y-60100000D01*
X144910000Y-65190000D02*
X144910000Y-63060000D01*
X144910000Y-63060000D02*
X144650000Y-62800000D01*
X73770000Y-64350000D02*
X76040000Y-64350000D01*
X76040000Y-64350000D02*
X77700000Y-66010000D01*
X73750000Y-62650000D02*
X73770000Y-62670000D01*
X73770000Y-62670000D02*
X73770000Y-64350000D01*
X73750000Y-61050000D02*
X73750000Y-62650000D01*
D54*
X133500000Y-77800000D02*
X133500000Y-66800000D01*
X133000000Y-78300000D02*
X133500000Y-77800000D01*
D53*
X109600000Y-51400000D02*
X111500000Y-49500000D01*
X111500000Y-48600000D02*
X111500000Y-49500000D01*
X112300000Y-48600000D02*
X112800000Y-48100000D01*
X112300000Y-50000000D02*
X110900000Y-51400000D01*
X112300000Y-50000000D02*
X112300000Y-48600000D01*
X111200000Y-79800000D02*
X111200000Y-70084000D01*
X111200000Y-70084000D02*
X111264000Y-70020000D01*
X85039000Y-83961000D02*
X85039000Y-83561000D01*
X85039000Y-86400000D02*
X85039000Y-83961000D01*
X88500000Y-80100000D02*
X98800000Y-80100000D01*
X85039000Y-83561000D02*
X88500000Y-80100000D01*
X111300000Y-79700000D02*
X111264000Y-79700000D01*
X111264000Y-79736000D02*
X111300000Y-79700000D01*
X111200000Y-79800000D02*
X111264000Y-79736000D01*
X85039000Y-86400000D02*
X85039000Y-86311000D01*
X81727000Y-104456000D02*
X85039000Y-101144000D01*
X72212000Y-104456000D02*
X81727000Y-104456000D01*
X70307000Y-102551000D02*
X72212000Y-104456000D01*
X85039000Y-101144000D02*
X85039000Y-86400000D01*
X70307000Y-102551000D02*
X70649000Y-102551000D01*
X70649000Y-102551000D02*
X73600000Y-99600000D01*
X76589000Y-98800000D02*
X77292000Y-99503000D01*
X76289000Y-98500000D02*
X76589000Y-98800000D01*
X75400000Y-98500000D02*
X76289000Y-98500000D01*
X74300000Y-99600000D02*
X75400000Y-98500000D01*
X73600000Y-99600000D02*
X74300000Y-99600000D01*
X108700000Y-79100000D02*
X108700000Y-76800000D01*
X108800000Y-76700000D02*
X108800000Y-70596000D01*
X108700000Y-76800000D02*
X108800000Y-76700000D01*
X109100000Y-70396000D02*
X108724000Y-70020000D01*
X84648000Y-83352000D02*
X88900000Y-79100000D01*
X88900000Y-79100000D02*
X98800000Y-79100000D01*
X84648000Y-100748000D02*
X81452000Y-103944000D01*
X84648000Y-83652000D02*
X84648000Y-85252000D01*
X84648000Y-85252000D02*
X84648000Y-100748000D01*
X81452000Y-103944000D02*
X74113000Y-103944000D01*
X72847000Y-102678000D02*
X74113000Y-103944000D01*
X84648000Y-83652000D02*
X84648000Y-83352000D01*
X108700000Y-79100000D02*
X108724000Y-79076000D01*
X76022000Y-99503000D02*
X75895000Y-99503000D01*
X75895000Y-99503000D02*
X72847000Y-102551000D01*
X72847000Y-102551000D02*
X72847000Y-102678000D01*
X104900000Y-80900000D02*
X104900000Y-74500000D01*
X104900000Y-74500000D02*
X104800000Y-74400000D01*
X123625000Y-81225000D02*
X123625000Y-81850000D01*
X123200000Y-80800000D02*
X123625000Y-81225000D01*
X118800000Y-80800000D02*
X123200000Y-80800000D01*
X118600000Y-81000000D02*
X118800000Y-80800000D01*
X108100000Y-78400000D02*
X108000000Y-78500000D01*
X108000000Y-78500000D02*
X108000000Y-80500000D01*
X108100000Y-74300000D02*
X108100000Y-78400000D01*
X125750000Y-81950000D02*
X125750000Y-81850000D01*
X123800000Y-80000000D02*
X125750000Y-81950000D01*
X118500000Y-80000000D02*
X123800000Y-80000000D01*
X80210000Y-57080000D02*
X81580000Y-57080000D01*
X81580000Y-57080000D02*
X86000000Y-61500000D01*
X74600000Y-55150000D02*
X76050000Y-55150000D01*
X76050000Y-55350000D02*
X76100000Y-55400000D01*
X75950000Y-55550000D02*
X76100000Y-55400000D01*
X77700000Y-55850000D02*
X78980000Y-55850000D01*
X78980000Y-55850000D02*
X80210000Y-57080000D01*
X75920000Y-55470000D02*
X75970000Y-55420000D01*
X75970000Y-55420000D02*
X77270000Y-55420000D01*
X77270000Y-55420000D02*
X77700000Y-55850000D01*
X77670000Y-54300000D02*
X77670000Y-55810000D01*
X77660000Y-55820000D02*
X77670000Y-55810000D01*
X71918998Y-59668998D02*
X71581764Y-59668998D01*
X75018998Y-59668998D02*
X75100000Y-59750000D01*
X75100000Y-59750000D02*
X78100000Y-59750000D01*
X71918998Y-59668998D02*
X75018998Y-59668998D01*
X80210000Y-61860000D02*
X78100000Y-59750000D01*
X70515998Y-59145998D02*
X70080000Y-58710000D01*
X71058764Y-59145998D02*
X70515998Y-59145998D01*
X71581764Y-59668998D02*
X71058764Y-59145998D01*
X70080000Y-58710000D02*
X70080000Y-58390000D01*
X70300000Y-54050000D02*
X70300000Y-55630000D01*
X70300000Y-55630000D02*
X70080000Y-55850000D01*
X71850000Y-71250000D02*
X72000000Y-71250000D01*
X72000000Y-71250000D02*
X73100000Y-72350000D01*
X73100000Y-72350000D02*
X78100000Y-72350000D01*
X78100000Y-72350000D02*
X82000000Y-68450000D01*
X82000000Y-68450000D02*
X82000000Y-63950000D01*
X82000000Y-63950000D02*
X80210000Y-62160000D01*
X80210000Y-61860000D02*
X80210000Y-62160000D01*
X70080000Y-58390000D02*
X70080000Y-55850000D01*
X69950000Y-53800000D02*
X69970000Y-53820000D01*
X69970000Y-55730000D02*
X70050000Y-55810000D01*
X101104000Y-54780000D02*
X101104000Y-53694000D01*
X120530000Y-48160000D02*
X122650000Y-48160000D01*
X120450000Y-48080000D02*
X120530000Y-48160000D01*
X113780000Y-48080000D02*
X120450000Y-48080000D01*
X113100000Y-47400000D02*
X113780000Y-48080000D01*
X112520000Y-47400000D02*
X113100000Y-47400000D01*
X112110000Y-47810000D02*
X112520000Y-47400000D01*
X103380000Y-47810000D02*
X112110000Y-47810000D01*
X100670000Y-50520000D02*
X103380000Y-47810000D01*
X100670000Y-53260000D02*
X100670000Y-50520000D01*
X101104000Y-53694000D02*
X100670000Y-53260000D01*
X131000000Y-43200000D02*
X131000000Y-48240000D01*
X131000000Y-48240000D02*
X131000000Y-51900000D01*
X131000000Y-51900000D02*
X131000000Y-51800000D01*
X131000000Y-51800000D02*
X131000000Y-51900000D01*
X131000000Y-29102600D02*
X131000000Y-43200000D01*
X134700000Y-55600000D02*
X134700000Y-78500000D01*
X130600000Y-79200000D02*
X129350000Y-77950000D01*
X131000000Y-51900000D02*
X134700000Y-55600000D01*
X129350000Y-77950000D02*
X129100000Y-77950000D01*
X129100000Y-78100000D02*
X129100000Y-77950000D01*
X129100000Y-77950000D02*
X129100000Y-76900000D01*
X129100000Y-76900000D02*
X128750000Y-76550000D01*
X129130000Y-72810000D02*
X129130000Y-73030000D01*
X130400000Y-74300000D02*
X130400000Y-77400000D01*
X129130000Y-73030000D02*
X130400000Y-74300000D01*
X129120000Y-72800000D02*
X129100000Y-72800000D01*
X129130000Y-72810000D02*
X129120000Y-72800000D01*
X127600000Y-74700000D02*
X127050000Y-75250000D01*
X127050000Y-75250000D02*
X126850000Y-75250000D01*
X126850000Y-75250000D02*
X126950000Y-75250000D01*
X123964000Y-67336000D02*
X122700000Y-68600000D01*
X122700000Y-74900000D02*
X122700000Y-68600000D01*
X122065000Y-75535000D02*
X122700000Y-74900000D01*
X123964000Y-58186000D02*
X123964000Y-67336000D01*
X123964000Y-58186000D02*
X124000000Y-58150000D01*
X121675000Y-75535000D02*
X122065000Y-75535000D01*
X113600000Y-72150000D02*
X114480000Y-72150000D01*
X114480000Y-72150000D02*
X115325000Y-72995000D01*
X115325000Y-72995000D02*
X115325000Y-71039000D01*
X115325000Y-71039000D02*
X116344000Y-70020000D01*
X128400000Y-81100000D02*
X128400000Y-81000000D01*
X128400000Y-90592000D02*
X128400000Y-83000000D01*
X127109000Y-91883000D02*
X128400000Y-90592000D01*
X128400000Y-83000000D02*
X128400000Y-81100000D01*
X128400000Y-81000000D02*
X124800000Y-77400000D01*
X118884000Y-76184000D02*
X118884000Y-70020000D01*
X118884000Y-77384000D02*
X118884000Y-76184000D01*
X118900000Y-77400000D02*
X118884000Y-77384000D01*
X118900000Y-70004000D02*
X118884000Y-70020000D01*
X105225000Y-88050000D02*
X106250000Y-88050000D01*
X106850000Y-87450000D02*
X109000000Y-87450000D01*
X106250000Y-88050000D02*
X106850000Y-87450000D01*
X108500000Y-89350000D02*
X108500000Y-91200000D01*
X109000000Y-87450000D02*
X109000000Y-88850000D01*
X109000000Y-88850000D02*
X108500000Y-89350000D01*
X112775000Y-96925000D02*
X111400500Y-96925000D01*
X111400500Y-96925000D02*
X109725500Y-98600000D01*
X117127000Y-96017940D02*
X113682060Y-96017940D01*
X113682060Y-96017940D02*
X112775000Y-96925000D01*
X74200000Y-58775000D02*
X72755000Y-58775000D01*
X72755000Y-58775000D02*
X72280000Y-58300000D01*
X112775000Y-98925000D02*
X112775000Y-101500000D01*
X81050000Y-88125000D02*
X81050000Y-91935000D01*
X81050000Y-91935000D02*
X79832000Y-93153000D01*
X77292000Y-93153000D02*
X77292000Y-94408000D01*
X75200000Y-96500000D02*
X73900000Y-96500000D01*
X77292000Y-94408000D02*
X75200000Y-96500000D01*
X127109000Y-95693000D02*
X128868000Y-95693000D01*
X128868000Y-95693000D02*
X128875000Y-95700000D01*
X103600000Y-74600000D02*
X103600000Y-73900000D01*
X103600000Y-73900000D02*
X103600000Y-73550000D01*
X103600000Y-73550000D02*
X103700000Y-73450000D01*
X106200000Y-73450000D02*
X106200000Y-73900000D01*
X106200000Y-73900000D02*
X106200000Y-74600000D01*
X106175000Y-74575000D02*
X106200000Y-74600000D01*
X104600000Y-51100000D02*
X104600000Y-52800000D01*
X123625000Y-83750000D02*
X123625000Y-84700000D01*
X122050000Y-83900000D02*
X123475000Y-83900000D01*
X123475000Y-83900000D02*
X123625000Y-83750000D01*
X127325000Y-83900000D02*
X125900000Y-83900000D01*
X125900000Y-83900000D02*
X125750000Y-83750000D01*
X125750000Y-83750000D02*
X125750000Y-84700000D01*
X103644000Y-70020000D02*
X103644000Y-71569000D01*
X103644000Y-71569000D02*
X103650000Y-71575000D01*
X106184000Y-70020000D02*
X106184000Y-71591000D01*
X106184000Y-71591000D02*
X106175000Y-71600000D01*
X123625000Y-86600000D02*
X123625000Y-87504000D01*
X123625000Y-87504000D02*
X123646000Y-87525000D01*
X125750000Y-86600000D02*
X125750000Y-87521000D01*
X125750000Y-87521000D02*
X125754000Y-87525000D01*
X123964000Y-71336000D02*
X123964000Y-70020000D01*
X123400000Y-71900000D02*
X123964000Y-71336000D01*
X123400000Y-73600000D02*
X123400000Y-71900000D01*
X116415000Y-74265000D02*
X116450000Y-74300000D01*
X116415000Y-74265000D02*
X115325000Y-74265000D01*
X124200000Y-72200000D02*
X124200000Y-73900000D01*
X124200000Y-73900000D02*
X123500000Y-74600000D01*
X123500000Y-74600000D02*
X123500000Y-74980000D01*
X123500000Y-74980000D02*
X121675000Y-76805000D01*
X121675000Y-76805000D02*
X121895000Y-76805000D01*
X35600000Y-73501890D02*
X35581660Y-73520230D01*
X35600000Y-73500000D02*
X35600000Y-73501890D01*
X42600000Y-68500000D02*
X42600000Y-68476030D01*
X42600000Y-68476030D02*
X42610400Y-68465630D01*
X35600000Y-59700000D02*
X35600000Y-59698110D01*
X35600000Y-59698110D02*
X35581660Y-59679770D01*
X134650000Y-41550000D02*
X133000000Y-41550000D01*
X134650000Y-41550000D02*
X134700000Y-41500000D01*
X96024000Y-54780000D02*
X96024000Y-52626000D01*
X96024000Y-52626000D02*
X96050000Y-52600000D01*
X47050000Y-61300000D02*
X47050000Y-64450000D01*
X47050000Y-64450000D02*
X47000000Y-64500000D01*
X50500000Y-74000000D02*
X50500000Y-75400000D01*
X50500000Y-75400000D02*
X51700000Y-76600000D01*
X51700000Y-76600000D02*
X55500000Y-76600000D01*
X55500000Y-76600000D02*
X56200000Y-75900000D01*
X56200000Y-75900000D02*
X56200000Y-66050000D01*
X56200000Y-66050000D02*
X51850000Y-61700000D01*
X52500000Y-66600000D02*
X52500000Y-67800000D01*
X53100000Y-73900000D02*
X53100000Y-72400000D01*
X52700000Y-66400000D02*
X52500000Y-66600000D01*
X52700000Y-66100000D02*
X52700000Y-66400000D01*
X53800000Y-69100000D02*
X53800000Y-71700000D01*
X52500000Y-67800000D02*
X53800000Y-69100000D01*
X53800000Y-71700000D02*
X53100000Y-72400000D01*
X53100000Y-73900000D02*
X53000000Y-74000000D01*
X54600000Y-66900000D02*
X54800000Y-66900000D01*
X53300000Y-66900000D02*
X54600000Y-66900000D01*
X54000000Y-68600000D02*
X54400000Y-69000000D01*
X54000000Y-68100000D02*
X54000000Y-68600000D01*
X54300000Y-67800000D02*
X54000000Y-68100000D01*
X54800000Y-67800000D02*
X54300000Y-67800000D01*
X55100000Y-67500000D02*
X54800000Y-67800000D01*
X55100000Y-67200000D02*
X55100000Y-67500000D01*
X54800000Y-66900000D02*
X55100000Y-67200000D01*
X55000000Y-72400000D02*
X55000000Y-74000000D01*
X54400000Y-69000000D02*
X54400000Y-71800000D01*
X54400000Y-71800000D02*
X55000000Y-72400000D01*
X53300000Y-66900000D02*
X53500000Y-66900000D01*
X49400000Y-61700000D02*
X49400000Y-60200000D01*
X48950000Y-61700000D02*
X49400000Y-61700000D01*
X49400000Y-61700000D02*
X49950000Y-61700000D01*
G36*
X111723000Y-87199369D02*
X111261185Y-87661185D01*
X111096004Y-87908395D01*
X111038000Y-88200000D01*
X111038000Y-90900000D01*
X111096004Y-91191605D01*
X111209314Y-91361185D01*
X111261185Y-91438815D01*
X111723000Y-91900631D01*
X111723000Y-92200000D01*
X111733006Y-92249410D01*
X111761447Y-92291035D01*
X111803841Y-92318315D01*
X111850000Y-92327000D01*
X112040975Y-92327000D01*
X111971673Y-92396302D01*
X111875000Y-92629691D01*
X111875000Y-92920250D01*
X112033750Y-93079000D01*
X113233000Y-93079000D01*
X113233000Y-93059000D01*
X113487000Y-93059000D01*
X113487000Y-93079000D01*
X113507000Y-93079000D01*
X113507000Y-93333000D01*
X113487000Y-93333000D01*
X113487000Y-94132250D01*
X113645750Y-94291000D01*
X114223000Y-94291000D01*
X114223000Y-94500000D01*
X114233006Y-94549410D01*
X114261447Y-94591035D01*
X114303841Y-94618315D01*
X114349828Y-94627000D01*
X114848184Y-94627673D01*
X114842270Y-94641950D01*
X114842270Y-95732190D01*
X115001020Y-95890940D01*
X117000000Y-95890940D01*
X117000000Y-95870940D01*
X117254000Y-95870940D01*
X117254000Y-95890940D01*
X117274000Y-95890940D01*
X117274000Y-96144940D01*
X117254000Y-96144940D01*
X117254000Y-96164940D01*
X117000000Y-96164940D01*
X117000000Y-96144940D01*
X115001020Y-96144940D01*
X114842270Y-96303690D01*
X114842270Y-97393930D01*
X114854311Y-97423000D01*
X114035000Y-97423000D01*
X114035000Y-97210750D01*
X113876250Y-97052000D01*
X112902000Y-97052000D01*
X112902000Y-97072000D01*
X112648000Y-97072000D01*
X112648000Y-97052000D01*
X111673750Y-97052000D01*
X111546637Y-97179113D01*
X111489077Y-97040151D01*
X111310448Y-96861523D01*
X111077059Y-96764850D01*
X109236250Y-96764850D01*
X109077500Y-96923600D01*
X109077500Y-98473000D01*
X109097500Y-98473000D01*
X109097500Y-98727000D01*
X109077500Y-98727000D01*
X109077500Y-100276400D01*
X109236250Y-100435150D01*
X111077059Y-100435150D01*
X111310448Y-100338477D01*
X111489077Y-100159849D01*
X111585750Y-99926460D01*
X111585750Y-99720788D01*
X111685910Y-99876441D01*
X111873000Y-100004274D01*
X111873000Y-100473000D01*
X111400000Y-100473000D01*
X111350590Y-100483006D01*
X111308965Y-100511447D01*
X111281685Y-100553841D01*
X111273000Y-100600000D01*
X111273000Y-105897089D01*
X108027000Y-105873904D01*
X108027000Y-100435150D01*
X108664750Y-100435150D01*
X108823500Y-100276400D01*
X108823500Y-98727000D01*
X108803500Y-98727000D01*
X108803500Y-98473000D01*
X108823500Y-98473000D01*
X108823500Y-96923600D01*
X108664750Y-96764850D01*
X108027000Y-96764850D01*
X108027000Y-96298691D01*
X111515000Y-96298691D01*
X111515000Y-96639250D01*
X111673750Y-96798000D01*
X112648000Y-96798000D01*
X112648000Y-95948750D01*
X112902000Y-95948750D01*
X112902000Y-96798000D01*
X113876250Y-96798000D01*
X114035000Y-96639250D01*
X114035000Y-96298691D01*
X113938327Y-96065302D01*
X113759699Y-95886673D01*
X113526310Y-95790000D01*
X113060750Y-95790000D01*
X112902000Y-95948750D01*
X112648000Y-95948750D01*
X112489250Y-95790000D01*
X112023690Y-95790000D01*
X111790301Y-95886673D01*
X111611673Y-96065302D01*
X111515000Y-96298691D01*
X108027000Y-96298691D01*
X108027000Y-93491750D01*
X111875000Y-93491750D01*
X111875000Y-93782309D01*
X111971673Y-94015698D01*
X112150301Y-94194327D01*
X112383690Y-94291000D01*
X113074250Y-94291000D01*
X113233000Y-94132250D01*
X113233000Y-93333000D01*
X112033750Y-93333000D01*
X111875000Y-93491750D01*
X108027000Y-93491750D01*
X108027000Y-92485000D01*
X108214250Y-92485000D01*
X108373000Y-92326250D01*
X108373000Y-91327000D01*
X108627000Y-91327000D01*
X108627000Y-92326250D01*
X108785750Y-92485000D01*
X108976309Y-92485000D01*
X109209698Y-92388327D01*
X109388327Y-92209699D01*
X109485000Y-91976310D01*
X109485000Y-91485750D01*
X109326250Y-91327000D01*
X108627000Y-91327000D01*
X108373000Y-91327000D01*
X108353000Y-91327000D01*
X108353000Y-91073000D01*
X108373000Y-91073000D01*
X108373000Y-89477000D01*
X108627000Y-89477000D01*
X108627000Y-91073000D01*
X109326250Y-91073000D01*
X109485000Y-90914250D01*
X109485000Y-90423690D01*
X109423411Y-90275000D01*
X109485000Y-90126310D01*
X109485000Y-89635750D01*
X109326250Y-89477000D01*
X108627000Y-89477000D01*
X108373000Y-89477000D01*
X108353000Y-89477000D01*
X108353000Y-89223000D01*
X108373000Y-89223000D01*
X108373000Y-89203000D01*
X108627000Y-89203000D01*
X108627000Y-89223000D01*
X109326250Y-89223000D01*
X109485000Y-89064250D01*
X109485000Y-88573690D01*
X109468974Y-88535000D01*
X109976310Y-88535000D01*
X110209699Y-88438327D01*
X110388327Y-88259698D01*
X110485000Y-88026309D01*
X110485000Y-87735750D01*
X110326250Y-87577000D01*
X109127000Y-87577000D01*
X109127000Y-87597000D01*
X108873000Y-87597000D01*
X108873000Y-87577000D01*
X108853000Y-87577000D01*
X108853000Y-87323000D01*
X108873000Y-87323000D01*
X108873000Y-87303000D01*
X109127000Y-87303000D01*
X109127000Y-87323000D01*
X110326250Y-87323000D01*
X110485000Y-87164250D01*
X110485000Y-86977000D01*
X111723000Y-86977000D01*
X111723000Y-87199369D01*
X111723000Y-87199369D01*
G37*
X111723000Y-87199369D02*
X111261185Y-87661185D01*
X111096004Y-87908395D01*
X111038000Y-88200000D01*
X111038000Y-90900000D01*
X111096004Y-91191605D01*
X111209314Y-91361185D01*
X111261185Y-91438815D01*
X111723000Y-91900631D01*
X111723000Y-92200000D01*
X111733006Y-92249410D01*
X111761447Y-92291035D01*
X111803841Y-92318315D01*
X111850000Y-92327000D01*
X112040975Y-92327000D01*
X111971673Y-92396302D01*
X111875000Y-92629691D01*
X111875000Y-92920250D01*
X112033750Y-93079000D01*
X113233000Y-93079000D01*
X113233000Y-93059000D01*
X113487000Y-93059000D01*
X113487000Y-93079000D01*
X113507000Y-93079000D01*
X113507000Y-93333000D01*
X113487000Y-93333000D01*
X113487000Y-94132250D01*
X113645750Y-94291000D01*
X114223000Y-94291000D01*
X114223000Y-94500000D01*
X114233006Y-94549410D01*
X114261447Y-94591035D01*
X114303841Y-94618315D01*
X114349828Y-94627000D01*
X114848184Y-94627673D01*
X114842270Y-94641950D01*
X114842270Y-95732190D01*
X115001020Y-95890940D01*
X117000000Y-95890940D01*
X117000000Y-95870940D01*
X117254000Y-95870940D01*
X117254000Y-95890940D01*
X117274000Y-95890940D01*
X117274000Y-96144940D01*
X117254000Y-96144940D01*
X117254000Y-96164940D01*
X117000000Y-96164940D01*
X117000000Y-96144940D01*
X115001020Y-96144940D01*
X114842270Y-96303690D01*
X114842270Y-97393930D01*
X114854311Y-97423000D01*
X114035000Y-97423000D01*
X114035000Y-97210750D01*
X113876250Y-97052000D01*
X112902000Y-97052000D01*
X112902000Y-97072000D01*
X112648000Y-97072000D01*
X112648000Y-97052000D01*
X111673750Y-97052000D01*
X111546637Y-97179113D01*
X111489077Y-97040151D01*
X111310448Y-96861523D01*
X111077059Y-96764850D01*
X109236250Y-96764850D01*
X109077500Y-96923600D01*
X109077500Y-98473000D01*
X109097500Y-98473000D01*
X109097500Y-98727000D01*
X109077500Y-98727000D01*
X109077500Y-100276400D01*
X109236250Y-100435150D01*
X111077059Y-100435150D01*
X111310448Y-100338477D01*
X111489077Y-100159849D01*
X111585750Y-99926460D01*
X111585750Y-99720788D01*
X111685910Y-99876441D01*
X111873000Y-100004274D01*
X111873000Y-100473000D01*
X111400000Y-100473000D01*
X111350590Y-100483006D01*
X111308965Y-100511447D01*
X111281685Y-100553841D01*
X111273000Y-100600000D01*
X111273000Y-105897089D01*
X108027000Y-105873904D01*
X108027000Y-100435150D01*
X108664750Y-100435150D01*
X108823500Y-100276400D01*
X108823500Y-98727000D01*
X108803500Y-98727000D01*
X108803500Y-98473000D01*
X108823500Y-98473000D01*
X108823500Y-96923600D01*
X108664750Y-96764850D01*
X108027000Y-96764850D01*
X108027000Y-96298691D01*
X111515000Y-96298691D01*
X111515000Y-96639250D01*
X111673750Y-96798000D01*
X112648000Y-96798000D01*
X112648000Y-95948750D01*
X112902000Y-95948750D01*
X112902000Y-96798000D01*
X113876250Y-96798000D01*
X114035000Y-96639250D01*
X114035000Y-96298691D01*
X113938327Y-96065302D01*
X113759699Y-95886673D01*
X113526310Y-95790000D01*
X113060750Y-95790000D01*
X112902000Y-95948750D01*
X112648000Y-95948750D01*
X112489250Y-95790000D01*
X112023690Y-95790000D01*
X111790301Y-95886673D01*
X111611673Y-96065302D01*
X111515000Y-96298691D01*
X108027000Y-96298691D01*
X108027000Y-93491750D01*
X111875000Y-93491750D01*
X111875000Y-93782309D01*
X111971673Y-94015698D01*
X112150301Y-94194327D01*
X112383690Y-94291000D01*
X113074250Y-94291000D01*
X113233000Y-94132250D01*
X113233000Y-93333000D01*
X112033750Y-93333000D01*
X111875000Y-93491750D01*
X108027000Y-93491750D01*
X108027000Y-92485000D01*
X108214250Y-92485000D01*
X108373000Y-92326250D01*
X108373000Y-91327000D01*
X108627000Y-91327000D01*
X108627000Y-92326250D01*
X108785750Y-92485000D01*
X108976309Y-92485000D01*
X109209698Y-92388327D01*
X109388327Y-92209699D01*
X109485000Y-91976310D01*
X109485000Y-91485750D01*
X109326250Y-91327000D01*
X108627000Y-91327000D01*
X108373000Y-91327000D01*
X108353000Y-91327000D01*
X108353000Y-91073000D01*
X108373000Y-91073000D01*
X108373000Y-89477000D01*
X108627000Y-89477000D01*
X108627000Y-91073000D01*
X109326250Y-91073000D01*
X109485000Y-90914250D01*
X109485000Y-90423690D01*
X109423411Y-90275000D01*
X109485000Y-90126310D01*
X109485000Y-89635750D01*
X109326250Y-89477000D01*
X108627000Y-89477000D01*
X108373000Y-89477000D01*
X108353000Y-89477000D01*
X108353000Y-89223000D01*
X108373000Y-89223000D01*
X108373000Y-89203000D01*
X108627000Y-89203000D01*
X108627000Y-89223000D01*
X109326250Y-89223000D01*
X109485000Y-89064250D01*
X109485000Y-88573690D01*
X109468974Y-88535000D01*
X109976310Y-88535000D01*
X110209699Y-88438327D01*
X110388327Y-88259698D01*
X110485000Y-88026309D01*
X110485000Y-87735750D01*
X110326250Y-87577000D01*
X109127000Y-87577000D01*
X109127000Y-87597000D01*
X108873000Y-87597000D01*
X108873000Y-87577000D01*
X108853000Y-87577000D01*
X108853000Y-87323000D01*
X108873000Y-87323000D01*
X108873000Y-87303000D01*
X109127000Y-87303000D01*
X109127000Y-87323000D01*
X110326250Y-87323000D01*
X110485000Y-87164250D01*
X110485000Y-86977000D01*
X111723000Y-86977000D01*
X111723000Y-87199369D01*
G36*
X132254000Y-97992000D02*
X132274000Y-97992000D01*
X132274000Y-98246000D01*
X132254000Y-98246000D01*
X132254000Y-101045250D01*
X132412750Y-101204000D01*
X133753179Y-101204000D01*
X133873000Y-101154368D01*
X133873000Y-105873000D01*
X112127000Y-105873000D01*
X112127000Y-104385000D01*
X112489250Y-104385000D01*
X112648000Y-104226250D01*
X112648000Y-103527000D01*
X112902000Y-103527000D01*
X112902000Y-104226250D01*
X113060750Y-104385000D01*
X113551310Y-104385000D01*
X113784699Y-104288327D01*
X113963327Y-104109698D01*
X114060000Y-103876309D01*
X114060000Y-103685750D01*
X113901250Y-103527000D01*
X112902000Y-103527000D01*
X112648000Y-103527000D01*
X112628000Y-103527000D01*
X112628000Y-103273000D01*
X112648000Y-103273000D01*
X112648000Y-103253000D01*
X112902000Y-103253000D01*
X112902000Y-103273000D01*
X113901250Y-103273000D01*
X114060000Y-103114250D01*
X114060000Y-103105810D01*
X114842270Y-103105810D01*
X114842270Y-104196050D01*
X114938943Y-104429439D01*
X115117572Y-104608067D01*
X115350961Y-104704740D01*
X116841250Y-104704740D01*
X117000000Y-104545990D01*
X117000000Y-102947060D01*
X117254000Y-102947060D01*
X117254000Y-104545990D01*
X117412750Y-104704740D01*
X118903039Y-104704740D01*
X119136428Y-104608067D01*
X119315057Y-104429439D01*
X119411730Y-104196050D01*
X119411730Y-103105810D01*
X119252980Y-102947060D01*
X117254000Y-102947060D01*
X117000000Y-102947060D01*
X115001020Y-102947060D01*
X114842270Y-103105810D01*
X114060000Y-103105810D01*
X114060000Y-102923691D01*
X113963327Y-102690302D01*
X113784699Y-102511673D01*
X113648713Y-102455346D01*
X113660317Y-102453162D01*
X113876441Y-102314090D01*
X113918865Y-102252000D01*
X114225000Y-102252000D01*
X114274410Y-102241994D01*
X114316035Y-102213553D01*
X114343315Y-102171159D01*
X114352000Y-102125000D01*
X114352000Y-101444070D01*
X114842270Y-101444070D01*
X114842270Y-102534310D01*
X115001020Y-102693060D01*
X117000000Y-102693060D01*
X117000000Y-101094130D01*
X116841250Y-100935380D01*
X115350961Y-100935380D01*
X115117572Y-101032053D01*
X114938943Y-101210681D01*
X114842270Y-101444070D01*
X114352000Y-101444070D01*
X114352000Y-98651400D01*
X119373000Y-98627604D01*
X119373000Y-101350568D01*
X119315057Y-101210681D01*
X119136428Y-101032053D01*
X118903039Y-100935380D01*
X117412750Y-100935380D01*
X117254000Y-101094130D01*
X117254000Y-102693060D01*
X119252980Y-102693060D01*
X119388536Y-102557504D01*
X119411447Y-102591035D01*
X119453841Y-102618315D01*
X119500000Y-102627000D01*
X123400000Y-102627000D01*
X123449410Y-102616994D01*
X123491035Y-102588553D01*
X123518315Y-102546159D01*
X123527000Y-102500000D01*
X123527000Y-102094006D01*
X123958190Y-102331649D01*
X124052168Y-102352540D01*
X124282000Y-102231214D01*
X124282000Y-100138000D01*
X124262000Y-100138000D01*
X124262000Y-99884000D01*
X124282000Y-99884000D01*
X124282000Y-99864000D01*
X124536000Y-99864000D01*
X124536000Y-99884000D01*
X124556000Y-99884000D01*
X124556000Y-100138000D01*
X124536000Y-100138000D01*
X124536000Y-102231214D01*
X124765832Y-102352540D01*
X124859810Y-102331649D01*
X125273000Y-102103927D01*
X125273000Y-102600000D01*
X125283006Y-102649410D01*
X125311447Y-102691035D01*
X125353841Y-102718315D01*
X125400000Y-102727000D01*
X130400000Y-102727000D01*
X130449410Y-102716994D01*
X130491035Y-102688553D01*
X130518315Y-102646159D01*
X130527000Y-102600000D01*
X130527000Y-101204000D01*
X131841250Y-101204000D01*
X132000000Y-101045250D01*
X132000000Y-98246000D01*
X131980000Y-98246000D01*
X131980000Y-97992000D01*
X132000000Y-97992000D01*
X132000000Y-97972000D01*
X132254000Y-97972000D01*
X132254000Y-97992000D01*
X132254000Y-97992000D01*
G37*
X132254000Y-97992000D02*
X132274000Y-97992000D01*
X132274000Y-98246000D01*
X132254000Y-98246000D01*
X132254000Y-101045250D01*
X132412750Y-101204000D01*
X133753179Y-101204000D01*
X133873000Y-101154368D01*
X133873000Y-105873000D01*
X112127000Y-105873000D01*
X112127000Y-104385000D01*
X112489250Y-104385000D01*
X112648000Y-104226250D01*
X112648000Y-103527000D01*
X112902000Y-103527000D01*
X112902000Y-104226250D01*
X113060750Y-104385000D01*
X113551310Y-104385000D01*
X113784699Y-104288327D01*
X113963327Y-104109698D01*
X114060000Y-103876309D01*
X114060000Y-103685750D01*
X113901250Y-103527000D01*
X112902000Y-103527000D01*
X112648000Y-103527000D01*
X112628000Y-103527000D01*
X112628000Y-103273000D01*
X112648000Y-103273000D01*
X112648000Y-103253000D01*
X112902000Y-103253000D01*
X112902000Y-103273000D01*
X113901250Y-103273000D01*
X114060000Y-103114250D01*
X114060000Y-103105810D01*
X114842270Y-103105810D01*
X114842270Y-104196050D01*
X114938943Y-104429439D01*
X115117572Y-104608067D01*
X115350961Y-104704740D01*
X116841250Y-104704740D01*
X117000000Y-104545990D01*
X117000000Y-102947060D01*
X117254000Y-102947060D01*
X117254000Y-104545990D01*
X117412750Y-104704740D01*
X118903039Y-104704740D01*
X119136428Y-104608067D01*
X119315057Y-104429439D01*
X119411730Y-104196050D01*
X119411730Y-103105810D01*
X119252980Y-102947060D01*
X117254000Y-102947060D01*
X117000000Y-102947060D01*
X115001020Y-102947060D01*
X114842270Y-103105810D01*
X114060000Y-103105810D01*
X114060000Y-102923691D01*
X113963327Y-102690302D01*
X113784699Y-102511673D01*
X113648713Y-102455346D01*
X113660317Y-102453162D01*
X113876441Y-102314090D01*
X113918865Y-102252000D01*
X114225000Y-102252000D01*
X114274410Y-102241994D01*
X114316035Y-102213553D01*
X114343315Y-102171159D01*
X114352000Y-102125000D01*
X114352000Y-101444070D01*
X114842270Y-101444070D01*
X114842270Y-102534310D01*
X115001020Y-102693060D01*
X117000000Y-102693060D01*
X117000000Y-101094130D01*
X116841250Y-100935380D01*
X115350961Y-100935380D01*
X115117572Y-101032053D01*
X114938943Y-101210681D01*
X114842270Y-101444070D01*
X114352000Y-101444070D01*
X114352000Y-98651400D01*
X119373000Y-98627604D01*
X119373000Y-101350568D01*
X119315057Y-101210681D01*
X119136428Y-101032053D01*
X118903039Y-100935380D01*
X117412750Y-100935380D01*
X117254000Y-101094130D01*
X117254000Y-102693060D01*
X119252980Y-102693060D01*
X119388536Y-102557504D01*
X119411447Y-102591035D01*
X119453841Y-102618315D01*
X119500000Y-102627000D01*
X123400000Y-102627000D01*
X123449410Y-102616994D01*
X123491035Y-102588553D01*
X123518315Y-102546159D01*
X123527000Y-102500000D01*
X123527000Y-102094006D01*
X123958190Y-102331649D01*
X124052168Y-102352540D01*
X124282000Y-102231214D01*
X124282000Y-100138000D01*
X124262000Y-100138000D01*
X124262000Y-99884000D01*
X124282000Y-99884000D01*
X124282000Y-99864000D01*
X124536000Y-99864000D01*
X124536000Y-99884000D01*
X124556000Y-99884000D01*
X124556000Y-100138000D01*
X124536000Y-100138000D01*
X124536000Y-102231214D01*
X124765832Y-102352540D01*
X124859810Y-102331649D01*
X125273000Y-102103927D01*
X125273000Y-102600000D01*
X125283006Y-102649410D01*
X125311447Y-102691035D01*
X125353841Y-102718315D01*
X125400000Y-102727000D01*
X130400000Y-102727000D01*
X130449410Y-102716994D01*
X130491035Y-102688553D01*
X130518315Y-102646159D01*
X130527000Y-102600000D01*
X130527000Y-101204000D01*
X131841250Y-101204000D01*
X132000000Y-101045250D01*
X132000000Y-98246000D01*
X131980000Y-98246000D01*
X131980000Y-97992000D01*
X132000000Y-97992000D01*
X132000000Y-97972000D01*
X132254000Y-97972000D01*
X132254000Y-97992000D01*
G36*
X120286560Y-93453000D02*
X120330838Y-93688317D01*
X120394678Y-93787528D01*
X120337569Y-93871110D01*
X120286560Y-94123000D01*
X120286560Y-94723000D01*
X120330838Y-94958317D01*
X120389178Y-95048980D01*
X120299000Y-95266690D01*
X120299000Y-95407250D01*
X120457750Y-95566000D01*
X121582000Y-95566000D01*
X121582000Y-95546000D01*
X121836000Y-95546000D01*
X121836000Y-95566000D01*
X121856000Y-95566000D01*
X121856000Y-95820000D01*
X121836000Y-95820000D01*
X121836000Y-96469250D01*
X121994750Y-96628000D01*
X122610309Y-96628000D01*
X122758000Y-96566824D01*
X122758000Y-97931852D01*
X122319810Y-97690351D01*
X122225832Y-97669460D01*
X121996000Y-97790786D01*
X121996000Y-99884000D01*
X122016000Y-99884000D01*
X122016000Y-100138000D01*
X121996000Y-100138000D01*
X121996000Y-100158000D01*
X121742000Y-100158000D01*
X121742000Y-100138000D01*
X120384370Y-100138000D01*
X120384370Y-101038430D01*
X120545982Y-101596906D01*
X120699545Y-101789000D01*
X120218000Y-101789000D01*
X120218000Y-98983570D01*
X120384370Y-98983570D01*
X120384370Y-99884000D01*
X121742000Y-99884000D01*
X121742000Y-97790786D01*
X121512168Y-97669460D01*
X121418190Y-97690351D01*
X120909011Y-97970976D01*
X120545982Y-98425094D01*
X120384370Y-98983570D01*
X120218000Y-98983570D01*
X120218000Y-95978750D01*
X120299000Y-95978750D01*
X120299000Y-96119310D01*
X120395673Y-96352699D01*
X120574302Y-96531327D01*
X120807691Y-96628000D01*
X121423250Y-96628000D01*
X121582000Y-96469250D01*
X121582000Y-95820000D01*
X120457750Y-95820000D01*
X120299000Y-95978750D01*
X120218000Y-95978750D01*
X120218000Y-93969000D01*
X120207994Y-93919590D01*
X120179553Y-93877965D01*
X120137159Y-93850685D01*
X120091000Y-93842000D01*
X118892572Y-93842000D01*
X118897000Y-93831309D01*
X118897000Y-93490750D01*
X118738250Y-93332000D01*
X116789000Y-93332000D01*
X116789000Y-93352000D01*
X116535000Y-93352000D01*
X116535000Y-93332000D01*
X116515000Y-93332000D01*
X116515000Y-93078000D01*
X116535000Y-93078000D01*
X116535000Y-93058000D01*
X116789000Y-93058000D01*
X116789000Y-93078000D01*
X118738250Y-93078000D01*
X118897000Y-92919250D01*
X118897000Y-92875087D01*
X118958000Y-92887440D01*
X120208000Y-92887440D01*
X120286560Y-92872658D01*
X120286560Y-93453000D01*
X120286560Y-93453000D01*
G37*
X120286560Y-93453000D02*
X120330838Y-93688317D01*
X120394678Y-93787528D01*
X120337569Y-93871110D01*
X120286560Y-94123000D01*
X120286560Y-94723000D01*
X120330838Y-94958317D01*
X120389178Y-95048980D01*
X120299000Y-95266690D01*
X120299000Y-95407250D01*
X120457750Y-95566000D01*
X121582000Y-95566000D01*
X121582000Y-95546000D01*
X121836000Y-95546000D01*
X121836000Y-95566000D01*
X121856000Y-95566000D01*
X121856000Y-95820000D01*
X121836000Y-95820000D01*
X121836000Y-96469250D01*
X121994750Y-96628000D01*
X122610309Y-96628000D01*
X122758000Y-96566824D01*
X122758000Y-97931852D01*
X122319810Y-97690351D01*
X122225832Y-97669460D01*
X121996000Y-97790786D01*
X121996000Y-99884000D01*
X122016000Y-99884000D01*
X122016000Y-100138000D01*
X121996000Y-100138000D01*
X121996000Y-100158000D01*
X121742000Y-100158000D01*
X121742000Y-100138000D01*
X120384370Y-100138000D01*
X120384370Y-101038430D01*
X120545982Y-101596906D01*
X120699545Y-101789000D01*
X120218000Y-101789000D01*
X120218000Y-98983570D01*
X120384370Y-98983570D01*
X120384370Y-99884000D01*
X121742000Y-99884000D01*
X121742000Y-97790786D01*
X121512168Y-97669460D01*
X121418190Y-97690351D01*
X120909011Y-97970976D01*
X120545982Y-98425094D01*
X120384370Y-98983570D01*
X120218000Y-98983570D01*
X120218000Y-95978750D01*
X120299000Y-95978750D01*
X120299000Y-96119310D01*
X120395673Y-96352699D01*
X120574302Y-96531327D01*
X120807691Y-96628000D01*
X121423250Y-96628000D01*
X121582000Y-96469250D01*
X121582000Y-95820000D01*
X120457750Y-95820000D01*
X120299000Y-95978750D01*
X120218000Y-95978750D01*
X120218000Y-93969000D01*
X120207994Y-93919590D01*
X120179553Y-93877965D01*
X120137159Y-93850685D01*
X120091000Y-93842000D01*
X118892572Y-93842000D01*
X118897000Y-93831309D01*
X118897000Y-93490750D01*
X118738250Y-93332000D01*
X116789000Y-93332000D01*
X116789000Y-93352000D01*
X116535000Y-93352000D01*
X116535000Y-93332000D01*
X116515000Y-93332000D01*
X116515000Y-93078000D01*
X116535000Y-93078000D01*
X116535000Y-93058000D01*
X116789000Y-93058000D01*
X116789000Y-93078000D01*
X118738250Y-93078000D01*
X118897000Y-92919250D01*
X118897000Y-92875087D01*
X118958000Y-92887440D01*
X120208000Y-92887440D01*
X120286560Y-92872658D01*
X120286560Y-93453000D01*
G36*
X127590000Y-97266250D02*
X127748750Y-97425000D01*
X128550000Y-97425000D01*
X128550000Y-97250000D01*
X129200000Y-97250000D01*
X129200000Y-97425000D01*
X129268000Y-97425000D01*
X129268000Y-97775000D01*
X129200000Y-97775000D01*
X129200000Y-98426250D01*
X129358750Y-98585000D01*
X129548000Y-98585000D01*
X129548000Y-101797694D01*
X128191973Y-101794433D01*
X128433630Y-101284430D01*
X128433630Y-100384000D01*
X127322000Y-100384000D01*
X127322000Y-100404000D01*
X126576000Y-100404000D01*
X126576000Y-100384000D01*
X126556000Y-100384000D01*
X126556000Y-99638000D01*
X126576000Y-99638000D01*
X126576000Y-97838238D01*
X127322000Y-97838238D01*
X127322000Y-99638000D01*
X128433630Y-99638000D01*
X128433630Y-98737570D01*
X128361337Y-98585000D01*
X128391250Y-98585000D01*
X128550000Y-98426250D01*
X128550000Y-97775000D01*
X127748750Y-97775000D01*
X127728364Y-97795386D01*
X127542206Y-97749602D01*
X127322000Y-97838238D01*
X126576000Y-97838238D01*
X126355794Y-97749602D01*
X126162959Y-97797028D01*
X126060000Y-97890212D01*
X126060000Y-97216492D01*
X127590000Y-97210359D01*
X127590000Y-97266250D01*
X127590000Y-97266250D01*
G37*
X127590000Y-97266250D02*
X127748750Y-97425000D01*
X128550000Y-97425000D01*
X128550000Y-97250000D01*
X129200000Y-97250000D01*
X129200000Y-97425000D01*
X129268000Y-97425000D01*
X129268000Y-97775000D01*
X129200000Y-97775000D01*
X129200000Y-98426250D01*
X129358750Y-98585000D01*
X129548000Y-98585000D01*
X129548000Y-101797694D01*
X128191973Y-101794433D01*
X128433630Y-101284430D01*
X128433630Y-100384000D01*
X127322000Y-100384000D01*
X127322000Y-100404000D01*
X126576000Y-100404000D01*
X126576000Y-100384000D01*
X126556000Y-100384000D01*
X126556000Y-99638000D01*
X126576000Y-99638000D01*
X126576000Y-97838238D01*
X127322000Y-97838238D01*
X127322000Y-99638000D01*
X128433630Y-99638000D01*
X128433630Y-98737570D01*
X128361337Y-98585000D01*
X128391250Y-98585000D01*
X128550000Y-98426250D01*
X128550000Y-97775000D01*
X127748750Y-97775000D01*
X127728364Y-97795386D01*
X127542206Y-97749602D01*
X127322000Y-97838238D01*
X126576000Y-97838238D01*
X126355794Y-97749602D01*
X126162959Y-97797028D01*
X126060000Y-97890212D01*
X126060000Y-97216492D01*
X127590000Y-97210359D01*
X127590000Y-97266250D01*
G36*
X127236000Y-95566000D02*
X127741750Y-95566000D01*
X127748750Y-95573000D01*
X128748000Y-95573000D01*
X128748000Y-95553000D01*
X129002000Y-95553000D01*
X129002000Y-95573000D01*
X129022000Y-95573000D01*
X129022000Y-95827000D01*
X129002000Y-95827000D01*
X129002000Y-95847000D01*
X128748000Y-95847000D01*
X128748000Y-95827000D01*
X128367250Y-95827000D01*
X128360250Y-95820000D01*
X127236000Y-95820000D01*
X127236000Y-95840000D01*
X126982000Y-95840000D01*
X126982000Y-95820000D01*
X126962000Y-95820000D01*
X126962000Y-95566000D01*
X126982000Y-95566000D01*
X126982000Y-95546000D01*
X127236000Y-95546000D01*
X127236000Y-95566000D01*
X127236000Y-95566000D01*
G37*
X127236000Y-95566000D02*
X127741750Y-95566000D01*
X127748750Y-95573000D01*
X128748000Y-95573000D01*
X128748000Y-95553000D01*
X129002000Y-95553000D01*
X129002000Y-95573000D01*
X129022000Y-95573000D01*
X129022000Y-95827000D01*
X129002000Y-95827000D01*
X129002000Y-95847000D01*
X128748000Y-95847000D01*
X128748000Y-95827000D01*
X128367250Y-95827000D01*
X128360250Y-95820000D01*
X127236000Y-95820000D01*
X127236000Y-95840000D01*
X126982000Y-95840000D01*
X126982000Y-95820000D01*
X126962000Y-95820000D01*
X126962000Y-95566000D01*
X126982000Y-95566000D01*
X126982000Y-95546000D01*
X127236000Y-95546000D01*
X127236000Y-95566000D01*
G36*
X133989000Y-89837309D02*
X134085673Y-90070698D01*
X134264301Y-90249327D01*
X134497690Y-90346000D01*
X135553250Y-90346000D01*
X135712000Y-90187250D01*
X135712000Y-89127000D01*
X135966000Y-89127000D01*
X135966000Y-90187250D01*
X136124750Y-90346000D01*
X137180310Y-90346000D01*
X137413699Y-90249327D01*
X137592327Y-90070698D01*
X137689000Y-89837309D01*
X137689000Y-89127000D01*
X140251000Y-89127000D01*
X140251000Y-89161002D01*
X140409748Y-89161002D01*
X140251000Y-89319750D01*
X140251000Y-90345309D01*
X140347673Y-90578698D01*
X140526301Y-90757327D01*
X140759690Y-90854000D01*
X142665250Y-90854000D01*
X142824000Y-90695250D01*
X142824000Y-89161000D01*
X142804000Y-89161000D01*
X142804000Y-89127000D01*
X143098000Y-89127000D01*
X143098000Y-89161000D01*
X143078000Y-89161000D01*
X143078000Y-90695250D01*
X143236750Y-90854000D01*
X144873000Y-90854000D01*
X144873000Y-104873000D01*
X142827000Y-104873000D01*
X142827000Y-101404000D01*
X142953179Y-101404000D01*
X143186568Y-101307327D01*
X143365197Y-101128699D01*
X143461870Y-100895310D01*
X143461870Y-98604750D01*
X143303120Y-98446000D01*
X142827000Y-98446000D01*
X142827000Y-98192000D01*
X143303120Y-98192000D01*
X143461870Y-98033250D01*
X143461870Y-95742690D01*
X143365197Y-95509301D01*
X143186568Y-95330673D01*
X142953179Y-95234000D01*
X142827000Y-95234000D01*
X142827000Y-92300000D01*
X142816994Y-92250590D01*
X142788553Y-92208965D01*
X142746159Y-92181685D01*
X142700000Y-92173000D01*
X129127000Y-92173000D01*
X129127000Y-90767956D01*
X129162000Y-90592000D01*
X129162000Y-89880332D01*
X129293223Y-89934820D01*
X129704971Y-89935179D01*
X130085515Y-89777942D01*
X130376919Y-89487046D01*
X130377457Y-89485750D01*
X131040000Y-89485750D01*
X131040000Y-89826309D01*
X131136673Y-90059698D01*
X131315301Y-90238327D01*
X131548690Y-90335000D01*
X132014250Y-90335000D01*
X132173000Y-90176250D01*
X132173000Y-89327000D01*
X132427000Y-89327000D01*
X132427000Y-90176250D01*
X132585750Y-90335000D01*
X133051310Y-90335000D01*
X133284699Y-90238327D01*
X133463327Y-90059698D01*
X133560000Y-89826309D01*
X133560000Y-89485750D01*
X133401250Y-89327000D01*
X132427000Y-89327000D01*
X132173000Y-89327000D01*
X131198750Y-89327000D01*
X131040000Y-89485750D01*
X130377457Y-89485750D01*
X130526423Y-89127000D01*
X133989000Y-89127000D01*
X133989000Y-89837309D01*
X133989000Y-89837309D01*
G37*
X133989000Y-89837309D02*
X134085673Y-90070698D01*
X134264301Y-90249327D01*
X134497690Y-90346000D01*
X135553250Y-90346000D01*
X135712000Y-90187250D01*
X135712000Y-89127000D01*
X135966000Y-89127000D01*
X135966000Y-90187250D01*
X136124750Y-90346000D01*
X137180310Y-90346000D01*
X137413699Y-90249327D01*
X137592327Y-90070698D01*
X137689000Y-89837309D01*
X137689000Y-89127000D01*
X140251000Y-89127000D01*
X140251000Y-89161002D01*
X140409748Y-89161002D01*
X140251000Y-89319750D01*
X140251000Y-90345309D01*
X140347673Y-90578698D01*
X140526301Y-90757327D01*
X140759690Y-90854000D01*
X142665250Y-90854000D01*
X142824000Y-90695250D01*
X142824000Y-89161000D01*
X142804000Y-89161000D01*
X142804000Y-89127000D01*
X143098000Y-89127000D01*
X143098000Y-89161000D01*
X143078000Y-89161000D01*
X143078000Y-90695250D01*
X143236750Y-90854000D01*
X144873000Y-90854000D01*
X144873000Y-104873000D01*
X142827000Y-104873000D01*
X142827000Y-101404000D01*
X142953179Y-101404000D01*
X143186568Y-101307327D01*
X143365197Y-101128699D01*
X143461870Y-100895310D01*
X143461870Y-98604750D01*
X143303120Y-98446000D01*
X142827000Y-98446000D01*
X142827000Y-98192000D01*
X143303120Y-98192000D01*
X143461870Y-98033250D01*
X143461870Y-95742690D01*
X143365197Y-95509301D01*
X143186568Y-95330673D01*
X142953179Y-95234000D01*
X142827000Y-95234000D01*
X142827000Y-92300000D01*
X142816994Y-92250590D01*
X142788553Y-92208965D01*
X142746159Y-92181685D01*
X142700000Y-92173000D01*
X129127000Y-92173000D01*
X129127000Y-90767956D01*
X129162000Y-90592000D01*
X129162000Y-89880332D01*
X129293223Y-89934820D01*
X129704971Y-89935179D01*
X130085515Y-89777942D01*
X130376919Y-89487046D01*
X130377457Y-89485750D01*
X131040000Y-89485750D01*
X131040000Y-89826309D01*
X131136673Y-90059698D01*
X131315301Y-90238327D01*
X131548690Y-90335000D01*
X132014250Y-90335000D01*
X132173000Y-90176250D01*
X132173000Y-89327000D01*
X132427000Y-89327000D01*
X132427000Y-90176250D01*
X132585750Y-90335000D01*
X133051310Y-90335000D01*
X133284699Y-90238327D01*
X133463327Y-90059698D01*
X133560000Y-89826309D01*
X133560000Y-89485750D01*
X133401250Y-89327000D01*
X132427000Y-89327000D01*
X132173000Y-89327000D01*
X131198750Y-89327000D01*
X131040000Y-89485750D01*
X130377457Y-89485750D01*
X130526423Y-89127000D01*
X133989000Y-89127000D01*
X133989000Y-89837309D01*
G36*
X85975954Y-90473919D02*
X86339152Y-90624731D01*
X86887208Y-91172787D01*
X86887210Y-91172790D01*
X87174325Y-91364633D01*
X87207928Y-91371317D01*
X87513000Y-91432001D01*
X87513005Y-91432000D01*
X99271913Y-91432000D01*
X99265000Y-91448690D01*
X99265000Y-91939250D01*
X99423750Y-92098000D01*
X100123000Y-92098000D01*
X100123000Y-92078000D01*
X100377000Y-92078000D01*
X100377000Y-92098000D01*
X100397000Y-92098000D01*
X100397000Y-92352000D01*
X100377000Y-92352000D01*
X100377000Y-93351250D01*
X100535750Y-93510000D01*
X100726309Y-93510000D01*
X100959698Y-93413327D01*
X101138327Y-93234699D01*
X101194654Y-93098713D01*
X101196838Y-93110317D01*
X101335910Y-93326441D01*
X101548110Y-93471431D01*
X101800000Y-93522440D01*
X102500000Y-93522440D01*
X102735317Y-93478162D01*
X102804446Y-93433679D01*
X102823110Y-93446431D01*
X103075000Y-93497440D01*
X103475000Y-93497440D01*
X103604589Y-93473056D01*
X103725000Y-93497440D01*
X104125000Y-93497440D01*
X104254589Y-93473056D01*
X104375000Y-93497440D01*
X104775000Y-93497440D01*
X104880705Y-93477550D01*
X104898691Y-93485000D01*
X104966250Y-93485000D01*
X104995254Y-93455996D01*
X105010317Y-93453162D01*
X105226441Y-93314090D01*
X105325000Y-93169844D01*
X105325000Y-93326250D01*
X105483750Y-93485000D01*
X105551309Y-93485000D01*
X105784698Y-93388327D01*
X105963327Y-93209699D01*
X106060000Y-92976310D01*
X106060000Y-92535750D01*
X105911509Y-92387259D01*
X105998110Y-92446431D01*
X106250000Y-92497440D01*
X106873000Y-92497440D01*
X106873000Y-96766946D01*
X106714933Y-96796688D01*
X106498809Y-96935760D01*
X106353819Y-97147960D01*
X106302810Y-97399850D01*
X106302810Y-99800150D01*
X106347088Y-100035467D01*
X106486160Y-100251591D01*
X106698360Y-100396581D01*
X106873000Y-100431946D01*
X106873000Y-105873000D01*
X68127000Y-105873000D01*
X68127000Y-105585000D01*
X68332415Y-105585000D01*
X68693223Y-105734820D01*
X69104971Y-105735179D01*
X69485515Y-105577942D01*
X69776919Y-105287046D01*
X69934820Y-104906777D01*
X69935179Y-104495029D01*
X69784526Y-104130418D01*
X70307000Y-104234345D01*
X70812220Y-104133850D01*
X71673185Y-104994815D01*
X71920395Y-105159996D01*
X72212000Y-105218000D01*
X81727000Y-105218000D01*
X82018605Y-105159996D01*
X82265815Y-104994815D01*
X85577815Y-101682816D01*
X85742996Y-101435605D01*
X85746808Y-101416440D01*
X85801000Y-101144000D01*
X85801000Y-98885750D01*
X98314250Y-98885750D01*
X98314250Y-99926460D01*
X98410923Y-100159849D01*
X98589552Y-100338477D01*
X98822941Y-100435150D01*
X100663750Y-100435150D01*
X100822500Y-100276400D01*
X100822500Y-98727000D01*
X101076500Y-98727000D01*
X101076500Y-100276400D01*
X101235250Y-100435150D01*
X103076059Y-100435150D01*
X103309448Y-100338477D01*
X103488077Y-100159849D01*
X103584750Y-99926460D01*
X103584750Y-98885750D01*
X103426000Y-98727000D01*
X101076500Y-98727000D01*
X100822500Y-98727000D01*
X98473000Y-98727000D01*
X98314250Y-98885750D01*
X85801000Y-98885750D01*
X85801000Y-97273540D01*
X98314250Y-97273540D01*
X98314250Y-98314250D01*
X98473000Y-98473000D01*
X100822500Y-98473000D01*
X100822500Y-96923600D01*
X101076500Y-96923600D01*
X101076500Y-98473000D01*
X103426000Y-98473000D01*
X103584750Y-98314250D01*
X103584750Y-97273540D01*
X103488077Y-97040151D01*
X103309448Y-96861523D01*
X103076059Y-96764850D01*
X101235250Y-96764850D01*
X101076500Y-96923600D01*
X100822500Y-96923600D01*
X100663750Y-96764850D01*
X98822941Y-96764850D01*
X98589552Y-96861523D01*
X98410923Y-97040151D01*
X98314250Y-97273540D01*
X85801000Y-97273540D01*
X85801000Y-92510750D01*
X99265000Y-92510750D01*
X99265000Y-93001310D01*
X99361673Y-93234699D01*
X99540302Y-93413327D01*
X99773691Y-93510000D01*
X99964250Y-93510000D01*
X100123000Y-93351250D01*
X100123000Y-92352000D01*
X99423750Y-92352000D01*
X99265000Y-92510750D01*
X85801000Y-92510750D01*
X85801000Y-90298659D01*
X85975954Y-90473919D01*
X85975954Y-90473919D01*
G37*
X85975954Y-90473919D02*
X86339152Y-90624731D01*
X86887208Y-91172787D01*
X86887210Y-91172790D01*
X87174325Y-91364633D01*
X87207928Y-91371317D01*
X87513000Y-91432001D01*
X87513005Y-91432000D01*
X99271913Y-91432000D01*
X99265000Y-91448690D01*
X99265000Y-91939250D01*
X99423750Y-92098000D01*
X100123000Y-92098000D01*
X100123000Y-92078000D01*
X100377000Y-92078000D01*
X100377000Y-92098000D01*
X100397000Y-92098000D01*
X100397000Y-92352000D01*
X100377000Y-92352000D01*
X100377000Y-93351250D01*
X100535750Y-93510000D01*
X100726309Y-93510000D01*
X100959698Y-93413327D01*
X101138327Y-93234699D01*
X101194654Y-93098713D01*
X101196838Y-93110317D01*
X101335910Y-93326441D01*
X101548110Y-93471431D01*
X101800000Y-93522440D01*
X102500000Y-93522440D01*
X102735317Y-93478162D01*
X102804446Y-93433679D01*
X102823110Y-93446431D01*
X103075000Y-93497440D01*
X103475000Y-93497440D01*
X103604589Y-93473056D01*
X103725000Y-93497440D01*
X104125000Y-93497440D01*
X104254589Y-93473056D01*
X104375000Y-93497440D01*
X104775000Y-93497440D01*
X104880705Y-93477550D01*
X104898691Y-93485000D01*
X104966250Y-93485000D01*
X104995254Y-93455996D01*
X105010317Y-93453162D01*
X105226441Y-93314090D01*
X105325000Y-93169844D01*
X105325000Y-93326250D01*
X105483750Y-93485000D01*
X105551309Y-93485000D01*
X105784698Y-93388327D01*
X105963327Y-93209699D01*
X106060000Y-92976310D01*
X106060000Y-92535750D01*
X105911509Y-92387259D01*
X105998110Y-92446431D01*
X106250000Y-92497440D01*
X106873000Y-92497440D01*
X106873000Y-96766946D01*
X106714933Y-96796688D01*
X106498809Y-96935760D01*
X106353819Y-97147960D01*
X106302810Y-97399850D01*
X106302810Y-99800150D01*
X106347088Y-100035467D01*
X106486160Y-100251591D01*
X106698360Y-100396581D01*
X106873000Y-100431946D01*
X106873000Y-105873000D01*
X68127000Y-105873000D01*
X68127000Y-105585000D01*
X68332415Y-105585000D01*
X68693223Y-105734820D01*
X69104971Y-105735179D01*
X69485515Y-105577942D01*
X69776919Y-105287046D01*
X69934820Y-104906777D01*
X69935179Y-104495029D01*
X69784526Y-104130418D01*
X70307000Y-104234345D01*
X70812220Y-104133850D01*
X71673185Y-104994815D01*
X71920395Y-105159996D01*
X72212000Y-105218000D01*
X81727000Y-105218000D01*
X82018605Y-105159996D01*
X82265815Y-104994815D01*
X85577815Y-101682816D01*
X85742996Y-101435605D01*
X85746808Y-101416440D01*
X85801000Y-101144000D01*
X85801000Y-98885750D01*
X98314250Y-98885750D01*
X98314250Y-99926460D01*
X98410923Y-100159849D01*
X98589552Y-100338477D01*
X98822941Y-100435150D01*
X100663750Y-100435150D01*
X100822500Y-100276400D01*
X100822500Y-98727000D01*
X101076500Y-98727000D01*
X101076500Y-100276400D01*
X101235250Y-100435150D01*
X103076059Y-100435150D01*
X103309448Y-100338477D01*
X103488077Y-100159849D01*
X103584750Y-99926460D01*
X103584750Y-98885750D01*
X103426000Y-98727000D01*
X101076500Y-98727000D01*
X100822500Y-98727000D01*
X98473000Y-98727000D01*
X98314250Y-98885750D01*
X85801000Y-98885750D01*
X85801000Y-97273540D01*
X98314250Y-97273540D01*
X98314250Y-98314250D01*
X98473000Y-98473000D01*
X100822500Y-98473000D01*
X100822500Y-96923600D01*
X101076500Y-96923600D01*
X101076500Y-98473000D01*
X103426000Y-98473000D01*
X103584750Y-98314250D01*
X103584750Y-97273540D01*
X103488077Y-97040151D01*
X103309448Y-96861523D01*
X103076059Y-96764850D01*
X101235250Y-96764850D01*
X101076500Y-96923600D01*
X100822500Y-96923600D01*
X100663750Y-96764850D01*
X98822941Y-96764850D01*
X98589552Y-96861523D01*
X98410923Y-97040151D01*
X98314250Y-97273540D01*
X85801000Y-97273540D01*
X85801000Y-92510750D01*
X99265000Y-92510750D01*
X99265000Y-93001310D01*
X99361673Y-93234699D01*
X99540302Y-93413327D01*
X99773691Y-93510000D01*
X99964250Y-93510000D01*
X100123000Y-93351250D01*
X100123000Y-92352000D01*
X99423750Y-92352000D01*
X99265000Y-92510750D01*
X85801000Y-92510750D01*
X85801000Y-90298659D01*
X85975954Y-90473919D01*
G36*
X78056110Y-94320931D02*
X78166695Y-94343325D01*
X78658185Y-94834816D01*
X78802137Y-94931001D01*
X78905395Y-94999996D01*
X79197000Y-95058000D01*
X80951130Y-95058000D01*
X80951130Y-95324700D01*
X80995408Y-95560017D01*
X81134480Y-95776141D01*
X81346680Y-95921131D01*
X81598570Y-95972140D01*
X83399430Y-95972140D01*
X83634747Y-95927862D01*
X83850871Y-95788790D01*
X83886000Y-95737377D01*
X83886000Y-96411845D01*
X83759129Y-96284973D01*
X83525740Y-96188300D01*
X82784750Y-96188300D01*
X82626000Y-96347050D01*
X82626000Y-97945980D01*
X82646000Y-97945980D01*
X82646000Y-98199980D01*
X82626000Y-98199980D01*
X82626000Y-99798910D01*
X82784750Y-99957660D01*
X83525740Y-99957660D01*
X83759129Y-99860987D01*
X83886000Y-99734115D01*
X83886000Y-100432369D01*
X81136370Y-103182000D01*
X77925993Y-103182000D01*
X77933790Y-103176790D01*
X78430140Y-102680440D01*
X78951000Y-102680440D01*
X79186317Y-102636162D01*
X79402441Y-102497090D01*
X79448969Y-102428994D01*
X79591302Y-102571327D01*
X79824691Y-102668000D01*
X80165250Y-102668000D01*
X80324000Y-102509250D01*
X80324000Y-101535000D01*
X80578000Y-101535000D01*
X80578000Y-102509250D01*
X80736750Y-102668000D01*
X81077309Y-102668000D01*
X81310698Y-102571327D01*
X81489327Y-102392699D01*
X81586000Y-102159310D01*
X81586000Y-101693750D01*
X81427250Y-101535000D01*
X80578000Y-101535000D01*
X80324000Y-101535000D01*
X80304000Y-101535000D01*
X80304000Y-101281000D01*
X80324000Y-101281000D01*
X80324000Y-101261000D01*
X80578000Y-101261000D01*
X80578000Y-101281000D01*
X81427250Y-101281000D01*
X81586000Y-101122250D01*
X81586000Y-100656690D01*
X81489327Y-100423301D01*
X81310698Y-100244673D01*
X81077309Y-100148000D01*
X80736750Y-100148000D01*
X80721000Y-100163750D01*
X80721000Y-99788750D01*
X80562250Y-99630000D01*
X79959000Y-99630000D01*
X79959000Y-99650000D01*
X79705000Y-99650000D01*
X79705000Y-99630000D01*
X79685000Y-99630000D01*
X79685000Y-99376000D01*
X79705000Y-99376000D01*
X79705000Y-98455250D01*
X79959000Y-98455250D01*
X79959000Y-99376000D01*
X80562250Y-99376000D01*
X80721000Y-99217250D01*
X80721000Y-98805190D01*
X80624327Y-98571801D01*
X80445698Y-98393173D01*
X80362546Y-98358730D01*
X80963570Y-98358730D01*
X80963570Y-99448969D01*
X81060243Y-99682358D01*
X81238871Y-99860987D01*
X81472260Y-99957660D01*
X82213250Y-99957660D01*
X82372000Y-99798910D01*
X82372000Y-98199980D01*
X81122320Y-98199980D01*
X80963570Y-98358730D01*
X80362546Y-98358730D01*
X80212309Y-98296500D01*
X80117750Y-98296500D01*
X79959000Y-98455250D01*
X79705000Y-98455250D01*
X79546250Y-98296500D01*
X79451691Y-98296500D01*
X79218302Y-98393173D01*
X79191765Y-98419709D01*
X79067890Y-98335069D01*
X78816000Y-98284060D01*
X78308000Y-98284060D01*
X78072683Y-98328338D01*
X77926093Y-98422666D01*
X77797890Y-98335069D01*
X77546000Y-98284060D01*
X77150690Y-98284060D01*
X76827815Y-97961185D01*
X76827403Y-97960910D01*
X76580605Y-97796004D01*
X76289000Y-97738000D01*
X75400000Y-97738000D01*
X75137426Y-97790229D01*
X75014090Y-97598559D01*
X74801890Y-97453569D01*
X74788803Y-97450919D01*
X75001441Y-97314090D01*
X75037033Y-97262000D01*
X75200000Y-97262000D01*
X75491605Y-97203996D01*
X75738815Y-97038815D01*
X76080639Y-96696991D01*
X80963570Y-96696991D01*
X80963570Y-97787230D01*
X81122320Y-97945980D01*
X82372000Y-97945980D01*
X82372000Y-96347050D01*
X82213250Y-96188300D01*
X81472260Y-96188300D01*
X81238871Y-96284973D01*
X81060243Y-96463602D01*
X80963570Y-96696991D01*
X76080639Y-96696991D01*
X77830816Y-94946815D01*
X77929834Y-94798623D01*
X77995996Y-94699605D01*
X78054000Y-94408000D01*
X78054000Y-94319489D01*
X78056110Y-94320931D01*
X78056110Y-94320931D01*
G37*
X78056110Y-94320931D02*
X78166695Y-94343325D01*
X78658185Y-94834816D01*
X78802137Y-94931001D01*
X78905395Y-94999996D01*
X79197000Y-95058000D01*
X80951130Y-95058000D01*
X80951130Y-95324700D01*
X80995408Y-95560017D01*
X81134480Y-95776141D01*
X81346680Y-95921131D01*
X81598570Y-95972140D01*
X83399430Y-95972140D01*
X83634747Y-95927862D01*
X83850871Y-95788790D01*
X83886000Y-95737377D01*
X83886000Y-96411845D01*
X83759129Y-96284973D01*
X83525740Y-96188300D01*
X82784750Y-96188300D01*
X82626000Y-96347050D01*
X82626000Y-97945980D01*
X82646000Y-97945980D01*
X82646000Y-98199980D01*
X82626000Y-98199980D01*
X82626000Y-99798910D01*
X82784750Y-99957660D01*
X83525740Y-99957660D01*
X83759129Y-99860987D01*
X83886000Y-99734115D01*
X83886000Y-100432369D01*
X81136370Y-103182000D01*
X77925993Y-103182000D01*
X77933790Y-103176790D01*
X78430140Y-102680440D01*
X78951000Y-102680440D01*
X79186317Y-102636162D01*
X79402441Y-102497090D01*
X79448969Y-102428994D01*
X79591302Y-102571327D01*
X79824691Y-102668000D01*
X80165250Y-102668000D01*
X80324000Y-102509250D01*
X80324000Y-101535000D01*
X80578000Y-101535000D01*
X80578000Y-102509250D01*
X80736750Y-102668000D01*
X81077309Y-102668000D01*
X81310698Y-102571327D01*
X81489327Y-102392699D01*
X81586000Y-102159310D01*
X81586000Y-101693750D01*
X81427250Y-101535000D01*
X80578000Y-101535000D01*
X80324000Y-101535000D01*
X80304000Y-101535000D01*
X80304000Y-101281000D01*
X80324000Y-101281000D01*
X80324000Y-101261000D01*
X80578000Y-101261000D01*
X80578000Y-101281000D01*
X81427250Y-101281000D01*
X81586000Y-101122250D01*
X81586000Y-100656690D01*
X81489327Y-100423301D01*
X81310698Y-100244673D01*
X81077309Y-100148000D01*
X80736750Y-100148000D01*
X80721000Y-100163750D01*
X80721000Y-99788750D01*
X80562250Y-99630000D01*
X79959000Y-99630000D01*
X79959000Y-99650000D01*
X79705000Y-99650000D01*
X79705000Y-99630000D01*
X79685000Y-99630000D01*
X79685000Y-99376000D01*
X79705000Y-99376000D01*
X79705000Y-98455250D01*
X79959000Y-98455250D01*
X79959000Y-99376000D01*
X80562250Y-99376000D01*
X80721000Y-99217250D01*
X80721000Y-98805190D01*
X80624327Y-98571801D01*
X80445698Y-98393173D01*
X80362546Y-98358730D01*
X80963570Y-98358730D01*
X80963570Y-99448969D01*
X81060243Y-99682358D01*
X81238871Y-99860987D01*
X81472260Y-99957660D01*
X82213250Y-99957660D01*
X82372000Y-99798910D01*
X82372000Y-98199980D01*
X81122320Y-98199980D01*
X80963570Y-98358730D01*
X80362546Y-98358730D01*
X80212309Y-98296500D01*
X80117750Y-98296500D01*
X79959000Y-98455250D01*
X79705000Y-98455250D01*
X79546250Y-98296500D01*
X79451691Y-98296500D01*
X79218302Y-98393173D01*
X79191765Y-98419709D01*
X79067890Y-98335069D01*
X78816000Y-98284060D01*
X78308000Y-98284060D01*
X78072683Y-98328338D01*
X77926093Y-98422666D01*
X77797890Y-98335069D01*
X77546000Y-98284060D01*
X77150690Y-98284060D01*
X76827815Y-97961185D01*
X76827403Y-97960910D01*
X76580605Y-97796004D01*
X76289000Y-97738000D01*
X75400000Y-97738000D01*
X75137426Y-97790229D01*
X75014090Y-97598559D01*
X74801890Y-97453569D01*
X74788803Y-97450919D01*
X75001441Y-97314090D01*
X75037033Y-97262000D01*
X75200000Y-97262000D01*
X75491605Y-97203996D01*
X75738815Y-97038815D01*
X76080639Y-96696991D01*
X80963570Y-96696991D01*
X80963570Y-97787230D01*
X81122320Y-97945980D01*
X82372000Y-97945980D01*
X82372000Y-96347050D01*
X82213250Y-96188300D01*
X81472260Y-96188300D01*
X81238871Y-96284973D01*
X81060243Y-96463602D01*
X80963570Y-96696991D01*
X76080639Y-96696991D01*
X77830816Y-94946815D01*
X77929834Y-94798623D01*
X77995996Y-94699605D01*
X78054000Y-94408000D01*
X78054000Y-94319489D01*
X78056110Y-94320931D01*
G36*
X68637214Y-95947000D02*
X68750225Y-96515143D01*
X69072052Y-96996792D01*
X69401617Y-97217000D01*
X69072052Y-97437208D01*
X68750225Y-97918857D01*
X68637214Y-98487000D01*
X68750225Y-99055143D01*
X69072052Y-99536792D01*
X69553701Y-99858619D01*
X70121844Y-99971630D01*
X72016156Y-99971630D01*
X72184157Y-99938212D01*
X71036438Y-101085931D01*
X70880489Y-100981729D01*
X70307000Y-100867655D01*
X69733511Y-100981729D01*
X69247330Y-101306585D01*
X69232500Y-101328780D01*
X69168927Y-101175302D01*
X68990299Y-100996673D01*
X68756910Y-100900000D01*
X68127000Y-100900000D01*
X68127000Y-100690409D01*
X68140747Y-100687822D01*
X68356871Y-100548750D01*
X68501861Y-100336550D01*
X68552870Y-100084660D01*
X68552870Y-97585300D01*
X68508592Y-97349983D01*
X68369520Y-97133859D01*
X68157320Y-96988869D01*
X68127000Y-96982729D01*
X68127000Y-96692449D01*
X68140747Y-96689862D01*
X68356871Y-96550790D01*
X68501861Y-96338590D01*
X68552870Y-96086700D01*
X68552870Y-95587704D01*
X68715102Y-95555434D01*
X68637214Y-95947000D01*
X68637214Y-95947000D01*
G37*
X68637214Y-95947000D02*
X68750225Y-96515143D01*
X69072052Y-96996792D01*
X69401617Y-97217000D01*
X69072052Y-97437208D01*
X68750225Y-97918857D01*
X68637214Y-98487000D01*
X68750225Y-99055143D01*
X69072052Y-99536792D01*
X69553701Y-99858619D01*
X70121844Y-99971630D01*
X72016156Y-99971630D01*
X72184157Y-99938212D01*
X71036438Y-101085931D01*
X70880489Y-100981729D01*
X70307000Y-100867655D01*
X69733511Y-100981729D01*
X69247330Y-101306585D01*
X69232500Y-101328780D01*
X69168927Y-101175302D01*
X68990299Y-100996673D01*
X68756910Y-100900000D01*
X68127000Y-100900000D01*
X68127000Y-100690409D01*
X68140747Y-100687822D01*
X68356871Y-100548750D01*
X68501861Y-100336550D01*
X68552870Y-100084660D01*
X68552870Y-97585300D01*
X68508592Y-97349983D01*
X68369520Y-97133859D01*
X68157320Y-96988869D01*
X68127000Y-96982729D01*
X68127000Y-96692449D01*
X68140747Y-96689862D01*
X68356871Y-96550790D01*
X68501861Y-96338590D01*
X68552870Y-96086700D01*
X68552870Y-95587704D01*
X68715102Y-95555434D01*
X68637214Y-95947000D01*
G36*
X125267185Y-93691815D02*
X125514395Y-93856996D01*
X125594852Y-93873000D01*
X124127000Y-93873000D01*
X124127000Y-92772000D01*
X124347370Y-92772000D01*
X125267185Y-93691815D01*
X125267185Y-93691815D01*
G37*
X125267185Y-93691815D02*
X125514395Y-93856996D01*
X125594852Y-93873000D01*
X124127000Y-93873000D01*
X124127000Y-92772000D01*
X124347370Y-92772000D01*
X125267185Y-93691815D01*
G36*
X113042000Y-67380369D02*
X111961185Y-68461185D01*
X111892090Y-68564593D01*
X111580659Y-68435276D01*
X110950107Y-68434725D01*
X110367343Y-68675519D01*
X109993739Y-69048471D01*
X109623003Y-68677086D01*
X109040659Y-68435276D01*
X108529053Y-68434829D01*
X108576919Y-68387046D01*
X108734820Y-68006777D01*
X108735179Y-67595029D01*
X108577942Y-67214485D01*
X108287046Y-66923081D01*
X107906777Y-66765180D01*
X107495029Y-66764821D01*
X107114485Y-66922058D01*
X106823081Y-67212954D01*
X106665180Y-67593223D01*
X106665141Y-67637444D01*
X106582367Y-67761326D01*
X106514999Y-68100000D01*
X106582367Y-68438674D01*
X106610599Y-68480927D01*
X106500659Y-68435276D01*
X105870107Y-68434725D01*
X105287343Y-68675519D01*
X104913739Y-69048471D01*
X104543003Y-68677086D01*
X103960659Y-68435276D01*
X103330107Y-68434725D01*
X102747343Y-68675519D01*
X102373739Y-69048471D01*
X102003003Y-68677086D01*
X101420659Y-68435276D01*
X100790107Y-68434725D01*
X100207343Y-68675519D01*
X99833739Y-69048471D01*
X99463003Y-68677086D01*
X98880659Y-68435276D01*
X98250107Y-68434725D01*
X97667343Y-68675519D01*
X97293739Y-69048471D01*
X96923003Y-68677086D01*
X96340659Y-68435276D01*
X95710107Y-68434725D01*
X95127343Y-68675519D01*
X94753739Y-69048471D01*
X94383003Y-68677086D01*
X93800659Y-68435276D01*
X93170107Y-68434725D01*
X92587343Y-68675519D01*
X92147884Y-69114211D01*
X92060350Y-69083255D01*
X91123605Y-70020000D01*
X92060350Y-70956745D01*
X92148439Y-70925593D01*
X92584997Y-71362914D01*
X93167341Y-71604724D01*
X93797893Y-71605275D01*
X94380657Y-71364481D01*
X94754261Y-70991529D01*
X95124997Y-71362914D01*
X95707341Y-71604724D01*
X96337893Y-71605275D01*
X96920657Y-71364481D01*
X97294261Y-70991529D01*
X97664997Y-71362914D01*
X98247341Y-71604724D01*
X98877893Y-71605275D01*
X99460657Y-71364481D01*
X99834261Y-70991529D01*
X100204997Y-71362914D01*
X100787341Y-71604724D01*
X101417893Y-71605275D01*
X102000657Y-71364481D01*
X102374261Y-70991529D01*
X102432884Y-71050255D01*
X102402560Y-71200000D01*
X102402560Y-71900000D01*
X102446838Y-72135317D01*
X102585910Y-72351441D01*
X102798110Y-72496431D01*
X102811197Y-72499081D01*
X102598559Y-72635910D01*
X102453569Y-72848110D01*
X102402560Y-73100000D01*
X102402560Y-73800000D01*
X102404478Y-73810191D01*
X102378569Y-73848110D01*
X102327560Y-74100000D01*
X102327560Y-75100000D01*
X102371838Y-75335317D01*
X102510910Y-75551441D01*
X102579006Y-75597969D01*
X102436673Y-75740302D01*
X102340000Y-75973691D01*
X102340000Y-76314250D01*
X102498750Y-76473000D01*
X103473000Y-76473000D01*
X103473000Y-76453000D01*
X103727000Y-76453000D01*
X103727000Y-76473000D01*
X103747000Y-76473000D01*
X103747000Y-76727000D01*
X103727000Y-76727000D01*
X103727000Y-77576250D01*
X103885750Y-77735000D01*
X104138000Y-77735000D01*
X104138000Y-80198235D01*
X104023081Y-80312954D01*
X103865180Y-80693223D01*
X103864821Y-81104971D01*
X104022058Y-81485515D01*
X104312954Y-81776919D01*
X104693223Y-81934820D01*
X105104971Y-81935179D01*
X105485515Y-81777942D01*
X105776919Y-81487046D01*
X105934820Y-81106777D01*
X105935179Y-80695029D01*
X105777942Y-80314485D01*
X105662000Y-80198341D01*
X105662000Y-77735000D01*
X105914250Y-77735000D01*
X106073000Y-77576250D01*
X106073000Y-76727000D01*
X106053000Y-76727000D01*
X106053000Y-76473000D01*
X106073000Y-76473000D01*
X106073000Y-76453000D01*
X106327000Y-76453000D01*
X106327000Y-76473000D01*
X106347000Y-76473000D01*
X106347000Y-76727000D01*
X106327000Y-76727000D01*
X106327000Y-77576250D01*
X106485750Y-77735000D01*
X106951310Y-77735000D01*
X107072632Y-77684747D01*
X107193223Y-77734820D01*
X107338000Y-77734946D01*
X107338000Y-78145544D01*
X107296004Y-78208395D01*
X107238000Y-78500000D01*
X107238000Y-79798235D01*
X107123081Y-79912954D01*
X106965180Y-80293223D01*
X106964821Y-80704971D01*
X107122058Y-81085515D01*
X107412954Y-81376919D01*
X107793223Y-81534820D01*
X108204971Y-81535179D01*
X108476466Y-81423000D01*
X108873000Y-81423000D01*
X108873000Y-81403000D01*
X109127000Y-81403000D01*
X109127000Y-81423000D01*
X110126250Y-81423000D01*
X110285000Y-81264250D01*
X110285000Y-81073691D01*
X110188327Y-80840302D01*
X110009699Y-80661673D01*
X109776310Y-80565000D01*
X109285750Y-80565000D01*
X109127002Y-80723748D01*
X109127002Y-80565000D01*
X109034944Y-80565000D01*
X109035179Y-80295029D01*
X108959774Y-80112535D01*
X109285515Y-79977942D01*
X109576919Y-79687046D01*
X109734820Y-79306777D01*
X109735179Y-78895029D01*
X109577942Y-78514485D01*
X109462000Y-78398341D01*
X109462000Y-77054456D01*
X109503996Y-76991605D01*
X109505834Y-76982367D01*
X109562000Y-76700000D01*
X109562000Y-71388718D01*
X109620657Y-71364481D01*
X109994261Y-70991529D01*
X110364997Y-71362914D01*
X110438000Y-71393227D01*
X110438000Y-79098235D01*
X110323081Y-79212954D01*
X110165180Y-79593223D01*
X110164821Y-80004971D01*
X110322058Y-80385515D01*
X110612954Y-80676919D01*
X110993223Y-80834820D01*
X111404971Y-80835179D01*
X111738000Y-80697575D01*
X111738000Y-85873000D01*
X107000000Y-85873000D01*
X106950590Y-85883006D01*
X106908965Y-85911447D01*
X106881685Y-85953841D01*
X106873000Y-86000000D01*
X106873000Y-86688000D01*
X106850000Y-86688000D01*
X106565609Y-86744569D01*
X106558395Y-86746004D01*
X106311185Y-86911185D01*
X106020145Y-87202225D01*
X105889090Y-86998559D01*
X105676890Y-86853569D01*
X105425000Y-86802560D01*
X105025000Y-86802560D01*
X104895411Y-86826944D01*
X104775000Y-86802560D01*
X104375000Y-86802560D01*
X104245411Y-86826944D01*
X104125000Y-86802560D01*
X103725000Y-86802560D01*
X103595411Y-86826944D01*
X103475000Y-86802560D01*
X103075000Y-86802560D01*
X102839683Y-86846838D01*
X102623559Y-86985910D01*
X102478569Y-87198110D01*
X102427560Y-87450000D01*
X102427560Y-87695845D01*
X102199000Y-87649560D01*
X100899000Y-87649560D01*
X100663683Y-87693838D01*
X100447559Y-87832910D01*
X100302569Y-88045110D01*
X100251560Y-88297000D01*
X100251560Y-88997000D01*
X100295838Y-89232317D01*
X100434910Y-89448441D01*
X100647110Y-89593431D01*
X100660197Y-89596081D01*
X100557756Y-89662000D01*
X87879579Y-89662000D01*
X87590131Y-89372552D01*
X87440942Y-89011485D01*
X87150046Y-88720081D01*
X86769777Y-88562180D01*
X86358029Y-88561821D01*
X85977485Y-88719058D01*
X85801000Y-88895235D01*
X85801000Y-84100000D01*
X107502560Y-84100000D01*
X107502560Y-85000000D01*
X107546838Y-85235317D01*
X107685910Y-85451441D01*
X107898110Y-85596431D01*
X108150000Y-85647440D01*
X109850000Y-85647440D01*
X110085317Y-85603162D01*
X110301441Y-85464090D01*
X110446431Y-85251890D01*
X110497440Y-85000000D01*
X110497440Y-84100000D01*
X110453162Y-83864683D01*
X110314090Y-83648559D01*
X110297440Y-83637183D01*
X110297440Y-83100000D01*
X110253162Y-82864683D01*
X110114090Y-82648559D01*
X109901890Y-82503569D01*
X109868510Y-82496809D01*
X110009699Y-82438327D01*
X110188327Y-82259698D01*
X110285000Y-82026309D01*
X110285000Y-81835750D01*
X110126250Y-81677000D01*
X109127000Y-81677000D01*
X109127000Y-81697000D01*
X108873000Y-81697000D01*
X108873000Y-81677000D01*
X107873750Y-81677000D01*
X107715000Y-81835750D01*
X107715000Y-82026309D01*
X107811673Y-82259698D01*
X107990301Y-82438327D01*
X108126287Y-82494654D01*
X108114683Y-82496838D01*
X107898559Y-82635910D01*
X107753569Y-82848110D01*
X107702560Y-83100000D01*
X107702560Y-83633335D01*
X107698559Y-83635910D01*
X107553569Y-83848110D01*
X107502560Y-84100000D01*
X85801000Y-84100000D01*
X85801000Y-83876630D01*
X88815630Y-80862000D01*
X98098235Y-80862000D01*
X98212954Y-80976919D01*
X98593223Y-81134820D01*
X99004971Y-81135179D01*
X99385515Y-80977942D01*
X99676919Y-80687046D01*
X99834820Y-80306777D01*
X99835179Y-79895029D01*
X99713170Y-79599744D01*
X99834820Y-79306777D01*
X99835179Y-78895029D01*
X99677942Y-78514485D01*
X99387046Y-78223081D01*
X99006777Y-78065180D01*
X98595029Y-78064821D01*
X98214485Y-78222058D01*
X98098341Y-78338000D01*
X88900000Y-78338000D01*
X88608395Y-78396004D01*
X88361185Y-78561185D01*
X84109185Y-82813185D01*
X83944004Y-83060395D01*
X83886000Y-83352000D01*
X83886000Y-92408834D01*
X83863520Y-92373899D01*
X83651320Y-92228909D01*
X83399430Y-92177900D01*
X81763684Y-92177900D01*
X81812000Y-91935000D01*
X81812000Y-90373790D01*
X81911954Y-90473919D01*
X82292223Y-90631820D01*
X82703971Y-90632179D01*
X83084515Y-90474942D01*
X83375919Y-90184046D01*
X83533820Y-89803777D01*
X83534179Y-89392029D01*
X83384000Y-89028567D01*
X83384000Y-82104000D01*
X83316633Y-81765325D01*
X83124790Y-81478210D01*
X83124787Y-81478208D01*
X80711790Y-79065210D01*
X80604053Y-78993223D01*
X80424675Y-78873367D01*
X80367530Y-78862000D01*
X80086000Y-78805999D01*
X80085995Y-78806000D01*
X74146824Y-78806000D01*
X73906670Y-78446585D01*
X73420489Y-78121729D01*
X72847000Y-78007655D01*
X72273511Y-78121729D01*
X71787330Y-78446585D01*
X71577000Y-78761366D01*
X71366670Y-78446585D01*
X70880489Y-78121729D01*
X70307000Y-78007655D01*
X69733511Y-78121729D01*
X69247330Y-78446585D01*
X69232500Y-78468780D01*
X69168927Y-78315302D01*
X68990299Y-78136673D01*
X68756910Y-78040000D01*
X68127000Y-78040000D01*
X68127000Y-76885750D01*
X102340000Y-76885750D01*
X102340000Y-77226309D01*
X102436673Y-77459698D01*
X102615301Y-77638327D01*
X102848690Y-77735000D01*
X103314250Y-77735000D01*
X103473000Y-77576250D01*
X103473000Y-76727000D01*
X102498750Y-76727000D01*
X102340000Y-76885750D01*
X68127000Y-76885750D01*
X68127000Y-76127000D01*
X87000000Y-76127000D01*
X87049410Y-76116994D01*
X87091035Y-76088553D01*
X87118315Y-76046159D01*
X87127000Y-76000000D01*
X87127000Y-71136350D01*
X90007255Y-71136350D01*
X90099792Y-71398019D01*
X90691398Y-71616188D01*
X91321461Y-71591352D01*
X91788208Y-71398019D01*
X91880745Y-71136350D01*
X90944000Y-70199605D01*
X90007255Y-71136350D01*
X87127000Y-71136350D01*
X87127000Y-69767398D01*
X89347812Y-69767398D01*
X89372648Y-70397461D01*
X89565981Y-70864208D01*
X89827650Y-70956745D01*
X90764395Y-70020000D01*
X89827650Y-69083255D01*
X89565981Y-69175792D01*
X89347812Y-69767398D01*
X87127000Y-69767398D01*
X87127000Y-68903650D01*
X90007255Y-68903650D01*
X90944000Y-69840395D01*
X91880745Y-68903650D01*
X91788208Y-68641981D01*
X91196602Y-68423812D01*
X90566539Y-68448648D01*
X90099792Y-68641981D01*
X90007255Y-68903650D01*
X87127000Y-68903650D01*
X87127000Y-65127000D01*
X113042000Y-65127000D01*
X113042000Y-67380369D01*
X113042000Y-67380369D01*
G37*
X113042000Y-67380369D02*
X111961185Y-68461185D01*
X111892090Y-68564593D01*
X111580659Y-68435276D01*
X110950107Y-68434725D01*
X110367343Y-68675519D01*
X109993739Y-69048471D01*
X109623003Y-68677086D01*
X109040659Y-68435276D01*
X108529053Y-68434829D01*
X108576919Y-68387046D01*
X108734820Y-68006777D01*
X108735179Y-67595029D01*
X108577942Y-67214485D01*
X108287046Y-66923081D01*
X107906777Y-66765180D01*
X107495029Y-66764821D01*
X107114485Y-66922058D01*
X106823081Y-67212954D01*
X106665180Y-67593223D01*
X106665141Y-67637444D01*
X106582367Y-67761326D01*
X106514999Y-68100000D01*
X106582367Y-68438674D01*
X106610599Y-68480927D01*
X106500659Y-68435276D01*
X105870107Y-68434725D01*
X105287343Y-68675519D01*
X104913739Y-69048471D01*
X104543003Y-68677086D01*
X103960659Y-68435276D01*
X103330107Y-68434725D01*
X102747343Y-68675519D01*
X102373739Y-69048471D01*
X102003003Y-68677086D01*
X101420659Y-68435276D01*
X100790107Y-68434725D01*
X100207343Y-68675519D01*
X99833739Y-69048471D01*
X99463003Y-68677086D01*
X98880659Y-68435276D01*
X98250107Y-68434725D01*
X97667343Y-68675519D01*
X97293739Y-69048471D01*
X96923003Y-68677086D01*
X96340659Y-68435276D01*
X95710107Y-68434725D01*
X95127343Y-68675519D01*
X94753739Y-69048471D01*
X94383003Y-68677086D01*
X93800659Y-68435276D01*
X93170107Y-68434725D01*
X92587343Y-68675519D01*
X92147884Y-69114211D01*
X92060350Y-69083255D01*
X91123605Y-70020000D01*
X92060350Y-70956745D01*
X92148439Y-70925593D01*
X92584997Y-71362914D01*
X93167341Y-71604724D01*
X93797893Y-71605275D01*
X94380657Y-71364481D01*
X94754261Y-70991529D01*
X95124997Y-71362914D01*
X95707341Y-71604724D01*
X96337893Y-71605275D01*
X96920657Y-71364481D01*
X97294261Y-70991529D01*
X97664997Y-71362914D01*
X98247341Y-71604724D01*
X98877893Y-71605275D01*
X99460657Y-71364481D01*
X99834261Y-70991529D01*
X100204997Y-71362914D01*
X100787341Y-71604724D01*
X101417893Y-71605275D01*
X102000657Y-71364481D01*
X102374261Y-70991529D01*
X102432884Y-71050255D01*
X102402560Y-71200000D01*
X102402560Y-71900000D01*
X102446838Y-72135317D01*
X102585910Y-72351441D01*
X102798110Y-72496431D01*
X102811197Y-72499081D01*
X102598559Y-72635910D01*
X102453569Y-72848110D01*
X102402560Y-73100000D01*
X102402560Y-73800000D01*
X102404478Y-73810191D01*
X102378569Y-73848110D01*
X102327560Y-74100000D01*
X102327560Y-75100000D01*
X102371838Y-75335317D01*
X102510910Y-75551441D01*
X102579006Y-75597969D01*
X102436673Y-75740302D01*
X102340000Y-75973691D01*
X102340000Y-76314250D01*
X102498750Y-76473000D01*
X103473000Y-76473000D01*
X103473000Y-76453000D01*
X103727000Y-76453000D01*
X103727000Y-76473000D01*
X103747000Y-76473000D01*
X103747000Y-76727000D01*
X103727000Y-76727000D01*
X103727000Y-77576250D01*
X103885750Y-77735000D01*
X104138000Y-77735000D01*
X104138000Y-80198235D01*
X104023081Y-80312954D01*
X103865180Y-80693223D01*
X103864821Y-81104971D01*
X104022058Y-81485515D01*
X104312954Y-81776919D01*
X104693223Y-81934820D01*
X105104971Y-81935179D01*
X105485515Y-81777942D01*
X105776919Y-81487046D01*
X105934820Y-81106777D01*
X105935179Y-80695029D01*
X105777942Y-80314485D01*
X105662000Y-80198341D01*
X105662000Y-77735000D01*
X105914250Y-77735000D01*
X106073000Y-77576250D01*
X106073000Y-76727000D01*
X106053000Y-76727000D01*
X106053000Y-76473000D01*
X106073000Y-76473000D01*
X106073000Y-76453000D01*
X106327000Y-76453000D01*
X106327000Y-76473000D01*
X106347000Y-76473000D01*
X106347000Y-76727000D01*
X106327000Y-76727000D01*
X106327000Y-77576250D01*
X106485750Y-77735000D01*
X106951310Y-77735000D01*
X107072632Y-77684747D01*
X107193223Y-77734820D01*
X107338000Y-77734946D01*
X107338000Y-78145544D01*
X107296004Y-78208395D01*
X107238000Y-78500000D01*
X107238000Y-79798235D01*
X107123081Y-79912954D01*
X106965180Y-80293223D01*
X106964821Y-80704971D01*
X107122058Y-81085515D01*
X107412954Y-81376919D01*
X107793223Y-81534820D01*
X108204971Y-81535179D01*
X108476466Y-81423000D01*
X108873000Y-81423000D01*
X108873000Y-81403000D01*
X109127000Y-81403000D01*
X109127000Y-81423000D01*
X110126250Y-81423000D01*
X110285000Y-81264250D01*
X110285000Y-81073691D01*
X110188327Y-80840302D01*
X110009699Y-80661673D01*
X109776310Y-80565000D01*
X109285750Y-80565000D01*
X109127002Y-80723748D01*
X109127002Y-80565000D01*
X109034944Y-80565000D01*
X109035179Y-80295029D01*
X108959774Y-80112535D01*
X109285515Y-79977942D01*
X109576919Y-79687046D01*
X109734820Y-79306777D01*
X109735179Y-78895029D01*
X109577942Y-78514485D01*
X109462000Y-78398341D01*
X109462000Y-77054456D01*
X109503996Y-76991605D01*
X109505834Y-76982367D01*
X109562000Y-76700000D01*
X109562000Y-71388718D01*
X109620657Y-71364481D01*
X109994261Y-70991529D01*
X110364997Y-71362914D01*
X110438000Y-71393227D01*
X110438000Y-79098235D01*
X110323081Y-79212954D01*
X110165180Y-79593223D01*
X110164821Y-80004971D01*
X110322058Y-80385515D01*
X110612954Y-80676919D01*
X110993223Y-80834820D01*
X111404971Y-80835179D01*
X111738000Y-80697575D01*
X111738000Y-85873000D01*
X107000000Y-85873000D01*
X106950590Y-85883006D01*
X106908965Y-85911447D01*
X106881685Y-85953841D01*
X106873000Y-86000000D01*
X106873000Y-86688000D01*
X106850000Y-86688000D01*
X106565609Y-86744569D01*
X106558395Y-86746004D01*
X106311185Y-86911185D01*
X106020145Y-87202225D01*
X105889090Y-86998559D01*
X105676890Y-86853569D01*
X105425000Y-86802560D01*
X105025000Y-86802560D01*
X104895411Y-86826944D01*
X104775000Y-86802560D01*
X104375000Y-86802560D01*
X104245411Y-86826944D01*
X104125000Y-86802560D01*
X103725000Y-86802560D01*
X103595411Y-86826944D01*
X103475000Y-86802560D01*
X103075000Y-86802560D01*
X102839683Y-86846838D01*
X102623559Y-86985910D01*
X102478569Y-87198110D01*
X102427560Y-87450000D01*
X102427560Y-87695845D01*
X102199000Y-87649560D01*
X100899000Y-87649560D01*
X100663683Y-87693838D01*
X100447559Y-87832910D01*
X100302569Y-88045110D01*
X100251560Y-88297000D01*
X100251560Y-88997000D01*
X100295838Y-89232317D01*
X100434910Y-89448441D01*
X100647110Y-89593431D01*
X100660197Y-89596081D01*
X100557756Y-89662000D01*
X87879579Y-89662000D01*
X87590131Y-89372552D01*
X87440942Y-89011485D01*
X87150046Y-88720081D01*
X86769777Y-88562180D01*
X86358029Y-88561821D01*
X85977485Y-88719058D01*
X85801000Y-88895235D01*
X85801000Y-84100000D01*
X107502560Y-84100000D01*
X107502560Y-85000000D01*
X107546838Y-85235317D01*
X107685910Y-85451441D01*
X107898110Y-85596431D01*
X108150000Y-85647440D01*
X109850000Y-85647440D01*
X110085317Y-85603162D01*
X110301441Y-85464090D01*
X110446431Y-85251890D01*
X110497440Y-85000000D01*
X110497440Y-84100000D01*
X110453162Y-83864683D01*
X110314090Y-83648559D01*
X110297440Y-83637183D01*
X110297440Y-83100000D01*
X110253162Y-82864683D01*
X110114090Y-82648559D01*
X109901890Y-82503569D01*
X109868510Y-82496809D01*
X110009699Y-82438327D01*
X110188327Y-82259698D01*
X110285000Y-82026309D01*
X110285000Y-81835750D01*
X110126250Y-81677000D01*
X109127000Y-81677000D01*
X109127000Y-81697000D01*
X108873000Y-81697000D01*
X108873000Y-81677000D01*
X107873750Y-81677000D01*
X107715000Y-81835750D01*
X107715000Y-82026309D01*
X107811673Y-82259698D01*
X107990301Y-82438327D01*
X108126287Y-82494654D01*
X108114683Y-82496838D01*
X107898559Y-82635910D01*
X107753569Y-82848110D01*
X107702560Y-83100000D01*
X107702560Y-83633335D01*
X107698559Y-83635910D01*
X107553569Y-83848110D01*
X107502560Y-84100000D01*
X85801000Y-84100000D01*
X85801000Y-83876630D01*
X88815630Y-80862000D01*
X98098235Y-80862000D01*
X98212954Y-80976919D01*
X98593223Y-81134820D01*
X99004971Y-81135179D01*
X99385515Y-80977942D01*
X99676919Y-80687046D01*
X99834820Y-80306777D01*
X99835179Y-79895029D01*
X99713170Y-79599744D01*
X99834820Y-79306777D01*
X99835179Y-78895029D01*
X99677942Y-78514485D01*
X99387046Y-78223081D01*
X99006777Y-78065180D01*
X98595029Y-78064821D01*
X98214485Y-78222058D01*
X98098341Y-78338000D01*
X88900000Y-78338000D01*
X88608395Y-78396004D01*
X88361185Y-78561185D01*
X84109185Y-82813185D01*
X83944004Y-83060395D01*
X83886000Y-83352000D01*
X83886000Y-92408834D01*
X83863520Y-92373899D01*
X83651320Y-92228909D01*
X83399430Y-92177900D01*
X81763684Y-92177900D01*
X81812000Y-91935000D01*
X81812000Y-90373790D01*
X81911954Y-90473919D01*
X82292223Y-90631820D01*
X82703971Y-90632179D01*
X83084515Y-90474942D01*
X83375919Y-90184046D01*
X83533820Y-89803777D01*
X83534179Y-89392029D01*
X83384000Y-89028567D01*
X83384000Y-82104000D01*
X83316633Y-81765325D01*
X83124790Y-81478210D01*
X83124787Y-81478208D01*
X80711790Y-79065210D01*
X80604053Y-78993223D01*
X80424675Y-78873367D01*
X80367530Y-78862000D01*
X80086000Y-78805999D01*
X80085995Y-78806000D01*
X74146824Y-78806000D01*
X73906670Y-78446585D01*
X73420489Y-78121729D01*
X72847000Y-78007655D01*
X72273511Y-78121729D01*
X71787330Y-78446585D01*
X71577000Y-78761366D01*
X71366670Y-78446585D01*
X70880489Y-78121729D01*
X70307000Y-78007655D01*
X69733511Y-78121729D01*
X69247330Y-78446585D01*
X69232500Y-78468780D01*
X69168927Y-78315302D01*
X68990299Y-78136673D01*
X68756910Y-78040000D01*
X68127000Y-78040000D01*
X68127000Y-76885750D01*
X102340000Y-76885750D01*
X102340000Y-77226309D01*
X102436673Y-77459698D01*
X102615301Y-77638327D01*
X102848690Y-77735000D01*
X103314250Y-77735000D01*
X103473000Y-77576250D01*
X103473000Y-76727000D01*
X102498750Y-76727000D01*
X102340000Y-76885750D01*
X68127000Y-76885750D01*
X68127000Y-76127000D01*
X87000000Y-76127000D01*
X87049410Y-76116994D01*
X87091035Y-76088553D01*
X87118315Y-76046159D01*
X87127000Y-76000000D01*
X87127000Y-71136350D01*
X90007255Y-71136350D01*
X90099792Y-71398019D01*
X90691398Y-71616188D01*
X91321461Y-71591352D01*
X91788208Y-71398019D01*
X91880745Y-71136350D01*
X90944000Y-70199605D01*
X90007255Y-71136350D01*
X87127000Y-71136350D01*
X87127000Y-69767398D01*
X89347812Y-69767398D01*
X89372648Y-70397461D01*
X89565981Y-70864208D01*
X89827650Y-70956745D01*
X90764395Y-70020000D01*
X89827650Y-69083255D01*
X89565981Y-69175792D01*
X89347812Y-69767398D01*
X87127000Y-69767398D01*
X87127000Y-68903650D01*
X90007255Y-68903650D01*
X90944000Y-69840395D01*
X91880745Y-68903650D01*
X91788208Y-68641981D01*
X91196602Y-68423812D01*
X90566539Y-68448648D01*
X90099792Y-68641981D01*
X90007255Y-68903650D01*
X87127000Y-68903650D01*
X87127000Y-65127000D01*
X113042000Y-65127000D01*
X113042000Y-67380369D01*
G36*
X117864821Y-77604971D02*
X118022058Y-77985515D01*
X118229276Y-78193094D01*
X117161185Y-79261185D01*
X116996004Y-79508395D01*
X116938000Y-79800000D01*
X116938000Y-82100000D01*
X116996004Y-82391605D01*
X117116579Y-82572058D01*
X117161185Y-82638815D01*
X117364963Y-82842593D01*
X117364821Y-83004971D01*
X117522058Y-83385515D01*
X117812954Y-83676919D01*
X118193223Y-83834820D01*
X118604971Y-83835179D01*
X118985515Y-83677942D01*
X119276919Y-83387046D01*
X119434820Y-83006777D01*
X119435179Y-82595029D01*
X119277942Y-82214485D01*
X119166969Y-82103318D01*
X119138816Y-82061184D01*
X119097050Y-82033277D01*
X119013101Y-81949182D01*
X119185515Y-81877942D01*
X119476919Y-81587046D01*
X119487319Y-81562000D01*
X120790000Y-81562000D01*
X120790000Y-81614250D01*
X120948750Y-81773000D01*
X121923000Y-81773000D01*
X121923000Y-81753000D01*
X122177000Y-81753000D01*
X122177000Y-81773000D01*
X122197000Y-81773000D01*
X122197000Y-82027000D01*
X122177000Y-82027000D01*
X122177000Y-82047000D01*
X121923000Y-82047000D01*
X121923000Y-82027000D01*
X120948750Y-82027000D01*
X120790000Y-82185750D01*
X120790000Y-82526309D01*
X120886673Y-82759698D01*
X121027910Y-82900936D01*
X120973559Y-82935910D01*
X120828569Y-83148110D01*
X120777560Y-83400000D01*
X120777560Y-84400000D01*
X120821838Y-84635317D01*
X120960910Y-84851441D01*
X121173110Y-84996431D01*
X121425000Y-85047440D01*
X122327560Y-85047440D01*
X122327560Y-85050000D01*
X122371838Y-85285317D01*
X122510910Y-85501441D01*
X122723110Y-85646431D01*
X122736197Y-85649081D01*
X122523559Y-85785910D01*
X122378569Y-85998110D01*
X122327560Y-86250000D01*
X122327560Y-86837531D01*
X122186069Y-87044610D01*
X122135060Y-87296500D01*
X122135060Y-87753500D01*
X122147575Y-87820010D01*
X122147500Y-87820191D01*
X122147500Y-87902000D01*
X122166595Y-87921095D01*
X122179338Y-87988817D01*
X122217420Y-88047998D01*
X122147500Y-88047998D01*
X122147500Y-88063000D01*
X121697988Y-88063000D01*
X121677942Y-88014485D01*
X121387046Y-87723081D01*
X121006777Y-87565180D01*
X120595029Y-87564821D01*
X120214485Y-87722058D01*
X119923081Y-88012954D01*
X119765180Y-88393223D01*
X119764905Y-88708845D01*
X119710000Y-88763750D01*
X119710000Y-89613000D01*
X120540674Y-89613000D01*
X120593223Y-89634820D01*
X121004971Y-89635179D01*
X121121574Y-89587000D01*
X122135060Y-89587000D01*
X122135060Y-89703500D01*
X122179338Y-89938817D01*
X122204552Y-89978000D01*
X120795250Y-89978000D01*
X120684250Y-89867000D01*
X119710000Y-89867000D01*
X119710000Y-89887000D01*
X119456000Y-89887000D01*
X119456000Y-89867000D01*
X118481750Y-89867000D01*
X118370750Y-89978000D01*
X115580630Y-89978000D01*
X115369815Y-89767185D01*
X115362054Y-89761999D01*
X115122605Y-89602004D01*
X114831000Y-89544000D01*
X114763818Y-89544000D01*
X114674090Y-89404559D01*
X114461890Y-89259569D01*
X114210000Y-89208560D01*
X113534080Y-89208560D01*
X113534820Y-89206777D01*
X113534901Y-89113691D01*
X118323000Y-89113691D01*
X118323000Y-89454250D01*
X118481750Y-89613000D01*
X119456000Y-89613000D01*
X119456000Y-88763750D01*
X119297250Y-88605000D01*
X118831690Y-88605000D01*
X118598301Y-88701673D01*
X118419673Y-88880302D01*
X118323000Y-89113691D01*
X113534901Y-89113691D01*
X113535005Y-88994858D01*
X113603996Y-88891605D01*
X113616450Y-88828996D01*
X113662000Y-88600000D01*
X113662000Y-87290750D01*
X114427000Y-87290750D01*
X114427000Y-87631309D01*
X114523673Y-87864698D01*
X114702301Y-88043327D01*
X114935690Y-88140000D01*
X116376250Y-88140000D01*
X116535000Y-87981250D01*
X116535000Y-87132000D01*
X116789000Y-87132000D01*
X116789000Y-87981250D01*
X116947750Y-88140000D01*
X118388310Y-88140000D01*
X118621699Y-88043327D01*
X118800327Y-87864698D01*
X118897000Y-87631309D01*
X118897000Y-87290750D01*
X118738250Y-87132000D01*
X116789000Y-87132000D01*
X116535000Y-87132000D01*
X114585750Y-87132000D01*
X114427000Y-87290750D01*
X113662000Y-87290750D01*
X113662000Y-86378691D01*
X114427000Y-86378691D01*
X114427000Y-86719250D01*
X114585750Y-86878000D01*
X116535000Y-86878000D01*
X116535000Y-86028750D01*
X116789000Y-86028750D01*
X116789000Y-86878000D01*
X118738250Y-86878000D01*
X118897000Y-86719250D01*
X118897000Y-86378691D01*
X118800327Y-86145302D01*
X118621699Y-85966673D01*
X118388310Y-85870000D01*
X116947750Y-85870000D01*
X116789000Y-86028750D01*
X116535000Y-86028750D01*
X116376250Y-85870000D01*
X114935690Y-85870000D01*
X114702301Y-85966673D01*
X114523673Y-86145302D01*
X114427000Y-86378691D01*
X113662000Y-86378691D01*
X113662000Y-81415630D01*
X117865163Y-77212468D01*
X117864821Y-77604971D01*
X117864821Y-77604971D01*
G37*
X117864821Y-77604971D02*
X118022058Y-77985515D01*
X118229276Y-78193094D01*
X117161185Y-79261185D01*
X116996004Y-79508395D01*
X116938000Y-79800000D01*
X116938000Y-82100000D01*
X116996004Y-82391605D01*
X117116579Y-82572058D01*
X117161185Y-82638815D01*
X117364963Y-82842593D01*
X117364821Y-83004971D01*
X117522058Y-83385515D01*
X117812954Y-83676919D01*
X118193223Y-83834820D01*
X118604971Y-83835179D01*
X118985515Y-83677942D01*
X119276919Y-83387046D01*
X119434820Y-83006777D01*
X119435179Y-82595029D01*
X119277942Y-82214485D01*
X119166969Y-82103318D01*
X119138816Y-82061184D01*
X119097050Y-82033277D01*
X119013101Y-81949182D01*
X119185515Y-81877942D01*
X119476919Y-81587046D01*
X119487319Y-81562000D01*
X120790000Y-81562000D01*
X120790000Y-81614250D01*
X120948750Y-81773000D01*
X121923000Y-81773000D01*
X121923000Y-81753000D01*
X122177000Y-81753000D01*
X122177000Y-81773000D01*
X122197000Y-81773000D01*
X122197000Y-82027000D01*
X122177000Y-82027000D01*
X122177000Y-82047000D01*
X121923000Y-82047000D01*
X121923000Y-82027000D01*
X120948750Y-82027000D01*
X120790000Y-82185750D01*
X120790000Y-82526309D01*
X120886673Y-82759698D01*
X121027910Y-82900936D01*
X120973559Y-82935910D01*
X120828569Y-83148110D01*
X120777560Y-83400000D01*
X120777560Y-84400000D01*
X120821838Y-84635317D01*
X120960910Y-84851441D01*
X121173110Y-84996431D01*
X121425000Y-85047440D01*
X122327560Y-85047440D01*
X122327560Y-85050000D01*
X122371838Y-85285317D01*
X122510910Y-85501441D01*
X122723110Y-85646431D01*
X122736197Y-85649081D01*
X122523559Y-85785910D01*
X122378569Y-85998110D01*
X122327560Y-86250000D01*
X122327560Y-86837531D01*
X122186069Y-87044610D01*
X122135060Y-87296500D01*
X122135060Y-87753500D01*
X122147575Y-87820010D01*
X122147500Y-87820191D01*
X122147500Y-87902000D01*
X122166595Y-87921095D01*
X122179338Y-87988817D01*
X122217420Y-88047998D01*
X122147500Y-88047998D01*
X122147500Y-88063000D01*
X121697988Y-88063000D01*
X121677942Y-88014485D01*
X121387046Y-87723081D01*
X121006777Y-87565180D01*
X120595029Y-87564821D01*
X120214485Y-87722058D01*
X119923081Y-88012954D01*
X119765180Y-88393223D01*
X119764905Y-88708845D01*
X119710000Y-88763750D01*
X119710000Y-89613000D01*
X120540674Y-89613000D01*
X120593223Y-89634820D01*
X121004971Y-89635179D01*
X121121574Y-89587000D01*
X122135060Y-89587000D01*
X122135060Y-89703500D01*
X122179338Y-89938817D01*
X122204552Y-89978000D01*
X120795250Y-89978000D01*
X120684250Y-89867000D01*
X119710000Y-89867000D01*
X119710000Y-89887000D01*
X119456000Y-89887000D01*
X119456000Y-89867000D01*
X118481750Y-89867000D01*
X118370750Y-89978000D01*
X115580630Y-89978000D01*
X115369815Y-89767185D01*
X115362054Y-89761999D01*
X115122605Y-89602004D01*
X114831000Y-89544000D01*
X114763818Y-89544000D01*
X114674090Y-89404559D01*
X114461890Y-89259569D01*
X114210000Y-89208560D01*
X113534080Y-89208560D01*
X113534820Y-89206777D01*
X113534901Y-89113691D01*
X118323000Y-89113691D01*
X118323000Y-89454250D01*
X118481750Y-89613000D01*
X119456000Y-89613000D01*
X119456000Y-88763750D01*
X119297250Y-88605000D01*
X118831690Y-88605000D01*
X118598301Y-88701673D01*
X118419673Y-88880302D01*
X118323000Y-89113691D01*
X113534901Y-89113691D01*
X113535005Y-88994858D01*
X113603996Y-88891605D01*
X113616450Y-88828996D01*
X113662000Y-88600000D01*
X113662000Y-87290750D01*
X114427000Y-87290750D01*
X114427000Y-87631309D01*
X114523673Y-87864698D01*
X114702301Y-88043327D01*
X114935690Y-88140000D01*
X116376250Y-88140000D01*
X116535000Y-87981250D01*
X116535000Y-87132000D01*
X116789000Y-87132000D01*
X116789000Y-87981250D01*
X116947750Y-88140000D01*
X118388310Y-88140000D01*
X118621699Y-88043327D01*
X118800327Y-87864698D01*
X118897000Y-87631309D01*
X118897000Y-87290750D01*
X118738250Y-87132000D01*
X116789000Y-87132000D01*
X116535000Y-87132000D01*
X114585750Y-87132000D01*
X114427000Y-87290750D01*
X113662000Y-87290750D01*
X113662000Y-86378691D01*
X114427000Y-86378691D01*
X114427000Y-86719250D01*
X114585750Y-86878000D01*
X116535000Y-86878000D01*
X116535000Y-86028750D01*
X116789000Y-86028750D01*
X116789000Y-86878000D01*
X118738250Y-86878000D01*
X118897000Y-86719250D01*
X118897000Y-86378691D01*
X118800327Y-86145302D01*
X118621699Y-85966673D01*
X118388310Y-85870000D01*
X116947750Y-85870000D01*
X116789000Y-86028750D01*
X116535000Y-86028750D01*
X116376250Y-85870000D01*
X114935690Y-85870000D01*
X114702301Y-85966673D01*
X114523673Y-86145302D01*
X114427000Y-86378691D01*
X113662000Y-86378691D01*
X113662000Y-81415630D01*
X117865163Y-77212468D01*
X117864821Y-77604971D01*
G36*
X128845000Y-43516119D02*
X128703569Y-43723110D01*
X128652560Y-43975000D01*
X128652560Y-45225000D01*
X128696838Y-45460317D01*
X128835910Y-45676441D01*
X128915000Y-45730481D01*
X128915000Y-50221195D01*
X128823081Y-50312954D01*
X128665180Y-50693223D01*
X128664821Y-51104971D01*
X128822058Y-51485515D01*
X129112954Y-51776919D01*
X129493223Y-51934820D01*
X129904971Y-51935179D01*
X130238000Y-51797575D01*
X130238000Y-51900000D01*
X130296004Y-52191605D01*
X130461185Y-52438815D01*
X133938000Y-55915630D01*
X133938000Y-65861192D01*
X133706777Y-65765180D01*
X133295029Y-65764821D01*
X132914485Y-65922058D01*
X132623081Y-66212954D01*
X132465180Y-66593223D01*
X132464821Y-67004971D01*
X132615000Y-67368433D01*
X132615000Y-77339207D01*
X132414485Y-77422058D01*
X132123081Y-77712954D01*
X131965180Y-78093223D01*
X131964821Y-78504971D01*
X132122058Y-78885515D01*
X132412954Y-79176919D01*
X132793223Y-79334820D01*
X133204971Y-79335179D01*
X133585515Y-79177942D01*
X133780020Y-78983776D01*
X133822058Y-79085515D01*
X134112954Y-79376919D01*
X134493223Y-79534820D01*
X134904971Y-79535179D01*
X135285515Y-79377942D01*
X135576919Y-79087046D01*
X135734820Y-78706777D01*
X135735179Y-78295029D01*
X135577942Y-77914485D01*
X135462000Y-77798341D01*
X135462000Y-77675614D01*
X135662954Y-77876919D01*
X136043223Y-78034820D01*
X136454971Y-78035179D01*
X136835515Y-77877942D01*
X137126919Y-77587046D01*
X137284820Y-77206777D01*
X137285179Y-76795029D01*
X137127942Y-76414485D01*
X137060916Y-76347342D01*
X137151441Y-76289090D01*
X137199134Y-76219289D01*
X137235910Y-76276441D01*
X137448110Y-76421431D01*
X137700000Y-76472440D01*
X138700000Y-76472440D01*
X138935317Y-76428162D01*
X139151441Y-76289090D01*
X139152390Y-76287701D01*
X139348110Y-76421431D01*
X139600000Y-76472440D01*
X140065024Y-76472440D01*
X140064821Y-76704971D01*
X140222058Y-77085515D01*
X140512954Y-77376919D01*
X140893223Y-77534820D01*
X141304971Y-77535179D01*
X141685515Y-77377942D01*
X141976919Y-77087046D01*
X142134820Y-76706777D01*
X142135024Y-76472440D01*
X142600000Y-76472440D01*
X142835317Y-76428162D01*
X143051441Y-76289090D01*
X143196431Y-76076890D01*
X143247440Y-75825000D01*
X143247440Y-74575000D01*
X143225036Y-74455934D01*
X143367317Y-74429162D01*
X143583441Y-74290090D01*
X143639374Y-74208230D01*
X143683910Y-74277441D01*
X143896110Y-74422431D01*
X144148000Y-74473440D01*
X144342940Y-74473440D01*
X144357386Y-80974000D01*
X143236750Y-80974000D01*
X143078000Y-81132750D01*
X143078000Y-82667000D01*
X143098000Y-82667000D01*
X143098000Y-82921000D01*
X143078000Y-82921000D01*
X143078000Y-84455250D01*
X143236750Y-84614000D01*
X144365475Y-84614000D01*
X144371225Y-87201560D01*
X140886000Y-87201560D01*
X140650683Y-87245838D01*
X140434559Y-87384910D01*
X140289569Y-87597110D01*
X140238560Y-87849000D01*
X140238560Y-87873000D01*
X137701440Y-87873000D01*
X137701440Y-87341000D01*
X137657162Y-87105683D01*
X137518090Y-86889559D01*
X137305890Y-86744569D01*
X137054000Y-86693560D01*
X134624000Y-86693560D01*
X134388683Y-86737838D01*
X134172559Y-86876910D01*
X134027569Y-87089110D01*
X133976560Y-87341000D01*
X133976560Y-87873000D01*
X133540660Y-87873000D01*
X133560000Y-87826309D01*
X133560000Y-87485750D01*
X133401250Y-87327000D01*
X132427000Y-87327000D01*
X132427000Y-87347000D01*
X132173000Y-87347000D01*
X132173000Y-87327000D01*
X132153000Y-87327000D01*
X132153000Y-87073000D01*
X132173000Y-87073000D01*
X132173000Y-87053000D01*
X132427000Y-87053000D01*
X132427000Y-87073000D01*
X133401250Y-87073000D01*
X133560000Y-86914250D01*
X133560000Y-86595030D01*
X133561698Y-86594327D01*
X133740327Y-86415699D01*
X133837000Y-86182310D01*
X133837000Y-85691750D01*
X133678250Y-85533000D01*
X132979000Y-85533000D01*
X132979000Y-85553000D01*
X132725000Y-85553000D01*
X132725000Y-85533000D01*
X132705000Y-85533000D01*
X132705000Y-85279000D01*
X132725000Y-85279000D01*
X132725000Y-84525250D01*
X132775000Y-84475250D01*
X132775000Y-84279750D01*
X132979000Y-84279750D01*
X132979000Y-85279000D01*
X133678250Y-85279000D01*
X133837000Y-85120250D01*
X133837000Y-84629690D01*
X133787892Y-84511133D01*
X133940327Y-84358699D01*
X134037000Y-84125310D01*
X134037000Y-83713191D01*
X134085673Y-83830698D01*
X134264301Y-84009327D01*
X134497690Y-84106000D01*
X135553250Y-84106000D01*
X135712000Y-83947250D01*
X135712000Y-82413000D01*
X135966000Y-82413000D01*
X135966000Y-83947250D01*
X136124750Y-84106000D01*
X137180310Y-84106000D01*
X137413699Y-84009327D01*
X137592327Y-83830698D01*
X137689000Y-83597309D01*
X137689000Y-83079750D01*
X140251000Y-83079750D01*
X140251000Y-84105309D01*
X140347673Y-84338698D01*
X140526301Y-84517327D01*
X140759690Y-84614000D01*
X142665250Y-84614000D01*
X142824000Y-84455250D01*
X142824000Y-82921000D01*
X140409750Y-82921000D01*
X140251000Y-83079750D01*
X137689000Y-83079750D01*
X137689000Y-82571750D01*
X137530250Y-82413000D01*
X135966000Y-82413000D01*
X135712000Y-82413000D01*
X134147750Y-82413000D01*
X134008021Y-82552729D01*
X133940327Y-82389301D01*
X133761698Y-82210673D01*
X133528309Y-82114000D01*
X133187750Y-82114000D01*
X133029000Y-82272750D01*
X133029000Y-83247000D01*
X133049000Y-83247000D01*
X133049000Y-83501000D01*
X133029000Y-83501000D01*
X133029000Y-84229750D01*
X132979000Y-84279750D01*
X132775000Y-84279750D01*
X132775000Y-83501000D01*
X132755000Y-83501000D01*
X132755000Y-83247000D01*
X132775000Y-83247000D01*
X132775000Y-82272750D01*
X132616250Y-82114000D01*
X132275691Y-82114000D01*
X132042302Y-82210673D01*
X131901064Y-82351910D01*
X131866090Y-82297559D01*
X131653890Y-82152569D01*
X131402000Y-82101560D01*
X130402000Y-82101560D01*
X130166683Y-82145838D01*
X129950559Y-82284910D01*
X129805569Y-82497110D01*
X129754560Y-82749000D01*
X129754560Y-83269861D01*
X129174210Y-83850210D01*
X129162000Y-83868484D01*
X129162000Y-81000000D01*
X129131654Y-80847440D01*
X129506326Y-80847440D01*
X129522058Y-80885515D01*
X129812954Y-81176919D01*
X130193223Y-81334820D01*
X130604971Y-81335179D01*
X130985515Y-81177942D01*
X131189120Y-80974691D01*
X133989000Y-80974691D01*
X133989000Y-82000250D01*
X134147750Y-82159000D01*
X135712000Y-82159000D01*
X135712000Y-80624750D01*
X135966000Y-80624750D01*
X135966000Y-82159000D01*
X137530250Y-82159000D01*
X137689000Y-82000250D01*
X137689000Y-81482691D01*
X140251000Y-81482691D01*
X140251000Y-82508250D01*
X140409750Y-82667000D01*
X142824000Y-82667000D01*
X142824000Y-81132750D01*
X142665250Y-80974000D01*
X140759690Y-80974000D01*
X140526301Y-81070673D01*
X140347673Y-81249302D01*
X140251000Y-81482691D01*
X137689000Y-81482691D01*
X137689000Y-80974691D01*
X137592327Y-80741302D01*
X137413699Y-80562673D01*
X137180310Y-80466000D01*
X136124750Y-80466000D01*
X135966000Y-80624750D01*
X135712000Y-80624750D01*
X135553250Y-80466000D01*
X134497690Y-80466000D01*
X134264301Y-80562673D01*
X134085673Y-80741302D01*
X133989000Y-80974691D01*
X131189120Y-80974691D01*
X131276919Y-80887046D01*
X131434820Y-80506777D01*
X131435179Y-80095029D01*
X131357274Y-79906483D01*
X131476919Y-79787046D01*
X131634820Y-79406777D01*
X131635179Y-78995029D01*
X131477942Y-78614485D01*
X131187046Y-78323081D01*
X131012783Y-78250721D01*
X131276919Y-77987046D01*
X131434820Y-77606777D01*
X131435179Y-77195029D01*
X131277942Y-76814485D01*
X131162000Y-76698341D01*
X131162000Y-74300000D01*
X131103996Y-74008395D01*
X131029190Y-73896440D01*
X130938815Y-73761184D01*
X130164846Y-72987215D01*
X130165179Y-72605029D01*
X130007942Y-72224485D01*
X129717046Y-71933081D01*
X129336777Y-71775180D01*
X129062000Y-71774940D01*
X129062000Y-71334880D01*
X129404971Y-71335179D01*
X129785515Y-71177942D01*
X130076919Y-70887046D01*
X130234820Y-70506777D01*
X130235179Y-70095029D01*
X130077942Y-69714485D01*
X129985000Y-69621381D01*
X129985000Y-68934987D01*
X130204971Y-68935179D01*
X130585515Y-68777942D01*
X130876919Y-68487046D01*
X131034820Y-68106777D01*
X131035179Y-67695029D01*
X130877942Y-67314485D01*
X130587046Y-67023081D01*
X130206777Y-66865180D01*
X129985000Y-66864987D01*
X129985000Y-63767585D01*
X130134820Y-63406777D01*
X130135179Y-62995029D01*
X129985000Y-62631567D01*
X129985000Y-60500000D01*
X129917633Y-60161325D01*
X129725790Y-59874210D01*
X129725787Y-59874208D01*
X128485000Y-58633420D01*
X128485000Y-43127000D01*
X128845000Y-43127000D01*
X128845000Y-43516119D01*
X128845000Y-43516119D01*
G37*
X128845000Y-43516119D02*
X128703569Y-43723110D01*
X128652560Y-43975000D01*
X128652560Y-45225000D01*
X128696838Y-45460317D01*
X128835910Y-45676441D01*
X128915000Y-45730481D01*
X128915000Y-50221195D01*
X128823081Y-50312954D01*
X128665180Y-50693223D01*
X128664821Y-51104971D01*
X128822058Y-51485515D01*
X129112954Y-51776919D01*
X129493223Y-51934820D01*
X129904971Y-51935179D01*
X130238000Y-51797575D01*
X130238000Y-51900000D01*
X130296004Y-52191605D01*
X130461185Y-52438815D01*
X133938000Y-55915630D01*
X133938000Y-65861192D01*
X133706777Y-65765180D01*
X133295029Y-65764821D01*
X132914485Y-65922058D01*
X132623081Y-66212954D01*
X132465180Y-66593223D01*
X132464821Y-67004971D01*
X132615000Y-67368433D01*
X132615000Y-77339207D01*
X132414485Y-77422058D01*
X132123081Y-77712954D01*
X131965180Y-78093223D01*
X131964821Y-78504971D01*
X132122058Y-78885515D01*
X132412954Y-79176919D01*
X132793223Y-79334820D01*
X133204971Y-79335179D01*
X133585515Y-79177942D01*
X133780020Y-78983776D01*
X133822058Y-79085515D01*
X134112954Y-79376919D01*
X134493223Y-79534820D01*
X134904971Y-79535179D01*
X135285515Y-79377942D01*
X135576919Y-79087046D01*
X135734820Y-78706777D01*
X135735179Y-78295029D01*
X135577942Y-77914485D01*
X135462000Y-77798341D01*
X135462000Y-77675614D01*
X135662954Y-77876919D01*
X136043223Y-78034820D01*
X136454971Y-78035179D01*
X136835515Y-77877942D01*
X137126919Y-77587046D01*
X137284820Y-77206777D01*
X137285179Y-76795029D01*
X137127942Y-76414485D01*
X137060916Y-76347342D01*
X137151441Y-76289090D01*
X137199134Y-76219289D01*
X137235910Y-76276441D01*
X137448110Y-76421431D01*
X137700000Y-76472440D01*
X138700000Y-76472440D01*
X138935317Y-76428162D01*
X139151441Y-76289090D01*
X139152390Y-76287701D01*
X139348110Y-76421431D01*
X139600000Y-76472440D01*
X140065024Y-76472440D01*
X140064821Y-76704971D01*
X140222058Y-77085515D01*
X140512954Y-77376919D01*
X140893223Y-77534820D01*
X141304971Y-77535179D01*
X141685515Y-77377942D01*
X141976919Y-77087046D01*
X142134820Y-76706777D01*
X142135024Y-76472440D01*
X142600000Y-76472440D01*
X142835317Y-76428162D01*
X143051441Y-76289090D01*
X143196431Y-76076890D01*
X143247440Y-75825000D01*
X143247440Y-74575000D01*
X143225036Y-74455934D01*
X143367317Y-74429162D01*
X143583441Y-74290090D01*
X143639374Y-74208230D01*
X143683910Y-74277441D01*
X143896110Y-74422431D01*
X144148000Y-74473440D01*
X144342940Y-74473440D01*
X144357386Y-80974000D01*
X143236750Y-80974000D01*
X143078000Y-81132750D01*
X143078000Y-82667000D01*
X143098000Y-82667000D01*
X143098000Y-82921000D01*
X143078000Y-82921000D01*
X143078000Y-84455250D01*
X143236750Y-84614000D01*
X144365475Y-84614000D01*
X144371225Y-87201560D01*
X140886000Y-87201560D01*
X140650683Y-87245838D01*
X140434559Y-87384910D01*
X140289569Y-87597110D01*
X140238560Y-87849000D01*
X140238560Y-87873000D01*
X137701440Y-87873000D01*
X137701440Y-87341000D01*
X137657162Y-87105683D01*
X137518090Y-86889559D01*
X137305890Y-86744569D01*
X137054000Y-86693560D01*
X134624000Y-86693560D01*
X134388683Y-86737838D01*
X134172559Y-86876910D01*
X134027569Y-87089110D01*
X133976560Y-87341000D01*
X133976560Y-87873000D01*
X133540660Y-87873000D01*
X133560000Y-87826309D01*
X133560000Y-87485750D01*
X133401250Y-87327000D01*
X132427000Y-87327000D01*
X132427000Y-87347000D01*
X132173000Y-87347000D01*
X132173000Y-87327000D01*
X132153000Y-87327000D01*
X132153000Y-87073000D01*
X132173000Y-87073000D01*
X132173000Y-87053000D01*
X132427000Y-87053000D01*
X132427000Y-87073000D01*
X133401250Y-87073000D01*
X133560000Y-86914250D01*
X133560000Y-86595030D01*
X133561698Y-86594327D01*
X133740327Y-86415699D01*
X133837000Y-86182310D01*
X133837000Y-85691750D01*
X133678250Y-85533000D01*
X132979000Y-85533000D01*
X132979000Y-85553000D01*
X132725000Y-85553000D01*
X132725000Y-85533000D01*
X132705000Y-85533000D01*
X132705000Y-85279000D01*
X132725000Y-85279000D01*
X132725000Y-84525250D01*
X132775000Y-84475250D01*
X132775000Y-84279750D01*
X132979000Y-84279750D01*
X132979000Y-85279000D01*
X133678250Y-85279000D01*
X133837000Y-85120250D01*
X133837000Y-84629690D01*
X133787892Y-84511133D01*
X133940327Y-84358699D01*
X134037000Y-84125310D01*
X134037000Y-83713191D01*
X134085673Y-83830698D01*
X134264301Y-84009327D01*
X134497690Y-84106000D01*
X135553250Y-84106000D01*
X135712000Y-83947250D01*
X135712000Y-82413000D01*
X135966000Y-82413000D01*
X135966000Y-83947250D01*
X136124750Y-84106000D01*
X137180310Y-84106000D01*
X137413699Y-84009327D01*
X137592327Y-83830698D01*
X137689000Y-83597309D01*
X137689000Y-83079750D01*
X140251000Y-83079750D01*
X140251000Y-84105309D01*
X140347673Y-84338698D01*
X140526301Y-84517327D01*
X140759690Y-84614000D01*
X142665250Y-84614000D01*
X142824000Y-84455250D01*
X142824000Y-82921000D01*
X140409750Y-82921000D01*
X140251000Y-83079750D01*
X137689000Y-83079750D01*
X137689000Y-82571750D01*
X137530250Y-82413000D01*
X135966000Y-82413000D01*
X135712000Y-82413000D01*
X134147750Y-82413000D01*
X134008021Y-82552729D01*
X133940327Y-82389301D01*
X133761698Y-82210673D01*
X133528309Y-82114000D01*
X133187750Y-82114000D01*
X133029000Y-82272750D01*
X133029000Y-83247000D01*
X133049000Y-83247000D01*
X133049000Y-83501000D01*
X133029000Y-83501000D01*
X133029000Y-84229750D01*
X132979000Y-84279750D01*
X132775000Y-84279750D01*
X132775000Y-83501000D01*
X132755000Y-83501000D01*
X132755000Y-83247000D01*
X132775000Y-83247000D01*
X132775000Y-82272750D01*
X132616250Y-82114000D01*
X132275691Y-82114000D01*
X132042302Y-82210673D01*
X131901064Y-82351910D01*
X131866090Y-82297559D01*
X131653890Y-82152569D01*
X131402000Y-82101560D01*
X130402000Y-82101560D01*
X130166683Y-82145838D01*
X129950559Y-82284910D01*
X129805569Y-82497110D01*
X129754560Y-82749000D01*
X129754560Y-83269861D01*
X129174210Y-83850210D01*
X129162000Y-83868484D01*
X129162000Y-81000000D01*
X129131654Y-80847440D01*
X129506326Y-80847440D01*
X129522058Y-80885515D01*
X129812954Y-81176919D01*
X130193223Y-81334820D01*
X130604971Y-81335179D01*
X130985515Y-81177942D01*
X131189120Y-80974691D01*
X133989000Y-80974691D01*
X133989000Y-82000250D01*
X134147750Y-82159000D01*
X135712000Y-82159000D01*
X135712000Y-80624750D01*
X135966000Y-80624750D01*
X135966000Y-82159000D01*
X137530250Y-82159000D01*
X137689000Y-82000250D01*
X137689000Y-81482691D01*
X140251000Y-81482691D01*
X140251000Y-82508250D01*
X140409750Y-82667000D01*
X142824000Y-82667000D01*
X142824000Y-81132750D01*
X142665250Y-80974000D01*
X140759690Y-80974000D01*
X140526301Y-81070673D01*
X140347673Y-81249302D01*
X140251000Y-81482691D01*
X137689000Y-81482691D01*
X137689000Y-80974691D01*
X137592327Y-80741302D01*
X137413699Y-80562673D01*
X137180310Y-80466000D01*
X136124750Y-80466000D01*
X135966000Y-80624750D01*
X135712000Y-80624750D01*
X135553250Y-80466000D01*
X134497690Y-80466000D01*
X134264301Y-80562673D01*
X134085673Y-80741302D01*
X133989000Y-80974691D01*
X131189120Y-80974691D01*
X131276919Y-80887046D01*
X131434820Y-80506777D01*
X131435179Y-80095029D01*
X131357274Y-79906483D01*
X131476919Y-79787046D01*
X131634820Y-79406777D01*
X131635179Y-78995029D01*
X131477942Y-78614485D01*
X131187046Y-78323081D01*
X131012783Y-78250721D01*
X131276919Y-77987046D01*
X131434820Y-77606777D01*
X131435179Y-77195029D01*
X131277942Y-76814485D01*
X131162000Y-76698341D01*
X131162000Y-74300000D01*
X131103996Y-74008395D01*
X131029190Y-73896440D01*
X130938815Y-73761184D01*
X130164846Y-72987215D01*
X130165179Y-72605029D01*
X130007942Y-72224485D01*
X129717046Y-71933081D01*
X129336777Y-71775180D01*
X129062000Y-71774940D01*
X129062000Y-71334880D01*
X129404971Y-71335179D01*
X129785515Y-71177942D01*
X130076919Y-70887046D01*
X130234820Y-70506777D01*
X130235179Y-70095029D01*
X130077942Y-69714485D01*
X129985000Y-69621381D01*
X129985000Y-68934987D01*
X130204971Y-68935179D01*
X130585515Y-68777942D01*
X130876919Y-68487046D01*
X131034820Y-68106777D01*
X131035179Y-67695029D01*
X130877942Y-67314485D01*
X130587046Y-67023081D01*
X130206777Y-66865180D01*
X129985000Y-66864987D01*
X129985000Y-63767585D01*
X130134820Y-63406777D01*
X130135179Y-62995029D01*
X129985000Y-62631567D01*
X129985000Y-60500000D01*
X129917633Y-60161325D01*
X129725790Y-59874210D01*
X129725787Y-59874208D01*
X128485000Y-58633420D01*
X128485000Y-43127000D01*
X128845000Y-43127000D01*
X128845000Y-43516119D01*
G36*
X81393981Y-82250560D02*
X79217000Y-82250560D01*
X78981683Y-82294838D01*
X78765559Y-82433910D01*
X78743275Y-82466524D01*
X78744540Y-82460832D01*
X78623214Y-82231000D01*
X76530000Y-82231000D01*
X76530000Y-82251000D01*
X76276000Y-82251000D01*
X76276000Y-82231000D01*
X74182786Y-82231000D01*
X74061460Y-82460832D01*
X74082351Y-82554810D01*
X74199525Y-82767417D01*
X74062185Y-82859185D01*
X72741636Y-84179734D01*
X72370907Y-84025794D01*
X71720666Y-84025226D01*
X71555473Y-84093483D01*
X70314440Y-82852450D01*
X70314440Y-81747168D01*
X74061460Y-81747168D01*
X74182786Y-81977000D01*
X76276000Y-81977000D01*
X76276000Y-80619370D01*
X76530000Y-80619370D01*
X76530000Y-81977000D01*
X78623214Y-81977000D01*
X78744540Y-81747168D01*
X78723649Y-81653190D01*
X78443024Y-81144011D01*
X77988906Y-80780982D01*
X77430430Y-80619370D01*
X76530000Y-80619370D01*
X76276000Y-80619370D01*
X75375570Y-80619370D01*
X74817094Y-80780982D01*
X74362976Y-81144011D01*
X74082351Y-81653190D01*
X74061460Y-81747168D01*
X70314440Y-81747168D01*
X70314440Y-81508000D01*
X70288602Y-81370686D01*
X70307000Y-81374345D01*
X70880489Y-81260271D01*
X71366670Y-80935415D01*
X71577000Y-80620634D01*
X71787330Y-80935415D01*
X72273511Y-81260271D01*
X72847000Y-81374345D01*
X73420489Y-81260271D01*
X73906670Y-80935415D01*
X74146824Y-80576000D01*
X79719420Y-80576000D01*
X81393981Y-82250560D01*
X81393981Y-82250560D01*
G37*
X81393981Y-82250560D02*
X79217000Y-82250560D01*
X78981683Y-82294838D01*
X78765559Y-82433910D01*
X78743275Y-82466524D01*
X78744540Y-82460832D01*
X78623214Y-82231000D01*
X76530000Y-82231000D01*
X76530000Y-82251000D01*
X76276000Y-82251000D01*
X76276000Y-82231000D01*
X74182786Y-82231000D01*
X74061460Y-82460832D01*
X74082351Y-82554810D01*
X74199525Y-82767417D01*
X74062185Y-82859185D01*
X72741636Y-84179734D01*
X72370907Y-84025794D01*
X71720666Y-84025226D01*
X71555473Y-84093483D01*
X70314440Y-82852450D01*
X70314440Y-81747168D01*
X74061460Y-81747168D01*
X74182786Y-81977000D01*
X76276000Y-81977000D01*
X76276000Y-80619370D01*
X76530000Y-80619370D01*
X76530000Y-81977000D01*
X78623214Y-81977000D01*
X78744540Y-81747168D01*
X78723649Y-81653190D01*
X78443024Y-81144011D01*
X77988906Y-80780982D01*
X77430430Y-80619370D01*
X76530000Y-80619370D01*
X76276000Y-80619370D01*
X75375570Y-80619370D01*
X74817094Y-80780982D01*
X74362976Y-81144011D01*
X74082351Y-81653190D01*
X74061460Y-81747168D01*
X70314440Y-81747168D01*
X70314440Y-81508000D01*
X70288602Y-81370686D01*
X70307000Y-81374345D01*
X70880489Y-81260271D01*
X71366670Y-80935415D01*
X71577000Y-80620634D01*
X71787330Y-80935415D01*
X72273511Y-81260271D01*
X72847000Y-81374345D01*
X73420489Y-81260271D01*
X73906670Y-80935415D01*
X74146824Y-80576000D01*
X79719420Y-80576000D01*
X81393981Y-82250560D01*
G36*
X127452000Y-81773000D02*
X127472000Y-81773000D01*
X127472000Y-82027000D01*
X127452000Y-82027000D01*
X127452000Y-82047000D01*
X127198000Y-82047000D01*
X127198000Y-82027000D01*
X127178000Y-82027000D01*
X127178000Y-81773000D01*
X127198000Y-81773000D01*
X127198000Y-81753000D01*
X127452000Y-81753000D01*
X127452000Y-81773000D01*
X127452000Y-81773000D01*
G37*
X127452000Y-81773000D02*
X127472000Y-81773000D01*
X127472000Y-82027000D01*
X127452000Y-82027000D01*
X127452000Y-82047000D01*
X127198000Y-82047000D01*
X127198000Y-82027000D01*
X127178000Y-82027000D01*
X127178000Y-81773000D01*
X127198000Y-81773000D01*
X127198000Y-81753000D01*
X127452000Y-81753000D01*
X127452000Y-81773000D01*
G36*
X126715000Y-58999995D02*
X126714999Y-59000000D01*
X126757585Y-59214090D01*
X126782367Y-59338675D01*
X126931587Y-59562000D01*
X126974210Y-59625790D01*
X128215000Y-60866579D01*
X128215000Y-62632415D01*
X128065180Y-62993223D01*
X128064821Y-63404971D01*
X128215000Y-63768433D01*
X128215000Y-67565100D01*
X127895029Y-67564821D01*
X127514485Y-67722058D01*
X127223081Y-68012954D01*
X127065180Y-68393223D01*
X127064821Y-68804971D01*
X127222058Y-69185515D01*
X127512954Y-69476919D01*
X127538000Y-69487319D01*
X127538000Y-73000000D01*
X127596004Y-73291605D01*
X127729112Y-73490815D01*
X127761185Y-73538815D01*
X127944906Y-73722536D01*
X127806777Y-73665180D01*
X127395029Y-73664821D01*
X127014485Y-73822058D01*
X126723081Y-74112954D01*
X126606979Y-74392560D01*
X126550000Y-74392560D01*
X126314683Y-74436838D01*
X126098559Y-74575910D01*
X125953569Y-74788110D01*
X125902560Y-75040000D01*
X125902560Y-75460000D01*
X125946838Y-75695317D01*
X126080270Y-75902677D01*
X125953569Y-76088110D01*
X125902560Y-76340000D01*
X125902560Y-76760000D01*
X125946838Y-76995317D01*
X125965000Y-77023542D01*
X125965000Y-77487370D01*
X125835037Y-77357407D01*
X125835179Y-77195029D01*
X125677942Y-76814485D01*
X125387046Y-76523081D01*
X125006777Y-76365180D01*
X124595029Y-76364821D01*
X124214485Y-76522058D01*
X123923081Y-76812954D01*
X123765180Y-77193223D01*
X123764821Y-77604971D01*
X123922058Y-77985515D01*
X124212954Y-78276919D01*
X124593223Y-78434820D01*
X124757333Y-78434963D01*
X127197998Y-80875628D01*
X127197998Y-80923748D01*
X127039250Y-80765000D01*
X126573690Y-80765000D01*
X126362302Y-80852560D01*
X125730191Y-80852560D01*
X124338815Y-79461185D01*
X124091605Y-79296004D01*
X123800000Y-79238000D01*
X119339630Y-79238000D01*
X120238815Y-78338815D01*
X120403996Y-78091605D01*
X120415291Y-78034820D01*
X120462000Y-77800000D01*
X120462000Y-77090568D01*
X120500338Y-77294317D01*
X120639410Y-77510441D01*
X120851610Y-77655431D01*
X121103500Y-77706440D01*
X122246500Y-77706440D01*
X122481817Y-77662162D01*
X122697941Y-77523090D01*
X122842931Y-77310890D01*
X122893940Y-77059000D01*
X122893940Y-76663690D01*
X124038816Y-75518815D01*
X124159087Y-75338816D01*
X124203996Y-75271605D01*
X124262000Y-74980000D01*
X124262000Y-74915630D01*
X124738815Y-74438816D01*
X124903996Y-74191605D01*
X124910047Y-74161185D01*
X124962000Y-73900000D01*
X124962000Y-72901765D01*
X125076919Y-72787046D01*
X125234820Y-72406777D01*
X125235179Y-71995029D01*
X125077942Y-71614485D01*
X124837801Y-71373925D01*
X124860657Y-71364481D01*
X125306914Y-70919003D01*
X125548724Y-70336659D01*
X125549275Y-69706107D01*
X125308481Y-69123343D01*
X124863003Y-68677086D01*
X124280659Y-68435276D01*
X123942649Y-68434981D01*
X124372659Y-68004971D01*
X124964821Y-68004971D01*
X125122058Y-68385515D01*
X125412954Y-68676919D01*
X125793223Y-68834820D01*
X126204971Y-68835179D01*
X126585515Y-68677942D01*
X126876919Y-68387046D01*
X127034820Y-68006777D01*
X127035179Y-67595029D01*
X126877942Y-67214485D01*
X126587046Y-66923081D01*
X126206777Y-66765180D01*
X125795029Y-66764821D01*
X125414485Y-66922058D01*
X125123081Y-67212954D01*
X124965180Y-67593223D01*
X124964821Y-68004971D01*
X124372659Y-68004971D01*
X124502815Y-67874815D01*
X124547195Y-67808396D01*
X124667996Y-67627605D01*
X124726000Y-67336000D01*
X124726000Y-62482336D01*
X125093223Y-62634820D01*
X125504971Y-62635179D01*
X125885515Y-62477942D01*
X126176919Y-62187046D01*
X126334820Y-61806777D01*
X126335179Y-61395029D01*
X126177942Y-61014485D01*
X125887046Y-60723081D01*
X125506777Y-60565180D01*
X125095029Y-60564821D01*
X124726000Y-60717300D01*
X124726000Y-58887702D01*
X124876919Y-58737046D01*
X125034820Y-58356777D01*
X125035179Y-57945029D01*
X124877942Y-57564485D01*
X124587046Y-57273081D01*
X124206777Y-57115180D01*
X123795029Y-57114821D01*
X123462000Y-57252425D01*
X123462000Y-57001765D01*
X123576919Y-56887046D01*
X123734820Y-56506777D01*
X123734944Y-56364801D01*
X124277893Y-56365275D01*
X124860657Y-56124481D01*
X125306914Y-55679003D01*
X125548724Y-55096659D01*
X125549275Y-54466107D01*
X125308481Y-53883343D01*
X124863003Y-53437086D01*
X124280659Y-53195276D01*
X123650107Y-53194725D01*
X123067343Y-53435519D01*
X122693739Y-53808471D01*
X122323003Y-53437086D01*
X121740659Y-53195276D01*
X121110107Y-53194725D01*
X120527343Y-53435519D01*
X120153739Y-53808471D01*
X119783003Y-53437086D01*
X119200659Y-53195276D01*
X118570107Y-53194725D01*
X117987343Y-53435519D01*
X117613739Y-53808471D01*
X117243003Y-53437086D01*
X116660659Y-53195276D01*
X116127000Y-53194810D01*
X116127000Y-50200000D01*
X116116994Y-50150590D01*
X116088553Y-50108965D01*
X116046159Y-50081685D01*
X116000000Y-50073000D01*
X114000000Y-50073000D01*
X113950590Y-50083006D01*
X113908965Y-50111447D01*
X113881685Y-50153841D01*
X113873000Y-50200000D01*
X113873000Y-53195060D01*
X113490107Y-53194725D01*
X112907343Y-53435519D01*
X112533739Y-53808471D01*
X112163003Y-53437086D01*
X111580659Y-53195276D01*
X110950107Y-53194725D01*
X110367343Y-53435519D01*
X109993739Y-53808471D01*
X109623003Y-53437086D01*
X109040659Y-53195276D01*
X108410107Y-53194725D01*
X107827343Y-53435519D01*
X107453739Y-53808471D01*
X107083003Y-53437086D01*
X106500659Y-53195276D01*
X105870107Y-53194725D01*
X105747440Y-53245410D01*
X105747440Y-52175000D01*
X105703549Y-51941740D01*
X105747440Y-51725000D01*
X105747440Y-50475000D01*
X105703162Y-50239683D01*
X105564090Y-50023559D01*
X105351890Y-49878569D01*
X105100000Y-49827560D01*
X104100000Y-49827560D01*
X103864683Y-49871838D01*
X103648559Y-50010910D01*
X103602031Y-50079006D01*
X103459698Y-49936673D01*
X103226309Y-49840000D01*
X102885750Y-49840000D01*
X102727000Y-49998750D01*
X102727000Y-50973000D01*
X102747000Y-50973000D01*
X102747000Y-51227000D01*
X102727000Y-51227000D01*
X102727000Y-52673000D01*
X102747000Y-52673000D01*
X102747000Y-52927000D01*
X102727000Y-52927000D01*
X102727000Y-52947000D01*
X102534872Y-52947000D01*
X102535179Y-52595029D01*
X102473000Y-52444544D01*
X102473000Y-51227000D01*
X101623750Y-51227000D01*
X101465000Y-51385750D01*
X101465000Y-51764969D01*
X101432000Y-51764940D01*
X101432000Y-50835630D01*
X101465000Y-50802630D01*
X101465000Y-50814250D01*
X101623750Y-50973000D01*
X102473000Y-50973000D01*
X102473000Y-49998750D01*
X102370940Y-49896690D01*
X103695631Y-48572000D01*
X110465024Y-48572000D01*
X110464821Y-48804971D01*
X110622058Y-49185515D01*
X110679406Y-49242963D01*
X109557407Y-50364963D01*
X109395029Y-50364821D01*
X109014485Y-50522058D01*
X108723081Y-50812954D01*
X108565180Y-51193223D01*
X108564821Y-51604971D01*
X108722058Y-51985515D01*
X109012954Y-52276919D01*
X109393223Y-52434820D01*
X109804971Y-52435179D01*
X110185515Y-52277942D01*
X110249857Y-52213712D01*
X110312954Y-52276919D01*
X110693223Y-52434820D01*
X111104971Y-52435179D01*
X111485515Y-52277942D01*
X111776919Y-51987046D01*
X111934820Y-51606777D01*
X111934963Y-51442667D01*
X112838815Y-50538815D01*
X112889504Y-50462954D01*
X113003996Y-50291605D01*
X113062000Y-50000000D01*
X113062000Y-49111615D01*
X113385515Y-48977942D01*
X113564613Y-48799157D01*
X113780000Y-48842000D01*
X120205476Y-48842000D01*
X120238395Y-48863996D01*
X120530000Y-48922000D01*
X121948235Y-48922000D01*
X122062954Y-49036919D01*
X122443223Y-49194820D01*
X122854971Y-49195179D01*
X123235515Y-49037942D01*
X123526919Y-48747046D01*
X123684820Y-48366777D01*
X123685179Y-47955029D01*
X123527942Y-47574485D01*
X123237046Y-47283081D01*
X122856777Y-47125180D01*
X122445029Y-47124821D01*
X122064485Y-47282058D01*
X121948341Y-47398000D01*
X120774524Y-47398000D01*
X120741605Y-47376004D01*
X120450000Y-47318000D01*
X116127000Y-47318000D01*
X116127000Y-43685000D01*
X124000000Y-43685000D01*
X124262138Y-43632857D01*
X124484368Y-43484368D01*
X124632857Y-43262138D01*
X124659738Y-43127000D01*
X126715000Y-43127000D01*
X126715000Y-58999995D01*
X126715000Y-58999995D01*
G37*
X126715000Y-58999995D02*
X126714999Y-59000000D01*
X126757585Y-59214090D01*
X126782367Y-59338675D01*
X126931587Y-59562000D01*
X126974210Y-59625790D01*
X128215000Y-60866579D01*
X128215000Y-62632415D01*
X128065180Y-62993223D01*
X128064821Y-63404971D01*
X128215000Y-63768433D01*
X128215000Y-67565100D01*
X127895029Y-67564821D01*
X127514485Y-67722058D01*
X127223081Y-68012954D01*
X127065180Y-68393223D01*
X127064821Y-68804971D01*
X127222058Y-69185515D01*
X127512954Y-69476919D01*
X127538000Y-69487319D01*
X127538000Y-73000000D01*
X127596004Y-73291605D01*
X127729112Y-73490815D01*
X127761185Y-73538815D01*
X127944906Y-73722536D01*
X127806777Y-73665180D01*
X127395029Y-73664821D01*
X127014485Y-73822058D01*
X126723081Y-74112954D01*
X126606979Y-74392560D01*
X126550000Y-74392560D01*
X126314683Y-74436838D01*
X126098559Y-74575910D01*
X125953569Y-74788110D01*
X125902560Y-75040000D01*
X125902560Y-75460000D01*
X125946838Y-75695317D01*
X126080270Y-75902677D01*
X125953569Y-76088110D01*
X125902560Y-76340000D01*
X125902560Y-76760000D01*
X125946838Y-76995317D01*
X125965000Y-77023542D01*
X125965000Y-77487370D01*
X125835037Y-77357407D01*
X125835179Y-77195029D01*
X125677942Y-76814485D01*
X125387046Y-76523081D01*
X125006777Y-76365180D01*
X124595029Y-76364821D01*
X124214485Y-76522058D01*
X123923081Y-76812954D01*
X123765180Y-77193223D01*
X123764821Y-77604971D01*
X123922058Y-77985515D01*
X124212954Y-78276919D01*
X124593223Y-78434820D01*
X124757333Y-78434963D01*
X127197998Y-80875628D01*
X127197998Y-80923748D01*
X127039250Y-80765000D01*
X126573690Y-80765000D01*
X126362302Y-80852560D01*
X125730191Y-80852560D01*
X124338815Y-79461185D01*
X124091605Y-79296004D01*
X123800000Y-79238000D01*
X119339630Y-79238000D01*
X120238815Y-78338815D01*
X120403996Y-78091605D01*
X120415291Y-78034820D01*
X120462000Y-77800000D01*
X120462000Y-77090568D01*
X120500338Y-77294317D01*
X120639410Y-77510441D01*
X120851610Y-77655431D01*
X121103500Y-77706440D01*
X122246500Y-77706440D01*
X122481817Y-77662162D01*
X122697941Y-77523090D01*
X122842931Y-77310890D01*
X122893940Y-77059000D01*
X122893940Y-76663690D01*
X124038816Y-75518815D01*
X124159087Y-75338816D01*
X124203996Y-75271605D01*
X124262000Y-74980000D01*
X124262000Y-74915630D01*
X124738815Y-74438816D01*
X124903996Y-74191605D01*
X124910047Y-74161185D01*
X124962000Y-73900000D01*
X124962000Y-72901765D01*
X125076919Y-72787046D01*
X125234820Y-72406777D01*
X125235179Y-71995029D01*
X125077942Y-71614485D01*
X124837801Y-71373925D01*
X124860657Y-71364481D01*
X125306914Y-70919003D01*
X125548724Y-70336659D01*
X125549275Y-69706107D01*
X125308481Y-69123343D01*
X124863003Y-68677086D01*
X124280659Y-68435276D01*
X123942649Y-68434981D01*
X124372659Y-68004971D01*
X124964821Y-68004971D01*
X125122058Y-68385515D01*
X125412954Y-68676919D01*
X125793223Y-68834820D01*
X126204971Y-68835179D01*
X126585515Y-68677942D01*
X126876919Y-68387046D01*
X127034820Y-68006777D01*
X127035179Y-67595029D01*
X126877942Y-67214485D01*
X126587046Y-66923081D01*
X126206777Y-66765180D01*
X125795029Y-66764821D01*
X125414485Y-66922058D01*
X125123081Y-67212954D01*
X124965180Y-67593223D01*
X124964821Y-68004971D01*
X124372659Y-68004971D01*
X124502815Y-67874815D01*
X124547195Y-67808396D01*
X124667996Y-67627605D01*
X124726000Y-67336000D01*
X124726000Y-62482336D01*
X125093223Y-62634820D01*
X125504971Y-62635179D01*
X125885515Y-62477942D01*
X126176919Y-62187046D01*
X126334820Y-61806777D01*
X126335179Y-61395029D01*
X126177942Y-61014485D01*
X125887046Y-60723081D01*
X125506777Y-60565180D01*
X125095029Y-60564821D01*
X124726000Y-60717300D01*
X124726000Y-58887702D01*
X124876919Y-58737046D01*
X125034820Y-58356777D01*
X125035179Y-57945029D01*
X124877942Y-57564485D01*
X124587046Y-57273081D01*
X124206777Y-57115180D01*
X123795029Y-57114821D01*
X123462000Y-57252425D01*
X123462000Y-57001765D01*
X123576919Y-56887046D01*
X123734820Y-56506777D01*
X123734944Y-56364801D01*
X124277893Y-56365275D01*
X124860657Y-56124481D01*
X125306914Y-55679003D01*
X125548724Y-55096659D01*
X125549275Y-54466107D01*
X125308481Y-53883343D01*
X124863003Y-53437086D01*
X124280659Y-53195276D01*
X123650107Y-53194725D01*
X123067343Y-53435519D01*
X122693739Y-53808471D01*
X122323003Y-53437086D01*
X121740659Y-53195276D01*
X121110107Y-53194725D01*
X120527343Y-53435519D01*
X120153739Y-53808471D01*
X119783003Y-53437086D01*
X119200659Y-53195276D01*
X118570107Y-53194725D01*
X117987343Y-53435519D01*
X117613739Y-53808471D01*
X117243003Y-53437086D01*
X116660659Y-53195276D01*
X116127000Y-53194810D01*
X116127000Y-50200000D01*
X116116994Y-50150590D01*
X116088553Y-50108965D01*
X116046159Y-50081685D01*
X116000000Y-50073000D01*
X114000000Y-50073000D01*
X113950590Y-50083006D01*
X113908965Y-50111447D01*
X113881685Y-50153841D01*
X113873000Y-50200000D01*
X113873000Y-53195060D01*
X113490107Y-53194725D01*
X112907343Y-53435519D01*
X112533739Y-53808471D01*
X112163003Y-53437086D01*
X111580659Y-53195276D01*
X110950107Y-53194725D01*
X110367343Y-53435519D01*
X109993739Y-53808471D01*
X109623003Y-53437086D01*
X109040659Y-53195276D01*
X108410107Y-53194725D01*
X107827343Y-53435519D01*
X107453739Y-53808471D01*
X107083003Y-53437086D01*
X106500659Y-53195276D01*
X105870107Y-53194725D01*
X105747440Y-53245410D01*
X105747440Y-52175000D01*
X105703549Y-51941740D01*
X105747440Y-51725000D01*
X105747440Y-50475000D01*
X105703162Y-50239683D01*
X105564090Y-50023559D01*
X105351890Y-49878569D01*
X105100000Y-49827560D01*
X104100000Y-49827560D01*
X103864683Y-49871838D01*
X103648559Y-50010910D01*
X103602031Y-50079006D01*
X103459698Y-49936673D01*
X103226309Y-49840000D01*
X102885750Y-49840000D01*
X102727000Y-49998750D01*
X102727000Y-50973000D01*
X102747000Y-50973000D01*
X102747000Y-51227000D01*
X102727000Y-51227000D01*
X102727000Y-52673000D01*
X102747000Y-52673000D01*
X102747000Y-52927000D01*
X102727000Y-52927000D01*
X102727000Y-52947000D01*
X102534872Y-52947000D01*
X102535179Y-52595029D01*
X102473000Y-52444544D01*
X102473000Y-51227000D01*
X101623750Y-51227000D01*
X101465000Y-51385750D01*
X101465000Y-51764969D01*
X101432000Y-51764940D01*
X101432000Y-50835630D01*
X101465000Y-50802630D01*
X101465000Y-50814250D01*
X101623750Y-50973000D01*
X102473000Y-50973000D01*
X102473000Y-49998750D01*
X102370940Y-49896690D01*
X103695631Y-48572000D01*
X110465024Y-48572000D01*
X110464821Y-48804971D01*
X110622058Y-49185515D01*
X110679406Y-49242963D01*
X109557407Y-50364963D01*
X109395029Y-50364821D01*
X109014485Y-50522058D01*
X108723081Y-50812954D01*
X108565180Y-51193223D01*
X108564821Y-51604971D01*
X108722058Y-51985515D01*
X109012954Y-52276919D01*
X109393223Y-52434820D01*
X109804971Y-52435179D01*
X110185515Y-52277942D01*
X110249857Y-52213712D01*
X110312954Y-52276919D01*
X110693223Y-52434820D01*
X111104971Y-52435179D01*
X111485515Y-52277942D01*
X111776919Y-51987046D01*
X111934820Y-51606777D01*
X111934963Y-51442667D01*
X112838815Y-50538815D01*
X112889504Y-50462954D01*
X113003996Y-50291605D01*
X113062000Y-50000000D01*
X113062000Y-49111615D01*
X113385515Y-48977942D01*
X113564613Y-48799157D01*
X113780000Y-48842000D01*
X120205476Y-48842000D01*
X120238395Y-48863996D01*
X120530000Y-48922000D01*
X121948235Y-48922000D01*
X122062954Y-49036919D01*
X122443223Y-49194820D01*
X122854971Y-49195179D01*
X123235515Y-49037942D01*
X123526919Y-48747046D01*
X123684820Y-48366777D01*
X123685179Y-47955029D01*
X123527942Y-47574485D01*
X123237046Y-47283081D01*
X122856777Y-47125180D01*
X122445029Y-47124821D01*
X122064485Y-47282058D01*
X121948341Y-47398000D01*
X120774524Y-47398000D01*
X120741605Y-47376004D01*
X120450000Y-47318000D01*
X116127000Y-47318000D01*
X116127000Y-43685000D01*
X124000000Y-43685000D01*
X124262138Y-43632857D01*
X124484368Y-43484368D01*
X124632857Y-43262138D01*
X124659738Y-43127000D01*
X126715000Y-43127000D01*
X126715000Y-58999995D01*
G36*
X113727000Y-77073000D02*
X113747000Y-77073000D01*
X113747000Y-77327000D01*
X113727000Y-77327000D01*
X113727000Y-78176250D01*
X113885750Y-78335000D01*
X114351310Y-78335000D01*
X114584699Y-78238327D01*
X114763327Y-78059698D01*
X114860000Y-77826309D01*
X114860000Y-77694000D01*
X115039250Y-77694000D01*
X115197998Y-77535252D01*
X115197998Y-77694000D01*
X115228369Y-77694000D01*
X113262000Y-79660370D01*
X113262000Y-78335000D01*
X113314250Y-78335000D01*
X113473000Y-78176250D01*
X113473000Y-77327000D01*
X113453000Y-77327000D01*
X113453000Y-77073000D01*
X113473000Y-77073000D01*
X113473000Y-77053000D01*
X113727000Y-77053000D01*
X113727000Y-77073000D01*
X113727000Y-77073000D01*
G37*
X113727000Y-77073000D02*
X113747000Y-77073000D01*
X113747000Y-77327000D01*
X113727000Y-77327000D01*
X113727000Y-78176250D01*
X113885750Y-78335000D01*
X114351310Y-78335000D01*
X114584699Y-78238327D01*
X114763327Y-78059698D01*
X114860000Y-77826309D01*
X114860000Y-77694000D01*
X115039250Y-77694000D01*
X115197998Y-77535252D01*
X115197998Y-77694000D01*
X115228369Y-77694000D01*
X113262000Y-79660370D01*
X113262000Y-78335000D01*
X113314250Y-78335000D01*
X113473000Y-78176250D01*
X113473000Y-77327000D01*
X113453000Y-77327000D01*
X113453000Y-77073000D01*
X113473000Y-77073000D01*
X113473000Y-77053000D01*
X113727000Y-77053000D01*
X113727000Y-77073000D01*
G36*
X115452000Y-76678000D02*
X115472000Y-76678000D01*
X115472000Y-76932000D01*
X115452000Y-76932000D01*
X115452000Y-76952000D01*
X115198000Y-76952000D01*
X115198000Y-76932000D01*
X115178000Y-76932000D01*
X115178000Y-76678000D01*
X115198000Y-76678000D01*
X115198000Y-76658000D01*
X115452000Y-76658000D01*
X115452000Y-76678000D01*
X115452000Y-76678000D01*
G37*
X115452000Y-76678000D02*
X115472000Y-76678000D01*
X115472000Y-76932000D01*
X115452000Y-76932000D01*
X115452000Y-76952000D01*
X115198000Y-76952000D01*
X115198000Y-76932000D01*
X115178000Y-76932000D01*
X115178000Y-76678000D01*
X115198000Y-76678000D01*
X115198000Y-76658000D01*
X115452000Y-76658000D01*
X115452000Y-76678000D01*
G36*
X100131185Y-49981185D02*
X99966004Y-50228395D01*
X99908000Y-50520000D01*
X99908000Y-53260000D01*
X99966004Y-53551605D01*
X100016040Y-53626488D01*
X99833739Y-53808471D01*
X99463003Y-53437086D01*
X98947440Y-53223006D01*
X98947440Y-52896798D01*
X98984820Y-52806777D01*
X98985179Y-52395029D01*
X98947440Y-52303693D01*
X98947440Y-51950000D01*
X98903162Y-51714683D01*
X98764090Y-51498559D01*
X98551890Y-51353569D01*
X98300000Y-51302560D01*
X97600000Y-51302560D01*
X97364683Y-51346838D01*
X97148559Y-51485910D01*
X97003569Y-51698110D01*
X97000919Y-51711197D01*
X96864090Y-51498559D01*
X96651890Y-51353569D01*
X96400000Y-51302560D01*
X95700000Y-51302560D01*
X95464683Y-51346838D01*
X95248559Y-51485910D01*
X95103569Y-51698110D01*
X95052560Y-51950000D01*
X95052560Y-53250000D01*
X95093773Y-53469030D01*
X94753739Y-53808471D01*
X94383003Y-53437086D01*
X93800659Y-53195276D01*
X93170107Y-53194725D01*
X92587343Y-53435519D01*
X92213739Y-53808471D01*
X91843003Y-53437086D01*
X91260659Y-53195276D01*
X90630107Y-53194725D01*
X90047343Y-53435519D01*
X89601086Y-53880997D01*
X89359276Y-54463341D01*
X89358725Y-55093893D01*
X89599519Y-55676657D01*
X90044997Y-56122914D01*
X90627341Y-56364724D01*
X91257893Y-56365275D01*
X91840657Y-56124481D01*
X92214261Y-55751529D01*
X92584997Y-56122914D01*
X93167341Y-56364724D01*
X93797893Y-56365275D01*
X94380657Y-56124481D01*
X94754261Y-55751529D01*
X95124997Y-56122914D01*
X95707341Y-56364724D01*
X96337893Y-56365275D01*
X96920657Y-56124481D01*
X97294261Y-55751529D01*
X97592471Y-56050261D01*
X97221086Y-56420997D01*
X96979276Y-57003341D01*
X96978725Y-57633893D01*
X97219519Y-58216657D01*
X97664997Y-58662914D01*
X98247341Y-58904724D01*
X98877893Y-58905275D01*
X99460657Y-58664481D01*
X99834261Y-58291529D01*
X100204997Y-58662914D01*
X100787341Y-58904724D01*
X101417893Y-58905275D01*
X102000657Y-58664481D01*
X102374261Y-58291529D01*
X102744997Y-58662914D01*
X103327341Y-58904724D01*
X103957893Y-58905275D01*
X104540657Y-58664481D01*
X104986914Y-58219003D01*
X105228724Y-57636659D01*
X105229275Y-57006107D01*
X104988481Y-56423343D01*
X104615529Y-56049739D01*
X104914261Y-55751529D01*
X105284997Y-56122914D01*
X105867341Y-56364724D01*
X106497893Y-56365275D01*
X107080657Y-56124481D01*
X107454261Y-55751529D01*
X107824997Y-56122914D01*
X108407341Y-56364724D01*
X109037893Y-56365275D01*
X109620657Y-56124481D01*
X109994261Y-55751529D01*
X110364997Y-56122914D01*
X110947341Y-56364724D01*
X111577893Y-56365275D01*
X111965170Y-56205255D01*
X111964821Y-56604971D01*
X112122058Y-56985515D01*
X112412954Y-57276919D01*
X112793223Y-57434820D01*
X113042000Y-57435037D01*
X113042000Y-62873000D01*
X85000000Y-62873000D01*
X84950590Y-62883006D01*
X84908965Y-62911447D01*
X84881685Y-62953841D01*
X84873000Y-63000000D01*
X84873000Y-73873000D01*
X68127000Y-73873000D01*
X68127000Y-66112619D01*
X68268234Y-66084526D01*
X68653233Y-65827278D01*
X68616887Y-66010000D01*
X68726120Y-66559151D01*
X69037189Y-67024698D01*
X69419275Y-67280000D01*
X69037189Y-67535302D01*
X68726120Y-68000849D01*
X68616887Y-68550000D01*
X68726120Y-69099151D01*
X69037189Y-69564698D01*
X69318000Y-69752330D01*
X69318000Y-69887670D01*
X69037189Y-70075302D01*
X68726120Y-70540849D01*
X68616887Y-71090000D01*
X68726120Y-71639151D01*
X69037189Y-72104698D01*
X69502736Y-72415767D01*
X70051887Y-72525000D01*
X70108113Y-72525000D01*
X70657264Y-72415767D01*
X70951005Y-72219495D01*
X71035910Y-72351441D01*
X71248110Y-72496431D01*
X71500000Y-72547440D01*
X72200000Y-72547440D01*
X72216673Y-72544303D01*
X72561185Y-72888815D01*
X72808395Y-73053996D01*
X73100000Y-73112000D01*
X78100000Y-73112000D01*
X78391605Y-73053996D01*
X78638815Y-72888815D01*
X82538815Y-68988815D01*
X82543913Y-68981185D01*
X82703996Y-68741605D01*
X82762000Y-68450000D01*
X82762000Y-63950000D01*
X82703996Y-63658395D01*
X82688814Y-63635673D01*
X82538815Y-63411184D01*
X81792851Y-62665220D01*
X81893345Y-62160000D01*
X81779271Y-61586511D01*
X81454415Y-61100330D01*
X81139634Y-60890000D01*
X81454415Y-60679670D01*
X81779271Y-60193489D01*
X81893345Y-59620000D01*
X81779271Y-59046511D01*
X81454415Y-58560330D01*
X81440087Y-58550757D01*
X81461317Y-58546762D01*
X81677441Y-58407690D01*
X81739392Y-58317022D01*
X84964963Y-61542593D01*
X84964821Y-61704971D01*
X85122058Y-62085515D01*
X85412954Y-62376919D01*
X85793223Y-62534820D01*
X86204971Y-62535179D01*
X86585515Y-62377942D01*
X86876919Y-62087046D01*
X87034820Y-61706777D01*
X87035179Y-61295029D01*
X86877942Y-60914485D01*
X86587046Y-60623081D01*
X86206777Y-60465180D01*
X86042667Y-60465037D01*
X82118815Y-56541185D01*
X82061910Y-56503162D01*
X81873440Y-56377230D01*
X81873440Y-56285000D01*
X82026309Y-56285000D01*
X82259698Y-56188327D01*
X82438327Y-56009699D01*
X82535000Y-55776310D01*
X82535000Y-55285750D01*
X82376250Y-55127000D01*
X81677000Y-55127000D01*
X81677000Y-55147000D01*
X81423000Y-55147000D01*
X81423000Y-55127000D01*
X81403000Y-55127000D01*
X81403000Y-54873000D01*
X81423000Y-54873000D01*
X81423000Y-54853000D01*
X81677000Y-54853000D01*
X81677000Y-54873000D01*
X82376250Y-54873000D01*
X82535000Y-54714250D01*
X82535000Y-54319268D01*
X82609698Y-54288327D01*
X82788327Y-54109699D01*
X82885000Y-53876310D01*
X82885000Y-53635750D01*
X82726250Y-53477000D01*
X81927000Y-53477000D01*
X81927000Y-53497000D01*
X81673000Y-53497000D01*
X81673000Y-53477000D01*
X80873750Y-53477000D01*
X80715000Y-53635750D01*
X80715000Y-53876310D01*
X80732768Y-53919206D01*
X80661673Y-53990301D01*
X80605346Y-54126287D01*
X80603162Y-54114683D01*
X80562000Y-54050715D01*
X80562000Y-53353818D01*
X80701441Y-53264090D01*
X80788064Y-53137314D01*
X80873750Y-53223000D01*
X81673000Y-53223000D01*
X81673000Y-53203000D01*
X81927000Y-53203000D01*
X81927000Y-53223000D01*
X82726250Y-53223000D01*
X82885000Y-53064250D01*
X82885000Y-52823690D01*
X82788327Y-52590301D01*
X82609698Y-52411673D01*
X82573253Y-52396577D01*
X82701441Y-52314090D01*
X82846431Y-52101890D01*
X82897440Y-51850000D01*
X82897440Y-51050000D01*
X82853162Y-50814683D01*
X82714090Y-50598559D01*
X82501890Y-50453569D01*
X82250000Y-50402560D01*
X81350000Y-50402560D01*
X81114683Y-50446838D01*
X80898559Y-50585910D01*
X80753569Y-50798110D01*
X80702560Y-51050000D01*
X80702560Y-51540681D01*
X80501890Y-51403569D01*
X80250000Y-51352560D01*
X79350000Y-51352560D01*
X79114683Y-51396838D01*
X78898559Y-51535910D01*
X78818847Y-51652573D01*
X78784090Y-51598559D01*
X78571890Y-51453569D01*
X78320000Y-51402560D01*
X77696247Y-51402560D01*
X77611605Y-51346004D01*
X77320000Y-51288000D01*
X77296366Y-51288000D01*
X77273162Y-51164683D01*
X77134090Y-50948559D01*
X76921890Y-50803569D01*
X76670000Y-50752560D01*
X75970000Y-50752560D01*
X75734683Y-50796838D01*
X75518559Y-50935910D01*
X75373569Y-51148110D01*
X75370919Y-51161197D01*
X75234090Y-50948559D01*
X75021890Y-50803569D01*
X74770000Y-50752560D01*
X74070000Y-50752560D01*
X73834683Y-50796838D01*
X73618559Y-50935910D01*
X73473569Y-51148110D01*
X73422560Y-51400000D01*
X73422560Y-51688000D01*
X73421662Y-51688000D01*
X73403162Y-51589683D01*
X73277606Y-51394564D01*
X73334820Y-51256777D01*
X73335179Y-50845029D01*
X73177942Y-50464485D01*
X72887046Y-50173081D01*
X72506777Y-50015180D01*
X72095029Y-50014821D01*
X71714485Y-50172058D01*
X71423081Y-50462954D01*
X71265180Y-50843223D01*
X71264821Y-51254971D01*
X71323654Y-51397359D01*
X71300866Y-51430711D01*
X71264090Y-51373559D01*
X71051890Y-51228569D01*
X70800000Y-51177560D01*
X69800000Y-51177560D01*
X69564683Y-51221838D01*
X69348559Y-51360910D01*
X69203569Y-51573110D01*
X69152560Y-51825000D01*
X69152560Y-51850130D01*
X69061186Y-51911184D01*
X68127000Y-52845370D01*
X68127000Y-47627000D01*
X102485369Y-47627000D01*
X100131185Y-49981185D01*
X100131185Y-49981185D01*
G37*
X100131185Y-49981185D02*
X99966004Y-50228395D01*
X99908000Y-50520000D01*
X99908000Y-53260000D01*
X99966004Y-53551605D01*
X100016040Y-53626488D01*
X99833739Y-53808471D01*
X99463003Y-53437086D01*
X98947440Y-53223006D01*
X98947440Y-52896798D01*
X98984820Y-52806777D01*
X98985179Y-52395029D01*
X98947440Y-52303693D01*
X98947440Y-51950000D01*
X98903162Y-51714683D01*
X98764090Y-51498559D01*
X98551890Y-51353569D01*
X98300000Y-51302560D01*
X97600000Y-51302560D01*
X97364683Y-51346838D01*
X97148559Y-51485910D01*
X97003569Y-51698110D01*
X97000919Y-51711197D01*
X96864090Y-51498559D01*
X96651890Y-51353569D01*
X96400000Y-51302560D01*
X95700000Y-51302560D01*
X95464683Y-51346838D01*
X95248559Y-51485910D01*
X95103569Y-51698110D01*
X95052560Y-51950000D01*
X95052560Y-53250000D01*
X95093773Y-53469030D01*
X94753739Y-53808471D01*
X94383003Y-53437086D01*
X93800659Y-53195276D01*
X93170107Y-53194725D01*
X92587343Y-53435519D01*
X92213739Y-53808471D01*
X91843003Y-53437086D01*
X91260659Y-53195276D01*
X90630107Y-53194725D01*
X90047343Y-53435519D01*
X89601086Y-53880997D01*
X89359276Y-54463341D01*
X89358725Y-55093893D01*
X89599519Y-55676657D01*
X90044997Y-56122914D01*
X90627341Y-56364724D01*
X91257893Y-56365275D01*
X91840657Y-56124481D01*
X92214261Y-55751529D01*
X92584997Y-56122914D01*
X93167341Y-56364724D01*
X93797893Y-56365275D01*
X94380657Y-56124481D01*
X94754261Y-55751529D01*
X95124997Y-56122914D01*
X95707341Y-56364724D01*
X96337893Y-56365275D01*
X96920657Y-56124481D01*
X97294261Y-55751529D01*
X97592471Y-56050261D01*
X97221086Y-56420997D01*
X96979276Y-57003341D01*
X96978725Y-57633893D01*
X97219519Y-58216657D01*
X97664997Y-58662914D01*
X98247341Y-58904724D01*
X98877893Y-58905275D01*
X99460657Y-58664481D01*
X99834261Y-58291529D01*
X100204997Y-58662914D01*
X100787341Y-58904724D01*
X101417893Y-58905275D01*
X102000657Y-58664481D01*
X102374261Y-58291529D01*
X102744997Y-58662914D01*
X103327341Y-58904724D01*
X103957893Y-58905275D01*
X104540657Y-58664481D01*
X104986914Y-58219003D01*
X105228724Y-57636659D01*
X105229275Y-57006107D01*
X104988481Y-56423343D01*
X104615529Y-56049739D01*
X104914261Y-55751529D01*
X105284997Y-56122914D01*
X105867341Y-56364724D01*
X106497893Y-56365275D01*
X107080657Y-56124481D01*
X107454261Y-55751529D01*
X107824997Y-56122914D01*
X108407341Y-56364724D01*
X109037893Y-56365275D01*
X109620657Y-56124481D01*
X109994261Y-55751529D01*
X110364997Y-56122914D01*
X110947341Y-56364724D01*
X111577893Y-56365275D01*
X111965170Y-56205255D01*
X111964821Y-56604971D01*
X112122058Y-56985515D01*
X112412954Y-57276919D01*
X112793223Y-57434820D01*
X113042000Y-57435037D01*
X113042000Y-62873000D01*
X85000000Y-62873000D01*
X84950590Y-62883006D01*
X84908965Y-62911447D01*
X84881685Y-62953841D01*
X84873000Y-63000000D01*
X84873000Y-73873000D01*
X68127000Y-73873000D01*
X68127000Y-66112619D01*
X68268234Y-66084526D01*
X68653233Y-65827278D01*
X68616887Y-66010000D01*
X68726120Y-66559151D01*
X69037189Y-67024698D01*
X69419275Y-67280000D01*
X69037189Y-67535302D01*
X68726120Y-68000849D01*
X68616887Y-68550000D01*
X68726120Y-69099151D01*
X69037189Y-69564698D01*
X69318000Y-69752330D01*
X69318000Y-69887670D01*
X69037189Y-70075302D01*
X68726120Y-70540849D01*
X68616887Y-71090000D01*
X68726120Y-71639151D01*
X69037189Y-72104698D01*
X69502736Y-72415767D01*
X70051887Y-72525000D01*
X70108113Y-72525000D01*
X70657264Y-72415767D01*
X70951005Y-72219495D01*
X71035910Y-72351441D01*
X71248110Y-72496431D01*
X71500000Y-72547440D01*
X72200000Y-72547440D01*
X72216673Y-72544303D01*
X72561185Y-72888815D01*
X72808395Y-73053996D01*
X73100000Y-73112000D01*
X78100000Y-73112000D01*
X78391605Y-73053996D01*
X78638815Y-72888815D01*
X82538815Y-68988815D01*
X82543913Y-68981185D01*
X82703996Y-68741605D01*
X82762000Y-68450000D01*
X82762000Y-63950000D01*
X82703996Y-63658395D01*
X82688814Y-63635673D01*
X82538815Y-63411184D01*
X81792851Y-62665220D01*
X81893345Y-62160000D01*
X81779271Y-61586511D01*
X81454415Y-61100330D01*
X81139634Y-60890000D01*
X81454415Y-60679670D01*
X81779271Y-60193489D01*
X81893345Y-59620000D01*
X81779271Y-59046511D01*
X81454415Y-58560330D01*
X81440087Y-58550757D01*
X81461317Y-58546762D01*
X81677441Y-58407690D01*
X81739392Y-58317022D01*
X84964963Y-61542593D01*
X84964821Y-61704971D01*
X85122058Y-62085515D01*
X85412954Y-62376919D01*
X85793223Y-62534820D01*
X86204971Y-62535179D01*
X86585515Y-62377942D01*
X86876919Y-62087046D01*
X87034820Y-61706777D01*
X87035179Y-61295029D01*
X86877942Y-60914485D01*
X86587046Y-60623081D01*
X86206777Y-60465180D01*
X86042667Y-60465037D01*
X82118815Y-56541185D01*
X82061910Y-56503162D01*
X81873440Y-56377230D01*
X81873440Y-56285000D01*
X82026309Y-56285000D01*
X82259698Y-56188327D01*
X82438327Y-56009699D01*
X82535000Y-55776310D01*
X82535000Y-55285750D01*
X82376250Y-55127000D01*
X81677000Y-55127000D01*
X81677000Y-55147000D01*
X81423000Y-55147000D01*
X81423000Y-55127000D01*
X81403000Y-55127000D01*
X81403000Y-54873000D01*
X81423000Y-54873000D01*
X81423000Y-54853000D01*
X81677000Y-54853000D01*
X81677000Y-54873000D01*
X82376250Y-54873000D01*
X82535000Y-54714250D01*
X82535000Y-54319268D01*
X82609698Y-54288327D01*
X82788327Y-54109699D01*
X82885000Y-53876310D01*
X82885000Y-53635750D01*
X82726250Y-53477000D01*
X81927000Y-53477000D01*
X81927000Y-53497000D01*
X81673000Y-53497000D01*
X81673000Y-53477000D01*
X80873750Y-53477000D01*
X80715000Y-53635750D01*
X80715000Y-53876310D01*
X80732768Y-53919206D01*
X80661673Y-53990301D01*
X80605346Y-54126287D01*
X80603162Y-54114683D01*
X80562000Y-54050715D01*
X80562000Y-53353818D01*
X80701441Y-53264090D01*
X80788064Y-53137314D01*
X80873750Y-53223000D01*
X81673000Y-53223000D01*
X81673000Y-53203000D01*
X81927000Y-53203000D01*
X81927000Y-53223000D01*
X82726250Y-53223000D01*
X82885000Y-53064250D01*
X82885000Y-52823690D01*
X82788327Y-52590301D01*
X82609698Y-52411673D01*
X82573253Y-52396577D01*
X82701441Y-52314090D01*
X82846431Y-52101890D01*
X82897440Y-51850000D01*
X82897440Y-51050000D01*
X82853162Y-50814683D01*
X82714090Y-50598559D01*
X82501890Y-50453569D01*
X82250000Y-50402560D01*
X81350000Y-50402560D01*
X81114683Y-50446838D01*
X80898559Y-50585910D01*
X80753569Y-50798110D01*
X80702560Y-51050000D01*
X80702560Y-51540681D01*
X80501890Y-51403569D01*
X80250000Y-51352560D01*
X79350000Y-51352560D01*
X79114683Y-51396838D01*
X78898559Y-51535910D01*
X78818847Y-51652573D01*
X78784090Y-51598559D01*
X78571890Y-51453569D01*
X78320000Y-51402560D01*
X77696247Y-51402560D01*
X77611605Y-51346004D01*
X77320000Y-51288000D01*
X77296366Y-51288000D01*
X77273162Y-51164683D01*
X77134090Y-50948559D01*
X76921890Y-50803569D01*
X76670000Y-50752560D01*
X75970000Y-50752560D01*
X75734683Y-50796838D01*
X75518559Y-50935910D01*
X75373569Y-51148110D01*
X75370919Y-51161197D01*
X75234090Y-50948559D01*
X75021890Y-50803569D01*
X74770000Y-50752560D01*
X74070000Y-50752560D01*
X73834683Y-50796838D01*
X73618559Y-50935910D01*
X73473569Y-51148110D01*
X73422560Y-51400000D01*
X73422560Y-51688000D01*
X73421662Y-51688000D01*
X73403162Y-51589683D01*
X73277606Y-51394564D01*
X73334820Y-51256777D01*
X73335179Y-50845029D01*
X73177942Y-50464485D01*
X72887046Y-50173081D01*
X72506777Y-50015180D01*
X72095029Y-50014821D01*
X71714485Y-50172058D01*
X71423081Y-50462954D01*
X71265180Y-50843223D01*
X71264821Y-51254971D01*
X71323654Y-51397359D01*
X71300866Y-51430711D01*
X71264090Y-51373559D01*
X71051890Y-51228569D01*
X70800000Y-51177560D01*
X69800000Y-51177560D01*
X69564683Y-51221838D01*
X69348559Y-51360910D01*
X69203569Y-51573110D01*
X69152560Y-51825000D01*
X69152560Y-51850130D01*
X69061186Y-51911184D01*
X68127000Y-52845370D01*
X68127000Y-47627000D01*
X102485369Y-47627000D01*
X100131185Y-49981185D01*
G36*
X137838000Y-71015630D02*
X137838000Y-71146560D01*
X136528000Y-71146560D01*
X136292683Y-71190838D01*
X136076559Y-71329910D01*
X135931569Y-71542110D01*
X135880560Y-71794000D01*
X135880560Y-72758810D01*
X135607185Y-73032185D01*
X135462000Y-73249469D01*
X135462000Y-68639630D01*
X137838000Y-71015630D01*
X137838000Y-71015630D01*
G37*
X137838000Y-71015630D02*
X137838000Y-71146560D01*
X136528000Y-71146560D01*
X136292683Y-71190838D01*
X136076559Y-71329910D01*
X135931569Y-71542110D01*
X135880560Y-71794000D01*
X135880560Y-72758810D01*
X135607185Y-73032185D01*
X135462000Y-73249469D01*
X135462000Y-68639630D01*
X137838000Y-71015630D01*
G36*
X144275952Y-44328346D02*
X144234219Y-44286613D01*
X144000830Y-44189940D01*
X142285750Y-44189940D01*
X142127000Y-44348690D01*
X142127000Y-45973020D01*
X142147000Y-45973020D01*
X142147000Y-46227020D01*
X142127000Y-46227020D01*
X142127000Y-47851350D01*
X142285750Y-48010100D01*
X144000830Y-48010100D01*
X144234219Y-47913427D01*
X144283808Y-47863837D01*
X144291339Y-51252560D01*
X144096798Y-51252560D01*
X144006777Y-51215180D01*
X143595029Y-51214821D01*
X143503693Y-51252560D01*
X143150000Y-51252560D01*
X142914683Y-51296838D01*
X142698559Y-51435910D01*
X142553569Y-51648110D01*
X142502560Y-51900000D01*
X142502560Y-52600000D01*
X142546838Y-52835317D01*
X142685910Y-53051441D01*
X142898110Y-53196431D01*
X142911197Y-53199081D01*
X142698559Y-53335910D01*
X142553569Y-53548110D01*
X142502560Y-53800000D01*
X142502560Y-54500000D01*
X142546838Y-54735317D01*
X142554115Y-54746626D01*
X142553120Y-54751540D01*
X142553120Y-55950420D01*
X142597398Y-56185737D01*
X142736470Y-56401861D01*
X142744659Y-56407456D01*
X142662233Y-56489882D01*
X142565560Y-56723271D01*
X142565560Y-57163270D01*
X142724310Y-57322020D01*
X143673000Y-57322020D01*
X143673000Y-57302020D01*
X143927000Y-57302020D01*
X143927000Y-57322020D01*
X143947000Y-57322020D01*
X143947000Y-57576020D01*
X143927000Y-57576020D01*
X143927000Y-58524710D01*
X144085750Y-58683460D01*
X144307852Y-58683460D01*
X144314116Y-61502560D01*
X144300000Y-61502560D01*
X144064683Y-61546838D01*
X143848559Y-61685910D01*
X143703569Y-61898110D01*
X143700919Y-61911197D01*
X143564090Y-61698559D01*
X143512000Y-61662967D01*
X143512000Y-60751852D01*
X143576919Y-60687046D01*
X143734820Y-60306777D01*
X143735179Y-59895029D01*
X143577942Y-59514485D01*
X143287046Y-59223081D01*
X142906777Y-59065180D01*
X142495029Y-59064821D01*
X142114485Y-59222058D01*
X141823081Y-59512954D01*
X141665180Y-59893223D01*
X141664821Y-60304971D01*
X141822058Y-60685515D01*
X141988000Y-60851747D01*
X141988000Y-61660530D01*
X141948559Y-61685910D01*
X141803569Y-61898110D01*
X141752560Y-62150000D01*
X141752560Y-63450000D01*
X141769307Y-63539000D01*
X141481691Y-63539000D01*
X141248302Y-63635673D01*
X141097329Y-63786646D01*
X141056090Y-63722559D01*
X140843890Y-63577569D01*
X140592000Y-63526560D01*
X140592000Y-62380000D01*
X140547440Y-62155982D01*
X140547440Y-61450000D01*
X140517297Y-61289804D01*
X140634820Y-61006777D01*
X140635144Y-60635013D01*
X140662000Y-60500000D01*
X140662000Y-60001765D01*
X140776919Y-59887046D01*
X140934820Y-59506777D01*
X140935179Y-59095029D01*
X140777942Y-58714485D01*
X140487046Y-58423081D01*
X140354400Y-58368002D01*
X140434440Y-58174769D01*
X140434440Y-57734770D01*
X142565560Y-57734770D01*
X142565560Y-58174769D01*
X142662233Y-58408158D01*
X142840861Y-58586787D01*
X143074250Y-58683460D01*
X143514250Y-58683460D01*
X143673000Y-58524710D01*
X143673000Y-57576020D01*
X142724310Y-57576020D01*
X142565560Y-57734770D01*
X140434440Y-57734770D01*
X140275690Y-57576020D01*
X139327000Y-57576020D01*
X139327000Y-57596020D01*
X139073000Y-57596020D01*
X139073000Y-57576020D01*
X138124310Y-57576020D01*
X137965560Y-57734770D01*
X137965560Y-58174769D01*
X138043772Y-58363588D01*
X137806777Y-58265180D01*
X137395029Y-58264821D01*
X137014485Y-58422058D01*
X136723081Y-58712954D01*
X136565180Y-59093223D01*
X136564821Y-59504971D01*
X136722058Y-59885515D01*
X136888000Y-60051747D01*
X136888000Y-60960530D01*
X136848559Y-60985910D01*
X136703569Y-61198110D01*
X136652560Y-61450000D01*
X136652560Y-62750000D01*
X136696838Y-62985317D01*
X136835910Y-63201441D01*
X137048110Y-63346431D01*
X137300000Y-63397440D01*
X138000000Y-63397440D01*
X138235317Y-63353162D01*
X138451441Y-63214090D01*
X138596431Y-63001890D01*
X138599081Y-62988803D01*
X138735910Y-63201441D01*
X138948110Y-63346431D01*
X139068000Y-63370709D01*
X139068000Y-63526560D01*
X138832683Y-63570838D01*
X138616559Y-63709910D01*
X138563537Y-63787511D01*
X138411698Y-63635673D01*
X138178309Y-63539000D01*
X137575750Y-63539000D01*
X137417000Y-63697750D01*
X137417000Y-65063000D01*
X137437000Y-65063000D01*
X137437000Y-65317000D01*
X137417000Y-65317000D01*
X137417000Y-66682250D01*
X137575750Y-66841000D01*
X138178309Y-66841000D01*
X138411698Y-66744327D01*
X138562671Y-66593354D01*
X138603910Y-66657441D01*
X138816110Y-66802431D01*
X139068000Y-66853440D01*
X140592000Y-66853440D01*
X140827317Y-66809162D01*
X141043441Y-66670090D01*
X141096463Y-66592489D01*
X141248302Y-66744327D01*
X141481691Y-66841000D01*
X142084250Y-66841000D01*
X142243000Y-66682250D01*
X142243000Y-65317000D01*
X142223000Y-65317000D01*
X142223000Y-65063000D01*
X142243000Y-65063000D01*
X142243000Y-65043000D01*
X142497000Y-65043000D01*
X142497000Y-65063000D01*
X142517000Y-65063000D01*
X142517000Y-65317000D01*
X142497000Y-65317000D01*
X142497000Y-66682250D01*
X142655750Y-66841000D01*
X143258309Y-66841000D01*
X143491698Y-66744327D01*
X143642671Y-66593354D01*
X143683910Y-66657441D01*
X143896110Y-66802431D01*
X144148000Y-66853440D01*
X144326007Y-66853440D01*
X144333253Y-70114303D01*
X144314485Y-70122058D01*
X144023081Y-70412954D01*
X143865180Y-70793223D01*
X143864821Y-71204971D01*
X143870261Y-71218136D01*
X143696559Y-71329910D01*
X143640626Y-71411770D01*
X143596090Y-71342559D01*
X143383890Y-71197569D01*
X143132000Y-71146560D01*
X141608000Y-71146560D01*
X141372683Y-71190838D01*
X141156559Y-71329910D01*
X141100626Y-71411770D01*
X141056090Y-71342559D01*
X140843890Y-71197569D01*
X140834830Y-71195734D01*
X140835179Y-70795029D01*
X140677942Y-70414485D01*
X140387046Y-70123081D01*
X140006777Y-69965180D01*
X139595029Y-69964821D01*
X139214485Y-70122058D01*
X139153409Y-70183027D01*
X139138815Y-70161185D01*
X136562000Y-67584370D01*
X136562000Y-66841000D01*
X137004250Y-66841000D01*
X137163000Y-66682250D01*
X137163000Y-65317000D01*
X137143000Y-65317000D01*
X137143000Y-65063000D01*
X137163000Y-65063000D01*
X137163000Y-63697750D01*
X137004250Y-63539000D01*
X136562000Y-63539000D01*
X136562000Y-51900000D01*
X137902560Y-51900000D01*
X137902560Y-52600000D01*
X137946838Y-52835317D01*
X138085910Y-53051441D01*
X138298110Y-53196431D01*
X138311197Y-53199081D01*
X138098559Y-53335910D01*
X137953569Y-53548110D01*
X137902560Y-53800000D01*
X137902560Y-54500000D01*
X137946838Y-54735317D01*
X137954115Y-54746626D01*
X137953120Y-54751540D01*
X137953120Y-55950420D01*
X137997398Y-56185737D01*
X138136470Y-56401861D01*
X138144659Y-56407456D01*
X138062233Y-56489882D01*
X137965560Y-56723271D01*
X137965560Y-57163270D01*
X138124310Y-57322020D01*
X139073000Y-57322020D01*
X139073000Y-57302020D01*
X139327000Y-57302020D01*
X139327000Y-57322020D01*
X140275690Y-57322020D01*
X140434440Y-57163270D01*
X140434440Y-56723271D01*
X140337767Y-56489882D01*
X140255555Y-56407669D01*
X140395871Y-56202310D01*
X140446880Y-55950420D01*
X140446880Y-54751540D01*
X140446698Y-54750572D01*
X140497440Y-54500000D01*
X140497440Y-53800000D01*
X140453162Y-53564683D01*
X140314090Y-53348559D01*
X140101890Y-53203569D01*
X140088803Y-53200919D01*
X140301441Y-53064090D01*
X140446431Y-52851890D01*
X140497440Y-52600000D01*
X140497440Y-51900000D01*
X140453162Y-51664683D01*
X140314090Y-51448559D01*
X140101890Y-51303569D01*
X140085000Y-51300149D01*
X140085000Y-48867585D01*
X140234820Y-48506777D01*
X140235179Y-48095029D01*
X140200087Y-48010100D01*
X141714250Y-48010100D01*
X141873000Y-47851350D01*
X141873000Y-46227020D01*
X139649230Y-46227020D01*
X139490480Y-46385770D01*
X139490480Y-47299936D01*
X139406777Y-47265180D01*
X138995029Y-47264821D01*
X138614485Y-47422058D01*
X138323081Y-47712954D01*
X138165180Y-48093223D01*
X138164821Y-48504971D01*
X138315000Y-48868433D01*
X138315000Y-51296778D01*
X138314683Y-51296838D01*
X138098559Y-51435910D01*
X137953569Y-51648110D01*
X137902560Y-51900000D01*
X136562000Y-51900000D01*
X136562000Y-49201765D01*
X136676919Y-49087046D01*
X136834820Y-48706777D01*
X136835179Y-48295029D01*
X136677942Y-47914485D01*
X136562000Y-47798341D01*
X136562000Y-44635000D01*
X136714250Y-44635000D01*
X136873000Y-44476250D01*
X136873000Y-43627000D01*
X137127000Y-43627000D01*
X137127000Y-44476250D01*
X137285750Y-44635000D01*
X137751310Y-44635000D01*
X137984699Y-44538327D01*
X138000000Y-44523026D01*
X138015301Y-44538327D01*
X138248690Y-44635000D01*
X138714250Y-44635000D01*
X138873000Y-44476250D01*
X138873000Y-43627000D01*
X139127000Y-43627000D01*
X139127000Y-44476250D01*
X139285750Y-44635000D01*
X139516837Y-44635000D01*
X139490480Y-44698631D01*
X139490480Y-45814270D01*
X139649230Y-45973020D01*
X141873000Y-45973020D01*
X141873000Y-44348690D01*
X141714250Y-44189940D01*
X140233643Y-44189940D01*
X140260000Y-44126309D01*
X140260000Y-43785750D01*
X140101250Y-43627000D01*
X139127000Y-43627000D01*
X138873000Y-43627000D01*
X137127000Y-43627000D01*
X136873000Y-43627000D01*
X136853000Y-43627000D01*
X136853000Y-43373000D01*
X136873000Y-43373000D01*
X136873000Y-43353000D01*
X137127000Y-43353000D01*
X137127000Y-43373000D01*
X138873000Y-43373000D01*
X138873000Y-43353000D01*
X139127000Y-43353000D01*
X139127000Y-43373000D01*
X140101250Y-43373000D01*
X140260000Y-43214250D01*
X140260000Y-43127000D01*
X144273282Y-43127000D01*
X144275952Y-44328346D01*
X144275952Y-44328346D01*
G37*
X144275952Y-44328346D02*
X144234219Y-44286613D01*
X144000830Y-44189940D01*
X142285750Y-44189940D01*
X142127000Y-44348690D01*
X142127000Y-45973020D01*
X142147000Y-45973020D01*
X142147000Y-46227020D01*
X142127000Y-46227020D01*
X142127000Y-47851350D01*
X142285750Y-48010100D01*
X144000830Y-48010100D01*
X144234219Y-47913427D01*
X144283808Y-47863837D01*
X144291339Y-51252560D01*
X144096798Y-51252560D01*
X144006777Y-51215180D01*
X143595029Y-51214821D01*
X143503693Y-51252560D01*
X143150000Y-51252560D01*
X142914683Y-51296838D01*
X142698559Y-51435910D01*
X142553569Y-51648110D01*
X142502560Y-51900000D01*
X142502560Y-52600000D01*
X142546838Y-52835317D01*
X142685910Y-53051441D01*
X142898110Y-53196431D01*
X142911197Y-53199081D01*
X142698559Y-53335910D01*
X142553569Y-53548110D01*
X142502560Y-53800000D01*
X142502560Y-54500000D01*
X142546838Y-54735317D01*
X142554115Y-54746626D01*
X142553120Y-54751540D01*
X142553120Y-55950420D01*
X142597398Y-56185737D01*
X142736470Y-56401861D01*
X142744659Y-56407456D01*
X142662233Y-56489882D01*
X142565560Y-56723271D01*
X142565560Y-57163270D01*
X142724310Y-57322020D01*
X143673000Y-57322020D01*
X143673000Y-57302020D01*
X143927000Y-57302020D01*
X143927000Y-57322020D01*
X143947000Y-57322020D01*
X143947000Y-57576020D01*
X143927000Y-57576020D01*
X143927000Y-58524710D01*
X144085750Y-58683460D01*
X144307852Y-58683460D01*
X144314116Y-61502560D01*
X144300000Y-61502560D01*
X144064683Y-61546838D01*
X143848559Y-61685910D01*
X143703569Y-61898110D01*
X143700919Y-61911197D01*
X143564090Y-61698559D01*
X143512000Y-61662967D01*
X143512000Y-60751852D01*
X143576919Y-60687046D01*
X143734820Y-60306777D01*
X143735179Y-59895029D01*
X143577942Y-59514485D01*
X143287046Y-59223081D01*
X142906777Y-59065180D01*
X142495029Y-59064821D01*
X142114485Y-59222058D01*
X141823081Y-59512954D01*
X141665180Y-59893223D01*
X141664821Y-60304971D01*
X141822058Y-60685515D01*
X141988000Y-60851747D01*
X141988000Y-61660530D01*
X141948559Y-61685910D01*
X141803569Y-61898110D01*
X141752560Y-62150000D01*
X141752560Y-63450000D01*
X141769307Y-63539000D01*
X141481691Y-63539000D01*
X141248302Y-63635673D01*
X141097329Y-63786646D01*
X141056090Y-63722559D01*
X140843890Y-63577569D01*
X140592000Y-63526560D01*
X140592000Y-62380000D01*
X140547440Y-62155982D01*
X140547440Y-61450000D01*
X140517297Y-61289804D01*
X140634820Y-61006777D01*
X140635144Y-60635013D01*
X140662000Y-60500000D01*
X140662000Y-60001765D01*
X140776919Y-59887046D01*
X140934820Y-59506777D01*
X140935179Y-59095029D01*
X140777942Y-58714485D01*
X140487046Y-58423081D01*
X140354400Y-58368002D01*
X140434440Y-58174769D01*
X140434440Y-57734770D01*
X142565560Y-57734770D01*
X142565560Y-58174769D01*
X142662233Y-58408158D01*
X142840861Y-58586787D01*
X143074250Y-58683460D01*
X143514250Y-58683460D01*
X143673000Y-58524710D01*
X143673000Y-57576020D01*
X142724310Y-57576020D01*
X142565560Y-57734770D01*
X140434440Y-57734770D01*
X140275690Y-57576020D01*
X139327000Y-57576020D01*
X139327000Y-57596020D01*
X139073000Y-57596020D01*
X139073000Y-57576020D01*
X138124310Y-57576020D01*
X137965560Y-57734770D01*
X137965560Y-58174769D01*
X138043772Y-58363588D01*
X137806777Y-58265180D01*
X137395029Y-58264821D01*
X137014485Y-58422058D01*
X136723081Y-58712954D01*
X136565180Y-59093223D01*
X136564821Y-59504971D01*
X136722058Y-59885515D01*
X136888000Y-60051747D01*
X136888000Y-60960530D01*
X136848559Y-60985910D01*
X136703569Y-61198110D01*
X136652560Y-61450000D01*
X136652560Y-62750000D01*
X136696838Y-62985317D01*
X136835910Y-63201441D01*
X137048110Y-63346431D01*
X137300000Y-63397440D01*
X138000000Y-63397440D01*
X138235317Y-63353162D01*
X138451441Y-63214090D01*
X138596431Y-63001890D01*
X138599081Y-62988803D01*
X138735910Y-63201441D01*
X138948110Y-63346431D01*
X139068000Y-63370709D01*
X139068000Y-63526560D01*
X138832683Y-63570838D01*
X138616559Y-63709910D01*
X138563537Y-63787511D01*
X138411698Y-63635673D01*
X138178309Y-63539000D01*
X137575750Y-63539000D01*
X137417000Y-63697750D01*
X137417000Y-65063000D01*
X137437000Y-65063000D01*
X137437000Y-65317000D01*
X137417000Y-65317000D01*
X137417000Y-66682250D01*
X137575750Y-66841000D01*
X138178309Y-66841000D01*
X138411698Y-66744327D01*
X138562671Y-66593354D01*
X138603910Y-66657441D01*
X138816110Y-66802431D01*
X139068000Y-66853440D01*
X140592000Y-66853440D01*
X140827317Y-66809162D01*
X141043441Y-66670090D01*
X141096463Y-66592489D01*
X141248302Y-66744327D01*
X141481691Y-66841000D01*
X142084250Y-66841000D01*
X142243000Y-66682250D01*
X142243000Y-65317000D01*
X142223000Y-65317000D01*
X142223000Y-65063000D01*
X142243000Y-65063000D01*
X142243000Y-65043000D01*
X142497000Y-65043000D01*
X142497000Y-65063000D01*
X142517000Y-65063000D01*
X142517000Y-65317000D01*
X142497000Y-65317000D01*
X142497000Y-66682250D01*
X142655750Y-66841000D01*
X143258309Y-66841000D01*
X143491698Y-66744327D01*
X143642671Y-66593354D01*
X143683910Y-66657441D01*
X143896110Y-66802431D01*
X144148000Y-66853440D01*
X144326007Y-66853440D01*
X144333253Y-70114303D01*
X144314485Y-70122058D01*
X144023081Y-70412954D01*
X143865180Y-70793223D01*
X143864821Y-71204971D01*
X143870261Y-71218136D01*
X143696559Y-71329910D01*
X143640626Y-71411770D01*
X143596090Y-71342559D01*
X143383890Y-71197569D01*
X143132000Y-71146560D01*
X141608000Y-71146560D01*
X141372683Y-71190838D01*
X141156559Y-71329910D01*
X141100626Y-71411770D01*
X141056090Y-71342559D01*
X140843890Y-71197569D01*
X140834830Y-71195734D01*
X140835179Y-70795029D01*
X140677942Y-70414485D01*
X140387046Y-70123081D01*
X140006777Y-69965180D01*
X139595029Y-69964821D01*
X139214485Y-70122058D01*
X139153409Y-70183027D01*
X139138815Y-70161185D01*
X136562000Y-67584370D01*
X136562000Y-66841000D01*
X137004250Y-66841000D01*
X137163000Y-66682250D01*
X137163000Y-65317000D01*
X137143000Y-65317000D01*
X137143000Y-65063000D01*
X137163000Y-65063000D01*
X137163000Y-63697750D01*
X137004250Y-63539000D01*
X136562000Y-63539000D01*
X136562000Y-51900000D01*
X137902560Y-51900000D01*
X137902560Y-52600000D01*
X137946838Y-52835317D01*
X138085910Y-53051441D01*
X138298110Y-53196431D01*
X138311197Y-53199081D01*
X138098559Y-53335910D01*
X137953569Y-53548110D01*
X137902560Y-53800000D01*
X137902560Y-54500000D01*
X137946838Y-54735317D01*
X137954115Y-54746626D01*
X137953120Y-54751540D01*
X137953120Y-55950420D01*
X137997398Y-56185737D01*
X138136470Y-56401861D01*
X138144659Y-56407456D01*
X138062233Y-56489882D01*
X137965560Y-56723271D01*
X137965560Y-57163270D01*
X138124310Y-57322020D01*
X139073000Y-57322020D01*
X139073000Y-57302020D01*
X139327000Y-57302020D01*
X139327000Y-57322020D01*
X140275690Y-57322020D01*
X140434440Y-57163270D01*
X140434440Y-56723271D01*
X140337767Y-56489882D01*
X140255555Y-56407669D01*
X140395871Y-56202310D01*
X140446880Y-55950420D01*
X140446880Y-54751540D01*
X140446698Y-54750572D01*
X140497440Y-54500000D01*
X140497440Y-53800000D01*
X140453162Y-53564683D01*
X140314090Y-53348559D01*
X140101890Y-53203569D01*
X140088803Y-53200919D01*
X140301441Y-53064090D01*
X140446431Y-52851890D01*
X140497440Y-52600000D01*
X140497440Y-51900000D01*
X140453162Y-51664683D01*
X140314090Y-51448559D01*
X140101890Y-51303569D01*
X140085000Y-51300149D01*
X140085000Y-48867585D01*
X140234820Y-48506777D01*
X140235179Y-48095029D01*
X140200087Y-48010100D01*
X141714250Y-48010100D01*
X141873000Y-47851350D01*
X141873000Y-46227020D01*
X139649230Y-46227020D01*
X139490480Y-46385770D01*
X139490480Y-47299936D01*
X139406777Y-47265180D01*
X138995029Y-47264821D01*
X138614485Y-47422058D01*
X138323081Y-47712954D01*
X138165180Y-48093223D01*
X138164821Y-48504971D01*
X138315000Y-48868433D01*
X138315000Y-51296778D01*
X138314683Y-51296838D01*
X138098559Y-51435910D01*
X137953569Y-51648110D01*
X137902560Y-51900000D01*
X136562000Y-51900000D01*
X136562000Y-49201765D01*
X136676919Y-49087046D01*
X136834820Y-48706777D01*
X136835179Y-48295029D01*
X136677942Y-47914485D01*
X136562000Y-47798341D01*
X136562000Y-44635000D01*
X136714250Y-44635000D01*
X136873000Y-44476250D01*
X136873000Y-43627000D01*
X137127000Y-43627000D01*
X137127000Y-44476250D01*
X137285750Y-44635000D01*
X137751310Y-44635000D01*
X137984699Y-44538327D01*
X138000000Y-44523026D01*
X138015301Y-44538327D01*
X138248690Y-44635000D01*
X138714250Y-44635000D01*
X138873000Y-44476250D01*
X138873000Y-43627000D01*
X139127000Y-43627000D01*
X139127000Y-44476250D01*
X139285750Y-44635000D01*
X139516837Y-44635000D01*
X139490480Y-44698631D01*
X139490480Y-45814270D01*
X139649230Y-45973020D01*
X141873000Y-45973020D01*
X141873000Y-44348690D01*
X141714250Y-44189940D01*
X140233643Y-44189940D01*
X140260000Y-44126309D01*
X140260000Y-43785750D01*
X140101250Y-43627000D01*
X139127000Y-43627000D01*
X138873000Y-43627000D01*
X137127000Y-43627000D01*
X136873000Y-43627000D01*
X136853000Y-43627000D01*
X136853000Y-43373000D01*
X136873000Y-43373000D01*
X136873000Y-43353000D01*
X137127000Y-43353000D01*
X137127000Y-43373000D01*
X138873000Y-43373000D01*
X138873000Y-43353000D01*
X139127000Y-43353000D01*
X139127000Y-43373000D01*
X140101250Y-43373000D01*
X140260000Y-43214250D01*
X140260000Y-43127000D01*
X144273282Y-43127000D01*
X144275952Y-44328346D01*
G36*
X71977000Y-62523000D02*
X71997000Y-62523000D01*
X71997000Y-62777000D01*
X71977000Y-62777000D01*
X71977000Y-63168750D01*
X71897000Y-63248750D01*
X71897000Y-64223000D01*
X71917000Y-64223000D01*
X71917000Y-64477000D01*
X71897000Y-64477000D01*
X71897000Y-64497000D01*
X71643000Y-64497000D01*
X71643000Y-64477000D01*
X71623000Y-64477000D01*
X71623000Y-64223000D01*
X71643000Y-64223000D01*
X71643000Y-63856250D01*
X71723000Y-63776250D01*
X71723000Y-62777000D01*
X71703000Y-62777000D01*
X71703000Y-62523000D01*
X71723000Y-62523000D01*
X71723000Y-62503000D01*
X71977000Y-62503000D01*
X71977000Y-62523000D01*
X71977000Y-62523000D01*
G37*
X71977000Y-62523000D02*
X71997000Y-62523000D01*
X71997000Y-62777000D01*
X71977000Y-62777000D01*
X71977000Y-63168750D01*
X71897000Y-63248750D01*
X71897000Y-64223000D01*
X71917000Y-64223000D01*
X71917000Y-64477000D01*
X71897000Y-64477000D01*
X71897000Y-64497000D01*
X71643000Y-64497000D01*
X71643000Y-64477000D01*
X71623000Y-64477000D01*
X71623000Y-64223000D01*
X71643000Y-64223000D01*
X71643000Y-63856250D01*
X71723000Y-63776250D01*
X71723000Y-62777000D01*
X71703000Y-62777000D01*
X71703000Y-62523000D01*
X71723000Y-62523000D01*
X71723000Y-62503000D01*
X71977000Y-62503000D01*
X71977000Y-62523000D01*
G36*
X70207000Y-63343000D02*
X70227000Y-63343000D01*
X70227000Y-63597000D01*
X70207000Y-63597000D01*
X70207000Y-63617000D01*
X69953000Y-63617000D01*
X69953000Y-63597000D01*
X69933000Y-63597000D01*
X69933000Y-63343000D01*
X69953000Y-63343000D01*
X69953000Y-63323000D01*
X70207000Y-63323000D01*
X70207000Y-63343000D01*
X70207000Y-63343000D01*
G37*
X70207000Y-63343000D02*
X70227000Y-63343000D01*
X70227000Y-63597000D01*
X70207000Y-63597000D01*
X70207000Y-63617000D01*
X69953000Y-63617000D01*
X69953000Y-63597000D01*
X69933000Y-63597000D01*
X69933000Y-63343000D01*
X69953000Y-63343000D01*
X69953000Y-63323000D01*
X70207000Y-63323000D01*
X70207000Y-63343000D01*
G36*
X76027000Y-61073000D02*
X76047000Y-61073000D01*
X76047000Y-61327000D01*
X76027000Y-61327000D01*
X76027000Y-61347000D01*
X75773000Y-61347000D01*
X75773000Y-61327000D01*
X75753000Y-61327000D01*
X75753000Y-61073000D01*
X75773000Y-61073000D01*
X75773000Y-61053000D01*
X76027000Y-61053000D01*
X76027000Y-61073000D01*
X76027000Y-61073000D01*
G37*
X76027000Y-61073000D02*
X76047000Y-61073000D01*
X76047000Y-61327000D01*
X76027000Y-61327000D01*
X76027000Y-61347000D01*
X75773000Y-61347000D01*
X75773000Y-61327000D01*
X75753000Y-61327000D01*
X75753000Y-61073000D01*
X75773000Y-61073000D01*
X75773000Y-61053000D01*
X76027000Y-61053000D01*
X76027000Y-61073000D01*
G36*
X133127000Y-43323000D02*
X133548750Y-43323000D01*
X133598750Y-43373000D01*
X134573000Y-43373000D01*
X134573000Y-43353000D01*
X134827000Y-43353000D01*
X134827000Y-43373000D01*
X134847000Y-43373000D01*
X134847000Y-43627000D01*
X134827000Y-43627000D01*
X134827000Y-44476250D01*
X134985750Y-44635000D01*
X135038000Y-44635000D01*
X135038000Y-47798235D01*
X134923081Y-47912954D01*
X134765180Y-48293223D01*
X134764821Y-48704971D01*
X134922058Y-49085515D01*
X135038000Y-49201659D01*
X135038000Y-54860370D01*
X131762000Y-51584370D01*
X131762000Y-48941765D01*
X131876919Y-48827046D01*
X132034820Y-48446777D01*
X132035179Y-48035029D01*
X131877942Y-47654485D01*
X131762000Y-47538341D01*
X131762000Y-44727000D01*
X131927000Y-44727000D01*
X131927000Y-45701250D01*
X132085750Y-45860000D01*
X132426309Y-45860000D01*
X132659698Y-45763327D01*
X132838327Y-45584699D01*
X132935000Y-45351310D01*
X132935000Y-44885750D01*
X132776250Y-44727000D01*
X131927000Y-44727000D01*
X131762000Y-44727000D01*
X131762000Y-44039777D01*
X131811673Y-44159698D01*
X131927000Y-44275026D01*
X131927000Y-44473000D01*
X132776250Y-44473000D01*
X132935000Y-44314250D01*
X132935000Y-43848690D01*
X132873000Y-43699009D01*
X132873000Y-43577000D01*
X133127000Y-43577000D01*
X133127000Y-44276250D01*
X133285750Y-44435000D01*
X133611975Y-44435000D01*
X133715301Y-44538327D01*
X133948690Y-44635000D01*
X134414250Y-44635000D01*
X134573000Y-44476250D01*
X134573000Y-43627000D01*
X134176250Y-43627000D01*
X134126250Y-43577000D01*
X133127000Y-43577000D01*
X132873000Y-43577000D01*
X132853000Y-43577000D01*
X132853000Y-43323000D01*
X132873000Y-43323000D01*
X132873000Y-43303000D01*
X133127000Y-43303000D01*
X133127000Y-43323000D01*
X133127000Y-43323000D01*
G37*
X133127000Y-43323000D02*
X133548750Y-43323000D01*
X133598750Y-43373000D01*
X134573000Y-43373000D01*
X134573000Y-43353000D01*
X134827000Y-43353000D01*
X134827000Y-43373000D01*
X134847000Y-43373000D01*
X134847000Y-43627000D01*
X134827000Y-43627000D01*
X134827000Y-44476250D01*
X134985750Y-44635000D01*
X135038000Y-44635000D01*
X135038000Y-47798235D01*
X134923081Y-47912954D01*
X134765180Y-48293223D01*
X134764821Y-48704971D01*
X134922058Y-49085515D01*
X135038000Y-49201659D01*
X135038000Y-54860370D01*
X131762000Y-51584370D01*
X131762000Y-48941765D01*
X131876919Y-48827046D01*
X132034820Y-48446777D01*
X132035179Y-48035029D01*
X131877942Y-47654485D01*
X131762000Y-47538341D01*
X131762000Y-44727000D01*
X131927000Y-44727000D01*
X131927000Y-45701250D01*
X132085750Y-45860000D01*
X132426309Y-45860000D01*
X132659698Y-45763327D01*
X132838327Y-45584699D01*
X132935000Y-45351310D01*
X132935000Y-44885750D01*
X132776250Y-44727000D01*
X131927000Y-44727000D01*
X131762000Y-44727000D01*
X131762000Y-44039777D01*
X131811673Y-44159698D01*
X131927000Y-44275026D01*
X131927000Y-44473000D01*
X132776250Y-44473000D01*
X132935000Y-44314250D01*
X132935000Y-43848690D01*
X132873000Y-43699009D01*
X132873000Y-43577000D01*
X133127000Y-43577000D01*
X133127000Y-44276250D01*
X133285750Y-44435000D01*
X133611975Y-44435000D01*
X133715301Y-44538327D01*
X133948690Y-44635000D01*
X134414250Y-44635000D01*
X134573000Y-44476250D01*
X134573000Y-43627000D01*
X134176250Y-43627000D01*
X134126250Y-43577000D01*
X133127000Y-43577000D01*
X132873000Y-43577000D01*
X132853000Y-43577000D01*
X132853000Y-43323000D01*
X132873000Y-43323000D01*
X132873000Y-43303000D01*
X133127000Y-43303000D01*
X133127000Y-43323000D01*
M02*
