M48
;DRILL file {KiCad 4.0.1-stable} date 2017-04-25 2:38:05 PM
;FORMAT={2:4/ absolute / inch / suppress leading zeros}
FMAT,2
INCH,TZ
T1C0.016
T2C0.031
T3C0.033
T4C0.039
T5C0.039
T6C0.040
T7C0.055
T8C0.091
T9C0.120
%
G90
G05
M72
T1
X13350Y-31700
X13376Y-33110
X13950Y-28600
X14009Y-23102
X14550Y-32400
X16750Y-25600
X18504Y-27165
X18504Y-25276
X19449Y-22913
X20748Y-26024
X20984Y-26339
X22638Y-29134
X27047Y-30630
X27126Y-41220
X27205Y-39606
X28280Y-35324
X28287Y-24035
X28465Y-20098
X29921Y-23858
X30380Y-35024
X31378Y-21654
X31674Y-39924
X32126Y-23740
X32165Y-23189
X32205Y-20256
X32480Y-35274
X32480Y-38611
X32835Y-22559
X33228Y-22953
X33858Y-24213
X34080Y-35274
X38563Y-20709
X38898Y-31142
X38898Y-31535
X39252Y-37539
X39291Y-39990
X39528Y-29449
X39754Y-37559
X39754Y-39980
X39961Y-20787
X40197Y-36339
X40236Y-39980
X40256Y-37559
X40394Y-20118
X40787Y-29094
X41181Y-20787
X41260Y-29291
X41299Y-31850
X41457Y-36850
X41811Y-29094
X42283Y-30197
X42402Y-26693
X42520Y-31693
X42559Y-29252
X42795Y-24173
X42795Y-31142
X42913Y-32854
X43150Y-20236
X43661Y-20236
X43780Y-31417
X43898Y-19134
X44291Y-35039
X44409Y-18937
X44409Y-19882
X44488Y-22205
X44724Y-29606
X44724Y-30394
X45118Y-26378
X45157Y-22205
X45354Y-26693
X45380Y-32974
X45380Y-33524
X45709Y-22205
X45748Y-26614
X45846Y-29252
X45930Y-32974
X45930Y-33524
X46299Y-22165
X46530Y-32974
X46530Y-33524
X46614Y-32598
X46654Y-26654
X46654Y-31496
X46693Y-31890
X46811Y-30472
X47283Y-22165
X47559Y-26654
X47559Y-34882
X47756Y-19252
X47795Y-25000
X47880Y-35331
X47904Y-28738
X48287Y-18961
X48307Y-22165
X48583Y-28976
X48819Y-17165
X48819Y-22894
X48880Y-36724
X48898Y-28425
X49035Y-29606
X49134Y-30472
X49331Y-24252
X49606Y-26693
X49803Y-17165
X50118Y-35000
X50236Y-29409
X50433Y-27008
X50669Y-37126
X50709Y-29409
X50827Y-24882
X50839Y-28665
X50866Y-27677
X50984Y-35000
X51063Y-20039
X51075Y-10858
X51181Y-26732
X51339Y-30472
X51339Y-31614
X51417Y-31181
X51417Y-34252
X51536Y-32824
X51575Y-10858
X51575Y-18992
X51890Y-17559
X52075Y-11458
X52283Y-12283
X52362Y-16358
X52362Y-17559
X52362Y-17953
X52362Y-30827
X52559Y-26299
X52575Y-10858
X52575Y-11458
X53031Y-16339
X53031Y-30906
X53189Y-19370
X53465Y-19094
X53642Y-30315
X53858Y-19134
X54016Y-27717
X54173Y-23346
X54724Y-27559
X54780Y-32624
X54803Y-19016
X54803Y-22618
X54961Y-23937
X55039Y-27953
X55079Y-23346
X55551Y-30118
X55787Y-35906
X55906Y-16024
X56024Y-26496
X56181Y-23661
X56260Y-36496
X56614Y-20571
X56614Y-22618
X56772Y-38150
X56772Y-38701
X56772Y-39291
X56850Y-35945
X57047Y-27953
T2
X27591Y-21988
X27591Y-22988
X27591Y-23988
X27591Y-24988
X27591Y-25988
X27591Y-26988
X27591Y-27988
X30591Y-21988
X30591Y-22988
X30591Y-23988
X30591Y-24988
X30591Y-25988
X30591Y-26988
X30591Y-27988
T3
X49555Y-8848
X49555Y-9738
X53595Y-8848
X53595Y-9738
T4
X15374Y-32756
X35805Y-21567
X35805Y-27567
X36805Y-21567
X36805Y-27567
X37805Y-21567
X37805Y-27567
X38805Y-21567
X38805Y-22567
X38805Y-27567
X39805Y-21567
X39805Y-22567
X39805Y-27567
X40805Y-21567
X40805Y-22567
X40805Y-27567
X41805Y-21567
X41805Y-27567
X42805Y-21567
X42805Y-27567
X43805Y-21567
X43805Y-27567
X44805Y-21567
X44805Y-27567
X45805Y-21567
X45805Y-27567
X46805Y-21567
X46805Y-27567
X47805Y-21567
X47805Y-27567
X48805Y-21567
X48805Y-27567
T5
X26395Y-33724
X27980Y-36774
X27980Y-37774
X27980Y-38774
X28364Y-33724
X30080Y-32324
X30080Y-33324
X30080Y-34324
X47980Y-39374
X48980Y-39374
X49980Y-39374
T6
X26579Y-22472
X26579Y-23472
X26579Y-24472
X26579Y-25472
X26680Y-31374
X26680Y-40374
X27680Y-31374
X27680Y-40374
X28680Y-31374
X28680Y-40374
X29680Y-40374
X31579Y-22472
X31579Y-23472
X31579Y-24472
X31579Y-25472
T7
X14016Y-24741
X14016Y-26911
T8
X18673Y-30669
X23846Y-30669
T9
X26772Y-42913
X56693Y-9843
X56693Y-42913
T0
M30
