G04 #@! TF.FileFunction,Paste,Bot*
%FSLAX46Y46*%
G04 Gerber Fmt 4.6, Leading zero omitted, Abs format (unit mm)*
G04 Created by KiCad (PCBNEW 4.0.1-stable) date 2017-04-04 9:13:48 AM*
%MOMM*%
G01*
G04 APERTURE LIST*
%ADD10C,0.150000*%
%ADD11R,2.997200X0.711200*%
%ADD12R,6.045200X3.403600*%
%ADD13C,1.270000*%
%ADD14R,9.000000X11.000000*%
%ADD15R,10.500000X6.000000*%
%ADD16R,1.524000X2.032000*%
%ADD17R,1.000000X1.250000*%
%ADD18R,0.700000X1.300000*%
%ADD19R,1.300000X0.700000*%
%ADD20R,1.250000X1.000000*%
%ADD21R,0.599440X1.099820*%
%ADD22R,0.899160X0.398780*%
%ADD23R,1.000000X1.600000*%
%ADD24R,0.500000X1.100000*%
%ADD25R,1.050000X1.400000*%
G04 APERTURE END LIST*
D10*
D11*
X42610400Y-64731830D03*
X42610400Y-65976430D03*
X42610400Y-67171030D03*
X42610400Y-68465630D03*
D12*
X36181660Y-59679770D03*
X36181660Y-73520230D03*
D13*
X35600000Y-63842830D03*
X35600000Y-69354630D03*
D14*
X93167000Y-84644000D03*
X87833000Y-95947000D03*
D15*
X124409000Y-82247000D03*
D16*
X137290000Y-65190000D03*
X139830000Y-65190000D03*
X142370000Y-65190000D03*
X144910000Y-65190000D03*
X144910000Y-72810000D03*
X142370000Y-72810000D03*
X139830000Y-72810000D03*
X137290000Y-72810000D03*
X134210000Y-72810000D03*
X131670000Y-72810000D03*
X129130000Y-72810000D03*
X126590000Y-72810000D03*
X126590000Y-65190000D03*
X129130000Y-65190000D03*
X131670000Y-65190000D03*
X134210000Y-65190000D03*
D17*
X145900000Y-75200000D03*
X143900000Y-75200000D03*
X140100000Y-75200000D03*
X142100000Y-75200000D03*
D18*
X144650000Y-62800000D03*
X142750000Y-62800000D03*
X139550000Y-62100000D03*
X137650000Y-62100000D03*
X136250000Y-77000000D03*
X134350000Y-77000000D03*
X124550000Y-75200000D03*
X126450000Y-75200000D03*
X136250000Y-75100000D03*
X134350000Y-75100000D03*
D19*
X126600000Y-61550000D03*
X126600000Y-63450000D03*
X110900000Y-53250000D03*
X110900000Y-51350000D03*
X106000000Y-53250000D03*
X106000000Y-51350000D03*
X106200000Y-74850000D03*
X106200000Y-76750000D03*
X103600000Y-74850000D03*
X103600000Y-76750000D03*
D13*
X136130800Y-22473200D03*
X125869200Y-22473200D03*
X136130800Y-24733800D03*
X125869200Y-24733800D03*
D20*
X108700000Y-59400000D03*
X108700000Y-61400000D03*
X111200000Y-61400000D03*
X111200000Y-59400000D03*
D18*
X104650000Y-52800000D03*
X102750000Y-52800000D03*
X67050000Y-82800000D03*
X68950000Y-82800000D03*
D19*
X103700000Y-73450000D03*
X103700000Y-71550000D03*
X106200000Y-73450000D03*
X106200000Y-71550000D03*
X108700000Y-58250000D03*
X108700000Y-56350000D03*
X111200000Y-58250000D03*
X111200000Y-56350000D03*
X107600000Y-51550000D03*
X107600000Y-53450000D03*
X112500000Y-51450000D03*
X112500000Y-53350000D03*
D20*
X100400000Y-74800000D03*
X100400000Y-76800000D03*
D18*
X119350000Y-74300000D03*
X117450000Y-74300000D03*
X122650000Y-71800000D03*
X120750000Y-71800000D03*
D19*
X124000000Y-56250000D03*
X124000000Y-58150000D03*
D21*
X47949960Y-67849680D03*
X47000000Y-67849680D03*
X46050040Y-67849680D03*
X46050040Y-65350320D03*
X47000000Y-65350320D03*
X47949960Y-65350320D03*
D22*
X49851640Y-66898780D03*
X51548360Y-66898780D03*
X51548360Y-66101220D03*
X49851640Y-66101220D03*
D23*
X73600000Y-82800000D03*
X70600000Y-82800000D03*
D24*
X36350000Y-83300000D03*
D25*
X33925000Y-81500000D03*
X33925000Y-85100000D03*
X35375000Y-81500000D03*
X35375000Y-85100000D03*
M02*
