G04 #@! TF.FileFunction,Copper,L2,Bot,Signal*
%FSLAX46Y46*%
G04 Gerber Fmt 4.6, Leading zero omitted, Abs format (unit mm)*
G04 Created by KiCad (PCBNEW 4.0.1-stable) date 2016-12-19 1:07:11 AM*
%MOMM*%
G01*
G04 APERTURE LIST*
%ADD10C,0.150000*%
%ADD11O,1.600000X1.600000*%
%ADD12C,1.900000*%
%ADD13O,3.500120X1.699260*%
%ADD14R,9.000000X11.000000*%
%ADD15O,1.699260X3.500120*%
%ADD16R,10.500000X6.000000*%
%ADD17R,1.524000X2.032000*%
%ADD18R,1.727200X2.032000*%
%ADD19O,1.727200X2.032000*%
%ADD20C,4.064000*%
%ADD21C,1.998980*%
%ADD22R,1.000000X1.250000*%
%ADD23R,0.700000X1.300000*%
%ADD24R,1.300000X0.700000*%
%ADD25R,0.500000X2.800000*%
%ADD26R,2.032000X1.727200*%
%ADD27O,2.032000X1.727200*%
%ADD28C,0.800000*%
%ADD29C,1.200000*%
%ADD30C,0.254000*%
%ADD31C,0.500000*%
%ADD32C,0.100000*%
G04 APERTURE END LIST*
D10*
D11*
X39400000Y-38300000D03*
X39400000Y-40840000D03*
X39400000Y-43380000D03*
X39400000Y-45920000D03*
X39400000Y-48460000D03*
X39400000Y-51000000D03*
X39400000Y-53540000D03*
X31780000Y-53540000D03*
X31780000Y-51000000D03*
X31780000Y-48460000D03*
X31780000Y-45920000D03*
X31780000Y-43380000D03*
X31780000Y-40840000D03*
X31780000Y-38300000D03*
D12*
X57264000Y-37520000D03*
X59804000Y-37520000D03*
X62344000Y-37520000D03*
X52184000Y-50220000D03*
X54724000Y-50220000D03*
X57264000Y-50220000D03*
X59804000Y-50220000D03*
X62344000Y-50220000D03*
X64884000Y-50220000D03*
X67424000Y-50220000D03*
X69964000Y-50220000D03*
X72504000Y-50220000D03*
X75044000Y-50220000D03*
X77584000Y-50220000D03*
X80124000Y-50220000D03*
X82664000Y-50220000D03*
X82664000Y-34980000D03*
X80124000Y-34980000D03*
X77584000Y-34980000D03*
X75044000Y-34980000D03*
X72504000Y-34980000D03*
X69964000Y-34980000D03*
X67424000Y-34980000D03*
X64884000Y-34980000D03*
X62344000Y-34980000D03*
X59804000Y-34980000D03*
X57264000Y-34980000D03*
X54724000Y-34980000D03*
X52184000Y-34980000D03*
X49644000Y-34980000D03*
X49644000Y-50220000D03*
D13*
X36403000Y-62644000D03*
X36403000Y-65184000D03*
X36403000Y-60104000D03*
D14*
X53167000Y-62644000D03*
D13*
X31069000Y-73947000D03*
X31069000Y-76487000D03*
X31069000Y-71407000D03*
D14*
X47833000Y-73947000D03*
D15*
X84409000Y-78011000D03*
X86949000Y-78011000D03*
X81869000Y-78011000D03*
D16*
X84409000Y-60247000D03*
D17*
X97290000Y-43190000D03*
X99830000Y-43190000D03*
X102370000Y-43190000D03*
X104910000Y-43190000D03*
X104910000Y-50810000D03*
X102370000Y-50810000D03*
X99830000Y-50810000D03*
X97290000Y-50810000D03*
X93010000Y-50910000D03*
X90470000Y-50910000D03*
X87930000Y-50910000D03*
X85390000Y-50910000D03*
X85390000Y-43290000D03*
X87930000Y-43290000D03*
X90470000Y-43290000D03*
X93010000Y-43290000D03*
D18*
X27767000Y-57691000D03*
D19*
X30307000Y-57691000D03*
X32847000Y-57691000D03*
D20*
X28000000Y-31000000D03*
X104000000Y-31000000D03*
D21*
X32044360Y-63660000D03*
X27043100Y-63660000D03*
D22*
X105900000Y-53200000D03*
X103900000Y-53200000D03*
X100100000Y-53200000D03*
X102100000Y-53200000D03*
D23*
X104650000Y-40800000D03*
X102750000Y-40800000D03*
X99550000Y-40100000D03*
X97650000Y-40100000D03*
D18*
X27767000Y-80551000D03*
D19*
X30307000Y-80551000D03*
X32847000Y-80551000D03*
X35387000Y-80551000D03*
D23*
X94950000Y-55200000D03*
X93050000Y-55200000D03*
X83550000Y-53200000D03*
X85450000Y-53200000D03*
X93050000Y-53500000D03*
X94950000Y-53500000D03*
D24*
X85400000Y-39650000D03*
X85400000Y-41550000D03*
X70000000Y-38750000D03*
X70000000Y-36850000D03*
X67400000Y-38750000D03*
X67400000Y-36850000D03*
D25*
X97100000Y-23400000D03*
X93900000Y-23400000D03*
X94700000Y-23400000D03*
X96300000Y-23400000D03*
X95500000Y-23400000D03*
X92300000Y-23400000D03*
X93100000Y-23400000D03*
X91500000Y-23400000D03*
X89900000Y-23400000D03*
X90700000Y-23400000D03*
D26*
X47117000Y-40038000D03*
D27*
X47117000Y-42578000D03*
X47117000Y-45118000D03*
X47117000Y-47658000D03*
D26*
X29210000Y-39530000D03*
D27*
X29210000Y-42070000D03*
X29210000Y-44610000D03*
X29210000Y-47150000D03*
D26*
X41910000Y-39530000D03*
D27*
X41910000Y-42070000D03*
X41910000Y-44610000D03*
X41910000Y-47150000D03*
D28*
X87600000Y-38500000D03*
X79500000Y-37100000D03*
X61000000Y-40200000D03*
X76200000Y-40200000D03*
X90700000Y-54200000D03*
X99000000Y-56400000D03*
X101400000Y-32400000D03*
X83600000Y-54700000D03*
X93900000Y-26000000D03*
X54900000Y-30500000D03*
X61930000Y-79408000D03*
X63200000Y-79408000D03*
X64470000Y-79408000D03*
X41950000Y-80100000D03*
X63100000Y-60300000D03*
X46400000Y-60100000D03*
X102300000Y-45300000D03*
X98600000Y-41500000D03*
X43677000Y-60119000D03*
X81615000Y-67740000D03*
X64470000Y-73566000D03*
X63200000Y-73566000D03*
X61930000Y-73566000D03*
X76662000Y-63152000D03*
X78186000Y-61755000D03*
X78186000Y-63152000D03*
X76662000Y-61755000D03*
X75265000Y-61755000D03*
X75265000Y-63152000D03*
X84155000Y-71280000D03*
X99141000Y-60866000D03*
D29*
X101700000Y-28900000D03*
X96900000Y-28300000D03*
X101500000Y-80700000D03*
X29037000Y-77884000D03*
D28*
X82500000Y-41100000D03*
X74700000Y-45100000D03*
X61100000Y-45100000D03*
X90600000Y-65000000D03*
X80800000Y-66600000D03*
D29*
X46563000Y-67597000D03*
X42499000Y-67597000D03*
X98100000Y-37200000D03*
X98200000Y-29000000D03*
X99300000Y-45200000D03*
X99800000Y-49000000D03*
X104900000Y-49000000D03*
D28*
X80700000Y-37800000D03*
X86900000Y-27800000D03*
X94400000Y-40000000D03*
X84500000Y-38700000D03*
X89500000Y-66900000D03*
X87500000Y-66900000D03*
X68600000Y-38700000D03*
X94900000Y-51900000D03*
X74600000Y-60100000D03*
X62800000Y-70800000D03*
X37165000Y-66962000D03*
X31831000Y-67724000D03*
X104100000Y-37800000D03*
X45200000Y-29400000D03*
X101100000Y-54500000D03*
X34000000Y-33500000D03*
X72500000Y-57100000D03*
X87900000Y-55500000D03*
X54400000Y-47500000D03*
X101100000Y-40900000D03*
X101100000Y-47100000D03*
X57200000Y-47100000D03*
X96100000Y-46700000D03*
X103600000Y-45600000D03*
X59800000Y-46700000D03*
D29*
X93000000Y-41500000D03*
X91700000Y-49300000D03*
X25200000Y-55900000D03*
D28*
X73400000Y-30500000D03*
X90900000Y-30300000D03*
X70700000Y-31500000D03*
X87800000Y-30300000D03*
X89675000Y-25814000D03*
X56475000Y-52875000D03*
X55100000Y-52800000D03*
X93500000Y-32800000D03*
X47117000Y-27973000D03*
X84700000Y-27900000D03*
X84900000Y-34300000D03*
X99400000Y-35200000D03*
X94600000Y-31900000D03*
X53467000Y-32291000D03*
X53467000Y-30894000D03*
X93700000Y-30900000D03*
X77700000Y-53900000D03*
X62400000Y-53700000D03*
X64900000Y-52800000D03*
X78900000Y-53000000D03*
X90500000Y-56400000D03*
X93600000Y-28100000D03*
X87900000Y-52300000D03*
D30*
X86100000Y-37000000D02*
X87600000Y-38500000D01*
X79600000Y-37000000D02*
X86100000Y-37000000D01*
X79500000Y-37100000D02*
X79600000Y-37000000D01*
X61000000Y-40200000D02*
X75200000Y-40200000D01*
X75200000Y-40200000D02*
X76200000Y-40200000D01*
X90700000Y-54200000D02*
X90700000Y-54800000D01*
X92300000Y-56400000D02*
X99000000Y-56400000D01*
X90700000Y-54800000D02*
X92300000Y-56400000D01*
X93100000Y-23400000D02*
X93900000Y-23400000D01*
X100600000Y-31600000D02*
X100600000Y-31200000D01*
X101400000Y-32400000D02*
X100600000Y-31600000D01*
X83550000Y-54650000D02*
X83600000Y-54700000D01*
X83550000Y-53200000D02*
X83550000Y-54650000D01*
X98000000Y-31150000D02*
X97950000Y-31150000D01*
X100550000Y-31150000D02*
X100600000Y-31200000D01*
X98000000Y-31150000D02*
X100550000Y-31150000D01*
X93900000Y-26000000D02*
X93900000Y-27100000D01*
X97950000Y-31150000D02*
X93900000Y-27100000D01*
X93900000Y-26000000D02*
X93900000Y-23400000D01*
X60588000Y-80750000D02*
X61930000Y-79408000D01*
X42600000Y-80750000D02*
X60588000Y-80750000D01*
X41950000Y-80100000D02*
X42600000Y-80750000D01*
X43677000Y-60119000D02*
X46381000Y-60119000D01*
X46381000Y-60119000D02*
X46400000Y-60100000D01*
X102400000Y-45200000D02*
X102400000Y-44600000D01*
X102300000Y-45300000D02*
X102400000Y-45200000D01*
X99830000Y-43190000D02*
X99830000Y-43430000D01*
X99830000Y-43430000D02*
X101000000Y-44600000D01*
X103500000Y-44600000D02*
X104910000Y-43190000D01*
X101000000Y-44600000D02*
X102400000Y-44600000D01*
X102400000Y-44600000D02*
X103500000Y-44600000D01*
X99830000Y-43190000D02*
X99830000Y-42730000D01*
X99830000Y-42730000D02*
X98600000Y-41500000D01*
X36403000Y-60104000D02*
X43662000Y-60104000D01*
X43662000Y-60104000D02*
X43677000Y-60119000D01*
X36403000Y-60104000D02*
X30180000Y-60104000D01*
X30180000Y-60104000D02*
X27767000Y-57691000D01*
X81615000Y-67740000D02*
X81615000Y-67724000D01*
D31*
X96900000Y-28300000D02*
X96900000Y-29300000D01*
X100400000Y-30200000D02*
X101700000Y-28900000D01*
X97800000Y-30200000D02*
X100400000Y-30200000D01*
X96900000Y-29300000D02*
X97800000Y-30200000D01*
X96300000Y-23400000D02*
X96300000Y-28000000D01*
X96600000Y-28300000D02*
X96900000Y-28300000D01*
X96300000Y-28000000D02*
X96600000Y-28300000D01*
X95500000Y-23400000D02*
X94700000Y-23400000D01*
X96300000Y-23400000D02*
X95500000Y-23400000D01*
X35387000Y-80551000D02*
X35387000Y-81187000D01*
X35387000Y-81187000D02*
X36600000Y-82400000D01*
X36600000Y-82400000D02*
X99800000Y-82400000D01*
X99800000Y-82400000D02*
X101500000Y-80700000D01*
X33863000Y-77884000D02*
X29037000Y-77884000D01*
X35387000Y-80170000D02*
X35387000Y-79408000D01*
X35387000Y-79408000D02*
X33863000Y-77884000D01*
D30*
X82500000Y-41100000D02*
X82950000Y-41550000D01*
X82950000Y-41550000D02*
X85400000Y-41550000D01*
X85400000Y-41550000D02*
X85400000Y-43280000D01*
X85400000Y-43280000D02*
X85390000Y-43290000D01*
X74700000Y-45100000D02*
X61100000Y-45100000D01*
X61200000Y-45000000D02*
X61100000Y-45100000D01*
X82400000Y-65000000D02*
X90600000Y-65000000D01*
X80800000Y-66600000D02*
X82400000Y-65000000D01*
X85390000Y-50910000D02*
X85390000Y-53140000D01*
X85390000Y-53140000D02*
X85450000Y-53200000D01*
X93050000Y-53500000D02*
X93050000Y-50950000D01*
X93050000Y-50950000D02*
X93010000Y-50910000D01*
D31*
X42499000Y-67597000D02*
X46563000Y-67597000D01*
X31069000Y-73947000D02*
X35006000Y-73947000D01*
X41356000Y-67597000D02*
X42499000Y-67597000D01*
X35006000Y-73947000D02*
X41356000Y-67597000D01*
X97100000Y-26800000D02*
X97900000Y-27600000D01*
X98100000Y-37200000D02*
X98100000Y-37400000D01*
X97100000Y-23400000D02*
X97100000Y-26800000D01*
X95400000Y-40100000D02*
X95400000Y-45200000D01*
X98100000Y-37400000D02*
X95400000Y-40100000D01*
X97900000Y-28700000D02*
X97900000Y-27600000D01*
X98200000Y-29000000D02*
X97900000Y-28700000D01*
X90470000Y-43290000D02*
X90470000Y-44170000D01*
X90470000Y-44170000D02*
X91500000Y-45200000D01*
X91500000Y-45200000D02*
X95400000Y-45200000D01*
X95400000Y-45200000D02*
X99300000Y-45200000D01*
X87930000Y-43290000D02*
X90470000Y-43290000D01*
X97290000Y-50810000D02*
X97290000Y-49610000D01*
X97900000Y-49000000D02*
X99800000Y-49000000D01*
X97290000Y-49610000D02*
X97900000Y-49000000D01*
X102370000Y-50810000D02*
X102370000Y-49000000D01*
X102300000Y-49070000D02*
X102300000Y-49000000D01*
X102370000Y-49000000D02*
X102300000Y-49070000D01*
X99800000Y-49000000D02*
X102300000Y-49000000D01*
X102300000Y-49000000D02*
X104900000Y-49000000D01*
D30*
X80700000Y-37800000D02*
X80700000Y-38750000D01*
X80700000Y-38750000D02*
X80700000Y-38700000D01*
X80700000Y-38700000D02*
X80700000Y-38750000D01*
X81200000Y-38750000D02*
X81200000Y-38700000D01*
X81200000Y-38700000D02*
X81200000Y-38750000D01*
X54724000Y-34980000D02*
X54724000Y-33200000D01*
X29210000Y-39530000D02*
X29210000Y-35790000D01*
X50800000Y-33200000D02*
X54724000Y-33200000D01*
X50000000Y-32400000D02*
X50800000Y-33200000D01*
X32600000Y-32400000D02*
X50000000Y-32400000D01*
X29210000Y-35790000D02*
X32600000Y-32400000D01*
X91500000Y-23400000D02*
X91500000Y-25600000D01*
X89300000Y-27800000D02*
X86900000Y-27800000D01*
X91500000Y-25600000D02*
X89300000Y-27800000D01*
X85400000Y-39650000D02*
X94050000Y-39650000D01*
X94050000Y-39650000D02*
X94400000Y-40000000D01*
X84500000Y-38700000D02*
X84500000Y-38750000D01*
X90700000Y-23400000D02*
X91500000Y-23400000D01*
X89500000Y-66900000D02*
X87500000Y-66900000D01*
X68600000Y-38700000D02*
X68600000Y-38750000D01*
X68600000Y-38750000D02*
X68600000Y-38700000D01*
X68600000Y-38700000D02*
X68600000Y-38750000D01*
X94900000Y-51900000D02*
X94950000Y-51950000D01*
X94950000Y-53500000D02*
X94950000Y-51950000D01*
X54724000Y-33200000D02*
X54724000Y-33180000D01*
X66167000Y-37517000D02*
X67400000Y-38750000D01*
X66167000Y-33942000D02*
X66167000Y-37517000D01*
X65405000Y-33180000D02*
X66167000Y-33942000D01*
X54724000Y-33180000D02*
X65405000Y-33180000D01*
X70000000Y-38750000D02*
X76000000Y-38750000D01*
X76000000Y-38750000D02*
X80700000Y-38750000D01*
X80700000Y-38750000D02*
X81200000Y-38750000D01*
X81200000Y-38750000D02*
X84500000Y-38750000D01*
X84500000Y-38750000D02*
X85400000Y-39650000D01*
X67400000Y-38750000D02*
X68600000Y-38750000D01*
X68600000Y-38750000D02*
X70000000Y-38750000D01*
X94950000Y-55200000D02*
X94950000Y-53500000D01*
X73500000Y-60100000D02*
X74600000Y-60100000D01*
X62800000Y-70800000D02*
X73500000Y-60100000D01*
X34879000Y-66962000D02*
X37165000Y-66962000D01*
X34117000Y-67724000D02*
X34879000Y-66962000D01*
X31831000Y-67724000D02*
X34117000Y-67724000D01*
X97800000Y-33600000D02*
X99100000Y-33600000D01*
X92350000Y-28150000D02*
X97800000Y-33600000D01*
X103300000Y-37800000D02*
X104100000Y-37800000D01*
X99100000Y-33600000D02*
X103300000Y-37800000D01*
X92350000Y-28150000D02*
X90250000Y-28150000D01*
X49400000Y-29400000D02*
X45200000Y-29400000D01*
X49900000Y-28900000D02*
X49400000Y-29400000D01*
X89500000Y-28900000D02*
X49900000Y-28900000D01*
X90250000Y-28150000D02*
X89500000Y-28900000D01*
X92300000Y-28100000D02*
X92350000Y-28150000D01*
X92300000Y-23400000D02*
X92300000Y-28100000D01*
X101500000Y-53200000D02*
X102100000Y-53200000D01*
X101100000Y-54500000D02*
X101100000Y-53600000D01*
X101100000Y-53600000D02*
X101500000Y-53200000D01*
X103900000Y-53200000D02*
X102100000Y-53200000D01*
X105900000Y-53200000D02*
X105900000Y-51800000D01*
X105900000Y-51800000D02*
X104910000Y-50810000D01*
X99830000Y-50810000D02*
X99830000Y-52930000D01*
X99830000Y-52930000D02*
X100100000Y-53200000D01*
X29210000Y-44610000D02*
X29210000Y-45110000D01*
X29210000Y-45110000D02*
X31200000Y-47100000D01*
X38500000Y-44700000D02*
X39900000Y-44700000D01*
X36100000Y-47100000D02*
X38500000Y-44700000D01*
X31200000Y-47100000D02*
X36100000Y-47100000D01*
X51024000Y-46300000D02*
X59804000Y-37520000D01*
X46100000Y-46300000D02*
X51024000Y-46300000D01*
X45800000Y-46000000D02*
X46100000Y-46300000D01*
X41200000Y-46000000D02*
X45800000Y-46000000D01*
X39810000Y-44610000D02*
X39900000Y-44700000D01*
X39900000Y-44700000D02*
X41200000Y-46000000D01*
X41910000Y-47150000D02*
X43750000Y-47150000D01*
X50964000Y-48900000D02*
X62344000Y-37520000D01*
X45500000Y-48900000D02*
X50964000Y-48900000D01*
X43750000Y-47150000D02*
X45500000Y-48900000D01*
X31780000Y-51000000D02*
X33800000Y-51000000D01*
X37650000Y-47150000D02*
X41910000Y-47150000D01*
X33800000Y-51000000D02*
X37650000Y-47150000D01*
X34000000Y-41400000D02*
X32020000Y-43380000D01*
X34000000Y-33500000D02*
X34000000Y-41400000D01*
X32020000Y-43380000D02*
X31780000Y-43380000D01*
X73100000Y-56500000D02*
X86300000Y-56500000D01*
X72500000Y-57100000D02*
X73100000Y-56500000D01*
X86900000Y-56500000D02*
X86300000Y-56500000D01*
X87900000Y-55500000D02*
X86900000Y-56500000D01*
X52184000Y-50220000D02*
X52184000Y-49716000D01*
X52184000Y-49716000D02*
X53500000Y-48400000D01*
X96100000Y-48400000D02*
X53500000Y-48400000D01*
X96500000Y-48000000D02*
X103400000Y-48000000D01*
X103400000Y-48000000D02*
X106400000Y-45000000D01*
X106400000Y-45000000D02*
X106400000Y-41400000D01*
X106400000Y-41400000D02*
X105800000Y-40800000D01*
X104650000Y-40800000D02*
X105800000Y-40800000D01*
X96100000Y-48400000D02*
X96500000Y-48000000D01*
X102370000Y-43190000D02*
X102370000Y-41180000D01*
X102370000Y-41180000D02*
X102750000Y-40800000D01*
X54800000Y-47900000D02*
X54800000Y-48018998D01*
X54400000Y-47500000D02*
X54800000Y-47900000D01*
X100600000Y-47600000D02*
X101100000Y-47100000D01*
X95800000Y-47600000D02*
X100600000Y-47600000D01*
X95381002Y-48018998D02*
X95800000Y-47600000D01*
X95381002Y-48018998D02*
X54800000Y-48018998D01*
X99550000Y-40100000D02*
X100300000Y-40100000D01*
X100300000Y-40100000D02*
X101100000Y-40900000D01*
X97290000Y-43190000D02*
X97290000Y-40460000D01*
X97290000Y-40460000D02*
X97650000Y-40100000D01*
X57737996Y-47637996D02*
X95162004Y-47637996D01*
X57200000Y-47100000D02*
X57737996Y-47637996D01*
X95162004Y-47637996D02*
X96100000Y-46700000D01*
X95600000Y-45800000D02*
X97000000Y-45800000D01*
X103000000Y-46200000D02*
X103600000Y-45600000D01*
X97400000Y-46200000D02*
X103000000Y-46200000D01*
X97000000Y-45800000D02*
X97400000Y-46200000D01*
X60241773Y-47141773D02*
X94258227Y-47141773D01*
X94258227Y-47141773D02*
X95600000Y-45800000D01*
X60241773Y-47141773D02*
X59800000Y-46700000D01*
D31*
X91700000Y-49300000D02*
X84575000Y-49300000D01*
X79175000Y-55900000D02*
X30307000Y-55900000D01*
X84025000Y-51050000D02*
X79175000Y-55900000D01*
X84025000Y-49850000D02*
X84025000Y-51050000D01*
X84575000Y-49300000D02*
X84025000Y-49850000D01*
X93010000Y-43290000D02*
X93010000Y-41510000D01*
X93000000Y-41500000D02*
X93010000Y-41510000D01*
X30307000Y-57691000D02*
X30307000Y-55900000D01*
X30307000Y-55900000D02*
X25200000Y-55900000D01*
D30*
X85700000Y-30900000D02*
X87200000Y-29400000D01*
X73400000Y-30500000D02*
X73800000Y-30900000D01*
X73800000Y-30900000D02*
X85700000Y-30900000D01*
X90000000Y-29400000D02*
X90900000Y-30300000D01*
X87200000Y-29400000D02*
X90000000Y-29400000D01*
X67424000Y-34980000D02*
X67424000Y-36826000D01*
X67424000Y-36826000D02*
X67400000Y-36850000D01*
X86000000Y-31500000D02*
X70700000Y-31500000D01*
X86800000Y-30700000D02*
X86000000Y-31500000D01*
X87400000Y-30700000D02*
X86800000Y-30700000D01*
X87800000Y-30300000D02*
X87400000Y-30700000D01*
X89900000Y-25589000D02*
X89675000Y-25814000D01*
X89900000Y-23400000D02*
X89900000Y-25589000D01*
X69964000Y-34980000D02*
X69964000Y-36814000D01*
X69964000Y-36814000D02*
X70000000Y-36850000D01*
X56475000Y-52875000D02*
X56525000Y-52875000D01*
X68302998Y-51881002D02*
X69964000Y-50220000D01*
X57518998Y-51881002D02*
X68302998Y-51881002D01*
X56525000Y-52875000D02*
X57518998Y-51881002D01*
X67424000Y-50220000D02*
X67380000Y-50220000D01*
X67380000Y-50220000D02*
X66100000Y-51500000D01*
X66100000Y-51500000D02*
X56400000Y-51500000D01*
X56400000Y-51500000D02*
X55100000Y-52800000D01*
X93500000Y-32800000D02*
X93500000Y-34300000D01*
X47117000Y-27973000D02*
X84627000Y-27973000D01*
X84627000Y-27973000D02*
X84700000Y-27900000D01*
X98500000Y-34300000D02*
X93500000Y-34300000D01*
X93500000Y-34300000D02*
X84900000Y-34300000D01*
X99400000Y-35200000D02*
X98500000Y-34300000D01*
X86547000Y-33053000D02*
X87700000Y-31900000D01*
X87700000Y-31900000D02*
X94600000Y-31900000D01*
X53467000Y-32291000D02*
X66040000Y-32291000D01*
X66040000Y-32291000D02*
X66802000Y-33053000D01*
X66802000Y-33053000D02*
X86547000Y-33053000D01*
X53594000Y-30894000D02*
X54483000Y-31783000D01*
X54483000Y-31783000D02*
X66802000Y-31783000D01*
X66802000Y-31783000D02*
X67437000Y-32418000D01*
X53467000Y-30894000D02*
X53594000Y-30894000D01*
X67437000Y-32418000D02*
X85982000Y-32418000D01*
X87200000Y-31200000D02*
X85982000Y-32418000D01*
X93400000Y-31200000D02*
X87200000Y-31200000D01*
X93700000Y-30900000D02*
X93400000Y-31200000D01*
X62600000Y-53900000D02*
X77700000Y-53900000D01*
X62400000Y-53700000D02*
X62600000Y-53900000D01*
X78900000Y-53000000D02*
X65100000Y-53000000D01*
X65100000Y-53000000D02*
X64900000Y-52800000D01*
X41910000Y-39530000D02*
X43970000Y-39530000D01*
X63504000Y-33600000D02*
X64884000Y-34980000D01*
X59300000Y-33600000D02*
X63504000Y-33600000D01*
X58500000Y-34400000D02*
X59300000Y-33600000D01*
X58500000Y-35700000D02*
X58500000Y-34400000D01*
X58000000Y-36200000D02*
X58500000Y-35700000D01*
X47300000Y-36200000D02*
X58000000Y-36200000D01*
X43970000Y-39530000D02*
X47300000Y-36200000D01*
X62344000Y-34980000D02*
X62344000Y-35456000D01*
X62344000Y-35456000D02*
X61500000Y-36300000D01*
X61500000Y-36300000D02*
X58900000Y-36300000D01*
X58900000Y-36300000D02*
X58542591Y-36657409D01*
X58542591Y-36657409D02*
X58542591Y-37957409D01*
X58542591Y-37957409D02*
X52600000Y-43900000D01*
X52600000Y-43900000D02*
X42620000Y-43900000D01*
X42620000Y-43900000D02*
X41910000Y-44610000D01*
X106781010Y-53901192D02*
X106781010Y-54218990D01*
X93600000Y-28100000D02*
X98600000Y-33100000D01*
X98600000Y-33100000D02*
X100663922Y-33100000D01*
X100663922Y-33100000D02*
X106781010Y-39217088D01*
X106781010Y-39217088D02*
X106781010Y-53901192D01*
X103545999Y-57454001D02*
X91554001Y-57454001D01*
X91554001Y-57454001D02*
X90500000Y-56400000D01*
X106781010Y-54218990D02*
X103545999Y-57454001D01*
X87900000Y-52300000D02*
X87930000Y-52270000D01*
X87930000Y-52270000D02*
X87930000Y-50910000D01*
X90470000Y-50910000D02*
X90470000Y-52620000D01*
X90470000Y-52620000D02*
X93050000Y-55200000D01*
X90470000Y-50910000D02*
X87930000Y-50910000D01*
D32*
G36*
X31621226Y-68773818D02*
X32038942Y-68774182D01*
X32339485Y-68650000D01*
X48256189Y-68650000D01*
X48409159Y-68754520D01*
X48667000Y-68806734D01*
X57650000Y-68806734D01*
X57650000Y-79973000D01*
X43000111Y-79973000D01*
X43000182Y-79892058D01*
X42840666Y-79506000D01*
X42545554Y-79210372D01*
X42159774Y-79050182D01*
X41742058Y-79049818D01*
X41356000Y-79209334D01*
X41060372Y-79504446D01*
X40900182Y-79890226D01*
X40899818Y-80307942D01*
X41059334Y-80694000D01*
X41354446Y-80989628D01*
X41740226Y-81149818D01*
X41901114Y-81149958D01*
X42050578Y-81299422D01*
X42302655Y-81467854D01*
X42464263Y-81500000D01*
X36972792Y-81500000D01*
X36785828Y-81313036D01*
X36900600Y-80736039D01*
X36900600Y-80365961D01*
X36785384Y-79786731D01*
X36457277Y-79295684D01*
X36235135Y-79147253D01*
X36218492Y-79063585D01*
X36023396Y-78771604D01*
X34499396Y-77247604D01*
X34207415Y-77052508D01*
X33863000Y-76984000D01*
X33417220Y-76984000D01*
X33516080Y-76487000D01*
X33401927Y-75913116D01*
X33076849Y-75426601D01*
X32590334Y-75101523D01*
X32016450Y-74987370D01*
X30121550Y-74987370D01*
X29547666Y-75101523D01*
X29061151Y-75426601D01*
X28736073Y-75913116D01*
X28621920Y-76487000D01*
X28661623Y-76686600D01*
X28329857Y-76823684D01*
X27977919Y-77175007D01*
X27787217Y-77634269D01*
X27786783Y-78131550D01*
X27976684Y-78591143D01*
X28257316Y-78872266D01*
X26903400Y-78872266D01*
X26662524Y-78917590D01*
X26441295Y-79059947D01*
X26292880Y-79277159D01*
X26240666Y-79535000D01*
X26240666Y-81567000D01*
X26285990Y-81807876D01*
X26428347Y-82029105D01*
X26645559Y-82177520D01*
X26903400Y-82229734D01*
X28630600Y-82229734D01*
X28871476Y-82184410D01*
X29092705Y-82042053D01*
X29241120Y-81824841D01*
X29243900Y-81811112D01*
X29727770Y-82134423D01*
X30307000Y-82249639D01*
X30886230Y-82134423D01*
X31377277Y-81806316D01*
X31577000Y-81507409D01*
X31776723Y-81806316D01*
X32267770Y-82134423D01*
X32847000Y-82249639D01*
X33426230Y-82134423D01*
X33917277Y-81806316D01*
X34117000Y-81507409D01*
X34316723Y-81806316D01*
X34807770Y-82134423D01*
X35124665Y-82197457D01*
X35227208Y-82300000D01*
X24700000Y-82300000D01*
X24700000Y-71407000D01*
X28621920Y-71407000D01*
X28736073Y-71980884D01*
X29061151Y-72467399D01*
X29547666Y-72792477D01*
X30121550Y-72906630D01*
X32016450Y-72906630D01*
X32590334Y-72792477D01*
X33076849Y-72467399D01*
X33401927Y-71980884D01*
X33516080Y-71407000D01*
X33401927Y-70833116D01*
X33076849Y-70346601D01*
X32590334Y-70021523D01*
X32016450Y-69907370D01*
X30121550Y-69907370D01*
X29547666Y-70021523D01*
X29061151Y-70346601D01*
X28736073Y-70833116D01*
X28621920Y-71407000D01*
X24700000Y-71407000D01*
X24700000Y-68650000D01*
X31323039Y-68650000D01*
X31621226Y-68773818D01*
X31621226Y-68773818D01*
G37*
X31621226Y-68773818D02*
X32038942Y-68774182D01*
X32339485Y-68650000D01*
X48256189Y-68650000D01*
X48409159Y-68754520D01*
X48667000Y-68806734D01*
X57650000Y-68806734D01*
X57650000Y-79973000D01*
X43000111Y-79973000D01*
X43000182Y-79892058D01*
X42840666Y-79506000D01*
X42545554Y-79210372D01*
X42159774Y-79050182D01*
X41742058Y-79049818D01*
X41356000Y-79209334D01*
X41060372Y-79504446D01*
X40900182Y-79890226D01*
X40899818Y-80307942D01*
X41059334Y-80694000D01*
X41354446Y-80989628D01*
X41740226Y-81149818D01*
X41901114Y-81149958D01*
X42050578Y-81299422D01*
X42302655Y-81467854D01*
X42464263Y-81500000D01*
X36972792Y-81500000D01*
X36785828Y-81313036D01*
X36900600Y-80736039D01*
X36900600Y-80365961D01*
X36785384Y-79786731D01*
X36457277Y-79295684D01*
X36235135Y-79147253D01*
X36218492Y-79063585D01*
X36023396Y-78771604D01*
X34499396Y-77247604D01*
X34207415Y-77052508D01*
X33863000Y-76984000D01*
X33417220Y-76984000D01*
X33516080Y-76487000D01*
X33401927Y-75913116D01*
X33076849Y-75426601D01*
X32590334Y-75101523D01*
X32016450Y-74987370D01*
X30121550Y-74987370D01*
X29547666Y-75101523D01*
X29061151Y-75426601D01*
X28736073Y-75913116D01*
X28621920Y-76487000D01*
X28661623Y-76686600D01*
X28329857Y-76823684D01*
X27977919Y-77175007D01*
X27787217Y-77634269D01*
X27786783Y-78131550D01*
X27976684Y-78591143D01*
X28257316Y-78872266D01*
X26903400Y-78872266D01*
X26662524Y-78917590D01*
X26441295Y-79059947D01*
X26292880Y-79277159D01*
X26240666Y-79535000D01*
X26240666Y-81567000D01*
X26285990Y-81807876D01*
X26428347Y-82029105D01*
X26645559Y-82177520D01*
X26903400Y-82229734D01*
X28630600Y-82229734D01*
X28871476Y-82184410D01*
X29092705Y-82042053D01*
X29241120Y-81824841D01*
X29243900Y-81811112D01*
X29727770Y-82134423D01*
X30307000Y-82249639D01*
X30886230Y-82134423D01*
X31377277Y-81806316D01*
X31577000Y-81507409D01*
X31776723Y-81806316D01*
X32267770Y-82134423D01*
X32847000Y-82249639D01*
X33426230Y-82134423D01*
X33917277Y-81806316D01*
X34117000Y-81507409D01*
X34316723Y-81806316D01*
X34807770Y-82134423D01*
X35124665Y-82197457D01*
X35227208Y-82300000D01*
X24700000Y-82300000D01*
X24700000Y-71407000D01*
X28621920Y-71407000D01*
X28736073Y-71980884D01*
X29061151Y-72467399D01*
X29547666Y-72792477D01*
X30121550Y-72906630D01*
X32016450Y-72906630D01*
X32590334Y-72792477D01*
X33076849Y-72467399D01*
X33401927Y-71980884D01*
X33516080Y-71407000D01*
X33401927Y-70833116D01*
X33076849Y-70346601D01*
X32590334Y-70021523D01*
X32016450Y-69907370D01*
X30121550Y-69907370D01*
X29547666Y-70021523D01*
X29061151Y-70346601D01*
X28736073Y-70833116D01*
X28621920Y-71407000D01*
X24700000Y-71407000D01*
X24700000Y-68650000D01*
X31323039Y-68650000D01*
X31621226Y-68773818D01*
D30*
G36*
X26255960Y-58707000D02*
X26300238Y-58942317D01*
X26439310Y-59158441D01*
X26651510Y-59303431D01*
X26903400Y-59354440D01*
X28352810Y-59354440D01*
X29641184Y-60642815D01*
X29888395Y-60807996D01*
X30180000Y-60866000D01*
X34213756Y-60866000D01*
X34406052Y-61153792D01*
X34887701Y-61475619D01*
X35455844Y-61588630D01*
X37350156Y-61588630D01*
X37918299Y-61475619D01*
X38399948Y-61153792D01*
X38592244Y-60866000D01*
X42960261Y-60866000D01*
X43089954Y-60995919D01*
X43470223Y-61153820D01*
X43881971Y-61154179D01*
X44262515Y-60996942D01*
X44378659Y-60881000D01*
X45717202Y-60881000D01*
X45812954Y-60976919D01*
X46193223Y-61134820D01*
X46604971Y-61135179D01*
X46985515Y-60977942D01*
X47276919Y-60687046D01*
X47434820Y-60306777D01*
X47435179Y-59895029D01*
X47277942Y-59514485D01*
X46987046Y-59223081D01*
X46606777Y-59065180D01*
X46195029Y-59064821D01*
X45814485Y-59222058D01*
X45679307Y-59357000D01*
X44378765Y-59357000D01*
X44264046Y-59242081D01*
X43883777Y-59084180D01*
X43472029Y-59083821D01*
X43091485Y-59241058D01*
X42990367Y-59342000D01*
X38592244Y-59342000D01*
X38399948Y-59054208D01*
X37918299Y-58732381D01*
X37350156Y-58619370D01*
X35455844Y-58619370D01*
X34887701Y-58732381D01*
X34406052Y-59054208D01*
X34213756Y-59342000D01*
X33009609Y-59342000D01*
X33420489Y-59260271D01*
X33906670Y-58935415D01*
X34231526Y-58449234D01*
X34345600Y-57875745D01*
X34345600Y-57506255D01*
X34290053Y-57227000D01*
X57573000Y-57227000D01*
X57573000Y-67873000D01*
X52617719Y-67873000D01*
X52584890Y-67850569D01*
X52333000Y-67799560D01*
X47797824Y-67799560D01*
X47798214Y-67352421D01*
X47610592Y-66898343D01*
X47263485Y-66550629D01*
X46809734Y-66362215D01*
X46318421Y-66361786D01*
X45864343Y-66549408D01*
X45701467Y-66712000D01*
X43360574Y-66712000D01*
X43199485Y-66550629D01*
X42745734Y-66362215D01*
X42254421Y-66361786D01*
X41800343Y-66549408D01*
X41637467Y-66712000D01*
X41356005Y-66712000D01*
X41356000Y-66711999D01*
X41017325Y-66779367D01*
X40730210Y-66971210D01*
X40730208Y-66971213D01*
X39828421Y-67873000D01*
X37670508Y-67873000D01*
X37750515Y-67839942D01*
X38041919Y-67549046D01*
X38199820Y-67168777D01*
X38200179Y-66757029D01*
X38073978Y-66451598D01*
X38399948Y-66233792D01*
X38721775Y-65752143D01*
X38834786Y-65184000D01*
X38721775Y-64615857D01*
X38399948Y-64134208D01*
X37918299Y-63812381D01*
X37350156Y-63699370D01*
X35455844Y-63699370D01*
X34887701Y-63812381D01*
X34406052Y-64134208D01*
X34084225Y-64615857D01*
X33971214Y-65184000D01*
X34084225Y-65752143D01*
X34406052Y-66233792D01*
X34514842Y-66306483D01*
X34488377Y-66324166D01*
X34340185Y-66423184D01*
X33801370Y-66962000D01*
X32532765Y-66962000D01*
X32418046Y-66847081D01*
X32037777Y-66689180D01*
X31626029Y-66688821D01*
X31245485Y-66846058D01*
X30954081Y-67136954D01*
X30796180Y-67517223D01*
X30795870Y-67873000D01*
X24685000Y-67873000D01*
X24685000Y-63983694D01*
X25408326Y-63983694D01*
X25656638Y-64584655D01*
X26116027Y-65044846D01*
X26716553Y-65294206D01*
X27366794Y-65294774D01*
X27967755Y-65046462D01*
X28427946Y-64587073D01*
X28677306Y-63986547D01*
X28677308Y-63983694D01*
X30409586Y-63983694D01*
X30657898Y-64584655D01*
X31117287Y-65044846D01*
X31717813Y-65294206D01*
X32368054Y-65294774D01*
X32969015Y-65046462D01*
X33429206Y-64587073D01*
X33678566Y-63986547D01*
X33679134Y-63336306D01*
X33430822Y-62735345D01*
X32971433Y-62275154D01*
X32370907Y-62025794D01*
X31720666Y-62025226D01*
X31119705Y-62273538D01*
X30659514Y-62732927D01*
X30410154Y-63333453D01*
X30409586Y-63983694D01*
X28677308Y-63983694D01*
X28677874Y-63336306D01*
X28429562Y-62735345D01*
X27970173Y-62275154D01*
X27369647Y-62025794D01*
X26719406Y-62025226D01*
X26118445Y-62273538D01*
X25658254Y-62732927D01*
X25408894Y-63333453D01*
X25408326Y-63983694D01*
X24685000Y-63983694D01*
X24685000Y-57227000D01*
X26255960Y-57227000D01*
X26255960Y-58707000D01*
X26255960Y-58707000D01*
G37*
X26255960Y-58707000D02*
X26300238Y-58942317D01*
X26439310Y-59158441D01*
X26651510Y-59303431D01*
X26903400Y-59354440D01*
X28352810Y-59354440D01*
X29641184Y-60642815D01*
X29888395Y-60807996D01*
X30180000Y-60866000D01*
X34213756Y-60866000D01*
X34406052Y-61153792D01*
X34887701Y-61475619D01*
X35455844Y-61588630D01*
X37350156Y-61588630D01*
X37918299Y-61475619D01*
X38399948Y-61153792D01*
X38592244Y-60866000D01*
X42960261Y-60866000D01*
X43089954Y-60995919D01*
X43470223Y-61153820D01*
X43881971Y-61154179D01*
X44262515Y-60996942D01*
X44378659Y-60881000D01*
X45717202Y-60881000D01*
X45812954Y-60976919D01*
X46193223Y-61134820D01*
X46604971Y-61135179D01*
X46985515Y-60977942D01*
X47276919Y-60687046D01*
X47434820Y-60306777D01*
X47435179Y-59895029D01*
X47277942Y-59514485D01*
X46987046Y-59223081D01*
X46606777Y-59065180D01*
X46195029Y-59064821D01*
X45814485Y-59222058D01*
X45679307Y-59357000D01*
X44378765Y-59357000D01*
X44264046Y-59242081D01*
X43883777Y-59084180D01*
X43472029Y-59083821D01*
X43091485Y-59241058D01*
X42990367Y-59342000D01*
X38592244Y-59342000D01*
X38399948Y-59054208D01*
X37918299Y-58732381D01*
X37350156Y-58619370D01*
X35455844Y-58619370D01*
X34887701Y-58732381D01*
X34406052Y-59054208D01*
X34213756Y-59342000D01*
X33009609Y-59342000D01*
X33420489Y-59260271D01*
X33906670Y-58935415D01*
X34231526Y-58449234D01*
X34345600Y-57875745D01*
X34345600Y-57506255D01*
X34290053Y-57227000D01*
X57573000Y-57227000D01*
X57573000Y-67873000D01*
X52617719Y-67873000D01*
X52584890Y-67850569D01*
X52333000Y-67799560D01*
X47797824Y-67799560D01*
X47798214Y-67352421D01*
X47610592Y-66898343D01*
X47263485Y-66550629D01*
X46809734Y-66362215D01*
X46318421Y-66361786D01*
X45864343Y-66549408D01*
X45701467Y-66712000D01*
X43360574Y-66712000D01*
X43199485Y-66550629D01*
X42745734Y-66362215D01*
X42254421Y-66361786D01*
X41800343Y-66549408D01*
X41637467Y-66712000D01*
X41356005Y-66712000D01*
X41356000Y-66711999D01*
X41017325Y-66779367D01*
X40730210Y-66971210D01*
X40730208Y-66971213D01*
X39828421Y-67873000D01*
X37670508Y-67873000D01*
X37750515Y-67839942D01*
X38041919Y-67549046D01*
X38199820Y-67168777D01*
X38200179Y-66757029D01*
X38073978Y-66451598D01*
X38399948Y-66233792D01*
X38721775Y-65752143D01*
X38834786Y-65184000D01*
X38721775Y-64615857D01*
X38399948Y-64134208D01*
X37918299Y-63812381D01*
X37350156Y-63699370D01*
X35455844Y-63699370D01*
X34887701Y-63812381D01*
X34406052Y-64134208D01*
X34084225Y-64615857D01*
X33971214Y-65184000D01*
X34084225Y-65752143D01*
X34406052Y-66233792D01*
X34514842Y-66306483D01*
X34488377Y-66324166D01*
X34340185Y-66423184D01*
X33801370Y-66962000D01*
X32532765Y-66962000D01*
X32418046Y-66847081D01*
X32037777Y-66689180D01*
X31626029Y-66688821D01*
X31245485Y-66846058D01*
X30954081Y-67136954D01*
X30796180Y-67517223D01*
X30795870Y-67873000D01*
X24685000Y-67873000D01*
X24685000Y-63983694D01*
X25408326Y-63983694D01*
X25656638Y-64584655D01*
X26116027Y-65044846D01*
X26716553Y-65294206D01*
X27366794Y-65294774D01*
X27967755Y-65046462D01*
X28427946Y-64587073D01*
X28677306Y-63986547D01*
X28677308Y-63983694D01*
X30409586Y-63983694D01*
X30657898Y-64584655D01*
X31117287Y-65044846D01*
X31717813Y-65294206D01*
X32368054Y-65294774D01*
X32969015Y-65046462D01*
X33429206Y-64587073D01*
X33678566Y-63986547D01*
X33679134Y-63336306D01*
X33430822Y-62735345D01*
X32971433Y-62275154D01*
X32370907Y-62025794D01*
X31720666Y-62025226D01*
X31119705Y-62273538D01*
X30659514Y-62732927D01*
X30410154Y-63333453D01*
X30409586Y-63983694D01*
X28677308Y-63983694D01*
X28677874Y-63336306D01*
X28429562Y-62735345D01*
X27970173Y-62275154D01*
X27369647Y-62025794D01*
X26719406Y-62025226D01*
X26118445Y-62273538D01*
X25658254Y-62732927D01*
X25408894Y-63333453D01*
X25408326Y-63983694D01*
X24685000Y-63983694D01*
X24685000Y-57227000D01*
X26255960Y-57227000D01*
X26255960Y-58707000D01*
G36*
X107315000Y-82315000D02*
X102925758Y-82315000D01*
X102904000Y-70318770D01*
X102893904Y-70269378D01*
X102865388Y-70227805D01*
X102822944Y-70200602D01*
X102777000Y-70192000D01*
X90677000Y-70192000D01*
X90627590Y-70202006D01*
X90585965Y-70230447D01*
X90558685Y-70272841D01*
X90550000Y-70319230D01*
X90570306Y-81515000D01*
X58427000Y-81515000D01*
X58427000Y-77063844D01*
X80384370Y-77063844D01*
X80384370Y-78958156D01*
X80497381Y-79526299D01*
X80819208Y-80007948D01*
X81300857Y-80329775D01*
X81869000Y-80442786D01*
X82437143Y-80329775D01*
X82918792Y-80007948D01*
X83139000Y-79678383D01*
X83359208Y-80007948D01*
X83840857Y-80329775D01*
X84409000Y-80442786D01*
X84977143Y-80329775D01*
X85458792Y-80007948D01*
X85679000Y-79678383D01*
X85899208Y-80007948D01*
X86380857Y-80329775D01*
X86949000Y-80442786D01*
X87517143Y-80329775D01*
X87998792Y-80007948D01*
X88320619Y-79526299D01*
X88433630Y-78958156D01*
X88433630Y-77063844D01*
X88320619Y-76495701D01*
X87998792Y-76014052D01*
X87517143Y-75692225D01*
X86949000Y-75579214D01*
X86380857Y-75692225D01*
X85899208Y-76014052D01*
X85679000Y-76343617D01*
X85458792Y-76014052D01*
X84977143Y-75692225D01*
X84409000Y-75579214D01*
X83840857Y-75692225D01*
X83359208Y-76014052D01*
X83139000Y-76343617D01*
X82918792Y-76014052D01*
X82437143Y-75692225D01*
X81869000Y-75579214D01*
X81300857Y-75692225D01*
X80819208Y-76014052D01*
X80497381Y-76495701D01*
X80384370Y-77063844D01*
X58427000Y-77063844D01*
X58427000Y-71004971D01*
X61764821Y-71004971D01*
X61922058Y-71385515D01*
X62212954Y-71676919D01*
X62593223Y-71834820D01*
X63004971Y-71835179D01*
X63385515Y-71677942D01*
X63676919Y-71387046D01*
X63834820Y-71006777D01*
X63834963Y-70842667D01*
X67872659Y-66804971D01*
X79764821Y-66804971D01*
X79922058Y-67185515D01*
X80212954Y-67476919D01*
X80593223Y-67634820D01*
X81004971Y-67635179D01*
X81385515Y-67477942D01*
X81676919Y-67187046D01*
X81710999Y-67104971D01*
X86464821Y-67104971D01*
X86622058Y-67485515D01*
X86912954Y-67776919D01*
X87293223Y-67934820D01*
X87704971Y-67935179D01*
X88085515Y-67777942D01*
X88201659Y-67662000D01*
X88798235Y-67662000D01*
X88912954Y-67776919D01*
X89293223Y-67934820D01*
X89704971Y-67935179D01*
X90085515Y-67777942D01*
X90376919Y-67487046D01*
X90534820Y-67106777D01*
X90535179Y-66695029D01*
X90377942Y-66314485D01*
X90087046Y-66023081D01*
X89706777Y-65865180D01*
X89295029Y-65864821D01*
X88914485Y-66022058D01*
X88798341Y-66138000D01*
X88201765Y-66138000D01*
X88087046Y-66023081D01*
X87706777Y-65865180D01*
X87295029Y-65864821D01*
X86914485Y-66022058D01*
X86623081Y-66312954D01*
X86465180Y-66693223D01*
X86464821Y-67104971D01*
X81710999Y-67104971D01*
X81834820Y-66806777D01*
X81834963Y-66642667D01*
X82715631Y-65762000D01*
X89898235Y-65762000D01*
X90012954Y-65876919D01*
X90393223Y-66034820D01*
X90804971Y-66035179D01*
X91185515Y-65877942D01*
X91476919Y-65587046D01*
X91634820Y-65206777D01*
X91635179Y-64795029D01*
X91477942Y-64414485D01*
X91187046Y-64123081D01*
X90806777Y-63965180D01*
X90395029Y-63964821D01*
X90014485Y-64122058D01*
X89898341Y-64238000D01*
X82400000Y-64238000D01*
X82108395Y-64296004D01*
X82009377Y-64362166D01*
X81861185Y-64461184D01*
X80757407Y-65564963D01*
X80595029Y-65564821D01*
X80214485Y-65722058D01*
X79923081Y-66012954D01*
X79765180Y-66393223D01*
X79764821Y-66804971D01*
X67872659Y-66804971D01*
X73815630Y-60862000D01*
X73898235Y-60862000D01*
X74012954Y-60976919D01*
X74393223Y-61134820D01*
X74804971Y-61135179D01*
X75185515Y-60977942D01*
X75476919Y-60687046D01*
X75634820Y-60306777D01*
X75635179Y-59895029D01*
X75477942Y-59514485D01*
X75187046Y-59223081D01*
X74806777Y-59065180D01*
X74395029Y-59064821D01*
X74014485Y-59222058D01*
X73898341Y-59338000D01*
X73500000Y-59338000D01*
X73208395Y-59396004D01*
X72961185Y-59561185D01*
X62757407Y-69764963D01*
X62595029Y-69764821D01*
X62214485Y-69922058D01*
X61923081Y-70212954D01*
X61765180Y-70593223D01*
X61764821Y-71004971D01*
X58427000Y-71004971D01*
X58427000Y-56785000D01*
X71510118Y-56785000D01*
X71465180Y-56893223D01*
X71464821Y-57304971D01*
X71622058Y-57685515D01*
X71912954Y-57976919D01*
X72293223Y-58134820D01*
X72704971Y-58135179D01*
X73085515Y-57977942D01*
X73376919Y-57687046D01*
X73534820Y-57306777D01*
X73534859Y-57262000D01*
X78511560Y-57262000D01*
X78511560Y-63247000D01*
X78555838Y-63482317D01*
X78694910Y-63698441D01*
X78907110Y-63843431D01*
X79159000Y-63894440D01*
X89659000Y-63894440D01*
X89894317Y-63850162D01*
X90110441Y-63711090D01*
X90255431Y-63498890D01*
X90306440Y-63247000D01*
X90306440Y-57434832D01*
X90457333Y-57434963D01*
X91015186Y-57992817D01*
X91262397Y-58157998D01*
X91554001Y-58216001D01*
X103545999Y-58216001D01*
X103837604Y-58157997D01*
X104084814Y-57992816D01*
X107315000Y-54762631D01*
X107315000Y-82315000D01*
X107315000Y-82315000D01*
G37*
X107315000Y-82315000D02*
X102925758Y-82315000D01*
X102904000Y-70318770D01*
X102893904Y-70269378D01*
X102865388Y-70227805D01*
X102822944Y-70200602D01*
X102777000Y-70192000D01*
X90677000Y-70192000D01*
X90627590Y-70202006D01*
X90585965Y-70230447D01*
X90558685Y-70272841D01*
X90550000Y-70319230D01*
X90570306Y-81515000D01*
X58427000Y-81515000D01*
X58427000Y-77063844D01*
X80384370Y-77063844D01*
X80384370Y-78958156D01*
X80497381Y-79526299D01*
X80819208Y-80007948D01*
X81300857Y-80329775D01*
X81869000Y-80442786D01*
X82437143Y-80329775D01*
X82918792Y-80007948D01*
X83139000Y-79678383D01*
X83359208Y-80007948D01*
X83840857Y-80329775D01*
X84409000Y-80442786D01*
X84977143Y-80329775D01*
X85458792Y-80007948D01*
X85679000Y-79678383D01*
X85899208Y-80007948D01*
X86380857Y-80329775D01*
X86949000Y-80442786D01*
X87517143Y-80329775D01*
X87998792Y-80007948D01*
X88320619Y-79526299D01*
X88433630Y-78958156D01*
X88433630Y-77063844D01*
X88320619Y-76495701D01*
X87998792Y-76014052D01*
X87517143Y-75692225D01*
X86949000Y-75579214D01*
X86380857Y-75692225D01*
X85899208Y-76014052D01*
X85679000Y-76343617D01*
X85458792Y-76014052D01*
X84977143Y-75692225D01*
X84409000Y-75579214D01*
X83840857Y-75692225D01*
X83359208Y-76014052D01*
X83139000Y-76343617D01*
X82918792Y-76014052D01*
X82437143Y-75692225D01*
X81869000Y-75579214D01*
X81300857Y-75692225D01*
X80819208Y-76014052D01*
X80497381Y-76495701D01*
X80384370Y-77063844D01*
X58427000Y-77063844D01*
X58427000Y-71004971D01*
X61764821Y-71004971D01*
X61922058Y-71385515D01*
X62212954Y-71676919D01*
X62593223Y-71834820D01*
X63004971Y-71835179D01*
X63385515Y-71677942D01*
X63676919Y-71387046D01*
X63834820Y-71006777D01*
X63834963Y-70842667D01*
X67872659Y-66804971D01*
X79764821Y-66804971D01*
X79922058Y-67185515D01*
X80212954Y-67476919D01*
X80593223Y-67634820D01*
X81004971Y-67635179D01*
X81385515Y-67477942D01*
X81676919Y-67187046D01*
X81710999Y-67104971D01*
X86464821Y-67104971D01*
X86622058Y-67485515D01*
X86912954Y-67776919D01*
X87293223Y-67934820D01*
X87704971Y-67935179D01*
X88085515Y-67777942D01*
X88201659Y-67662000D01*
X88798235Y-67662000D01*
X88912954Y-67776919D01*
X89293223Y-67934820D01*
X89704971Y-67935179D01*
X90085515Y-67777942D01*
X90376919Y-67487046D01*
X90534820Y-67106777D01*
X90535179Y-66695029D01*
X90377942Y-66314485D01*
X90087046Y-66023081D01*
X89706777Y-65865180D01*
X89295029Y-65864821D01*
X88914485Y-66022058D01*
X88798341Y-66138000D01*
X88201765Y-66138000D01*
X88087046Y-66023081D01*
X87706777Y-65865180D01*
X87295029Y-65864821D01*
X86914485Y-66022058D01*
X86623081Y-66312954D01*
X86465180Y-66693223D01*
X86464821Y-67104971D01*
X81710999Y-67104971D01*
X81834820Y-66806777D01*
X81834963Y-66642667D01*
X82715631Y-65762000D01*
X89898235Y-65762000D01*
X90012954Y-65876919D01*
X90393223Y-66034820D01*
X90804971Y-66035179D01*
X91185515Y-65877942D01*
X91476919Y-65587046D01*
X91634820Y-65206777D01*
X91635179Y-64795029D01*
X91477942Y-64414485D01*
X91187046Y-64123081D01*
X90806777Y-63965180D01*
X90395029Y-63964821D01*
X90014485Y-64122058D01*
X89898341Y-64238000D01*
X82400000Y-64238000D01*
X82108395Y-64296004D01*
X82009377Y-64362166D01*
X81861185Y-64461184D01*
X80757407Y-65564963D01*
X80595029Y-65564821D01*
X80214485Y-65722058D01*
X79923081Y-66012954D01*
X79765180Y-66393223D01*
X79764821Y-66804971D01*
X67872659Y-66804971D01*
X73815630Y-60862000D01*
X73898235Y-60862000D01*
X74012954Y-60976919D01*
X74393223Y-61134820D01*
X74804971Y-61135179D01*
X75185515Y-60977942D01*
X75476919Y-60687046D01*
X75634820Y-60306777D01*
X75635179Y-59895029D01*
X75477942Y-59514485D01*
X75187046Y-59223081D01*
X74806777Y-59065180D01*
X74395029Y-59064821D01*
X74014485Y-59222058D01*
X73898341Y-59338000D01*
X73500000Y-59338000D01*
X73208395Y-59396004D01*
X72961185Y-59561185D01*
X62757407Y-69764963D01*
X62595029Y-69764821D01*
X62214485Y-69922058D01*
X61923081Y-70212954D01*
X61765180Y-70593223D01*
X61764821Y-71004971D01*
X58427000Y-71004971D01*
X58427000Y-56785000D01*
X71510118Y-56785000D01*
X71465180Y-56893223D01*
X71464821Y-57304971D01*
X71622058Y-57685515D01*
X71912954Y-57976919D01*
X72293223Y-58134820D01*
X72704971Y-58135179D01*
X73085515Y-57977942D01*
X73376919Y-57687046D01*
X73534820Y-57306777D01*
X73534859Y-57262000D01*
X78511560Y-57262000D01*
X78511560Y-63247000D01*
X78555838Y-63482317D01*
X78694910Y-63698441D01*
X78907110Y-63843431D01*
X79159000Y-63894440D01*
X89659000Y-63894440D01*
X89894317Y-63850162D01*
X90110441Y-63711090D01*
X90255431Y-63498890D01*
X90306440Y-63247000D01*
X90306440Y-57434832D01*
X90457333Y-57434963D01*
X91015186Y-57992817D01*
X91262397Y-58157998D01*
X91554001Y-58216001D01*
X103545999Y-58216001D01*
X103837604Y-58157997D01*
X104084814Y-57992816D01*
X107315000Y-54762631D01*
X107315000Y-82315000D01*
G36*
X96063910Y-52277441D02*
X96276110Y-52422431D01*
X96528000Y-52473440D01*
X98052000Y-52473440D01*
X98287317Y-52429162D01*
X98503441Y-52290090D01*
X98559374Y-52208230D01*
X98603910Y-52277441D01*
X98816110Y-52422431D01*
X98976864Y-52454984D01*
X98952560Y-52575000D01*
X98952560Y-53825000D01*
X98996838Y-54060317D01*
X99135910Y-54276441D01*
X99348110Y-54421431D01*
X99600000Y-54472440D01*
X100065024Y-54472440D01*
X100064821Y-54704971D01*
X100222058Y-55085515D01*
X100512954Y-55376919D01*
X100893223Y-55534820D01*
X101304971Y-55535179D01*
X101685515Y-55377942D01*
X101976919Y-55087046D01*
X102134820Y-54706777D01*
X102135024Y-54472440D01*
X102600000Y-54472440D01*
X102835317Y-54428162D01*
X103001477Y-54321241D01*
X103148110Y-54421431D01*
X103400000Y-54472440D01*
X104400000Y-54472440D01*
X104635317Y-54428162D01*
X104851441Y-54289090D01*
X104899134Y-54219289D01*
X104935910Y-54276441D01*
X105148110Y-54421431D01*
X105400000Y-54472440D01*
X105449929Y-54472440D01*
X103230369Y-56692001D01*
X91869632Y-56692001D01*
X91535037Y-56357407D01*
X91535179Y-56195029D01*
X91377942Y-55814485D01*
X91087046Y-55523081D01*
X90706777Y-55365180D01*
X90295029Y-55364821D01*
X89914485Y-55522058D01*
X89623081Y-55812954D01*
X89465180Y-56193223D01*
X89464826Y-56599560D01*
X87878070Y-56599560D01*
X87942593Y-56535037D01*
X88104971Y-56535179D01*
X88485515Y-56377942D01*
X88776919Y-56087046D01*
X88934820Y-55706777D01*
X88935179Y-55295029D01*
X88777942Y-54914485D01*
X88487046Y-54623081D01*
X88106777Y-54465180D01*
X87695029Y-54464821D01*
X87314485Y-54622058D01*
X87023081Y-54912954D01*
X86865180Y-55293223D01*
X86865037Y-55457333D01*
X86584370Y-55738000D01*
X80588580Y-55738000D01*
X82565000Y-53761579D01*
X82565000Y-53976310D01*
X82661673Y-54209699D01*
X82840302Y-54388327D01*
X83073691Y-54485000D01*
X83264250Y-54485000D01*
X83423000Y-54326250D01*
X83423000Y-53327000D01*
X83403000Y-53327000D01*
X83403000Y-53073000D01*
X83423000Y-53073000D01*
X83423000Y-53053000D01*
X83677000Y-53053000D01*
X83677000Y-53073000D01*
X83697000Y-53073000D01*
X83697000Y-53327000D01*
X83677000Y-53327000D01*
X83677000Y-54326250D01*
X83835750Y-54485000D01*
X84026309Y-54485000D01*
X84259698Y-54388327D01*
X84438327Y-54209699D01*
X84494654Y-54073713D01*
X84496838Y-54085317D01*
X84635910Y-54301441D01*
X84848110Y-54446431D01*
X85100000Y-54497440D01*
X85800000Y-54497440D01*
X86035317Y-54453162D01*
X86251441Y-54314090D01*
X86396431Y-54101890D01*
X86447440Y-53850000D01*
X86447440Y-52550000D01*
X86437449Y-52496903D01*
X86603441Y-52390090D01*
X86659374Y-52308230D01*
X86703910Y-52377441D01*
X86864836Y-52487397D01*
X86864821Y-52504971D01*
X87022058Y-52885515D01*
X87312954Y-53176919D01*
X87693223Y-53334820D01*
X88104971Y-53335179D01*
X88485515Y-53177942D01*
X88776919Y-52887046D01*
X88925373Y-52529528D01*
X88927317Y-52529162D01*
X89143441Y-52390090D01*
X89199374Y-52308230D01*
X89243910Y-52377441D01*
X89456110Y-52522431D01*
X89708000Y-52573440D01*
X89708000Y-52620000D01*
X89766004Y-52911605D01*
X89873845Y-53073000D01*
X89931185Y-53158815D01*
X92052560Y-55280190D01*
X92052560Y-55850000D01*
X92096838Y-56085317D01*
X92235910Y-56301441D01*
X92448110Y-56446431D01*
X92700000Y-56497440D01*
X93400000Y-56497440D01*
X93635317Y-56453162D01*
X93851441Y-56314090D01*
X93996431Y-56101890D01*
X93999081Y-56088803D01*
X94135910Y-56301441D01*
X94348110Y-56446431D01*
X94600000Y-56497440D01*
X95300000Y-56497440D01*
X95535317Y-56453162D01*
X95751441Y-56314090D01*
X95896431Y-56101890D01*
X95947440Y-55850000D01*
X95947440Y-54550000D01*
X95908426Y-54342658D01*
X95947440Y-54150000D01*
X95947440Y-52850000D01*
X95903162Y-52614683D01*
X95794220Y-52445382D01*
X95934820Y-52106777D01*
X95934846Y-52076870D01*
X96063910Y-52277441D01*
X96063910Y-52277441D01*
G37*
X96063910Y-52277441D02*
X96276110Y-52422431D01*
X96528000Y-52473440D01*
X98052000Y-52473440D01*
X98287317Y-52429162D01*
X98503441Y-52290090D01*
X98559374Y-52208230D01*
X98603910Y-52277441D01*
X98816110Y-52422431D01*
X98976864Y-52454984D01*
X98952560Y-52575000D01*
X98952560Y-53825000D01*
X98996838Y-54060317D01*
X99135910Y-54276441D01*
X99348110Y-54421431D01*
X99600000Y-54472440D01*
X100065024Y-54472440D01*
X100064821Y-54704971D01*
X100222058Y-55085515D01*
X100512954Y-55376919D01*
X100893223Y-55534820D01*
X101304971Y-55535179D01*
X101685515Y-55377942D01*
X101976919Y-55087046D01*
X102134820Y-54706777D01*
X102135024Y-54472440D01*
X102600000Y-54472440D01*
X102835317Y-54428162D01*
X103001477Y-54321241D01*
X103148110Y-54421431D01*
X103400000Y-54472440D01*
X104400000Y-54472440D01*
X104635317Y-54428162D01*
X104851441Y-54289090D01*
X104899134Y-54219289D01*
X104935910Y-54276441D01*
X105148110Y-54421431D01*
X105400000Y-54472440D01*
X105449929Y-54472440D01*
X103230369Y-56692001D01*
X91869632Y-56692001D01*
X91535037Y-56357407D01*
X91535179Y-56195029D01*
X91377942Y-55814485D01*
X91087046Y-55523081D01*
X90706777Y-55365180D01*
X90295029Y-55364821D01*
X89914485Y-55522058D01*
X89623081Y-55812954D01*
X89465180Y-56193223D01*
X89464826Y-56599560D01*
X87878070Y-56599560D01*
X87942593Y-56535037D01*
X88104971Y-56535179D01*
X88485515Y-56377942D01*
X88776919Y-56087046D01*
X88934820Y-55706777D01*
X88935179Y-55295029D01*
X88777942Y-54914485D01*
X88487046Y-54623081D01*
X88106777Y-54465180D01*
X87695029Y-54464821D01*
X87314485Y-54622058D01*
X87023081Y-54912954D01*
X86865180Y-55293223D01*
X86865037Y-55457333D01*
X86584370Y-55738000D01*
X80588580Y-55738000D01*
X82565000Y-53761579D01*
X82565000Y-53976310D01*
X82661673Y-54209699D01*
X82840302Y-54388327D01*
X83073691Y-54485000D01*
X83264250Y-54485000D01*
X83423000Y-54326250D01*
X83423000Y-53327000D01*
X83403000Y-53327000D01*
X83403000Y-53073000D01*
X83423000Y-53073000D01*
X83423000Y-53053000D01*
X83677000Y-53053000D01*
X83677000Y-53073000D01*
X83697000Y-53073000D01*
X83697000Y-53327000D01*
X83677000Y-53327000D01*
X83677000Y-54326250D01*
X83835750Y-54485000D01*
X84026309Y-54485000D01*
X84259698Y-54388327D01*
X84438327Y-54209699D01*
X84494654Y-54073713D01*
X84496838Y-54085317D01*
X84635910Y-54301441D01*
X84848110Y-54446431D01*
X85100000Y-54497440D01*
X85800000Y-54497440D01*
X86035317Y-54453162D01*
X86251441Y-54314090D01*
X86396431Y-54101890D01*
X86447440Y-53850000D01*
X86447440Y-52550000D01*
X86437449Y-52496903D01*
X86603441Y-52390090D01*
X86659374Y-52308230D01*
X86703910Y-52377441D01*
X86864836Y-52487397D01*
X86864821Y-52504971D01*
X87022058Y-52885515D01*
X87312954Y-53176919D01*
X87693223Y-53334820D01*
X88104971Y-53335179D01*
X88485515Y-53177942D01*
X88776919Y-52887046D01*
X88925373Y-52529528D01*
X88927317Y-52529162D01*
X89143441Y-52390090D01*
X89199374Y-52308230D01*
X89243910Y-52377441D01*
X89456110Y-52522431D01*
X89708000Y-52573440D01*
X89708000Y-52620000D01*
X89766004Y-52911605D01*
X89873845Y-53073000D01*
X89931185Y-53158815D01*
X92052560Y-55280190D01*
X92052560Y-55850000D01*
X92096838Y-56085317D01*
X92235910Y-56301441D01*
X92448110Y-56446431D01*
X92700000Y-56497440D01*
X93400000Y-56497440D01*
X93635317Y-56453162D01*
X93851441Y-56314090D01*
X93996431Y-56101890D01*
X93999081Y-56088803D01*
X94135910Y-56301441D01*
X94348110Y-56446431D01*
X94600000Y-56497440D01*
X95300000Y-56497440D01*
X95535317Y-56453162D01*
X95751441Y-56314090D01*
X95896431Y-56101890D01*
X95947440Y-55850000D01*
X95947440Y-54550000D01*
X95908426Y-54342658D01*
X95947440Y-54150000D01*
X95947440Y-52850000D01*
X95903162Y-52614683D01*
X95794220Y-52445382D01*
X95934820Y-52106777D01*
X95934846Y-52076870D01*
X96063910Y-52277441D01*
G36*
X46082180Y-27766223D02*
X46081821Y-28177971D01*
X46239058Y-28558515D01*
X46318404Y-28638000D01*
X45901765Y-28638000D01*
X45787046Y-28523081D01*
X45406777Y-28365180D01*
X44995029Y-28364821D01*
X44614485Y-28522058D01*
X44323081Y-28812954D01*
X44165180Y-29193223D01*
X44164821Y-29604971D01*
X44322058Y-29985515D01*
X44612954Y-30276919D01*
X44993223Y-30434820D01*
X45404971Y-30435179D01*
X45785515Y-30277942D01*
X45901659Y-30162000D01*
X49400000Y-30162000D01*
X49691605Y-30103996D01*
X49938815Y-29938815D01*
X50215631Y-29662000D01*
X72774473Y-29662000D01*
X72523081Y-29912954D01*
X72365180Y-30293223D01*
X72364821Y-30704971D01*
X72378468Y-30738000D01*
X71401765Y-30738000D01*
X71287046Y-30623081D01*
X70906777Y-30465180D01*
X70495029Y-30464821D01*
X70114485Y-30622058D01*
X69823081Y-30912954D01*
X69665180Y-31293223D01*
X69664864Y-31656000D01*
X67752631Y-31656000D01*
X67340815Y-31244185D01*
X67287253Y-31208396D01*
X67093605Y-31079004D01*
X66802000Y-31021000D01*
X54798630Y-31021000D01*
X54502148Y-30724518D01*
X54502179Y-30689029D01*
X54344942Y-30308485D01*
X54054046Y-30017081D01*
X53673777Y-29859180D01*
X53262029Y-29858821D01*
X52881485Y-30016058D01*
X52590081Y-30306954D01*
X52432180Y-30687223D01*
X52431821Y-31098971D01*
X52589058Y-31479515D01*
X52701788Y-31592442D01*
X52590081Y-31703954D01*
X52432180Y-32084223D01*
X52431872Y-32438000D01*
X51115630Y-32438000D01*
X50538815Y-31861185D01*
X50291605Y-31696004D01*
X50000000Y-31638000D01*
X32600000Y-31638000D01*
X32308395Y-31696004D01*
X32061185Y-31861185D01*
X28671185Y-35251185D01*
X28506004Y-35498395D01*
X28448000Y-35790000D01*
X28448000Y-38018960D01*
X28194000Y-38018960D01*
X27958683Y-38063238D01*
X27742559Y-38202310D01*
X27597569Y-38414510D01*
X27546560Y-38666400D01*
X27546560Y-40393600D01*
X27590838Y-40628917D01*
X27729910Y-40845041D01*
X27942110Y-40990031D01*
X28036927Y-41009232D01*
X27859268Y-41167964D01*
X27605291Y-41695209D01*
X27602642Y-41710974D01*
X27723783Y-41943000D01*
X29083000Y-41943000D01*
X29083000Y-41923000D01*
X29337000Y-41923000D01*
X29337000Y-41943000D01*
X30696217Y-41943000D01*
X30740993Y-41857240D01*
X31119275Y-42110000D01*
X30771958Y-42342070D01*
X30696217Y-42197000D01*
X29337000Y-42197000D01*
X29337000Y-42217000D01*
X29083000Y-42217000D01*
X29083000Y-42197000D01*
X27723783Y-42197000D01*
X27602642Y-42429026D01*
X27605291Y-42444791D01*
X27859268Y-42972036D01*
X28275069Y-43343539D01*
X27965585Y-43550330D01*
X27640729Y-44036511D01*
X27526655Y-44610000D01*
X27640729Y-45183489D01*
X27965585Y-45669670D01*
X28280366Y-45880000D01*
X27965585Y-46090330D01*
X27640729Y-46576511D01*
X27526655Y-47150000D01*
X27640729Y-47723489D01*
X27965585Y-48209670D01*
X28451766Y-48534526D01*
X29025255Y-48648600D01*
X29394745Y-48648600D01*
X29968234Y-48534526D01*
X30353233Y-48277278D01*
X30316887Y-48460000D01*
X30426120Y-49009151D01*
X30737189Y-49474698D01*
X31119275Y-49730000D01*
X30737189Y-49985302D01*
X30426120Y-50450849D01*
X30316887Y-51000000D01*
X30426120Y-51549151D01*
X30737189Y-52014698D01*
X31119275Y-52270000D01*
X30737189Y-52525302D01*
X30426120Y-52990849D01*
X30316887Y-53540000D01*
X30426120Y-54089151D01*
X30737189Y-54554698D01*
X31202736Y-54865767D01*
X31751887Y-54975000D01*
X31808113Y-54975000D01*
X32357264Y-54865767D01*
X32822811Y-54554698D01*
X33133880Y-54089151D01*
X33243113Y-53540000D01*
X33133880Y-52990849D01*
X32822811Y-52525302D01*
X32440725Y-52270000D01*
X32822811Y-52014698D01*
X32991659Y-51762000D01*
X33800000Y-51762000D01*
X34091605Y-51703996D01*
X34338815Y-51538815D01*
X37965631Y-47912000D01*
X38045891Y-47912000D01*
X37936887Y-48460000D01*
X38046120Y-49009151D01*
X38357189Y-49474698D01*
X38739275Y-49730000D01*
X38357189Y-49985302D01*
X38046120Y-50450849D01*
X37936887Y-51000000D01*
X38046120Y-51549151D01*
X38357189Y-52014698D01*
X38739275Y-52270000D01*
X38357189Y-52525302D01*
X38046120Y-52990849D01*
X37936887Y-53540000D01*
X38046120Y-54089151D01*
X38357189Y-54554698D01*
X38822736Y-54865767D01*
X39371887Y-54975000D01*
X39428113Y-54975000D01*
X39977264Y-54865767D01*
X40442811Y-54554698D01*
X40753880Y-54089151D01*
X40863113Y-53540000D01*
X40753880Y-52990849D01*
X40442811Y-52525302D01*
X40060725Y-52270000D01*
X40442811Y-52014698D01*
X40753880Y-51549151D01*
X40796208Y-51336350D01*
X48707255Y-51336350D01*
X48799792Y-51598019D01*
X49391398Y-51816188D01*
X50021461Y-51791352D01*
X50488208Y-51598019D01*
X50580745Y-51336350D01*
X49644000Y-50399605D01*
X48707255Y-51336350D01*
X40796208Y-51336350D01*
X40863113Y-51000000D01*
X40753880Y-50450849D01*
X40442811Y-49985302D01*
X40060725Y-49730000D01*
X40442811Y-49474698D01*
X40753880Y-49009151D01*
X40863113Y-48460000D01*
X40835964Y-48323514D01*
X41151766Y-48534526D01*
X41725255Y-48648600D01*
X42094745Y-48648600D01*
X42668234Y-48534526D01*
X43154415Y-48209670D01*
X43353312Y-47912000D01*
X43434370Y-47912000D01*
X44961185Y-49438816D01*
X45076706Y-49516004D01*
X45208395Y-49603996D01*
X45500000Y-49662000D01*
X48160435Y-49662000D01*
X48047812Y-49967398D01*
X48072648Y-50597461D01*
X48265981Y-51064208D01*
X48527650Y-51156745D01*
X49464395Y-50220000D01*
X49450253Y-50205858D01*
X49629858Y-50026253D01*
X49644000Y-50040395D01*
X49658143Y-50026253D01*
X49837748Y-50205858D01*
X49823605Y-50220000D01*
X50760350Y-51156745D01*
X50848439Y-51125593D01*
X51284997Y-51562914D01*
X51867341Y-51804724D01*
X52497893Y-51805275D01*
X53080657Y-51564481D01*
X53454261Y-51191529D01*
X53824997Y-51562914D01*
X54407341Y-51804724D01*
X54797631Y-51805065D01*
X54514485Y-51922058D01*
X54223081Y-52212954D01*
X54065180Y-52593223D01*
X54064821Y-53004971D01*
X54222058Y-53385515D01*
X54512954Y-53676919D01*
X54893223Y-53834820D01*
X55304971Y-53835179D01*
X55685515Y-53677942D01*
X55749923Y-53613647D01*
X55887954Y-53751919D01*
X56268223Y-53909820D01*
X56679971Y-53910179D01*
X57060515Y-53752942D01*
X57351919Y-53462046D01*
X57509820Y-53081777D01*
X57509919Y-52967711D01*
X57834629Y-52643002D01*
X63865137Y-52643002D01*
X63864821Y-53004971D01*
X63919787Y-53138000D01*
X63287658Y-53138000D01*
X63277942Y-53114485D01*
X62987046Y-52823081D01*
X62606777Y-52665180D01*
X62195029Y-52664821D01*
X61814485Y-52822058D01*
X61523081Y-53112954D01*
X61365180Y-53493223D01*
X61364821Y-53904971D01*
X61522058Y-54285515D01*
X61812954Y-54576919D01*
X62193223Y-54734820D01*
X62604971Y-54735179D01*
X62782078Y-54662000D01*
X76998235Y-54662000D01*
X77112954Y-54776919D01*
X77493223Y-54934820D01*
X77904971Y-54935179D01*
X78285515Y-54777942D01*
X78576919Y-54487046D01*
X78734820Y-54106777D01*
X78734883Y-54034856D01*
X79104971Y-54035179D01*
X79485515Y-53877942D01*
X79776919Y-53587046D01*
X79934820Y-53206777D01*
X79935179Y-52795029D01*
X79777942Y-52414485D01*
X79487046Y-52123081D01*
X79106777Y-51965180D01*
X78695029Y-51964821D01*
X78314485Y-52122058D01*
X78198341Y-52238000D01*
X69023630Y-52238000D01*
X69512781Y-51748850D01*
X69647341Y-51804724D01*
X70277893Y-51805275D01*
X70860657Y-51564481D01*
X71234261Y-51191529D01*
X71604997Y-51562914D01*
X72187341Y-51804724D01*
X72817893Y-51805275D01*
X73400657Y-51564481D01*
X73774261Y-51191529D01*
X74144997Y-51562914D01*
X74727341Y-51804724D01*
X75357893Y-51805275D01*
X75940657Y-51564481D01*
X76314261Y-51191529D01*
X76684997Y-51562914D01*
X77267341Y-51804724D01*
X77897893Y-51805275D01*
X78480657Y-51564481D01*
X78854261Y-51191529D01*
X79224997Y-51562914D01*
X79807341Y-51804724D01*
X80437893Y-51805275D01*
X81020657Y-51564481D01*
X81394261Y-51191529D01*
X81764997Y-51562914D01*
X82115122Y-51708298D01*
X78808420Y-55015000D01*
X26061574Y-55015000D01*
X25900485Y-54853629D01*
X25446734Y-54665215D01*
X24955421Y-54664786D01*
X24685000Y-54776522D01*
X24685000Y-31528172D01*
X25332538Y-31528172D01*
X25737709Y-32508761D01*
X26487293Y-33259655D01*
X27467173Y-33666536D01*
X28528172Y-33667462D01*
X29508761Y-33262291D01*
X30259655Y-32512707D01*
X30666536Y-31532827D01*
X30667462Y-30471828D01*
X30262291Y-29491239D01*
X29512707Y-28740345D01*
X28532827Y-28333464D01*
X27471828Y-28332538D01*
X26491239Y-28737709D01*
X25740345Y-29487293D01*
X25333464Y-30467173D01*
X25332538Y-31528172D01*
X24685000Y-31528172D01*
X24685000Y-27685000D01*
X46115907Y-27685000D01*
X46082180Y-27766223D01*
X46082180Y-27766223D01*
G37*
X46082180Y-27766223D02*
X46081821Y-28177971D01*
X46239058Y-28558515D01*
X46318404Y-28638000D01*
X45901765Y-28638000D01*
X45787046Y-28523081D01*
X45406777Y-28365180D01*
X44995029Y-28364821D01*
X44614485Y-28522058D01*
X44323081Y-28812954D01*
X44165180Y-29193223D01*
X44164821Y-29604971D01*
X44322058Y-29985515D01*
X44612954Y-30276919D01*
X44993223Y-30434820D01*
X45404971Y-30435179D01*
X45785515Y-30277942D01*
X45901659Y-30162000D01*
X49400000Y-30162000D01*
X49691605Y-30103996D01*
X49938815Y-29938815D01*
X50215631Y-29662000D01*
X72774473Y-29662000D01*
X72523081Y-29912954D01*
X72365180Y-30293223D01*
X72364821Y-30704971D01*
X72378468Y-30738000D01*
X71401765Y-30738000D01*
X71287046Y-30623081D01*
X70906777Y-30465180D01*
X70495029Y-30464821D01*
X70114485Y-30622058D01*
X69823081Y-30912954D01*
X69665180Y-31293223D01*
X69664864Y-31656000D01*
X67752631Y-31656000D01*
X67340815Y-31244185D01*
X67287253Y-31208396D01*
X67093605Y-31079004D01*
X66802000Y-31021000D01*
X54798630Y-31021000D01*
X54502148Y-30724518D01*
X54502179Y-30689029D01*
X54344942Y-30308485D01*
X54054046Y-30017081D01*
X53673777Y-29859180D01*
X53262029Y-29858821D01*
X52881485Y-30016058D01*
X52590081Y-30306954D01*
X52432180Y-30687223D01*
X52431821Y-31098971D01*
X52589058Y-31479515D01*
X52701788Y-31592442D01*
X52590081Y-31703954D01*
X52432180Y-32084223D01*
X52431872Y-32438000D01*
X51115630Y-32438000D01*
X50538815Y-31861185D01*
X50291605Y-31696004D01*
X50000000Y-31638000D01*
X32600000Y-31638000D01*
X32308395Y-31696004D01*
X32061185Y-31861185D01*
X28671185Y-35251185D01*
X28506004Y-35498395D01*
X28448000Y-35790000D01*
X28448000Y-38018960D01*
X28194000Y-38018960D01*
X27958683Y-38063238D01*
X27742559Y-38202310D01*
X27597569Y-38414510D01*
X27546560Y-38666400D01*
X27546560Y-40393600D01*
X27590838Y-40628917D01*
X27729910Y-40845041D01*
X27942110Y-40990031D01*
X28036927Y-41009232D01*
X27859268Y-41167964D01*
X27605291Y-41695209D01*
X27602642Y-41710974D01*
X27723783Y-41943000D01*
X29083000Y-41943000D01*
X29083000Y-41923000D01*
X29337000Y-41923000D01*
X29337000Y-41943000D01*
X30696217Y-41943000D01*
X30740993Y-41857240D01*
X31119275Y-42110000D01*
X30771958Y-42342070D01*
X30696217Y-42197000D01*
X29337000Y-42197000D01*
X29337000Y-42217000D01*
X29083000Y-42217000D01*
X29083000Y-42197000D01*
X27723783Y-42197000D01*
X27602642Y-42429026D01*
X27605291Y-42444791D01*
X27859268Y-42972036D01*
X28275069Y-43343539D01*
X27965585Y-43550330D01*
X27640729Y-44036511D01*
X27526655Y-44610000D01*
X27640729Y-45183489D01*
X27965585Y-45669670D01*
X28280366Y-45880000D01*
X27965585Y-46090330D01*
X27640729Y-46576511D01*
X27526655Y-47150000D01*
X27640729Y-47723489D01*
X27965585Y-48209670D01*
X28451766Y-48534526D01*
X29025255Y-48648600D01*
X29394745Y-48648600D01*
X29968234Y-48534526D01*
X30353233Y-48277278D01*
X30316887Y-48460000D01*
X30426120Y-49009151D01*
X30737189Y-49474698D01*
X31119275Y-49730000D01*
X30737189Y-49985302D01*
X30426120Y-50450849D01*
X30316887Y-51000000D01*
X30426120Y-51549151D01*
X30737189Y-52014698D01*
X31119275Y-52270000D01*
X30737189Y-52525302D01*
X30426120Y-52990849D01*
X30316887Y-53540000D01*
X30426120Y-54089151D01*
X30737189Y-54554698D01*
X31202736Y-54865767D01*
X31751887Y-54975000D01*
X31808113Y-54975000D01*
X32357264Y-54865767D01*
X32822811Y-54554698D01*
X33133880Y-54089151D01*
X33243113Y-53540000D01*
X33133880Y-52990849D01*
X32822811Y-52525302D01*
X32440725Y-52270000D01*
X32822811Y-52014698D01*
X32991659Y-51762000D01*
X33800000Y-51762000D01*
X34091605Y-51703996D01*
X34338815Y-51538815D01*
X37965631Y-47912000D01*
X38045891Y-47912000D01*
X37936887Y-48460000D01*
X38046120Y-49009151D01*
X38357189Y-49474698D01*
X38739275Y-49730000D01*
X38357189Y-49985302D01*
X38046120Y-50450849D01*
X37936887Y-51000000D01*
X38046120Y-51549151D01*
X38357189Y-52014698D01*
X38739275Y-52270000D01*
X38357189Y-52525302D01*
X38046120Y-52990849D01*
X37936887Y-53540000D01*
X38046120Y-54089151D01*
X38357189Y-54554698D01*
X38822736Y-54865767D01*
X39371887Y-54975000D01*
X39428113Y-54975000D01*
X39977264Y-54865767D01*
X40442811Y-54554698D01*
X40753880Y-54089151D01*
X40863113Y-53540000D01*
X40753880Y-52990849D01*
X40442811Y-52525302D01*
X40060725Y-52270000D01*
X40442811Y-52014698D01*
X40753880Y-51549151D01*
X40796208Y-51336350D01*
X48707255Y-51336350D01*
X48799792Y-51598019D01*
X49391398Y-51816188D01*
X50021461Y-51791352D01*
X50488208Y-51598019D01*
X50580745Y-51336350D01*
X49644000Y-50399605D01*
X48707255Y-51336350D01*
X40796208Y-51336350D01*
X40863113Y-51000000D01*
X40753880Y-50450849D01*
X40442811Y-49985302D01*
X40060725Y-49730000D01*
X40442811Y-49474698D01*
X40753880Y-49009151D01*
X40863113Y-48460000D01*
X40835964Y-48323514D01*
X41151766Y-48534526D01*
X41725255Y-48648600D01*
X42094745Y-48648600D01*
X42668234Y-48534526D01*
X43154415Y-48209670D01*
X43353312Y-47912000D01*
X43434370Y-47912000D01*
X44961185Y-49438816D01*
X45076706Y-49516004D01*
X45208395Y-49603996D01*
X45500000Y-49662000D01*
X48160435Y-49662000D01*
X48047812Y-49967398D01*
X48072648Y-50597461D01*
X48265981Y-51064208D01*
X48527650Y-51156745D01*
X49464395Y-50220000D01*
X49450253Y-50205858D01*
X49629858Y-50026253D01*
X49644000Y-50040395D01*
X49658143Y-50026253D01*
X49837748Y-50205858D01*
X49823605Y-50220000D01*
X50760350Y-51156745D01*
X50848439Y-51125593D01*
X51284997Y-51562914D01*
X51867341Y-51804724D01*
X52497893Y-51805275D01*
X53080657Y-51564481D01*
X53454261Y-51191529D01*
X53824997Y-51562914D01*
X54407341Y-51804724D01*
X54797631Y-51805065D01*
X54514485Y-51922058D01*
X54223081Y-52212954D01*
X54065180Y-52593223D01*
X54064821Y-53004971D01*
X54222058Y-53385515D01*
X54512954Y-53676919D01*
X54893223Y-53834820D01*
X55304971Y-53835179D01*
X55685515Y-53677942D01*
X55749923Y-53613647D01*
X55887954Y-53751919D01*
X56268223Y-53909820D01*
X56679971Y-53910179D01*
X57060515Y-53752942D01*
X57351919Y-53462046D01*
X57509820Y-53081777D01*
X57509919Y-52967711D01*
X57834629Y-52643002D01*
X63865137Y-52643002D01*
X63864821Y-53004971D01*
X63919787Y-53138000D01*
X63287658Y-53138000D01*
X63277942Y-53114485D01*
X62987046Y-52823081D01*
X62606777Y-52665180D01*
X62195029Y-52664821D01*
X61814485Y-52822058D01*
X61523081Y-53112954D01*
X61365180Y-53493223D01*
X61364821Y-53904971D01*
X61522058Y-54285515D01*
X61812954Y-54576919D01*
X62193223Y-54734820D01*
X62604971Y-54735179D01*
X62782078Y-54662000D01*
X76998235Y-54662000D01*
X77112954Y-54776919D01*
X77493223Y-54934820D01*
X77904971Y-54935179D01*
X78285515Y-54777942D01*
X78576919Y-54487046D01*
X78734820Y-54106777D01*
X78734883Y-54034856D01*
X79104971Y-54035179D01*
X79485515Y-53877942D01*
X79776919Y-53587046D01*
X79934820Y-53206777D01*
X79935179Y-52795029D01*
X79777942Y-52414485D01*
X79487046Y-52123081D01*
X79106777Y-51965180D01*
X78695029Y-51964821D01*
X78314485Y-52122058D01*
X78198341Y-52238000D01*
X69023630Y-52238000D01*
X69512781Y-51748850D01*
X69647341Y-51804724D01*
X70277893Y-51805275D01*
X70860657Y-51564481D01*
X71234261Y-51191529D01*
X71604997Y-51562914D01*
X72187341Y-51804724D01*
X72817893Y-51805275D01*
X73400657Y-51564481D01*
X73774261Y-51191529D01*
X74144997Y-51562914D01*
X74727341Y-51804724D01*
X75357893Y-51805275D01*
X75940657Y-51564481D01*
X76314261Y-51191529D01*
X76684997Y-51562914D01*
X77267341Y-51804724D01*
X77897893Y-51805275D01*
X78480657Y-51564481D01*
X78854261Y-51191529D01*
X79224997Y-51562914D01*
X79807341Y-51804724D01*
X80437893Y-51805275D01*
X81020657Y-51564481D01*
X81394261Y-51191529D01*
X81764997Y-51562914D01*
X82115122Y-51708298D01*
X78808420Y-55015000D01*
X26061574Y-55015000D01*
X25900485Y-54853629D01*
X25446734Y-54665215D01*
X24955421Y-54664786D01*
X24685000Y-54776522D01*
X24685000Y-31528172D01*
X25332538Y-31528172D01*
X25737709Y-32508761D01*
X26487293Y-33259655D01*
X27467173Y-33666536D01*
X28528172Y-33667462D01*
X29508761Y-33262291D01*
X30259655Y-32512707D01*
X30666536Y-31532827D01*
X30667462Y-30471828D01*
X30262291Y-29491239D01*
X29512707Y-28740345D01*
X28532827Y-28333464D01*
X27471828Y-28332538D01*
X26491239Y-28737709D01*
X25740345Y-29487293D01*
X25333464Y-30467173D01*
X25332538Y-31528172D01*
X24685000Y-31528172D01*
X24685000Y-27685000D01*
X46115907Y-27685000D01*
X46082180Y-27766223D01*
G36*
X59487341Y-39104724D02*
X59681476Y-39104894D01*
X50648370Y-48138000D01*
X48671029Y-48138000D01*
X48721709Y-48032791D01*
X48724358Y-48017026D01*
X48603217Y-47785000D01*
X47244000Y-47785000D01*
X47244000Y-47805000D01*
X46990000Y-47805000D01*
X46990000Y-47785000D01*
X45630783Y-47785000D01*
X45573105Y-47895474D01*
X44439630Y-46762000D01*
X45484370Y-46762000D01*
X45561185Y-46838815D01*
X45686140Y-46922307D01*
X45512291Y-47283209D01*
X45509642Y-47298974D01*
X45630783Y-47531000D01*
X46990000Y-47531000D01*
X46990000Y-47511000D01*
X47244000Y-47511000D01*
X47244000Y-47531000D01*
X48603217Y-47531000D01*
X48724358Y-47298974D01*
X48721709Y-47283209D01*
X48615151Y-47062000D01*
X51024000Y-47062000D01*
X51315605Y-47003996D01*
X51562815Y-46838815D01*
X59352780Y-39048850D01*
X59487341Y-39104724D01*
X59487341Y-39104724D01*
G37*
X59487341Y-39104724D02*
X59681476Y-39104894D01*
X50648370Y-48138000D01*
X48671029Y-48138000D01*
X48721709Y-48032791D01*
X48724358Y-48017026D01*
X48603217Y-47785000D01*
X47244000Y-47785000D01*
X47244000Y-47805000D01*
X46990000Y-47805000D01*
X46990000Y-47785000D01*
X45630783Y-47785000D01*
X45573105Y-47895474D01*
X44439630Y-46762000D01*
X45484370Y-46762000D01*
X45561185Y-46838815D01*
X45686140Y-46922307D01*
X45512291Y-47283209D01*
X45509642Y-47298974D01*
X45630783Y-47531000D01*
X46990000Y-47531000D01*
X46990000Y-47511000D01*
X47244000Y-47511000D01*
X47244000Y-47531000D01*
X48603217Y-47531000D01*
X48724358Y-47298974D01*
X48721709Y-47283209D01*
X48615151Y-47062000D01*
X51024000Y-47062000D01*
X51315605Y-47003996D01*
X51562815Y-46838815D01*
X59352780Y-39048850D01*
X59487341Y-39104724D01*
G36*
X63984997Y-36322914D02*
X64567341Y-36564724D01*
X65197893Y-36565275D01*
X65405000Y-36479700D01*
X65405000Y-37517000D01*
X65463004Y-37808605D01*
X65628185Y-38055815D01*
X66102560Y-38530190D01*
X66102560Y-39100000D01*
X66146838Y-39335317D01*
X66285910Y-39551441D01*
X66498110Y-39696431D01*
X66750000Y-39747440D01*
X68050000Y-39747440D01*
X68285317Y-39703162D01*
X68297736Y-39695171D01*
X68393223Y-39734820D01*
X68804971Y-39735179D01*
X69022983Y-39645099D01*
X69098110Y-39696431D01*
X69350000Y-39747440D01*
X70650000Y-39747440D01*
X70885317Y-39703162D01*
X71101441Y-39564090D01*
X71137033Y-39512000D01*
X83848148Y-39512000D01*
X83912954Y-39576919D01*
X84102560Y-39655650D01*
X84102560Y-40000000D01*
X84146838Y-40235317D01*
X84285910Y-40451441D01*
X84498110Y-40596431D01*
X84511197Y-40599081D01*
X84298559Y-40735910D01*
X84262967Y-40788000D01*
X83490956Y-40788000D01*
X83377942Y-40514485D01*
X83087046Y-40223081D01*
X82706777Y-40065180D01*
X82295029Y-40064821D01*
X81914485Y-40222058D01*
X81623081Y-40512954D01*
X81465180Y-40893223D01*
X81464821Y-41304971D01*
X81622058Y-41685515D01*
X81912954Y-41976919D01*
X82293223Y-42134820D01*
X82480280Y-42134983D01*
X82658395Y-42253996D01*
X82950000Y-42312000D01*
X83980560Y-42312000D01*
X83980560Y-44306000D01*
X84024838Y-44541317D01*
X84163910Y-44757441D01*
X84376110Y-44902431D01*
X84628000Y-44953440D01*
X86152000Y-44953440D01*
X86387317Y-44909162D01*
X86603441Y-44770090D01*
X86659374Y-44688230D01*
X86703910Y-44757441D01*
X86916110Y-44902431D01*
X87168000Y-44953440D01*
X88692000Y-44953440D01*
X88927317Y-44909162D01*
X89143441Y-44770090D01*
X89199374Y-44688230D01*
X89243910Y-44757441D01*
X89456110Y-44902431D01*
X89708000Y-44953440D01*
X90001860Y-44953440D01*
X90874208Y-45825787D01*
X90874210Y-45825790D01*
X91161325Y-46017633D01*
X91217516Y-46028810D01*
X91500000Y-46085001D01*
X91500005Y-46085000D01*
X94237370Y-46085000D01*
X93942597Y-46379773D01*
X60787556Y-46379773D01*
X60677942Y-46114485D01*
X60560200Y-45996537D01*
X60893223Y-46134820D01*
X61304971Y-46135179D01*
X61685515Y-45977942D01*
X61801659Y-45862000D01*
X73998235Y-45862000D01*
X74112954Y-45976919D01*
X74493223Y-46134820D01*
X74904971Y-46135179D01*
X75285515Y-45977942D01*
X75576919Y-45687046D01*
X75734820Y-45306777D01*
X75735179Y-44895029D01*
X75577942Y-44514485D01*
X75287046Y-44223081D01*
X74906777Y-44065180D01*
X74495029Y-44064821D01*
X74114485Y-44222058D01*
X73998341Y-44338000D01*
X61801765Y-44338000D01*
X61687046Y-44223081D01*
X61306777Y-44065180D01*
X60895029Y-44064821D01*
X60514485Y-44222058D01*
X60223081Y-44512954D01*
X60065180Y-44893223D01*
X60064821Y-45304971D01*
X60222058Y-45685515D01*
X60339800Y-45803463D01*
X60006777Y-45665180D01*
X59595029Y-45664821D01*
X59214485Y-45822058D01*
X58923081Y-46112954D01*
X58765180Y-46493223D01*
X58764846Y-46875996D01*
X58227315Y-46875996D01*
X58077942Y-46514485D01*
X57787046Y-46223081D01*
X57406777Y-46065180D01*
X56995029Y-46064821D01*
X56614485Y-46222058D01*
X56323081Y-46512954D01*
X56165180Y-46893223D01*
X56164863Y-47256998D01*
X55419465Y-47256998D01*
X55277942Y-46914485D01*
X54987046Y-46623081D01*
X54606777Y-46465180D01*
X54476564Y-46465066D01*
X61892781Y-39048850D01*
X62027341Y-39104724D01*
X62657893Y-39105275D01*
X63240657Y-38864481D01*
X63686914Y-38419003D01*
X63928724Y-37836659D01*
X63929275Y-37206107D01*
X63688481Y-36623343D01*
X63315529Y-36249739D01*
X63614261Y-35951529D01*
X63984997Y-36322914D01*
X63984997Y-36322914D01*
G37*
X63984997Y-36322914D02*
X64567341Y-36564724D01*
X65197893Y-36565275D01*
X65405000Y-36479700D01*
X65405000Y-37517000D01*
X65463004Y-37808605D01*
X65628185Y-38055815D01*
X66102560Y-38530190D01*
X66102560Y-39100000D01*
X66146838Y-39335317D01*
X66285910Y-39551441D01*
X66498110Y-39696431D01*
X66750000Y-39747440D01*
X68050000Y-39747440D01*
X68285317Y-39703162D01*
X68297736Y-39695171D01*
X68393223Y-39734820D01*
X68804971Y-39735179D01*
X69022983Y-39645099D01*
X69098110Y-39696431D01*
X69350000Y-39747440D01*
X70650000Y-39747440D01*
X70885317Y-39703162D01*
X71101441Y-39564090D01*
X71137033Y-39512000D01*
X83848148Y-39512000D01*
X83912954Y-39576919D01*
X84102560Y-39655650D01*
X84102560Y-40000000D01*
X84146838Y-40235317D01*
X84285910Y-40451441D01*
X84498110Y-40596431D01*
X84511197Y-40599081D01*
X84298559Y-40735910D01*
X84262967Y-40788000D01*
X83490956Y-40788000D01*
X83377942Y-40514485D01*
X83087046Y-40223081D01*
X82706777Y-40065180D01*
X82295029Y-40064821D01*
X81914485Y-40222058D01*
X81623081Y-40512954D01*
X81465180Y-40893223D01*
X81464821Y-41304971D01*
X81622058Y-41685515D01*
X81912954Y-41976919D01*
X82293223Y-42134820D01*
X82480280Y-42134983D01*
X82658395Y-42253996D01*
X82950000Y-42312000D01*
X83980560Y-42312000D01*
X83980560Y-44306000D01*
X84024838Y-44541317D01*
X84163910Y-44757441D01*
X84376110Y-44902431D01*
X84628000Y-44953440D01*
X86152000Y-44953440D01*
X86387317Y-44909162D01*
X86603441Y-44770090D01*
X86659374Y-44688230D01*
X86703910Y-44757441D01*
X86916110Y-44902431D01*
X87168000Y-44953440D01*
X88692000Y-44953440D01*
X88927317Y-44909162D01*
X89143441Y-44770090D01*
X89199374Y-44688230D01*
X89243910Y-44757441D01*
X89456110Y-44902431D01*
X89708000Y-44953440D01*
X90001860Y-44953440D01*
X90874208Y-45825787D01*
X90874210Y-45825790D01*
X91161325Y-46017633D01*
X91217516Y-46028810D01*
X91500000Y-46085001D01*
X91500005Y-46085000D01*
X94237370Y-46085000D01*
X93942597Y-46379773D01*
X60787556Y-46379773D01*
X60677942Y-46114485D01*
X60560200Y-45996537D01*
X60893223Y-46134820D01*
X61304971Y-46135179D01*
X61685515Y-45977942D01*
X61801659Y-45862000D01*
X73998235Y-45862000D01*
X74112954Y-45976919D01*
X74493223Y-46134820D01*
X74904971Y-46135179D01*
X75285515Y-45977942D01*
X75576919Y-45687046D01*
X75734820Y-45306777D01*
X75735179Y-44895029D01*
X75577942Y-44514485D01*
X75287046Y-44223081D01*
X74906777Y-44065180D01*
X74495029Y-44064821D01*
X74114485Y-44222058D01*
X73998341Y-44338000D01*
X61801765Y-44338000D01*
X61687046Y-44223081D01*
X61306777Y-44065180D01*
X60895029Y-44064821D01*
X60514485Y-44222058D01*
X60223081Y-44512954D01*
X60065180Y-44893223D01*
X60064821Y-45304971D01*
X60222058Y-45685515D01*
X60339800Y-45803463D01*
X60006777Y-45665180D01*
X59595029Y-45664821D01*
X59214485Y-45822058D01*
X58923081Y-46112954D01*
X58765180Y-46493223D01*
X58764846Y-46875996D01*
X58227315Y-46875996D01*
X58077942Y-46514485D01*
X57787046Y-46223081D01*
X57406777Y-46065180D01*
X56995029Y-46064821D01*
X56614485Y-46222058D01*
X56323081Y-46512954D01*
X56165180Y-46893223D01*
X56164863Y-47256998D01*
X55419465Y-47256998D01*
X55277942Y-46914485D01*
X54987046Y-46623081D01*
X54606777Y-46465180D01*
X54476564Y-46465066D01*
X61892781Y-39048850D01*
X62027341Y-39104724D01*
X62657893Y-39105275D01*
X63240657Y-38864481D01*
X63686914Y-38419003D01*
X63928724Y-37836659D01*
X63929275Y-37206107D01*
X63688481Y-36623343D01*
X63315529Y-36249739D01*
X63614261Y-35951529D01*
X63984997Y-36322914D01*
G36*
X49917608Y-33395238D02*
X49330107Y-33394725D01*
X48747343Y-33635519D01*
X48301086Y-34080997D01*
X48059276Y-34663341D01*
X48058725Y-35293893D01*
X48118269Y-35438000D01*
X47300000Y-35438000D01*
X47008395Y-35496004D01*
X46761185Y-35661185D01*
X43654370Y-38768000D01*
X43573440Y-38768000D01*
X43573440Y-38666400D01*
X43529162Y-38431083D01*
X43390090Y-38214959D01*
X43177890Y-38069969D01*
X42926000Y-38018960D01*
X40894000Y-38018960D01*
X40810342Y-38034701D01*
X40753880Y-37750849D01*
X40442811Y-37285302D01*
X39977264Y-36974233D01*
X39428113Y-36865000D01*
X39371887Y-36865000D01*
X38822736Y-36974233D01*
X38357189Y-37285302D01*
X38046120Y-37750849D01*
X37936887Y-38300000D01*
X38046120Y-38849151D01*
X38357189Y-39314698D01*
X38739275Y-39570000D01*
X38357189Y-39825302D01*
X38046120Y-40290849D01*
X37936887Y-40840000D01*
X38046120Y-41389151D01*
X38357189Y-41854698D01*
X38739275Y-42110000D01*
X38357189Y-42365302D01*
X38046120Y-42830849D01*
X37936887Y-43380000D01*
X38046120Y-43929151D01*
X38127089Y-44050330D01*
X37961185Y-44161184D01*
X35784370Y-46338000D01*
X33143341Y-46338000D01*
X33171904Y-46269039D01*
X33049915Y-46047000D01*
X31907000Y-46047000D01*
X31907000Y-46067000D01*
X31653000Y-46067000D01*
X31653000Y-46047000D01*
X31633000Y-46047000D01*
X31633000Y-45793000D01*
X31653000Y-45793000D01*
X31653000Y-45773000D01*
X31907000Y-45773000D01*
X31907000Y-45793000D01*
X33049915Y-45793000D01*
X33171904Y-45570961D01*
X33011041Y-45182577D01*
X32635134Y-44767611D01*
X32418297Y-44664986D01*
X32822811Y-44394698D01*
X33133880Y-43929151D01*
X33243113Y-43380000D01*
X33218976Y-43258654D01*
X34538815Y-41938815D01*
X34538903Y-41938683D01*
X34703996Y-41691605D01*
X34762000Y-41400000D01*
X34762000Y-34201765D01*
X34876919Y-34087046D01*
X35034820Y-33706777D01*
X35035179Y-33295029D01*
X34980213Y-33162000D01*
X49684370Y-33162000D01*
X49917608Y-33395238D01*
X49917608Y-33395238D01*
G37*
X49917608Y-33395238D02*
X49330107Y-33394725D01*
X48747343Y-33635519D01*
X48301086Y-34080997D01*
X48059276Y-34663341D01*
X48058725Y-35293893D01*
X48118269Y-35438000D01*
X47300000Y-35438000D01*
X47008395Y-35496004D01*
X46761185Y-35661185D01*
X43654370Y-38768000D01*
X43573440Y-38768000D01*
X43573440Y-38666400D01*
X43529162Y-38431083D01*
X43390090Y-38214959D01*
X43177890Y-38069969D01*
X42926000Y-38018960D01*
X40894000Y-38018960D01*
X40810342Y-38034701D01*
X40753880Y-37750849D01*
X40442811Y-37285302D01*
X39977264Y-36974233D01*
X39428113Y-36865000D01*
X39371887Y-36865000D01*
X38822736Y-36974233D01*
X38357189Y-37285302D01*
X38046120Y-37750849D01*
X37936887Y-38300000D01*
X38046120Y-38849151D01*
X38357189Y-39314698D01*
X38739275Y-39570000D01*
X38357189Y-39825302D01*
X38046120Y-40290849D01*
X37936887Y-40840000D01*
X38046120Y-41389151D01*
X38357189Y-41854698D01*
X38739275Y-42110000D01*
X38357189Y-42365302D01*
X38046120Y-42830849D01*
X37936887Y-43380000D01*
X38046120Y-43929151D01*
X38127089Y-44050330D01*
X37961185Y-44161184D01*
X35784370Y-46338000D01*
X33143341Y-46338000D01*
X33171904Y-46269039D01*
X33049915Y-46047000D01*
X31907000Y-46047000D01*
X31907000Y-46067000D01*
X31653000Y-46067000D01*
X31653000Y-46047000D01*
X31633000Y-46047000D01*
X31633000Y-45793000D01*
X31653000Y-45793000D01*
X31653000Y-45773000D01*
X31907000Y-45773000D01*
X31907000Y-45793000D01*
X33049915Y-45793000D01*
X33171904Y-45570961D01*
X33011041Y-45182577D01*
X32635134Y-44767611D01*
X32418297Y-44664986D01*
X32822811Y-44394698D01*
X33133880Y-43929151D01*
X33243113Y-43380000D01*
X33218976Y-43258654D01*
X34538815Y-41938815D01*
X34538903Y-41938683D01*
X34703996Y-41691605D01*
X34762000Y-41400000D01*
X34762000Y-34201765D01*
X34876919Y-34087046D01*
X35034820Y-33706777D01*
X35035179Y-33295029D01*
X34980213Y-33162000D01*
X49684370Y-33162000D01*
X49917608Y-33395238D01*
G36*
X105037000Y-43063000D02*
X105057000Y-43063000D01*
X105057000Y-43317000D01*
X105037000Y-43317000D01*
X105037000Y-44682250D01*
X105195750Y-44841000D01*
X105481369Y-44841000D01*
X104634924Y-45687445D01*
X104635179Y-45395029D01*
X104477942Y-45014485D01*
X104304759Y-44841000D01*
X104624250Y-44841000D01*
X104783000Y-44682250D01*
X104783000Y-43317000D01*
X104763000Y-43317000D01*
X104763000Y-43063000D01*
X104783000Y-43063000D01*
X104783000Y-43043000D01*
X105037000Y-43043000D01*
X105037000Y-43063000D01*
X105037000Y-43063000D01*
G37*
X105037000Y-43063000D02*
X105057000Y-43063000D01*
X105057000Y-43317000D01*
X105037000Y-43317000D01*
X105037000Y-44682250D01*
X105195750Y-44841000D01*
X105481369Y-44841000D01*
X104634924Y-45687445D01*
X104635179Y-45395029D01*
X104477942Y-45014485D01*
X104304759Y-44841000D01*
X104624250Y-44841000D01*
X104783000Y-44682250D01*
X104783000Y-43317000D01*
X104763000Y-43317000D01*
X104763000Y-43063000D01*
X104783000Y-43063000D01*
X104783000Y-43043000D01*
X105037000Y-43043000D01*
X105037000Y-43063000D01*
G36*
X101143910Y-44657441D02*
X101356110Y-44802431D01*
X101608000Y-44853440D01*
X102882874Y-44853440D01*
X102723081Y-45012954D01*
X102565180Y-45393223D01*
X102565141Y-45438000D01*
X100534793Y-45438000D01*
X100535214Y-44955421D01*
X100487936Y-44841000D01*
X100718309Y-44841000D01*
X100951698Y-44744327D01*
X101102671Y-44593354D01*
X101143910Y-44657441D01*
X101143910Y-44657441D01*
G37*
X101143910Y-44657441D02*
X101356110Y-44802431D01*
X101608000Y-44853440D01*
X102882874Y-44853440D01*
X102723081Y-45012954D01*
X102565180Y-45393223D01*
X102565141Y-45438000D01*
X100534793Y-45438000D01*
X100535214Y-44955421D01*
X100487936Y-44841000D01*
X100718309Y-44841000D01*
X100951698Y-44744327D01*
X101102671Y-44593354D01*
X101143910Y-44657441D01*
G36*
X98735910Y-41201441D02*
X98948110Y-41346431D01*
X99200000Y-41397440D01*
X99900000Y-41397440D01*
X100135317Y-41353162D01*
X100160639Y-41336868D01*
X100222058Y-41485515D01*
X100275450Y-41539000D01*
X100115750Y-41539000D01*
X99957000Y-41697750D01*
X99957000Y-43063000D01*
X99977000Y-43063000D01*
X99977000Y-43317000D01*
X99957000Y-43317000D01*
X99957000Y-43337000D01*
X99703000Y-43337000D01*
X99703000Y-43317000D01*
X99683000Y-43317000D01*
X99683000Y-43063000D01*
X99703000Y-43063000D01*
X99703000Y-41697750D01*
X99544250Y-41539000D01*
X98941691Y-41539000D01*
X98708302Y-41635673D01*
X98557329Y-41786646D01*
X98516090Y-41722559D01*
X98303890Y-41577569D01*
X98052000Y-41526560D01*
X98052000Y-41387656D01*
X98235317Y-41353162D01*
X98451441Y-41214090D01*
X98596431Y-41001890D01*
X98599081Y-40988803D01*
X98735910Y-41201441D01*
X98735910Y-41201441D01*
G37*
X98735910Y-41201441D02*
X98948110Y-41346431D01*
X99200000Y-41397440D01*
X99900000Y-41397440D01*
X100135317Y-41353162D01*
X100160639Y-41336868D01*
X100222058Y-41485515D01*
X100275450Y-41539000D01*
X100115750Y-41539000D01*
X99957000Y-41697750D01*
X99957000Y-43063000D01*
X99977000Y-43063000D01*
X99977000Y-43317000D01*
X99957000Y-43317000D01*
X99957000Y-43337000D01*
X99703000Y-43337000D01*
X99703000Y-43317000D01*
X99683000Y-43317000D01*
X99683000Y-43063000D01*
X99703000Y-43063000D01*
X99703000Y-41697750D01*
X99544250Y-41539000D01*
X98941691Y-41539000D01*
X98708302Y-41635673D01*
X98557329Y-41786646D01*
X98516090Y-41722559D01*
X98303890Y-41577569D01*
X98052000Y-41526560D01*
X98052000Y-41387656D01*
X98235317Y-41353162D01*
X98451441Y-41214090D01*
X98596431Y-41001890D01*
X98599081Y-40988803D01*
X98735910Y-41201441D01*
G36*
X98364963Y-35242593D02*
X98364821Y-35404971D01*
X98522058Y-35785515D01*
X98812954Y-36076919D01*
X99193223Y-36234820D01*
X99604971Y-36235179D01*
X99985515Y-36077942D01*
X100243138Y-35820768D01*
X102761185Y-38338815D01*
X103008395Y-38503996D01*
X103300000Y-38562000D01*
X103398235Y-38562000D01*
X103512954Y-38676919D01*
X103893223Y-38834820D01*
X104304971Y-38835179D01*
X104685515Y-38677942D01*
X104925083Y-38438792D01*
X106019010Y-39532719D01*
X106019010Y-40081564D01*
X105800000Y-40038000D01*
X105626366Y-40038000D01*
X105603162Y-39914683D01*
X105464090Y-39698559D01*
X105251890Y-39553569D01*
X105000000Y-39502560D01*
X104300000Y-39502560D01*
X104064683Y-39546838D01*
X103848559Y-39685910D01*
X103703569Y-39898110D01*
X103700919Y-39911197D01*
X103564090Y-39698559D01*
X103351890Y-39553569D01*
X103100000Y-39502560D01*
X102400000Y-39502560D01*
X102164683Y-39546838D01*
X101948559Y-39685910D01*
X101803569Y-39898110D01*
X101762878Y-40099046D01*
X101687046Y-40023081D01*
X101306777Y-39865180D01*
X101142667Y-39865037D01*
X100838815Y-39561185D01*
X100817343Y-39546838D01*
X100591605Y-39396004D01*
X100535168Y-39384778D01*
X100503162Y-39214683D01*
X100364090Y-38998559D01*
X100151890Y-38853569D01*
X99900000Y-38802560D01*
X99200000Y-38802560D01*
X98964683Y-38846838D01*
X98748559Y-38985910D01*
X98603569Y-39198110D01*
X98600919Y-39211197D01*
X98464090Y-38998559D01*
X98251890Y-38853569D01*
X98000000Y-38802560D01*
X97949019Y-38802560D01*
X98316390Y-38435189D01*
X98344579Y-38435214D01*
X98798657Y-38247592D01*
X99146371Y-37900485D01*
X99334785Y-37446734D01*
X99335214Y-36955421D01*
X99147592Y-36501343D01*
X98800485Y-36153629D01*
X98346734Y-35965215D01*
X97855421Y-35964786D01*
X97401343Y-36152408D01*
X97053629Y-36499515D01*
X96865215Y-36953266D01*
X96864839Y-37383582D01*
X95056132Y-39192288D01*
X94987046Y-39123081D01*
X94606777Y-38965180D01*
X94369995Y-38964974D01*
X94341605Y-38946004D01*
X94050000Y-38888000D01*
X86539470Y-38888000D01*
X86514090Y-38848559D01*
X86301890Y-38703569D01*
X86050000Y-38652560D01*
X85535042Y-38652560D01*
X85535179Y-38495029D01*
X85377942Y-38114485D01*
X85087046Y-37823081D01*
X84706777Y-37665180D01*
X84295029Y-37664821D01*
X83914485Y-37822058D01*
X83748253Y-37988000D01*
X81734836Y-37988000D01*
X81735179Y-37595029D01*
X81577942Y-37214485D01*
X81287046Y-36923081D01*
X80906777Y-36765180D01*
X80495029Y-36764821D01*
X80114485Y-36922058D01*
X79823081Y-37212954D01*
X79665180Y-37593223D01*
X79664836Y-37988000D01*
X71139470Y-37988000D01*
X71114090Y-37948559D01*
X70901890Y-37803569D01*
X70888803Y-37800919D01*
X71101441Y-37664090D01*
X71246431Y-37451890D01*
X71297440Y-37200000D01*
X71297440Y-36500000D01*
X71253162Y-36264683D01*
X71123075Y-36062521D01*
X71234261Y-35951529D01*
X71604997Y-36322914D01*
X72187341Y-36564724D01*
X72817893Y-36565275D01*
X73400657Y-36324481D01*
X73774261Y-35951529D01*
X74144997Y-36322914D01*
X74727341Y-36564724D01*
X75357893Y-36565275D01*
X75940657Y-36324481D01*
X76314261Y-35951529D01*
X76684997Y-36322914D01*
X77267341Y-36564724D01*
X77897893Y-36565275D01*
X78480657Y-36324481D01*
X78854261Y-35951529D01*
X79224997Y-36322914D01*
X79807341Y-36564724D01*
X80437893Y-36565275D01*
X81020657Y-36324481D01*
X81394261Y-35951529D01*
X81764997Y-36322914D01*
X82347341Y-36564724D01*
X82977893Y-36565275D01*
X83560657Y-36324481D01*
X84006914Y-35879003D01*
X84248724Y-35296659D01*
X84248885Y-35112738D01*
X84312954Y-35176919D01*
X84693223Y-35334820D01*
X85104971Y-35335179D01*
X85485515Y-35177942D01*
X85601659Y-35062000D01*
X98184370Y-35062000D01*
X98364963Y-35242593D01*
X98364963Y-35242593D01*
G37*
X98364963Y-35242593D02*
X98364821Y-35404971D01*
X98522058Y-35785515D01*
X98812954Y-36076919D01*
X99193223Y-36234820D01*
X99604971Y-36235179D01*
X99985515Y-36077942D01*
X100243138Y-35820768D01*
X102761185Y-38338815D01*
X103008395Y-38503996D01*
X103300000Y-38562000D01*
X103398235Y-38562000D01*
X103512954Y-38676919D01*
X103893223Y-38834820D01*
X104304971Y-38835179D01*
X104685515Y-38677942D01*
X104925083Y-38438792D01*
X106019010Y-39532719D01*
X106019010Y-40081564D01*
X105800000Y-40038000D01*
X105626366Y-40038000D01*
X105603162Y-39914683D01*
X105464090Y-39698559D01*
X105251890Y-39553569D01*
X105000000Y-39502560D01*
X104300000Y-39502560D01*
X104064683Y-39546838D01*
X103848559Y-39685910D01*
X103703569Y-39898110D01*
X103700919Y-39911197D01*
X103564090Y-39698559D01*
X103351890Y-39553569D01*
X103100000Y-39502560D01*
X102400000Y-39502560D01*
X102164683Y-39546838D01*
X101948559Y-39685910D01*
X101803569Y-39898110D01*
X101762878Y-40099046D01*
X101687046Y-40023081D01*
X101306777Y-39865180D01*
X101142667Y-39865037D01*
X100838815Y-39561185D01*
X100817343Y-39546838D01*
X100591605Y-39396004D01*
X100535168Y-39384778D01*
X100503162Y-39214683D01*
X100364090Y-38998559D01*
X100151890Y-38853569D01*
X99900000Y-38802560D01*
X99200000Y-38802560D01*
X98964683Y-38846838D01*
X98748559Y-38985910D01*
X98603569Y-39198110D01*
X98600919Y-39211197D01*
X98464090Y-38998559D01*
X98251890Y-38853569D01*
X98000000Y-38802560D01*
X97949019Y-38802560D01*
X98316390Y-38435189D01*
X98344579Y-38435214D01*
X98798657Y-38247592D01*
X99146371Y-37900485D01*
X99334785Y-37446734D01*
X99335214Y-36955421D01*
X99147592Y-36501343D01*
X98800485Y-36153629D01*
X98346734Y-35965215D01*
X97855421Y-35964786D01*
X97401343Y-36152408D01*
X97053629Y-36499515D01*
X96865215Y-36953266D01*
X96864839Y-37383582D01*
X95056132Y-39192288D01*
X94987046Y-39123081D01*
X94606777Y-38965180D01*
X94369995Y-38964974D01*
X94341605Y-38946004D01*
X94050000Y-38888000D01*
X86539470Y-38888000D01*
X86514090Y-38848559D01*
X86301890Y-38703569D01*
X86050000Y-38652560D01*
X85535042Y-38652560D01*
X85535179Y-38495029D01*
X85377942Y-38114485D01*
X85087046Y-37823081D01*
X84706777Y-37665180D01*
X84295029Y-37664821D01*
X83914485Y-37822058D01*
X83748253Y-37988000D01*
X81734836Y-37988000D01*
X81735179Y-37595029D01*
X81577942Y-37214485D01*
X81287046Y-36923081D01*
X80906777Y-36765180D01*
X80495029Y-36764821D01*
X80114485Y-36922058D01*
X79823081Y-37212954D01*
X79665180Y-37593223D01*
X79664836Y-37988000D01*
X71139470Y-37988000D01*
X71114090Y-37948559D01*
X70901890Y-37803569D01*
X70888803Y-37800919D01*
X71101441Y-37664090D01*
X71246431Y-37451890D01*
X71297440Y-37200000D01*
X71297440Y-36500000D01*
X71253162Y-36264683D01*
X71123075Y-36062521D01*
X71234261Y-35951529D01*
X71604997Y-36322914D01*
X72187341Y-36564724D01*
X72817893Y-36565275D01*
X73400657Y-36324481D01*
X73774261Y-35951529D01*
X74144997Y-36322914D01*
X74727341Y-36564724D01*
X75357893Y-36565275D01*
X75940657Y-36324481D01*
X76314261Y-35951529D01*
X76684997Y-36322914D01*
X77267341Y-36564724D01*
X77897893Y-36565275D01*
X78480657Y-36324481D01*
X78854261Y-35951529D01*
X79224997Y-36322914D01*
X79807341Y-36564724D01*
X80437893Y-36565275D01*
X81020657Y-36324481D01*
X81394261Y-35951529D01*
X81764997Y-36322914D01*
X82347341Y-36564724D01*
X82977893Y-36565275D01*
X83560657Y-36324481D01*
X84006914Y-35879003D01*
X84248724Y-35296659D01*
X84248885Y-35112738D01*
X84312954Y-35176919D01*
X84693223Y-35334820D01*
X85104971Y-35335179D01*
X85485515Y-35177942D01*
X85601659Y-35062000D01*
X98184370Y-35062000D01*
X98364963Y-35242593D01*
G36*
X107315000Y-38673447D02*
X101202737Y-32561185D01*
X100955527Y-32396004D01*
X100663922Y-32338000D01*
X98915631Y-32338000D01*
X97628522Y-31050891D01*
X97800000Y-31085001D01*
X97800005Y-31085000D01*
X100399995Y-31085000D01*
X100400000Y-31085001D01*
X100716429Y-31022058D01*
X100738675Y-31017633D01*
X101025790Y-30825790D01*
X101333420Y-30518160D01*
X101332538Y-31528172D01*
X101737709Y-32508761D01*
X102487293Y-33259655D01*
X103467173Y-33666536D01*
X104528172Y-33667462D01*
X105508761Y-33262291D01*
X106259655Y-32512707D01*
X106666536Y-31532827D01*
X106667462Y-30471828D01*
X106262291Y-29491239D01*
X105512707Y-28740345D01*
X104532827Y-28333464D01*
X103471828Y-28332538D01*
X102899511Y-28569014D01*
X102747592Y-28201343D01*
X102400485Y-27853629D01*
X101994382Y-27685000D01*
X107315000Y-27685000D01*
X107315000Y-38673447D01*
X107315000Y-38673447D01*
G37*
X107315000Y-38673447D02*
X101202737Y-32561185D01*
X100955527Y-32396004D01*
X100663922Y-32338000D01*
X98915631Y-32338000D01*
X97628522Y-31050891D01*
X97800000Y-31085001D01*
X97800005Y-31085000D01*
X100399995Y-31085000D01*
X100400000Y-31085001D01*
X100716429Y-31022058D01*
X100738675Y-31017633D01*
X101025790Y-30825790D01*
X101333420Y-30518160D01*
X101332538Y-31528172D01*
X101737709Y-32508761D01*
X102487293Y-33259655D01*
X103467173Y-33666536D01*
X104528172Y-33667462D01*
X105508761Y-33262291D01*
X106259655Y-32512707D01*
X106666536Y-31532827D01*
X106667462Y-30471828D01*
X106262291Y-29491239D01*
X105512707Y-28740345D01*
X104532827Y-28333464D01*
X103471828Y-28332538D01*
X102899511Y-28569014D01*
X102747592Y-28201343D01*
X102400485Y-27853629D01*
X101994382Y-27685000D01*
X107315000Y-27685000D01*
X107315000Y-38673447D01*
M02*
