M48
;DRILL file {KiCad 4.0.1-stable} date 2017-05-17 12:35:11 PM
;FORMAT={2:4/ absolute / inch / suppress leading zeros}
FMAT,2
INCH,TZ
T1C0.016
T2C0.031
T3C0.033
T4C0.039
T5C0.039
T6C0.040
T7C0.055
T8C0.091
T9C0.120
%
G90
G05
M72
T1
X13350Y-31700
X13376Y-33110
X13950Y-28600
X14009Y-23102
X14550Y-32400
X16776Y-25581
X18504Y-24724
X18504Y-22835
X19449Y-20472
X21496Y-24961
X21654Y-25984
X22638Y-25984
X27047Y-30630
X27126Y-41220
X27205Y-39606
X28280Y-35324
X28937Y-25315
X28957Y-22441
X30380Y-35024
X31674Y-39924
X32480Y-35274
X32480Y-38611
X33425Y-21181
X34080Y-35274
X38563Y-20709
X38898Y-31142
X38898Y-31535
X39252Y-37539
X39291Y-39990
X39754Y-37559
X39754Y-39980
X39961Y-20787
X40079Y-30157
X40197Y-36339
X40236Y-39980
X40256Y-37559
X40394Y-20118
X40787Y-29094
X41181Y-20787
X41260Y-29291
X41299Y-31850
X41457Y-36850
X41811Y-29094
X42283Y-30197
X42402Y-26693
X42520Y-31693
X42559Y-29252
X42795Y-24173
X42795Y-31142
X42913Y-32854
X43150Y-20236
X43661Y-20236
X43780Y-31417
X43898Y-19134
X44291Y-35039
X44409Y-18937
X44488Y-22205
X44724Y-29606
X44724Y-30394
X45118Y-26378
X45157Y-22205
X45354Y-26693
X45380Y-32974
X45380Y-33524
X45709Y-22205
X45748Y-26614
X45846Y-29252
X45930Y-32974
X45930Y-33524
X46299Y-22165
X46530Y-32974
X46530Y-33524
X46614Y-32598
X46654Y-26654
X46654Y-31496
X46693Y-31890
X46811Y-30472
X47283Y-22165
X47559Y-26654
X47559Y-34882
X47795Y-25000
X47880Y-35331
X47904Y-28738
X48287Y-18961
X48307Y-22165
X48583Y-28976
X48819Y-22894
X48880Y-36724
X48898Y-28425
X49035Y-29606
X49134Y-30472
X49331Y-24252
X49606Y-26693
X49724Y-20906
X49843Y-11142
X50118Y-35000
X50236Y-18465
X50236Y-29409
X50433Y-27008
X50669Y-37126
X50709Y-29409
X50827Y-24882
X50839Y-28665
X50866Y-27677
X50906Y-20925
X50984Y-35000
X51063Y-20039
X51075Y-10858
X51181Y-26732
X51339Y-30472
X51339Y-31614
X51417Y-31181
X51417Y-34252
X51536Y-32824
X51575Y-10858
X51575Y-18992
X51890Y-17559
X52075Y-11458
X52283Y-12283
X52283Y-20925
X52362Y-16358
X52362Y-17559
X52362Y-17953
X52362Y-30827
X52559Y-26299
X52575Y-10858
X52575Y-11458
X53031Y-16339
X53031Y-30906
X53150Y-19449
X53465Y-19094
X53642Y-30315
X53740Y-18819
X54051Y-20862
X54051Y-23862
X54291Y-24764
X54291Y-27913
X54780Y-32624
X54843Y-27677
X55039Y-24764
X55354Y-22244
X55551Y-24409
X55787Y-35906
X55945Y-25039
X56063Y-29528
X56102Y-27756
X56260Y-36496
X56654Y-30630
X56732Y-27598
X56772Y-38150
X56772Y-38701
X56772Y-39291
X56850Y-35945
X57008Y-28031
X57047Y-23898
T2
X29795Y-21693
X29795Y-22693
X29795Y-23693
X29795Y-24693
X32795Y-21693
X32795Y-22693
X32795Y-23693
X32795Y-24693
T3
X49555Y-8848
X49555Y-9738
X53595Y-8848
X53595Y-9738
T4
X15374Y-32756
X28000Y-21500
X28000Y-22500
X28000Y-23500
X34000Y-21500
X34000Y-22500
X35805Y-21567
X35805Y-27567
X36805Y-21567
X36805Y-27567
X37805Y-21567
X37805Y-27567
X38805Y-21567
X38805Y-22567
X38805Y-27567
X39805Y-21567
X39805Y-22567
X39805Y-27567
X40805Y-21567
X40805Y-22567
X40805Y-27567
X41805Y-21567
X41805Y-27567
X42805Y-21567
X42805Y-27567
X43805Y-21567
X43805Y-27567
X44805Y-21567
X44805Y-27567
X45805Y-21567
X45805Y-27567
X46805Y-21567
X46805Y-27567
X47805Y-21567
X47805Y-27567
X48805Y-21567
X48805Y-27567
T5
X26395Y-33724
X27980Y-36774
X27980Y-37774
X27980Y-38774
X28364Y-33724
X30080Y-32324
X30080Y-33324
X30080Y-34324
X47980Y-39374
X48980Y-39374
X49980Y-39374
T6
X26680Y-31374
X26680Y-40374
X27680Y-31374
X27680Y-40374
X28680Y-31374
X28680Y-40374
X29680Y-40374
T7
X14016Y-24741
X14016Y-26911
T8
X18673Y-27520
X23846Y-27520
T9
X26772Y-42913
X56693Y-9843
X56693Y-42913
T0
M30
