G04 #@! TF.FileFunction,Copper,L4,Bot,Signal*
%FSLAX46Y46*%
G04 Gerber Fmt 4.6, Leading zero omitted, Abs format (unit mm)*
G04 Created by KiCad (PCBNEW 4.0.1-stable) date 2017-03-07 5:39:30 PM*
%MOMM*%
G01*
G04 APERTURE LIST*
%ADD10C,0.150000*%
%ADD11R,1.727200X2.032000*%
%ADD12O,1.727200X2.032000*%
%ADD13O,1.600000X1.600000*%
%ADD14C,1.900000*%
%ADD15O,3.500120X1.699260*%
%ADD16R,9.000000X11.000000*%
%ADD17O,1.699260X3.500120*%
%ADD18R,10.500000X6.000000*%
%ADD19R,1.524000X2.032000*%
%ADD20C,1.998980*%
%ADD21R,1.000000X1.250000*%
%ADD22R,0.700000X1.300000*%
%ADD23R,1.300000X0.700000*%
%ADD24R,2.032000X1.727200*%
%ADD25O,2.032000X1.727200*%
%ADD26C,1.270000*%
%ADD27R,1.250000X1.000000*%
%ADD28R,1.000000X1.600000*%
%ADD29C,4.064000*%
%ADD30C,0.800000*%
%ADD31C,1.200000*%
%ADD32C,0.254000*%
%ADD33C,0.500000*%
%ADD34C,0.100000*%
G04 APERTURE END LIST*
D10*
D11*
X27767000Y-102551000D03*
D12*
X30307000Y-102551000D03*
X32847000Y-102551000D03*
X35387000Y-102551000D03*
D13*
X37700000Y-55850000D03*
X37700000Y-58390000D03*
X37700000Y-60930000D03*
X37700000Y-63470000D03*
X37700000Y-66010000D03*
X37700000Y-68550000D03*
X37700000Y-71090000D03*
X30080000Y-71090000D03*
X30080000Y-68550000D03*
X30080000Y-66010000D03*
X30080000Y-63470000D03*
X30080000Y-60930000D03*
X30080000Y-58390000D03*
X30080000Y-55850000D03*
D14*
X58564000Y-57320000D03*
X61104000Y-57320000D03*
X63644000Y-57320000D03*
X53484000Y-70020000D03*
X56024000Y-70020000D03*
X58564000Y-70020000D03*
X61104000Y-70020000D03*
X63644000Y-70020000D03*
X66184000Y-70020000D03*
X68724000Y-70020000D03*
X71264000Y-70020000D03*
X73804000Y-70020000D03*
X76344000Y-70020000D03*
X78884000Y-70020000D03*
X81424000Y-70020000D03*
X83964000Y-70020000D03*
X83964000Y-54780000D03*
X81424000Y-54780000D03*
X78884000Y-54780000D03*
X76344000Y-54780000D03*
X73804000Y-54780000D03*
X71264000Y-54780000D03*
X68724000Y-54780000D03*
X66184000Y-54780000D03*
X63644000Y-54780000D03*
X61104000Y-54780000D03*
X58564000Y-54780000D03*
X56024000Y-54780000D03*
X53484000Y-54780000D03*
X50944000Y-54780000D03*
X50944000Y-70020000D03*
D15*
X36403000Y-84644000D03*
X36403000Y-87184000D03*
X36403000Y-82104000D03*
D16*
X53167000Y-84644000D03*
D15*
X31069000Y-95947000D03*
X31069000Y-98487000D03*
X31069000Y-93407000D03*
D16*
X47833000Y-95947000D03*
D17*
X84409000Y-100011000D03*
X86949000Y-100011000D03*
X81869000Y-100011000D03*
D18*
X84409000Y-82247000D03*
D19*
X97290000Y-65190000D03*
X99830000Y-65190000D03*
X102370000Y-65190000D03*
X104910000Y-65190000D03*
X104910000Y-72810000D03*
X102370000Y-72810000D03*
X99830000Y-72810000D03*
X97290000Y-72810000D03*
X94210000Y-72810000D03*
X91670000Y-72810000D03*
X89130000Y-72810000D03*
X86590000Y-72810000D03*
X86590000Y-65190000D03*
X89130000Y-65190000D03*
X91670000Y-65190000D03*
X94210000Y-65190000D03*
D11*
X27767000Y-79691000D03*
D12*
X30307000Y-79691000D03*
X32847000Y-79691000D03*
D20*
X32044360Y-85660000D03*
X27043100Y-85660000D03*
D21*
X105900000Y-75200000D03*
X103900000Y-75200000D03*
X100100000Y-75200000D03*
X102100000Y-75200000D03*
D22*
X104650000Y-62800000D03*
X102750000Y-62800000D03*
X99550000Y-62100000D03*
X97650000Y-62100000D03*
X96250000Y-77000000D03*
X94350000Y-77000000D03*
X84550000Y-75200000D03*
X86450000Y-75200000D03*
X96250000Y-75100000D03*
X94350000Y-75100000D03*
D23*
X86600000Y-61550000D03*
X86600000Y-63450000D03*
X70900000Y-53250000D03*
X70900000Y-51350000D03*
X66000000Y-53250000D03*
X66000000Y-51350000D03*
X66200000Y-74850000D03*
X66200000Y-76750000D03*
X63600000Y-74850000D03*
X63600000Y-76750000D03*
D24*
X27510000Y-57080000D03*
D25*
X27510000Y-59620000D03*
X27510000Y-62160000D03*
X27510000Y-64700000D03*
D24*
X40210000Y-57080000D03*
D25*
X40210000Y-59620000D03*
X40210000Y-62160000D03*
X40210000Y-64700000D03*
D26*
X96130800Y-22473200D03*
X85869200Y-22473200D03*
X96130800Y-24733800D03*
X85869200Y-24733800D03*
D27*
X68700000Y-59400000D03*
X68700000Y-61400000D03*
X71200000Y-61400000D03*
X71200000Y-59400000D03*
D28*
X33600000Y-82800000D03*
X30600000Y-82800000D03*
D22*
X64650000Y-52800000D03*
X62750000Y-52800000D03*
X27050000Y-82800000D03*
X28950000Y-82800000D03*
D23*
X63700000Y-73450000D03*
X63700000Y-71550000D03*
X66200000Y-73450000D03*
X66200000Y-71550000D03*
X68700000Y-58250000D03*
X68700000Y-56350000D03*
X71200000Y-58250000D03*
X71200000Y-56350000D03*
X67600000Y-51550000D03*
X67600000Y-53450000D03*
X72500000Y-51450000D03*
X72500000Y-53350000D03*
D29*
X104000000Y-25000000D03*
D27*
X60400000Y-74800000D03*
X60400000Y-76800000D03*
D22*
X79350000Y-74300000D03*
X77450000Y-74300000D03*
X82650000Y-71800000D03*
X80750000Y-71800000D03*
D23*
X84000000Y-56250000D03*
X84000000Y-58150000D03*
D29*
X28000000Y-109000000D03*
X104000000Y-109000000D03*
D30*
X82700000Y-56300000D03*
X80100000Y-56300000D03*
X80800000Y-67700000D03*
X77600000Y-56300000D03*
X78500000Y-67700000D03*
X74600000Y-67000000D03*
X90000000Y-67900000D03*
X86000000Y-67800000D03*
X76100000Y-56400000D03*
X76200000Y-67600000D03*
X73000000Y-56400000D03*
X74700000Y-56400000D03*
X93000000Y-44600000D03*
X93000000Y-45600000D03*
X93540000Y-29102600D03*
X89730000Y-27578600D03*
X91800000Y-44600000D03*
X81300000Y-48900000D03*
X86500000Y-43600000D03*
X29100000Y-100600000D03*
X28700000Y-77800000D03*
X96800000Y-48600000D03*
X99000000Y-70000000D03*
X72800000Y-50500000D03*
X44400000Y-58300000D03*
X95100000Y-49200000D03*
X97200000Y-70400000D03*
X84000000Y-43600000D03*
X43400000Y-57300000D03*
X60400000Y-74800000D03*
X40451000Y-101408000D03*
X42499000Y-98072980D03*
X68700000Y-61400000D03*
X99200000Y-57449020D03*
X103800000Y-57449020D03*
X84550000Y-75200000D03*
X88800000Y-74700000D03*
X73600000Y-77200000D03*
X62600000Y-51100000D03*
X41600000Y-60300000D03*
X41700000Y-58900000D03*
X36000000Y-60600000D03*
X59800000Y-101575000D03*
X60975000Y-101550000D03*
X65300000Y-93600000D03*
X102300000Y-67300000D03*
X62200000Y-101550000D03*
X60975000Y-95400000D03*
X59700000Y-95350000D03*
X62250000Y-95400000D03*
X81615000Y-89740000D03*
X76662000Y-85152000D03*
X78186000Y-83755000D03*
X78186000Y-85152000D03*
X76662000Y-83755000D03*
X75265000Y-83755000D03*
X75265000Y-85152000D03*
X84155000Y-93280000D03*
X99141000Y-82866000D03*
D31*
X103600000Y-49700000D03*
X89700000Y-50900000D03*
X28900000Y-104700000D03*
X88700000Y-94300000D03*
X101700000Y-91200000D03*
X104400000Y-91300000D03*
X104200000Y-99800000D03*
X104200000Y-98300000D03*
X104200000Y-96900000D03*
X102900000Y-92700000D03*
D30*
X81400000Y-63500000D03*
X69000000Y-83450000D03*
X78400000Y-82800000D03*
X90600000Y-87000000D03*
X80800000Y-88600000D03*
D31*
X46563000Y-89597000D03*
X42499000Y-89597000D03*
X89200000Y-70300000D03*
X89100000Y-63200000D03*
X99800000Y-71000000D03*
X104900000Y-71000000D03*
X57950000Y-52600000D03*
X102000000Y-40699980D03*
X99200000Y-48300000D03*
X31850000Y-61050000D03*
X41800000Y-51450000D03*
X96250000Y-77000000D03*
D30*
X85300000Y-61600000D03*
D31*
X87300000Y-88900000D03*
X89500000Y-88900000D03*
X90902000Y-83374000D03*
D30*
X90400000Y-80300000D03*
D31*
X81675000Y-72995000D03*
X73600000Y-75200000D03*
D30*
X61500000Y-52800000D03*
X75200000Y-67800000D03*
X67700000Y-67800000D03*
X67400000Y-76700000D03*
X62100000Y-92300000D03*
X72500000Y-89000000D03*
X37165000Y-88962000D03*
X31831000Y-89724000D03*
X39700000Y-55000000D03*
X95800000Y-48500000D03*
X92800000Y-31200000D03*
X91000000Y-27578600D03*
X101100000Y-76500000D03*
X32300000Y-51050000D03*
X88100000Y-68600000D03*
X99900000Y-59300000D03*
X99600000Y-60800000D03*
X97600000Y-59300000D03*
X102700000Y-60100000D03*
D31*
X93500000Y-66800000D03*
X93000000Y-78300000D03*
D30*
X71500000Y-48600000D03*
X69600000Y-51400000D03*
X92270000Y-29102600D03*
X72800000Y-48100000D03*
X70900000Y-51400000D03*
X93540000Y-27578600D03*
X58800000Y-80100000D03*
X71200000Y-79800000D03*
X58800000Y-79100000D03*
X68700000Y-79100000D03*
X64800000Y-74400000D03*
X64900000Y-80900000D03*
X78600000Y-81000000D03*
X68000000Y-80500000D03*
X68100000Y-74300000D03*
X78500000Y-80000000D03*
X46000000Y-61500000D03*
X94700000Y-78500000D03*
X90600000Y-79200000D03*
X90400000Y-77400000D03*
X89130000Y-72810000D03*
X87600000Y-74700000D03*
X84000000Y-58150000D03*
X84800000Y-77400000D03*
X78900000Y-77400000D03*
X63600000Y-73900000D03*
X66200000Y-73900000D03*
X64600000Y-52800000D03*
X83400000Y-73600000D03*
X76450000Y-74300000D03*
X84200000Y-72200000D03*
X93000000Y-41550000D03*
X94700000Y-41500000D03*
D32*
X138424000Y-33726000D02*
X138400000Y-33750000D01*
X140964000Y-33714000D02*
X141000000Y-33750000D01*
X76200000Y-67600000D02*
X75600000Y-67000000D01*
X75600000Y-67000000D02*
X74600000Y-67000000D01*
X86000000Y-67800000D02*
X89900000Y-67800000D01*
X89900000Y-67800000D02*
X90000000Y-67900000D01*
X80800000Y-67700000D02*
X85900000Y-67700000D01*
X85900000Y-67700000D02*
X86000000Y-67800000D01*
X80800000Y-67700000D02*
X78500000Y-67700000D01*
X78400000Y-67600000D02*
X78500000Y-67700000D01*
X76200000Y-67600000D02*
X78400000Y-67600000D01*
X74700000Y-56400000D02*
X73000000Y-56400000D01*
X76100000Y-56400000D02*
X74700000Y-56400000D01*
X76200000Y-56300000D02*
X76100000Y-56400000D01*
X77600000Y-56300000D02*
X80100000Y-56300000D01*
X80100000Y-56300000D02*
X82700000Y-56300000D01*
X77600000Y-56300000D02*
X76200000Y-56300000D01*
X93500000Y-29100000D02*
X93537400Y-29100000D01*
X93537400Y-29100000D02*
X93540000Y-29102600D01*
X89700000Y-27600000D02*
X89708600Y-27600000D01*
X89708600Y-27600000D02*
X89730000Y-27578600D01*
X70950000Y-47650000D02*
X71950000Y-47650000D01*
X79946372Y-48075992D02*
X81403366Y-46618998D01*
X73775992Y-48075992D02*
X79946372Y-48075992D01*
X73100000Y-47400000D02*
X73775992Y-48075992D01*
X72200000Y-47400000D02*
X73100000Y-47400000D01*
X71950000Y-47650000D02*
X72200000Y-47400000D01*
X80419820Y-49218998D02*
X80981002Y-49218998D01*
X80981002Y-49218998D02*
X81300000Y-48900000D01*
X81557816Y-48081002D02*
X80419820Y-49218998D01*
X81557816Y-48081002D02*
X86038818Y-43600000D01*
X86500000Y-43600000D02*
X86038818Y-43600000D01*
X80419820Y-49218998D02*
X80500000Y-49218998D01*
X72000000Y-49281002D02*
X72718998Y-49281002D01*
X93542184Y-49218998D02*
X94680180Y-48081002D01*
X72781002Y-49218998D02*
X80500000Y-49218998D01*
X80500000Y-49218998D02*
X93542184Y-49218998D01*
X72718998Y-49281002D02*
X72781002Y-49218998D01*
X95100000Y-49200000D02*
X94800000Y-49200000D01*
X94800000Y-49200000D02*
X94018998Y-49981002D01*
X96700000Y-48400000D02*
X96700000Y-48500000D01*
X96700000Y-48500000D02*
X96800000Y-48600000D01*
X94700000Y-48081002D02*
X95118998Y-48081002D01*
X96100000Y-47800000D02*
X96700000Y-48400000D01*
X95400000Y-47800000D02*
X96100000Y-47800000D01*
X95118998Y-48081002D02*
X95400000Y-47800000D01*
X72800000Y-50438818D02*
X73257816Y-49981002D01*
X72800000Y-50500000D02*
X72800000Y-50438818D01*
X69500000Y-50500000D02*
X72800000Y-50500000D01*
X69400000Y-50400000D02*
X69500000Y-50500000D01*
X44169409Y-58069409D02*
X51957816Y-50281002D01*
X51957816Y-50281002D02*
X69281002Y-50281002D01*
X69281002Y-50281002D02*
X69400000Y-50400000D01*
X73257816Y-49981002D02*
X94018998Y-49981002D01*
X70300000Y-49300000D02*
X70300000Y-48300000D01*
X81403366Y-46618998D02*
X84000000Y-44022364D01*
X84000000Y-44022364D02*
X84000000Y-43600000D01*
X70300000Y-48300000D02*
X70950000Y-47650000D01*
X72000000Y-49300000D02*
X72000000Y-49281002D01*
X70800000Y-49300000D02*
X72000000Y-49300000D01*
X43630591Y-57530591D02*
X51642184Y-49518998D01*
X68100000Y-49518998D02*
X51642184Y-49518998D01*
X68318998Y-49300000D02*
X68100000Y-49518998D01*
X70800000Y-49300000D02*
X70300000Y-49300000D01*
X70300000Y-49300000D02*
X68318998Y-49300000D01*
X43630591Y-57530591D02*
X43400000Y-57300000D01*
X44169409Y-58069409D02*
X44400000Y-58300000D01*
X40500000Y-101400000D02*
X40459000Y-101400000D01*
X40459000Y-101400000D02*
X40451000Y-101408000D01*
X42500000Y-98100000D02*
X42500000Y-98073980D01*
X42500000Y-98073980D02*
X42499000Y-98072980D01*
X68700000Y-61400000D02*
X71200000Y-61400000D01*
X99200000Y-57449020D02*
X99200000Y-57500000D01*
X103800000Y-57449020D02*
X103800000Y-57500000D01*
X42138818Y-60100000D02*
X44169409Y-58069409D01*
X41800000Y-60100000D02*
X42138818Y-60100000D01*
X41600000Y-60300000D02*
X41800000Y-60100000D01*
X42261182Y-58900000D02*
X41700000Y-58900000D01*
X43630591Y-57530591D02*
X42261182Y-58900000D01*
X36000000Y-60600000D02*
X33130000Y-63470000D01*
X33130000Y-63470000D02*
X30080000Y-63470000D01*
X59800000Y-101575000D02*
X59800000Y-101625000D01*
X102400000Y-67200000D02*
X102400000Y-66600000D01*
X102300000Y-67300000D02*
X102400000Y-67200000D01*
X99830000Y-65190000D02*
X99830000Y-65430000D01*
X99830000Y-65430000D02*
X101000000Y-66600000D01*
X103500000Y-66600000D02*
X104910000Y-65190000D01*
X101000000Y-66600000D02*
X102400000Y-66600000D01*
X102400000Y-66600000D02*
X103500000Y-66600000D01*
X99830000Y-65190000D02*
X99830000Y-64730000D01*
X33600000Y-82800000D02*
X35707000Y-82800000D01*
X35707000Y-82800000D02*
X36403000Y-82104000D01*
X81615000Y-89740000D02*
X81615000Y-89724000D01*
X86600000Y-63450000D02*
X86600000Y-65180000D01*
X86600000Y-65180000D02*
X86590000Y-65190000D01*
X81450000Y-63450000D02*
X86600000Y-63450000D01*
X81400000Y-63500000D02*
X81450000Y-63450000D01*
X69650000Y-82800000D02*
X78400000Y-82800000D01*
X69000000Y-83450000D02*
X69650000Y-82800000D01*
X82400000Y-87000000D02*
X90600000Y-87000000D01*
X80800000Y-88600000D02*
X82400000Y-87000000D01*
X86450000Y-75200000D02*
X86450000Y-72950000D01*
X86450000Y-72950000D02*
X86590000Y-72810000D01*
X91670000Y-72810000D02*
X91670000Y-71770000D01*
X91670000Y-71770000D02*
X91100000Y-71200000D01*
X91100000Y-71200000D02*
X88200000Y-71200000D01*
X88200000Y-71200000D02*
X86590000Y-72810000D01*
D33*
X42499000Y-89597000D02*
X46563000Y-89597000D01*
X31069000Y-95947000D02*
X35006000Y-95947000D01*
X41356000Y-89597000D02*
X42499000Y-89597000D01*
X35006000Y-95947000D02*
X41356000Y-89597000D01*
X97290000Y-72810000D02*
X97290000Y-71200000D01*
X97200000Y-71300000D02*
X97200000Y-71200000D01*
X97200000Y-71290000D02*
X97200000Y-71300000D01*
X97290000Y-71200000D02*
X97200000Y-71290000D01*
X94980000Y-70500000D02*
X95700000Y-70500000D01*
X95700000Y-70500000D02*
X96400000Y-71200000D01*
X96400000Y-71200000D02*
X97200000Y-71200000D01*
X89400000Y-70500000D02*
X94980000Y-70500000D01*
X89200000Y-70300000D02*
X89400000Y-70500000D01*
X99600000Y-71200000D02*
X99800000Y-71000000D01*
X97200000Y-71200000D02*
X99600000Y-71200000D01*
X89130000Y-65190000D02*
X91670000Y-65190000D01*
X89130000Y-63230000D02*
X89130000Y-65190000D01*
X89100000Y-63200000D02*
X89130000Y-63230000D01*
X102370000Y-72810000D02*
X102370000Y-71000000D01*
X102300000Y-71070000D02*
X102300000Y-71000000D01*
X102370000Y-71000000D02*
X102300000Y-71070000D01*
X99800000Y-71000000D02*
X102300000Y-71000000D01*
X102300000Y-71000000D02*
X104900000Y-71000000D01*
X57950000Y-52600000D02*
X58000000Y-52600000D01*
X99100000Y-48300000D02*
X99200000Y-48300000D01*
X102000000Y-45400000D02*
X99100000Y-48300000D01*
X102000000Y-40699980D02*
X102000000Y-45400000D01*
X31850000Y-61050000D02*
X31900000Y-61000000D01*
X41800000Y-51450000D02*
X41800000Y-51400000D01*
X63600000Y-76750000D02*
X60450000Y-76750000D01*
X60450000Y-76750000D02*
X60400000Y-76800000D01*
X96250000Y-75100000D02*
X96250000Y-77000000D01*
X86600000Y-61550000D02*
X85350000Y-61550000D01*
X85350000Y-61550000D02*
X85300000Y-61600000D01*
X87300000Y-88900000D02*
X89500000Y-88900000D01*
X90900000Y-83400000D02*
X90900000Y-83376000D01*
X90900000Y-83376000D02*
X90902000Y-83374000D01*
X81680000Y-73000000D02*
X81700000Y-73000000D01*
X81675000Y-72995000D02*
X81680000Y-73000000D01*
X62750000Y-52800000D02*
X61500000Y-52800000D01*
X67350000Y-76750000D02*
X66200000Y-76750000D01*
X66200000Y-76750000D02*
X63600000Y-76750000D01*
X75200000Y-67800000D02*
X67700000Y-67800000D01*
X67400000Y-76700000D02*
X67350000Y-76750000D01*
D32*
X69200000Y-92300000D02*
X62100000Y-92300000D01*
X72500000Y-89000000D02*
X69200000Y-92300000D01*
X34879000Y-88962000D02*
X37165000Y-88962000D01*
X34117000Y-89724000D02*
X34879000Y-88962000D01*
X31831000Y-89724000D02*
X34117000Y-89724000D01*
X37700000Y-58390000D02*
X37700000Y-57700000D01*
X37700000Y-57700000D02*
X38900000Y-56500000D01*
X38900000Y-55800000D02*
X39700000Y-55000000D01*
X38900000Y-56500000D02*
X38900000Y-55800000D01*
X95800000Y-48500000D02*
X94800000Y-48500000D01*
X93700000Y-49600000D02*
X73100000Y-49600000D01*
X94800000Y-48500000D02*
X93700000Y-49600000D01*
X72900000Y-49800000D02*
X73100000Y-49600000D01*
X51800000Y-49900000D02*
X68300000Y-49900000D01*
X51800000Y-49900000D02*
X42080000Y-59620000D01*
X40210000Y-59620000D02*
X42080000Y-59620000D01*
X68300000Y-49900000D02*
X68400000Y-49800000D01*
X72900000Y-49800000D02*
X68400000Y-49800000D01*
X91000000Y-27578600D02*
X91000000Y-29400000D01*
X91000000Y-29400000D02*
X92800000Y-31200000D01*
X90800000Y-27778600D02*
X91000000Y-27578600D01*
X101100000Y-75600000D02*
X101500000Y-75200000D01*
X101100000Y-76500000D02*
X101100000Y-75600000D01*
X101500000Y-75200000D02*
X102100000Y-75200000D01*
X103900000Y-75200000D02*
X102100000Y-75200000D01*
X105900000Y-75200000D02*
X105900000Y-73800000D01*
X105900000Y-73800000D02*
X104910000Y-72810000D01*
X99830000Y-72810000D02*
X99830000Y-74930000D01*
X99830000Y-74930000D02*
X100100000Y-75200000D01*
X37700000Y-60930000D02*
X41130000Y-60930000D01*
X58824000Y-59600000D02*
X61104000Y-57320000D01*
X44900000Y-59600000D02*
X58824000Y-59600000D01*
X43100000Y-61400000D02*
X44900000Y-59600000D01*
X41600000Y-61400000D02*
X43100000Y-61400000D01*
X41130000Y-60930000D02*
X41600000Y-61400000D01*
X29500000Y-64650000D02*
X33980000Y-64650000D01*
X27510000Y-62660000D02*
X29500000Y-64650000D01*
X33980000Y-64650000D02*
X37700000Y-60930000D01*
X27510000Y-62160000D02*
X27510000Y-62660000D01*
X40210000Y-64700000D02*
X41600000Y-64700000D01*
X63644000Y-59356000D02*
X63644000Y-57320000D01*
X62400000Y-60600000D02*
X63644000Y-59356000D01*
X45700000Y-60600000D02*
X62400000Y-60600000D01*
X41600000Y-64700000D02*
X45700000Y-60600000D01*
X30080000Y-68550000D02*
X32100000Y-68550000D01*
X35950000Y-64700000D02*
X40210000Y-64700000D01*
X32100000Y-68550000D02*
X35950000Y-64700000D01*
X32300000Y-58950000D02*
X30320000Y-60930000D01*
X32300000Y-51050000D02*
X32300000Y-58950000D01*
X30320000Y-60930000D02*
X30080000Y-60930000D01*
X73804000Y-70020000D02*
X73804000Y-69996000D01*
X73804000Y-69996000D02*
X75200000Y-68600000D01*
X75200000Y-68600000D02*
X88100000Y-68600000D01*
X104650000Y-62800000D02*
X104650000Y-61050000D01*
X57704000Y-65800000D02*
X53484000Y-70020000D01*
X72883546Y-65800000D02*
X57704000Y-65800000D01*
X79864548Y-58818998D02*
X72883546Y-65800000D01*
X96200000Y-58818998D02*
X79864548Y-58818998D01*
X96800000Y-58218998D02*
X96200000Y-58818998D01*
X98257816Y-58218998D02*
X96800000Y-58218998D01*
X98638818Y-58600000D02*
X98257816Y-58218998D01*
X102200000Y-58600000D02*
X98638818Y-58600000D01*
X104650000Y-61050000D02*
X102200000Y-58600000D01*
X102370000Y-65190000D02*
X102370000Y-63180000D01*
X102370000Y-63180000D02*
X102750000Y-62800000D01*
X99550000Y-62100000D02*
X99550000Y-60850000D01*
X59844000Y-66200000D02*
X56024000Y-70020000D01*
X73022364Y-66200000D02*
X59844000Y-66200000D01*
X80022364Y-59200000D02*
X73022364Y-66200000D01*
X96400000Y-59200000D02*
X80022364Y-59200000D01*
X97000000Y-58600000D02*
X96400000Y-59200000D01*
X98100000Y-58600000D02*
X97000000Y-58600000D01*
X98900000Y-59400000D02*
X98100000Y-58600000D01*
X99800000Y-59400000D02*
X98900000Y-59400000D01*
X99900000Y-59300000D02*
X99800000Y-59400000D01*
X99550000Y-60850000D02*
X99600000Y-60800000D01*
X97290000Y-65190000D02*
X97290000Y-62460000D01*
X97290000Y-62460000D02*
X97650000Y-62100000D01*
X58564000Y-70020000D02*
X58564000Y-69436000D01*
X58564000Y-69436000D02*
X61400000Y-66600000D01*
X61400000Y-66600000D02*
X73161182Y-66600000D01*
X73161182Y-66600000D02*
X80161182Y-59600000D01*
X80161182Y-59600000D02*
X97300000Y-59600000D01*
X97300000Y-59600000D02*
X97600000Y-59300000D01*
X61104000Y-68796000D02*
X61104000Y-70020000D01*
X62900000Y-67000000D02*
X61104000Y-68796000D01*
X73300000Y-67000000D02*
X62900000Y-67000000D01*
X80300000Y-60000000D02*
X73300000Y-67000000D01*
X102600000Y-60000000D02*
X80300000Y-60000000D01*
X102700000Y-60100000D02*
X102600000Y-60000000D01*
D33*
X30307000Y-79691000D02*
X30307000Y-79493000D01*
X30307000Y-79493000D02*
X31600000Y-78200000D01*
X93500000Y-66800000D02*
X94210000Y-66090000D01*
X92900000Y-78200000D02*
X93000000Y-78300000D01*
X31600000Y-78200000D02*
X92900000Y-78200000D01*
X94210000Y-66090000D02*
X94210000Y-65190000D01*
X30600000Y-82800000D02*
X30600000Y-79984000D01*
X30600000Y-79984000D02*
X30307000Y-79691000D01*
X28950000Y-82800000D02*
X30600000Y-82800000D01*
D32*
X71500000Y-48600000D02*
X72200000Y-48600000D01*
X69450000Y-51550000D02*
X69600000Y-51400000D01*
X67600000Y-51550000D02*
X69450000Y-51550000D01*
X80262004Y-48837996D02*
X81400000Y-47700000D01*
X72437996Y-48837996D02*
X80262004Y-48837996D01*
X72200000Y-48600000D02*
X72437996Y-48837996D01*
X92270000Y-29102600D02*
X92300000Y-29072600D01*
X85800000Y-28000000D02*
X85800000Y-43300000D01*
X87600000Y-26200000D02*
X85800000Y-28000000D01*
X91700000Y-26200000D02*
X87600000Y-26200000D01*
X92270000Y-26770000D02*
X91700000Y-26200000D01*
X92270000Y-29102600D02*
X92270000Y-26770000D01*
X81400000Y-47700000D02*
X85800000Y-43300000D01*
X66000000Y-51350000D02*
X67400000Y-51350000D01*
X72800000Y-48100000D02*
X72943006Y-48100000D01*
X70900000Y-51350000D02*
X70900000Y-51400000D01*
X80104188Y-48456994D02*
X81561182Y-47000000D01*
X73300000Y-48456994D02*
X80104188Y-48456994D01*
X72943006Y-48100000D02*
X73300000Y-48456994D01*
X93500000Y-27538600D02*
X93540000Y-27578600D01*
X85418998Y-43142184D02*
X81561182Y-47000000D01*
X85418998Y-27842184D02*
X85418998Y-43142184D01*
X87461182Y-25800000D02*
X85418998Y-27842184D01*
X92100000Y-25800000D02*
X87461182Y-25800000D01*
X93500000Y-27200000D02*
X92100000Y-25800000D01*
X93500000Y-27538600D02*
X93500000Y-27200000D01*
X70900000Y-51350000D02*
X72400000Y-51350000D01*
X72400000Y-51350000D02*
X72500000Y-51450000D01*
X58800000Y-80100000D02*
X59181002Y-80100000D01*
X59481002Y-79800000D02*
X71200000Y-79800000D01*
X59181002Y-80100000D02*
X59481002Y-79800000D01*
X58800000Y-79100000D02*
X68700000Y-79100000D01*
X78600000Y-81000000D02*
X68500000Y-81000000D01*
X65200000Y-81200000D02*
X64900000Y-80900000D01*
X68300000Y-81200000D02*
X65200000Y-81200000D01*
X68500000Y-81000000D02*
X68300000Y-81200000D01*
X78500000Y-80900000D02*
X78600000Y-81000000D01*
X63650000Y-71575000D02*
X64275000Y-71575000D01*
X64275000Y-71575000D02*
X64800000Y-72100000D01*
X64800000Y-72100000D02*
X64800000Y-74400000D01*
X64800000Y-74400000D02*
X64350000Y-74850000D01*
X64350000Y-74850000D02*
X63600000Y-74850000D01*
X63600000Y-74850000D02*
X64150000Y-74850000D01*
X68000000Y-80500000D02*
X78000000Y-80500000D01*
X67300000Y-74300000D02*
X68100000Y-74300000D01*
X78000000Y-80500000D02*
X78500000Y-80000000D01*
X66200000Y-74850000D02*
X66750000Y-74850000D01*
X66750000Y-74850000D02*
X67300000Y-74300000D01*
X67300000Y-74300000D02*
X67300000Y-72725000D01*
X67300000Y-72725000D02*
X66175000Y-71600000D01*
X66184000Y-58216000D02*
X66184000Y-54780000D01*
X63418998Y-60981002D02*
X66184000Y-58216000D01*
X46518998Y-60981002D02*
X63418998Y-60981002D01*
X46000000Y-61500000D02*
X46518998Y-60981002D01*
X40210000Y-62160000D02*
X43240000Y-62160000D01*
X62400000Y-56024000D02*
X63644000Y-54780000D01*
X62400000Y-58300000D02*
X62400000Y-56024000D01*
X60600000Y-60100000D02*
X62400000Y-58300000D01*
X45300000Y-60100000D02*
X60600000Y-60100000D01*
X43240000Y-62160000D02*
X45300000Y-60100000D01*
X94700000Y-78500000D02*
X94400000Y-78500000D01*
X93700000Y-79200000D02*
X90600000Y-79200000D01*
X94400000Y-78500000D02*
X93700000Y-79200000D01*
X90800000Y-77000000D02*
X94350000Y-77000000D01*
X90400000Y-77400000D02*
X90800000Y-77000000D01*
X89130000Y-73170000D02*
X89130000Y-72810000D01*
X89130000Y-73170000D02*
X87600000Y-74700000D01*
X84800000Y-77400000D02*
X78900000Y-77400000D01*
X63700000Y-73450000D02*
X63700000Y-73800000D01*
X63700000Y-73800000D02*
X63600000Y-73900000D01*
X66200000Y-73900000D02*
X66200000Y-73450000D01*
X64600000Y-52800000D02*
X64650000Y-52800000D01*
X70900000Y-53250000D02*
X70900000Y-53200000D01*
X66000000Y-53250000D02*
X66000000Y-53100000D01*
X66000000Y-53100000D02*
X66500000Y-52600000D01*
X70250000Y-52600000D02*
X70900000Y-53250000D01*
X66500000Y-52600000D02*
X70250000Y-52600000D01*
X66000000Y-53250000D02*
X65100000Y-53250000D01*
X65100000Y-53250000D02*
X64650000Y-52800000D01*
X68700000Y-58250000D02*
X68350000Y-58250000D01*
X68350000Y-58250000D02*
X67400000Y-57300000D01*
X67400000Y-57300000D02*
X67400000Y-53650000D01*
X67400000Y-53650000D02*
X67600000Y-53450000D01*
X68700000Y-58250000D02*
X68700000Y-59400000D01*
X72250000Y-57450000D02*
X72250000Y-55750000D01*
X72500000Y-55500000D02*
X72500000Y-53350000D01*
X72250000Y-55750000D02*
X72500000Y-55500000D01*
X71200000Y-58250000D02*
X71450000Y-58250000D01*
X71450000Y-58250000D02*
X72250000Y-57450000D01*
X71200000Y-58250000D02*
X71200000Y-59400000D01*
X27050000Y-82800000D02*
X27050000Y-85653100D01*
X27050000Y-85653100D02*
X27043100Y-85660000D01*
X94350000Y-75100000D02*
X94350000Y-72950000D01*
X94350000Y-72950000D02*
X94210000Y-72810000D01*
X68700000Y-56350000D02*
X68700000Y-54804000D01*
X68700000Y-54804000D02*
X68724000Y-54780000D01*
X71200000Y-56350000D02*
X71200000Y-54844000D01*
X71200000Y-54844000D02*
X71264000Y-54780000D01*
X71275000Y-54769000D02*
X71264000Y-54780000D01*
X79350000Y-74300000D02*
X82700000Y-74300000D01*
X82700000Y-74300000D02*
X83400000Y-73600000D01*
X77450000Y-74300000D02*
X76450000Y-74300000D01*
X80750000Y-71800000D02*
X80750000Y-70694000D01*
X80750000Y-70694000D02*
X81424000Y-70020000D01*
X82650000Y-71800000D02*
X83800000Y-71800000D01*
X83800000Y-71800000D02*
X84200000Y-72200000D01*
X83964000Y-54780000D02*
X83964000Y-56214000D01*
X83964000Y-56214000D02*
X84000000Y-56250000D01*
X93000000Y-41550000D02*
X93000000Y-41500000D01*
D34*
G36*
X31621226Y-90773818D02*
X32038942Y-90774182D01*
X32339485Y-90650000D01*
X48256189Y-90650000D01*
X48409159Y-90754520D01*
X48667000Y-90806734D01*
X57667000Y-90806734D01*
X57907876Y-90761410D01*
X57950000Y-90734304D01*
X57950000Y-104950000D01*
X30149671Y-104950000D01*
X30149783Y-104949731D01*
X30150217Y-104452450D01*
X30044873Y-104197499D01*
X30307000Y-104249639D01*
X30886230Y-104134423D01*
X31377277Y-103806316D01*
X31577000Y-103507409D01*
X31776723Y-103806316D01*
X32267770Y-104134423D01*
X32847000Y-104249639D01*
X33426230Y-104134423D01*
X33917277Y-103806316D01*
X34117000Y-103507409D01*
X34316723Y-103806316D01*
X34807770Y-104134423D01*
X35387000Y-104249639D01*
X35966230Y-104134423D01*
X36457277Y-103806316D01*
X36785384Y-103315269D01*
X36900600Y-102736039D01*
X36900600Y-102365961D01*
X36785384Y-101786731D01*
X36671267Y-101615942D01*
X39400818Y-101615942D01*
X39560334Y-102002000D01*
X39855446Y-102297628D01*
X40241226Y-102457818D01*
X40658942Y-102458182D01*
X41045000Y-102298666D01*
X41340628Y-102003554D01*
X41500818Y-101617774D01*
X41501182Y-101200058D01*
X41341666Y-100814000D01*
X41046554Y-100518372D01*
X40660774Y-100358182D01*
X40243058Y-100357818D01*
X39857000Y-100517334D01*
X39561372Y-100812446D01*
X39401182Y-101198226D01*
X39400818Y-101615942D01*
X36671267Y-101615942D01*
X36457277Y-101295684D01*
X35966230Y-100967577D01*
X35387000Y-100852361D01*
X34807770Y-100967577D01*
X34316723Y-101295684D01*
X34117000Y-101594591D01*
X33917277Y-101295684D01*
X33426230Y-100967577D01*
X32847000Y-100852361D01*
X32267770Y-100967577D01*
X31776723Y-101295684D01*
X31577000Y-101594591D01*
X31377277Y-101295684D01*
X30886230Y-100967577D01*
X30307000Y-100852361D01*
X30116391Y-100890276D01*
X30149818Y-100809774D01*
X30150182Y-100392058D01*
X29990666Y-100006000D01*
X29934111Y-99949346D01*
X30121550Y-99986630D01*
X32016450Y-99986630D01*
X32590334Y-99872477D01*
X33076849Y-99547399D01*
X33401927Y-99060884D01*
X33516080Y-98487000D01*
X33475089Y-98280922D01*
X41448818Y-98280922D01*
X41608334Y-98666980D01*
X41903446Y-98962608D01*
X42289226Y-99122798D01*
X42706942Y-99123162D01*
X43093000Y-98963646D01*
X43388628Y-98668534D01*
X43548818Y-98282754D01*
X43549182Y-97865038D01*
X43389666Y-97478980D01*
X43094554Y-97183352D01*
X42708774Y-97023162D01*
X42291058Y-97022798D01*
X41905000Y-97182314D01*
X41609372Y-97477426D01*
X41449182Y-97863206D01*
X41448818Y-98280922D01*
X33475089Y-98280922D01*
X33401927Y-97913116D01*
X33076849Y-97426601D01*
X32590334Y-97101523D01*
X32016450Y-96987370D01*
X30121550Y-96987370D01*
X29547666Y-97101523D01*
X29061151Y-97426601D01*
X28736073Y-97913116D01*
X28621920Y-98487000D01*
X28736073Y-99060884D01*
X29061151Y-99547399D01*
X29064997Y-99549969D01*
X28892058Y-99549818D01*
X28506000Y-99709334D01*
X28210372Y-100004446D01*
X28050182Y-100390226D01*
X28050000Y-100599084D01*
X28050000Y-93407000D01*
X28621920Y-93407000D01*
X28736073Y-93980884D01*
X29061151Y-94467399D01*
X29547666Y-94792477D01*
X30121550Y-94906630D01*
X32016450Y-94906630D01*
X32590334Y-94792477D01*
X33076849Y-94467399D01*
X33401927Y-93980884D01*
X33516080Y-93407000D01*
X33401927Y-92833116D01*
X33076849Y-92346601D01*
X32590334Y-92021523D01*
X32016450Y-91907370D01*
X30121550Y-91907370D01*
X29547666Y-92021523D01*
X29061151Y-92346601D01*
X28736073Y-92833116D01*
X28621920Y-93407000D01*
X28050000Y-93407000D01*
X28050000Y-90650000D01*
X31323039Y-90650000D01*
X31621226Y-90773818D01*
X31621226Y-90773818D01*
G37*
X31621226Y-90773818D02*
X32038942Y-90774182D01*
X32339485Y-90650000D01*
X48256189Y-90650000D01*
X48409159Y-90754520D01*
X48667000Y-90806734D01*
X57667000Y-90806734D01*
X57907876Y-90761410D01*
X57950000Y-90734304D01*
X57950000Y-104950000D01*
X30149671Y-104950000D01*
X30149783Y-104949731D01*
X30150217Y-104452450D01*
X30044873Y-104197499D01*
X30307000Y-104249639D01*
X30886230Y-104134423D01*
X31377277Y-103806316D01*
X31577000Y-103507409D01*
X31776723Y-103806316D01*
X32267770Y-104134423D01*
X32847000Y-104249639D01*
X33426230Y-104134423D01*
X33917277Y-103806316D01*
X34117000Y-103507409D01*
X34316723Y-103806316D01*
X34807770Y-104134423D01*
X35387000Y-104249639D01*
X35966230Y-104134423D01*
X36457277Y-103806316D01*
X36785384Y-103315269D01*
X36900600Y-102736039D01*
X36900600Y-102365961D01*
X36785384Y-101786731D01*
X36671267Y-101615942D01*
X39400818Y-101615942D01*
X39560334Y-102002000D01*
X39855446Y-102297628D01*
X40241226Y-102457818D01*
X40658942Y-102458182D01*
X41045000Y-102298666D01*
X41340628Y-102003554D01*
X41500818Y-101617774D01*
X41501182Y-101200058D01*
X41341666Y-100814000D01*
X41046554Y-100518372D01*
X40660774Y-100358182D01*
X40243058Y-100357818D01*
X39857000Y-100517334D01*
X39561372Y-100812446D01*
X39401182Y-101198226D01*
X39400818Y-101615942D01*
X36671267Y-101615942D01*
X36457277Y-101295684D01*
X35966230Y-100967577D01*
X35387000Y-100852361D01*
X34807770Y-100967577D01*
X34316723Y-101295684D01*
X34117000Y-101594591D01*
X33917277Y-101295684D01*
X33426230Y-100967577D01*
X32847000Y-100852361D01*
X32267770Y-100967577D01*
X31776723Y-101295684D01*
X31577000Y-101594591D01*
X31377277Y-101295684D01*
X30886230Y-100967577D01*
X30307000Y-100852361D01*
X30116391Y-100890276D01*
X30149818Y-100809774D01*
X30150182Y-100392058D01*
X29990666Y-100006000D01*
X29934111Y-99949346D01*
X30121550Y-99986630D01*
X32016450Y-99986630D01*
X32590334Y-99872477D01*
X33076849Y-99547399D01*
X33401927Y-99060884D01*
X33516080Y-98487000D01*
X33475089Y-98280922D01*
X41448818Y-98280922D01*
X41608334Y-98666980D01*
X41903446Y-98962608D01*
X42289226Y-99122798D01*
X42706942Y-99123162D01*
X43093000Y-98963646D01*
X43388628Y-98668534D01*
X43548818Y-98282754D01*
X43549182Y-97865038D01*
X43389666Y-97478980D01*
X43094554Y-97183352D01*
X42708774Y-97023162D01*
X42291058Y-97022798D01*
X41905000Y-97182314D01*
X41609372Y-97477426D01*
X41449182Y-97863206D01*
X41448818Y-98280922D01*
X33475089Y-98280922D01*
X33401927Y-97913116D01*
X33076849Y-97426601D01*
X32590334Y-97101523D01*
X32016450Y-96987370D01*
X30121550Y-96987370D01*
X29547666Y-97101523D01*
X29061151Y-97426601D01*
X28736073Y-97913116D01*
X28621920Y-98487000D01*
X28736073Y-99060884D01*
X29061151Y-99547399D01*
X29064997Y-99549969D01*
X28892058Y-99549818D01*
X28506000Y-99709334D01*
X28210372Y-100004446D01*
X28050182Y-100390226D01*
X28050000Y-100599084D01*
X28050000Y-93407000D01*
X28621920Y-93407000D01*
X28736073Y-93980884D01*
X29061151Y-94467399D01*
X29547666Y-94792477D01*
X30121550Y-94906630D01*
X32016450Y-94906630D01*
X32590334Y-94792477D01*
X33076849Y-94467399D01*
X33401927Y-93980884D01*
X33516080Y-93407000D01*
X33401927Y-92833116D01*
X33076849Y-92346601D01*
X32590334Y-92021523D01*
X32016450Y-91907370D01*
X30121550Y-91907370D01*
X29547666Y-92021523D01*
X29061151Y-92346601D01*
X28736073Y-92833116D01*
X28621920Y-93407000D01*
X28050000Y-93407000D01*
X28050000Y-90650000D01*
X31323039Y-90650000D01*
X31621226Y-90773818D01*
D32*
G36*
X57764821Y-79304971D02*
X57873000Y-79566785D01*
X57873000Y-79633562D01*
X57765180Y-79893223D01*
X57764821Y-80304971D01*
X57873000Y-80566785D01*
X57873000Y-89873000D01*
X52617719Y-89873000D01*
X52584890Y-89850569D01*
X52333000Y-89799560D01*
X47797824Y-89799560D01*
X47798214Y-89352421D01*
X47610592Y-88898343D01*
X47263485Y-88550629D01*
X46809734Y-88362215D01*
X46318421Y-88361786D01*
X45864343Y-88549408D01*
X45701467Y-88712000D01*
X43360574Y-88712000D01*
X43199485Y-88550629D01*
X42745734Y-88362215D01*
X42254421Y-88361786D01*
X41800343Y-88549408D01*
X41637467Y-88712000D01*
X41356005Y-88712000D01*
X41356000Y-88711999D01*
X41017325Y-88779367D01*
X40730210Y-88971210D01*
X40730208Y-88971213D01*
X39828421Y-89873000D01*
X37670508Y-89873000D01*
X37750515Y-89839942D01*
X38041919Y-89549046D01*
X38199820Y-89168777D01*
X38200179Y-88757029D01*
X38073978Y-88451598D01*
X38399948Y-88233792D01*
X38721775Y-87752143D01*
X38834786Y-87184000D01*
X38721775Y-86615857D01*
X38399948Y-86134208D01*
X37918299Y-85812381D01*
X37350156Y-85699370D01*
X35455844Y-85699370D01*
X34887701Y-85812381D01*
X34406052Y-86134208D01*
X34084225Y-86615857D01*
X33971214Y-87184000D01*
X34084225Y-87752143D01*
X34406052Y-88233792D01*
X34514842Y-88306483D01*
X34488377Y-88324166D01*
X34340185Y-88423184D01*
X33801370Y-88962000D01*
X32532765Y-88962000D01*
X32418046Y-88847081D01*
X32037777Y-88689180D01*
X31626029Y-88688821D01*
X31245485Y-88846058D01*
X30954081Y-89136954D01*
X30796180Y-89517223D01*
X30795870Y-89873000D01*
X28127000Y-89873000D01*
X28127000Y-86887495D01*
X28427946Y-86587073D01*
X28677306Y-85986547D01*
X28677874Y-85336306D01*
X28429562Y-84735345D01*
X28127000Y-84432255D01*
X28127000Y-83887594D01*
X28135910Y-83901441D01*
X28348110Y-84046431D01*
X28600000Y-84097440D01*
X29300000Y-84097440D01*
X29535317Y-84053162D01*
X29607237Y-84006882D01*
X29635910Y-84051441D01*
X29848110Y-84196431D01*
X30100000Y-84247440D01*
X31100000Y-84247440D01*
X31252158Y-84218809D01*
X31119705Y-84273538D01*
X30659514Y-84732927D01*
X30410154Y-85333453D01*
X30409586Y-85983694D01*
X30657898Y-86584655D01*
X31117287Y-87044846D01*
X31717813Y-87294206D01*
X32368054Y-87294774D01*
X32969015Y-87046462D01*
X33429206Y-86587073D01*
X33678566Y-85986547D01*
X33679134Y-85336306D01*
X33430822Y-84735345D01*
X32971433Y-84275154D01*
X32370907Y-84025794D01*
X31720666Y-84025226D01*
X31416575Y-84150874D01*
X31551441Y-84064090D01*
X31696431Y-83851890D01*
X31747440Y-83600000D01*
X31747440Y-82000000D01*
X32452560Y-82000000D01*
X32452560Y-83600000D01*
X32496838Y-83835317D01*
X32635910Y-84051441D01*
X32848110Y-84196431D01*
X33100000Y-84247440D01*
X34100000Y-84247440D01*
X34335317Y-84203162D01*
X34551441Y-84064090D01*
X34696431Y-83851890D01*
X34747440Y-83600000D01*
X34747440Y-83562000D01*
X35321966Y-83562000D01*
X35455844Y-83588630D01*
X37350156Y-83588630D01*
X37918299Y-83475619D01*
X38399948Y-83153792D01*
X38721775Y-82672143D01*
X38834786Y-82104000D01*
X38721775Y-81535857D01*
X38399948Y-81054208D01*
X37918299Y-80732381D01*
X37350156Y-80619370D01*
X35455844Y-80619370D01*
X34887701Y-80732381D01*
X34406052Y-81054208D01*
X34193983Y-81371592D01*
X34100000Y-81352560D01*
X33100000Y-81352560D01*
X32864683Y-81396838D01*
X32648559Y-81535910D01*
X32503569Y-81748110D01*
X32452560Y-82000000D01*
X31747440Y-82000000D01*
X31703162Y-81764683D01*
X31564090Y-81548559D01*
X31485000Y-81494519D01*
X31485000Y-80758322D01*
X31577000Y-80620634D01*
X31787330Y-80935415D01*
X32273511Y-81260271D01*
X32847000Y-81374345D01*
X33420489Y-81260271D01*
X33906670Y-80935415D01*
X34231526Y-80449234D01*
X34345600Y-79875745D01*
X34345600Y-79506255D01*
X34261807Y-79085000D01*
X57765013Y-79085000D01*
X57764821Y-79304971D01*
X57764821Y-79304971D01*
G37*
X57764821Y-79304971D02*
X57873000Y-79566785D01*
X57873000Y-79633562D01*
X57765180Y-79893223D01*
X57764821Y-80304971D01*
X57873000Y-80566785D01*
X57873000Y-89873000D01*
X52617719Y-89873000D01*
X52584890Y-89850569D01*
X52333000Y-89799560D01*
X47797824Y-89799560D01*
X47798214Y-89352421D01*
X47610592Y-88898343D01*
X47263485Y-88550629D01*
X46809734Y-88362215D01*
X46318421Y-88361786D01*
X45864343Y-88549408D01*
X45701467Y-88712000D01*
X43360574Y-88712000D01*
X43199485Y-88550629D01*
X42745734Y-88362215D01*
X42254421Y-88361786D01*
X41800343Y-88549408D01*
X41637467Y-88712000D01*
X41356005Y-88712000D01*
X41356000Y-88711999D01*
X41017325Y-88779367D01*
X40730210Y-88971210D01*
X40730208Y-88971213D01*
X39828421Y-89873000D01*
X37670508Y-89873000D01*
X37750515Y-89839942D01*
X38041919Y-89549046D01*
X38199820Y-89168777D01*
X38200179Y-88757029D01*
X38073978Y-88451598D01*
X38399948Y-88233792D01*
X38721775Y-87752143D01*
X38834786Y-87184000D01*
X38721775Y-86615857D01*
X38399948Y-86134208D01*
X37918299Y-85812381D01*
X37350156Y-85699370D01*
X35455844Y-85699370D01*
X34887701Y-85812381D01*
X34406052Y-86134208D01*
X34084225Y-86615857D01*
X33971214Y-87184000D01*
X34084225Y-87752143D01*
X34406052Y-88233792D01*
X34514842Y-88306483D01*
X34488377Y-88324166D01*
X34340185Y-88423184D01*
X33801370Y-88962000D01*
X32532765Y-88962000D01*
X32418046Y-88847081D01*
X32037777Y-88689180D01*
X31626029Y-88688821D01*
X31245485Y-88846058D01*
X30954081Y-89136954D01*
X30796180Y-89517223D01*
X30795870Y-89873000D01*
X28127000Y-89873000D01*
X28127000Y-86887495D01*
X28427946Y-86587073D01*
X28677306Y-85986547D01*
X28677874Y-85336306D01*
X28429562Y-84735345D01*
X28127000Y-84432255D01*
X28127000Y-83887594D01*
X28135910Y-83901441D01*
X28348110Y-84046431D01*
X28600000Y-84097440D01*
X29300000Y-84097440D01*
X29535317Y-84053162D01*
X29607237Y-84006882D01*
X29635910Y-84051441D01*
X29848110Y-84196431D01*
X30100000Y-84247440D01*
X31100000Y-84247440D01*
X31252158Y-84218809D01*
X31119705Y-84273538D01*
X30659514Y-84732927D01*
X30410154Y-85333453D01*
X30409586Y-85983694D01*
X30657898Y-86584655D01*
X31117287Y-87044846D01*
X31717813Y-87294206D01*
X32368054Y-87294774D01*
X32969015Y-87046462D01*
X33429206Y-86587073D01*
X33678566Y-85986547D01*
X33679134Y-85336306D01*
X33430822Y-84735345D01*
X32971433Y-84275154D01*
X32370907Y-84025794D01*
X31720666Y-84025226D01*
X31416575Y-84150874D01*
X31551441Y-84064090D01*
X31696431Y-83851890D01*
X31747440Y-83600000D01*
X31747440Y-82000000D01*
X32452560Y-82000000D01*
X32452560Y-83600000D01*
X32496838Y-83835317D01*
X32635910Y-84051441D01*
X32848110Y-84196431D01*
X33100000Y-84247440D01*
X34100000Y-84247440D01*
X34335317Y-84203162D01*
X34551441Y-84064090D01*
X34696431Y-83851890D01*
X34747440Y-83600000D01*
X34747440Y-83562000D01*
X35321966Y-83562000D01*
X35455844Y-83588630D01*
X37350156Y-83588630D01*
X37918299Y-83475619D01*
X38399948Y-83153792D01*
X38721775Y-82672143D01*
X38834786Y-82104000D01*
X38721775Y-81535857D01*
X38399948Y-81054208D01*
X37918299Y-80732381D01*
X37350156Y-80619370D01*
X35455844Y-80619370D01*
X34887701Y-80732381D01*
X34406052Y-81054208D01*
X34193983Y-81371592D01*
X34100000Y-81352560D01*
X33100000Y-81352560D01*
X32864683Y-81396838D01*
X32648559Y-81535910D01*
X32503569Y-81748110D01*
X32452560Y-82000000D01*
X31747440Y-82000000D01*
X31703162Y-81764683D01*
X31564090Y-81548559D01*
X31485000Y-81494519D01*
X31485000Y-80758322D01*
X31577000Y-80620634D01*
X31787330Y-80935415D01*
X32273511Y-81260271D01*
X32847000Y-81374345D01*
X33420489Y-81260271D01*
X33906670Y-80935415D01*
X34231526Y-80449234D01*
X34345600Y-79875745D01*
X34345600Y-79506255D01*
X34261807Y-79085000D01*
X57765013Y-79085000D01*
X57764821Y-79304971D01*
G36*
X89873196Y-27353442D02*
X89872805Y-27801791D01*
X90044019Y-28216160D01*
X90146000Y-28318319D01*
X90146000Y-29400000D01*
X90211007Y-29726812D01*
X90364547Y-29956600D01*
X90396131Y-30003869D01*
X91672929Y-31280667D01*
X91672805Y-31423191D01*
X91844019Y-31837560D01*
X92160772Y-32154867D01*
X92574842Y-32326804D01*
X93023191Y-32327195D01*
X93437560Y-32155981D01*
X93754867Y-31839228D01*
X93926804Y-31425158D01*
X93927195Y-30976809D01*
X93755981Y-30562440D01*
X93439228Y-30245133D01*
X93025158Y-30073196D01*
X92880808Y-30073070D01*
X92878377Y-30070639D01*
X92907560Y-30058581D01*
X93224867Y-29741828D01*
X93396804Y-29327758D01*
X93397195Y-28879409D01*
X93325301Y-28705413D01*
X93763191Y-28705795D01*
X94177560Y-28534581D01*
X94494867Y-28217828D01*
X94666804Y-27803758D01*
X94667195Y-27355409D01*
X94572818Y-27127000D01*
X94873000Y-27127000D01*
X94873000Y-40373151D01*
X94476809Y-40372805D01*
X94062440Y-40544019D01*
X93824907Y-40781137D01*
X93639228Y-40595133D01*
X93225158Y-40423196D01*
X92776809Y-40422805D01*
X92362440Y-40594019D01*
X92045133Y-40910772D01*
X91873196Y-41324842D01*
X91872805Y-41773191D01*
X92044019Y-42187560D01*
X92360772Y-42504867D01*
X92774842Y-42676804D01*
X93223191Y-42677195D01*
X93637560Y-42505981D01*
X93875093Y-42268863D01*
X94060772Y-42454867D01*
X94474842Y-42626804D01*
X94873000Y-42627151D01*
X94873000Y-45873000D01*
X91127000Y-45873000D01*
X91127000Y-32000000D01*
X91116994Y-31950590D01*
X91088553Y-31908965D01*
X91046159Y-31881685D01*
X91000000Y-31873000D01*
X89127000Y-31873000D01*
X89127000Y-27127000D01*
X89967223Y-27127000D01*
X89873196Y-27353442D01*
X89873196Y-27353442D01*
G37*
X89873196Y-27353442D02*
X89872805Y-27801791D01*
X90044019Y-28216160D01*
X90146000Y-28318319D01*
X90146000Y-29400000D01*
X90211007Y-29726812D01*
X90364547Y-29956600D01*
X90396131Y-30003869D01*
X91672929Y-31280667D01*
X91672805Y-31423191D01*
X91844019Y-31837560D01*
X92160772Y-32154867D01*
X92574842Y-32326804D01*
X93023191Y-32327195D01*
X93437560Y-32155981D01*
X93754867Y-31839228D01*
X93926804Y-31425158D01*
X93927195Y-30976809D01*
X93755981Y-30562440D01*
X93439228Y-30245133D01*
X93025158Y-30073196D01*
X92880808Y-30073070D01*
X92878377Y-30070639D01*
X92907560Y-30058581D01*
X93224867Y-29741828D01*
X93396804Y-29327758D01*
X93397195Y-28879409D01*
X93325301Y-28705413D01*
X93763191Y-28705795D01*
X94177560Y-28534581D01*
X94494867Y-28217828D01*
X94666804Y-27803758D01*
X94667195Y-27355409D01*
X94572818Y-27127000D01*
X94873000Y-27127000D01*
X94873000Y-40373151D01*
X94476809Y-40372805D01*
X94062440Y-40544019D01*
X93824907Y-40781137D01*
X93639228Y-40595133D01*
X93225158Y-40423196D01*
X92776809Y-40422805D01*
X92362440Y-40594019D01*
X92045133Y-40910772D01*
X91873196Y-41324842D01*
X91872805Y-41773191D01*
X92044019Y-42187560D01*
X92360772Y-42504867D01*
X92774842Y-42676804D01*
X93223191Y-42677195D01*
X93637560Y-42505981D01*
X93875093Y-42268863D01*
X94060772Y-42454867D01*
X94474842Y-42626804D01*
X94873000Y-42627151D01*
X94873000Y-45873000D01*
X91127000Y-45873000D01*
X91127000Y-32000000D01*
X91116994Y-31950590D01*
X91088553Y-31908965D01*
X91046159Y-31881685D01*
X91000000Y-31873000D01*
X89127000Y-31873000D01*
X89127000Y-27127000D01*
X89967223Y-27127000D01*
X89873196Y-27353442D01*
M02*
