G04 #@! TF.FileFunction,Paste,Top*
%FSLAX46Y46*%
G04 Gerber Fmt 4.6, Leading zero omitted, Abs format (unit mm)*
G04 Created by KiCad (PCBNEW 4.0.6) date 06/19/17 01:33:01*
%MOMM*%
%LPD*%
G01*
G04 APERTURE LIST*
%ADD10C,0.150000*%
%ADD11R,1.550000X0.600000*%
%ADD12R,1.800000X0.640000*%
%ADD13R,1.727000X0.457000*%
%ADD14R,1.000000X2.800000*%
%ADD15R,1.198880X1.198880*%
%ADD16R,2.430000X2.370000*%
%ADD17R,4.130000X2.370000*%
%ADD18R,0.400000X1.200000*%
%ADD19R,4.000500X2.400300*%
%ADD20R,1.800860X2.499360*%
%ADD21R,0.508000X1.143000*%
%ADD22R,1.000000X1.250000*%
%ADD23R,1.250000X1.000000*%
%ADD24R,0.700000X1.300000*%
%ADD25R,1.524000X2.032000*%
%ADD26R,1.300000X0.700000*%
%ADD27R,1.700000X0.900000*%
%ADD28R,3.200000X1.000000*%
%ADD29R,2.500000X1.000000*%
%ADD30R,2.999740X4.900000*%
%ADD31R,2.499360X3.299460*%
%ADD32R,0.600000X0.420000*%
%ADD33R,0.736600X1.143000*%
%ADD34C,1.270000*%
%ADD35R,3.749040X2.550160*%
%ADD36R,1.000000X2.500000*%
%ADD37R,0.900000X1.700000*%
%ADD38C,2.000000*%
%ADD39R,0.900000X0.800000*%
%ADD40R,0.900000X2.500000*%
G04 APERTURE END LIST*
D10*
D11*
X127109000Y-95693000D03*
X127109000Y-94423000D03*
X127109000Y-93153000D03*
X127109000Y-91883000D03*
X121709000Y-91883000D03*
X121709000Y-93153000D03*
X121709000Y-94423000D03*
X121709000Y-95693000D03*
D12*
X115500000Y-72995000D03*
X115500000Y-74265000D03*
X115500000Y-75535000D03*
X115500000Y-76805000D03*
X122900000Y-76805000D03*
X122900000Y-75535000D03*
X122900000Y-74265000D03*
X122900000Y-72995000D03*
D13*
X125754000Y-89475000D03*
X125754000Y-88825000D03*
X125754000Y-88175000D03*
X125754000Y-87525000D03*
X123646000Y-87525000D03*
X123646000Y-88175000D03*
X123646000Y-88825000D03*
X123646000Y-89475000D03*
D14*
X55000000Y-66000000D03*
X57500000Y-66000000D03*
X53000000Y-66000000D03*
X50500000Y-66000000D03*
D15*
X132800000Y-56350980D03*
X132800000Y-58449020D03*
X129300000Y-56350980D03*
X129300000Y-58449020D03*
D16*
X133000000Y-83380000D03*
X133000000Y-89620000D03*
D17*
X139200000Y-83280000D03*
X139200000Y-89520000D03*
D18*
X105225000Y-88050000D03*
X104575000Y-88050000D03*
X103925000Y-88050000D03*
X103275000Y-88050000D03*
X103275000Y-92250000D03*
X103925000Y-92250000D03*
X104575000Y-92250000D03*
X105225000Y-92250000D03*
D19*
X111700500Y-98800000D03*
X103699500Y-98800000D03*
D20*
X67005000Y-94837020D03*
X67005000Y-98834980D03*
X82499000Y-94075020D03*
X82499000Y-98072980D03*
D21*
X76022000Y-93153000D03*
X77292000Y-93153000D03*
X78562000Y-93153000D03*
X79832000Y-93153000D03*
X79832000Y-99503000D03*
X78562000Y-99503000D03*
X77292000Y-99503000D03*
X76022000Y-99503000D03*
D22*
X142400000Y-75000000D03*
X144400000Y-75000000D03*
X139800000Y-75000000D03*
X137800000Y-75000000D03*
D23*
X85150000Y-61550000D03*
X85150000Y-59550000D03*
D24*
X138850000Y-62900000D03*
X136950000Y-62900000D03*
X143050000Y-62900000D03*
X144950000Y-62900000D03*
D25*
X144910000Y-65190000D03*
X142370000Y-65190000D03*
X139830000Y-65190000D03*
X137290000Y-65190000D03*
X137290000Y-72810000D03*
X139830000Y-72810000D03*
X142370000Y-72810000D03*
X144910000Y-72810000D03*
D23*
X128900000Y-92300000D03*
X128900000Y-94300000D03*
D22*
X80451000Y-101408000D03*
X78451000Y-101408000D03*
D23*
X119583000Y-91740000D03*
X119583000Y-89740000D03*
D22*
X129500000Y-88800000D03*
X127500000Y-88800000D03*
D26*
X129300000Y-53150000D03*
X129300000Y-55050000D03*
X132800000Y-53150000D03*
X132800000Y-55050000D03*
X121700000Y-89850000D03*
X121700000Y-87950000D03*
X109000000Y-81550000D03*
X109000000Y-83450000D03*
D24*
X108500000Y-89350000D03*
X106600000Y-89350000D03*
X106600000Y-91200000D03*
X108500000Y-91200000D03*
X100250000Y-92225000D03*
X102150000Y-92225000D03*
D26*
X101549000Y-88647000D03*
X101549000Y-90547000D03*
D24*
X130050000Y-61800000D03*
X128150000Y-61800000D03*
X76469000Y-90486000D03*
X78369000Y-90486000D03*
D27*
X109000000Y-84550000D03*
X109000000Y-87450000D03*
D28*
X116662000Y-93205000D03*
X116662000Y-87005000D03*
D29*
X80467000Y-86398000D03*
X80467000Y-83398000D03*
D30*
X132127000Y-98119000D03*
X141327000Y-98319000D03*
D31*
X115798940Y-100100000D03*
X122601060Y-100100000D03*
D32*
X128750000Y-76550000D03*
X128750000Y-75250000D03*
X126850000Y-76550000D03*
X128750000Y-75900000D03*
X126850000Y-75250000D03*
D26*
X113600000Y-72150000D03*
X113600000Y-74050000D03*
D23*
X113600000Y-75200000D03*
X113600000Y-77200000D03*
D26*
X129100000Y-77950000D03*
X129100000Y-79850000D03*
D22*
X117200000Y-104900000D03*
X119200000Y-104900000D03*
D33*
X133540000Y-27578600D03*
X133540000Y-29102600D03*
X132270000Y-27578600D03*
X132270000Y-29102600D03*
X131000000Y-27578600D03*
X131000000Y-29102600D03*
X129730000Y-27578600D03*
X129730000Y-29102600D03*
X128460000Y-27578600D03*
X128460000Y-29102600D03*
D34*
X136130800Y-22473200D03*
X125869200Y-22473200D03*
X136130800Y-24733800D03*
X125869200Y-24733800D03*
D26*
X128875000Y-97600000D03*
X128875000Y-95700000D03*
D24*
X120650000Y-104900000D03*
X122550000Y-104900000D03*
D23*
X103600000Y-74600000D03*
X103600000Y-76600000D03*
X106200000Y-76600000D03*
X106200000Y-74600000D03*
D22*
X102600000Y-52800000D03*
X104600000Y-52800000D03*
X102600000Y-51100000D03*
X104600000Y-51100000D03*
D23*
X122050000Y-83900000D03*
X122050000Y-81900000D03*
X127325000Y-81900000D03*
X127325000Y-83900000D03*
D35*
X142000000Y-40699980D03*
X142000000Y-46100020D03*
D23*
X139000000Y-43500000D03*
X139000000Y-41500000D03*
X137000000Y-43500000D03*
X137000000Y-41500000D03*
D26*
X103700000Y-71550000D03*
X103700000Y-73450000D03*
X106200000Y-71550000D03*
X106200000Y-73450000D03*
X123625000Y-84700000D03*
X123625000Y-86600000D03*
X125750000Y-84700000D03*
X125750000Y-86600000D03*
X123625000Y-81850000D03*
X123625000Y-83750000D03*
X125750000Y-81850000D03*
X125750000Y-83750000D03*
D24*
X79150000Y-88125000D03*
X81050000Y-88125000D03*
D23*
X101800000Y-74600000D03*
X101800000Y-76600000D03*
D22*
X131800000Y-44600000D03*
X129800000Y-44600000D03*
D23*
X134700000Y-41500000D03*
X134700000Y-43500000D03*
D26*
X133000000Y-43450000D03*
X133000000Y-41550000D03*
D24*
X97950000Y-52600000D03*
X96050000Y-52600000D03*
X47050000Y-55500000D03*
X48950000Y-55500000D03*
X49950000Y-55500000D03*
X51850000Y-55500000D03*
D36*
X70029000Y-89724000D03*
X67029000Y-89724000D03*
D23*
X49400000Y-52000000D03*
X49400000Y-54000000D03*
D37*
X69217000Y-82358000D03*
X66317000Y-82358000D03*
D26*
X73900000Y-98400000D03*
X73900000Y-96500000D03*
D38*
X35600000Y-62842830D03*
X35600000Y-68354630D03*
D22*
X83250000Y-52700000D03*
X81250000Y-52700000D03*
D23*
X81600000Y-55450000D03*
X81600000Y-57450000D03*
X73500000Y-62300000D03*
X73500000Y-64300000D03*
X73550000Y-55000000D03*
X73550000Y-57000000D03*
X79600000Y-64100000D03*
X79600000Y-62100000D03*
D39*
X75800000Y-50750000D03*
X75800000Y-52650000D03*
X77800000Y-51700000D03*
D40*
X84800000Y-51550000D03*
X87700000Y-51550000D03*
D24*
X83100000Y-50800000D03*
X81200000Y-50800000D03*
D26*
X73500000Y-59350000D03*
X73500000Y-61250000D03*
X71600000Y-62250000D03*
X71600000Y-64150000D03*
X78650000Y-55500000D03*
X78650000Y-57400000D03*
X93500000Y-71950000D03*
X93500000Y-73850000D03*
X96000000Y-71950000D03*
X96000000Y-73850000D03*
D24*
X77350000Y-60450000D03*
X79250000Y-60450000D03*
D26*
X81350000Y-60850000D03*
X81350000Y-58950000D03*
X87100000Y-59700000D03*
X87100000Y-61600000D03*
D23*
X140600000Y-56500000D03*
X140600000Y-58500000D03*
D26*
X137400000Y-56650000D03*
X137400000Y-58550000D03*
X98600000Y-71950000D03*
X98600000Y-73850000D03*
D24*
X142450000Y-60700000D03*
X144350000Y-60700000D03*
M02*
