G04 #@! TF.FileFunction,Soldermask,Bot*
%FSLAX46Y46*%
G04 Gerber Fmt 4.6, Leading zero omitted, Abs format (unit mm)*
G04 Created by KiCad (PCBNEW 4.0.6) date 06/02/17 15:16:19*
%MOMM*%
%LPD*%
G01*
G04 APERTURE LIST*
%ADD10C,0.150000*%
%ADD11C,2.408000*%
%ADD12R,1.107440X1.607820*%
%ADD13R,1.407160X0.906780*%
%ADD14C,3.508000*%
%ADD15R,2.235200X2.540000*%
%ADD16O,2.235200X2.540000*%
%ADD17O,4.008120X2.207260*%
%ADD18R,9.508000X11.508000*%
%ADD19O,2.207260X4.008120*%
%ADD20R,11.008000X6.508000*%
%ADD21R,2.032000X2.540000*%
%ADD22C,2.506980*%
%ADD23R,1.208000X1.808000*%
%ADD24R,1.808000X1.208000*%
%ADD25C,1.778000*%
%ADD26R,1.758000X1.508000*%
%ADD27C,4.572000*%
%ADD28R,1.508000X2.108000*%
%ADD29R,2.208000X2.208000*%
%ADD30R,1.008000X1.608000*%
%ADD31C,1.308000*%
%ADD32R,1.558000X1.908000*%
%ADD33R,3.505200X1.219200*%
%ADD34R,6.553200X3.911600*%
%ADD35C,2.508000*%
%ADD36O,2.208000X2.208000*%
%ADD37R,2.108000X2.108000*%
%ADD38O,2.108000X2.108000*%
G04 APERTURE END LIST*
D10*
D11*
X98564000Y-57320000D03*
X101104000Y-57320000D03*
X103644000Y-57320000D03*
X93484000Y-70020000D03*
X96024000Y-70020000D03*
X98564000Y-70020000D03*
X101104000Y-70020000D03*
X103644000Y-70020000D03*
X106184000Y-70020000D03*
X108724000Y-70020000D03*
X111264000Y-70020000D03*
X113804000Y-70020000D03*
X116344000Y-70020000D03*
X118884000Y-70020000D03*
X121424000Y-70020000D03*
X123964000Y-70020000D03*
X123964000Y-54780000D03*
X121424000Y-54780000D03*
X118884000Y-54780000D03*
X116344000Y-54780000D03*
X113804000Y-54780000D03*
X111264000Y-54780000D03*
X108724000Y-54780000D03*
X106184000Y-54780000D03*
X103644000Y-54780000D03*
X101104000Y-54780000D03*
X98564000Y-54780000D03*
X96024000Y-54780000D03*
X93484000Y-54780000D03*
X90944000Y-54780000D03*
X90944000Y-70020000D03*
D12*
X47949960Y-61649680D03*
X47000000Y-61649680D03*
X46050040Y-61649680D03*
X46050040Y-59150320D03*
X47000000Y-59150320D03*
X47949960Y-59150320D03*
D13*
X49851640Y-60698780D03*
X51548360Y-60698780D03*
X51548360Y-59901220D03*
X49851640Y-59901220D03*
D14*
X60570000Y-69900000D03*
X47430000Y-69900000D03*
D15*
X67767000Y-102551000D03*
D16*
X70307000Y-102551000D03*
X72847000Y-102551000D03*
X75387000Y-102551000D03*
D17*
X76403000Y-84644000D03*
X76403000Y-87184000D03*
X76403000Y-82104000D03*
D18*
X93167000Y-84644000D03*
D17*
X71069000Y-95947000D03*
X71069000Y-98487000D03*
X71069000Y-93407000D03*
D18*
X87833000Y-95947000D03*
D19*
X124409000Y-100011000D03*
X126949000Y-100011000D03*
X121869000Y-100011000D03*
D20*
X124409000Y-82247000D03*
D21*
X137290000Y-65190000D03*
X139830000Y-65190000D03*
X142370000Y-65190000D03*
X144910000Y-65190000D03*
X144910000Y-72810000D03*
X142370000Y-72810000D03*
X139830000Y-72810000D03*
X137290000Y-72810000D03*
X134210000Y-72810000D03*
X131670000Y-72810000D03*
X129130000Y-72810000D03*
X126590000Y-72810000D03*
X126590000Y-65190000D03*
X129130000Y-65190000D03*
X131670000Y-65190000D03*
X134210000Y-65190000D03*
D15*
X67767000Y-79691000D03*
D16*
X70307000Y-79691000D03*
X72847000Y-79691000D03*
D22*
X72044360Y-85660000D03*
X67043100Y-85660000D03*
D23*
X143050000Y-62900000D03*
X144950000Y-62900000D03*
X138850000Y-62900000D03*
X136950000Y-62900000D03*
X136250000Y-77000000D03*
X134350000Y-77000000D03*
X124550000Y-75200000D03*
X126450000Y-75200000D03*
X136250000Y-75100000D03*
X134350000Y-75100000D03*
D24*
X126600000Y-61550000D03*
X126600000Y-63450000D03*
X110900000Y-53250000D03*
X110900000Y-51350000D03*
X106000000Y-53250000D03*
X106000000Y-51350000D03*
X106200000Y-74850000D03*
X106200000Y-76750000D03*
X103600000Y-74850000D03*
X103600000Y-76750000D03*
D25*
X136130800Y-22473200D03*
X125869200Y-22473200D03*
X136130800Y-24733800D03*
X125869200Y-24733800D03*
D26*
X108700000Y-59400000D03*
X108700000Y-61400000D03*
X111200000Y-61400000D03*
X111200000Y-59400000D03*
D23*
X104650000Y-52800000D03*
X102750000Y-52800000D03*
X67050000Y-82800000D03*
X68950000Y-82800000D03*
D24*
X103700000Y-73450000D03*
X103700000Y-71550000D03*
X106200000Y-73450000D03*
X106200000Y-71550000D03*
X108700000Y-58250000D03*
X108700000Y-56350000D03*
X111200000Y-58250000D03*
X111200000Y-56350000D03*
X107600000Y-51550000D03*
X107600000Y-53450000D03*
X112500000Y-51450000D03*
X112500000Y-53350000D03*
D27*
X144000000Y-25000000D03*
D23*
X119350000Y-74300000D03*
X117450000Y-74300000D03*
X122650000Y-71800000D03*
X120750000Y-71800000D03*
D24*
X124000000Y-56250000D03*
X124000000Y-58150000D03*
D27*
X68000000Y-109000000D03*
X144000000Y-109000000D03*
D28*
X73600000Y-82800000D03*
X70600000Y-82800000D03*
D29*
X39050000Y-83200000D03*
D30*
X36400000Y-82300000D03*
D31*
X33800000Y-82300000D03*
D32*
X33975000Y-80500000D03*
X33975000Y-84100000D03*
X35425000Y-80500000D03*
X35425000Y-84100000D03*
D31*
X35600000Y-82300000D03*
D33*
X42610400Y-63731830D03*
X42610400Y-64976430D03*
X42610400Y-66171030D03*
X42610400Y-67465630D03*
D34*
X36181660Y-58679770D03*
X36181660Y-72520230D03*
D35*
X35600000Y-62842830D03*
X35600000Y-68354630D03*
D29*
X71120000Y-54610000D03*
D36*
X71120000Y-57150000D03*
X71120000Y-59690000D03*
D29*
X86360000Y-54610000D03*
D36*
X86360000Y-57150000D03*
D37*
X83300000Y-55100000D03*
D38*
X75680000Y-62720000D03*
X83300000Y-57640000D03*
X75680000Y-60180000D03*
X83300000Y-60180000D03*
X75680000Y-57640000D03*
X83300000Y-62720000D03*
X75680000Y-55100000D03*
D21*
X144910000Y-60610000D03*
X142370000Y-60610000D03*
X139830000Y-60610000D03*
X137290000Y-60610000D03*
X137290000Y-52990000D03*
X139830000Y-52990000D03*
X142370000Y-52990000D03*
X144910000Y-52990000D03*
M02*
