G04 #@! TF.FileFunction,Copper,L1,Top,Signal*
%FSLAX46Y46*%
G04 Gerber Fmt 4.6, Leading zero omitted, Abs format (unit mm)*
G04 Created by KiCad (PCBNEW 4.0.1-stable) date 9/22/2016 9:46:06 AM*
%MOMM*%
G01*
G04 APERTURE LIST*
%ADD10C,0.150000*%
%ADD11C,2.400000*%
%ADD12C,2.500000*%
%ADD13O,3.500120X1.699260*%
%ADD14O,1.699260X3.500120*%
%ADD15R,1.524000X2.032000*%
%ADD16R,2.032000X2.032000*%
%ADD17O,2.032000X2.032000*%
%ADD18R,2.430000X2.370000*%
%ADD19R,4.130000X2.370000*%
%ADD20R,2.500000X2.000000*%
%ADD21R,1.198880X1.198880*%
%ADD22C,5.461000*%
%ADD23R,1.400000X1.400000*%
%ADD24C,1.524000*%
%ADD25C,1.450000*%
%ADD26R,1.550000X0.600000*%
%ADD27R,2.540000X2.540000*%
%ADD28C,2.540000*%
%ADD29R,0.400000X1.200000*%
%ADD30R,1.727200X2.032000*%
%ADD31O,1.727200X2.032000*%
%ADD32R,4.000500X2.400300*%
%ADD33R,2.999740X2.999740*%
%ADD34R,6.350000X1.000000*%
%ADD35C,4.064000*%
%ADD36R,0.800100X0.800100*%
%ADD37R,1.000000X2.500000*%
%ADD38R,2.500000X1.000000*%
%ADD39R,1.800860X2.499360*%
%ADD40C,1.998980*%
%ADD41R,0.508000X1.143000*%
%ADD42R,1.000000X1.250000*%
%ADD43R,1.250000X1.000000*%
%ADD44R,1.143000X0.508000*%
%ADD45R,1.300000X0.700000*%
%ADD46R,0.700000X1.300000*%
%ADD47C,1.900000*%
%ADD48R,1.700000X0.900000*%
%ADD49R,0.900000X1.700000*%
%ADD50R,3.200000X1.000000*%
%ADD51C,1.200000*%
%ADD52C,0.254000*%
%ADD53C,0.500000*%
G04 APERTURE END LIST*
D10*
D11*
X29083000Y-28194000D03*
D12*
X26543000Y-25654000D03*
X31623000Y-25654000D03*
X31623000Y-30734000D03*
X26543000Y-30734000D03*
D11*
X40513000Y-28194000D03*
D12*
X37973000Y-25654000D03*
X43053000Y-25654000D03*
X43053000Y-30734000D03*
X37973000Y-30734000D03*
D13*
X36703000Y-72644000D03*
X36703000Y-75184000D03*
X36703000Y-70104000D03*
X31369000Y-83947000D03*
X31369000Y-86487000D03*
X31369000Y-81407000D03*
D14*
X84709000Y-88011000D03*
X87249000Y-88011000D03*
X82169000Y-88011000D03*
X101473000Y-66548000D03*
X104013000Y-66548000D03*
X98933000Y-66548000D03*
D15*
X41021000Y-39878000D03*
X38481000Y-39878000D03*
X35941000Y-39878000D03*
X33401000Y-39878000D03*
X33401000Y-47498000D03*
X35941000Y-47498000D03*
X38481000Y-47498000D03*
X41021000Y-47498000D03*
D16*
X101473000Y-58166000D03*
D17*
X104013000Y-58166000D03*
D18*
X96139000Y-70286000D03*
X96139000Y-76526000D03*
D19*
X103251000Y-70794000D03*
X103251000Y-77034000D03*
D20*
X78486000Y-88060000D03*
X78486000Y-84660000D03*
D21*
X97536000Y-35974020D03*
X97536000Y-33875980D03*
X102870000Y-35974020D03*
X102870000Y-33875980D03*
D22*
X53086000Y-28702000D03*
X81026000Y-28702000D03*
D23*
X61976000Y-29972000D03*
D24*
X61976000Y-27432000D03*
D25*
X64516000Y-29972000D03*
X64516000Y-27432000D03*
X67056000Y-29972000D03*
X67056000Y-27432000D03*
D24*
X69596000Y-29972000D03*
X69596000Y-27432000D03*
D25*
X72136000Y-29972000D03*
X72136000Y-27432000D03*
D26*
X87409000Y-83693000D03*
X87409000Y-82423000D03*
X87409000Y-81153000D03*
X87409000Y-79883000D03*
X82009000Y-79883000D03*
X82009000Y-81153000D03*
X82009000Y-82423000D03*
X82009000Y-83693000D03*
X84041000Y-74295000D03*
X84041000Y-75565000D03*
X84041000Y-76835000D03*
X84041000Y-78105000D03*
X89441000Y-78105000D03*
X89441000Y-76835000D03*
X89441000Y-75565000D03*
X89441000Y-74295000D03*
D27*
X102743000Y-27559000D03*
D28*
X97663000Y-27559000D03*
X92583000Y-27559000D03*
D29*
X66380000Y-76386000D03*
X65730000Y-76386000D03*
X65080000Y-76386000D03*
X64430000Y-76386000D03*
X64430000Y-80586000D03*
X65080000Y-80586000D03*
X65730000Y-80586000D03*
X66380000Y-80586000D03*
D15*
X27051000Y-60198000D03*
X29591000Y-60198000D03*
X32131000Y-60198000D03*
X34671000Y-60198000D03*
X34671000Y-52578000D03*
X32131000Y-52578000D03*
X29591000Y-52578000D03*
X27051000Y-52578000D03*
D30*
X89789000Y-58166000D03*
D31*
X92329000Y-58166000D03*
X94869000Y-58166000D03*
D32*
X71691500Y-86614000D03*
X63690500Y-86614000D03*
D33*
X90671000Y-85598000D03*
X105671000Y-85598000D03*
D30*
X28067000Y-67691000D03*
D31*
X30607000Y-67691000D03*
X33147000Y-67691000D03*
D34*
X69977000Y-74301000D03*
X69977000Y-68701000D03*
D35*
X29083000Y-39624000D03*
X104013000Y-39624000D03*
D36*
X80584000Y-47228760D03*
X82484000Y-47228760D03*
X81534000Y-45229780D03*
X85029000Y-47228760D03*
X86929000Y-47228760D03*
X85979000Y-45229780D03*
D37*
X30329000Y-77724000D03*
X27329000Y-77724000D03*
D38*
X40767000Y-74398000D03*
X40767000Y-71398000D03*
D39*
X27305000Y-82837020D03*
X27305000Y-86834980D03*
X42799000Y-82075020D03*
X42799000Y-86072980D03*
D40*
X32344360Y-73660000D03*
X27343100Y-73660000D03*
D41*
X36322000Y-81153000D03*
X37592000Y-81153000D03*
X38862000Y-81153000D03*
X40132000Y-81153000D03*
X40132000Y-87503000D03*
X38862000Y-87503000D03*
X37592000Y-87503000D03*
X36322000Y-87503000D03*
D42*
X58277000Y-44958000D03*
X56277000Y-44958000D03*
X33036000Y-50038000D03*
X35036000Y-50038000D03*
X37862000Y-49911000D03*
X39862000Y-49911000D03*
X43196000Y-49911000D03*
X45196000Y-49911000D03*
X47006000Y-49911000D03*
X49006000Y-49911000D03*
D43*
X71628000Y-45069000D03*
X71628000Y-43069000D03*
X71755000Y-38973000D03*
X71755000Y-36973000D03*
X75311000Y-39227000D03*
X75311000Y-37227000D03*
X63119000Y-45736000D03*
X63119000Y-47736000D03*
D42*
X63484000Y-35179000D03*
X61484000Y-35179000D03*
X61833000Y-37465000D03*
X59833000Y-37465000D03*
X66786000Y-47625000D03*
X64786000Y-47625000D03*
D44*
X69850000Y-44323000D03*
X69850000Y-43053000D03*
X69850000Y-41783000D03*
X69850000Y-40513000D03*
X69850000Y-39243000D03*
X69850000Y-37973000D03*
X69850000Y-36703000D03*
X63500000Y-36703000D03*
X63500000Y-37973000D03*
X63500000Y-40513000D03*
X63500000Y-41783000D03*
X63500000Y-43053000D03*
X63500000Y-44323000D03*
X63500000Y-39243000D03*
D45*
X55880000Y-43368000D03*
X55880000Y-41468000D03*
D46*
X32895500Y-37592000D03*
X34795500Y-37592000D03*
X73721000Y-40894000D03*
X71821000Y-40894000D03*
D45*
X73533000Y-39177000D03*
X73533000Y-37277000D03*
X73533000Y-44892000D03*
X73533000Y-42992000D03*
D46*
X38674000Y-37592000D03*
X40574000Y-37592000D03*
X44071500Y-37592000D03*
X45971500Y-37592000D03*
X48897500Y-37592000D03*
X50797500Y-37592000D03*
X59883000Y-39243000D03*
X61783000Y-39243000D03*
D45*
X61341000Y-45654000D03*
X61341000Y-43754000D03*
D46*
X61783000Y-42037000D03*
X59883000Y-42037000D03*
X59375000Y-47117000D03*
X61275000Y-47117000D03*
D15*
X51689000Y-39878000D03*
X49149000Y-39878000D03*
X46609000Y-39878000D03*
X44069000Y-39878000D03*
X44069000Y-47498000D03*
X46609000Y-47498000D03*
X49149000Y-47498000D03*
X51689000Y-47498000D03*
D43*
X92583000Y-77200000D03*
X92583000Y-75200000D03*
D42*
X40751000Y-89408000D03*
X38751000Y-89408000D03*
D43*
X79883000Y-79740000D03*
X79883000Y-77740000D03*
D42*
X93202000Y-71374000D03*
X91202000Y-71374000D03*
D30*
X28067000Y-90551000D03*
D31*
X30607000Y-90551000D03*
X33147000Y-90551000D03*
X35687000Y-90551000D03*
D45*
X99568000Y-33975000D03*
X99568000Y-35875000D03*
X104902000Y-33975000D03*
X104902000Y-35875000D03*
D46*
X88834000Y-42672000D03*
X86934000Y-42672000D03*
X88834000Y-40259000D03*
X86934000Y-40259000D03*
X91252000Y-73406000D03*
X93152000Y-73406000D03*
D45*
X61595000Y-70170000D03*
X61595000Y-72070000D03*
D46*
X30673000Y-63500000D03*
X32573000Y-63500000D03*
X36129000Y-63500000D03*
X34229000Y-63500000D03*
X27117000Y-63500000D03*
X29017000Y-63500000D03*
X69276000Y-76327000D03*
X67376000Y-76327000D03*
X68646000Y-78359000D03*
X70546000Y-78359000D03*
D45*
X61214000Y-82103000D03*
X61214000Y-80203000D03*
X61849000Y-76647000D03*
X61849000Y-78547000D03*
X37084000Y-56703000D03*
X37084000Y-54803000D03*
D46*
X103947000Y-62230000D03*
X102047000Y-62230000D03*
X81346000Y-42672000D03*
X83246000Y-42672000D03*
X81346000Y-40259000D03*
X83246000Y-40259000D03*
X36769000Y-78486000D03*
X38669000Y-78486000D03*
X29017000Y-70358000D03*
X27117000Y-70358000D03*
D47*
X59309000Y-53213000D03*
X61849000Y-53213000D03*
X64389000Y-53213000D03*
X54229000Y-65913000D03*
X56769000Y-65913000D03*
X59309000Y-65913000D03*
X61849000Y-65913000D03*
X64389000Y-65913000D03*
X66929000Y-65913000D03*
X69469000Y-65913000D03*
X72009000Y-65913000D03*
X74549000Y-65913000D03*
X77089000Y-65913000D03*
X79629000Y-65913000D03*
X82169000Y-65913000D03*
X84709000Y-65913000D03*
X84709000Y-50673000D03*
X82169000Y-50673000D03*
X79629000Y-50673000D03*
X77089000Y-50673000D03*
X74549000Y-50673000D03*
X72009000Y-50673000D03*
X69469000Y-50673000D03*
X66929000Y-50673000D03*
X64389000Y-50673000D03*
X61849000Y-50673000D03*
X59309000Y-50673000D03*
X56769000Y-50673000D03*
X54229000Y-50673000D03*
X51689000Y-50673000D03*
X51689000Y-65913000D03*
D48*
X73660000Y-81206000D03*
X73660000Y-78306000D03*
D49*
X62177000Y-73660000D03*
X65077000Y-73660000D03*
D50*
X76962000Y-81205000D03*
X76962000Y-75005000D03*
D51*
X45593000Y-53975000D03*
X29337000Y-65532000D03*
X77343000Y-32004000D03*
X74930000Y-45085000D03*
X83312000Y-58166000D03*
X70104000Y-59690000D03*
X42164000Y-88519000D03*
X81915000Y-77740000D03*
X65024000Y-40513000D03*
X102870000Y-30480000D03*
X64770000Y-83566000D03*
X63500000Y-83566000D03*
X62230000Y-83566000D03*
X69977000Y-70358000D03*
X71501000Y-70358000D03*
X68453000Y-70358000D03*
X76962000Y-73152000D03*
X78486000Y-71755000D03*
X78486000Y-73152000D03*
X76962000Y-71755000D03*
X75565000Y-71755000D03*
X75565000Y-73152000D03*
X84455000Y-81280000D03*
X99441000Y-70866000D03*
X63500000Y-89408000D03*
X62230000Y-89408000D03*
X64770000Y-89408000D03*
X87376000Y-78740000D03*
X100838000Y-62230000D03*
X85979000Y-74422000D03*
X80391000Y-75946000D03*
X50800000Y-54737000D03*
X67183000Y-53340000D03*
X46863000Y-77597000D03*
X42799000Y-77597000D03*
X29845000Y-54864000D03*
X82804000Y-38735000D03*
X80264000Y-38735000D03*
X45339000Y-64135000D03*
X69469000Y-63627000D03*
X44069000Y-66802000D03*
X83820000Y-46228000D03*
X79121000Y-47879000D03*
X27813000Y-65024000D03*
X29337000Y-87884000D03*
X87757000Y-46355000D03*
X78359000Y-51943000D03*
X72517000Y-75819000D03*
X67310000Y-79375000D03*
X37465000Y-76962000D03*
X32131000Y-77724000D03*
X68199000Y-43561000D03*
X58928000Y-43561000D03*
X58039000Y-47498000D03*
X69850000Y-45974000D03*
X68580000Y-41783000D03*
X65659000Y-42164000D03*
X43434000Y-65024000D03*
X53975000Y-61722000D03*
X33782000Y-35814000D03*
X36576000Y-37465000D03*
X56769000Y-60706000D03*
X59309000Y-59817000D03*
X42799000Y-37592000D03*
X61849000Y-58928000D03*
X47625000Y-37592000D03*
X68707000Y-39243000D03*
D52*
X49149000Y-39878000D02*
X49149000Y-40767000D01*
X49149000Y-40767000D02*
X49850000Y-41468000D01*
X49850000Y-41468000D02*
X55880000Y-41468000D01*
X43053000Y-30734000D02*
X37973000Y-30734000D01*
X37973000Y-30734000D02*
X37973000Y-25654000D01*
X37973000Y-25654000D02*
X43053000Y-25654000D01*
X26543000Y-30734000D02*
X26543000Y-25654000D01*
X26543000Y-25654000D02*
X31623000Y-25654000D01*
X31623000Y-25654000D02*
X31623000Y-30734000D01*
X27117000Y-70358000D02*
X27117000Y-68641000D01*
X27117000Y-68641000D02*
X28067000Y-67691000D01*
X63500000Y-40513000D02*
X65024000Y-40513000D01*
X73533000Y-37277000D02*
X72059000Y-37277000D01*
X72059000Y-37277000D02*
X71755000Y-36973000D01*
X73533000Y-37277000D02*
X75261000Y-37277000D01*
X75261000Y-37277000D02*
X75311000Y-37227000D01*
X40751000Y-89408000D02*
X41275000Y-89408000D01*
X42799000Y-87884000D02*
X42799000Y-86072980D01*
X41275000Y-89408000D02*
X42164000Y-88519000D01*
X42164000Y-88519000D02*
X42799000Y-87884000D01*
X102870000Y-33875980D02*
X102870000Y-30480000D01*
X97536000Y-33875980D02*
X97536000Y-32512000D01*
X97536000Y-32512000D02*
X92583000Y-27559000D01*
X40132000Y-87503000D02*
X40132000Y-88789000D01*
X40132000Y-88789000D02*
X40751000Y-89408000D01*
X66380000Y-80586000D02*
X66380000Y-81956000D01*
X64770000Y-83566000D02*
X63500000Y-83566000D01*
X66380000Y-81956000D02*
X64770000Y-83566000D01*
X61214000Y-82103000D02*
X61214000Y-82550000D01*
X62230000Y-83566000D02*
X63500000Y-83566000D01*
X61214000Y-82550000D02*
X62230000Y-83566000D01*
X69977000Y-70358000D02*
X71501000Y-70358000D01*
X68453000Y-70358000D02*
X69977000Y-70358000D01*
X69977000Y-70358000D02*
X69977000Y-68701000D01*
X78486000Y-73152000D02*
X76962000Y-73152000D01*
X78486000Y-73152000D02*
X78486000Y-71755000D01*
X78486000Y-71755000D02*
X76962000Y-71755000D01*
X76962000Y-71755000D02*
X75565000Y-71755000D01*
X75565000Y-73152000D02*
X76962000Y-73152000D01*
X76962000Y-75005000D02*
X76962000Y-73152000D01*
X75565000Y-71755000D02*
X75565000Y-73152000D01*
X84041000Y-78105000D02*
X82931000Y-78105000D01*
X82566000Y-77740000D02*
X81915000Y-77740000D01*
X81915000Y-77740000D02*
X79883000Y-77740000D01*
X82931000Y-78105000D02*
X82566000Y-77740000D01*
X82009000Y-81153000D02*
X84328000Y-81153000D01*
X84328000Y-81153000D02*
X84455000Y-81280000D01*
X82009000Y-81153000D02*
X82009000Y-82423000D01*
X103251000Y-70794000D02*
X99513000Y-70794000D01*
X99513000Y-70794000D02*
X99441000Y-70866000D01*
X63500000Y-89408000D02*
X62230000Y-89408000D01*
X63500000Y-89408000D02*
X64770000Y-89408000D01*
X63563500Y-89344500D02*
X63500000Y-89408000D01*
X63563500Y-86614000D02*
X63563500Y-89344500D01*
X63563500Y-83629500D02*
X63500000Y-83566000D01*
X63563500Y-83629500D02*
X63563500Y-86614000D01*
X63931800Y-87325200D02*
X63881000Y-87376000D01*
X81346000Y-40259000D02*
X81346000Y-34605000D01*
X84836000Y-31115000D02*
X84836000Y-25273000D01*
X81346000Y-34605000D02*
X84836000Y-31115000D01*
X91059000Y-25273000D02*
X95377000Y-25273000D01*
X89027000Y-25273000D02*
X91059000Y-25273000D01*
X84836000Y-25273000D02*
X89027000Y-25273000D01*
X95377000Y-25273000D02*
X95885000Y-25781000D01*
X95885000Y-25781000D02*
X97663000Y-27559000D01*
X61976000Y-27432000D02*
X61976000Y-27178000D01*
X61976000Y-27178000D02*
X63881000Y-25273000D01*
X63881000Y-25273000D02*
X84836000Y-25273000D01*
X99568000Y-33975000D02*
X99568000Y-29464000D01*
X99568000Y-29464000D02*
X97663000Y-27559000D01*
X92329000Y-58166000D02*
X92329000Y-45974000D01*
X100965000Y-35372000D02*
X99568000Y-33975000D01*
X100965000Y-37338000D02*
X100965000Y-35372000D01*
X92329000Y-45974000D02*
X100965000Y-37338000D01*
X81346000Y-42672000D02*
X81346000Y-40259000D01*
X91202000Y-71374000D02*
X91202000Y-59293000D01*
X91202000Y-59293000D02*
X92329000Y-58166000D01*
X89441000Y-74295000D02*
X89441000Y-73135000D01*
X89441000Y-73135000D02*
X91202000Y-71374000D01*
X79883000Y-79740000D02*
X81866000Y-79740000D01*
X81866000Y-79740000D02*
X82009000Y-79883000D01*
X96139000Y-76526000D02*
X96211000Y-76526000D01*
X96211000Y-76526000D02*
X96719000Y-77034000D01*
X96719000Y-77034000D02*
X103251000Y-77034000D01*
X65077000Y-73660000D02*
X65077000Y-74475000D01*
X65077000Y-74475000D02*
X65786000Y-75184000D01*
X70546000Y-78359000D02*
X70813000Y-78359000D01*
X70813000Y-78359000D02*
X73660000Y-81206000D01*
X65786000Y-75184000D02*
X66675000Y-74295000D01*
X66675000Y-74295000D02*
X69971000Y-74295000D01*
X69971000Y-74295000D02*
X69977000Y-74301000D01*
X69276000Y-76327000D02*
X69276000Y-75002000D01*
X69276000Y-75002000D02*
X69977000Y-74301000D01*
X66380000Y-76386000D02*
X66380000Y-75778000D01*
X66380000Y-75778000D02*
X65786000Y-75184000D01*
X87409000Y-78773000D02*
X87409000Y-79883000D01*
X87376000Y-78740000D02*
X87409000Y-78773000D01*
X100838000Y-62230000D02*
X102047000Y-62230000D01*
X79629000Y-65913000D02*
X79629000Y-75184000D01*
X85852000Y-74295000D02*
X84041000Y-74295000D01*
X85979000Y-74422000D02*
X85852000Y-74295000D01*
X79629000Y-75184000D02*
X80391000Y-75946000D01*
X81534000Y-66548000D02*
X81534000Y-75057000D01*
X81534000Y-75057000D02*
X83312000Y-76835000D01*
X81534000Y-66548000D02*
X82169000Y-65913000D01*
X83312000Y-76835000D02*
X84041000Y-76835000D01*
X87630000Y-53721000D02*
X87630000Y-74168000D01*
X84041000Y-75565000D02*
X86233000Y-75565000D01*
X86233000Y-75565000D02*
X87630000Y-74168000D01*
X87630000Y-53721000D02*
X84709000Y-50800000D01*
X84709000Y-50673000D02*
X84709000Y-50800000D01*
X50800000Y-54737000D02*
X50800000Y-54864000D01*
X38415000Y-56134000D02*
X37084000Y-54803000D01*
X49530000Y-56134000D02*
X38415000Y-56134000D01*
X50800000Y-54864000D02*
X49530000Y-56134000D01*
X50734000Y-54803000D02*
X50800000Y-54737000D01*
X34671000Y-52578000D02*
X35179000Y-52578000D01*
X35179000Y-52578000D02*
X37084000Y-54483000D01*
X37084000Y-54483000D02*
X37084000Y-54803000D01*
X61595000Y-72070000D02*
X63119000Y-72070000D01*
X63119000Y-72070000D02*
X63119000Y-72009000D01*
X63119000Y-71755000D02*
X63119000Y-72009000D01*
X63119000Y-72009000D02*
X63119000Y-72718000D01*
X63119000Y-57404000D02*
X67183000Y-53340000D01*
X63119000Y-71755000D02*
X63119000Y-57404000D01*
X63119000Y-72718000D02*
X62177000Y-73660000D01*
X89441000Y-75565000D02*
X89441000Y-76835000D01*
X89441000Y-75565000D02*
X90551000Y-75565000D01*
X91252000Y-74864000D02*
X91252000Y-73406000D01*
X90551000Y-75565000D02*
X91252000Y-74864000D01*
X89822000Y-75311000D02*
X88900000Y-75311000D01*
X34229000Y-63500000D02*
X34229000Y-60640000D01*
X34229000Y-60640000D02*
X34671000Y-60198000D01*
X34671000Y-59944000D02*
X35105000Y-59944000D01*
X27117000Y-63500000D02*
X27117000Y-60264000D01*
X27117000Y-60264000D02*
X27051000Y-60198000D01*
X67376000Y-76327000D02*
X67376000Y-76896000D01*
X67376000Y-76896000D02*
X66802000Y-77470000D01*
X66802000Y-77470000D02*
X66167000Y-77470000D01*
X66167000Y-77470000D02*
X65730000Y-77033000D01*
X65730000Y-77033000D02*
X65730000Y-76386000D01*
X65786000Y-76442000D02*
X65730000Y-76386000D01*
D53*
X47813000Y-78547000D02*
X61849000Y-78547000D01*
X46863000Y-77597000D02*
X47813000Y-78547000D01*
X40386000Y-67691000D02*
X42799000Y-70104000D01*
X42799000Y-70104000D02*
X42799000Y-77597000D01*
X40386000Y-67691000D02*
X33147000Y-67691000D01*
X68646000Y-78359000D02*
X62037000Y-78359000D01*
X62037000Y-78359000D02*
X61849000Y-78547000D01*
X62037000Y-78359000D02*
X61849000Y-78547000D01*
D52*
X61849000Y-76647000D02*
X62550000Y-76647000D01*
X65080000Y-77287000D02*
X65080000Y-76386000D01*
X64643000Y-77724000D02*
X65080000Y-77287000D01*
X63627000Y-77724000D02*
X64643000Y-77724000D01*
X62550000Y-76647000D02*
X63627000Y-77724000D01*
X101473000Y-58166000D02*
X101473000Y-59182000D01*
X101473000Y-59182000D02*
X99695000Y-60960000D01*
X99695000Y-60960000D02*
X99695000Y-64770000D01*
X99695000Y-64770000D02*
X101473000Y-66548000D01*
X97536000Y-35974020D02*
X99468980Y-35974020D01*
X99468980Y-35974020D02*
X99568000Y-35875000D01*
X102870000Y-35974020D02*
X104802980Y-35974020D01*
X104802980Y-35974020D02*
X104902000Y-35875000D01*
D53*
X35941000Y-47498000D02*
X35941000Y-45593000D01*
X41021000Y-47498000D02*
X41021000Y-45593000D01*
X46609000Y-47498000D02*
X46609000Y-45593000D01*
X46609000Y-45593000D02*
X46609000Y-45720000D01*
X46609000Y-45720000D02*
X46609000Y-45593000D01*
X29845000Y-54864000D02*
X29591000Y-54610000D01*
X29591000Y-54610000D02*
X29591000Y-52578000D01*
X29591000Y-52578000D02*
X29591000Y-46990000D01*
X29083000Y-31496000D02*
X29083000Y-28194000D01*
X24892000Y-35687000D02*
X29083000Y-31496000D01*
X24892000Y-42291000D02*
X24892000Y-35687000D01*
X29591000Y-46990000D02*
X24892000Y-42291000D01*
X32131000Y-52578000D02*
X32131000Y-51816000D01*
X32131000Y-51816000D02*
X30734000Y-50419000D01*
X31750000Y-45593000D02*
X35052000Y-45593000D01*
X30734000Y-46609000D02*
X31750000Y-45593000D01*
X30734000Y-50419000D02*
X30734000Y-46609000D01*
X35052000Y-45593000D02*
X35941000Y-45593000D01*
X35941000Y-45593000D02*
X40132000Y-45593000D01*
X40132000Y-45593000D02*
X41021000Y-45593000D01*
X41021000Y-45593000D02*
X45974000Y-45593000D01*
X51625500Y-46926500D02*
X51625500Y-47498000D01*
X45974000Y-45593000D02*
X46609000Y-45593000D01*
X46609000Y-45593000D02*
X50292000Y-45593000D01*
X50292000Y-45593000D02*
X51625500Y-46926500D01*
X32131000Y-52578000D02*
X32131000Y-52514500D01*
X29591000Y-52578000D02*
X32131000Y-52578000D01*
X46037500Y-47498000D02*
X46037500Y-48006000D01*
D52*
X82931000Y-78740000D02*
X75565000Y-78740000D01*
X82931000Y-78740000D02*
X84201000Y-80010000D01*
X84201000Y-80010000D02*
X84963000Y-80010000D01*
X84963000Y-80010000D02*
X86106000Y-81153000D01*
X87409000Y-81153000D02*
X86106000Y-81153000D01*
X75131000Y-78306000D02*
X73660000Y-78306000D01*
X75565000Y-78740000D02*
X75131000Y-78306000D01*
X87409000Y-81153000D02*
X88646000Y-81153000D01*
X89441000Y-80358000D02*
X89441000Y-78105000D01*
X88646000Y-81153000D02*
X89441000Y-80358000D01*
X104013000Y-66548000D02*
X104013000Y-62296000D01*
X104013000Y-62296000D02*
X103947000Y-62230000D01*
X68453000Y-32004000D02*
X72771000Y-32004000D01*
X68453000Y-32004000D02*
X64008000Y-32004000D01*
X61976000Y-29972000D02*
X64008000Y-32004000D01*
X79375000Y-43070780D02*
X81534000Y-45229780D01*
X79375000Y-38608000D02*
X79375000Y-43070780D01*
X72771000Y-32004000D02*
X79375000Y-38608000D01*
X81534000Y-45229780D02*
X81534000Y-45085000D01*
X83246000Y-42672000D02*
X83246000Y-43517780D01*
X83246000Y-43517780D02*
X81534000Y-45229780D01*
X71120000Y-31369000D02*
X72898000Y-31369000D01*
X83246000Y-40259000D02*
X83246000Y-39177000D01*
X82804000Y-38735000D02*
X83246000Y-39177000D01*
X66675000Y-31369000D02*
X71120000Y-31369000D01*
X65786000Y-30480000D02*
X66675000Y-31369000D01*
X65786000Y-28956000D02*
X65786000Y-30480000D01*
X65786000Y-28956000D02*
X64516000Y-27686000D01*
X72898000Y-31369000D02*
X80264000Y-38735000D01*
X64516000Y-27432000D02*
X64516000Y-27686000D01*
X85979000Y-45229780D02*
X85979000Y-41910000D01*
X84328000Y-40259000D02*
X83246000Y-40259000D01*
X85979000Y-41910000D02*
X84328000Y-40259000D01*
X32512000Y-92456000D02*
X42037000Y-92456000D01*
X45339000Y-66294000D02*
X45339000Y-64135000D01*
X42037000Y-92456000D02*
X45339000Y-89154000D01*
X45339000Y-89154000D02*
X45339000Y-66294000D01*
X32512000Y-92456000D02*
X30607000Y-90551000D01*
X34671000Y-86360000D02*
X34671000Y-86487000D01*
X34671000Y-86487000D02*
X30607000Y-90551000D01*
X34671000Y-86360000D02*
X36957000Y-86360000D01*
X37592000Y-86995000D02*
X36957000Y-86360000D01*
X69469000Y-63627000D02*
X69469000Y-65913000D01*
X37592000Y-86995000D02*
X37592000Y-87503000D01*
X36322000Y-87503000D02*
X36195000Y-87503000D01*
X36195000Y-87503000D02*
X33147000Y-90551000D01*
X40513000Y-91948000D02*
X34417000Y-91948000D01*
X34417000Y-91948000D02*
X33147000Y-90678000D01*
X40513000Y-91948000D02*
X44069000Y-88392000D01*
X44069000Y-88392000D02*
X44069000Y-66802000D01*
X33147000Y-90551000D02*
X33147000Y-90678000D01*
X86934000Y-42672000D02*
X86934000Y-45908000D01*
X83484760Y-46228000D02*
X82484000Y-47228760D01*
X86614000Y-46228000D02*
X83820000Y-46228000D01*
X83820000Y-46228000D02*
X83484760Y-46228000D01*
X86934000Y-45908000D02*
X86614000Y-46228000D01*
X86934000Y-42672000D02*
X86868000Y-42672000D01*
X82484000Y-47056000D02*
X82484000Y-47228760D01*
X82484000Y-47228760D02*
X82484000Y-47183000D01*
X73721000Y-40894000D02*
X74549000Y-40894000D01*
X75311000Y-40132000D02*
X75311000Y-39227000D01*
X74549000Y-40894000D02*
X75311000Y-40132000D01*
X79850000Y-47150000D02*
X79850000Y-47023000D01*
X79121000Y-47879000D02*
X79850000Y-47150000D01*
X80584000Y-47228760D02*
X80055760Y-47228760D01*
X80055760Y-47228760D02*
X79850000Y-47023000D01*
X79850000Y-47023000D02*
X73721000Y-40894000D01*
X69850000Y-40513000D02*
X70358000Y-40513000D01*
X70358000Y-40513000D02*
X70866000Y-41021000D01*
X70866000Y-41021000D02*
X70866000Y-41783000D01*
X70866000Y-41783000D02*
X71120000Y-42037000D01*
X71120000Y-42037000D02*
X72578000Y-42037000D01*
X72578000Y-42037000D02*
X73721000Y-40894000D01*
X37084000Y-56703000D02*
X50739000Y-56703000D01*
X50739000Y-56703000D02*
X56769000Y-50673000D01*
X37018000Y-56769000D02*
X30226000Y-56769000D01*
X29337000Y-61976000D02*
X28829000Y-61976000D01*
X28829000Y-61976000D02*
X28321000Y-61468000D01*
X28321000Y-61468000D02*
X28321000Y-58674000D01*
X28321000Y-58674000D02*
X30226000Y-56769000D01*
X29337000Y-61976000D02*
X30673000Y-63312000D01*
X37018000Y-56769000D02*
X37084000Y-56703000D01*
X69850000Y-40513000D02*
X70104000Y-40513000D01*
X73787000Y-40828000D02*
X73721000Y-40894000D01*
X85029000Y-47228760D02*
X85029000Y-47437000D01*
X85029000Y-47437000D02*
X85725000Y-48133000D01*
X88834000Y-46802000D02*
X88834000Y-42672000D01*
X87503000Y-48133000D02*
X88834000Y-46802000D01*
X85725000Y-48133000D02*
X87503000Y-48133000D01*
X80584000Y-47228760D02*
X80629760Y-47228760D01*
X80629760Y-47228760D02*
X81534000Y-48133000D01*
X84124760Y-48133000D02*
X85029000Y-47228760D01*
X81534000Y-48133000D02*
X84124760Y-48133000D01*
X88834000Y-42672000D02*
X88834000Y-40259000D01*
X30673000Y-63500000D02*
X30673000Y-63312000D01*
X29017000Y-63500000D02*
X29017000Y-63820000D01*
X29017000Y-63820000D02*
X27813000Y-65024000D01*
X29017000Y-63500000D02*
X30673000Y-63500000D01*
X29017000Y-64074000D02*
X29017000Y-63500000D01*
X28287980Y-86834980D02*
X27305000Y-86834980D01*
X29337000Y-87884000D02*
X28287980Y-86834980D01*
X38862000Y-87503000D02*
X38862000Y-89297000D01*
X38862000Y-89297000D02*
X38751000Y-89408000D01*
X35687000Y-90170000D02*
X37989000Y-90170000D01*
X37989000Y-90170000D02*
X38751000Y-89408000D01*
X80584000Y-47228760D02*
X80756760Y-47228760D01*
X87757000Y-46355000D02*
X87757000Y-46400760D01*
X86934000Y-40259000D02*
X86995000Y-40259000D01*
X86995000Y-40259000D02*
X87757000Y-41021000D01*
X87757000Y-45212000D02*
X87757000Y-46400760D01*
X87757000Y-41021000D02*
X87757000Y-45212000D01*
X87757000Y-46400760D02*
X86929000Y-47228760D01*
X61849000Y-50038000D02*
X61468000Y-50038000D01*
X78359000Y-66929000D02*
X78359000Y-51943000D01*
X72263000Y-77597000D02*
X74549000Y-75311000D01*
X74549000Y-75311000D02*
X74549000Y-70739000D01*
X74549000Y-70739000D02*
X78359000Y-66929000D01*
X73152000Y-79756000D02*
X72263000Y-78867000D01*
X74676000Y-79756000D02*
X73152000Y-79756000D01*
X76125000Y-81205000D02*
X74676000Y-79756000D01*
X72263000Y-78867000D02*
X72263000Y-77597000D01*
X76962000Y-81205000D02*
X76125000Y-81205000D01*
X81407000Y-83693000D02*
X82009000Y-83693000D01*
X75819000Y-66548000D02*
X75819000Y-65278000D01*
X73152000Y-75819000D02*
X73914000Y-75057000D01*
X65080000Y-80586000D02*
X65080000Y-79954000D01*
X65659000Y-79375000D02*
X67310000Y-79375000D01*
X65080000Y-79954000D02*
X65659000Y-79375000D01*
X73914000Y-68453000D02*
X75819000Y-66548000D01*
X73914000Y-75057000D02*
X73914000Y-68453000D01*
X72517000Y-75819000D02*
X73152000Y-75819000D01*
X77089000Y-52070000D02*
X77089000Y-50673000D01*
X77724000Y-52705000D02*
X77089000Y-52070000D01*
X77724000Y-63373000D02*
X77724000Y-52705000D01*
X75819000Y-65278000D02*
X77724000Y-63373000D01*
X65080000Y-80586000D02*
X65080000Y-79939000D01*
X61788000Y-79629000D02*
X61214000Y-80203000D01*
X64770000Y-79629000D02*
X61788000Y-79629000D01*
X65080000Y-79939000D02*
X64770000Y-79629000D01*
X30329000Y-77724000D02*
X32131000Y-77724000D01*
X37465000Y-76962000D02*
X38669000Y-78166000D01*
X38669000Y-78166000D02*
X38669000Y-78486000D01*
X38862000Y-81153000D02*
X38862000Y-81661000D01*
X38862000Y-81661000D02*
X39497000Y-82296000D01*
X39497000Y-82296000D02*
X42578020Y-82296000D01*
X42578020Y-82296000D02*
X42799000Y-82075020D01*
X38862000Y-81153000D02*
X38862000Y-78679000D01*
X38862000Y-78679000D02*
X38669000Y-78486000D01*
X27305000Y-82837020D02*
X28795980Y-82837020D01*
X34798000Y-82677000D02*
X36322000Y-81153000D01*
X28956000Y-82677000D02*
X34798000Y-82677000D01*
X28795980Y-82837020D02*
X28956000Y-82677000D01*
X28100020Y-82042000D02*
X27305000Y-82837020D01*
X27305000Y-82837020D02*
X27305000Y-77748000D01*
X27305000Y-77748000D02*
X27329000Y-77724000D01*
X31369000Y-81407000D02*
X31369000Y-80772000D01*
X31369000Y-80772000D02*
X33909000Y-78232000D01*
X33909000Y-78232000D02*
X33909000Y-74168000D01*
X33909000Y-74168000D02*
X35306000Y-72771000D01*
X35306000Y-72771000D02*
X36703000Y-72771000D01*
X40767000Y-74398000D02*
X40362000Y-74398000D01*
X40362000Y-74398000D02*
X38735000Y-72771000D01*
X38735000Y-72771000D02*
X36703000Y-72771000D01*
X33909000Y-78232000D02*
X36515000Y-78232000D01*
X36515000Y-78232000D02*
X36769000Y-78486000D01*
X32344360Y-73660000D02*
X32639000Y-73660000D01*
X32639000Y-73660000D02*
X34901000Y-71398000D01*
X34901000Y-71398000D02*
X40767000Y-71398000D01*
X32344360Y-72938640D02*
X32344360Y-73660000D01*
X32344360Y-73660000D02*
X32319000Y-73660000D01*
X32319000Y-73660000D02*
X29017000Y-70358000D01*
X31496000Y-86487000D02*
X33528000Y-86487000D01*
X37592000Y-82423000D02*
X37592000Y-81153000D01*
X33528000Y-86487000D02*
X37592000Y-82423000D01*
X40132000Y-81153000D02*
X40132000Y-77597000D01*
X40132000Y-77597000D02*
X37846000Y-75311000D01*
X37846000Y-75311000D02*
X36703000Y-75311000D01*
X58277000Y-44958000D02*
X58277000Y-44212000D01*
X68707000Y-43053000D02*
X69850000Y-43053000D01*
X68199000Y-43561000D02*
X68707000Y-43053000D01*
X58277000Y-44212000D02*
X58928000Y-43561000D01*
X71628000Y-43069000D02*
X73456000Y-43069000D01*
X73456000Y-43069000D02*
X73533000Y-42992000D01*
X69850000Y-43053000D02*
X71612000Y-43053000D01*
X71612000Y-43053000D02*
X71628000Y-43069000D01*
X57912000Y-38354000D02*
X57912000Y-42291000D01*
X40513000Y-28194000D02*
X47752000Y-28194000D01*
X56835000Y-43368000D02*
X57912000Y-42291000D01*
X56835000Y-43368000D02*
X55880000Y-43368000D01*
X47752000Y-28194000D02*
X57912000Y-38354000D01*
X55880000Y-43368000D02*
X55880000Y-44561000D01*
X55880000Y-44561000D02*
X56277000Y-44958000D01*
X49006000Y-49911000D02*
X49784000Y-49911000D01*
X56277000Y-46974000D02*
X56277000Y-44958000D01*
X54229000Y-49022000D02*
X56277000Y-46974000D01*
X50673000Y-49022000D02*
X54229000Y-49022000D01*
X49784000Y-49911000D02*
X50673000Y-49022000D01*
X39862000Y-49911000D02*
X39862000Y-51308000D01*
X39878000Y-51181000D02*
X39878000Y-51308000D01*
X39878000Y-51292000D02*
X39878000Y-51181000D01*
X39862000Y-51308000D02*
X39878000Y-51292000D01*
X45196000Y-49911000D02*
X45196000Y-51308000D01*
X45196000Y-51308000D02*
X45212000Y-51308000D01*
X49006000Y-49911000D02*
X49006000Y-50435000D01*
X49006000Y-50435000D02*
X48133000Y-51308000D01*
X36306000Y-51308000D02*
X35036000Y-50038000D01*
X48133000Y-51308000D02*
X45212000Y-51308000D01*
X45212000Y-51308000D02*
X40005000Y-51308000D01*
X40005000Y-51308000D02*
X39878000Y-51308000D01*
X39878000Y-51308000D02*
X36306000Y-51308000D01*
X33036000Y-50038000D02*
X33036000Y-47863000D01*
X33036000Y-47863000D02*
X33401000Y-47498000D01*
X37862000Y-49911000D02*
X37862000Y-48117000D01*
X37862000Y-48117000D02*
X38481000Y-47498000D01*
X37655500Y-49704500D02*
X37862000Y-49911000D01*
X43196000Y-49911000D02*
X43196000Y-48371000D01*
X43196000Y-48371000D02*
X44069000Y-47498000D01*
X47006000Y-49911000D02*
X47006000Y-49895000D01*
X47006000Y-49895000D02*
X49149000Y-47752000D01*
X49149000Y-47752000D02*
X49149000Y-47498000D01*
X48577500Y-47498000D02*
X48577500Y-48069500D01*
X47006000Y-49641000D02*
X47006000Y-49911000D01*
X71628000Y-45069000D02*
X70596000Y-45069000D01*
X70596000Y-45069000D02*
X69850000Y-44323000D01*
X71628000Y-45069000D02*
X73356000Y-45069000D01*
X73356000Y-45069000D02*
X73533000Y-44892000D01*
X59375000Y-47117000D02*
X58420000Y-47117000D01*
X58420000Y-47117000D02*
X58039000Y-47498000D01*
X69850000Y-45974000D02*
X69850000Y-44323000D01*
X59243000Y-46985000D02*
X59375000Y-47117000D01*
X63500000Y-43053000D02*
X62799000Y-43053000D01*
X62799000Y-43053000D02*
X61783000Y-42037000D01*
X63500000Y-43053000D02*
X63500000Y-44323000D01*
X63119000Y-45736000D02*
X63119000Y-44704000D01*
X63119000Y-44704000D02*
X63500000Y-44323000D01*
X61341000Y-45654000D02*
X61341000Y-47051000D01*
X61341000Y-47051000D02*
X61275000Y-47117000D01*
X61275000Y-47117000D02*
X62500000Y-47117000D01*
X62500000Y-47117000D02*
X63119000Y-47736000D01*
X61849000Y-53213000D02*
X63119000Y-51943000D01*
X66786000Y-48657000D02*
X66786000Y-47625000D01*
X65659000Y-49784000D02*
X66786000Y-48657000D01*
X65659000Y-51181000D02*
X65659000Y-49784000D01*
X64897000Y-51943000D02*
X65659000Y-51181000D01*
X63119000Y-51943000D02*
X64897000Y-51943000D01*
X66786000Y-47625000D02*
X66786000Y-45323000D01*
X65659000Y-44196000D02*
X65659000Y-42164000D01*
X66786000Y-45323000D02*
X65659000Y-44196000D01*
X69850000Y-41783000D02*
X68580000Y-41783000D01*
X67818000Y-41021000D02*
X67818000Y-35179000D01*
X68580000Y-41783000D02*
X67818000Y-41021000D01*
X69850000Y-36703000D02*
X69850000Y-37973000D01*
X63484000Y-35179000D02*
X67818000Y-35179000D01*
X67818000Y-35179000D02*
X68326000Y-35179000D01*
X68326000Y-35179000D02*
X69850000Y-36703000D01*
X66675000Y-47736000D02*
X66786000Y-47625000D01*
X61783000Y-39243000D02*
X61468000Y-39243000D01*
X61468000Y-39243000D02*
X60833000Y-38608000D01*
X60833000Y-35830000D02*
X61484000Y-35179000D01*
X60833000Y-38608000D02*
X60833000Y-35830000D01*
X61783000Y-39243000D02*
X63500000Y-39243000D01*
X64389000Y-53213000D02*
X65659000Y-53213000D01*
X65405000Y-37973000D02*
X63500000Y-37973000D01*
X66929000Y-39497000D02*
X65405000Y-37973000D01*
X66929000Y-44323000D02*
X66929000Y-39497000D01*
X68199000Y-45593000D02*
X66929000Y-44323000D01*
X68199000Y-51435000D02*
X68199000Y-45593000D01*
X67437000Y-52197000D02*
X68199000Y-51435000D01*
X66675000Y-52197000D02*
X67437000Y-52197000D01*
X65659000Y-53213000D02*
X66675000Y-52197000D01*
X63500000Y-36703000D02*
X63500000Y-37973000D01*
X61833000Y-37465000D02*
X62992000Y-37465000D01*
X62992000Y-37465000D02*
X63500000Y-37973000D01*
X64008000Y-37973000D02*
X63500000Y-37973000D01*
X59883000Y-39243000D02*
X59883000Y-37515000D01*
X59883000Y-37515000D02*
X59833000Y-37465000D01*
X59883000Y-42037000D02*
X59883000Y-39243000D01*
X63500000Y-41783000D02*
X63246000Y-41783000D01*
X63246000Y-41783000D02*
X62230000Y-40767000D01*
X60833000Y-43246000D02*
X61341000Y-43754000D01*
X60833000Y-41148000D02*
X60833000Y-43246000D01*
X61214000Y-40767000D02*
X60833000Y-41148000D01*
X62230000Y-40767000D02*
X61214000Y-40767000D01*
X64786000Y-47625000D02*
X64786000Y-45101000D01*
X64516000Y-42291000D02*
X64008000Y-41783000D01*
X64516000Y-44831000D02*
X64516000Y-42291000D01*
X64786000Y-45101000D02*
X64516000Y-44831000D01*
X64008000Y-41783000D02*
X63500000Y-41783000D01*
X32573000Y-63500000D02*
X32573000Y-64323000D01*
X33274000Y-65024000D02*
X43434000Y-65024000D01*
X32573000Y-64323000D02*
X33274000Y-65024000D01*
X32573000Y-63500000D02*
X32573000Y-60640000D01*
X32573000Y-60640000D02*
X32131000Y-60198000D01*
X29591000Y-60198000D02*
X32131000Y-60198000D01*
X31951000Y-59362000D02*
X32004000Y-59309000D01*
X53975000Y-61722000D02*
X54229000Y-61976000D01*
X54229000Y-65913000D02*
X54229000Y-61976000D01*
X32895500Y-36700500D02*
X32895500Y-37592000D01*
X33782000Y-35814000D02*
X32895500Y-36700500D01*
X34795500Y-37592000D02*
X34795500Y-38732500D01*
X34795500Y-38732500D02*
X35941000Y-39878000D01*
X36576000Y-37465000D02*
X38547000Y-37465000D01*
X38547000Y-37465000D02*
X38674000Y-37592000D01*
X36703000Y-37592000D02*
X36576000Y-37465000D01*
X56769000Y-65913000D02*
X56769000Y-60706000D01*
X41021000Y-39878000D02*
X41021000Y-38039000D01*
X41021000Y-38039000D02*
X40574000Y-37592000D01*
X44071500Y-37592000D02*
X42799000Y-37592000D01*
X59309000Y-59817000D02*
X59309000Y-65913000D01*
X45971500Y-37592000D02*
X45971500Y-39812000D01*
X45971500Y-39812000D02*
X46037500Y-39878000D01*
X48897500Y-37592000D02*
X47625000Y-37592000D01*
X61849000Y-58928000D02*
X61849000Y-65913000D01*
X50797500Y-37592000D02*
X50797500Y-39558000D01*
X50797500Y-39558000D02*
X51117500Y-39878000D01*
X71755000Y-38973000D02*
X73329000Y-38973000D01*
X73329000Y-38973000D02*
X73533000Y-39177000D01*
X69850000Y-39243000D02*
X71485000Y-39243000D01*
X71485000Y-39243000D02*
X71755000Y-38973000D01*
X71755000Y-40828000D02*
X71821000Y-40894000D01*
X71821000Y-40894000D02*
X71821000Y-40833000D01*
X71821000Y-40833000D02*
X70231000Y-39243000D01*
X70231000Y-39243000D02*
X69850000Y-39243000D01*
X69850000Y-39243000D02*
X68707000Y-39243000D01*
X69916000Y-39177000D02*
X69850000Y-39243000D01*
D53*
X27051000Y-52578000D02*
X27051000Y-54864000D01*
X25400000Y-71716900D02*
X27343100Y-73660000D01*
X25400000Y-56515000D02*
X25400000Y-71716900D01*
X27051000Y-54864000D02*
X25400000Y-56515000D01*
D52*
G36*
X107124500Y-83463130D02*
X105956750Y-83463130D01*
X105798000Y-83621880D01*
X105798000Y-85471000D01*
X105818000Y-85471000D01*
X105818000Y-85725000D01*
X105798000Y-85725000D01*
X105798000Y-87574120D01*
X105956750Y-87732870D01*
X107124500Y-87732870D01*
X107124500Y-92138500D01*
X93213833Y-92138500D01*
X93131534Y-85883750D01*
X103536130Y-85883750D01*
X103536130Y-87224180D01*
X103632803Y-87457569D01*
X103811432Y-87636197D01*
X104044821Y-87732870D01*
X105385250Y-87732870D01*
X105544000Y-87574120D01*
X105544000Y-85725000D01*
X103694880Y-85725000D01*
X103536130Y-85883750D01*
X93131534Y-85883750D01*
X93106378Y-83971820D01*
X103536130Y-83971820D01*
X103536130Y-85312250D01*
X103694880Y-85471000D01*
X105544000Y-85471000D01*
X105544000Y-83621880D01*
X105385250Y-83463130D01*
X104044821Y-83463130D01*
X103811432Y-83559803D01*
X103632803Y-83738431D01*
X103536130Y-83971820D01*
X93106378Y-83971820D01*
X93090989Y-82802329D01*
X93080334Y-82753055D01*
X93051348Y-82711808D01*
X93008598Y-82685088D01*
X92964000Y-82677000D01*
X88787250Y-82677000D01*
X88660250Y-82550000D01*
X87536000Y-82550000D01*
X87536000Y-82570000D01*
X87282000Y-82570000D01*
X87282000Y-82550000D01*
X87262000Y-82550000D01*
X87262000Y-82296000D01*
X87282000Y-82296000D01*
X87282000Y-82276000D01*
X87536000Y-82276000D01*
X87536000Y-82296000D01*
X88660250Y-82296000D01*
X88819000Y-82137250D01*
X88819000Y-81996690D01*
X88774570Y-81889426D01*
X88937605Y-81856996D01*
X89184815Y-81691815D01*
X89979816Y-80896815D01*
X90078834Y-80748623D01*
X90144996Y-80649605D01*
X90203000Y-80358000D01*
X90203000Y-79052440D01*
X90216000Y-79052440D01*
X90451317Y-79008162D01*
X90667441Y-78869090D01*
X90812431Y-78656890D01*
X90863440Y-78405000D01*
X90863440Y-77805000D01*
X90819162Y-77569683D01*
X90765154Y-77485750D01*
X91323000Y-77485750D01*
X91323000Y-77826309D01*
X91419673Y-78059698D01*
X91598301Y-78238327D01*
X91831690Y-78335000D01*
X92297250Y-78335000D01*
X92456000Y-78176250D01*
X92456000Y-77327000D01*
X92710000Y-77327000D01*
X92710000Y-78176250D01*
X92868750Y-78335000D01*
X93334310Y-78335000D01*
X93567699Y-78238327D01*
X93746327Y-78059698D01*
X93843000Y-77826309D01*
X93843000Y-77485750D01*
X93684250Y-77327000D01*
X92710000Y-77327000D01*
X92456000Y-77327000D01*
X91481750Y-77327000D01*
X91323000Y-77485750D01*
X90765154Y-77485750D01*
X90755322Y-77470472D01*
X90812431Y-77386890D01*
X90863440Y-77135000D01*
X90863440Y-76758036D01*
X91323000Y-76750180D01*
X91323000Y-76914250D01*
X91481750Y-77073000D01*
X92456000Y-77073000D01*
X92456000Y-77053000D01*
X92710000Y-77053000D01*
X92710000Y-77073000D01*
X93684250Y-77073000D01*
X93843000Y-76914250D01*
X93843000Y-76707103D01*
X94403223Y-76697527D01*
X94289000Y-76811750D01*
X94289000Y-77837309D01*
X94385673Y-78070698D01*
X94564301Y-78249327D01*
X94797690Y-78346000D01*
X95853250Y-78346000D01*
X96012000Y-78187250D01*
X96012000Y-76670027D01*
X96266000Y-76665685D01*
X96266000Y-78187250D01*
X96424750Y-78346000D01*
X97480310Y-78346000D01*
X97713699Y-78249327D01*
X97892327Y-78070698D01*
X97989000Y-77837309D01*
X97989000Y-77319750D01*
X100551000Y-77319750D01*
X100551000Y-78345309D01*
X100647673Y-78578698D01*
X100826301Y-78757327D01*
X101059690Y-78854000D01*
X102965250Y-78854000D01*
X103124000Y-78695250D01*
X103124000Y-77161000D01*
X103378000Y-77161000D01*
X103378000Y-78695250D01*
X103536750Y-78854000D01*
X105442310Y-78854000D01*
X105675699Y-78757327D01*
X105854327Y-78578698D01*
X105951000Y-78345309D01*
X105951000Y-77319750D01*
X105792250Y-77161000D01*
X103378000Y-77161000D01*
X103124000Y-77161000D01*
X100709750Y-77161000D01*
X100551000Y-77319750D01*
X97989000Y-77319750D01*
X97989000Y-76811750D01*
X97830252Y-76653002D01*
X97989000Y-76653002D01*
X97989000Y-76636232D01*
X100551000Y-76592437D01*
X100551000Y-76748250D01*
X100709750Y-76907000D01*
X103124000Y-76907000D01*
X103124000Y-75372750D01*
X103378000Y-75372750D01*
X103378000Y-76907000D01*
X105792250Y-76907000D01*
X105951000Y-76748250D01*
X105951000Y-75722691D01*
X105854327Y-75489302D01*
X105675699Y-75310673D01*
X105442310Y-75214000D01*
X103536750Y-75214000D01*
X103378000Y-75372750D01*
X103124000Y-75372750D01*
X102965250Y-75214000D01*
X101340026Y-75214000D01*
X101327556Y-72626440D01*
X105316000Y-72626440D01*
X105551317Y-72582162D01*
X105767441Y-72443090D01*
X105912431Y-72230890D01*
X105963440Y-71979000D01*
X105963440Y-69609000D01*
X105919162Y-69373683D01*
X105780090Y-69157559D01*
X105567890Y-69012569D01*
X105316000Y-68961560D01*
X104104628Y-68961560D01*
X104581143Y-68866775D01*
X105062792Y-68544948D01*
X105384619Y-68063299D01*
X105497630Y-67495156D01*
X105497630Y-65600844D01*
X105384619Y-65032701D01*
X105062792Y-64551052D01*
X104775000Y-64358756D01*
X104775000Y-63305220D01*
X104893431Y-63131890D01*
X104944440Y-62880000D01*
X104944440Y-61580000D01*
X104900162Y-61344683D01*
X104761090Y-61128559D01*
X104548890Y-60983569D01*
X104297000Y-60932560D01*
X103597000Y-60932560D01*
X103361683Y-60976838D01*
X103145559Y-61115910D01*
X103000569Y-61328110D01*
X102997919Y-61341197D01*
X102861090Y-61128559D01*
X102648890Y-60983569D01*
X102397000Y-60932560D01*
X101697000Y-60932560D01*
X101461683Y-60976838D01*
X101296483Y-61083141D01*
X101271876Y-61072923D01*
X101268940Y-60463690D01*
X101903191Y-59829440D01*
X102489000Y-59829440D01*
X102724317Y-59785162D01*
X102940441Y-59646090D01*
X103051840Y-59483052D01*
X103148182Y-59572385D01*
X103630056Y-59771975D01*
X103886000Y-59652836D01*
X103886000Y-58293000D01*
X104140000Y-58293000D01*
X104140000Y-59652836D01*
X104395944Y-59771975D01*
X104877818Y-59572385D01*
X105350188Y-59134379D01*
X105618983Y-58548946D01*
X105500367Y-58293000D01*
X104140000Y-58293000D01*
X103886000Y-58293000D01*
X103866000Y-58293000D01*
X103866000Y-58039000D01*
X103886000Y-58039000D01*
X103886000Y-56679164D01*
X104140000Y-56679164D01*
X104140000Y-58039000D01*
X105500367Y-58039000D01*
X105618983Y-57783054D01*
X105350188Y-57197621D01*
X104877818Y-56759615D01*
X104395944Y-56560025D01*
X104140000Y-56679164D01*
X103886000Y-56679164D01*
X103630056Y-56560025D01*
X103148182Y-56759615D01*
X103050602Y-56850097D01*
X102953090Y-56698559D01*
X102740890Y-56553569D01*
X102489000Y-56502560D01*
X101249850Y-56502560D01*
X101161736Y-38218895D01*
X101503815Y-37876816D01*
X101668996Y-37629605D01*
X101727000Y-37338000D01*
X101727000Y-36901401D01*
X101806470Y-37024901D01*
X102018670Y-37169891D01*
X102270560Y-37220900D01*
X102845023Y-37220900D01*
X102504239Y-37361709D01*
X101753345Y-38111293D01*
X101346464Y-39091173D01*
X101345538Y-40152172D01*
X101750709Y-41132761D01*
X102500293Y-41883655D01*
X103480173Y-42290536D01*
X104541172Y-42291462D01*
X105521761Y-41886291D01*
X106272655Y-41136707D01*
X106679536Y-40156827D01*
X106680462Y-39095828D01*
X106275291Y-38115239D01*
X105525707Y-37364345D01*
X104545827Y-36957464D01*
X103975941Y-36956967D01*
X104060230Y-36833606D01*
X104252000Y-36872440D01*
X105552000Y-36872440D01*
X105787317Y-36828162D01*
X106003441Y-36689090D01*
X106148431Y-36476890D01*
X106199440Y-36225000D01*
X106199440Y-35525000D01*
X106155162Y-35289683D01*
X106016090Y-35073559D01*
X105803890Y-34928569D01*
X105770510Y-34921809D01*
X105911699Y-34863327D01*
X106090327Y-34684698D01*
X106187000Y-34451309D01*
X106187000Y-34260750D01*
X106028250Y-34102000D01*
X105029000Y-34102000D01*
X105029000Y-34122000D01*
X104775000Y-34122000D01*
X104775000Y-34102000D01*
X104755000Y-34102000D01*
X104755000Y-33848000D01*
X104775000Y-33848000D01*
X104775000Y-33148750D01*
X105029000Y-33148750D01*
X105029000Y-33848000D01*
X106028250Y-33848000D01*
X106187000Y-33689250D01*
X106187000Y-33498691D01*
X106090327Y-33265302D01*
X105911699Y-33086673D01*
X105678310Y-32990000D01*
X105187750Y-32990000D01*
X105029000Y-33148750D01*
X104775000Y-33148750D01*
X104616250Y-32990000D01*
X104125690Y-32990000D01*
X104057750Y-33018142D01*
X103933530Y-32825099D01*
X103721330Y-32680109D01*
X103632000Y-32662019D01*
X103632000Y-31464360D01*
X103916371Y-31180485D01*
X104104785Y-30726734D01*
X104105214Y-30235421D01*
X103917592Y-29781343D01*
X103600803Y-29464000D01*
X104139309Y-29464000D01*
X104372698Y-29367327D01*
X104551327Y-29188699D01*
X104648000Y-28955310D01*
X104648000Y-27844750D01*
X104489250Y-27686000D01*
X102870000Y-27686000D01*
X102870000Y-27706000D01*
X102616000Y-27706000D01*
X102616000Y-27686000D01*
X102596000Y-27686000D01*
X102596000Y-27432000D01*
X102616000Y-27432000D01*
X102616000Y-25812750D01*
X102870000Y-25812750D01*
X102870000Y-27432000D01*
X104489250Y-27432000D01*
X104648000Y-27273250D01*
X104648000Y-26162690D01*
X104551327Y-25929301D01*
X104372698Y-25750673D01*
X104139309Y-25654000D01*
X103028750Y-25654000D01*
X102870000Y-25812750D01*
X102616000Y-25812750D01*
X102457250Y-25654000D01*
X101346691Y-25654000D01*
X101113302Y-25750673D01*
X101101704Y-25762270D01*
X101095980Y-24574500D01*
X107124500Y-24574500D01*
X107124500Y-83463130D01*
X107124500Y-83463130D01*
G37*
X107124500Y-83463130D02*
X105956750Y-83463130D01*
X105798000Y-83621880D01*
X105798000Y-85471000D01*
X105818000Y-85471000D01*
X105818000Y-85725000D01*
X105798000Y-85725000D01*
X105798000Y-87574120D01*
X105956750Y-87732870D01*
X107124500Y-87732870D01*
X107124500Y-92138500D01*
X93213833Y-92138500D01*
X93131534Y-85883750D01*
X103536130Y-85883750D01*
X103536130Y-87224180D01*
X103632803Y-87457569D01*
X103811432Y-87636197D01*
X104044821Y-87732870D01*
X105385250Y-87732870D01*
X105544000Y-87574120D01*
X105544000Y-85725000D01*
X103694880Y-85725000D01*
X103536130Y-85883750D01*
X93131534Y-85883750D01*
X93106378Y-83971820D01*
X103536130Y-83971820D01*
X103536130Y-85312250D01*
X103694880Y-85471000D01*
X105544000Y-85471000D01*
X105544000Y-83621880D01*
X105385250Y-83463130D01*
X104044821Y-83463130D01*
X103811432Y-83559803D01*
X103632803Y-83738431D01*
X103536130Y-83971820D01*
X93106378Y-83971820D01*
X93090989Y-82802329D01*
X93080334Y-82753055D01*
X93051348Y-82711808D01*
X93008598Y-82685088D01*
X92964000Y-82677000D01*
X88787250Y-82677000D01*
X88660250Y-82550000D01*
X87536000Y-82550000D01*
X87536000Y-82570000D01*
X87282000Y-82570000D01*
X87282000Y-82550000D01*
X87262000Y-82550000D01*
X87262000Y-82296000D01*
X87282000Y-82296000D01*
X87282000Y-82276000D01*
X87536000Y-82276000D01*
X87536000Y-82296000D01*
X88660250Y-82296000D01*
X88819000Y-82137250D01*
X88819000Y-81996690D01*
X88774570Y-81889426D01*
X88937605Y-81856996D01*
X89184815Y-81691815D01*
X89979816Y-80896815D01*
X90078834Y-80748623D01*
X90144996Y-80649605D01*
X90203000Y-80358000D01*
X90203000Y-79052440D01*
X90216000Y-79052440D01*
X90451317Y-79008162D01*
X90667441Y-78869090D01*
X90812431Y-78656890D01*
X90863440Y-78405000D01*
X90863440Y-77805000D01*
X90819162Y-77569683D01*
X90765154Y-77485750D01*
X91323000Y-77485750D01*
X91323000Y-77826309D01*
X91419673Y-78059698D01*
X91598301Y-78238327D01*
X91831690Y-78335000D01*
X92297250Y-78335000D01*
X92456000Y-78176250D01*
X92456000Y-77327000D01*
X92710000Y-77327000D01*
X92710000Y-78176250D01*
X92868750Y-78335000D01*
X93334310Y-78335000D01*
X93567699Y-78238327D01*
X93746327Y-78059698D01*
X93843000Y-77826309D01*
X93843000Y-77485750D01*
X93684250Y-77327000D01*
X92710000Y-77327000D01*
X92456000Y-77327000D01*
X91481750Y-77327000D01*
X91323000Y-77485750D01*
X90765154Y-77485750D01*
X90755322Y-77470472D01*
X90812431Y-77386890D01*
X90863440Y-77135000D01*
X90863440Y-76758036D01*
X91323000Y-76750180D01*
X91323000Y-76914250D01*
X91481750Y-77073000D01*
X92456000Y-77073000D01*
X92456000Y-77053000D01*
X92710000Y-77053000D01*
X92710000Y-77073000D01*
X93684250Y-77073000D01*
X93843000Y-76914250D01*
X93843000Y-76707103D01*
X94403223Y-76697527D01*
X94289000Y-76811750D01*
X94289000Y-77837309D01*
X94385673Y-78070698D01*
X94564301Y-78249327D01*
X94797690Y-78346000D01*
X95853250Y-78346000D01*
X96012000Y-78187250D01*
X96012000Y-76670027D01*
X96266000Y-76665685D01*
X96266000Y-78187250D01*
X96424750Y-78346000D01*
X97480310Y-78346000D01*
X97713699Y-78249327D01*
X97892327Y-78070698D01*
X97989000Y-77837309D01*
X97989000Y-77319750D01*
X100551000Y-77319750D01*
X100551000Y-78345309D01*
X100647673Y-78578698D01*
X100826301Y-78757327D01*
X101059690Y-78854000D01*
X102965250Y-78854000D01*
X103124000Y-78695250D01*
X103124000Y-77161000D01*
X103378000Y-77161000D01*
X103378000Y-78695250D01*
X103536750Y-78854000D01*
X105442310Y-78854000D01*
X105675699Y-78757327D01*
X105854327Y-78578698D01*
X105951000Y-78345309D01*
X105951000Y-77319750D01*
X105792250Y-77161000D01*
X103378000Y-77161000D01*
X103124000Y-77161000D01*
X100709750Y-77161000D01*
X100551000Y-77319750D01*
X97989000Y-77319750D01*
X97989000Y-76811750D01*
X97830252Y-76653002D01*
X97989000Y-76653002D01*
X97989000Y-76636232D01*
X100551000Y-76592437D01*
X100551000Y-76748250D01*
X100709750Y-76907000D01*
X103124000Y-76907000D01*
X103124000Y-75372750D01*
X103378000Y-75372750D01*
X103378000Y-76907000D01*
X105792250Y-76907000D01*
X105951000Y-76748250D01*
X105951000Y-75722691D01*
X105854327Y-75489302D01*
X105675699Y-75310673D01*
X105442310Y-75214000D01*
X103536750Y-75214000D01*
X103378000Y-75372750D01*
X103124000Y-75372750D01*
X102965250Y-75214000D01*
X101340026Y-75214000D01*
X101327556Y-72626440D01*
X105316000Y-72626440D01*
X105551317Y-72582162D01*
X105767441Y-72443090D01*
X105912431Y-72230890D01*
X105963440Y-71979000D01*
X105963440Y-69609000D01*
X105919162Y-69373683D01*
X105780090Y-69157559D01*
X105567890Y-69012569D01*
X105316000Y-68961560D01*
X104104628Y-68961560D01*
X104581143Y-68866775D01*
X105062792Y-68544948D01*
X105384619Y-68063299D01*
X105497630Y-67495156D01*
X105497630Y-65600844D01*
X105384619Y-65032701D01*
X105062792Y-64551052D01*
X104775000Y-64358756D01*
X104775000Y-63305220D01*
X104893431Y-63131890D01*
X104944440Y-62880000D01*
X104944440Y-61580000D01*
X104900162Y-61344683D01*
X104761090Y-61128559D01*
X104548890Y-60983569D01*
X104297000Y-60932560D01*
X103597000Y-60932560D01*
X103361683Y-60976838D01*
X103145559Y-61115910D01*
X103000569Y-61328110D01*
X102997919Y-61341197D01*
X102861090Y-61128559D01*
X102648890Y-60983569D01*
X102397000Y-60932560D01*
X101697000Y-60932560D01*
X101461683Y-60976838D01*
X101296483Y-61083141D01*
X101271876Y-61072923D01*
X101268940Y-60463690D01*
X101903191Y-59829440D01*
X102489000Y-59829440D01*
X102724317Y-59785162D01*
X102940441Y-59646090D01*
X103051840Y-59483052D01*
X103148182Y-59572385D01*
X103630056Y-59771975D01*
X103886000Y-59652836D01*
X103886000Y-58293000D01*
X104140000Y-58293000D01*
X104140000Y-59652836D01*
X104395944Y-59771975D01*
X104877818Y-59572385D01*
X105350188Y-59134379D01*
X105618983Y-58548946D01*
X105500367Y-58293000D01*
X104140000Y-58293000D01*
X103886000Y-58293000D01*
X103866000Y-58293000D01*
X103866000Y-58039000D01*
X103886000Y-58039000D01*
X103886000Y-56679164D01*
X104140000Y-56679164D01*
X104140000Y-58039000D01*
X105500367Y-58039000D01*
X105618983Y-57783054D01*
X105350188Y-57197621D01*
X104877818Y-56759615D01*
X104395944Y-56560025D01*
X104140000Y-56679164D01*
X103886000Y-56679164D01*
X103630056Y-56560025D01*
X103148182Y-56759615D01*
X103050602Y-56850097D01*
X102953090Y-56698559D01*
X102740890Y-56553569D01*
X102489000Y-56502560D01*
X101249850Y-56502560D01*
X101161736Y-38218895D01*
X101503815Y-37876816D01*
X101668996Y-37629605D01*
X101727000Y-37338000D01*
X101727000Y-36901401D01*
X101806470Y-37024901D01*
X102018670Y-37169891D01*
X102270560Y-37220900D01*
X102845023Y-37220900D01*
X102504239Y-37361709D01*
X101753345Y-38111293D01*
X101346464Y-39091173D01*
X101345538Y-40152172D01*
X101750709Y-41132761D01*
X102500293Y-41883655D01*
X103480173Y-42290536D01*
X104541172Y-42291462D01*
X105521761Y-41886291D01*
X106272655Y-41136707D01*
X106679536Y-40156827D01*
X106680462Y-39095828D01*
X106275291Y-38115239D01*
X105525707Y-37364345D01*
X104545827Y-36957464D01*
X103975941Y-36956967D01*
X104060230Y-36833606D01*
X104252000Y-36872440D01*
X105552000Y-36872440D01*
X105787317Y-36828162D01*
X106003441Y-36689090D01*
X106148431Y-36476890D01*
X106199440Y-36225000D01*
X106199440Y-35525000D01*
X106155162Y-35289683D01*
X106016090Y-35073559D01*
X105803890Y-34928569D01*
X105770510Y-34921809D01*
X105911699Y-34863327D01*
X106090327Y-34684698D01*
X106187000Y-34451309D01*
X106187000Y-34260750D01*
X106028250Y-34102000D01*
X105029000Y-34102000D01*
X105029000Y-34122000D01*
X104775000Y-34122000D01*
X104775000Y-34102000D01*
X104755000Y-34102000D01*
X104755000Y-33848000D01*
X104775000Y-33848000D01*
X104775000Y-33148750D01*
X105029000Y-33148750D01*
X105029000Y-33848000D01*
X106028250Y-33848000D01*
X106187000Y-33689250D01*
X106187000Y-33498691D01*
X106090327Y-33265302D01*
X105911699Y-33086673D01*
X105678310Y-32990000D01*
X105187750Y-32990000D01*
X105029000Y-33148750D01*
X104775000Y-33148750D01*
X104616250Y-32990000D01*
X104125690Y-32990000D01*
X104057750Y-33018142D01*
X103933530Y-32825099D01*
X103721330Y-32680109D01*
X103632000Y-32662019D01*
X103632000Y-31464360D01*
X103916371Y-31180485D01*
X104104785Y-30726734D01*
X104105214Y-30235421D01*
X103917592Y-29781343D01*
X103600803Y-29464000D01*
X104139309Y-29464000D01*
X104372698Y-29367327D01*
X104551327Y-29188699D01*
X104648000Y-28955310D01*
X104648000Y-27844750D01*
X104489250Y-27686000D01*
X102870000Y-27686000D01*
X102870000Y-27706000D01*
X102616000Y-27706000D01*
X102616000Y-27686000D01*
X102596000Y-27686000D01*
X102596000Y-27432000D01*
X102616000Y-27432000D01*
X102616000Y-25812750D01*
X102870000Y-25812750D01*
X102870000Y-27432000D01*
X104489250Y-27432000D01*
X104648000Y-27273250D01*
X104648000Y-26162690D01*
X104551327Y-25929301D01*
X104372698Y-25750673D01*
X104139309Y-25654000D01*
X103028750Y-25654000D01*
X102870000Y-25812750D01*
X102616000Y-25812750D01*
X102457250Y-25654000D01*
X101346691Y-25654000D01*
X101113302Y-25750673D01*
X101101704Y-25762270D01*
X101095980Y-24574500D01*
X107124500Y-24574500D01*
X107124500Y-83463130D01*
G36*
X70262750Y-75436000D02*
X71338798Y-75436000D01*
X71282215Y-75572266D01*
X71281786Y-76063579D01*
X71469408Y-76517657D01*
X71816515Y-76865371D01*
X71887517Y-76894853D01*
X71724185Y-77058185D01*
X71559004Y-77305395D01*
X71512656Y-77538403D01*
X71434327Y-77349301D01*
X71255698Y-77170673D01*
X71022309Y-77074000D01*
X70831750Y-77074000D01*
X70673000Y-77232750D01*
X70673000Y-78232000D01*
X70693000Y-78232000D01*
X70693000Y-78486000D01*
X70673000Y-78486000D01*
X70673000Y-79485250D01*
X70831750Y-79644000D01*
X71022309Y-79644000D01*
X71255698Y-79547327D01*
X71434327Y-79368699D01*
X71531000Y-79135310D01*
X71531000Y-79017820D01*
X71559004Y-79158605D01*
X71627349Y-79260890D01*
X71724185Y-79405815D01*
X72510930Y-80192560D01*
X72450301Y-80217673D01*
X72271673Y-80396302D01*
X72175000Y-80629691D01*
X72175000Y-80920250D01*
X72333750Y-81079000D01*
X73533000Y-81079000D01*
X73533000Y-81059000D01*
X73787000Y-81059000D01*
X73787000Y-81079000D01*
X73807000Y-81079000D01*
X73807000Y-81333000D01*
X73787000Y-81333000D01*
X73787000Y-82132250D01*
X73945750Y-82291000D01*
X74549000Y-82291000D01*
X74549000Y-82677000D01*
X74559006Y-82726410D01*
X74587447Y-82768035D01*
X74629841Y-82795315D01*
X74676000Y-82804000D01*
X79756000Y-82804000D01*
X79756000Y-83025000D01*
X78771750Y-83025000D01*
X78613000Y-83183750D01*
X78613000Y-84533000D01*
X78633000Y-84533000D01*
X78633000Y-84787000D01*
X78613000Y-84787000D01*
X78613000Y-84807000D01*
X78359000Y-84807000D01*
X78359000Y-84787000D01*
X76759750Y-84787000D01*
X76601000Y-84945750D01*
X76601000Y-85598000D01*
X76454000Y-85598000D01*
X76404590Y-85608006D01*
X76362965Y-85636447D01*
X76335685Y-85678841D01*
X76327000Y-85725000D01*
X76327000Y-92138500D01*
X68199000Y-92138500D01*
X68199000Y-86899750D01*
X69056250Y-86899750D01*
X69056250Y-87940460D01*
X69152923Y-88173849D01*
X69331552Y-88352477D01*
X69564941Y-88449150D01*
X71405750Y-88449150D01*
X71564500Y-88290400D01*
X71564500Y-86741000D01*
X71818500Y-86741000D01*
X71818500Y-88290400D01*
X71977250Y-88449150D01*
X73818059Y-88449150D01*
X74051448Y-88352477D01*
X74230077Y-88173849D01*
X74326750Y-87940460D01*
X74326750Y-86899750D01*
X74168000Y-86741000D01*
X71818500Y-86741000D01*
X71564500Y-86741000D01*
X69215000Y-86741000D01*
X69056250Y-86899750D01*
X68199000Y-86899750D01*
X68199000Y-85287540D01*
X69056250Y-85287540D01*
X69056250Y-86328250D01*
X69215000Y-86487000D01*
X71564500Y-86487000D01*
X71564500Y-84937600D01*
X71818500Y-84937600D01*
X71818500Y-86487000D01*
X74168000Y-86487000D01*
X74326750Y-86328250D01*
X74326750Y-85287540D01*
X74230077Y-85054151D01*
X74051448Y-84875523D01*
X73818059Y-84778850D01*
X71977250Y-84778850D01*
X71818500Y-84937600D01*
X71564500Y-84937600D01*
X71405750Y-84778850D01*
X69564941Y-84778850D01*
X69331552Y-84875523D01*
X69152923Y-85054151D01*
X69056250Y-85287540D01*
X68199000Y-85287540D01*
X68199000Y-83533691D01*
X76601000Y-83533691D01*
X76601000Y-84374250D01*
X76759750Y-84533000D01*
X78359000Y-84533000D01*
X78359000Y-83183750D01*
X78200250Y-83025000D01*
X77109690Y-83025000D01*
X76876301Y-83121673D01*
X76697673Y-83300302D01*
X76601000Y-83533691D01*
X68199000Y-83533691D01*
X68199000Y-81491750D01*
X72175000Y-81491750D01*
X72175000Y-81782309D01*
X72271673Y-82015698D01*
X72450301Y-82194327D01*
X72683690Y-82291000D01*
X73374250Y-82291000D01*
X73533000Y-82132250D01*
X73533000Y-81333000D01*
X72333750Y-81333000D01*
X72175000Y-81491750D01*
X68199000Y-81491750D01*
X68199000Y-80232581D01*
X68356371Y-80075485D01*
X68530374Y-79656440D01*
X68996000Y-79656440D01*
X69231317Y-79612162D01*
X69447441Y-79473090D01*
X69592431Y-79260890D01*
X69599191Y-79227510D01*
X69657673Y-79368699D01*
X69836302Y-79547327D01*
X70069691Y-79644000D01*
X70260250Y-79644000D01*
X70419000Y-79485250D01*
X70419000Y-78486000D01*
X70399000Y-78486000D01*
X70399000Y-78232000D01*
X70419000Y-78232000D01*
X70419000Y-77232750D01*
X70261000Y-77074750D01*
X70261000Y-76612750D01*
X70102250Y-76454000D01*
X69403000Y-76454000D01*
X69403000Y-76474000D01*
X69149000Y-76474000D01*
X69149000Y-76454000D01*
X69129000Y-76454000D01*
X69129000Y-76200000D01*
X69149000Y-76200000D01*
X69149000Y-76180000D01*
X69403000Y-76180000D01*
X69403000Y-76200000D01*
X70102250Y-76200000D01*
X70261000Y-76041250D01*
X70261000Y-75550690D01*
X70178664Y-75351914D01*
X70262750Y-75436000D01*
X70262750Y-75436000D01*
G37*
X70262750Y-75436000D02*
X71338798Y-75436000D01*
X71282215Y-75572266D01*
X71281786Y-76063579D01*
X71469408Y-76517657D01*
X71816515Y-76865371D01*
X71887517Y-76894853D01*
X71724185Y-77058185D01*
X71559004Y-77305395D01*
X71512656Y-77538403D01*
X71434327Y-77349301D01*
X71255698Y-77170673D01*
X71022309Y-77074000D01*
X70831750Y-77074000D01*
X70673000Y-77232750D01*
X70673000Y-78232000D01*
X70693000Y-78232000D01*
X70693000Y-78486000D01*
X70673000Y-78486000D01*
X70673000Y-79485250D01*
X70831750Y-79644000D01*
X71022309Y-79644000D01*
X71255698Y-79547327D01*
X71434327Y-79368699D01*
X71531000Y-79135310D01*
X71531000Y-79017820D01*
X71559004Y-79158605D01*
X71627349Y-79260890D01*
X71724185Y-79405815D01*
X72510930Y-80192560D01*
X72450301Y-80217673D01*
X72271673Y-80396302D01*
X72175000Y-80629691D01*
X72175000Y-80920250D01*
X72333750Y-81079000D01*
X73533000Y-81079000D01*
X73533000Y-81059000D01*
X73787000Y-81059000D01*
X73787000Y-81079000D01*
X73807000Y-81079000D01*
X73807000Y-81333000D01*
X73787000Y-81333000D01*
X73787000Y-82132250D01*
X73945750Y-82291000D01*
X74549000Y-82291000D01*
X74549000Y-82677000D01*
X74559006Y-82726410D01*
X74587447Y-82768035D01*
X74629841Y-82795315D01*
X74676000Y-82804000D01*
X79756000Y-82804000D01*
X79756000Y-83025000D01*
X78771750Y-83025000D01*
X78613000Y-83183750D01*
X78613000Y-84533000D01*
X78633000Y-84533000D01*
X78633000Y-84787000D01*
X78613000Y-84787000D01*
X78613000Y-84807000D01*
X78359000Y-84807000D01*
X78359000Y-84787000D01*
X76759750Y-84787000D01*
X76601000Y-84945750D01*
X76601000Y-85598000D01*
X76454000Y-85598000D01*
X76404590Y-85608006D01*
X76362965Y-85636447D01*
X76335685Y-85678841D01*
X76327000Y-85725000D01*
X76327000Y-92138500D01*
X68199000Y-92138500D01*
X68199000Y-86899750D01*
X69056250Y-86899750D01*
X69056250Y-87940460D01*
X69152923Y-88173849D01*
X69331552Y-88352477D01*
X69564941Y-88449150D01*
X71405750Y-88449150D01*
X71564500Y-88290400D01*
X71564500Y-86741000D01*
X71818500Y-86741000D01*
X71818500Y-88290400D01*
X71977250Y-88449150D01*
X73818059Y-88449150D01*
X74051448Y-88352477D01*
X74230077Y-88173849D01*
X74326750Y-87940460D01*
X74326750Y-86899750D01*
X74168000Y-86741000D01*
X71818500Y-86741000D01*
X71564500Y-86741000D01*
X69215000Y-86741000D01*
X69056250Y-86899750D01*
X68199000Y-86899750D01*
X68199000Y-85287540D01*
X69056250Y-85287540D01*
X69056250Y-86328250D01*
X69215000Y-86487000D01*
X71564500Y-86487000D01*
X71564500Y-84937600D01*
X71818500Y-84937600D01*
X71818500Y-86487000D01*
X74168000Y-86487000D01*
X74326750Y-86328250D01*
X74326750Y-85287540D01*
X74230077Y-85054151D01*
X74051448Y-84875523D01*
X73818059Y-84778850D01*
X71977250Y-84778850D01*
X71818500Y-84937600D01*
X71564500Y-84937600D01*
X71405750Y-84778850D01*
X69564941Y-84778850D01*
X69331552Y-84875523D01*
X69152923Y-85054151D01*
X69056250Y-85287540D01*
X68199000Y-85287540D01*
X68199000Y-83533691D01*
X76601000Y-83533691D01*
X76601000Y-84374250D01*
X76759750Y-84533000D01*
X78359000Y-84533000D01*
X78359000Y-83183750D01*
X78200250Y-83025000D01*
X77109690Y-83025000D01*
X76876301Y-83121673D01*
X76697673Y-83300302D01*
X76601000Y-83533691D01*
X68199000Y-83533691D01*
X68199000Y-81491750D01*
X72175000Y-81491750D01*
X72175000Y-81782309D01*
X72271673Y-82015698D01*
X72450301Y-82194327D01*
X72683690Y-82291000D01*
X73374250Y-82291000D01*
X73533000Y-82132250D01*
X73533000Y-81333000D01*
X72333750Y-81333000D01*
X72175000Y-81491750D01*
X68199000Y-81491750D01*
X68199000Y-80232581D01*
X68356371Y-80075485D01*
X68530374Y-79656440D01*
X68996000Y-79656440D01*
X69231317Y-79612162D01*
X69447441Y-79473090D01*
X69592431Y-79260890D01*
X69599191Y-79227510D01*
X69657673Y-79368699D01*
X69836302Y-79547327D01*
X70069691Y-79644000D01*
X70260250Y-79644000D01*
X70419000Y-79485250D01*
X70419000Y-78486000D01*
X70399000Y-78486000D01*
X70399000Y-78232000D01*
X70419000Y-78232000D01*
X70419000Y-77232750D01*
X70261000Y-77074750D01*
X70261000Y-76612750D01*
X70102250Y-76454000D01*
X69403000Y-76454000D01*
X69403000Y-76474000D01*
X69149000Y-76474000D01*
X69149000Y-76454000D01*
X69129000Y-76454000D01*
X69129000Y-76200000D01*
X69149000Y-76200000D01*
X69149000Y-76180000D01*
X69403000Y-76180000D01*
X69403000Y-76200000D01*
X70102250Y-76200000D01*
X70261000Y-76041250D01*
X70261000Y-75550690D01*
X70178664Y-75351914D01*
X70262750Y-75436000D01*
G36*
X70104000Y-74174000D02*
X70124000Y-74174000D01*
X70124000Y-74428000D01*
X70104000Y-74428000D01*
X70104000Y-74448000D01*
X69850000Y-74448000D01*
X69850000Y-74428000D01*
X69830000Y-74428000D01*
X69830000Y-74174000D01*
X69850000Y-74174000D01*
X69850000Y-74154000D01*
X70104000Y-74154000D01*
X70104000Y-74174000D01*
X70104000Y-74174000D01*
G37*
X70104000Y-74174000D02*
X70124000Y-74174000D01*
X70124000Y-74428000D01*
X70104000Y-74428000D01*
X70104000Y-74448000D01*
X69850000Y-74448000D01*
X69850000Y-74428000D01*
X69830000Y-74428000D01*
X69830000Y-74174000D01*
X69850000Y-74174000D01*
X69850000Y-74154000D01*
X70104000Y-74154000D01*
X70104000Y-74174000D01*
G36*
X90798000Y-85471000D02*
X90818000Y-85471000D01*
X90818000Y-85725000D01*
X90798000Y-85725000D01*
X90798000Y-87574120D01*
X90956750Y-87732870D01*
X91948000Y-87732870D01*
X91948000Y-92138500D01*
X77089000Y-92138500D01*
X77089000Y-89686430D01*
X77109690Y-89695000D01*
X78200250Y-89695000D01*
X78359000Y-89536250D01*
X78359000Y-88187000D01*
X78339000Y-88187000D01*
X78339000Y-87933000D01*
X78359000Y-87933000D01*
X78359000Y-87913000D01*
X78613000Y-87913000D01*
X78613000Y-87933000D01*
X78633000Y-87933000D01*
X78633000Y-88187000D01*
X78613000Y-88187000D01*
X78613000Y-89536250D01*
X78771750Y-89695000D01*
X79756000Y-89695000D01*
X79756000Y-90551000D01*
X79766006Y-90600410D01*
X79794447Y-90642035D01*
X79836841Y-90669315D01*
X79883000Y-90678000D01*
X83693000Y-90678000D01*
X83742410Y-90667994D01*
X83784035Y-90639553D01*
X83811315Y-90597159D01*
X83820000Y-90551000D01*
X83820000Y-90090148D01*
X84258190Y-90331649D01*
X84352168Y-90352540D01*
X84582000Y-90231214D01*
X84582000Y-88138000D01*
X84562000Y-88138000D01*
X84562000Y-87884000D01*
X84582000Y-87884000D01*
X84582000Y-87864000D01*
X84836000Y-87864000D01*
X84836000Y-87884000D01*
X84856000Y-87884000D01*
X84856000Y-88138000D01*
X84836000Y-88138000D01*
X84836000Y-90231214D01*
X85065832Y-90352540D01*
X85159810Y-90331649D01*
X85598000Y-90090148D01*
X85598000Y-90551000D01*
X85608006Y-90600410D01*
X85636447Y-90642035D01*
X85678841Y-90669315D01*
X85725000Y-90678000D01*
X88900000Y-90678000D01*
X88949410Y-90667994D01*
X88991035Y-90639553D01*
X89018315Y-90597159D01*
X89027000Y-90551000D01*
X89027000Y-87725488D01*
X89044821Y-87732870D01*
X90385250Y-87732870D01*
X90544000Y-87574120D01*
X90544000Y-85725000D01*
X90524000Y-85725000D01*
X90524000Y-85471000D01*
X90544000Y-85471000D01*
X90544000Y-85451000D01*
X90798000Y-85451000D01*
X90798000Y-85471000D01*
X90798000Y-85471000D01*
G37*
X90798000Y-85471000D02*
X90818000Y-85471000D01*
X90818000Y-85725000D01*
X90798000Y-85725000D01*
X90798000Y-87574120D01*
X90956750Y-87732870D01*
X91948000Y-87732870D01*
X91948000Y-92138500D01*
X77089000Y-92138500D01*
X77089000Y-89686430D01*
X77109690Y-89695000D01*
X78200250Y-89695000D01*
X78359000Y-89536250D01*
X78359000Y-88187000D01*
X78339000Y-88187000D01*
X78339000Y-87933000D01*
X78359000Y-87933000D01*
X78359000Y-87913000D01*
X78613000Y-87913000D01*
X78613000Y-87933000D01*
X78633000Y-87933000D01*
X78633000Y-88187000D01*
X78613000Y-88187000D01*
X78613000Y-89536250D01*
X78771750Y-89695000D01*
X79756000Y-89695000D01*
X79756000Y-90551000D01*
X79766006Y-90600410D01*
X79794447Y-90642035D01*
X79836841Y-90669315D01*
X79883000Y-90678000D01*
X83693000Y-90678000D01*
X83742410Y-90667994D01*
X83784035Y-90639553D01*
X83811315Y-90597159D01*
X83820000Y-90551000D01*
X83820000Y-90090148D01*
X84258190Y-90331649D01*
X84352168Y-90352540D01*
X84582000Y-90231214D01*
X84582000Y-88138000D01*
X84562000Y-88138000D01*
X84562000Y-87884000D01*
X84582000Y-87884000D01*
X84582000Y-87864000D01*
X84836000Y-87864000D01*
X84836000Y-87884000D01*
X84856000Y-87884000D01*
X84856000Y-88138000D01*
X84836000Y-88138000D01*
X84836000Y-90231214D01*
X85065832Y-90352540D01*
X85159810Y-90331649D01*
X85598000Y-90090148D01*
X85598000Y-90551000D01*
X85608006Y-90600410D01*
X85636447Y-90642035D01*
X85678841Y-90669315D01*
X85725000Y-90678000D01*
X88900000Y-90678000D01*
X88949410Y-90667994D01*
X88991035Y-90639553D01*
X89018315Y-90597159D01*
X89027000Y-90551000D01*
X89027000Y-87725488D01*
X89044821Y-87732870D01*
X90385250Y-87732870D01*
X90544000Y-87574120D01*
X90544000Y-85725000D01*
X90524000Y-85725000D01*
X90524000Y-85471000D01*
X90544000Y-85471000D01*
X90544000Y-85451000D01*
X90798000Y-85451000D01*
X90798000Y-85471000D01*
G36*
X80586560Y-81453000D02*
X80630838Y-81688317D01*
X80694678Y-81787528D01*
X80637569Y-81871110D01*
X80586560Y-82123000D01*
X80586560Y-82723000D01*
X80630838Y-82958317D01*
X80689178Y-83048980D01*
X80599000Y-83266690D01*
X80599000Y-83407250D01*
X80757750Y-83566000D01*
X81882000Y-83566000D01*
X81882000Y-83546000D01*
X82136000Y-83546000D01*
X82136000Y-83566000D01*
X82156000Y-83566000D01*
X82156000Y-83820000D01*
X82136000Y-83820000D01*
X82136000Y-84469250D01*
X82294750Y-84628000D01*
X82910309Y-84628000D01*
X83058000Y-84566824D01*
X83058000Y-85931852D01*
X82619810Y-85690351D01*
X82525832Y-85669460D01*
X82296000Y-85790786D01*
X82296000Y-87884000D01*
X82316000Y-87884000D01*
X82316000Y-88138000D01*
X82296000Y-88138000D01*
X82296000Y-88158000D01*
X82042000Y-88158000D01*
X82042000Y-88138000D01*
X80684370Y-88138000D01*
X80684370Y-89038430D01*
X80845982Y-89596906D01*
X80999545Y-89789000D01*
X80518000Y-89789000D01*
X80518000Y-86983570D01*
X80684370Y-86983570D01*
X80684370Y-87884000D01*
X82042000Y-87884000D01*
X82042000Y-85790786D01*
X81812168Y-85669460D01*
X81718190Y-85690351D01*
X81209011Y-85970976D01*
X80845982Y-86425094D01*
X80684370Y-86983570D01*
X80518000Y-86983570D01*
X80518000Y-83978750D01*
X80599000Y-83978750D01*
X80599000Y-84119310D01*
X80695673Y-84352699D01*
X80874302Y-84531327D01*
X81107691Y-84628000D01*
X81723250Y-84628000D01*
X81882000Y-84469250D01*
X81882000Y-83820000D01*
X80757750Y-83820000D01*
X80599000Y-83978750D01*
X80518000Y-83978750D01*
X80518000Y-82169000D01*
X80507994Y-82119590D01*
X80479553Y-82077965D01*
X80437159Y-82050685D01*
X80391000Y-82042000D01*
X79109729Y-82042000D01*
X79197000Y-81831309D01*
X79197000Y-81490750D01*
X79038250Y-81332000D01*
X77089000Y-81332000D01*
X77089000Y-81352000D01*
X76835000Y-81352000D01*
X76835000Y-81332000D01*
X76815000Y-81332000D01*
X76815000Y-81078000D01*
X76835000Y-81078000D01*
X76835000Y-81058000D01*
X77089000Y-81058000D01*
X77089000Y-81078000D01*
X79038250Y-81078000D01*
X79197000Y-80919250D01*
X79197000Y-80875087D01*
X79258000Y-80887440D01*
X80508000Y-80887440D01*
X80586560Y-80872658D01*
X80586560Y-81453000D01*
X80586560Y-81453000D01*
G37*
X80586560Y-81453000D02*
X80630838Y-81688317D01*
X80694678Y-81787528D01*
X80637569Y-81871110D01*
X80586560Y-82123000D01*
X80586560Y-82723000D01*
X80630838Y-82958317D01*
X80689178Y-83048980D01*
X80599000Y-83266690D01*
X80599000Y-83407250D01*
X80757750Y-83566000D01*
X81882000Y-83566000D01*
X81882000Y-83546000D01*
X82136000Y-83546000D01*
X82136000Y-83566000D01*
X82156000Y-83566000D01*
X82156000Y-83820000D01*
X82136000Y-83820000D01*
X82136000Y-84469250D01*
X82294750Y-84628000D01*
X82910309Y-84628000D01*
X83058000Y-84566824D01*
X83058000Y-85931852D01*
X82619810Y-85690351D01*
X82525832Y-85669460D01*
X82296000Y-85790786D01*
X82296000Y-87884000D01*
X82316000Y-87884000D01*
X82316000Y-88138000D01*
X82296000Y-88138000D01*
X82296000Y-88158000D01*
X82042000Y-88158000D01*
X82042000Y-88138000D01*
X80684370Y-88138000D01*
X80684370Y-89038430D01*
X80845982Y-89596906D01*
X80999545Y-89789000D01*
X80518000Y-89789000D01*
X80518000Y-86983570D01*
X80684370Y-86983570D01*
X80684370Y-87884000D01*
X82042000Y-87884000D01*
X82042000Y-85790786D01*
X81812168Y-85669460D01*
X81718190Y-85690351D01*
X81209011Y-85970976D01*
X80845982Y-86425094D01*
X80684370Y-86983570D01*
X80518000Y-86983570D01*
X80518000Y-83978750D01*
X80599000Y-83978750D01*
X80599000Y-84119310D01*
X80695673Y-84352699D01*
X80874302Y-84531327D01*
X81107691Y-84628000D01*
X81723250Y-84628000D01*
X81882000Y-84469250D01*
X81882000Y-83820000D01*
X80757750Y-83820000D01*
X80599000Y-83978750D01*
X80518000Y-83978750D01*
X80518000Y-82169000D01*
X80507994Y-82119590D01*
X80479553Y-82077965D01*
X80437159Y-82050685D01*
X80391000Y-82042000D01*
X79109729Y-82042000D01*
X79197000Y-81831309D01*
X79197000Y-81490750D01*
X79038250Y-81332000D01*
X77089000Y-81332000D01*
X77089000Y-81352000D01*
X76835000Y-81352000D01*
X76835000Y-81332000D01*
X76815000Y-81332000D01*
X76815000Y-81078000D01*
X76835000Y-81078000D01*
X76835000Y-81058000D01*
X77089000Y-81058000D01*
X77089000Y-81078000D01*
X79038250Y-81078000D01*
X79197000Y-80919250D01*
X79197000Y-80875087D01*
X79258000Y-80887440D01*
X80508000Y-80887440D01*
X80586560Y-80872658D01*
X80586560Y-81453000D01*
G36*
X86157750Y-83543000D02*
X87036000Y-83543000D01*
X87036000Y-83439000D01*
X87782000Y-83439000D01*
X87782000Y-83543000D01*
X87802000Y-83543000D01*
X87802000Y-83843000D01*
X87782000Y-83843000D01*
X87782000Y-84469250D01*
X87940750Y-84628000D01*
X88138000Y-84628000D01*
X88138000Y-85890212D01*
X88035041Y-85797028D01*
X87842206Y-85749602D01*
X87622000Y-85838238D01*
X87622000Y-87638000D01*
X87642000Y-87638000D01*
X87642000Y-88384000D01*
X87622000Y-88384000D01*
X87622000Y-88404000D01*
X86876000Y-88404000D01*
X86876000Y-88384000D01*
X86856000Y-88384000D01*
X86856000Y-87638000D01*
X86876000Y-87638000D01*
X86876000Y-85838238D01*
X86655794Y-85749602D01*
X86462959Y-85797028D01*
X86360000Y-85890212D01*
X86360000Y-85090000D01*
X86349994Y-85040590D01*
X86321553Y-84998965D01*
X86279159Y-84971685D01*
X86233000Y-84963000D01*
X83820000Y-84963000D01*
X83820000Y-84001750D01*
X85999000Y-84001750D01*
X85999000Y-84119310D01*
X86095673Y-84352699D01*
X86274302Y-84531327D01*
X86507691Y-84628000D01*
X86877250Y-84628000D01*
X87036000Y-84469250D01*
X87036000Y-83843000D01*
X86157750Y-83843000D01*
X85999000Y-84001750D01*
X83820000Y-84001750D01*
X83820000Y-83439000D01*
X86053750Y-83439000D01*
X86157750Y-83543000D01*
X86157750Y-83543000D01*
G37*
X86157750Y-83543000D02*
X87036000Y-83543000D01*
X87036000Y-83439000D01*
X87782000Y-83439000D01*
X87782000Y-83543000D01*
X87802000Y-83543000D01*
X87802000Y-83843000D01*
X87782000Y-83843000D01*
X87782000Y-84469250D01*
X87940750Y-84628000D01*
X88138000Y-84628000D01*
X88138000Y-85890212D01*
X88035041Y-85797028D01*
X87842206Y-85749602D01*
X87622000Y-85838238D01*
X87622000Y-87638000D01*
X87642000Y-87638000D01*
X87642000Y-88384000D01*
X87622000Y-88384000D01*
X87622000Y-88404000D01*
X86876000Y-88404000D01*
X86876000Y-88384000D01*
X86856000Y-88384000D01*
X86856000Y-87638000D01*
X86876000Y-87638000D01*
X86876000Y-85838238D01*
X86655794Y-85749602D01*
X86462959Y-85797028D01*
X86360000Y-85890212D01*
X86360000Y-85090000D01*
X86349994Y-85040590D01*
X86321553Y-84998965D01*
X86279159Y-84971685D01*
X86233000Y-84963000D01*
X83820000Y-84963000D01*
X83820000Y-84001750D01*
X85999000Y-84001750D01*
X85999000Y-84119310D01*
X86095673Y-84352699D01*
X86274302Y-84531327D01*
X86507691Y-84628000D01*
X86877250Y-84628000D01*
X87036000Y-84469250D01*
X87036000Y-83843000D01*
X86157750Y-83843000D01*
X85999000Y-84001750D01*
X83820000Y-84001750D01*
X83820000Y-83439000D01*
X86053750Y-83439000D01*
X86157750Y-83543000D01*
G36*
X46162515Y-78643371D02*
X46616266Y-78831785D01*
X46846407Y-78831986D01*
X47187208Y-79172787D01*
X47187210Y-79172790D01*
X47474325Y-79364633D01*
X47507928Y-79371317D01*
X47813000Y-79432001D01*
X47813005Y-79432000D01*
X60083117Y-79432000D01*
X59967569Y-79601110D01*
X59916560Y-79853000D01*
X59916560Y-80553000D01*
X59960838Y-80788317D01*
X60099910Y-81004441D01*
X60312110Y-81149431D01*
X60345490Y-81156191D01*
X60204301Y-81214673D01*
X60025673Y-81393302D01*
X59929000Y-81626691D01*
X59929000Y-81817250D01*
X60087750Y-81976000D01*
X61087000Y-81976000D01*
X61087000Y-81956000D01*
X61341000Y-81956000D01*
X61341000Y-81976000D01*
X62340250Y-81976000D01*
X62499000Y-81817250D01*
X62499000Y-81626691D01*
X62402327Y-81393302D01*
X62223699Y-81214673D01*
X62087713Y-81158346D01*
X62099317Y-81156162D01*
X62315441Y-81017090D01*
X62460431Y-80804890D01*
X62511440Y-80553000D01*
X62511440Y-80391000D01*
X63582560Y-80391000D01*
X63582560Y-81186000D01*
X63626838Y-81421317D01*
X63765910Y-81637441D01*
X63978110Y-81782431D01*
X64230000Y-81833440D01*
X64630000Y-81833440D01*
X64759589Y-81809056D01*
X64880000Y-81833440D01*
X65280000Y-81833440D01*
X65409589Y-81809056D01*
X65530000Y-81833440D01*
X65930000Y-81833440D01*
X66035705Y-81813550D01*
X66053691Y-81821000D01*
X66121250Y-81821000D01*
X66150254Y-81791996D01*
X66165317Y-81789162D01*
X66381441Y-81650090D01*
X66480000Y-81505844D01*
X66480000Y-81662250D01*
X66638750Y-81821000D01*
X66706309Y-81821000D01*
X66939698Y-81724327D01*
X67118327Y-81545699D01*
X67215000Y-81312310D01*
X67215000Y-80871750D01*
X67056252Y-80713002D01*
X67215000Y-80713002D01*
X67215000Y-80609917D01*
X67437000Y-80610111D01*
X67437000Y-92138500D01*
X43432130Y-92138500D01*
X45877815Y-89692815D01*
X46042996Y-89445605D01*
X46050476Y-89408000D01*
X46101000Y-89154000D01*
X46101000Y-86899750D01*
X61055250Y-86899750D01*
X61055250Y-87940460D01*
X61151923Y-88173849D01*
X61330552Y-88352477D01*
X61563941Y-88449150D01*
X63404750Y-88449150D01*
X63563500Y-88290400D01*
X63563500Y-86741000D01*
X63817500Y-86741000D01*
X63817500Y-88290400D01*
X63976250Y-88449150D01*
X65817059Y-88449150D01*
X66050448Y-88352477D01*
X66229077Y-88173849D01*
X66325750Y-87940460D01*
X66325750Y-86899750D01*
X66167000Y-86741000D01*
X63817500Y-86741000D01*
X63563500Y-86741000D01*
X61214000Y-86741000D01*
X61055250Y-86899750D01*
X46101000Y-86899750D01*
X46101000Y-85287540D01*
X61055250Y-85287540D01*
X61055250Y-86328250D01*
X61214000Y-86487000D01*
X63563500Y-86487000D01*
X63563500Y-84937600D01*
X63817500Y-84937600D01*
X63817500Y-86487000D01*
X66167000Y-86487000D01*
X66325750Y-86328250D01*
X66325750Y-85287540D01*
X66229077Y-85054151D01*
X66050448Y-84875523D01*
X65817059Y-84778850D01*
X63976250Y-84778850D01*
X63817500Y-84937600D01*
X63563500Y-84937600D01*
X63404750Y-84778850D01*
X61563941Y-84778850D01*
X61330552Y-84875523D01*
X61151923Y-85054151D01*
X61055250Y-85287540D01*
X46101000Y-85287540D01*
X46101000Y-82388750D01*
X59929000Y-82388750D01*
X59929000Y-82579309D01*
X60025673Y-82812698D01*
X60204301Y-82991327D01*
X60437690Y-83088000D01*
X60928250Y-83088000D01*
X61087000Y-82929250D01*
X61087000Y-82230000D01*
X61341000Y-82230000D01*
X61341000Y-82929250D01*
X61499750Y-83088000D01*
X61990310Y-83088000D01*
X62223699Y-82991327D01*
X62402327Y-82812698D01*
X62499000Y-82579309D01*
X62499000Y-82388750D01*
X62340250Y-82230000D01*
X61341000Y-82230000D01*
X61087000Y-82230000D01*
X60087750Y-82230000D01*
X59929000Y-82388750D01*
X46101000Y-82388750D01*
X46101000Y-78581748D01*
X46162515Y-78643371D01*
X46162515Y-78643371D01*
G37*
X46162515Y-78643371D02*
X46616266Y-78831785D01*
X46846407Y-78831986D01*
X47187208Y-79172787D01*
X47187210Y-79172790D01*
X47474325Y-79364633D01*
X47507928Y-79371317D01*
X47813000Y-79432001D01*
X47813005Y-79432000D01*
X60083117Y-79432000D01*
X59967569Y-79601110D01*
X59916560Y-79853000D01*
X59916560Y-80553000D01*
X59960838Y-80788317D01*
X60099910Y-81004441D01*
X60312110Y-81149431D01*
X60345490Y-81156191D01*
X60204301Y-81214673D01*
X60025673Y-81393302D01*
X59929000Y-81626691D01*
X59929000Y-81817250D01*
X60087750Y-81976000D01*
X61087000Y-81976000D01*
X61087000Y-81956000D01*
X61341000Y-81956000D01*
X61341000Y-81976000D01*
X62340250Y-81976000D01*
X62499000Y-81817250D01*
X62499000Y-81626691D01*
X62402327Y-81393302D01*
X62223699Y-81214673D01*
X62087713Y-81158346D01*
X62099317Y-81156162D01*
X62315441Y-81017090D01*
X62460431Y-80804890D01*
X62511440Y-80553000D01*
X62511440Y-80391000D01*
X63582560Y-80391000D01*
X63582560Y-81186000D01*
X63626838Y-81421317D01*
X63765910Y-81637441D01*
X63978110Y-81782431D01*
X64230000Y-81833440D01*
X64630000Y-81833440D01*
X64759589Y-81809056D01*
X64880000Y-81833440D01*
X65280000Y-81833440D01*
X65409589Y-81809056D01*
X65530000Y-81833440D01*
X65930000Y-81833440D01*
X66035705Y-81813550D01*
X66053691Y-81821000D01*
X66121250Y-81821000D01*
X66150254Y-81791996D01*
X66165317Y-81789162D01*
X66381441Y-81650090D01*
X66480000Y-81505844D01*
X66480000Y-81662250D01*
X66638750Y-81821000D01*
X66706309Y-81821000D01*
X66939698Y-81724327D01*
X67118327Y-81545699D01*
X67215000Y-81312310D01*
X67215000Y-80871750D01*
X67056252Y-80713002D01*
X67215000Y-80713002D01*
X67215000Y-80609917D01*
X67437000Y-80610111D01*
X67437000Y-92138500D01*
X43432130Y-92138500D01*
X45877815Y-89692815D01*
X46042996Y-89445605D01*
X46050476Y-89408000D01*
X46101000Y-89154000D01*
X46101000Y-86899750D01*
X61055250Y-86899750D01*
X61055250Y-87940460D01*
X61151923Y-88173849D01*
X61330552Y-88352477D01*
X61563941Y-88449150D01*
X63404750Y-88449150D01*
X63563500Y-88290400D01*
X63563500Y-86741000D01*
X63817500Y-86741000D01*
X63817500Y-88290400D01*
X63976250Y-88449150D01*
X65817059Y-88449150D01*
X66050448Y-88352477D01*
X66229077Y-88173849D01*
X66325750Y-87940460D01*
X66325750Y-86899750D01*
X66167000Y-86741000D01*
X63817500Y-86741000D01*
X63563500Y-86741000D01*
X61214000Y-86741000D01*
X61055250Y-86899750D01*
X46101000Y-86899750D01*
X46101000Y-85287540D01*
X61055250Y-85287540D01*
X61055250Y-86328250D01*
X61214000Y-86487000D01*
X63563500Y-86487000D01*
X63563500Y-84937600D01*
X63817500Y-84937600D01*
X63817500Y-86487000D01*
X66167000Y-86487000D01*
X66325750Y-86328250D01*
X66325750Y-85287540D01*
X66229077Y-85054151D01*
X66050448Y-84875523D01*
X65817059Y-84778850D01*
X63976250Y-84778850D01*
X63817500Y-84937600D01*
X63563500Y-84937600D01*
X63404750Y-84778850D01*
X61563941Y-84778850D01*
X61330552Y-84875523D01*
X61151923Y-85054151D01*
X61055250Y-85287540D01*
X46101000Y-85287540D01*
X46101000Y-82388750D01*
X59929000Y-82388750D01*
X59929000Y-82579309D01*
X60025673Y-82812698D01*
X60204301Y-82991327D01*
X60437690Y-83088000D01*
X60928250Y-83088000D01*
X61087000Y-82929250D01*
X61087000Y-82230000D01*
X61341000Y-82230000D01*
X61341000Y-82929250D01*
X61499750Y-83088000D01*
X61990310Y-83088000D01*
X62223699Y-82991327D01*
X62402327Y-82812698D01*
X62499000Y-82579309D01*
X62499000Y-82388750D01*
X62340250Y-82230000D01*
X61341000Y-82230000D01*
X61087000Y-82230000D01*
X60087750Y-82230000D01*
X59929000Y-82388750D01*
X46101000Y-82388750D01*
X46101000Y-78581748D01*
X46162515Y-78643371D01*
G36*
X27244000Y-70231000D02*
X27264000Y-70231000D01*
X27264000Y-70485000D01*
X27244000Y-70485000D01*
X27244000Y-71484250D01*
X27402750Y-71643000D01*
X27593309Y-71643000D01*
X27826698Y-71546327D01*
X28005327Y-71367699D01*
X28061654Y-71231713D01*
X28063838Y-71243317D01*
X28202910Y-71459441D01*
X28415110Y-71604431D01*
X28667000Y-71655440D01*
X29236810Y-71655440D01*
X30770205Y-73188835D01*
X30710154Y-73333453D01*
X30709586Y-73983694D01*
X30957898Y-74584655D01*
X31417287Y-75044846D01*
X32017813Y-75294206D01*
X32668054Y-75294774D01*
X33147000Y-75096878D01*
X33147000Y-76993696D01*
X32831485Y-76677629D01*
X32377734Y-76489215D01*
X31886421Y-76488786D01*
X31476440Y-76658187D01*
X31476440Y-76474000D01*
X31432162Y-76238683D01*
X31293090Y-76022559D01*
X31080890Y-75877569D01*
X30829000Y-75826560D01*
X29829000Y-75826560D01*
X29593683Y-75870838D01*
X29377559Y-76009910D01*
X29232569Y-76222110D01*
X29181560Y-76474000D01*
X29181560Y-78974000D01*
X29225838Y-79209317D01*
X29364910Y-79425441D01*
X29577110Y-79570431D01*
X29829000Y-79621440D01*
X30829000Y-79621440D01*
X31064317Y-79577162D01*
X31280441Y-79438090D01*
X31425431Y-79225890D01*
X31476440Y-78974000D01*
X31476440Y-78789441D01*
X31884266Y-78958785D01*
X32104392Y-78958977D01*
X31141000Y-79922370D01*
X30421844Y-79922370D01*
X29853701Y-80035381D01*
X29372052Y-80357208D01*
X29050225Y-80838857D01*
X28937214Y-81407000D01*
X29038262Y-81915000D01*
X28956000Y-81915000D01*
X28852870Y-81935514D01*
X28852870Y-81587340D01*
X28808592Y-81352023D01*
X28669520Y-81135899D01*
X28457320Y-80990909D01*
X28205430Y-80939900D01*
X28067000Y-80939900D01*
X28067000Y-79575436D01*
X28280441Y-79438090D01*
X28425431Y-79225890D01*
X28476440Y-78974000D01*
X28476440Y-76474000D01*
X28432162Y-76238683D01*
X28293090Y-76022559D01*
X28080890Y-75877569D01*
X27829000Y-75826560D01*
X26829000Y-75826560D01*
X26593683Y-75870838D01*
X26377559Y-76009910D01*
X26232569Y-76222110D01*
X26181560Y-76474000D01*
X26181560Y-78974000D01*
X26225838Y-79209317D01*
X26364910Y-79425441D01*
X26543000Y-79547125D01*
X26543000Y-80939900D01*
X26404570Y-80939900D01*
X26169253Y-80984178D01*
X25953129Y-81123250D01*
X25808139Y-81335450D01*
X25757130Y-81587340D01*
X25757130Y-84086700D01*
X25801408Y-84322017D01*
X25940480Y-84538141D01*
X26152680Y-84683131D01*
X26404570Y-84734140D01*
X28205430Y-84734140D01*
X28440747Y-84689862D01*
X28656871Y-84550790D01*
X28801861Y-84338590D01*
X28852870Y-84086700D01*
X28852870Y-83587704D01*
X29015102Y-83555434D01*
X28937214Y-83947000D01*
X29050225Y-84515143D01*
X29372052Y-84996792D01*
X29701617Y-85217000D01*
X29372052Y-85437208D01*
X29050225Y-85918857D01*
X28950556Y-86419926D01*
X28852870Y-86322240D01*
X28852870Y-85585300D01*
X28808592Y-85349983D01*
X28669520Y-85133859D01*
X28457320Y-84988869D01*
X28205430Y-84937860D01*
X26404570Y-84937860D01*
X26169253Y-84982138D01*
X25953129Y-85121210D01*
X25808139Y-85333410D01*
X25757130Y-85585300D01*
X25757130Y-88084660D01*
X25801408Y-88319977D01*
X25940480Y-88536101D01*
X26152680Y-88681091D01*
X26404570Y-88732100D01*
X28205430Y-88732100D01*
X28401720Y-88695165D01*
X28606197Y-88900000D01*
X28352750Y-88900000D01*
X28194000Y-89058750D01*
X28194000Y-90424000D01*
X28214000Y-90424000D01*
X28214000Y-90678000D01*
X28194000Y-90678000D01*
X28194000Y-90698000D01*
X27940000Y-90698000D01*
X27940000Y-90678000D01*
X26727150Y-90678000D01*
X26568400Y-90836750D01*
X26568400Y-91693309D01*
X26665073Y-91926698D01*
X26843701Y-92105327D01*
X26923788Y-92138500D01*
X25209500Y-92138500D01*
X25209500Y-89408691D01*
X26568400Y-89408691D01*
X26568400Y-90265250D01*
X26727150Y-90424000D01*
X27940000Y-90424000D01*
X27940000Y-89058750D01*
X27781250Y-88900000D01*
X27077090Y-88900000D01*
X26843701Y-88996673D01*
X26665073Y-89175302D01*
X26568400Y-89408691D01*
X25209500Y-89408691D01*
X25209500Y-72777980D01*
X25725348Y-73293827D01*
X25708894Y-73333453D01*
X25708326Y-73983694D01*
X25956638Y-74584655D01*
X26416027Y-75044846D01*
X27016553Y-75294206D01*
X27666794Y-75294774D01*
X28267755Y-75046462D01*
X28727946Y-74587073D01*
X28977306Y-73986547D01*
X28977874Y-73336306D01*
X28729562Y-72735345D01*
X28270173Y-72275154D01*
X27669647Y-72025794D01*
X27019406Y-72025226D01*
X26977302Y-72042623D01*
X26533124Y-71598444D01*
X26640691Y-71643000D01*
X26831250Y-71643000D01*
X26990000Y-71484250D01*
X26990000Y-70485000D01*
X26970000Y-70485000D01*
X26970000Y-70231000D01*
X26990000Y-70231000D01*
X26990000Y-70211000D01*
X27244000Y-70211000D01*
X27244000Y-70231000D01*
X27244000Y-70231000D01*
G37*
X27244000Y-70231000D02*
X27264000Y-70231000D01*
X27264000Y-70485000D01*
X27244000Y-70485000D01*
X27244000Y-71484250D01*
X27402750Y-71643000D01*
X27593309Y-71643000D01*
X27826698Y-71546327D01*
X28005327Y-71367699D01*
X28061654Y-71231713D01*
X28063838Y-71243317D01*
X28202910Y-71459441D01*
X28415110Y-71604431D01*
X28667000Y-71655440D01*
X29236810Y-71655440D01*
X30770205Y-73188835D01*
X30710154Y-73333453D01*
X30709586Y-73983694D01*
X30957898Y-74584655D01*
X31417287Y-75044846D01*
X32017813Y-75294206D01*
X32668054Y-75294774D01*
X33147000Y-75096878D01*
X33147000Y-76993696D01*
X32831485Y-76677629D01*
X32377734Y-76489215D01*
X31886421Y-76488786D01*
X31476440Y-76658187D01*
X31476440Y-76474000D01*
X31432162Y-76238683D01*
X31293090Y-76022559D01*
X31080890Y-75877569D01*
X30829000Y-75826560D01*
X29829000Y-75826560D01*
X29593683Y-75870838D01*
X29377559Y-76009910D01*
X29232569Y-76222110D01*
X29181560Y-76474000D01*
X29181560Y-78974000D01*
X29225838Y-79209317D01*
X29364910Y-79425441D01*
X29577110Y-79570431D01*
X29829000Y-79621440D01*
X30829000Y-79621440D01*
X31064317Y-79577162D01*
X31280441Y-79438090D01*
X31425431Y-79225890D01*
X31476440Y-78974000D01*
X31476440Y-78789441D01*
X31884266Y-78958785D01*
X32104392Y-78958977D01*
X31141000Y-79922370D01*
X30421844Y-79922370D01*
X29853701Y-80035381D01*
X29372052Y-80357208D01*
X29050225Y-80838857D01*
X28937214Y-81407000D01*
X29038262Y-81915000D01*
X28956000Y-81915000D01*
X28852870Y-81935514D01*
X28852870Y-81587340D01*
X28808592Y-81352023D01*
X28669520Y-81135899D01*
X28457320Y-80990909D01*
X28205430Y-80939900D01*
X28067000Y-80939900D01*
X28067000Y-79575436D01*
X28280441Y-79438090D01*
X28425431Y-79225890D01*
X28476440Y-78974000D01*
X28476440Y-76474000D01*
X28432162Y-76238683D01*
X28293090Y-76022559D01*
X28080890Y-75877569D01*
X27829000Y-75826560D01*
X26829000Y-75826560D01*
X26593683Y-75870838D01*
X26377559Y-76009910D01*
X26232569Y-76222110D01*
X26181560Y-76474000D01*
X26181560Y-78974000D01*
X26225838Y-79209317D01*
X26364910Y-79425441D01*
X26543000Y-79547125D01*
X26543000Y-80939900D01*
X26404570Y-80939900D01*
X26169253Y-80984178D01*
X25953129Y-81123250D01*
X25808139Y-81335450D01*
X25757130Y-81587340D01*
X25757130Y-84086700D01*
X25801408Y-84322017D01*
X25940480Y-84538141D01*
X26152680Y-84683131D01*
X26404570Y-84734140D01*
X28205430Y-84734140D01*
X28440747Y-84689862D01*
X28656871Y-84550790D01*
X28801861Y-84338590D01*
X28852870Y-84086700D01*
X28852870Y-83587704D01*
X29015102Y-83555434D01*
X28937214Y-83947000D01*
X29050225Y-84515143D01*
X29372052Y-84996792D01*
X29701617Y-85217000D01*
X29372052Y-85437208D01*
X29050225Y-85918857D01*
X28950556Y-86419926D01*
X28852870Y-86322240D01*
X28852870Y-85585300D01*
X28808592Y-85349983D01*
X28669520Y-85133859D01*
X28457320Y-84988869D01*
X28205430Y-84937860D01*
X26404570Y-84937860D01*
X26169253Y-84982138D01*
X25953129Y-85121210D01*
X25808139Y-85333410D01*
X25757130Y-85585300D01*
X25757130Y-88084660D01*
X25801408Y-88319977D01*
X25940480Y-88536101D01*
X26152680Y-88681091D01*
X26404570Y-88732100D01*
X28205430Y-88732100D01*
X28401720Y-88695165D01*
X28606197Y-88900000D01*
X28352750Y-88900000D01*
X28194000Y-89058750D01*
X28194000Y-90424000D01*
X28214000Y-90424000D01*
X28214000Y-90678000D01*
X28194000Y-90678000D01*
X28194000Y-90698000D01*
X27940000Y-90698000D01*
X27940000Y-90678000D01*
X26727150Y-90678000D01*
X26568400Y-90836750D01*
X26568400Y-91693309D01*
X26665073Y-91926698D01*
X26843701Y-92105327D01*
X26923788Y-92138500D01*
X25209500Y-92138500D01*
X25209500Y-89408691D01*
X26568400Y-89408691D01*
X26568400Y-90265250D01*
X26727150Y-90424000D01*
X27940000Y-90424000D01*
X27940000Y-89058750D01*
X27781250Y-88900000D01*
X27077090Y-88900000D01*
X26843701Y-88996673D01*
X26665073Y-89175302D01*
X26568400Y-89408691D01*
X25209500Y-89408691D01*
X25209500Y-72777980D01*
X25725348Y-73293827D01*
X25708894Y-73333453D01*
X25708326Y-73983694D01*
X25956638Y-74584655D01*
X26416027Y-75044846D01*
X27016553Y-75294206D01*
X27666794Y-75294774D01*
X28267755Y-75046462D01*
X28727946Y-74587073D01*
X28977306Y-73986547D01*
X28977874Y-73336306D01*
X28729562Y-72735345D01*
X28270173Y-72275154D01*
X27669647Y-72025794D01*
X27019406Y-72025226D01*
X26977302Y-72042623D01*
X26533124Y-71598444D01*
X26640691Y-71643000D01*
X26831250Y-71643000D01*
X26990000Y-71484250D01*
X26990000Y-70485000D01*
X26970000Y-70485000D01*
X26970000Y-70231000D01*
X26990000Y-70231000D01*
X26990000Y-70211000D01*
X27244000Y-70211000D01*
X27244000Y-70231000D01*
G36*
X38356110Y-82320931D02*
X38466695Y-82343325D01*
X38958185Y-82834816D01*
X39106377Y-82933834D01*
X39205395Y-82999996D01*
X39497000Y-83058000D01*
X41251130Y-83058000D01*
X41251130Y-83324700D01*
X41295408Y-83560017D01*
X41434480Y-83776141D01*
X41646680Y-83921131D01*
X41898570Y-83972140D01*
X43307000Y-83972140D01*
X43307000Y-84188300D01*
X43084750Y-84188300D01*
X42926000Y-84347050D01*
X42926000Y-85945980D01*
X42946000Y-85945980D01*
X42946000Y-86199980D01*
X42926000Y-86199980D01*
X42926000Y-87798910D01*
X43084750Y-87957660D01*
X43307000Y-87957660D01*
X43307000Y-88076369D01*
X41787810Y-89595560D01*
X41727250Y-89535000D01*
X40878000Y-89535000D01*
X40878000Y-89555000D01*
X40624000Y-89555000D01*
X40624000Y-89535000D01*
X40604000Y-89535000D01*
X40604000Y-89281000D01*
X40624000Y-89281000D01*
X40624000Y-89261000D01*
X40878000Y-89261000D01*
X40878000Y-89281000D01*
X41727250Y-89281000D01*
X41886000Y-89122250D01*
X41886000Y-88656690D01*
X41789327Y-88423301D01*
X41610698Y-88244673D01*
X41377309Y-88148000D01*
X41036750Y-88148000D01*
X41021000Y-88163750D01*
X41021000Y-87788750D01*
X40862250Y-87630000D01*
X40259000Y-87630000D01*
X40259000Y-87650000D01*
X40005000Y-87650000D01*
X40005000Y-87630000D01*
X39985000Y-87630000D01*
X39985000Y-87376000D01*
X40005000Y-87376000D01*
X40005000Y-86455250D01*
X40259000Y-86455250D01*
X40259000Y-87376000D01*
X40862250Y-87376000D01*
X41021000Y-87217250D01*
X41021000Y-86805190D01*
X40924327Y-86571801D01*
X40745698Y-86393173D01*
X40662546Y-86358730D01*
X41263570Y-86358730D01*
X41263570Y-87448969D01*
X41360243Y-87682358D01*
X41538871Y-87860987D01*
X41772260Y-87957660D01*
X42513250Y-87957660D01*
X42672000Y-87798910D01*
X42672000Y-86199980D01*
X41422320Y-86199980D01*
X41263570Y-86358730D01*
X40662546Y-86358730D01*
X40512309Y-86296500D01*
X40417750Y-86296500D01*
X40259000Y-86455250D01*
X40005000Y-86455250D01*
X39846250Y-86296500D01*
X39751691Y-86296500D01*
X39518302Y-86393173D01*
X39491765Y-86419709D01*
X39367890Y-86335069D01*
X39116000Y-86284060D01*
X38608000Y-86284060D01*
X38372683Y-86328338D01*
X38226093Y-86422666D01*
X38097890Y-86335069D01*
X37987306Y-86312675D01*
X37495815Y-85821185D01*
X37302813Y-85692225D01*
X37248605Y-85656004D01*
X36957000Y-85598000D01*
X35494630Y-85598000D01*
X36395639Y-84696991D01*
X41263570Y-84696991D01*
X41263570Y-85787230D01*
X41422320Y-85945980D01*
X42672000Y-85945980D01*
X42672000Y-84347050D01*
X42513250Y-84188300D01*
X41772260Y-84188300D01*
X41538871Y-84284973D01*
X41360243Y-84463602D01*
X41263570Y-84696991D01*
X36395639Y-84696991D01*
X38130815Y-82961815D01*
X38177711Y-82891630D01*
X38295996Y-82714605D01*
X38354000Y-82423000D01*
X38354000Y-82319489D01*
X38356110Y-82320931D01*
X38356110Y-82320931D01*
G37*
X38356110Y-82320931D02*
X38466695Y-82343325D01*
X38958185Y-82834816D01*
X39106377Y-82933834D01*
X39205395Y-82999996D01*
X39497000Y-83058000D01*
X41251130Y-83058000D01*
X41251130Y-83324700D01*
X41295408Y-83560017D01*
X41434480Y-83776141D01*
X41646680Y-83921131D01*
X41898570Y-83972140D01*
X43307000Y-83972140D01*
X43307000Y-84188300D01*
X43084750Y-84188300D01*
X42926000Y-84347050D01*
X42926000Y-85945980D01*
X42946000Y-85945980D01*
X42946000Y-86199980D01*
X42926000Y-86199980D01*
X42926000Y-87798910D01*
X43084750Y-87957660D01*
X43307000Y-87957660D01*
X43307000Y-88076369D01*
X41787810Y-89595560D01*
X41727250Y-89535000D01*
X40878000Y-89535000D01*
X40878000Y-89555000D01*
X40624000Y-89555000D01*
X40624000Y-89535000D01*
X40604000Y-89535000D01*
X40604000Y-89281000D01*
X40624000Y-89281000D01*
X40624000Y-89261000D01*
X40878000Y-89261000D01*
X40878000Y-89281000D01*
X41727250Y-89281000D01*
X41886000Y-89122250D01*
X41886000Y-88656690D01*
X41789327Y-88423301D01*
X41610698Y-88244673D01*
X41377309Y-88148000D01*
X41036750Y-88148000D01*
X41021000Y-88163750D01*
X41021000Y-87788750D01*
X40862250Y-87630000D01*
X40259000Y-87630000D01*
X40259000Y-87650000D01*
X40005000Y-87650000D01*
X40005000Y-87630000D01*
X39985000Y-87630000D01*
X39985000Y-87376000D01*
X40005000Y-87376000D01*
X40005000Y-86455250D01*
X40259000Y-86455250D01*
X40259000Y-87376000D01*
X40862250Y-87376000D01*
X41021000Y-87217250D01*
X41021000Y-86805190D01*
X40924327Y-86571801D01*
X40745698Y-86393173D01*
X40662546Y-86358730D01*
X41263570Y-86358730D01*
X41263570Y-87448969D01*
X41360243Y-87682358D01*
X41538871Y-87860987D01*
X41772260Y-87957660D01*
X42513250Y-87957660D01*
X42672000Y-87798910D01*
X42672000Y-86199980D01*
X41422320Y-86199980D01*
X41263570Y-86358730D01*
X40662546Y-86358730D01*
X40512309Y-86296500D01*
X40417750Y-86296500D01*
X40259000Y-86455250D01*
X40005000Y-86455250D01*
X39846250Y-86296500D01*
X39751691Y-86296500D01*
X39518302Y-86393173D01*
X39491765Y-86419709D01*
X39367890Y-86335069D01*
X39116000Y-86284060D01*
X38608000Y-86284060D01*
X38372683Y-86328338D01*
X38226093Y-86422666D01*
X38097890Y-86335069D01*
X37987306Y-86312675D01*
X37495815Y-85821185D01*
X37302813Y-85692225D01*
X37248605Y-85656004D01*
X36957000Y-85598000D01*
X35494630Y-85598000D01*
X36395639Y-84696991D01*
X41263570Y-84696991D01*
X41263570Y-85787230D01*
X41422320Y-85945980D01*
X42672000Y-85945980D01*
X42672000Y-84347050D01*
X42513250Y-84188300D01*
X41772260Y-84188300D01*
X41538871Y-84284973D01*
X41360243Y-84463602D01*
X41263570Y-84696991D01*
X36395639Y-84696991D01*
X38130815Y-82961815D01*
X38177711Y-82891630D01*
X38295996Y-82714605D01*
X38354000Y-82423000D01*
X38354000Y-82319489D01*
X38356110Y-82320931D01*
G36*
X83875639Y-80691441D02*
X83909395Y-80713996D01*
X84201000Y-80772000D01*
X84647370Y-80772000D01*
X85567185Y-81691815D01*
X85725000Y-81797264D01*
X85725000Y-82677000D01*
X83820000Y-82677000D01*
X83820000Y-80654264D01*
X83875639Y-80691441D01*
X83875639Y-80691441D01*
G37*
X83875639Y-80691441D02*
X83909395Y-80713996D01*
X84201000Y-80772000D01*
X84647370Y-80772000D01*
X85567185Y-81691815D01*
X85725000Y-81797264D01*
X85725000Y-82677000D01*
X83820000Y-82677000D01*
X83820000Y-80654264D01*
X83875639Y-80691441D01*
G36*
X85725000Y-79694370D02*
X85501815Y-79471185D01*
X85491653Y-79464395D01*
X85254605Y-79306004D01*
X84963000Y-79248000D01*
X84516631Y-79248000D01*
X84168002Y-78899372D01*
X84168002Y-78881252D01*
X84326750Y-79040000D01*
X84942309Y-79040000D01*
X85175698Y-78943327D01*
X85354327Y-78764699D01*
X85451000Y-78531310D01*
X85451000Y-78390750D01*
X85292250Y-78232000D01*
X84168000Y-78232000D01*
X84168000Y-78252000D01*
X83914000Y-78252000D01*
X83914000Y-78232000D01*
X83894000Y-78232000D01*
X83894000Y-77978000D01*
X83914000Y-77978000D01*
X83914000Y-77958000D01*
X84168000Y-77958000D01*
X84168000Y-77978000D01*
X85292250Y-77978000D01*
X85451000Y-77819250D01*
X85451000Y-77678690D01*
X85361194Y-77461878D01*
X85412431Y-77386890D01*
X85463440Y-77135000D01*
X85463440Y-76535000D01*
X85424302Y-76327000D01*
X85725000Y-76327000D01*
X85725000Y-79694370D01*
X85725000Y-79694370D01*
G37*
X85725000Y-79694370D02*
X85501815Y-79471185D01*
X85491653Y-79464395D01*
X85254605Y-79306004D01*
X84963000Y-79248000D01*
X84516631Y-79248000D01*
X84168002Y-78899372D01*
X84168002Y-78881252D01*
X84326750Y-79040000D01*
X84942309Y-79040000D01*
X85175698Y-78943327D01*
X85354327Y-78764699D01*
X85451000Y-78531310D01*
X85451000Y-78390750D01*
X85292250Y-78232000D01*
X84168000Y-78232000D01*
X84168000Y-78252000D01*
X83914000Y-78252000D01*
X83914000Y-78232000D01*
X83894000Y-78232000D01*
X83894000Y-77978000D01*
X83914000Y-77978000D01*
X83914000Y-77958000D01*
X84168000Y-77958000D01*
X84168000Y-77978000D01*
X85292250Y-77978000D01*
X85451000Y-77819250D01*
X85451000Y-77678690D01*
X85361194Y-77461878D01*
X85412431Y-77386890D01*
X85463440Y-77135000D01*
X85463440Y-76535000D01*
X85424302Y-76327000D01*
X85725000Y-76327000D01*
X85725000Y-79694370D01*
G36*
X78867000Y-73944016D02*
X78688310Y-73870000D01*
X77247750Y-73870000D01*
X77089000Y-74028750D01*
X77089000Y-74878000D01*
X77109000Y-74878000D01*
X77109000Y-75132000D01*
X77089000Y-75132000D01*
X77089000Y-75981250D01*
X77247750Y-76140000D01*
X78688310Y-76140000D01*
X78921699Y-76043327D01*
X79100327Y-75864698D01*
X79138913Y-75771543D01*
X79156137Y-75788767D01*
X79155786Y-76190579D01*
X79327022Y-76605000D01*
X79131690Y-76605000D01*
X78898301Y-76701673D01*
X78719673Y-76880302D01*
X78623000Y-77113691D01*
X78623000Y-77454250D01*
X78781750Y-77613000D01*
X79756000Y-77613000D01*
X79756000Y-77593000D01*
X80010000Y-77593000D01*
X80010000Y-77613000D01*
X80984250Y-77613000D01*
X81143000Y-77454250D01*
X81143000Y-77113691D01*
X81092201Y-76991052D01*
X81437371Y-76646485D01*
X81615903Y-76216533D01*
X82638073Y-77238704D01*
X82662838Y-77370317D01*
X82721178Y-77460980D01*
X82631000Y-77678690D01*
X82631000Y-77819250D01*
X82789748Y-77977998D01*
X82631000Y-77977998D01*
X82631000Y-77978000D01*
X81095250Y-77978000D01*
X80984250Y-77867000D01*
X80010000Y-77867000D01*
X80010000Y-77887000D01*
X79756000Y-77887000D01*
X79756000Y-77867000D01*
X78781750Y-77867000D01*
X78670750Y-77978000D01*
X75880630Y-77978000D01*
X75669815Y-77767185D01*
X75641103Y-77748000D01*
X75422605Y-77602004D01*
X75131000Y-77544000D01*
X75063818Y-77544000D01*
X74974090Y-77404559D01*
X74761890Y-77259569D01*
X74510000Y-77208560D01*
X73914000Y-77208560D01*
X73914000Y-77023630D01*
X74948303Y-75989328D01*
X75002301Y-76043327D01*
X75235690Y-76140000D01*
X76676250Y-76140000D01*
X76835000Y-75981250D01*
X76835000Y-75132000D01*
X76815000Y-75132000D01*
X76815000Y-74878000D01*
X76835000Y-74878000D01*
X76835000Y-74028750D01*
X76676250Y-73870000D01*
X75311000Y-73870000D01*
X75311000Y-71054630D01*
X78867000Y-67498631D01*
X78867000Y-73944016D01*
X78867000Y-73944016D01*
G37*
X78867000Y-73944016D02*
X78688310Y-73870000D01*
X77247750Y-73870000D01*
X77089000Y-74028750D01*
X77089000Y-74878000D01*
X77109000Y-74878000D01*
X77109000Y-75132000D01*
X77089000Y-75132000D01*
X77089000Y-75981250D01*
X77247750Y-76140000D01*
X78688310Y-76140000D01*
X78921699Y-76043327D01*
X79100327Y-75864698D01*
X79138913Y-75771543D01*
X79156137Y-75788767D01*
X79155786Y-76190579D01*
X79327022Y-76605000D01*
X79131690Y-76605000D01*
X78898301Y-76701673D01*
X78719673Y-76880302D01*
X78623000Y-77113691D01*
X78623000Y-77454250D01*
X78781750Y-77613000D01*
X79756000Y-77613000D01*
X79756000Y-77593000D01*
X80010000Y-77593000D01*
X80010000Y-77613000D01*
X80984250Y-77613000D01*
X81143000Y-77454250D01*
X81143000Y-77113691D01*
X81092201Y-76991052D01*
X81437371Y-76646485D01*
X81615903Y-76216533D01*
X82638073Y-77238704D01*
X82662838Y-77370317D01*
X82721178Y-77460980D01*
X82631000Y-77678690D01*
X82631000Y-77819250D01*
X82789748Y-77977998D01*
X82631000Y-77977998D01*
X82631000Y-77978000D01*
X81095250Y-77978000D01*
X80984250Y-77867000D01*
X80010000Y-77867000D01*
X80010000Y-77887000D01*
X79756000Y-77887000D01*
X79756000Y-77867000D01*
X78781750Y-77867000D01*
X78670750Y-77978000D01*
X75880630Y-77978000D01*
X75669815Y-77767185D01*
X75641103Y-77748000D01*
X75422605Y-77602004D01*
X75131000Y-77544000D01*
X75063818Y-77544000D01*
X74974090Y-77404559D01*
X74761890Y-77259569D01*
X74510000Y-77208560D01*
X73914000Y-77208560D01*
X73914000Y-77023630D01*
X74948303Y-75989328D01*
X75002301Y-76043327D01*
X75235690Y-76140000D01*
X76676250Y-76140000D01*
X76835000Y-75981250D01*
X76835000Y-75132000D01*
X76815000Y-75132000D01*
X76815000Y-74878000D01*
X76835000Y-74878000D01*
X76835000Y-74028750D01*
X76676250Y-73870000D01*
X75311000Y-73870000D01*
X75311000Y-71054630D01*
X78867000Y-67498631D01*
X78867000Y-73944016D01*
G36*
X58337471Y-51943261D02*
X57966086Y-52313997D01*
X57724276Y-52896341D01*
X57723725Y-53526893D01*
X57964519Y-54109657D01*
X58409997Y-54555914D01*
X58992341Y-54797724D01*
X59622893Y-54798275D01*
X60205657Y-54557481D01*
X60579261Y-54184529D01*
X60949997Y-54555914D01*
X61532341Y-54797724D01*
X62162893Y-54798275D01*
X62745657Y-54557481D01*
X63119261Y-54184529D01*
X63489997Y-54555914D01*
X64072341Y-54797724D01*
X64647144Y-54798226D01*
X62580185Y-56865185D01*
X62415004Y-57112395D01*
X62357000Y-57404000D01*
X62357000Y-57801702D01*
X62095734Y-57693215D01*
X61604421Y-57692786D01*
X61150343Y-57880408D01*
X60802629Y-58227515D01*
X60614215Y-58681266D01*
X60613786Y-59172579D01*
X60801408Y-59626657D01*
X61087000Y-59912748D01*
X61087000Y-64512880D01*
X60952343Y-64568519D01*
X60578739Y-64941471D01*
X60208003Y-64570086D01*
X60071000Y-64513197D01*
X60071000Y-60801360D01*
X60355371Y-60517485D01*
X60543785Y-60063734D01*
X60544214Y-59572421D01*
X60356592Y-59118343D01*
X60009485Y-58770629D01*
X59555734Y-58582215D01*
X59064421Y-58581786D01*
X58610343Y-58769408D01*
X58262629Y-59116515D01*
X58074215Y-59570266D01*
X58073786Y-60061579D01*
X58261408Y-60515657D01*
X58547000Y-60801748D01*
X58547000Y-64512880D01*
X58412343Y-64568519D01*
X58038739Y-64941471D01*
X57668003Y-64570086D01*
X57531000Y-64513197D01*
X57531000Y-61690360D01*
X57815371Y-61406485D01*
X58003785Y-60952734D01*
X58004214Y-60461421D01*
X57816592Y-60007343D01*
X57469485Y-59659629D01*
X57015734Y-59471215D01*
X56524421Y-59470786D01*
X56070343Y-59658408D01*
X55722629Y-60005515D01*
X55534215Y-60459266D01*
X55533786Y-60950579D01*
X55721408Y-61404657D01*
X56007000Y-61690748D01*
X56007000Y-64512880D01*
X55872343Y-64568519D01*
X55498739Y-64941471D01*
X55128003Y-64570086D01*
X54991000Y-64513197D01*
X54991000Y-62452803D01*
X55021371Y-62422485D01*
X55209785Y-61968734D01*
X55210214Y-61477421D01*
X55022592Y-61023343D01*
X54675485Y-60675629D01*
X54221734Y-60487215D01*
X53730421Y-60486786D01*
X53276343Y-60674408D01*
X52928629Y-61021515D01*
X52740215Y-61475266D01*
X52739786Y-61966579D01*
X52927408Y-62420657D01*
X53274515Y-62768371D01*
X53467000Y-62848298D01*
X53467000Y-64512880D01*
X53332343Y-64568519D01*
X52892884Y-65007211D01*
X52805350Y-64976255D01*
X51868605Y-65913000D01*
X52805350Y-66849745D01*
X52893439Y-66818593D01*
X53329997Y-67255914D01*
X53912341Y-67497724D01*
X54542893Y-67498275D01*
X55125657Y-67257481D01*
X55499261Y-66884529D01*
X55869997Y-67255914D01*
X56452341Y-67497724D01*
X57082893Y-67498275D01*
X57665657Y-67257481D01*
X58039261Y-66884529D01*
X58409997Y-67255914D01*
X58992341Y-67497724D01*
X59622893Y-67498275D01*
X60205657Y-67257481D01*
X60579261Y-66884529D01*
X60949997Y-67255914D01*
X61532341Y-67497724D01*
X62162893Y-67498275D01*
X62357000Y-67418071D01*
X62357000Y-69185000D01*
X61880750Y-69185000D01*
X61722000Y-69343750D01*
X61722000Y-70043000D01*
X61742000Y-70043000D01*
X61742000Y-70297000D01*
X61722000Y-70297000D01*
X61722000Y-70317000D01*
X61468000Y-70317000D01*
X61468000Y-70297000D01*
X60468750Y-70297000D01*
X60310000Y-70455750D01*
X60310000Y-70646309D01*
X60406673Y-70879698D01*
X60585301Y-71058327D01*
X60721287Y-71114654D01*
X60709683Y-71116838D01*
X60493559Y-71255910D01*
X60348569Y-71468110D01*
X60297560Y-71720000D01*
X60297560Y-72420000D01*
X60341838Y-72655317D01*
X60480910Y-72871441D01*
X60693110Y-73016431D01*
X60945000Y-73067440D01*
X61079560Y-73067440D01*
X61079560Y-74510000D01*
X61123838Y-74745317D01*
X61262910Y-74961441D01*
X61475110Y-75106431D01*
X61727000Y-75157440D01*
X62627000Y-75157440D01*
X62862317Y-75113162D01*
X63078441Y-74974090D01*
X63223431Y-74761890D01*
X63274440Y-74510000D01*
X63274440Y-73640190D01*
X63657815Y-73256815D01*
X63822996Y-73009605D01*
X63837112Y-72938640D01*
X63881000Y-72718000D01*
X63881000Y-68986750D01*
X66167000Y-68986750D01*
X66167000Y-69327309D01*
X66263673Y-69560698D01*
X66442301Y-69739327D01*
X66675690Y-69836000D01*
X69691250Y-69836000D01*
X69850000Y-69677250D01*
X69850000Y-68828000D01*
X66325750Y-68828000D01*
X66167000Y-68986750D01*
X63881000Y-68986750D01*
X63881000Y-68074691D01*
X66167000Y-68074691D01*
X66167000Y-68415250D01*
X66325750Y-68574000D01*
X69850000Y-68574000D01*
X69850000Y-67724750D01*
X69691250Y-67566000D01*
X66675690Y-67566000D01*
X66442301Y-67662673D01*
X66263673Y-67841302D01*
X66167000Y-68074691D01*
X63881000Y-68074691D01*
X63881000Y-67418272D01*
X64072341Y-67497724D01*
X64702893Y-67498275D01*
X65285657Y-67257481D01*
X65659261Y-66884529D01*
X66029997Y-67255914D01*
X66612341Y-67497724D01*
X67242893Y-67498275D01*
X67825657Y-67257481D01*
X68199261Y-66884529D01*
X68569997Y-67255914D01*
X69152341Y-67497724D01*
X69782893Y-67498275D01*
X70365657Y-67257481D01*
X70739261Y-66884529D01*
X71109997Y-67255914D01*
X71692341Y-67497724D01*
X72322893Y-67498275D01*
X72905657Y-67257481D01*
X73279261Y-66884529D01*
X73649997Y-67255914D01*
X73920948Y-67368422D01*
X73569198Y-67720172D01*
X73511699Y-67662673D01*
X73278310Y-67566000D01*
X70262750Y-67566000D01*
X70104000Y-67724750D01*
X70104000Y-68574000D01*
X70124000Y-68574000D01*
X70124000Y-68828000D01*
X70104000Y-68828000D01*
X70104000Y-69677250D01*
X70262750Y-69836000D01*
X73152000Y-69836000D01*
X73152000Y-72771000D01*
X67564000Y-72771000D01*
X67514590Y-72781006D01*
X67472965Y-72809447D01*
X67445685Y-72851841D01*
X67437000Y-72898000D01*
X67437000Y-73153560D01*
X66802000Y-73153560D01*
X66566683Y-73197838D01*
X66350559Y-73336910D01*
X66205569Y-73549110D01*
X66174440Y-73702830D01*
X66174440Y-72810000D01*
X66130162Y-72574683D01*
X65991090Y-72358559D01*
X65778890Y-72213569D01*
X65527000Y-72162560D01*
X64627000Y-72162560D01*
X64391683Y-72206838D01*
X64175559Y-72345910D01*
X64030569Y-72558110D01*
X63979560Y-72810000D01*
X63979560Y-74510000D01*
X64023838Y-74745317D01*
X64162910Y-74961441D01*
X64375110Y-75106431D01*
X64533768Y-75138560D01*
X64230000Y-75138560D01*
X63994683Y-75182838D01*
X63778559Y-75321910D01*
X63633569Y-75534110D01*
X63582560Y-75786000D01*
X63582560Y-76601930D01*
X63116033Y-76135403D01*
X63102162Y-76061683D01*
X62963090Y-75845559D01*
X62750890Y-75700569D01*
X62499000Y-75649560D01*
X61199000Y-75649560D01*
X60963683Y-75693838D01*
X60747559Y-75832910D01*
X60602569Y-76045110D01*
X60551560Y-76297000D01*
X60551560Y-76997000D01*
X60595838Y-77232317D01*
X60734910Y-77448441D01*
X60947110Y-77593431D01*
X60960197Y-77596081D01*
X60857756Y-77662000D01*
X48179579Y-77662000D01*
X48098015Y-77580436D01*
X48098214Y-77352421D01*
X47910592Y-76898343D01*
X47563485Y-76550629D01*
X47109734Y-76362215D01*
X46618421Y-76361786D01*
X46164343Y-76549408D01*
X46101000Y-76612640D01*
X46101000Y-69693691D01*
X60310000Y-69693691D01*
X60310000Y-69884250D01*
X60468750Y-70043000D01*
X61468000Y-70043000D01*
X61468000Y-69343750D01*
X61309250Y-69185000D01*
X60818690Y-69185000D01*
X60585301Y-69281673D01*
X60406673Y-69460302D01*
X60310000Y-69693691D01*
X46101000Y-69693691D01*
X46101000Y-67029350D01*
X50752255Y-67029350D01*
X50844792Y-67291019D01*
X51436398Y-67509188D01*
X52066461Y-67484352D01*
X52533208Y-67291019D01*
X52625745Y-67029350D01*
X51689000Y-66092605D01*
X50752255Y-67029350D01*
X46101000Y-67029350D01*
X46101000Y-65660398D01*
X50092812Y-65660398D01*
X50117648Y-66290461D01*
X50310981Y-66757208D01*
X50572650Y-66849745D01*
X51509395Y-65913000D01*
X50572650Y-64976255D01*
X50310981Y-65068792D01*
X50092812Y-65660398D01*
X46101000Y-65660398D01*
X46101000Y-65119360D01*
X46385371Y-64835485D01*
X46401496Y-64796650D01*
X50752255Y-64796650D01*
X51689000Y-65733395D01*
X52625745Y-64796650D01*
X52533208Y-64534981D01*
X51941602Y-64316812D01*
X51311539Y-64341648D01*
X50844792Y-64534981D01*
X50752255Y-64796650D01*
X46401496Y-64796650D01*
X46573785Y-64381734D01*
X46574214Y-63890421D01*
X46386592Y-63436343D01*
X46039485Y-63088629D01*
X45585734Y-62900215D01*
X45094421Y-62899786D01*
X44640343Y-63087408D01*
X44292629Y-63434515D01*
X44104215Y-63888266D01*
X44104148Y-63965032D01*
X43680734Y-63789215D01*
X43189421Y-63788786D01*
X42735343Y-63976408D01*
X42449252Y-64262000D01*
X37114000Y-64262000D01*
X37114000Y-63785750D01*
X36955250Y-63627000D01*
X36256000Y-63627000D01*
X36256000Y-63647000D01*
X36002000Y-63647000D01*
X36002000Y-63627000D01*
X35982000Y-63627000D01*
X35982000Y-63373000D01*
X36002000Y-63373000D01*
X36002000Y-62373750D01*
X36256000Y-62373750D01*
X36256000Y-63373000D01*
X36955250Y-63373000D01*
X37114000Y-63214250D01*
X37114000Y-62723690D01*
X37017327Y-62490301D01*
X36838698Y-62311673D01*
X36605309Y-62215000D01*
X36414750Y-62215000D01*
X36256000Y-62373750D01*
X36002000Y-62373750D01*
X35843250Y-62215000D01*
X35652691Y-62215000D01*
X35419302Y-62311673D01*
X35240673Y-62490301D01*
X35184346Y-62626287D01*
X35182162Y-62614683D01*
X35043090Y-62398559D01*
X34991000Y-62362967D01*
X34991000Y-61861440D01*
X35433000Y-61861440D01*
X35668317Y-61817162D01*
X35884441Y-61678090D01*
X36029431Y-61465890D01*
X36080440Y-61214000D01*
X36080440Y-59182000D01*
X36036162Y-58946683D01*
X35897090Y-58730559D01*
X35684890Y-58585569D01*
X35433000Y-58534560D01*
X33909000Y-58534560D01*
X33673683Y-58578838D01*
X33457559Y-58717910D01*
X33401626Y-58799770D01*
X33357090Y-58730559D01*
X33144890Y-58585569D01*
X32893000Y-58534560D01*
X31369000Y-58534560D01*
X31133683Y-58578838D01*
X30917559Y-58717910D01*
X30861626Y-58799770D01*
X30817090Y-58730559D01*
X30604890Y-58585569D01*
X30353000Y-58534560D01*
X29538070Y-58534560D01*
X30541630Y-57531000D01*
X36008780Y-57531000D01*
X36182110Y-57649431D01*
X36434000Y-57700440D01*
X37734000Y-57700440D01*
X37969317Y-57656162D01*
X38185441Y-57517090D01*
X38221033Y-57465000D01*
X50739000Y-57465000D01*
X51030605Y-57406996D01*
X51277815Y-57241815D01*
X56317781Y-52201850D01*
X56452341Y-52257724D01*
X57082893Y-52258275D01*
X57665657Y-52017481D01*
X58039261Y-51644529D01*
X58337471Y-51943261D01*
X58337471Y-51943261D01*
G37*
X58337471Y-51943261D02*
X57966086Y-52313997D01*
X57724276Y-52896341D01*
X57723725Y-53526893D01*
X57964519Y-54109657D01*
X58409997Y-54555914D01*
X58992341Y-54797724D01*
X59622893Y-54798275D01*
X60205657Y-54557481D01*
X60579261Y-54184529D01*
X60949997Y-54555914D01*
X61532341Y-54797724D01*
X62162893Y-54798275D01*
X62745657Y-54557481D01*
X63119261Y-54184529D01*
X63489997Y-54555914D01*
X64072341Y-54797724D01*
X64647144Y-54798226D01*
X62580185Y-56865185D01*
X62415004Y-57112395D01*
X62357000Y-57404000D01*
X62357000Y-57801702D01*
X62095734Y-57693215D01*
X61604421Y-57692786D01*
X61150343Y-57880408D01*
X60802629Y-58227515D01*
X60614215Y-58681266D01*
X60613786Y-59172579D01*
X60801408Y-59626657D01*
X61087000Y-59912748D01*
X61087000Y-64512880D01*
X60952343Y-64568519D01*
X60578739Y-64941471D01*
X60208003Y-64570086D01*
X60071000Y-64513197D01*
X60071000Y-60801360D01*
X60355371Y-60517485D01*
X60543785Y-60063734D01*
X60544214Y-59572421D01*
X60356592Y-59118343D01*
X60009485Y-58770629D01*
X59555734Y-58582215D01*
X59064421Y-58581786D01*
X58610343Y-58769408D01*
X58262629Y-59116515D01*
X58074215Y-59570266D01*
X58073786Y-60061579D01*
X58261408Y-60515657D01*
X58547000Y-60801748D01*
X58547000Y-64512880D01*
X58412343Y-64568519D01*
X58038739Y-64941471D01*
X57668003Y-64570086D01*
X57531000Y-64513197D01*
X57531000Y-61690360D01*
X57815371Y-61406485D01*
X58003785Y-60952734D01*
X58004214Y-60461421D01*
X57816592Y-60007343D01*
X57469485Y-59659629D01*
X57015734Y-59471215D01*
X56524421Y-59470786D01*
X56070343Y-59658408D01*
X55722629Y-60005515D01*
X55534215Y-60459266D01*
X55533786Y-60950579D01*
X55721408Y-61404657D01*
X56007000Y-61690748D01*
X56007000Y-64512880D01*
X55872343Y-64568519D01*
X55498739Y-64941471D01*
X55128003Y-64570086D01*
X54991000Y-64513197D01*
X54991000Y-62452803D01*
X55021371Y-62422485D01*
X55209785Y-61968734D01*
X55210214Y-61477421D01*
X55022592Y-61023343D01*
X54675485Y-60675629D01*
X54221734Y-60487215D01*
X53730421Y-60486786D01*
X53276343Y-60674408D01*
X52928629Y-61021515D01*
X52740215Y-61475266D01*
X52739786Y-61966579D01*
X52927408Y-62420657D01*
X53274515Y-62768371D01*
X53467000Y-62848298D01*
X53467000Y-64512880D01*
X53332343Y-64568519D01*
X52892884Y-65007211D01*
X52805350Y-64976255D01*
X51868605Y-65913000D01*
X52805350Y-66849745D01*
X52893439Y-66818593D01*
X53329997Y-67255914D01*
X53912341Y-67497724D01*
X54542893Y-67498275D01*
X55125657Y-67257481D01*
X55499261Y-66884529D01*
X55869997Y-67255914D01*
X56452341Y-67497724D01*
X57082893Y-67498275D01*
X57665657Y-67257481D01*
X58039261Y-66884529D01*
X58409997Y-67255914D01*
X58992341Y-67497724D01*
X59622893Y-67498275D01*
X60205657Y-67257481D01*
X60579261Y-66884529D01*
X60949997Y-67255914D01*
X61532341Y-67497724D01*
X62162893Y-67498275D01*
X62357000Y-67418071D01*
X62357000Y-69185000D01*
X61880750Y-69185000D01*
X61722000Y-69343750D01*
X61722000Y-70043000D01*
X61742000Y-70043000D01*
X61742000Y-70297000D01*
X61722000Y-70297000D01*
X61722000Y-70317000D01*
X61468000Y-70317000D01*
X61468000Y-70297000D01*
X60468750Y-70297000D01*
X60310000Y-70455750D01*
X60310000Y-70646309D01*
X60406673Y-70879698D01*
X60585301Y-71058327D01*
X60721287Y-71114654D01*
X60709683Y-71116838D01*
X60493559Y-71255910D01*
X60348569Y-71468110D01*
X60297560Y-71720000D01*
X60297560Y-72420000D01*
X60341838Y-72655317D01*
X60480910Y-72871441D01*
X60693110Y-73016431D01*
X60945000Y-73067440D01*
X61079560Y-73067440D01*
X61079560Y-74510000D01*
X61123838Y-74745317D01*
X61262910Y-74961441D01*
X61475110Y-75106431D01*
X61727000Y-75157440D01*
X62627000Y-75157440D01*
X62862317Y-75113162D01*
X63078441Y-74974090D01*
X63223431Y-74761890D01*
X63274440Y-74510000D01*
X63274440Y-73640190D01*
X63657815Y-73256815D01*
X63822996Y-73009605D01*
X63837112Y-72938640D01*
X63881000Y-72718000D01*
X63881000Y-68986750D01*
X66167000Y-68986750D01*
X66167000Y-69327309D01*
X66263673Y-69560698D01*
X66442301Y-69739327D01*
X66675690Y-69836000D01*
X69691250Y-69836000D01*
X69850000Y-69677250D01*
X69850000Y-68828000D01*
X66325750Y-68828000D01*
X66167000Y-68986750D01*
X63881000Y-68986750D01*
X63881000Y-68074691D01*
X66167000Y-68074691D01*
X66167000Y-68415250D01*
X66325750Y-68574000D01*
X69850000Y-68574000D01*
X69850000Y-67724750D01*
X69691250Y-67566000D01*
X66675690Y-67566000D01*
X66442301Y-67662673D01*
X66263673Y-67841302D01*
X66167000Y-68074691D01*
X63881000Y-68074691D01*
X63881000Y-67418272D01*
X64072341Y-67497724D01*
X64702893Y-67498275D01*
X65285657Y-67257481D01*
X65659261Y-66884529D01*
X66029997Y-67255914D01*
X66612341Y-67497724D01*
X67242893Y-67498275D01*
X67825657Y-67257481D01*
X68199261Y-66884529D01*
X68569997Y-67255914D01*
X69152341Y-67497724D01*
X69782893Y-67498275D01*
X70365657Y-67257481D01*
X70739261Y-66884529D01*
X71109997Y-67255914D01*
X71692341Y-67497724D01*
X72322893Y-67498275D01*
X72905657Y-67257481D01*
X73279261Y-66884529D01*
X73649997Y-67255914D01*
X73920948Y-67368422D01*
X73569198Y-67720172D01*
X73511699Y-67662673D01*
X73278310Y-67566000D01*
X70262750Y-67566000D01*
X70104000Y-67724750D01*
X70104000Y-68574000D01*
X70124000Y-68574000D01*
X70124000Y-68828000D01*
X70104000Y-68828000D01*
X70104000Y-69677250D01*
X70262750Y-69836000D01*
X73152000Y-69836000D01*
X73152000Y-72771000D01*
X67564000Y-72771000D01*
X67514590Y-72781006D01*
X67472965Y-72809447D01*
X67445685Y-72851841D01*
X67437000Y-72898000D01*
X67437000Y-73153560D01*
X66802000Y-73153560D01*
X66566683Y-73197838D01*
X66350559Y-73336910D01*
X66205569Y-73549110D01*
X66174440Y-73702830D01*
X66174440Y-72810000D01*
X66130162Y-72574683D01*
X65991090Y-72358559D01*
X65778890Y-72213569D01*
X65527000Y-72162560D01*
X64627000Y-72162560D01*
X64391683Y-72206838D01*
X64175559Y-72345910D01*
X64030569Y-72558110D01*
X63979560Y-72810000D01*
X63979560Y-74510000D01*
X64023838Y-74745317D01*
X64162910Y-74961441D01*
X64375110Y-75106431D01*
X64533768Y-75138560D01*
X64230000Y-75138560D01*
X63994683Y-75182838D01*
X63778559Y-75321910D01*
X63633569Y-75534110D01*
X63582560Y-75786000D01*
X63582560Y-76601930D01*
X63116033Y-76135403D01*
X63102162Y-76061683D01*
X62963090Y-75845559D01*
X62750890Y-75700569D01*
X62499000Y-75649560D01*
X61199000Y-75649560D01*
X60963683Y-75693838D01*
X60747559Y-75832910D01*
X60602569Y-76045110D01*
X60551560Y-76297000D01*
X60551560Y-76997000D01*
X60595838Y-77232317D01*
X60734910Y-77448441D01*
X60947110Y-77593431D01*
X60960197Y-77596081D01*
X60857756Y-77662000D01*
X48179579Y-77662000D01*
X48098015Y-77580436D01*
X48098214Y-77352421D01*
X47910592Y-76898343D01*
X47563485Y-76550629D01*
X47109734Y-76362215D01*
X46618421Y-76361786D01*
X46164343Y-76549408D01*
X46101000Y-76612640D01*
X46101000Y-69693691D01*
X60310000Y-69693691D01*
X60310000Y-69884250D01*
X60468750Y-70043000D01*
X61468000Y-70043000D01*
X61468000Y-69343750D01*
X61309250Y-69185000D01*
X60818690Y-69185000D01*
X60585301Y-69281673D01*
X60406673Y-69460302D01*
X60310000Y-69693691D01*
X46101000Y-69693691D01*
X46101000Y-67029350D01*
X50752255Y-67029350D01*
X50844792Y-67291019D01*
X51436398Y-67509188D01*
X52066461Y-67484352D01*
X52533208Y-67291019D01*
X52625745Y-67029350D01*
X51689000Y-66092605D01*
X50752255Y-67029350D01*
X46101000Y-67029350D01*
X46101000Y-65660398D01*
X50092812Y-65660398D01*
X50117648Y-66290461D01*
X50310981Y-66757208D01*
X50572650Y-66849745D01*
X51509395Y-65913000D01*
X50572650Y-64976255D01*
X50310981Y-65068792D01*
X50092812Y-65660398D01*
X46101000Y-65660398D01*
X46101000Y-65119360D01*
X46385371Y-64835485D01*
X46401496Y-64796650D01*
X50752255Y-64796650D01*
X51689000Y-65733395D01*
X52625745Y-64796650D01*
X52533208Y-64534981D01*
X51941602Y-64316812D01*
X51311539Y-64341648D01*
X50844792Y-64534981D01*
X50752255Y-64796650D01*
X46401496Y-64796650D01*
X46573785Y-64381734D01*
X46574214Y-63890421D01*
X46386592Y-63436343D01*
X46039485Y-63088629D01*
X45585734Y-62900215D01*
X45094421Y-62899786D01*
X44640343Y-63087408D01*
X44292629Y-63434515D01*
X44104215Y-63888266D01*
X44104148Y-63965032D01*
X43680734Y-63789215D01*
X43189421Y-63788786D01*
X42735343Y-63976408D01*
X42449252Y-64262000D01*
X37114000Y-64262000D01*
X37114000Y-63785750D01*
X36955250Y-63627000D01*
X36256000Y-63627000D01*
X36256000Y-63647000D01*
X36002000Y-63647000D01*
X36002000Y-63627000D01*
X35982000Y-63627000D01*
X35982000Y-63373000D01*
X36002000Y-63373000D01*
X36002000Y-62373750D01*
X36256000Y-62373750D01*
X36256000Y-63373000D01*
X36955250Y-63373000D01*
X37114000Y-63214250D01*
X37114000Y-62723690D01*
X37017327Y-62490301D01*
X36838698Y-62311673D01*
X36605309Y-62215000D01*
X36414750Y-62215000D01*
X36256000Y-62373750D01*
X36002000Y-62373750D01*
X35843250Y-62215000D01*
X35652691Y-62215000D01*
X35419302Y-62311673D01*
X35240673Y-62490301D01*
X35184346Y-62626287D01*
X35182162Y-62614683D01*
X35043090Y-62398559D01*
X34991000Y-62362967D01*
X34991000Y-61861440D01*
X35433000Y-61861440D01*
X35668317Y-61817162D01*
X35884441Y-61678090D01*
X36029431Y-61465890D01*
X36080440Y-61214000D01*
X36080440Y-59182000D01*
X36036162Y-58946683D01*
X35897090Y-58730559D01*
X35684890Y-58585569D01*
X35433000Y-58534560D01*
X33909000Y-58534560D01*
X33673683Y-58578838D01*
X33457559Y-58717910D01*
X33401626Y-58799770D01*
X33357090Y-58730559D01*
X33144890Y-58585569D01*
X32893000Y-58534560D01*
X31369000Y-58534560D01*
X31133683Y-58578838D01*
X30917559Y-58717910D01*
X30861626Y-58799770D01*
X30817090Y-58730559D01*
X30604890Y-58585569D01*
X30353000Y-58534560D01*
X29538070Y-58534560D01*
X30541630Y-57531000D01*
X36008780Y-57531000D01*
X36182110Y-57649431D01*
X36434000Y-57700440D01*
X37734000Y-57700440D01*
X37969317Y-57656162D01*
X38185441Y-57517090D01*
X38221033Y-57465000D01*
X50739000Y-57465000D01*
X51030605Y-57406996D01*
X51277815Y-57241815D01*
X56317781Y-52201850D01*
X56452341Y-52257724D01*
X57082893Y-52258275D01*
X57665657Y-52017481D01*
X58039261Y-51644529D01*
X58337471Y-51943261D01*
G36*
X100203000Y-56558860D02*
X100005559Y-56685910D01*
X99860569Y-56898110D01*
X99809560Y-57150000D01*
X99809560Y-59182000D01*
X99853838Y-59417317D01*
X99973732Y-59603638D01*
X99156185Y-60421185D01*
X98991004Y-60668395D01*
X98933000Y-60960000D01*
X98933000Y-64770000D01*
X98991004Y-65061605D01*
X99060000Y-65164864D01*
X99060000Y-66421000D01*
X99080000Y-66421000D01*
X99080000Y-66675000D01*
X99060000Y-66675000D01*
X99060000Y-68768214D01*
X99289832Y-68889540D01*
X99383810Y-68868649D01*
X99892989Y-68588024D01*
X100197484Y-68207127D01*
X100203000Y-68215382D01*
X100203000Y-75819000D01*
X98001440Y-75819000D01*
X98001440Y-75341000D01*
X97957162Y-75105683D01*
X97818090Y-74889559D01*
X97605890Y-74744569D01*
X97354000Y-74693560D01*
X94924000Y-74693560D01*
X94688683Y-74737838D01*
X94472559Y-74876910D01*
X94327569Y-75089110D01*
X94276560Y-75341000D01*
X94276560Y-75819000D01*
X93843000Y-75819000D01*
X93843000Y-75485750D01*
X93684250Y-75327000D01*
X92710000Y-75327000D01*
X92710000Y-75347000D01*
X92456000Y-75347000D01*
X92456000Y-75327000D01*
X92436000Y-75327000D01*
X92436000Y-75073000D01*
X92456000Y-75073000D01*
X92456000Y-75053000D01*
X92710000Y-75053000D01*
X92710000Y-75073000D01*
X93684250Y-75073000D01*
X93843000Y-74914250D01*
X93843000Y-74602072D01*
X93861698Y-74594327D01*
X94040327Y-74415699D01*
X94137000Y-74182310D01*
X94137000Y-73691750D01*
X93978250Y-73533000D01*
X93279000Y-73533000D01*
X93279000Y-73553000D01*
X93025000Y-73553000D01*
X93025000Y-73533000D01*
X93005000Y-73533000D01*
X93005000Y-73279000D01*
X93025000Y-73279000D01*
X93025000Y-72525250D01*
X93075000Y-72475250D01*
X93075000Y-72279750D01*
X93279000Y-72279750D01*
X93279000Y-73279000D01*
X93978250Y-73279000D01*
X94137000Y-73120250D01*
X94137000Y-72629690D01*
X94087892Y-72511133D01*
X94240327Y-72358699D01*
X94337000Y-72125310D01*
X94337000Y-71713191D01*
X94385673Y-71830698D01*
X94564301Y-72009327D01*
X94797690Y-72106000D01*
X95853250Y-72106000D01*
X96012000Y-71947250D01*
X96012000Y-70413000D01*
X96266000Y-70413000D01*
X96266000Y-71947250D01*
X96424750Y-72106000D01*
X97480310Y-72106000D01*
X97713699Y-72009327D01*
X97892327Y-71830698D01*
X97989000Y-71597309D01*
X97989000Y-70571750D01*
X97830250Y-70413000D01*
X96266000Y-70413000D01*
X96012000Y-70413000D01*
X94447750Y-70413000D01*
X94308021Y-70552729D01*
X94240327Y-70389301D01*
X94061698Y-70210673D01*
X93828309Y-70114000D01*
X93487750Y-70114000D01*
X93329000Y-70272750D01*
X93329000Y-71247000D01*
X93349000Y-71247000D01*
X93349000Y-71501000D01*
X93329000Y-71501000D01*
X93329000Y-72229750D01*
X93279000Y-72279750D01*
X93075000Y-72279750D01*
X93075000Y-71501000D01*
X93055000Y-71501000D01*
X93055000Y-71247000D01*
X93075000Y-71247000D01*
X93075000Y-70272750D01*
X92916250Y-70114000D01*
X92575691Y-70114000D01*
X92342302Y-70210673D01*
X92201064Y-70351910D01*
X92166090Y-70297559D01*
X91964000Y-70159477D01*
X91964000Y-68974691D01*
X94289000Y-68974691D01*
X94289000Y-70000250D01*
X94447750Y-70159000D01*
X96012000Y-70159000D01*
X96012000Y-68624750D01*
X96266000Y-68624750D01*
X96266000Y-70159000D01*
X97830250Y-70159000D01*
X97989000Y-70000250D01*
X97989000Y-68974691D01*
X97892327Y-68741302D01*
X97713699Y-68562673D01*
X97480310Y-68466000D01*
X96424750Y-68466000D01*
X96266000Y-68624750D01*
X96012000Y-68624750D01*
X95853250Y-68466000D01*
X94797690Y-68466000D01*
X94564301Y-68562673D01*
X94385673Y-68741302D01*
X94289000Y-68974691D01*
X91964000Y-68974691D01*
X91964000Y-66675000D01*
X97448370Y-66675000D01*
X97448370Y-67575430D01*
X97609982Y-68133906D01*
X97973011Y-68588024D01*
X98482190Y-68868649D01*
X98576168Y-68889540D01*
X98806000Y-68768214D01*
X98806000Y-66675000D01*
X97448370Y-66675000D01*
X91964000Y-66675000D01*
X91964000Y-65520570D01*
X97448370Y-65520570D01*
X97448370Y-66421000D01*
X98806000Y-66421000D01*
X98806000Y-64327786D01*
X98576168Y-64206460D01*
X98482190Y-64227351D01*
X97973011Y-64507976D01*
X97609982Y-64962094D01*
X97448370Y-65520570D01*
X91964000Y-65520570D01*
X91964000Y-59776742D01*
X92329000Y-59849345D01*
X92902489Y-59735271D01*
X93388670Y-59410415D01*
X93599000Y-59095634D01*
X93809330Y-59410415D01*
X94295511Y-59735271D01*
X94869000Y-59849345D01*
X95442489Y-59735271D01*
X95928670Y-59410415D01*
X96253526Y-58924234D01*
X96367600Y-58350745D01*
X96367600Y-57981255D01*
X96253526Y-57407766D01*
X95928670Y-56921585D01*
X95442489Y-56596729D01*
X94869000Y-56482655D01*
X94295511Y-56596729D01*
X93809330Y-56921585D01*
X93599000Y-57236366D01*
X93388670Y-56921585D01*
X93091000Y-56722688D01*
X93091000Y-46289630D01*
X100203000Y-39177631D01*
X100203000Y-56558860D01*
X100203000Y-56558860D01*
G37*
X100203000Y-56558860D02*
X100005559Y-56685910D01*
X99860569Y-56898110D01*
X99809560Y-57150000D01*
X99809560Y-59182000D01*
X99853838Y-59417317D01*
X99973732Y-59603638D01*
X99156185Y-60421185D01*
X98991004Y-60668395D01*
X98933000Y-60960000D01*
X98933000Y-64770000D01*
X98991004Y-65061605D01*
X99060000Y-65164864D01*
X99060000Y-66421000D01*
X99080000Y-66421000D01*
X99080000Y-66675000D01*
X99060000Y-66675000D01*
X99060000Y-68768214D01*
X99289832Y-68889540D01*
X99383810Y-68868649D01*
X99892989Y-68588024D01*
X100197484Y-68207127D01*
X100203000Y-68215382D01*
X100203000Y-75819000D01*
X98001440Y-75819000D01*
X98001440Y-75341000D01*
X97957162Y-75105683D01*
X97818090Y-74889559D01*
X97605890Y-74744569D01*
X97354000Y-74693560D01*
X94924000Y-74693560D01*
X94688683Y-74737838D01*
X94472559Y-74876910D01*
X94327569Y-75089110D01*
X94276560Y-75341000D01*
X94276560Y-75819000D01*
X93843000Y-75819000D01*
X93843000Y-75485750D01*
X93684250Y-75327000D01*
X92710000Y-75327000D01*
X92710000Y-75347000D01*
X92456000Y-75347000D01*
X92456000Y-75327000D01*
X92436000Y-75327000D01*
X92436000Y-75073000D01*
X92456000Y-75073000D01*
X92456000Y-75053000D01*
X92710000Y-75053000D01*
X92710000Y-75073000D01*
X93684250Y-75073000D01*
X93843000Y-74914250D01*
X93843000Y-74602072D01*
X93861698Y-74594327D01*
X94040327Y-74415699D01*
X94137000Y-74182310D01*
X94137000Y-73691750D01*
X93978250Y-73533000D01*
X93279000Y-73533000D01*
X93279000Y-73553000D01*
X93025000Y-73553000D01*
X93025000Y-73533000D01*
X93005000Y-73533000D01*
X93005000Y-73279000D01*
X93025000Y-73279000D01*
X93025000Y-72525250D01*
X93075000Y-72475250D01*
X93075000Y-72279750D01*
X93279000Y-72279750D01*
X93279000Y-73279000D01*
X93978250Y-73279000D01*
X94137000Y-73120250D01*
X94137000Y-72629690D01*
X94087892Y-72511133D01*
X94240327Y-72358699D01*
X94337000Y-72125310D01*
X94337000Y-71713191D01*
X94385673Y-71830698D01*
X94564301Y-72009327D01*
X94797690Y-72106000D01*
X95853250Y-72106000D01*
X96012000Y-71947250D01*
X96012000Y-70413000D01*
X96266000Y-70413000D01*
X96266000Y-71947250D01*
X96424750Y-72106000D01*
X97480310Y-72106000D01*
X97713699Y-72009327D01*
X97892327Y-71830698D01*
X97989000Y-71597309D01*
X97989000Y-70571750D01*
X97830250Y-70413000D01*
X96266000Y-70413000D01*
X96012000Y-70413000D01*
X94447750Y-70413000D01*
X94308021Y-70552729D01*
X94240327Y-70389301D01*
X94061698Y-70210673D01*
X93828309Y-70114000D01*
X93487750Y-70114000D01*
X93329000Y-70272750D01*
X93329000Y-71247000D01*
X93349000Y-71247000D01*
X93349000Y-71501000D01*
X93329000Y-71501000D01*
X93329000Y-72229750D01*
X93279000Y-72279750D01*
X93075000Y-72279750D01*
X93075000Y-71501000D01*
X93055000Y-71501000D01*
X93055000Y-71247000D01*
X93075000Y-71247000D01*
X93075000Y-70272750D01*
X92916250Y-70114000D01*
X92575691Y-70114000D01*
X92342302Y-70210673D01*
X92201064Y-70351910D01*
X92166090Y-70297559D01*
X91964000Y-70159477D01*
X91964000Y-68974691D01*
X94289000Y-68974691D01*
X94289000Y-70000250D01*
X94447750Y-70159000D01*
X96012000Y-70159000D01*
X96012000Y-68624750D01*
X96266000Y-68624750D01*
X96266000Y-70159000D01*
X97830250Y-70159000D01*
X97989000Y-70000250D01*
X97989000Y-68974691D01*
X97892327Y-68741302D01*
X97713699Y-68562673D01*
X97480310Y-68466000D01*
X96424750Y-68466000D01*
X96266000Y-68624750D01*
X96012000Y-68624750D01*
X95853250Y-68466000D01*
X94797690Y-68466000D01*
X94564301Y-68562673D01*
X94385673Y-68741302D01*
X94289000Y-68974691D01*
X91964000Y-68974691D01*
X91964000Y-66675000D01*
X97448370Y-66675000D01*
X97448370Y-67575430D01*
X97609982Y-68133906D01*
X97973011Y-68588024D01*
X98482190Y-68868649D01*
X98576168Y-68889540D01*
X98806000Y-68768214D01*
X98806000Y-66675000D01*
X97448370Y-66675000D01*
X91964000Y-66675000D01*
X91964000Y-65520570D01*
X97448370Y-65520570D01*
X97448370Y-66421000D01*
X98806000Y-66421000D01*
X98806000Y-64327786D01*
X98576168Y-64206460D01*
X98482190Y-64227351D01*
X97973011Y-64507976D01*
X97609982Y-64962094D01*
X97448370Y-65520570D01*
X91964000Y-65520570D01*
X91964000Y-59776742D01*
X92329000Y-59849345D01*
X92902489Y-59735271D01*
X93388670Y-59410415D01*
X93599000Y-59095634D01*
X93809330Y-59410415D01*
X94295511Y-59735271D01*
X94869000Y-59849345D01*
X95442489Y-59735271D01*
X95928670Y-59410415D01*
X96253526Y-58924234D01*
X96367600Y-58350745D01*
X96367600Y-57981255D01*
X96253526Y-57407766D01*
X95928670Y-56921585D01*
X95442489Y-56596729D01*
X94869000Y-56482655D01*
X94295511Y-56596729D01*
X93809330Y-56921585D01*
X93599000Y-57236366D01*
X93388670Y-56921585D01*
X93091000Y-56722688D01*
X93091000Y-46289630D01*
X100203000Y-39177631D01*
X100203000Y-56558860D01*
G36*
X83809997Y-52015914D02*
X84392341Y-52257724D01*
X85022893Y-52258275D01*
X85070128Y-52238758D01*
X86868000Y-54036630D01*
X86868000Y-73564474D01*
X86679485Y-73375629D01*
X86225734Y-73187215D01*
X85734421Y-73186786D01*
X85280343Y-73374408D01*
X85179646Y-73474929D01*
X85067890Y-73398569D01*
X84816000Y-73347560D01*
X83266000Y-73347560D01*
X83030683Y-73391838D01*
X82814559Y-73530910D01*
X82669569Y-73743110D01*
X82618560Y-73995000D01*
X82618560Y-74595000D01*
X82662838Y-74830317D01*
X82726678Y-74929528D01*
X82669569Y-75013110D01*
X82652421Y-75097790D01*
X82296000Y-74741370D01*
X82296000Y-67498112D01*
X82482893Y-67498275D01*
X83065657Y-67257481D01*
X83439261Y-66884529D01*
X83809997Y-67255914D01*
X84392341Y-67497724D01*
X85022893Y-67498275D01*
X85605657Y-67257481D01*
X86051914Y-66812003D01*
X86293724Y-66229659D01*
X86294275Y-65599107D01*
X86053481Y-65016343D01*
X85608003Y-64570086D01*
X85025659Y-64328276D01*
X84395107Y-64327725D01*
X83812343Y-64568519D01*
X83438739Y-64941471D01*
X83068003Y-64570086D01*
X82485659Y-64328276D01*
X81855107Y-64327725D01*
X81272343Y-64568519D01*
X80898739Y-64941471D01*
X80528003Y-64570086D01*
X79945659Y-64328276D01*
X79315107Y-64327725D01*
X79121000Y-64407929D01*
X79121000Y-52927360D01*
X79405371Y-52643485D01*
X79565461Y-52257945D01*
X79942893Y-52258275D01*
X80525657Y-52017481D01*
X80899261Y-51644529D01*
X81269997Y-52015914D01*
X81852341Y-52257724D01*
X82482893Y-52258275D01*
X83065657Y-52017481D01*
X83439261Y-51644529D01*
X83809997Y-52015914D01*
X83809997Y-52015914D01*
G37*
X83809997Y-52015914D02*
X84392341Y-52257724D01*
X85022893Y-52258275D01*
X85070128Y-52238758D01*
X86868000Y-54036630D01*
X86868000Y-73564474D01*
X86679485Y-73375629D01*
X86225734Y-73187215D01*
X85734421Y-73186786D01*
X85280343Y-73374408D01*
X85179646Y-73474929D01*
X85067890Y-73398569D01*
X84816000Y-73347560D01*
X83266000Y-73347560D01*
X83030683Y-73391838D01*
X82814559Y-73530910D01*
X82669569Y-73743110D01*
X82618560Y-73995000D01*
X82618560Y-74595000D01*
X82662838Y-74830317D01*
X82726678Y-74929528D01*
X82669569Y-75013110D01*
X82652421Y-75097790D01*
X82296000Y-74741370D01*
X82296000Y-67498112D01*
X82482893Y-67498275D01*
X83065657Y-67257481D01*
X83439261Y-66884529D01*
X83809997Y-67255914D01*
X84392341Y-67497724D01*
X85022893Y-67498275D01*
X85605657Y-67257481D01*
X86051914Y-66812003D01*
X86293724Y-66229659D01*
X86294275Y-65599107D01*
X86053481Y-65016343D01*
X85608003Y-64570086D01*
X85025659Y-64328276D01*
X84395107Y-64327725D01*
X83812343Y-64568519D01*
X83438739Y-64941471D01*
X83068003Y-64570086D01*
X82485659Y-64328276D01*
X81855107Y-64327725D01*
X81272343Y-64568519D01*
X80898739Y-64941471D01*
X80528003Y-64570086D01*
X79945659Y-64328276D01*
X79315107Y-64327725D01*
X79121000Y-64407929D01*
X79121000Y-52927360D01*
X79405371Y-52643485D01*
X79565461Y-52257945D01*
X79942893Y-52258275D01*
X80525657Y-52017481D01*
X80899261Y-51644529D01*
X81269997Y-52015914D01*
X81852341Y-52257724D01*
X82482893Y-52258275D01*
X83065657Y-52017481D01*
X83439261Y-51644529D01*
X83809997Y-52015914D01*
G36*
X91414828Y-26211223D02*
X92583000Y-27379395D01*
X93751172Y-26211223D01*
X93672472Y-26035000D01*
X95061370Y-26035000D01*
X95346184Y-26319815D01*
X95346187Y-26319817D01*
X95889321Y-26862952D01*
X95758332Y-27178410D01*
X95757670Y-27936265D01*
X96047078Y-28636686D01*
X96582495Y-29173039D01*
X97282410Y-29463668D01*
X98040265Y-29464330D01*
X98359001Y-29332631D01*
X98806000Y-29779630D01*
X98806000Y-32998634D01*
X98714758Y-33015803D01*
X98673767Y-32916842D01*
X98495139Y-32738213D01*
X98261750Y-32641540D01*
X97821750Y-32641540D01*
X97663000Y-32800290D01*
X97663000Y-33748980D01*
X97683000Y-33748980D01*
X97683000Y-34002980D01*
X97663000Y-34002980D01*
X97663000Y-34022980D01*
X97409000Y-34022980D01*
X97409000Y-34002980D01*
X96460310Y-34002980D01*
X96301560Y-34161730D01*
X96301560Y-34601729D01*
X96398233Y-34835118D01*
X96480445Y-34917331D01*
X96340129Y-35122690D01*
X96289120Y-35374580D01*
X96289120Y-36573460D01*
X96333398Y-36808777D01*
X96472470Y-37024901D01*
X96684670Y-37169891D01*
X96936560Y-37220900D01*
X98135440Y-37220900D01*
X98370757Y-37176622D01*
X98586881Y-37037550D01*
X98726230Y-36833606D01*
X98918000Y-36872440D01*
X100203000Y-36872440D01*
X100203000Y-37022369D01*
X91790185Y-45435185D01*
X91625004Y-45682395D01*
X91567000Y-45974000D01*
X91567000Y-56722688D01*
X91269330Y-56921585D01*
X91254500Y-56943780D01*
X91190927Y-56790302D01*
X91012299Y-56611673D01*
X90778910Y-56515000D01*
X90074750Y-56515000D01*
X89916000Y-56673750D01*
X89916000Y-58039000D01*
X89936000Y-58039000D01*
X89936000Y-58293000D01*
X89916000Y-58293000D01*
X89916000Y-59658250D01*
X90074750Y-59817000D01*
X90440000Y-59817000D01*
X90440000Y-70163008D01*
X90250559Y-70284910D01*
X90105569Y-70497110D01*
X90054560Y-70749000D01*
X90054560Y-71443810D01*
X88902185Y-72596185D01*
X88737004Y-72843395D01*
X88679000Y-73135000D01*
X88679000Y-73347560D01*
X88666000Y-73347560D01*
X88430683Y-73391838D01*
X88392000Y-73416730D01*
X88392000Y-59546625D01*
X88565701Y-59720327D01*
X88799090Y-59817000D01*
X89503250Y-59817000D01*
X89662000Y-59658250D01*
X89662000Y-58293000D01*
X89642000Y-58293000D01*
X89642000Y-58039000D01*
X89662000Y-58039000D01*
X89662000Y-56673750D01*
X89503250Y-56515000D01*
X88799090Y-56515000D01*
X88565701Y-56611673D01*
X88392000Y-56785375D01*
X88392000Y-53721000D01*
X88333996Y-53429395D01*
X88168815Y-53182185D01*
X86200587Y-51213957D01*
X86293724Y-50989659D01*
X86294275Y-50359107D01*
X86053481Y-49776343D01*
X85608003Y-49330086D01*
X85025659Y-49088276D01*
X84395107Y-49087725D01*
X83812343Y-49328519D01*
X83438739Y-49701471D01*
X83068003Y-49330086D01*
X82485659Y-49088276D01*
X81855107Y-49087725D01*
X81272343Y-49328519D01*
X80898739Y-49701471D01*
X80528003Y-49330086D01*
X79945659Y-49088276D01*
X79429445Y-49087825D01*
X79819657Y-48926592D01*
X80167371Y-48579485D01*
X80293285Y-48276250D01*
X80599619Y-48276250D01*
X80995184Y-48671815D01*
X81201750Y-48809838D01*
X81242395Y-48836996D01*
X81534000Y-48895000D01*
X84124760Y-48895000D01*
X84416365Y-48836996D01*
X84663575Y-48671815D01*
X84924880Y-48410510D01*
X85186185Y-48671816D01*
X85326484Y-48765560D01*
X85433395Y-48836996D01*
X85725000Y-48895000D01*
X87503000Y-48895000D01*
X87794605Y-48836996D01*
X88041815Y-48671815D01*
X89372815Y-47340816D01*
X89537996Y-47093605D01*
X89545476Y-47056000D01*
X89596000Y-46802000D01*
X89596000Y-43811470D01*
X89635441Y-43786090D01*
X89780431Y-43573890D01*
X89831440Y-43322000D01*
X89831440Y-42022000D01*
X89787162Y-41786683D01*
X89648090Y-41570559D01*
X89596000Y-41534967D01*
X89596000Y-41398470D01*
X89635441Y-41373090D01*
X89780431Y-41160890D01*
X89831440Y-40909000D01*
X89831440Y-39609000D01*
X89787162Y-39373683D01*
X89648090Y-39157559D01*
X89435890Y-39012569D01*
X89184000Y-38961560D01*
X88484000Y-38961560D01*
X88248683Y-39005838D01*
X88032559Y-39144910D01*
X87887569Y-39357110D01*
X87884919Y-39370197D01*
X87748090Y-39157559D01*
X87535890Y-39012569D01*
X87284000Y-38961560D01*
X86584000Y-38961560D01*
X86348683Y-39005838D01*
X86132559Y-39144910D01*
X85987569Y-39357110D01*
X85936560Y-39609000D01*
X85936560Y-40789929D01*
X84866815Y-39720185D01*
X84770513Y-39655838D01*
X84619605Y-39555004D01*
X84328000Y-39497000D01*
X84222366Y-39497000D01*
X84199162Y-39373683D01*
X84060090Y-39157559D01*
X83995332Y-39113311D01*
X83991710Y-39095104D01*
X84038785Y-38981734D01*
X84039214Y-38490421D01*
X83851592Y-38036343D01*
X83504485Y-37688629D01*
X83050734Y-37500215D01*
X82559421Y-37499786D01*
X82108000Y-37686310D01*
X82108000Y-34920630D01*
X83878399Y-33150231D01*
X96301560Y-33150231D01*
X96301560Y-33590230D01*
X96460310Y-33748980D01*
X97409000Y-33748980D01*
X97409000Y-32800290D01*
X97250250Y-32641540D01*
X96810250Y-32641540D01*
X96576861Y-32738213D01*
X96398233Y-32916842D01*
X96301560Y-33150231D01*
X83878399Y-33150231D01*
X85374815Y-31653816D01*
X85539996Y-31406605D01*
X85557334Y-31319440D01*
X85598000Y-31115000D01*
X85598000Y-28906777D01*
X91414828Y-28906777D01*
X91546520Y-29201657D01*
X92254036Y-29473261D01*
X93011632Y-29453436D01*
X93619480Y-29201657D01*
X93751172Y-28906777D01*
X92583000Y-27738605D01*
X91414828Y-28906777D01*
X85598000Y-28906777D01*
X85598000Y-27230036D01*
X90668739Y-27230036D01*
X90688564Y-27987632D01*
X90940343Y-28595480D01*
X91235223Y-28727172D01*
X92403395Y-27559000D01*
X92762605Y-27559000D01*
X93930777Y-28727172D01*
X94225657Y-28595480D01*
X94497261Y-27887964D01*
X94477436Y-27130368D01*
X94225657Y-26522520D01*
X93930777Y-26390828D01*
X92762605Y-27559000D01*
X92403395Y-27559000D01*
X91235223Y-26390828D01*
X90940343Y-26522520D01*
X90668739Y-27230036D01*
X85598000Y-27230036D01*
X85598000Y-26035000D01*
X91493528Y-26035000D01*
X91414828Y-26211223D01*
X91414828Y-26211223D01*
G37*
X91414828Y-26211223D02*
X92583000Y-27379395D01*
X93751172Y-26211223D01*
X93672472Y-26035000D01*
X95061370Y-26035000D01*
X95346184Y-26319815D01*
X95346187Y-26319817D01*
X95889321Y-26862952D01*
X95758332Y-27178410D01*
X95757670Y-27936265D01*
X96047078Y-28636686D01*
X96582495Y-29173039D01*
X97282410Y-29463668D01*
X98040265Y-29464330D01*
X98359001Y-29332631D01*
X98806000Y-29779630D01*
X98806000Y-32998634D01*
X98714758Y-33015803D01*
X98673767Y-32916842D01*
X98495139Y-32738213D01*
X98261750Y-32641540D01*
X97821750Y-32641540D01*
X97663000Y-32800290D01*
X97663000Y-33748980D01*
X97683000Y-33748980D01*
X97683000Y-34002980D01*
X97663000Y-34002980D01*
X97663000Y-34022980D01*
X97409000Y-34022980D01*
X97409000Y-34002980D01*
X96460310Y-34002980D01*
X96301560Y-34161730D01*
X96301560Y-34601729D01*
X96398233Y-34835118D01*
X96480445Y-34917331D01*
X96340129Y-35122690D01*
X96289120Y-35374580D01*
X96289120Y-36573460D01*
X96333398Y-36808777D01*
X96472470Y-37024901D01*
X96684670Y-37169891D01*
X96936560Y-37220900D01*
X98135440Y-37220900D01*
X98370757Y-37176622D01*
X98586881Y-37037550D01*
X98726230Y-36833606D01*
X98918000Y-36872440D01*
X100203000Y-36872440D01*
X100203000Y-37022369D01*
X91790185Y-45435185D01*
X91625004Y-45682395D01*
X91567000Y-45974000D01*
X91567000Y-56722688D01*
X91269330Y-56921585D01*
X91254500Y-56943780D01*
X91190927Y-56790302D01*
X91012299Y-56611673D01*
X90778910Y-56515000D01*
X90074750Y-56515000D01*
X89916000Y-56673750D01*
X89916000Y-58039000D01*
X89936000Y-58039000D01*
X89936000Y-58293000D01*
X89916000Y-58293000D01*
X89916000Y-59658250D01*
X90074750Y-59817000D01*
X90440000Y-59817000D01*
X90440000Y-70163008D01*
X90250559Y-70284910D01*
X90105569Y-70497110D01*
X90054560Y-70749000D01*
X90054560Y-71443810D01*
X88902185Y-72596185D01*
X88737004Y-72843395D01*
X88679000Y-73135000D01*
X88679000Y-73347560D01*
X88666000Y-73347560D01*
X88430683Y-73391838D01*
X88392000Y-73416730D01*
X88392000Y-59546625D01*
X88565701Y-59720327D01*
X88799090Y-59817000D01*
X89503250Y-59817000D01*
X89662000Y-59658250D01*
X89662000Y-58293000D01*
X89642000Y-58293000D01*
X89642000Y-58039000D01*
X89662000Y-58039000D01*
X89662000Y-56673750D01*
X89503250Y-56515000D01*
X88799090Y-56515000D01*
X88565701Y-56611673D01*
X88392000Y-56785375D01*
X88392000Y-53721000D01*
X88333996Y-53429395D01*
X88168815Y-53182185D01*
X86200587Y-51213957D01*
X86293724Y-50989659D01*
X86294275Y-50359107D01*
X86053481Y-49776343D01*
X85608003Y-49330086D01*
X85025659Y-49088276D01*
X84395107Y-49087725D01*
X83812343Y-49328519D01*
X83438739Y-49701471D01*
X83068003Y-49330086D01*
X82485659Y-49088276D01*
X81855107Y-49087725D01*
X81272343Y-49328519D01*
X80898739Y-49701471D01*
X80528003Y-49330086D01*
X79945659Y-49088276D01*
X79429445Y-49087825D01*
X79819657Y-48926592D01*
X80167371Y-48579485D01*
X80293285Y-48276250D01*
X80599619Y-48276250D01*
X80995184Y-48671815D01*
X81201750Y-48809838D01*
X81242395Y-48836996D01*
X81534000Y-48895000D01*
X84124760Y-48895000D01*
X84416365Y-48836996D01*
X84663575Y-48671815D01*
X84924880Y-48410510D01*
X85186185Y-48671816D01*
X85326484Y-48765560D01*
X85433395Y-48836996D01*
X85725000Y-48895000D01*
X87503000Y-48895000D01*
X87794605Y-48836996D01*
X88041815Y-48671815D01*
X89372815Y-47340816D01*
X89537996Y-47093605D01*
X89545476Y-47056000D01*
X89596000Y-46802000D01*
X89596000Y-43811470D01*
X89635441Y-43786090D01*
X89780431Y-43573890D01*
X89831440Y-43322000D01*
X89831440Y-42022000D01*
X89787162Y-41786683D01*
X89648090Y-41570559D01*
X89596000Y-41534967D01*
X89596000Y-41398470D01*
X89635441Y-41373090D01*
X89780431Y-41160890D01*
X89831440Y-40909000D01*
X89831440Y-39609000D01*
X89787162Y-39373683D01*
X89648090Y-39157559D01*
X89435890Y-39012569D01*
X89184000Y-38961560D01*
X88484000Y-38961560D01*
X88248683Y-39005838D01*
X88032559Y-39144910D01*
X87887569Y-39357110D01*
X87884919Y-39370197D01*
X87748090Y-39157559D01*
X87535890Y-39012569D01*
X87284000Y-38961560D01*
X86584000Y-38961560D01*
X86348683Y-39005838D01*
X86132559Y-39144910D01*
X85987569Y-39357110D01*
X85936560Y-39609000D01*
X85936560Y-40789929D01*
X84866815Y-39720185D01*
X84770513Y-39655838D01*
X84619605Y-39555004D01*
X84328000Y-39497000D01*
X84222366Y-39497000D01*
X84199162Y-39373683D01*
X84060090Y-39157559D01*
X83995332Y-39113311D01*
X83991710Y-39095104D01*
X84038785Y-38981734D01*
X84039214Y-38490421D01*
X83851592Y-38036343D01*
X83504485Y-37688629D01*
X83050734Y-37500215D01*
X82559421Y-37499786D01*
X82108000Y-37686310D01*
X82108000Y-34920630D01*
X83878399Y-33150231D01*
X96301560Y-33150231D01*
X96301560Y-33590230D01*
X96460310Y-33748980D01*
X97409000Y-33748980D01*
X97409000Y-32800290D01*
X97250250Y-32641540D01*
X96810250Y-32641540D01*
X96576861Y-32738213D01*
X96398233Y-32916842D01*
X96301560Y-33150231D01*
X83878399Y-33150231D01*
X85374815Y-31653816D01*
X85539996Y-31406605D01*
X85557334Y-31319440D01*
X85598000Y-31115000D01*
X85598000Y-28906777D01*
X91414828Y-28906777D01*
X91546520Y-29201657D01*
X92254036Y-29473261D01*
X93011632Y-29453436D01*
X93619480Y-29201657D01*
X93751172Y-28906777D01*
X92583000Y-27738605D01*
X91414828Y-28906777D01*
X85598000Y-28906777D01*
X85598000Y-27230036D01*
X90668739Y-27230036D01*
X90688564Y-27987632D01*
X90940343Y-28595480D01*
X91235223Y-28727172D01*
X92403395Y-27559000D01*
X92762605Y-27559000D01*
X93930777Y-28727172D01*
X94225657Y-28595480D01*
X94497261Y-27887964D01*
X94477436Y-27130368D01*
X94225657Y-26522520D01*
X93930777Y-26390828D01*
X92762605Y-27559000D01*
X92403395Y-27559000D01*
X91235223Y-26390828D01*
X90940343Y-26522520D01*
X90668739Y-27230036D01*
X85598000Y-27230036D01*
X85598000Y-26035000D01*
X91493528Y-26035000D01*
X91414828Y-26211223D01*
G36*
X41693981Y-70250560D02*
X39517000Y-70250560D01*
X39281683Y-70294838D01*
X39065559Y-70433910D01*
X39043275Y-70466524D01*
X39044540Y-70460832D01*
X38923214Y-70231000D01*
X36830000Y-70231000D01*
X36830000Y-70251000D01*
X36576000Y-70251000D01*
X36576000Y-70231000D01*
X34482786Y-70231000D01*
X34361460Y-70460832D01*
X34382351Y-70554810D01*
X34499525Y-70767417D01*
X34362185Y-70859185D01*
X33041636Y-72179734D01*
X32670907Y-72025794D01*
X32020666Y-72025226D01*
X31837527Y-72100897D01*
X30014440Y-70277810D01*
X30014440Y-69747168D01*
X34361460Y-69747168D01*
X34482786Y-69977000D01*
X36576000Y-69977000D01*
X36576000Y-68619370D01*
X36830000Y-68619370D01*
X36830000Y-69977000D01*
X38923214Y-69977000D01*
X39044540Y-69747168D01*
X39023649Y-69653190D01*
X38743024Y-69144011D01*
X38288906Y-68780982D01*
X37730430Y-68619370D01*
X36830000Y-68619370D01*
X36576000Y-68619370D01*
X35675570Y-68619370D01*
X35117094Y-68780982D01*
X34662976Y-69144011D01*
X34382351Y-69653190D01*
X34361460Y-69747168D01*
X30014440Y-69747168D01*
X30014440Y-69708000D01*
X29970162Y-69472683D01*
X29831090Y-69256559D01*
X29618890Y-69111569D01*
X29456867Y-69078758D01*
X29468927Y-69066698D01*
X29532500Y-68913220D01*
X29547330Y-68935415D01*
X30033511Y-69260271D01*
X30607000Y-69374345D01*
X31180489Y-69260271D01*
X31666670Y-68935415D01*
X31877000Y-68620634D01*
X32087330Y-68935415D01*
X32573511Y-69260271D01*
X33147000Y-69374345D01*
X33720489Y-69260271D01*
X34206670Y-68935415D01*
X34446824Y-68576000D01*
X40019420Y-68576000D01*
X41693981Y-70250560D01*
X41693981Y-70250560D01*
G37*
X41693981Y-70250560D02*
X39517000Y-70250560D01*
X39281683Y-70294838D01*
X39065559Y-70433910D01*
X39043275Y-70466524D01*
X39044540Y-70460832D01*
X38923214Y-70231000D01*
X36830000Y-70231000D01*
X36830000Y-70251000D01*
X36576000Y-70251000D01*
X36576000Y-70231000D01*
X34482786Y-70231000D01*
X34361460Y-70460832D01*
X34382351Y-70554810D01*
X34499525Y-70767417D01*
X34362185Y-70859185D01*
X33041636Y-72179734D01*
X32670907Y-72025794D01*
X32020666Y-72025226D01*
X31837527Y-72100897D01*
X30014440Y-70277810D01*
X30014440Y-69747168D01*
X34361460Y-69747168D01*
X34482786Y-69977000D01*
X36576000Y-69977000D01*
X36576000Y-68619370D01*
X36830000Y-68619370D01*
X36830000Y-69977000D01*
X38923214Y-69977000D01*
X39044540Y-69747168D01*
X39023649Y-69653190D01*
X38743024Y-69144011D01*
X38288906Y-68780982D01*
X37730430Y-68619370D01*
X36830000Y-68619370D01*
X36576000Y-68619370D01*
X35675570Y-68619370D01*
X35117094Y-68780982D01*
X34662976Y-69144011D01*
X34382351Y-69653190D01*
X34361460Y-69747168D01*
X30014440Y-69747168D01*
X30014440Y-69708000D01*
X29970162Y-69472683D01*
X29831090Y-69256559D01*
X29618890Y-69111569D01*
X29456867Y-69078758D01*
X29468927Y-69066698D01*
X29532500Y-68913220D01*
X29547330Y-68935415D01*
X30033511Y-69260271D01*
X30607000Y-69374345D01*
X31180489Y-69260271D01*
X31666670Y-68935415D01*
X31877000Y-68620634D01*
X32087330Y-68935415D01*
X32573511Y-69260271D01*
X33147000Y-69374345D01*
X33720489Y-69260271D01*
X34206670Y-68935415D01*
X34446824Y-68576000D01*
X40019420Y-68576000D01*
X41693981Y-70250560D01*
G36*
X26302910Y-64601441D02*
X26515110Y-64746431D01*
X26585131Y-64760611D01*
X26578215Y-64777266D01*
X26577786Y-65268579D01*
X26765408Y-65722657D01*
X27082197Y-66040000D01*
X27077090Y-66040000D01*
X26843701Y-66136673D01*
X26665073Y-66315302D01*
X26568400Y-66548691D01*
X26568400Y-67405250D01*
X26727150Y-67564000D01*
X27940000Y-67564000D01*
X27940000Y-67544000D01*
X28194000Y-67544000D01*
X28194000Y-67564000D01*
X28214000Y-67564000D01*
X28214000Y-67818000D01*
X28194000Y-67818000D01*
X28194000Y-69183250D01*
X28239351Y-69228601D01*
X28215559Y-69243910D01*
X28070569Y-69456110D01*
X28063809Y-69489490D01*
X28005327Y-69348301D01*
X27890138Y-69233112D01*
X27940000Y-69183250D01*
X27940000Y-67818000D01*
X26727150Y-67818000D01*
X26568400Y-67976750D01*
X26568400Y-68833309D01*
X26665073Y-69066698D01*
X26671375Y-69073000D01*
X26640691Y-69073000D01*
X26407302Y-69169673D01*
X26285000Y-69291974D01*
X26285000Y-64573608D01*
X26302910Y-64601441D01*
X26302910Y-64601441D01*
G37*
X26302910Y-64601441D02*
X26515110Y-64746431D01*
X26585131Y-64760611D01*
X26578215Y-64777266D01*
X26577786Y-65268579D01*
X26765408Y-65722657D01*
X27082197Y-66040000D01*
X27077090Y-66040000D01*
X26843701Y-66136673D01*
X26665073Y-66315302D01*
X26568400Y-66548691D01*
X26568400Y-67405250D01*
X26727150Y-67564000D01*
X27940000Y-67564000D01*
X27940000Y-67544000D01*
X28194000Y-67544000D01*
X28194000Y-67564000D01*
X28214000Y-67564000D01*
X28214000Y-67818000D01*
X28194000Y-67818000D01*
X28194000Y-69183250D01*
X28239351Y-69228601D01*
X28215559Y-69243910D01*
X28070569Y-69456110D01*
X28063809Y-69489490D01*
X28005327Y-69348301D01*
X27890138Y-69233112D01*
X27940000Y-69183250D01*
X27940000Y-67818000D01*
X26727150Y-67818000D01*
X26568400Y-67976750D01*
X26568400Y-68833309D01*
X26665073Y-69066698D01*
X26671375Y-69073000D01*
X26640691Y-69073000D01*
X26407302Y-69169673D01*
X26285000Y-69291974D01*
X26285000Y-64573608D01*
X26302910Y-64601441D01*
G36*
X31758910Y-64601441D02*
X31945308Y-64728801D01*
X32034185Y-64861815D01*
X32735185Y-65562816D01*
X32881228Y-65660398D01*
X32982395Y-65727996D01*
X33274000Y-65786000D01*
X42449640Y-65786000D01*
X42733515Y-66070371D01*
X42991141Y-66177347D01*
X42834215Y-66555266D01*
X42833786Y-67046579D01*
X43021408Y-67500657D01*
X43307000Y-67786748D01*
X43307000Y-69360421D01*
X41011790Y-67065210D01*
X40987132Y-67048734D01*
X40724675Y-66873367D01*
X40668484Y-66862190D01*
X40386000Y-66805999D01*
X40385995Y-66806000D01*
X34446824Y-66806000D01*
X34206670Y-66446585D01*
X33720489Y-66121729D01*
X33147000Y-66007655D01*
X32573511Y-66121729D01*
X32087330Y-66446585D01*
X31877000Y-66761366D01*
X31666670Y-66446585D01*
X31180489Y-66121729D01*
X30607000Y-66007655D01*
X30033511Y-66121729D01*
X29547330Y-66446585D01*
X29532500Y-66468780D01*
X29468927Y-66315302D01*
X29290299Y-66136673D01*
X29056910Y-66040000D01*
X28543304Y-66040000D01*
X28859371Y-65724485D01*
X29047785Y-65270734D01*
X29048138Y-64866492D01*
X29093933Y-64820697D01*
X29210854Y-64797440D01*
X29367000Y-64797440D01*
X29602317Y-64753162D01*
X29818441Y-64614090D01*
X29843474Y-64577453D01*
X29858910Y-64601441D01*
X30071110Y-64746431D01*
X30323000Y-64797440D01*
X31023000Y-64797440D01*
X31258317Y-64753162D01*
X31474441Y-64614090D01*
X31619431Y-64401890D01*
X31622081Y-64388803D01*
X31758910Y-64601441D01*
X31758910Y-64601441D01*
G37*
X31758910Y-64601441D02*
X31945308Y-64728801D01*
X32034185Y-64861815D01*
X32735185Y-65562816D01*
X32881228Y-65660398D01*
X32982395Y-65727996D01*
X33274000Y-65786000D01*
X42449640Y-65786000D01*
X42733515Y-66070371D01*
X42991141Y-66177347D01*
X42834215Y-66555266D01*
X42833786Y-67046579D01*
X43021408Y-67500657D01*
X43307000Y-67786748D01*
X43307000Y-69360421D01*
X41011790Y-67065210D01*
X40987132Y-67048734D01*
X40724675Y-66873367D01*
X40668484Y-66862190D01*
X40386000Y-66805999D01*
X40385995Y-66806000D01*
X34446824Y-66806000D01*
X34206670Y-66446585D01*
X33720489Y-66121729D01*
X33147000Y-66007655D01*
X32573511Y-66121729D01*
X32087330Y-66446585D01*
X31877000Y-66761366D01*
X31666670Y-66446585D01*
X31180489Y-66121729D01*
X30607000Y-66007655D01*
X30033511Y-66121729D01*
X29547330Y-66446585D01*
X29532500Y-66468780D01*
X29468927Y-66315302D01*
X29290299Y-66136673D01*
X29056910Y-66040000D01*
X28543304Y-66040000D01*
X28859371Y-65724485D01*
X29047785Y-65270734D01*
X29048138Y-64866492D01*
X29093933Y-64820697D01*
X29210854Y-64797440D01*
X29367000Y-64797440D01*
X29602317Y-64753162D01*
X29818441Y-64614090D01*
X29843474Y-64577453D01*
X29858910Y-64601441D01*
X30071110Y-64746431D01*
X30323000Y-64797440D01*
X31023000Y-64797440D01*
X31258317Y-64753162D01*
X31474441Y-64614090D01*
X31619431Y-64401890D01*
X31622081Y-64388803D01*
X31758910Y-64601441D01*
G36*
X76189997Y-52015914D02*
X76327608Y-52073055D01*
X76385004Y-52361605D01*
X76469863Y-52488605D01*
X76550185Y-52608815D01*
X76962000Y-53020631D01*
X76962000Y-63057370D01*
X75448643Y-64570727D01*
X75448003Y-64570086D01*
X74865659Y-64328276D01*
X74235107Y-64327725D01*
X73652343Y-64568519D01*
X73278739Y-64941471D01*
X72908003Y-64570086D01*
X72325659Y-64328276D01*
X71695107Y-64327725D01*
X71112343Y-64568519D01*
X70738739Y-64941471D01*
X70368003Y-64570086D01*
X70300447Y-64542034D01*
X70515371Y-64327485D01*
X70703785Y-63873734D01*
X70704214Y-63382421D01*
X70516592Y-62928343D01*
X70169485Y-62580629D01*
X69715734Y-62392215D01*
X69224421Y-62391786D01*
X68770343Y-62579408D01*
X68422629Y-62926515D01*
X68234215Y-63380266D01*
X68233786Y-63871579D01*
X68421408Y-64325657D01*
X68637125Y-64541751D01*
X68572343Y-64568519D01*
X68198739Y-64941471D01*
X67828003Y-64570086D01*
X67245659Y-64328276D01*
X66615107Y-64327725D01*
X66032343Y-64568519D01*
X65658739Y-64941471D01*
X65288003Y-64570086D01*
X64705659Y-64328276D01*
X64075107Y-64327725D01*
X63881000Y-64407929D01*
X63881000Y-57719630D01*
X67025767Y-54574863D01*
X67427579Y-54575214D01*
X67881657Y-54387592D01*
X68229371Y-54040485D01*
X68417785Y-53586734D01*
X68418214Y-53095421D01*
X68230592Y-52641343D01*
X68150510Y-52561121D01*
X68658830Y-52052801D01*
X69152341Y-52257724D01*
X69782893Y-52258275D01*
X70365657Y-52017481D01*
X70739261Y-51644529D01*
X71109997Y-52015914D01*
X71692341Y-52257724D01*
X72322893Y-52258275D01*
X72905657Y-52017481D01*
X73279261Y-51644529D01*
X73649997Y-52015914D01*
X74232341Y-52257724D01*
X74862893Y-52258275D01*
X75445657Y-52017481D01*
X75819261Y-51644529D01*
X76189997Y-52015914D01*
X76189997Y-52015914D01*
G37*
X76189997Y-52015914D02*
X76327608Y-52073055D01*
X76385004Y-52361605D01*
X76469863Y-52488605D01*
X76550185Y-52608815D01*
X76962000Y-53020631D01*
X76962000Y-63057370D01*
X75448643Y-64570727D01*
X75448003Y-64570086D01*
X74865659Y-64328276D01*
X74235107Y-64327725D01*
X73652343Y-64568519D01*
X73278739Y-64941471D01*
X72908003Y-64570086D01*
X72325659Y-64328276D01*
X71695107Y-64327725D01*
X71112343Y-64568519D01*
X70738739Y-64941471D01*
X70368003Y-64570086D01*
X70300447Y-64542034D01*
X70515371Y-64327485D01*
X70703785Y-63873734D01*
X70704214Y-63382421D01*
X70516592Y-62928343D01*
X70169485Y-62580629D01*
X69715734Y-62392215D01*
X69224421Y-62391786D01*
X68770343Y-62579408D01*
X68422629Y-62926515D01*
X68234215Y-63380266D01*
X68233786Y-63871579D01*
X68421408Y-64325657D01*
X68637125Y-64541751D01*
X68572343Y-64568519D01*
X68198739Y-64941471D01*
X67828003Y-64570086D01*
X67245659Y-64328276D01*
X66615107Y-64327725D01*
X66032343Y-64568519D01*
X65658739Y-64941471D01*
X65288003Y-64570086D01*
X64705659Y-64328276D01*
X64075107Y-64327725D01*
X63881000Y-64407929D01*
X63881000Y-57719630D01*
X67025767Y-54574863D01*
X67427579Y-54575214D01*
X67881657Y-54387592D01*
X68229371Y-54040485D01*
X68417785Y-53586734D01*
X68418214Y-53095421D01*
X68230592Y-52641343D01*
X68150510Y-52561121D01*
X68658830Y-52052801D01*
X69152341Y-52257724D01*
X69782893Y-52258275D01*
X70365657Y-52017481D01*
X70739261Y-51644529D01*
X71109997Y-52015914D01*
X71692341Y-52257724D01*
X72322893Y-52258275D01*
X72905657Y-52017481D01*
X73279261Y-51644529D01*
X73649997Y-52015914D01*
X74232341Y-52257724D01*
X74862893Y-52258275D01*
X75445657Y-52017481D01*
X75819261Y-51644529D01*
X76189997Y-52015914D01*
G36*
X50103725Y-50986893D02*
X50344519Y-51569657D01*
X50789997Y-52015914D01*
X51372341Y-52257724D01*
X52002893Y-52258275D01*
X52585657Y-52017481D01*
X52959261Y-51644529D01*
X53329997Y-52015914D01*
X53912341Y-52257724D01*
X54106476Y-52257894D01*
X51987478Y-54376892D01*
X51847592Y-54038343D01*
X51500485Y-53690629D01*
X51046734Y-53502215D01*
X50555421Y-53501786D01*
X50101343Y-53689408D01*
X49753629Y-54036515D01*
X49565215Y-54490266D01*
X49564786Y-54981579D01*
X49576483Y-55009887D01*
X49214370Y-55372000D01*
X38730631Y-55372000D01*
X38381440Y-55022809D01*
X38381440Y-54453000D01*
X38337162Y-54217683D01*
X38198090Y-54001559D01*
X37985890Y-53856569D01*
X37734000Y-53805560D01*
X37484190Y-53805560D01*
X36080440Y-52401810D01*
X36080440Y-52025133D01*
X36306000Y-52070000D01*
X48133000Y-52070000D01*
X48424605Y-52011996D01*
X48671815Y-51846815D01*
X49335191Y-51183440D01*
X49506000Y-51183440D01*
X49741317Y-51139162D01*
X49957441Y-51000090D01*
X50102431Y-50787890D01*
X50103905Y-50780610D01*
X50103725Y-50986893D01*
X50103725Y-50986893D01*
G37*
X50103725Y-50986893D02*
X50344519Y-51569657D01*
X50789997Y-52015914D01*
X51372341Y-52257724D01*
X52002893Y-52258275D01*
X52585657Y-52017481D01*
X52959261Y-51644529D01*
X53329997Y-52015914D01*
X53912341Y-52257724D01*
X54106476Y-52257894D01*
X51987478Y-54376892D01*
X51847592Y-54038343D01*
X51500485Y-53690629D01*
X51046734Y-53502215D01*
X50555421Y-53501786D01*
X50101343Y-53689408D01*
X49753629Y-54036515D01*
X49565215Y-54490266D01*
X49564786Y-54981579D01*
X49576483Y-55009887D01*
X49214370Y-55372000D01*
X38730631Y-55372000D01*
X38381440Y-55022809D01*
X38381440Y-54453000D01*
X38337162Y-54217683D01*
X38198090Y-54001559D01*
X37985890Y-53856569D01*
X37734000Y-53805560D01*
X37484190Y-53805560D01*
X36080440Y-52401810D01*
X36080440Y-52025133D01*
X36306000Y-52070000D01*
X48133000Y-52070000D01*
X48424605Y-52011996D01*
X48671815Y-51846815D01*
X49335191Y-51183440D01*
X49506000Y-51183440D01*
X49741317Y-51139162D01*
X49957441Y-51000090D01*
X50102431Y-50787890D01*
X50103905Y-50780610D01*
X50103725Y-50986893D01*
G36*
X78534454Y-46785084D02*
X78422343Y-46831408D01*
X78074629Y-47178515D01*
X77886215Y-47632266D01*
X77885786Y-48123579D01*
X78073408Y-48577657D01*
X78420515Y-48925371D01*
X78874266Y-49113785D01*
X79251241Y-49114114D01*
X78732343Y-49328519D01*
X78358739Y-49701471D01*
X77988003Y-49330086D01*
X77405659Y-49088276D01*
X76775107Y-49087725D01*
X76192343Y-49328519D01*
X75818739Y-49701471D01*
X75448003Y-49330086D01*
X74865659Y-49088276D01*
X74235107Y-49087725D01*
X73652343Y-49328519D01*
X73278739Y-49701471D01*
X72908003Y-49330086D01*
X72325659Y-49088276D01*
X71695107Y-49087725D01*
X71112343Y-49328519D01*
X70738739Y-49701471D01*
X70368003Y-49330086D01*
X69785659Y-49088276D01*
X69155107Y-49087725D01*
X68961000Y-49167929D01*
X68961000Y-46831526D01*
X69149515Y-47020371D01*
X69603266Y-47208785D01*
X70094579Y-47209214D01*
X70548657Y-47021592D01*
X70896371Y-46674485D01*
X71084785Y-46220734D01*
X71084789Y-46216440D01*
X72253000Y-46216440D01*
X72488317Y-46172162D01*
X72704441Y-46033090D01*
X72812366Y-45875136D01*
X72883000Y-45889440D01*
X74183000Y-45889440D01*
X74418317Y-45845162D01*
X74634441Y-45706090D01*
X74779431Y-45493890D01*
X74830440Y-45242000D01*
X74830440Y-44542000D01*
X74786162Y-44306683D01*
X74647090Y-44090559D01*
X74434890Y-43945569D01*
X74421803Y-43942919D01*
X74634441Y-43806090D01*
X74779431Y-43593890D01*
X74830440Y-43342000D01*
X74830440Y-43081070D01*
X78534454Y-46785084D01*
X78534454Y-46785084D01*
G37*
X78534454Y-46785084D02*
X78422343Y-46831408D01*
X78074629Y-47178515D01*
X77886215Y-47632266D01*
X77885786Y-48123579D01*
X78073408Y-48577657D01*
X78420515Y-48925371D01*
X78874266Y-49113785D01*
X79251241Y-49114114D01*
X78732343Y-49328519D01*
X78358739Y-49701471D01*
X77988003Y-49330086D01*
X77405659Y-49088276D01*
X76775107Y-49087725D01*
X76192343Y-49328519D01*
X75818739Y-49701471D01*
X75448003Y-49330086D01*
X74865659Y-49088276D01*
X74235107Y-49087725D01*
X73652343Y-49328519D01*
X73278739Y-49701471D01*
X72908003Y-49330086D01*
X72325659Y-49088276D01*
X71695107Y-49087725D01*
X71112343Y-49328519D01*
X70738739Y-49701471D01*
X70368003Y-49330086D01*
X69785659Y-49088276D01*
X69155107Y-49087725D01*
X68961000Y-49167929D01*
X68961000Y-46831526D01*
X69149515Y-47020371D01*
X69603266Y-47208785D01*
X70094579Y-47209214D01*
X70548657Y-47021592D01*
X70896371Y-46674485D01*
X71084785Y-46220734D01*
X71084789Y-46216440D01*
X72253000Y-46216440D01*
X72488317Y-46172162D01*
X72704441Y-46033090D01*
X72812366Y-45875136D01*
X72883000Y-45889440D01*
X74183000Y-45889440D01*
X74418317Y-45845162D01*
X74634441Y-45706090D01*
X74779431Y-45493890D01*
X74830440Y-45242000D01*
X74830440Y-44542000D01*
X74786162Y-44306683D01*
X74647090Y-44090559D01*
X74434890Y-43945569D01*
X74421803Y-43942919D01*
X74634441Y-43806090D01*
X74779431Y-43593890D01*
X74830440Y-43342000D01*
X74830440Y-43081070D01*
X78534454Y-46785084D01*
G36*
X36346877Y-24629533D02*
X36078612Y-25329806D01*
X36098750Y-26079435D01*
X36346877Y-26678467D01*
X36639680Y-26807715D01*
X37793395Y-25654000D01*
X37779253Y-25639858D01*
X37958858Y-25460253D01*
X37973000Y-25474395D01*
X37987143Y-25460253D01*
X38166748Y-25639858D01*
X38152605Y-25654000D01*
X38166748Y-25668143D01*
X37987143Y-25847748D01*
X37973000Y-25833605D01*
X36819285Y-26987320D01*
X36948533Y-27280123D01*
X37648806Y-27548388D01*
X38398435Y-27528250D01*
X38886476Y-27326097D01*
X38678319Y-27827395D01*
X38677682Y-28557403D01*
X38887769Y-29065853D01*
X38297194Y-28839612D01*
X37547565Y-28859750D01*
X36948533Y-29107877D01*
X36819285Y-29400680D01*
X37973000Y-30554395D01*
X37987143Y-30540253D01*
X38166748Y-30719858D01*
X38152605Y-30734000D01*
X39306320Y-31887715D01*
X39599123Y-31758467D01*
X39867388Y-31058194D01*
X39847250Y-30308565D01*
X39645097Y-29820524D01*
X40146395Y-30028681D01*
X40876403Y-30029318D01*
X41384853Y-29819231D01*
X41158612Y-30409806D01*
X41178750Y-31159435D01*
X41426877Y-31758467D01*
X41719680Y-31887715D01*
X42873395Y-30734000D01*
X43232605Y-30734000D01*
X44386320Y-31887715D01*
X44679123Y-31758467D01*
X44947388Y-31058194D01*
X44927250Y-30308565D01*
X44679123Y-29709533D01*
X44386320Y-29580285D01*
X43232605Y-30734000D01*
X42873395Y-30734000D01*
X42859253Y-30719858D01*
X43038858Y-30540253D01*
X43053000Y-30554395D01*
X44206715Y-29400680D01*
X44077467Y-29107877D01*
X43681011Y-28956000D01*
X47436370Y-28956000D01*
X57150000Y-38669631D01*
X57150000Y-40955478D01*
X57068327Y-40758302D01*
X56889699Y-40579673D01*
X56656310Y-40483000D01*
X56165750Y-40483000D01*
X56007000Y-40641750D01*
X56007000Y-41341000D01*
X56027000Y-41341000D01*
X56027000Y-41595000D01*
X56007000Y-41595000D01*
X56007000Y-41615000D01*
X55753000Y-41615000D01*
X55753000Y-41595000D01*
X54753750Y-41595000D01*
X54595000Y-41753750D01*
X54595000Y-41944309D01*
X54691673Y-42177698D01*
X54870301Y-42356327D01*
X55006287Y-42412654D01*
X54994683Y-42414838D01*
X54778559Y-42553910D01*
X54633569Y-42766110D01*
X54582560Y-43018000D01*
X54582560Y-43718000D01*
X54626838Y-43953317D01*
X54765910Y-44169441D01*
X54978110Y-44314431D01*
X55118000Y-44342759D01*
X55118000Y-44561000D01*
X55129560Y-44619116D01*
X55129560Y-45583000D01*
X55173838Y-45818317D01*
X55312910Y-46034441D01*
X55515000Y-46172523D01*
X55515000Y-46658369D01*
X53913370Y-48260000D01*
X53098440Y-48260000D01*
X53098440Y-46482000D01*
X53054162Y-46246683D01*
X52915090Y-46030559D01*
X52702890Y-45885569D01*
X52451000Y-45834560D01*
X51785139Y-45834560D01*
X50917790Y-44967210D01*
X50874336Y-44938175D01*
X50630675Y-44775367D01*
X50574484Y-44764190D01*
X50292000Y-44707999D01*
X50291995Y-44708000D01*
X31750005Y-44708000D01*
X31750000Y-44707999D01*
X31467516Y-44764190D01*
X31411325Y-44775367D01*
X31124210Y-44967210D01*
X31124208Y-44967213D01*
X30108210Y-45983210D01*
X29999094Y-46146515D01*
X25777000Y-41924420D01*
X25777000Y-40152172D01*
X26415538Y-40152172D01*
X26820709Y-41132761D01*
X27570293Y-41883655D01*
X28550173Y-42290536D01*
X29611172Y-42291462D01*
X30591761Y-41886291D01*
X31342655Y-41136707D01*
X31746661Y-40163750D01*
X32004000Y-40163750D01*
X32004000Y-41020310D01*
X32100673Y-41253699D01*
X32279302Y-41432327D01*
X32512691Y-41529000D01*
X33115250Y-41529000D01*
X33274000Y-41370250D01*
X33274000Y-40005000D01*
X32162750Y-40005000D01*
X32004000Y-40163750D01*
X31746661Y-40163750D01*
X31749536Y-40156827D01*
X31750462Y-39095828D01*
X31345291Y-38115239D01*
X30595707Y-37364345D01*
X29615827Y-36957464D01*
X28554828Y-36956538D01*
X27574239Y-37361709D01*
X26823345Y-38111293D01*
X26416464Y-39091173D01*
X26415538Y-40152172D01*
X25777000Y-40152172D01*
X25777000Y-36942000D01*
X31898060Y-36942000D01*
X31898060Y-38242000D01*
X31942338Y-38477317D01*
X32044962Y-38636799D01*
X32004000Y-38735690D01*
X32004000Y-39592250D01*
X32162750Y-39751000D01*
X33274000Y-39751000D01*
X33274000Y-39731000D01*
X33528000Y-39731000D01*
X33528000Y-39751000D01*
X33548000Y-39751000D01*
X33548000Y-40005000D01*
X33528000Y-40005000D01*
X33528000Y-41370250D01*
X33686750Y-41529000D01*
X34289309Y-41529000D01*
X34522698Y-41432327D01*
X34673671Y-41281354D01*
X34714910Y-41345441D01*
X34927110Y-41490431D01*
X35179000Y-41541440D01*
X36703000Y-41541440D01*
X36938317Y-41497162D01*
X37154441Y-41358090D01*
X37207463Y-41280489D01*
X37359302Y-41432327D01*
X37592691Y-41529000D01*
X38195250Y-41529000D01*
X38354000Y-41370250D01*
X38354000Y-40005000D01*
X38334000Y-40005000D01*
X38334000Y-39751000D01*
X38354000Y-39751000D01*
X38354000Y-39731000D01*
X38608000Y-39731000D01*
X38608000Y-39751000D01*
X38628000Y-39751000D01*
X38628000Y-40005000D01*
X38608000Y-40005000D01*
X38608000Y-41370250D01*
X38766750Y-41529000D01*
X39369309Y-41529000D01*
X39602698Y-41432327D01*
X39753671Y-41281354D01*
X39794910Y-41345441D01*
X40007110Y-41490431D01*
X40259000Y-41541440D01*
X41783000Y-41541440D01*
X42018317Y-41497162D01*
X42234441Y-41358090D01*
X42379431Y-41145890D01*
X42430440Y-40894000D01*
X42430440Y-40163750D01*
X42672000Y-40163750D01*
X42672000Y-41020310D01*
X42768673Y-41253699D01*
X42947302Y-41432327D01*
X43180691Y-41529000D01*
X43783250Y-41529000D01*
X43942000Y-41370250D01*
X43942000Y-40005000D01*
X42830750Y-40005000D01*
X42672000Y-40163750D01*
X42430440Y-40163750D01*
X42430440Y-38862000D01*
X42412927Y-38768926D01*
X42552266Y-38826785D01*
X42672000Y-38826890D01*
X42672000Y-39592250D01*
X42830750Y-39751000D01*
X43942000Y-39751000D01*
X43942000Y-39731000D01*
X44196000Y-39731000D01*
X44196000Y-39751000D01*
X44216000Y-39751000D01*
X44216000Y-40005000D01*
X44196000Y-40005000D01*
X44196000Y-41370250D01*
X44354750Y-41529000D01*
X44957309Y-41529000D01*
X45190698Y-41432327D01*
X45341671Y-41281354D01*
X45382910Y-41345441D01*
X45595110Y-41490431D01*
X45847000Y-41541440D01*
X47371000Y-41541440D01*
X47606317Y-41497162D01*
X47822441Y-41358090D01*
X47875463Y-41280489D01*
X48027302Y-41432327D01*
X48260691Y-41529000D01*
X48863250Y-41529000D01*
X49022000Y-41370250D01*
X49022000Y-40005000D01*
X49002000Y-40005000D01*
X49002000Y-39751000D01*
X49022000Y-39751000D01*
X49022000Y-39731000D01*
X49276000Y-39731000D01*
X49276000Y-39751000D01*
X49296000Y-39751000D01*
X49296000Y-40005000D01*
X49276000Y-40005000D01*
X49276000Y-41370250D01*
X49434750Y-41529000D01*
X50037309Y-41529000D01*
X50270698Y-41432327D01*
X50421671Y-41281354D01*
X50462910Y-41345441D01*
X50675110Y-41490431D01*
X50927000Y-41541440D01*
X52451000Y-41541440D01*
X52686317Y-41497162D01*
X52902441Y-41358090D01*
X53047431Y-41145890D01*
X53078657Y-40991691D01*
X54595000Y-40991691D01*
X54595000Y-41182250D01*
X54753750Y-41341000D01*
X55753000Y-41341000D01*
X55753000Y-40641750D01*
X55594250Y-40483000D01*
X55103690Y-40483000D01*
X54870301Y-40579673D01*
X54691673Y-40758302D01*
X54595000Y-40991691D01*
X53078657Y-40991691D01*
X53098440Y-40894000D01*
X53098440Y-38862000D01*
X53054162Y-38626683D01*
X52915090Y-38410559D01*
X52702890Y-38265569D01*
X52451000Y-38214560D01*
X51794940Y-38214560D01*
X51794940Y-36942000D01*
X51750662Y-36706683D01*
X51611590Y-36490559D01*
X51399390Y-36345569D01*
X51147500Y-36294560D01*
X50447500Y-36294560D01*
X50212183Y-36338838D01*
X49996059Y-36477910D01*
X49851069Y-36690110D01*
X49848419Y-36703197D01*
X49711590Y-36490559D01*
X49499390Y-36345569D01*
X49247500Y-36294560D01*
X48547500Y-36294560D01*
X48312183Y-36338838D01*
X48122078Y-36461167D01*
X47871734Y-36357215D01*
X47380421Y-36356786D01*
X46926343Y-36544408D01*
X46861740Y-36608899D01*
X46785590Y-36490559D01*
X46573390Y-36345569D01*
X46321500Y-36294560D01*
X45621500Y-36294560D01*
X45386183Y-36338838D01*
X45170059Y-36477910D01*
X45025069Y-36690110D01*
X45022419Y-36703197D01*
X44885590Y-36490559D01*
X44673390Y-36345569D01*
X44421500Y-36294560D01*
X43721500Y-36294560D01*
X43486183Y-36338838D01*
X43296078Y-36461167D01*
X43045734Y-36357215D01*
X42554421Y-36356786D01*
X42100343Y-36544408D01*
X41752629Y-36891515D01*
X41571440Y-37327866D01*
X41571440Y-36942000D01*
X41527162Y-36706683D01*
X41388090Y-36490559D01*
X41175890Y-36345569D01*
X40924000Y-36294560D01*
X40224000Y-36294560D01*
X39988683Y-36338838D01*
X39772559Y-36477910D01*
X39627569Y-36690110D01*
X39624919Y-36703197D01*
X39488090Y-36490559D01*
X39275890Y-36345569D01*
X39024000Y-36294560D01*
X38324000Y-36294560D01*
X38088683Y-36338838D01*
X37872559Y-36477910D01*
X37727569Y-36690110D01*
X37724959Y-36703000D01*
X37560360Y-36703000D01*
X37276485Y-36418629D01*
X36822734Y-36230215D01*
X36331421Y-36229786D01*
X35877343Y-36417408D01*
X35685653Y-36608764D01*
X35609590Y-36490559D01*
X35397390Y-36345569D01*
X35145500Y-36294560D01*
X34919692Y-36294560D01*
X35016785Y-36060734D01*
X35017214Y-35569421D01*
X34829592Y-35115343D01*
X34482485Y-34767629D01*
X34028734Y-34579215D01*
X33537421Y-34578786D01*
X33083343Y-34766408D01*
X32735629Y-35113515D01*
X32547215Y-35567266D01*
X32546862Y-35971508D01*
X32356685Y-36161685D01*
X32191504Y-36408895D01*
X32190064Y-36416132D01*
X32094059Y-36477910D01*
X31949069Y-36690110D01*
X31898060Y-36942000D01*
X25777000Y-36942000D01*
X25777000Y-36053580D01*
X29708787Y-32121792D01*
X29708790Y-32121790D01*
X29745185Y-32067320D01*
X30469285Y-32067320D01*
X30598533Y-32360123D01*
X31298806Y-32628388D01*
X32048435Y-32608250D01*
X32647467Y-32360123D01*
X32776715Y-32067320D01*
X36819285Y-32067320D01*
X36948533Y-32360123D01*
X37648806Y-32628388D01*
X38398435Y-32608250D01*
X38997467Y-32360123D01*
X39126715Y-32067320D01*
X41899285Y-32067320D01*
X42028533Y-32360123D01*
X42728806Y-32628388D01*
X43478435Y-32608250D01*
X44077467Y-32360123D01*
X44206715Y-32067320D01*
X43053000Y-30913605D01*
X41899285Y-32067320D01*
X39126715Y-32067320D01*
X37973000Y-30913605D01*
X36819285Y-32067320D01*
X32776715Y-32067320D01*
X31623000Y-30913605D01*
X30469285Y-32067320D01*
X29745185Y-32067320D01*
X29900633Y-31834675D01*
X29935258Y-31660604D01*
X29942098Y-31626219D01*
X29996877Y-31758467D01*
X30289680Y-31887715D01*
X31443395Y-30734000D01*
X31802605Y-30734000D01*
X32956320Y-31887715D01*
X33249123Y-31758467D01*
X33517388Y-31058194D01*
X33499970Y-30409806D01*
X36078612Y-30409806D01*
X36098750Y-31159435D01*
X36346877Y-31758467D01*
X36639680Y-31887715D01*
X37793395Y-30734000D01*
X36639680Y-29580285D01*
X36346877Y-29709533D01*
X36078612Y-30409806D01*
X33499970Y-30409806D01*
X33497250Y-30308565D01*
X33249123Y-29709533D01*
X32956320Y-29580285D01*
X31802605Y-30734000D01*
X31443395Y-30734000D01*
X31429253Y-30719858D01*
X31608858Y-30540253D01*
X31623000Y-30554395D01*
X32776715Y-29400680D01*
X32647467Y-29107877D01*
X31947194Y-28839612D01*
X31197565Y-28859750D01*
X30709524Y-29061903D01*
X30917681Y-28560605D01*
X30918318Y-27830597D01*
X30708231Y-27322147D01*
X31298806Y-27548388D01*
X32048435Y-27528250D01*
X32647467Y-27280123D01*
X32776715Y-26987320D01*
X31623000Y-25833605D01*
X31608858Y-25847748D01*
X31429253Y-25668143D01*
X31443395Y-25654000D01*
X31429253Y-25639858D01*
X31608858Y-25460253D01*
X31623000Y-25474395D01*
X31637143Y-25460253D01*
X31816748Y-25639858D01*
X31802605Y-25654000D01*
X32956320Y-26807715D01*
X33249123Y-26678467D01*
X33517388Y-25978194D01*
X33497250Y-25228565D01*
X33249123Y-24629533D01*
X33124449Y-24574500D01*
X36471551Y-24574500D01*
X36346877Y-24629533D01*
X36346877Y-24629533D01*
G37*
X36346877Y-24629533D02*
X36078612Y-25329806D01*
X36098750Y-26079435D01*
X36346877Y-26678467D01*
X36639680Y-26807715D01*
X37793395Y-25654000D01*
X37779253Y-25639858D01*
X37958858Y-25460253D01*
X37973000Y-25474395D01*
X37987143Y-25460253D01*
X38166748Y-25639858D01*
X38152605Y-25654000D01*
X38166748Y-25668143D01*
X37987143Y-25847748D01*
X37973000Y-25833605D01*
X36819285Y-26987320D01*
X36948533Y-27280123D01*
X37648806Y-27548388D01*
X38398435Y-27528250D01*
X38886476Y-27326097D01*
X38678319Y-27827395D01*
X38677682Y-28557403D01*
X38887769Y-29065853D01*
X38297194Y-28839612D01*
X37547565Y-28859750D01*
X36948533Y-29107877D01*
X36819285Y-29400680D01*
X37973000Y-30554395D01*
X37987143Y-30540253D01*
X38166748Y-30719858D01*
X38152605Y-30734000D01*
X39306320Y-31887715D01*
X39599123Y-31758467D01*
X39867388Y-31058194D01*
X39847250Y-30308565D01*
X39645097Y-29820524D01*
X40146395Y-30028681D01*
X40876403Y-30029318D01*
X41384853Y-29819231D01*
X41158612Y-30409806D01*
X41178750Y-31159435D01*
X41426877Y-31758467D01*
X41719680Y-31887715D01*
X42873395Y-30734000D01*
X43232605Y-30734000D01*
X44386320Y-31887715D01*
X44679123Y-31758467D01*
X44947388Y-31058194D01*
X44927250Y-30308565D01*
X44679123Y-29709533D01*
X44386320Y-29580285D01*
X43232605Y-30734000D01*
X42873395Y-30734000D01*
X42859253Y-30719858D01*
X43038858Y-30540253D01*
X43053000Y-30554395D01*
X44206715Y-29400680D01*
X44077467Y-29107877D01*
X43681011Y-28956000D01*
X47436370Y-28956000D01*
X57150000Y-38669631D01*
X57150000Y-40955478D01*
X57068327Y-40758302D01*
X56889699Y-40579673D01*
X56656310Y-40483000D01*
X56165750Y-40483000D01*
X56007000Y-40641750D01*
X56007000Y-41341000D01*
X56027000Y-41341000D01*
X56027000Y-41595000D01*
X56007000Y-41595000D01*
X56007000Y-41615000D01*
X55753000Y-41615000D01*
X55753000Y-41595000D01*
X54753750Y-41595000D01*
X54595000Y-41753750D01*
X54595000Y-41944309D01*
X54691673Y-42177698D01*
X54870301Y-42356327D01*
X55006287Y-42412654D01*
X54994683Y-42414838D01*
X54778559Y-42553910D01*
X54633569Y-42766110D01*
X54582560Y-43018000D01*
X54582560Y-43718000D01*
X54626838Y-43953317D01*
X54765910Y-44169441D01*
X54978110Y-44314431D01*
X55118000Y-44342759D01*
X55118000Y-44561000D01*
X55129560Y-44619116D01*
X55129560Y-45583000D01*
X55173838Y-45818317D01*
X55312910Y-46034441D01*
X55515000Y-46172523D01*
X55515000Y-46658369D01*
X53913370Y-48260000D01*
X53098440Y-48260000D01*
X53098440Y-46482000D01*
X53054162Y-46246683D01*
X52915090Y-46030559D01*
X52702890Y-45885569D01*
X52451000Y-45834560D01*
X51785139Y-45834560D01*
X50917790Y-44967210D01*
X50874336Y-44938175D01*
X50630675Y-44775367D01*
X50574484Y-44764190D01*
X50292000Y-44707999D01*
X50291995Y-44708000D01*
X31750005Y-44708000D01*
X31750000Y-44707999D01*
X31467516Y-44764190D01*
X31411325Y-44775367D01*
X31124210Y-44967210D01*
X31124208Y-44967213D01*
X30108210Y-45983210D01*
X29999094Y-46146515D01*
X25777000Y-41924420D01*
X25777000Y-40152172D01*
X26415538Y-40152172D01*
X26820709Y-41132761D01*
X27570293Y-41883655D01*
X28550173Y-42290536D01*
X29611172Y-42291462D01*
X30591761Y-41886291D01*
X31342655Y-41136707D01*
X31746661Y-40163750D01*
X32004000Y-40163750D01*
X32004000Y-41020310D01*
X32100673Y-41253699D01*
X32279302Y-41432327D01*
X32512691Y-41529000D01*
X33115250Y-41529000D01*
X33274000Y-41370250D01*
X33274000Y-40005000D01*
X32162750Y-40005000D01*
X32004000Y-40163750D01*
X31746661Y-40163750D01*
X31749536Y-40156827D01*
X31750462Y-39095828D01*
X31345291Y-38115239D01*
X30595707Y-37364345D01*
X29615827Y-36957464D01*
X28554828Y-36956538D01*
X27574239Y-37361709D01*
X26823345Y-38111293D01*
X26416464Y-39091173D01*
X26415538Y-40152172D01*
X25777000Y-40152172D01*
X25777000Y-36942000D01*
X31898060Y-36942000D01*
X31898060Y-38242000D01*
X31942338Y-38477317D01*
X32044962Y-38636799D01*
X32004000Y-38735690D01*
X32004000Y-39592250D01*
X32162750Y-39751000D01*
X33274000Y-39751000D01*
X33274000Y-39731000D01*
X33528000Y-39731000D01*
X33528000Y-39751000D01*
X33548000Y-39751000D01*
X33548000Y-40005000D01*
X33528000Y-40005000D01*
X33528000Y-41370250D01*
X33686750Y-41529000D01*
X34289309Y-41529000D01*
X34522698Y-41432327D01*
X34673671Y-41281354D01*
X34714910Y-41345441D01*
X34927110Y-41490431D01*
X35179000Y-41541440D01*
X36703000Y-41541440D01*
X36938317Y-41497162D01*
X37154441Y-41358090D01*
X37207463Y-41280489D01*
X37359302Y-41432327D01*
X37592691Y-41529000D01*
X38195250Y-41529000D01*
X38354000Y-41370250D01*
X38354000Y-40005000D01*
X38334000Y-40005000D01*
X38334000Y-39751000D01*
X38354000Y-39751000D01*
X38354000Y-39731000D01*
X38608000Y-39731000D01*
X38608000Y-39751000D01*
X38628000Y-39751000D01*
X38628000Y-40005000D01*
X38608000Y-40005000D01*
X38608000Y-41370250D01*
X38766750Y-41529000D01*
X39369309Y-41529000D01*
X39602698Y-41432327D01*
X39753671Y-41281354D01*
X39794910Y-41345441D01*
X40007110Y-41490431D01*
X40259000Y-41541440D01*
X41783000Y-41541440D01*
X42018317Y-41497162D01*
X42234441Y-41358090D01*
X42379431Y-41145890D01*
X42430440Y-40894000D01*
X42430440Y-40163750D01*
X42672000Y-40163750D01*
X42672000Y-41020310D01*
X42768673Y-41253699D01*
X42947302Y-41432327D01*
X43180691Y-41529000D01*
X43783250Y-41529000D01*
X43942000Y-41370250D01*
X43942000Y-40005000D01*
X42830750Y-40005000D01*
X42672000Y-40163750D01*
X42430440Y-40163750D01*
X42430440Y-38862000D01*
X42412927Y-38768926D01*
X42552266Y-38826785D01*
X42672000Y-38826890D01*
X42672000Y-39592250D01*
X42830750Y-39751000D01*
X43942000Y-39751000D01*
X43942000Y-39731000D01*
X44196000Y-39731000D01*
X44196000Y-39751000D01*
X44216000Y-39751000D01*
X44216000Y-40005000D01*
X44196000Y-40005000D01*
X44196000Y-41370250D01*
X44354750Y-41529000D01*
X44957309Y-41529000D01*
X45190698Y-41432327D01*
X45341671Y-41281354D01*
X45382910Y-41345441D01*
X45595110Y-41490431D01*
X45847000Y-41541440D01*
X47371000Y-41541440D01*
X47606317Y-41497162D01*
X47822441Y-41358090D01*
X47875463Y-41280489D01*
X48027302Y-41432327D01*
X48260691Y-41529000D01*
X48863250Y-41529000D01*
X49022000Y-41370250D01*
X49022000Y-40005000D01*
X49002000Y-40005000D01*
X49002000Y-39751000D01*
X49022000Y-39751000D01*
X49022000Y-39731000D01*
X49276000Y-39731000D01*
X49276000Y-39751000D01*
X49296000Y-39751000D01*
X49296000Y-40005000D01*
X49276000Y-40005000D01*
X49276000Y-41370250D01*
X49434750Y-41529000D01*
X50037309Y-41529000D01*
X50270698Y-41432327D01*
X50421671Y-41281354D01*
X50462910Y-41345441D01*
X50675110Y-41490431D01*
X50927000Y-41541440D01*
X52451000Y-41541440D01*
X52686317Y-41497162D01*
X52902441Y-41358090D01*
X53047431Y-41145890D01*
X53078657Y-40991691D01*
X54595000Y-40991691D01*
X54595000Y-41182250D01*
X54753750Y-41341000D01*
X55753000Y-41341000D01*
X55753000Y-40641750D01*
X55594250Y-40483000D01*
X55103690Y-40483000D01*
X54870301Y-40579673D01*
X54691673Y-40758302D01*
X54595000Y-40991691D01*
X53078657Y-40991691D01*
X53098440Y-40894000D01*
X53098440Y-38862000D01*
X53054162Y-38626683D01*
X52915090Y-38410559D01*
X52702890Y-38265569D01*
X52451000Y-38214560D01*
X51794940Y-38214560D01*
X51794940Y-36942000D01*
X51750662Y-36706683D01*
X51611590Y-36490559D01*
X51399390Y-36345569D01*
X51147500Y-36294560D01*
X50447500Y-36294560D01*
X50212183Y-36338838D01*
X49996059Y-36477910D01*
X49851069Y-36690110D01*
X49848419Y-36703197D01*
X49711590Y-36490559D01*
X49499390Y-36345569D01*
X49247500Y-36294560D01*
X48547500Y-36294560D01*
X48312183Y-36338838D01*
X48122078Y-36461167D01*
X47871734Y-36357215D01*
X47380421Y-36356786D01*
X46926343Y-36544408D01*
X46861740Y-36608899D01*
X46785590Y-36490559D01*
X46573390Y-36345569D01*
X46321500Y-36294560D01*
X45621500Y-36294560D01*
X45386183Y-36338838D01*
X45170059Y-36477910D01*
X45025069Y-36690110D01*
X45022419Y-36703197D01*
X44885590Y-36490559D01*
X44673390Y-36345569D01*
X44421500Y-36294560D01*
X43721500Y-36294560D01*
X43486183Y-36338838D01*
X43296078Y-36461167D01*
X43045734Y-36357215D01*
X42554421Y-36356786D01*
X42100343Y-36544408D01*
X41752629Y-36891515D01*
X41571440Y-37327866D01*
X41571440Y-36942000D01*
X41527162Y-36706683D01*
X41388090Y-36490559D01*
X41175890Y-36345569D01*
X40924000Y-36294560D01*
X40224000Y-36294560D01*
X39988683Y-36338838D01*
X39772559Y-36477910D01*
X39627569Y-36690110D01*
X39624919Y-36703197D01*
X39488090Y-36490559D01*
X39275890Y-36345569D01*
X39024000Y-36294560D01*
X38324000Y-36294560D01*
X38088683Y-36338838D01*
X37872559Y-36477910D01*
X37727569Y-36690110D01*
X37724959Y-36703000D01*
X37560360Y-36703000D01*
X37276485Y-36418629D01*
X36822734Y-36230215D01*
X36331421Y-36229786D01*
X35877343Y-36417408D01*
X35685653Y-36608764D01*
X35609590Y-36490559D01*
X35397390Y-36345569D01*
X35145500Y-36294560D01*
X34919692Y-36294560D01*
X35016785Y-36060734D01*
X35017214Y-35569421D01*
X34829592Y-35115343D01*
X34482485Y-34767629D01*
X34028734Y-34579215D01*
X33537421Y-34578786D01*
X33083343Y-34766408D01*
X32735629Y-35113515D01*
X32547215Y-35567266D01*
X32546862Y-35971508D01*
X32356685Y-36161685D01*
X32191504Y-36408895D01*
X32190064Y-36416132D01*
X32094059Y-36477910D01*
X31949069Y-36690110D01*
X31898060Y-36942000D01*
X25777000Y-36942000D01*
X25777000Y-36053580D01*
X29708787Y-32121792D01*
X29708790Y-32121790D01*
X29745185Y-32067320D01*
X30469285Y-32067320D01*
X30598533Y-32360123D01*
X31298806Y-32628388D01*
X32048435Y-32608250D01*
X32647467Y-32360123D01*
X32776715Y-32067320D01*
X36819285Y-32067320D01*
X36948533Y-32360123D01*
X37648806Y-32628388D01*
X38398435Y-32608250D01*
X38997467Y-32360123D01*
X39126715Y-32067320D01*
X41899285Y-32067320D01*
X42028533Y-32360123D01*
X42728806Y-32628388D01*
X43478435Y-32608250D01*
X44077467Y-32360123D01*
X44206715Y-32067320D01*
X43053000Y-30913605D01*
X41899285Y-32067320D01*
X39126715Y-32067320D01*
X37973000Y-30913605D01*
X36819285Y-32067320D01*
X32776715Y-32067320D01*
X31623000Y-30913605D01*
X30469285Y-32067320D01*
X29745185Y-32067320D01*
X29900633Y-31834675D01*
X29935258Y-31660604D01*
X29942098Y-31626219D01*
X29996877Y-31758467D01*
X30289680Y-31887715D01*
X31443395Y-30734000D01*
X31802605Y-30734000D01*
X32956320Y-31887715D01*
X33249123Y-31758467D01*
X33517388Y-31058194D01*
X33499970Y-30409806D01*
X36078612Y-30409806D01*
X36098750Y-31159435D01*
X36346877Y-31758467D01*
X36639680Y-31887715D01*
X37793395Y-30734000D01*
X36639680Y-29580285D01*
X36346877Y-29709533D01*
X36078612Y-30409806D01*
X33499970Y-30409806D01*
X33497250Y-30308565D01*
X33249123Y-29709533D01*
X32956320Y-29580285D01*
X31802605Y-30734000D01*
X31443395Y-30734000D01*
X31429253Y-30719858D01*
X31608858Y-30540253D01*
X31623000Y-30554395D01*
X32776715Y-29400680D01*
X32647467Y-29107877D01*
X31947194Y-28839612D01*
X31197565Y-28859750D01*
X30709524Y-29061903D01*
X30917681Y-28560605D01*
X30918318Y-27830597D01*
X30708231Y-27322147D01*
X31298806Y-27548388D01*
X32048435Y-27528250D01*
X32647467Y-27280123D01*
X32776715Y-26987320D01*
X31623000Y-25833605D01*
X31608858Y-25847748D01*
X31429253Y-25668143D01*
X31443395Y-25654000D01*
X31429253Y-25639858D01*
X31608858Y-25460253D01*
X31623000Y-25474395D01*
X31637143Y-25460253D01*
X31816748Y-25639858D01*
X31802605Y-25654000D01*
X32956320Y-26807715D01*
X33249123Y-26678467D01*
X33517388Y-25978194D01*
X33497250Y-25228565D01*
X33249123Y-24629533D01*
X33124449Y-24574500D01*
X36471551Y-24574500D01*
X36346877Y-24629533D01*
G36*
X63342185Y-24734185D02*
X62041314Y-26035056D01*
X61699339Y-26034758D01*
X61185697Y-26246990D01*
X60792371Y-26639630D01*
X60579243Y-27152900D01*
X60578758Y-27708661D01*
X60790990Y-28222303D01*
X61183630Y-28615629D01*
X61227236Y-28633736D01*
X61040683Y-28668838D01*
X60824559Y-28807910D01*
X60679569Y-29020110D01*
X60628560Y-29272000D01*
X60628560Y-30672000D01*
X60672838Y-30907317D01*
X60811910Y-31123441D01*
X61024110Y-31268431D01*
X61276000Y-31319440D01*
X62245810Y-31319440D01*
X63469185Y-32542815D01*
X63716395Y-32707996D01*
X64008000Y-32766000D01*
X72455370Y-32766000D01*
X75781369Y-36092000D01*
X75596750Y-36092000D01*
X75438000Y-36250750D01*
X75438000Y-37100000D01*
X76412250Y-37100000D01*
X76571000Y-36941250D01*
X76571000Y-36881631D01*
X78613000Y-38923631D01*
X78613000Y-43070780D01*
X78671004Y-43362385D01*
X78824305Y-43591815D01*
X78836185Y-43609595D01*
X80486510Y-45259920D01*
X80486510Y-45629830D01*
X80530788Y-45865147D01*
X80669860Y-46081271D01*
X80816213Y-46181270D01*
X80183950Y-46181270D01*
X80101428Y-46196798D01*
X75212630Y-41308000D01*
X75849816Y-40670815D01*
X75975854Y-40482185D01*
X76014996Y-40423605D01*
X76028227Y-40357086D01*
X76171317Y-40330162D01*
X76387441Y-40191090D01*
X76532431Y-39978890D01*
X76583440Y-39727000D01*
X76583440Y-38727000D01*
X76539162Y-38491683D01*
X76400090Y-38275559D01*
X76331994Y-38229031D01*
X76474327Y-38086698D01*
X76571000Y-37853309D01*
X76571000Y-37512750D01*
X76412250Y-37354000D01*
X75438000Y-37354000D01*
X75438000Y-37374000D01*
X75184000Y-37374000D01*
X75184000Y-37354000D01*
X74209750Y-37354000D01*
X74159750Y-37404000D01*
X73660000Y-37404000D01*
X73660000Y-37424000D01*
X73406000Y-37424000D01*
X73406000Y-37404000D01*
X73386000Y-37404000D01*
X73386000Y-37150000D01*
X73406000Y-37150000D01*
X73406000Y-36450750D01*
X73660000Y-36450750D01*
X73660000Y-37150000D01*
X74659250Y-37150000D01*
X74709250Y-37100000D01*
X75184000Y-37100000D01*
X75184000Y-36250750D01*
X75025250Y-36092000D01*
X74559690Y-36092000D01*
X74326301Y-36188673D01*
X74222975Y-36292000D01*
X73818750Y-36292000D01*
X73660000Y-36450750D01*
X73406000Y-36450750D01*
X73247250Y-36292000D01*
X72992346Y-36292000D01*
X72918327Y-36113302D01*
X72739699Y-35934673D01*
X72506310Y-35838000D01*
X72040750Y-35838000D01*
X71882000Y-35996750D01*
X71882000Y-36846000D01*
X71902000Y-36846000D01*
X71902000Y-37100000D01*
X71882000Y-37100000D01*
X71882000Y-37120000D01*
X71628000Y-37120000D01*
X71628000Y-37100000D01*
X71608000Y-37100000D01*
X71608000Y-36846000D01*
X71628000Y-36846000D01*
X71628000Y-35996750D01*
X71469250Y-35838000D01*
X71003690Y-35838000D01*
X70784777Y-35928677D01*
X70673390Y-35852569D01*
X70421500Y-35801560D01*
X70026191Y-35801560D01*
X68864815Y-34640185D01*
X68812157Y-34605000D01*
X68617605Y-34475004D01*
X68326000Y-34417000D01*
X64605662Y-34417000D01*
X64587162Y-34318683D01*
X64448090Y-34102559D01*
X64235890Y-33957569D01*
X63984000Y-33906560D01*
X62984000Y-33906560D01*
X62748683Y-33950838D01*
X62532559Y-34089910D01*
X62484866Y-34159711D01*
X62448090Y-34102559D01*
X62235890Y-33957569D01*
X61984000Y-33906560D01*
X60984000Y-33906560D01*
X60748683Y-33950838D01*
X60532559Y-34089910D01*
X60387569Y-34302110D01*
X60336560Y-34554000D01*
X60336560Y-35248810D01*
X60294185Y-35291185D01*
X60129004Y-35538395D01*
X60071000Y-35830000D01*
X60071000Y-36192560D01*
X59333000Y-36192560D01*
X59097683Y-36236838D01*
X58881559Y-36375910D01*
X58736569Y-36588110D01*
X58685560Y-36840000D01*
X58685560Y-38090000D01*
X58729838Y-38325317D01*
X58868910Y-38541441D01*
X58892708Y-38557702D01*
X58885560Y-38593000D01*
X58885560Y-39893000D01*
X58929838Y-40128317D01*
X59068910Y-40344441D01*
X59121000Y-40380033D01*
X59121000Y-40897530D01*
X59081559Y-40922910D01*
X58936569Y-41135110D01*
X58885560Y-41387000D01*
X58885560Y-42325963D01*
X58683421Y-42325786D01*
X58665617Y-42333142D01*
X58674000Y-42291000D01*
X58674000Y-38354000D01*
X58615996Y-38062395D01*
X58537929Y-37945560D01*
X58450816Y-37815185D01*
X52702797Y-32067166D01*
X53752502Y-32068083D01*
X54989912Y-31556796D01*
X55937468Y-30610892D01*
X56450914Y-29374376D01*
X56452083Y-28035498D01*
X55940796Y-26798088D01*
X54994892Y-25850532D01*
X53758376Y-25337086D01*
X52419498Y-25335917D01*
X51182088Y-25847204D01*
X50234532Y-26793108D01*
X49721086Y-28029624D01*
X49720165Y-29084535D01*
X48290815Y-27655185D01*
X48146864Y-27559000D01*
X48043605Y-27490004D01*
X47752000Y-27432000D01*
X43710803Y-27432000D01*
X44077467Y-27280123D01*
X44206715Y-26987320D01*
X43053000Y-25833605D01*
X43038858Y-25847748D01*
X42859253Y-25668143D01*
X42873395Y-25654000D01*
X42859253Y-25639858D01*
X43038858Y-25460253D01*
X43053000Y-25474395D01*
X43067143Y-25460253D01*
X43246748Y-25639858D01*
X43232605Y-25654000D01*
X44386320Y-26807715D01*
X44679123Y-26678467D01*
X44947388Y-25978194D01*
X44927250Y-25228565D01*
X44679123Y-24629533D01*
X44554449Y-24574500D01*
X63581170Y-24574500D01*
X63342185Y-24734185D01*
X63342185Y-24734185D01*
G37*
X63342185Y-24734185D02*
X62041314Y-26035056D01*
X61699339Y-26034758D01*
X61185697Y-26246990D01*
X60792371Y-26639630D01*
X60579243Y-27152900D01*
X60578758Y-27708661D01*
X60790990Y-28222303D01*
X61183630Y-28615629D01*
X61227236Y-28633736D01*
X61040683Y-28668838D01*
X60824559Y-28807910D01*
X60679569Y-29020110D01*
X60628560Y-29272000D01*
X60628560Y-30672000D01*
X60672838Y-30907317D01*
X60811910Y-31123441D01*
X61024110Y-31268431D01*
X61276000Y-31319440D01*
X62245810Y-31319440D01*
X63469185Y-32542815D01*
X63716395Y-32707996D01*
X64008000Y-32766000D01*
X72455370Y-32766000D01*
X75781369Y-36092000D01*
X75596750Y-36092000D01*
X75438000Y-36250750D01*
X75438000Y-37100000D01*
X76412250Y-37100000D01*
X76571000Y-36941250D01*
X76571000Y-36881631D01*
X78613000Y-38923631D01*
X78613000Y-43070780D01*
X78671004Y-43362385D01*
X78824305Y-43591815D01*
X78836185Y-43609595D01*
X80486510Y-45259920D01*
X80486510Y-45629830D01*
X80530788Y-45865147D01*
X80669860Y-46081271D01*
X80816213Y-46181270D01*
X80183950Y-46181270D01*
X80101428Y-46196798D01*
X75212630Y-41308000D01*
X75849816Y-40670815D01*
X75975854Y-40482185D01*
X76014996Y-40423605D01*
X76028227Y-40357086D01*
X76171317Y-40330162D01*
X76387441Y-40191090D01*
X76532431Y-39978890D01*
X76583440Y-39727000D01*
X76583440Y-38727000D01*
X76539162Y-38491683D01*
X76400090Y-38275559D01*
X76331994Y-38229031D01*
X76474327Y-38086698D01*
X76571000Y-37853309D01*
X76571000Y-37512750D01*
X76412250Y-37354000D01*
X75438000Y-37354000D01*
X75438000Y-37374000D01*
X75184000Y-37374000D01*
X75184000Y-37354000D01*
X74209750Y-37354000D01*
X74159750Y-37404000D01*
X73660000Y-37404000D01*
X73660000Y-37424000D01*
X73406000Y-37424000D01*
X73406000Y-37404000D01*
X73386000Y-37404000D01*
X73386000Y-37150000D01*
X73406000Y-37150000D01*
X73406000Y-36450750D01*
X73660000Y-36450750D01*
X73660000Y-37150000D01*
X74659250Y-37150000D01*
X74709250Y-37100000D01*
X75184000Y-37100000D01*
X75184000Y-36250750D01*
X75025250Y-36092000D01*
X74559690Y-36092000D01*
X74326301Y-36188673D01*
X74222975Y-36292000D01*
X73818750Y-36292000D01*
X73660000Y-36450750D01*
X73406000Y-36450750D01*
X73247250Y-36292000D01*
X72992346Y-36292000D01*
X72918327Y-36113302D01*
X72739699Y-35934673D01*
X72506310Y-35838000D01*
X72040750Y-35838000D01*
X71882000Y-35996750D01*
X71882000Y-36846000D01*
X71902000Y-36846000D01*
X71902000Y-37100000D01*
X71882000Y-37100000D01*
X71882000Y-37120000D01*
X71628000Y-37120000D01*
X71628000Y-37100000D01*
X71608000Y-37100000D01*
X71608000Y-36846000D01*
X71628000Y-36846000D01*
X71628000Y-35996750D01*
X71469250Y-35838000D01*
X71003690Y-35838000D01*
X70784777Y-35928677D01*
X70673390Y-35852569D01*
X70421500Y-35801560D01*
X70026191Y-35801560D01*
X68864815Y-34640185D01*
X68812157Y-34605000D01*
X68617605Y-34475004D01*
X68326000Y-34417000D01*
X64605662Y-34417000D01*
X64587162Y-34318683D01*
X64448090Y-34102559D01*
X64235890Y-33957569D01*
X63984000Y-33906560D01*
X62984000Y-33906560D01*
X62748683Y-33950838D01*
X62532559Y-34089910D01*
X62484866Y-34159711D01*
X62448090Y-34102559D01*
X62235890Y-33957569D01*
X61984000Y-33906560D01*
X60984000Y-33906560D01*
X60748683Y-33950838D01*
X60532559Y-34089910D01*
X60387569Y-34302110D01*
X60336560Y-34554000D01*
X60336560Y-35248810D01*
X60294185Y-35291185D01*
X60129004Y-35538395D01*
X60071000Y-35830000D01*
X60071000Y-36192560D01*
X59333000Y-36192560D01*
X59097683Y-36236838D01*
X58881559Y-36375910D01*
X58736569Y-36588110D01*
X58685560Y-36840000D01*
X58685560Y-38090000D01*
X58729838Y-38325317D01*
X58868910Y-38541441D01*
X58892708Y-38557702D01*
X58885560Y-38593000D01*
X58885560Y-39893000D01*
X58929838Y-40128317D01*
X59068910Y-40344441D01*
X59121000Y-40380033D01*
X59121000Y-40897530D01*
X59081559Y-40922910D01*
X58936569Y-41135110D01*
X58885560Y-41387000D01*
X58885560Y-42325963D01*
X58683421Y-42325786D01*
X58665617Y-42333142D01*
X58674000Y-42291000D01*
X58674000Y-38354000D01*
X58615996Y-38062395D01*
X58537929Y-37945560D01*
X58450816Y-37815185D01*
X52702797Y-32067166D01*
X53752502Y-32068083D01*
X54989912Y-31556796D01*
X55937468Y-30610892D01*
X56450914Y-29374376D01*
X56452083Y-28035498D01*
X55940796Y-26798088D01*
X54994892Y-25850532D01*
X53758376Y-25337086D01*
X52419498Y-25335917D01*
X51182088Y-25847204D01*
X50234532Y-26793108D01*
X49721086Y-28029624D01*
X49720165Y-29084535D01*
X48290815Y-27655185D01*
X48146864Y-27559000D01*
X48043605Y-27490004D01*
X47752000Y-27432000D01*
X43710803Y-27432000D01*
X44077467Y-27280123D01*
X44206715Y-26987320D01*
X43053000Y-25833605D01*
X43038858Y-25847748D01*
X42859253Y-25668143D01*
X42873395Y-25654000D01*
X42859253Y-25639858D01*
X43038858Y-25460253D01*
X43053000Y-25474395D01*
X43067143Y-25460253D01*
X43246748Y-25639858D01*
X43232605Y-25654000D01*
X44386320Y-26807715D01*
X44679123Y-26678467D01*
X44947388Y-25978194D01*
X44927250Y-25228565D01*
X44679123Y-24629533D01*
X44554449Y-24574500D01*
X63581170Y-24574500D01*
X63342185Y-24734185D01*
G36*
X66167000Y-39812631D02*
X66167000Y-41037702D01*
X65905734Y-40929215D01*
X65414421Y-40928786D01*
X64960343Y-41116408D01*
X64691755Y-41384527D01*
X64674662Y-41293683D01*
X64583896Y-41152629D01*
X64609827Y-41126698D01*
X64706500Y-40893309D01*
X64706500Y-40798750D01*
X64547750Y-40640000D01*
X63627000Y-40640000D01*
X63627000Y-40660000D01*
X63373000Y-40660000D01*
X63373000Y-40640000D01*
X63353000Y-40640000D01*
X63353000Y-40386000D01*
X63373000Y-40386000D01*
X63373000Y-40366000D01*
X63627000Y-40366000D01*
X63627000Y-40386000D01*
X64547750Y-40386000D01*
X64706500Y-40227250D01*
X64706500Y-40132691D01*
X64609827Y-39899302D01*
X64583291Y-39872765D01*
X64667931Y-39748890D01*
X64718940Y-39497000D01*
X64718940Y-38989000D01*
X64674662Y-38753683D01*
X64662640Y-38735000D01*
X65089370Y-38735000D01*
X66167000Y-39812631D01*
X66167000Y-39812631D01*
G37*
X66167000Y-39812631D02*
X66167000Y-41037702D01*
X65905734Y-40929215D01*
X65414421Y-40928786D01*
X64960343Y-41116408D01*
X64691755Y-41384527D01*
X64674662Y-41293683D01*
X64583896Y-41152629D01*
X64609827Y-41126698D01*
X64706500Y-40893309D01*
X64706500Y-40798750D01*
X64547750Y-40640000D01*
X63627000Y-40640000D01*
X63627000Y-40660000D01*
X63373000Y-40660000D01*
X63373000Y-40640000D01*
X63353000Y-40640000D01*
X63353000Y-40386000D01*
X63373000Y-40386000D01*
X63373000Y-40366000D01*
X63627000Y-40366000D01*
X63627000Y-40386000D01*
X64547750Y-40386000D01*
X64706500Y-40227250D01*
X64706500Y-40132691D01*
X64609827Y-39899302D01*
X64583291Y-39872765D01*
X64667931Y-39748890D01*
X64718940Y-39497000D01*
X64718940Y-38989000D01*
X64674662Y-38753683D01*
X64662640Y-38735000D01*
X65089370Y-38735000D01*
X66167000Y-39812631D01*
G36*
X78174532Y-26793108D02*
X77661086Y-28029624D01*
X77659917Y-29368502D01*
X78171204Y-30605912D01*
X79117108Y-31553468D01*
X80353624Y-32066914D01*
X81692502Y-32068083D01*
X82929912Y-31556796D01*
X83877468Y-30610892D01*
X84074000Y-30137590D01*
X84074000Y-30799369D01*
X80807185Y-34066185D01*
X80642004Y-34313395D01*
X80584000Y-34605000D01*
X80584000Y-37530638D01*
X80510734Y-37500215D01*
X80106492Y-37499862D01*
X73436815Y-30830185D01*
X73349144Y-30771605D01*
X73292326Y-30733640D01*
X73495763Y-30243708D01*
X73496236Y-29702666D01*
X73289624Y-29202628D01*
X72907384Y-28819720D01*
X72623802Y-28701967D01*
X72905372Y-28585624D01*
X73288280Y-28203384D01*
X73495763Y-27703708D01*
X73496236Y-27162666D01*
X73289624Y-26662628D01*
X72907384Y-26279720D01*
X72407708Y-26072237D01*
X71866666Y-26071764D01*
X71366628Y-26278376D01*
X70983720Y-26660616D01*
X70886033Y-26895873D01*
X70781010Y-26641697D01*
X70388370Y-26248371D01*
X69875100Y-26035243D01*
X69596647Y-26035000D01*
X78933964Y-26035000D01*
X78174532Y-26793108D01*
X78174532Y-26793108D01*
G37*
X78174532Y-26793108D02*
X77661086Y-28029624D01*
X77659917Y-29368502D01*
X78171204Y-30605912D01*
X79117108Y-31553468D01*
X80353624Y-32066914D01*
X81692502Y-32068083D01*
X82929912Y-31556796D01*
X83877468Y-30610892D01*
X84074000Y-30137590D01*
X84074000Y-30799369D01*
X80807185Y-34066185D01*
X80642004Y-34313395D01*
X80584000Y-34605000D01*
X80584000Y-37530638D01*
X80510734Y-37500215D01*
X80106492Y-37499862D01*
X73436815Y-30830185D01*
X73349144Y-30771605D01*
X73292326Y-30733640D01*
X73495763Y-30243708D01*
X73496236Y-29702666D01*
X73289624Y-29202628D01*
X72907384Y-28819720D01*
X72623802Y-28701967D01*
X72905372Y-28585624D01*
X73288280Y-28203384D01*
X73495763Y-27703708D01*
X73496236Y-27162666D01*
X73289624Y-26662628D01*
X72907384Y-26279720D01*
X72407708Y-26072237D01*
X71866666Y-26071764D01*
X71366628Y-26278376D01*
X70983720Y-26660616D01*
X70886033Y-26895873D01*
X70781010Y-26641697D01*
X70388370Y-26248371D01*
X69875100Y-26035243D01*
X69596647Y-26035000D01*
X78933964Y-26035000D01*
X78174532Y-26793108D01*
G36*
X26736748Y-30719858D02*
X26722605Y-30734000D01*
X26736748Y-30748143D01*
X26557143Y-30927748D01*
X26543000Y-30913605D01*
X26528858Y-30927748D01*
X26349253Y-30748143D01*
X26363395Y-30734000D01*
X26349253Y-30719858D01*
X26528858Y-30540253D01*
X26543000Y-30554395D01*
X26557143Y-30540253D01*
X26736748Y-30719858D01*
X26736748Y-30719858D01*
G37*
X26736748Y-30719858D02*
X26722605Y-30734000D01*
X26736748Y-30748143D01*
X26557143Y-30927748D01*
X26543000Y-30913605D01*
X26528858Y-30927748D01*
X26349253Y-30748143D01*
X26363395Y-30734000D01*
X26349253Y-30719858D01*
X26528858Y-30540253D01*
X26543000Y-30554395D01*
X26557143Y-30540253D01*
X26736748Y-30719858D01*
G36*
X63362376Y-28201372D02*
X63744616Y-28584280D01*
X64012092Y-28695346D01*
X63807122Y-28780247D01*
X63742207Y-29018602D01*
X64516000Y-29792395D01*
X64530143Y-29778253D01*
X64709748Y-29957858D01*
X64695605Y-29972000D01*
X64709748Y-29986143D01*
X64530143Y-30165748D01*
X64516000Y-30151605D01*
X64501858Y-30165748D01*
X64322253Y-29986143D01*
X64336395Y-29972000D01*
X63562602Y-29198207D01*
X63324247Y-29263122D01*
X63322629Y-29267692D01*
X63279162Y-29036683D01*
X63140090Y-28820559D01*
X62927890Y-28675569D01*
X62724339Y-28634349D01*
X62766303Y-28617010D01*
X63159629Y-28224370D01*
X63266016Y-27968162D01*
X63362376Y-28201372D01*
X63362376Y-28201372D01*
G37*
X63362376Y-28201372D02*
X63744616Y-28584280D01*
X64012092Y-28695346D01*
X63807122Y-28780247D01*
X63742207Y-29018602D01*
X64516000Y-29792395D01*
X64530143Y-29778253D01*
X64709748Y-29957858D01*
X64695605Y-29972000D01*
X64709748Y-29986143D01*
X64530143Y-30165748D01*
X64516000Y-30151605D01*
X64501858Y-30165748D01*
X64322253Y-29986143D01*
X64336395Y-29972000D01*
X63562602Y-29198207D01*
X63324247Y-29263122D01*
X63322629Y-29267692D01*
X63279162Y-29036683D01*
X63140090Y-28820559D01*
X62927890Y-28675569D01*
X62724339Y-28634349D01*
X62766303Y-28617010D01*
X63159629Y-28224370D01*
X63266016Y-27968162D01*
X63362376Y-28201372D01*
G36*
X26736748Y-25639858D02*
X26722605Y-25654000D01*
X26736748Y-25668143D01*
X26557143Y-25847748D01*
X26543000Y-25833605D01*
X26528858Y-25847748D01*
X26349253Y-25668143D01*
X26363395Y-25654000D01*
X26349253Y-25639858D01*
X26528858Y-25460253D01*
X26543000Y-25474395D01*
X26557143Y-25460253D01*
X26736748Y-25639858D01*
X26736748Y-25639858D01*
G37*
X26736748Y-25639858D02*
X26722605Y-25654000D01*
X26736748Y-25668143D01*
X26557143Y-25847748D01*
X26543000Y-25833605D01*
X26528858Y-25847748D01*
X26349253Y-25668143D01*
X26363395Y-25654000D01*
X26349253Y-25639858D01*
X26528858Y-25460253D01*
X26543000Y-25474395D01*
X26557143Y-25460253D01*
X26736748Y-25639858D01*
M02*
