M48
;DRILL file {KiCad 4.0.1-stable} date 2016-12-19 1:07:13 AM
;FORMAT={2:4/ absolute / inch / suppress leading zeros}
FMAT,2
INCH,TZ
T1C0.016
T2C0.031
T3C0.039
T4C0.039
T5C0.040
T6C0.120
%
G90
G05
M72
T1
X12532Y-26663
X13386Y-13189
X14632Y-26363
X16516Y-31535
X17196Y-23669
X17795Y-11575
X18268Y-23661
X18550Y-11013
X21050Y-12163
X21050Y-12713
X21417Y-18701
X21614Y-12008
X21693Y-20787
X22234Y-20817
X22520Y-18543
X23543Y-18386
X24016Y-15827
X24055Y-17756
X24382Y-28963
X24382Y-31263
X24567Y-21142
X24724Y-27874
X24843Y-23740
X24882Y-28963
X24882Y-31263
X25382Y-28963
X25382Y-31263
X25551Y-20787
X27008Y-15236
X27835Y-12402
X28543Y-22480
X28898Y-12008
X29370Y-23661
X29409Y-17756
X29632Y-24313
X29632Y-24863
X30000Y-15827
X30182Y-24313
X30182Y-24863
X30591Y-21220
X30782Y-24313
X30782Y-24863
X31063Y-20866
X31299Y-14606
X31772Y-14882
X31811Y-26220
X32132Y-26669
X32480Y-16181
X32913Y-21535
X33132Y-28063
X33268Y-15236
X33346Y-10984
X33425Y-13504
X34213Y-10945
X34449Y-26339
X34488Y-15157
X34567Y-11929
X34606Y-20591
X34606Y-21850
X35236Y-26339
X35305Y-10163
X35630Y-22205
X35669Y-25591
X35709Y-21339
X35787Y-11929
X36811Y-12913
X36850Y-11063
X36890Y-12165
X36969Y-10236
X37165Y-15748
X37244Y-12559
X37362Y-20433
X37835Y-18386
X38819Y-16339
X38976Y-22205
X39032Y-23963
X39134Y-13858
X39803Y-16102
X39803Y-18543
X39803Y-21457
X39921Y-12756
X40276Y-17835
X40787Y-17953
X40984Y-14882
T2
X9921Y-22008
X11432Y-30663
X12512Y-15079
X12512Y-16079
X12512Y-17079
X12512Y-18079
X12512Y-19079
X12512Y-20079
X12512Y-21079
X15512Y-15079
X15512Y-16079
X15512Y-17079
X15512Y-18079
X15512Y-19079
X15512Y-20079
X15512Y-21079
X16732Y-26613
X18332Y-26613
X36102Y-19409
X36614Y-16339
X38150Y-11142
X38622Y-14646
X38661Y-11417
X39094Y-17795
X39291Y-19291
X39961Y-31772
X40039Y-11378
X41299Y-19291
T3
X19545Y-13772
X19545Y-19772
X20545Y-13772
X20545Y-19772
X21545Y-13772
X21545Y-19772
X22545Y-13772
X22545Y-14772
X22545Y-19772
X23545Y-13772
X23545Y-14772
X23545Y-19772
X24545Y-13772
X24545Y-14772
X24545Y-19772
X25545Y-13772
X25545Y-19772
X26545Y-13772
X26545Y-19772
X27545Y-13772
X27545Y-19772
X28545Y-13772
X28545Y-19772
X29545Y-13772
X29545Y-19772
X30545Y-13772
X30545Y-19772
X31545Y-13772
X31545Y-19772
X32545Y-13772
X32545Y-19772
T4
X10647Y-25063
X12232Y-28113
X12232Y-29113
X12232Y-30113
X12616Y-25063
X14332Y-23663
X14332Y-24663
X14332Y-25663
X32232Y-30713
X33232Y-30713
X34232Y-30713
T5
X10932Y-22713
X10932Y-31713
X11500Y-15563
X11500Y-16563
X11500Y-17563
X11500Y-18563
X11932Y-22713
X11932Y-31713
X12932Y-22713
X12932Y-31713
X13932Y-31713
X16500Y-15563
X16500Y-16563
X16500Y-17563
X16500Y-18563
X18550Y-15763
X18550Y-16763
X18550Y-17763
X18550Y-18763
T6
X11024Y-12205
X40945Y-12205
T0
M30
