M48
;DRILL file {KiCad 4.0.1-stable} date 11/23/2016 2:12:13 PM
;FORMAT={2:4/ absolute / inch / suppress leading zeros}
FMAT,2
INCH,TZ
T1C0.031
T2C0.032
T3C0.039
T4C0.039
T5C0.040
T6C0.059
T7C0.060
T8C0.063
T9C0.100
T10C0.120
%
G90
G05
M72
T1
X11046Y-25937
X11550Y-34600
X12650Y-30600
X13300Y-14100
X14400Y-14750
X14750Y-30300
X14814Y-24988
X16850Y-14800
X16850Y-30550
X17100Y-25600
X17314Y-27606
X17350Y-26300
X17850Y-25250
X17950Y-21250
X18450Y-30550
X18750Y-14800
X20000Y-21550
X21250Y-24300
X22350Y-23900
X22850Y-18700
X23200Y-17150
X23350Y-23550
X24350Y-23200
X24500Y-32900
X24500Y-35200
X25000Y-32900
X25000Y-35200
X25500Y-32900
X25500Y-35200
X25600Y-15950
X25850Y-16600
X26450Y-21000
X26500Y-31250
X26850Y-17150
X27000Y-16450
X27050Y-15450
X27350Y-25050
X27500Y-18100
X27600Y-23500
X28593Y-29761
X29500Y-17750
X29750Y-28250
X29750Y-28800
X30300Y-28250
X30300Y-28800
X30450Y-12600
X30850Y-20450
X30900Y-28250
X30900Y-28800
X31150Y-18850
X31600Y-15250
X31650Y-29900
X32250Y-30606
X32600Y-15250
X32800Y-22900
X33000Y-18200
X33250Y-32000
X33850Y-29300
X34400Y-31000
X34550Y-18250
X38515Y-35874
X39150Y-27900
X39700Y-24500
X40503Y-12626
T2
X24398Y-10787
X24398Y-11787
X25398Y-10787
X25398Y-11787
X26398Y-10787
X26398Y-11787
X27398Y-10787
X27398Y-11787
X28398Y-10787
X28398Y-11787
T3
X20350Y-19950
X20350Y-25950
X21350Y-19950
X21350Y-25950
X22350Y-19950
X22350Y-25950
X23350Y-19950
X23350Y-20950
X23350Y-25950
X24350Y-19950
X24350Y-20950
X24350Y-25950
X25350Y-19950
X25350Y-20950
X25350Y-25950
X26350Y-19950
X26350Y-25950
X27350Y-19950
X27350Y-25950
X28350Y-19950
X28350Y-25950
X29350Y-19950
X29350Y-25950
X30350Y-19950
X30350Y-25950
X31350Y-19950
X31350Y-25950
X32350Y-19950
X32350Y-25950
X33350Y-19950
X33350Y-25950
T4
X10765Y-29000
X12350Y-32050
X12350Y-33050
X12350Y-34050
X12734Y-29000
X14450Y-27600
X14450Y-28600
X14450Y-29600
X32350Y-34650
X33350Y-34650
X34350Y-34650
X38950Y-26200
X39950Y-26200
X40950Y-26200
T5
X11050Y-26650
X11050Y-35650
X12050Y-26650
X12050Y-35650
X13050Y-26650
X13050Y-35650
X14050Y-35650
X35350Y-22900
X36350Y-22900
X37350Y-22900
X39950Y-22900
X40950Y-22900
T6
X11450Y-11100
X15950Y-11100
T7
X36450Y-10850
X38450Y-10850
X40450Y-10850
T8
X10450Y-10100
X10450Y-12100
X12450Y-10100
X12450Y-12100
X14950Y-10100
X14950Y-12100
X16950Y-10100
X16950Y-12100
T9
X22098Y-11087
X30698Y-11087
T10
X11231Y-15362
X41231Y-15362
T0
M30
