G04 #@! TF.FileFunction,Copper,L2,Inr,Plane*
%FSLAX46Y46*%
G04 Gerber Fmt 4.6, Leading zero omitted, Abs format (unit mm)*
G04 Created by KiCad (PCBNEW 4.0.6) date 06/02/17 15:16:19*
%MOMM*%
%LPD*%
G01*
G04 APERTURE LIST*
%ADD10C,0.150000*%
%ADD11C,1.900000*%
%ADD12C,3.000000*%
%ADD13R,1.727200X2.032000*%
%ADD14O,1.727200X2.032000*%
%ADD15O,3.500120X1.699260*%
%ADD16O,1.699260X3.500120*%
%ADD17C,1.998980*%
%ADD18C,1.270000*%
%ADD19C,4.064000*%
%ADD20R,1.700000X1.700000*%
%ADD21C,2.000000*%
%ADD22O,1.700000X1.700000*%
%ADD23R,1.600000X1.600000*%
%ADD24O,1.600000X1.600000*%
%ADD25C,0.800000*%
%ADD26C,0.254000*%
G04 APERTURE END LIST*
D10*
D11*
X98564000Y-57320000D03*
X101104000Y-57320000D03*
X103644000Y-57320000D03*
X93484000Y-70020000D03*
X96024000Y-70020000D03*
X98564000Y-70020000D03*
X101104000Y-70020000D03*
X103644000Y-70020000D03*
X106184000Y-70020000D03*
X108724000Y-70020000D03*
X111264000Y-70020000D03*
X113804000Y-70020000D03*
X116344000Y-70020000D03*
X118884000Y-70020000D03*
X121424000Y-70020000D03*
X123964000Y-70020000D03*
X123964000Y-54780000D03*
X121424000Y-54780000D03*
X118884000Y-54780000D03*
X116344000Y-54780000D03*
X113804000Y-54780000D03*
X111264000Y-54780000D03*
X108724000Y-54780000D03*
X106184000Y-54780000D03*
X103644000Y-54780000D03*
X101104000Y-54780000D03*
X98564000Y-54780000D03*
X96024000Y-54780000D03*
X93484000Y-54780000D03*
X90944000Y-54780000D03*
X90944000Y-70020000D03*
D12*
X60570000Y-69900000D03*
X47430000Y-69900000D03*
D13*
X67767000Y-102551000D03*
D14*
X70307000Y-102551000D03*
X72847000Y-102551000D03*
X75387000Y-102551000D03*
D15*
X76403000Y-84644000D03*
X76403000Y-87184000D03*
X76403000Y-82104000D03*
X71069000Y-95947000D03*
X71069000Y-98487000D03*
X71069000Y-93407000D03*
D16*
X124409000Y-100011000D03*
X126949000Y-100011000D03*
X121869000Y-100011000D03*
D13*
X67767000Y-79691000D03*
D14*
X70307000Y-79691000D03*
X72847000Y-79691000D03*
D17*
X72044360Y-85660000D03*
X67043100Y-85660000D03*
D18*
X136130800Y-22473200D03*
X125869200Y-22473200D03*
X136130800Y-24733800D03*
X125869200Y-24733800D03*
D19*
X144000000Y-25000000D03*
X68000000Y-109000000D03*
X144000000Y-109000000D03*
D20*
X39050000Y-83200000D03*
D21*
X35600000Y-62842830D03*
X35600000Y-68354630D03*
D20*
X71120000Y-54610000D03*
D22*
X71120000Y-57150000D03*
X71120000Y-59690000D03*
D20*
X86360000Y-54610000D03*
D22*
X86360000Y-57150000D03*
D23*
X83300000Y-55100000D03*
D24*
X75680000Y-62720000D03*
X83300000Y-57640000D03*
X75680000Y-60180000D03*
X83300000Y-60180000D03*
X75680000Y-57640000D03*
X83300000Y-62720000D03*
X75680000Y-55100000D03*
D25*
X122700000Y-56300000D03*
X120100000Y-56300000D03*
X120800000Y-67700000D03*
X117600000Y-56300000D03*
X118500000Y-67700000D03*
X114600000Y-67000000D03*
X130000000Y-67900000D03*
X126000000Y-67800000D03*
X116100000Y-56400000D03*
X116200000Y-67600000D03*
X113000000Y-56400000D03*
X114700000Y-56400000D03*
X57500000Y-66000000D03*
X135000000Y-49400000D03*
X137900000Y-70900000D03*
X144100000Y-70100000D03*
X142500000Y-70500000D03*
X139300000Y-70300000D03*
X139800000Y-62900000D03*
X133540000Y-29102600D03*
X126600000Y-28300000D03*
X84900000Y-53800000D03*
X136500000Y-47800000D03*
X137290000Y-52990000D03*
X143900000Y-77800000D03*
X73550000Y-57000000D03*
X73500000Y-64300000D03*
X133000000Y-44600000D03*
X133000000Y-45600000D03*
X129730000Y-27578600D03*
X131800000Y-44600000D03*
X69100000Y-100600000D03*
X68700000Y-77800000D03*
X80451000Y-101408000D03*
X82499000Y-98072980D03*
X108700000Y-61400000D03*
X124550000Y-75200000D03*
X128800000Y-74700000D03*
X113600000Y-77200000D03*
X102600000Y-51100000D03*
X99800000Y-101575000D03*
X100975000Y-101550000D03*
X105300000Y-93600000D03*
X102200000Y-101550000D03*
X100975000Y-95400000D03*
X99700000Y-95350000D03*
X102250000Y-95400000D03*
X121615000Y-89740000D03*
X116662000Y-85152000D03*
X118186000Y-83755000D03*
X118186000Y-85152000D03*
X116662000Y-83755000D03*
X115265000Y-83755000D03*
X115265000Y-85152000D03*
X124155000Y-93280000D03*
X139141000Y-82866000D03*
X132800000Y-53150000D03*
X128700000Y-94300000D03*
X129700000Y-50900000D03*
X68900000Y-104700000D03*
X141700000Y-91200000D03*
X144400000Y-91300000D03*
X144200000Y-99800000D03*
X144200000Y-98300000D03*
X144200000Y-96900000D03*
X142900000Y-92700000D03*
X121400000Y-63500000D03*
X109000000Y-83450000D03*
X118400000Y-82800000D03*
X130600000Y-87000000D03*
X120800000Y-88600000D03*
X86563000Y-89597000D03*
X82499000Y-89597000D03*
X144800000Y-71200000D03*
X127600000Y-46900000D03*
X129200000Y-70300000D03*
X129100000Y-63200000D03*
X142100000Y-63600000D03*
X129300000Y-53150000D03*
X126300000Y-53100000D03*
X137900000Y-62900000D03*
X101800000Y-76600000D03*
X97950000Y-52600000D03*
X136250000Y-77000000D03*
X125300000Y-61600000D03*
X127300000Y-88900000D03*
X129500000Y-88900000D03*
X130902000Y-83374000D03*
X130400000Y-80300000D03*
X121675000Y-72995000D03*
X113600000Y-75200000D03*
X101500000Y-52800000D03*
X115200000Y-67800000D03*
X107700000Y-67800000D03*
X107400000Y-76700000D03*
X102100000Y-92300000D03*
X112500000Y-89000000D03*
X71831000Y-89724000D03*
X77165000Y-88962000D03*
X135800000Y-48500000D03*
X132800000Y-31200000D03*
X131000000Y-27578600D03*
X142400000Y-75000000D03*
X140600000Y-56500000D03*
X128100000Y-68600000D03*
X141100000Y-62000000D03*
X133500000Y-66800000D03*
X133000000Y-78300000D03*
X111500000Y-48600000D03*
X109600000Y-51400000D03*
X132270000Y-29102600D03*
X112800000Y-48100000D03*
X110900000Y-51400000D03*
X133540000Y-27578600D03*
X98800000Y-80100000D03*
X111200000Y-79800000D03*
X98800000Y-79100000D03*
X108700000Y-79100000D03*
X104800000Y-74400000D03*
X104900000Y-80900000D03*
X118600000Y-81000000D03*
X108000000Y-80500000D03*
X108100000Y-74300000D03*
X118500000Y-80000000D03*
X130600000Y-79200000D03*
X134700000Y-78500000D03*
X122650000Y-48160000D03*
X131000000Y-48240000D03*
X130400000Y-77400000D03*
X129130000Y-72810000D03*
X127600000Y-74700000D03*
X124000000Y-58150000D03*
X124800000Y-77400000D03*
X118900000Y-77400000D03*
X103600000Y-73900000D03*
X106200000Y-73900000D03*
X104600000Y-52800000D03*
X123400000Y-73600000D03*
X116450000Y-74300000D03*
X124200000Y-72200000D03*
X36957000Y-82296000D03*
X42610400Y-64976430D03*
X47000000Y-62800000D03*
X35433000Y-72644000D03*
X33909000Y-80518000D03*
X33975000Y-84100000D03*
X35581660Y-58679770D03*
X49400000Y-52000000D03*
X133000000Y-41550000D03*
X134700000Y-41500000D03*
X47000008Y-58000000D03*
X54600000Y-63400000D03*
X55000000Y-66000000D03*
X137290000Y-60610000D03*
X144900000Y-60700000D03*
D26*
G36*
X144373000Y-48873000D02*
X136765798Y-48873000D01*
X136797353Y-48797008D01*
X137085515Y-48677942D01*
X137376919Y-48387046D01*
X137534820Y-48006777D01*
X137535179Y-47595029D01*
X137377942Y-47214485D01*
X137087046Y-46923081D01*
X136706777Y-46765180D01*
X136295029Y-46764821D01*
X135914485Y-46922058D01*
X135623081Y-47212954D01*
X135502647Y-47502992D01*
X135214485Y-47622058D01*
X134923081Y-47912954D01*
X134765180Y-48293223D01*
X134765107Y-48377185D01*
X134414485Y-48522058D01*
X134123081Y-48812954D01*
X134098148Y-48873000D01*
X131830885Y-48873000D01*
X131876919Y-48827046D01*
X132034820Y-48446777D01*
X132035179Y-48035029D01*
X131877942Y-47654485D01*
X131587046Y-47363081D01*
X131206777Y-47205180D01*
X130795029Y-47204821D01*
X130414485Y-47362058D01*
X130123081Y-47652954D01*
X129965180Y-48033223D01*
X129964821Y-48444971D01*
X130122058Y-48825515D01*
X130169460Y-48873000D01*
X127000000Y-48873000D01*
X126950590Y-48883006D01*
X126908965Y-48911447D01*
X126881685Y-48953841D01*
X126873000Y-49000000D01*
X126873000Y-55000000D01*
X126883006Y-55049410D01*
X126911447Y-55091035D01*
X126953841Y-55118315D01*
X127000000Y-55127000D01*
X139873000Y-55127000D01*
X139873000Y-55763296D01*
X139723081Y-55912954D01*
X139565180Y-56293223D01*
X139564821Y-56704971D01*
X139722058Y-57085515D01*
X139873000Y-57236721D01*
X139873000Y-61865063D01*
X139595029Y-61864821D01*
X139214485Y-62022058D01*
X138923081Y-62312954D01*
X138765180Y-62693223D01*
X138764821Y-63104971D01*
X138922058Y-63485515D01*
X139212954Y-63776919D01*
X139593223Y-63934820D01*
X139873000Y-63935064D01*
X139873000Y-69417249D01*
X139506777Y-69265180D01*
X139095029Y-69264821D01*
X138714485Y-69422058D01*
X138423081Y-69712954D01*
X138322651Y-69954818D01*
X138106777Y-69865180D01*
X137695029Y-69864821D01*
X137314485Y-70022058D01*
X137023081Y-70312954D01*
X136865180Y-70693223D01*
X136864821Y-71104971D01*
X137022058Y-71485515D01*
X137312954Y-71776919D01*
X137693223Y-71934820D01*
X138104971Y-71935179D01*
X138485515Y-71777942D01*
X138776919Y-71487046D01*
X138877349Y-71245182D01*
X139093223Y-71334820D01*
X139504971Y-71335179D01*
X139873000Y-71183113D01*
X139873000Y-82134288D01*
X139728046Y-81989081D01*
X139347777Y-81831180D01*
X138936029Y-81830821D01*
X138555485Y-81988058D01*
X138264081Y-82278954D01*
X138106180Y-82659223D01*
X138105821Y-83070971D01*
X138263058Y-83451515D01*
X138553954Y-83742919D01*
X138934223Y-83900820D01*
X139345971Y-83901179D01*
X139726515Y-83743942D01*
X139873000Y-83597712D01*
X139873000Y-85873000D01*
X127000000Y-85873000D01*
X126950590Y-85883006D01*
X126908965Y-85911447D01*
X126881685Y-85953841D01*
X126873000Y-86000000D01*
X126873000Y-97594331D01*
X126380857Y-97692225D01*
X125899208Y-98014052D01*
X125679000Y-98343617D01*
X125458792Y-98014052D01*
X124977143Y-97692225D01*
X124409000Y-97579214D01*
X123840857Y-97692225D01*
X123359208Y-98014052D01*
X123139000Y-98343617D01*
X122918792Y-98014052D01*
X122437143Y-97692225D01*
X121869000Y-97579214D01*
X121300857Y-97692225D01*
X120819208Y-98014052D01*
X120497381Y-98495701D01*
X120384370Y-99063844D01*
X120384370Y-99873000D01*
X72512001Y-99873000D01*
X72584299Y-99858619D01*
X73065948Y-99536792D01*
X73387775Y-99055143D01*
X73500786Y-98487000D01*
X73459204Y-98277951D01*
X81463821Y-98277951D01*
X81621058Y-98658495D01*
X81911954Y-98949899D01*
X82292223Y-99107800D01*
X82703971Y-99108159D01*
X83084515Y-98950922D01*
X83375919Y-98660026D01*
X83533820Y-98279757D01*
X83534179Y-97868009D01*
X83376942Y-97487465D01*
X83086046Y-97196061D01*
X82705777Y-97038160D01*
X82294029Y-97037801D01*
X81913485Y-97195038D01*
X81622081Y-97485934D01*
X81464180Y-97866203D01*
X81463821Y-98277951D01*
X73459204Y-98277951D01*
X73387775Y-97918857D01*
X73065948Y-97437208D01*
X72736383Y-97217000D01*
X73065948Y-96996792D01*
X73387775Y-96515143D01*
X73500786Y-95947000D01*
X73422807Y-95554971D01*
X98664821Y-95554971D01*
X98822058Y-95935515D01*
X99112954Y-96226919D01*
X99493223Y-96384820D01*
X99904971Y-96385179D01*
X100285515Y-96227942D01*
X100312335Y-96201168D01*
X100387954Y-96276919D01*
X100768223Y-96434820D01*
X101179971Y-96435179D01*
X101560515Y-96277942D01*
X101612335Y-96226212D01*
X101662954Y-96276919D01*
X102043223Y-96434820D01*
X102454971Y-96435179D01*
X102835515Y-96277942D01*
X103126919Y-95987046D01*
X103284820Y-95606777D01*
X103285179Y-95195029D01*
X103127942Y-94814485D01*
X102837046Y-94523081D01*
X102456777Y-94365180D01*
X102045029Y-94364821D01*
X101664485Y-94522058D01*
X101612665Y-94573788D01*
X101562046Y-94523081D01*
X101181777Y-94365180D01*
X100770029Y-94364821D01*
X100389485Y-94522058D01*
X100362665Y-94548832D01*
X100287046Y-94473081D01*
X99906777Y-94315180D01*
X99495029Y-94314821D01*
X99114485Y-94472058D01*
X98823081Y-94762954D01*
X98665180Y-95143223D01*
X98664821Y-95554971D01*
X73422807Y-95554971D01*
X73387775Y-95378857D01*
X73065948Y-94897208D01*
X72736383Y-94677000D01*
X73065948Y-94456792D01*
X73387775Y-93975143D01*
X73421624Y-93804971D01*
X104264821Y-93804971D01*
X104422058Y-94185515D01*
X104712954Y-94476919D01*
X105093223Y-94634820D01*
X105504971Y-94635179D01*
X105885515Y-94477942D01*
X106176919Y-94187046D01*
X106334820Y-93806777D01*
X106335100Y-93484971D01*
X123119821Y-93484971D01*
X123277058Y-93865515D01*
X123567954Y-94156919D01*
X123948223Y-94314820D01*
X124359971Y-94315179D01*
X124740515Y-94157942D01*
X125031919Y-93867046D01*
X125189820Y-93486777D01*
X125190179Y-93075029D01*
X125032942Y-92694485D01*
X124742046Y-92403081D01*
X124361777Y-92245180D01*
X123950029Y-92244821D01*
X123569485Y-92402058D01*
X123278081Y-92692954D01*
X123120180Y-93073223D01*
X123119821Y-93484971D01*
X106335100Y-93484971D01*
X106335179Y-93395029D01*
X106177942Y-93014485D01*
X105887046Y-92723081D01*
X105506777Y-92565180D01*
X105095029Y-92564821D01*
X104714485Y-92722058D01*
X104423081Y-93012954D01*
X104265180Y-93393223D01*
X104264821Y-93804971D01*
X73421624Y-93804971D01*
X73500786Y-93407000D01*
X73387775Y-92838857D01*
X73164680Y-92504971D01*
X101064821Y-92504971D01*
X101222058Y-92885515D01*
X101512954Y-93176919D01*
X101893223Y-93334820D01*
X102304971Y-93335179D01*
X102685515Y-93177942D01*
X102976919Y-92887046D01*
X103134820Y-92506777D01*
X103135179Y-92095029D01*
X102977942Y-91714485D01*
X102687046Y-91423081D01*
X102306777Y-91265180D01*
X101895029Y-91264821D01*
X101514485Y-91422058D01*
X101223081Y-91712954D01*
X101065180Y-92093223D01*
X101064821Y-92504971D01*
X73164680Y-92504971D01*
X73065948Y-92357208D01*
X72584299Y-92035381D01*
X72016156Y-91922370D01*
X70121844Y-91922370D01*
X69553701Y-92035381D01*
X69072052Y-92357208D01*
X68750225Y-92838857D01*
X68637214Y-93407000D01*
X68750225Y-93975143D01*
X69072052Y-94456792D01*
X69401617Y-94677000D01*
X69072052Y-94897208D01*
X68750225Y-95378857D01*
X68637214Y-95947000D01*
X68750225Y-96515143D01*
X69072052Y-96996792D01*
X69401617Y-97217000D01*
X69072052Y-97437208D01*
X68750225Y-97918857D01*
X68637214Y-98487000D01*
X68750225Y-99055143D01*
X69072052Y-99536792D01*
X69114287Y-99565012D01*
X68895029Y-99564821D01*
X68514485Y-99722058D01*
X68363279Y-99873000D01*
X68127000Y-99873000D01*
X68127000Y-89928971D01*
X70795821Y-89928971D01*
X70953058Y-90309515D01*
X71243954Y-90600919D01*
X71624223Y-90758820D01*
X72035971Y-90759179D01*
X72416515Y-90601942D01*
X72707919Y-90311046D01*
X72865820Y-89930777D01*
X72866179Y-89519029D01*
X72708942Y-89138485D01*
X72418046Y-88847081D01*
X72037777Y-88689180D01*
X71626029Y-88688821D01*
X71245485Y-88846058D01*
X70954081Y-89136954D01*
X70796180Y-89517223D01*
X70795821Y-89928971D01*
X68127000Y-89928971D01*
X68127000Y-86887495D01*
X68427946Y-86587073D01*
X68677306Y-85986547D01*
X68677308Y-85983694D01*
X70409586Y-85983694D01*
X70657898Y-86584655D01*
X71117287Y-87044846D01*
X71717813Y-87294206D01*
X72368054Y-87294774D01*
X72969015Y-87046462D01*
X73429206Y-86587073D01*
X73678566Y-85986547D01*
X73679134Y-85336306D01*
X73430822Y-84735345D01*
X72971433Y-84275154D01*
X72370907Y-84025794D01*
X71720666Y-84025226D01*
X71119705Y-84273538D01*
X70659514Y-84732927D01*
X70410154Y-85333453D01*
X70409586Y-85983694D01*
X68677308Y-85983694D01*
X68677874Y-85336306D01*
X68429562Y-84735345D01*
X68127000Y-84432255D01*
X68127000Y-82104000D01*
X73971214Y-82104000D01*
X74084225Y-82672143D01*
X74406052Y-83153792D01*
X74735617Y-83374000D01*
X74406052Y-83594208D01*
X74084225Y-84075857D01*
X73971214Y-84644000D01*
X74084225Y-85212143D01*
X74406052Y-85693792D01*
X74735617Y-85914000D01*
X74406052Y-86134208D01*
X74084225Y-86615857D01*
X73971214Y-87184000D01*
X74084225Y-87752143D01*
X74406052Y-88233792D01*
X74887701Y-88555619D01*
X75455844Y-88668630D01*
X76166136Y-88668630D01*
X76130180Y-88755223D01*
X76129821Y-89166971D01*
X76287058Y-89547515D01*
X76577954Y-89838919D01*
X76958223Y-89996820D01*
X77369971Y-89997179D01*
X77750515Y-89839942D01*
X77788552Y-89801971D01*
X81463821Y-89801971D01*
X81621058Y-90182515D01*
X81911954Y-90473919D01*
X82292223Y-90631820D01*
X82703971Y-90632179D01*
X83084515Y-90474942D01*
X83375919Y-90184046D01*
X83533820Y-89803777D01*
X83533821Y-89801971D01*
X85527821Y-89801971D01*
X85685058Y-90182515D01*
X85975954Y-90473919D01*
X86356223Y-90631820D01*
X86767971Y-90632179D01*
X87148515Y-90474942D01*
X87439919Y-90184046D01*
X87597820Y-89803777D01*
X87598179Y-89392029D01*
X87520889Y-89204971D01*
X111464821Y-89204971D01*
X111622058Y-89585515D01*
X111912954Y-89876919D01*
X112293223Y-90034820D01*
X112704971Y-90035179D01*
X113085515Y-89877942D01*
X113376919Y-89587046D01*
X113534820Y-89206777D01*
X113535170Y-88804971D01*
X119764821Y-88804971D01*
X119922058Y-89185515D01*
X120212954Y-89476919D01*
X120580096Y-89629369D01*
X120579821Y-89944971D01*
X120737058Y-90325515D01*
X121027954Y-90616919D01*
X121408223Y-90774820D01*
X121819971Y-90775179D01*
X122200515Y-90617942D01*
X122491919Y-90327046D01*
X122649820Y-89946777D01*
X122650179Y-89535029D01*
X122492942Y-89154485D01*
X122202046Y-88863081D01*
X121834904Y-88710631D01*
X121835179Y-88395029D01*
X121677942Y-88014485D01*
X121387046Y-87723081D01*
X121006777Y-87565180D01*
X120595029Y-87564821D01*
X120214485Y-87722058D01*
X119923081Y-88012954D01*
X119765180Y-88393223D01*
X119764821Y-88804971D01*
X113535170Y-88804971D01*
X113535179Y-88795029D01*
X113377942Y-88414485D01*
X113087046Y-88123081D01*
X112706777Y-87965180D01*
X112295029Y-87964821D01*
X111914485Y-88122058D01*
X111623081Y-88412954D01*
X111465180Y-88793223D01*
X111464821Y-89204971D01*
X87520889Y-89204971D01*
X87440942Y-89011485D01*
X87150046Y-88720081D01*
X86769777Y-88562180D01*
X86358029Y-88561821D01*
X85977485Y-88719058D01*
X85686081Y-89009954D01*
X85528180Y-89390223D01*
X85527821Y-89801971D01*
X83533821Y-89801971D01*
X83534179Y-89392029D01*
X83376942Y-89011485D01*
X83086046Y-88720081D01*
X82705777Y-88562180D01*
X82294029Y-88561821D01*
X81913485Y-88719058D01*
X81622081Y-89009954D01*
X81464180Y-89390223D01*
X81463821Y-89801971D01*
X77788552Y-89801971D01*
X78041919Y-89549046D01*
X78199820Y-89168777D01*
X78200179Y-88757029D01*
X78073978Y-88451598D01*
X78399948Y-88233792D01*
X78721775Y-87752143D01*
X78834786Y-87184000D01*
X78721775Y-86615857D01*
X78399948Y-86134208D01*
X78070383Y-85914000D01*
X78399948Y-85693792D01*
X78721775Y-85212143D01*
X78834786Y-84644000D01*
X78721775Y-84075857D01*
X78440549Y-83654971D01*
X107964821Y-83654971D01*
X108122058Y-84035515D01*
X108412954Y-84326919D01*
X108793223Y-84484820D01*
X109204971Y-84485179D01*
X109585515Y-84327942D01*
X109876919Y-84037046D01*
X109908923Y-83959971D01*
X114229821Y-83959971D01*
X114387058Y-84340515D01*
X114499788Y-84453442D01*
X114388081Y-84564954D01*
X114230180Y-84945223D01*
X114229821Y-85356971D01*
X114387058Y-85737515D01*
X114677954Y-86028919D01*
X115058223Y-86186820D01*
X115469971Y-86187179D01*
X115850515Y-86029942D01*
X115963442Y-85917212D01*
X116074954Y-86028919D01*
X116455223Y-86186820D01*
X116866971Y-86187179D01*
X117247515Y-86029942D01*
X117424053Y-85853712D01*
X117598954Y-86028919D01*
X117979223Y-86186820D01*
X118390971Y-86187179D01*
X118771515Y-86029942D01*
X119062919Y-85739046D01*
X119220820Y-85358777D01*
X119221179Y-84947029D01*
X119063942Y-84566485D01*
X118951212Y-84453558D01*
X119062919Y-84342046D01*
X119220820Y-83961777D01*
X119221179Y-83550029D01*
X119189779Y-83474034D01*
X119276919Y-83387046D01*
X119434820Y-83006777D01*
X119435179Y-82595029D01*
X119277942Y-82214485D01*
X119013101Y-81949182D01*
X119185515Y-81877942D01*
X119476919Y-81587046D01*
X119634820Y-81206777D01*
X119635179Y-80795029D01*
X119477942Y-80414485D01*
X119457200Y-80393707D01*
X119534820Y-80206777D01*
X119535179Y-79795029D01*
X119377942Y-79414485D01*
X119087046Y-79123081D01*
X118706777Y-78965180D01*
X118295029Y-78964821D01*
X117914485Y-79122058D01*
X117623081Y-79412954D01*
X117465180Y-79793223D01*
X117464821Y-80204971D01*
X117622058Y-80585515D01*
X117642800Y-80606293D01*
X117565180Y-80793223D01*
X117564821Y-81204971D01*
X117722058Y-81585515D01*
X117986899Y-81850818D01*
X117814485Y-81922058D01*
X117523081Y-82212954D01*
X117365180Y-82593223D01*
X117364831Y-82994068D01*
X117249046Y-82878081D01*
X116868777Y-82720180D01*
X116457029Y-82719821D01*
X116076485Y-82877058D01*
X115963558Y-82989788D01*
X115852046Y-82878081D01*
X115471777Y-82720180D01*
X115060029Y-82719821D01*
X114679485Y-82877058D01*
X114388081Y-83167954D01*
X114230180Y-83548223D01*
X114229821Y-83959971D01*
X109908923Y-83959971D01*
X110034820Y-83656777D01*
X110035179Y-83245029D01*
X109877942Y-82864485D01*
X109587046Y-82573081D01*
X109206777Y-82415180D01*
X108795029Y-82414821D01*
X108414485Y-82572058D01*
X108123081Y-82862954D01*
X107965180Y-83243223D01*
X107964821Y-83654971D01*
X78440549Y-83654971D01*
X78399948Y-83594208D01*
X78070383Y-83374000D01*
X78399948Y-83153792D01*
X78721775Y-82672143D01*
X78834786Y-82104000D01*
X78721775Y-81535857D01*
X78399948Y-81054208D01*
X77918299Y-80732381D01*
X77350156Y-80619370D01*
X75455844Y-80619370D01*
X74887701Y-80732381D01*
X74406052Y-81054208D01*
X74084225Y-81535857D01*
X73971214Y-82104000D01*
X68127000Y-82104000D01*
X68127000Y-81354440D01*
X68630600Y-81354440D01*
X68865917Y-81310162D01*
X69082041Y-81171090D01*
X69227031Y-80958890D01*
X69235400Y-80917561D01*
X69247330Y-80935415D01*
X69733511Y-81260271D01*
X70307000Y-81374345D01*
X70880489Y-81260271D01*
X71366670Y-80935415D01*
X71577000Y-80620634D01*
X71787330Y-80935415D01*
X72273511Y-81260271D01*
X72847000Y-81374345D01*
X73420489Y-81260271D01*
X73906670Y-80935415D01*
X74231526Y-80449234D01*
X74345600Y-79875745D01*
X74345600Y-79506255D01*
X74305563Y-79304971D01*
X97764821Y-79304971D01*
X97886830Y-79600256D01*
X97765180Y-79893223D01*
X97764821Y-80304971D01*
X97922058Y-80685515D01*
X98212954Y-80976919D01*
X98593223Y-81134820D01*
X99004971Y-81135179D01*
X99078080Y-81104971D01*
X103864821Y-81104971D01*
X104022058Y-81485515D01*
X104312954Y-81776919D01*
X104693223Y-81934820D01*
X105104971Y-81935179D01*
X105485515Y-81777942D01*
X105776919Y-81487046D01*
X105934820Y-81106777D01*
X105935170Y-80704971D01*
X106964821Y-80704971D01*
X107122058Y-81085515D01*
X107412954Y-81376919D01*
X107793223Y-81534820D01*
X108204971Y-81535179D01*
X108585515Y-81377942D01*
X108876919Y-81087046D01*
X109034820Y-80706777D01*
X109035179Y-80295029D01*
X108959774Y-80112535D01*
X109220099Y-80004971D01*
X110164821Y-80004971D01*
X110322058Y-80385515D01*
X110612954Y-80676919D01*
X110993223Y-80834820D01*
X111404971Y-80835179D01*
X111785515Y-80677942D01*
X112076919Y-80387046D01*
X112234820Y-80006777D01*
X112235179Y-79595029D01*
X112077942Y-79214485D01*
X111787046Y-78923081D01*
X111406777Y-78765180D01*
X110995029Y-78764821D01*
X110614485Y-78922058D01*
X110323081Y-79212954D01*
X110165180Y-79593223D01*
X110164821Y-80004971D01*
X109220099Y-80004971D01*
X109285515Y-79977942D01*
X109576919Y-79687046D01*
X109734820Y-79306777D01*
X109735179Y-78895029D01*
X109577942Y-78514485D01*
X109287046Y-78223081D01*
X108906777Y-78065180D01*
X108495029Y-78064821D01*
X108114485Y-78222058D01*
X107823081Y-78512954D01*
X107665180Y-78893223D01*
X107664821Y-79304971D01*
X107740226Y-79487465D01*
X107414485Y-79622058D01*
X107123081Y-79912954D01*
X106965180Y-80293223D01*
X106964821Y-80704971D01*
X105935170Y-80704971D01*
X105935179Y-80695029D01*
X105777942Y-80314485D01*
X105487046Y-80023081D01*
X105106777Y-79865180D01*
X104695029Y-79864821D01*
X104314485Y-80022058D01*
X104023081Y-80312954D01*
X103865180Y-80693223D01*
X103864821Y-81104971D01*
X99078080Y-81104971D01*
X99385515Y-80977942D01*
X99676919Y-80687046D01*
X99834820Y-80306777D01*
X99835179Y-79895029D01*
X99713170Y-79599744D01*
X99834820Y-79306777D01*
X99835179Y-78895029D01*
X99677942Y-78514485D01*
X99387046Y-78223081D01*
X99006777Y-78065180D01*
X98595029Y-78064821D01*
X98214485Y-78222058D01*
X97923081Y-78512954D01*
X97765180Y-78893223D01*
X97764821Y-79304971D01*
X74305563Y-79304971D01*
X74231526Y-78932766D01*
X73906670Y-78446585D01*
X73420489Y-78121729D01*
X72847000Y-78007655D01*
X72273511Y-78121729D01*
X71787330Y-78446585D01*
X71577000Y-78761366D01*
X71366670Y-78446585D01*
X70880489Y-78121729D01*
X70307000Y-78007655D01*
X69733511Y-78121729D01*
X69669262Y-78164659D01*
X69734820Y-78006777D01*
X69735179Y-77595029D01*
X69656649Y-77404971D01*
X112564821Y-77404971D01*
X112722058Y-77785515D01*
X113012954Y-78076919D01*
X113393223Y-78234820D01*
X113804971Y-78235179D01*
X114185515Y-78077942D01*
X114476919Y-77787046D01*
X114552522Y-77604971D01*
X117864821Y-77604971D01*
X118022058Y-77985515D01*
X118312954Y-78276919D01*
X118693223Y-78434820D01*
X119104971Y-78435179D01*
X119485515Y-78277942D01*
X119776919Y-77987046D01*
X119934820Y-77606777D01*
X119934821Y-77604971D01*
X123764821Y-77604971D01*
X123922058Y-77985515D01*
X124212954Y-78276919D01*
X124593223Y-78434820D01*
X125004971Y-78435179D01*
X125385515Y-78277942D01*
X125676919Y-77987046D01*
X125834820Y-77606777D01*
X125834821Y-77604971D01*
X129364821Y-77604971D01*
X129522058Y-77985515D01*
X129812954Y-78276919D01*
X129987217Y-78349279D01*
X129723081Y-78612954D01*
X129565180Y-78993223D01*
X129564821Y-79404971D01*
X129722058Y-79785515D01*
X130012954Y-80076919D01*
X130393223Y-80234820D01*
X130804971Y-80235179D01*
X131185515Y-80077942D01*
X131476919Y-79787046D01*
X131634820Y-79406777D01*
X131635179Y-78995029D01*
X131477942Y-78614485D01*
X131368619Y-78504971D01*
X131964821Y-78504971D01*
X132122058Y-78885515D01*
X132412954Y-79176919D01*
X132793223Y-79334820D01*
X133204971Y-79335179D01*
X133585515Y-79177942D01*
X133780020Y-78983776D01*
X133822058Y-79085515D01*
X134112954Y-79376919D01*
X134493223Y-79534820D01*
X134904971Y-79535179D01*
X135285515Y-79377942D01*
X135576919Y-79087046D01*
X135734820Y-78706777D01*
X135735179Y-78295029D01*
X135577942Y-77914485D01*
X135287046Y-77623081D01*
X134906777Y-77465180D01*
X134495029Y-77464821D01*
X134114485Y-77622058D01*
X133919980Y-77816224D01*
X133877942Y-77714485D01*
X133587046Y-77423081D01*
X133206777Y-77265180D01*
X132795029Y-77264821D01*
X132414485Y-77422058D01*
X132123081Y-77712954D01*
X131965180Y-78093223D01*
X131964821Y-78504971D01*
X131368619Y-78504971D01*
X131187046Y-78323081D01*
X131012783Y-78250721D01*
X131276919Y-77987046D01*
X131434820Y-77606777D01*
X131435179Y-77195029D01*
X131277942Y-76814485D01*
X130987046Y-76523081D01*
X130606777Y-76365180D01*
X130195029Y-76364821D01*
X129814485Y-76522058D01*
X129523081Y-76812954D01*
X129365180Y-77193223D01*
X129364821Y-77604971D01*
X125834821Y-77604971D01*
X125835179Y-77195029D01*
X125677942Y-76814485D01*
X125387046Y-76523081D01*
X125006777Y-76365180D01*
X124595029Y-76364821D01*
X124214485Y-76522058D01*
X123923081Y-76812954D01*
X123765180Y-77193223D01*
X123764821Y-77604971D01*
X119934821Y-77604971D01*
X119935179Y-77195029D01*
X119777942Y-76814485D01*
X119487046Y-76523081D01*
X119106777Y-76365180D01*
X118695029Y-76364821D01*
X118314485Y-76522058D01*
X118023081Y-76812954D01*
X117865180Y-77193223D01*
X117864821Y-77604971D01*
X114552522Y-77604971D01*
X114634820Y-77406777D01*
X114635179Y-76995029D01*
X114477942Y-76614485D01*
X114187046Y-76323081D01*
X113806777Y-76165180D01*
X113395029Y-76164821D01*
X113014485Y-76322058D01*
X112723081Y-76612954D01*
X112565180Y-76993223D01*
X112564821Y-77404971D01*
X69656649Y-77404971D01*
X69577942Y-77214485D01*
X69287046Y-76923081D01*
X68906777Y-76765180D01*
X68495029Y-76764821D01*
X68127000Y-76916887D01*
X68127000Y-74104971D01*
X102564821Y-74104971D01*
X102722058Y-74485515D01*
X103012954Y-74776919D01*
X103393223Y-74934820D01*
X103804971Y-74935179D01*
X103887218Y-74901195D01*
X103922058Y-74985515D01*
X104212954Y-75276919D01*
X104593223Y-75434820D01*
X105004971Y-75435179D01*
X105385515Y-75277942D01*
X105676919Y-74987046D01*
X105741933Y-74830475D01*
X105993223Y-74934820D01*
X106404971Y-74935179D01*
X106785515Y-74777942D01*
X107064826Y-74499118D01*
X107064821Y-74504971D01*
X107222058Y-74885515D01*
X107512954Y-75176919D01*
X107893223Y-75334820D01*
X108304971Y-75335179D01*
X108685515Y-75177942D01*
X108976919Y-74887046D01*
X109134820Y-74506777D01*
X109134821Y-74504971D01*
X115414821Y-74504971D01*
X115572058Y-74885515D01*
X115862954Y-75176919D01*
X116243223Y-75334820D01*
X116654971Y-75335179D01*
X117035515Y-75177942D01*
X117326919Y-74887046D01*
X117484820Y-74506777D01*
X117485179Y-74095029D01*
X117327942Y-73714485D01*
X117037046Y-73423081D01*
X116656777Y-73265180D01*
X116245029Y-73264821D01*
X115864485Y-73422058D01*
X115573081Y-73712954D01*
X115415180Y-74093223D01*
X115414821Y-74504971D01*
X109134821Y-74504971D01*
X109135179Y-74095029D01*
X108977942Y-73714485D01*
X108687046Y-73423081D01*
X108306777Y-73265180D01*
X107895029Y-73264821D01*
X107514485Y-73422058D01*
X107235174Y-73700882D01*
X107235179Y-73695029D01*
X107077942Y-73314485D01*
X106787046Y-73023081D01*
X106406777Y-72865180D01*
X105995029Y-72864821D01*
X105614485Y-73022058D01*
X105323081Y-73312954D01*
X105258067Y-73469525D01*
X105006777Y-73365180D01*
X104595029Y-73364821D01*
X104512782Y-73398805D01*
X104477942Y-73314485D01*
X104187046Y-73023081D01*
X103806777Y-72865180D01*
X103395029Y-72864821D01*
X103014485Y-73022058D01*
X102723081Y-73312954D01*
X102565180Y-73693223D01*
X102564821Y-74104971D01*
X68127000Y-74104971D01*
X68127000Y-70333893D01*
X89358725Y-70333893D01*
X89599519Y-70916657D01*
X90044997Y-71362914D01*
X90627341Y-71604724D01*
X91257893Y-71605275D01*
X91840657Y-71364481D01*
X92214261Y-70991529D01*
X92584997Y-71362914D01*
X93167341Y-71604724D01*
X93797893Y-71605275D01*
X94380657Y-71364481D01*
X94754261Y-70991529D01*
X95124997Y-71362914D01*
X95707341Y-71604724D01*
X96337893Y-71605275D01*
X96920657Y-71364481D01*
X97294261Y-70991529D01*
X97664997Y-71362914D01*
X98247341Y-71604724D01*
X98877893Y-71605275D01*
X99460657Y-71364481D01*
X99834261Y-70991529D01*
X100204997Y-71362914D01*
X100787341Y-71604724D01*
X101417893Y-71605275D01*
X102000657Y-71364481D01*
X102374261Y-70991529D01*
X102744997Y-71362914D01*
X103327341Y-71604724D01*
X103957893Y-71605275D01*
X104540657Y-71364481D01*
X104914261Y-70991529D01*
X105284997Y-71362914D01*
X105867341Y-71604724D01*
X106497893Y-71605275D01*
X107080657Y-71364481D01*
X107454261Y-70991529D01*
X107824997Y-71362914D01*
X108407341Y-71604724D01*
X109037893Y-71605275D01*
X109620657Y-71364481D01*
X109994261Y-70991529D01*
X110364997Y-71362914D01*
X110947341Y-71604724D01*
X111577893Y-71605275D01*
X112160657Y-71364481D01*
X112534261Y-70991529D01*
X112904997Y-71362914D01*
X113487341Y-71604724D01*
X114117893Y-71605275D01*
X114700657Y-71364481D01*
X115074261Y-70991529D01*
X115444997Y-71362914D01*
X116027341Y-71604724D01*
X116657893Y-71605275D01*
X117240657Y-71364481D01*
X117614261Y-70991529D01*
X117984997Y-71362914D01*
X118567341Y-71604724D01*
X119197893Y-71605275D01*
X119780657Y-71364481D01*
X120154261Y-70991529D01*
X120524997Y-71362914D01*
X121107341Y-71604724D01*
X121737893Y-71605275D01*
X122320657Y-71364481D01*
X122694261Y-70991529D01*
X123064997Y-71362914D01*
X123424160Y-71512051D01*
X123323081Y-71612954D01*
X123165180Y-71993223D01*
X123164821Y-72404971D01*
X123230882Y-72564852D01*
X123195029Y-72564821D01*
X122814485Y-72722058D01*
X122523081Y-73012954D01*
X122365180Y-73393223D01*
X122364821Y-73804971D01*
X122522058Y-74185515D01*
X122812954Y-74476919D01*
X123193223Y-74634820D01*
X123604971Y-74635179D01*
X123683195Y-74602858D01*
X123673081Y-74612954D01*
X123515180Y-74993223D01*
X123514821Y-75404971D01*
X123672058Y-75785515D01*
X123962954Y-76076919D01*
X124343223Y-76234820D01*
X124754971Y-76235179D01*
X125135515Y-76077942D01*
X125426919Y-75787046D01*
X125584820Y-75406777D01*
X125585179Y-74995029D01*
X125547968Y-74904971D01*
X126564821Y-74904971D01*
X126722058Y-75285515D01*
X127012954Y-75576919D01*
X127393223Y-75734820D01*
X127804971Y-75735179D01*
X128185515Y-75577942D01*
X128199770Y-75563712D01*
X128212954Y-75576919D01*
X128593223Y-75734820D01*
X129004971Y-75735179D01*
X129385515Y-75577942D01*
X129676919Y-75287046D01*
X129834820Y-74906777D01*
X129835179Y-74495029D01*
X129677942Y-74114485D01*
X129387457Y-73823492D01*
X129715515Y-73687942D01*
X130006919Y-73397046D01*
X130164820Y-73016777D01*
X130165179Y-72605029D01*
X130007942Y-72224485D01*
X129717046Y-71933081D01*
X129336777Y-71775180D01*
X128925029Y-71774821D01*
X128544485Y-71932058D01*
X128253081Y-72222954D01*
X128095180Y-72603223D01*
X128094821Y-73014971D01*
X128252058Y-73395515D01*
X128542543Y-73686508D01*
X128214485Y-73822058D01*
X128200230Y-73836288D01*
X128187046Y-73823081D01*
X127806777Y-73665180D01*
X127395029Y-73664821D01*
X127014485Y-73822058D01*
X126723081Y-74112954D01*
X126565180Y-74493223D01*
X126564821Y-74904971D01*
X125547968Y-74904971D01*
X125427942Y-74614485D01*
X125137046Y-74323081D01*
X124756777Y-74165180D01*
X124345029Y-74164821D01*
X124266805Y-74197142D01*
X124276919Y-74187046D01*
X124434820Y-73806777D01*
X124435179Y-73395029D01*
X124369118Y-73235148D01*
X124404971Y-73235179D01*
X124785515Y-73077942D01*
X125076919Y-72787046D01*
X125234820Y-72406777D01*
X125235179Y-71995029D01*
X125077942Y-71614485D01*
X124837801Y-71373925D01*
X124860657Y-71364481D01*
X125306914Y-70919003D01*
X125548724Y-70336659D01*
X125549275Y-69706107D01*
X125308481Y-69123343D01*
X124863003Y-68677086D01*
X124280659Y-68435276D01*
X123650107Y-68434725D01*
X123067343Y-68675519D01*
X122693739Y-69048471D01*
X122323003Y-68677086D01*
X121740659Y-68435276D01*
X121528616Y-68435091D01*
X121676919Y-68287046D01*
X121794046Y-68004971D01*
X124964821Y-68004971D01*
X125122058Y-68385515D01*
X125412954Y-68676919D01*
X125793223Y-68834820D01*
X126204971Y-68835179D01*
X126278080Y-68804971D01*
X127064821Y-68804971D01*
X127222058Y-69185515D01*
X127512954Y-69476919D01*
X127893223Y-69634820D01*
X128304971Y-69635179D01*
X128468804Y-69567485D01*
X128323081Y-69712954D01*
X128165180Y-70093223D01*
X128164821Y-70504971D01*
X128322058Y-70885515D01*
X128612954Y-71176919D01*
X128993223Y-71334820D01*
X129404971Y-71335179D01*
X129785515Y-71177942D01*
X130076919Y-70887046D01*
X130234820Y-70506777D01*
X130235179Y-70095029D01*
X130077942Y-69714485D01*
X129787046Y-69423081D01*
X129406777Y-69265180D01*
X128995029Y-69264821D01*
X128831196Y-69332515D01*
X128976919Y-69187046D01*
X129134820Y-68806777D01*
X129135089Y-68498568D01*
X129412954Y-68776919D01*
X129793223Y-68934820D01*
X130204971Y-68935179D01*
X130585515Y-68777942D01*
X130876919Y-68487046D01*
X131034820Y-68106777D01*
X131035179Y-67695029D01*
X130877942Y-67314485D01*
X130587046Y-67023081D01*
X130543433Y-67004971D01*
X132464821Y-67004971D01*
X132622058Y-67385515D01*
X132912954Y-67676919D01*
X133293223Y-67834820D01*
X133704971Y-67835179D01*
X134085515Y-67677942D01*
X134376919Y-67387046D01*
X134534820Y-67006777D01*
X134535179Y-66595029D01*
X134377942Y-66214485D01*
X134087046Y-65923081D01*
X133706777Y-65765180D01*
X133295029Y-65764821D01*
X132914485Y-65922058D01*
X132623081Y-66212954D01*
X132465180Y-66593223D01*
X132464821Y-67004971D01*
X130543433Y-67004971D01*
X130206777Y-66865180D01*
X129795029Y-66864821D01*
X129414485Y-67022058D01*
X129123081Y-67312954D01*
X128965180Y-67693223D01*
X128964911Y-68001432D01*
X128687046Y-67723081D01*
X128306777Y-67565180D01*
X127895029Y-67564821D01*
X127514485Y-67722058D01*
X127223081Y-68012954D01*
X127065180Y-68393223D01*
X127064821Y-68804971D01*
X126278080Y-68804971D01*
X126585515Y-68677942D01*
X126876919Y-68387046D01*
X127034820Y-68006777D01*
X127035179Y-67595029D01*
X126877942Y-67214485D01*
X126587046Y-66923081D01*
X126206777Y-66765180D01*
X125795029Y-66764821D01*
X125414485Y-66922058D01*
X125123081Y-67212954D01*
X124965180Y-67593223D01*
X124964821Y-68004971D01*
X121794046Y-68004971D01*
X121834820Y-67906777D01*
X121835179Y-67495029D01*
X121677942Y-67114485D01*
X121387046Y-66823081D01*
X121006777Y-66665180D01*
X120595029Y-66664821D01*
X120214485Y-66822058D01*
X119923081Y-67112954D01*
X119765180Y-67493223D01*
X119764821Y-67904971D01*
X119922058Y-68285515D01*
X120212954Y-68576919D01*
X120504743Y-68698080D01*
X120153739Y-69048471D01*
X119783003Y-68677086D01*
X119220272Y-68443420D01*
X119376919Y-68287046D01*
X119534820Y-67906777D01*
X119535179Y-67495029D01*
X119377942Y-67114485D01*
X119087046Y-66823081D01*
X118706777Y-66665180D01*
X118295029Y-66664821D01*
X117914485Y-66822058D01*
X117623081Y-67112954D01*
X117465180Y-67493223D01*
X117464821Y-67904971D01*
X117622058Y-68285515D01*
X117912954Y-68576919D01*
X118069077Y-68641747D01*
X117987343Y-68675519D01*
X117613739Y-69048471D01*
X117243003Y-68677086D01*
X116774435Y-68482520D01*
X116785515Y-68477942D01*
X117076919Y-68187046D01*
X117234820Y-67806777D01*
X117235179Y-67395029D01*
X117077942Y-67014485D01*
X116787046Y-66723081D01*
X116406777Y-66565180D01*
X115995029Y-66564821D01*
X115614485Y-66722058D01*
X115607790Y-66728742D01*
X115477942Y-66414485D01*
X115187046Y-66123081D01*
X114806777Y-65965180D01*
X114395029Y-65964821D01*
X114014485Y-66122058D01*
X113723081Y-66412954D01*
X113565180Y-66793223D01*
X113564821Y-67204971D01*
X113722058Y-67585515D01*
X114012954Y-67876919D01*
X114393223Y-68034820D01*
X114804971Y-68035179D01*
X115185515Y-67877942D01*
X115192210Y-67871258D01*
X115322058Y-68185515D01*
X115612954Y-68476919D01*
X115770084Y-68542165D01*
X115447343Y-68675519D01*
X115073739Y-69048471D01*
X114703003Y-68677086D01*
X114120659Y-68435276D01*
X113490107Y-68434725D01*
X112907343Y-68675519D01*
X112533739Y-69048471D01*
X112163003Y-68677086D01*
X111580659Y-68435276D01*
X110950107Y-68434725D01*
X110367343Y-68675519D01*
X109993739Y-69048471D01*
X109623003Y-68677086D01*
X109040659Y-68435276D01*
X108410107Y-68434725D01*
X107827343Y-68675519D01*
X107453739Y-69048471D01*
X107083003Y-68677086D01*
X106500659Y-68435276D01*
X105870107Y-68434725D01*
X105287343Y-68675519D01*
X104913739Y-69048471D01*
X104543003Y-68677086D01*
X103960659Y-68435276D01*
X103330107Y-68434725D01*
X102747343Y-68675519D01*
X102373739Y-69048471D01*
X102003003Y-68677086D01*
X101420659Y-68435276D01*
X100790107Y-68434725D01*
X100207343Y-68675519D01*
X99833739Y-69048471D01*
X99463003Y-68677086D01*
X98880659Y-68435276D01*
X98250107Y-68434725D01*
X97667343Y-68675519D01*
X97293739Y-69048471D01*
X96923003Y-68677086D01*
X96340659Y-68435276D01*
X95710107Y-68434725D01*
X95127343Y-68675519D01*
X94753739Y-69048471D01*
X94383003Y-68677086D01*
X93800659Y-68435276D01*
X93170107Y-68434725D01*
X92587343Y-68675519D01*
X92213739Y-69048471D01*
X91843003Y-68677086D01*
X91260659Y-68435276D01*
X90630107Y-68434725D01*
X90047343Y-68675519D01*
X89601086Y-69120997D01*
X89359276Y-69703341D01*
X89358725Y-70333893D01*
X68127000Y-70333893D01*
X68127000Y-70127000D01*
X87000000Y-70127000D01*
X87049410Y-70116994D01*
X87091035Y-70088553D01*
X87118315Y-70046159D01*
X87127000Y-70000000D01*
X87127000Y-65127000D01*
X116000000Y-65127000D01*
X116049410Y-65116994D01*
X116091035Y-65088553D01*
X116118315Y-65046159D01*
X116127000Y-65000000D01*
X116127000Y-63704971D01*
X120364821Y-63704971D01*
X120522058Y-64085515D01*
X120812954Y-64376919D01*
X121193223Y-64534820D01*
X121604971Y-64535179D01*
X121985515Y-64377942D01*
X122276919Y-64087046D01*
X122434820Y-63706777D01*
X122435083Y-63404971D01*
X128064821Y-63404971D01*
X128222058Y-63785515D01*
X128512954Y-64076919D01*
X128893223Y-64234820D01*
X129304971Y-64235179D01*
X129685515Y-64077942D01*
X129976919Y-63787046D01*
X130134820Y-63406777D01*
X130135179Y-62995029D01*
X129977942Y-62614485D01*
X129687046Y-62323081D01*
X129306777Y-62165180D01*
X128895029Y-62164821D01*
X128514485Y-62322058D01*
X128223081Y-62612954D01*
X128065180Y-62993223D01*
X128064821Y-63404971D01*
X122435083Y-63404971D01*
X122435179Y-63295029D01*
X122277942Y-62914485D01*
X121987046Y-62623081D01*
X121606777Y-62465180D01*
X121195029Y-62464821D01*
X120814485Y-62622058D01*
X120523081Y-62912954D01*
X120365180Y-63293223D01*
X120364821Y-63704971D01*
X116127000Y-63704971D01*
X116127000Y-60814971D01*
X136254821Y-60814971D01*
X136412058Y-61195515D01*
X136702954Y-61486919D01*
X137083223Y-61644820D01*
X137494971Y-61645179D01*
X137875515Y-61487942D01*
X138166919Y-61197046D01*
X138324820Y-60816777D01*
X138325179Y-60405029D01*
X138167942Y-60024485D01*
X137877046Y-59733081D01*
X137496777Y-59575180D01*
X137085029Y-59574821D01*
X136704485Y-59732058D01*
X136413081Y-60022954D01*
X136255180Y-60403223D01*
X136254821Y-60814971D01*
X116127000Y-60814971D01*
X116127000Y-58354971D01*
X122964821Y-58354971D01*
X123122058Y-58735515D01*
X123412954Y-59026919D01*
X123793223Y-59184820D01*
X124204971Y-59185179D01*
X124585515Y-59027942D01*
X124876919Y-58737046D01*
X125034820Y-58356777D01*
X125035179Y-57945029D01*
X124877942Y-57564485D01*
X124587046Y-57273081D01*
X124206777Y-57115180D01*
X123795029Y-57114821D01*
X123414485Y-57272058D01*
X123123081Y-57562954D01*
X122965180Y-57943223D01*
X122964821Y-58354971D01*
X116127000Y-58354971D01*
X116127000Y-57435024D01*
X116304971Y-57435179D01*
X116685515Y-57277942D01*
X116900032Y-57063799D01*
X117012954Y-57176919D01*
X117393223Y-57334820D01*
X117804971Y-57335179D01*
X118185515Y-57177942D01*
X118476919Y-56887046D01*
X118634820Y-56506777D01*
X118634944Y-56364783D01*
X119064943Y-56365159D01*
X119064821Y-56504971D01*
X119222058Y-56885515D01*
X119512954Y-57176919D01*
X119893223Y-57334820D01*
X120304971Y-57335179D01*
X120685515Y-57177942D01*
X120976919Y-56887046D01*
X121134820Y-56506777D01*
X121134944Y-56364748D01*
X121664943Y-56365211D01*
X121664821Y-56504971D01*
X121822058Y-56885515D01*
X122112954Y-57176919D01*
X122493223Y-57334820D01*
X122904971Y-57335179D01*
X123285515Y-57177942D01*
X123576919Y-56887046D01*
X123734820Y-56506777D01*
X123734944Y-56364801D01*
X124277893Y-56365275D01*
X124860657Y-56124481D01*
X125306914Y-55679003D01*
X125548724Y-55096659D01*
X125549275Y-54466107D01*
X125308481Y-53883343D01*
X124863003Y-53437086D01*
X124280659Y-53195276D01*
X123650107Y-53194725D01*
X123067343Y-53435519D01*
X122693739Y-53808471D01*
X122323003Y-53437086D01*
X121740659Y-53195276D01*
X121110107Y-53194725D01*
X120527343Y-53435519D01*
X120153739Y-53808471D01*
X119783003Y-53437086D01*
X119200659Y-53195276D01*
X118570107Y-53194725D01*
X117987343Y-53435519D01*
X117613739Y-53808471D01*
X117243003Y-53437086D01*
X116660659Y-53195276D01*
X116127000Y-53194810D01*
X116127000Y-50200000D01*
X116116994Y-50150590D01*
X116088553Y-50108965D01*
X116046159Y-50081685D01*
X116000000Y-50073000D01*
X114000000Y-50073000D01*
X113950590Y-50083006D01*
X113908965Y-50111447D01*
X113881685Y-50153841D01*
X113873000Y-50200000D01*
X113873000Y-53195060D01*
X113490107Y-53194725D01*
X112907343Y-53435519D01*
X112533739Y-53808471D01*
X112163003Y-53437086D01*
X111580659Y-53195276D01*
X110950107Y-53194725D01*
X110367343Y-53435519D01*
X109993739Y-53808471D01*
X109623003Y-53437086D01*
X109040659Y-53195276D01*
X108410107Y-53194725D01*
X107827343Y-53435519D01*
X107453739Y-53808471D01*
X107083003Y-53437086D01*
X106500659Y-53195276D01*
X105870107Y-53194725D01*
X105491885Y-53351004D01*
X105634820Y-53006777D01*
X105635179Y-52595029D01*
X105477942Y-52214485D01*
X105187046Y-51923081D01*
X104806777Y-51765180D01*
X104395029Y-51764821D01*
X104014485Y-51922058D01*
X103723081Y-52212954D01*
X103565180Y-52593223D01*
X103564821Y-53004971D01*
X103643339Y-53194999D01*
X103330107Y-53194725D01*
X102747343Y-53435519D01*
X102373739Y-53808471D01*
X102003003Y-53437086D01*
X101420659Y-53195276D01*
X100790107Y-53194725D01*
X100207343Y-53435519D01*
X99833739Y-53808471D01*
X99463003Y-53437086D01*
X98880659Y-53195276D01*
X98250107Y-53194725D01*
X97667343Y-53435519D01*
X97293739Y-53808471D01*
X96923003Y-53437086D01*
X96340659Y-53195276D01*
X95710107Y-53194725D01*
X95127343Y-53435519D01*
X94753739Y-53808471D01*
X94383003Y-53437086D01*
X93800659Y-53195276D01*
X93170107Y-53194725D01*
X92587343Y-53435519D01*
X92213739Y-53808471D01*
X91843003Y-53437086D01*
X91260659Y-53195276D01*
X90630107Y-53194725D01*
X90047343Y-53435519D01*
X89601086Y-53880997D01*
X89359276Y-54463341D01*
X89358725Y-55093893D01*
X89599519Y-55676657D01*
X90044997Y-56122914D01*
X90627341Y-56364724D01*
X91257893Y-56365275D01*
X91840657Y-56124481D01*
X92214261Y-55751529D01*
X92584997Y-56122914D01*
X93167341Y-56364724D01*
X93797893Y-56365275D01*
X94380657Y-56124481D01*
X94754261Y-55751529D01*
X95124997Y-56122914D01*
X95707341Y-56364724D01*
X96337893Y-56365275D01*
X96920657Y-56124481D01*
X97294261Y-55751529D01*
X97592471Y-56050261D01*
X97221086Y-56420997D01*
X96979276Y-57003341D01*
X96978725Y-57633893D01*
X97219519Y-58216657D01*
X97664997Y-58662914D01*
X98247341Y-58904724D01*
X98877893Y-58905275D01*
X99460657Y-58664481D01*
X99834261Y-58291529D01*
X100204997Y-58662914D01*
X100787341Y-58904724D01*
X101417893Y-58905275D01*
X102000657Y-58664481D01*
X102374261Y-58291529D01*
X102744997Y-58662914D01*
X103327341Y-58904724D01*
X103957893Y-58905275D01*
X104540657Y-58664481D01*
X104986914Y-58219003D01*
X105228724Y-57636659D01*
X105229275Y-57006107D01*
X104988481Y-56423343D01*
X104615529Y-56049739D01*
X104914261Y-55751529D01*
X105284997Y-56122914D01*
X105867341Y-56364724D01*
X106497893Y-56365275D01*
X107080657Y-56124481D01*
X107454261Y-55751529D01*
X107824997Y-56122914D01*
X108407341Y-56364724D01*
X109037893Y-56365275D01*
X109620657Y-56124481D01*
X109994261Y-55751529D01*
X110364997Y-56122914D01*
X110947341Y-56364724D01*
X111577893Y-56365275D01*
X111965170Y-56205255D01*
X111964821Y-56604971D01*
X112122058Y-56985515D01*
X112412954Y-57276919D01*
X112793223Y-57434820D01*
X113204971Y-57435179D01*
X113585515Y-57277942D01*
X113850206Y-57013712D01*
X113873000Y-57036546D01*
X113873000Y-62873000D01*
X85000000Y-62873000D01*
X84950590Y-62883006D01*
X84908965Y-62911447D01*
X84881685Y-62953841D01*
X84873000Y-63000000D01*
X84873000Y-65873000D01*
X66127000Y-65873000D01*
X66127000Y-64504971D01*
X72464821Y-64504971D01*
X72622058Y-64885515D01*
X72912954Y-65176919D01*
X73293223Y-65334820D01*
X73704971Y-65335179D01*
X74085515Y-65177942D01*
X74376919Y-64887046D01*
X74534820Y-64506777D01*
X74535179Y-64095029D01*
X74377942Y-63714485D01*
X74087046Y-63423081D01*
X73706777Y-63265180D01*
X73295029Y-63264821D01*
X72914485Y-63422058D01*
X72623081Y-63712954D01*
X72465180Y-64093223D01*
X72464821Y-64504971D01*
X66127000Y-64504971D01*
X66127000Y-57150000D01*
X69605907Y-57150000D01*
X69718946Y-57718285D01*
X70040853Y-58200054D01*
X70370026Y-58420000D01*
X70040853Y-58639946D01*
X69718946Y-59121715D01*
X69605907Y-59690000D01*
X69718946Y-60258285D01*
X70040853Y-60740054D01*
X70522622Y-61061961D01*
X71090907Y-61175000D01*
X71149093Y-61175000D01*
X71717378Y-61061961D01*
X72199147Y-60740054D01*
X72521054Y-60258285D01*
X72634093Y-59690000D01*
X72521054Y-59121715D01*
X72199147Y-58639946D01*
X71869974Y-58420000D01*
X72199147Y-58200054D01*
X72521054Y-57718285D01*
X72587953Y-57381964D01*
X72672058Y-57585515D01*
X72962954Y-57876919D01*
X73343223Y-58034820D01*
X73754971Y-58035179D01*
X74135515Y-57877942D01*
X74242895Y-57770749D01*
X74326120Y-58189151D01*
X74637189Y-58654698D01*
X75019275Y-58910000D01*
X74637189Y-59165302D01*
X74326120Y-59630849D01*
X74216887Y-60180000D01*
X74326120Y-60729151D01*
X74637189Y-61194698D01*
X75019275Y-61450000D01*
X74637189Y-61705302D01*
X74326120Y-62170849D01*
X74216887Y-62720000D01*
X74326120Y-63269151D01*
X74637189Y-63734698D01*
X75102736Y-64045767D01*
X75651887Y-64155000D01*
X75708113Y-64155000D01*
X76257264Y-64045767D01*
X76722811Y-63734698D01*
X77033880Y-63269151D01*
X77143113Y-62720000D01*
X77033880Y-62170849D01*
X76722811Y-61705302D01*
X76340725Y-61450000D01*
X76722811Y-61194698D01*
X77033880Y-60729151D01*
X77143113Y-60180000D01*
X77033880Y-59630849D01*
X76722811Y-59165302D01*
X76340725Y-58910000D01*
X76722811Y-58654698D01*
X77033880Y-58189151D01*
X77143113Y-57640000D01*
X81836887Y-57640000D01*
X81946120Y-58189151D01*
X82257189Y-58654698D01*
X82639275Y-58910000D01*
X82257189Y-59165302D01*
X81946120Y-59630849D01*
X81836887Y-60180000D01*
X81946120Y-60729151D01*
X82257189Y-61194698D01*
X82639275Y-61450000D01*
X82257189Y-61705302D01*
X81946120Y-62170849D01*
X81836887Y-62720000D01*
X81946120Y-63269151D01*
X82257189Y-63734698D01*
X82722736Y-64045767D01*
X83271887Y-64155000D01*
X83328113Y-64155000D01*
X83877264Y-64045767D01*
X84342811Y-63734698D01*
X84653880Y-63269151D01*
X84763113Y-62720000D01*
X84653880Y-62170849D01*
X84342811Y-61705302D01*
X84192656Y-61604971D01*
X107664821Y-61604971D01*
X107822058Y-61985515D01*
X108112954Y-62276919D01*
X108493223Y-62434820D01*
X108904971Y-62435179D01*
X109285515Y-62277942D01*
X109576919Y-61987046D01*
X109734820Y-61606777D01*
X109735179Y-61195029D01*
X109577942Y-60814485D01*
X109287046Y-60523081D01*
X108906777Y-60365180D01*
X108495029Y-60364821D01*
X108114485Y-60522058D01*
X107823081Y-60812954D01*
X107665180Y-61193223D01*
X107664821Y-61604971D01*
X84192656Y-61604971D01*
X83960725Y-61450000D01*
X84342811Y-61194698D01*
X84653880Y-60729151D01*
X84763113Y-60180000D01*
X84653880Y-59630849D01*
X84342811Y-59165302D01*
X83960725Y-58910000D01*
X84342811Y-58654698D01*
X84653880Y-58189151D01*
X84763113Y-57640000D01*
X84653880Y-57090849D01*
X84342811Y-56625302D01*
X84198535Y-56528899D01*
X84335317Y-56503162D01*
X84551441Y-56364090D01*
X84696431Y-56151890D01*
X84747440Y-55900000D01*
X84747440Y-54834867D01*
X84862560Y-54834968D01*
X84862560Y-55460000D01*
X84906838Y-55695317D01*
X85045910Y-55911441D01*
X85258110Y-56056431D01*
X85325541Y-56070086D01*
X85280853Y-56099946D01*
X84958946Y-56581715D01*
X84845907Y-57150000D01*
X84958946Y-57718285D01*
X85280853Y-58200054D01*
X85762622Y-58521961D01*
X86330907Y-58635000D01*
X86389093Y-58635000D01*
X86957378Y-58521961D01*
X87439147Y-58200054D01*
X87761054Y-57718285D01*
X87874093Y-57150000D01*
X87761054Y-56581715D01*
X87439147Y-56099946D01*
X87397548Y-56072150D01*
X87445317Y-56063162D01*
X87661441Y-55924090D01*
X87806431Y-55711890D01*
X87857440Y-55460000D01*
X87857440Y-53760000D01*
X87813162Y-53524683D01*
X87674090Y-53308559D01*
X87461890Y-53163569D01*
X87210000Y-53112560D01*
X85676195Y-53112560D01*
X85487046Y-52923081D01*
X85106777Y-52765180D01*
X84695029Y-52764821D01*
X84314485Y-52922058D01*
X84023081Y-53212954D01*
X83865180Y-53593223D01*
X83865128Y-53652560D01*
X82500000Y-53652560D01*
X82264683Y-53696838D01*
X82048559Y-53835910D01*
X81903569Y-54048110D01*
X81852560Y-54300000D01*
X81852560Y-55900000D01*
X81896838Y-56135317D01*
X82035910Y-56351441D01*
X82248110Y-56496431D01*
X82403089Y-56527815D01*
X82257189Y-56625302D01*
X81946120Y-57090849D01*
X81836887Y-57640000D01*
X77143113Y-57640000D01*
X77033880Y-57090849D01*
X76722811Y-56625302D01*
X76318297Y-56355014D01*
X76535134Y-56252389D01*
X76911041Y-55837423D01*
X77071904Y-55449039D01*
X76949915Y-55227000D01*
X75807000Y-55227000D01*
X75807000Y-55247000D01*
X75553000Y-55247000D01*
X75553000Y-55227000D01*
X74410085Y-55227000D01*
X74288096Y-55449039D01*
X74448959Y-55837423D01*
X74824866Y-56252389D01*
X75041703Y-56355014D01*
X74637189Y-56625302D01*
X74561719Y-56738251D01*
X74427942Y-56414485D01*
X74137046Y-56123081D01*
X73756777Y-55965180D01*
X73345029Y-55964821D01*
X72964485Y-56122058D01*
X72673081Y-56412954D01*
X72547597Y-56715154D01*
X72521054Y-56581715D01*
X72199147Y-56099946D01*
X72155223Y-56070597D01*
X72329698Y-55998327D01*
X72508327Y-55819699D01*
X72605000Y-55586310D01*
X72605000Y-54895750D01*
X72460211Y-54750961D01*
X74288096Y-54750961D01*
X74410085Y-54973000D01*
X75553000Y-54973000D01*
X75553000Y-53829371D01*
X75807000Y-53829371D01*
X75807000Y-54973000D01*
X76949915Y-54973000D01*
X77071904Y-54750961D01*
X76911041Y-54362577D01*
X76535134Y-53947611D01*
X76029041Y-53708086D01*
X75807000Y-53829371D01*
X75553000Y-53829371D01*
X75330959Y-53708086D01*
X74824866Y-53947611D01*
X74448959Y-54362577D01*
X74288096Y-54750961D01*
X72460211Y-54750961D01*
X72446250Y-54737000D01*
X71247000Y-54737000D01*
X71247000Y-54757000D01*
X70993000Y-54757000D01*
X70993000Y-54737000D01*
X69793750Y-54737000D01*
X69635000Y-54895750D01*
X69635000Y-55586310D01*
X69731673Y-55819699D01*
X69910302Y-55998327D01*
X70084777Y-56070597D01*
X70040853Y-56099946D01*
X69718946Y-56581715D01*
X69605907Y-57150000D01*
X66127000Y-57150000D01*
X66127000Y-53633690D01*
X69635000Y-53633690D01*
X69635000Y-54324250D01*
X69793750Y-54483000D01*
X70993000Y-54483000D01*
X70993000Y-53283750D01*
X71247000Y-53283750D01*
X71247000Y-54483000D01*
X72446250Y-54483000D01*
X72605000Y-54324250D01*
X72605000Y-53633690D01*
X72508327Y-53400301D01*
X72329698Y-53221673D01*
X72096309Y-53125000D01*
X71405750Y-53125000D01*
X71247000Y-53283750D01*
X70993000Y-53283750D01*
X70834250Y-53125000D01*
X70143691Y-53125000D01*
X69910302Y-53221673D01*
X69731673Y-53400301D01*
X69635000Y-53633690D01*
X66127000Y-53633690D01*
X66127000Y-51304971D01*
X101564821Y-51304971D01*
X101722058Y-51685515D01*
X102012954Y-51976919D01*
X102393223Y-52134820D01*
X102804971Y-52135179D01*
X103185515Y-51977942D01*
X103476919Y-51687046D01*
X103510999Y-51604971D01*
X108564821Y-51604971D01*
X108722058Y-51985515D01*
X109012954Y-52276919D01*
X109393223Y-52434820D01*
X109804971Y-52435179D01*
X110185515Y-52277942D01*
X110249857Y-52213712D01*
X110312954Y-52276919D01*
X110693223Y-52434820D01*
X111104971Y-52435179D01*
X111485515Y-52277942D01*
X111776919Y-51987046D01*
X111934820Y-51606777D01*
X111935179Y-51195029D01*
X111777942Y-50814485D01*
X111487046Y-50523081D01*
X111106777Y-50365180D01*
X110695029Y-50364821D01*
X110314485Y-50522058D01*
X110250143Y-50586288D01*
X110187046Y-50523081D01*
X109806777Y-50365180D01*
X109395029Y-50364821D01*
X109014485Y-50522058D01*
X108723081Y-50812954D01*
X108565180Y-51193223D01*
X108564821Y-51604971D01*
X103510999Y-51604971D01*
X103634820Y-51306777D01*
X103635179Y-50895029D01*
X103477942Y-50514485D01*
X103187046Y-50223081D01*
X102806777Y-50065180D01*
X102395029Y-50064821D01*
X102014485Y-50222058D01*
X101723081Y-50512954D01*
X101565180Y-50893223D01*
X101564821Y-51304971D01*
X66127000Y-51304971D01*
X66127000Y-47627000D01*
X111144544Y-47627000D01*
X110914485Y-47722058D01*
X110623081Y-48012954D01*
X110465180Y-48393223D01*
X110464821Y-48804971D01*
X110622058Y-49185515D01*
X110912954Y-49476919D01*
X111293223Y-49634820D01*
X111704971Y-49635179D01*
X112085515Y-49477942D01*
X112376919Y-49187046D01*
X112427226Y-49065892D01*
X112593223Y-49134820D01*
X113004971Y-49135179D01*
X113385515Y-48977942D01*
X113676919Y-48687046D01*
X113810655Y-48364971D01*
X121614821Y-48364971D01*
X121772058Y-48745515D01*
X122062954Y-49036919D01*
X122443223Y-49194820D01*
X122854971Y-49195179D01*
X123235515Y-49037942D01*
X123526919Y-48747046D01*
X123684820Y-48366777D01*
X123685179Y-47955029D01*
X123527942Y-47574485D01*
X123237046Y-47283081D01*
X122856777Y-47125180D01*
X122445029Y-47124821D01*
X122064485Y-47282058D01*
X121773081Y-47572954D01*
X121615180Y-47953223D01*
X121614821Y-48364971D01*
X113810655Y-48364971D01*
X113834820Y-48306777D01*
X113835179Y-47895029D01*
X113724432Y-47627000D01*
X113973000Y-47627000D01*
X113973000Y-47700000D01*
X113983006Y-47749410D01*
X114011447Y-47791035D01*
X114053841Y-47818315D01*
X114100000Y-47827000D01*
X116000000Y-47827000D01*
X116049410Y-47816994D01*
X116091035Y-47788553D01*
X116118315Y-47746159D01*
X116127000Y-47700000D01*
X116127000Y-47104971D01*
X126564821Y-47104971D01*
X126722058Y-47485515D01*
X127012954Y-47776919D01*
X127393223Y-47934820D01*
X127804971Y-47935179D01*
X128185515Y-47777942D01*
X128476919Y-47487046D01*
X128634820Y-47106777D01*
X128635179Y-46695029D01*
X128477942Y-46314485D01*
X128187046Y-46023081D01*
X127806777Y-45865180D01*
X127395029Y-45864821D01*
X127014485Y-46022058D01*
X126723081Y-46312954D01*
X126565180Y-46693223D01*
X126564821Y-47104971D01*
X116127000Y-47104971D01*
X116127000Y-44804971D01*
X130764821Y-44804971D01*
X130922058Y-45185515D01*
X131212954Y-45476919D01*
X131593223Y-45634820D01*
X131964969Y-45635144D01*
X131964821Y-45804971D01*
X132122058Y-46185515D01*
X132412954Y-46476919D01*
X132793223Y-46634820D01*
X133204971Y-46635179D01*
X133585515Y-46477942D01*
X133876919Y-46187046D01*
X134034820Y-45806777D01*
X134035179Y-45395029D01*
X133913170Y-45099744D01*
X134034820Y-44806777D01*
X134035179Y-44395029D01*
X133877942Y-44014485D01*
X133587046Y-43723081D01*
X133206777Y-43565180D01*
X132795029Y-43564821D01*
X132414485Y-43722058D01*
X132400230Y-43736288D01*
X132387046Y-43723081D01*
X132006777Y-43565180D01*
X131595029Y-43564821D01*
X131214485Y-43722058D01*
X130923081Y-44012954D01*
X130765180Y-44393223D01*
X130764821Y-44804971D01*
X116127000Y-44804971D01*
X116127000Y-43685000D01*
X124000000Y-43685000D01*
X124262138Y-43632857D01*
X124484368Y-43484368D01*
X124632857Y-43262138D01*
X124659738Y-43127000D01*
X144373000Y-43127000D01*
X144373000Y-48873000D01*
X144373000Y-48873000D01*
G37*
X144373000Y-48873000D02*
X136765798Y-48873000D01*
X136797353Y-48797008D01*
X137085515Y-48677942D01*
X137376919Y-48387046D01*
X137534820Y-48006777D01*
X137535179Y-47595029D01*
X137377942Y-47214485D01*
X137087046Y-46923081D01*
X136706777Y-46765180D01*
X136295029Y-46764821D01*
X135914485Y-46922058D01*
X135623081Y-47212954D01*
X135502647Y-47502992D01*
X135214485Y-47622058D01*
X134923081Y-47912954D01*
X134765180Y-48293223D01*
X134765107Y-48377185D01*
X134414485Y-48522058D01*
X134123081Y-48812954D01*
X134098148Y-48873000D01*
X131830885Y-48873000D01*
X131876919Y-48827046D01*
X132034820Y-48446777D01*
X132035179Y-48035029D01*
X131877942Y-47654485D01*
X131587046Y-47363081D01*
X131206777Y-47205180D01*
X130795029Y-47204821D01*
X130414485Y-47362058D01*
X130123081Y-47652954D01*
X129965180Y-48033223D01*
X129964821Y-48444971D01*
X130122058Y-48825515D01*
X130169460Y-48873000D01*
X127000000Y-48873000D01*
X126950590Y-48883006D01*
X126908965Y-48911447D01*
X126881685Y-48953841D01*
X126873000Y-49000000D01*
X126873000Y-55000000D01*
X126883006Y-55049410D01*
X126911447Y-55091035D01*
X126953841Y-55118315D01*
X127000000Y-55127000D01*
X139873000Y-55127000D01*
X139873000Y-55763296D01*
X139723081Y-55912954D01*
X139565180Y-56293223D01*
X139564821Y-56704971D01*
X139722058Y-57085515D01*
X139873000Y-57236721D01*
X139873000Y-61865063D01*
X139595029Y-61864821D01*
X139214485Y-62022058D01*
X138923081Y-62312954D01*
X138765180Y-62693223D01*
X138764821Y-63104971D01*
X138922058Y-63485515D01*
X139212954Y-63776919D01*
X139593223Y-63934820D01*
X139873000Y-63935064D01*
X139873000Y-69417249D01*
X139506777Y-69265180D01*
X139095029Y-69264821D01*
X138714485Y-69422058D01*
X138423081Y-69712954D01*
X138322651Y-69954818D01*
X138106777Y-69865180D01*
X137695029Y-69864821D01*
X137314485Y-70022058D01*
X137023081Y-70312954D01*
X136865180Y-70693223D01*
X136864821Y-71104971D01*
X137022058Y-71485515D01*
X137312954Y-71776919D01*
X137693223Y-71934820D01*
X138104971Y-71935179D01*
X138485515Y-71777942D01*
X138776919Y-71487046D01*
X138877349Y-71245182D01*
X139093223Y-71334820D01*
X139504971Y-71335179D01*
X139873000Y-71183113D01*
X139873000Y-82134288D01*
X139728046Y-81989081D01*
X139347777Y-81831180D01*
X138936029Y-81830821D01*
X138555485Y-81988058D01*
X138264081Y-82278954D01*
X138106180Y-82659223D01*
X138105821Y-83070971D01*
X138263058Y-83451515D01*
X138553954Y-83742919D01*
X138934223Y-83900820D01*
X139345971Y-83901179D01*
X139726515Y-83743942D01*
X139873000Y-83597712D01*
X139873000Y-85873000D01*
X127000000Y-85873000D01*
X126950590Y-85883006D01*
X126908965Y-85911447D01*
X126881685Y-85953841D01*
X126873000Y-86000000D01*
X126873000Y-97594331D01*
X126380857Y-97692225D01*
X125899208Y-98014052D01*
X125679000Y-98343617D01*
X125458792Y-98014052D01*
X124977143Y-97692225D01*
X124409000Y-97579214D01*
X123840857Y-97692225D01*
X123359208Y-98014052D01*
X123139000Y-98343617D01*
X122918792Y-98014052D01*
X122437143Y-97692225D01*
X121869000Y-97579214D01*
X121300857Y-97692225D01*
X120819208Y-98014052D01*
X120497381Y-98495701D01*
X120384370Y-99063844D01*
X120384370Y-99873000D01*
X72512001Y-99873000D01*
X72584299Y-99858619D01*
X73065948Y-99536792D01*
X73387775Y-99055143D01*
X73500786Y-98487000D01*
X73459204Y-98277951D01*
X81463821Y-98277951D01*
X81621058Y-98658495D01*
X81911954Y-98949899D01*
X82292223Y-99107800D01*
X82703971Y-99108159D01*
X83084515Y-98950922D01*
X83375919Y-98660026D01*
X83533820Y-98279757D01*
X83534179Y-97868009D01*
X83376942Y-97487465D01*
X83086046Y-97196061D01*
X82705777Y-97038160D01*
X82294029Y-97037801D01*
X81913485Y-97195038D01*
X81622081Y-97485934D01*
X81464180Y-97866203D01*
X81463821Y-98277951D01*
X73459204Y-98277951D01*
X73387775Y-97918857D01*
X73065948Y-97437208D01*
X72736383Y-97217000D01*
X73065948Y-96996792D01*
X73387775Y-96515143D01*
X73500786Y-95947000D01*
X73422807Y-95554971D01*
X98664821Y-95554971D01*
X98822058Y-95935515D01*
X99112954Y-96226919D01*
X99493223Y-96384820D01*
X99904971Y-96385179D01*
X100285515Y-96227942D01*
X100312335Y-96201168D01*
X100387954Y-96276919D01*
X100768223Y-96434820D01*
X101179971Y-96435179D01*
X101560515Y-96277942D01*
X101612335Y-96226212D01*
X101662954Y-96276919D01*
X102043223Y-96434820D01*
X102454971Y-96435179D01*
X102835515Y-96277942D01*
X103126919Y-95987046D01*
X103284820Y-95606777D01*
X103285179Y-95195029D01*
X103127942Y-94814485D01*
X102837046Y-94523081D01*
X102456777Y-94365180D01*
X102045029Y-94364821D01*
X101664485Y-94522058D01*
X101612665Y-94573788D01*
X101562046Y-94523081D01*
X101181777Y-94365180D01*
X100770029Y-94364821D01*
X100389485Y-94522058D01*
X100362665Y-94548832D01*
X100287046Y-94473081D01*
X99906777Y-94315180D01*
X99495029Y-94314821D01*
X99114485Y-94472058D01*
X98823081Y-94762954D01*
X98665180Y-95143223D01*
X98664821Y-95554971D01*
X73422807Y-95554971D01*
X73387775Y-95378857D01*
X73065948Y-94897208D01*
X72736383Y-94677000D01*
X73065948Y-94456792D01*
X73387775Y-93975143D01*
X73421624Y-93804971D01*
X104264821Y-93804971D01*
X104422058Y-94185515D01*
X104712954Y-94476919D01*
X105093223Y-94634820D01*
X105504971Y-94635179D01*
X105885515Y-94477942D01*
X106176919Y-94187046D01*
X106334820Y-93806777D01*
X106335100Y-93484971D01*
X123119821Y-93484971D01*
X123277058Y-93865515D01*
X123567954Y-94156919D01*
X123948223Y-94314820D01*
X124359971Y-94315179D01*
X124740515Y-94157942D01*
X125031919Y-93867046D01*
X125189820Y-93486777D01*
X125190179Y-93075029D01*
X125032942Y-92694485D01*
X124742046Y-92403081D01*
X124361777Y-92245180D01*
X123950029Y-92244821D01*
X123569485Y-92402058D01*
X123278081Y-92692954D01*
X123120180Y-93073223D01*
X123119821Y-93484971D01*
X106335100Y-93484971D01*
X106335179Y-93395029D01*
X106177942Y-93014485D01*
X105887046Y-92723081D01*
X105506777Y-92565180D01*
X105095029Y-92564821D01*
X104714485Y-92722058D01*
X104423081Y-93012954D01*
X104265180Y-93393223D01*
X104264821Y-93804971D01*
X73421624Y-93804971D01*
X73500786Y-93407000D01*
X73387775Y-92838857D01*
X73164680Y-92504971D01*
X101064821Y-92504971D01*
X101222058Y-92885515D01*
X101512954Y-93176919D01*
X101893223Y-93334820D01*
X102304971Y-93335179D01*
X102685515Y-93177942D01*
X102976919Y-92887046D01*
X103134820Y-92506777D01*
X103135179Y-92095029D01*
X102977942Y-91714485D01*
X102687046Y-91423081D01*
X102306777Y-91265180D01*
X101895029Y-91264821D01*
X101514485Y-91422058D01*
X101223081Y-91712954D01*
X101065180Y-92093223D01*
X101064821Y-92504971D01*
X73164680Y-92504971D01*
X73065948Y-92357208D01*
X72584299Y-92035381D01*
X72016156Y-91922370D01*
X70121844Y-91922370D01*
X69553701Y-92035381D01*
X69072052Y-92357208D01*
X68750225Y-92838857D01*
X68637214Y-93407000D01*
X68750225Y-93975143D01*
X69072052Y-94456792D01*
X69401617Y-94677000D01*
X69072052Y-94897208D01*
X68750225Y-95378857D01*
X68637214Y-95947000D01*
X68750225Y-96515143D01*
X69072052Y-96996792D01*
X69401617Y-97217000D01*
X69072052Y-97437208D01*
X68750225Y-97918857D01*
X68637214Y-98487000D01*
X68750225Y-99055143D01*
X69072052Y-99536792D01*
X69114287Y-99565012D01*
X68895029Y-99564821D01*
X68514485Y-99722058D01*
X68363279Y-99873000D01*
X68127000Y-99873000D01*
X68127000Y-89928971D01*
X70795821Y-89928971D01*
X70953058Y-90309515D01*
X71243954Y-90600919D01*
X71624223Y-90758820D01*
X72035971Y-90759179D01*
X72416515Y-90601942D01*
X72707919Y-90311046D01*
X72865820Y-89930777D01*
X72866179Y-89519029D01*
X72708942Y-89138485D01*
X72418046Y-88847081D01*
X72037777Y-88689180D01*
X71626029Y-88688821D01*
X71245485Y-88846058D01*
X70954081Y-89136954D01*
X70796180Y-89517223D01*
X70795821Y-89928971D01*
X68127000Y-89928971D01*
X68127000Y-86887495D01*
X68427946Y-86587073D01*
X68677306Y-85986547D01*
X68677308Y-85983694D01*
X70409586Y-85983694D01*
X70657898Y-86584655D01*
X71117287Y-87044846D01*
X71717813Y-87294206D01*
X72368054Y-87294774D01*
X72969015Y-87046462D01*
X73429206Y-86587073D01*
X73678566Y-85986547D01*
X73679134Y-85336306D01*
X73430822Y-84735345D01*
X72971433Y-84275154D01*
X72370907Y-84025794D01*
X71720666Y-84025226D01*
X71119705Y-84273538D01*
X70659514Y-84732927D01*
X70410154Y-85333453D01*
X70409586Y-85983694D01*
X68677308Y-85983694D01*
X68677874Y-85336306D01*
X68429562Y-84735345D01*
X68127000Y-84432255D01*
X68127000Y-82104000D01*
X73971214Y-82104000D01*
X74084225Y-82672143D01*
X74406052Y-83153792D01*
X74735617Y-83374000D01*
X74406052Y-83594208D01*
X74084225Y-84075857D01*
X73971214Y-84644000D01*
X74084225Y-85212143D01*
X74406052Y-85693792D01*
X74735617Y-85914000D01*
X74406052Y-86134208D01*
X74084225Y-86615857D01*
X73971214Y-87184000D01*
X74084225Y-87752143D01*
X74406052Y-88233792D01*
X74887701Y-88555619D01*
X75455844Y-88668630D01*
X76166136Y-88668630D01*
X76130180Y-88755223D01*
X76129821Y-89166971D01*
X76287058Y-89547515D01*
X76577954Y-89838919D01*
X76958223Y-89996820D01*
X77369971Y-89997179D01*
X77750515Y-89839942D01*
X77788552Y-89801971D01*
X81463821Y-89801971D01*
X81621058Y-90182515D01*
X81911954Y-90473919D01*
X82292223Y-90631820D01*
X82703971Y-90632179D01*
X83084515Y-90474942D01*
X83375919Y-90184046D01*
X83533820Y-89803777D01*
X83533821Y-89801971D01*
X85527821Y-89801971D01*
X85685058Y-90182515D01*
X85975954Y-90473919D01*
X86356223Y-90631820D01*
X86767971Y-90632179D01*
X87148515Y-90474942D01*
X87439919Y-90184046D01*
X87597820Y-89803777D01*
X87598179Y-89392029D01*
X87520889Y-89204971D01*
X111464821Y-89204971D01*
X111622058Y-89585515D01*
X111912954Y-89876919D01*
X112293223Y-90034820D01*
X112704971Y-90035179D01*
X113085515Y-89877942D01*
X113376919Y-89587046D01*
X113534820Y-89206777D01*
X113535170Y-88804971D01*
X119764821Y-88804971D01*
X119922058Y-89185515D01*
X120212954Y-89476919D01*
X120580096Y-89629369D01*
X120579821Y-89944971D01*
X120737058Y-90325515D01*
X121027954Y-90616919D01*
X121408223Y-90774820D01*
X121819971Y-90775179D01*
X122200515Y-90617942D01*
X122491919Y-90327046D01*
X122649820Y-89946777D01*
X122650179Y-89535029D01*
X122492942Y-89154485D01*
X122202046Y-88863081D01*
X121834904Y-88710631D01*
X121835179Y-88395029D01*
X121677942Y-88014485D01*
X121387046Y-87723081D01*
X121006777Y-87565180D01*
X120595029Y-87564821D01*
X120214485Y-87722058D01*
X119923081Y-88012954D01*
X119765180Y-88393223D01*
X119764821Y-88804971D01*
X113535170Y-88804971D01*
X113535179Y-88795029D01*
X113377942Y-88414485D01*
X113087046Y-88123081D01*
X112706777Y-87965180D01*
X112295029Y-87964821D01*
X111914485Y-88122058D01*
X111623081Y-88412954D01*
X111465180Y-88793223D01*
X111464821Y-89204971D01*
X87520889Y-89204971D01*
X87440942Y-89011485D01*
X87150046Y-88720081D01*
X86769777Y-88562180D01*
X86358029Y-88561821D01*
X85977485Y-88719058D01*
X85686081Y-89009954D01*
X85528180Y-89390223D01*
X85527821Y-89801971D01*
X83533821Y-89801971D01*
X83534179Y-89392029D01*
X83376942Y-89011485D01*
X83086046Y-88720081D01*
X82705777Y-88562180D01*
X82294029Y-88561821D01*
X81913485Y-88719058D01*
X81622081Y-89009954D01*
X81464180Y-89390223D01*
X81463821Y-89801971D01*
X77788552Y-89801971D01*
X78041919Y-89549046D01*
X78199820Y-89168777D01*
X78200179Y-88757029D01*
X78073978Y-88451598D01*
X78399948Y-88233792D01*
X78721775Y-87752143D01*
X78834786Y-87184000D01*
X78721775Y-86615857D01*
X78399948Y-86134208D01*
X78070383Y-85914000D01*
X78399948Y-85693792D01*
X78721775Y-85212143D01*
X78834786Y-84644000D01*
X78721775Y-84075857D01*
X78440549Y-83654971D01*
X107964821Y-83654971D01*
X108122058Y-84035515D01*
X108412954Y-84326919D01*
X108793223Y-84484820D01*
X109204971Y-84485179D01*
X109585515Y-84327942D01*
X109876919Y-84037046D01*
X109908923Y-83959971D01*
X114229821Y-83959971D01*
X114387058Y-84340515D01*
X114499788Y-84453442D01*
X114388081Y-84564954D01*
X114230180Y-84945223D01*
X114229821Y-85356971D01*
X114387058Y-85737515D01*
X114677954Y-86028919D01*
X115058223Y-86186820D01*
X115469971Y-86187179D01*
X115850515Y-86029942D01*
X115963442Y-85917212D01*
X116074954Y-86028919D01*
X116455223Y-86186820D01*
X116866971Y-86187179D01*
X117247515Y-86029942D01*
X117424053Y-85853712D01*
X117598954Y-86028919D01*
X117979223Y-86186820D01*
X118390971Y-86187179D01*
X118771515Y-86029942D01*
X119062919Y-85739046D01*
X119220820Y-85358777D01*
X119221179Y-84947029D01*
X119063942Y-84566485D01*
X118951212Y-84453558D01*
X119062919Y-84342046D01*
X119220820Y-83961777D01*
X119221179Y-83550029D01*
X119189779Y-83474034D01*
X119276919Y-83387046D01*
X119434820Y-83006777D01*
X119435179Y-82595029D01*
X119277942Y-82214485D01*
X119013101Y-81949182D01*
X119185515Y-81877942D01*
X119476919Y-81587046D01*
X119634820Y-81206777D01*
X119635179Y-80795029D01*
X119477942Y-80414485D01*
X119457200Y-80393707D01*
X119534820Y-80206777D01*
X119535179Y-79795029D01*
X119377942Y-79414485D01*
X119087046Y-79123081D01*
X118706777Y-78965180D01*
X118295029Y-78964821D01*
X117914485Y-79122058D01*
X117623081Y-79412954D01*
X117465180Y-79793223D01*
X117464821Y-80204971D01*
X117622058Y-80585515D01*
X117642800Y-80606293D01*
X117565180Y-80793223D01*
X117564821Y-81204971D01*
X117722058Y-81585515D01*
X117986899Y-81850818D01*
X117814485Y-81922058D01*
X117523081Y-82212954D01*
X117365180Y-82593223D01*
X117364831Y-82994068D01*
X117249046Y-82878081D01*
X116868777Y-82720180D01*
X116457029Y-82719821D01*
X116076485Y-82877058D01*
X115963558Y-82989788D01*
X115852046Y-82878081D01*
X115471777Y-82720180D01*
X115060029Y-82719821D01*
X114679485Y-82877058D01*
X114388081Y-83167954D01*
X114230180Y-83548223D01*
X114229821Y-83959971D01*
X109908923Y-83959971D01*
X110034820Y-83656777D01*
X110035179Y-83245029D01*
X109877942Y-82864485D01*
X109587046Y-82573081D01*
X109206777Y-82415180D01*
X108795029Y-82414821D01*
X108414485Y-82572058D01*
X108123081Y-82862954D01*
X107965180Y-83243223D01*
X107964821Y-83654971D01*
X78440549Y-83654971D01*
X78399948Y-83594208D01*
X78070383Y-83374000D01*
X78399948Y-83153792D01*
X78721775Y-82672143D01*
X78834786Y-82104000D01*
X78721775Y-81535857D01*
X78399948Y-81054208D01*
X77918299Y-80732381D01*
X77350156Y-80619370D01*
X75455844Y-80619370D01*
X74887701Y-80732381D01*
X74406052Y-81054208D01*
X74084225Y-81535857D01*
X73971214Y-82104000D01*
X68127000Y-82104000D01*
X68127000Y-81354440D01*
X68630600Y-81354440D01*
X68865917Y-81310162D01*
X69082041Y-81171090D01*
X69227031Y-80958890D01*
X69235400Y-80917561D01*
X69247330Y-80935415D01*
X69733511Y-81260271D01*
X70307000Y-81374345D01*
X70880489Y-81260271D01*
X71366670Y-80935415D01*
X71577000Y-80620634D01*
X71787330Y-80935415D01*
X72273511Y-81260271D01*
X72847000Y-81374345D01*
X73420489Y-81260271D01*
X73906670Y-80935415D01*
X74231526Y-80449234D01*
X74345600Y-79875745D01*
X74345600Y-79506255D01*
X74305563Y-79304971D01*
X97764821Y-79304971D01*
X97886830Y-79600256D01*
X97765180Y-79893223D01*
X97764821Y-80304971D01*
X97922058Y-80685515D01*
X98212954Y-80976919D01*
X98593223Y-81134820D01*
X99004971Y-81135179D01*
X99078080Y-81104971D01*
X103864821Y-81104971D01*
X104022058Y-81485515D01*
X104312954Y-81776919D01*
X104693223Y-81934820D01*
X105104971Y-81935179D01*
X105485515Y-81777942D01*
X105776919Y-81487046D01*
X105934820Y-81106777D01*
X105935170Y-80704971D01*
X106964821Y-80704971D01*
X107122058Y-81085515D01*
X107412954Y-81376919D01*
X107793223Y-81534820D01*
X108204971Y-81535179D01*
X108585515Y-81377942D01*
X108876919Y-81087046D01*
X109034820Y-80706777D01*
X109035179Y-80295029D01*
X108959774Y-80112535D01*
X109220099Y-80004971D01*
X110164821Y-80004971D01*
X110322058Y-80385515D01*
X110612954Y-80676919D01*
X110993223Y-80834820D01*
X111404971Y-80835179D01*
X111785515Y-80677942D01*
X112076919Y-80387046D01*
X112234820Y-80006777D01*
X112235179Y-79595029D01*
X112077942Y-79214485D01*
X111787046Y-78923081D01*
X111406777Y-78765180D01*
X110995029Y-78764821D01*
X110614485Y-78922058D01*
X110323081Y-79212954D01*
X110165180Y-79593223D01*
X110164821Y-80004971D01*
X109220099Y-80004971D01*
X109285515Y-79977942D01*
X109576919Y-79687046D01*
X109734820Y-79306777D01*
X109735179Y-78895029D01*
X109577942Y-78514485D01*
X109287046Y-78223081D01*
X108906777Y-78065180D01*
X108495029Y-78064821D01*
X108114485Y-78222058D01*
X107823081Y-78512954D01*
X107665180Y-78893223D01*
X107664821Y-79304971D01*
X107740226Y-79487465D01*
X107414485Y-79622058D01*
X107123081Y-79912954D01*
X106965180Y-80293223D01*
X106964821Y-80704971D01*
X105935170Y-80704971D01*
X105935179Y-80695029D01*
X105777942Y-80314485D01*
X105487046Y-80023081D01*
X105106777Y-79865180D01*
X104695029Y-79864821D01*
X104314485Y-80022058D01*
X104023081Y-80312954D01*
X103865180Y-80693223D01*
X103864821Y-81104971D01*
X99078080Y-81104971D01*
X99385515Y-80977942D01*
X99676919Y-80687046D01*
X99834820Y-80306777D01*
X99835179Y-79895029D01*
X99713170Y-79599744D01*
X99834820Y-79306777D01*
X99835179Y-78895029D01*
X99677942Y-78514485D01*
X99387046Y-78223081D01*
X99006777Y-78065180D01*
X98595029Y-78064821D01*
X98214485Y-78222058D01*
X97923081Y-78512954D01*
X97765180Y-78893223D01*
X97764821Y-79304971D01*
X74305563Y-79304971D01*
X74231526Y-78932766D01*
X73906670Y-78446585D01*
X73420489Y-78121729D01*
X72847000Y-78007655D01*
X72273511Y-78121729D01*
X71787330Y-78446585D01*
X71577000Y-78761366D01*
X71366670Y-78446585D01*
X70880489Y-78121729D01*
X70307000Y-78007655D01*
X69733511Y-78121729D01*
X69669262Y-78164659D01*
X69734820Y-78006777D01*
X69735179Y-77595029D01*
X69656649Y-77404971D01*
X112564821Y-77404971D01*
X112722058Y-77785515D01*
X113012954Y-78076919D01*
X113393223Y-78234820D01*
X113804971Y-78235179D01*
X114185515Y-78077942D01*
X114476919Y-77787046D01*
X114552522Y-77604971D01*
X117864821Y-77604971D01*
X118022058Y-77985515D01*
X118312954Y-78276919D01*
X118693223Y-78434820D01*
X119104971Y-78435179D01*
X119485515Y-78277942D01*
X119776919Y-77987046D01*
X119934820Y-77606777D01*
X119934821Y-77604971D01*
X123764821Y-77604971D01*
X123922058Y-77985515D01*
X124212954Y-78276919D01*
X124593223Y-78434820D01*
X125004971Y-78435179D01*
X125385515Y-78277942D01*
X125676919Y-77987046D01*
X125834820Y-77606777D01*
X125834821Y-77604971D01*
X129364821Y-77604971D01*
X129522058Y-77985515D01*
X129812954Y-78276919D01*
X129987217Y-78349279D01*
X129723081Y-78612954D01*
X129565180Y-78993223D01*
X129564821Y-79404971D01*
X129722058Y-79785515D01*
X130012954Y-80076919D01*
X130393223Y-80234820D01*
X130804971Y-80235179D01*
X131185515Y-80077942D01*
X131476919Y-79787046D01*
X131634820Y-79406777D01*
X131635179Y-78995029D01*
X131477942Y-78614485D01*
X131368619Y-78504971D01*
X131964821Y-78504971D01*
X132122058Y-78885515D01*
X132412954Y-79176919D01*
X132793223Y-79334820D01*
X133204971Y-79335179D01*
X133585515Y-79177942D01*
X133780020Y-78983776D01*
X133822058Y-79085515D01*
X134112954Y-79376919D01*
X134493223Y-79534820D01*
X134904971Y-79535179D01*
X135285515Y-79377942D01*
X135576919Y-79087046D01*
X135734820Y-78706777D01*
X135735179Y-78295029D01*
X135577942Y-77914485D01*
X135287046Y-77623081D01*
X134906777Y-77465180D01*
X134495029Y-77464821D01*
X134114485Y-77622058D01*
X133919980Y-77816224D01*
X133877942Y-77714485D01*
X133587046Y-77423081D01*
X133206777Y-77265180D01*
X132795029Y-77264821D01*
X132414485Y-77422058D01*
X132123081Y-77712954D01*
X131965180Y-78093223D01*
X131964821Y-78504971D01*
X131368619Y-78504971D01*
X131187046Y-78323081D01*
X131012783Y-78250721D01*
X131276919Y-77987046D01*
X131434820Y-77606777D01*
X131435179Y-77195029D01*
X131277942Y-76814485D01*
X130987046Y-76523081D01*
X130606777Y-76365180D01*
X130195029Y-76364821D01*
X129814485Y-76522058D01*
X129523081Y-76812954D01*
X129365180Y-77193223D01*
X129364821Y-77604971D01*
X125834821Y-77604971D01*
X125835179Y-77195029D01*
X125677942Y-76814485D01*
X125387046Y-76523081D01*
X125006777Y-76365180D01*
X124595029Y-76364821D01*
X124214485Y-76522058D01*
X123923081Y-76812954D01*
X123765180Y-77193223D01*
X123764821Y-77604971D01*
X119934821Y-77604971D01*
X119935179Y-77195029D01*
X119777942Y-76814485D01*
X119487046Y-76523081D01*
X119106777Y-76365180D01*
X118695029Y-76364821D01*
X118314485Y-76522058D01*
X118023081Y-76812954D01*
X117865180Y-77193223D01*
X117864821Y-77604971D01*
X114552522Y-77604971D01*
X114634820Y-77406777D01*
X114635179Y-76995029D01*
X114477942Y-76614485D01*
X114187046Y-76323081D01*
X113806777Y-76165180D01*
X113395029Y-76164821D01*
X113014485Y-76322058D01*
X112723081Y-76612954D01*
X112565180Y-76993223D01*
X112564821Y-77404971D01*
X69656649Y-77404971D01*
X69577942Y-77214485D01*
X69287046Y-76923081D01*
X68906777Y-76765180D01*
X68495029Y-76764821D01*
X68127000Y-76916887D01*
X68127000Y-74104971D01*
X102564821Y-74104971D01*
X102722058Y-74485515D01*
X103012954Y-74776919D01*
X103393223Y-74934820D01*
X103804971Y-74935179D01*
X103887218Y-74901195D01*
X103922058Y-74985515D01*
X104212954Y-75276919D01*
X104593223Y-75434820D01*
X105004971Y-75435179D01*
X105385515Y-75277942D01*
X105676919Y-74987046D01*
X105741933Y-74830475D01*
X105993223Y-74934820D01*
X106404971Y-74935179D01*
X106785515Y-74777942D01*
X107064826Y-74499118D01*
X107064821Y-74504971D01*
X107222058Y-74885515D01*
X107512954Y-75176919D01*
X107893223Y-75334820D01*
X108304971Y-75335179D01*
X108685515Y-75177942D01*
X108976919Y-74887046D01*
X109134820Y-74506777D01*
X109134821Y-74504971D01*
X115414821Y-74504971D01*
X115572058Y-74885515D01*
X115862954Y-75176919D01*
X116243223Y-75334820D01*
X116654971Y-75335179D01*
X117035515Y-75177942D01*
X117326919Y-74887046D01*
X117484820Y-74506777D01*
X117485179Y-74095029D01*
X117327942Y-73714485D01*
X117037046Y-73423081D01*
X116656777Y-73265180D01*
X116245029Y-73264821D01*
X115864485Y-73422058D01*
X115573081Y-73712954D01*
X115415180Y-74093223D01*
X115414821Y-74504971D01*
X109134821Y-74504971D01*
X109135179Y-74095029D01*
X108977942Y-73714485D01*
X108687046Y-73423081D01*
X108306777Y-73265180D01*
X107895029Y-73264821D01*
X107514485Y-73422058D01*
X107235174Y-73700882D01*
X107235179Y-73695029D01*
X107077942Y-73314485D01*
X106787046Y-73023081D01*
X106406777Y-72865180D01*
X105995029Y-72864821D01*
X105614485Y-73022058D01*
X105323081Y-73312954D01*
X105258067Y-73469525D01*
X105006777Y-73365180D01*
X104595029Y-73364821D01*
X104512782Y-73398805D01*
X104477942Y-73314485D01*
X104187046Y-73023081D01*
X103806777Y-72865180D01*
X103395029Y-72864821D01*
X103014485Y-73022058D01*
X102723081Y-73312954D01*
X102565180Y-73693223D01*
X102564821Y-74104971D01*
X68127000Y-74104971D01*
X68127000Y-70333893D01*
X89358725Y-70333893D01*
X89599519Y-70916657D01*
X90044997Y-71362914D01*
X90627341Y-71604724D01*
X91257893Y-71605275D01*
X91840657Y-71364481D01*
X92214261Y-70991529D01*
X92584997Y-71362914D01*
X93167341Y-71604724D01*
X93797893Y-71605275D01*
X94380657Y-71364481D01*
X94754261Y-70991529D01*
X95124997Y-71362914D01*
X95707341Y-71604724D01*
X96337893Y-71605275D01*
X96920657Y-71364481D01*
X97294261Y-70991529D01*
X97664997Y-71362914D01*
X98247341Y-71604724D01*
X98877893Y-71605275D01*
X99460657Y-71364481D01*
X99834261Y-70991529D01*
X100204997Y-71362914D01*
X100787341Y-71604724D01*
X101417893Y-71605275D01*
X102000657Y-71364481D01*
X102374261Y-70991529D01*
X102744997Y-71362914D01*
X103327341Y-71604724D01*
X103957893Y-71605275D01*
X104540657Y-71364481D01*
X104914261Y-70991529D01*
X105284997Y-71362914D01*
X105867341Y-71604724D01*
X106497893Y-71605275D01*
X107080657Y-71364481D01*
X107454261Y-70991529D01*
X107824997Y-71362914D01*
X108407341Y-71604724D01*
X109037893Y-71605275D01*
X109620657Y-71364481D01*
X109994261Y-70991529D01*
X110364997Y-71362914D01*
X110947341Y-71604724D01*
X111577893Y-71605275D01*
X112160657Y-71364481D01*
X112534261Y-70991529D01*
X112904997Y-71362914D01*
X113487341Y-71604724D01*
X114117893Y-71605275D01*
X114700657Y-71364481D01*
X115074261Y-70991529D01*
X115444997Y-71362914D01*
X116027341Y-71604724D01*
X116657893Y-71605275D01*
X117240657Y-71364481D01*
X117614261Y-70991529D01*
X117984997Y-71362914D01*
X118567341Y-71604724D01*
X119197893Y-71605275D01*
X119780657Y-71364481D01*
X120154261Y-70991529D01*
X120524997Y-71362914D01*
X121107341Y-71604724D01*
X121737893Y-71605275D01*
X122320657Y-71364481D01*
X122694261Y-70991529D01*
X123064997Y-71362914D01*
X123424160Y-71512051D01*
X123323081Y-71612954D01*
X123165180Y-71993223D01*
X123164821Y-72404971D01*
X123230882Y-72564852D01*
X123195029Y-72564821D01*
X122814485Y-72722058D01*
X122523081Y-73012954D01*
X122365180Y-73393223D01*
X122364821Y-73804971D01*
X122522058Y-74185515D01*
X122812954Y-74476919D01*
X123193223Y-74634820D01*
X123604971Y-74635179D01*
X123683195Y-74602858D01*
X123673081Y-74612954D01*
X123515180Y-74993223D01*
X123514821Y-75404971D01*
X123672058Y-75785515D01*
X123962954Y-76076919D01*
X124343223Y-76234820D01*
X124754971Y-76235179D01*
X125135515Y-76077942D01*
X125426919Y-75787046D01*
X125584820Y-75406777D01*
X125585179Y-74995029D01*
X125547968Y-74904971D01*
X126564821Y-74904971D01*
X126722058Y-75285515D01*
X127012954Y-75576919D01*
X127393223Y-75734820D01*
X127804971Y-75735179D01*
X128185515Y-75577942D01*
X128199770Y-75563712D01*
X128212954Y-75576919D01*
X128593223Y-75734820D01*
X129004971Y-75735179D01*
X129385515Y-75577942D01*
X129676919Y-75287046D01*
X129834820Y-74906777D01*
X129835179Y-74495029D01*
X129677942Y-74114485D01*
X129387457Y-73823492D01*
X129715515Y-73687942D01*
X130006919Y-73397046D01*
X130164820Y-73016777D01*
X130165179Y-72605029D01*
X130007942Y-72224485D01*
X129717046Y-71933081D01*
X129336777Y-71775180D01*
X128925029Y-71774821D01*
X128544485Y-71932058D01*
X128253081Y-72222954D01*
X128095180Y-72603223D01*
X128094821Y-73014971D01*
X128252058Y-73395515D01*
X128542543Y-73686508D01*
X128214485Y-73822058D01*
X128200230Y-73836288D01*
X128187046Y-73823081D01*
X127806777Y-73665180D01*
X127395029Y-73664821D01*
X127014485Y-73822058D01*
X126723081Y-74112954D01*
X126565180Y-74493223D01*
X126564821Y-74904971D01*
X125547968Y-74904971D01*
X125427942Y-74614485D01*
X125137046Y-74323081D01*
X124756777Y-74165180D01*
X124345029Y-74164821D01*
X124266805Y-74197142D01*
X124276919Y-74187046D01*
X124434820Y-73806777D01*
X124435179Y-73395029D01*
X124369118Y-73235148D01*
X124404971Y-73235179D01*
X124785515Y-73077942D01*
X125076919Y-72787046D01*
X125234820Y-72406777D01*
X125235179Y-71995029D01*
X125077942Y-71614485D01*
X124837801Y-71373925D01*
X124860657Y-71364481D01*
X125306914Y-70919003D01*
X125548724Y-70336659D01*
X125549275Y-69706107D01*
X125308481Y-69123343D01*
X124863003Y-68677086D01*
X124280659Y-68435276D01*
X123650107Y-68434725D01*
X123067343Y-68675519D01*
X122693739Y-69048471D01*
X122323003Y-68677086D01*
X121740659Y-68435276D01*
X121528616Y-68435091D01*
X121676919Y-68287046D01*
X121794046Y-68004971D01*
X124964821Y-68004971D01*
X125122058Y-68385515D01*
X125412954Y-68676919D01*
X125793223Y-68834820D01*
X126204971Y-68835179D01*
X126278080Y-68804971D01*
X127064821Y-68804971D01*
X127222058Y-69185515D01*
X127512954Y-69476919D01*
X127893223Y-69634820D01*
X128304971Y-69635179D01*
X128468804Y-69567485D01*
X128323081Y-69712954D01*
X128165180Y-70093223D01*
X128164821Y-70504971D01*
X128322058Y-70885515D01*
X128612954Y-71176919D01*
X128993223Y-71334820D01*
X129404971Y-71335179D01*
X129785515Y-71177942D01*
X130076919Y-70887046D01*
X130234820Y-70506777D01*
X130235179Y-70095029D01*
X130077942Y-69714485D01*
X129787046Y-69423081D01*
X129406777Y-69265180D01*
X128995029Y-69264821D01*
X128831196Y-69332515D01*
X128976919Y-69187046D01*
X129134820Y-68806777D01*
X129135089Y-68498568D01*
X129412954Y-68776919D01*
X129793223Y-68934820D01*
X130204971Y-68935179D01*
X130585515Y-68777942D01*
X130876919Y-68487046D01*
X131034820Y-68106777D01*
X131035179Y-67695029D01*
X130877942Y-67314485D01*
X130587046Y-67023081D01*
X130543433Y-67004971D01*
X132464821Y-67004971D01*
X132622058Y-67385515D01*
X132912954Y-67676919D01*
X133293223Y-67834820D01*
X133704971Y-67835179D01*
X134085515Y-67677942D01*
X134376919Y-67387046D01*
X134534820Y-67006777D01*
X134535179Y-66595029D01*
X134377942Y-66214485D01*
X134087046Y-65923081D01*
X133706777Y-65765180D01*
X133295029Y-65764821D01*
X132914485Y-65922058D01*
X132623081Y-66212954D01*
X132465180Y-66593223D01*
X132464821Y-67004971D01*
X130543433Y-67004971D01*
X130206777Y-66865180D01*
X129795029Y-66864821D01*
X129414485Y-67022058D01*
X129123081Y-67312954D01*
X128965180Y-67693223D01*
X128964911Y-68001432D01*
X128687046Y-67723081D01*
X128306777Y-67565180D01*
X127895029Y-67564821D01*
X127514485Y-67722058D01*
X127223081Y-68012954D01*
X127065180Y-68393223D01*
X127064821Y-68804971D01*
X126278080Y-68804971D01*
X126585515Y-68677942D01*
X126876919Y-68387046D01*
X127034820Y-68006777D01*
X127035179Y-67595029D01*
X126877942Y-67214485D01*
X126587046Y-66923081D01*
X126206777Y-66765180D01*
X125795029Y-66764821D01*
X125414485Y-66922058D01*
X125123081Y-67212954D01*
X124965180Y-67593223D01*
X124964821Y-68004971D01*
X121794046Y-68004971D01*
X121834820Y-67906777D01*
X121835179Y-67495029D01*
X121677942Y-67114485D01*
X121387046Y-66823081D01*
X121006777Y-66665180D01*
X120595029Y-66664821D01*
X120214485Y-66822058D01*
X119923081Y-67112954D01*
X119765180Y-67493223D01*
X119764821Y-67904971D01*
X119922058Y-68285515D01*
X120212954Y-68576919D01*
X120504743Y-68698080D01*
X120153739Y-69048471D01*
X119783003Y-68677086D01*
X119220272Y-68443420D01*
X119376919Y-68287046D01*
X119534820Y-67906777D01*
X119535179Y-67495029D01*
X119377942Y-67114485D01*
X119087046Y-66823081D01*
X118706777Y-66665180D01*
X118295029Y-66664821D01*
X117914485Y-66822058D01*
X117623081Y-67112954D01*
X117465180Y-67493223D01*
X117464821Y-67904971D01*
X117622058Y-68285515D01*
X117912954Y-68576919D01*
X118069077Y-68641747D01*
X117987343Y-68675519D01*
X117613739Y-69048471D01*
X117243003Y-68677086D01*
X116774435Y-68482520D01*
X116785515Y-68477942D01*
X117076919Y-68187046D01*
X117234820Y-67806777D01*
X117235179Y-67395029D01*
X117077942Y-67014485D01*
X116787046Y-66723081D01*
X116406777Y-66565180D01*
X115995029Y-66564821D01*
X115614485Y-66722058D01*
X115607790Y-66728742D01*
X115477942Y-66414485D01*
X115187046Y-66123081D01*
X114806777Y-65965180D01*
X114395029Y-65964821D01*
X114014485Y-66122058D01*
X113723081Y-66412954D01*
X113565180Y-66793223D01*
X113564821Y-67204971D01*
X113722058Y-67585515D01*
X114012954Y-67876919D01*
X114393223Y-68034820D01*
X114804971Y-68035179D01*
X115185515Y-67877942D01*
X115192210Y-67871258D01*
X115322058Y-68185515D01*
X115612954Y-68476919D01*
X115770084Y-68542165D01*
X115447343Y-68675519D01*
X115073739Y-69048471D01*
X114703003Y-68677086D01*
X114120659Y-68435276D01*
X113490107Y-68434725D01*
X112907343Y-68675519D01*
X112533739Y-69048471D01*
X112163003Y-68677086D01*
X111580659Y-68435276D01*
X110950107Y-68434725D01*
X110367343Y-68675519D01*
X109993739Y-69048471D01*
X109623003Y-68677086D01*
X109040659Y-68435276D01*
X108410107Y-68434725D01*
X107827343Y-68675519D01*
X107453739Y-69048471D01*
X107083003Y-68677086D01*
X106500659Y-68435276D01*
X105870107Y-68434725D01*
X105287343Y-68675519D01*
X104913739Y-69048471D01*
X104543003Y-68677086D01*
X103960659Y-68435276D01*
X103330107Y-68434725D01*
X102747343Y-68675519D01*
X102373739Y-69048471D01*
X102003003Y-68677086D01*
X101420659Y-68435276D01*
X100790107Y-68434725D01*
X100207343Y-68675519D01*
X99833739Y-69048471D01*
X99463003Y-68677086D01*
X98880659Y-68435276D01*
X98250107Y-68434725D01*
X97667343Y-68675519D01*
X97293739Y-69048471D01*
X96923003Y-68677086D01*
X96340659Y-68435276D01*
X95710107Y-68434725D01*
X95127343Y-68675519D01*
X94753739Y-69048471D01*
X94383003Y-68677086D01*
X93800659Y-68435276D01*
X93170107Y-68434725D01*
X92587343Y-68675519D01*
X92213739Y-69048471D01*
X91843003Y-68677086D01*
X91260659Y-68435276D01*
X90630107Y-68434725D01*
X90047343Y-68675519D01*
X89601086Y-69120997D01*
X89359276Y-69703341D01*
X89358725Y-70333893D01*
X68127000Y-70333893D01*
X68127000Y-70127000D01*
X87000000Y-70127000D01*
X87049410Y-70116994D01*
X87091035Y-70088553D01*
X87118315Y-70046159D01*
X87127000Y-70000000D01*
X87127000Y-65127000D01*
X116000000Y-65127000D01*
X116049410Y-65116994D01*
X116091035Y-65088553D01*
X116118315Y-65046159D01*
X116127000Y-65000000D01*
X116127000Y-63704971D01*
X120364821Y-63704971D01*
X120522058Y-64085515D01*
X120812954Y-64376919D01*
X121193223Y-64534820D01*
X121604971Y-64535179D01*
X121985515Y-64377942D01*
X122276919Y-64087046D01*
X122434820Y-63706777D01*
X122435083Y-63404971D01*
X128064821Y-63404971D01*
X128222058Y-63785515D01*
X128512954Y-64076919D01*
X128893223Y-64234820D01*
X129304971Y-64235179D01*
X129685515Y-64077942D01*
X129976919Y-63787046D01*
X130134820Y-63406777D01*
X130135179Y-62995029D01*
X129977942Y-62614485D01*
X129687046Y-62323081D01*
X129306777Y-62165180D01*
X128895029Y-62164821D01*
X128514485Y-62322058D01*
X128223081Y-62612954D01*
X128065180Y-62993223D01*
X128064821Y-63404971D01*
X122435083Y-63404971D01*
X122435179Y-63295029D01*
X122277942Y-62914485D01*
X121987046Y-62623081D01*
X121606777Y-62465180D01*
X121195029Y-62464821D01*
X120814485Y-62622058D01*
X120523081Y-62912954D01*
X120365180Y-63293223D01*
X120364821Y-63704971D01*
X116127000Y-63704971D01*
X116127000Y-60814971D01*
X136254821Y-60814971D01*
X136412058Y-61195515D01*
X136702954Y-61486919D01*
X137083223Y-61644820D01*
X137494971Y-61645179D01*
X137875515Y-61487942D01*
X138166919Y-61197046D01*
X138324820Y-60816777D01*
X138325179Y-60405029D01*
X138167942Y-60024485D01*
X137877046Y-59733081D01*
X137496777Y-59575180D01*
X137085029Y-59574821D01*
X136704485Y-59732058D01*
X136413081Y-60022954D01*
X136255180Y-60403223D01*
X136254821Y-60814971D01*
X116127000Y-60814971D01*
X116127000Y-58354971D01*
X122964821Y-58354971D01*
X123122058Y-58735515D01*
X123412954Y-59026919D01*
X123793223Y-59184820D01*
X124204971Y-59185179D01*
X124585515Y-59027942D01*
X124876919Y-58737046D01*
X125034820Y-58356777D01*
X125035179Y-57945029D01*
X124877942Y-57564485D01*
X124587046Y-57273081D01*
X124206777Y-57115180D01*
X123795029Y-57114821D01*
X123414485Y-57272058D01*
X123123081Y-57562954D01*
X122965180Y-57943223D01*
X122964821Y-58354971D01*
X116127000Y-58354971D01*
X116127000Y-57435024D01*
X116304971Y-57435179D01*
X116685515Y-57277942D01*
X116900032Y-57063799D01*
X117012954Y-57176919D01*
X117393223Y-57334820D01*
X117804971Y-57335179D01*
X118185515Y-57177942D01*
X118476919Y-56887046D01*
X118634820Y-56506777D01*
X118634944Y-56364783D01*
X119064943Y-56365159D01*
X119064821Y-56504971D01*
X119222058Y-56885515D01*
X119512954Y-57176919D01*
X119893223Y-57334820D01*
X120304971Y-57335179D01*
X120685515Y-57177942D01*
X120976919Y-56887046D01*
X121134820Y-56506777D01*
X121134944Y-56364748D01*
X121664943Y-56365211D01*
X121664821Y-56504971D01*
X121822058Y-56885515D01*
X122112954Y-57176919D01*
X122493223Y-57334820D01*
X122904971Y-57335179D01*
X123285515Y-57177942D01*
X123576919Y-56887046D01*
X123734820Y-56506777D01*
X123734944Y-56364801D01*
X124277893Y-56365275D01*
X124860657Y-56124481D01*
X125306914Y-55679003D01*
X125548724Y-55096659D01*
X125549275Y-54466107D01*
X125308481Y-53883343D01*
X124863003Y-53437086D01*
X124280659Y-53195276D01*
X123650107Y-53194725D01*
X123067343Y-53435519D01*
X122693739Y-53808471D01*
X122323003Y-53437086D01*
X121740659Y-53195276D01*
X121110107Y-53194725D01*
X120527343Y-53435519D01*
X120153739Y-53808471D01*
X119783003Y-53437086D01*
X119200659Y-53195276D01*
X118570107Y-53194725D01*
X117987343Y-53435519D01*
X117613739Y-53808471D01*
X117243003Y-53437086D01*
X116660659Y-53195276D01*
X116127000Y-53194810D01*
X116127000Y-50200000D01*
X116116994Y-50150590D01*
X116088553Y-50108965D01*
X116046159Y-50081685D01*
X116000000Y-50073000D01*
X114000000Y-50073000D01*
X113950590Y-50083006D01*
X113908965Y-50111447D01*
X113881685Y-50153841D01*
X113873000Y-50200000D01*
X113873000Y-53195060D01*
X113490107Y-53194725D01*
X112907343Y-53435519D01*
X112533739Y-53808471D01*
X112163003Y-53437086D01*
X111580659Y-53195276D01*
X110950107Y-53194725D01*
X110367343Y-53435519D01*
X109993739Y-53808471D01*
X109623003Y-53437086D01*
X109040659Y-53195276D01*
X108410107Y-53194725D01*
X107827343Y-53435519D01*
X107453739Y-53808471D01*
X107083003Y-53437086D01*
X106500659Y-53195276D01*
X105870107Y-53194725D01*
X105491885Y-53351004D01*
X105634820Y-53006777D01*
X105635179Y-52595029D01*
X105477942Y-52214485D01*
X105187046Y-51923081D01*
X104806777Y-51765180D01*
X104395029Y-51764821D01*
X104014485Y-51922058D01*
X103723081Y-52212954D01*
X103565180Y-52593223D01*
X103564821Y-53004971D01*
X103643339Y-53194999D01*
X103330107Y-53194725D01*
X102747343Y-53435519D01*
X102373739Y-53808471D01*
X102003003Y-53437086D01*
X101420659Y-53195276D01*
X100790107Y-53194725D01*
X100207343Y-53435519D01*
X99833739Y-53808471D01*
X99463003Y-53437086D01*
X98880659Y-53195276D01*
X98250107Y-53194725D01*
X97667343Y-53435519D01*
X97293739Y-53808471D01*
X96923003Y-53437086D01*
X96340659Y-53195276D01*
X95710107Y-53194725D01*
X95127343Y-53435519D01*
X94753739Y-53808471D01*
X94383003Y-53437086D01*
X93800659Y-53195276D01*
X93170107Y-53194725D01*
X92587343Y-53435519D01*
X92213739Y-53808471D01*
X91843003Y-53437086D01*
X91260659Y-53195276D01*
X90630107Y-53194725D01*
X90047343Y-53435519D01*
X89601086Y-53880997D01*
X89359276Y-54463341D01*
X89358725Y-55093893D01*
X89599519Y-55676657D01*
X90044997Y-56122914D01*
X90627341Y-56364724D01*
X91257893Y-56365275D01*
X91840657Y-56124481D01*
X92214261Y-55751529D01*
X92584997Y-56122914D01*
X93167341Y-56364724D01*
X93797893Y-56365275D01*
X94380657Y-56124481D01*
X94754261Y-55751529D01*
X95124997Y-56122914D01*
X95707341Y-56364724D01*
X96337893Y-56365275D01*
X96920657Y-56124481D01*
X97294261Y-55751529D01*
X97592471Y-56050261D01*
X97221086Y-56420997D01*
X96979276Y-57003341D01*
X96978725Y-57633893D01*
X97219519Y-58216657D01*
X97664997Y-58662914D01*
X98247341Y-58904724D01*
X98877893Y-58905275D01*
X99460657Y-58664481D01*
X99834261Y-58291529D01*
X100204997Y-58662914D01*
X100787341Y-58904724D01*
X101417893Y-58905275D01*
X102000657Y-58664481D01*
X102374261Y-58291529D01*
X102744997Y-58662914D01*
X103327341Y-58904724D01*
X103957893Y-58905275D01*
X104540657Y-58664481D01*
X104986914Y-58219003D01*
X105228724Y-57636659D01*
X105229275Y-57006107D01*
X104988481Y-56423343D01*
X104615529Y-56049739D01*
X104914261Y-55751529D01*
X105284997Y-56122914D01*
X105867341Y-56364724D01*
X106497893Y-56365275D01*
X107080657Y-56124481D01*
X107454261Y-55751529D01*
X107824997Y-56122914D01*
X108407341Y-56364724D01*
X109037893Y-56365275D01*
X109620657Y-56124481D01*
X109994261Y-55751529D01*
X110364997Y-56122914D01*
X110947341Y-56364724D01*
X111577893Y-56365275D01*
X111965170Y-56205255D01*
X111964821Y-56604971D01*
X112122058Y-56985515D01*
X112412954Y-57276919D01*
X112793223Y-57434820D01*
X113204971Y-57435179D01*
X113585515Y-57277942D01*
X113850206Y-57013712D01*
X113873000Y-57036546D01*
X113873000Y-62873000D01*
X85000000Y-62873000D01*
X84950590Y-62883006D01*
X84908965Y-62911447D01*
X84881685Y-62953841D01*
X84873000Y-63000000D01*
X84873000Y-65873000D01*
X66127000Y-65873000D01*
X66127000Y-64504971D01*
X72464821Y-64504971D01*
X72622058Y-64885515D01*
X72912954Y-65176919D01*
X73293223Y-65334820D01*
X73704971Y-65335179D01*
X74085515Y-65177942D01*
X74376919Y-64887046D01*
X74534820Y-64506777D01*
X74535179Y-64095029D01*
X74377942Y-63714485D01*
X74087046Y-63423081D01*
X73706777Y-63265180D01*
X73295029Y-63264821D01*
X72914485Y-63422058D01*
X72623081Y-63712954D01*
X72465180Y-64093223D01*
X72464821Y-64504971D01*
X66127000Y-64504971D01*
X66127000Y-57150000D01*
X69605907Y-57150000D01*
X69718946Y-57718285D01*
X70040853Y-58200054D01*
X70370026Y-58420000D01*
X70040853Y-58639946D01*
X69718946Y-59121715D01*
X69605907Y-59690000D01*
X69718946Y-60258285D01*
X70040853Y-60740054D01*
X70522622Y-61061961D01*
X71090907Y-61175000D01*
X71149093Y-61175000D01*
X71717378Y-61061961D01*
X72199147Y-60740054D01*
X72521054Y-60258285D01*
X72634093Y-59690000D01*
X72521054Y-59121715D01*
X72199147Y-58639946D01*
X71869974Y-58420000D01*
X72199147Y-58200054D01*
X72521054Y-57718285D01*
X72587953Y-57381964D01*
X72672058Y-57585515D01*
X72962954Y-57876919D01*
X73343223Y-58034820D01*
X73754971Y-58035179D01*
X74135515Y-57877942D01*
X74242895Y-57770749D01*
X74326120Y-58189151D01*
X74637189Y-58654698D01*
X75019275Y-58910000D01*
X74637189Y-59165302D01*
X74326120Y-59630849D01*
X74216887Y-60180000D01*
X74326120Y-60729151D01*
X74637189Y-61194698D01*
X75019275Y-61450000D01*
X74637189Y-61705302D01*
X74326120Y-62170849D01*
X74216887Y-62720000D01*
X74326120Y-63269151D01*
X74637189Y-63734698D01*
X75102736Y-64045767D01*
X75651887Y-64155000D01*
X75708113Y-64155000D01*
X76257264Y-64045767D01*
X76722811Y-63734698D01*
X77033880Y-63269151D01*
X77143113Y-62720000D01*
X77033880Y-62170849D01*
X76722811Y-61705302D01*
X76340725Y-61450000D01*
X76722811Y-61194698D01*
X77033880Y-60729151D01*
X77143113Y-60180000D01*
X77033880Y-59630849D01*
X76722811Y-59165302D01*
X76340725Y-58910000D01*
X76722811Y-58654698D01*
X77033880Y-58189151D01*
X77143113Y-57640000D01*
X81836887Y-57640000D01*
X81946120Y-58189151D01*
X82257189Y-58654698D01*
X82639275Y-58910000D01*
X82257189Y-59165302D01*
X81946120Y-59630849D01*
X81836887Y-60180000D01*
X81946120Y-60729151D01*
X82257189Y-61194698D01*
X82639275Y-61450000D01*
X82257189Y-61705302D01*
X81946120Y-62170849D01*
X81836887Y-62720000D01*
X81946120Y-63269151D01*
X82257189Y-63734698D01*
X82722736Y-64045767D01*
X83271887Y-64155000D01*
X83328113Y-64155000D01*
X83877264Y-64045767D01*
X84342811Y-63734698D01*
X84653880Y-63269151D01*
X84763113Y-62720000D01*
X84653880Y-62170849D01*
X84342811Y-61705302D01*
X84192656Y-61604971D01*
X107664821Y-61604971D01*
X107822058Y-61985515D01*
X108112954Y-62276919D01*
X108493223Y-62434820D01*
X108904971Y-62435179D01*
X109285515Y-62277942D01*
X109576919Y-61987046D01*
X109734820Y-61606777D01*
X109735179Y-61195029D01*
X109577942Y-60814485D01*
X109287046Y-60523081D01*
X108906777Y-60365180D01*
X108495029Y-60364821D01*
X108114485Y-60522058D01*
X107823081Y-60812954D01*
X107665180Y-61193223D01*
X107664821Y-61604971D01*
X84192656Y-61604971D01*
X83960725Y-61450000D01*
X84342811Y-61194698D01*
X84653880Y-60729151D01*
X84763113Y-60180000D01*
X84653880Y-59630849D01*
X84342811Y-59165302D01*
X83960725Y-58910000D01*
X84342811Y-58654698D01*
X84653880Y-58189151D01*
X84763113Y-57640000D01*
X84653880Y-57090849D01*
X84342811Y-56625302D01*
X84198535Y-56528899D01*
X84335317Y-56503162D01*
X84551441Y-56364090D01*
X84696431Y-56151890D01*
X84747440Y-55900000D01*
X84747440Y-54834867D01*
X84862560Y-54834968D01*
X84862560Y-55460000D01*
X84906838Y-55695317D01*
X85045910Y-55911441D01*
X85258110Y-56056431D01*
X85325541Y-56070086D01*
X85280853Y-56099946D01*
X84958946Y-56581715D01*
X84845907Y-57150000D01*
X84958946Y-57718285D01*
X85280853Y-58200054D01*
X85762622Y-58521961D01*
X86330907Y-58635000D01*
X86389093Y-58635000D01*
X86957378Y-58521961D01*
X87439147Y-58200054D01*
X87761054Y-57718285D01*
X87874093Y-57150000D01*
X87761054Y-56581715D01*
X87439147Y-56099946D01*
X87397548Y-56072150D01*
X87445317Y-56063162D01*
X87661441Y-55924090D01*
X87806431Y-55711890D01*
X87857440Y-55460000D01*
X87857440Y-53760000D01*
X87813162Y-53524683D01*
X87674090Y-53308559D01*
X87461890Y-53163569D01*
X87210000Y-53112560D01*
X85676195Y-53112560D01*
X85487046Y-52923081D01*
X85106777Y-52765180D01*
X84695029Y-52764821D01*
X84314485Y-52922058D01*
X84023081Y-53212954D01*
X83865180Y-53593223D01*
X83865128Y-53652560D01*
X82500000Y-53652560D01*
X82264683Y-53696838D01*
X82048559Y-53835910D01*
X81903569Y-54048110D01*
X81852560Y-54300000D01*
X81852560Y-55900000D01*
X81896838Y-56135317D01*
X82035910Y-56351441D01*
X82248110Y-56496431D01*
X82403089Y-56527815D01*
X82257189Y-56625302D01*
X81946120Y-57090849D01*
X81836887Y-57640000D01*
X77143113Y-57640000D01*
X77033880Y-57090849D01*
X76722811Y-56625302D01*
X76318297Y-56355014D01*
X76535134Y-56252389D01*
X76911041Y-55837423D01*
X77071904Y-55449039D01*
X76949915Y-55227000D01*
X75807000Y-55227000D01*
X75807000Y-55247000D01*
X75553000Y-55247000D01*
X75553000Y-55227000D01*
X74410085Y-55227000D01*
X74288096Y-55449039D01*
X74448959Y-55837423D01*
X74824866Y-56252389D01*
X75041703Y-56355014D01*
X74637189Y-56625302D01*
X74561719Y-56738251D01*
X74427942Y-56414485D01*
X74137046Y-56123081D01*
X73756777Y-55965180D01*
X73345029Y-55964821D01*
X72964485Y-56122058D01*
X72673081Y-56412954D01*
X72547597Y-56715154D01*
X72521054Y-56581715D01*
X72199147Y-56099946D01*
X72155223Y-56070597D01*
X72329698Y-55998327D01*
X72508327Y-55819699D01*
X72605000Y-55586310D01*
X72605000Y-54895750D01*
X72460211Y-54750961D01*
X74288096Y-54750961D01*
X74410085Y-54973000D01*
X75553000Y-54973000D01*
X75553000Y-53829371D01*
X75807000Y-53829371D01*
X75807000Y-54973000D01*
X76949915Y-54973000D01*
X77071904Y-54750961D01*
X76911041Y-54362577D01*
X76535134Y-53947611D01*
X76029041Y-53708086D01*
X75807000Y-53829371D01*
X75553000Y-53829371D01*
X75330959Y-53708086D01*
X74824866Y-53947611D01*
X74448959Y-54362577D01*
X74288096Y-54750961D01*
X72460211Y-54750961D01*
X72446250Y-54737000D01*
X71247000Y-54737000D01*
X71247000Y-54757000D01*
X70993000Y-54757000D01*
X70993000Y-54737000D01*
X69793750Y-54737000D01*
X69635000Y-54895750D01*
X69635000Y-55586310D01*
X69731673Y-55819699D01*
X69910302Y-55998327D01*
X70084777Y-56070597D01*
X70040853Y-56099946D01*
X69718946Y-56581715D01*
X69605907Y-57150000D01*
X66127000Y-57150000D01*
X66127000Y-53633690D01*
X69635000Y-53633690D01*
X69635000Y-54324250D01*
X69793750Y-54483000D01*
X70993000Y-54483000D01*
X70993000Y-53283750D01*
X71247000Y-53283750D01*
X71247000Y-54483000D01*
X72446250Y-54483000D01*
X72605000Y-54324250D01*
X72605000Y-53633690D01*
X72508327Y-53400301D01*
X72329698Y-53221673D01*
X72096309Y-53125000D01*
X71405750Y-53125000D01*
X71247000Y-53283750D01*
X70993000Y-53283750D01*
X70834250Y-53125000D01*
X70143691Y-53125000D01*
X69910302Y-53221673D01*
X69731673Y-53400301D01*
X69635000Y-53633690D01*
X66127000Y-53633690D01*
X66127000Y-51304971D01*
X101564821Y-51304971D01*
X101722058Y-51685515D01*
X102012954Y-51976919D01*
X102393223Y-52134820D01*
X102804971Y-52135179D01*
X103185515Y-51977942D01*
X103476919Y-51687046D01*
X103510999Y-51604971D01*
X108564821Y-51604971D01*
X108722058Y-51985515D01*
X109012954Y-52276919D01*
X109393223Y-52434820D01*
X109804971Y-52435179D01*
X110185515Y-52277942D01*
X110249857Y-52213712D01*
X110312954Y-52276919D01*
X110693223Y-52434820D01*
X111104971Y-52435179D01*
X111485515Y-52277942D01*
X111776919Y-51987046D01*
X111934820Y-51606777D01*
X111935179Y-51195029D01*
X111777942Y-50814485D01*
X111487046Y-50523081D01*
X111106777Y-50365180D01*
X110695029Y-50364821D01*
X110314485Y-50522058D01*
X110250143Y-50586288D01*
X110187046Y-50523081D01*
X109806777Y-50365180D01*
X109395029Y-50364821D01*
X109014485Y-50522058D01*
X108723081Y-50812954D01*
X108565180Y-51193223D01*
X108564821Y-51604971D01*
X103510999Y-51604971D01*
X103634820Y-51306777D01*
X103635179Y-50895029D01*
X103477942Y-50514485D01*
X103187046Y-50223081D01*
X102806777Y-50065180D01*
X102395029Y-50064821D01*
X102014485Y-50222058D01*
X101723081Y-50512954D01*
X101565180Y-50893223D01*
X101564821Y-51304971D01*
X66127000Y-51304971D01*
X66127000Y-47627000D01*
X111144544Y-47627000D01*
X110914485Y-47722058D01*
X110623081Y-48012954D01*
X110465180Y-48393223D01*
X110464821Y-48804971D01*
X110622058Y-49185515D01*
X110912954Y-49476919D01*
X111293223Y-49634820D01*
X111704971Y-49635179D01*
X112085515Y-49477942D01*
X112376919Y-49187046D01*
X112427226Y-49065892D01*
X112593223Y-49134820D01*
X113004971Y-49135179D01*
X113385515Y-48977942D01*
X113676919Y-48687046D01*
X113810655Y-48364971D01*
X121614821Y-48364971D01*
X121772058Y-48745515D01*
X122062954Y-49036919D01*
X122443223Y-49194820D01*
X122854971Y-49195179D01*
X123235515Y-49037942D01*
X123526919Y-48747046D01*
X123684820Y-48366777D01*
X123685179Y-47955029D01*
X123527942Y-47574485D01*
X123237046Y-47283081D01*
X122856777Y-47125180D01*
X122445029Y-47124821D01*
X122064485Y-47282058D01*
X121773081Y-47572954D01*
X121615180Y-47953223D01*
X121614821Y-48364971D01*
X113810655Y-48364971D01*
X113834820Y-48306777D01*
X113835179Y-47895029D01*
X113724432Y-47627000D01*
X113973000Y-47627000D01*
X113973000Y-47700000D01*
X113983006Y-47749410D01*
X114011447Y-47791035D01*
X114053841Y-47818315D01*
X114100000Y-47827000D01*
X116000000Y-47827000D01*
X116049410Y-47816994D01*
X116091035Y-47788553D01*
X116118315Y-47746159D01*
X116127000Y-47700000D01*
X116127000Y-47104971D01*
X126564821Y-47104971D01*
X126722058Y-47485515D01*
X127012954Y-47776919D01*
X127393223Y-47934820D01*
X127804971Y-47935179D01*
X128185515Y-47777942D01*
X128476919Y-47487046D01*
X128634820Y-47106777D01*
X128635179Y-46695029D01*
X128477942Y-46314485D01*
X128187046Y-46023081D01*
X127806777Y-45865180D01*
X127395029Y-45864821D01*
X127014485Y-46022058D01*
X126723081Y-46312954D01*
X126565180Y-46693223D01*
X126564821Y-47104971D01*
X116127000Y-47104971D01*
X116127000Y-44804971D01*
X130764821Y-44804971D01*
X130922058Y-45185515D01*
X131212954Y-45476919D01*
X131593223Y-45634820D01*
X131964969Y-45635144D01*
X131964821Y-45804971D01*
X132122058Y-46185515D01*
X132412954Y-46476919D01*
X132793223Y-46634820D01*
X133204971Y-46635179D01*
X133585515Y-46477942D01*
X133876919Y-46187046D01*
X134034820Y-45806777D01*
X134035179Y-45395029D01*
X133913170Y-45099744D01*
X134034820Y-44806777D01*
X134035179Y-44395029D01*
X133877942Y-44014485D01*
X133587046Y-43723081D01*
X133206777Y-43565180D01*
X132795029Y-43564821D01*
X132414485Y-43722058D01*
X132400230Y-43736288D01*
X132387046Y-43723081D01*
X132006777Y-43565180D01*
X131595029Y-43564821D01*
X131214485Y-43722058D01*
X130923081Y-44012954D01*
X130765180Y-44393223D01*
X130764821Y-44804971D01*
X116127000Y-44804971D01*
X116127000Y-43685000D01*
X124000000Y-43685000D01*
X124262138Y-43632857D01*
X124484368Y-43484368D01*
X124632857Y-43262138D01*
X124659738Y-43127000D01*
X144373000Y-43127000D01*
X144373000Y-48873000D01*
G36*
X134412954Y-50276919D02*
X134793223Y-50434820D01*
X135204971Y-50435179D01*
X135585515Y-50277942D01*
X135736721Y-50127000D01*
X144373000Y-50127000D01*
X144373000Y-59797880D01*
X144314485Y-59822058D01*
X144023081Y-60112954D01*
X143865180Y-60493223D01*
X143864821Y-60904971D01*
X144022058Y-61285515D01*
X144312954Y-61576919D01*
X144373000Y-61601852D01*
X144373000Y-69092678D01*
X144306777Y-69065180D01*
X143895029Y-69064821D01*
X143514485Y-69222058D01*
X143223081Y-69512954D01*
X143150824Y-69686970D01*
X143087046Y-69623081D01*
X142706777Y-69465180D01*
X142295029Y-69464821D01*
X141914485Y-69622058D01*
X141623081Y-69912954D01*
X141465180Y-70293223D01*
X141464821Y-70704971D01*
X141622058Y-71085515D01*
X141912954Y-71376919D01*
X142293223Y-71534820D01*
X142704971Y-71535179D01*
X143085515Y-71377942D01*
X143376919Y-71087046D01*
X143449176Y-70913030D01*
X143512954Y-70976919D01*
X143765103Y-71081620D01*
X143764821Y-71404971D01*
X143922058Y-71785515D01*
X144212954Y-72076919D01*
X144373000Y-72143376D01*
X144373000Y-76875725D01*
X144106777Y-76765180D01*
X143695029Y-76764821D01*
X143314485Y-76922058D01*
X143023081Y-77212954D01*
X142865180Y-77593223D01*
X142864821Y-78004971D01*
X143022058Y-78385515D01*
X143312954Y-78676919D01*
X143693223Y-78834820D01*
X144104971Y-78835179D01*
X144373000Y-78724432D01*
X144373000Y-104873000D01*
X142827000Y-104873000D01*
X142827000Y-92300000D01*
X142816994Y-92250590D01*
X142788553Y-92208965D01*
X142746159Y-92181685D01*
X142700000Y-92173000D01*
X130700000Y-92173000D01*
X130650590Y-92183006D01*
X130608965Y-92211447D01*
X130581685Y-92253841D01*
X130573003Y-92300927D01*
X130672069Y-105873000D01*
X68127000Y-105873000D01*
X68127000Y-104214440D01*
X68630600Y-104214440D01*
X68865917Y-104170162D01*
X69082041Y-104031090D01*
X69227031Y-103818890D01*
X69235400Y-103777561D01*
X69247330Y-103795415D01*
X69733511Y-104120271D01*
X70307000Y-104234345D01*
X70880489Y-104120271D01*
X71366670Y-103795415D01*
X71577000Y-103480634D01*
X71787330Y-103795415D01*
X72273511Y-104120271D01*
X72847000Y-104234345D01*
X73420489Y-104120271D01*
X73906670Y-103795415D01*
X74113461Y-103485931D01*
X74484964Y-103901732D01*
X75012209Y-104155709D01*
X75027974Y-104158358D01*
X75260000Y-104037217D01*
X75260000Y-102678000D01*
X75514000Y-102678000D01*
X75514000Y-104037217D01*
X75746026Y-104158358D01*
X75761791Y-104155709D01*
X76289036Y-103901732D01*
X76678954Y-103465320D01*
X76872184Y-102912913D01*
X76727924Y-102678000D01*
X75514000Y-102678000D01*
X75260000Y-102678000D01*
X75240000Y-102678000D01*
X75240000Y-102424000D01*
X75260000Y-102424000D01*
X75260000Y-102404000D01*
X75514000Y-102404000D01*
X75514000Y-102424000D01*
X76727924Y-102424000D01*
X76872184Y-102189087D01*
X76678954Y-101636680D01*
X76289036Y-101200268D01*
X76136935Y-101127000D01*
X79447000Y-101127000D01*
X79416180Y-101201223D01*
X79415821Y-101612971D01*
X79573058Y-101993515D01*
X79863954Y-102284919D01*
X80244223Y-102442820D01*
X80655971Y-102443179D01*
X81036515Y-102285942D01*
X81327919Y-101995046D01*
X81485820Y-101614777D01*
X81486179Y-101203029D01*
X81454765Y-101127000D01*
X98865344Y-101127000D01*
X98765180Y-101368223D01*
X98764821Y-101779971D01*
X98922058Y-102160515D01*
X99212954Y-102451919D01*
X99593223Y-102609820D01*
X100004971Y-102610179D01*
X100385515Y-102452942D01*
X100404642Y-102433848D01*
X100768223Y-102584820D01*
X101179971Y-102585179D01*
X101560515Y-102427942D01*
X101587292Y-102401212D01*
X101612954Y-102426919D01*
X101993223Y-102584820D01*
X102404971Y-102585179D01*
X102785515Y-102427942D01*
X103076919Y-102137046D01*
X103234820Y-101756777D01*
X103235179Y-101345029D01*
X103145092Y-101127000D01*
X120417955Y-101127000D01*
X120497381Y-101526299D01*
X120819208Y-102007948D01*
X121300857Y-102329775D01*
X121869000Y-102442786D01*
X122437143Y-102329775D01*
X122918792Y-102007948D01*
X123139000Y-101678383D01*
X123359208Y-102007948D01*
X123840857Y-102329775D01*
X124409000Y-102442786D01*
X124977143Y-102329775D01*
X125458792Y-102007948D01*
X125679000Y-101678383D01*
X125899208Y-102007948D01*
X126380857Y-102329775D01*
X126949000Y-102442786D01*
X127517143Y-102329775D01*
X127998792Y-102007948D01*
X128320619Y-101526299D01*
X128433630Y-100958156D01*
X128433630Y-99063844D01*
X128320619Y-98495701D01*
X128127000Y-98205929D01*
X128127000Y-89536878D01*
X128176919Y-89487046D01*
X128334820Y-89106777D01*
X128334821Y-89104971D01*
X128464821Y-89104971D01*
X128622058Y-89485515D01*
X128912954Y-89776919D01*
X129293223Y-89934820D01*
X129704971Y-89935179D01*
X130085515Y-89777942D01*
X130376919Y-89487046D01*
X130534820Y-89106777D01*
X130535179Y-88695029D01*
X130377942Y-88314485D01*
X130087046Y-88023081D01*
X129706777Y-87865180D01*
X129295029Y-87864821D01*
X128914485Y-88022058D01*
X128623081Y-88312954D01*
X128465180Y-88693223D01*
X128464821Y-89104971D01*
X128334821Y-89104971D01*
X128335179Y-88695029D01*
X128177942Y-88314485D01*
X128127000Y-88263454D01*
X128127000Y-87127000D01*
X129564889Y-87127000D01*
X129564821Y-87204971D01*
X129722058Y-87585515D01*
X130012954Y-87876919D01*
X130393223Y-88034820D01*
X130804971Y-88035179D01*
X131185515Y-87877942D01*
X131476919Y-87587046D01*
X131634820Y-87206777D01*
X131634890Y-87127000D01*
X141100000Y-87127000D01*
X141149410Y-87116994D01*
X141191035Y-87088553D01*
X141218315Y-87046159D01*
X141227000Y-87000000D01*
X141227000Y-75204971D01*
X141364821Y-75204971D01*
X141522058Y-75585515D01*
X141812954Y-75876919D01*
X142193223Y-76034820D01*
X142604971Y-76035179D01*
X142985515Y-75877942D01*
X143276919Y-75587046D01*
X143434820Y-75206777D01*
X143435179Y-74795029D01*
X143277942Y-74414485D01*
X142987046Y-74123081D01*
X142606777Y-73965180D01*
X142195029Y-73964821D01*
X141814485Y-74122058D01*
X141523081Y-74412954D01*
X141365180Y-74793223D01*
X141364821Y-75204971D01*
X141227000Y-75204971D01*
X141227000Y-64190466D01*
X141512954Y-64476919D01*
X141893223Y-64634820D01*
X142304971Y-64635179D01*
X142685515Y-64477942D01*
X142976919Y-64187046D01*
X143134820Y-63806777D01*
X143135179Y-63395029D01*
X142977942Y-63014485D01*
X142687046Y-62723081D01*
X142306777Y-62565180D01*
X141986115Y-62564900D01*
X142134820Y-62206777D01*
X142135179Y-61795029D01*
X141977942Y-61414485D01*
X141687046Y-61123081D01*
X141306777Y-60965180D01*
X141227000Y-60965110D01*
X141227000Y-57336529D01*
X141476919Y-57087046D01*
X141634820Y-56706777D01*
X141635179Y-56295029D01*
X141477942Y-55914485D01*
X141227000Y-55663105D01*
X141227000Y-54000000D01*
X141216994Y-53950590D01*
X141188553Y-53908965D01*
X141146159Y-53881685D01*
X141100000Y-53873000D01*
X137863274Y-53873000D01*
X137875515Y-53867942D01*
X138166919Y-53577046D01*
X138324820Y-53196777D01*
X138325179Y-52785029D01*
X138167942Y-52404485D01*
X137877046Y-52113081D01*
X137496777Y-51955180D01*
X137085029Y-51954821D01*
X136704485Y-52112058D01*
X136413081Y-52402954D01*
X136255180Y-52783223D01*
X136254821Y-53194971D01*
X136412058Y-53575515D01*
X136702954Y-53866919D01*
X136717599Y-53873000D01*
X130040728Y-53873000D01*
X130176919Y-53737046D01*
X130334820Y-53356777D01*
X130335179Y-52945029D01*
X130177942Y-52564485D01*
X129887046Y-52273081D01*
X129506777Y-52115180D01*
X129095029Y-52114821D01*
X128714485Y-52272058D01*
X128423081Y-52562954D01*
X128265180Y-52943223D01*
X128264821Y-53354971D01*
X128422058Y-53735515D01*
X128559303Y-53873000D01*
X128127000Y-53873000D01*
X128127000Y-50127000D01*
X134263296Y-50127000D01*
X134412954Y-50276919D01*
X134412954Y-50276919D01*
G37*
X134412954Y-50276919D02*
X134793223Y-50434820D01*
X135204971Y-50435179D01*
X135585515Y-50277942D01*
X135736721Y-50127000D01*
X144373000Y-50127000D01*
X144373000Y-59797880D01*
X144314485Y-59822058D01*
X144023081Y-60112954D01*
X143865180Y-60493223D01*
X143864821Y-60904971D01*
X144022058Y-61285515D01*
X144312954Y-61576919D01*
X144373000Y-61601852D01*
X144373000Y-69092678D01*
X144306777Y-69065180D01*
X143895029Y-69064821D01*
X143514485Y-69222058D01*
X143223081Y-69512954D01*
X143150824Y-69686970D01*
X143087046Y-69623081D01*
X142706777Y-69465180D01*
X142295029Y-69464821D01*
X141914485Y-69622058D01*
X141623081Y-69912954D01*
X141465180Y-70293223D01*
X141464821Y-70704971D01*
X141622058Y-71085515D01*
X141912954Y-71376919D01*
X142293223Y-71534820D01*
X142704971Y-71535179D01*
X143085515Y-71377942D01*
X143376919Y-71087046D01*
X143449176Y-70913030D01*
X143512954Y-70976919D01*
X143765103Y-71081620D01*
X143764821Y-71404971D01*
X143922058Y-71785515D01*
X144212954Y-72076919D01*
X144373000Y-72143376D01*
X144373000Y-76875725D01*
X144106777Y-76765180D01*
X143695029Y-76764821D01*
X143314485Y-76922058D01*
X143023081Y-77212954D01*
X142865180Y-77593223D01*
X142864821Y-78004971D01*
X143022058Y-78385515D01*
X143312954Y-78676919D01*
X143693223Y-78834820D01*
X144104971Y-78835179D01*
X144373000Y-78724432D01*
X144373000Y-104873000D01*
X142827000Y-104873000D01*
X142827000Y-92300000D01*
X142816994Y-92250590D01*
X142788553Y-92208965D01*
X142746159Y-92181685D01*
X142700000Y-92173000D01*
X130700000Y-92173000D01*
X130650590Y-92183006D01*
X130608965Y-92211447D01*
X130581685Y-92253841D01*
X130573003Y-92300927D01*
X130672069Y-105873000D01*
X68127000Y-105873000D01*
X68127000Y-104214440D01*
X68630600Y-104214440D01*
X68865917Y-104170162D01*
X69082041Y-104031090D01*
X69227031Y-103818890D01*
X69235400Y-103777561D01*
X69247330Y-103795415D01*
X69733511Y-104120271D01*
X70307000Y-104234345D01*
X70880489Y-104120271D01*
X71366670Y-103795415D01*
X71577000Y-103480634D01*
X71787330Y-103795415D01*
X72273511Y-104120271D01*
X72847000Y-104234345D01*
X73420489Y-104120271D01*
X73906670Y-103795415D01*
X74113461Y-103485931D01*
X74484964Y-103901732D01*
X75012209Y-104155709D01*
X75027974Y-104158358D01*
X75260000Y-104037217D01*
X75260000Y-102678000D01*
X75514000Y-102678000D01*
X75514000Y-104037217D01*
X75746026Y-104158358D01*
X75761791Y-104155709D01*
X76289036Y-103901732D01*
X76678954Y-103465320D01*
X76872184Y-102912913D01*
X76727924Y-102678000D01*
X75514000Y-102678000D01*
X75260000Y-102678000D01*
X75240000Y-102678000D01*
X75240000Y-102424000D01*
X75260000Y-102424000D01*
X75260000Y-102404000D01*
X75514000Y-102404000D01*
X75514000Y-102424000D01*
X76727924Y-102424000D01*
X76872184Y-102189087D01*
X76678954Y-101636680D01*
X76289036Y-101200268D01*
X76136935Y-101127000D01*
X79447000Y-101127000D01*
X79416180Y-101201223D01*
X79415821Y-101612971D01*
X79573058Y-101993515D01*
X79863954Y-102284919D01*
X80244223Y-102442820D01*
X80655971Y-102443179D01*
X81036515Y-102285942D01*
X81327919Y-101995046D01*
X81485820Y-101614777D01*
X81486179Y-101203029D01*
X81454765Y-101127000D01*
X98865344Y-101127000D01*
X98765180Y-101368223D01*
X98764821Y-101779971D01*
X98922058Y-102160515D01*
X99212954Y-102451919D01*
X99593223Y-102609820D01*
X100004971Y-102610179D01*
X100385515Y-102452942D01*
X100404642Y-102433848D01*
X100768223Y-102584820D01*
X101179971Y-102585179D01*
X101560515Y-102427942D01*
X101587292Y-102401212D01*
X101612954Y-102426919D01*
X101993223Y-102584820D01*
X102404971Y-102585179D01*
X102785515Y-102427942D01*
X103076919Y-102137046D01*
X103234820Y-101756777D01*
X103235179Y-101345029D01*
X103145092Y-101127000D01*
X120417955Y-101127000D01*
X120497381Y-101526299D01*
X120819208Y-102007948D01*
X121300857Y-102329775D01*
X121869000Y-102442786D01*
X122437143Y-102329775D01*
X122918792Y-102007948D01*
X123139000Y-101678383D01*
X123359208Y-102007948D01*
X123840857Y-102329775D01*
X124409000Y-102442786D01*
X124977143Y-102329775D01*
X125458792Y-102007948D01*
X125679000Y-101678383D01*
X125899208Y-102007948D01*
X126380857Y-102329775D01*
X126949000Y-102442786D01*
X127517143Y-102329775D01*
X127998792Y-102007948D01*
X128320619Y-101526299D01*
X128433630Y-100958156D01*
X128433630Y-99063844D01*
X128320619Y-98495701D01*
X128127000Y-98205929D01*
X128127000Y-89536878D01*
X128176919Y-89487046D01*
X128334820Y-89106777D01*
X128334821Y-89104971D01*
X128464821Y-89104971D01*
X128622058Y-89485515D01*
X128912954Y-89776919D01*
X129293223Y-89934820D01*
X129704971Y-89935179D01*
X130085515Y-89777942D01*
X130376919Y-89487046D01*
X130534820Y-89106777D01*
X130535179Y-88695029D01*
X130377942Y-88314485D01*
X130087046Y-88023081D01*
X129706777Y-87865180D01*
X129295029Y-87864821D01*
X128914485Y-88022058D01*
X128623081Y-88312954D01*
X128465180Y-88693223D01*
X128464821Y-89104971D01*
X128334821Y-89104971D01*
X128335179Y-88695029D01*
X128177942Y-88314485D01*
X128127000Y-88263454D01*
X128127000Y-87127000D01*
X129564889Y-87127000D01*
X129564821Y-87204971D01*
X129722058Y-87585515D01*
X130012954Y-87876919D01*
X130393223Y-88034820D01*
X130804971Y-88035179D01*
X131185515Y-87877942D01*
X131476919Y-87587046D01*
X131634820Y-87206777D01*
X131634890Y-87127000D01*
X141100000Y-87127000D01*
X141149410Y-87116994D01*
X141191035Y-87088553D01*
X141218315Y-87046159D01*
X141227000Y-87000000D01*
X141227000Y-75204971D01*
X141364821Y-75204971D01*
X141522058Y-75585515D01*
X141812954Y-75876919D01*
X142193223Y-76034820D01*
X142604971Y-76035179D01*
X142985515Y-75877942D01*
X143276919Y-75587046D01*
X143434820Y-75206777D01*
X143435179Y-74795029D01*
X143277942Y-74414485D01*
X142987046Y-74123081D01*
X142606777Y-73965180D01*
X142195029Y-73964821D01*
X141814485Y-74122058D01*
X141523081Y-74412954D01*
X141365180Y-74793223D01*
X141364821Y-75204971D01*
X141227000Y-75204971D01*
X141227000Y-64190466D01*
X141512954Y-64476919D01*
X141893223Y-64634820D01*
X142304971Y-64635179D01*
X142685515Y-64477942D01*
X142976919Y-64187046D01*
X143134820Y-63806777D01*
X143135179Y-63395029D01*
X142977942Y-63014485D01*
X142687046Y-62723081D01*
X142306777Y-62565180D01*
X141986115Y-62564900D01*
X142134820Y-62206777D01*
X142135179Y-61795029D01*
X141977942Y-61414485D01*
X141687046Y-61123081D01*
X141306777Y-60965180D01*
X141227000Y-60965110D01*
X141227000Y-57336529D01*
X141476919Y-57087046D01*
X141634820Y-56706777D01*
X141635179Y-56295029D01*
X141477942Y-55914485D01*
X141227000Y-55663105D01*
X141227000Y-54000000D01*
X141216994Y-53950590D01*
X141188553Y-53908965D01*
X141146159Y-53881685D01*
X141100000Y-53873000D01*
X137863274Y-53873000D01*
X137875515Y-53867942D01*
X138166919Y-53577046D01*
X138324820Y-53196777D01*
X138325179Y-52785029D01*
X138167942Y-52404485D01*
X137877046Y-52113081D01*
X137496777Y-51955180D01*
X137085029Y-51954821D01*
X136704485Y-52112058D01*
X136413081Y-52402954D01*
X136255180Y-52783223D01*
X136254821Y-53194971D01*
X136412058Y-53575515D01*
X136702954Y-53866919D01*
X136717599Y-53873000D01*
X130040728Y-53873000D01*
X130176919Y-53737046D01*
X130334820Y-53356777D01*
X130335179Y-52945029D01*
X130177942Y-52564485D01*
X129887046Y-52273081D01*
X129506777Y-52115180D01*
X129095029Y-52114821D01*
X128714485Y-52272058D01*
X128423081Y-52562954D01*
X128265180Y-52943223D01*
X128264821Y-53354971D01*
X128422058Y-53735515D01*
X128559303Y-53873000D01*
X128127000Y-53873000D01*
X128127000Y-50127000D01*
X134263296Y-50127000D01*
X134412954Y-50276919D01*
M02*
