M48
;DRILL file {KiCad 4.0.6} date 06/02/17 15:16:21
;FORMAT={-:-/ absolute / inch / decimal}
FMAT,2
INCH,TZ
T1C0.016
T2C0.031
T3C0.033
T4C0.039
T5C0.039
T6C0.040
T7C0.055
T8C0.091
T9C0.120
%
G90
G05
M72
T1
X1.335Y-3.17
X1.3376Y-3.311
X1.395Y-2.86
X1.4009Y-2.3102
X1.455Y-3.24
X1.6776Y-2.5581
X1.8504Y-2.4724
X1.8504Y-2.2835
X1.9449Y-2.0472
X2.1496Y-2.4961
X2.1654Y-2.5984
X2.2638Y-2.5984
X2.7047Y-3.063
X2.7126Y-4.122
X2.7205Y-3.9606
X2.828Y-3.5324
X2.8937Y-2.5315
X2.8957Y-2.2441
X3.038Y-3.5024
X3.1674Y-3.9924
X3.248Y-3.5274
X3.248Y-3.8611
X3.3425Y-2.1181
X3.408Y-3.5274
X3.8563Y-2.0709
X3.8898Y-3.1142
X3.8898Y-3.1535
X3.9252Y-3.7539
X3.9291Y-3.999
X3.9754Y-3.7559
X3.9754Y-3.998
X3.9961Y-2.0787
X4.0079Y-3.0157
X4.0197Y-3.6339
X4.0236Y-3.998
X4.0256Y-3.7559
X4.0394Y-2.0118
X4.0787Y-2.9094
X4.1181Y-2.0787
X4.126Y-2.9291
X4.1299Y-3.185
X4.1457Y-3.685
X4.1811Y-2.9094
X4.2283Y-3.0197
X4.2402Y-2.6693
X4.252Y-3.1693
X4.2559Y-2.9252
X4.2795Y-2.4173
X4.2795Y-3.1142
X4.2913Y-3.2854
X4.315Y-2.0236
X4.3661Y-2.0236
X4.378Y-3.1417
X4.3898Y-1.9134
X4.4291Y-3.5039
X4.4409Y-1.8937
X4.4488Y-2.2205
X4.4724Y-2.9606
X4.4724Y-3.0394
X4.5118Y-2.6378
X4.5157Y-2.2205
X4.5354Y-2.6693
X4.538Y-3.2974
X4.538Y-3.3524
X4.5709Y-2.2205
X4.5748Y-2.6614
X4.5846Y-2.9252
X4.593Y-3.2974
X4.593Y-3.3524
X4.6299Y-2.2165
X4.653Y-3.2974
X4.653Y-3.3524
X4.6614Y-3.2598
X4.6654Y-2.6654
X4.6654Y-3.1496
X4.6693Y-3.189
X4.6811Y-3.0472
X4.7283Y-2.2165
X4.7559Y-2.6654
X4.7559Y-3.4882
X4.7795Y-2.5
X4.788Y-3.5331
X4.7904Y-2.8738
X4.8287Y-1.8961
X4.8307Y-2.2165
X4.8583Y-2.8976
X4.8819Y-2.2894
X4.888Y-3.6724
X4.8898Y-2.8425
X4.9035Y-2.9606
X4.9134Y-3.0472
X4.9331Y-2.4252
X4.9606Y-2.6693
X4.9724Y-2.0906
X4.9843Y-1.1142
X5.0118Y-3.5
X5.0236Y-1.8465
X5.0236Y-2.9409
X5.0433Y-2.7008
X5.0669Y-3.7126
X5.0709Y-2.9409
X5.0827Y-2.4882
X5.0839Y-2.8665
X5.0866Y-2.7677
X5.0906Y-2.0925
X5.0984Y-3.5
X5.1063Y-2.0039
X5.1075Y-1.0858
X5.1181Y-2.6732
X5.1339Y-3.0472
X5.1339Y-3.1614
X5.1417Y-3.1181
X5.1417Y-3.4252
X5.1536Y-3.2824
X5.1575Y-1.0858
X5.1575Y-1.8992
X5.189Y-1.7559
X5.2075Y-1.1458
X5.2283Y-1.2283
X5.2283Y-2.0925
X5.2362Y-1.6358
X5.2362Y-1.7559
X5.2362Y-1.7953
X5.2362Y-3.0827
X5.2559Y-2.6299
X5.2575Y-1.0858
X5.2575Y-1.1458
X5.3031Y-1.6339
X5.3031Y-3.0906
X5.315Y-1.9449
X5.3465Y-1.9094
X5.3642Y-3.0315
X5.374Y-1.8819
X5.4051Y-2.0862
X5.4051Y-2.3862
X5.4291Y-2.4764
X5.4291Y-2.7913
X5.478Y-3.2624
X5.4843Y-2.7677
X5.5039Y-2.4764
X5.5354Y-2.2244
X5.5551Y-2.4409
X5.5787Y-3.5906
X5.5945Y-2.5039
X5.6063Y-2.9528
X5.6102Y-2.7756
X5.626Y-3.6496
X5.6654Y-3.063
X5.6732Y-2.7598
X5.6772Y-3.815
X5.6772Y-3.8701
X5.6772Y-3.9291
X5.685Y-3.5945
X5.7008Y-2.8031
X5.7047Y-2.3898
T2
X2.9795Y-2.1693
X2.9795Y-2.2693
X2.9795Y-2.3693
X2.9795Y-2.4693
X3.2795Y-2.1693
X3.2795Y-2.2693
X3.2795Y-2.3693
X3.2795Y-2.4693
T3
X4.9555Y-0.8848
X4.9555Y-0.9738
X5.3595Y-0.8848
X5.3595Y-0.9738
T4
X1.5374Y-3.2756
X2.8Y-2.15
X2.8Y-2.25
X2.8Y-2.35
X3.4Y-2.15
X3.4Y-2.25
X3.5805Y-2.1567
X3.5805Y-2.7567
X3.6805Y-2.1567
X3.6805Y-2.7567
X3.7805Y-2.1567
X3.7805Y-2.7567
X3.8805Y-2.1567
X3.8805Y-2.2567
X3.8805Y-2.7567
X3.9805Y-2.1567
X3.9805Y-2.2567
X3.9805Y-2.7567
X4.0805Y-2.1567
X4.0805Y-2.2567
X4.0805Y-2.7567
X4.1805Y-2.1567
X4.1805Y-2.7567
X4.2805Y-2.1567
X4.2805Y-2.7567
X4.3805Y-2.1567
X4.3805Y-2.7567
X4.4805Y-2.1567
X4.4805Y-2.7567
X4.5805Y-2.1567
X4.5805Y-2.7567
X4.6805Y-2.1567
X4.6805Y-2.7567
X4.7805Y-2.1567
X4.7805Y-2.7567
X4.8805Y-2.1567
X4.8805Y-2.7567
T5
X2.6395Y-3.3724
X2.798Y-3.6774
X2.798Y-3.7774
X2.798Y-3.8774
X2.8364Y-3.3724
X3.008Y-3.2324
X3.008Y-3.3324
X3.008Y-3.4324
X4.798Y-3.9374
X4.898Y-3.9374
X4.998Y-3.9374
T6
X2.668Y-3.1374
X2.668Y-4.0374
X2.768Y-3.1374
X2.768Y-4.0374
X2.868Y-3.1374
X2.868Y-4.0374
X2.968Y-4.0374
T7
X1.4016Y-2.4741
X1.4016Y-2.6911
T8
X1.8673Y-2.752
X2.3846Y-2.752
T9
X2.6772Y-4.2913
X5.6693Y-0.9843
X5.6693Y-4.2913
T0
M30
