M48
;DRILL file {KiCad 4.0.1-stable} date 2017-03-07 5:39:33 PM
;FORMAT={2:4/ absolute / inch / suppress leading zeros}
FMAT,2
INCH,TZ
T1C0.016
T2C0.031
T3C0.033
T4C0.039
T5C0.039
T6C0.040
T7C0.120
%
G90
G05
M72
T1
X11299Y-30630
X11457Y-39606
X12532Y-35324
X12717Y-20098
X14173Y-23858
X14632Y-35024
X15630Y-21654
X15926Y-39924
X16378Y-23740
X16417Y-23189
X16732Y-38611
X17087Y-22559
X17480Y-22953
X18110Y-24213
X23150Y-31142
X23150Y-31535
X23504Y-37539
X23543Y-39990
X23780Y-29449
X24006Y-37559
X24006Y-39980
X24213Y-20787
X24449Y-36339
X24488Y-39980
X24508Y-37559
X24646Y-20118
X25039Y-29094
X25433Y-20787
X25512Y-29291
X25551Y-31850
X25709Y-36850
X26063Y-29094
X26535Y-30197
X26654Y-26693
X26772Y-31693
X26811Y-29252
X27047Y-24173
X27047Y-31142
X27165Y-32854
X27402Y-20236
X27913Y-20236
X28031Y-31417
X28150Y-19134
X28543Y-35039
X28661Y-18937
X28661Y-19882
X28740Y-22205
X28976Y-30394
X29370Y-26378
X29409Y-22205
X29606Y-26693
X29632Y-32974
X29632Y-33524
X29961Y-22205
X30000Y-26614
X30098Y-29252
X30182Y-32974
X30182Y-33524
X30551Y-22165
X30782Y-32974
X30782Y-33524
X30866Y-32598
X30906Y-26654
X30906Y-31496
X30945Y-31890
X31063Y-30472
X31535Y-22165
X31811Y-26654
X31811Y-34882
X32008Y-19252
X32047Y-25000
X32132Y-35331
X32559Y-22165
X32835Y-28976
X33071Y-17165
X33071Y-22894
X33132Y-36724
X33150Y-28425
X33287Y-29606
X33386Y-30472
X33583Y-24252
X33858Y-26693
X34055Y-17165
X34488Y-29409
X34685Y-27008
X34961Y-29409
X35091Y-28665
X35327Y-10858
X35433Y-26732
X35591Y-30472
X35591Y-31614
X35669Y-31181
X35669Y-34252
X35827Y-10858
X36142Y-17559
X36327Y-11458
X36535Y-12283
X36614Y-16358
X36614Y-17559
X36614Y-17953
X36827Y-10858
X36827Y-11458
X37283Y-16339
X37283Y-30906
X37441Y-19370
X37717Y-19094
X38110Y-19134
X38268Y-27717
X38425Y-23346
X38976Y-27559
X39032Y-32624
X39055Y-22618
X39213Y-23937
X39331Y-23346
X39803Y-30118
X40276Y-26496
X40433Y-23661
X40866Y-22618
T2
X11378Y-41220
X11843Y-21988
X11843Y-22988
X11843Y-23988
X11843Y-24988
X11843Y-25988
X11843Y-26988
X11843Y-27988
X12539Y-24035
X14843Y-21988
X14843Y-22988
X14843Y-23988
X14843Y-24988
X14843Y-25988
X14843Y-26988
X14843Y-27988
X16457Y-20256
X16732Y-35274
X18332Y-35274
X22815Y-20709
X28976Y-29606
X32156Y-28738
X34370Y-35000
X34921Y-37126
X35079Y-24882
X35118Y-27677
X35236Y-35000
X35315Y-20039
X35788Y-32824
X36614Y-30827
X36811Y-26299
X37894Y-30315
X39055Y-19016
X39291Y-27953
X40039Y-35906
X40157Y-16024
X40512Y-36496
X40787Y-19567
X41024Y-38150
X41024Y-38701
X41024Y-39291
X41102Y-35945
X41299Y-27953
T3
X33807Y-8848
X33807Y-9738
X37847Y-8848
X37847Y-9738
T4
X20057Y-21567
X20057Y-27567
X21057Y-21567
X21057Y-27567
X22057Y-21567
X22057Y-27567
X23057Y-21567
X23057Y-22567
X23057Y-27567
X24057Y-21567
X24057Y-22567
X24057Y-27567
X25057Y-21567
X25057Y-22567
X25057Y-27567
X26057Y-21567
X26057Y-27567
X27057Y-21567
X27057Y-27567
X28057Y-21567
X28057Y-27567
X29057Y-21567
X29057Y-27567
X30057Y-21567
X30057Y-27567
X31057Y-21567
X31057Y-27567
X32057Y-21567
X32057Y-27567
X33057Y-21567
X33057Y-27567
T5
X10647Y-33724
X12232Y-36774
X12232Y-37774
X12232Y-38774
X12616Y-33724
X14332Y-32324
X14332Y-33324
X14332Y-34324
X32232Y-39374
X33232Y-39374
X34232Y-39374
T6
X10831Y-22472
X10831Y-23472
X10831Y-24472
X10831Y-25472
X10932Y-31374
X10932Y-40374
X11932Y-31374
X11932Y-40374
X12932Y-31374
X12932Y-40374
X13932Y-40374
X15831Y-22472
X15831Y-23472
X15831Y-24472
X15831Y-25472
T7
X11024Y-42913
X40945Y-9843
X40945Y-42913
T0
M30
