G04 #@! TF.FileFunction,Legend,Bot*
%FSLAX46Y46*%
G04 Gerber Fmt 4.6, Leading zero omitted, Abs format (unit mm)*
G04 Created by KiCad (PCBNEW 4.0.1-stable) date 2016-12-19 1:07:11 AM*
%MOMM*%
G01*
G04 APERTURE LIST*
%ADD10C,0.150000*%
G04 APERTURE END LIST*
D10*
X39265000Y-36005000D02*
X39265000Y-37275000D01*
X31915000Y-36005000D02*
X31915000Y-37275000D01*
X31915000Y-55835000D02*
X31915000Y-54565000D01*
X39265000Y-55835000D02*
X39265000Y-54565000D01*
X39265000Y-36005000D02*
X31915000Y-36005000D01*
X39265000Y-55835000D02*
X31915000Y-55835000D01*
X39265000Y-37275000D02*
X40200000Y-37275000D01*
X40086000Y-65184000D02*
X38689000Y-65184000D01*
X40086000Y-62644000D02*
X38689000Y-62644000D01*
X40086000Y-60104000D02*
X38689000Y-60104000D01*
X55681472Y-62644000D02*
G75*
G03X55681472Y-62644000I-2514472J0D01*
G01*
X48595000Y-57310000D02*
X56596000Y-57310000D01*
X56596000Y-57310000D02*
X56596000Y-67978000D01*
X56596000Y-67978000D02*
X48595000Y-67978000D01*
X40086000Y-57310000D02*
X48595000Y-57310000D01*
X48595000Y-57310000D02*
X48595000Y-67978000D01*
X48595000Y-67978000D02*
X40086000Y-67978000D01*
X40086000Y-62644000D02*
X40086000Y-67978000D01*
X40086000Y-62644000D02*
X40086000Y-57310000D01*
X34752000Y-76487000D02*
X33355000Y-76487000D01*
X34752000Y-73947000D02*
X33355000Y-73947000D01*
X34752000Y-71407000D02*
X33355000Y-71407000D01*
X50347472Y-73947000D02*
G75*
G03X50347472Y-73947000I-2514472J0D01*
G01*
X43261000Y-68613000D02*
X51262000Y-68613000D01*
X51262000Y-68613000D02*
X51262000Y-79281000D01*
X51262000Y-79281000D02*
X43261000Y-79281000D01*
X34752000Y-68613000D02*
X43261000Y-68613000D01*
X43261000Y-68613000D02*
X43261000Y-79281000D01*
X43261000Y-79281000D02*
X34752000Y-79281000D01*
X34752000Y-73947000D02*
X34752000Y-79281000D01*
X34752000Y-73947000D02*
X34752000Y-68613000D01*
X86949000Y-74328000D02*
X86949000Y-75725000D01*
X84409000Y-74328000D02*
X84409000Y-75725000D01*
X81869000Y-74328000D02*
X81869000Y-75725000D01*
X86923472Y-61247000D02*
G75*
G03X86923472Y-61247000I-2514472J0D01*
G01*
X79075000Y-65819000D02*
X79075000Y-57818000D01*
X79075000Y-57818000D02*
X89743000Y-57818000D01*
X89743000Y-57818000D02*
X89743000Y-65819000D01*
X79075000Y-74328000D02*
X79075000Y-65819000D01*
X79075000Y-65819000D02*
X89743000Y-65819000D01*
X89743000Y-65819000D02*
X89743000Y-74328000D01*
X84409000Y-74328000D02*
X89743000Y-74328000D01*
X84409000Y-74328000D02*
X79075000Y-74328000D01*
X96020000Y-49540000D02*
X96020000Y-44460000D01*
X96020000Y-44460000D02*
X106180000Y-44460000D01*
X106180000Y-44460000D02*
X106180000Y-49540000D01*
X106180000Y-49540000D02*
X96020000Y-49540000D01*
X96020000Y-48270000D02*
X97290000Y-48270000D01*
X97290000Y-48270000D02*
X97290000Y-45730000D01*
X97290000Y-45730000D02*
X96020000Y-45730000D01*
X94280000Y-44560000D02*
X94280000Y-49640000D01*
X94280000Y-49640000D02*
X84120000Y-49640000D01*
X84120000Y-49640000D02*
X84120000Y-44560000D01*
X84120000Y-44560000D02*
X94280000Y-44560000D01*
X94280000Y-45830000D02*
X93010000Y-45830000D01*
X93010000Y-45830000D02*
X93010000Y-48370000D01*
X93010000Y-48370000D02*
X94280000Y-48370000D01*
X104400000Y-52350000D02*
X105400000Y-52350000D01*
X105400000Y-54050000D02*
X104400000Y-54050000D01*
X101600000Y-54050000D02*
X100600000Y-54050000D01*
X100600000Y-52350000D02*
X101600000Y-52350000D01*
X103100000Y-41675000D02*
X104300000Y-41675000D01*
X104300000Y-39925000D02*
X103100000Y-39925000D01*
X98000000Y-40975000D02*
X99200000Y-40975000D01*
X99200000Y-39225000D02*
X98000000Y-39225000D01*
X93400000Y-56075000D02*
X94600000Y-56075000D01*
X94600000Y-54325000D02*
X93400000Y-54325000D01*
X85100000Y-52325000D02*
X83900000Y-52325000D01*
X83900000Y-54075000D02*
X85100000Y-54075000D01*
X94600000Y-52625000D02*
X93400000Y-52625000D01*
X93400000Y-54375000D02*
X94600000Y-54375000D01*
X86275000Y-41200000D02*
X86275000Y-40000000D01*
X84525000Y-40000000D02*
X84525000Y-41200000D01*
X69125000Y-37200000D02*
X69125000Y-38400000D01*
X70875000Y-38400000D02*
X70875000Y-37200000D01*
X66525000Y-37200000D02*
X66525000Y-38400000D01*
X68275000Y-38400000D02*
X68275000Y-37200000D01*
X36801190Y-35477381D02*
X36801190Y-34477381D01*
X35753571Y-35382143D02*
X35801190Y-35429762D01*
X35944047Y-35477381D01*
X36039285Y-35477381D01*
X36182143Y-35429762D01*
X36277381Y-35334524D01*
X36325000Y-35239286D01*
X36372619Y-35048810D01*
X36372619Y-34905952D01*
X36325000Y-34715476D01*
X36277381Y-34620238D01*
X36182143Y-34525000D01*
X36039285Y-34477381D01*
X35944047Y-34477381D01*
X35801190Y-34525000D01*
X35753571Y-34572619D01*
X34801190Y-35477381D02*
X35372619Y-35477381D01*
X35086905Y-35477381D02*
X35086905Y-34477381D01*
X35182143Y-34620238D01*
X35277381Y-34715476D01*
X35372619Y-34763095D01*
X59800459Y-62299842D02*
X59752840Y-62204604D01*
X59657602Y-62109366D01*
X59514745Y-61966509D01*
X59467126Y-61871270D01*
X59467126Y-61776032D01*
X59705221Y-61823651D02*
X59657602Y-61728413D01*
X59562364Y-61633175D01*
X59371888Y-61585556D01*
X59038554Y-61585556D01*
X58848078Y-61633175D01*
X58752840Y-61728413D01*
X58705221Y-61823651D01*
X58705221Y-62014128D01*
X58752840Y-62109366D01*
X58848078Y-62204604D01*
X59038554Y-62252223D01*
X59371888Y-62252223D01*
X59562364Y-62204604D01*
X59657602Y-62109366D01*
X59705221Y-62014128D01*
X59705221Y-61823651D01*
X58705221Y-63109366D02*
X58705221Y-62918889D01*
X58752840Y-62823651D01*
X58800459Y-62776032D01*
X58943316Y-62680794D01*
X59133792Y-62633175D01*
X59514745Y-62633175D01*
X59609983Y-62680794D01*
X59657602Y-62728413D01*
X59705221Y-62823651D01*
X59705221Y-63014128D01*
X59657602Y-63109366D01*
X59609983Y-63156985D01*
X59514745Y-63204604D01*
X59276650Y-63204604D01*
X59181411Y-63156985D01*
X59133792Y-63109366D01*
X59086173Y-63014128D01*
X59086173Y-62823651D01*
X59133792Y-62728413D01*
X59181411Y-62680794D01*
X59276650Y-62633175D01*
X54466459Y-73602842D02*
X54418840Y-73507604D01*
X54323602Y-73412366D01*
X54180745Y-73269509D01*
X54133126Y-73174270D01*
X54133126Y-73079032D01*
X54371221Y-73126651D02*
X54323602Y-73031413D01*
X54228364Y-72936175D01*
X54037888Y-72888556D01*
X53704554Y-72888556D01*
X53514078Y-72936175D01*
X53418840Y-73031413D01*
X53371221Y-73126651D01*
X53371221Y-73317128D01*
X53418840Y-73412366D01*
X53514078Y-73507604D01*
X53704554Y-73555223D01*
X54037888Y-73555223D01*
X54228364Y-73507604D01*
X54323602Y-73412366D01*
X54371221Y-73317128D01*
X54371221Y-73126651D01*
X53371221Y-74459985D02*
X53371221Y-73983794D01*
X53847411Y-73936175D01*
X53799792Y-73983794D01*
X53752173Y-74079032D01*
X53752173Y-74317128D01*
X53799792Y-74412366D01*
X53847411Y-74459985D01*
X53942650Y-74507604D01*
X54180745Y-74507604D01*
X54275983Y-74459985D01*
X54323602Y-74412366D01*
X54371221Y-74317128D01*
X54371221Y-74079032D01*
X54323602Y-73983794D01*
X54275983Y-73936175D01*
X86847238Y-56616619D02*
X86942476Y-56569000D01*
X87037714Y-56473762D01*
X87180571Y-56330905D01*
X87275810Y-56283286D01*
X87371048Y-56283286D01*
X87323429Y-56521381D02*
X87418667Y-56473762D01*
X87513905Y-56378524D01*
X87561524Y-56188048D01*
X87561524Y-55854714D01*
X87513905Y-55664238D01*
X87418667Y-55569000D01*
X87323429Y-55521381D01*
X87132952Y-55521381D01*
X87037714Y-55569000D01*
X86942476Y-55664238D01*
X86894857Y-55854714D01*
X86894857Y-56188048D01*
X86942476Y-56378524D01*
X87037714Y-56473762D01*
X87132952Y-56521381D01*
X87323429Y-56521381D01*
X85942476Y-56521381D02*
X86513905Y-56521381D01*
X86228191Y-56521381D02*
X86228191Y-55521381D01*
X86323429Y-55664238D01*
X86418667Y-55759476D01*
X86513905Y-55807095D01*
X106452381Y-46238095D02*
X107261905Y-46238095D01*
X107357143Y-46285714D01*
X107404762Y-46333333D01*
X107452381Y-46428571D01*
X107452381Y-46619048D01*
X107404762Y-46714286D01*
X107357143Y-46761905D01*
X107261905Y-46809524D01*
X106452381Y-46809524D01*
X106452381Y-47190476D02*
X106452381Y-47857143D01*
X107452381Y-47428571D01*
X82952381Y-46338095D02*
X83761905Y-46338095D01*
X83857143Y-46385714D01*
X83904762Y-46433333D01*
X83952381Y-46528571D01*
X83952381Y-46719048D01*
X83904762Y-46814286D01*
X83857143Y-46861905D01*
X83761905Y-46909524D01*
X82952381Y-46909524D01*
X82952381Y-47861905D02*
X82952381Y-47385714D01*
X83428571Y-47338095D01*
X83380952Y-47385714D01*
X83333333Y-47480952D01*
X83333333Y-47719048D01*
X83380952Y-47814286D01*
X83428571Y-47861905D01*
X83523810Y-47909524D01*
X83761905Y-47909524D01*
X83857143Y-47861905D01*
X83904762Y-47814286D01*
X83952381Y-47719048D01*
X83952381Y-47480952D01*
X83904762Y-47385714D01*
X83857143Y-47338095D01*
X106142857Y-55157143D02*
X106190476Y-55204762D01*
X106333333Y-55252381D01*
X106428571Y-55252381D01*
X106571429Y-55204762D01*
X106666667Y-55109524D01*
X106714286Y-55014286D01*
X106761905Y-54823810D01*
X106761905Y-54680952D01*
X106714286Y-54490476D01*
X106666667Y-54395238D01*
X106571429Y-54300000D01*
X106428571Y-54252381D01*
X106333333Y-54252381D01*
X106190476Y-54300000D01*
X106142857Y-54347619D01*
X105190476Y-55252381D02*
X105761905Y-55252381D01*
X105476191Y-55252381D02*
X105476191Y-54252381D01*
X105571429Y-54395238D01*
X105666667Y-54490476D01*
X105761905Y-54538095D01*
X104809524Y-54347619D02*
X104761905Y-54300000D01*
X104666667Y-54252381D01*
X104428571Y-54252381D01*
X104333333Y-54300000D01*
X104285714Y-54347619D01*
X104238095Y-54442857D01*
X104238095Y-54538095D01*
X104285714Y-54680952D01*
X104857143Y-55252381D01*
X104238095Y-55252381D01*
X102757143Y-54757143D02*
X102804762Y-54709524D01*
X102852381Y-54566667D01*
X102852381Y-54471429D01*
X102804762Y-54328571D01*
X102709524Y-54233333D01*
X102614286Y-54185714D01*
X102423810Y-54138095D01*
X102280952Y-54138095D01*
X102090476Y-54185714D01*
X101995238Y-54233333D01*
X101900000Y-54328571D01*
X101852381Y-54471429D01*
X101852381Y-54566667D01*
X101900000Y-54709524D01*
X101947619Y-54757143D01*
X102852381Y-55709524D02*
X102852381Y-55138095D01*
X102852381Y-55423809D02*
X101852381Y-55423809D01*
X101995238Y-55328571D01*
X102090476Y-55233333D01*
X102138095Y-55138095D01*
X101852381Y-56042857D02*
X101852381Y-56661905D01*
X102233333Y-56328571D01*
X102233333Y-56471429D01*
X102280952Y-56566667D01*
X102328571Y-56614286D01*
X102423810Y-56661905D01*
X102661905Y-56661905D01*
X102757143Y-56614286D01*
X102804762Y-56566667D01*
X102852381Y-56471429D01*
X102852381Y-56185714D01*
X102804762Y-56090476D01*
X102757143Y-56042857D01*
X104442857Y-39752381D02*
X104776191Y-39276190D01*
X105014286Y-39752381D02*
X105014286Y-38752381D01*
X104633333Y-38752381D01*
X104538095Y-38800000D01*
X104490476Y-38847619D01*
X104442857Y-38942857D01*
X104442857Y-39085714D01*
X104490476Y-39180952D01*
X104538095Y-39228571D01*
X104633333Y-39276190D01*
X105014286Y-39276190D01*
X104061905Y-38847619D02*
X104014286Y-38800000D01*
X103919048Y-38752381D01*
X103680952Y-38752381D01*
X103585714Y-38800000D01*
X103538095Y-38847619D01*
X103490476Y-38942857D01*
X103490476Y-39038095D01*
X103538095Y-39180952D01*
X104109524Y-39752381D01*
X103490476Y-39752381D01*
X102633333Y-39085714D02*
X102633333Y-39752381D01*
X102871429Y-38704762D02*
X103109524Y-39419048D01*
X102490476Y-39419048D01*
X99242857Y-39152381D02*
X99576191Y-38676190D01*
X99814286Y-39152381D02*
X99814286Y-38152381D01*
X99433333Y-38152381D01*
X99338095Y-38200000D01*
X99290476Y-38247619D01*
X99242857Y-38342857D01*
X99242857Y-38485714D01*
X99290476Y-38580952D01*
X99338095Y-38628571D01*
X99433333Y-38676190D01*
X99814286Y-38676190D01*
X98861905Y-38247619D02*
X98814286Y-38200000D01*
X98719048Y-38152381D01*
X98480952Y-38152381D01*
X98385714Y-38200000D01*
X98338095Y-38247619D01*
X98290476Y-38342857D01*
X98290476Y-38438095D01*
X98338095Y-38580952D01*
X98909524Y-39152381D01*
X98290476Y-39152381D01*
X97719048Y-38580952D02*
X97814286Y-38533333D01*
X97861905Y-38485714D01*
X97909524Y-38390476D01*
X97909524Y-38342857D01*
X97861905Y-38247619D01*
X97814286Y-38200000D01*
X97719048Y-38152381D01*
X97528571Y-38152381D01*
X97433333Y-38200000D01*
X97385714Y-38247619D01*
X97338095Y-38342857D01*
X97338095Y-38390476D01*
X97385714Y-38485714D01*
X97433333Y-38533333D01*
X97528571Y-38580952D01*
X97719048Y-38580952D01*
X97814286Y-38628571D01*
X97861905Y-38676190D01*
X97909524Y-38771429D01*
X97909524Y-38961905D01*
X97861905Y-39057143D01*
X97814286Y-39104762D01*
X97719048Y-39152381D01*
X97528571Y-39152381D01*
X97433333Y-39104762D01*
X97385714Y-39057143D01*
X97338095Y-38961905D01*
X97338095Y-38771429D01*
X97385714Y-38676190D01*
X97433333Y-38628571D01*
X97528571Y-38580952D01*
X94642857Y-57176381D02*
X94976191Y-56700190D01*
X95214286Y-57176381D02*
X95214286Y-56176381D01*
X94833333Y-56176381D01*
X94738095Y-56224000D01*
X94690476Y-56271619D01*
X94642857Y-56366857D01*
X94642857Y-56509714D01*
X94690476Y-56604952D01*
X94738095Y-56652571D01*
X94833333Y-56700190D01*
X95214286Y-56700190D01*
X93690476Y-57176381D02*
X94261905Y-57176381D01*
X93976191Y-57176381D02*
X93976191Y-56176381D01*
X94071429Y-56319238D01*
X94166667Y-56414476D01*
X94261905Y-56462095D01*
X93071429Y-56176381D02*
X92976190Y-56176381D01*
X92880952Y-56224000D01*
X92833333Y-56271619D01*
X92785714Y-56366857D01*
X92738095Y-56557333D01*
X92738095Y-56795429D01*
X92785714Y-56985905D01*
X92833333Y-57081143D01*
X92880952Y-57128762D01*
X92976190Y-57176381D01*
X93071429Y-57176381D01*
X93166667Y-57128762D01*
X93214286Y-57081143D01*
X93261905Y-56985905D01*
X93309524Y-56795429D01*
X93309524Y-56557333D01*
X93261905Y-56366857D01*
X93214286Y-56271619D01*
X93166667Y-56224000D01*
X93071429Y-56176381D01*
X86142857Y-55152381D02*
X86476191Y-54676190D01*
X86714286Y-55152381D02*
X86714286Y-54152381D01*
X86333333Y-54152381D01*
X86238095Y-54200000D01*
X86190476Y-54247619D01*
X86142857Y-54342857D01*
X86142857Y-54485714D01*
X86190476Y-54580952D01*
X86238095Y-54628571D01*
X86333333Y-54676190D01*
X86714286Y-54676190D01*
X85190476Y-55152381D02*
X85761905Y-55152381D01*
X85476191Y-55152381D02*
X85476191Y-54152381D01*
X85571429Y-54295238D01*
X85666667Y-54390476D01*
X85761905Y-54438095D01*
X84238095Y-55152381D02*
X84809524Y-55152381D01*
X84523810Y-55152381D02*
X84523810Y-54152381D01*
X84619048Y-54295238D01*
X84714286Y-54390476D01*
X84809524Y-54438095D01*
X91942857Y-53952381D02*
X92276191Y-53476190D01*
X92514286Y-53952381D02*
X92514286Y-52952381D01*
X92133333Y-52952381D01*
X92038095Y-53000000D01*
X91990476Y-53047619D01*
X91942857Y-53142857D01*
X91942857Y-53285714D01*
X91990476Y-53380952D01*
X92038095Y-53428571D01*
X92133333Y-53476190D01*
X92514286Y-53476190D01*
X90990476Y-53952381D02*
X91561905Y-53952381D01*
X91276191Y-53952381D02*
X91276191Y-52952381D01*
X91371429Y-53095238D01*
X91466667Y-53190476D01*
X91561905Y-53238095D01*
X90609524Y-53047619D02*
X90561905Y-53000000D01*
X90466667Y-52952381D01*
X90228571Y-52952381D01*
X90133333Y-53000000D01*
X90085714Y-53047619D01*
X90038095Y-53142857D01*
X90038095Y-53238095D01*
X90085714Y-53380952D01*
X90657143Y-53952381D01*
X90038095Y-53952381D01*
X84552381Y-40257143D02*
X84076190Y-39923809D01*
X84552381Y-39685714D02*
X83552381Y-39685714D01*
X83552381Y-40066667D01*
X83600000Y-40161905D01*
X83647619Y-40209524D01*
X83742857Y-40257143D01*
X83885714Y-40257143D01*
X83980952Y-40209524D01*
X84028571Y-40161905D01*
X84076190Y-40066667D01*
X84076190Y-39685714D01*
X84552381Y-41209524D02*
X84552381Y-40638095D01*
X84552381Y-40923809D02*
X83552381Y-40923809D01*
X83695238Y-40828571D01*
X83790476Y-40733333D01*
X83838095Y-40638095D01*
X83552381Y-41542857D02*
X83552381Y-42209524D01*
X84552381Y-41780952D01*
X70452381Y-40133334D02*
X69976190Y-39800000D01*
X70452381Y-39561905D02*
X69452381Y-39561905D01*
X69452381Y-39942858D01*
X69500000Y-40038096D01*
X69547619Y-40085715D01*
X69642857Y-40133334D01*
X69785714Y-40133334D01*
X69880952Y-40085715D01*
X69928571Y-40038096D01*
X69976190Y-39942858D01*
X69976190Y-39561905D01*
X69452381Y-40466667D02*
X69452381Y-41085715D01*
X69833333Y-40752381D01*
X69833333Y-40895239D01*
X69880952Y-40990477D01*
X69928571Y-41038096D01*
X70023810Y-41085715D01*
X70261905Y-41085715D01*
X70357143Y-41038096D01*
X70404762Y-40990477D01*
X70452381Y-40895239D01*
X70452381Y-40609524D01*
X70404762Y-40514286D01*
X70357143Y-40466667D01*
X67852381Y-40133334D02*
X67376190Y-39800000D01*
X67852381Y-39561905D02*
X66852381Y-39561905D01*
X66852381Y-39942858D01*
X66900000Y-40038096D01*
X66947619Y-40085715D01*
X67042857Y-40133334D01*
X67185714Y-40133334D01*
X67280952Y-40085715D01*
X67328571Y-40038096D01*
X67376190Y-39942858D01*
X67376190Y-39561905D01*
X67185714Y-40990477D02*
X67852381Y-40990477D01*
X66804762Y-40752381D02*
X67519048Y-40514286D01*
X67519048Y-41133334D01*
M02*
