G04 #@! TF.FileFunction,Copper,L3,Inr,Plane*
%FSLAX46Y46*%
G04 Gerber Fmt 4.6, Leading zero omitted, Abs format (unit mm)*
G04 Created by KiCad (PCBNEW 4.0.1-stable) date 2017-03-07 5:39:30 PM*
%MOMM*%
G01*
G04 APERTURE LIST*
%ADD10C,0.150000*%
%ADD11R,1.727200X2.032000*%
%ADD12O,1.727200X2.032000*%
%ADD13O,1.600000X1.600000*%
%ADD14C,1.900000*%
%ADD15O,3.500120X1.699260*%
%ADD16O,1.699260X3.500120*%
%ADD17C,1.998980*%
%ADD18R,2.032000X1.727200*%
%ADD19O,2.032000X1.727200*%
%ADD20C,1.270000*%
%ADD21C,4.064000*%
%ADD22C,0.800000*%
%ADD23C,1.200000*%
%ADD24C,0.254000*%
G04 APERTURE END LIST*
D10*
D11*
X27767000Y-102551000D03*
D12*
X30307000Y-102551000D03*
X32847000Y-102551000D03*
X35387000Y-102551000D03*
D13*
X37700000Y-55850000D03*
X37700000Y-58390000D03*
X37700000Y-60930000D03*
X37700000Y-63470000D03*
X37700000Y-66010000D03*
X37700000Y-68550000D03*
X37700000Y-71090000D03*
X30080000Y-71090000D03*
X30080000Y-68550000D03*
X30080000Y-66010000D03*
X30080000Y-63470000D03*
X30080000Y-60930000D03*
X30080000Y-58390000D03*
X30080000Y-55850000D03*
D14*
X58564000Y-57320000D03*
X61104000Y-57320000D03*
X63644000Y-57320000D03*
X53484000Y-70020000D03*
X56024000Y-70020000D03*
X58564000Y-70020000D03*
X61104000Y-70020000D03*
X63644000Y-70020000D03*
X66184000Y-70020000D03*
X68724000Y-70020000D03*
X71264000Y-70020000D03*
X73804000Y-70020000D03*
X76344000Y-70020000D03*
X78884000Y-70020000D03*
X81424000Y-70020000D03*
X83964000Y-70020000D03*
X83964000Y-54780000D03*
X81424000Y-54780000D03*
X78884000Y-54780000D03*
X76344000Y-54780000D03*
X73804000Y-54780000D03*
X71264000Y-54780000D03*
X68724000Y-54780000D03*
X66184000Y-54780000D03*
X63644000Y-54780000D03*
X61104000Y-54780000D03*
X58564000Y-54780000D03*
X56024000Y-54780000D03*
X53484000Y-54780000D03*
X50944000Y-54780000D03*
X50944000Y-70020000D03*
D15*
X36403000Y-84644000D03*
X36403000Y-87184000D03*
X36403000Y-82104000D03*
X31069000Y-95947000D03*
X31069000Y-98487000D03*
X31069000Y-93407000D03*
D16*
X84409000Y-100011000D03*
X86949000Y-100011000D03*
X81869000Y-100011000D03*
D11*
X27767000Y-79691000D03*
D12*
X30307000Y-79691000D03*
X32847000Y-79691000D03*
D17*
X32044360Y-85660000D03*
X27043100Y-85660000D03*
D18*
X27510000Y-57080000D03*
D19*
X27510000Y-59620000D03*
X27510000Y-62160000D03*
X27510000Y-64700000D03*
D18*
X40210000Y-57080000D03*
D19*
X40210000Y-59620000D03*
X40210000Y-62160000D03*
X40210000Y-64700000D03*
D20*
X96130800Y-22473200D03*
X85869200Y-22473200D03*
X96130800Y-24733800D03*
X85869200Y-24733800D03*
D21*
X104000000Y-25000000D03*
X28000000Y-109000000D03*
X104000000Y-109000000D03*
D22*
X82700000Y-56300000D03*
X80100000Y-56300000D03*
X80800000Y-67700000D03*
X77600000Y-56300000D03*
X78500000Y-67700000D03*
X74600000Y-67000000D03*
X90000000Y-67900000D03*
X86000000Y-67800000D03*
X76100000Y-56400000D03*
X76200000Y-67600000D03*
X73000000Y-56400000D03*
X74700000Y-56400000D03*
X93000000Y-44600000D03*
X93000000Y-45600000D03*
X93540000Y-29102600D03*
X89730000Y-27578600D03*
X91800000Y-44600000D03*
X81300000Y-48900000D03*
X86500000Y-43600000D03*
X29100000Y-100600000D03*
X28700000Y-77800000D03*
X96800000Y-48600000D03*
X99000000Y-70000000D03*
X72800000Y-50500000D03*
X44400000Y-58300000D03*
X95100000Y-49200000D03*
X97200000Y-70400000D03*
X84000000Y-43600000D03*
X43400000Y-57300000D03*
X60400000Y-74800000D03*
X40451000Y-101408000D03*
X42499000Y-98072980D03*
X68700000Y-61400000D03*
X99200000Y-57449020D03*
X103800000Y-57449020D03*
X84550000Y-75200000D03*
X88800000Y-74700000D03*
X73600000Y-77200000D03*
X62600000Y-51100000D03*
X41600000Y-60300000D03*
X41700000Y-58900000D03*
X36000000Y-60600000D03*
X59800000Y-101575000D03*
X60975000Y-101550000D03*
X65300000Y-93600000D03*
X102300000Y-67300000D03*
X62200000Y-101550000D03*
X60975000Y-95400000D03*
X59700000Y-95350000D03*
X62250000Y-95400000D03*
X81615000Y-89740000D03*
X76662000Y-85152000D03*
X78186000Y-83755000D03*
X78186000Y-85152000D03*
X76662000Y-83755000D03*
X75265000Y-83755000D03*
X75265000Y-85152000D03*
X84155000Y-93280000D03*
X99141000Y-82866000D03*
D23*
X103600000Y-49700000D03*
X89700000Y-50900000D03*
X28900000Y-104700000D03*
X88700000Y-94300000D03*
X101700000Y-91200000D03*
X104400000Y-91300000D03*
X104200000Y-99800000D03*
X104200000Y-98300000D03*
X104200000Y-96900000D03*
X102900000Y-92700000D03*
D22*
X81400000Y-63500000D03*
X69000000Y-83450000D03*
X78400000Y-82800000D03*
X90600000Y-87000000D03*
X80800000Y-88600000D03*
D23*
X46563000Y-89597000D03*
X42499000Y-89597000D03*
X89200000Y-70300000D03*
X89100000Y-63200000D03*
X99800000Y-71000000D03*
X104900000Y-71000000D03*
X57950000Y-52600000D03*
X102000000Y-40699980D03*
X99200000Y-48300000D03*
X31850000Y-61050000D03*
X41800000Y-51450000D03*
X96250000Y-77000000D03*
D22*
X85300000Y-61600000D03*
D23*
X87300000Y-88900000D03*
X89500000Y-88900000D03*
X90902000Y-83374000D03*
D22*
X90400000Y-80300000D03*
D23*
X81675000Y-72995000D03*
X73600000Y-75200000D03*
D22*
X61500000Y-52800000D03*
X75200000Y-67800000D03*
X67700000Y-67800000D03*
X67400000Y-76700000D03*
X62100000Y-92300000D03*
X72500000Y-89000000D03*
X37165000Y-88962000D03*
X31831000Y-89724000D03*
X39700000Y-55000000D03*
X95800000Y-48500000D03*
X92800000Y-31200000D03*
X91000000Y-27578600D03*
X101100000Y-76500000D03*
X32300000Y-51050000D03*
X88100000Y-68600000D03*
X99900000Y-59300000D03*
X99600000Y-60800000D03*
X97600000Y-59300000D03*
X102700000Y-60100000D03*
D23*
X93500000Y-66800000D03*
X93000000Y-78300000D03*
D22*
X71500000Y-48600000D03*
X69600000Y-51400000D03*
X92270000Y-29102600D03*
X72800000Y-48100000D03*
X70900000Y-51400000D03*
X93540000Y-27578600D03*
X58800000Y-80100000D03*
X71200000Y-79800000D03*
X58800000Y-79100000D03*
X68700000Y-79100000D03*
X64800000Y-74400000D03*
X64900000Y-80900000D03*
X78600000Y-81000000D03*
X68000000Y-80500000D03*
X68100000Y-74300000D03*
X78500000Y-80000000D03*
X46000000Y-61500000D03*
X94700000Y-78500000D03*
X90600000Y-79200000D03*
X90400000Y-77400000D03*
X89130000Y-72810000D03*
X87600000Y-74700000D03*
X84000000Y-58150000D03*
X84800000Y-77400000D03*
X78900000Y-77400000D03*
X63600000Y-73900000D03*
X66200000Y-73900000D03*
X64600000Y-52800000D03*
X83400000Y-73600000D03*
X76450000Y-74300000D03*
X84200000Y-72200000D03*
X93000000Y-41550000D03*
X94700000Y-41500000D03*
D24*
G36*
X104373000Y-48726271D02*
X104300485Y-48653629D01*
X103846734Y-48465215D01*
X103355421Y-48464786D01*
X102901343Y-48652408D01*
X102553629Y-48999515D01*
X102365215Y-49453266D01*
X102364786Y-49944579D01*
X102552408Y-50398657D01*
X102899515Y-50746371D01*
X103353266Y-50934785D01*
X103844579Y-50935214D01*
X104298657Y-50747592D01*
X104373000Y-50673379D01*
X104373000Y-69881480D01*
X104201343Y-69952408D01*
X103853629Y-70299515D01*
X103665215Y-70753266D01*
X103664786Y-71244579D01*
X103852408Y-71698657D01*
X104199515Y-72046371D01*
X104373000Y-72118408D01*
X104373000Y-90064976D01*
X104155421Y-90064786D01*
X103701343Y-90252408D01*
X103353629Y-90599515D01*
X103165215Y-91053266D01*
X103164849Y-91472737D01*
X103146734Y-91465215D01*
X102927191Y-91465023D01*
X102934785Y-91446734D01*
X102935214Y-90955421D01*
X102747592Y-90501343D01*
X102400485Y-90153629D01*
X101946734Y-89965215D01*
X101455421Y-89964786D01*
X101001343Y-90152408D01*
X100653629Y-90499515D01*
X100465215Y-90953266D01*
X100464786Y-91444579D01*
X100652408Y-91898657D01*
X100926272Y-92173000D01*
X90700000Y-92173000D01*
X90650590Y-92183006D01*
X90608965Y-92211447D01*
X90581685Y-92253841D01*
X90573000Y-92300000D01*
X90573000Y-104300000D01*
X90583006Y-104349410D01*
X90611447Y-104391035D01*
X90653841Y-104418315D01*
X90700000Y-104427000D01*
X102800000Y-104427000D01*
X102849410Y-104416994D01*
X102891035Y-104388553D01*
X102918315Y-104346159D01*
X102927000Y-104300000D01*
X102927000Y-93935024D01*
X103144579Y-93935214D01*
X103598657Y-93747592D01*
X103946371Y-93400485D01*
X104134785Y-92946734D01*
X104135151Y-92527263D01*
X104153266Y-92534785D01*
X104373000Y-92534977D01*
X104373000Y-95665151D01*
X103955421Y-95664786D01*
X103501343Y-95852408D01*
X103153629Y-96199515D01*
X102965215Y-96653266D01*
X102964786Y-97144579D01*
X103152408Y-97598657D01*
X103153522Y-97599773D01*
X102965215Y-98053266D01*
X102964786Y-98544579D01*
X103152408Y-98998657D01*
X103203446Y-99049785D01*
X103153629Y-99099515D01*
X102965215Y-99553266D01*
X102964786Y-100044579D01*
X103152408Y-100498657D01*
X103499515Y-100846371D01*
X103953266Y-101034785D01*
X104373000Y-101035151D01*
X104373000Y-105873000D01*
X29295148Y-105873000D01*
X29598657Y-105747592D01*
X29946371Y-105400485D01*
X30134785Y-104946734D01*
X30135214Y-104455421D01*
X30020304Y-104177318D01*
X30307000Y-104234345D01*
X30880489Y-104120271D01*
X31366670Y-103795415D01*
X31577000Y-103480634D01*
X31787330Y-103795415D01*
X32273511Y-104120271D01*
X32847000Y-104234345D01*
X33420489Y-104120271D01*
X33906670Y-103795415D01*
X34117000Y-103480634D01*
X34327330Y-103795415D01*
X34813511Y-104120271D01*
X35387000Y-104234345D01*
X35960489Y-104120271D01*
X36446670Y-103795415D01*
X36771526Y-103309234D01*
X36885600Y-102735745D01*
X36885600Y-102366255D01*
X36771526Y-101792766D01*
X36446670Y-101306585D01*
X35960489Y-100981729D01*
X35387000Y-100867655D01*
X34813511Y-100981729D01*
X34327330Y-101306585D01*
X34117000Y-101621366D01*
X33906670Y-101306585D01*
X33420489Y-100981729D01*
X32847000Y-100867655D01*
X32273511Y-100981729D01*
X31787330Y-101306585D01*
X31577000Y-101621366D01*
X31366670Y-101306585D01*
X30880489Y-100981729D01*
X30307000Y-100867655D01*
X29733511Y-100981729D01*
X29247330Y-101306585D01*
X29232500Y-101328780D01*
X29168927Y-101175302D01*
X28990299Y-100996673D01*
X28756910Y-100900000D01*
X28127000Y-100900000D01*
X28127000Y-93407000D01*
X28637214Y-93407000D01*
X28750225Y-93975143D01*
X29072052Y-94456792D01*
X29401617Y-94677000D01*
X29072052Y-94897208D01*
X28750225Y-95378857D01*
X28637214Y-95947000D01*
X28750225Y-96515143D01*
X29072052Y-96996792D01*
X29401617Y-97217000D01*
X29072052Y-97437208D01*
X28750225Y-97918857D01*
X28637214Y-98487000D01*
X28750225Y-99055143D01*
X29072052Y-99536792D01*
X29553701Y-99858619D01*
X30121844Y-99971630D01*
X32016156Y-99971630D01*
X32584299Y-99858619D01*
X33065948Y-99536792D01*
X33381961Y-99063844D01*
X80384370Y-99063844D01*
X80384370Y-100958156D01*
X80497381Y-101526299D01*
X80819208Y-102007948D01*
X81300857Y-102329775D01*
X81869000Y-102442786D01*
X82437143Y-102329775D01*
X82918792Y-102007948D01*
X83139000Y-101678383D01*
X83359208Y-102007948D01*
X83840857Y-102329775D01*
X84409000Y-102442786D01*
X84977143Y-102329775D01*
X85458792Y-102007948D01*
X85679000Y-101678383D01*
X85899208Y-102007948D01*
X86380857Y-102329775D01*
X86949000Y-102442786D01*
X87517143Y-102329775D01*
X87998792Y-102007948D01*
X88320619Y-101526299D01*
X88433630Y-100958156D01*
X88433630Y-99063844D01*
X88320619Y-98495701D01*
X87998792Y-98014052D01*
X87517143Y-97692225D01*
X86949000Y-97579214D01*
X86380857Y-97692225D01*
X85899208Y-98014052D01*
X85679000Y-98343617D01*
X85458792Y-98014052D01*
X84977143Y-97692225D01*
X84409000Y-97579214D01*
X83840857Y-97692225D01*
X83359208Y-98014052D01*
X83139000Y-98343617D01*
X82918792Y-98014052D01*
X82437143Y-97692225D01*
X81869000Y-97579214D01*
X81300857Y-97692225D01*
X80819208Y-98014052D01*
X80497381Y-98495701D01*
X80384370Y-99063844D01*
X33381961Y-99063844D01*
X33387775Y-99055143D01*
X33500786Y-98487000D01*
X33387775Y-97918857D01*
X33065948Y-97437208D01*
X32736383Y-97217000D01*
X33065948Y-96996792D01*
X33387775Y-96515143D01*
X33500786Y-95947000D01*
X33387775Y-95378857D01*
X33065948Y-94897208D01*
X32736383Y-94677000D01*
X32934565Y-94544579D01*
X87464786Y-94544579D01*
X87652408Y-94998657D01*
X87999515Y-95346371D01*
X88453266Y-95534785D01*
X88944579Y-95535214D01*
X89398657Y-95347592D01*
X89746371Y-95000485D01*
X89934785Y-94546734D01*
X89935214Y-94055421D01*
X89747592Y-93601343D01*
X89400485Y-93253629D01*
X88946734Y-93065215D01*
X88455421Y-93064786D01*
X88001343Y-93252408D01*
X87653629Y-93599515D01*
X87465215Y-94053266D01*
X87464786Y-94544579D01*
X32934565Y-94544579D01*
X33065948Y-94456792D01*
X33387775Y-93975143D01*
X33500786Y-93407000D01*
X33387775Y-92838857D01*
X33164680Y-92504971D01*
X61064821Y-92504971D01*
X61222058Y-92885515D01*
X61512954Y-93176919D01*
X61893223Y-93334820D01*
X62304971Y-93335179D01*
X62685515Y-93177942D01*
X62976919Y-92887046D01*
X63134820Y-92506777D01*
X63135179Y-92095029D01*
X62977942Y-91714485D01*
X62687046Y-91423081D01*
X62306777Y-91265180D01*
X61895029Y-91264821D01*
X61514485Y-91422058D01*
X61223081Y-91712954D01*
X61065180Y-92093223D01*
X61064821Y-92504971D01*
X33164680Y-92504971D01*
X33065948Y-92357208D01*
X32584299Y-92035381D01*
X32016156Y-91922370D01*
X30121844Y-91922370D01*
X29553701Y-92035381D01*
X29072052Y-92357208D01*
X28750225Y-92838857D01*
X28637214Y-93407000D01*
X28127000Y-93407000D01*
X28127000Y-89928971D01*
X30795821Y-89928971D01*
X30953058Y-90309515D01*
X31243954Y-90600919D01*
X31624223Y-90758820D01*
X32035971Y-90759179D01*
X32416515Y-90601942D01*
X32707919Y-90311046D01*
X32865820Y-89930777D01*
X32866179Y-89519029D01*
X32708942Y-89138485D01*
X32418046Y-88847081D01*
X32037777Y-88689180D01*
X31626029Y-88688821D01*
X31245485Y-88846058D01*
X30954081Y-89136954D01*
X30796180Y-89517223D01*
X30795821Y-89928971D01*
X28127000Y-89928971D01*
X28127000Y-86887495D01*
X28427946Y-86587073D01*
X28677306Y-85986547D01*
X28677308Y-85983694D01*
X30409586Y-85983694D01*
X30657898Y-86584655D01*
X31117287Y-87044846D01*
X31717813Y-87294206D01*
X32368054Y-87294774D01*
X32969015Y-87046462D01*
X33429206Y-86587073D01*
X33678566Y-85986547D01*
X33679134Y-85336306D01*
X33430822Y-84735345D01*
X33339637Y-84644000D01*
X33971214Y-84644000D01*
X34084225Y-85212143D01*
X34406052Y-85693792D01*
X34735617Y-85914000D01*
X34406052Y-86134208D01*
X34084225Y-86615857D01*
X33971214Y-87184000D01*
X34084225Y-87752143D01*
X34406052Y-88233792D01*
X34887701Y-88555619D01*
X35455844Y-88668630D01*
X36166136Y-88668630D01*
X36130180Y-88755223D01*
X36129821Y-89166971D01*
X36287058Y-89547515D01*
X36577954Y-89838919D01*
X36958223Y-89996820D01*
X37369971Y-89997179D01*
X37746553Y-89841579D01*
X41263786Y-89841579D01*
X41451408Y-90295657D01*
X41798515Y-90643371D01*
X42252266Y-90831785D01*
X42743579Y-90832214D01*
X43197657Y-90644592D01*
X43545371Y-90297485D01*
X43733785Y-89843734D01*
X43733786Y-89841579D01*
X45327786Y-89841579D01*
X45515408Y-90295657D01*
X45862515Y-90643371D01*
X46316266Y-90831785D01*
X46807579Y-90832214D01*
X47261657Y-90644592D01*
X47609371Y-90297485D01*
X47797785Y-89843734D01*
X47798214Y-89352421D01*
X47737289Y-89204971D01*
X71464821Y-89204971D01*
X71622058Y-89585515D01*
X71912954Y-89876919D01*
X72293223Y-90034820D01*
X72704971Y-90035179D01*
X73085515Y-89877942D01*
X73376919Y-89587046D01*
X73534820Y-89206777D01*
X73535170Y-88804971D01*
X79764821Y-88804971D01*
X79922058Y-89185515D01*
X80212954Y-89476919D01*
X80593223Y-89634820D01*
X81004971Y-89635179D01*
X81385515Y-89477942D01*
X81676919Y-89187046D01*
X81694552Y-89144579D01*
X86064786Y-89144579D01*
X86252408Y-89598657D01*
X86599515Y-89946371D01*
X87053266Y-90134785D01*
X87544579Y-90135214D01*
X87998657Y-89947592D01*
X88346371Y-89600485D01*
X88399899Y-89471576D01*
X88452408Y-89598657D01*
X88799515Y-89946371D01*
X89253266Y-90134785D01*
X89744579Y-90135214D01*
X90198657Y-89947592D01*
X90546371Y-89600485D01*
X90734785Y-89146734D01*
X90735214Y-88655421D01*
X90547592Y-88201343D01*
X90372961Y-88026406D01*
X90393223Y-88034820D01*
X90804971Y-88035179D01*
X91185515Y-87877942D01*
X91476919Y-87587046D01*
X91634820Y-87206777D01*
X91635179Y-86795029D01*
X91477942Y-86414485D01*
X91187046Y-86123081D01*
X90806777Y-85965180D01*
X90395029Y-85964821D01*
X90014485Y-86122058D01*
X89723081Y-86412954D01*
X89565180Y-86793223D01*
X89564821Y-87204971D01*
X89722058Y-87585515D01*
X89840477Y-87704140D01*
X89746734Y-87665215D01*
X89255421Y-87664786D01*
X88801343Y-87852408D01*
X88453629Y-88199515D01*
X88400101Y-88328424D01*
X88347592Y-88201343D01*
X88000485Y-87853629D01*
X87546734Y-87665215D01*
X87055421Y-87664786D01*
X86601343Y-87852408D01*
X86253629Y-88199515D01*
X86065215Y-88653266D01*
X86064786Y-89144579D01*
X81694552Y-89144579D01*
X81834820Y-88806777D01*
X81835179Y-88395029D01*
X81677942Y-88014485D01*
X81387046Y-87723081D01*
X81006777Y-87565180D01*
X80595029Y-87564821D01*
X80214485Y-87722058D01*
X79923081Y-88012954D01*
X79765180Y-88393223D01*
X79764821Y-88804971D01*
X73535170Y-88804971D01*
X73535179Y-88795029D01*
X73377942Y-88414485D01*
X73087046Y-88123081D01*
X72706777Y-87965180D01*
X72295029Y-87964821D01*
X71914485Y-88122058D01*
X71623081Y-88412954D01*
X71465180Y-88793223D01*
X71464821Y-89204971D01*
X47737289Y-89204971D01*
X47610592Y-88898343D01*
X47263485Y-88550629D01*
X46809734Y-88362215D01*
X46318421Y-88361786D01*
X45864343Y-88549408D01*
X45516629Y-88896515D01*
X45328215Y-89350266D01*
X45327786Y-89841579D01*
X43733786Y-89841579D01*
X43734214Y-89352421D01*
X43546592Y-88898343D01*
X43199485Y-88550629D01*
X42745734Y-88362215D01*
X42254421Y-88361786D01*
X41800343Y-88549408D01*
X41452629Y-88896515D01*
X41264215Y-89350266D01*
X41263786Y-89841579D01*
X37746553Y-89841579D01*
X37750515Y-89839942D01*
X38041919Y-89549046D01*
X38199820Y-89168777D01*
X38200179Y-88757029D01*
X38073978Y-88451598D01*
X38399948Y-88233792D01*
X38721775Y-87752143D01*
X38834786Y-87184000D01*
X38721775Y-86615857D01*
X38399948Y-86134208D01*
X38070383Y-85914000D01*
X38399948Y-85693792D01*
X38721775Y-85212143D01*
X38834786Y-84644000D01*
X38721775Y-84075857D01*
X38440549Y-83654971D01*
X67964821Y-83654971D01*
X68122058Y-84035515D01*
X68412954Y-84326919D01*
X68793223Y-84484820D01*
X69204971Y-84485179D01*
X69585515Y-84327942D01*
X69876919Y-84037046D01*
X70034820Y-83656777D01*
X70035179Y-83245029D01*
X69935990Y-83004971D01*
X77364821Y-83004971D01*
X77522058Y-83385515D01*
X77812954Y-83676919D01*
X78193223Y-83834820D01*
X78604971Y-83835179D01*
X78985515Y-83677942D01*
X79044981Y-83618579D01*
X89666786Y-83618579D01*
X89854408Y-84072657D01*
X90201515Y-84420371D01*
X90655266Y-84608785D01*
X91146579Y-84609214D01*
X91600657Y-84421592D01*
X91948371Y-84074485D01*
X92136785Y-83620734D01*
X92137214Y-83129421D01*
X91949592Y-82675343D01*
X91602485Y-82327629D01*
X91148734Y-82139215D01*
X90657421Y-82138786D01*
X90203343Y-82326408D01*
X89855629Y-82673515D01*
X89667215Y-83127266D01*
X89666786Y-83618579D01*
X79044981Y-83618579D01*
X79276919Y-83387046D01*
X79434820Y-83006777D01*
X79435179Y-82595029D01*
X79277942Y-82214485D01*
X79013101Y-81949182D01*
X79185515Y-81877942D01*
X79476919Y-81587046D01*
X79634820Y-81206777D01*
X79635179Y-80795029D01*
X79477942Y-80414485D01*
X79457200Y-80393707D01*
X79534820Y-80206777D01*
X79535179Y-79795029D01*
X79377942Y-79414485D01*
X79087046Y-79123081D01*
X78706777Y-78965180D01*
X78295029Y-78964821D01*
X77914485Y-79122058D01*
X77623081Y-79412954D01*
X77465180Y-79793223D01*
X77464821Y-80204971D01*
X77622058Y-80585515D01*
X77642800Y-80606293D01*
X77565180Y-80793223D01*
X77564821Y-81204971D01*
X77722058Y-81585515D01*
X77986899Y-81850818D01*
X77814485Y-81922058D01*
X77523081Y-82212954D01*
X77365180Y-82593223D01*
X77364821Y-83004971D01*
X69935990Y-83004971D01*
X69877942Y-82864485D01*
X69587046Y-82573081D01*
X69206777Y-82415180D01*
X68795029Y-82414821D01*
X68414485Y-82572058D01*
X68123081Y-82862954D01*
X67965180Y-83243223D01*
X67964821Y-83654971D01*
X38440549Y-83654971D01*
X38399948Y-83594208D01*
X38062127Y-83368484D01*
X38443024Y-83063989D01*
X38723649Y-82554810D01*
X38744540Y-82460832D01*
X38623214Y-82231000D01*
X36530000Y-82231000D01*
X36530000Y-82251000D01*
X36276000Y-82251000D01*
X36276000Y-82231000D01*
X34182786Y-82231000D01*
X34061460Y-82460832D01*
X34082351Y-82554810D01*
X34362976Y-83063989D01*
X34743873Y-83368484D01*
X34406052Y-83594208D01*
X34084225Y-84075857D01*
X33971214Y-84644000D01*
X33339637Y-84644000D01*
X32971433Y-84275154D01*
X32370907Y-84025794D01*
X31720666Y-84025226D01*
X31119705Y-84273538D01*
X30659514Y-84732927D01*
X30410154Y-85333453D01*
X30409586Y-85983694D01*
X28677308Y-85983694D01*
X28677874Y-85336306D01*
X28429562Y-84735345D01*
X28127000Y-84432255D01*
X28127000Y-81747168D01*
X34061460Y-81747168D01*
X34182786Y-81977000D01*
X36276000Y-81977000D01*
X36276000Y-80619370D01*
X36530000Y-80619370D01*
X36530000Y-81977000D01*
X38623214Y-81977000D01*
X38744540Y-81747168D01*
X38723649Y-81653190D01*
X38443024Y-81144011D01*
X37988906Y-80780982D01*
X37430430Y-80619370D01*
X36530000Y-80619370D01*
X36276000Y-80619370D01*
X35375570Y-80619370D01*
X34817094Y-80780982D01*
X34362976Y-81144011D01*
X34082351Y-81653190D01*
X34061460Y-81747168D01*
X28127000Y-81747168D01*
X28127000Y-81342000D01*
X28756910Y-81342000D01*
X28990299Y-81245327D01*
X29168927Y-81066698D01*
X29232500Y-80913220D01*
X29247330Y-80935415D01*
X29733511Y-81260271D01*
X30307000Y-81374345D01*
X30880489Y-81260271D01*
X31366670Y-80935415D01*
X31577000Y-80620634D01*
X31787330Y-80935415D01*
X32273511Y-81260271D01*
X32847000Y-81374345D01*
X33420489Y-81260271D01*
X33906670Y-80935415D01*
X34231526Y-80449234D01*
X34345600Y-79875745D01*
X34345600Y-79506255D01*
X34305563Y-79304971D01*
X57764821Y-79304971D01*
X57886830Y-79600256D01*
X57765180Y-79893223D01*
X57764821Y-80304971D01*
X57922058Y-80685515D01*
X58212954Y-80976919D01*
X58593223Y-81134820D01*
X59004971Y-81135179D01*
X59078080Y-81104971D01*
X63864821Y-81104971D01*
X64022058Y-81485515D01*
X64312954Y-81776919D01*
X64693223Y-81934820D01*
X65104971Y-81935179D01*
X65485515Y-81777942D01*
X65776919Y-81487046D01*
X65934820Y-81106777D01*
X65935170Y-80704971D01*
X66964821Y-80704971D01*
X67122058Y-81085515D01*
X67412954Y-81376919D01*
X67793223Y-81534820D01*
X68204971Y-81535179D01*
X68585515Y-81377942D01*
X68876919Y-81087046D01*
X69034820Y-80706777D01*
X69035179Y-80295029D01*
X68959774Y-80112535D01*
X69220099Y-80004971D01*
X70164821Y-80004971D01*
X70322058Y-80385515D01*
X70612954Y-80676919D01*
X70993223Y-80834820D01*
X71404971Y-80835179D01*
X71785515Y-80677942D01*
X72076919Y-80387046D01*
X72234820Y-80006777D01*
X72235179Y-79595029D01*
X72077942Y-79214485D01*
X71787046Y-78923081D01*
X71406777Y-78765180D01*
X70995029Y-78764821D01*
X70614485Y-78922058D01*
X70323081Y-79212954D01*
X70165180Y-79593223D01*
X70164821Y-80004971D01*
X69220099Y-80004971D01*
X69285515Y-79977942D01*
X69576919Y-79687046D01*
X69734820Y-79306777D01*
X69735179Y-78895029D01*
X69577942Y-78514485D01*
X69287046Y-78223081D01*
X68906777Y-78065180D01*
X68495029Y-78064821D01*
X68114485Y-78222058D01*
X67823081Y-78512954D01*
X67665180Y-78893223D01*
X67664821Y-79304971D01*
X67740226Y-79487465D01*
X67414485Y-79622058D01*
X67123081Y-79912954D01*
X66965180Y-80293223D01*
X66964821Y-80704971D01*
X65935170Y-80704971D01*
X65935179Y-80695029D01*
X65777942Y-80314485D01*
X65487046Y-80023081D01*
X65106777Y-79865180D01*
X64695029Y-79864821D01*
X64314485Y-80022058D01*
X64023081Y-80312954D01*
X63865180Y-80693223D01*
X63864821Y-81104971D01*
X59078080Y-81104971D01*
X59385515Y-80977942D01*
X59676919Y-80687046D01*
X59834820Y-80306777D01*
X59835179Y-79895029D01*
X59713170Y-79599744D01*
X59834820Y-79306777D01*
X59835179Y-78895029D01*
X59677942Y-78514485D01*
X59387046Y-78223081D01*
X59006777Y-78065180D01*
X58595029Y-78064821D01*
X58214485Y-78222058D01*
X57923081Y-78512954D01*
X57765180Y-78893223D01*
X57764821Y-79304971D01*
X34305563Y-79304971D01*
X34231526Y-78932766D01*
X33906670Y-78446585D01*
X33420489Y-78121729D01*
X32847000Y-78007655D01*
X32273511Y-78121729D01*
X31787330Y-78446585D01*
X31577000Y-78761366D01*
X31366670Y-78446585D01*
X30880489Y-78121729D01*
X30307000Y-78007655D01*
X29733511Y-78121729D01*
X29247330Y-78446585D01*
X29232500Y-78468780D01*
X29168927Y-78315302D01*
X28990299Y-78136673D01*
X28756910Y-78040000D01*
X28127000Y-78040000D01*
X28127000Y-76904971D01*
X66364821Y-76904971D01*
X66522058Y-77285515D01*
X66812954Y-77576919D01*
X67193223Y-77734820D01*
X67604971Y-77735179D01*
X67920099Y-77604971D01*
X77864821Y-77604971D01*
X78022058Y-77985515D01*
X78312954Y-78276919D01*
X78693223Y-78434820D01*
X79104971Y-78435179D01*
X79485515Y-78277942D01*
X79776919Y-77987046D01*
X79934820Y-77606777D01*
X79934821Y-77604971D01*
X83764821Y-77604971D01*
X83922058Y-77985515D01*
X84212954Y-78276919D01*
X84593223Y-78434820D01*
X85004971Y-78435179D01*
X85385515Y-78277942D01*
X85676919Y-77987046D01*
X85834820Y-77606777D01*
X85834821Y-77604971D01*
X89364821Y-77604971D01*
X89522058Y-77985515D01*
X89812954Y-78276919D01*
X89987217Y-78349279D01*
X89723081Y-78612954D01*
X89565180Y-78993223D01*
X89564821Y-79404971D01*
X89642726Y-79593517D01*
X89523081Y-79712954D01*
X89365180Y-80093223D01*
X89364821Y-80504971D01*
X89522058Y-80885515D01*
X89812954Y-81176919D01*
X90193223Y-81334820D01*
X90604971Y-81335179D01*
X90985515Y-81177942D01*
X91276919Y-80887046D01*
X91434820Y-80506777D01*
X91435179Y-80095029D01*
X91357274Y-79906483D01*
X91476919Y-79787046D01*
X91634820Y-79406777D01*
X91635179Y-78995029D01*
X91477942Y-78614485D01*
X91408158Y-78544579D01*
X91764786Y-78544579D01*
X91952408Y-78998657D01*
X92299515Y-79346371D01*
X92753266Y-79534785D01*
X93244579Y-79535214D01*
X93698657Y-79347592D01*
X93891504Y-79155082D01*
X94112954Y-79376919D01*
X94493223Y-79534820D01*
X94904971Y-79535179D01*
X95285515Y-79377942D01*
X95576919Y-79087046D01*
X95734820Y-78706777D01*
X95735179Y-78295029D01*
X95649609Y-78087934D01*
X96003266Y-78234785D01*
X96494579Y-78235214D01*
X96948657Y-78047592D01*
X97296371Y-77700485D01*
X97484785Y-77246734D01*
X97485214Y-76755421D01*
X97464369Y-76704971D01*
X100064821Y-76704971D01*
X100222058Y-77085515D01*
X100512954Y-77376919D01*
X100893223Y-77534820D01*
X101304971Y-77535179D01*
X101685515Y-77377942D01*
X101976919Y-77087046D01*
X102134820Y-76706777D01*
X102135179Y-76295029D01*
X101977942Y-75914485D01*
X101687046Y-75623081D01*
X101306777Y-75465180D01*
X100895029Y-75464821D01*
X100514485Y-75622058D01*
X100223081Y-75912954D01*
X100065180Y-76293223D01*
X100064821Y-76704971D01*
X97464369Y-76704971D01*
X97297592Y-76301343D01*
X96950485Y-75953629D01*
X96496734Y-75765215D01*
X96005421Y-75764786D01*
X95551343Y-75952408D01*
X95203629Y-76299515D01*
X95015215Y-76753266D01*
X95014786Y-77244579D01*
X95147184Y-77565005D01*
X94906777Y-77465180D01*
X94495029Y-77464821D01*
X94114485Y-77622058D01*
X94073186Y-77663285D01*
X94047592Y-77601343D01*
X93700485Y-77253629D01*
X93246734Y-77065215D01*
X92755421Y-77064786D01*
X92301343Y-77252408D01*
X91953629Y-77599515D01*
X91765215Y-78053266D01*
X91764786Y-78544579D01*
X91408158Y-78544579D01*
X91187046Y-78323081D01*
X91012783Y-78250721D01*
X91276919Y-77987046D01*
X91434820Y-77606777D01*
X91435179Y-77195029D01*
X91277942Y-76814485D01*
X90987046Y-76523081D01*
X90606777Y-76365180D01*
X90195029Y-76364821D01*
X89814485Y-76522058D01*
X89523081Y-76812954D01*
X89365180Y-77193223D01*
X89364821Y-77604971D01*
X85834821Y-77604971D01*
X85835179Y-77195029D01*
X85677942Y-76814485D01*
X85387046Y-76523081D01*
X85006777Y-76365180D01*
X84595029Y-76364821D01*
X84214485Y-76522058D01*
X83923081Y-76812954D01*
X83765180Y-77193223D01*
X83764821Y-77604971D01*
X79934821Y-77604971D01*
X79935179Y-77195029D01*
X79777942Y-76814485D01*
X79487046Y-76523081D01*
X79106777Y-76365180D01*
X78695029Y-76364821D01*
X78314485Y-76522058D01*
X78023081Y-76812954D01*
X77865180Y-77193223D01*
X77864821Y-77604971D01*
X67920099Y-77604971D01*
X67985515Y-77577942D01*
X68276919Y-77287046D01*
X68434820Y-76906777D01*
X68435179Y-76495029D01*
X68277942Y-76114485D01*
X67987046Y-75823081D01*
X67606777Y-75665180D01*
X67195029Y-75664821D01*
X66814485Y-75822058D01*
X66523081Y-76112954D01*
X66365180Y-76493223D01*
X66364821Y-76904971D01*
X28127000Y-76904971D01*
X28127000Y-76127000D01*
X47000000Y-76127000D01*
X47049410Y-76116994D01*
X47091035Y-76088553D01*
X47118315Y-76046159D01*
X47127000Y-76000000D01*
X47127000Y-75444579D01*
X72364786Y-75444579D01*
X72552408Y-75898657D01*
X72899515Y-76246371D01*
X73353266Y-76434785D01*
X73844579Y-76435214D01*
X74298657Y-76247592D01*
X74646371Y-75900485D01*
X74834785Y-75446734D01*
X74835214Y-74955421D01*
X74649092Y-74504971D01*
X75414821Y-74504971D01*
X75572058Y-74885515D01*
X75862954Y-75176919D01*
X76243223Y-75334820D01*
X76654971Y-75335179D01*
X77035515Y-75177942D01*
X77308962Y-74904971D01*
X86564821Y-74904971D01*
X86722058Y-75285515D01*
X87012954Y-75576919D01*
X87393223Y-75734820D01*
X87804971Y-75735179D01*
X88185515Y-75577942D01*
X88476919Y-75287046D01*
X88634820Y-74906777D01*
X88635179Y-74495029D01*
X88477942Y-74114485D01*
X88187046Y-73823081D01*
X87806777Y-73665180D01*
X87395029Y-73664821D01*
X87014485Y-73822058D01*
X86723081Y-74112954D01*
X86565180Y-74493223D01*
X86564821Y-74904971D01*
X77308962Y-74904971D01*
X77326919Y-74887046D01*
X77484820Y-74506777D01*
X77485179Y-74095029D01*
X77327942Y-73714485D01*
X77037046Y-73423081D01*
X76656777Y-73265180D01*
X76245029Y-73264821D01*
X75864485Y-73422058D01*
X75573081Y-73712954D01*
X75415180Y-74093223D01*
X75414821Y-74504971D01*
X74649092Y-74504971D01*
X74647592Y-74501343D01*
X74300485Y-74153629D01*
X73846734Y-73965215D01*
X73355421Y-73964786D01*
X72901343Y-74152408D01*
X72553629Y-74499515D01*
X72365215Y-74953266D01*
X72364786Y-75444579D01*
X47127000Y-75444579D01*
X47127000Y-74104971D01*
X62564821Y-74104971D01*
X62722058Y-74485515D01*
X63012954Y-74776919D01*
X63393223Y-74934820D01*
X63804971Y-74935179D01*
X63887218Y-74901195D01*
X63922058Y-74985515D01*
X64212954Y-75276919D01*
X64593223Y-75434820D01*
X65004971Y-75435179D01*
X65385515Y-75277942D01*
X65676919Y-74987046D01*
X65741933Y-74830475D01*
X65993223Y-74934820D01*
X66404971Y-74935179D01*
X66785515Y-74777942D01*
X67064826Y-74499118D01*
X67064821Y-74504971D01*
X67222058Y-74885515D01*
X67512954Y-75176919D01*
X67893223Y-75334820D01*
X68304971Y-75335179D01*
X68685515Y-75177942D01*
X68976919Y-74887046D01*
X69134820Y-74506777D01*
X69135179Y-74095029D01*
X68977942Y-73714485D01*
X68687046Y-73423081D01*
X68306777Y-73265180D01*
X67895029Y-73264821D01*
X67514485Y-73422058D01*
X67235174Y-73700882D01*
X67235179Y-73695029D01*
X67077942Y-73314485D01*
X66787046Y-73023081D01*
X66406777Y-72865180D01*
X65995029Y-72864821D01*
X65614485Y-73022058D01*
X65323081Y-73312954D01*
X65258067Y-73469525D01*
X65006777Y-73365180D01*
X64595029Y-73364821D01*
X64512782Y-73398805D01*
X64477942Y-73314485D01*
X64187046Y-73023081D01*
X63806777Y-72865180D01*
X63395029Y-72864821D01*
X63014485Y-73022058D01*
X62723081Y-73312954D01*
X62565180Y-73693223D01*
X62564821Y-74104971D01*
X47127000Y-74104971D01*
X47127000Y-71136350D01*
X50007255Y-71136350D01*
X50099792Y-71398019D01*
X50691398Y-71616188D01*
X51321461Y-71591352D01*
X51788208Y-71398019D01*
X51880745Y-71136350D01*
X50944000Y-70199605D01*
X50007255Y-71136350D01*
X47127000Y-71136350D01*
X47127000Y-69767398D01*
X49347812Y-69767398D01*
X49372648Y-70397461D01*
X49565981Y-70864208D01*
X49827650Y-70956745D01*
X50764395Y-70020000D01*
X51123605Y-70020000D01*
X52060350Y-70956745D01*
X52148439Y-70925593D01*
X52584997Y-71362914D01*
X53167341Y-71604724D01*
X53797893Y-71605275D01*
X54380657Y-71364481D01*
X54754261Y-70991529D01*
X55124997Y-71362914D01*
X55707341Y-71604724D01*
X56337893Y-71605275D01*
X56920657Y-71364481D01*
X57294261Y-70991529D01*
X57664997Y-71362914D01*
X58247341Y-71604724D01*
X58877893Y-71605275D01*
X59460657Y-71364481D01*
X59834261Y-70991529D01*
X60204997Y-71362914D01*
X60787341Y-71604724D01*
X61417893Y-71605275D01*
X62000657Y-71364481D01*
X62374261Y-70991529D01*
X62744997Y-71362914D01*
X63327341Y-71604724D01*
X63957893Y-71605275D01*
X64540657Y-71364481D01*
X64914261Y-70991529D01*
X65284997Y-71362914D01*
X65867341Y-71604724D01*
X66497893Y-71605275D01*
X67080657Y-71364481D01*
X67454261Y-70991529D01*
X67824997Y-71362914D01*
X68407341Y-71604724D01*
X69037893Y-71605275D01*
X69620657Y-71364481D01*
X69994261Y-70991529D01*
X70364997Y-71362914D01*
X70947341Y-71604724D01*
X71577893Y-71605275D01*
X72160657Y-71364481D01*
X72534261Y-70991529D01*
X72904997Y-71362914D01*
X73487341Y-71604724D01*
X74117893Y-71605275D01*
X74700657Y-71364481D01*
X75074261Y-70991529D01*
X75444997Y-71362914D01*
X76027341Y-71604724D01*
X76657893Y-71605275D01*
X77240657Y-71364481D01*
X77614261Y-70991529D01*
X77984997Y-71362914D01*
X78567341Y-71604724D01*
X79197893Y-71605275D01*
X79780657Y-71364481D01*
X80154261Y-70991529D01*
X80524997Y-71362914D01*
X81107341Y-71604724D01*
X81737893Y-71605275D01*
X82320657Y-71364481D01*
X82694261Y-70991529D01*
X83064997Y-71362914D01*
X83424160Y-71512051D01*
X83323081Y-71612954D01*
X83165180Y-71993223D01*
X83164821Y-72404971D01*
X83230882Y-72564852D01*
X83195029Y-72564821D01*
X82886243Y-72692408D01*
X82722592Y-72296343D01*
X82375485Y-71948629D01*
X81921734Y-71760215D01*
X81430421Y-71759786D01*
X80976343Y-71947408D01*
X80628629Y-72294515D01*
X80440215Y-72748266D01*
X80439786Y-73239579D01*
X80627408Y-73693657D01*
X80974515Y-74041371D01*
X81428266Y-74229785D01*
X81919579Y-74230214D01*
X82373657Y-74042592D01*
X82436913Y-73979447D01*
X82522058Y-74185515D01*
X82812954Y-74476919D01*
X83193223Y-74634820D01*
X83604971Y-74635179D01*
X83985515Y-74477942D01*
X84276919Y-74187046D01*
X84434820Y-73806777D01*
X84435179Y-73395029D01*
X84369118Y-73235148D01*
X84404971Y-73235179D01*
X84785515Y-73077942D01*
X84848595Y-73014971D01*
X88094821Y-73014971D01*
X88252058Y-73395515D01*
X88542954Y-73686919D01*
X88923223Y-73844820D01*
X89334971Y-73845179D01*
X89715515Y-73687942D01*
X90006919Y-73397046D01*
X90164820Y-73016777D01*
X90165179Y-72605029D01*
X90007942Y-72224485D01*
X89717046Y-71933081D01*
X89336777Y-71775180D01*
X88925029Y-71774821D01*
X88544485Y-71932058D01*
X88253081Y-72222954D01*
X88095180Y-72603223D01*
X88094821Y-73014971D01*
X84848595Y-73014971D01*
X85076919Y-72787046D01*
X85234820Y-72406777D01*
X85235179Y-71995029D01*
X85077942Y-71614485D01*
X84837801Y-71373925D01*
X84860657Y-71364481D01*
X85306914Y-70919003D01*
X85548724Y-70336659D01*
X85549275Y-69706107D01*
X85308481Y-69123343D01*
X84863003Y-68677086D01*
X84280659Y-68435276D01*
X83650107Y-68434725D01*
X83067343Y-68675519D01*
X82693739Y-69048471D01*
X82323003Y-68677086D01*
X81740659Y-68435276D01*
X81528616Y-68435091D01*
X81676919Y-68287046D01*
X81794046Y-68004971D01*
X84964821Y-68004971D01*
X85122058Y-68385515D01*
X85412954Y-68676919D01*
X85793223Y-68834820D01*
X86204971Y-68835179D01*
X86278080Y-68804971D01*
X87064821Y-68804971D01*
X87222058Y-69185515D01*
X87512954Y-69476919D01*
X87893223Y-69634820D01*
X88138880Y-69635034D01*
X87965215Y-70053266D01*
X87964786Y-70544579D01*
X88152408Y-70998657D01*
X88499515Y-71346371D01*
X88953266Y-71534785D01*
X89444579Y-71535214D01*
X89898657Y-71347592D01*
X90001850Y-71244579D01*
X98564786Y-71244579D01*
X98752408Y-71698657D01*
X99099515Y-72046371D01*
X99553266Y-72234785D01*
X100044579Y-72235214D01*
X100498657Y-72047592D01*
X100846371Y-71700485D01*
X101034785Y-71246734D01*
X101035214Y-70755421D01*
X100847592Y-70301343D01*
X100500485Y-69953629D01*
X100046734Y-69765215D01*
X99555421Y-69764786D01*
X99101343Y-69952408D01*
X98753629Y-70299515D01*
X98565215Y-70753266D01*
X98564786Y-71244579D01*
X90001850Y-71244579D01*
X90246371Y-71000485D01*
X90434785Y-70546734D01*
X90435214Y-70055421D01*
X90247592Y-69601343D01*
X89900485Y-69253629D01*
X89446734Y-69065215D01*
X89027659Y-69064849D01*
X89134820Y-68806777D01*
X89135089Y-68498568D01*
X89412954Y-68776919D01*
X89793223Y-68934820D01*
X90204971Y-68935179D01*
X90585515Y-68777942D01*
X90876919Y-68487046D01*
X91034820Y-68106777D01*
X91035179Y-67695029D01*
X90877942Y-67314485D01*
X90608507Y-67044579D01*
X92264786Y-67044579D01*
X92452408Y-67498657D01*
X92799515Y-67846371D01*
X93253266Y-68034785D01*
X93744579Y-68035214D01*
X94198657Y-67847592D01*
X94546371Y-67500485D01*
X94734785Y-67046734D01*
X94735214Y-66555421D01*
X94547592Y-66101343D01*
X94200485Y-65753629D01*
X93746734Y-65565215D01*
X93255421Y-65564786D01*
X92801343Y-65752408D01*
X92453629Y-66099515D01*
X92265215Y-66553266D01*
X92264786Y-67044579D01*
X90608507Y-67044579D01*
X90587046Y-67023081D01*
X90206777Y-66865180D01*
X89795029Y-66864821D01*
X89414485Y-67022058D01*
X89123081Y-67312954D01*
X88965180Y-67693223D01*
X88964911Y-68001432D01*
X88687046Y-67723081D01*
X88306777Y-67565180D01*
X87895029Y-67564821D01*
X87514485Y-67722058D01*
X87223081Y-68012954D01*
X87065180Y-68393223D01*
X87064821Y-68804971D01*
X86278080Y-68804971D01*
X86585515Y-68677942D01*
X86876919Y-68387046D01*
X87034820Y-68006777D01*
X87035179Y-67595029D01*
X86877942Y-67214485D01*
X86587046Y-66923081D01*
X86206777Y-66765180D01*
X85795029Y-66764821D01*
X85414485Y-66922058D01*
X85123081Y-67212954D01*
X84965180Y-67593223D01*
X84964821Y-68004971D01*
X81794046Y-68004971D01*
X81834820Y-67906777D01*
X81835179Y-67495029D01*
X81677942Y-67114485D01*
X81387046Y-66823081D01*
X81006777Y-66665180D01*
X80595029Y-66664821D01*
X80214485Y-66822058D01*
X79923081Y-67112954D01*
X79765180Y-67493223D01*
X79764821Y-67904971D01*
X79922058Y-68285515D01*
X80212954Y-68576919D01*
X80504743Y-68698080D01*
X80153739Y-69048471D01*
X79783003Y-68677086D01*
X79220272Y-68443420D01*
X79376919Y-68287046D01*
X79534820Y-67906777D01*
X79535179Y-67495029D01*
X79377942Y-67114485D01*
X79087046Y-66823081D01*
X78706777Y-66665180D01*
X78295029Y-66664821D01*
X77914485Y-66822058D01*
X77623081Y-67112954D01*
X77465180Y-67493223D01*
X77464821Y-67904971D01*
X77622058Y-68285515D01*
X77912954Y-68576919D01*
X78069077Y-68641747D01*
X77987343Y-68675519D01*
X77613739Y-69048471D01*
X77243003Y-68677086D01*
X76774435Y-68482520D01*
X76785515Y-68477942D01*
X77076919Y-68187046D01*
X77234820Y-67806777D01*
X77235179Y-67395029D01*
X77077942Y-67014485D01*
X76787046Y-66723081D01*
X76406777Y-66565180D01*
X75995029Y-66564821D01*
X75614485Y-66722058D01*
X75607790Y-66728742D01*
X75477942Y-66414485D01*
X75187046Y-66123081D01*
X74806777Y-65965180D01*
X74395029Y-65964821D01*
X74014485Y-66122058D01*
X73723081Y-66412954D01*
X73565180Y-66793223D01*
X73564821Y-67204971D01*
X73722058Y-67585515D01*
X74012954Y-67876919D01*
X74164878Y-67940003D01*
X74164821Y-68004971D01*
X74322058Y-68385515D01*
X74549486Y-68613340D01*
X74120659Y-68435276D01*
X73490107Y-68434725D01*
X72907343Y-68675519D01*
X72533739Y-69048471D01*
X72163003Y-68677086D01*
X71580659Y-68435276D01*
X70950107Y-68434725D01*
X70367343Y-68675519D01*
X69993739Y-69048471D01*
X69623003Y-68677086D01*
X69040659Y-68435276D01*
X68529053Y-68434829D01*
X68576919Y-68387046D01*
X68734820Y-68006777D01*
X68735179Y-67595029D01*
X68577942Y-67214485D01*
X68287046Y-66923081D01*
X67906777Y-66765180D01*
X67495029Y-66764821D01*
X67114485Y-66922058D01*
X66823081Y-67212954D01*
X66665180Y-67593223D01*
X66664821Y-68004971D01*
X66822058Y-68385515D01*
X67112954Y-68676919D01*
X67493223Y-68834820D01*
X67667611Y-68834972D01*
X67453739Y-69048471D01*
X67083003Y-68677086D01*
X66500659Y-68435276D01*
X65870107Y-68434725D01*
X65287343Y-68675519D01*
X64913739Y-69048471D01*
X64543003Y-68677086D01*
X63960659Y-68435276D01*
X63330107Y-68434725D01*
X62747343Y-68675519D01*
X62373739Y-69048471D01*
X62003003Y-68677086D01*
X61420659Y-68435276D01*
X60790107Y-68434725D01*
X60207343Y-68675519D01*
X59833739Y-69048471D01*
X59463003Y-68677086D01*
X58880659Y-68435276D01*
X58250107Y-68434725D01*
X57667343Y-68675519D01*
X57293739Y-69048471D01*
X56923003Y-68677086D01*
X56340659Y-68435276D01*
X55710107Y-68434725D01*
X55127343Y-68675519D01*
X54753739Y-69048471D01*
X54383003Y-68677086D01*
X53800659Y-68435276D01*
X53170107Y-68434725D01*
X52587343Y-68675519D01*
X52147884Y-69114211D01*
X52060350Y-69083255D01*
X51123605Y-70020000D01*
X50764395Y-70020000D01*
X49827650Y-69083255D01*
X49565981Y-69175792D01*
X49347812Y-69767398D01*
X47127000Y-69767398D01*
X47127000Y-68903650D01*
X50007255Y-68903650D01*
X50944000Y-69840395D01*
X51880745Y-68903650D01*
X51788208Y-68641981D01*
X51196602Y-68423812D01*
X50566539Y-68448648D01*
X50099792Y-68641981D01*
X50007255Y-68903650D01*
X47127000Y-68903650D01*
X47127000Y-65127000D01*
X76000000Y-65127000D01*
X76049410Y-65116994D01*
X76091035Y-65088553D01*
X76118315Y-65046159D01*
X76127000Y-65000000D01*
X76127000Y-63704971D01*
X80364821Y-63704971D01*
X80522058Y-64085515D01*
X80812954Y-64376919D01*
X81193223Y-64534820D01*
X81604971Y-64535179D01*
X81985515Y-64377942D01*
X82276919Y-64087046D01*
X82434820Y-63706777D01*
X82435048Y-63444579D01*
X87864786Y-63444579D01*
X88052408Y-63898657D01*
X88399515Y-64246371D01*
X88853266Y-64434785D01*
X89344579Y-64435214D01*
X89798657Y-64247592D01*
X90146371Y-63900485D01*
X90334785Y-63446734D01*
X90335214Y-62955421D01*
X90147592Y-62501343D01*
X89800485Y-62153629D01*
X89346734Y-61965215D01*
X88855421Y-61964786D01*
X88401343Y-62152408D01*
X88053629Y-62499515D01*
X87865215Y-62953266D01*
X87864786Y-63444579D01*
X82435048Y-63444579D01*
X82435179Y-63295029D01*
X82277942Y-62914485D01*
X81987046Y-62623081D01*
X81606777Y-62465180D01*
X81195029Y-62464821D01*
X80814485Y-62622058D01*
X80523081Y-62912954D01*
X80365180Y-63293223D01*
X80364821Y-63704971D01*
X76127000Y-63704971D01*
X76127000Y-61804971D01*
X84264821Y-61804971D01*
X84422058Y-62185515D01*
X84712954Y-62476919D01*
X85093223Y-62634820D01*
X85504971Y-62635179D01*
X85885515Y-62477942D01*
X86176919Y-62187046D01*
X86334820Y-61806777D01*
X86335179Y-61395029D01*
X86177942Y-61014485D01*
X86168445Y-61004971D01*
X98564821Y-61004971D01*
X98722058Y-61385515D01*
X99012954Y-61676919D01*
X99393223Y-61834820D01*
X99804971Y-61835179D01*
X100185515Y-61677942D01*
X100476919Y-61387046D01*
X100634820Y-61006777D01*
X100635179Y-60595029D01*
X100515330Y-60304971D01*
X101664821Y-60304971D01*
X101822058Y-60685515D01*
X102112954Y-60976919D01*
X102493223Y-61134820D01*
X102904971Y-61135179D01*
X103285515Y-60977942D01*
X103576919Y-60687046D01*
X103734820Y-60306777D01*
X103735179Y-59895029D01*
X103577942Y-59514485D01*
X103287046Y-59223081D01*
X102906777Y-59065180D01*
X102495029Y-59064821D01*
X102114485Y-59222058D01*
X101823081Y-59512954D01*
X101665180Y-59893223D01*
X101664821Y-60304971D01*
X100515330Y-60304971D01*
X100477942Y-60214485D01*
X100454327Y-60190829D01*
X100485515Y-60177942D01*
X100776919Y-59887046D01*
X100934820Y-59506777D01*
X100935179Y-59095029D01*
X100777942Y-58714485D01*
X100487046Y-58423081D01*
X100106777Y-58265180D01*
X99695029Y-58264821D01*
X99314485Y-58422058D01*
X99023081Y-58712954D01*
X98865180Y-59093223D01*
X98864821Y-59504971D01*
X99022058Y-59885515D01*
X99045673Y-59909171D01*
X99014485Y-59922058D01*
X98723081Y-60212954D01*
X98565180Y-60593223D01*
X98564821Y-61004971D01*
X86168445Y-61004971D01*
X85887046Y-60723081D01*
X85506777Y-60565180D01*
X85095029Y-60564821D01*
X84714485Y-60722058D01*
X84423081Y-61012954D01*
X84265180Y-61393223D01*
X84264821Y-61804971D01*
X76127000Y-61804971D01*
X76127000Y-59504971D01*
X96564821Y-59504971D01*
X96722058Y-59885515D01*
X97012954Y-60176919D01*
X97393223Y-60334820D01*
X97804971Y-60335179D01*
X98185515Y-60177942D01*
X98476919Y-59887046D01*
X98634820Y-59506777D01*
X98635179Y-59095029D01*
X98477942Y-58714485D01*
X98187046Y-58423081D01*
X97806777Y-58265180D01*
X97395029Y-58264821D01*
X97014485Y-58422058D01*
X96723081Y-58712954D01*
X96565180Y-59093223D01*
X96564821Y-59504971D01*
X76127000Y-59504971D01*
X76127000Y-58354971D01*
X82964821Y-58354971D01*
X83122058Y-58735515D01*
X83412954Y-59026919D01*
X83793223Y-59184820D01*
X84204971Y-59185179D01*
X84585515Y-59027942D01*
X84876919Y-58737046D01*
X85034820Y-58356777D01*
X85035179Y-57945029D01*
X84877942Y-57564485D01*
X84587046Y-57273081D01*
X84206777Y-57115180D01*
X83795029Y-57114821D01*
X83414485Y-57272058D01*
X83123081Y-57562954D01*
X82965180Y-57943223D01*
X82964821Y-58354971D01*
X76127000Y-58354971D01*
X76127000Y-57435024D01*
X76304971Y-57435179D01*
X76685515Y-57277942D01*
X76900032Y-57063799D01*
X77012954Y-57176919D01*
X77393223Y-57334820D01*
X77804971Y-57335179D01*
X78185515Y-57177942D01*
X78476919Y-56887046D01*
X78634820Y-56506777D01*
X78634944Y-56364783D01*
X79064943Y-56365159D01*
X79064821Y-56504971D01*
X79222058Y-56885515D01*
X79512954Y-57176919D01*
X79893223Y-57334820D01*
X80304971Y-57335179D01*
X80685515Y-57177942D01*
X80976919Y-56887046D01*
X81134820Y-56506777D01*
X81134944Y-56364748D01*
X81664943Y-56365211D01*
X81664821Y-56504971D01*
X81822058Y-56885515D01*
X82112954Y-57176919D01*
X82493223Y-57334820D01*
X82904971Y-57335179D01*
X83285515Y-57177942D01*
X83576919Y-56887046D01*
X83734820Y-56506777D01*
X83734944Y-56364801D01*
X84277893Y-56365275D01*
X84860657Y-56124481D01*
X85306914Y-55679003D01*
X85548724Y-55096659D01*
X85549275Y-54466107D01*
X85308481Y-53883343D01*
X84863003Y-53437086D01*
X84280659Y-53195276D01*
X83650107Y-53194725D01*
X83067343Y-53435519D01*
X82693739Y-53808471D01*
X82323003Y-53437086D01*
X81740659Y-53195276D01*
X81110107Y-53194725D01*
X80527343Y-53435519D01*
X80153739Y-53808471D01*
X79783003Y-53437086D01*
X79200659Y-53195276D01*
X78570107Y-53194725D01*
X77987343Y-53435519D01*
X77613739Y-53808471D01*
X77243003Y-53437086D01*
X76660659Y-53195276D01*
X76127000Y-53194810D01*
X76127000Y-51144579D01*
X88464786Y-51144579D01*
X88652408Y-51598657D01*
X88999515Y-51946371D01*
X89453266Y-52134785D01*
X89944579Y-52135214D01*
X90398657Y-51947592D01*
X90746371Y-51600485D01*
X90934785Y-51146734D01*
X90935214Y-50655421D01*
X90747592Y-50201343D01*
X90400485Y-49853629D01*
X89946734Y-49665215D01*
X89455421Y-49664786D01*
X89001343Y-49852408D01*
X88653629Y-50199515D01*
X88465215Y-50653266D01*
X88464786Y-51144579D01*
X76127000Y-51144579D01*
X76127000Y-50200000D01*
X76116994Y-50150590D01*
X76088553Y-50108965D01*
X76046159Y-50081685D01*
X76000000Y-50073000D01*
X74000000Y-50073000D01*
X73950590Y-50083006D01*
X73908965Y-50111447D01*
X73881685Y-50153841D01*
X73873000Y-50200000D01*
X73873000Y-53195060D01*
X73490107Y-53194725D01*
X72907343Y-53435519D01*
X72533739Y-53808471D01*
X72163003Y-53437086D01*
X71580659Y-53195276D01*
X70950107Y-53194725D01*
X70367343Y-53435519D01*
X69993739Y-53808471D01*
X69623003Y-53437086D01*
X69040659Y-53195276D01*
X68410107Y-53194725D01*
X67827343Y-53435519D01*
X67453739Y-53808471D01*
X67083003Y-53437086D01*
X66500659Y-53195276D01*
X65870107Y-53194725D01*
X65491885Y-53351004D01*
X65634820Y-53006777D01*
X65635179Y-52595029D01*
X65477942Y-52214485D01*
X65187046Y-51923081D01*
X64806777Y-51765180D01*
X64395029Y-51764821D01*
X64014485Y-51922058D01*
X63723081Y-52212954D01*
X63565180Y-52593223D01*
X63564821Y-53004971D01*
X63643339Y-53194999D01*
X63330107Y-53194725D01*
X62747343Y-53435519D01*
X62373739Y-53808471D01*
X62164615Y-53598980D01*
X62376919Y-53387046D01*
X62534820Y-53006777D01*
X62535179Y-52595029D01*
X62377942Y-52214485D01*
X62087046Y-51923081D01*
X61706777Y-51765180D01*
X61295029Y-51764821D01*
X60914485Y-51922058D01*
X60623081Y-52212954D01*
X60465180Y-52593223D01*
X60464821Y-53004971D01*
X60579228Y-53281859D01*
X60207343Y-53435519D01*
X59833739Y-53808471D01*
X59463003Y-53437086D01*
X59016616Y-53251730D01*
X59184785Y-52846734D01*
X59185214Y-52355421D01*
X58997592Y-51901343D01*
X58701738Y-51604971D01*
X68564821Y-51604971D01*
X68722058Y-51985515D01*
X69012954Y-52276919D01*
X69393223Y-52434820D01*
X69804971Y-52435179D01*
X70185515Y-52277942D01*
X70249857Y-52213712D01*
X70312954Y-52276919D01*
X70693223Y-52434820D01*
X71104971Y-52435179D01*
X71485515Y-52277942D01*
X71776919Y-51987046D01*
X71934820Y-51606777D01*
X71935179Y-51195029D01*
X71777942Y-50814485D01*
X71487046Y-50523081D01*
X71106777Y-50365180D01*
X70695029Y-50364821D01*
X70314485Y-50522058D01*
X70250143Y-50586288D01*
X70187046Y-50523081D01*
X69806777Y-50365180D01*
X69395029Y-50364821D01*
X69014485Y-50522058D01*
X68723081Y-50812954D01*
X68565180Y-51193223D01*
X68564821Y-51604971D01*
X58701738Y-51604971D01*
X58650485Y-51553629D01*
X58196734Y-51365215D01*
X57705421Y-51364786D01*
X57251343Y-51552408D01*
X56903629Y-51899515D01*
X56715215Y-52353266D01*
X56714786Y-52844579D01*
X56902408Y-53298657D01*
X57249515Y-53646371D01*
X57395428Y-53706959D01*
X57293739Y-53808471D01*
X56923003Y-53437086D01*
X56340659Y-53195276D01*
X55710107Y-53194725D01*
X55127343Y-53435519D01*
X54753739Y-53808471D01*
X54383003Y-53437086D01*
X53800659Y-53195276D01*
X53170107Y-53194725D01*
X52587343Y-53435519D01*
X52213739Y-53808471D01*
X51843003Y-53437086D01*
X51260659Y-53195276D01*
X50630107Y-53194725D01*
X50047343Y-53435519D01*
X49601086Y-53880997D01*
X49359276Y-54463341D01*
X49358725Y-55093893D01*
X49599519Y-55676657D01*
X50044997Y-56122914D01*
X50627341Y-56364724D01*
X51257893Y-56365275D01*
X51840657Y-56124481D01*
X52214261Y-55751529D01*
X52584997Y-56122914D01*
X53167341Y-56364724D01*
X53797893Y-56365275D01*
X54380657Y-56124481D01*
X54754261Y-55751529D01*
X55124997Y-56122914D01*
X55707341Y-56364724D01*
X56337893Y-56365275D01*
X56920657Y-56124481D01*
X57294261Y-55751529D01*
X57592471Y-56050261D01*
X57221086Y-56420997D01*
X56979276Y-57003341D01*
X56978725Y-57633893D01*
X57219519Y-58216657D01*
X57664997Y-58662914D01*
X58247341Y-58904724D01*
X58877893Y-58905275D01*
X59460657Y-58664481D01*
X59834261Y-58291529D01*
X60204997Y-58662914D01*
X60787341Y-58904724D01*
X61417893Y-58905275D01*
X62000657Y-58664481D01*
X62374261Y-58291529D01*
X62744997Y-58662914D01*
X63327341Y-58904724D01*
X63957893Y-58905275D01*
X64540657Y-58664481D01*
X64986914Y-58219003D01*
X65228724Y-57636659D01*
X65229275Y-57006107D01*
X64988481Y-56423343D01*
X64615529Y-56049739D01*
X64914261Y-55751529D01*
X65284997Y-56122914D01*
X65867341Y-56364724D01*
X66497893Y-56365275D01*
X67080657Y-56124481D01*
X67454261Y-55751529D01*
X67824997Y-56122914D01*
X68407341Y-56364724D01*
X69037893Y-56365275D01*
X69620657Y-56124481D01*
X69994261Y-55751529D01*
X70364997Y-56122914D01*
X70947341Y-56364724D01*
X71577893Y-56365275D01*
X71965170Y-56205255D01*
X71964821Y-56604971D01*
X72122058Y-56985515D01*
X72412954Y-57276919D01*
X72793223Y-57434820D01*
X73204971Y-57435179D01*
X73585515Y-57277942D01*
X73850206Y-57013712D01*
X73873000Y-57036546D01*
X73873000Y-62873000D01*
X45000000Y-62873000D01*
X44950590Y-62883006D01*
X44908965Y-62911447D01*
X44881685Y-62953841D01*
X44873000Y-63000000D01*
X44873000Y-73873000D01*
X28127000Y-73873000D01*
X28127000Y-66112619D01*
X28268234Y-66084526D01*
X28653233Y-65827278D01*
X28616887Y-66010000D01*
X28726120Y-66559151D01*
X29037189Y-67024698D01*
X29419275Y-67280000D01*
X29037189Y-67535302D01*
X28726120Y-68000849D01*
X28616887Y-68550000D01*
X28726120Y-69099151D01*
X29037189Y-69564698D01*
X29419275Y-69820000D01*
X29037189Y-70075302D01*
X28726120Y-70540849D01*
X28616887Y-71090000D01*
X28726120Y-71639151D01*
X29037189Y-72104698D01*
X29502736Y-72415767D01*
X30051887Y-72525000D01*
X30108113Y-72525000D01*
X30657264Y-72415767D01*
X31122811Y-72104698D01*
X31433880Y-71639151D01*
X31543113Y-71090000D01*
X31433880Y-70540849D01*
X31122811Y-70075302D01*
X30740725Y-69820000D01*
X31122811Y-69564698D01*
X31433880Y-69099151D01*
X31543113Y-68550000D01*
X31433880Y-68000849D01*
X31122811Y-67535302D01*
X30740725Y-67280000D01*
X31122811Y-67024698D01*
X31433880Y-66559151D01*
X31543113Y-66010000D01*
X31433880Y-65460849D01*
X31122811Y-64995302D01*
X30718297Y-64725014D01*
X30935134Y-64622389D01*
X31311041Y-64207423D01*
X31471904Y-63819039D01*
X31349915Y-63597000D01*
X30207000Y-63597000D01*
X30207000Y-63617000D01*
X29953000Y-63617000D01*
X29953000Y-63597000D01*
X28810085Y-63597000D01*
X28771901Y-63666500D01*
X28754415Y-63640330D01*
X28439634Y-63430000D01*
X28745573Y-63225578D01*
X28810085Y-63343000D01*
X29953000Y-63343000D01*
X29953000Y-63323000D01*
X30207000Y-63323000D01*
X30207000Y-63343000D01*
X31349915Y-63343000D01*
X31471904Y-63120961D01*
X31311041Y-62732577D01*
X30935134Y-62317611D01*
X30718297Y-62214986D01*
X31048004Y-61994682D01*
X31149515Y-62096371D01*
X31603266Y-62284785D01*
X32094579Y-62285214D01*
X32548657Y-62097592D01*
X32896371Y-61750485D01*
X33084785Y-61296734D01*
X33085214Y-60805421D01*
X32897592Y-60351343D01*
X32550485Y-60003629D01*
X32096734Y-59815215D01*
X31605421Y-59814786D01*
X31174594Y-59992801D01*
X31122811Y-59915302D01*
X30740725Y-59660000D01*
X31122811Y-59404698D01*
X31433880Y-58939151D01*
X31543113Y-58390000D01*
X31433880Y-57840849D01*
X31122811Y-57375302D01*
X30740725Y-57120000D01*
X31122811Y-56864698D01*
X31433880Y-56399151D01*
X31543113Y-55850000D01*
X36236887Y-55850000D01*
X36346120Y-56399151D01*
X36657189Y-56864698D01*
X37039275Y-57120000D01*
X36657189Y-57375302D01*
X36346120Y-57840849D01*
X36236887Y-58390000D01*
X36346120Y-58939151D01*
X36657189Y-59404698D01*
X37039275Y-59660000D01*
X36657189Y-59915302D01*
X36346120Y-60380849D01*
X36236887Y-60930000D01*
X36346120Y-61479151D01*
X36657189Y-61944698D01*
X37039275Y-62200000D01*
X36657189Y-62455302D01*
X36346120Y-62920849D01*
X36236887Y-63470000D01*
X36346120Y-64019151D01*
X36657189Y-64484698D01*
X37039275Y-64740000D01*
X36657189Y-64995302D01*
X36346120Y-65460849D01*
X36236887Y-66010000D01*
X36346120Y-66559151D01*
X36657189Y-67024698D01*
X37039275Y-67280000D01*
X36657189Y-67535302D01*
X36346120Y-68000849D01*
X36236887Y-68550000D01*
X36346120Y-69099151D01*
X36657189Y-69564698D01*
X37039275Y-69820000D01*
X36657189Y-70075302D01*
X36346120Y-70540849D01*
X36236887Y-71090000D01*
X36346120Y-71639151D01*
X36657189Y-72104698D01*
X37122736Y-72415767D01*
X37671887Y-72525000D01*
X37728113Y-72525000D01*
X38277264Y-72415767D01*
X38742811Y-72104698D01*
X39053880Y-71639151D01*
X39163113Y-71090000D01*
X39053880Y-70540849D01*
X38742811Y-70075302D01*
X38360725Y-69820000D01*
X38742811Y-69564698D01*
X39053880Y-69099151D01*
X39163113Y-68550000D01*
X39053880Y-68000849D01*
X38742811Y-67535302D01*
X38360725Y-67280000D01*
X38742811Y-67024698D01*
X39053880Y-66559151D01*
X39163113Y-66010000D01*
X39135964Y-65873514D01*
X39451766Y-66084526D01*
X40025255Y-66198600D01*
X40394745Y-66198600D01*
X40968234Y-66084526D01*
X41454415Y-65759670D01*
X41779271Y-65273489D01*
X41893345Y-64700000D01*
X41779271Y-64126511D01*
X41454415Y-63640330D01*
X41139634Y-63430000D01*
X41454415Y-63219670D01*
X41779271Y-62733489D01*
X41893345Y-62160000D01*
X41802835Y-61704971D01*
X44964821Y-61704971D01*
X45122058Y-62085515D01*
X45412954Y-62376919D01*
X45793223Y-62534820D01*
X46204971Y-62535179D01*
X46585515Y-62377942D01*
X46876919Y-62087046D01*
X47034820Y-61706777D01*
X47035179Y-61295029D01*
X46877942Y-60914485D01*
X46587046Y-60623081D01*
X46206777Y-60465180D01*
X45795029Y-60464821D01*
X45414485Y-60622058D01*
X45123081Y-60912954D01*
X44965180Y-61293223D01*
X44964821Y-61704971D01*
X41802835Y-61704971D01*
X41779271Y-61586511D01*
X41454415Y-61100330D01*
X41139634Y-60890000D01*
X41454415Y-60679670D01*
X41779271Y-60193489D01*
X41893345Y-59620000D01*
X41779271Y-59046511D01*
X41454415Y-58560330D01*
X41440087Y-58550757D01*
X41461317Y-58546762D01*
X41677441Y-58407690D01*
X41822431Y-58195490D01*
X41873440Y-57943600D01*
X41873440Y-56216400D01*
X41829162Y-55981083D01*
X41690090Y-55764959D01*
X41477890Y-55619969D01*
X41226000Y-55568960D01*
X40584429Y-55568960D01*
X40734820Y-55206777D01*
X40735179Y-54795029D01*
X40577942Y-54414485D01*
X40287046Y-54123081D01*
X39906777Y-53965180D01*
X39495029Y-53964821D01*
X39114485Y-54122058D01*
X38823081Y-54412954D01*
X38668363Y-54785557D01*
X38277264Y-54524233D01*
X37728113Y-54415000D01*
X37671887Y-54415000D01*
X37122736Y-54524233D01*
X36657189Y-54835302D01*
X36346120Y-55300849D01*
X36236887Y-55850000D01*
X31543113Y-55850000D01*
X31433880Y-55300849D01*
X31122811Y-54835302D01*
X30657264Y-54524233D01*
X30108113Y-54415000D01*
X30051887Y-54415000D01*
X29502736Y-54524233D01*
X29037189Y-54835302D01*
X28726120Y-55300849D01*
X28667106Y-55597535D01*
X28526000Y-55568960D01*
X28127000Y-55568960D01*
X28127000Y-51254971D01*
X31264821Y-51254971D01*
X31422058Y-51635515D01*
X31712954Y-51926919D01*
X32093223Y-52084820D01*
X32504971Y-52085179D01*
X32885515Y-51927942D01*
X33119285Y-51694579D01*
X40564786Y-51694579D01*
X40752408Y-52148657D01*
X41099515Y-52496371D01*
X41553266Y-52684785D01*
X42044579Y-52685214D01*
X42498657Y-52497592D01*
X42846371Y-52150485D01*
X43034785Y-51696734D01*
X43035214Y-51205421D01*
X42847592Y-50751343D01*
X42500485Y-50403629D01*
X42046734Y-50215215D01*
X41555421Y-50214786D01*
X41101343Y-50402408D01*
X40753629Y-50749515D01*
X40565215Y-51203266D01*
X40564786Y-51694579D01*
X33119285Y-51694579D01*
X33176919Y-51637046D01*
X33334820Y-51256777D01*
X33335179Y-50845029D01*
X33177942Y-50464485D01*
X32887046Y-50173081D01*
X32506777Y-50015180D01*
X32095029Y-50014821D01*
X31714485Y-50172058D01*
X31423081Y-50462954D01*
X31265180Y-50843223D01*
X31264821Y-51254971D01*
X28127000Y-51254971D01*
X28127000Y-47627000D01*
X71144544Y-47627000D01*
X70914485Y-47722058D01*
X70623081Y-48012954D01*
X70465180Y-48393223D01*
X70464821Y-48804971D01*
X70622058Y-49185515D01*
X70912954Y-49476919D01*
X71293223Y-49634820D01*
X71704971Y-49635179D01*
X72085515Y-49477942D01*
X72376919Y-49187046D01*
X72427226Y-49065892D01*
X72593223Y-49134820D01*
X73004971Y-49135179D01*
X73385515Y-48977942D01*
X73658962Y-48704971D01*
X94764821Y-48704971D01*
X94922058Y-49085515D01*
X95212954Y-49376919D01*
X95593223Y-49534820D01*
X96004971Y-49535179D01*
X96385515Y-49377942D01*
X96676919Y-49087046D01*
X96834820Y-48706777D01*
X96834961Y-48544579D01*
X97964786Y-48544579D01*
X98152408Y-48998657D01*
X98499515Y-49346371D01*
X98953266Y-49534785D01*
X99444579Y-49535214D01*
X99898657Y-49347592D01*
X100246371Y-49000485D01*
X100434785Y-48546734D01*
X100435214Y-48055421D01*
X100247592Y-47601343D01*
X99900485Y-47253629D01*
X99446734Y-47065215D01*
X98955421Y-47064786D01*
X98501343Y-47252408D01*
X98153629Y-47599515D01*
X97965215Y-48053266D01*
X97964786Y-48544579D01*
X96834961Y-48544579D01*
X96835179Y-48295029D01*
X96677942Y-47914485D01*
X96387046Y-47623081D01*
X96006777Y-47465180D01*
X95595029Y-47464821D01*
X95214485Y-47622058D01*
X94923081Y-47912954D01*
X94765180Y-48293223D01*
X94764821Y-48704971D01*
X73658962Y-48704971D01*
X73676919Y-48687046D01*
X73834820Y-48306777D01*
X73835179Y-47895029D01*
X73724432Y-47627000D01*
X76000000Y-47627000D01*
X76049410Y-47616994D01*
X76091035Y-47588553D01*
X76118315Y-47546159D01*
X76127000Y-47500000D01*
X76127000Y-43685000D01*
X84000000Y-43685000D01*
X84262138Y-43632857D01*
X84484368Y-43484368D01*
X84632857Y-43262138D01*
X84659738Y-43127000D01*
X104373000Y-43127000D01*
X104373000Y-48726271D01*
X104373000Y-48726271D01*
G37*
X104373000Y-48726271D02*
X104300485Y-48653629D01*
X103846734Y-48465215D01*
X103355421Y-48464786D01*
X102901343Y-48652408D01*
X102553629Y-48999515D01*
X102365215Y-49453266D01*
X102364786Y-49944579D01*
X102552408Y-50398657D01*
X102899515Y-50746371D01*
X103353266Y-50934785D01*
X103844579Y-50935214D01*
X104298657Y-50747592D01*
X104373000Y-50673379D01*
X104373000Y-69881480D01*
X104201343Y-69952408D01*
X103853629Y-70299515D01*
X103665215Y-70753266D01*
X103664786Y-71244579D01*
X103852408Y-71698657D01*
X104199515Y-72046371D01*
X104373000Y-72118408D01*
X104373000Y-90064976D01*
X104155421Y-90064786D01*
X103701343Y-90252408D01*
X103353629Y-90599515D01*
X103165215Y-91053266D01*
X103164849Y-91472737D01*
X103146734Y-91465215D01*
X102927191Y-91465023D01*
X102934785Y-91446734D01*
X102935214Y-90955421D01*
X102747592Y-90501343D01*
X102400485Y-90153629D01*
X101946734Y-89965215D01*
X101455421Y-89964786D01*
X101001343Y-90152408D01*
X100653629Y-90499515D01*
X100465215Y-90953266D01*
X100464786Y-91444579D01*
X100652408Y-91898657D01*
X100926272Y-92173000D01*
X90700000Y-92173000D01*
X90650590Y-92183006D01*
X90608965Y-92211447D01*
X90581685Y-92253841D01*
X90573000Y-92300000D01*
X90573000Y-104300000D01*
X90583006Y-104349410D01*
X90611447Y-104391035D01*
X90653841Y-104418315D01*
X90700000Y-104427000D01*
X102800000Y-104427000D01*
X102849410Y-104416994D01*
X102891035Y-104388553D01*
X102918315Y-104346159D01*
X102927000Y-104300000D01*
X102927000Y-93935024D01*
X103144579Y-93935214D01*
X103598657Y-93747592D01*
X103946371Y-93400485D01*
X104134785Y-92946734D01*
X104135151Y-92527263D01*
X104153266Y-92534785D01*
X104373000Y-92534977D01*
X104373000Y-95665151D01*
X103955421Y-95664786D01*
X103501343Y-95852408D01*
X103153629Y-96199515D01*
X102965215Y-96653266D01*
X102964786Y-97144579D01*
X103152408Y-97598657D01*
X103153522Y-97599773D01*
X102965215Y-98053266D01*
X102964786Y-98544579D01*
X103152408Y-98998657D01*
X103203446Y-99049785D01*
X103153629Y-99099515D01*
X102965215Y-99553266D01*
X102964786Y-100044579D01*
X103152408Y-100498657D01*
X103499515Y-100846371D01*
X103953266Y-101034785D01*
X104373000Y-101035151D01*
X104373000Y-105873000D01*
X29295148Y-105873000D01*
X29598657Y-105747592D01*
X29946371Y-105400485D01*
X30134785Y-104946734D01*
X30135214Y-104455421D01*
X30020304Y-104177318D01*
X30307000Y-104234345D01*
X30880489Y-104120271D01*
X31366670Y-103795415D01*
X31577000Y-103480634D01*
X31787330Y-103795415D01*
X32273511Y-104120271D01*
X32847000Y-104234345D01*
X33420489Y-104120271D01*
X33906670Y-103795415D01*
X34117000Y-103480634D01*
X34327330Y-103795415D01*
X34813511Y-104120271D01*
X35387000Y-104234345D01*
X35960489Y-104120271D01*
X36446670Y-103795415D01*
X36771526Y-103309234D01*
X36885600Y-102735745D01*
X36885600Y-102366255D01*
X36771526Y-101792766D01*
X36446670Y-101306585D01*
X35960489Y-100981729D01*
X35387000Y-100867655D01*
X34813511Y-100981729D01*
X34327330Y-101306585D01*
X34117000Y-101621366D01*
X33906670Y-101306585D01*
X33420489Y-100981729D01*
X32847000Y-100867655D01*
X32273511Y-100981729D01*
X31787330Y-101306585D01*
X31577000Y-101621366D01*
X31366670Y-101306585D01*
X30880489Y-100981729D01*
X30307000Y-100867655D01*
X29733511Y-100981729D01*
X29247330Y-101306585D01*
X29232500Y-101328780D01*
X29168927Y-101175302D01*
X28990299Y-100996673D01*
X28756910Y-100900000D01*
X28127000Y-100900000D01*
X28127000Y-93407000D01*
X28637214Y-93407000D01*
X28750225Y-93975143D01*
X29072052Y-94456792D01*
X29401617Y-94677000D01*
X29072052Y-94897208D01*
X28750225Y-95378857D01*
X28637214Y-95947000D01*
X28750225Y-96515143D01*
X29072052Y-96996792D01*
X29401617Y-97217000D01*
X29072052Y-97437208D01*
X28750225Y-97918857D01*
X28637214Y-98487000D01*
X28750225Y-99055143D01*
X29072052Y-99536792D01*
X29553701Y-99858619D01*
X30121844Y-99971630D01*
X32016156Y-99971630D01*
X32584299Y-99858619D01*
X33065948Y-99536792D01*
X33381961Y-99063844D01*
X80384370Y-99063844D01*
X80384370Y-100958156D01*
X80497381Y-101526299D01*
X80819208Y-102007948D01*
X81300857Y-102329775D01*
X81869000Y-102442786D01*
X82437143Y-102329775D01*
X82918792Y-102007948D01*
X83139000Y-101678383D01*
X83359208Y-102007948D01*
X83840857Y-102329775D01*
X84409000Y-102442786D01*
X84977143Y-102329775D01*
X85458792Y-102007948D01*
X85679000Y-101678383D01*
X85899208Y-102007948D01*
X86380857Y-102329775D01*
X86949000Y-102442786D01*
X87517143Y-102329775D01*
X87998792Y-102007948D01*
X88320619Y-101526299D01*
X88433630Y-100958156D01*
X88433630Y-99063844D01*
X88320619Y-98495701D01*
X87998792Y-98014052D01*
X87517143Y-97692225D01*
X86949000Y-97579214D01*
X86380857Y-97692225D01*
X85899208Y-98014052D01*
X85679000Y-98343617D01*
X85458792Y-98014052D01*
X84977143Y-97692225D01*
X84409000Y-97579214D01*
X83840857Y-97692225D01*
X83359208Y-98014052D01*
X83139000Y-98343617D01*
X82918792Y-98014052D01*
X82437143Y-97692225D01*
X81869000Y-97579214D01*
X81300857Y-97692225D01*
X80819208Y-98014052D01*
X80497381Y-98495701D01*
X80384370Y-99063844D01*
X33381961Y-99063844D01*
X33387775Y-99055143D01*
X33500786Y-98487000D01*
X33387775Y-97918857D01*
X33065948Y-97437208D01*
X32736383Y-97217000D01*
X33065948Y-96996792D01*
X33387775Y-96515143D01*
X33500786Y-95947000D01*
X33387775Y-95378857D01*
X33065948Y-94897208D01*
X32736383Y-94677000D01*
X32934565Y-94544579D01*
X87464786Y-94544579D01*
X87652408Y-94998657D01*
X87999515Y-95346371D01*
X88453266Y-95534785D01*
X88944579Y-95535214D01*
X89398657Y-95347592D01*
X89746371Y-95000485D01*
X89934785Y-94546734D01*
X89935214Y-94055421D01*
X89747592Y-93601343D01*
X89400485Y-93253629D01*
X88946734Y-93065215D01*
X88455421Y-93064786D01*
X88001343Y-93252408D01*
X87653629Y-93599515D01*
X87465215Y-94053266D01*
X87464786Y-94544579D01*
X32934565Y-94544579D01*
X33065948Y-94456792D01*
X33387775Y-93975143D01*
X33500786Y-93407000D01*
X33387775Y-92838857D01*
X33164680Y-92504971D01*
X61064821Y-92504971D01*
X61222058Y-92885515D01*
X61512954Y-93176919D01*
X61893223Y-93334820D01*
X62304971Y-93335179D01*
X62685515Y-93177942D01*
X62976919Y-92887046D01*
X63134820Y-92506777D01*
X63135179Y-92095029D01*
X62977942Y-91714485D01*
X62687046Y-91423081D01*
X62306777Y-91265180D01*
X61895029Y-91264821D01*
X61514485Y-91422058D01*
X61223081Y-91712954D01*
X61065180Y-92093223D01*
X61064821Y-92504971D01*
X33164680Y-92504971D01*
X33065948Y-92357208D01*
X32584299Y-92035381D01*
X32016156Y-91922370D01*
X30121844Y-91922370D01*
X29553701Y-92035381D01*
X29072052Y-92357208D01*
X28750225Y-92838857D01*
X28637214Y-93407000D01*
X28127000Y-93407000D01*
X28127000Y-89928971D01*
X30795821Y-89928971D01*
X30953058Y-90309515D01*
X31243954Y-90600919D01*
X31624223Y-90758820D01*
X32035971Y-90759179D01*
X32416515Y-90601942D01*
X32707919Y-90311046D01*
X32865820Y-89930777D01*
X32866179Y-89519029D01*
X32708942Y-89138485D01*
X32418046Y-88847081D01*
X32037777Y-88689180D01*
X31626029Y-88688821D01*
X31245485Y-88846058D01*
X30954081Y-89136954D01*
X30796180Y-89517223D01*
X30795821Y-89928971D01*
X28127000Y-89928971D01*
X28127000Y-86887495D01*
X28427946Y-86587073D01*
X28677306Y-85986547D01*
X28677308Y-85983694D01*
X30409586Y-85983694D01*
X30657898Y-86584655D01*
X31117287Y-87044846D01*
X31717813Y-87294206D01*
X32368054Y-87294774D01*
X32969015Y-87046462D01*
X33429206Y-86587073D01*
X33678566Y-85986547D01*
X33679134Y-85336306D01*
X33430822Y-84735345D01*
X33339637Y-84644000D01*
X33971214Y-84644000D01*
X34084225Y-85212143D01*
X34406052Y-85693792D01*
X34735617Y-85914000D01*
X34406052Y-86134208D01*
X34084225Y-86615857D01*
X33971214Y-87184000D01*
X34084225Y-87752143D01*
X34406052Y-88233792D01*
X34887701Y-88555619D01*
X35455844Y-88668630D01*
X36166136Y-88668630D01*
X36130180Y-88755223D01*
X36129821Y-89166971D01*
X36287058Y-89547515D01*
X36577954Y-89838919D01*
X36958223Y-89996820D01*
X37369971Y-89997179D01*
X37746553Y-89841579D01*
X41263786Y-89841579D01*
X41451408Y-90295657D01*
X41798515Y-90643371D01*
X42252266Y-90831785D01*
X42743579Y-90832214D01*
X43197657Y-90644592D01*
X43545371Y-90297485D01*
X43733785Y-89843734D01*
X43733786Y-89841579D01*
X45327786Y-89841579D01*
X45515408Y-90295657D01*
X45862515Y-90643371D01*
X46316266Y-90831785D01*
X46807579Y-90832214D01*
X47261657Y-90644592D01*
X47609371Y-90297485D01*
X47797785Y-89843734D01*
X47798214Y-89352421D01*
X47737289Y-89204971D01*
X71464821Y-89204971D01*
X71622058Y-89585515D01*
X71912954Y-89876919D01*
X72293223Y-90034820D01*
X72704971Y-90035179D01*
X73085515Y-89877942D01*
X73376919Y-89587046D01*
X73534820Y-89206777D01*
X73535170Y-88804971D01*
X79764821Y-88804971D01*
X79922058Y-89185515D01*
X80212954Y-89476919D01*
X80593223Y-89634820D01*
X81004971Y-89635179D01*
X81385515Y-89477942D01*
X81676919Y-89187046D01*
X81694552Y-89144579D01*
X86064786Y-89144579D01*
X86252408Y-89598657D01*
X86599515Y-89946371D01*
X87053266Y-90134785D01*
X87544579Y-90135214D01*
X87998657Y-89947592D01*
X88346371Y-89600485D01*
X88399899Y-89471576D01*
X88452408Y-89598657D01*
X88799515Y-89946371D01*
X89253266Y-90134785D01*
X89744579Y-90135214D01*
X90198657Y-89947592D01*
X90546371Y-89600485D01*
X90734785Y-89146734D01*
X90735214Y-88655421D01*
X90547592Y-88201343D01*
X90372961Y-88026406D01*
X90393223Y-88034820D01*
X90804971Y-88035179D01*
X91185515Y-87877942D01*
X91476919Y-87587046D01*
X91634820Y-87206777D01*
X91635179Y-86795029D01*
X91477942Y-86414485D01*
X91187046Y-86123081D01*
X90806777Y-85965180D01*
X90395029Y-85964821D01*
X90014485Y-86122058D01*
X89723081Y-86412954D01*
X89565180Y-86793223D01*
X89564821Y-87204971D01*
X89722058Y-87585515D01*
X89840477Y-87704140D01*
X89746734Y-87665215D01*
X89255421Y-87664786D01*
X88801343Y-87852408D01*
X88453629Y-88199515D01*
X88400101Y-88328424D01*
X88347592Y-88201343D01*
X88000485Y-87853629D01*
X87546734Y-87665215D01*
X87055421Y-87664786D01*
X86601343Y-87852408D01*
X86253629Y-88199515D01*
X86065215Y-88653266D01*
X86064786Y-89144579D01*
X81694552Y-89144579D01*
X81834820Y-88806777D01*
X81835179Y-88395029D01*
X81677942Y-88014485D01*
X81387046Y-87723081D01*
X81006777Y-87565180D01*
X80595029Y-87564821D01*
X80214485Y-87722058D01*
X79923081Y-88012954D01*
X79765180Y-88393223D01*
X79764821Y-88804971D01*
X73535170Y-88804971D01*
X73535179Y-88795029D01*
X73377942Y-88414485D01*
X73087046Y-88123081D01*
X72706777Y-87965180D01*
X72295029Y-87964821D01*
X71914485Y-88122058D01*
X71623081Y-88412954D01*
X71465180Y-88793223D01*
X71464821Y-89204971D01*
X47737289Y-89204971D01*
X47610592Y-88898343D01*
X47263485Y-88550629D01*
X46809734Y-88362215D01*
X46318421Y-88361786D01*
X45864343Y-88549408D01*
X45516629Y-88896515D01*
X45328215Y-89350266D01*
X45327786Y-89841579D01*
X43733786Y-89841579D01*
X43734214Y-89352421D01*
X43546592Y-88898343D01*
X43199485Y-88550629D01*
X42745734Y-88362215D01*
X42254421Y-88361786D01*
X41800343Y-88549408D01*
X41452629Y-88896515D01*
X41264215Y-89350266D01*
X41263786Y-89841579D01*
X37746553Y-89841579D01*
X37750515Y-89839942D01*
X38041919Y-89549046D01*
X38199820Y-89168777D01*
X38200179Y-88757029D01*
X38073978Y-88451598D01*
X38399948Y-88233792D01*
X38721775Y-87752143D01*
X38834786Y-87184000D01*
X38721775Y-86615857D01*
X38399948Y-86134208D01*
X38070383Y-85914000D01*
X38399948Y-85693792D01*
X38721775Y-85212143D01*
X38834786Y-84644000D01*
X38721775Y-84075857D01*
X38440549Y-83654971D01*
X67964821Y-83654971D01*
X68122058Y-84035515D01*
X68412954Y-84326919D01*
X68793223Y-84484820D01*
X69204971Y-84485179D01*
X69585515Y-84327942D01*
X69876919Y-84037046D01*
X70034820Y-83656777D01*
X70035179Y-83245029D01*
X69935990Y-83004971D01*
X77364821Y-83004971D01*
X77522058Y-83385515D01*
X77812954Y-83676919D01*
X78193223Y-83834820D01*
X78604971Y-83835179D01*
X78985515Y-83677942D01*
X79044981Y-83618579D01*
X89666786Y-83618579D01*
X89854408Y-84072657D01*
X90201515Y-84420371D01*
X90655266Y-84608785D01*
X91146579Y-84609214D01*
X91600657Y-84421592D01*
X91948371Y-84074485D01*
X92136785Y-83620734D01*
X92137214Y-83129421D01*
X91949592Y-82675343D01*
X91602485Y-82327629D01*
X91148734Y-82139215D01*
X90657421Y-82138786D01*
X90203343Y-82326408D01*
X89855629Y-82673515D01*
X89667215Y-83127266D01*
X89666786Y-83618579D01*
X79044981Y-83618579D01*
X79276919Y-83387046D01*
X79434820Y-83006777D01*
X79435179Y-82595029D01*
X79277942Y-82214485D01*
X79013101Y-81949182D01*
X79185515Y-81877942D01*
X79476919Y-81587046D01*
X79634820Y-81206777D01*
X79635179Y-80795029D01*
X79477942Y-80414485D01*
X79457200Y-80393707D01*
X79534820Y-80206777D01*
X79535179Y-79795029D01*
X79377942Y-79414485D01*
X79087046Y-79123081D01*
X78706777Y-78965180D01*
X78295029Y-78964821D01*
X77914485Y-79122058D01*
X77623081Y-79412954D01*
X77465180Y-79793223D01*
X77464821Y-80204971D01*
X77622058Y-80585515D01*
X77642800Y-80606293D01*
X77565180Y-80793223D01*
X77564821Y-81204971D01*
X77722058Y-81585515D01*
X77986899Y-81850818D01*
X77814485Y-81922058D01*
X77523081Y-82212954D01*
X77365180Y-82593223D01*
X77364821Y-83004971D01*
X69935990Y-83004971D01*
X69877942Y-82864485D01*
X69587046Y-82573081D01*
X69206777Y-82415180D01*
X68795029Y-82414821D01*
X68414485Y-82572058D01*
X68123081Y-82862954D01*
X67965180Y-83243223D01*
X67964821Y-83654971D01*
X38440549Y-83654971D01*
X38399948Y-83594208D01*
X38062127Y-83368484D01*
X38443024Y-83063989D01*
X38723649Y-82554810D01*
X38744540Y-82460832D01*
X38623214Y-82231000D01*
X36530000Y-82231000D01*
X36530000Y-82251000D01*
X36276000Y-82251000D01*
X36276000Y-82231000D01*
X34182786Y-82231000D01*
X34061460Y-82460832D01*
X34082351Y-82554810D01*
X34362976Y-83063989D01*
X34743873Y-83368484D01*
X34406052Y-83594208D01*
X34084225Y-84075857D01*
X33971214Y-84644000D01*
X33339637Y-84644000D01*
X32971433Y-84275154D01*
X32370907Y-84025794D01*
X31720666Y-84025226D01*
X31119705Y-84273538D01*
X30659514Y-84732927D01*
X30410154Y-85333453D01*
X30409586Y-85983694D01*
X28677308Y-85983694D01*
X28677874Y-85336306D01*
X28429562Y-84735345D01*
X28127000Y-84432255D01*
X28127000Y-81747168D01*
X34061460Y-81747168D01*
X34182786Y-81977000D01*
X36276000Y-81977000D01*
X36276000Y-80619370D01*
X36530000Y-80619370D01*
X36530000Y-81977000D01*
X38623214Y-81977000D01*
X38744540Y-81747168D01*
X38723649Y-81653190D01*
X38443024Y-81144011D01*
X37988906Y-80780982D01*
X37430430Y-80619370D01*
X36530000Y-80619370D01*
X36276000Y-80619370D01*
X35375570Y-80619370D01*
X34817094Y-80780982D01*
X34362976Y-81144011D01*
X34082351Y-81653190D01*
X34061460Y-81747168D01*
X28127000Y-81747168D01*
X28127000Y-81342000D01*
X28756910Y-81342000D01*
X28990299Y-81245327D01*
X29168927Y-81066698D01*
X29232500Y-80913220D01*
X29247330Y-80935415D01*
X29733511Y-81260271D01*
X30307000Y-81374345D01*
X30880489Y-81260271D01*
X31366670Y-80935415D01*
X31577000Y-80620634D01*
X31787330Y-80935415D01*
X32273511Y-81260271D01*
X32847000Y-81374345D01*
X33420489Y-81260271D01*
X33906670Y-80935415D01*
X34231526Y-80449234D01*
X34345600Y-79875745D01*
X34345600Y-79506255D01*
X34305563Y-79304971D01*
X57764821Y-79304971D01*
X57886830Y-79600256D01*
X57765180Y-79893223D01*
X57764821Y-80304971D01*
X57922058Y-80685515D01*
X58212954Y-80976919D01*
X58593223Y-81134820D01*
X59004971Y-81135179D01*
X59078080Y-81104971D01*
X63864821Y-81104971D01*
X64022058Y-81485515D01*
X64312954Y-81776919D01*
X64693223Y-81934820D01*
X65104971Y-81935179D01*
X65485515Y-81777942D01*
X65776919Y-81487046D01*
X65934820Y-81106777D01*
X65935170Y-80704971D01*
X66964821Y-80704971D01*
X67122058Y-81085515D01*
X67412954Y-81376919D01*
X67793223Y-81534820D01*
X68204971Y-81535179D01*
X68585515Y-81377942D01*
X68876919Y-81087046D01*
X69034820Y-80706777D01*
X69035179Y-80295029D01*
X68959774Y-80112535D01*
X69220099Y-80004971D01*
X70164821Y-80004971D01*
X70322058Y-80385515D01*
X70612954Y-80676919D01*
X70993223Y-80834820D01*
X71404971Y-80835179D01*
X71785515Y-80677942D01*
X72076919Y-80387046D01*
X72234820Y-80006777D01*
X72235179Y-79595029D01*
X72077942Y-79214485D01*
X71787046Y-78923081D01*
X71406777Y-78765180D01*
X70995029Y-78764821D01*
X70614485Y-78922058D01*
X70323081Y-79212954D01*
X70165180Y-79593223D01*
X70164821Y-80004971D01*
X69220099Y-80004971D01*
X69285515Y-79977942D01*
X69576919Y-79687046D01*
X69734820Y-79306777D01*
X69735179Y-78895029D01*
X69577942Y-78514485D01*
X69287046Y-78223081D01*
X68906777Y-78065180D01*
X68495029Y-78064821D01*
X68114485Y-78222058D01*
X67823081Y-78512954D01*
X67665180Y-78893223D01*
X67664821Y-79304971D01*
X67740226Y-79487465D01*
X67414485Y-79622058D01*
X67123081Y-79912954D01*
X66965180Y-80293223D01*
X66964821Y-80704971D01*
X65935170Y-80704971D01*
X65935179Y-80695029D01*
X65777942Y-80314485D01*
X65487046Y-80023081D01*
X65106777Y-79865180D01*
X64695029Y-79864821D01*
X64314485Y-80022058D01*
X64023081Y-80312954D01*
X63865180Y-80693223D01*
X63864821Y-81104971D01*
X59078080Y-81104971D01*
X59385515Y-80977942D01*
X59676919Y-80687046D01*
X59834820Y-80306777D01*
X59835179Y-79895029D01*
X59713170Y-79599744D01*
X59834820Y-79306777D01*
X59835179Y-78895029D01*
X59677942Y-78514485D01*
X59387046Y-78223081D01*
X59006777Y-78065180D01*
X58595029Y-78064821D01*
X58214485Y-78222058D01*
X57923081Y-78512954D01*
X57765180Y-78893223D01*
X57764821Y-79304971D01*
X34305563Y-79304971D01*
X34231526Y-78932766D01*
X33906670Y-78446585D01*
X33420489Y-78121729D01*
X32847000Y-78007655D01*
X32273511Y-78121729D01*
X31787330Y-78446585D01*
X31577000Y-78761366D01*
X31366670Y-78446585D01*
X30880489Y-78121729D01*
X30307000Y-78007655D01*
X29733511Y-78121729D01*
X29247330Y-78446585D01*
X29232500Y-78468780D01*
X29168927Y-78315302D01*
X28990299Y-78136673D01*
X28756910Y-78040000D01*
X28127000Y-78040000D01*
X28127000Y-76904971D01*
X66364821Y-76904971D01*
X66522058Y-77285515D01*
X66812954Y-77576919D01*
X67193223Y-77734820D01*
X67604971Y-77735179D01*
X67920099Y-77604971D01*
X77864821Y-77604971D01*
X78022058Y-77985515D01*
X78312954Y-78276919D01*
X78693223Y-78434820D01*
X79104971Y-78435179D01*
X79485515Y-78277942D01*
X79776919Y-77987046D01*
X79934820Y-77606777D01*
X79934821Y-77604971D01*
X83764821Y-77604971D01*
X83922058Y-77985515D01*
X84212954Y-78276919D01*
X84593223Y-78434820D01*
X85004971Y-78435179D01*
X85385515Y-78277942D01*
X85676919Y-77987046D01*
X85834820Y-77606777D01*
X85834821Y-77604971D01*
X89364821Y-77604971D01*
X89522058Y-77985515D01*
X89812954Y-78276919D01*
X89987217Y-78349279D01*
X89723081Y-78612954D01*
X89565180Y-78993223D01*
X89564821Y-79404971D01*
X89642726Y-79593517D01*
X89523081Y-79712954D01*
X89365180Y-80093223D01*
X89364821Y-80504971D01*
X89522058Y-80885515D01*
X89812954Y-81176919D01*
X90193223Y-81334820D01*
X90604971Y-81335179D01*
X90985515Y-81177942D01*
X91276919Y-80887046D01*
X91434820Y-80506777D01*
X91435179Y-80095029D01*
X91357274Y-79906483D01*
X91476919Y-79787046D01*
X91634820Y-79406777D01*
X91635179Y-78995029D01*
X91477942Y-78614485D01*
X91408158Y-78544579D01*
X91764786Y-78544579D01*
X91952408Y-78998657D01*
X92299515Y-79346371D01*
X92753266Y-79534785D01*
X93244579Y-79535214D01*
X93698657Y-79347592D01*
X93891504Y-79155082D01*
X94112954Y-79376919D01*
X94493223Y-79534820D01*
X94904971Y-79535179D01*
X95285515Y-79377942D01*
X95576919Y-79087046D01*
X95734820Y-78706777D01*
X95735179Y-78295029D01*
X95649609Y-78087934D01*
X96003266Y-78234785D01*
X96494579Y-78235214D01*
X96948657Y-78047592D01*
X97296371Y-77700485D01*
X97484785Y-77246734D01*
X97485214Y-76755421D01*
X97464369Y-76704971D01*
X100064821Y-76704971D01*
X100222058Y-77085515D01*
X100512954Y-77376919D01*
X100893223Y-77534820D01*
X101304971Y-77535179D01*
X101685515Y-77377942D01*
X101976919Y-77087046D01*
X102134820Y-76706777D01*
X102135179Y-76295029D01*
X101977942Y-75914485D01*
X101687046Y-75623081D01*
X101306777Y-75465180D01*
X100895029Y-75464821D01*
X100514485Y-75622058D01*
X100223081Y-75912954D01*
X100065180Y-76293223D01*
X100064821Y-76704971D01*
X97464369Y-76704971D01*
X97297592Y-76301343D01*
X96950485Y-75953629D01*
X96496734Y-75765215D01*
X96005421Y-75764786D01*
X95551343Y-75952408D01*
X95203629Y-76299515D01*
X95015215Y-76753266D01*
X95014786Y-77244579D01*
X95147184Y-77565005D01*
X94906777Y-77465180D01*
X94495029Y-77464821D01*
X94114485Y-77622058D01*
X94073186Y-77663285D01*
X94047592Y-77601343D01*
X93700485Y-77253629D01*
X93246734Y-77065215D01*
X92755421Y-77064786D01*
X92301343Y-77252408D01*
X91953629Y-77599515D01*
X91765215Y-78053266D01*
X91764786Y-78544579D01*
X91408158Y-78544579D01*
X91187046Y-78323081D01*
X91012783Y-78250721D01*
X91276919Y-77987046D01*
X91434820Y-77606777D01*
X91435179Y-77195029D01*
X91277942Y-76814485D01*
X90987046Y-76523081D01*
X90606777Y-76365180D01*
X90195029Y-76364821D01*
X89814485Y-76522058D01*
X89523081Y-76812954D01*
X89365180Y-77193223D01*
X89364821Y-77604971D01*
X85834821Y-77604971D01*
X85835179Y-77195029D01*
X85677942Y-76814485D01*
X85387046Y-76523081D01*
X85006777Y-76365180D01*
X84595029Y-76364821D01*
X84214485Y-76522058D01*
X83923081Y-76812954D01*
X83765180Y-77193223D01*
X83764821Y-77604971D01*
X79934821Y-77604971D01*
X79935179Y-77195029D01*
X79777942Y-76814485D01*
X79487046Y-76523081D01*
X79106777Y-76365180D01*
X78695029Y-76364821D01*
X78314485Y-76522058D01*
X78023081Y-76812954D01*
X77865180Y-77193223D01*
X77864821Y-77604971D01*
X67920099Y-77604971D01*
X67985515Y-77577942D01*
X68276919Y-77287046D01*
X68434820Y-76906777D01*
X68435179Y-76495029D01*
X68277942Y-76114485D01*
X67987046Y-75823081D01*
X67606777Y-75665180D01*
X67195029Y-75664821D01*
X66814485Y-75822058D01*
X66523081Y-76112954D01*
X66365180Y-76493223D01*
X66364821Y-76904971D01*
X28127000Y-76904971D01*
X28127000Y-76127000D01*
X47000000Y-76127000D01*
X47049410Y-76116994D01*
X47091035Y-76088553D01*
X47118315Y-76046159D01*
X47127000Y-76000000D01*
X47127000Y-75444579D01*
X72364786Y-75444579D01*
X72552408Y-75898657D01*
X72899515Y-76246371D01*
X73353266Y-76434785D01*
X73844579Y-76435214D01*
X74298657Y-76247592D01*
X74646371Y-75900485D01*
X74834785Y-75446734D01*
X74835214Y-74955421D01*
X74649092Y-74504971D01*
X75414821Y-74504971D01*
X75572058Y-74885515D01*
X75862954Y-75176919D01*
X76243223Y-75334820D01*
X76654971Y-75335179D01*
X77035515Y-75177942D01*
X77308962Y-74904971D01*
X86564821Y-74904971D01*
X86722058Y-75285515D01*
X87012954Y-75576919D01*
X87393223Y-75734820D01*
X87804971Y-75735179D01*
X88185515Y-75577942D01*
X88476919Y-75287046D01*
X88634820Y-74906777D01*
X88635179Y-74495029D01*
X88477942Y-74114485D01*
X88187046Y-73823081D01*
X87806777Y-73665180D01*
X87395029Y-73664821D01*
X87014485Y-73822058D01*
X86723081Y-74112954D01*
X86565180Y-74493223D01*
X86564821Y-74904971D01*
X77308962Y-74904971D01*
X77326919Y-74887046D01*
X77484820Y-74506777D01*
X77485179Y-74095029D01*
X77327942Y-73714485D01*
X77037046Y-73423081D01*
X76656777Y-73265180D01*
X76245029Y-73264821D01*
X75864485Y-73422058D01*
X75573081Y-73712954D01*
X75415180Y-74093223D01*
X75414821Y-74504971D01*
X74649092Y-74504971D01*
X74647592Y-74501343D01*
X74300485Y-74153629D01*
X73846734Y-73965215D01*
X73355421Y-73964786D01*
X72901343Y-74152408D01*
X72553629Y-74499515D01*
X72365215Y-74953266D01*
X72364786Y-75444579D01*
X47127000Y-75444579D01*
X47127000Y-74104971D01*
X62564821Y-74104971D01*
X62722058Y-74485515D01*
X63012954Y-74776919D01*
X63393223Y-74934820D01*
X63804971Y-74935179D01*
X63887218Y-74901195D01*
X63922058Y-74985515D01*
X64212954Y-75276919D01*
X64593223Y-75434820D01*
X65004971Y-75435179D01*
X65385515Y-75277942D01*
X65676919Y-74987046D01*
X65741933Y-74830475D01*
X65993223Y-74934820D01*
X66404971Y-74935179D01*
X66785515Y-74777942D01*
X67064826Y-74499118D01*
X67064821Y-74504971D01*
X67222058Y-74885515D01*
X67512954Y-75176919D01*
X67893223Y-75334820D01*
X68304971Y-75335179D01*
X68685515Y-75177942D01*
X68976919Y-74887046D01*
X69134820Y-74506777D01*
X69135179Y-74095029D01*
X68977942Y-73714485D01*
X68687046Y-73423081D01*
X68306777Y-73265180D01*
X67895029Y-73264821D01*
X67514485Y-73422058D01*
X67235174Y-73700882D01*
X67235179Y-73695029D01*
X67077942Y-73314485D01*
X66787046Y-73023081D01*
X66406777Y-72865180D01*
X65995029Y-72864821D01*
X65614485Y-73022058D01*
X65323081Y-73312954D01*
X65258067Y-73469525D01*
X65006777Y-73365180D01*
X64595029Y-73364821D01*
X64512782Y-73398805D01*
X64477942Y-73314485D01*
X64187046Y-73023081D01*
X63806777Y-72865180D01*
X63395029Y-72864821D01*
X63014485Y-73022058D01*
X62723081Y-73312954D01*
X62565180Y-73693223D01*
X62564821Y-74104971D01*
X47127000Y-74104971D01*
X47127000Y-71136350D01*
X50007255Y-71136350D01*
X50099792Y-71398019D01*
X50691398Y-71616188D01*
X51321461Y-71591352D01*
X51788208Y-71398019D01*
X51880745Y-71136350D01*
X50944000Y-70199605D01*
X50007255Y-71136350D01*
X47127000Y-71136350D01*
X47127000Y-69767398D01*
X49347812Y-69767398D01*
X49372648Y-70397461D01*
X49565981Y-70864208D01*
X49827650Y-70956745D01*
X50764395Y-70020000D01*
X51123605Y-70020000D01*
X52060350Y-70956745D01*
X52148439Y-70925593D01*
X52584997Y-71362914D01*
X53167341Y-71604724D01*
X53797893Y-71605275D01*
X54380657Y-71364481D01*
X54754261Y-70991529D01*
X55124997Y-71362914D01*
X55707341Y-71604724D01*
X56337893Y-71605275D01*
X56920657Y-71364481D01*
X57294261Y-70991529D01*
X57664997Y-71362914D01*
X58247341Y-71604724D01*
X58877893Y-71605275D01*
X59460657Y-71364481D01*
X59834261Y-70991529D01*
X60204997Y-71362914D01*
X60787341Y-71604724D01*
X61417893Y-71605275D01*
X62000657Y-71364481D01*
X62374261Y-70991529D01*
X62744997Y-71362914D01*
X63327341Y-71604724D01*
X63957893Y-71605275D01*
X64540657Y-71364481D01*
X64914261Y-70991529D01*
X65284997Y-71362914D01*
X65867341Y-71604724D01*
X66497893Y-71605275D01*
X67080657Y-71364481D01*
X67454261Y-70991529D01*
X67824997Y-71362914D01*
X68407341Y-71604724D01*
X69037893Y-71605275D01*
X69620657Y-71364481D01*
X69994261Y-70991529D01*
X70364997Y-71362914D01*
X70947341Y-71604724D01*
X71577893Y-71605275D01*
X72160657Y-71364481D01*
X72534261Y-70991529D01*
X72904997Y-71362914D01*
X73487341Y-71604724D01*
X74117893Y-71605275D01*
X74700657Y-71364481D01*
X75074261Y-70991529D01*
X75444997Y-71362914D01*
X76027341Y-71604724D01*
X76657893Y-71605275D01*
X77240657Y-71364481D01*
X77614261Y-70991529D01*
X77984997Y-71362914D01*
X78567341Y-71604724D01*
X79197893Y-71605275D01*
X79780657Y-71364481D01*
X80154261Y-70991529D01*
X80524997Y-71362914D01*
X81107341Y-71604724D01*
X81737893Y-71605275D01*
X82320657Y-71364481D01*
X82694261Y-70991529D01*
X83064997Y-71362914D01*
X83424160Y-71512051D01*
X83323081Y-71612954D01*
X83165180Y-71993223D01*
X83164821Y-72404971D01*
X83230882Y-72564852D01*
X83195029Y-72564821D01*
X82886243Y-72692408D01*
X82722592Y-72296343D01*
X82375485Y-71948629D01*
X81921734Y-71760215D01*
X81430421Y-71759786D01*
X80976343Y-71947408D01*
X80628629Y-72294515D01*
X80440215Y-72748266D01*
X80439786Y-73239579D01*
X80627408Y-73693657D01*
X80974515Y-74041371D01*
X81428266Y-74229785D01*
X81919579Y-74230214D01*
X82373657Y-74042592D01*
X82436913Y-73979447D01*
X82522058Y-74185515D01*
X82812954Y-74476919D01*
X83193223Y-74634820D01*
X83604971Y-74635179D01*
X83985515Y-74477942D01*
X84276919Y-74187046D01*
X84434820Y-73806777D01*
X84435179Y-73395029D01*
X84369118Y-73235148D01*
X84404971Y-73235179D01*
X84785515Y-73077942D01*
X84848595Y-73014971D01*
X88094821Y-73014971D01*
X88252058Y-73395515D01*
X88542954Y-73686919D01*
X88923223Y-73844820D01*
X89334971Y-73845179D01*
X89715515Y-73687942D01*
X90006919Y-73397046D01*
X90164820Y-73016777D01*
X90165179Y-72605029D01*
X90007942Y-72224485D01*
X89717046Y-71933081D01*
X89336777Y-71775180D01*
X88925029Y-71774821D01*
X88544485Y-71932058D01*
X88253081Y-72222954D01*
X88095180Y-72603223D01*
X88094821Y-73014971D01*
X84848595Y-73014971D01*
X85076919Y-72787046D01*
X85234820Y-72406777D01*
X85235179Y-71995029D01*
X85077942Y-71614485D01*
X84837801Y-71373925D01*
X84860657Y-71364481D01*
X85306914Y-70919003D01*
X85548724Y-70336659D01*
X85549275Y-69706107D01*
X85308481Y-69123343D01*
X84863003Y-68677086D01*
X84280659Y-68435276D01*
X83650107Y-68434725D01*
X83067343Y-68675519D01*
X82693739Y-69048471D01*
X82323003Y-68677086D01*
X81740659Y-68435276D01*
X81528616Y-68435091D01*
X81676919Y-68287046D01*
X81794046Y-68004971D01*
X84964821Y-68004971D01*
X85122058Y-68385515D01*
X85412954Y-68676919D01*
X85793223Y-68834820D01*
X86204971Y-68835179D01*
X86278080Y-68804971D01*
X87064821Y-68804971D01*
X87222058Y-69185515D01*
X87512954Y-69476919D01*
X87893223Y-69634820D01*
X88138880Y-69635034D01*
X87965215Y-70053266D01*
X87964786Y-70544579D01*
X88152408Y-70998657D01*
X88499515Y-71346371D01*
X88953266Y-71534785D01*
X89444579Y-71535214D01*
X89898657Y-71347592D01*
X90001850Y-71244579D01*
X98564786Y-71244579D01*
X98752408Y-71698657D01*
X99099515Y-72046371D01*
X99553266Y-72234785D01*
X100044579Y-72235214D01*
X100498657Y-72047592D01*
X100846371Y-71700485D01*
X101034785Y-71246734D01*
X101035214Y-70755421D01*
X100847592Y-70301343D01*
X100500485Y-69953629D01*
X100046734Y-69765215D01*
X99555421Y-69764786D01*
X99101343Y-69952408D01*
X98753629Y-70299515D01*
X98565215Y-70753266D01*
X98564786Y-71244579D01*
X90001850Y-71244579D01*
X90246371Y-71000485D01*
X90434785Y-70546734D01*
X90435214Y-70055421D01*
X90247592Y-69601343D01*
X89900485Y-69253629D01*
X89446734Y-69065215D01*
X89027659Y-69064849D01*
X89134820Y-68806777D01*
X89135089Y-68498568D01*
X89412954Y-68776919D01*
X89793223Y-68934820D01*
X90204971Y-68935179D01*
X90585515Y-68777942D01*
X90876919Y-68487046D01*
X91034820Y-68106777D01*
X91035179Y-67695029D01*
X90877942Y-67314485D01*
X90608507Y-67044579D01*
X92264786Y-67044579D01*
X92452408Y-67498657D01*
X92799515Y-67846371D01*
X93253266Y-68034785D01*
X93744579Y-68035214D01*
X94198657Y-67847592D01*
X94546371Y-67500485D01*
X94734785Y-67046734D01*
X94735214Y-66555421D01*
X94547592Y-66101343D01*
X94200485Y-65753629D01*
X93746734Y-65565215D01*
X93255421Y-65564786D01*
X92801343Y-65752408D01*
X92453629Y-66099515D01*
X92265215Y-66553266D01*
X92264786Y-67044579D01*
X90608507Y-67044579D01*
X90587046Y-67023081D01*
X90206777Y-66865180D01*
X89795029Y-66864821D01*
X89414485Y-67022058D01*
X89123081Y-67312954D01*
X88965180Y-67693223D01*
X88964911Y-68001432D01*
X88687046Y-67723081D01*
X88306777Y-67565180D01*
X87895029Y-67564821D01*
X87514485Y-67722058D01*
X87223081Y-68012954D01*
X87065180Y-68393223D01*
X87064821Y-68804971D01*
X86278080Y-68804971D01*
X86585515Y-68677942D01*
X86876919Y-68387046D01*
X87034820Y-68006777D01*
X87035179Y-67595029D01*
X86877942Y-67214485D01*
X86587046Y-66923081D01*
X86206777Y-66765180D01*
X85795029Y-66764821D01*
X85414485Y-66922058D01*
X85123081Y-67212954D01*
X84965180Y-67593223D01*
X84964821Y-68004971D01*
X81794046Y-68004971D01*
X81834820Y-67906777D01*
X81835179Y-67495029D01*
X81677942Y-67114485D01*
X81387046Y-66823081D01*
X81006777Y-66665180D01*
X80595029Y-66664821D01*
X80214485Y-66822058D01*
X79923081Y-67112954D01*
X79765180Y-67493223D01*
X79764821Y-67904971D01*
X79922058Y-68285515D01*
X80212954Y-68576919D01*
X80504743Y-68698080D01*
X80153739Y-69048471D01*
X79783003Y-68677086D01*
X79220272Y-68443420D01*
X79376919Y-68287046D01*
X79534820Y-67906777D01*
X79535179Y-67495029D01*
X79377942Y-67114485D01*
X79087046Y-66823081D01*
X78706777Y-66665180D01*
X78295029Y-66664821D01*
X77914485Y-66822058D01*
X77623081Y-67112954D01*
X77465180Y-67493223D01*
X77464821Y-67904971D01*
X77622058Y-68285515D01*
X77912954Y-68576919D01*
X78069077Y-68641747D01*
X77987343Y-68675519D01*
X77613739Y-69048471D01*
X77243003Y-68677086D01*
X76774435Y-68482520D01*
X76785515Y-68477942D01*
X77076919Y-68187046D01*
X77234820Y-67806777D01*
X77235179Y-67395029D01*
X77077942Y-67014485D01*
X76787046Y-66723081D01*
X76406777Y-66565180D01*
X75995029Y-66564821D01*
X75614485Y-66722058D01*
X75607790Y-66728742D01*
X75477942Y-66414485D01*
X75187046Y-66123081D01*
X74806777Y-65965180D01*
X74395029Y-65964821D01*
X74014485Y-66122058D01*
X73723081Y-66412954D01*
X73565180Y-66793223D01*
X73564821Y-67204971D01*
X73722058Y-67585515D01*
X74012954Y-67876919D01*
X74164878Y-67940003D01*
X74164821Y-68004971D01*
X74322058Y-68385515D01*
X74549486Y-68613340D01*
X74120659Y-68435276D01*
X73490107Y-68434725D01*
X72907343Y-68675519D01*
X72533739Y-69048471D01*
X72163003Y-68677086D01*
X71580659Y-68435276D01*
X70950107Y-68434725D01*
X70367343Y-68675519D01*
X69993739Y-69048471D01*
X69623003Y-68677086D01*
X69040659Y-68435276D01*
X68529053Y-68434829D01*
X68576919Y-68387046D01*
X68734820Y-68006777D01*
X68735179Y-67595029D01*
X68577942Y-67214485D01*
X68287046Y-66923081D01*
X67906777Y-66765180D01*
X67495029Y-66764821D01*
X67114485Y-66922058D01*
X66823081Y-67212954D01*
X66665180Y-67593223D01*
X66664821Y-68004971D01*
X66822058Y-68385515D01*
X67112954Y-68676919D01*
X67493223Y-68834820D01*
X67667611Y-68834972D01*
X67453739Y-69048471D01*
X67083003Y-68677086D01*
X66500659Y-68435276D01*
X65870107Y-68434725D01*
X65287343Y-68675519D01*
X64913739Y-69048471D01*
X64543003Y-68677086D01*
X63960659Y-68435276D01*
X63330107Y-68434725D01*
X62747343Y-68675519D01*
X62373739Y-69048471D01*
X62003003Y-68677086D01*
X61420659Y-68435276D01*
X60790107Y-68434725D01*
X60207343Y-68675519D01*
X59833739Y-69048471D01*
X59463003Y-68677086D01*
X58880659Y-68435276D01*
X58250107Y-68434725D01*
X57667343Y-68675519D01*
X57293739Y-69048471D01*
X56923003Y-68677086D01*
X56340659Y-68435276D01*
X55710107Y-68434725D01*
X55127343Y-68675519D01*
X54753739Y-69048471D01*
X54383003Y-68677086D01*
X53800659Y-68435276D01*
X53170107Y-68434725D01*
X52587343Y-68675519D01*
X52147884Y-69114211D01*
X52060350Y-69083255D01*
X51123605Y-70020000D01*
X50764395Y-70020000D01*
X49827650Y-69083255D01*
X49565981Y-69175792D01*
X49347812Y-69767398D01*
X47127000Y-69767398D01*
X47127000Y-68903650D01*
X50007255Y-68903650D01*
X50944000Y-69840395D01*
X51880745Y-68903650D01*
X51788208Y-68641981D01*
X51196602Y-68423812D01*
X50566539Y-68448648D01*
X50099792Y-68641981D01*
X50007255Y-68903650D01*
X47127000Y-68903650D01*
X47127000Y-65127000D01*
X76000000Y-65127000D01*
X76049410Y-65116994D01*
X76091035Y-65088553D01*
X76118315Y-65046159D01*
X76127000Y-65000000D01*
X76127000Y-63704971D01*
X80364821Y-63704971D01*
X80522058Y-64085515D01*
X80812954Y-64376919D01*
X81193223Y-64534820D01*
X81604971Y-64535179D01*
X81985515Y-64377942D01*
X82276919Y-64087046D01*
X82434820Y-63706777D01*
X82435048Y-63444579D01*
X87864786Y-63444579D01*
X88052408Y-63898657D01*
X88399515Y-64246371D01*
X88853266Y-64434785D01*
X89344579Y-64435214D01*
X89798657Y-64247592D01*
X90146371Y-63900485D01*
X90334785Y-63446734D01*
X90335214Y-62955421D01*
X90147592Y-62501343D01*
X89800485Y-62153629D01*
X89346734Y-61965215D01*
X88855421Y-61964786D01*
X88401343Y-62152408D01*
X88053629Y-62499515D01*
X87865215Y-62953266D01*
X87864786Y-63444579D01*
X82435048Y-63444579D01*
X82435179Y-63295029D01*
X82277942Y-62914485D01*
X81987046Y-62623081D01*
X81606777Y-62465180D01*
X81195029Y-62464821D01*
X80814485Y-62622058D01*
X80523081Y-62912954D01*
X80365180Y-63293223D01*
X80364821Y-63704971D01*
X76127000Y-63704971D01*
X76127000Y-61804971D01*
X84264821Y-61804971D01*
X84422058Y-62185515D01*
X84712954Y-62476919D01*
X85093223Y-62634820D01*
X85504971Y-62635179D01*
X85885515Y-62477942D01*
X86176919Y-62187046D01*
X86334820Y-61806777D01*
X86335179Y-61395029D01*
X86177942Y-61014485D01*
X86168445Y-61004971D01*
X98564821Y-61004971D01*
X98722058Y-61385515D01*
X99012954Y-61676919D01*
X99393223Y-61834820D01*
X99804971Y-61835179D01*
X100185515Y-61677942D01*
X100476919Y-61387046D01*
X100634820Y-61006777D01*
X100635179Y-60595029D01*
X100515330Y-60304971D01*
X101664821Y-60304971D01*
X101822058Y-60685515D01*
X102112954Y-60976919D01*
X102493223Y-61134820D01*
X102904971Y-61135179D01*
X103285515Y-60977942D01*
X103576919Y-60687046D01*
X103734820Y-60306777D01*
X103735179Y-59895029D01*
X103577942Y-59514485D01*
X103287046Y-59223081D01*
X102906777Y-59065180D01*
X102495029Y-59064821D01*
X102114485Y-59222058D01*
X101823081Y-59512954D01*
X101665180Y-59893223D01*
X101664821Y-60304971D01*
X100515330Y-60304971D01*
X100477942Y-60214485D01*
X100454327Y-60190829D01*
X100485515Y-60177942D01*
X100776919Y-59887046D01*
X100934820Y-59506777D01*
X100935179Y-59095029D01*
X100777942Y-58714485D01*
X100487046Y-58423081D01*
X100106777Y-58265180D01*
X99695029Y-58264821D01*
X99314485Y-58422058D01*
X99023081Y-58712954D01*
X98865180Y-59093223D01*
X98864821Y-59504971D01*
X99022058Y-59885515D01*
X99045673Y-59909171D01*
X99014485Y-59922058D01*
X98723081Y-60212954D01*
X98565180Y-60593223D01*
X98564821Y-61004971D01*
X86168445Y-61004971D01*
X85887046Y-60723081D01*
X85506777Y-60565180D01*
X85095029Y-60564821D01*
X84714485Y-60722058D01*
X84423081Y-61012954D01*
X84265180Y-61393223D01*
X84264821Y-61804971D01*
X76127000Y-61804971D01*
X76127000Y-59504971D01*
X96564821Y-59504971D01*
X96722058Y-59885515D01*
X97012954Y-60176919D01*
X97393223Y-60334820D01*
X97804971Y-60335179D01*
X98185515Y-60177942D01*
X98476919Y-59887046D01*
X98634820Y-59506777D01*
X98635179Y-59095029D01*
X98477942Y-58714485D01*
X98187046Y-58423081D01*
X97806777Y-58265180D01*
X97395029Y-58264821D01*
X97014485Y-58422058D01*
X96723081Y-58712954D01*
X96565180Y-59093223D01*
X96564821Y-59504971D01*
X76127000Y-59504971D01*
X76127000Y-58354971D01*
X82964821Y-58354971D01*
X83122058Y-58735515D01*
X83412954Y-59026919D01*
X83793223Y-59184820D01*
X84204971Y-59185179D01*
X84585515Y-59027942D01*
X84876919Y-58737046D01*
X85034820Y-58356777D01*
X85035179Y-57945029D01*
X84877942Y-57564485D01*
X84587046Y-57273081D01*
X84206777Y-57115180D01*
X83795029Y-57114821D01*
X83414485Y-57272058D01*
X83123081Y-57562954D01*
X82965180Y-57943223D01*
X82964821Y-58354971D01*
X76127000Y-58354971D01*
X76127000Y-57435024D01*
X76304971Y-57435179D01*
X76685515Y-57277942D01*
X76900032Y-57063799D01*
X77012954Y-57176919D01*
X77393223Y-57334820D01*
X77804971Y-57335179D01*
X78185515Y-57177942D01*
X78476919Y-56887046D01*
X78634820Y-56506777D01*
X78634944Y-56364783D01*
X79064943Y-56365159D01*
X79064821Y-56504971D01*
X79222058Y-56885515D01*
X79512954Y-57176919D01*
X79893223Y-57334820D01*
X80304971Y-57335179D01*
X80685515Y-57177942D01*
X80976919Y-56887046D01*
X81134820Y-56506777D01*
X81134944Y-56364748D01*
X81664943Y-56365211D01*
X81664821Y-56504971D01*
X81822058Y-56885515D01*
X82112954Y-57176919D01*
X82493223Y-57334820D01*
X82904971Y-57335179D01*
X83285515Y-57177942D01*
X83576919Y-56887046D01*
X83734820Y-56506777D01*
X83734944Y-56364801D01*
X84277893Y-56365275D01*
X84860657Y-56124481D01*
X85306914Y-55679003D01*
X85548724Y-55096659D01*
X85549275Y-54466107D01*
X85308481Y-53883343D01*
X84863003Y-53437086D01*
X84280659Y-53195276D01*
X83650107Y-53194725D01*
X83067343Y-53435519D01*
X82693739Y-53808471D01*
X82323003Y-53437086D01*
X81740659Y-53195276D01*
X81110107Y-53194725D01*
X80527343Y-53435519D01*
X80153739Y-53808471D01*
X79783003Y-53437086D01*
X79200659Y-53195276D01*
X78570107Y-53194725D01*
X77987343Y-53435519D01*
X77613739Y-53808471D01*
X77243003Y-53437086D01*
X76660659Y-53195276D01*
X76127000Y-53194810D01*
X76127000Y-51144579D01*
X88464786Y-51144579D01*
X88652408Y-51598657D01*
X88999515Y-51946371D01*
X89453266Y-52134785D01*
X89944579Y-52135214D01*
X90398657Y-51947592D01*
X90746371Y-51600485D01*
X90934785Y-51146734D01*
X90935214Y-50655421D01*
X90747592Y-50201343D01*
X90400485Y-49853629D01*
X89946734Y-49665215D01*
X89455421Y-49664786D01*
X89001343Y-49852408D01*
X88653629Y-50199515D01*
X88465215Y-50653266D01*
X88464786Y-51144579D01*
X76127000Y-51144579D01*
X76127000Y-50200000D01*
X76116994Y-50150590D01*
X76088553Y-50108965D01*
X76046159Y-50081685D01*
X76000000Y-50073000D01*
X74000000Y-50073000D01*
X73950590Y-50083006D01*
X73908965Y-50111447D01*
X73881685Y-50153841D01*
X73873000Y-50200000D01*
X73873000Y-53195060D01*
X73490107Y-53194725D01*
X72907343Y-53435519D01*
X72533739Y-53808471D01*
X72163003Y-53437086D01*
X71580659Y-53195276D01*
X70950107Y-53194725D01*
X70367343Y-53435519D01*
X69993739Y-53808471D01*
X69623003Y-53437086D01*
X69040659Y-53195276D01*
X68410107Y-53194725D01*
X67827343Y-53435519D01*
X67453739Y-53808471D01*
X67083003Y-53437086D01*
X66500659Y-53195276D01*
X65870107Y-53194725D01*
X65491885Y-53351004D01*
X65634820Y-53006777D01*
X65635179Y-52595029D01*
X65477942Y-52214485D01*
X65187046Y-51923081D01*
X64806777Y-51765180D01*
X64395029Y-51764821D01*
X64014485Y-51922058D01*
X63723081Y-52212954D01*
X63565180Y-52593223D01*
X63564821Y-53004971D01*
X63643339Y-53194999D01*
X63330107Y-53194725D01*
X62747343Y-53435519D01*
X62373739Y-53808471D01*
X62164615Y-53598980D01*
X62376919Y-53387046D01*
X62534820Y-53006777D01*
X62535179Y-52595029D01*
X62377942Y-52214485D01*
X62087046Y-51923081D01*
X61706777Y-51765180D01*
X61295029Y-51764821D01*
X60914485Y-51922058D01*
X60623081Y-52212954D01*
X60465180Y-52593223D01*
X60464821Y-53004971D01*
X60579228Y-53281859D01*
X60207343Y-53435519D01*
X59833739Y-53808471D01*
X59463003Y-53437086D01*
X59016616Y-53251730D01*
X59184785Y-52846734D01*
X59185214Y-52355421D01*
X58997592Y-51901343D01*
X58701738Y-51604971D01*
X68564821Y-51604971D01*
X68722058Y-51985515D01*
X69012954Y-52276919D01*
X69393223Y-52434820D01*
X69804971Y-52435179D01*
X70185515Y-52277942D01*
X70249857Y-52213712D01*
X70312954Y-52276919D01*
X70693223Y-52434820D01*
X71104971Y-52435179D01*
X71485515Y-52277942D01*
X71776919Y-51987046D01*
X71934820Y-51606777D01*
X71935179Y-51195029D01*
X71777942Y-50814485D01*
X71487046Y-50523081D01*
X71106777Y-50365180D01*
X70695029Y-50364821D01*
X70314485Y-50522058D01*
X70250143Y-50586288D01*
X70187046Y-50523081D01*
X69806777Y-50365180D01*
X69395029Y-50364821D01*
X69014485Y-50522058D01*
X68723081Y-50812954D01*
X68565180Y-51193223D01*
X68564821Y-51604971D01*
X58701738Y-51604971D01*
X58650485Y-51553629D01*
X58196734Y-51365215D01*
X57705421Y-51364786D01*
X57251343Y-51552408D01*
X56903629Y-51899515D01*
X56715215Y-52353266D01*
X56714786Y-52844579D01*
X56902408Y-53298657D01*
X57249515Y-53646371D01*
X57395428Y-53706959D01*
X57293739Y-53808471D01*
X56923003Y-53437086D01*
X56340659Y-53195276D01*
X55710107Y-53194725D01*
X55127343Y-53435519D01*
X54753739Y-53808471D01*
X54383003Y-53437086D01*
X53800659Y-53195276D01*
X53170107Y-53194725D01*
X52587343Y-53435519D01*
X52213739Y-53808471D01*
X51843003Y-53437086D01*
X51260659Y-53195276D01*
X50630107Y-53194725D01*
X50047343Y-53435519D01*
X49601086Y-53880997D01*
X49359276Y-54463341D01*
X49358725Y-55093893D01*
X49599519Y-55676657D01*
X50044997Y-56122914D01*
X50627341Y-56364724D01*
X51257893Y-56365275D01*
X51840657Y-56124481D01*
X52214261Y-55751529D01*
X52584997Y-56122914D01*
X53167341Y-56364724D01*
X53797893Y-56365275D01*
X54380657Y-56124481D01*
X54754261Y-55751529D01*
X55124997Y-56122914D01*
X55707341Y-56364724D01*
X56337893Y-56365275D01*
X56920657Y-56124481D01*
X57294261Y-55751529D01*
X57592471Y-56050261D01*
X57221086Y-56420997D01*
X56979276Y-57003341D01*
X56978725Y-57633893D01*
X57219519Y-58216657D01*
X57664997Y-58662914D01*
X58247341Y-58904724D01*
X58877893Y-58905275D01*
X59460657Y-58664481D01*
X59834261Y-58291529D01*
X60204997Y-58662914D01*
X60787341Y-58904724D01*
X61417893Y-58905275D01*
X62000657Y-58664481D01*
X62374261Y-58291529D01*
X62744997Y-58662914D01*
X63327341Y-58904724D01*
X63957893Y-58905275D01*
X64540657Y-58664481D01*
X64986914Y-58219003D01*
X65228724Y-57636659D01*
X65229275Y-57006107D01*
X64988481Y-56423343D01*
X64615529Y-56049739D01*
X64914261Y-55751529D01*
X65284997Y-56122914D01*
X65867341Y-56364724D01*
X66497893Y-56365275D01*
X67080657Y-56124481D01*
X67454261Y-55751529D01*
X67824997Y-56122914D01*
X68407341Y-56364724D01*
X69037893Y-56365275D01*
X69620657Y-56124481D01*
X69994261Y-55751529D01*
X70364997Y-56122914D01*
X70947341Y-56364724D01*
X71577893Y-56365275D01*
X71965170Y-56205255D01*
X71964821Y-56604971D01*
X72122058Y-56985515D01*
X72412954Y-57276919D01*
X72793223Y-57434820D01*
X73204971Y-57435179D01*
X73585515Y-57277942D01*
X73850206Y-57013712D01*
X73873000Y-57036546D01*
X73873000Y-62873000D01*
X45000000Y-62873000D01*
X44950590Y-62883006D01*
X44908965Y-62911447D01*
X44881685Y-62953841D01*
X44873000Y-63000000D01*
X44873000Y-73873000D01*
X28127000Y-73873000D01*
X28127000Y-66112619D01*
X28268234Y-66084526D01*
X28653233Y-65827278D01*
X28616887Y-66010000D01*
X28726120Y-66559151D01*
X29037189Y-67024698D01*
X29419275Y-67280000D01*
X29037189Y-67535302D01*
X28726120Y-68000849D01*
X28616887Y-68550000D01*
X28726120Y-69099151D01*
X29037189Y-69564698D01*
X29419275Y-69820000D01*
X29037189Y-70075302D01*
X28726120Y-70540849D01*
X28616887Y-71090000D01*
X28726120Y-71639151D01*
X29037189Y-72104698D01*
X29502736Y-72415767D01*
X30051887Y-72525000D01*
X30108113Y-72525000D01*
X30657264Y-72415767D01*
X31122811Y-72104698D01*
X31433880Y-71639151D01*
X31543113Y-71090000D01*
X31433880Y-70540849D01*
X31122811Y-70075302D01*
X30740725Y-69820000D01*
X31122811Y-69564698D01*
X31433880Y-69099151D01*
X31543113Y-68550000D01*
X31433880Y-68000849D01*
X31122811Y-67535302D01*
X30740725Y-67280000D01*
X31122811Y-67024698D01*
X31433880Y-66559151D01*
X31543113Y-66010000D01*
X31433880Y-65460849D01*
X31122811Y-64995302D01*
X30718297Y-64725014D01*
X30935134Y-64622389D01*
X31311041Y-64207423D01*
X31471904Y-63819039D01*
X31349915Y-63597000D01*
X30207000Y-63597000D01*
X30207000Y-63617000D01*
X29953000Y-63617000D01*
X29953000Y-63597000D01*
X28810085Y-63597000D01*
X28771901Y-63666500D01*
X28754415Y-63640330D01*
X28439634Y-63430000D01*
X28745573Y-63225578D01*
X28810085Y-63343000D01*
X29953000Y-63343000D01*
X29953000Y-63323000D01*
X30207000Y-63323000D01*
X30207000Y-63343000D01*
X31349915Y-63343000D01*
X31471904Y-63120961D01*
X31311041Y-62732577D01*
X30935134Y-62317611D01*
X30718297Y-62214986D01*
X31048004Y-61994682D01*
X31149515Y-62096371D01*
X31603266Y-62284785D01*
X32094579Y-62285214D01*
X32548657Y-62097592D01*
X32896371Y-61750485D01*
X33084785Y-61296734D01*
X33085214Y-60805421D01*
X32897592Y-60351343D01*
X32550485Y-60003629D01*
X32096734Y-59815215D01*
X31605421Y-59814786D01*
X31174594Y-59992801D01*
X31122811Y-59915302D01*
X30740725Y-59660000D01*
X31122811Y-59404698D01*
X31433880Y-58939151D01*
X31543113Y-58390000D01*
X31433880Y-57840849D01*
X31122811Y-57375302D01*
X30740725Y-57120000D01*
X31122811Y-56864698D01*
X31433880Y-56399151D01*
X31543113Y-55850000D01*
X36236887Y-55850000D01*
X36346120Y-56399151D01*
X36657189Y-56864698D01*
X37039275Y-57120000D01*
X36657189Y-57375302D01*
X36346120Y-57840849D01*
X36236887Y-58390000D01*
X36346120Y-58939151D01*
X36657189Y-59404698D01*
X37039275Y-59660000D01*
X36657189Y-59915302D01*
X36346120Y-60380849D01*
X36236887Y-60930000D01*
X36346120Y-61479151D01*
X36657189Y-61944698D01*
X37039275Y-62200000D01*
X36657189Y-62455302D01*
X36346120Y-62920849D01*
X36236887Y-63470000D01*
X36346120Y-64019151D01*
X36657189Y-64484698D01*
X37039275Y-64740000D01*
X36657189Y-64995302D01*
X36346120Y-65460849D01*
X36236887Y-66010000D01*
X36346120Y-66559151D01*
X36657189Y-67024698D01*
X37039275Y-67280000D01*
X36657189Y-67535302D01*
X36346120Y-68000849D01*
X36236887Y-68550000D01*
X36346120Y-69099151D01*
X36657189Y-69564698D01*
X37039275Y-69820000D01*
X36657189Y-70075302D01*
X36346120Y-70540849D01*
X36236887Y-71090000D01*
X36346120Y-71639151D01*
X36657189Y-72104698D01*
X37122736Y-72415767D01*
X37671887Y-72525000D01*
X37728113Y-72525000D01*
X38277264Y-72415767D01*
X38742811Y-72104698D01*
X39053880Y-71639151D01*
X39163113Y-71090000D01*
X39053880Y-70540849D01*
X38742811Y-70075302D01*
X38360725Y-69820000D01*
X38742811Y-69564698D01*
X39053880Y-69099151D01*
X39163113Y-68550000D01*
X39053880Y-68000849D01*
X38742811Y-67535302D01*
X38360725Y-67280000D01*
X38742811Y-67024698D01*
X39053880Y-66559151D01*
X39163113Y-66010000D01*
X39135964Y-65873514D01*
X39451766Y-66084526D01*
X40025255Y-66198600D01*
X40394745Y-66198600D01*
X40968234Y-66084526D01*
X41454415Y-65759670D01*
X41779271Y-65273489D01*
X41893345Y-64700000D01*
X41779271Y-64126511D01*
X41454415Y-63640330D01*
X41139634Y-63430000D01*
X41454415Y-63219670D01*
X41779271Y-62733489D01*
X41893345Y-62160000D01*
X41802835Y-61704971D01*
X44964821Y-61704971D01*
X45122058Y-62085515D01*
X45412954Y-62376919D01*
X45793223Y-62534820D01*
X46204971Y-62535179D01*
X46585515Y-62377942D01*
X46876919Y-62087046D01*
X47034820Y-61706777D01*
X47035179Y-61295029D01*
X46877942Y-60914485D01*
X46587046Y-60623081D01*
X46206777Y-60465180D01*
X45795029Y-60464821D01*
X45414485Y-60622058D01*
X45123081Y-60912954D01*
X44965180Y-61293223D01*
X44964821Y-61704971D01*
X41802835Y-61704971D01*
X41779271Y-61586511D01*
X41454415Y-61100330D01*
X41139634Y-60890000D01*
X41454415Y-60679670D01*
X41779271Y-60193489D01*
X41893345Y-59620000D01*
X41779271Y-59046511D01*
X41454415Y-58560330D01*
X41440087Y-58550757D01*
X41461317Y-58546762D01*
X41677441Y-58407690D01*
X41822431Y-58195490D01*
X41873440Y-57943600D01*
X41873440Y-56216400D01*
X41829162Y-55981083D01*
X41690090Y-55764959D01*
X41477890Y-55619969D01*
X41226000Y-55568960D01*
X40584429Y-55568960D01*
X40734820Y-55206777D01*
X40735179Y-54795029D01*
X40577942Y-54414485D01*
X40287046Y-54123081D01*
X39906777Y-53965180D01*
X39495029Y-53964821D01*
X39114485Y-54122058D01*
X38823081Y-54412954D01*
X38668363Y-54785557D01*
X38277264Y-54524233D01*
X37728113Y-54415000D01*
X37671887Y-54415000D01*
X37122736Y-54524233D01*
X36657189Y-54835302D01*
X36346120Y-55300849D01*
X36236887Y-55850000D01*
X31543113Y-55850000D01*
X31433880Y-55300849D01*
X31122811Y-54835302D01*
X30657264Y-54524233D01*
X30108113Y-54415000D01*
X30051887Y-54415000D01*
X29502736Y-54524233D01*
X29037189Y-54835302D01*
X28726120Y-55300849D01*
X28667106Y-55597535D01*
X28526000Y-55568960D01*
X28127000Y-55568960D01*
X28127000Y-51254971D01*
X31264821Y-51254971D01*
X31422058Y-51635515D01*
X31712954Y-51926919D01*
X32093223Y-52084820D01*
X32504971Y-52085179D01*
X32885515Y-51927942D01*
X33119285Y-51694579D01*
X40564786Y-51694579D01*
X40752408Y-52148657D01*
X41099515Y-52496371D01*
X41553266Y-52684785D01*
X42044579Y-52685214D01*
X42498657Y-52497592D01*
X42846371Y-52150485D01*
X43034785Y-51696734D01*
X43035214Y-51205421D01*
X42847592Y-50751343D01*
X42500485Y-50403629D01*
X42046734Y-50215215D01*
X41555421Y-50214786D01*
X41101343Y-50402408D01*
X40753629Y-50749515D01*
X40565215Y-51203266D01*
X40564786Y-51694579D01*
X33119285Y-51694579D01*
X33176919Y-51637046D01*
X33334820Y-51256777D01*
X33335179Y-50845029D01*
X33177942Y-50464485D01*
X32887046Y-50173081D01*
X32506777Y-50015180D01*
X32095029Y-50014821D01*
X31714485Y-50172058D01*
X31423081Y-50462954D01*
X31265180Y-50843223D01*
X31264821Y-51254971D01*
X28127000Y-51254971D01*
X28127000Y-47627000D01*
X71144544Y-47627000D01*
X70914485Y-47722058D01*
X70623081Y-48012954D01*
X70465180Y-48393223D01*
X70464821Y-48804971D01*
X70622058Y-49185515D01*
X70912954Y-49476919D01*
X71293223Y-49634820D01*
X71704971Y-49635179D01*
X72085515Y-49477942D01*
X72376919Y-49187046D01*
X72427226Y-49065892D01*
X72593223Y-49134820D01*
X73004971Y-49135179D01*
X73385515Y-48977942D01*
X73658962Y-48704971D01*
X94764821Y-48704971D01*
X94922058Y-49085515D01*
X95212954Y-49376919D01*
X95593223Y-49534820D01*
X96004971Y-49535179D01*
X96385515Y-49377942D01*
X96676919Y-49087046D01*
X96834820Y-48706777D01*
X96834961Y-48544579D01*
X97964786Y-48544579D01*
X98152408Y-48998657D01*
X98499515Y-49346371D01*
X98953266Y-49534785D01*
X99444579Y-49535214D01*
X99898657Y-49347592D01*
X100246371Y-49000485D01*
X100434785Y-48546734D01*
X100435214Y-48055421D01*
X100247592Y-47601343D01*
X99900485Y-47253629D01*
X99446734Y-47065215D01*
X98955421Y-47064786D01*
X98501343Y-47252408D01*
X98153629Y-47599515D01*
X97965215Y-48053266D01*
X97964786Y-48544579D01*
X96834961Y-48544579D01*
X96835179Y-48295029D01*
X96677942Y-47914485D01*
X96387046Y-47623081D01*
X96006777Y-47465180D01*
X95595029Y-47464821D01*
X95214485Y-47622058D01*
X94923081Y-47912954D01*
X94765180Y-48293223D01*
X94764821Y-48704971D01*
X73658962Y-48704971D01*
X73676919Y-48687046D01*
X73834820Y-48306777D01*
X73835179Y-47895029D01*
X73724432Y-47627000D01*
X76000000Y-47627000D01*
X76049410Y-47616994D01*
X76091035Y-47588553D01*
X76118315Y-47546159D01*
X76127000Y-47500000D01*
X76127000Y-43685000D01*
X84000000Y-43685000D01*
X84262138Y-43632857D01*
X84484368Y-43484368D01*
X84632857Y-43262138D01*
X84659738Y-43127000D01*
X104373000Y-43127000D01*
X104373000Y-48726271D01*
G36*
X95013621Y-21818503D02*
X94848119Y-22295864D01*
X94877894Y-22800223D01*
X95013621Y-23127897D01*
X95242667Y-23181728D01*
X95951195Y-22473200D01*
X95937053Y-22459058D01*
X96116658Y-22279453D01*
X96130800Y-22293595D01*
X96144943Y-22279453D01*
X96324548Y-22459058D01*
X96310405Y-22473200D01*
X97018933Y-23181728D01*
X97247979Y-23127897D01*
X97256999Y-23101879D01*
X102281484Y-23101879D01*
X104000000Y-24820395D01*
X105718516Y-23101879D01*
X105493846Y-22727832D01*
X104510612Y-22329120D01*
X103449643Y-22337025D01*
X102506154Y-22727832D01*
X102281484Y-23101879D01*
X97256999Y-23101879D01*
X97413481Y-22650536D01*
X97383706Y-22146177D01*
X97247979Y-21818503D01*
X97071388Y-21777000D01*
X107223000Y-21777000D01*
X107223000Y-112223000D01*
X24777000Y-112223000D01*
X24777000Y-110898121D01*
X26281484Y-110898121D01*
X26506154Y-111272168D01*
X27489388Y-111670880D01*
X28550357Y-111662975D01*
X29493846Y-111272168D01*
X29718516Y-110898121D01*
X102281484Y-110898121D01*
X102506154Y-111272168D01*
X103489388Y-111670880D01*
X104550357Y-111662975D01*
X105493846Y-111272168D01*
X105718516Y-110898121D01*
X104000000Y-109179605D01*
X102281484Y-110898121D01*
X29718516Y-110898121D01*
X28000000Y-109179605D01*
X26281484Y-110898121D01*
X24777000Y-110898121D01*
X24777000Y-108489388D01*
X25329120Y-108489388D01*
X25337025Y-109550357D01*
X25727832Y-110493846D01*
X26101879Y-110718516D01*
X27820395Y-109000000D01*
X26101879Y-107281484D01*
X25727832Y-107506154D01*
X25329120Y-108489388D01*
X24777000Y-108489388D01*
X24777000Y-43777000D01*
X73873000Y-43777000D01*
X73873000Y-45873000D01*
X27000000Y-45873000D01*
X26950590Y-45883006D01*
X26908965Y-45911447D01*
X26881685Y-45953841D01*
X26873000Y-46000000D01*
X26873000Y-55475158D01*
X26494000Y-55475158D01*
X26224590Y-55525851D01*
X25977154Y-55685072D01*
X25811157Y-55928015D01*
X25752758Y-56216400D01*
X25752758Y-57943600D01*
X25803451Y-58213010D01*
X25962672Y-58460446D01*
X26140716Y-58582099D01*
X25853930Y-59011304D01*
X25732853Y-59620000D01*
X25853930Y-60228696D01*
X26198729Y-60744724D01*
X26416150Y-60890000D01*
X26198729Y-61035276D01*
X25853930Y-61551304D01*
X25732853Y-62160000D01*
X25853930Y-62768696D01*
X26198729Y-63284724D01*
X26416150Y-63430000D01*
X26198729Y-63575276D01*
X25853930Y-64091304D01*
X25732853Y-64700000D01*
X25853930Y-65308696D01*
X26198729Y-65824724D01*
X26714757Y-66169523D01*
X26873000Y-66200999D01*
X26873000Y-77939478D01*
X26633990Y-77984451D01*
X26386554Y-78143672D01*
X26220557Y-78386615D01*
X26162158Y-78675000D01*
X26162158Y-80707000D01*
X26212851Y-80976410D01*
X26372072Y-81223846D01*
X26615015Y-81389843D01*
X26873000Y-81442086D01*
X26873000Y-83933361D01*
X26701187Y-83933211D01*
X26066400Y-84195500D01*
X25580306Y-84680745D01*
X25316910Y-85315073D01*
X25316311Y-86001913D01*
X25578600Y-86636700D01*
X26063845Y-87122794D01*
X26698173Y-87386190D01*
X26873000Y-87386342D01*
X26873000Y-100799478D01*
X26633990Y-100844451D01*
X26386554Y-101003672D01*
X26220557Y-101246615D01*
X26162158Y-101535000D01*
X26162158Y-103567000D01*
X26212851Y-103836410D01*
X26372072Y-104083846D01*
X26615015Y-104249843D01*
X26873000Y-104302086D01*
X26873000Y-106575879D01*
X26506154Y-106727832D01*
X26281484Y-107101879D01*
X28000000Y-108820395D01*
X28014143Y-108806253D01*
X28193748Y-108985858D01*
X28179605Y-109000000D01*
X29898121Y-110718516D01*
X30272168Y-110493846D01*
X30670880Y-109510612D01*
X30662975Y-108449643D01*
X30272168Y-107506154D01*
X29898123Y-107281485D01*
X30010845Y-107168763D01*
X29969082Y-107127000D01*
X102030918Y-107127000D01*
X101989155Y-107168763D01*
X102101877Y-107281485D01*
X101727832Y-107506154D01*
X101329120Y-108489388D01*
X101337025Y-109550357D01*
X101727832Y-110493846D01*
X102101879Y-110718516D01*
X103820395Y-109000000D01*
X104179605Y-109000000D01*
X105898121Y-110718516D01*
X106272168Y-110493846D01*
X106670880Y-109510612D01*
X106662975Y-108449643D01*
X106272168Y-107506154D01*
X105898121Y-107281484D01*
X104179605Y-109000000D01*
X103820395Y-109000000D01*
X103806253Y-108985858D01*
X103985858Y-108806253D01*
X104000000Y-108820395D01*
X105718516Y-107101879D01*
X105627000Y-106949516D01*
X105627000Y-91805384D01*
X105726769Y-91565115D01*
X105727229Y-91037202D01*
X105627000Y-90794629D01*
X105627000Y-72135425D01*
X105650703Y-72125631D01*
X106024319Y-71752666D01*
X106226769Y-71265115D01*
X106227229Y-70737202D01*
X106025631Y-70249297D01*
X105652666Y-69875681D01*
X105627000Y-69865023D01*
X105627000Y-42000000D01*
X105616994Y-41950590D01*
X105588553Y-41908965D01*
X105546159Y-41881685D01*
X105500000Y-41873000D01*
X102636013Y-41873000D01*
X102750703Y-41825611D01*
X103124319Y-41452646D01*
X103326769Y-40965095D01*
X103327229Y-40437182D01*
X103125631Y-39949277D01*
X102752666Y-39575661D01*
X102265115Y-39373211D01*
X101737202Y-39372751D01*
X101249297Y-39574349D01*
X100875681Y-39947314D01*
X100673231Y-40434865D01*
X100672771Y-40962778D01*
X100874369Y-41450683D01*
X101247334Y-41824299D01*
X101364618Y-41873000D01*
X84777000Y-41873000D01*
X84777000Y-27801791D01*
X88602805Y-27801791D01*
X88774019Y-28216160D01*
X89090772Y-28533467D01*
X89504842Y-28705404D01*
X89953191Y-28705795D01*
X90365502Y-28535431D01*
X90774842Y-28705404D01*
X91214473Y-28705787D01*
X91143196Y-28877442D01*
X91142805Y-29325791D01*
X91314019Y-29740160D01*
X91630772Y-30057467D01*
X92044842Y-30229404D01*
X92197489Y-30229537D01*
X92162440Y-30244019D01*
X91845133Y-30560772D01*
X91673196Y-30974842D01*
X91672805Y-31423191D01*
X91844019Y-31837560D01*
X92160772Y-32154867D01*
X92574842Y-32326804D01*
X93023191Y-32327195D01*
X93437560Y-32155981D01*
X93754867Y-31839228D01*
X93926804Y-31425158D01*
X93927195Y-30976809D01*
X93755981Y-30562440D01*
X93439228Y-30245133D01*
X93401530Y-30229480D01*
X93763191Y-30229795D01*
X94177560Y-30058581D01*
X94494867Y-29741828D01*
X94666804Y-29327758D01*
X94667195Y-28879409D01*
X94495981Y-28465040D01*
X94371819Y-28340661D01*
X94494867Y-28217828D01*
X94666804Y-27803758D01*
X94667195Y-27355409D01*
X94495981Y-26941040D01*
X94453137Y-26898121D01*
X102281484Y-26898121D01*
X102506154Y-27272168D01*
X103489388Y-27670880D01*
X104550357Y-27662975D01*
X105493846Y-27272168D01*
X105718516Y-26898121D01*
X104000000Y-25179605D01*
X102281484Y-26898121D01*
X94453137Y-26898121D01*
X94179228Y-26623733D01*
X93765158Y-26451796D01*
X93316809Y-26451405D01*
X92902440Y-26622619D01*
X92585133Y-26939372D01*
X92413196Y-27353442D01*
X92412805Y-27801791D01*
X92484699Y-27975787D01*
X92055527Y-27975413D01*
X92126804Y-27803758D01*
X92127195Y-27355409D01*
X91955981Y-26941040D01*
X91639228Y-26623733D01*
X91225158Y-26451796D01*
X90776809Y-26451405D01*
X90364498Y-26621769D01*
X89955158Y-26451796D01*
X89506809Y-26451405D01*
X89092440Y-26622619D01*
X88775133Y-26939372D01*
X88603196Y-27353442D01*
X88602805Y-27801791D01*
X84777000Y-27801791D01*
X84777000Y-25621933D01*
X85160672Y-25621933D01*
X85214503Y-25850979D01*
X85691864Y-26016481D01*
X86196223Y-25986706D01*
X86523897Y-25850979D01*
X86577728Y-25621933D01*
X95422272Y-25621933D01*
X95476103Y-25850979D01*
X95953464Y-26016481D01*
X96457823Y-25986706D01*
X96785497Y-25850979D01*
X96839328Y-25621933D01*
X96130800Y-24913405D01*
X95422272Y-25621933D01*
X86577728Y-25621933D01*
X85869200Y-24913405D01*
X85160672Y-25621933D01*
X84777000Y-25621933D01*
X84777000Y-25394368D01*
X84981067Y-25442328D01*
X85689595Y-24733800D01*
X86048805Y-24733800D01*
X86757333Y-25442328D01*
X86986379Y-25388497D01*
X87151881Y-24911136D01*
X87130943Y-24556464D01*
X94848119Y-24556464D01*
X94877894Y-25060823D01*
X95013621Y-25388497D01*
X95242667Y-25442328D01*
X95951195Y-24733800D01*
X96310405Y-24733800D01*
X97018933Y-25442328D01*
X97247979Y-25388497D01*
X97413481Y-24911136D01*
X97388583Y-24489388D01*
X101329120Y-24489388D01*
X101337025Y-25550357D01*
X101727832Y-26493846D01*
X102101879Y-26718516D01*
X103820395Y-25000000D01*
X104179605Y-25000000D01*
X105898121Y-26718516D01*
X106272168Y-26493846D01*
X106670880Y-25510612D01*
X106662975Y-24449643D01*
X106272168Y-23506154D01*
X105898121Y-23281484D01*
X104179605Y-25000000D01*
X103820395Y-25000000D01*
X102101879Y-23281484D01*
X101727832Y-23506154D01*
X101329120Y-24489388D01*
X97388583Y-24489388D01*
X97383706Y-24406777D01*
X97247979Y-24079103D01*
X97018933Y-24025272D01*
X96310405Y-24733800D01*
X95951195Y-24733800D01*
X95242667Y-24025272D01*
X95013621Y-24079103D01*
X94848119Y-24556464D01*
X87130943Y-24556464D01*
X87122106Y-24406777D01*
X86986379Y-24079103D01*
X86757333Y-24025272D01*
X86048805Y-24733800D01*
X85689595Y-24733800D01*
X84981067Y-24025272D01*
X84777000Y-24073232D01*
X84777000Y-23361333D01*
X85160672Y-23361333D01*
X85214503Y-23590379D01*
X85248990Y-23602336D01*
X85214503Y-23616621D01*
X85160672Y-23845667D01*
X85869200Y-24554195D01*
X86577728Y-23845667D01*
X86523897Y-23616621D01*
X86489410Y-23604664D01*
X86523897Y-23590379D01*
X86577728Y-23361333D01*
X95422272Y-23361333D01*
X95476103Y-23590379D01*
X95510590Y-23602336D01*
X95476103Y-23616621D01*
X95422272Y-23845667D01*
X96130800Y-24554195D01*
X96839328Y-23845667D01*
X96785497Y-23616621D01*
X96751010Y-23604664D01*
X96785497Y-23590379D01*
X96839328Y-23361333D01*
X96130800Y-22652805D01*
X95422272Y-23361333D01*
X86577728Y-23361333D01*
X85869200Y-22652805D01*
X85160672Y-23361333D01*
X84777000Y-23361333D01*
X84777000Y-23133768D01*
X84981067Y-23181728D01*
X85689595Y-22473200D01*
X85675453Y-22459058D01*
X85855058Y-22279453D01*
X85869200Y-22293595D01*
X85883343Y-22279453D01*
X86062948Y-22459058D01*
X86048805Y-22473200D01*
X86757333Y-23181728D01*
X86986379Y-23127897D01*
X87151881Y-22650536D01*
X87122106Y-22146177D01*
X86986379Y-21818503D01*
X86809788Y-21777000D01*
X95190212Y-21777000D01*
X95013621Y-21818503D01*
X95013621Y-21818503D01*
G37*
X95013621Y-21818503D02*
X94848119Y-22295864D01*
X94877894Y-22800223D01*
X95013621Y-23127897D01*
X95242667Y-23181728D01*
X95951195Y-22473200D01*
X95937053Y-22459058D01*
X96116658Y-22279453D01*
X96130800Y-22293595D01*
X96144943Y-22279453D01*
X96324548Y-22459058D01*
X96310405Y-22473200D01*
X97018933Y-23181728D01*
X97247979Y-23127897D01*
X97256999Y-23101879D01*
X102281484Y-23101879D01*
X104000000Y-24820395D01*
X105718516Y-23101879D01*
X105493846Y-22727832D01*
X104510612Y-22329120D01*
X103449643Y-22337025D01*
X102506154Y-22727832D01*
X102281484Y-23101879D01*
X97256999Y-23101879D01*
X97413481Y-22650536D01*
X97383706Y-22146177D01*
X97247979Y-21818503D01*
X97071388Y-21777000D01*
X107223000Y-21777000D01*
X107223000Y-112223000D01*
X24777000Y-112223000D01*
X24777000Y-110898121D01*
X26281484Y-110898121D01*
X26506154Y-111272168D01*
X27489388Y-111670880D01*
X28550357Y-111662975D01*
X29493846Y-111272168D01*
X29718516Y-110898121D01*
X102281484Y-110898121D01*
X102506154Y-111272168D01*
X103489388Y-111670880D01*
X104550357Y-111662975D01*
X105493846Y-111272168D01*
X105718516Y-110898121D01*
X104000000Y-109179605D01*
X102281484Y-110898121D01*
X29718516Y-110898121D01*
X28000000Y-109179605D01*
X26281484Y-110898121D01*
X24777000Y-110898121D01*
X24777000Y-108489388D01*
X25329120Y-108489388D01*
X25337025Y-109550357D01*
X25727832Y-110493846D01*
X26101879Y-110718516D01*
X27820395Y-109000000D01*
X26101879Y-107281484D01*
X25727832Y-107506154D01*
X25329120Y-108489388D01*
X24777000Y-108489388D01*
X24777000Y-43777000D01*
X73873000Y-43777000D01*
X73873000Y-45873000D01*
X27000000Y-45873000D01*
X26950590Y-45883006D01*
X26908965Y-45911447D01*
X26881685Y-45953841D01*
X26873000Y-46000000D01*
X26873000Y-55475158D01*
X26494000Y-55475158D01*
X26224590Y-55525851D01*
X25977154Y-55685072D01*
X25811157Y-55928015D01*
X25752758Y-56216400D01*
X25752758Y-57943600D01*
X25803451Y-58213010D01*
X25962672Y-58460446D01*
X26140716Y-58582099D01*
X25853930Y-59011304D01*
X25732853Y-59620000D01*
X25853930Y-60228696D01*
X26198729Y-60744724D01*
X26416150Y-60890000D01*
X26198729Y-61035276D01*
X25853930Y-61551304D01*
X25732853Y-62160000D01*
X25853930Y-62768696D01*
X26198729Y-63284724D01*
X26416150Y-63430000D01*
X26198729Y-63575276D01*
X25853930Y-64091304D01*
X25732853Y-64700000D01*
X25853930Y-65308696D01*
X26198729Y-65824724D01*
X26714757Y-66169523D01*
X26873000Y-66200999D01*
X26873000Y-77939478D01*
X26633990Y-77984451D01*
X26386554Y-78143672D01*
X26220557Y-78386615D01*
X26162158Y-78675000D01*
X26162158Y-80707000D01*
X26212851Y-80976410D01*
X26372072Y-81223846D01*
X26615015Y-81389843D01*
X26873000Y-81442086D01*
X26873000Y-83933361D01*
X26701187Y-83933211D01*
X26066400Y-84195500D01*
X25580306Y-84680745D01*
X25316910Y-85315073D01*
X25316311Y-86001913D01*
X25578600Y-86636700D01*
X26063845Y-87122794D01*
X26698173Y-87386190D01*
X26873000Y-87386342D01*
X26873000Y-100799478D01*
X26633990Y-100844451D01*
X26386554Y-101003672D01*
X26220557Y-101246615D01*
X26162158Y-101535000D01*
X26162158Y-103567000D01*
X26212851Y-103836410D01*
X26372072Y-104083846D01*
X26615015Y-104249843D01*
X26873000Y-104302086D01*
X26873000Y-106575879D01*
X26506154Y-106727832D01*
X26281484Y-107101879D01*
X28000000Y-108820395D01*
X28014143Y-108806253D01*
X28193748Y-108985858D01*
X28179605Y-109000000D01*
X29898121Y-110718516D01*
X30272168Y-110493846D01*
X30670880Y-109510612D01*
X30662975Y-108449643D01*
X30272168Y-107506154D01*
X29898123Y-107281485D01*
X30010845Y-107168763D01*
X29969082Y-107127000D01*
X102030918Y-107127000D01*
X101989155Y-107168763D01*
X102101877Y-107281485D01*
X101727832Y-107506154D01*
X101329120Y-108489388D01*
X101337025Y-109550357D01*
X101727832Y-110493846D01*
X102101879Y-110718516D01*
X103820395Y-109000000D01*
X104179605Y-109000000D01*
X105898121Y-110718516D01*
X106272168Y-110493846D01*
X106670880Y-109510612D01*
X106662975Y-108449643D01*
X106272168Y-107506154D01*
X105898121Y-107281484D01*
X104179605Y-109000000D01*
X103820395Y-109000000D01*
X103806253Y-108985858D01*
X103985858Y-108806253D01*
X104000000Y-108820395D01*
X105718516Y-107101879D01*
X105627000Y-106949516D01*
X105627000Y-91805384D01*
X105726769Y-91565115D01*
X105727229Y-91037202D01*
X105627000Y-90794629D01*
X105627000Y-72135425D01*
X105650703Y-72125631D01*
X106024319Y-71752666D01*
X106226769Y-71265115D01*
X106227229Y-70737202D01*
X106025631Y-70249297D01*
X105652666Y-69875681D01*
X105627000Y-69865023D01*
X105627000Y-42000000D01*
X105616994Y-41950590D01*
X105588553Y-41908965D01*
X105546159Y-41881685D01*
X105500000Y-41873000D01*
X102636013Y-41873000D01*
X102750703Y-41825611D01*
X103124319Y-41452646D01*
X103326769Y-40965095D01*
X103327229Y-40437182D01*
X103125631Y-39949277D01*
X102752666Y-39575661D01*
X102265115Y-39373211D01*
X101737202Y-39372751D01*
X101249297Y-39574349D01*
X100875681Y-39947314D01*
X100673231Y-40434865D01*
X100672771Y-40962778D01*
X100874369Y-41450683D01*
X101247334Y-41824299D01*
X101364618Y-41873000D01*
X84777000Y-41873000D01*
X84777000Y-27801791D01*
X88602805Y-27801791D01*
X88774019Y-28216160D01*
X89090772Y-28533467D01*
X89504842Y-28705404D01*
X89953191Y-28705795D01*
X90365502Y-28535431D01*
X90774842Y-28705404D01*
X91214473Y-28705787D01*
X91143196Y-28877442D01*
X91142805Y-29325791D01*
X91314019Y-29740160D01*
X91630772Y-30057467D01*
X92044842Y-30229404D01*
X92197489Y-30229537D01*
X92162440Y-30244019D01*
X91845133Y-30560772D01*
X91673196Y-30974842D01*
X91672805Y-31423191D01*
X91844019Y-31837560D01*
X92160772Y-32154867D01*
X92574842Y-32326804D01*
X93023191Y-32327195D01*
X93437560Y-32155981D01*
X93754867Y-31839228D01*
X93926804Y-31425158D01*
X93927195Y-30976809D01*
X93755981Y-30562440D01*
X93439228Y-30245133D01*
X93401530Y-30229480D01*
X93763191Y-30229795D01*
X94177560Y-30058581D01*
X94494867Y-29741828D01*
X94666804Y-29327758D01*
X94667195Y-28879409D01*
X94495981Y-28465040D01*
X94371819Y-28340661D01*
X94494867Y-28217828D01*
X94666804Y-27803758D01*
X94667195Y-27355409D01*
X94495981Y-26941040D01*
X94453137Y-26898121D01*
X102281484Y-26898121D01*
X102506154Y-27272168D01*
X103489388Y-27670880D01*
X104550357Y-27662975D01*
X105493846Y-27272168D01*
X105718516Y-26898121D01*
X104000000Y-25179605D01*
X102281484Y-26898121D01*
X94453137Y-26898121D01*
X94179228Y-26623733D01*
X93765158Y-26451796D01*
X93316809Y-26451405D01*
X92902440Y-26622619D01*
X92585133Y-26939372D01*
X92413196Y-27353442D01*
X92412805Y-27801791D01*
X92484699Y-27975787D01*
X92055527Y-27975413D01*
X92126804Y-27803758D01*
X92127195Y-27355409D01*
X91955981Y-26941040D01*
X91639228Y-26623733D01*
X91225158Y-26451796D01*
X90776809Y-26451405D01*
X90364498Y-26621769D01*
X89955158Y-26451796D01*
X89506809Y-26451405D01*
X89092440Y-26622619D01*
X88775133Y-26939372D01*
X88603196Y-27353442D01*
X88602805Y-27801791D01*
X84777000Y-27801791D01*
X84777000Y-25621933D01*
X85160672Y-25621933D01*
X85214503Y-25850979D01*
X85691864Y-26016481D01*
X86196223Y-25986706D01*
X86523897Y-25850979D01*
X86577728Y-25621933D01*
X95422272Y-25621933D01*
X95476103Y-25850979D01*
X95953464Y-26016481D01*
X96457823Y-25986706D01*
X96785497Y-25850979D01*
X96839328Y-25621933D01*
X96130800Y-24913405D01*
X95422272Y-25621933D01*
X86577728Y-25621933D01*
X85869200Y-24913405D01*
X85160672Y-25621933D01*
X84777000Y-25621933D01*
X84777000Y-25394368D01*
X84981067Y-25442328D01*
X85689595Y-24733800D01*
X86048805Y-24733800D01*
X86757333Y-25442328D01*
X86986379Y-25388497D01*
X87151881Y-24911136D01*
X87130943Y-24556464D01*
X94848119Y-24556464D01*
X94877894Y-25060823D01*
X95013621Y-25388497D01*
X95242667Y-25442328D01*
X95951195Y-24733800D01*
X96310405Y-24733800D01*
X97018933Y-25442328D01*
X97247979Y-25388497D01*
X97413481Y-24911136D01*
X97388583Y-24489388D01*
X101329120Y-24489388D01*
X101337025Y-25550357D01*
X101727832Y-26493846D01*
X102101879Y-26718516D01*
X103820395Y-25000000D01*
X104179605Y-25000000D01*
X105898121Y-26718516D01*
X106272168Y-26493846D01*
X106670880Y-25510612D01*
X106662975Y-24449643D01*
X106272168Y-23506154D01*
X105898121Y-23281484D01*
X104179605Y-25000000D01*
X103820395Y-25000000D01*
X102101879Y-23281484D01*
X101727832Y-23506154D01*
X101329120Y-24489388D01*
X97388583Y-24489388D01*
X97383706Y-24406777D01*
X97247979Y-24079103D01*
X97018933Y-24025272D01*
X96310405Y-24733800D01*
X95951195Y-24733800D01*
X95242667Y-24025272D01*
X95013621Y-24079103D01*
X94848119Y-24556464D01*
X87130943Y-24556464D01*
X87122106Y-24406777D01*
X86986379Y-24079103D01*
X86757333Y-24025272D01*
X86048805Y-24733800D01*
X85689595Y-24733800D01*
X84981067Y-24025272D01*
X84777000Y-24073232D01*
X84777000Y-23361333D01*
X85160672Y-23361333D01*
X85214503Y-23590379D01*
X85248990Y-23602336D01*
X85214503Y-23616621D01*
X85160672Y-23845667D01*
X85869200Y-24554195D01*
X86577728Y-23845667D01*
X86523897Y-23616621D01*
X86489410Y-23604664D01*
X86523897Y-23590379D01*
X86577728Y-23361333D01*
X95422272Y-23361333D01*
X95476103Y-23590379D01*
X95510590Y-23602336D01*
X95476103Y-23616621D01*
X95422272Y-23845667D01*
X96130800Y-24554195D01*
X96839328Y-23845667D01*
X96785497Y-23616621D01*
X96751010Y-23604664D01*
X96785497Y-23590379D01*
X96839328Y-23361333D01*
X96130800Y-22652805D01*
X95422272Y-23361333D01*
X86577728Y-23361333D01*
X85869200Y-22652805D01*
X85160672Y-23361333D01*
X84777000Y-23361333D01*
X84777000Y-23133768D01*
X84981067Y-23181728D01*
X85689595Y-22473200D01*
X85675453Y-22459058D01*
X85855058Y-22279453D01*
X85869200Y-22293595D01*
X85883343Y-22279453D01*
X86062948Y-22459058D01*
X86048805Y-22473200D01*
X86757333Y-23181728D01*
X86986379Y-23127897D01*
X87151881Y-22650536D01*
X87122106Y-22146177D01*
X86986379Y-21818503D01*
X86809788Y-21777000D01*
X95190212Y-21777000D01*
X95013621Y-21818503D01*
M02*
