G04 #@! TF.FileFunction,Paste,Top*
%FSLAX46Y46*%
G04 Gerber Fmt 4.6, Leading zero omitted, Abs format (unit mm)*
G04 Created by KiCad (PCBNEW 4.0.1-stable) date 2016-12-19 1:07:11 AM*
%MOMM*%
G01*
G04 APERTURE LIST*
%ADD10C,0.150000*%
%ADD11R,1.198880X1.198880*%
%ADD12R,2.430000X2.370000*%
%ADD13R,4.130000X2.370000*%
%ADD14R,1.550000X0.600000*%
%ADD15R,0.400000X1.200000*%
%ADD16R,4.000500X2.400300*%
%ADD17R,1.800860X2.499360*%
%ADD18R,0.508000X1.143000*%
%ADD19R,1.000000X1.250000*%
%ADD20R,1.250000X1.000000*%
%ADD21R,1.300000X0.700000*%
%ADD22R,0.700000X1.300000*%
%ADD23R,1.524000X2.032000*%
%ADD24R,1.700000X0.900000*%
%ADD25R,0.900000X1.700000*%
%ADD26R,3.200000X1.000000*%
%ADD27R,1.000000X2.500000*%
%ADD28R,2.500000X1.000000*%
%ADD29R,2.999740X4.900000*%
%ADD30R,3.299460X2.499360*%
%ADD31R,0.500000X2.800000*%
%ADD32R,1.727000X0.457000*%
%ADD33R,0.600000X0.420000*%
G04 APERTURE END LIST*
D10*
D11*
X89200000Y-36350980D03*
X89200000Y-38449020D03*
D12*
X95839000Y-60286000D03*
X95839000Y-66526000D03*
D13*
X102951000Y-60794000D03*
X102951000Y-67034000D03*
D11*
X92500000Y-36350980D03*
X92500000Y-38449020D03*
D14*
X87109000Y-73693000D03*
X87109000Y-72423000D03*
X87109000Y-71153000D03*
X87109000Y-69883000D03*
X81709000Y-69883000D03*
X81709000Y-71153000D03*
X81709000Y-72423000D03*
X81709000Y-73693000D03*
D15*
X66080000Y-66386000D03*
X65430000Y-66386000D03*
X64780000Y-66386000D03*
X64130000Y-66386000D03*
X64130000Y-70586000D03*
X64780000Y-70586000D03*
X65430000Y-70586000D03*
X66080000Y-70586000D03*
D16*
X71391500Y-76614000D03*
X63390500Y-76614000D03*
D17*
X27005000Y-72837020D03*
X27005000Y-76834980D03*
X42499000Y-72075020D03*
X42499000Y-76072980D03*
D18*
X36022000Y-71153000D03*
X37292000Y-71153000D03*
X38562000Y-71153000D03*
X39832000Y-71153000D03*
X39832000Y-77503000D03*
X38562000Y-77503000D03*
X37292000Y-77503000D03*
X36022000Y-77503000D03*
D19*
X37800000Y-41200000D03*
X35800000Y-41200000D03*
X96200000Y-53200000D03*
X98200000Y-53200000D03*
X102100000Y-53200000D03*
X100100000Y-53200000D03*
D20*
X37670000Y-37870000D03*
X37670000Y-39870000D03*
D19*
X35470000Y-46800000D03*
X33470000Y-46800000D03*
X29500000Y-36900000D03*
X27500000Y-36900000D03*
X32000000Y-36500000D03*
X34000000Y-36500000D03*
X35470000Y-48770000D03*
X33470000Y-48770000D03*
X33470000Y-51970000D03*
X35470000Y-51970000D03*
X32000000Y-34900000D03*
X34000000Y-34900000D03*
D21*
X42500000Y-36750000D03*
X42500000Y-34850000D03*
D22*
X33550000Y-43500000D03*
X35450000Y-43500000D03*
X35450000Y-45100000D03*
X33550000Y-45100000D03*
D21*
X35970000Y-37920000D03*
X35970000Y-39820000D03*
D22*
X97650000Y-40100000D03*
X99550000Y-40100000D03*
X102750000Y-40800000D03*
X104650000Y-40800000D03*
X35520000Y-50370000D03*
X33620000Y-50370000D03*
X38020000Y-34500000D03*
X36120000Y-34500000D03*
X33550000Y-53700000D03*
X35450000Y-53700000D03*
D21*
X39370000Y-36750000D03*
X39370000Y-34850000D03*
D23*
X104910000Y-43190000D03*
X102370000Y-43190000D03*
X99830000Y-43190000D03*
X97290000Y-43190000D03*
X97290000Y-50810000D03*
X99830000Y-50810000D03*
X102370000Y-50810000D03*
X104910000Y-50810000D03*
D20*
X92283000Y-67200000D03*
X92283000Y-65200000D03*
D19*
X40451000Y-79408000D03*
X38451000Y-79408000D03*
D20*
X79583000Y-69740000D03*
X79583000Y-67740000D03*
D19*
X92902000Y-61374000D03*
X90902000Y-61374000D03*
D21*
X89200000Y-33150000D03*
X89200000Y-35050000D03*
X95800000Y-33150000D03*
X95800000Y-35050000D03*
D22*
X90952000Y-63406000D03*
X92852000Y-63406000D03*
D21*
X61295000Y-60170000D03*
X61295000Y-62070000D03*
D22*
X68976000Y-66327000D03*
X67076000Y-66327000D03*
X68346000Y-68359000D03*
X70246000Y-68359000D03*
D21*
X60914000Y-72103000D03*
X60914000Y-70203000D03*
X61549000Y-66647000D03*
X61549000Y-68547000D03*
D22*
X36469000Y-68486000D03*
X38369000Y-68486000D03*
D24*
X73360000Y-71206000D03*
X73360000Y-68306000D03*
D25*
X61877000Y-63660000D03*
X64777000Y-63660000D03*
D26*
X76662000Y-71205000D03*
X76662000Y-65005000D03*
D27*
X30029000Y-67724000D03*
X27029000Y-67724000D03*
D28*
X40467000Y-64398000D03*
X40467000Y-61398000D03*
D25*
X29217000Y-60358000D03*
X26317000Y-60358000D03*
D29*
X92127000Y-76119000D03*
X101327000Y-76319000D03*
D30*
X77127000Y-74017940D03*
X77127000Y-80820060D03*
D31*
X96300000Y-23400000D03*
X97100000Y-23400000D03*
X91500000Y-23400000D03*
X92300000Y-23400000D03*
X90700000Y-23400000D03*
X89900000Y-23400000D03*
X93100000Y-23400000D03*
X93900000Y-23400000D03*
X95500000Y-23400000D03*
X94700000Y-23400000D03*
D11*
X95800000Y-36350980D03*
X95800000Y-38449020D03*
D21*
X92500000Y-33150000D03*
X92500000Y-35050000D03*
D32*
X85754000Y-67475000D03*
X85754000Y-66825000D03*
X85754000Y-66175000D03*
X85754000Y-65525000D03*
X83646000Y-65525000D03*
X83646000Y-66175000D03*
X83646000Y-66825000D03*
X83646000Y-67475000D03*
D21*
X62400000Y-54950000D03*
X62400000Y-56850000D03*
X64900000Y-54950000D03*
X64900000Y-56850000D03*
D33*
X88750000Y-54550000D03*
X88750000Y-53250000D03*
X86850000Y-54550000D03*
X88750000Y-53900000D03*
X86850000Y-53250000D03*
D18*
X79495000Y-39125000D03*
X80765000Y-39125000D03*
X82035000Y-39125000D03*
X83305000Y-39125000D03*
X83305000Y-45475000D03*
X82035000Y-45475000D03*
X80765000Y-45475000D03*
X79495000Y-45475000D03*
D21*
X77800000Y-45550000D03*
X77800000Y-43650000D03*
D20*
X78100000Y-39100000D03*
X78100000Y-37100000D03*
D21*
X89100000Y-55950000D03*
X89100000Y-57850000D03*
M02*
