G04 #@! TF.FileFunction,Paste,Top*
%FSLAX46Y46*%
G04 Gerber Fmt 4.6, Leading zero omitted, Abs format (unit mm)*
G04 Created by KiCad (PCBNEW 4.0.1-stable) date 9/22/2016 9:46:06 AM*
%MOMM*%
G01*
G04 APERTURE LIST*
%ADD10C,0.150000*%
%ADD11R,1.524000X2.032000*%
%ADD12R,2.430000X2.370000*%
%ADD13R,4.130000X2.370000*%
%ADD14R,2.500000X2.000000*%
%ADD15R,1.198880X1.198880*%
%ADD16R,1.550000X0.600000*%
%ADD17R,0.400000X1.200000*%
%ADD18R,4.000500X2.400300*%
%ADD19R,2.999740X2.999740*%
%ADD20R,6.350000X1.000000*%
%ADD21R,0.800100X0.800100*%
%ADD22R,1.000000X2.500000*%
%ADD23R,2.500000X1.000000*%
%ADD24R,1.800860X2.499360*%
%ADD25R,0.508000X1.143000*%
%ADD26R,1.000000X1.250000*%
%ADD27R,1.250000X1.000000*%
%ADD28R,1.143000X0.508000*%
%ADD29R,1.300000X0.700000*%
%ADD30R,0.700000X1.300000*%
%ADD31R,1.700000X0.900000*%
%ADD32R,0.900000X1.700000*%
%ADD33R,3.200000X1.000000*%
G04 APERTURE END LIST*
D10*
D11*
X41021000Y-39878000D03*
X38481000Y-39878000D03*
X35941000Y-39878000D03*
X33401000Y-39878000D03*
X33401000Y-47498000D03*
X35941000Y-47498000D03*
X38481000Y-47498000D03*
X41021000Y-47498000D03*
D12*
X96139000Y-70286000D03*
X96139000Y-76526000D03*
D13*
X103251000Y-70794000D03*
X103251000Y-77034000D03*
D14*
X78486000Y-88060000D03*
X78486000Y-84660000D03*
D15*
X97536000Y-35974020D03*
X97536000Y-33875980D03*
X102870000Y-35974020D03*
X102870000Y-33875980D03*
D16*
X87409000Y-83693000D03*
X87409000Y-82423000D03*
X87409000Y-81153000D03*
X87409000Y-79883000D03*
X82009000Y-79883000D03*
X82009000Y-81153000D03*
X82009000Y-82423000D03*
X82009000Y-83693000D03*
X84041000Y-74295000D03*
X84041000Y-75565000D03*
X84041000Y-76835000D03*
X84041000Y-78105000D03*
X89441000Y-78105000D03*
X89441000Y-76835000D03*
X89441000Y-75565000D03*
X89441000Y-74295000D03*
D17*
X66380000Y-76386000D03*
X65730000Y-76386000D03*
X65080000Y-76386000D03*
X64430000Y-76386000D03*
X64430000Y-80586000D03*
X65080000Y-80586000D03*
X65730000Y-80586000D03*
X66380000Y-80586000D03*
D11*
X27051000Y-60198000D03*
X29591000Y-60198000D03*
X32131000Y-60198000D03*
X34671000Y-60198000D03*
X34671000Y-52578000D03*
X32131000Y-52578000D03*
X29591000Y-52578000D03*
X27051000Y-52578000D03*
D18*
X71691500Y-86614000D03*
X63690500Y-86614000D03*
D19*
X90671000Y-85598000D03*
X105671000Y-85598000D03*
D20*
X69977000Y-74301000D03*
X69977000Y-68701000D03*
D21*
X80584000Y-47228760D03*
X82484000Y-47228760D03*
X81534000Y-45229780D03*
X85029000Y-47228760D03*
X86929000Y-47228760D03*
X85979000Y-45229780D03*
D22*
X30329000Y-77724000D03*
X27329000Y-77724000D03*
D23*
X40767000Y-74398000D03*
X40767000Y-71398000D03*
D24*
X27305000Y-82837020D03*
X27305000Y-86834980D03*
X42799000Y-82075020D03*
X42799000Y-86072980D03*
D25*
X36322000Y-81153000D03*
X37592000Y-81153000D03*
X38862000Y-81153000D03*
X40132000Y-81153000D03*
X40132000Y-87503000D03*
X38862000Y-87503000D03*
X37592000Y-87503000D03*
X36322000Y-87503000D03*
D26*
X58277000Y-44958000D03*
X56277000Y-44958000D03*
X33036000Y-50038000D03*
X35036000Y-50038000D03*
X37862000Y-49911000D03*
X39862000Y-49911000D03*
X43196000Y-49911000D03*
X45196000Y-49911000D03*
X47006000Y-49911000D03*
X49006000Y-49911000D03*
D27*
X71628000Y-45069000D03*
X71628000Y-43069000D03*
X71755000Y-38973000D03*
X71755000Y-36973000D03*
X75311000Y-39227000D03*
X75311000Y-37227000D03*
X63119000Y-45736000D03*
X63119000Y-47736000D03*
D26*
X63484000Y-35179000D03*
X61484000Y-35179000D03*
X61833000Y-37465000D03*
X59833000Y-37465000D03*
X66786000Y-47625000D03*
X64786000Y-47625000D03*
D28*
X69850000Y-44323000D03*
X69850000Y-43053000D03*
X69850000Y-41783000D03*
X69850000Y-40513000D03*
X69850000Y-39243000D03*
X69850000Y-37973000D03*
X69850000Y-36703000D03*
X63500000Y-36703000D03*
X63500000Y-37973000D03*
X63500000Y-40513000D03*
X63500000Y-41783000D03*
X63500000Y-43053000D03*
X63500000Y-44323000D03*
X63500000Y-39243000D03*
D29*
X55880000Y-43368000D03*
X55880000Y-41468000D03*
D30*
X32895500Y-37592000D03*
X34795500Y-37592000D03*
X73721000Y-40894000D03*
X71821000Y-40894000D03*
D29*
X73533000Y-39177000D03*
X73533000Y-37277000D03*
X73533000Y-44892000D03*
X73533000Y-42992000D03*
D30*
X38674000Y-37592000D03*
X40574000Y-37592000D03*
X44071500Y-37592000D03*
X45971500Y-37592000D03*
X48897500Y-37592000D03*
X50797500Y-37592000D03*
X59883000Y-39243000D03*
X61783000Y-39243000D03*
D29*
X61341000Y-45654000D03*
X61341000Y-43754000D03*
D30*
X61783000Y-42037000D03*
X59883000Y-42037000D03*
X59375000Y-47117000D03*
X61275000Y-47117000D03*
D11*
X51689000Y-39878000D03*
X49149000Y-39878000D03*
X46609000Y-39878000D03*
X44069000Y-39878000D03*
X44069000Y-47498000D03*
X46609000Y-47498000D03*
X49149000Y-47498000D03*
X51689000Y-47498000D03*
D27*
X92583000Y-77200000D03*
X92583000Y-75200000D03*
D26*
X40751000Y-89408000D03*
X38751000Y-89408000D03*
D27*
X79883000Y-79740000D03*
X79883000Y-77740000D03*
D26*
X93202000Y-71374000D03*
X91202000Y-71374000D03*
D29*
X99568000Y-33975000D03*
X99568000Y-35875000D03*
X104902000Y-33975000D03*
X104902000Y-35875000D03*
D30*
X88834000Y-42672000D03*
X86934000Y-42672000D03*
X88834000Y-40259000D03*
X86934000Y-40259000D03*
X91252000Y-73406000D03*
X93152000Y-73406000D03*
D29*
X61595000Y-70170000D03*
X61595000Y-72070000D03*
D30*
X30673000Y-63500000D03*
X32573000Y-63500000D03*
X36129000Y-63500000D03*
X34229000Y-63500000D03*
X27117000Y-63500000D03*
X29017000Y-63500000D03*
X69276000Y-76327000D03*
X67376000Y-76327000D03*
X68646000Y-78359000D03*
X70546000Y-78359000D03*
D29*
X61214000Y-82103000D03*
X61214000Y-80203000D03*
X61849000Y-76647000D03*
X61849000Y-78547000D03*
X37084000Y-56703000D03*
X37084000Y-54803000D03*
D30*
X103947000Y-62230000D03*
X102047000Y-62230000D03*
X81346000Y-42672000D03*
X83246000Y-42672000D03*
X81346000Y-40259000D03*
X83246000Y-40259000D03*
X36769000Y-78486000D03*
X38669000Y-78486000D03*
X29017000Y-70358000D03*
X27117000Y-70358000D03*
D31*
X73660000Y-81206000D03*
X73660000Y-78306000D03*
D32*
X62177000Y-73660000D03*
X65077000Y-73660000D03*
D33*
X76962000Y-81205000D03*
X76962000Y-75005000D03*
M02*
