G04 #@! TF.FileFunction,Copper,L2,Inr,Plane*
%FSLAX46Y46*%
G04 Gerber Fmt 4.6, Leading zero omitted, Abs format (unit mm)*
G04 Created by KiCad (PCBNEW 4.0.1-stable) date 2017-03-07 5:39:30 PM*
%MOMM*%
G01*
G04 APERTURE LIST*
%ADD10C,0.150000*%
%ADD11R,1.727200X2.032000*%
%ADD12O,1.727200X2.032000*%
%ADD13O,1.600000X1.600000*%
%ADD14C,1.900000*%
%ADD15O,3.500120X1.699260*%
%ADD16O,1.699260X3.500120*%
%ADD17C,1.998980*%
%ADD18R,2.032000X1.727200*%
%ADD19O,2.032000X1.727200*%
%ADD20C,1.270000*%
%ADD21C,4.064000*%
%ADD22C,0.800000*%
%ADD23C,1.200000*%
%ADD24C,0.500000*%
%ADD25C,0.254000*%
G04 APERTURE END LIST*
D10*
D11*
X27767000Y-102551000D03*
D12*
X30307000Y-102551000D03*
X32847000Y-102551000D03*
X35387000Y-102551000D03*
D13*
X37700000Y-55850000D03*
X37700000Y-58390000D03*
X37700000Y-60930000D03*
X37700000Y-63470000D03*
X37700000Y-66010000D03*
X37700000Y-68550000D03*
X37700000Y-71090000D03*
X30080000Y-71090000D03*
X30080000Y-68550000D03*
X30080000Y-66010000D03*
X30080000Y-63470000D03*
X30080000Y-60930000D03*
X30080000Y-58390000D03*
X30080000Y-55850000D03*
D14*
X58564000Y-57320000D03*
X61104000Y-57320000D03*
X63644000Y-57320000D03*
X53484000Y-70020000D03*
X56024000Y-70020000D03*
X58564000Y-70020000D03*
X61104000Y-70020000D03*
X63644000Y-70020000D03*
X66184000Y-70020000D03*
X68724000Y-70020000D03*
X71264000Y-70020000D03*
X73804000Y-70020000D03*
X76344000Y-70020000D03*
X78884000Y-70020000D03*
X81424000Y-70020000D03*
X83964000Y-70020000D03*
X83964000Y-54780000D03*
X81424000Y-54780000D03*
X78884000Y-54780000D03*
X76344000Y-54780000D03*
X73804000Y-54780000D03*
X71264000Y-54780000D03*
X68724000Y-54780000D03*
X66184000Y-54780000D03*
X63644000Y-54780000D03*
X61104000Y-54780000D03*
X58564000Y-54780000D03*
X56024000Y-54780000D03*
X53484000Y-54780000D03*
X50944000Y-54780000D03*
X50944000Y-70020000D03*
D15*
X36403000Y-84644000D03*
X36403000Y-87184000D03*
X36403000Y-82104000D03*
X31069000Y-95947000D03*
X31069000Y-98487000D03*
X31069000Y-93407000D03*
D16*
X84409000Y-100011000D03*
X86949000Y-100011000D03*
X81869000Y-100011000D03*
D11*
X27767000Y-79691000D03*
D12*
X30307000Y-79691000D03*
X32847000Y-79691000D03*
D17*
X32044360Y-85660000D03*
X27043100Y-85660000D03*
D18*
X27510000Y-57080000D03*
D19*
X27510000Y-59620000D03*
X27510000Y-62160000D03*
X27510000Y-64700000D03*
D18*
X40210000Y-57080000D03*
D19*
X40210000Y-59620000D03*
X40210000Y-62160000D03*
X40210000Y-64700000D03*
D20*
X96130800Y-22473200D03*
X85869200Y-22473200D03*
X96130800Y-24733800D03*
X85869200Y-24733800D03*
D21*
X104000000Y-25000000D03*
X28000000Y-109000000D03*
X104000000Y-109000000D03*
D22*
X82700000Y-56300000D03*
X80100000Y-56300000D03*
X80800000Y-67700000D03*
X77600000Y-56300000D03*
X78500000Y-67700000D03*
X74600000Y-67000000D03*
X90000000Y-67900000D03*
X86000000Y-67800000D03*
X76100000Y-56400000D03*
X76200000Y-67600000D03*
X73000000Y-56400000D03*
X74700000Y-56400000D03*
X93000000Y-44600000D03*
X93000000Y-45600000D03*
X93540000Y-29102600D03*
X89730000Y-27578600D03*
X91800000Y-44600000D03*
X81300000Y-48900000D03*
X86500000Y-43600000D03*
X29100000Y-100600000D03*
X28700000Y-77800000D03*
X96800000Y-48600000D03*
X99000000Y-70000000D03*
X72800000Y-50500000D03*
X44400000Y-58300000D03*
X95100000Y-49200000D03*
X97200000Y-70400000D03*
X84000000Y-43600000D03*
X43400000Y-57300000D03*
X60400000Y-74800000D03*
X40451000Y-101408000D03*
X42499000Y-98072980D03*
X68700000Y-61400000D03*
X99200000Y-57449020D03*
X103800000Y-57449020D03*
X84550000Y-75200000D03*
X88800000Y-74700000D03*
X73600000Y-77200000D03*
X62600000Y-51100000D03*
X41600000Y-60300000D03*
X41700000Y-58900000D03*
X36000000Y-60600000D03*
X59800000Y-101575000D03*
X60975000Y-101550000D03*
X65300000Y-93600000D03*
X102300000Y-67300000D03*
X62200000Y-101550000D03*
X60975000Y-95400000D03*
X59700000Y-95350000D03*
X62250000Y-95400000D03*
X81615000Y-89740000D03*
X76662000Y-85152000D03*
X78186000Y-83755000D03*
X78186000Y-85152000D03*
X76662000Y-83755000D03*
X75265000Y-83755000D03*
X75265000Y-85152000D03*
X84155000Y-93280000D03*
X99141000Y-82866000D03*
D23*
X103600000Y-49700000D03*
X89700000Y-50900000D03*
X28900000Y-104700000D03*
X88700000Y-94300000D03*
X101700000Y-91200000D03*
X104400000Y-91300000D03*
X104200000Y-99800000D03*
X104200000Y-98300000D03*
X104200000Y-96900000D03*
X102900000Y-92700000D03*
D22*
X81400000Y-63500000D03*
X69000000Y-83450000D03*
X78400000Y-82800000D03*
X90600000Y-87000000D03*
X80800000Y-88600000D03*
D23*
X46563000Y-89597000D03*
X42499000Y-89597000D03*
X89200000Y-70300000D03*
X89100000Y-63200000D03*
X99800000Y-71000000D03*
X104900000Y-71000000D03*
X57950000Y-52600000D03*
X102000000Y-40699980D03*
X99200000Y-48300000D03*
X31850000Y-61050000D03*
X41800000Y-51450000D03*
X96250000Y-77000000D03*
D22*
X85300000Y-61600000D03*
D23*
X87300000Y-88900000D03*
X89500000Y-88900000D03*
X90902000Y-83374000D03*
D22*
X90400000Y-80300000D03*
D23*
X81675000Y-72995000D03*
X73600000Y-75200000D03*
D22*
X61500000Y-52800000D03*
X75200000Y-67800000D03*
X67700000Y-67800000D03*
X67400000Y-76700000D03*
X62100000Y-92300000D03*
X72500000Y-89000000D03*
X37165000Y-88962000D03*
X31831000Y-89724000D03*
X39700000Y-55000000D03*
X95800000Y-48500000D03*
X92800000Y-31200000D03*
X91000000Y-27578600D03*
X101100000Y-76500000D03*
X32300000Y-51050000D03*
X88100000Y-68600000D03*
X99900000Y-59300000D03*
X99600000Y-60800000D03*
X97600000Y-59300000D03*
X102700000Y-60100000D03*
D23*
X93500000Y-66800000D03*
X93000000Y-78300000D03*
D22*
X71500000Y-48600000D03*
X69600000Y-51400000D03*
X92270000Y-29102600D03*
X72800000Y-48100000D03*
X70900000Y-51400000D03*
X93540000Y-27578600D03*
X58800000Y-80100000D03*
X71200000Y-79800000D03*
X58800000Y-79100000D03*
X68700000Y-79100000D03*
X64800000Y-74400000D03*
X64900000Y-80900000D03*
X78600000Y-81000000D03*
X68000000Y-80500000D03*
X68100000Y-74300000D03*
X78500000Y-80000000D03*
X46000000Y-61500000D03*
X94700000Y-78500000D03*
X90600000Y-79200000D03*
X90400000Y-77400000D03*
X89130000Y-72810000D03*
X87600000Y-74700000D03*
X84000000Y-58150000D03*
X84800000Y-77400000D03*
X78900000Y-77400000D03*
X63600000Y-73900000D03*
X66200000Y-73900000D03*
X64600000Y-52800000D03*
X83400000Y-73600000D03*
X76450000Y-74300000D03*
X84200000Y-72200000D03*
X93000000Y-41550000D03*
X94700000Y-41500000D03*
D24*
X27510000Y-57080000D02*
X27510000Y-57110000D01*
X27510000Y-57110000D02*
X28900000Y-58500000D01*
X31850000Y-60750000D02*
X31850000Y-61050000D01*
X30700000Y-59600000D02*
X31850000Y-60750000D01*
X29500000Y-59600000D02*
X30700000Y-59600000D01*
X28900000Y-59000000D02*
X29500000Y-59600000D01*
X28900000Y-58500000D02*
X28900000Y-59000000D01*
D25*
G36*
X85465180Y-43393223D02*
X85464821Y-43804971D01*
X85622058Y-44185515D01*
X85912954Y-44476919D01*
X86293223Y-44634820D01*
X86704971Y-44635179D01*
X87085515Y-44477942D01*
X87376919Y-44187046D01*
X87534820Y-43806777D01*
X87535179Y-43395029D01*
X87424432Y-43127000D01*
X104373000Y-43127000D01*
X104373000Y-48726271D01*
X104300485Y-48653629D01*
X103846734Y-48465215D01*
X103355421Y-48464786D01*
X102901343Y-48652408D01*
X102680365Y-48873000D01*
X97807322Y-48873000D01*
X97834820Y-48806777D01*
X97835179Y-48395029D01*
X97677942Y-48014485D01*
X97387046Y-47723081D01*
X97006777Y-47565180D01*
X96595029Y-47564821D01*
X96406606Y-47642675D01*
X96387046Y-47623081D01*
X96006777Y-47465180D01*
X95595029Y-47464821D01*
X95214485Y-47622058D01*
X94923081Y-47912954D01*
X94802647Y-48202992D01*
X94514485Y-48322058D01*
X94223081Y-48612954D01*
X94115101Y-48873000D01*
X87000000Y-48873000D01*
X86950590Y-48883006D01*
X86908965Y-48911447D01*
X86881685Y-48953841D01*
X86873000Y-49000000D01*
X86873000Y-55000000D01*
X86883006Y-55049410D01*
X86911447Y-55091035D01*
X86953841Y-55118315D01*
X87000000Y-55127000D01*
X99873000Y-55127000D01*
X99873000Y-56658205D01*
X99787046Y-56572101D01*
X99406777Y-56414200D01*
X98995029Y-56413841D01*
X98614485Y-56571078D01*
X98323081Y-56861974D01*
X98165180Y-57242243D01*
X98164821Y-57653991D01*
X98322058Y-58034535D01*
X98612954Y-58325939D01*
X98993223Y-58483840D01*
X99252369Y-58484066D01*
X99023081Y-58712954D01*
X98865180Y-59093223D01*
X98864821Y-59504971D01*
X99022058Y-59885515D01*
X99045673Y-59909171D01*
X99014485Y-59922058D01*
X98723081Y-60212954D01*
X98565180Y-60593223D01*
X98564821Y-61004971D01*
X98722058Y-61385515D01*
X99012954Y-61676919D01*
X99393223Y-61834820D01*
X99804971Y-61835179D01*
X99873000Y-61807070D01*
X99873000Y-69409534D01*
X99587046Y-69123081D01*
X99206777Y-68965180D01*
X98795029Y-68964821D01*
X98414485Y-69122058D01*
X98123081Y-69412954D01*
X97992070Y-69728463D01*
X97787046Y-69523081D01*
X97406777Y-69365180D01*
X96995029Y-69364821D01*
X96614485Y-69522058D01*
X96323081Y-69812954D01*
X96165180Y-70193223D01*
X96164821Y-70604971D01*
X96322058Y-70985515D01*
X96612954Y-71276919D01*
X96993223Y-71434820D01*
X97404971Y-71435179D01*
X97785515Y-71277942D01*
X98076919Y-70987046D01*
X98207930Y-70671537D01*
X98412954Y-70876919D01*
X98565052Y-70940075D01*
X98564786Y-71244579D01*
X98752408Y-71698657D01*
X99099515Y-72046371D01*
X99553266Y-72234785D01*
X99873000Y-72235064D01*
X99873000Y-82134288D01*
X99728046Y-81989081D01*
X99347777Y-81831180D01*
X98936029Y-81830821D01*
X98555485Y-81988058D01*
X98264081Y-82278954D01*
X98106180Y-82659223D01*
X98105821Y-83070971D01*
X98263058Y-83451515D01*
X98553954Y-83742919D01*
X98934223Y-83900820D01*
X99345971Y-83901179D01*
X99726515Y-83743942D01*
X99873000Y-83597712D01*
X99873000Y-85873000D01*
X87000000Y-85873000D01*
X86950590Y-85883006D01*
X86908965Y-85911447D01*
X86881685Y-85953841D01*
X86873000Y-86000000D01*
X86873000Y-97594331D01*
X86380857Y-97692225D01*
X85899208Y-98014052D01*
X85679000Y-98343617D01*
X85458792Y-98014052D01*
X84977143Y-97692225D01*
X84409000Y-97579214D01*
X83840857Y-97692225D01*
X83359208Y-98014052D01*
X83139000Y-98343617D01*
X82918792Y-98014052D01*
X82437143Y-97692225D01*
X81869000Y-97579214D01*
X81300857Y-97692225D01*
X80819208Y-98014052D01*
X80497381Y-98495701D01*
X80384370Y-99063844D01*
X80384370Y-99873000D01*
X32512001Y-99873000D01*
X32584299Y-99858619D01*
X33065948Y-99536792D01*
X33387775Y-99055143D01*
X33500786Y-98487000D01*
X33459204Y-98277951D01*
X41463821Y-98277951D01*
X41621058Y-98658495D01*
X41911954Y-98949899D01*
X42292223Y-99107800D01*
X42703971Y-99108159D01*
X43084515Y-98950922D01*
X43375919Y-98660026D01*
X43533820Y-98279757D01*
X43534179Y-97868009D01*
X43376942Y-97487465D01*
X43086046Y-97196061D01*
X42705777Y-97038160D01*
X42294029Y-97037801D01*
X41913485Y-97195038D01*
X41622081Y-97485934D01*
X41464180Y-97866203D01*
X41463821Y-98277951D01*
X33459204Y-98277951D01*
X33387775Y-97918857D01*
X33065948Y-97437208D01*
X32736383Y-97217000D01*
X33065948Y-96996792D01*
X33387775Y-96515143D01*
X33500786Y-95947000D01*
X33422807Y-95554971D01*
X58664821Y-95554971D01*
X58822058Y-95935515D01*
X59112954Y-96226919D01*
X59493223Y-96384820D01*
X59904971Y-96385179D01*
X60285515Y-96227942D01*
X60312335Y-96201168D01*
X60387954Y-96276919D01*
X60768223Y-96434820D01*
X61179971Y-96435179D01*
X61560515Y-96277942D01*
X61612335Y-96226212D01*
X61662954Y-96276919D01*
X62043223Y-96434820D01*
X62454971Y-96435179D01*
X62835515Y-96277942D01*
X63126919Y-95987046D01*
X63284820Y-95606777D01*
X63285179Y-95195029D01*
X63127942Y-94814485D01*
X62837046Y-94523081D01*
X62456777Y-94365180D01*
X62045029Y-94364821D01*
X61664485Y-94522058D01*
X61612665Y-94573788D01*
X61562046Y-94523081D01*
X61181777Y-94365180D01*
X60770029Y-94364821D01*
X60389485Y-94522058D01*
X60362665Y-94548832D01*
X60287046Y-94473081D01*
X59906777Y-94315180D01*
X59495029Y-94314821D01*
X59114485Y-94472058D01*
X58823081Y-94762954D01*
X58665180Y-95143223D01*
X58664821Y-95554971D01*
X33422807Y-95554971D01*
X33387775Y-95378857D01*
X33065948Y-94897208D01*
X32736383Y-94677000D01*
X33065948Y-94456792D01*
X33387775Y-93975143D01*
X33421624Y-93804971D01*
X64264821Y-93804971D01*
X64422058Y-94185515D01*
X64712954Y-94476919D01*
X65093223Y-94634820D01*
X65504971Y-94635179D01*
X65885515Y-94477942D01*
X66176919Y-94187046D01*
X66334820Y-93806777D01*
X66335100Y-93484971D01*
X83119821Y-93484971D01*
X83277058Y-93865515D01*
X83567954Y-94156919D01*
X83948223Y-94314820D01*
X84359971Y-94315179D01*
X84740515Y-94157942D01*
X85031919Y-93867046D01*
X85189820Y-93486777D01*
X85190179Y-93075029D01*
X85032942Y-92694485D01*
X84742046Y-92403081D01*
X84361777Y-92245180D01*
X83950029Y-92244821D01*
X83569485Y-92402058D01*
X83278081Y-92692954D01*
X83120180Y-93073223D01*
X83119821Y-93484971D01*
X66335100Y-93484971D01*
X66335179Y-93395029D01*
X66177942Y-93014485D01*
X65887046Y-92723081D01*
X65506777Y-92565180D01*
X65095029Y-92564821D01*
X64714485Y-92722058D01*
X64423081Y-93012954D01*
X64265180Y-93393223D01*
X64264821Y-93804971D01*
X33421624Y-93804971D01*
X33500786Y-93407000D01*
X33387775Y-92838857D01*
X33164680Y-92504971D01*
X61064821Y-92504971D01*
X61222058Y-92885515D01*
X61512954Y-93176919D01*
X61893223Y-93334820D01*
X62304971Y-93335179D01*
X62685515Y-93177942D01*
X62976919Y-92887046D01*
X63134820Y-92506777D01*
X63135179Y-92095029D01*
X62977942Y-91714485D01*
X62687046Y-91423081D01*
X62306777Y-91265180D01*
X61895029Y-91264821D01*
X61514485Y-91422058D01*
X61223081Y-91712954D01*
X61065180Y-92093223D01*
X61064821Y-92504971D01*
X33164680Y-92504971D01*
X33065948Y-92357208D01*
X32584299Y-92035381D01*
X32016156Y-91922370D01*
X30121844Y-91922370D01*
X29553701Y-92035381D01*
X29072052Y-92357208D01*
X28750225Y-92838857D01*
X28637214Y-93407000D01*
X28750225Y-93975143D01*
X29072052Y-94456792D01*
X29401617Y-94677000D01*
X29072052Y-94897208D01*
X28750225Y-95378857D01*
X28651934Y-95873000D01*
X28127000Y-95873000D01*
X28127000Y-89928971D01*
X30795821Y-89928971D01*
X30953058Y-90309515D01*
X31243954Y-90600919D01*
X31624223Y-90758820D01*
X32035971Y-90759179D01*
X32416515Y-90601942D01*
X32707919Y-90311046D01*
X32865820Y-89930777D01*
X32866179Y-89519029D01*
X32708942Y-89138485D01*
X32418046Y-88847081D01*
X32037777Y-88689180D01*
X31626029Y-88688821D01*
X31245485Y-88846058D01*
X30954081Y-89136954D01*
X30796180Y-89517223D01*
X30795821Y-89928971D01*
X28127000Y-89928971D01*
X28127000Y-86887495D01*
X28427946Y-86587073D01*
X28677306Y-85986547D01*
X28677308Y-85983694D01*
X30409586Y-85983694D01*
X30657898Y-86584655D01*
X31117287Y-87044846D01*
X31717813Y-87294206D01*
X32368054Y-87294774D01*
X32969015Y-87046462D01*
X33429206Y-86587073D01*
X33678566Y-85986547D01*
X33679134Y-85336306D01*
X33430822Y-84735345D01*
X32971433Y-84275154D01*
X32370907Y-84025794D01*
X31720666Y-84025226D01*
X31119705Y-84273538D01*
X30659514Y-84732927D01*
X30410154Y-85333453D01*
X30409586Y-85983694D01*
X28677308Y-85983694D01*
X28677874Y-85336306D01*
X28429562Y-84735345D01*
X28127000Y-84432255D01*
X28127000Y-82104000D01*
X33971214Y-82104000D01*
X34084225Y-82672143D01*
X34406052Y-83153792D01*
X34735617Y-83374000D01*
X34406052Y-83594208D01*
X34084225Y-84075857D01*
X33971214Y-84644000D01*
X34084225Y-85212143D01*
X34406052Y-85693792D01*
X34735617Y-85914000D01*
X34406052Y-86134208D01*
X34084225Y-86615857D01*
X33971214Y-87184000D01*
X34084225Y-87752143D01*
X34406052Y-88233792D01*
X34887701Y-88555619D01*
X35455844Y-88668630D01*
X36166136Y-88668630D01*
X36130180Y-88755223D01*
X36129821Y-89166971D01*
X36287058Y-89547515D01*
X36577954Y-89838919D01*
X36958223Y-89996820D01*
X37369971Y-89997179D01*
X37746553Y-89841579D01*
X41263786Y-89841579D01*
X41451408Y-90295657D01*
X41798515Y-90643371D01*
X42252266Y-90831785D01*
X42743579Y-90832214D01*
X43197657Y-90644592D01*
X43545371Y-90297485D01*
X43733785Y-89843734D01*
X43733786Y-89841579D01*
X45327786Y-89841579D01*
X45515408Y-90295657D01*
X45862515Y-90643371D01*
X46316266Y-90831785D01*
X46807579Y-90832214D01*
X47261657Y-90644592D01*
X47609371Y-90297485D01*
X47797785Y-89843734D01*
X47798214Y-89352421D01*
X47737289Y-89204971D01*
X71464821Y-89204971D01*
X71622058Y-89585515D01*
X71912954Y-89876919D01*
X72293223Y-90034820D01*
X72704971Y-90035179D01*
X73085515Y-89877942D01*
X73376919Y-89587046D01*
X73534820Y-89206777D01*
X73535170Y-88804971D01*
X79764821Y-88804971D01*
X79922058Y-89185515D01*
X80212954Y-89476919D01*
X80580096Y-89629369D01*
X80579821Y-89944971D01*
X80737058Y-90325515D01*
X81027954Y-90616919D01*
X81408223Y-90774820D01*
X81819971Y-90775179D01*
X82200515Y-90617942D01*
X82491919Y-90327046D01*
X82649820Y-89946777D01*
X82650179Y-89535029D01*
X82492942Y-89154485D01*
X82202046Y-88863081D01*
X81834904Y-88710631D01*
X81835179Y-88395029D01*
X81677942Y-88014485D01*
X81387046Y-87723081D01*
X81006777Y-87565180D01*
X80595029Y-87564821D01*
X80214485Y-87722058D01*
X79923081Y-88012954D01*
X79765180Y-88393223D01*
X79764821Y-88804971D01*
X73535170Y-88804971D01*
X73535179Y-88795029D01*
X73377942Y-88414485D01*
X73087046Y-88123081D01*
X72706777Y-87965180D01*
X72295029Y-87964821D01*
X71914485Y-88122058D01*
X71623081Y-88412954D01*
X71465180Y-88793223D01*
X71464821Y-89204971D01*
X47737289Y-89204971D01*
X47610592Y-88898343D01*
X47263485Y-88550629D01*
X46809734Y-88362215D01*
X46318421Y-88361786D01*
X45864343Y-88549408D01*
X45516629Y-88896515D01*
X45328215Y-89350266D01*
X45327786Y-89841579D01*
X43733786Y-89841579D01*
X43734214Y-89352421D01*
X43546592Y-88898343D01*
X43199485Y-88550629D01*
X42745734Y-88362215D01*
X42254421Y-88361786D01*
X41800343Y-88549408D01*
X41452629Y-88896515D01*
X41264215Y-89350266D01*
X41263786Y-89841579D01*
X37746553Y-89841579D01*
X37750515Y-89839942D01*
X38041919Y-89549046D01*
X38199820Y-89168777D01*
X38200179Y-88757029D01*
X38073978Y-88451598D01*
X38399948Y-88233792D01*
X38721775Y-87752143D01*
X38834786Y-87184000D01*
X38721775Y-86615857D01*
X38399948Y-86134208D01*
X38070383Y-85914000D01*
X38399948Y-85693792D01*
X38721775Y-85212143D01*
X38834786Y-84644000D01*
X38721775Y-84075857D01*
X38440549Y-83654971D01*
X67964821Y-83654971D01*
X68122058Y-84035515D01*
X68412954Y-84326919D01*
X68793223Y-84484820D01*
X69204971Y-84485179D01*
X69585515Y-84327942D01*
X69876919Y-84037046D01*
X69908923Y-83959971D01*
X74229821Y-83959971D01*
X74387058Y-84340515D01*
X74499788Y-84453442D01*
X74388081Y-84564954D01*
X74230180Y-84945223D01*
X74229821Y-85356971D01*
X74387058Y-85737515D01*
X74677954Y-86028919D01*
X75058223Y-86186820D01*
X75469971Y-86187179D01*
X75850515Y-86029942D01*
X75963442Y-85917212D01*
X76074954Y-86028919D01*
X76455223Y-86186820D01*
X76866971Y-86187179D01*
X77247515Y-86029942D01*
X77424053Y-85853712D01*
X77598954Y-86028919D01*
X77979223Y-86186820D01*
X78390971Y-86187179D01*
X78771515Y-86029942D01*
X79062919Y-85739046D01*
X79220820Y-85358777D01*
X79221179Y-84947029D01*
X79063942Y-84566485D01*
X78951212Y-84453558D01*
X79062919Y-84342046D01*
X79220820Y-83961777D01*
X79221179Y-83550029D01*
X79189779Y-83474034D01*
X79276919Y-83387046D01*
X79434820Y-83006777D01*
X79435179Y-82595029D01*
X79277942Y-82214485D01*
X79013101Y-81949182D01*
X79185515Y-81877942D01*
X79476919Y-81587046D01*
X79634820Y-81206777D01*
X79635179Y-80795029D01*
X79477942Y-80414485D01*
X79457200Y-80393707D01*
X79534820Y-80206777D01*
X79535179Y-79795029D01*
X79377942Y-79414485D01*
X79087046Y-79123081D01*
X78706777Y-78965180D01*
X78295029Y-78964821D01*
X77914485Y-79122058D01*
X77623081Y-79412954D01*
X77465180Y-79793223D01*
X77464821Y-80204971D01*
X77622058Y-80585515D01*
X77642800Y-80606293D01*
X77565180Y-80793223D01*
X77564821Y-81204971D01*
X77722058Y-81585515D01*
X77986899Y-81850818D01*
X77814485Y-81922058D01*
X77523081Y-82212954D01*
X77365180Y-82593223D01*
X77364831Y-82994068D01*
X77249046Y-82878081D01*
X76868777Y-82720180D01*
X76457029Y-82719821D01*
X76076485Y-82877058D01*
X75963558Y-82989788D01*
X75852046Y-82878081D01*
X75471777Y-82720180D01*
X75060029Y-82719821D01*
X74679485Y-82877058D01*
X74388081Y-83167954D01*
X74230180Y-83548223D01*
X74229821Y-83959971D01*
X69908923Y-83959971D01*
X70034820Y-83656777D01*
X70035179Y-83245029D01*
X69877942Y-82864485D01*
X69587046Y-82573081D01*
X69206777Y-82415180D01*
X68795029Y-82414821D01*
X68414485Y-82572058D01*
X68123081Y-82862954D01*
X67965180Y-83243223D01*
X67964821Y-83654971D01*
X38440549Y-83654971D01*
X38399948Y-83594208D01*
X38070383Y-83374000D01*
X38399948Y-83153792D01*
X38721775Y-82672143D01*
X38834786Y-82104000D01*
X38721775Y-81535857D01*
X38399948Y-81054208D01*
X37918299Y-80732381D01*
X37350156Y-80619370D01*
X35455844Y-80619370D01*
X34887701Y-80732381D01*
X34406052Y-81054208D01*
X34084225Y-81535857D01*
X33971214Y-82104000D01*
X28127000Y-82104000D01*
X28127000Y-81354440D01*
X28630600Y-81354440D01*
X28865917Y-81310162D01*
X29082041Y-81171090D01*
X29227031Y-80958890D01*
X29235400Y-80917561D01*
X29247330Y-80935415D01*
X29733511Y-81260271D01*
X30307000Y-81374345D01*
X30880489Y-81260271D01*
X31366670Y-80935415D01*
X31577000Y-80620634D01*
X31787330Y-80935415D01*
X32273511Y-81260271D01*
X32847000Y-81374345D01*
X33420489Y-81260271D01*
X33906670Y-80935415D01*
X34231526Y-80449234D01*
X34345600Y-79875745D01*
X34345600Y-79506255D01*
X34305563Y-79304971D01*
X57764821Y-79304971D01*
X57886830Y-79600256D01*
X57765180Y-79893223D01*
X57764821Y-80304971D01*
X57922058Y-80685515D01*
X58212954Y-80976919D01*
X58593223Y-81134820D01*
X59004971Y-81135179D01*
X59078080Y-81104971D01*
X63864821Y-81104971D01*
X64022058Y-81485515D01*
X64312954Y-81776919D01*
X64693223Y-81934820D01*
X65104971Y-81935179D01*
X65485515Y-81777942D01*
X65776919Y-81487046D01*
X65934820Y-81106777D01*
X65935170Y-80704971D01*
X66964821Y-80704971D01*
X67122058Y-81085515D01*
X67412954Y-81376919D01*
X67793223Y-81534820D01*
X68204971Y-81535179D01*
X68585515Y-81377942D01*
X68876919Y-81087046D01*
X69034820Y-80706777D01*
X69035179Y-80295029D01*
X68959774Y-80112535D01*
X69220099Y-80004971D01*
X70164821Y-80004971D01*
X70322058Y-80385515D01*
X70612954Y-80676919D01*
X70993223Y-80834820D01*
X71404971Y-80835179D01*
X71785515Y-80677942D01*
X72076919Y-80387046D01*
X72234820Y-80006777D01*
X72235179Y-79595029D01*
X72077942Y-79214485D01*
X71787046Y-78923081D01*
X71406777Y-78765180D01*
X70995029Y-78764821D01*
X70614485Y-78922058D01*
X70323081Y-79212954D01*
X70165180Y-79593223D01*
X70164821Y-80004971D01*
X69220099Y-80004971D01*
X69285515Y-79977942D01*
X69576919Y-79687046D01*
X69734820Y-79306777D01*
X69735179Y-78895029D01*
X69577942Y-78514485D01*
X69287046Y-78223081D01*
X68906777Y-78065180D01*
X68495029Y-78064821D01*
X68114485Y-78222058D01*
X67823081Y-78512954D01*
X67665180Y-78893223D01*
X67664821Y-79304971D01*
X67740226Y-79487465D01*
X67414485Y-79622058D01*
X67123081Y-79912954D01*
X66965180Y-80293223D01*
X66964821Y-80704971D01*
X65935170Y-80704971D01*
X65935179Y-80695029D01*
X65777942Y-80314485D01*
X65487046Y-80023081D01*
X65106777Y-79865180D01*
X64695029Y-79864821D01*
X64314485Y-80022058D01*
X64023081Y-80312954D01*
X63865180Y-80693223D01*
X63864821Y-81104971D01*
X59078080Y-81104971D01*
X59385515Y-80977942D01*
X59676919Y-80687046D01*
X59834820Y-80306777D01*
X59835179Y-79895029D01*
X59713170Y-79599744D01*
X59834820Y-79306777D01*
X59835179Y-78895029D01*
X59677942Y-78514485D01*
X59387046Y-78223081D01*
X59006777Y-78065180D01*
X58595029Y-78064821D01*
X58214485Y-78222058D01*
X57923081Y-78512954D01*
X57765180Y-78893223D01*
X57764821Y-79304971D01*
X34305563Y-79304971D01*
X34231526Y-78932766D01*
X33906670Y-78446585D01*
X33420489Y-78121729D01*
X32847000Y-78007655D01*
X32273511Y-78121729D01*
X31787330Y-78446585D01*
X31577000Y-78761366D01*
X31366670Y-78446585D01*
X30880489Y-78121729D01*
X30307000Y-78007655D01*
X29733511Y-78121729D01*
X29669262Y-78164659D01*
X29734820Y-78006777D01*
X29735179Y-77595029D01*
X29656649Y-77404971D01*
X72564821Y-77404971D01*
X72722058Y-77785515D01*
X73012954Y-78076919D01*
X73393223Y-78234820D01*
X73804971Y-78235179D01*
X74185515Y-78077942D01*
X74476919Y-77787046D01*
X74552522Y-77604971D01*
X77864821Y-77604971D01*
X78022058Y-77985515D01*
X78312954Y-78276919D01*
X78693223Y-78434820D01*
X79104971Y-78435179D01*
X79485515Y-78277942D01*
X79776919Y-77987046D01*
X79934820Y-77606777D01*
X79934821Y-77604971D01*
X83764821Y-77604971D01*
X83922058Y-77985515D01*
X84212954Y-78276919D01*
X84593223Y-78434820D01*
X85004971Y-78435179D01*
X85385515Y-78277942D01*
X85676919Y-77987046D01*
X85834820Y-77606777D01*
X85834821Y-77604971D01*
X89364821Y-77604971D01*
X89522058Y-77985515D01*
X89812954Y-78276919D01*
X89987217Y-78349279D01*
X89723081Y-78612954D01*
X89565180Y-78993223D01*
X89564821Y-79404971D01*
X89722058Y-79785515D01*
X90012954Y-80076919D01*
X90393223Y-80234820D01*
X90804971Y-80235179D01*
X91185515Y-80077942D01*
X91476919Y-79787046D01*
X91634820Y-79406777D01*
X91635179Y-78995029D01*
X91477942Y-78614485D01*
X91408158Y-78544579D01*
X91764786Y-78544579D01*
X91952408Y-78998657D01*
X92299515Y-79346371D01*
X92753266Y-79534785D01*
X93244579Y-79535214D01*
X93698657Y-79347592D01*
X93891504Y-79155082D01*
X94112954Y-79376919D01*
X94493223Y-79534820D01*
X94904971Y-79535179D01*
X95285515Y-79377942D01*
X95576919Y-79087046D01*
X95734820Y-78706777D01*
X95735179Y-78295029D01*
X95577942Y-77914485D01*
X95287046Y-77623081D01*
X94906777Y-77465180D01*
X94495029Y-77464821D01*
X94114485Y-77622058D01*
X94073186Y-77663285D01*
X94047592Y-77601343D01*
X93700485Y-77253629D01*
X93246734Y-77065215D01*
X92755421Y-77064786D01*
X92301343Y-77252408D01*
X91953629Y-77599515D01*
X91765215Y-78053266D01*
X91764786Y-78544579D01*
X91408158Y-78544579D01*
X91187046Y-78323081D01*
X91012783Y-78250721D01*
X91276919Y-77987046D01*
X91434820Y-77606777D01*
X91435179Y-77195029D01*
X91277942Y-76814485D01*
X90987046Y-76523081D01*
X90606777Y-76365180D01*
X90195029Y-76364821D01*
X89814485Y-76522058D01*
X89523081Y-76812954D01*
X89365180Y-77193223D01*
X89364821Y-77604971D01*
X85834821Y-77604971D01*
X85835179Y-77195029D01*
X85677942Y-76814485D01*
X85387046Y-76523081D01*
X85006777Y-76365180D01*
X84595029Y-76364821D01*
X84214485Y-76522058D01*
X83923081Y-76812954D01*
X83765180Y-77193223D01*
X83764821Y-77604971D01*
X79934821Y-77604971D01*
X79935179Y-77195029D01*
X79777942Y-76814485D01*
X79487046Y-76523081D01*
X79106777Y-76365180D01*
X78695029Y-76364821D01*
X78314485Y-76522058D01*
X78023081Y-76812954D01*
X77865180Y-77193223D01*
X77864821Y-77604971D01*
X74552522Y-77604971D01*
X74634820Y-77406777D01*
X74635179Y-76995029D01*
X74477942Y-76614485D01*
X74187046Y-76323081D01*
X73806777Y-76165180D01*
X73395029Y-76164821D01*
X73014485Y-76322058D01*
X72723081Y-76612954D01*
X72565180Y-76993223D01*
X72564821Y-77404971D01*
X29656649Y-77404971D01*
X29577942Y-77214485D01*
X29287046Y-76923081D01*
X28906777Y-76765180D01*
X28495029Y-76764821D01*
X28127000Y-76916887D01*
X28127000Y-76127000D01*
X47000000Y-76127000D01*
X47049410Y-76116994D01*
X47091035Y-76088553D01*
X47118315Y-76046159D01*
X47127000Y-76000000D01*
X47127000Y-75004971D01*
X59364821Y-75004971D01*
X59522058Y-75385515D01*
X59812954Y-75676919D01*
X60193223Y-75834820D01*
X60604971Y-75835179D01*
X60985515Y-75677942D01*
X61276919Y-75387046D01*
X61434820Y-75006777D01*
X61435179Y-74595029D01*
X61277942Y-74214485D01*
X61168619Y-74104971D01*
X62564821Y-74104971D01*
X62722058Y-74485515D01*
X63012954Y-74776919D01*
X63393223Y-74934820D01*
X63804971Y-74935179D01*
X63887218Y-74901195D01*
X63922058Y-74985515D01*
X64212954Y-75276919D01*
X64593223Y-75434820D01*
X65004971Y-75435179D01*
X65385515Y-75277942D01*
X65676919Y-74987046D01*
X65741933Y-74830475D01*
X65993223Y-74934820D01*
X66404971Y-74935179D01*
X66785515Y-74777942D01*
X67064826Y-74499118D01*
X67064821Y-74504971D01*
X67222058Y-74885515D01*
X67512954Y-75176919D01*
X67893223Y-75334820D01*
X68304971Y-75335179D01*
X68685515Y-75177942D01*
X68976919Y-74887046D01*
X69134820Y-74506777D01*
X69134821Y-74504971D01*
X75414821Y-74504971D01*
X75572058Y-74885515D01*
X75862954Y-75176919D01*
X76243223Y-75334820D01*
X76654971Y-75335179D01*
X77035515Y-75177942D01*
X77326919Y-74887046D01*
X77484820Y-74506777D01*
X77485179Y-74095029D01*
X77327942Y-73714485D01*
X77037046Y-73423081D01*
X76656777Y-73265180D01*
X76245029Y-73264821D01*
X75864485Y-73422058D01*
X75573081Y-73712954D01*
X75415180Y-74093223D01*
X75414821Y-74504971D01*
X69134821Y-74504971D01*
X69135179Y-74095029D01*
X68977942Y-73714485D01*
X68687046Y-73423081D01*
X68306777Y-73265180D01*
X67895029Y-73264821D01*
X67514485Y-73422058D01*
X67235174Y-73700882D01*
X67235179Y-73695029D01*
X67077942Y-73314485D01*
X66787046Y-73023081D01*
X66406777Y-72865180D01*
X65995029Y-72864821D01*
X65614485Y-73022058D01*
X65323081Y-73312954D01*
X65258067Y-73469525D01*
X65006777Y-73365180D01*
X64595029Y-73364821D01*
X64512782Y-73398805D01*
X64477942Y-73314485D01*
X64187046Y-73023081D01*
X63806777Y-72865180D01*
X63395029Y-72864821D01*
X63014485Y-73022058D01*
X62723081Y-73312954D01*
X62565180Y-73693223D01*
X62564821Y-74104971D01*
X61168619Y-74104971D01*
X60987046Y-73923081D01*
X60606777Y-73765180D01*
X60195029Y-73764821D01*
X59814485Y-73922058D01*
X59523081Y-74212954D01*
X59365180Y-74593223D01*
X59364821Y-75004971D01*
X47127000Y-75004971D01*
X47127000Y-70333893D01*
X49358725Y-70333893D01*
X49599519Y-70916657D01*
X50044997Y-71362914D01*
X50627341Y-71604724D01*
X51257893Y-71605275D01*
X51840657Y-71364481D01*
X52214261Y-70991529D01*
X52584997Y-71362914D01*
X53167341Y-71604724D01*
X53797893Y-71605275D01*
X54380657Y-71364481D01*
X54754261Y-70991529D01*
X55124997Y-71362914D01*
X55707341Y-71604724D01*
X56337893Y-71605275D01*
X56920657Y-71364481D01*
X57294261Y-70991529D01*
X57664997Y-71362914D01*
X58247341Y-71604724D01*
X58877893Y-71605275D01*
X59460657Y-71364481D01*
X59834261Y-70991529D01*
X60204997Y-71362914D01*
X60787341Y-71604724D01*
X61417893Y-71605275D01*
X62000657Y-71364481D01*
X62374261Y-70991529D01*
X62744997Y-71362914D01*
X63327341Y-71604724D01*
X63957893Y-71605275D01*
X64540657Y-71364481D01*
X64914261Y-70991529D01*
X65284997Y-71362914D01*
X65867341Y-71604724D01*
X66497893Y-71605275D01*
X67080657Y-71364481D01*
X67454261Y-70991529D01*
X67824997Y-71362914D01*
X68407341Y-71604724D01*
X69037893Y-71605275D01*
X69620657Y-71364481D01*
X69994261Y-70991529D01*
X70364997Y-71362914D01*
X70947341Y-71604724D01*
X71577893Y-71605275D01*
X72160657Y-71364481D01*
X72534261Y-70991529D01*
X72904997Y-71362914D01*
X73487341Y-71604724D01*
X74117893Y-71605275D01*
X74700657Y-71364481D01*
X75074261Y-70991529D01*
X75444997Y-71362914D01*
X76027341Y-71604724D01*
X76657893Y-71605275D01*
X77240657Y-71364481D01*
X77614261Y-70991529D01*
X77984997Y-71362914D01*
X78567341Y-71604724D01*
X79197893Y-71605275D01*
X79780657Y-71364481D01*
X80154261Y-70991529D01*
X80524997Y-71362914D01*
X81107341Y-71604724D01*
X81737893Y-71605275D01*
X82320657Y-71364481D01*
X82694261Y-70991529D01*
X83064997Y-71362914D01*
X83424160Y-71512051D01*
X83323081Y-71612954D01*
X83165180Y-71993223D01*
X83164821Y-72404971D01*
X83230882Y-72564852D01*
X83195029Y-72564821D01*
X82814485Y-72722058D01*
X82523081Y-73012954D01*
X82365180Y-73393223D01*
X82364821Y-73804971D01*
X82522058Y-74185515D01*
X82812954Y-74476919D01*
X83193223Y-74634820D01*
X83604971Y-74635179D01*
X83683195Y-74602858D01*
X83673081Y-74612954D01*
X83515180Y-74993223D01*
X83514821Y-75404971D01*
X83672058Y-75785515D01*
X83962954Y-76076919D01*
X84343223Y-76234820D01*
X84754971Y-76235179D01*
X85135515Y-76077942D01*
X85426919Y-75787046D01*
X85584820Y-75406777D01*
X85585179Y-74995029D01*
X85547968Y-74904971D01*
X86564821Y-74904971D01*
X86722058Y-75285515D01*
X87012954Y-75576919D01*
X87393223Y-75734820D01*
X87804971Y-75735179D01*
X88185515Y-75577942D01*
X88199770Y-75563712D01*
X88212954Y-75576919D01*
X88593223Y-75734820D01*
X89004971Y-75735179D01*
X89385515Y-75577942D01*
X89676919Y-75287046D01*
X89834820Y-74906777D01*
X89835179Y-74495029D01*
X89677942Y-74114485D01*
X89387457Y-73823492D01*
X89715515Y-73687942D01*
X90006919Y-73397046D01*
X90164820Y-73016777D01*
X90165179Y-72605029D01*
X90007942Y-72224485D01*
X89717046Y-71933081D01*
X89336777Y-71775180D01*
X88925029Y-71774821D01*
X88544485Y-71932058D01*
X88253081Y-72222954D01*
X88095180Y-72603223D01*
X88094821Y-73014971D01*
X88252058Y-73395515D01*
X88542543Y-73686508D01*
X88214485Y-73822058D01*
X88200230Y-73836288D01*
X88187046Y-73823081D01*
X87806777Y-73665180D01*
X87395029Y-73664821D01*
X87014485Y-73822058D01*
X86723081Y-74112954D01*
X86565180Y-74493223D01*
X86564821Y-74904971D01*
X85547968Y-74904971D01*
X85427942Y-74614485D01*
X85137046Y-74323081D01*
X84756777Y-74165180D01*
X84345029Y-74164821D01*
X84266805Y-74197142D01*
X84276919Y-74187046D01*
X84434820Y-73806777D01*
X84435179Y-73395029D01*
X84369118Y-73235148D01*
X84404971Y-73235179D01*
X84785515Y-73077942D01*
X85076919Y-72787046D01*
X85234820Y-72406777D01*
X85235179Y-71995029D01*
X85077942Y-71614485D01*
X84837801Y-71373925D01*
X84860657Y-71364481D01*
X85306914Y-70919003D01*
X85548724Y-70336659D01*
X85549275Y-69706107D01*
X85308481Y-69123343D01*
X84863003Y-68677086D01*
X84280659Y-68435276D01*
X83650107Y-68434725D01*
X83067343Y-68675519D01*
X82693739Y-69048471D01*
X82323003Y-68677086D01*
X81740659Y-68435276D01*
X81528616Y-68435091D01*
X81676919Y-68287046D01*
X81794046Y-68004971D01*
X84964821Y-68004971D01*
X85122058Y-68385515D01*
X85412954Y-68676919D01*
X85793223Y-68834820D01*
X86204971Y-68835179D01*
X86278080Y-68804971D01*
X87064821Y-68804971D01*
X87222058Y-69185515D01*
X87512954Y-69476919D01*
X87893223Y-69634820D01*
X88138880Y-69635034D01*
X87965215Y-70053266D01*
X87964786Y-70544579D01*
X88152408Y-70998657D01*
X88499515Y-71346371D01*
X88953266Y-71534785D01*
X89444579Y-71535214D01*
X89898657Y-71347592D01*
X90246371Y-71000485D01*
X90434785Y-70546734D01*
X90435214Y-70055421D01*
X90247592Y-69601343D01*
X89900485Y-69253629D01*
X89446734Y-69065215D01*
X89027659Y-69064849D01*
X89134820Y-68806777D01*
X89135089Y-68498568D01*
X89412954Y-68776919D01*
X89793223Y-68934820D01*
X90204971Y-68935179D01*
X90585515Y-68777942D01*
X90876919Y-68487046D01*
X91034820Y-68106777D01*
X91035179Y-67695029D01*
X90877942Y-67314485D01*
X90608507Y-67044579D01*
X92264786Y-67044579D01*
X92452408Y-67498657D01*
X92799515Y-67846371D01*
X93253266Y-68034785D01*
X93744579Y-68035214D01*
X94198657Y-67847592D01*
X94546371Y-67500485D01*
X94734785Y-67046734D01*
X94735214Y-66555421D01*
X94547592Y-66101343D01*
X94200485Y-65753629D01*
X93746734Y-65565215D01*
X93255421Y-65564786D01*
X92801343Y-65752408D01*
X92453629Y-66099515D01*
X92265215Y-66553266D01*
X92264786Y-67044579D01*
X90608507Y-67044579D01*
X90587046Y-67023081D01*
X90206777Y-66865180D01*
X89795029Y-66864821D01*
X89414485Y-67022058D01*
X89123081Y-67312954D01*
X88965180Y-67693223D01*
X88964911Y-68001432D01*
X88687046Y-67723081D01*
X88306777Y-67565180D01*
X87895029Y-67564821D01*
X87514485Y-67722058D01*
X87223081Y-68012954D01*
X87065180Y-68393223D01*
X87064821Y-68804971D01*
X86278080Y-68804971D01*
X86585515Y-68677942D01*
X86876919Y-68387046D01*
X87034820Y-68006777D01*
X87035179Y-67595029D01*
X86877942Y-67214485D01*
X86587046Y-66923081D01*
X86206777Y-66765180D01*
X85795029Y-66764821D01*
X85414485Y-66922058D01*
X85123081Y-67212954D01*
X84965180Y-67593223D01*
X84964821Y-68004971D01*
X81794046Y-68004971D01*
X81834820Y-67906777D01*
X81835179Y-67495029D01*
X81677942Y-67114485D01*
X81387046Y-66823081D01*
X81006777Y-66665180D01*
X80595029Y-66664821D01*
X80214485Y-66822058D01*
X79923081Y-67112954D01*
X79765180Y-67493223D01*
X79764821Y-67904971D01*
X79922058Y-68285515D01*
X80212954Y-68576919D01*
X80504743Y-68698080D01*
X80153739Y-69048471D01*
X79783003Y-68677086D01*
X79220272Y-68443420D01*
X79376919Y-68287046D01*
X79534820Y-67906777D01*
X79535179Y-67495029D01*
X79377942Y-67114485D01*
X79087046Y-66823081D01*
X78706777Y-66665180D01*
X78295029Y-66664821D01*
X77914485Y-66822058D01*
X77623081Y-67112954D01*
X77465180Y-67493223D01*
X77464821Y-67904971D01*
X77622058Y-68285515D01*
X77912954Y-68576919D01*
X78069077Y-68641747D01*
X77987343Y-68675519D01*
X77613739Y-69048471D01*
X77243003Y-68677086D01*
X76774435Y-68482520D01*
X76785515Y-68477942D01*
X77076919Y-68187046D01*
X77234820Y-67806777D01*
X77235179Y-67395029D01*
X77077942Y-67014485D01*
X76787046Y-66723081D01*
X76406777Y-66565180D01*
X75995029Y-66564821D01*
X75614485Y-66722058D01*
X75607790Y-66728742D01*
X75477942Y-66414485D01*
X75187046Y-66123081D01*
X74806777Y-65965180D01*
X74395029Y-65964821D01*
X74014485Y-66122058D01*
X73723081Y-66412954D01*
X73565180Y-66793223D01*
X73564821Y-67204971D01*
X73722058Y-67585515D01*
X74012954Y-67876919D01*
X74393223Y-68034820D01*
X74804971Y-68035179D01*
X75185515Y-67877942D01*
X75192210Y-67871258D01*
X75322058Y-68185515D01*
X75612954Y-68476919D01*
X75770084Y-68542165D01*
X75447343Y-68675519D01*
X75073739Y-69048471D01*
X74703003Y-68677086D01*
X74120659Y-68435276D01*
X73490107Y-68434725D01*
X72907343Y-68675519D01*
X72533739Y-69048471D01*
X72163003Y-68677086D01*
X71580659Y-68435276D01*
X70950107Y-68434725D01*
X70367343Y-68675519D01*
X69993739Y-69048471D01*
X69623003Y-68677086D01*
X69040659Y-68435276D01*
X68410107Y-68434725D01*
X67827343Y-68675519D01*
X67453739Y-69048471D01*
X67083003Y-68677086D01*
X66500659Y-68435276D01*
X65870107Y-68434725D01*
X65287343Y-68675519D01*
X64913739Y-69048471D01*
X64543003Y-68677086D01*
X63960659Y-68435276D01*
X63330107Y-68434725D01*
X62747343Y-68675519D01*
X62373739Y-69048471D01*
X62003003Y-68677086D01*
X61420659Y-68435276D01*
X60790107Y-68434725D01*
X60207343Y-68675519D01*
X59833739Y-69048471D01*
X59463003Y-68677086D01*
X58880659Y-68435276D01*
X58250107Y-68434725D01*
X57667343Y-68675519D01*
X57293739Y-69048471D01*
X56923003Y-68677086D01*
X56340659Y-68435276D01*
X55710107Y-68434725D01*
X55127343Y-68675519D01*
X54753739Y-69048471D01*
X54383003Y-68677086D01*
X53800659Y-68435276D01*
X53170107Y-68434725D01*
X52587343Y-68675519D01*
X52213739Y-69048471D01*
X51843003Y-68677086D01*
X51260659Y-68435276D01*
X50630107Y-68434725D01*
X50047343Y-68675519D01*
X49601086Y-69120997D01*
X49359276Y-69703341D01*
X49358725Y-70333893D01*
X47127000Y-70333893D01*
X47127000Y-65127000D01*
X76000000Y-65127000D01*
X76049410Y-65116994D01*
X76091035Y-65088553D01*
X76118315Y-65046159D01*
X76127000Y-65000000D01*
X76127000Y-63704971D01*
X80364821Y-63704971D01*
X80522058Y-64085515D01*
X80812954Y-64376919D01*
X81193223Y-64534820D01*
X81604971Y-64535179D01*
X81985515Y-64377942D01*
X82276919Y-64087046D01*
X82434820Y-63706777D01*
X82435048Y-63444579D01*
X87864786Y-63444579D01*
X88052408Y-63898657D01*
X88399515Y-64246371D01*
X88853266Y-64434785D01*
X89344579Y-64435214D01*
X89798657Y-64247592D01*
X90146371Y-63900485D01*
X90334785Y-63446734D01*
X90335214Y-62955421D01*
X90147592Y-62501343D01*
X89800485Y-62153629D01*
X89346734Y-61965215D01*
X88855421Y-61964786D01*
X88401343Y-62152408D01*
X88053629Y-62499515D01*
X87865215Y-62953266D01*
X87864786Y-63444579D01*
X82435048Y-63444579D01*
X82435179Y-63295029D01*
X82277942Y-62914485D01*
X81987046Y-62623081D01*
X81606777Y-62465180D01*
X81195029Y-62464821D01*
X80814485Y-62622058D01*
X80523081Y-62912954D01*
X80365180Y-63293223D01*
X80364821Y-63704971D01*
X76127000Y-63704971D01*
X76127000Y-59504971D01*
X96564821Y-59504971D01*
X96722058Y-59885515D01*
X97012954Y-60176919D01*
X97393223Y-60334820D01*
X97804971Y-60335179D01*
X98185515Y-60177942D01*
X98476919Y-59887046D01*
X98634820Y-59506777D01*
X98635179Y-59095029D01*
X98477942Y-58714485D01*
X98187046Y-58423081D01*
X97806777Y-58265180D01*
X97395029Y-58264821D01*
X97014485Y-58422058D01*
X96723081Y-58712954D01*
X96565180Y-59093223D01*
X96564821Y-59504971D01*
X76127000Y-59504971D01*
X76127000Y-58354971D01*
X82964821Y-58354971D01*
X83122058Y-58735515D01*
X83412954Y-59026919D01*
X83793223Y-59184820D01*
X84204971Y-59185179D01*
X84585515Y-59027942D01*
X84876919Y-58737046D01*
X85034820Y-58356777D01*
X85035179Y-57945029D01*
X84877942Y-57564485D01*
X84587046Y-57273081D01*
X84206777Y-57115180D01*
X83795029Y-57114821D01*
X83414485Y-57272058D01*
X83123081Y-57562954D01*
X82965180Y-57943223D01*
X82964821Y-58354971D01*
X76127000Y-58354971D01*
X76127000Y-57435024D01*
X76304971Y-57435179D01*
X76685515Y-57277942D01*
X76900032Y-57063799D01*
X77012954Y-57176919D01*
X77393223Y-57334820D01*
X77804971Y-57335179D01*
X78185515Y-57177942D01*
X78476919Y-56887046D01*
X78634820Y-56506777D01*
X78634944Y-56364783D01*
X79064943Y-56365159D01*
X79064821Y-56504971D01*
X79222058Y-56885515D01*
X79512954Y-57176919D01*
X79893223Y-57334820D01*
X80304971Y-57335179D01*
X80685515Y-57177942D01*
X80976919Y-56887046D01*
X81134820Y-56506777D01*
X81134944Y-56364748D01*
X81664943Y-56365211D01*
X81664821Y-56504971D01*
X81822058Y-56885515D01*
X82112954Y-57176919D01*
X82493223Y-57334820D01*
X82904971Y-57335179D01*
X83285515Y-57177942D01*
X83576919Y-56887046D01*
X83734820Y-56506777D01*
X83734944Y-56364801D01*
X84277893Y-56365275D01*
X84860657Y-56124481D01*
X85306914Y-55679003D01*
X85548724Y-55096659D01*
X85549275Y-54466107D01*
X85308481Y-53883343D01*
X84863003Y-53437086D01*
X84280659Y-53195276D01*
X83650107Y-53194725D01*
X83067343Y-53435519D01*
X82693739Y-53808471D01*
X82323003Y-53437086D01*
X81740659Y-53195276D01*
X81110107Y-53194725D01*
X80527343Y-53435519D01*
X80153739Y-53808471D01*
X79783003Y-53437086D01*
X79200659Y-53195276D01*
X78570107Y-53194725D01*
X77987343Y-53435519D01*
X77613739Y-53808471D01*
X77243003Y-53437086D01*
X76660659Y-53195276D01*
X76127000Y-53194810D01*
X76127000Y-50200000D01*
X76116994Y-50150590D01*
X76088553Y-50108965D01*
X76046159Y-50081685D01*
X76000000Y-50073000D01*
X74000000Y-50073000D01*
X73950590Y-50083006D01*
X73908965Y-50111447D01*
X73881685Y-50153841D01*
X73873000Y-50200000D01*
X73873000Y-53195060D01*
X73490107Y-53194725D01*
X72907343Y-53435519D01*
X72533739Y-53808471D01*
X72163003Y-53437086D01*
X71580659Y-53195276D01*
X70950107Y-53194725D01*
X70367343Y-53435519D01*
X69993739Y-53808471D01*
X69623003Y-53437086D01*
X69040659Y-53195276D01*
X68410107Y-53194725D01*
X67827343Y-53435519D01*
X67453739Y-53808471D01*
X67083003Y-53437086D01*
X66500659Y-53195276D01*
X65870107Y-53194725D01*
X65491885Y-53351004D01*
X65634820Y-53006777D01*
X65635179Y-52595029D01*
X65477942Y-52214485D01*
X65187046Y-51923081D01*
X64806777Y-51765180D01*
X64395029Y-51764821D01*
X64014485Y-51922058D01*
X63723081Y-52212954D01*
X63565180Y-52593223D01*
X63564821Y-53004971D01*
X63643339Y-53194999D01*
X63330107Y-53194725D01*
X62747343Y-53435519D01*
X62373739Y-53808471D01*
X62003003Y-53437086D01*
X61420659Y-53195276D01*
X60790107Y-53194725D01*
X60207343Y-53435519D01*
X59833739Y-53808471D01*
X59463003Y-53437086D01*
X58880659Y-53195276D01*
X58250107Y-53194725D01*
X57667343Y-53435519D01*
X57293739Y-53808471D01*
X56923003Y-53437086D01*
X56340659Y-53195276D01*
X55710107Y-53194725D01*
X55127343Y-53435519D01*
X54753739Y-53808471D01*
X54383003Y-53437086D01*
X53800659Y-53195276D01*
X53170107Y-53194725D01*
X52587343Y-53435519D01*
X52213739Y-53808471D01*
X51843003Y-53437086D01*
X51260659Y-53195276D01*
X50630107Y-53194725D01*
X50047343Y-53435519D01*
X49601086Y-53880997D01*
X49359276Y-54463341D01*
X49358725Y-55093893D01*
X49599519Y-55676657D01*
X50044997Y-56122914D01*
X50627341Y-56364724D01*
X51257893Y-56365275D01*
X51840657Y-56124481D01*
X52214261Y-55751529D01*
X52584997Y-56122914D01*
X53167341Y-56364724D01*
X53797893Y-56365275D01*
X54380657Y-56124481D01*
X54754261Y-55751529D01*
X55124997Y-56122914D01*
X55707341Y-56364724D01*
X56337893Y-56365275D01*
X56920657Y-56124481D01*
X57294261Y-55751529D01*
X57592471Y-56050261D01*
X57221086Y-56420997D01*
X56979276Y-57003341D01*
X56978725Y-57633893D01*
X57219519Y-58216657D01*
X57664997Y-58662914D01*
X58247341Y-58904724D01*
X58877893Y-58905275D01*
X59460657Y-58664481D01*
X59834261Y-58291529D01*
X60204997Y-58662914D01*
X60787341Y-58904724D01*
X61417893Y-58905275D01*
X62000657Y-58664481D01*
X62374261Y-58291529D01*
X62744997Y-58662914D01*
X63327341Y-58904724D01*
X63957893Y-58905275D01*
X64540657Y-58664481D01*
X64986914Y-58219003D01*
X65228724Y-57636659D01*
X65229275Y-57006107D01*
X64988481Y-56423343D01*
X64615529Y-56049739D01*
X64914261Y-55751529D01*
X65284997Y-56122914D01*
X65867341Y-56364724D01*
X66497893Y-56365275D01*
X67080657Y-56124481D01*
X67454261Y-55751529D01*
X67824997Y-56122914D01*
X68407341Y-56364724D01*
X69037893Y-56365275D01*
X69620657Y-56124481D01*
X69994261Y-55751529D01*
X70364997Y-56122914D01*
X70947341Y-56364724D01*
X71577893Y-56365275D01*
X71965170Y-56205255D01*
X71964821Y-56604971D01*
X72122058Y-56985515D01*
X72412954Y-57276919D01*
X72793223Y-57434820D01*
X73204971Y-57435179D01*
X73585515Y-57277942D01*
X73850206Y-57013712D01*
X73873000Y-57036546D01*
X73873000Y-62873000D01*
X45000000Y-62873000D01*
X44950590Y-62883006D01*
X44908965Y-62911447D01*
X44881685Y-62953841D01*
X44873000Y-63000000D01*
X44873000Y-73973000D01*
X28127000Y-73973000D01*
X28127000Y-66112619D01*
X28268234Y-66084526D01*
X28653233Y-65827278D01*
X28616887Y-66010000D01*
X28726120Y-66559151D01*
X29037189Y-67024698D01*
X29419275Y-67280000D01*
X29037189Y-67535302D01*
X28726120Y-68000849D01*
X28616887Y-68550000D01*
X28726120Y-69099151D01*
X29037189Y-69564698D01*
X29419275Y-69820000D01*
X29037189Y-70075302D01*
X28726120Y-70540849D01*
X28616887Y-71090000D01*
X28726120Y-71639151D01*
X29037189Y-72104698D01*
X29502736Y-72415767D01*
X30051887Y-72525000D01*
X30108113Y-72525000D01*
X30657264Y-72415767D01*
X31122811Y-72104698D01*
X31433880Y-71639151D01*
X31543113Y-71090000D01*
X31433880Y-70540849D01*
X31122811Y-70075302D01*
X30740725Y-69820000D01*
X31122811Y-69564698D01*
X31433880Y-69099151D01*
X31543113Y-68550000D01*
X31433880Y-68000849D01*
X31122811Y-67535302D01*
X30740725Y-67280000D01*
X31122811Y-67024698D01*
X31433880Y-66559151D01*
X31543113Y-66010000D01*
X31433880Y-65460849D01*
X31122811Y-64995302D01*
X30740725Y-64740000D01*
X31122811Y-64484698D01*
X31433880Y-64019151D01*
X31543113Y-63470000D01*
X31433880Y-62920849D01*
X31122811Y-62455302D01*
X30740725Y-62200000D01*
X31122811Y-61944698D01*
X31433880Y-61479151D01*
X31543113Y-60930000D01*
X31518244Y-60804971D01*
X34964821Y-60804971D01*
X35122058Y-61185515D01*
X35412954Y-61476919D01*
X35793223Y-61634820D01*
X36204971Y-61635179D01*
X36397281Y-61555718D01*
X36657189Y-61944698D01*
X37061703Y-62214986D01*
X36844866Y-62317611D01*
X36468959Y-62732577D01*
X36308096Y-63120961D01*
X36430085Y-63343000D01*
X37573000Y-63343000D01*
X37573000Y-63323000D01*
X37827000Y-63323000D01*
X37827000Y-63343000D01*
X38969915Y-63343000D01*
X39018316Y-63254903D01*
X39280366Y-63430000D01*
X38986166Y-63626579D01*
X38969915Y-63597000D01*
X37827000Y-63597000D01*
X37827000Y-63617000D01*
X37573000Y-63617000D01*
X37573000Y-63597000D01*
X36430085Y-63597000D01*
X36308096Y-63819039D01*
X36468959Y-64207423D01*
X36844866Y-64622389D01*
X37061703Y-64725014D01*
X36657189Y-64995302D01*
X36346120Y-65460849D01*
X36236887Y-66010000D01*
X36346120Y-66559151D01*
X36657189Y-67024698D01*
X37039275Y-67280000D01*
X36657189Y-67535302D01*
X36346120Y-68000849D01*
X36236887Y-68550000D01*
X36346120Y-69099151D01*
X36657189Y-69564698D01*
X37039275Y-69820000D01*
X36657189Y-70075302D01*
X36346120Y-70540849D01*
X36236887Y-71090000D01*
X36346120Y-71639151D01*
X36657189Y-72104698D01*
X37122736Y-72415767D01*
X37671887Y-72525000D01*
X37728113Y-72525000D01*
X38277264Y-72415767D01*
X38742811Y-72104698D01*
X39053880Y-71639151D01*
X39163113Y-71090000D01*
X39053880Y-70540849D01*
X38742811Y-70075302D01*
X38360725Y-69820000D01*
X38742811Y-69564698D01*
X39053880Y-69099151D01*
X39163113Y-68550000D01*
X39053880Y-68000849D01*
X38742811Y-67535302D01*
X38360725Y-67280000D01*
X38742811Y-67024698D01*
X39053880Y-66559151D01*
X39163113Y-66010000D01*
X39135964Y-65873514D01*
X39451766Y-66084526D01*
X40025255Y-66198600D01*
X40394745Y-66198600D01*
X40968234Y-66084526D01*
X41454415Y-65759670D01*
X41779271Y-65273489D01*
X41893345Y-64700000D01*
X41779271Y-64126511D01*
X41454415Y-63640330D01*
X41139634Y-63430000D01*
X41454415Y-63219670D01*
X41779271Y-62733489D01*
X41893345Y-62160000D01*
X41802835Y-61704971D01*
X44964821Y-61704971D01*
X45122058Y-62085515D01*
X45412954Y-62376919D01*
X45793223Y-62534820D01*
X46204971Y-62535179D01*
X46585515Y-62377942D01*
X46876919Y-62087046D01*
X47034820Y-61706777D01*
X47034908Y-61604971D01*
X67664821Y-61604971D01*
X67822058Y-61985515D01*
X68112954Y-62276919D01*
X68493223Y-62434820D01*
X68904971Y-62435179D01*
X69285515Y-62277942D01*
X69576919Y-61987046D01*
X69734820Y-61606777D01*
X69735179Y-61195029D01*
X69577942Y-60814485D01*
X69287046Y-60523081D01*
X68906777Y-60365180D01*
X68495029Y-60364821D01*
X68114485Y-60522058D01*
X67823081Y-60812954D01*
X67665180Y-61193223D01*
X67664821Y-61604971D01*
X47034908Y-61604971D01*
X47035179Y-61295029D01*
X46877942Y-60914485D01*
X46587046Y-60623081D01*
X46206777Y-60465180D01*
X45795029Y-60464821D01*
X45414485Y-60622058D01*
X45123081Y-60912954D01*
X44965180Y-61293223D01*
X44964821Y-61704971D01*
X41802835Y-61704971D01*
X41779271Y-61586511D01*
X41611223Y-61335010D01*
X41804971Y-61335179D01*
X42185515Y-61177942D01*
X42476919Y-60887046D01*
X42634820Y-60506777D01*
X42635179Y-60095029D01*
X42477942Y-59714485D01*
X42413625Y-59650056D01*
X42576919Y-59487046D01*
X42734820Y-59106777D01*
X42735179Y-58695029D01*
X42577942Y-58314485D01*
X42287046Y-58023081D01*
X41906777Y-57865180D01*
X41873440Y-57865151D01*
X41873440Y-57504971D01*
X42364821Y-57504971D01*
X42522058Y-57885515D01*
X42812954Y-58176919D01*
X43193223Y-58334820D01*
X43364969Y-58334970D01*
X43364821Y-58504971D01*
X43522058Y-58885515D01*
X43812954Y-59176919D01*
X44193223Y-59334820D01*
X44604971Y-59335179D01*
X44985515Y-59177942D01*
X45276919Y-58887046D01*
X45434820Y-58506777D01*
X45435179Y-58095029D01*
X45277942Y-57714485D01*
X44987046Y-57423081D01*
X44606777Y-57265180D01*
X44435031Y-57265030D01*
X44435179Y-57095029D01*
X44277942Y-56714485D01*
X43987046Y-56423081D01*
X43606777Y-56265180D01*
X43195029Y-56264821D01*
X42814485Y-56422058D01*
X42523081Y-56712954D01*
X42365180Y-57093223D01*
X42364821Y-57504971D01*
X41873440Y-57504971D01*
X41873440Y-56216400D01*
X41829162Y-55981083D01*
X41690090Y-55764959D01*
X41477890Y-55619969D01*
X41226000Y-55568960D01*
X40584429Y-55568960D01*
X40734820Y-55206777D01*
X40735179Y-54795029D01*
X40577942Y-54414485D01*
X40287046Y-54123081D01*
X39906777Y-53965180D01*
X39495029Y-53964821D01*
X39114485Y-54122058D01*
X38823081Y-54412954D01*
X38668363Y-54785557D01*
X38277264Y-54524233D01*
X37728113Y-54415000D01*
X37671887Y-54415000D01*
X37122736Y-54524233D01*
X36657189Y-54835302D01*
X36346120Y-55300849D01*
X36236887Y-55850000D01*
X36346120Y-56399151D01*
X36657189Y-56864698D01*
X37039275Y-57120000D01*
X36657189Y-57375302D01*
X36346120Y-57840849D01*
X36236887Y-58390000D01*
X36346120Y-58939151D01*
X36657189Y-59404698D01*
X37039275Y-59660000D01*
X36730219Y-59866505D01*
X36587046Y-59723081D01*
X36206777Y-59565180D01*
X35795029Y-59564821D01*
X35414485Y-59722058D01*
X35123081Y-60012954D01*
X34965180Y-60393223D01*
X34964821Y-60804971D01*
X31518244Y-60804971D01*
X31433880Y-60380849D01*
X31122811Y-59915302D01*
X30740725Y-59660000D01*
X31122811Y-59404698D01*
X31433880Y-58939151D01*
X31543113Y-58390000D01*
X31433880Y-57840849D01*
X31122811Y-57375302D01*
X30740725Y-57120000D01*
X31122811Y-56864698D01*
X31433880Y-56399151D01*
X31543113Y-55850000D01*
X31433880Y-55300849D01*
X31122811Y-54835302D01*
X30657264Y-54524233D01*
X30108113Y-54415000D01*
X30051887Y-54415000D01*
X29502736Y-54524233D01*
X29037189Y-54835302D01*
X28726120Y-55300849D01*
X28668944Y-55588291D01*
X28652309Y-55581400D01*
X28127000Y-55581400D01*
X28127000Y-51254971D01*
X31264821Y-51254971D01*
X31422058Y-51635515D01*
X31712954Y-51926919D01*
X32093223Y-52084820D01*
X32504971Y-52085179D01*
X32885515Y-51927942D01*
X33176919Y-51637046D01*
X33314808Y-51304971D01*
X61564821Y-51304971D01*
X61722058Y-51685515D01*
X62012954Y-51976919D01*
X62393223Y-52134820D01*
X62804971Y-52135179D01*
X63185515Y-51977942D01*
X63476919Y-51687046D01*
X63510999Y-51604971D01*
X68564821Y-51604971D01*
X68722058Y-51985515D01*
X69012954Y-52276919D01*
X69393223Y-52434820D01*
X69804971Y-52435179D01*
X70185515Y-52277942D01*
X70249857Y-52213712D01*
X70312954Y-52276919D01*
X70693223Y-52434820D01*
X71104971Y-52435179D01*
X71485515Y-52277942D01*
X71776919Y-51987046D01*
X71934820Y-51606777D01*
X71935179Y-51195029D01*
X71777942Y-50814485D01*
X71668619Y-50704971D01*
X71764821Y-50704971D01*
X71922058Y-51085515D01*
X72212954Y-51376919D01*
X72593223Y-51534820D01*
X73004971Y-51535179D01*
X73385515Y-51377942D01*
X73676919Y-51087046D01*
X73834820Y-50706777D01*
X73835179Y-50295029D01*
X73677942Y-49914485D01*
X73387046Y-49623081D01*
X73006777Y-49465180D01*
X72595029Y-49464821D01*
X72214485Y-49622058D01*
X71923081Y-49912954D01*
X71765180Y-50293223D01*
X71764821Y-50704971D01*
X71668619Y-50704971D01*
X71487046Y-50523081D01*
X71106777Y-50365180D01*
X70695029Y-50364821D01*
X70314485Y-50522058D01*
X70250143Y-50586288D01*
X70187046Y-50523081D01*
X69806777Y-50365180D01*
X69395029Y-50364821D01*
X69014485Y-50522058D01*
X68723081Y-50812954D01*
X68565180Y-51193223D01*
X68564821Y-51604971D01*
X63510999Y-51604971D01*
X63634820Y-51306777D01*
X63635179Y-50895029D01*
X63477942Y-50514485D01*
X63187046Y-50223081D01*
X62806777Y-50065180D01*
X62395029Y-50064821D01*
X62014485Y-50222058D01*
X61723081Y-50512954D01*
X61565180Y-50893223D01*
X61564821Y-51304971D01*
X33314808Y-51304971D01*
X33334820Y-51256777D01*
X33335179Y-50845029D01*
X33177942Y-50464485D01*
X32887046Y-50173081D01*
X32506777Y-50015180D01*
X32095029Y-50014821D01*
X31714485Y-50172058D01*
X31423081Y-50462954D01*
X31265180Y-50843223D01*
X31264821Y-51254971D01*
X28127000Y-51254971D01*
X28127000Y-47627000D01*
X71144544Y-47627000D01*
X70914485Y-47722058D01*
X70623081Y-48012954D01*
X70465180Y-48393223D01*
X70464821Y-48804971D01*
X70622058Y-49185515D01*
X70912954Y-49476919D01*
X71293223Y-49634820D01*
X71704971Y-49635179D01*
X72085515Y-49477942D01*
X72376919Y-49187046D01*
X72427226Y-49065892D01*
X72593223Y-49134820D01*
X73004971Y-49135179D01*
X73078080Y-49104971D01*
X80264821Y-49104971D01*
X80422058Y-49485515D01*
X80712954Y-49776919D01*
X81093223Y-49934820D01*
X81504971Y-49935179D01*
X81885515Y-49777942D01*
X82176919Y-49487046D01*
X82334820Y-49106777D01*
X82335179Y-48695029D01*
X82177942Y-48314485D01*
X81887046Y-48023081D01*
X81506777Y-47865180D01*
X81095029Y-47864821D01*
X80714485Y-48022058D01*
X80423081Y-48312954D01*
X80265180Y-48693223D01*
X80264821Y-49104971D01*
X73078080Y-49104971D01*
X73385515Y-48977942D01*
X73676919Y-48687046D01*
X73834820Y-48306777D01*
X73835179Y-47895029D01*
X73724432Y-47627000D01*
X73973000Y-47627000D01*
X73973000Y-47700000D01*
X73983006Y-47749410D01*
X74011447Y-47791035D01*
X74053841Y-47818315D01*
X74100000Y-47827000D01*
X76000000Y-47827000D01*
X76049410Y-47816994D01*
X76091035Y-47788553D01*
X76118315Y-47746159D01*
X76127000Y-47700000D01*
X76127000Y-44804971D01*
X90764821Y-44804971D01*
X90922058Y-45185515D01*
X91212954Y-45476919D01*
X91593223Y-45634820D01*
X91964969Y-45635144D01*
X91964821Y-45804971D01*
X92122058Y-46185515D01*
X92412954Y-46476919D01*
X92793223Y-46634820D01*
X93204971Y-46635179D01*
X93585515Y-46477942D01*
X93876919Y-46187046D01*
X94034820Y-45806777D01*
X94035179Y-45395029D01*
X93913170Y-45099744D01*
X94034820Y-44806777D01*
X94035179Y-44395029D01*
X93877942Y-44014485D01*
X93587046Y-43723081D01*
X93206777Y-43565180D01*
X92795029Y-43564821D01*
X92414485Y-43722058D01*
X92400230Y-43736288D01*
X92387046Y-43723081D01*
X92006777Y-43565180D01*
X91595029Y-43564821D01*
X91214485Y-43722058D01*
X90923081Y-44012954D01*
X90765180Y-44393223D01*
X90764821Y-44804971D01*
X76127000Y-44804971D01*
X76127000Y-43685000D01*
X82964926Y-43685000D01*
X82964821Y-43804971D01*
X83122058Y-44185515D01*
X83412954Y-44476919D01*
X83793223Y-44634820D01*
X84204971Y-44635179D01*
X84585515Y-44477942D01*
X84876919Y-44187046D01*
X85034820Y-43806777D01*
X85035179Y-43395029D01*
X84924432Y-43127000D01*
X85575725Y-43127000D01*
X85465180Y-43393223D01*
X85465180Y-43393223D01*
G37*
X85465180Y-43393223D02*
X85464821Y-43804971D01*
X85622058Y-44185515D01*
X85912954Y-44476919D01*
X86293223Y-44634820D01*
X86704971Y-44635179D01*
X87085515Y-44477942D01*
X87376919Y-44187046D01*
X87534820Y-43806777D01*
X87535179Y-43395029D01*
X87424432Y-43127000D01*
X104373000Y-43127000D01*
X104373000Y-48726271D01*
X104300485Y-48653629D01*
X103846734Y-48465215D01*
X103355421Y-48464786D01*
X102901343Y-48652408D01*
X102680365Y-48873000D01*
X97807322Y-48873000D01*
X97834820Y-48806777D01*
X97835179Y-48395029D01*
X97677942Y-48014485D01*
X97387046Y-47723081D01*
X97006777Y-47565180D01*
X96595029Y-47564821D01*
X96406606Y-47642675D01*
X96387046Y-47623081D01*
X96006777Y-47465180D01*
X95595029Y-47464821D01*
X95214485Y-47622058D01*
X94923081Y-47912954D01*
X94802647Y-48202992D01*
X94514485Y-48322058D01*
X94223081Y-48612954D01*
X94115101Y-48873000D01*
X87000000Y-48873000D01*
X86950590Y-48883006D01*
X86908965Y-48911447D01*
X86881685Y-48953841D01*
X86873000Y-49000000D01*
X86873000Y-55000000D01*
X86883006Y-55049410D01*
X86911447Y-55091035D01*
X86953841Y-55118315D01*
X87000000Y-55127000D01*
X99873000Y-55127000D01*
X99873000Y-56658205D01*
X99787046Y-56572101D01*
X99406777Y-56414200D01*
X98995029Y-56413841D01*
X98614485Y-56571078D01*
X98323081Y-56861974D01*
X98165180Y-57242243D01*
X98164821Y-57653991D01*
X98322058Y-58034535D01*
X98612954Y-58325939D01*
X98993223Y-58483840D01*
X99252369Y-58484066D01*
X99023081Y-58712954D01*
X98865180Y-59093223D01*
X98864821Y-59504971D01*
X99022058Y-59885515D01*
X99045673Y-59909171D01*
X99014485Y-59922058D01*
X98723081Y-60212954D01*
X98565180Y-60593223D01*
X98564821Y-61004971D01*
X98722058Y-61385515D01*
X99012954Y-61676919D01*
X99393223Y-61834820D01*
X99804971Y-61835179D01*
X99873000Y-61807070D01*
X99873000Y-69409534D01*
X99587046Y-69123081D01*
X99206777Y-68965180D01*
X98795029Y-68964821D01*
X98414485Y-69122058D01*
X98123081Y-69412954D01*
X97992070Y-69728463D01*
X97787046Y-69523081D01*
X97406777Y-69365180D01*
X96995029Y-69364821D01*
X96614485Y-69522058D01*
X96323081Y-69812954D01*
X96165180Y-70193223D01*
X96164821Y-70604971D01*
X96322058Y-70985515D01*
X96612954Y-71276919D01*
X96993223Y-71434820D01*
X97404971Y-71435179D01*
X97785515Y-71277942D01*
X98076919Y-70987046D01*
X98207930Y-70671537D01*
X98412954Y-70876919D01*
X98565052Y-70940075D01*
X98564786Y-71244579D01*
X98752408Y-71698657D01*
X99099515Y-72046371D01*
X99553266Y-72234785D01*
X99873000Y-72235064D01*
X99873000Y-82134288D01*
X99728046Y-81989081D01*
X99347777Y-81831180D01*
X98936029Y-81830821D01*
X98555485Y-81988058D01*
X98264081Y-82278954D01*
X98106180Y-82659223D01*
X98105821Y-83070971D01*
X98263058Y-83451515D01*
X98553954Y-83742919D01*
X98934223Y-83900820D01*
X99345971Y-83901179D01*
X99726515Y-83743942D01*
X99873000Y-83597712D01*
X99873000Y-85873000D01*
X87000000Y-85873000D01*
X86950590Y-85883006D01*
X86908965Y-85911447D01*
X86881685Y-85953841D01*
X86873000Y-86000000D01*
X86873000Y-97594331D01*
X86380857Y-97692225D01*
X85899208Y-98014052D01*
X85679000Y-98343617D01*
X85458792Y-98014052D01*
X84977143Y-97692225D01*
X84409000Y-97579214D01*
X83840857Y-97692225D01*
X83359208Y-98014052D01*
X83139000Y-98343617D01*
X82918792Y-98014052D01*
X82437143Y-97692225D01*
X81869000Y-97579214D01*
X81300857Y-97692225D01*
X80819208Y-98014052D01*
X80497381Y-98495701D01*
X80384370Y-99063844D01*
X80384370Y-99873000D01*
X32512001Y-99873000D01*
X32584299Y-99858619D01*
X33065948Y-99536792D01*
X33387775Y-99055143D01*
X33500786Y-98487000D01*
X33459204Y-98277951D01*
X41463821Y-98277951D01*
X41621058Y-98658495D01*
X41911954Y-98949899D01*
X42292223Y-99107800D01*
X42703971Y-99108159D01*
X43084515Y-98950922D01*
X43375919Y-98660026D01*
X43533820Y-98279757D01*
X43534179Y-97868009D01*
X43376942Y-97487465D01*
X43086046Y-97196061D01*
X42705777Y-97038160D01*
X42294029Y-97037801D01*
X41913485Y-97195038D01*
X41622081Y-97485934D01*
X41464180Y-97866203D01*
X41463821Y-98277951D01*
X33459204Y-98277951D01*
X33387775Y-97918857D01*
X33065948Y-97437208D01*
X32736383Y-97217000D01*
X33065948Y-96996792D01*
X33387775Y-96515143D01*
X33500786Y-95947000D01*
X33422807Y-95554971D01*
X58664821Y-95554971D01*
X58822058Y-95935515D01*
X59112954Y-96226919D01*
X59493223Y-96384820D01*
X59904971Y-96385179D01*
X60285515Y-96227942D01*
X60312335Y-96201168D01*
X60387954Y-96276919D01*
X60768223Y-96434820D01*
X61179971Y-96435179D01*
X61560515Y-96277942D01*
X61612335Y-96226212D01*
X61662954Y-96276919D01*
X62043223Y-96434820D01*
X62454971Y-96435179D01*
X62835515Y-96277942D01*
X63126919Y-95987046D01*
X63284820Y-95606777D01*
X63285179Y-95195029D01*
X63127942Y-94814485D01*
X62837046Y-94523081D01*
X62456777Y-94365180D01*
X62045029Y-94364821D01*
X61664485Y-94522058D01*
X61612665Y-94573788D01*
X61562046Y-94523081D01*
X61181777Y-94365180D01*
X60770029Y-94364821D01*
X60389485Y-94522058D01*
X60362665Y-94548832D01*
X60287046Y-94473081D01*
X59906777Y-94315180D01*
X59495029Y-94314821D01*
X59114485Y-94472058D01*
X58823081Y-94762954D01*
X58665180Y-95143223D01*
X58664821Y-95554971D01*
X33422807Y-95554971D01*
X33387775Y-95378857D01*
X33065948Y-94897208D01*
X32736383Y-94677000D01*
X33065948Y-94456792D01*
X33387775Y-93975143D01*
X33421624Y-93804971D01*
X64264821Y-93804971D01*
X64422058Y-94185515D01*
X64712954Y-94476919D01*
X65093223Y-94634820D01*
X65504971Y-94635179D01*
X65885515Y-94477942D01*
X66176919Y-94187046D01*
X66334820Y-93806777D01*
X66335100Y-93484971D01*
X83119821Y-93484971D01*
X83277058Y-93865515D01*
X83567954Y-94156919D01*
X83948223Y-94314820D01*
X84359971Y-94315179D01*
X84740515Y-94157942D01*
X85031919Y-93867046D01*
X85189820Y-93486777D01*
X85190179Y-93075029D01*
X85032942Y-92694485D01*
X84742046Y-92403081D01*
X84361777Y-92245180D01*
X83950029Y-92244821D01*
X83569485Y-92402058D01*
X83278081Y-92692954D01*
X83120180Y-93073223D01*
X83119821Y-93484971D01*
X66335100Y-93484971D01*
X66335179Y-93395029D01*
X66177942Y-93014485D01*
X65887046Y-92723081D01*
X65506777Y-92565180D01*
X65095029Y-92564821D01*
X64714485Y-92722058D01*
X64423081Y-93012954D01*
X64265180Y-93393223D01*
X64264821Y-93804971D01*
X33421624Y-93804971D01*
X33500786Y-93407000D01*
X33387775Y-92838857D01*
X33164680Y-92504971D01*
X61064821Y-92504971D01*
X61222058Y-92885515D01*
X61512954Y-93176919D01*
X61893223Y-93334820D01*
X62304971Y-93335179D01*
X62685515Y-93177942D01*
X62976919Y-92887046D01*
X63134820Y-92506777D01*
X63135179Y-92095029D01*
X62977942Y-91714485D01*
X62687046Y-91423081D01*
X62306777Y-91265180D01*
X61895029Y-91264821D01*
X61514485Y-91422058D01*
X61223081Y-91712954D01*
X61065180Y-92093223D01*
X61064821Y-92504971D01*
X33164680Y-92504971D01*
X33065948Y-92357208D01*
X32584299Y-92035381D01*
X32016156Y-91922370D01*
X30121844Y-91922370D01*
X29553701Y-92035381D01*
X29072052Y-92357208D01*
X28750225Y-92838857D01*
X28637214Y-93407000D01*
X28750225Y-93975143D01*
X29072052Y-94456792D01*
X29401617Y-94677000D01*
X29072052Y-94897208D01*
X28750225Y-95378857D01*
X28651934Y-95873000D01*
X28127000Y-95873000D01*
X28127000Y-89928971D01*
X30795821Y-89928971D01*
X30953058Y-90309515D01*
X31243954Y-90600919D01*
X31624223Y-90758820D01*
X32035971Y-90759179D01*
X32416515Y-90601942D01*
X32707919Y-90311046D01*
X32865820Y-89930777D01*
X32866179Y-89519029D01*
X32708942Y-89138485D01*
X32418046Y-88847081D01*
X32037777Y-88689180D01*
X31626029Y-88688821D01*
X31245485Y-88846058D01*
X30954081Y-89136954D01*
X30796180Y-89517223D01*
X30795821Y-89928971D01*
X28127000Y-89928971D01*
X28127000Y-86887495D01*
X28427946Y-86587073D01*
X28677306Y-85986547D01*
X28677308Y-85983694D01*
X30409586Y-85983694D01*
X30657898Y-86584655D01*
X31117287Y-87044846D01*
X31717813Y-87294206D01*
X32368054Y-87294774D01*
X32969015Y-87046462D01*
X33429206Y-86587073D01*
X33678566Y-85986547D01*
X33679134Y-85336306D01*
X33430822Y-84735345D01*
X32971433Y-84275154D01*
X32370907Y-84025794D01*
X31720666Y-84025226D01*
X31119705Y-84273538D01*
X30659514Y-84732927D01*
X30410154Y-85333453D01*
X30409586Y-85983694D01*
X28677308Y-85983694D01*
X28677874Y-85336306D01*
X28429562Y-84735345D01*
X28127000Y-84432255D01*
X28127000Y-82104000D01*
X33971214Y-82104000D01*
X34084225Y-82672143D01*
X34406052Y-83153792D01*
X34735617Y-83374000D01*
X34406052Y-83594208D01*
X34084225Y-84075857D01*
X33971214Y-84644000D01*
X34084225Y-85212143D01*
X34406052Y-85693792D01*
X34735617Y-85914000D01*
X34406052Y-86134208D01*
X34084225Y-86615857D01*
X33971214Y-87184000D01*
X34084225Y-87752143D01*
X34406052Y-88233792D01*
X34887701Y-88555619D01*
X35455844Y-88668630D01*
X36166136Y-88668630D01*
X36130180Y-88755223D01*
X36129821Y-89166971D01*
X36287058Y-89547515D01*
X36577954Y-89838919D01*
X36958223Y-89996820D01*
X37369971Y-89997179D01*
X37746553Y-89841579D01*
X41263786Y-89841579D01*
X41451408Y-90295657D01*
X41798515Y-90643371D01*
X42252266Y-90831785D01*
X42743579Y-90832214D01*
X43197657Y-90644592D01*
X43545371Y-90297485D01*
X43733785Y-89843734D01*
X43733786Y-89841579D01*
X45327786Y-89841579D01*
X45515408Y-90295657D01*
X45862515Y-90643371D01*
X46316266Y-90831785D01*
X46807579Y-90832214D01*
X47261657Y-90644592D01*
X47609371Y-90297485D01*
X47797785Y-89843734D01*
X47798214Y-89352421D01*
X47737289Y-89204971D01*
X71464821Y-89204971D01*
X71622058Y-89585515D01*
X71912954Y-89876919D01*
X72293223Y-90034820D01*
X72704971Y-90035179D01*
X73085515Y-89877942D01*
X73376919Y-89587046D01*
X73534820Y-89206777D01*
X73535170Y-88804971D01*
X79764821Y-88804971D01*
X79922058Y-89185515D01*
X80212954Y-89476919D01*
X80580096Y-89629369D01*
X80579821Y-89944971D01*
X80737058Y-90325515D01*
X81027954Y-90616919D01*
X81408223Y-90774820D01*
X81819971Y-90775179D01*
X82200515Y-90617942D01*
X82491919Y-90327046D01*
X82649820Y-89946777D01*
X82650179Y-89535029D01*
X82492942Y-89154485D01*
X82202046Y-88863081D01*
X81834904Y-88710631D01*
X81835179Y-88395029D01*
X81677942Y-88014485D01*
X81387046Y-87723081D01*
X81006777Y-87565180D01*
X80595029Y-87564821D01*
X80214485Y-87722058D01*
X79923081Y-88012954D01*
X79765180Y-88393223D01*
X79764821Y-88804971D01*
X73535170Y-88804971D01*
X73535179Y-88795029D01*
X73377942Y-88414485D01*
X73087046Y-88123081D01*
X72706777Y-87965180D01*
X72295029Y-87964821D01*
X71914485Y-88122058D01*
X71623081Y-88412954D01*
X71465180Y-88793223D01*
X71464821Y-89204971D01*
X47737289Y-89204971D01*
X47610592Y-88898343D01*
X47263485Y-88550629D01*
X46809734Y-88362215D01*
X46318421Y-88361786D01*
X45864343Y-88549408D01*
X45516629Y-88896515D01*
X45328215Y-89350266D01*
X45327786Y-89841579D01*
X43733786Y-89841579D01*
X43734214Y-89352421D01*
X43546592Y-88898343D01*
X43199485Y-88550629D01*
X42745734Y-88362215D01*
X42254421Y-88361786D01*
X41800343Y-88549408D01*
X41452629Y-88896515D01*
X41264215Y-89350266D01*
X41263786Y-89841579D01*
X37746553Y-89841579D01*
X37750515Y-89839942D01*
X38041919Y-89549046D01*
X38199820Y-89168777D01*
X38200179Y-88757029D01*
X38073978Y-88451598D01*
X38399948Y-88233792D01*
X38721775Y-87752143D01*
X38834786Y-87184000D01*
X38721775Y-86615857D01*
X38399948Y-86134208D01*
X38070383Y-85914000D01*
X38399948Y-85693792D01*
X38721775Y-85212143D01*
X38834786Y-84644000D01*
X38721775Y-84075857D01*
X38440549Y-83654971D01*
X67964821Y-83654971D01*
X68122058Y-84035515D01*
X68412954Y-84326919D01*
X68793223Y-84484820D01*
X69204971Y-84485179D01*
X69585515Y-84327942D01*
X69876919Y-84037046D01*
X69908923Y-83959971D01*
X74229821Y-83959971D01*
X74387058Y-84340515D01*
X74499788Y-84453442D01*
X74388081Y-84564954D01*
X74230180Y-84945223D01*
X74229821Y-85356971D01*
X74387058Y-85737515D01*
X74677954Y-86028919D01*
X75058223Y-86186820D01*
X75469971Y-86187179D01*
X75850515Y-86029942D01*
X75963442Y-85917212D01*
X76074954Y-86028919D01*
X76455223Y-86186820D01*
X76866971Y-86187179D01*
X77247515Y-86029942D01*
X77424053Y-85853712D01*
X77598954Y-86028919D01*
X77979223Y-86186820D01*
X78390971Y-86187179D01*
X78771515Y-86029942D01*
X79062919Y-85739046D01*
X79220820Y-85358777D01*
X79221179Y-84947029D01*
X79063942Y-84566485D01*
X78951212Y-84453558D01*
X79062919Y-84342046D01*
X79220820Y-83961777D01*
X79221179Y-83550029D01*
X79189779Y-83474034D01*
X79276919Y-83387046D01*
X79434820Y-83006777D01*
X79435179Y-82595029D01*
X79277942Y-82214485D01*
X79013101Y-81949182D01*
X79185515Y-81877942D01*
X79476919Y-81587046D01*
X79634820Y-81206777D01*
X79635179Y-80795029D01*
X79477942Y-80414485D01*
X79457200Y-80393707D01*
X79534820Y-80206777D01*
X79535179Y-79795029D01*
X79377942Y-79414485D01*
X79087046Y-79123081D01*
X78706777Y-78965180D01*
X78295029Y-78964821D01*
X77914485Y-79122058D01*
X77623081Y-79412954D01*
X77465180Y-79793223D01*
X77464821Y-80204971D01*
X77622058Y-80585515D01*
X77642800Y-80606293D01*
X77565180Y-80793223D01*
X77564821Y-81204971D01*
X77722058Y-81585515D01*
X77986899Y-81850818D01*
X77814485Y-81922058D01*
X77523081Y-82212954D01*
X77365180Y-82593223D01*
X77364831Y-82994068D01*
X77249046Y-82878081D01*
X76868777Y-82720180D01*
X76457029Y-82719821D01*
X76076485Y-82877058D01*
X75963558Y-82989788D01*
X75852046Y-82878081D01*
X75471777Y-82720180D01*
X75060029Y-82719821D01*
X74679485Y-82877058D01*
X74388081Y-83167954D01*
X74230180Y-83548223D01*
X74229821Y-83959971D01*
X69908923Y-83959971D01*
X70034820Y-83656777D01*
X70035179Y-83245029D01*
X69877942Y-82864485D01*
X69587046Y-82573081D01*
X69206777Y-82415180D01*
X68795029Y-82414821D01*
X68414485Y-82572058D01*
X68123081Y-82862954D01*
X67965180Y-83243223D01*
X67964821Y-83654971D01*
X38440549Y-83654971D01*
X38399948Y-83594208D01*
X38070383Y-83374000D01*
X38399948Y-83153792D01*
X38721775Y-82672143D01*
X38834786Y-82104000D01*
X38721775Y-81535857D01*
X38399948Y-81054208D01*
X37918299Y-80732381D01*
X37350156Y-80619370D01*
X35455844Y-80619370D01*
X34887701Y-80732381D01*
X34406052Y-81054208D01*
X34084225Y-81535857D01*
X33971214Y-82104000D01*
X28127000Y-82104000D01*
X28127000Y-81354440D01*
X28630600Y-81354440D01*
X28865917Y-81310162D01*
X29082041Y-81171090D01*
X29227031Y-80958890D01*
X29235400Y-80917561D01*
X29247330Y-80935415D01*
X29733511Y-81260271D01*
X30307000Y-81374345D01*
X30880489Y-81260271D01*
X31366670Y-80935415D01*
X31577000Y-80620634D01*
X31787330Y-80935415D01*
X32273511Y-81260271D01*
X32847000Y-81374345D01*
X33420489Y-81260271D01*
X33906670Y-80935415D01*
X34231526Y-80449234D01*
X34345600Y-79875745D01*
X34345600Y-79506255D01*
X34305563Y-79304971D01*
X57764821Y-79304971D01*
X57886830Y-79600256D01*
X57765180Y-79893223D01*
X57764821Y-80304971D01*
X57922058Y-80685515D01*
X58212954Y-80976919D01*
X58593223Y-81134820D01*
X59004971Y-81135179D01*
X59078080Y-81104971D01*
X63864821Y-81104971D01*
X64022058Y-81485515D01*
X64312954Y-81776919D01*
X64693223Y-81934820D01*
X65104971Y-81935179D01*
X65485515Y-81777942D01*
X65776919Y-81487046D01*
X65934820Y-81106777D01*
X65935170Y-80704971D01*
X66964821Y-80704971D01*
X67122058Y-81085515D01*
X67412954Y-81376919D01*
X67793223Y-81534820D01*
X68204971Y-81535179D01*
X68585515Y-81377942D01*
X68876919Y-81087046D01*
X69034820Y-80706777D01*
X69035179Y-80295029D01*
X68959774Y-80112535D01*
X69220099Y-80004971D01*
X70164821Y-80004971D01*
X70322058Y-80385515D01*
X70612954Y-80676919D01*
X70993223Y-80834820D01*
X71404971Y-80835179D01*
X71785515Y-80677942D01*
X72076919Y-80387046D01*
X72234820Y-80006777D01*
X72235179Y-79595029D01*
X72077942Y-79214485D01*
X71787046Y-78923081D01*
X71406777Y-78765180D01*
X70995029Y-78764821D01*
X70614485Y-78922058D01*
X70323081Y-79212954D01*
X70165180Y-79593223D01*
X70164821Y-80004971D01*
X69220099Y-80004971D01*
X69285515Y-79977942D01*
X69576919Y-79687046D01*
X69734820Y-79306777D01*
X69735179Y-78895029D01*
X69577942Y-78514485D01*
X69287046Y-78223081D01*
X68906777Y-78065180D01*
X68495029Y-78064821D01*
X68114485Y-78222058D01*
X67823081Y-78512954D01*
X67665180Y-78893223D01*
X67664821Y-79304971D01*
X67740226Y-79487465D01*
X67414485Y-79622058D01*
X67123081Y-79912954D01*
X66965180Y-80293223D01*
X66964821Y-80704971D01*
X65935170Y-80704971D01*
X65935179Y-80695029D01*
X65777942Y-80314485D01*
X65487046Y-80023081D01*
X65106777Y-79865180D01*
X64695029Y-79864821D01*
X64314485Y-80022058D01*
X64023081Y-80312954D01*
X63865180Y-80693223D01*
X63864821Y-81104971D01*
X59078080Y-81104971D01*
X59385515Y-80977942D01*
X59676919Y-80687046D01*
X59834820Y-80306777D01*
X59835179Y-79895029D01*
X59713170Y-79599744D01*
X59834820Y-79306777D01*
X59835179Y-78895029D01*
X59677942Y-78514485D01*
X59387046Y-78223081D01*
X59006777Y-78065180D01*
X58595029Y-78064821D01*
X58214485Y-78222058D01*
X57923081Y-78512954D01*
X57765180Y-78893223D01*
X57764821Y-79304971D01*
X34305563Y-79304971D01*
X34231526Y-78932766D01*
X33906670Y-78446585D01*
X33420489Y-78121729D01*
X32847000Y-78007655D01*
X32273511Y-78121729D01*
X31787330Y-78446585D01*
X31577000Y-78761366D01*
X31366670Y-78446585D01*
X30880489Y-78121729D01*
X30307000Y-78007655D01*
X29733511Y-78121729D01*
X29669262Y-78164659D01*
X29734820Y-78006777D01*
X29735179Y-77595029D01*
X29656649Y-77404971D01*
X72564821Y-77404971D01*
X72722058Y-77785515D01*
X73012954Y-78076919D01*
X73393223Y-78234820D01*
X73804971Y-78235179D01*
X74185515Y-78077942D01*
X74476919Y-77787046D01*
X74552522Y-77604971D01*
X77864821Y-77604971D01*
X78022058Y-77985515D01*
X78312954Y-78276919D01*
X78693223Y-78434820D01*
X79104971Y-78435179D01*
X79485515Y-78277942D01*
X79776919Y-77987046D01*
X79934820Y-77606777D01*
X79934821Y-77604971D01*
X83764821Y-77604971D01*
X83922058Y-77985515D01*
X84212954Y-78276919D01*
X84593223Y-78434820D01*
X85004971Y-78435179D01*
X85385515Y-78277942D01*
X85676919Y-77987046D01*
X85834820Y-77606777D01*
X85834821Y-77604971D01*
X89364821Y-77604971D01*
X89522058Y-77985515D01*
X89812954Y-78276919D01*
X89987217Y-78349279D01*
X89723081Y-78612954D01*
X89565180Y-78993223D01*
X89564821Y-79404971D01*
X89722058Y-79785515D01*
X90012954Y-80076919D01*
X90393223Y-80234820D01*
X90804971Y-80235179D01*
X91185515Y-80077942D01*
X91476919Y-79787046D01*
X91634820Y-79406777D01*
X91635179Y-78995029D01*
X91477942Y-78614485D01*
X91408158Y-78544579D01*
X91764786Y-78544579D01*
X91952408Y-78998657D01*
X92299515Y-79346371D01*
X92753266Y-79534785D01*
X93244579Y-79535214D01*
X93698657Y-79347592D01*
X93891504Y-79155082D01*
X94112954Y-79376919D01*
X94493223Y-79534820D01*
X94904971Y-79535179D01*
X95285515Y-79377942D01*
X95576919Y-79087046D01*
X95734820Y-78706777D01*
X95735179Y-78295029D01*
X95577942Y-77914485D01*
X95287046Y-77623081D01*
X94906777Y-77465180D01*
X94495029Y-77464821D01*
X94114485Y-77622058D01*
X94073186Y-77663285D01*
X94047592Y-77601343D01*
X93700485Y-77253629D01*
X93246734Y-77065215D01*
X92755421Y-77064786D01*
X92301343Y-77252408D01*
X91953629Y-77599515D01*
X91765215Y-78053266D01*
X91764786Y-78544579D01*
X91408158Y-78544579D01*
X91187046Y-78323081D01*
X91012783Y-78250721D01*
X91276919Y-77987046D01*
X91434820Y-77606777D01*
X91435179Y-77195029D01*
X91277942Y-76814485D01*
X90987046Y-76523081D01*
X90606777Y-76365180D01*
X90195029Y-76364821D01*
X89814485Y-76522058D01*
X89523081Y-76812954D01*
X89365180Y-77193223D01*
X89364821Y-77604971D01*
X85834821Y-77604971D01*
X85835179Y-77195029D01*
X85677942Y-76814485D01*
X85387046Y-76523081D01*
X85006777Y-76365180D01*
X84595029Y-76364821D01*
X84214485Y-76522058D01*
X83923081Y-76812954D01*
X83765180Y-77193223D01*
X83764821Y-77604971D01*
X79934821Y-77604971D01*
X79935179Y-77195029D01*
X79777942Y-76814485D01*
X79487046Y-76523081D01*
X79106777Y-76365180D01*
X78695029Y-76364821D01*
X78314485Y-76522058D01*
X78023081Y-76812954D01*
X77865180Y-77193223D01*
X77864821Y-77604971D01*
X74552522Y-77604971D01*
X74634820Y-77406777D01*
X74635179Y-76995029D01*
X74477942Y-76614485D01*
X74187046Y-76323081D01*
X73806777Y-76165180D01*
X73395029Y-76164821D01*
X73014485Y-76322058D01*
X72723081Y-76612954D01*
X72565180Y-76993223D01*
X72564821Y-77404971D01*
X29656649Y-77404971D01*
X29577942Y-77214485D01*
X29287046Y-76923081D01*
X28906777Y-76765180D01*
X28495029Y-76764821D01*
X28127000Y-76916887D01*
X28127000Y-76127000D01*
X47000000Y-76127000D01*
X47049410Y-76116994D01*
X47091035Y-76088553D01*
X47118315Y-76046159D01*
X47127000Y-76000000D01*
X47127000Y-75004971D01*
X59364821Y-75004971D01*
X59522058Y-75385515D01*
X59812954Y-75676919D01*
X60193223Y-75834820D01*
X60604971Y-75835179D01*
X60985515Y-75677942D01*
X61276919Y-75387046D01*
X61434820Y-75006777D01*
X61435179Y-74595029D01*
X61277942Y-74214485D01*
X61168619Y-74104971D01*
X62564821Y-74104971D01*
X62722058Y-74485515D01*
X63012954Y-74776919D01*
X63393223Y-74934820D01*
X63804971Y-74935179D01*
X63887218Y-74901195D01*
X63922058Y-74985515D01*
X64212954Y-75276919D01*
X64593223Y-75434820D01*
X65004971Y-75435179D01*
X65385515Y-75277942D01*
X65676919Y-74987046D01*
X65741933Y-74830475D01*
X65993223Y-74934820D01*
X66404971Y-74935179D01*
X66785515Y-74777942D01*
X67064826Y-74499118D01*
X67064821Y-74504971D01*
X67222058Y-74885515D01*
X67512954Y-75176919D01*
X67893223Y-75334820D01*
X68304971Y-75335179D01*
X68685515Y-75177942D01*
X68976919Y-74887046D01*
X69134820Y-74506777D01*
X69134821Y-74504971D01*
X75414821Y-74504971D01*
X75572058Y-74885515D01*
X75862954Y-75176919D01*
X76243223Y-75334820D01*
X76654971Y-75335179D01*
X77035515Y-75177942D01*
X77326919Y-74887046D01*
X77484820Y-74506777D01*
X77485179Y-74095029D01*
X77327942Y-73714485D01*
X77037046Y-73423081D01*
X76656777Y-73265180D01*
X76245029Y-73264821D01*
X75864485Y-73422058D01*
X75573081Y-73712954D01*
X75415180Y-74093223D01*
X75414821Y-74504971D01*
X69134821Y-74504971D01*
X69135179Y-74095029D01*
X68977942Y-73714485D01*
X68687046Y-73423081D01*
X68306777Y-73265180D01*
X67895029Y-73264821D01*
X67514485Y-73422058D01*
X67235174Y-73700882D01*
X67235179Y-73695029D01*
X67077942Y-73314485D01*
X66787046Y-73023081D01*
X66406777Y-72865180D01*
X65995029Y-72864821D01*
X65614485Y-73022058D01*
X65323081Y-73312954D01*
X65258067Y-73469525D01*
X65006777Y-73365180D01*
X64595029Y-73364821D01*
X64512782Y-73398805D01*
X64477942Y-73314485D01*
X64187046Y-73023081D01*
X63806777Y-72865180D01*
X63395029Y-72864821D01*
X63014485Y-73022058D01*
X62723081Y-73312954D01*
X62565180Y-73693223D01*
X62564821Y-74104971D01*
X61168619Y-74104971D01*
X60987046Y-73923081D01*
X60606777Y-73765180D01*
X60195029Y-73764821D01*
X59814485Y-73922058D01*
X59523081Y-74212954D01*
X59365180Y-74593223D01*
X59364821Y-75004971D01*
X47127000Y-75004971D01*
X47127000Y-70333893D01*
X49358725Y-70333893D01*
X49599519Y-70916657D01*
X50044997Y-71362914D01*
X50627341Y-71604724D01*
X51257893Y-71605275D01*
X51840657Y-71364481D01*
X52214261Y-70991529D01*
X52584997Y-71362914D01*
X53167341Y-71604724D01*
X53797893Y-71605275D01*
X54380657Y-71364481D01*
X54754261Y-70991529D01*
X55124997Y-71362914D01*
X55707341Y-71604724D01*
X56337893Y-71605275D01*
X56920657Y-71364481D01*
X57294261Y-70991529D01*
X57664997Y-71362914D01*
X58247341Y-71604724D01*
X58877893Y-71605275D01*
X59460657Y-71364481D01*
X59834261Y-70991529D01*
X60204997Y-71362914D01*
X60787341Y-71604724D01*
X61417893Y-71605275D01*
X62000657Y-71364481D01*
X62374261Y-70991529D01*
X62744997Y-71362914D01*
X63327341Y-71604724D01*
X63957893Y-71605275D01*
X64540657Y-71364481D01*
X64914261Y-70991529D01*
X65284997Y-71362914D01*
X65867341Y-71604724D01*
X66497893Y-71605275D01*
X67080657Y-71364481D01*
X67454261Y-70991529D01*
X67824997Y-71362914D01*
X68407341Y-71604724D01*
X69037893Y-71605275D01*
X69620657Y-71364481D01*
X69994261Y-70991529D01*
X70364997Y-71362914D01*
X70947341Y-71604724D01*
X71577893Y-71605275D01*
X72160657Y-71364481D01*
X72534261Y-70991529D01*
X72904997Y-71362914D01*
X73487341Y-71604724D01*
X74117893Y-71605275D01*
X74700657Y-71364481D01*
X75074261Y-70991529D01*
X75444997Y-71362914D01*
X76027341Y-71604724D01*
X76657893Y-71605275D01*
X77240657Y-71364481D01*
X77614261Y-70991529D01*
X77984997Y-71362914D01*
X78567341Y-71604724D01*
X79197893Y-71605275D01*
X79780657Y-71364481D01*
X80154261Y-70991529D01*
X80524997Y-71362914D01*
X81107341Y-71604724D01*
X81737893Y-71605275D01*
X82320657Y-71364481D01*
X82694261Y-70991529D01*
X83064997Y-71362914D01*
X83424160Y-71512051D01*
X83323081Y-71612954D01*
X83165180Y-71993223D01*
X83164821Y-72404971D01*
X83230882Y-72564852D01*
X83195029Y-72564821D01*
X82814485Y-72722058D01*
X82523081Y-73012954D01*
X82365180Y-73393223D01*
X82364821Y-73804971D01*
X82522058Y-74185515D01*
X82812954Y-74476919D01*
X83193223Y-74634820D01*
X83604971Y-74635179D01*
X83683195Y-74602858D01*
X83673081Y-74612954D01*
X83515180Y-74993223D01*
X83514821Y-75404971D01*
X83672058Y-75785515D01*
X83962954Y-76076919D01*
X84343223Y-76234820D01*
X84754971Y-76235179D01*
X85135515Y-76077942D01*
X85426919Y-75787046D01*
X85584820Y-75406777D01*
X85585179Y-74995029D01*
X85547968Y-74904971D01*
X86564821Y-74904971D01*
X86722058Y-75285515D01*
X87012954Y-75576919D01*
X87393223Y-75734820D01*
X87804971Y-75735179D01*
X88185515Y-75577942D01*
X88199770Y-75563712D01*
X88212954Y-75576919D01*
X88593223Y-75734820D01*
X89004971Y-75735179D01*
X89385515Y-75577942D01*
X89676919Y-75287046D01*
X89834820Y-74906777D01*
X89835179Y-74495029D01*
X89677942Y-74114485D01*
X89387457Y-73823492D01*
X89715515Y-73687942D01*
X90006919Y-73397046D01*
X90164820Y-73016777D01*
X90165179Y-72605029D01*
X90007942Y-72224485D01*
X89717046Y-71933081D01*
X89336777Y-71775180D01*
X88925029Y-71774821D01*
X88544485Y-71932058D01*
X88253081Y-72222954D01*
X88095180Y-72603223D01*
X88094821Y-73014971D01*
X88252058Y-73395515D01*
X88542543Y-73686508D01*
X88214485Y-73822058D01*
X88200230Y-73836288D01*
X88187046Y-73823081D01*
X87806777Y-73665180D01*
X87395029Y-73664821D01*
X87014485Y-73822058D01*
X86723081Y-74112954D01*
X86565180Y-74493223D01*
X86564821Y-74904971D01*
X85547968Y-74904971D01*
X85427942Y-74614485D01*
X85137046Y-74323081D01*
X84756777Y-74165180D01*
X84345029Y-74164821D01*
X84266805Y-74197142D01*
X84276919Y-74187046D01*
X84434820Y-73806777D01*
X84435179Y-73395029D01*
X84369118Y-73235148D01*
X84404971Y-73235179D01*
X84785515Y-73077942D01*
X85076919Y-72787046D01*
X85234820Y-72406777D01*
X85235179Y-71995029D01*
X85077942Y-71614485D01*
X84837801Y-71373925D01*
X84860657Y-71364481D01*
X85306914Y-70919003D01*
X85548724Y-70336659D01*
X85549275Y-69706107D01*
X85308481Y-69123343D01*
X84863003Y-68677086D01*
X84280659Y-68435276D01*
X83650107Y-68434725D01*
X83067343Y-68675519D01*
X82693739Y-69048471D01*
X82323003Y-68677086D01*
X81740659Y-68435276D01*
X81528616Y-68435091D01*
X81676919Y-68287046D01*
X81794046Y-68004971D01*
X84964821Y-68004971D01*
X85122058Y-68385515D01*
X85412954Y-68676919D01*
X85793223Y-68834820D01*
X86204971Y-68835179D01*
X86278080Y-68804971D01*
X87064821Y-68804971D01*
X87222058Y-69185515D01*
X87512954Y-69476919D01*
X87893223Y-69634820D01*
X88138880Y-69635034D01*
X87965215Y-70053266D01*
X87964786Y-70544579D01*
X88152408Y-70998657D01*
X88499515Y-71346371D01*
X88953266Y-71534785D01*
X89444579Y-71535214D01*
X89898657Y-71347592D01*
X90246371Y-71000485D01*
X90434785Y-70546734D01*
X90435214Y-70055421D01*
X90247592Y-69601343D01*
X89900485Y-69253629D01*
X89446734Y-69065215D01*
X89027659Y-69064849D01*
X89134820Y-68806777D01*
X89135089Y-68498568D01*
X89412954Y-68776919D01*
X89793223Y-68934820D01*
X90204971Y-68935179D01*
X90585515Y-68777942D01*
X90876919Y-68487046D01*
X91034820Y-68106777D01*
X91035179Y-67695029D01*
X90877942Y-67314485D01*
X90608507Y-67044579D01*
X92264786Y-67044579D01*
X92452408Y-67498657D01*
X92799515Y-67846371D01*
X93253266Y-68034785D01*
X93744579Y-68035214D01*
X94198657Y-67847592D01*
X94546371Y-67500485D01*
X94734785Y-67046734D01*
X94735214Y-66555421D01*
X94547592Y-66101343D01*
X94200485Y-65753629D01*
X93746734Y-65565215D01*
X93255421Y-65564786D01*
X92801343Y-65752408D01*
X92453629Y-66099515D01*
X92265215Y-66553266D01*
X92264786Y-67044579D01*
X90608507Y-67044579D01*
X90587046Y-67023081D01*
X90206777Y-66865180D01*
X89795029Y-66864821D01*
X89414485Y-67022058D01*
X89123081Y-67312954D01*
X88965180Y-67693223D01*
X88964911Y-68001432D01*
X88687046Y-67723081D01*
X88306777Y-67565180D01*
X87895029Y-67564821D01*
X87514485Y-67722058D01*
X87223081Y-68012954D01*
X87065180Y-68393223D01*
X87064821Y-68804971D01*
X86278080Y-68804971D01*
X86585515Y-68677942D01*
X86876919Y-68387046D01*
X87034820Y-68006777D01*
X87035179Y-67595029D01*
X86877942Y-67214485D01*
X86587046Y-66923081D01*
X86206777Y-66765180D01*
X85795029Y-66764821D01*
X85414485Y-66922058D01*
X85123081Y-67212954D01*
X84965180Y-67593223D01*
X84964821Y-68004971D01*
X81794046Y-68004971D01*
X81834820Y-67906777D01*
X81835179Y-67495029D01*
X81677942Y-67114485D01*
X81387046Y-66823081D01*
X81006777Y-66665180D01*
X80595029Y-66664821D01*
X80214485Y-66822058D01*
X79923081Y-67112954D01*
X79765180Y-67493223D01*
X79764821Y-67904971D01*
X79922058Y-68285515D01*
X80212954Y-68576919D01*
X80504743Y-68698080D01*
X80153739Y-69048471D01*
X79783003Y-68677086D01*
X79220272Y-68443420D01*
X79376919Y-68287046D01*
X79534820Y-67906777D01*
X79535179Y-67495029D01*
X79377942Y-67114485D01*
X79087046Y-66823081D01*
X78706777Y-66665180D01*
X78295029Y-66664821D01*
X77914485Y-66822058D01*
X77623081Y-67112954D01*
X77465180Y-67493223D01*
X77464821Y-67904971D01*
X77622058Y-68285515D01*
X77912954Y-68576919D01*
X78069077Y-68641747D01*
X77987343Y-68675519D01*
X77613739Y-69048471D01*
X77243003Y-68677086D01*
X76774435Y-68482520D01*
X76785515Y-68477942D01*
X77076919Y-68187046D01*
X77234820Y-67806777D01*
X77235179Y-67395029D01*
X77077942Y-67014485D01*
X76787046Y-66723081D01*
X76406777Y-66565180D01*
X75995029Y-66564821D01*
X75614485Y-66722058D01*
X75607790Y-66728742D01*
X75477942Y-66414485D01*
X75187046Y-66123081D01*
X74806777Y-65965180D01*
X74395029Y-65964821D01*
X74014485Y-66122058D01*
X73723081Y-66412954D01*
X73565180Y-66793223D01*
X73564821Y-67204971D01*
X73722058Y-67585515D01*
X74012954Y-67876919D01*
X74393223Y-68034820D01*
X74804971Y-68035179D01*
X75185515Y-67877942D01*
X75192210Y-67871258D01*
X75322058Y-68185515D01*
X75612954Y-68476919D01*
X75770084Y-68542165D01*
X75447343Y-68675519D01*
X75073739Y-69048471D01*
X74703003Y-68677086D01*
X74120659Y-68435276D01*
X73490107Y-68434725D01*
X72907343Y-68675519D01*
X72533739Y-69048471D01*
X72163003Y-68677086D01*
X71580659Y-68435276D01*
X70950107Y-68434725D01*
X70367343Y-68675519D01*
X69993739Y-69048471D01*
X69623003Y-68677086D01*
X69040659Y-68435276D01*
X68410107Y-68434725D01*
X67827343Y-68675519D01*
X67453739Y-69048471D01*
X67083003Y-68677086D01*
X66500659Y-68435276D01*
X65870107Y-68434725D01*
X65287343Y-68675519D01*
X64913739Y-69048471D01*
X64543003Y-68677086D01*
X63960659Y-68435276D01*
X63330107Y-68434725D01*
X62747343Y-68675519D01*
X62373739Y-69048471D01*
X62003003Y-68677086D01*
X61420659Y-68435276D01*
X60790107Y-68434725D01*
X60207343Y-68675519D01*
X59833739Y-69048471D01*
X59463003Y-68677086D01*
X58880659Y-68435276D01*
X58250107Y-68434725D01*
X57667343Y-68675519D01*
X57293739Y-69048471D01*
X56923003Y-68677086D01*
X56340659Y-68435276D01*
X55710107Y-68434725D01*
X55127343Y-68675519D01*
X54753739Y-69048471D01*
X54383003Y-68677086D01*
X53800659Y-68435276D01*
X53170107Y-68434725D01*
X52587343Y-68675519D01*
X52213739Y-69048471D01*
X51843003Y-68677086D01*
X51260659Y-68435276D01*
X50630107Y-68434725D01*
X50047343Y-68675519D01*
X49601086Y-69120997D01*
X49359276Y-69703341D01*
X49358725Y-70333893D01*
X47127000Y-70333893D01*
X47127000Y-65127000D01*
X76000000Y-65127000D01*
X76049410Y-65116994D01*
X76091035Y-65088553D01*
X76118315Y-65046159D01*
X76127000Y-65000000D01*
X76127000Y-63704971D01*
X80364821Y-63704971D01*
X80522058Y-64085515D01*
X80812954Y-64376919D01*
X81193223Y-64534820D01*
X81604971Y-64535179D01*
X81985515Y-64377942D01*
X82276919Y-64087046D01*
X82434820Y-63706777D01*
X82435048Y-63444579D01*
X87864786Y-63444579D01*
X88052408Y-63898657D01*
X88399515Y-64246371D01*
X88853266Y-64434785D01*
X89344579Y-64435214D01*
X89798657Y-64247592D01*
X90146371Y-63900485D01*
X90334785Y-63446734D01*
X90335214Y-62955421D01*
X90147592Y-62501343D01*
X89800485Y-62153629D01*
X89346734Y-61965215D01*
X88855421Y-61964786D01*
X88401343Y-62152408D01*
X88053629Y-62499515D01*
X87865215Y-62953266D01*
X87864786Y-63444579D01*
X82435048Y-63444579D01*
X82435179Y-63295029D01*
X82277942Y-62914485D01*
X81987046Y-62623081D01*
X81606777Y-62465180D01*
X81195029Y-62464821D01*
X80814485Y-62622058D01*
X80523081Y-62912954D01*
X80365180Y-63293223D01*
X80364821Y-63704971D01*
X76127000Y-63704971D01*
X76127000Y-59504971D01*
X96564821Y-59504971D01*
X96722058Y-59885515D01*
X97012954Y-60176919D01*
X97393223Y-60334820D01*
X97804971Y-60335179D01*
X98185515Y-60177942D01*
X98476919Y-59887046D01*
X98634820Y-59506777D01*
X98635179Y-59095029D01*
X98477942Y-58714485D01*
X98187046Y-58423081D01*
X97806777Y-58265180D01*
X97395029Y-58264821D01*
X97014485Y-58422058D01*
X96723081Y-58712954D01*
X96565180Y-59093223D01*
X96564821Y-59504971D01*
X76127000Y-59504971D01*
X76127000Y-58354971D01*
X82964821Y-58354971D01*
X83122058Y-58735515D01*
X83412954Y-59026919D01*
X83793223Y-59184820D01*
X84204971Y-59185179D01*
X84585515Y-59027942D01*
X84876919Y-58737046D01*
X85034820Y-58356777D01*
X85035179Y-57945029D01*
X84877942Y-57564485D01*
X84587046Y-57273081D01*
X84206777Y-57115180D01*
X83795029Y-57114821D01*
X83414485Y-57272058D01*
X83123081Y-57562954D01*
X82965180Y-57943223D01*
X82964821Y-58354971D01*
X76127000Y-58354971D01*
X76127000Y-57435024D01*
X76304971Y-57435179D01*
X76685515Y-57277942D01*
X76900032Y-57063799D01*
X77012954Y-57176919D01*
X77393223Y-57334820D01*
X77804971Y-57335179D01*
X78185515Y-57177942D01*
X78476919Y-56887046D01*
X78634820Y-56506777D01*
X78634944Y-56364783D01*
X79064943Y-56365159D01*
X79064821Y-56504971D01*
X79222058Y-56885515D01*
X79512954Y-57176919D01*
X79893223Y-57334820D01*
X80304971Y-57335179D01*
X80685515Y-57177942D01*
X80976919Y-56887046D01*
X81134820Y-56506777D01*
X81134944Y-56364748D01*
X81664943Y-56365211D01*
X81664821Y-56504971D01*
X81822058Y-56885515D01*
X82112954Y-57176919D01*
X82493223Y-57334820D01*
X82904971Y-57335179D01*
X83285515Y-57177942D01*
X83576919Y-56887046D01*
X83734820Y-56506777D01*
X83734944Y-56364801D01*
X84277893Y-56365275D01*
X84860657Y-56124481D01*
X85306914Y-55679003D01*
X85548724Y-55096659D01*
X85549275Y-54466107D01*
X85308481Y-53883343D01*
X84863003Y-53437086D01*
X84280659Y-53195276D01*
X83650107Y-53194725D01*
X83067343Y-53435519D01*
X82693739Y-53808471D01*
X82323003Y-53437086D01*
X81740659Y-53195276D01*
X81110107Y-53194725D01*
X80527343Y-53435519D01*
X80153739Y-53808471D01*
X79783003Y-53437086D01*
X79200659Y-53195276D01*
X78570107Y-53194725D01*
X77987343Y-53435519D01*
X77613739Y-53808471D01*
X77243003Y-53437086D01*
X76660659Y-53195276D01*
X76127000Y-53194810D01*
X76127000Y-50200000D01*
X76116994Y-50150590D01*
X76088553Y-50108965D01*
X76046159Y-50081685D01*
X76000000Y-50073000D01*
X74000000Y-50073000D01*
X73950590Y-50083006D01*
X73908965Y-50111447D01*
X73881685Y-50153841D01*
X73873000Y-50200000D01*
X73873000Y-53195060D01*
X73490107Y-53194725D01*
X72907343Y-53435519D01*
X72533739Y-53808471D01*
X72163003Y-53437086D01*
X71580659Y-53195276D01*
X70950107Y-53194725D01*
X70367343Y-53435519D01*
X69993739Y-53808471D01*
X69623003Y-53437086D01*
X69040659Y-53195276D01*
X68410107Y-53194725D01*
X67827343Y-53435519D01*
X67453739Y-53808471D01*
X67083003Y-53437086D01*
X66500659Y-53195276D01*
X65870107Y-53194725D01*
X65491885Y-53351004D01*
X65634820Y-53006777D01*
X65635179Y-52595029D01*
X65477942Y-52214485D01*
X65187046Y-51923081D01*
X64806777Y-51765180D01*
X64395029Y-51764821D01*
X64014485Y-51922058D01*
X63723081Y-52212954D01*
X63565180Y-52593223D01*
X63564821Y-53004971D01*
X63643339Y-53194999D01*
X63330107Y-53194725D01*
X62747343Y-53435519D01*
X62373739Y-53808471D01*
X62003003Y-53437086D01*
X61420659Y-53195276D01*
X60790107Y-53194725D01*
X60207343Y-53435519D01*
X59833739Y-53808471D01*
X59463003Y-53437086D01*
X58880659Y-53195276D01*
X58250107Y-53194725D01*
X57667343Y-53435519D01*
X57293739Y-53808471D01*
X56923003Y-53437086D01*
X56340659Y-53195276D01*
X55710107Y-53194725D01*
X55127343Y-53435519D01*
X54753739Y-53808471D01*
X54383003Y-53437086D01*
X53800659Y-53195276D01*
X53170107Y-53194725D01*
X52587343Y-53435519D01*
X52213739Y-53808471D01*
X51843003Y-53437086D01*
X51260659Y-53195276D01*
X50630107Y-53194725D01*
X50047343Y-53435519D01*
X49601086Y-53880997D01*
X49359276Y-54463341D01*
X49358725Y-55093893D01*
X49599519Y-55676657D01*
X50044997Y-56122914D01*
X50627341Y-56364724D01*
X51257893Y-56365275D01*
X51840657Y-56124481D01*
X52214261Y-55751529D01*
X52584997Y-56122914D01*
X53167341Y-56364724D01*
X53797893Y-56365275D01*
X54380657Y-56124481D01*
X54754261Y-55751529D01*
X55124997Y-56122914D01*
X55707341Y-56364724D01*
X56337893Y-56365275D01*
X56920657Y-56124481D01*
X57294261Y-55751529D01*
X57592471Y-56050261D01*
X57221086Y-56420997D01*
X56979276Y-57003341D01*
X56978725Y-57633893D01*
X57219519Y-58216657D01*
X57664997Y-58662914D01*
X58247341Y-58904724D01*
X58877893Y-58905275D01*
X59460657Y-58664481D01*
X59834261Y-58291529D01*
X60204997Y-58662914D01*
X60787341Y-58904724D01*
X61417893Y-58905275D01*
X62000657Y-58664481D01*
X62374261Y-58291529D01*
X62744997Y-58662914D01*
X63327341Y-58904724D01*
X63957893Y-58905275D01*
X64540657Y-58664481D01*
X64986914Y-58219003D01*
X65228724Y-57636659D01*
X65229275Y-57006107D01*
X64988481Y-56423343D01*
X64615529Y-56049739D01*
X64914261Y-55751529D01*
X65284997Y-56122914D01*
X65867341Y-56364724D01*
X66497893Y-56365275D01*
X67080657Y-56124481D01*
X67454261Y-55751529D01*
X67824997Y-56122914D01*
X68407341Y-56364724D01*
X69037893Y-56365275D01*
X69620657Y-56124481D01*
X69994261Y-55751529D01*
X70364997Y-56122914D01*
X70947341Y-56364724D01*
X71577893Y-56365275D01*
X71965170Y-56205255D01*
X71964821Y-56604971D01*
X72122058Y-56985515D01*
X72412954Y-57276919D01*
X72793223Y-57434820D01*
X73204971Y-57435179D01*
X73585515Y-57277942D01*
X73850206Y-57013712D01*
X73873000Y-57036546D01*
X73873000Y-62873000D01*
X45000000Y-62873000D01*
X44950590Y-62883006D01*
X44908965Y-62911447D01*
X44881685Y-62953841D01*
X44873000Y-63000000D01*
X44873000Y-73973000D01*
X28127000Y-73973000D01*
X28127000Y-66112619D01*
X28268234Y-66084526D01*
X28653233Y-65827278D01*
X28616887Y-66010000D01*
X28726120Y-66559151D01*
X29037189Y-67024698D01*
X29419275Y-67280000D01*
X29037189Y-67535302D01*
X28726120Y-68000849D01*
X28616887Y-68550000D01*
X28726120Y-69099151D01*
X29037189Y-69564698D01*
X29419275Y-69820000D01*
X29037189Y-70075302D01*
X28726120Y-70540849D01*
X28616887Y-71090000D01*
X28726120Y-71639151D01*
X29037189Y-72104698D01*
X29502736Y-72415767D01*
X30051887Y-72525000D01*
X30108113Y-72525000D01*
X30657264Y-72415767D01*
X31122811Y-72104698D01*
X31433880Y-71639151D01*
X31543113Y-71090000D01*
X31433880Y-70540849D01*
X31122811Y-70075302D01*
X30740725Y-69820000D01*
X31122811Y-69564698D01*
X31433880Y-69099151D01*
X31543113Y-68550000D01*
X31433880Y-68000849D01*
X31122811Y-67535302D01*
X30740725Y-67280000D01*
X31122811Y-67024698D01*
X31433880Y-66559151D01*
X31543113Y-66010000D01*
X31433880Y-65460849D01*
X31122811Y-64995302D01*
X30740725Y-64740000D01*
X31122811Y-64484698D01*
X31433880Y-64019151D01*
X31543113Y-63470000D01*
X31433880Y-62920849D01*
X31122811Y-62455302D01*
X30740725Y-62200000D01*
X31122811Y-61944698D01*
X31433880Y-61479151D01*
X31543113Y-60930000D01*
X31518244Y-60804971D01*
X34964821Y-60804971D01*
X35122058Y-61185515D01*
X35412954Y-61476919D01*
X35793223Y-61634820D01*
X36204971Y-61635179D01*
X36397281Y-61555718D01*
X36657189Y-61944698D01*
X37061703Y-62214986D01*
X36844866Y-62317611D01*
X36468959Y-62732577D01*
X36308096Y-63120961D01*
X36430085Y-63343000D01*
X37573000Y-63343000D01*
X37573000Y-63323000D01*
X37827000Y-63323000D01*
X37827000Y-63343000D01*
X38969915Y-63343000D01*
X39018316Y-63254903D01*
X39280366Y-63430000D01*
X38986166Y-63626579D01*
X38969915Y-63597000D01*
X37827000Y-63597000D01*
X37827000Y-63617000D01*
X37573000Y-63617000D01*
X37573000Y-63597000D01*
X36430085Y-63597000D01*
X36308096Y-63819039D01*
X36468959Y-64207423D01*
X36844866Y-64622389D01*
X37061703Y-64725014D01*
X36657189Y-64995302D01*
X36346120Y-65460849D01*
X36236887Y-66010000D01*
X36346120Y-66559151D01*
X36657189Y-67024698D01*
X37039275Y-67280000D01*
X36657189Y-67535302D01*
X36346120Y-68000849D01*
X36236887Y-68550000D01*
X36346120Y-69099151D01*
X36657189Y-69564698D01*
X37039275Y-69820000D01*
X36657189Y-70075302D01*
X36346120Y-70540849D01*
X36236887Y-71090000D01*
X36346120Y-71639151D01*
X36657189Y-72104698D01*
X37122736Y-72415767D01*
X37671887Y-72525000D01*
X37728113Y-72525000D01*
X38277264Y-72415767D01*
X38742811Y-72104698D01*
X39053880Y-71639151D01*
X39163113Y-71090000D01*
X39053880Y-70540849D01*
X38742811Y-70075302D01*
X38360725Y-69820000D01*
X38742811Y-69564698D01*
X39053880Y-69099151D01*
X39163113Y-68550000D01*
X39053880Y-68000849D01*
X38742811Y-67535302D01*
X38360725Y-67280000D01*
X38742811Y-67024698D01*
X39053880Y-66559151D01*
X39163113Y-66010000D01*
X39135964Y-65873514D01*
X39451766Y-66084526D01*
X40025255Y-66198600D01*
X40394745Y-66198600D01*
X40968234Y-66084526D01*
X41454415Y-65759670D01*
X41779271Y-65273489D01*
X41893345Y-64700000D01*
X41779271Y-64126511D01*
X41454415Y-63640330D01*
X41139634Y-63430000D01*
X41454415Y-63219670D01*
X41779271Y-62733489D01*
X41893345Y-62160000D01*
X41802835Y-61704971D01*
X44964821Y-61704971D01*
X45122058Y-62085515D01*
X45412954Y-62376919D01*
X45793223Y-62534820D01*
X46204971Y-62535179D01*
X46585515Y-62377942D01*
X46876919Y-62087046D01*
X47034820Y-61706777D01*
X47034908Y-61604971D01*
X67664821Y-61604971D01*
X67822058Y-61985515D01*
X68112954Y-62276919D01*
X68493223Y-62434820D01*
X68904971Y-62435179D01*
X69285515Y-62277942D01*
X69576919Y-61987046D01*
X69734820Y-61606777D01*
X69735179Y-61195029D01*
X69577942Y-60814485D01*
X69287046Y-60523081D01*
X68906777Y-60365180D01*
X68495029Y-60364821D01*
X68114485Y-60522058D01*
X67823081Y-60812954D01*
X67665180Y-61193223D01*
X67664821Y-61604971D01*
X47034908Y-61604971D01*
X47035179Y-61295029D01*
X46877942Y-60914485D01*
X46587046Y-60623081D01*
X46206777Y-60465180D01*
X45795029Y-60464821D01*
X45414485Y-60622058D01*
X45123081Y-60912954D01*
X44965180Y-61293223D01*
X44964821Y-61704971D01*
X41802835Y-61704971D01*
X41779271Y-61586511D01*
X41611223Y-61335010D01*
X41804971Y-61335179D01*
X42185515Y-61177942D01*
X42476919Y-60887046D01*
X42634820Y-60506777D01*
X42635179Y-60095029D01*
X42477942Y-59714485D01*
X42413625Y-59650056D01*
X42576919Y-59487046D01*
X42734820Y-59106777D01*
X42735179Y-58695029D01*
X42577942Y-58314485D01*
X42287046Y-58023081D01*
X41906777Y-57865180D01*
X41873440Y-57865151D01*
X41873440Y-57504971D01*
X42364821Y-57504971D01*
X42522058Y-57885515D01*
X42812954Y-58176919D01*
X43193223Y-58334820D01*
X43364969Y-58334970D01*
X43364821Y-58504971D01*
X43522058Y-58885515D01*
X43812954Y-59176919D01*
X44193223Y-59334820D01*
X44604971Y-59335179D01*
X44985515Y-59177942D01*
X45276919Y-58887046D01*
X45434820Y-58506777D01*
X45435179Y-58095029D01*
X45277942Y-57714485D01*
X44987046Y-57423081D01*
X44606777Y-57265180D01*
X44435031Y-57265030D01*
X44435179Y-57095029D01*
X44277942Y-56714485D01*
X43987046Y-56423081D01*
X43606777Y-56265180D01*
X43195029Y-56264821D01*
X42814485Y-56422058D01*
X42523081Y-56712954D01*
X42365180Y-57093223D01*
X42364821Y-57504971D01*
X41873440Y-57504971D01*
X41873440Y-56216400D01*
X41829162Y-55981083D01*
X41690090Y-55764959D01*
X41477890Y-55619969D01*
X41226000Y-55568960D01*
X40584429Y-55568960D01*
X40734820Y-55206777D01*
X40735179Y-54795029D01*
X40577942Y-54414485D01*
X40287046Y-54123081D01*
X39906777Y-53965180D01*
X39495029Y-53964821D01*
X39114485Y-54122058D01*
X38823081Y-54412954D01*
X38668363Y-54785557D01*
X38277264Y-54524233D01*
X37728113Y-54415000D01*
X37671887Y-54415000D01*
X37122736Y-54524233D01*
X36657189Y-54835302D01*
X36346120Y-55300849D01*
X36236887Y-55850000D01*
X36346120Y-56399151D01*
X36657189Y-56864698D01*
X37039275Y-57120000D01*
X36657189Y-57375302D01*
X36346120Y-57840849D01*
X36236887Y-58390000D01*
X36346120Y-58939151D01*
X36657189Y-59404698D01*
X37039275Y-59660000D01*
X36730219Y-59866505D01*
X36587046Y-59723081D01*
X36206777Y-59565180D01*
X35795029Y-59564821D01*
X35414485Y-59722058D01*
X35123081Y-60012954D01*
X34965180Y-60393223D01*
X34964821Y-60804971D01*
X31518244Y-60804971D01*
X31433880Y-60380849D01*
X31122811Y-59915302D01*
X30740725Y-59660000D01*
X31122811Y-59404698D01*
X31433880Y-58939151D01*
X31543113Y-58390000D01*
X31433880Y-57840849D01*
X31122811Y-57375302D01*
X30740725Y-57120000D01*
X31122811Y-56864698D01*
X31433880Y-56399151D01*
X31543113Y-55850000D01*
X31433880Y-55300849D01*
X31122811Y-54835302D01*
X30657264Y-54524233D01*
X30108113Y-54415000D01*
X30051887Y-54415000D01*
X29502736Y-54524233D01*
X29037189Y-54835302D01*
X28726120Y-55300849D01*
X28668944Y-55588291D01*
X28652309Y-55581400D01*
X28127000Y-55581400D01*
X28127000Y-51254971D01*
X31264821Y-51254971D01*
X31422058Y-51635515D01*
X31712954Y-51926919D01*
X32093223Y-52084820D01*
X32504971Y-52085179D01*
X32885515Y-51927942D01*
X33176919Y-51637046D01*
X33314808Y-51304971D01*
X61564821Y-51304971D01*
X61722058Y-51685515D01*
X62012954Y-51976919D01*
X62393223Y-52134820D01*
X62804971Y-52135179D01*
X63185515Y-51977942D01*
X63476919Y-51687046D01*
X63510999Y-51604971D01*
X68564821Y-51604971D01*
X68722058Y-51985515D01*
X69012954Y-52276919D01*
X69393223Y-52434820D01*
X69804971Y-52435179D01*
X70185515Y-52277942D01*
X70249857Y-52213712D01*
X70312954Y-52276919D01*
X70693223Y-52434820D01*
X71104971Y-52435179D01*
X71485515Y-52277942D01*
X71776919Y-51987046D01*
X71934820Y-51606777D01*
X71935179Y-51195029D01*
X71777942Y-50814485D01*
X71668619Y-50704971D01*
X71764821Y-50704971D01*
X71922058Y-51085515D01*
X72212954Y-51376919D01*
X72593223Y-51534820D01*
X73004971Y-51535179D01*
X73385515Y-51377942D01*
X73676919Y-51087046D01*
X73834820Y-50706777D01*
X73835179Y-50295029D01*
X73677942Y-49914485D01*
X73387046Y-49623081D01*
X73006777Y-49465180D01*
X72595029Y-49464821D01*
X72214485Y-49622058D01*
X71923081Y-49912954D01*
X71765180Y-50293223D01*
X71764821Y-50704971D01*
X71668619Y-50704971D01*
X71487046Y-50523081D01*
X71106777Y-50365180D01*
X70695029Y-50364821D01*
X70314485Y-50522058D01*
X70250143Y-50586288D01*
X70187046Y-50523081D01*
X69806777Y-50365180D01*
X69395029Y-50364821D01*
X69014485Y-50522058D01*
X68723081Y-50812954D01*
X68565180Y-51193223D01*
X68564821Y-51604971D01*
X63510999Y-51604971D01*
X63634820Y-51306777D01*
X63635179Y-50895029D01*
X63477942Y-50514485D01*
X63187046Y-50223081D01*
X62806777Y-50065180D01*
X62395029Y-50064821D01*
X62014485Y-50222058D01*
X61723081Y-50512954D01*
X61565180Y-50893223D01*
X61564821Y-51304971D01*
X33314808Y-51304971D01*
X33334820Y-51256777D01*
X33335179Y-50845029D01*
X33177942Y-50464485D01*
X32887046Y-50173081D01*
X32506777Y-50015180D01*
X32095029Y-50014821D01*
X31714485Y-50172058D01*
X31423081Y-50462954D01*
X31265180Y-50843223D01*
X31264821Y-51254971D01*
X28127000Y-51254971D01*
X28127000Y-47627000D01*
X71144544Y-47627000D01*
X70914485Y-47722058D01*
X70623081Y-48012954D01*
X70465180Y-48393223D01*
X70464821Y-48804971D01*
X70622058Y-49185515D01*
X70912954Y-49476919D01*
X71293223Y-49634820D01*
X71704971Y-49635179D01*
X72085515Y-49477942D01*
X72376919Y-49187046D01*
X72427226Y-49065892D01*
X72593223Y-49134820D01*
X73004971Y-49135179D01*
X73078080Y-49104971D01*
X80264821Y-49104971D01*
X80422058Y-49485515D01*
X80712954Y-49776919D01*
X81093223Y-49934820D01*
X81504971Y-49935179D01*
X81885515Y-49777942D01*
X82176919Y-49487046D01*
X82334820Y-49106777D01*
X82335179Y-48695029D01*
X82177942Y-48314485D01*
X81887046Y-48023081D01*
X81506777Y-47865180D01*
X81095029Y-47864821D01*
X80714485Y-48022058D01*
X80423081Y-48312954D01*
X80265180Y-48693223D01*
X80264821Y-49104971D01*
X73078080Y-49104971D01*
X73385515Y-48977942D01*
X73676919Y-48687046D01*
X73834820Y-48306777D01*
X73835179Y-47895029D01*
X73724432Y-47627000D01*
X73973000Y-47627000D01*
X73973000Y-47700000D01*
X73983006Y-47749410D01*
X74011447Y-47791035D01*
X74053841Y-47818315D01*
X74100000Y-47827000D01*
X76000000Y-47827000D01*
X76049410Y-47816994D01*
X76091035Y-47788553D01*
X76118315Y-47746159D01*
X76127000Y-47700000D01*
X76127000Y-44804971D01*
X90764821Y-44804971D01*
X90922058Y-45185515D01*
X91212954Y-45476919D01*
X91593223Y-45634820D01*
X91964969Y-45635144D01*
X91964821Y-45804971D01*
X92122058Y-46185515D01*
X92412954Y-46476919D01*
X92793223Y-46634820D01*
X93204971Y-46635179D01*
X93585515Y-46477942D01*
X93876919Y-46187046D01*
X94034820Y-45806777D01*
X94035179Y-45395029D01*
X93913170Y-45099744D01*
X94034820Y-44806777D01*
X94035179Y-44395029D01*
X93877942Y-44014485D01*
X93587046Y-43723081D01*
X93206777Y-43565180D01*
X92795029Y-43564821D01*
X92414485Y-43722058D01*
X92400230Y-43736288D01*
X92387046Y-43723081D01*
X92006777Y-43565180D01*
X91595029Y-43564821D01*
X91214485Y-43722058D01*
X90923081Y-44012954D01*
X90765180Y-44393223D01*
X90764821Y-44804971D01*
X76127000Y-44804971D01*
X76127000Y-43685000D01*
X82964926Y-43685000D01*
X82964821Y-43804971D01*
X83122058Y-44185515D01*
X83412954Y-44476919D01*
X83793223Y-44634820D01*
X84204971Y-44635179D01*
X84585515Y-44477942D01*
X84876919Y-44187046D01*
X85034820Y-43806777D01*
X85035179Y-43395029D01*
X84924432Y-43127000D01*
X85575725Y-43127000D01*
X85465180Y-43393223D01*
G36*
X94893223Y-50234820D02*
X95304971Y-50235179D01*
X95566785Y-50127000D01*
X104373000Y-50127000D01*
X104373000Y-56566269D01*
X104006777Y-56414200D01*
X103595029Y-56413841D01*
X103214485Y-56571078D01*
X102923081Y-56861974D01*
X102765180Y-57242243D01*
X102764821Y-57653991D01*
X102922058Y-58034535D01*
X103212954Y-58325939D01*
X103593223Y-58483840D01*
X104004971Y-58484199D01*
X104373000Y-58332133D01*
X104373000Y-69881480D01*
X104201343Y-69952408D01*
X103853629Y-70299515D01*
X103665215Y-70753266D01*
X103664786Y-71244579D01*
X103852408Y-71698657D01*
X104199515Y-72046371D01*
X104373000Y-72118408D01*
X104373000Y-104873000D01*
X102827000Y-104873000D01*
X102827000Y-92300000D01*
X102816994Y-92250590D01*
X102788553Y-92208965D01*
X102746159Y-92181685D01*
X102700000Y-92173000D01*
X90700000Y-92173000D01*
X90650590Y-92183006D01*
X90608965Y-92211447D01*
X90581685Y-92253841D01*
X90573003Y-92300927D01*
X90672069Y-105873000D01*
X28127000Y-105873000D01*
X28127000Y-104214440D01*
X28630600Y-104214440D01*
X28865917Y-104170162D01*
X29082041Y-104031090D01*
X29227031Y-103818890D01*
X29235400Y-103777561D01*
X29247330Y-103795415D01*
X29733511Y-104120271D01*
X30307000Y-104234345D01*
X30880489Y-104120271D01*
X31366670Y-103795415D01*
X31577000Y-103480634D01*
X31787330Y-103795415D01*
X32273511Y-104120271D01*
X32847000Y-104234345D01*
X33420489Y-104120271D01*
X33906670Y-103795415D01*
X34113461Y-103485931D01*
X34484964Y-103901732D01*
X35012209Y-104155709D01*
X35027974Y-104158358D01*
X35260000Y-104037217D01*
X35260000Y-102678000D01*
X35514000Y-102678000D01*
X35514000Y-104037217D01*
X35746026Y-104158358D01*
X35761791Y-104155709D01*
X36289036Y-103901732D01*
X36678954Y-103465320D01*
X36872184Y-102912913D01*
X36727924Y-102678000D01*
X35514000Y-102678000D01*
X35260000Y-102678000D01*
X35240000Y-102678000D01*
X35240000Y-102424000D01*
X35260000Y-102424000D01*
X35260000Y-102404000D01*
X35514000Y-102404000D01*
X35514000Y-102424000D01*
X36727924Y-102424000D01*
X36872184Y-102189087D01*
X36678954Y-101636680D01*
X36289036Y-101200268D01*
X36136935Y-101127000D01*
X39447000Y-101127000D01*
X39416180Y-101201223D01*
X39415821Y-101612971D01*
X39573058Y-101993515D01*
X39863954Y-102284919D01*
X40244223Y-102442820D01*
X40655971Y-102443179D01*
X41036515Y-102285942D01*
X41327919Y-101995046D01*
X41485820Y-101614777D01*
X41486179Y-101203029D01*
X41454765Y-101127000D01*
X58865344Y-101127000D01*
X58765180Y-101368223D01*
X58764821Y-101779971D01*
X58922058Y-102160515D01*
X59212954Y-102451919D01*
X59593223Y-102609820D01*
X60004971Y-102610179D01*
X60385515Y-102452942D01*
X60404642Y-102433848D01*
X60768223Y-102584820D01*
X61179971Y-102585179D01*
X61560515Y-102427942D01*
X61587292Y-102401212D01*
X61612954Y-102426919D01*
X61993223Y-102584820D01*
X62404971Y-102585179D01*
X62785515Y-102427942D01*
X63076919Y-102137046D01*
X63234820Y-101756777D01*
X63235179Y-101345029D01*
X63145092Y-101127000D01*
X80417955Y-101127000D01*
X80497381Y-101526299D01*
X80819208Y-102007948D01*
X81300857Y-102329775D01*
X81869000Y-102442786D01*
X82437143Y-102329775D01*
X82918792Y-102007948D01*
X83139000Y-101678383D01*
X83359208Y-102007948D01*
X83840857Y-102329775D01*
X84409000Y-102442786D01*
X84977143Y-102329775D01*
X85458792Y-102007948D01*
X85679000Y-101678383D01*
X85899208Y-102007948D01*
X86380857Y-102329775D01*
X86949000Y-102442786D01*
X87517143Y-102329775D01*
X87998792Y-102007948D01*
X88320619Y-101526299D01*
X88433630Y-100958156D01*
X88433630Y-99063844D01*
X88320619Y-98495701D01*
X88127000Y-98205929D01*
X88127000Y-89819473D01*
X88346371Y-89600485D01*
X88399899Y-89471576D01*
X88452408Y-89598657D01*
X88799515Y-89946371D01*
X89253266Y-90134785D01*
X89744579Y-90135214D01*
X90198657Y-89947592D01*
X90546371Y-89600485D01*
X90734785Y-89146734D01*
X90735214Y-88655421D01*
X90547592Y-88201343D01*
X90372961Y-88026406D01*
X90393223Y-88034820D01*
X90804971Y-88035179D01*
X91185515Y-87877942D01*
X91476919Y-87587046D01*
X91634820Y-87206777D01*
X91634890Y-87127000D01*
X101100000Y-87127000D01*
X101149410Y-87116994D01*
X101191035Y-87088553D01*
X101218315Y-87046159D01*
X101227000Y-87000000D01*
X101227000Y-77535111D01*
X101304971Y-77535179D01*
X101685515Y-77377942D01*
X101976919Y-77087046D01*
X102134820Y-76706777D01*
X102135179Y-76295029D01*
X101977942Y-75914485D01*
X101687046Y-75623081D01*
X101306777Y-75465180D01*
X101227000Y-75465110D01*
X101227000Y-67504971D01*
X101264821Y-67504971D01*
X101422058Y-67885515D01*
X101712954Y-68176919D01*
X102093223Y-68334820D01*
X102504971Y-68335179D01*
X102885515Y-68177942D01*
X103176919Y-67887046D01*
X103334820Y-67506777D01*
X103335179Y-67095029D01*
X103177942Y-66714485D01*
X102887046Y-66423081D01*
X102506777Y-66265180D01*
X102095029Y-66264821D01*
X101714485Y-66422058D01*
X101423081Y-66712954D01*
X101265180Y-67093223D01*
X101264821Y-67504971D01*
X101227000Y-67504971D01*
X101227000Y-60304971D01*
X101664821Y-60304971D01*
X101822058Y-60685515D01*
X102112954Y-60976919D01*
X102493223Y-61134820D01*
X102904971Y-61135179D01*
X103285515Y-60977942D01*
X103576919Y-60687046D01*
X103734820Y-60306777D01*
X103735179Y-59895029D01*
X103577942Y-59514485D01*
X103287046Y-59223081D01*
X102906777Y-59065180D01*
X102495029Y-59064821D01*
X102114485Y-59222058D01*
X101823081Y-59512954D01*
X101665180Y-59893223D01*
X101664821Y-60304971D01*
X101227000Y-60304971D01*
X101227000Y-54000000D01*
X101216994Y-53950590D01*
X101188553Y-53908965D01*
X101146159Y-53881685D01*
X101100000Y-53873000D01*
X88127000Y-53873000D01*
X88127000Y-50127000D01*
X94633563Y-50127000D01*
X94893223Y-50234820D01*
X94893223Y-50234820D01*
G37*
X94893223Y-50234820D02*
X95304971Y-50235179D01*
X95566785Y-50127000D01*
X104373000Y-50127000D01*
X104373000Y-56566269D01*
X104006777Y-56414200D01*
X103595029Y-56413841D01*
X103214485Y-56571078D01*
X102923081Y-56861974D01*
X102765180Y-57242243D01*
X102764821Y-57653991D01*
X102922058Y-58034535D01*
X103212954Y-58325939D01*
X103593223Y-58483840D01*
X104004971Y-58484199D01*
X104373000Y-58332133D01*
X104373000Y-69881480D01*
X104201343Y-69952408D01*
X103853629Y-70299515D01*
X103665215Y-70753266D01*
X103664786Y-71244579D01*
X103852408Y-71698657D01*
X104199515Y-72046371D01*
X104373000Y-72118408D01*
X104373000Y-104873000D01*
X102827000Y-104873000D01*
X102827000Y-92300000D01*
X102816994Y-92250590D01*
X102788553Y-92208965D01*
X102746159Y-92181685D01*
X102700000Y-92173000D01*
X90700000Y-92173000D01*
X90650590Y-92183006D01*
X90608965Y-92211447D01*
X90581685Y-92253841D01*
X90573003Y-92300927D01*
X90672069Y-105873000D01*
X28127000Y-105873000D01*
X28127000Y-104214440D01*
X28630600Y-104214440D01*
X28865917Y-104170162D01*
X29082041Y-104031090D01*
X29227031Y-103818890D01*
X29235400Y-103777561D01*
X29247330Y-103795415D01*
X29733511Y-104120271D01*
X30307000Y-104234345D01*
X30880489Y-104120271D01*
X31366670Y-103795415D01*
X31577000Y-103480634D01*
X31787330Y-103795415D01*
X32273511Y-104120271D01*
X32847000Y-104234345D01*
X33420489Y-104120271D01*
X33906670Y-103795415D01*
X34113461Y-103485931D01*
X34484964Y-103901732D01*
X35012209Y-104155709D01*
X35027974Y-104158358D01*
X35260000Y-104037217D01*
X35260000Y-102678000D01*
X35514000Y-102678000D01*
X35514000Y-104037217D01*
X35746026Y-104158358D01*
X35761791Y-104155709D01*
X36289036Y-103901732D01*
X36678954Y-103465320D01*
X36872184Y-102912913D01*
X36727924Y-102678000D01*
X35514000Y-102678000D01*
X35260000Y-102678000D01*
X35240000Y-102678000D01*
X35240000Y-102424000D01*
X35260000Y-102424000D01*
X35260000Y-102404000D01*
X35514000Y-102404000D01*
X35514000Y-102424000D01*
X36727924Y-102424000D01*
X36872184Y-102189087D01*
X36678954Y-101636680D01*
X36289036Y-101200268D01*
X36136935Y-101127000D01*
X39447000Y-101127000D01*
X39416180Y-101201223D01*
X39415821Y-101612971D01*
X39573058Y-101993515D01*
X39863954Y-102284919D01*
X40244223Y-102442820D01*
X40655971Y-102443179D01*
X41036515Y-102285942D01*
X41327919Y-101995046D01*
X41485820Y-101614777D01*
X41486179Y-101203029D01*
X41454765Y-101127000D01*
X58865344Y-101127000D01*
X58765180Y-101368223D01*
X58764821Y-101779971D01*
X58922058Y-102160515D01*
X59212954Y-102451919D01*
X59593223Y-102609820D01*
X60004971Y-102610179D01*
X60385515Y-102452942D01*
X60404642Y-102433848D01*
X60768223Y-102584820D01*
X61179971Y-102585179D01*
X61560515Y-102427942D01*
X61587292Y-102401212D01*
X61612954Y-102426919D01*
X61993223Y-102584820D01*
X62404971Y-102585179D01*
X62785515Y-102427942D01*
X63076919Y-102137046D01*
X63234820Y-101756777D01*
X63235179Y-101345029D01*
X63145092Y-101127000D01*
X80417955Y-101127000D01*
X80497381Y-101526299D01*
X80819208Y-102007948D01*
X81300857Y-102329775D01*
X81869000Y-102442786D01*
X82437143Y-102329775D01*
X82918792Y-102007948D01*
X83139000Y-101678383D01*
X83359208Y-102007948D01*
X83840857Y-102329775D01*
X84409000Y-102442786D01*
X84977143Y-102329775D01*
X85458792Y-102007948D01*
X85679000Y-101678383D01*
X85899208Y-102007948D01*
X86380857Y-102329775D01*
X86949000Y-102442786D01*
X87517143Y-102329775D01*
X87998792Y-102007948D01*
X88320619Y-101526299D01*
X88433630Y-100958156D01*
X88433630Y-99063844D01*
X88320619Y-98495701D01*
X88127000Y-98205929D01*
X88127000Y-89819473D01*
X88346371Y-89600485D01*
X88399899Y-89471576D01*
X88452408Y-89598657D01*
X88799515Y-89946371D01*
X89253266Y-90134785D01*
X89744579Y-90135214D01*
X90198657Y-89947592D01*
X90546371Y-89600485D01*
X90734785Y-89146734D01*
X90735214Y-88655421D01*
X90547592Y-88201343D01*
X90372961Y-88026406D01*
X90393223Y-88034820D01*
X90804971Y-88035179D01*
X91185515Y-87877942D01*
X91476919Y-87587046D01*
X91634820Y-87206777D01*
X91634890Y-87127000D01*
X101100000Y-87127000D01*
X101149410Y-87116994D01*
X101191035Y-87088553D01*
X101218315Y-87046159D01*
X101227000Y-87000000D01*
X101227000Y-77535111D01*
X101304971Y-77535179D01*
X101685515Y-77377942D01*
X101976919Y-77087046D01*
X102134820Y-76706777D01*
X102135179Y-76295029D01*
X101977942Y-75914485D01*
X101687046Y-75623081D01*
X101306777Y-75465180D01*
X101227000Y-75465110D01*
X101227000Y-67504971D01*
X101264821Y-67504971D01*
X101422058Y-67885515D01*
X101712954Y-68176919D01*
X102093223Y-68334820D01*
X102504971Y-68335179D01*
X102885515Y-68177942D01*
X103176919Y-67887046D01*
X103334820Y-67506777D01*
X103335179Y-67095029D01*
X103177942Y-66714485D01*
X102887046Y-66423081D01*
X102506777Y-66265180D01*
X102095029Y-66264821D01*
X101714485Y-66422058D01*
X101423081Y-66712954D01*
X101265180Y-67093223D01*
X101264821Y-67504971D01*
X101227000Y-67504971D01*
X101227000Y-60304971D01*
X101664821Y-60304971D01*
X101822058Y-60685515D01*
X102112954Y-60976919D01*
X102493223Y-61134820D01*
X102904971Y-61135179D01*
X103285515Y-60977942D01*
X103576919Y-60687046D01*
X103734820Y-60306777D01*
X103735179Y-59895029D01*
X103577942Y-59514485D01*
X103287046Y-59223081D01*
X102906777Y-59065180D01*
X102495029Y-59064821D01*
X102114485Y-59222058D01*
X101823081Y-59512954D01*
X101665180Y-59893223D01*
X101664821Y-60304971D01*
X101227000Y-60304971D01*
X101227000Y-54000000D01*
X101216994Y-53950590D01*
X101188553Y-53908965D01*
X101146159Y-53881685D01*
X101100000Y-53873000D01*
X88127000Y-53873000D01*
X88127000Y-50127000D01*
X94633563Y-50127000D01*
X94893223Y-50234820D01*
M02*
