G04 #@! TF.FileFunction,Copper,L1,Top,Signal*
%FSLAX46Y46*%
G04 Gerber Fmt 4.6, Leading zero omitted, Abs format (unit mm)*
G04 Created by KiCad (PCBNEW 4.0.1-stable) date 2016-12-19 1:07:11 AM*
%MOMM*%
G01*
G04 APERTURE LIST*
%ADD10C,0.150000*%
%ADD11O,1.600000X1.600000*%
%ADD12R,1.198880X1.198880*%
%ADD13C,1.900000*%
%ADD14O,3.500120X1.699260*%
%ADD15O,1.699260X3.500120*%
%ADD16R,2.430000X2.370000*%
%ADD17R,4.130000X2.370000*%
%ADD18R,1.550000X0.600000*%
%ADD19R,0.400000X1.200000*%
%ADD20R,4.000500X2.400300*%
%ADD21R,1.727200X2.032000*%
%ADD22O,1.727200X2.032000*%
%ADD23C,4.064000*%
%ADD24R,1.800860X2.499360*%
%ADD25C,1.998980*%
%ADD26R,0.508000X1.143000*%
%ADD27R,1.000000X1.250000*%
%ADD28R,1.250000X1.000000*%
%ADD29R,1.300000X0.700000*%
%ADD30R,0.700000X1.300000*%
%ADD31R,1.524000X2.032000*%
%ADD32R,1.700000X0.900000*%
%ADD33R,0.900000X1.700000*%
%ADD34R,3.200000X1.000000*%
%ADD35R,1.000000X2.500000*%
%ADD36R,2.500000X1.000000*%
%ADD37R,2.999740X4.900000*%
%ADD38R,3.299460X2.499360*%
%ADD39R,0.500000X2.800000*%
%ADD40R,2.032000X1.727200*%
%ADD41O,2.032000X1.727200*%
%ADD42R,1.727000X0.457000*%
%ADD43R,0.600000X0.420000*%
%ADD44C,0.800000*%
%ADD45C,1.200000*%
%ADD46C,0.254000*%
%ADD47C,0.500000*%
G04 APERTURE END LIST*
D10*
D11*
X39400000Y-38300000D03*
X39400000Y-40840000D03*
X39400000Y-43380000D03*
X39400000Y-45920000D03*
X39400000Y-48460000D03*
X39400000Y-51000000D03*
X39400000Y-53540000D03*
X31780000Y-53540000D03*
X31780000Y-51000000D03*
X31780000Y-48460000D03*
X31780000Y-45920000D03*
X31780000Y-43380000D03*
X31780000Y-40840000D03*
X31780000Y-38300000D03*
D12*
X89200000Y-36350980D03*
X89200000Y-38449020D03*
D13*
X57264000Y-37520000D03*
X59804000Y-37520000D03*
X62344000Y-37520000D03*
X52184000Y-50220000D03*
X54724000Y-50220000D03*
X57264000Y-50220000D03*
X59804000Y-50220000D03*
X62344000Y-50220000D03*
X64884000Y-50220000D03*
X67424000Y-50220000D03*
X69964000Y-50220000D03*
X72504000Y-50220000D03*
X75044000Y-50220000D03*
X77584000Y-50220000D03*
X80124000Y-50220000D03*
X82664000Y-50220000D03*
X82664000Y-34980000D03*
X80124000Y-34980000D03*
X77584000Y-34980000D03*
X75044000Y-34980000D03*
X72504000Y-34980000D03*
X69964000Y-34980000D03*
X67424000Y-34980000D03*
X64884000Y-34980000D03*
X62344000Y-34980000D03*
X59804000Y-34980000D03*
X57264000Y-34980000D03*
X54724000Y-34980000D03*
X52184000Y-34980000D03*
X49644000Y-34980000D03*
X49644000Y-50220000D03*
D14*
X36403000Y-62644000D03*
X36403000Y-65184000D03*
X36403000Y-60104000D03*
X31069000Y-73947000D03*
X31069000Y-76487000D03*
X31069000Y-71407000D03*
D15*
X84409000Y-78011000D03*
X86949000Y-78011000D03*
X81869000Y-78011000D03*
D16*
X95839000Y-60286000D03*
X95839000Y-66526000D03*
D17*
X102951000Y-60794000D03*
X102951000Y-67034000D03*
D12*
X92500000Y-36350980D03*
X92500000Y-38449020D03*
D18*
X87109000Y-73693000D03*
X87109000Y-72423000D03*
X87109000Y-71153000D03*
X87109000Y-69883000D03*
X81709000Y-69883000D03*
X81709000Y-71153000D03*
X81709000Y-72423000D03*
X81709000Y-73693000D03*
D19*
X66080000Y-66386000D03*
X65430000Y-66386000D03*
X64780000Y-66386000D03*
X64130000Y-66386000D03*
X64130000Y-70586000D03*
X64780000Y-70586000D03*
X65430000Y-70586000D03*
X66080000Y-70586000D03*
D20*
X71391500Y-76614000D03*
X63390500Y-76614000D03*
D21*
X27767000Y-57691000D03*
D22*
X30307000Y-57691000D03*
X32847000Y-57691000D03*
D23*
X28000000Y-31000000D03*
X104000000Y-31000000D03*
D24*
X27005000Y-72837020D03*
X27005000Y-76834980D03*
X42499000Y-72075020D03*
X42499000Y-76072980D03*
D25*
X32044360Y-63660000D03*
X27043100Y-63660000D03*
D26*
X36022000Y-71153000D03*
X37292000Y-71153000D03*
X38562000Y-71153000D03*
X39832000Y-71153000D03*
X39832000Y-77503000D03*
X38562000Y-77503000D03*
X37292000Y-77503000D03*
X36022000Y-77503000D03*
D27*
X37800000Y-41200000D03*
X35800000Y-41200000D03*
X96200000Y-53200000D03*
X98200000Y-53200000D03*
X102100000Y-53200000D03*
X100100000Y-53200000D03*
D28*
X37670000Y-37870000D03*
X37670000Y-39870000D03*
D27*
X35470000Y-46800000D03*
X33470000Y-46800000D03*
X29500000Y-36900000D03*
X27500000Y-36900000D03*
X32000000Y-36500000D03*
X34000000Y-36500000D03*
X35470000Y-48770000D03*
X33470000Y-48770000D03*
X33470000Y-51970000D03*
X35470000Y-51970000D03*
X32000000Y-34900000D03*
X34000000Y-34900000D03*
D29*
X42500000Y-36750000D03*
X42500000Y-34850000D03*
D30*
X33550000Y-43500000D03*
X35450000Y-43500000D03*
X35450000Y-45100000D03*
X33550000Y-45100000D03*
D29*
X35970000Y-37920000D03*
X35970000Y-39820000D03*
D30*
X97650000Y-40100000D03*
X99550000Y-40100000D03*
X102750000Y-40800000D03*
X104650000Y-40800000D03*
X35520000Y-50370000D03*
X33620000Y-50370000D03*
X38020000Y-34500000D03*
X36120000Y-34500000D03*
X33550000Y-53700000D03*
X35450000Y-53700000D03*
D29*
X39370000Y-36750000D03*
X39370000Y-34850000D03*
D31*
X104910000Y-43190000D03*
X102370000Y-43190000D03*
X99830000Y-43190000D03*
X97290000Y-43190000D03*
X97290000Y-50810000D03*
X99830000Y-50810000D03*
X102370000Y-50810000D03*
X104910000Y-50810000D03*
D28*
X92283000Y-67200000D03*
X92283000Y-65200000D03*
D27*
X40451000Y-79408000D03*
X38451000Y-79408000D03*
D28*
X79583000Y-69740000D03*
X79583000Y-67740000D03*
D27*
X92902000Y-61374000D03*
X90902000Y-61374000D03*
D21*
X27767000Y-80551000D03*
D22*
X30307000Y-80551000D03*
X32847000Y-80551000D03*
X35387000Y-80551000D03*
D29*
X89200000Y-33150000D03*
X89200000Y-35050000D03*
X95800000Y-33150000D03*
X95800000Y-35050000D03*
D30*
X90952000Y-63406000D03*
X92852000Y-63406000D03*
D29*
X61295000Y-60170000D03*
X61295000Y-62070000D03*
D30*
X68976000Y-66327000D03*
X67076000Y-66327000D03*
X68346000Y-68359000D03*
X70246000Y-68359000D03*
D29*
X60914000Y-72103000D03*
X60914000Y-70203000D03*
X61549000Y-66647000D03*
X61549000Y-68547000D03*
D30*
X36469000Y-68486000D03*
X38369000Y-68486000D03*
D32*
X73360000Y-71206000D03*
X73360000Y-68306000D03*
D33*
X61877000Y-63660000D03*
X64777000Y-63660000D03*
D34*
X76662000Y-71205000D03*
X76662000Y-65005000D03*
D35*
X30029000Y-67724000D03*
X27029000Y-67724000D03*
D36*
X40467000Y-64398000D03*
X40467000Y-61398000D03*
D33*
X29217000Y-60358000D03*
X26317000Y-60358000D03*
D37*
X92127000Y-76119000D03*
X101327000Y-76319000D03*
D38*
X77127000Y-74017940D03*
X77127000Y-80820060D03*
D39*
X96300000Y-23400000D03*
X97100000Y-23400000D03*
X91500000Y-23400000D03*
X92300000Y-23400000D03*
X90700000Y-23400000D03*
X89900000Y-23400000D03*
X93100000Y-23400000D03*
X93900000Y-23400000D03*
X95500000Y-23400000D03*
X94700000Y-23400000D03*
D12*
X95800000Y-36350980D03*
X95800000Y-38449020D03*
D40*
X47117000Y-40038000D03*
D41*
X47117000Y-42578000D03*
X47117000Y-45118000D03*
X47117000Y-47658000D03*
D29*
X92500000Y-33150000D03*
X92500000Y-35050000D03*
D42*
X85754000Y-67475000D03*
X85754000Y-66825000D03*
X85754000Y-66175000D03*
X85754000Y-65525000D03*
X83646000Y-65525000D03*
X83646000Y-66175000D03*
X83646000Y-66825000D03*
X83646000Y-67475000D03*
D29*
X62400000Y-54950000D03*
X62400000Y-56850000D03*
X64900000Y-54950000D03*
X64900000Y-56850000D03*
D40*
X29210000Y-39530000D03*
D41*
X29210000Y-42070000D03*
X29210000Y-44610000D03*
X29210000Y-47150000D03*
D40*
X41910000Y-39530000D03*
D41*
X41910000Y-42070000D03*
X41910000Y-44610000D03*
X41910000Y-47150000D03*
D43*
X88750000Y-54550000D03*
X88750000Y-53250000D03*
X86850000Y-54550000D03*
X88750000Y-53900000D03*
X86850000Y-53250000D03*
D26*
X79495000Y-39125000D03*
X80765000Y-39125000D03*
X82035000Y-39125000D03*
X83305000Y-39125000D03*
X83305000Y-45475000D03*
X82035000Y-45475000D03*
X80765000Y-45475000D03*
X79495000Y-45475000D03*
D29*
X77800000Y-45550000D03*
X77800000Y-43650000D03*
D28*
X78100000Y-39100000D03*
X78100000Y-37100000D03*
D29*
X89100000Y-55950000D03*
X89100000Y-57850000D03*
D44*
X87600000Y-38500000D03*
X79500000Y-37100000D03*
X61000000Y-40200000D03*
X76200000Y-40200000D03*
X90700000Y-54200000D03*
X99000000Y-56400000D03*
X101400000Y-32400000D03*
X83600000Y-54700000D03*
X93900000Y-26000000D03*
X54900000Y-30500000D03*
X61930000Y-79408000D03*
X63200000Y-79408000D03*
X64470000Y-79408000D03*
X41950000Y-80100000D03*
X63100000Y-60300000D03*
X46400000Y-60100000D03*
X102300000Y-45300000D03*
X98600000Y-41500000D03*
X43677000Y-60119000D03*
X81615000Y-67740000D03*
X64470000Y-73566000D03*
X63200000Y-73566000D03*
X61930000Y-73566000D03*
X76662000Y-63152000D03*
X78186000Y-61755000D03*
X78186000Y-63152000D03*
X76662000Y-61755000D03*
X75265000Y-61755000D03*
X75265000Y-63152000D03*
X84155000Y-71280000D03*
X99141000Y-60866000D03*
D45*
X101700000Y-28900000D03*
X96900000Y-28300000D03*
X101500000Y-80700000D03*
X29037000Y-77884000D03*
D44*
X82500000Y-41100000D03*
X74700000Y-45100000D03*
X61100000Y-45100000D03*
X90600000Y-65000000D03*
X80800000Y-66600000D03*
D45*
X46563000Y-67597000D03*
X42499000Y-67597000D03*
X98100000Y-37200000D03*
X98200000Y-29000000D03*
X99300000Y-45200000D03*
X99800000Y-49000000D03*
X104900000Y-49000000D03*
D44*
X80700000Y-37800000D03*
X86900000Y-27800000D03*
X94400000Y-40000000D03*
X84500000Y-38700000D03*
X89500000Y-66900000D03*
X87500000Y-66900000D03*
X68600000Y-38700000D03*
X94900000Y-51900000D03*
X74600000Y-60100000D03*
X62800000Y-70800000D03*
X37165000Y-66962000D03*
X31831000Y-67724000D03*
X104100000Y-37800000D03*
X45200000Y-29400000D03*
X101100000Y-54500000D03*
X34000000Y-33500000D03*
X72500000Y-57100000D03*
X87900000Y-55500000D03*
X54400000Y-47500000D03*
X101100000Y-40900000D03*
X101100000Y-47100000D03*
X57200000Y-47100000D03*
X96100000Y-46700000D03*
X103600000Y-45600000D03*
X59800000Y-46700000D03*
D45*
X93000000Y-41500000D03*
X91700000Y-49300000D03*
X25200000Y-55900000D03*
D44*
X73400000Y-30500000D03*
X90900000Y-30300000D03*
X70700000Y-31500000D03*
X87800000Y-30300000D03*
X89675000Y-25814000D03*
X56475000Y-52875000D03*
X55100000Y-52800000D03*
X93500000Y-32800000D03*
X47117000Y-27973000D03*
X84700000Y-27900000D03*
X84900000Y-34300000D03*
X99400000Y-35200000D03*
X94600000Y-31900000D03*
X53467000Y-32291000D03*
X53467000Y-30894000D03*
X93700000Y-30900000D03*
X77700000Y-53900000D03*
X62400000Y-53700000D03*
X64900000Y-52800000D03*
X78900000Y-53000000D03*
X90500000Y-56400000D03*
X93600000Y-28100000D03*
X87900000Y-52300000D03*
D46*
X100500000Y-31300000D02*
X100600000Y-31200000D01*
X83305000Y-45475000D02*
X83575000Y-45475000D01*
X85600000Y-47500000D02*
X85600000Y-53900000D01*
X83575000Y-45475000D02*
X85600000Y-47500000D01*
X78100000Y-37100000D02*
X79500000Y-37100000D01*
X87650980Y-38449020D02*
X89200000Y-38449020D01*
X87600000Y-38500000D02*
X87650980Y-38449020D01*
X54500000Y-40200000D02*
X61000000Y-40200000D01*
X89750000Y-53250000D02*
X90700000Y-54200000D01*
X88750000Y-53250000D02*
X89750000Y-53250000D01*
X100500000Y-37000000D02*
X100500000Y-33300000D01*
X98500000Y-39000000D02*
X100500000Y-37000000D01*
X100500000Y-33300000D02*
X101400000Y-32400000D01*
X93100000Y-23400000D02*
X93900000Y-23400000D01*
X83600000Y-54700000D02*
X84800000Y-54700000D01*
X88250000Y-53250000D02*
X88750000Y-53250000D01*
X87600000Y-53900000D02*
X88250000Y-53250000D01*
X85600000Y-53900000D02*
X87600000Y-53900000D01*
X84800000Y-54700000D02*
X85600000Y-53900000D01*
X29210000Y-42070000D02*
X29210000Y-42610000D01*
X29210000Y-42610000D02*
X31780000Y-45180000D01*
X31780000Y-45180000D02*
X31780000Y-45920000D01*
X33550000Y-45100000D02*
X33550000Y-46720000D01*
X33550000Y-46720000D02*
X33470000Y-46800000D01*
X33470000Y-46800000D02*
X32660000Y-46800000D01*
X32660000Y-46800000D02*
X31780000Y-45920000D01*
X93900000Y-23400000D02*
X93900000Y-26000000D01*
X89200000Y-38449020D02*
X89850980Y-38449020D01*
X94750980Y-37400000D02*
X95800000Y-38449020D01*
X90900000Y-37400000D02*
X94750980Y-37400000D01*
X89850980Y-38449020D02*
X90900000Y-37400000D01*
X90700000Y-24300000D02*
X90700000Y-22700000D01*
X83646000Y-66175000D02*
X85754000Y-66175000D01*
X83646000Y-66175000D02*
X82075000Y-66175000D01*
X77257000Y-65600000D02*
X76662000Y-65005000D01*
X81500000Y-65600000D02*
X77257000Y-65600000D01*
X82075000Y-66175000D02*
X81500000Y-65600000D01*
X47117000Y-47658000D02*
X47042000Y-47658000D01*
X56000000Y-31600000D02*
X54900000Y-30500000D01*
X56000000Y-38700000D02*
X56000000Y-31600000D01*
X47042000Y-47658000D02*
X53700000Y-41000000D01*
X53700000Y-41000000D02*
X54500000Y-40200000D01*
X54500000Y-40200000D02*
X56000000Y-38700000D01*
X95800000Y-38449020D02*
X97949020Y-38449020D01*
X97949020Y-38449020D02*
X98500000Y-39000000D01*
X98500000Y-39000000D02*
X98600000Y-39100000D01*
X98600000Y-39100000D02*
X98600000Y-41500000D01*
X47117000Y-47658000D02*
X47117000Y-47693000D01*
X47117000Y-47693000D02*
X49644000Y-50220000D01*
X40451000Y-79408000D02*
X41258000Y-79408000D01*
X63263500Y-76614000D02*
X63263500Y-79344500D01*
X63263500Y-79344500D02*
X63200000Y-79408000D01*
X63200000Y-79408000D02*
X64470000Y-79408000D01*
X61930000Y-79408000D02*
X63200000Y-79408000D01*
X41258000Y-79408000D02*
X41950000Y-80100000D01*
X61295000Y-60170000D02*
X62970000Y-60170000D01*
X62970000Y-60170000D02*
X63100000Y-60300000D01*
X102370000Y-43190000D02*
X102370000Y-45230000D01*
X102370000Y-45230000D02*
X102300000Y-45300000D01*
X97290000Y-43190000D02*
X97290000Y-42810000D01*
X97290000Y-42810000D02*
X98600000Y-41500000D01*
X43677000Y-75619000D02*
X43677000Y-60119000D01*
X43677000Y-75619000D02*
X43223020Y-76072980D01*
X42499000Y-76072980D02*
X43223020Y-76072980D01*
X26317000Y-60358000D02*
X26317000Y-59141000D01*
X26317000Y-59141000D02*
X27767000Y-57691000D01*
X102099000Y-43078000D02*
X102099000Y-43967000D01*
X40451000Y-79408000D02*
X40975000Y-79408000D01*
X42499000Y-77884000D02*
X42499000Y-76072980D01*
X40975000Y-79408000D02*
X42499000Y-77884000D01*
X39832000Y-77503000D02*
X39832000Y-78789000D01*
X39832000Y-78789000D02*
X40451000Y-79408000D01*
X66080000Y-70586000D02*
X66080000Y-71956000D01*
X64470000Y-73566000D02*
X63200000Y-73566000D01*
X66080000Y-71956000D02*
X64470000Y-73566000D01*
X60914000Y-72103000D02*
X60914000Y-72550000D01*
X61930000Y-73566000D02*
X63200000Y-73566000D01*
X60914000Y-72550000D02*
X61930000Y-73566000D01*
X78186000Y-63152000D02*
X76662000Y-63152000D01*
X78186000Y-63152000D02*
X78186000Y-61755000D01*
X78186000Y-61755000D02*
X76662000Y-61755000D01*
X76662000Y-61755000D02*
X75265000Y-61755000D01*
X75265000Y-63152000D02*
X76662000Y-63152000D01*
X76662000Y-65005000D02*
X76662000Y-63152000D01*
X75265000Y-61755000D02*
X75265000Y-63152000D01*
X81615000Y-67740000D02*
X79583000Y-67740000D01*
X81709000Y-71153000D02*
X84028000Y-71153000D01*
X84028000Y-71153000D02*
X84155000Y-71280000D01*
X81709000Y-71153000D02*
X81709000Y-72423000D01*
X102951000Y-60794000D02*
X99213000Y-60794000D01*
X99213000Y-60794000D02*
X99141000Y-60866000D01*
X63263500Y-73629500D02*
X63200000Y-73566000D01*
X63263500Y-73629500D02*
X63263500Y-76614000D01*
X63631800Y-77325200D02*
X63581000Y-77376000D01*
X94700000Y-23400000D02*
X94700000Y-22000000D01*
X94700000Y-22000000D02*
X94196000Y-21496000D01*
X94196000Y-21496000D02*
X91834000Y-21496000D01*
X93900000Y-23400000D02*
X94700000Y-23400000D01*
X90700000Y-23400000D02*
X90700000Y-21995000D01*
X91199000Y-21496000D02*
X91834000Y-21496000D01*
X90700000Y-21995000D02*
X91199000Y-21496000D01*
X90700000Y-23400000D02*
X89900000Y-23400000D01*
X90700000Y-23400000D02*
X90700000Y-22100000D01*
X79583000Y-69740000D02*
X81566000Y-69740000D01*
X81566000Y-69740000D02*
X81709000Y-69883000D01*
D47*
X97000000Y-28400000D02*
X97000000Y-31500000D01*
X96900000Y-28300000D02*
X97000000Y-28400000D01*
X95800000Y-33150000D02*
X95800000Y-32700000D01*
X95800000Y-32700000D02*
X97000000Y-31500000D01*
X101500000Y-80700000D02*
X101327000Y-80527000D01*
X101327000Y-80527000D02*
X101327000Y-76319000D01*
X95839000Y-66526000D02*
X95839000Y-67039000D01*
X95839000Y-67039000D02*
X95844000Y-67034000D01*
X95844000Y-67034000D02*
X102951000Y-67034000D01*
X92283000Y-67200000D02*
X95165000Y-67200000D01*
X95165000Y-67200000D02*
X95839000Y-66526000D01*
X95839000Y-66526000D02*
X95911000Y-66526000D01*
X95911000Y-66526000D02*
X96419000Y-67034000D01*
X27987980Y-76834980D02*
X27005000Y-76834980D01*
X29037000Y-77884000D02*
X27987980Y-76834980D01*
X38562000Y-77503000D02*
X38562000Y-79297000D01*
X38562000Y-79297000D02*
X38451000Y-79408000D01*
X37689000Y-80170000D02*
X38451000Y-79408000D01*
X35387000Y-80170000D02*
X37689000Y-80170000D01*
D46*
X70246000Y-68359000D02*
X70246000Y-67597000D01*
X70246000Y-67597000D02*
X68976000Y-66327000D01*
X68976000Y-66327000D02*
X68976000Y-65076000D01*
X68976000Y-65076000D02*
X67560000Y-63660000D01*
X67560000Y-63660000D02*
X64777000Y-63660000D01*
X64777000Y-63660000D02*
X64777000Y-64475000D01*
X64777000Y-64475000D02*
X66080000Y-65778000D01*
X70246000Y-68359000D02*
X70513000Y-68359000D01*
X70513000Y-68359000D02*
X73360000Y-71206000D01*
X66080000Y-66386000D02*
X66080000Y-65778000D01*
X80124000Y-34980000D02*
X80180000Y-34980000D01*
X80180000Y-34980000D02*
X81400000Y-36200000D01*
X81400000Y-36200000D02*
X81400000Y-40000000D01*
X81400000Y-40000000D02*
X82500000Y-41100000D01*
X77584000Y-34980000D02*
X77584000Y-35616000D01*
X77584000Y-35616000D02*
X75700000Y-37500000D01*
X75700000Y-37500000D02*
X75700000Y-38400000D01*
X75700000Y-38400000D02*
X74700000Y-39400000D01*
X74700000Y-39400000D02*
X74700000Y-45100000D01*
X60300000Y-61600000D02*
X60300000Y-52300000D01*
X60300000Y-52300000D02*
X61100000Y-51500000D01*
X61100000Y-51500000D02*
X61100000Y-45100000D01*
X60770000Y-62070000D02*
X60300000Y-61600000D01*
X61295000Y-62070000D02*
X60770000Y-62070000D01*
X61295000Y-62070000D02*
X61295000Y-63078000D01*
X61295000Y-63078000D02*
X61877000Y-63660000D01*
X83646000Y-66825000D02*
X81025000Y-66825000D01*
X90952000Y-64648000D02*
X90952000Y-63406000D01*
X90600000Y-65000000D02*
X90952000Y-64648000D01*
X81025000Y-66825000D02*
X80800000Y-66600000D01*
X67076000Y-66327000D02*
X67076000Y-66896000D01*
X67076000Y-66896000D02*
X66502000Y-67470000D01*
X66502000Y-67470000D02*
X65867000Y-67470000D01*
X65867000Y-67470000D02*
X65430000Y-67033000D01*
X65430000Y-67033000D02*
X65430000Y-66386000D01*
X65486000Y-66442000D02*
X65430000Y-66386000D01*
D47*
X47513000Y-68547000D02*
X61549000Y-68547000D01*
X46563000Y-67597000D02*
X47513000Y-68547000D01*
X40086000Y-57691000D02*
X42499000Y-60104000D01*
X42499000Y-60104000D02*
X42499000Y-67597000D01*
X40086000Y-57691000D02*
X32847000Y-57691000D01*
X68346000Y-68359000D02*
X61737000Y-68359000D01*
X61737000Y-68359000D02*
X61549000Y-68547000D01*
X61737000Y-68359000D02*
X61549000Y-68547000D01*
D46*
X61549000Y-66647000D02*
X62250000Y-66647000D01*
X64780000Y-67287000D02*
X64780000Y-66386000D01*
X64343000Y-67724000D02*
X64780000Y-67287000D01*
X63327000Y-67724000D02*
X64343000Y-67724000D01*
X62250000Y-66647000D02*
X63327000Y-67724000D01*
X89200000Y-35050000D02*
X89200000Y-36350980D01*
X92500000Y-35050000D02*
X92500000Y-36350980D01*
D47*
X98100000Y-37200000D02*
X98100000Y-29100000D01*
X98100000Y-29100000D02*
X98200000Y-29000000D01*
X99800000Y-45700000D02*
X99800000Y-49000000D01*
X99300000Y-45200000D02*
X99800000Y-45700000D01*
X99830000Y-49030000D02*
X99800000Y-49000000D01*
X99830000Y-50810000D02*
X99830000Y-49030000D01*
X104910000Y-49010000D02*
X104900000Y-49000000D01*
X104910000Y-49010000D02*
X104910000Y-50810000D01*
X99830000Y-50810000D02*
X99830000Y-50280000D01*
X104910000Y-50250000D02*
X104910000Y-50810000D01*
X104575500Y-50126500D02*
X104575500Y-50698000D01*
D46*
X83646000Y-67475000D02*
X85754000Y-67475000D01*
X85754000Y-67475000D02*
X85754000Y-68919000D01*
X85754000Y-68919000D02*
X84663000Y-70010000D01*
X82631000Y-68740000D02*
X75265000Y-68740000D01*
X82631000Y-68740000D02*
X83901000Y-70010000D01*
X83901000Y-70010000D02*
X84663000Y-70010000D01*
X84663000Y-70010000D02*
X85806000Y-71153000D01*
X87109000Y-71153000D02*
X85806000Y-71153000D01*
X74831000Y-68306000D02*
X73360000Y-68306000D01*
X75265000Y-68740000D02*
X74831000Y-68306000D01*
X89100000Y-57850000D02*
X88550000Y-57850000D01*
X88550000Y-57850000D02*
X86850000Y-56150000D01*
X86850000Y-56150000D02*
X86850000Y-54550000D01*
X89100000Y-57850000D02*
X94650000Y-57850000D01*
X94600000Y-57800000D02*
X94600000Y-57900000D01*
X94650000Y-57850000D02*
X94600000Y-57800000D01*
X80765000Y-39125000D02*
X80765000Y-37865000D01*
X80765000Y-37865000D02*
X80700000Y-37800000D01*
X79495000Y-39125000D02*
X80765000Y-39125000D01*
X77800000Y-43650000D02*
X80450000Y-43650000D01*
X82035000Y-45235000D02*
X82035000Y-45475000D01*
X80450000Y-43650000D02*
X82035000Y-45235000D01*
X78100000Y-39100000D02*
X78100000Y-43350000D01*
X78100000Y-43350000D02*
X77800000Y-43650000D01*
X78100000Y-39100000D02*
X79470000Y-39100000D01*
X79470000Y-39100000D02*
X79495000Y-39125000D01*
X79470000Y-39100000D02*
X79495000Y-39125000D01*
X90902000Y-61374000D02*
X91126000Y-61374000D01*
X91126000Y-61374000D02*
X94600000Y-57900000D01*
X94600000Y-57900000D02*
X94900000Y-57600000D01*
X94900000Y-57600000D02*
X94900000Y-51900000D01*
X94950000Y-51950000D02*
X94900000Y-51900000D01*
X29210000Y-39530000D02*
X29210000Y-37190000D01*
X29210000Y-37190000D02*
X29500000Y-36900000D01*
X29210000Y-39530000D02*
X29530000Y-39530000D01*
X29530000Y-39530000D02*
X30600000Y-40600000D01*
X30600000Y-40600000D02*
X30600000Y-41400000D01*
X30600000Y-41400000D02*
X31400000Y-42200000D01*
X31400000Y-42200000D02*
X32250000Y-42200000D01*
X32250000Y-42200000D02*
X33550000Y-43500000D01*
X39400000Y-45920000D02*
X39400000Y-46600000D01*
X39400000Y-45920000D02*
X39400000Y-45700000D01*
X39400000Y-45700000D02*
X36200000Y-42500000D01*
X34550000Y-42500000D02*
X33550000Y-43500000D01*
X89200000Y-33150000D02*
X86900000Y-30850000D01*
X86900000Y-27800000D02*
X86900000Y-30850000D01*
X94900000Y-40500000D02*
X94900000Y-51900000D01*
X94400000Y-40000000D02*
X94900000Y-40500000D01*
X89200000Y-33150000D02*
X88550000Y-33150000D01*
X88550000Y-33150000D02*
X84500000Y-37200000D01*
X84500000Y-37200000D02*
X84500000Y-38700000D01*
X90126000Y-61374000D02*
X89500000Y-62000000D01*
X89500000Y-62000000D02*
X89500000Y-66900000D01*
X90902000Y-61374000D02*
X90126000Y-61374000D01*
X87425000Y-66825000D02*
X85754000Y-66825000D01*
X87500000Y-66900000D02*
X87425000Y-66825000D01*
X64900000Y-56850000D02*
X66950000Y-56850000D01*
X68700000Y-38800000D02*
X68600000Y-38700000D01*
X68700000Y-55100000D02*
X68700000Y-38800000D01*
X66950000Y-56850000D02*
X68700000Y-55100000D01*
X62400000Y-56850000D02*
X64900000Y-56850000D01*
X36200000Y-42500000D02*
X34550000Y-42500000D01*
X72504000Y-34980000D02*
X72504000Y-44196000D01*
X72800000Y-69800000D02*
X71200000Y-68200000D01*
X74800000Y-69800000D02*
X72800000Y-69800000D01*
X74800000Y-69800000D02*
X76205000Y-71205000D01*
X71200000Y-45500000D02*
X71200000Y-68200000D01*
X72504000Y-44196000D02*
X71200000Y-45500000D01*
X76662000Y-71205000D02*
X76205000Y-71205000D01*
X76662000Y-71205000D02*
X75805000Y-71205000D01*
X76662000Y-71205000D02*
X75825000Y-71205000D01*
X81107000Y-73693000D02*
X81709000Y-73693000D01*
X74600000Y-60100000D02*
X74600000Y-55600000D01*
X75044000Y-37856000D02*
X75044000Y-34980000D01*
X73800000Y-39100000D02*
X75044000Y-37856000D01*
X73800000Y-54800000D02*
X73800000Y-39100000D01*
X74600000Y-55600000D02*
X73800000Y-54800000D01*
X62800000Y-69629000D02*
X62800000Y-70800000D01*
X64780000Y-70586000D02*
X64780000Y-69939000D01*
X61488000Y-69629000D02*
X60914000Y-70203000D01*
X64470000Y-69629000D02*
X62800000Y-69629000D01*
X62800000Y-69629000D02*
X61488000Y-69629000D01*
X64780000Y-69939000D02*
X64470000Y-69629000D01*
X30029000Y-67724000D02*
X31831000Y-67724000D01*
X37165000Y-66962000D02*
X38369000Y-68166000D01*
X38369000Y-68166000D02*
X38369000Y-68486000D01*
X38562000Y-71153000D02*
X38562000Y-71661000D01*
X38562000Y-71661000D02*
X39197000Y-72296000D01*
X39197000Y-72296000D02*
X42278020Y-72296000D01*
X42278020Y-72296000D02*
X42499000Y-72075020D01*
X38562000Y-71153000D02*
X38562000Y-68679000D01*
X38562000Y-68679000D02*
X38369000Y-68486000D01*
X27005000Y-72837020D02*
X28495980Y-72837020D01*
X34498000Y-72677000D02*
X36022000Y-71153000D01*
X28656000Y-72677000D02*
X34498000Y-72677000D01*
X28495980Y-72837020D02*
X28656000Y-72677000D01*
X27800020Y-72042000D02*
X27005000Y-72837020D01*
X27005000Y-72837020D02*
X27005000Y-67748000D01*
X27005000Y-67748000D02*
X27029000Y-67724000D01*
X31069000Y-71407000D02*
X31069000Y-70772000D01*
X31069000Y-70772000D02*
X33609000Y-68232000D01*
X33609000Y-68232000D02*
X33609000Y-64168000D01*
X33609000Y-64168000D02*
X35006000Y-62771000D01*
X35006000Y-62771000D02*
X36403000Y-62771000D01*
X40467000Y-64398000D02*
X40062000Y-64398000D01*
X40062000Y-64398000D02*
X38435000Y-62771000D01*
X38435000Y-62771000D02*
X36403000Y-62771000D01*
X33609000Y-68232000D02*
X36215000Y-68232000D01*
X36215000Y-68232000D02*
X36469000Y-68486000D01*
X29217000Y-60358000D02*
X29217000Y-60832640D01*
X29217000Y-60832640D02*
X32044360Y-63660000D01*
X32044360Y-63660000D02*
X32339000Y-63660000D01*
X32339000Y-63660000D02*
X34601000Y-61398000D01*
X34601000Y-61398000D02*
X40467000Y-61398000D01*
X32044360Y-63660000D02*
X32019000Y-63660000D01*
X31196000Y-76487000D02*
X33228000Y-76487000D01*
X37292000Y-72423000D02*
X37292000Y-71153000D01*
X33228000Y-76487000D02*
X37292000Y-72423000D01*
X39832000Y-71153000D02*
X39832000Y-67597000D01*
X39832000Y-67597000D02*
X37546000Y-65311000D01*
X37546000Y-65311000D02*
X36403000Y-65311000D01*
X37800000Y-41200000D02*
X39040000Y-41200000D01*
X39040000Y-41200000D02*
X39400000Y-40840000D01*
X37670000Y-39870000D02*
X37670000Y-41070000D01*
X37670000Y-41070000D02*
X37800000Y-41200000D01*
X35970000Y-39820000D02*
X37620000Y-39820000D01*
X37620000Y-39820000D02*
X37670000Y-39870000D01*
X37770000Y-39970000D02*
X37670000Y-39870000D01*
X37620000Y-39820000D02*
X37670000Y-39870000D01*
X104100000Y-37800000D02*
X106300000Y-40000000D01*
X103600000Y-54500000D02*
X103600000Y-47200000D01*
X103600000Y-54500000D02*
X101100000Y-54500000D01*
X103600000Y-47200000D02*
X106300000Y-44500000D01*
X106300000Y-44500000D02*
X106300000Y-40000000D01*
X44900000Y-34350000D02*
X42500000Y-36750000D01*
X44900000Y-29700000D02*
X44900000Y-34350000D01*
X45200000Y-29400000D02*
X44900000Y-29700000D01*
X41910000Y-42070000D02*
X42730000Y-42070000D01*
X42730000Y-42070000D02*
X43400000Y-41400000D01*
X43400000Y-41400000D02*
X43400000Y-37650000D01*
X43400000Y-37650000D02*
X42500000Y-36750000D01*
X35800000Y-41200000D02*
X35700000Y-41200000D01*
X35700000Y-41200000D02*
X34800000Y-40300000D01*
X40600000Y-40760000D02*
X41910000Y-42070000D01*
X40600000Y-40500000D02*
X40600000Y-40760000D01*
X39800000Y-39700000D02*
X40600000Y-40500000D01*
X39200000Y-39700000D02*
X39800000Y-39700000D01*
X38500000Y-39000000D02*
X39200000Y-39700000D01*
X35100000Y-39000000D02*
X38500000Y-39000000D01*
X34800000Y-39300000D02*
X35100000Y-39000000D01*
X34800000Y-40300000D02*
X34800000Y-39300000D01*
X42100000Y-36750000D02*
X42350000Y-36750000D01*
X35600000Y-41200000D02*
X35800000Y-41200000D01*
X98200000Y-53200000D02*
X98200000Y-53700000D01*
X100100000Y-53200000D02*
X100700000Y-53200000D01*
X100700000Y-53200000D02*
X101100000Y-53600000D01*
X101100000Y-53600000D02*
X101100000Y-54500000D01*
X98200000Y-53200000D02*
X100100000Y-53200000D01*
X96146000Y-53111000D02*
X96146000Y-51571000D01*
X96146000Y-51571000D02*
X97019000Y-50698000D01*
X102370000Y-50810000D02*
X102370000Y-52930000D01*
X102370000Y-52930000D02*
X102100000Y-53200000D01*
X102099000Y-50952000D02*
X102099000Y-50698000D01*
X33670000Y-36270000D02*
X36250000Y-36270000D01*
X36250000Y-36270000D02*
X38020000Y-34500000D01*
X38020000Y-34500000D02*
X39020000Y-34500000D01*
X39020000Y-34500000D02*
X39370000Y-34850000D01*
X33620000Y-36220000D02*
X33670000Y-36270000D01*
X29210000Y-44610000D02*
X28910000Y-44610000D01*
X28910000Y-44610000D02*
X27700000Y-43400000D01*
X29500000Y-34900000D02*
X32000000Y-34900000D01*
X28500000Y-35900000D02*
X29500000Y-34900000D01*
X28500000Y-37700000D02*
X28500000Y-35900000D01*
X27700000Y-38500000D02*
X28500000Y-37700000D01*
X27700000Y-43400000D02*
X27700000Y-38500000D01*
X31800000Y-35100000D02*
X32000000Y-34900000D01*
X29210000Y-44610000D02*
X29110000Y-44610000D01*
X35470000Y-48770000D02*
X35470000Y-48470000D01*
X35470000Y-48470000D02*
X34800000Y-47800000D01*
X31300000Y-47100000D02*
X29210000Y-45010000D01*
X32100000Y-47100000D02*
X31300000Y-47100000D01*
X32800000Y-47800000D02*
X32100000Y-47100000D01*
X34800000Y-47800000D02*
X32800000Y-47800000D01*
X29210000Y-45010000D02*
X29210000Y-44610000D01*
X39400000Y-43380000D02*
X39400000Y-44100000D01*
X39400000Y-44100000D02*
X41200000Y-45900000D01*
X41200000Y-45900000D02*
X42600000Y-45900000D01*
X42600000Y-45900000D02*
X43200000Y-46500000D01*
X43200000Y-46500000D02*
X43200000Y-49500000D01*
X43200000Y-49500000D02*
X42500000Y-50200000D01*
X42500000Y-50200000D02*
X40200000Y-50200000D01*
X40200000Y-50200000D02*
X39400000Y-51000000D01*
X39400000Y-51000000D02*
X39400000Y-53540000D01*
X35470000Y-48770000D02*
X37170000Y-48770000D01*
X37170000Y-48770000D02*
X39400000Y-51000000D01*
X33470000Y-48370000D02*
X31870000Y-48370000D01*
X31870000Y-48370000D02*
X31780000Y-48460000D01*
X33620000Y-49970000D02*
X33620000Y-48520000D01*
X33620000Y-48520000D02*
X33470000Y-48370000D01*
X31780000Y-53540000D02*
X31780000Y-51000000D01*
X33470000Y-51570000D02*
X32350000Y-51570000D01*
X32350000Y-51570000D02*
X31780000Y-51000000D01*
X35470000Y-51970000D02*
X35470000Y-53680000D01*
X35470000Y-53680000D02*
X35450000Y-53700000D01*
X35470000Y-51970000D02*
X35470000Y-50420000D01*
X35470000Y-50420000D02*
X35520000Y-50370000D01*
X34000000Y-34900000D02*
X34000000Y-33500000D01*
X34000000Y-34900000D02*
X35720000Y-34900000D01*
X35720000Y-34900000D02*
X36120000Y-34500000D01*
X35920000Y-34700000D02*
X36120000Y-34500000D01*
X87900000Y-54900000D02*
X87900000Y-55500000D01*
X72504000Y-57096000D02*
X72500000Y-57100000D01*
X72504000Y-50220000D02*
X72504000Y-57096000D01*
X87900000Y-54900000D02*
X87900000Y-54300000D01*
X87900000Y-54300000D02*
X88300000Y-53900000D01*
X88300000Y-53900000D02*
X88750000Y-53900000D01*
X54724000Y-50220000D02*
X54724000Y-47824000D01*
X54724000Y-47824000D02*
X54400000Y-47500000D01*
X101100000Y-47100000D02*
X101100000Y-40900000D01*
X57264000Y-50220000D02*
X57264000Y-47164000D01*
X57264000Y-47164000D02*
X57200000Y-47100000D01*
X96100000Y-46700000D02*
X96100000Y-41650000D01*
X96100000Y-41650000D02*
X97650000Y-40100000D01*
X99830000Y-43190000D02*
X99830000Y-40380000D01*
X99830000Y-40380000D02*
X99550000Y-40100000D01*
X102750000Y-40800000D02*
X103200000Y-40800000D01*
X103600000Y-45600000D02*
X103600000Y-41200000D01*
X103600000Y-41200000D02*
X103200000Y-40800000D01*
X59804000Y-46704000D02*
X59800000Y-46700000D01*
X59804000Y-46704000D02*
X59804000Y-50220000D01*
X104910000Y-43190000D02*
X104910000Y-41060000D01*
X104910000Y-41060000D02*
X104650000Y-40800000D01*
X35470000Y-46800000D02*
X37740000Y-46800000D01*
X37740000Y-46800000D02*
X39400000Y-48460000D01*
X35450000Y-43500000D02*
X35450000Y-45100000D01*
X35450000Y-45100000D02*
X35470000Y-45120000D01*
X35470000Y-45120000D02*
X35470000Y-46800000D01*
D47*
X91800000Y-42700000D02*
X93000000Y-41500000D01*
X91800000Y-49200000D02*
X91800000Y-42700000D01*
X91700000Y-49300000D02*
X91800000Y-49200000D01*
X26660000Y-63660000D02*
X25200000Y-62200000D01*
X25200000Y-62200000D02*
X25200000Y-55900000D01*
X27043100Y-63660000D02*
X26660000Y-63660000D01*
D46*
X71247000Y-32653000D02*
X73400000Y-30500000D01*
X67967000Y-34980000D02*
X69342000Y-36355000D01*
X71247000Y-35720000D02*
X71247000Y-32653000D01*
X70612000Y-36355000D02*
X71247000Y-35720000D01*
X69342000Y-36355000D02*
X70612000Y-36355000D01*
X91500000Y-29700000D02*
X91500000Y-23400000D01*
X90900000Y-30300000D02*
X91500000Y-29700000D01*
X67424000Y-34980000D02*
X67967000Y-34980000D01*
X89675000Y-25814000D02*
X89675000Y-27025000D01*
X69964000Y-32236000D02*
X69964000Y-34980000D01*
X70700000Y-31500000D02*
X69964000Y-32236000D01*
X87800000Y-28900000D02*
X87800000Y-30300000D01*
X89675000Y-27025000D02*
X87800000Y-28900000D01*
X41727000Y-82456000D02*
X45039000Y-79144000D01*
X45039000Y-79144000D02*
X45039000Y-64311000D01*
X45039000Y-64311000D02*
X56475000Y-52875000D01*
X30307000Y-80551000D02*
X32212000Y-82456000D01*
X32212000Y-82456000D02*
X41727000Y-82456000D01*
X34371000Y-76487000D02*
X36276000Y-76487000D01*
X30307000Y-80551000D02*
X34371000Y-76487000D01*
X36276000Y-76487000D02*
X37292000Y-77503000D01*
X55100000Y-52800000D02*
X44648000Y-63252000D01*
X44648000Y-63252000D02*
X44648000Y-78748000D01*
X41452000Y-81944000D02*
X34113000Y-81944000D01*
X34113000Y-81944000D02*
X32847000Y-80678000D01*
X44648000Y-78748000D02*
X41452000Y-81944000D01*
X36022000Y-77503000D02*
X35895000Y-77503000D01*
X35895000Y-77503000D02*
X32847000Y-80551000D01*
X32847000Y-80551000D02*
X32847000Y-80678000D01*
X95800000Y-35050000D02*
X95800000Y-36350980D01*
X92500000Y-33150000D02*
X93450000Y-33150000D01*
X93500000Y-33100000D02*
X93500000Y-32800000D01*
X93450000Y-33150000D02*
X93500000Y-33100000D01*
X47117000Y-40038000D02*
X47117000Y-27973000D01*
X97100000Y-23400000D02*
X97100000Y-26600000D01*
X84700000Y-34100000D02*
X84700000Y-27900000D01*
X84900000Y-34300000D02*
X84700000Y-34100000D01*
X99400000Y-28900000D02*
X99400000Y-35200000D01*
X97100000Y-26600000D02*
X99400000Y-28900000D01*
X94600000Y-31900000D02*
X94600000Y-29300000D01*
X47752000Y-45118000D02*
X53467000Y-39403000D01*
X53467000Y-32291000D02*
X53467000Y-39403000D01*
X96300000Y-27600000D02*
X96300000Y-23400000D01*
X94600000Y-29300000D02*
X96300000Y-27600000D01*
X47117000Y-45118000D02*
X47752000Y-45118000D01*
X95500000Y-23400000D02*
X95500000Y-27700000D01*
X50927000Y-39022000D02*
X50927000Y-33434000D01*
X50927000Y-39022000D02*
X47371000Y-42578000D01*
X50927000Y-33434000D02*
X53467000Y-30894000D01*
X94200000Y-30400000D02*
X93700000Y-30900000D01*
X94200000Y-29000000D02*
X94200000Y-30400000D01*
X95500000Y-27700000D02*
X94200000Y-29000000D01*
X47117000Y-42578000D02*
X47371000Y-42578000D01*
X62400000Y-53700000D02*
X62400000Y-54950000D01*
X62344000Y-50220000D02*
X62344000Y-53644000D01*
X62344000Y-53644000D02*
X62400000Y-53700000D01*
X83646000Y-59846000D02*
X77700000Y-53900000D01*
X62300000Y-54850000D02*
X62400000Y-54950000D01*
X83646000Y-59846000D02*
X83646000Y-65525000D01*
X64900000Y-52800000D02*
X64900000Y-54950000D01*
X85754000Y-59854000D02*
X78900000Y-53000000D01*
X85754000Y-65525000D02*
X85754000Y-59854000D01*
X64884000Y-52784000D02*
X64884000Y-50220000D01*
X64900000Y-52800000D02*
X64884000Y-52784000D01*
X39400000Y-38300000D02*
X40680000Y-38300000D01*
X40680000Y-38300000D02*
X41910000Y-39530000D01*
X35970000Y-37920000D02*
X37620000Y-37920000D01*
X37620000Y-37920000D02*
X37670000Y-37870000D01*
X37670000Y-37870000D02*
X38970000Y-37870000D01*
X38970000Y-37870000D02*
X39400000Y-38300000D01*
X39370000Y-36750000D02*
X39370000Y-38260000D01*
X39360000Y-38270000D02*
X39370000Y-38260000D01*
X32340000Y-40840000D02*
X33618998Y-42118998D01*
X33618998Y-42118998D02*
X36718998Y-42118998D01*
X32000000Y-36500000D02*
X32000000Y-38080000D01*
X32000000Y-38080000D02*
X31780000Y-38300000D01*
X33550000Y-53700000D02*
X33700000Y-53700000D01*
X33700000Y-53700000D02*
X34800000Y-54800000D01*
X34800000Y-54800000D02*
X39800000Y-54800000D01*
X39800000Y-54800000D02*
X43700000Y-50900000D01*
X43700000Y-50900000D02*
X43700000Y-46400000D01*
X43700000Y-46400000D02*
X41910000Y-44610000D01*
X31780000Y-40840000D02*
X32340000Y-40840000D01*
X39800000Y-42200000D02*
X41910000Y-44310000D01*
X36800000Y-42200000D02*
X39800000Y-42200000D01*
X36718998Y-42118998D02*
X36800000Y-42200000D01*
X41910000Y-44310000D02*
X41910000Y-44610000D01*
X31780000Y-40840000D02*
X31780000Y-38300000D01*
X31650000Y-36250000D02*
X31670000Y-36270000D01*
X31670000Y-38180000D02*
X31750000Y-38260000D01*
X89100000Y-55950000D02*
X89100000Y-54900000D01*
X89100000Y-54900000D02*
X88750000Y-54550000D01*
X89100000Y-55950000D02*
X90050000Y-55950000D01*
X90050000Y-55950000D02*
X90500000Y-56400000D01*
X92300000Y-26800000D02*
X92300000Y-23400000D01*
X92300000Y-26800000D02*
X93600000Y-28100000D01*
X90500000Y-56400000D02*
X90500000Y-56300000D01*
X92300000Y-22600000D02*
X92300000Y-24300000D01*
X86850000Y-53250000D02*
X86950000Y-53250000D01*
X86950000Y-53250000D02*
X87900000Y-52300000D01*
X80765000Y-45475000D02*
X80765000Y-49579000D01*
X80765000Y-49579000D02*
X80124000Y-50220000D01*
X83305000Y-39125000D02*
X83305000Y-43495000D01*
X82600000Y-44200000D02*
X82600000Y-50156000D01*
X83305000Y-43495000D02*
X82600000Y-44200000D01*
X82600000Y-50156000D02*
X82664000Y-50220000D01*
X82035000Y-39125000D02*
X82035000Y-35609000D01*
X82035000Y-35609000D02*
X82664000Y-34980000D01*
X77800000Y-45550000D02*
X79420000Y-45550000D01*
X79420000Y-45550000D02*
X79495000Y-45475000D01*
X75044000Y-50220000D02*
X75044000Y-48306000D01*
X75044000Y-48306000D02*
X77800000Y-45550000D01*
X75044000Y-50220000D02*
X75044000Y-50244000D01*
X77584000Y-50220000D02*
X77620000Y-50220000D01*
X77620000Y-50220000D02*
X79400000Y-52000000D01*
X88400000Y-68592000D02*
X88400000Y-61000000D01*
X87109000Y-69883000D02*
X88400000Y-68592000D01*
X79400000Y-52000000D02*
X88400000Y-61000000D01*
G36*
X107315000Y-82315000D02*
X96425461Y-82315000D01*
X96412624Y-76604750D01*
X99192130Y-76604750D01*
X99192130Y-78895310D01*
X99288803Y-79128699D01*
X99467432Y-79307327D01*
X99700821Y-79404000D01*
X101041250Y-79404000D01*
X101200000Y-79245250D01*
X101200000Y-76446000D01*
X101454000Y-76446000D01*
X101454000Y-79245250D01*
X101612750Y-79404000D01*
X102953179Y-79404000D01*
X103186568Y-79307327D01*
X103365197Y-79128699D01*
X103461870Y-78895310D01*
X103461870Y-76604750D01*
X103303120Y-76446000D01*
X101454000Y-76446000D01*
X101200000Y-76446000D01*
X99350880Y-76446000D01*
X99192130Y-76604750D01*
X96412624Y-76604750D01*
X96406190Y-73742690D01*
X99192130Y-73742690D01*
X99192130Y-76033250D01*
X99350880Y-76192000D01*
X101200000Y-76192000D01*
X101200000Y-73392750D01*
X101454000Y-73392750D01*
X101454000Y-76192000D01*
X103303120Y-76192000D01*
X103461870Y-76033250D01*
X103461870Y-73742690D01*
X103365197Y-73509301D01*
X103186568Y-73330673D01*
X102953179Y-73234000D01*
X101612750Y-73234000D01*
X101454000Y-73392750D01*
X101200000Y-73392750D01*
X101041250Y-73234000D01*
X99700821Y-73234000D01*
X99467432Y-73330673D01*
X99288803Y-73509301D01*
X99192130Y-73742690D01*
X96406190Y-73742690D01*
X96404000Y-72768714D01*
X96393883Y-72719327D01*
X96365349Y-72677767D01*
X96322893Y-72650582D01*
X96276565Y-72642001D01*
X88478963Y-72668713D01*
X88360250Y-72550000D01*
X87236000Y-72550000D01*
X87236000Y-72570000D01*
X86982000Y-72570000D01*
X86982000Y-72550000D01*
X86962000Y-72550000D01*
X86962000Y-72296000D01*
X86982000Y-72296000D01*
X86982000Y-72276000D01*
X87236000Y-72276000D01*
X87236000Y-72296000D01*
X88360250Y-72296000D01*
X88519000Y-72137250D01*
X88519000Y-71996690D01*
X88429194Y-71779878D01*
X88480431Y-71704890D01*
X88531440Y-71453000D01*
X88531440Y-70853000D01*
X88487162Y-70617683D01*
X88423322Y-70518472D01*
X88480431Y-70434890D01*
X88531440Y-70183000D01*
X88531440Y-69583000D01*
X88524344Y-69545287D01*
X88938816Y-69130815D01*
X89039695Y-68979838D01*
X89103996Y-68883605D01*
X89162000Y-68592000D01*
X89162000Y-67880332D01*
X89293223Y-67934820D01*
X89704971Y-67935179D01*
X90085515Y-67777942D01*
X90376919Y-67487046D01*
X90377457Y-67485750D01*
X91023000Y-67485750D01*
X91023000Y-67826309D01*
X91119673Y-68059698D01*
X91298301Y-68238327D01*
X91531690Y-68335000D01*
X91997250Y-68335000D01*
X92156000Y-68176250D01*
X92156000Y-67327000D01*
X92410000Y-67327000D01*
X92410000Y-68176250D01*
X92568750Y-68335000D01*
X93034310Y-68335000D01*
X93267699Y-68238327D01*
X93446327Y-68059698D01*
X93543000Y-67826309D01*
X93543000Y-67485750D01*
X93384250Y-67327000D01*
X92410000Y-67327000D01*
X92156000Y-67327000D01*
X91181750Y-67327000D01*
X91023000Y-67485750D01*
X90377457Y-67485750D01*
X90534820Y-67106777D01*
X90535054Y-66838368D01*
X91023000Y-66838735D01*
X91023000Y-66914250D01*
X91181750Y-67073000D01*
X92156000Y-67073000D01*
X92156000Y-67053000D01*
X92410000Y-67053000D01*
X92410000Y-67073000D01*
X93384250Y-67073000D01*
X93543000Y-66914250D01*
X93543000Y-66840632D01*
X93989000Y-66840967D01*
X93989000Y-67837309D01*
X94085673Y-68070698D01*
X94264301Y-68249327D01*
X94497690Y-68346000D01*
X95553250Y-68346000D01*
X95712000Y-68187250D01*
X95712000Y-66842264D01*
X95966000Y-66842455D01*
X95966000Y-68187250D01*
X96124750Y-68346000D01*
X97180310Y-68346000D01*
X97413699Y-68249327D01*
X97592327Y-68070698D01*
X97689000Y-67837309D01*
X97689000Y-67319750D01*
X100251000Y-67319750D01*
X100251000Y-68345309D01*
X100347673Y-68578698D01*
X100526301Y-68757327D01*
X100759690Y-68854000D01*
X102665250Y-68854000D01*
X102824000Y-68695250D01*
X102824000Y-67161000D01*
X103078000Y-67161000D01*
X103078000Y-68695250D01*
X103236750Y-68854000D01*
X105142310Y-68854000D01*
X105375699Y-68757327D01*
X105554327Y-68578698D01*
X105651000Y-68345309D01*
X105651000Y-67319750D01*
X105492250Y-67161000D01*
X103078000Y-67161000D01*
X102824000Y-67161000D01*
X100409750Y-67161000D01*
X100251000Y-67319750D01*
X97689000Y-67319750D01*
X97689000Y-66843752D01*
X100348503Y-66845753D01*
X100409750Y-66907000D01*
X102824000Y-66907000D01*
X102824000Y-65372750D01*
X103078000Y-65372750D01*
X103078000Y-66907000D01*
X105492250Y-66907000D01*
X105651000Y-66748250D01*
X105651000Y-65722691D01*
X105554327Y-65489302D01*
X105375699Y-65310673D01*
X105142310Y-65214000D01*
X103236750Y-65214000D01*
X103078000Y-65372750D01*
X102824000Y-65372750D01*
X102665250Y-65214000D01*
X100804872Y-65214000D01*
X100806379Y-62610316D01*
X100886000Y-62626440D01*
X105016000Y-62626440D01*
X105251317Y-62582162D01*
X105467441Y-62443090D01*
X105612431Y-62230890D01*
X105663440Y-61979000D01*
X105663440Y-59609000D01*
X105619162Y-59373683D01*
X105480090Y-59157559D01*
X105267890Y-59012569D01*
X105016000Y-58961560D01*
X100886000Y-58961560D01*
X100808484Y-58976146D01*
X100810496Y-55500469D01*
X100893223Y-55534820D01*
X101304971Y-55535179D01*
X101685515Y-55377942D01*
X101801659Y-55262000D01*
X103600000Y-55262000D01*
X103891605Y-55203996D01*
X104138815Y-55038815D01*
X104303996Y-54791605D01*
X104362000Y-54500000D01*
X104362000Y-52473440D01*
X105672000Y-52473440D01*
X105907317Y-52429162D01*
X106123441Y-52290090D01*
X106268431Y-52077890D01*
X106319440Y-51826000D01*
X106319440Y-49794000D01*
X106275162Y-49558683D01*
X106136090Y-49342559D01*
X106104078Y-49320686D01*
X106134785Y-49246734D01*
X106135214Y-48755421D01*
X105947592Y-48301343D01*
X105600485Y-47953629D01*
X105146734Y-47765215D01*
X104655421Y-47764786D01*
X104362000Y-47886026D01*
X104362000Y-47515630D01*
X106838816Y-45038815D01*
X106962679Y-44853440D01*
X107003996Y-44791605D01*
X107062000Y-44500000D01*
X107062000Y-40000000D01*
X107003996Y-39708395D01*
X106838815Y-39461185D01*
X105135037Y-37757407D01*
X105135179Y-37595029D01*
X104977942Y-37214485D01*
X104687046Y-36923081D01*
X104306777Y-36765180D01*
X103895029Y-36764821D01*
X103514485Y-36922058D01*
X103223081Y-37212954D01*
X103065180Y-37593223D01*
X103064821Y-38004971D01*
X103222058Y-38385515D01*
X103512954Y-38676919D01*
X103893223Y-38834820D01*
X104057333Y-38834963D01*
X104724930Y-39502560D01*
X104300000Y-39502560D01*
X104064683Y-39546838D01*
X103848559Y-39685910D01*
X103703569Y-39898110D01*
X103700919Y-39911197D01*
X103564090Y-39698559D01*
X103351890Y-39553569D01*
X103100000Y-39502560D01*
X102400000Y-39502560D01*
X102164683Y-39546838D01*
X101948559Y-39685910D01*
X101803569Y-39898110D01*
X101762878Y-40099046D01*
X101687046Y-40023081D01*
X101306777Y-39865180D01*
X100895029Y-39864821D01*
X100819533Y-39896015D01*
X100820771Y-37756859D01*
X101038815Y-37538815D01*
X101203996Y-37291605D01*
X101219336Y-37214485D01*
X101262000Y-37000000D01*
X101262000Y-33615630D01*
X101442593Y-33435037D01*
X101604971Y-33435179D01*
X101985515Y-33277942D01*
X102245985Y-33017926D01*
X102487293Y-33259655D01*
X103467173Y-33666536D01*
X104528172Y-33667462D01*
X105508761Y-33262291D01*
X106259655Y-32512707D01*
X106666536Y-31532827D01*
X106667462Y-30471828D01*
X106262291Y-29491239D01*
X105512707Y-28740345D01*
X104532827Y-28333464D01*
X103471828Y-28332538D01*
X102491239Y-28737709D01*
X101740345Y-29487293D01*
X101333464Y-30467173D01*
X101332952Y-31053969D01*
X101303996Y-30908396D01*
X101138815Y-30661185D01*
X100891604Y-30496004D01*
X100824984Y-30482753D01*
X100826604Y-27685000D01*
X107315000Y-27685000D01*
X107315000Y-82315000D01*
X107315000Y-82315000D01*
G37*
X107315000Y-82315000D02*
X96425461Y-82315000D01*
X96412624Y-76604750D01*
X99192130Y-76604750D01*
X99192130Y-78895310D01*
X99288803Y-79128699D01*
X99467432Y-79307327D01*
X99700821Y-79404000D01*
X101041250Y-79404000D01*
X101200000Y-79245250D01*
X101200000Y-76446000D01*
X101454000Y-76446000D01*
X101454000Y-79245250D01*
X101612750Y-79404000D01*
X102953179Y-79404000D01*
X103186568Y-79307327D01*
X103365197Y-79128699D01*
X103461870Y-78895310D01*
X103461870Y-76604750D01*
X103303120Y-76446000D01*
X101454000Y-76446000D01*
X101200000Y-76446000D01*
X99350880Y-76446000D01*
X99192130Y-76604750D01*
X96412624Y-76604750D01*
X96406190Y-73742690D01*
X99192130Y-73742690D01*
X99192130Y-76033250D01*
X99350880Y-76192000D01*
X101200000Y-76192000D01*
X101200000Y-73392750D01*
X101454000Y-73392750D01*
X101454000Y-76192000D01*
X103303120Y-76192000D01*
X103461870Y-76033250D01*
X103461870Y-73742690D01*
X103365197Y-73509301D01*
X103186568Y-73330673D01*
X102953179Y-73234000D01*
X101612750Y-73234000D01*
X101454000Y-73392750D01*
X101200000Y-73392750D01*
X101041250Y-73234000D01*
X99700821Y-73234000D01*
X99467432Y-73330673D01*
X99288803Y-73509301D01*
X99192130Y-73742690D01*
X96406190Y-73742690D01*
X96404000Y-72768714D01*
X96393883Y-72719327D01*
X96365349Y-72677767D01*
X96322893Y-72650582D01*
X96276565Y-72642001D01*
X88478963Y-72668713D01*
X88360250Y-72550000D01*
X87236000Y-72550000D01*
X87236000Y-72570000D01*
X86982000Y-72570000D01*
X86982000Y-72550000D01*
X86962000Y-72550000D01*
X86962000Y-72296000D01*
X86982000Y-72296000D01*
X86982000Y-72276000D01*
X87236000Y-72276000D01*
X87236000Y-72296000D01*
X88360250Y-72296000D01*
X88519000Y-72137250D01*
X88519000Y-71996690D01*
X88429194Y-71779878D01*
X88480431Y-71704890D01*
X88531440Y-71453000D01*
X88531440Y-70853000D01*
X88487162Y-70617683D01*
X88423322Y-70518472D01*
X88480431Y-70434890D01*
X88531440Y-70183000D01*
X88531440Y-69583000D01*
X88524344Y-69545287D01*
X88938816Y-69130815D01*
X89039695Y-68979838D01*
X89103996Y-68883605D01*
X89162000Y-68592000D01*
X89162000Y-67880332D01*
X89293223Y-67934820D01*
X89704971Y-67935179D01*
X90085515Y-67777942D01*
X90376919Y-67487046D01*
X90377457Y-67485750D01*
X91023000Y-67485750D01*
X91023000Y-67826309D01*
X91119673Y-68059698D01*
X91298301Y-68238327D01*
X91531690Y-68335000D01*
X91997250Y-68335000D01*
X92156000Y-68176250D01*
X92156000Y-67327000D01*
X92410000Y-67327000D01*
X92410000Y-68176250D01*
X92568750Y-68335000D01*
X93034310Y-68335000D01*
X93267699Y-68238327D01*
X93446327Y-68059698D01*
X93543000Y-67826309D01*
X93543000Y-67485750D01*
X93384250Y-67327000D01*
X92410000Y-67327000D01*
X92156000Y-67327000D01*
X91181750Y-67327000D01*
X91023000Y-67485750D01*
X90377457Y-67485750D01*
X90534820Y-67106777D01*
X90535054Y-66838368D01*
X91023000Y-66838735D01*
X91023000Y-66914250D01*
X91181750Y-67073000D01*
X92156000Y-67073000D01*
X92156000Y-67053000D01*
X92410000Y-67053000D01*
X92410000Y-67073000D01*
X93384250Y-67073000D01*
X93543000Y-66914250D01*
X93543000Y-66840632D01*
X93989000Y-66840967D01*
X93989000Y-67837309D01*
X94085673Y-68070698D01*
X94264301Y-68249327D01*
X94497690Y-68346000D01*
X95553250Y-68346000D01*
X95712000Y-68187250D01*
X95712000Y-66842264D01*
X95966000Y-66842455D01*
X95966000Y-68187250D01*
X96124750Y-68346000D01*
X97180310Y-68346000D01*
X97413699Y-68249327D01*
X97592327Y-68070698D01*
X97689000Y-67837309D01*
X97689000Y-67319750D01*
X100251000Y-67319750D01*
X100251000Y-68345309D01*
X100347673Y-68578698D01*
X100526301Y-68757327D01*
X100759690Y-68854000D01*
X102665250Y-68854000D01*
X102824000Y-68695250D01*
X102824000Y-67161000D01*
X103078000Y-67161000D01*
X103078000Y-68695250D01*
X103236750Y-68854000D01*
X105142310Y-68854000D01*
X105375699Y-68757327D01*
X105554327Y-68578698D01*
X105651000Y-68345309D01*
X105651000Y-67319750D01*
X105492250Y-67161000D01*
X103078000Y-67161000D01*
X102824000Y-67161000D01*
X100409750Y-67161000D01*
X100251000Y-67319750D01*
X97689000Y-67319750D01*
X97689000Y-66843752D01*
X100348503Y-66845753D01*
X100409750Y-66907000D01*
X102824000Y-66907000D01*
X102824000Y-65372750D01*
X103078000Y-65372750D01*
X103078000Y-66907000D01*
X105492250Y-66907000D01*
X105651000Y-66748250D01*
X105651000Y-65722691D01*
X105554327Y-65489302D01*
X105375699Y-65310673D01*
X105142310Y-65214000D01*
X103236750Y-65214000D01*
X103078000Y-65372750D01*
X102824000Y-65372750D01*
X102665250Y-65214000D01*
X100804872Y-65214000D01*
X100806379Y-62610316D01*
X100886000Y-62626440D01*
X105016000Y-62626440D01*
X105251317Y-62582162D01*
X105467441Y-62443090D01*
X105612431Y-62230890D01*
X105663440Y-61979000D01*
X105663440Y-59609000D01*
X105619162Y-59373683D01*
X105480090Y-59157559D01*
X105267890Y-59012569D01*
X105016000Y-58961560D01*
X100886000Y-58961560D01*
X100808484Y-58976146D01*
X100810496Y-55500469D01*
X100893223Y-55534820D01*
X101304971Y-55535179D01*
X101685515Y-55377942D01*
X101801659Y-55262000D01*
X103600000Y-55262000D01*
X103891605Y-55203996D01*
X104138815Y-55038815D01*
X104303996Y-54791605D01*
X104362000Y-54500000D01*
X104362000Y-52473440D01*
X105672000Y-52473440D01*
X105907317Y-52429162D01*
X106123441Y-52290090D01*
X106268431Y-52077890D01*
X106319440Y-51826000D01*
X106319440Y-49794000D01*
X106275162Y-49558683D01*
X106136090Y-49342559D01*
X106104078Y-49320686D01*
X106134785Y-49246734D01*
X106135214Y-48755421D01*
X105947592Y-48301343D01*
X105600485Y-47953629D01*
X105146734Y-47765215D01*
X104655421Y-47764786D01*
X104362000Y-47886026D01*
X104362000Y-47515630D01*
X106838816Y-45038815D01*
X106962679Y-44853440D01*
X107003996Y-44791605D01*
X107062000Y-44500000D01*
X107062000Y-40000000D01*
X107003996Y-39708395D01*
X106838815Y-39461185D01*
X105135037Y-37757407D01*
X105135179Y-37595029D01*
X104977942Y-37214485D01*
X104687046Y-36923081D01*
X104306777Y-36765180D01*
X103895029Y-36764821D01*
X103514485Y-36922058D01*
X103223081Y-37212954D01*
X103065180Y-37593223D01*
X103064821Y-38004971D01*
X103222058Y-38385515D01*
X103512954Y-38676919D01*
X103893223Y-38834820D01*
X104057333Y-38834963D01*
X104724930Y-39502560D01*
X104300000Y-39502560D01*
X104064683Y-39546838D01*
X103848559Y-39685910D01*
X103703569Y-39898110D01*
X103700919Y-39911197D01*
X103564090Y-39698559D01*
X103351890Y-39553569D01*
X103100000Y-39502560D01*
X102400000Y-39502560D01*
X102164683Y-39546838D01*
X101948559Y-39685910D01*
X101803569Y-39898110D01*
X101762878Y-40099046D01*
X101687046Y-40023081D01*
X101306777Y-39865180D01*
X100895029Y-39864821D01*
X100819533Y-39896015D01*
X100820771Y-37756859D01*
X101038815Y-37538815D01*
X101203996Y-37291605D01*
X101219336Y-37214485D01*
X101262000Y-37000000D01*
X101262000Y-33615630D01*
X101442593Y-33435037D01*
X101604971Y-33435179D01*
X101985515Y-33277942D01*
X102245985Y-33017926D01*
X102487293Y-33259655D01*
X103467173Y-33666536D01*
X104528172Y-33667462D01*
X105508761Y-33262291D01*
X106259655Y-32512707D01*
X106666536Y-31532827D01*
X106667462Y-30471828D01*
X106262291Y-29491239D01*
X105512707Y-28740345D01*
X104532827Y-28333464D01*
X103471828Y-28332538D01*
X102491239Y-28737709D01*
X101740345Y-29487293D01*
X101333464Y-30467173D01*
X101332952Y-31053969D01*
X101303996Y-30908396D01*
X101138815Y-30661185D01*
X100891604Y-30496004D01*
X100824984Y-30482753D01*
X100826604Y-27685000D01*
X107315000Y-27685000D01*
X107315000Y-82315000D01*
G36*
X70438000Y-63687972D02*
X70438000Y-67167750D01*
X70373000Y-67232750D01*
X70373000Y-68232000D01*
X70393000Y-68232000D01*
X70393000Y-68486000D01*
X70373000Y-68486000D01*
X70373000Y-69485250D01*
X70531750Y-69644000D01*
X70722309Y-69644000D01*
X70955698Y-69547327D01*
X71134327Y-69368699D01*
X71180236Y-69257866D01*
X72145172Y-70222802D01*
X71971673Y-70396302D01*
X71875000Y-70629691D01*
X71875000Y-70920250D01*
X72033750Y-71079000D01*
X73233000Y-71079000D01*
X73233000Y-71059000D01*
X73487000Y-71059000D01*
X73487000Y-71079000D01*
X73507000Y-71079000D01*
X73507000Y-71333000D01*
X73487000Y-71333000D01*
X73487000Y-72132250D01*
X73645750Y-72291000D01*
X74200000Y-72291000D01*
X74200000Y-72519000D01*
X74210006Y-72568410D01*
X74238447Y-72610035D01*
X74280841Y-72637315D01*
X74327293Y-72646000D01*
X74842270Y-72644813D01*
X74842270Y-73732190D01*
X75001020Y-73890940D01*
X77000000Y-73890940D01*
X77000000Y-73870940D01*
X77254000Y-73870940D01*
X77254000Y-73890940D01*
X77274000Y-73890940D01*
X77274000Y-74144940D01*
X77254000Y-74144940D01*
X77254000Y-74164940D01*
X77000000Y-74164940D01*
X77000000Y-74144940D01*
X75001020Y-74144940D01*
X74842270Y-74303690D01*
X74842270Y-75393930D01*
X74862181Y-75442000D01*
X74377000Y-75442000D01*
X74327590Y-75452006D01*
X74285965Y-75480447D01*
X74258685Y-75522841D01*
X74250001Y-75569393D01*
X74270880Y-82315000D01*
X68029361Y-82315000D01*
X68048023Y-76899750D01*
X68756250Y-76899750D01*
X68756250Y-77940460D01*
X68852923Y-78173849D01*
X69031552Y-78352477D01*
X69264941Y-78449150D01*
X71105750Y-78449150D01*
X71264500Y-78290400D01*
X71264500Y-76741000D01*
X71518500Y-76741000D01*
X71518500Y-78290400D01*
X71677250Y-78449150D01*
X73518059Y-78449150D01*
X73751448Y-78352477D01*
X73930077Y-78173849D01*
X74026750Y-77940460D01*
X74026750Y-76899750D01*
X73868000Y-76741000D01*
X71518500Y-76741000D01*
X71264500Y-76741000D01*
X68915000Y-76741000D01*
X68756250Y-76899750D01*
X68048023Y-76899750D01*
X68053579Y-75287540D01*
X68756250Y-75287540D01*
X68756250Y-76328250D01*
X68915000Y-76487000D01*
X71264500Y-76487000D01*
X71264500Y-74937600D01*
X71518500Y-74937600D01*
X71518500Y-76487000D01*
X73868000Y-76487000D01*
X74026750Y-76328250D01*
X74026750Y-75287540D01*
X73930077Y-75054151D01*
X73751448Y-74875523D01*
X73518059Y-74778850D01*
X71677250Y-74778850D01*
X71518500Y-74937600D01*
X71264500Y-74937600D01*
X71105750Y-74778850D01*
X69264941Y-74778850D01*
X69031552Y-74875523D01*
X68852923Y-75054151D01*
X68756250Y-75287540D01*
X68053579Y-75287540D01*
X68066660Y-71491750D01*
X71875000Y-71491750D01*
X71875000Y-71782309D01*
X71971673Y-72015698D01*
X72150301Y-72194327D01*
X72383690Y-72291000D01*
X73074250Y-72291000D01*
X73233000Y-72132250D01*
X73233000Y-71333000D01*
X72033750Y-71333000D01*
X71875000Y-71491750D01*
X68066660Y-71491750D01*
X68072986Y-69656440D01*
X68696000Y-69656440D01*
X68931317Y-69612162D01*
X69147441Y-69473090D01*
X69292431Y-69260890D01*
X69299191Y-69227510D01*
X69357673Y-69368699D01*
X69536302Y-69547327D01*
X69769691Y-69644000D01*
X69960250Y-69644000D01*
X70119000Y-69485250D01*
X70119000Y-68486000D01*
X70099000Y-68486000D01*
X70099000Y-68232000D01*
X70119000Y-68232000D01*
X70119000Y-67232750D01*
X69961000Y-67074750D01*
X69961000Y-66612750D01*
X69802250Y-66454000D01*
X69103000Y-66454000D01*
X69103000Y-66474000D01*
X68849000Y-66474000D01*
X68849000Y-66454000D01*
X68829000Y-66454000D01*
X68829000Y-66200000D01*
X68849000Y-66200000D01*
X68849000Y-65200750D01*
X69103000Y-65200750D01*
X69103000Y-66200000D01*
X69802250Y-66200000D01*
X69961000Y-66041250D01*
X69961000Y-65550690D01*
X69864327Y-65317301D01*
X69685698Y-65138673D01*
X69452309Y-65042000D01*
X69261750Y-65042000D01*
X69103000Y-65200750D01*
X68849000Y-65200750D01*
X68690250Y-65042000D01*
X68499691Y-65042000D01*
X68266302Y-65138673D01*
X68087941Y-65317033D01*
X68093562Y-63686101D01*
X70438000Y-63687972D01*
X70438000Y-63687972D01*
G37*
X70438000Y-63687972D02*
X70438000Y-67167750D01*
X70373000Y-67232750D01*
X70373000Y-68232000D01*
X70393000Y-68232000D01*
X70393000Y-68486000D01*
X70373000Y-68486000D01*
X70373000Y-69485250D01*
X70531750Y-69644000D01*
X70722309Y-69644000D01*
X70955698Y-69547327D01*
X71134327Y-69368699D01*
X71180236Y-69257866D01*
X72145172Y-70222802D01*
X71971673Y-70396302D01*
X71875000Y-70629691D01*
X71875000Y-70920250D01*
X72033750Y-71079000D01*
X73233000Y-71079000D01*
X73233000Y-71059000D01*
X73487000Y-71059000D01*
X73487000Y-71079000D01*
X73507000Y-71079000D01*
X73507000Y-71333000D01*
X73487000Y-71333000D01*
X73487000Y-72132250D01*
X73645750Y-72291000D01*
X74200000Y-72291000D01*
X74200000Y-72519000D01*
X74210006Y-72568410D01*
X74238447Y-72610035D01*
X74280841Y-72637315D01*
X74327293Y-72646000D01*
X74842270Y-72644813D01*
X74842270Y-73732190D01*
X75001020Y-73890940D01*
X77000000Y-73890940D01*
X77000000Y-73870940D01*
X77254000Y-73870940D01*
X77254000Y-73890940D01*
X77274000Y-73890940D01*
X77274000Y-74144940D01*
X77254000Y-74144940D01*
X77254000Y-74164940D01*
X77000000Y-74164940D01*
X77000000Y-74144940D01*
X75001020Y-74144940D01*
X74842270Y-74303690D01*
X74842270Y-75393930D01*
X74862181Y-75442000D01*
X74377000Y-75442000D01*
X74327590Y-75452006D01*
X74285965Y-75480447D01*
X74258685Y-75522841D01*
X74250001Y-75569393D01*
X74270880Y-82315000D01*
X68029361Y-82315000D01*
X68048023Y-76899750D01*
X68756250Y-76899750D01*
X68756250Y-77940460D01*
X68852923Y-78173849D01*
X69031552Y-78352477D01*
X69264941Y-78449150D01*
X71105750Y-78449150D01*
X71264500Y-78290400D01*
X71264500Y-76741000D01*
X71518500Y-76741000D01*
X71518500Y-78290400D01*
X71677250Y-78449150D01*
X73518059Y-78449150D01*
X73751448Y-78352477D01*
X73930077Y-78173849D01*
X74026750Y-77940460D01*
X74026750Y-76899750D01*
X73868000Y-76741000D01*
X71518500Y-76741000D01*
X71264500Y-76741000D01*
X68915000Y-76741000D01*
X68756250Y-76899750D01*
X68048023Y-76899750D01*
X68053579Y-75287540D01*
X68756250Y-75287540D01*
X68756250Y-76328250D01*
X68915000Y-76487000D01*
X71264500Y-76487000D01*
X71264500Y-74937600D01*
X71518500Y-74937600D01*
X71518500Y-76487000D01*
X73868000Y-76487000D01*
X74026750Y-76328250D01*
X74026750Y-75287540D01*
X73930077Y-75054151D01*
X73751448Y-74875523D01*
X73518059Y-74778850D01*
X71677250Y-74778850D01*
X71518500Y-74937600D01*
X71264500Y-74937600D01*
X71105750Y-74778850D01*
X69264941Y-74778850D01*
X69031552Y-74875523D01*
X68852923Y-75054151D01*
X68756250Y-75287540D01*
X68053579Y-75287540D01*
X68066660Y-71491750D01*
X71875000Y-71491750D01*
X71875000Y-71782309D01*
X71971673Y-72015698D01*
X72150301Y-72194327D01*
X72383690Y-72291000D01*
X73074250Y-72291000D01*
X73233000Y-72132250D01*
X73233000Y-71333000D01*
X72033750Y-71333000D01*
X71875000Y-71491750D01*
X68066660Y-71491750D01*
X68072986Y-69656440D01*
X68696000Y-69656440D01*
X68931317Y-69612162D01*
X69147441Y-69473090D01*
X69292431Y-69260890D01*
X69299191Y-69227510D01*
X69357673Y-69368699D01*
X69536302Y-69547327D01*
X69769691Y-69644000D01*
X69960250Y-69644000D01*
X70119000Y-69485250D01*
X70119000Y-68486000D01*
X70099000Y-68486000D01*
X70099000Y-68232000D01*
X70119000Y-68232000D01*
X70119000Y-67232750D01*
X69961000Y-67074750D01*
X69961000Y-66612750D01*
X69802250Y-66454000D01*
X69103000Y-66454000D01*
X69103000Y-66474000D01*
X68849000Y-66474000D01*
X68849000Y-66454000D01*
X68829000Y-66454000D01*
X68829000Y-66200000D01*
X68849000Y-66200000D01*
X68849000Y-65200750D01*
X69103000Y-65200750D01*
X69103000Y-66200000D01*
X69802250Y-66200000D01*
X69961000Y-66041250D01*
X69961000Y-65550690D01*
X69864327Y-65317301D01*
X69685698Y-65138673D01*
X69452309Y-65042000D01*
X69261750Y-65042000D01*
X69103000Y-65200750D01*
X68849000Y-65200750D01*
X68690250Y-65042000D01*
X68499691Y-65042000D01*
X68266302Y-65138673D01*
X68087941Y-65317033D01*
X68093562Y-63686101D01*
X70438000Y-63687972D01*
G36*
X89992130Y-75833250D02*
X90150880Y-75992000D01*
X92000000Y-75992000D01*
X92000000Y-75972000D01*
X92254000Y-75972000D01*
X92254000Y-75992000D01*
X94103120Y-75992000D01*
X94261870Y-75833250D01*
X94261870Y-73693000D01*
X95448336Y-73693000D01*
X95471184Y-82315000D01*
X79362459Y-82315000D01*
X79411730Y-82196050D01*
X79411730Y-81105810D01*
X79252980Y-80947060D01*
X77254000Y-80947060D01*
X77254000Y-80967060D01*
X77000000Y-80967060D01*
X77000000Y-80947060D01*
X76980000Y-80947060D01*
X76980000Y-80693060D01*
X77000000Y-80693060D01*
X77000000Y-79094130D01*
X77254000Y-79094130D01*
X77254000Y-80693060D01*
X79252980Y-80693060D01*
X79411730Y-80534310D01*
X79411730Y-79444070D01*
X79315057Y-79210681D01*
X79136428Y-79032053D01*
X78903039Y-78935380D01*
X77412750Y-78935380D01*
X77254000Y-79094130D01*
X77000000Y-79094130D01*
X76841250Y-78935380D01*
X75412576Y-78935380D01*
X75404451Y-76646000D01*
X79450189Y-76646000D01*
X79456000Y-80551189D01*
X79466079Y-80600584D01*
X79494582Y-80642166D01*
X79537017Y-80669383D01*
X79583000Y-80678000D01*
X83393000Y-80678000D01*
X83442410Y-80667994D01*
X83484035Y-80639553D01*
X83511315Y-80597159D01*
X83520000Y-80551000D01*
X83520000Y-80090148D01*
X83958190Y-80331649D01*
X84052168Y-80352540D01*
X84282000Y-80231214D01*
X84282000Y-78138000D01*
X84262000Y-78138000D01*
X84262000Y-77884000D01*
X84282000Y-77884000D01*
X84282000Y-77864000D01*
X84536000Y-77864000D01*
X84536000Y-77884000D01*
X84556000Y-77884000D01*
X84556000Y-78138000D01*
X84536000Y-78138000D01*
X84536000Y-80231214D01*
X84765832Y-80352540D01*
X84859810Y-80331649D01*
X85298000Y-80090148D01*
X85298000Y-80551000D01*
X85308006Y-80600410D01*
X85336447Y-80642035D01*
X85378841Y-80669315D01*
X85425000Y-80678000D01*
X88900000Y-80678000D01*
X88949410Y-80667994D01*
X88991035Y-80639553D01*
X89018315Y-80597159D01*
X89027000Y-80551000D01*
X89027000Y-76404750D01*
X89992130Y-76404750D01*
X89992130Y-78695310D01*
X90088803Y-78928699D01*
X90267432Y-79107327D01*
X90500821Y-79204000D01*
X91841250Y-79204000D01*
X92000000Y-79045250D01*
X92000000Y-76246000D01*
X92254000Y-76246000D01*
X92254000Y-79045250D01*
X92412750Y-79204000D01*
X93753179Y-79204000D01*
X93986568Y-79107327D01*
X94165197Y-78928699D01*
X94261870Y-78695310D01*
X94261870Y-76404750D01*
X94103120Y-76246000D01*
X92254000Y-76246000D01*
X92000000Y-76246000D01*
X90150880Y-76246000D01*
X89992130Y-76404750D01*
X89027000Y-76404750D01*
X89027000Y-73693000D01*
X89992130Y-73693000D01*
X89992130Y-75833250D01*
X89992130Y-75833250D01*
G37*
X89992130Y-75833250D02*
X90150880Y-75992000D01*
X92000000Y-75992000D01*
X92000000Y-75972000D01*
X92254000Y-75972000D01*
X92254000Y-75992000D01*
X94103120Y-75992000D01*
X94261870Y-75833250D01*
X94261870Y-73693000D01*
X95448336Y-73693000D01*
X95471184Y-82315000D01*
X79362459Y-82315000D01*
X79411730Y-82196050D01*
X79411730Y-81105810D01*
X79252980Y-80947060D01*
X77254000Y-80947060D01*
X77254000Y-80967060D01*
X77000000Y-80967060D01*
X77000000Y-80947060D01*
X76980000Y-80947060D01*
X76980000Y-80693060D01*
X77000000Y-80693060D01*
X77000000Y-79094130D01*
X77254000Y-79094130D01*
X77254000Y-80693060D01*
X79252980Y-80693060D01*
X79411730Y-80534310D01*
X79411730Y-79444070D01*
X79315057Y-79210681D01*
X79136428Y-79032053D01*
X78903039Y-78935380D01*
X77412750Y-78935380D01*
X77254000Y-79094130D01*
X77000000Y-79094130D01*
X76841250Y-78935380D01*
X75412576Y-78935380D01*
X75404451Y-76646000D01*
X79450189Y-76646000D01*
X79456000Y-80551189D01*
X79466079Y-80600584D01*
X79494582Y-80642166D01*
X79537017Y-80669383D01*
X79583000Y-80678000D01*
X83393000Y-80678000D01*
X83442410Y-80667994D01*
X83484035Y-80639553D01*
X83511315Y-80597159D01*
X83520000Y-80551000D01*
X83520000Y-80090148D01*
X83958190Y-80331649D01*
X84052168Y-80352540D01*
X84282000Y-80231214D01*
X84282000Y-78138000D01*
X84262000Y-78138000D01*
X84262000Y-77884000D01*
X84282000Y-77884000D01*
X84282000Y-77864000D01*
X84536000Y-77864000D01*
X84536000Y-77884000D01*
X84556000Y-77884000D01*
X84556000Y-78138000D01*
X84536000Y-78138000D01*
X84536000Y-80231214D01*
X84765832Y-80352540D01*
X84859810Y-80331649D01*
X85298000Y-80090148D01*
X85298000Y-80551000D01*
X85308006Y-80600410D01*
X85336447Y-80642035D01*
X85378841Y-80669315D01*
X85425000Y-80678000D01*
X88900000Y-80678000D01*
X88949410Y-80667994D01*
X88991035Y-80639553D01*
X89018315Y-80597159D01*
X89027000Y-80551000D01*
X89027000Y-76404750D01*
X89992130Y-76404750D01*
X89992130Y-78695310D01*
X90088803Y-78928699D01*
X90267432Y-79107327D01*
X90500821Y-79204000D01*
X91841250Y-79204000D01*
X92000000Y-79045250D01*
X92000000Y-76246000D01*
X92254000Y-76246000D01*
X92254000Y-79045250D01*
X92412750Y-79204000D01*
X93753179Y-79204000D01*
X93986568Y-79107327D01*
X94165197Y-78928699D01*
X94261870Y-78695310D01*
X94261870Y-76404750D01*
X94103120Y-76246000D01*
X92254000Y-76246000D01*
X92000000Y-76246000D01*
X90150880Y-76246000D01*
X89992130Y-76404750D01*
X89027000Y-76404750D01*
X89027000Y-73693000D01*
X89992130Y-73693000D01*
X89992130Y-75833250D01*
G36*
X80286560Y-71453000D02*
X80330838Y-71688317D01*
X80394678Y-71787528D01*
X80337569Y-71871110D01*
X80286560Y-72123000D01*
X80286560Y-72723000D01*
X80330838Y-72958317D01*
X80389178Y-73048980D01*
X80299000Y-73266690D01*
X80299000Y-73407250D01*
X80457750Y-73566000D01*
X81582000Y-73566000D01*
X81582000Y-73546000D01*
X81836000Y-73546000D01*
X81836000Y-73566000D01*
X81856000Y-73566000D01*
X81856000Y-73820000D01*
X81836000Y-73820000D01*
X81836000Y-74469250D01*
X81994750Y-74628000D01*
X82610309Y-74628000D01*
X82758000Y-74566824D01*
X82758000Y-75931852D01*
X82319810Y-75690351D01*
X82225832Y-75669460D01*
X81996000Y-75790786D01*
X81996000Y-77884000D01*
X82016000Y-77884000D01*
X82016000Y-78138000D01*
X81996000Y-78138000D01*
X81996000Y-78158000D01*
X81742000Y-78158000D01*
X81742000Y-78138000D01*
X80384370Y-78138000D01*
X80384370Y-79038430D01*
X80545982Y-79596906D01*
X80699545Y-79789000D01*
X80218000Y-79789000D01*
X80218000Y-76983570D01*
X80384370Y-76983570D01*
X80384370Y-77884000D01*
X81742000Y-77884000D01*
X81742000Y-75790786D01*
X81512168Y-75669460D01*
X81418190Y-75690351D01*
X80909011Y-75970976D01*
X80545982Y-76425094D01*
X80384370Y-76983570D01*
X80218000Y-76983570D01*
X80218000Y-73978750D01*
X80299000Y-73978750D01*
X80299000Y-74119310D01*
X80395673Y-74352699D01*
X80574302Y-74531327D01*
X80807691Y-74628000D01*
X81423250Y-74628000D01*
X81582000Y-74469250D01*
X81582000Y-73820000D01*
X80457750Y-73820000D01*
X80299000Y-73978750D01*
X80218000Y-73978750D01*
X80218000Y-71969000D01*
X80207994Y-71919590D01*
X80179553Y-71877965D01*
X80137159Y-71850685D01*
X80091000Y-71842000D01*
X78892572Y-71842000D01*
X78897000Y-71831309D01*
X78897000Y-71490750D01*
X78738250Y-71332000D01*
X76789000Y-71332000D01*
X76789000Y-71352000D01*
X76535000Y-71352000D01*
X76535000Y-71332000D01*
X76515000Y-71332000D01*
X76515000Y-71078000D01*
X76535000Y-71078000D01*
X76535000Y-71058000D01*
X76789000Y-71058000D01*
X76789000Y-71078000D01*
X78738250Y-71078000D01*
X78897000Y-70919250D01*
X78897000Y-70875087D01*
X78958000Y-70887440D01*
X80208000Y-70887440D01*
X80286560Y-70872658D01*
X80286560Y-71453000D01*
X80286560Y-71453000D01*
G37*
X80286560Y-71453000D02*
X80330838Y-71688317D01*
X80394678Y-71787528D01*
X80337569Y-71871110D01*
X80286560Y-72123000D01*
X80286560Y-72723000D01*
X80330838Y-72958317D01*
X80389178Y-73048980D01*
X80299000Y-73266690D01*
X80299000Y-73407250D01*
X80457750Y-73566000D01*
X81582000Y-73566000D01*
X81582000Y-73546000D01*
X81836000Y-73546000D01*
X81836000Y-73566000D01*
X81856000Y-73566000D01*
X81856000Y-73820000D01*
X81836000Y-73820000D01*
X81836000Y-74469250D01*
X81994750Y-74628000D01*
X82610309Y-74628000D01*
X82758000Y-74566824D01*
X82758000Y-75931852D01*
X82319810Y-75690351D01*
X82225832Y-75669460D01*
X81996000Y-75790786D01*
X81996000Y-77884000D01*
X82016000Y-77884000D01*
X82016000Y-78138000D01*
X81996000Y-78138000D01*
X81996000Y-78158000D01*
X81742000Y-78158000D01*
X81742000Y-78138000D01*
X80384370Y-78138000D01*
X80384370Y-79038430D01*
X80545982Y-79596906D01*
X80699545Y-79789000D01*
X80218000Y-79789000D01*
X80218000Y-76983570D01*
X80384370Y-76983570D01*
X80384370Y-77884000D01*
X81742000Y-77884000D01*
X81742000Y-75790786D01*
X81512168Y-75669460D01*
X81418190Y-75690351D01*
X80909011Y-75970976D01*
X80545982Y-76425094D01*
X80384370Y-76983570D01*
X80218000Y-76983570D01*
X80218000Y-73978750D01*
X80299000Y-73978750D01*
X80299000Y-74119310D01*
X80395673Y-74352699D01*
X80574302Y-74531327D01*
X80807691Y-74628000D01*
X81423250Y-74628000D01*
X81582000Y-74469250D01*
X81582000Y-73820000D01*
X80457750Y-73820000D01*
X80299000Y-73978750D01*
X80218000Y-73978750D01*
X80218000Y-71969000D01*
X80207994Y-71919590D01*
X80179553Y-71877965D01*
X80137159Y-71850685D01*
X80091000Y-71842000D01*
X78892572Y-71842000D01*
X78897000Y-71831309D01*
X78897000Y-71490750D01*
X78738250Y-71332000D01*
X76789000Y-71332000D01*
X76789000Y-71352000D01*
X76535000Y-71352000D01*
X76535000Y-71332000D01*
X76515000Y-71332000D01*
X76515000Y-71078000D01*
X76535000Y-71078000D01*
X76535000Y-71058000D01*
X76789000Y-71058000D01*
X76789000Y-71078000D01*
X78738250Y-71078000D01*
X78897000Y-70919250D01*
X78897000Y-70875087D01*
X78958000Y-70887440D01*
X80208000Y-70887440D01*
X80286560Y-70872658D01*
X80286560Y-71453000D01*
G36*
X85857750Y-73543000D02*
X86736000Y-73543000D01*
X86736000Y-73439000D01*
X87482000Y-73439000D01*
X87482000Y-73543000D01*
X87502000Y-73543000D01*
X87502000Y-73843000D01*
X87482000Y-73843000D01*
X87482000Y-74469250D01*
X87640750Y-74628000D01*
X87838000Y-74628000D01*
X87838000Y-75890212D01*
X87735041Y-75797028D01*
X87542206Y-75749602D01*
X87322000Y-75838238D01*
X87322000Y-77638000D01*
X87342000Y-77638000D01*
X87342000Y-78384000D01*
X87322000Y-78384000D01*
X87322000Y-78404000D01*
X86576000Y-78404000D01*
X86576000Y-78384000D01*
X86556000Y-78384000D01*
X86556000Y-77638000D01*
X86576000Y-77638000D01*
X86576000Y-75838238D01*
X86355794Y-75749602D01*
X86162959Y-75797028D01*
X86060000Y-75890212D01*
X86060000Y-75090000D01*
X86049994Y-75040590D01*
X86021553Y-74998965D01*
X85979159Y-74971685D01*
X85933000Y-74963000D01*
X83520000Y-74963000D01*
X83520000Y-74001750D01*
X85699000Y-74001750D01*
X85699000Y-74119310D01*
X85795673Y-74352699D01*
X85974302Y-74531327D01*
X86207691Y-74628000D01*
X86577250Y-74628000D01*
X86736000Y-74469250D01*
X86736000Y-73843000D01*
X85857750Y-73843000D01*
X85699000Y-74001750D01*
X83520000Y-74001750D01*
X83520000Y-73439000D01*
X85753750Y-73439000D01*
X85857750Y-73543000D01*
X85857750Y-73543000D01*
G37*
X85857750Y-73543000D02*
X86736000Y-73543000D01*
X86736000Y-73439000D01*
X87482000Y-73439000D01*
X87482000Y-73543000D01*
X87502000Y-73543000D01*
X87502000Y-73843000D01*
X87482000Y-73843000D01*
X87482000Y-74469250D01*
X87640750Y-74628000D01*
X87838000Y-74628000D01*
X87838000Y-75890212D01*
X87735041Y-75797028D01*
X87542206Y-75749602D01*
X87322000Y-75838238D01*
X87322000Y-77638000D01*
X87342000Y-77638000D01*
X87342000Y-78384000D01*
X87322000Y-78384000D01*
X87322000Y-78404000D01*
X86576000Y-78404000D01*
X86576000Y-78384000D01*
X86556000Y-78384000D01*
X86556000Y-77638000D01*
X86576000Y-77638000D01*
X86576000Y-75838238D01*
X86355794Y-75749602D01*
X86162959Y-75797028D01*
X86060000Y-75890212D01*
X86060000Y-75090000D01*
X86049994Y-75040590D01*
X86021553Y-74998965D01*
X85979159Y-74971685D01*
X85933000Y-74963000D01*
X83520000Y-74963000D01*
X83520000Y-74001750D01*
X85699000Y-74001750D01*
X85699000Y-74119310D01*
X85795673Y-74352699D01*
X85974302Y-74531327D01*
X86207691Y-74628000D01*
X86577250Y-74628000D01*
X86736000Y-74469250D01*
X86736000Y-73843000D01*
X85857750Y-73843000D01*
X85699000Y-74001750D01*
X83520000Y-74001750D01*
X83520000Y-73439000D01*
X85753750Y-73439000D01*
X85857750Y-73543000D01*
G36*
X46082180Y-27766223D02*
X46081821Y-28177971D01*
X46239058Y-28558515D01*
X46355000Y-28674659D01*
X46355000Y-38526960D01*
X46101000Y-38526960D01*
X45865683Y-38571238D01*
X45649559Y-38710310D01*
X45504569Y-38922510D01*
X45453560Y-39174400D01*
X45453560Y-40901600D01*
X45497838Y-41136917D01*
X45636910Y-41353041D01*
X45849110Y-41498031D01*
X45890439Y-41506400D01*
X45872585Y-41518330D01*
X45547729Y-42004511D01*
X45433655Y-42578000D01*
X45547729Y-43151489D01*
X45872585Y-43637670D01*
X46187366Y-43848000D01*
X45872585Y-44058330D01*
X45547729Y-44544511D01*
X45433655Y-45118000D01*
X45547729Y-45691489D01*
X45872585Y-46177670D01*
X46182069Y-46384461D01*
X45766268Y-46755964D01*
X45512291Y-47283209D01*
X45509642Y-47298974D01*
X45630783Y-47531000D01*
X46990000Y-47531000D01*
X46990000Y-47511000D01*
X47244000Y-47511000D01*
X47244000Y-47531000D01*
X48603217Y-47531000D01*
X48724358Y-47298974D01*
X48721709Y-47283209D01*
X48467732Y-46755964D01*
X48051931Y-46384461D01*
X48361415Y-46177670D01*
X48686271Y-45691489D01*
X48793073Y-45154557D01*
X54005816Y-39941815D01*
X54170997Y-39694604D01*
X54229000Y-39403000D01*
X54229000Y-36490670D01*
X54407341Y-36564724D01*
X55037893Y-36565275D01*
X55620657Y-36324481D01*
X55994261Y-35951529D01*
X56292471Y-36250261D01*
X55921086Y-36620997D01*
X55679276Y-37203341D01*
X55678725Y-37833893D01*
X55919519Y-38416657D01*
X56364997Y-38862914D01*
X56947341Y-39104724D01*
X57577893Y-39105275D01*
X58160657Y-38864481D01*
X58534261Y-38491529D01*
X58904997Y-38862914D01*
X59487341Y-39104724D01*
X60117893Y-39105275D01*
X60700657Y-38864481D01*
X61074261Y-38491529D01*
X61444997Y-38862914D01*
X62027341Y-39104724D01*
X62657893Y-39105275D01*
X63240657Y-38864481D01*
X63686914Y-38419003D01*
X63928724Y-37836659D01*
X63929275Y-37206107D01*
X63688481Y-36623343D01*
X63315529Y-36249739D01*
X63614261Y-35951529D01*
X63984997Y-36322914D01*
X64567341Y-36564724D01*
X65197893Y-36565275D01*
X65780657Y-36324481D01*
X66154261Y-35951529D01*
X66524997Y-36322914D01*
X67107341Y-36564724D01*
X67737893Y-36565275D01*
X68259231Y-36349862D01*
X68803185Y-36893816D01*
X68951377Y-36992834D01*
X69050395Y-37058996D01*
X69342000Y-37117000D01*
X70612000Y-37117000D01*
X70903605Y-37058996D01*
X71150815Y-36893815D01*
X71687471Y-36357160D01*
X71742000Y-36379803D01*
X71742000Y-43880369D01*
X70661185Y-44961185D01*
X70496004Y-45208395D01*
X70438000Y-45500000D01*
X70438000Y-48700610D01*
X70280659Y-48635276D01*
X69650107Y-48634725D01*
X69462000Y-48712449D01*
X69462000Y-39301939D01*
X69476919Y-39287046D01*
X69634820Y-38906777D01*
X69635179Y-38495029D01*
X69477942Y-38114485D01*
X69187046Y-37823081D01*
X68806777Y-37665180D01*
X68395029Y-37664821D01*
X68014485Y-37822058D01*
X67723081Y-38112954D01*
X67565180Y-38493223D01*
X67564821Y-38904971D01*
X67722058Y-39285515D01*
X67938000Y-39501834D01*
X67938000Y-48717219D01*
X67740659Y-48635276D01*
X67110107Y-48634725D01*
X66527343Y-48875519D01*
X66153739Y-49248471D01*
X65783003Y-48877086D01*
X65200659Y-48635276D01*
X64570107Y-48634725D01*
X63987343Y-48875519D01*
X63613739Y-49248471D01*
X63243003Y-48877086D01*
X62660659Y-48635276D01*
X62030107Y-48634725D01*
X61862000Y-48704186D01*
X61862000Y-45801765D01*
X61976919Y-45687046D01*
X62134820Y-45306777D01*
X62135179Y-44895029D01*
X61977942Y-44514485D01*
X61687046Y-44223081D01*
X61306777Y-44065180D01*
X60895029Y-44064821D01*
X60514485Y-44222058D01*
X60223081Y-44512954D01*
X60065180Y-44893223D01*
X60064821Y-45304971D01*
X60222058Y-45685515D01*
X60338000Y-45801659D01*
X60338000Y-45802715D01*
X60006777Y-45665180D01*
X59595029Y-45664821D01*
X59214485Y-45822058D01*
X58923081Y-46112954D01*
X58765180Y-46493223D01*
X58764821Y-46904971D01*
X58922058Y-47285515D01*
X59042000Y-47405666D01*
X59042000Y-48819880D01*
X58907343Y-48875519D01*
X58533739Y-49248471D01*
X58163003Y-48877086D01*
X58026000Y-48820197D01*
X58026000Y-47737876D01*
X58076919Y-47687046D01*
X58234820Y-47306777D01*
X58235179Y-46895029D01*
X58077942Y-46514485D01*
X57787046Y-46223081D01*
X57406777Y-46065180D01*
X56995029Y-46064821D01*
X56614485Y-46222058D01*
X56323081Y-46512954D01*
X56165180Y-46893223D01*
X56164821Y-47304971D01*
X56322058Y-47685515D01*
X56502000Y-47865771D01*
X56502000Y-48819880D01*
X56367343Y-48875519D01*
X55993739Y-49248471D01*
X55623003Y-48877086D01*
X55486000Y-48820197D01*
X55486000Y-47824000D01*
X55434942Y-47567313D01*
X55435179Y-47295029D01*
X55277942Y-46914485D01*
X54987046Y-46623081D01*
X54606777Y-46465180D01*
X54195029Y-46464821D01*
X53814485Y-46622058D01*
X53523081Y-46912954D01*
X53365180Y-47293223D01*
X53364821Y-47704971D01*
X53522058Y-48085515D01*
X53812954Y-48376919D01*
X53962000Y-48438808D01*
X53962000Y-48819880D01*
X53827343Y-48875519D01*
X53453739Y-49248471D01*
X53083003Y-48877086D01*
X52500659Y-48635276D01*
X51870107Y-48634725D01*
X51287343Y-48875519D01*
X50847884Y-49314211D01*
X50760350Y-49283255D01*
X49823605Y-50220000D01*
X50760350Y-51156745D01*
X50848439Y-51125593D01*
X51284997Y-51562914D01*
X51867341Y-51804724D01*
X52497893Y-51805275D01*
X53080657Y-51564481D01*
X53454261Y-51191529D01*
X53824997Y-51562914D01*
X54407341Y-51804724D01*
X54797631Y-51805065D01*
X54514485Y-51922058D01*
X54223081Y-52212954D01*
X54065180Y-52593223D01*
X54065037Y-52757333D01*
X44109185Y-62713185D01*
X43944004Y-62960395D01*
X43886000Y-63252000D01*
X43886000Y-70408834D01*
X43863520Y-70373899D01*
X43651320Y-70228909D01*
X43399430Y-70177900D01*
X41598570Y-70177900D01*
X41363253Y-70222178D01*
X41147129Y-70361250D01*
X41002139Y-70573450D01*
X40951130Y-70825340D01*
X40951130Y-71534000D01*
X40733440Y-71534000D01*
X40733440Y-70581500D01*
X40689162Y-70346183D01*
X40594000Y-70198297D01*
X40594000Y-67597000D01*
X40535996Y-67305395D01*
X40505376Y-67259569D01*
X40370815Y-67058184D01*
X38778682Y-65466052D01*
X38796019Y-65378896D01*
X38965110Y-65494431D01*
X39217000Y-65545440D01*
X41614000Y-65545440D01*
X41614000Y-66735426D01*
X41452629Y-66896515D01*
X41264215Y-67350266D01*
X41263786Y-67841579D01*
X41451408Y-68295657D01*
X41798515Y-68643371D01*
X42252266Y-68831785D01*
X42743579Y-68832214D01*
X43197657Y-68644592D01*
X43545371Y-68297485D01*
X43733785Y-67843734D01*
X43734214Y-67352421D01*
X43546592Y-66898343D01*
X43384000Y-66735467D01*
X43384000Y-60104000D01*
X43316633Y-59765325D01*
X43124790Y-59478210D01*
X43124787Y-59478208D01*
X40711790Y-57065210D01*
X40686870Y-57048559D01*
X40424675Y-56873367D01*
X40368484Y-56862190D01*
X40086000Y-56805999D01*
X40085995Y-56806000D01*
X34146824Y-56806000D01*
X33906670Y-56446585D01*
X33420489Y-56121729D01*
X32847000Y-56007655D01*
X32273511Y-56121729D01*
X31787330Y-56446585D01*
X31577000Y-56761366D01*
X31366670Y-56446585D01*
X30880489Y-56121729D01*
X30307000Y-56007655D01*
X29733511Y-56121729D01*
X29247330Y-56446585D01*
X29232500Y-56468780D01*
X29168927Y-56315302D01*
X28990299Y-56136673D01*
X28756910Y-56040000D01*
X28052750Y-56040000D01*
X27894000Y-56198750D01*
X27894000Y-57564000D01*
X27914000Y-57564000D01*
X27914000Y-57818000D01*
X27894000Y-57818000D01*
X27894000Y-59183250D01*
X28052750Y-59342000D01*
X28153176Y-59342000D01*
X28119560Y-59508000D01*
X28119560Y-61208000D01*
X28163838Y-61443317D01*
X28302910Y-61659441D01*
X28515110Y-61804431D01*
X28767000Y-61855440D01*
X29162170Y-61855440D01*
X30477645Y-63170915D01*
X30410154Y-63333453D01*
X30409586Y-63983694D01*
X30657898Y-64584655D01*
X31117287Y-65044846D01*
X31717813Y-65294206D01*
X32368054Y-65294774D01*
X32847000Y-65096878D01*
X32847000Y-67472612D01*
X32708942Y-67138485D01*
X32418046Y-66847081D01*
X32037777Y-66689180D01*
X31626029Y-66688821D01*
X31245485Y-66846058D01*
X31176440Y-66914983D01*
X31176440Y-66474000D01*
X31132162Y-66238683D01*
X30993090Y-66022559D01*
X30780890Y-65877569D01*
X30529000Y-65826560D01*
X29529000Y-65826560D01*
X29293683Y-65870838D01*
X29077559Y-66009910D01*
X28932569Y-66222110D01*
X28881560Y-66474000D01*
X28881560Y-68974000D01*
X28925838Y-69209317D01*
X29064910Y-69425441D01*
X29277110Y-69570431D01*
X29529000Y-69621440D01*
X30529000Y-69621440D01*
X30764317Y-69577162D01*
X30980441Y-69438090D01*
X31125431Y-69225890D01*
X31176440Y-68974000D01*
X31176440Y-68533287D01*
X31243954Y-68600919D01*
X31624223Y-68758820D01*
X32004218Y-68759151D01*
X30841000Y-69922370D01*
X30121844Y-69922370D01*
X29553701Y-70035381D01*
X29072052Y-70357208D01*
X28750225Y-70838857D01*
X28637214Y-71407000D01*
X28738262Y-71915000D01*
X28656000Y-71915000D01*
X28552870Y-71935514D01*
X28552870Y-71587340D01*
X28508592Y-71352023D01*
X28369520Y-71135899D01*
X28157320Y-70990909D01*
X27905430Y-70939900D01*
X27767000Y-70939900D01*
X27767000Y-69575436D01*
X27980441Y-69438090D01*
X28125431Y-69225890D01*
X28176440Y-68974000D01*
X28176440Y-66474000D01*
X28132162Y-66238683D01*
X27993090Y-66022559D01*
X27780890Y-65877569D01*
X27529000Y-65826560D01*
X26529000Y-65826560D01*
X26293683Y-65870838D01*
X26077559Y-66009910D01*
X25932569Y-66222110D01*
X25881560Y-66474000D01*
X25881560Y-68974000D01*
X25925838Y-69209317D01*
X26064910Y-69425441D01*
X26243000Y-69547125D01*
X26243000Y-70939900D01*
X26104570Y-70939900D01*
X25869253Y-70984178D01*
X25653129Y-71123250D01*
X25508139Y-71335450D01*
X25457130Y-71587340D01*
X25457130Y-74086700D01*
X25501408Y-74322017D01*
X25640480Y-74538141D01*
X25852680Y-74683131D01*
X26104570Y-74734140D01*
X27905430Y-74734140D01*
X28140747Y-74689862D01*
X28356871Y-74550790D01*
X28501861Y-74338590D01*
X28552870Y-74086700D01*
X28552870Y-73587704D01*
X28715102Y-73555434D01*
X28637214Y-73947000D01*
X28750225Y-74515143D01*
X29072052Y-74996792D01*
X29401617Y-75217000D01*
X29072052Y-75437208D01*
X28750225Y-75918857D01*
X28679416Y-76274836D01*
X28613770Y-76209190D01*
X28593124Y-76195395D01*
X28552870Y-76168498D01*
X28552870Y-75585300D01*
X28508592Y-75349983D01*
X28369520Y-75133859D01*
X28157320Y-74988869D01*
X27905430Y-74937860D01*
X26104570Y-74937860D01*
X25869253Y-74982138D01*
X25653129Y-75121210D01*
X25508139Y-75333410D01*
X25457130Y-75585300D01*
X25457130Y-78084660D01*
X25501408Y-78319977D01*
X25640480Y-78536101D01*
X25852680Y-78681091D01*
X26104570Y-78732100D01*
X27905430Y-78732100D01*
X28101720Y-78695165D01*
X28306197Y-78900000D01*
X28052750Y-78900000D01*
X27894000Y-79058750D01*
X27894000Y-80424000D01*
X27914000Y-80424000D01*
X27914000Y-80678000D01*
X27894000Y-80678000D01*
X27894000Y-82043250D01*
X28052750Y-82202000D01*
X28756910Y-82202000D01*
X28990299Y-82105327D01*
X29168927Y-81926698D01*
X29232500Y-81773220D01*
X29247330Y-81795415D01*
X29733511Y-82120271D01*
X30307000Y-82234345D01*
X30812220Y-82133850D01*
X30993370Y-82315000D01*
X24685000Y-82315000D01*
X24685000Y-80836750D01*
X26268400Y-80836750D01*
X26268400Y-81693309D01*
X26365073Y-81926698D01*
X26543701Y-82105327D01*
X26777090Y-82202000D01*
X27481250Y-82202000D01*
X27640000Y-82043250D01*
X27640000Y-80678000D01*
X26427150Y-80678000D01*
X26268400Y-80836750D01*
X24685000Y-80836750D01*
X24685000Y-79408691D01*
X26268400Y-79408691D01*
X26268400Y-80265250D01*
X26427150Y-80424000D01*
X27640000Y-80424000D01*
X27640000Y-79058750D01*
X27481250Y-78900000D01*
X26777090Y-78900000D01*
X26543701Y-78996673D01*
X26365073Y-79175302D01*
X26268400Y-79408691D01*
X24685000Y-79408691D01*
X24685000Y-62936580D01*
X25408609Y-63660188D01*
X25408326Y-63983694D01*
X25656638Y-64584655D01*
X26116027Y-65044846D01*
X26716553Y-65294206D01*
X27366794Y-65294774D01*
X27967755Y-65046462D01*
X28427946Y-64587073D01*
X28677306Y-63986547D01*
X28677874Y-63336306D01*
X28429562Y-62735345D01*
X27970173Y-62275154D01*
X27369647Y-62025794D01*
X26719406Y-62025226D01*
X26406214Y-62154634D01*
X26085000Y-61833420D01*
X26085000Y-61789250D01*
X26190000Y-61684250D01*
X26190000Y-60485000D01*
X26444000Y-60485000D01*
X26444000Y-61684250D01*
X26602750Y-61843000D01*
X26893309Y-61843000D01*
X27126698Y-61746327D01*
X27305327Y-61567699D01*
X27402000Y-61334310D01*
X27402000Y-60643750D01*
X27243250Y-60485000D01*
X26444000Y-60485000D01*
X26190000Y-60485000D01*
X26170000Y-60485000D01*
X26170000Y-60231000D01*
X26190000Y-60231000D01*
X26190000Y-60211000D01*
X26444000Y-60211000D01*
X26444000Y-60231000D01*
X27243250Y-60231000D01*
X27402000Y-60072250D01*
X27402000Y-59381690D01*
X27385560Y-59342000D01*
X27481250Y-59342000D01*
X27640000Y-59183250D01*
X27640000Y-57818000D01*
X26427150Y-57818000D01*
X26268400Y-57976750D01*
X26268400Y-58833309D01*
X26284841Y-58873000D01*
X26189998Y-58873000D01*
X26189998Y-59031748D01*
X26085000Y-58926750D01*
X26085000Y-56761574D01*
X26246371Y-56600485D01*
X26267877Y-56548691D01*
X26268400Y-56548691D01*
X26268400Y-57405250D01*
X26427150Y-57564000D01*
X27640000Y-57564000D01*
X27640000Y-56198750D01*
X27481250Y-56040000D01*
X26777090Y-56040000D01*
X26543701Y-56136673D01*
X26365073Y-56315302D01*
X26268400Y-56548691D01*
X26267877Y-56548691D01*
X26434785Y-56146734D01*
X26435214Y-55655421D01*
X26247592Y-55201343D01*
X25900485Y-54853629D01*
X25446734Y-54665215D01*
X24955421Y-54664786D01*
X24685000Y-54776522D01*
X24685000Y-37185750D01*
X26365000Y-37185750D01*
X26365000Y-37651310D01*
X26461673Y-37884699D01*
X26640302Y-38063327D01*
X26873691Y-38160000D01*
X27028341Y-38160000D01*
X26996004Y-38208395D01*
X26938000Y-38500000D01*
X26938000Y-43400000D01*
X26996004Y-43691605D01*
X27099728Y-43846838D01*
X27161185Y-43938815D01*
X27577376Y-44355007D01*
X27526655Y-44610000D01*
X27640729Y-45183489D01*
X27965585Y-45669670D01*
X28280366Y-45880000D01*
X27965585Y-46090330D01*
X27640729Y-46576511D01*
X27526655Y-47150000D01*
X27640729Y-47723489D01*
X27965585Y-48209670D01*
X28451766Y-48534526D01*
X29025255Y-48648600D01*
X29394745Y-48648600D01*
X29968234Y-48534526D01*
X30353233Y-48277278D01*
X30316887Y-48460000D01*
X30426120Y-49009151D01*
X30737189Y-49474698D01*
X31119275Y-49730000D01*
X30737189Y-49985302D01*
X30426120Y-50450849D01*
X30316887Y-51000000D01*
X30426120Y-51549151D01*
X30737189Y-52014698D01*
X31018000Y-52202330D01*
X31018000Y-52337670D01*
X30737189Y-52525302D01*
X30426120Y-52990849D01*
X30316887Y-53540000D01*
X30426120Y-54089151D01*
X30737189Y-54554698D01*
X31202736Y-54865767D01*
X31751887Y-54975000D01*
X31808113Y-54975000D01*
X32357264Y-54865767D01*
X32651005Y-54669495D01*
X32735910Y-54801441D01*
X32948110Y-54946431D01*
X33200000Y-54997440D01*
X33900000Y-54997440D01*
X33916673Y-54994303D01*
X34261185Y-55338815D01*
X34508395Y-55503996D01*
X34800000Y-55562000D01*
X39800000Y-55562000D01*
X40091605Y-55503996D01*
X40338815Y-55338815D01*
X44238815Y-51438815D01*
X44307280Y-51336350D01*
X48707255Y-51336350D01*
X48799792Y-51598019D01*
X49391398Y-51816188D01*
X50021461Y-51791352D01*
X50488208Y-51598019D01*
X50580745Y-51336350D01*
X49644000Y-50399605D01*
X48707255Y-51336350D01*
X44307280Y-51336350D01*
X44322913Y-51312954D01*
X44403996Y-51191605D01*
X44462000Y-50900000D01*
X44462000Y-49967398D01*
X48047812Y-49967398D01*
X48072648Y-50597461D01*
X48265981Y-51064208D01*
X48527650Y-51156745D01*
X49464395Y-50220000D01*
X48527650Y-49283255D01*
X48265981Y-49375792D01*
X48047812Y-49967398D01*
X44462000Y-49967398D01*
X44462000Y-48017026D01*
X45509642Y-48017026D01*
X45512291Y-48032791D01*
X45766268Y-48560036D01*
X46202680Y-48949954D01*
X46755087Y-49143184D01*
X46990000Y-48998924D01*
X46990000Y-47785000D01*
X47244000Y-47785000D01*
X47244000Y-48998924D01*
X47478913Y-49143184D01*
X47591933Y-49103650D01*
X48707255Y-49103650D01*
X49644000Y-50040395D01*
X50580745Y-49103650D01*
X50488208Y-48841981D01*
X49896602Y-48623812D01*
X49266539Y-48648648D01*
X48799792Y-48841981D01*
X48707255Y-49103650D01*
X47591933Y-49103650D01*
X48031320Y-48949954D01*
X48467732Y-48560036D01*
X48721709Y-48032791D01*
X48724358Y-48017026D01*
X48603217Y-47785000D01*
X47244000Y-47785000D01*
X46990000Y-47785000D01*
X45630783Y-47785000D01*
X45509642Y-48017026D01*
X44462000Y-48017026D01*
X44462000Y-46400000D01*
X44403996Y-46108395D01*
X44357504Y-46038815D01*
X44238815Y-45861184D01*
X43492851Y-45115220D01*
X43593345Y-44610000D01*
X43479271Y-44036511D01*
X43154415Y-43550330D01*
X42839634Y-43340000D01*
X43154415Y-43129670D01*
X43479271Y-42643489D01*
X43540137Y-42337493D01*
X43938815Y-41938815D01*
X44103996Y-41691605D01*
X44112272Y-41650000D01*
X44162000Y-41400000D01*
X44162000Y-37650000D01*
X44103996Y-37358395D01*
X43938815Y-37111184D01*
X43797440Y-36969809D01*
X43797440Y-36530190D01*
X45438816Y-34888815D01*
X45603997Y-34641604D01*
X45662000Y-34350000D01*
X45662000Y-30328977D01*
X45785515Y-30277942D01*
X46076919Y-29987046D01*
X46234820Y-29606777D01*
X46235179Y-29195029D01*
X46077942Y-28814485D01*
X45787046Y-28523081D01*
X45406777Y-28365180D01*
X44995029Y-28364821D01*
X44614485Y-28522058D01*
X44323081Y-28812954D01*
X44165180Y-29193223D01*
X44164856Y-29564987D01*
X44138000Y-29700000D01*
X44138000Y-34034369D01*
X43785000Y-34387369D01*
X43785000Y-34373691D01*
X43688327Y-34140302D01*
X43509699Y-33961673D01*
X43276310Y-33865000D01*
X42785750Y-33865000D01*
X42627000Y-34023750D01*
X42627000Y-34723000D01*
X42647000Y-34723000D01*
X42647000Y-34977000D01*
X42627000Y-34977000D01*
X42627000Y-34997000D01*
X42373000Y-34997000D01*
X42373000Y-34977000D01*
X41373750Y-34977000D01*
X41215000Y-35135750D01*
X41215000Y-35326309D01*
X41311673Y-35559698D01*
X41490301Y-35738327D01*
X41626287Y-35794654D01*
X41614683Y-35796838D01*
X41398559Y-35935910D01*
X41253569Y-36148110D01*
X41202560Y-36400000D01*
X41202560Y-37100000D01*
X41246838Y-37335317D01*
X41385910Y-37551441D01*
X41598110Y-37696431D01*
X41850000Y-37747440D01*
X42419809Y-37747440D01*
X42638000Y-37965631D01*
X42638000Y-38018960D01*
X41476590Y-38018960D01*
X41218815Y-37761185D01*
X41169393Y-37728162D01*
X40971605Y-37596004D01*
X40680000Y-37538000D01*
X40611659Y-37538000D01*
X40551146Y-37447437D01*
X40616431Y-37351890D01*
X40667440Y-37100000D01*
X40667440Y-36400000D01*
X40623162Y-36164683D01*
X40484090Y-35948559D01*
X40271890Y-35803569D01*
X40258803Y-35800919D01*
X40471441Y-35664090D01*
X40616431Y-35451890D01*
X40667440Y-35200000D01*
X40667440Y-34500000D01*
X40643674Y-34373691D01*
X41215000Y-34373691D01*
X41215000Y-34564250D01*
X41373750Y-34723000D01*
X42373000Y-34723000D01*
X42373000Y-34023750D01*
X42214250Y-33865000D01*
X41723690Y-33865000D01*
X41490301Y-33961673D01*
X41311673Y-34140302D01*
X41215000Y-34373691D01*
X40643674Y-34373691D01*
X40623162Y-34264683D01*
X40484090Y-34048559D01*
X40271890Y-33903569D01*
X40020000Y-33852560D01*
X39396247Y-33852560D01*
X39311605Y-33796004D01*
X39020000Y-33738000D01*
X38996366Y-33738000D01*
X38973162Y-33614683D01*
X38834090Y-33398559D01*
X38621890Y-33253569D01*
X38370000Y-33202560D01*
X37670000Y-33202560D01*
X37434683Y-33246838D01*
X37218559Y-33385910D01*
X37073569Y-33598110D01*
X37070919Y-33611197D01*
X36934090Y-33398559D01*
X36721890Y-33253569D01*
X36470000Y-33202560D01*
X35770000Y-33202560D01*
X35534683Y-33246838D01*
X35318559Y-33385910D01*
X35173569Y-33598110D01*
X35122560Y-33850000D01*
X35122560Y-34138000D01*
X35121662Y-34138000D01*
X35103162Y-34039683D01*
X34977606Y-33844564D01*
X35034820Y-33706777D01*
X35035179Y-33295029D01*
X34877942Y-32914485D01*
X34587046Y-32623081D01*
X34206777Y-32465180D01*
X33795029Y-32464821D01*
X33414485Y-32622058D01*
X33123081Y-32912954D01*
X32965180Y-33293223D01*
X32964821Y-33704971D01*
X33023654Y-33847359D01*
X33000866Y-33880711D01*
X32964090Y-33823559D01*
X32751890Y-33678569D01*
X32500000Y-33627560D01*
X31500000Y-33627560D01*
X31264683Y-33671838D01*
X31048559Y-33810910D01*
X30903569Y-34023110D01*
X30880303Y-34138000D01*
X29500000Y-34138000D01*
X29208396Y-34196003D01*
X28961185Y-34361184D01*
X27961185Y-35361185D01*
X27796004Y-35608395D01*
X27789717Y-35640000D01*
X27785750Y-35640000D01*
X27627000Y-35798750D01*
X27627000Y-36773000D01*
X27647000Y-36773000D01*
X27647000Y-37027000D01*
X27627000Y-37027000D01*
X27627000Y-37047000D01*
X27373000Y-37047000D01*
X27373000Y-37027000D01*
X26523750Y-37027000D01*
X26365000Y-37185750D01*
X24685000Y-37185750D01*
X24685000Y-36148690D01*
X26365000Y-36148690D01*
X26365000Y-36614250D01*
X26523750Y-36773000D01*
X27373000Y-36773000D01*
X27373000Y-35798750D01*
X27214250Y-35640000D01*
X26873691Y-35640000D01*
X26640302Y-35736673D01*
X26461673Y-35915301D01*
X26365000Y-36148690D01*
X24685000Y-36148690D01*
X24685000Y-31528172D01*
X25332538Y-31528172D01*
X25737709Y-32508761D01*
X26487293Y-33259655D01*
X27467173Y-33666536D01*
X28528172Y-33667462D01*
X29508761Y-33262291D01*
X30259655Y-32512707D01*
X30666536Y-31532827D01*
X30667462Y-30471828D01*
X30262291Y-29491239D01*
X29512707Y-28740345D01*
X28532827Y-28333464D01*
X27471828Y-28332538D01*
X26491239Y-28737709D01*
X25740345Y-29487293D01*
X25333464Y-30467173D01*
X25332538Y-31528172D01*
X24685000Y-31528172D01*
X24685000Y-27685000D01*
X46115907Y-27685000D01*
X46082180Y-27766223D01*
X46082180Y-27766223D01*
G37*
X46082180Y-27766223D02*
X46081821Y-28177971D01*
X46239058Y-28558515D01*
X46355000Y-28674659D01*
X46355000Y-38526960D01*
X46101000Y-38526960D01*
X45865683Y-38571238D01*
X45649559Y-38710310D01*
X45504569Y-38922510D01*
X45453560Y-39174400D01*
X45453560Y-40901600D01*
X45497838Y-41136917D01*
X45636910Y-41353041D01*
X45849110Y-41498031D01*
X45890439Y-41506400D01*
X45872585Y-41518330D01*
X45547729Y-42004511D01*
X45433655Y-42578000D01*
X45547729Y-43151489D01*
X45872585Y-43637670D01*
X46187366Y-43848000D01*
X45872585Y-44058330D01*
X45547729Y-44544511D01*
X45433655Y-45118000D01*
X45547729Y-45691489D01*
X45872585Y-46177670D01*
X46182069Y-46384461D01*
X45766268Y-46755964D01*
X45512291Y-47283209D01*
X45509642Y-47298974D01*
X45630783Y-47531000D01*
X46990000Y-47531000D01*
X46990000Y-47511000D01*
X47244000Y-47511000D01*
X47244000Y-47531000D01*
X48603217Y-47531000D01*
X48724358Y-47298974D01*
X48721709Y-47283209D01*
X48467732Y-46755964D01*
X48051931Y-46384461D01*
X48361415Y-46177670D01*
X48686271Y-45691489D01*
X48793073Y-45154557D01*
X54005816Y-39941815D01*
X54170997Y-39694604D01*
X54229000Y-39403000D01*
X54229000Y-36490670D01*
X54407341Y-36564724D01*
X55037893Y-36565275D01*
X55620657Y-36324481D01*
X55994261Y-35951529D01*
X56292471Y-36250261D01*
X55921086Y-36620997D01*
X55679276Y-37203341D01*
X55678725Y-37833893D01*
X55919519Y-38416657D01*
X56364997Y-38862914D01*
X56947341Y-39104724D01*
X57577893Y-39105275D01*
X58160657Y-38864481D01*
X58534261Y-38491529D01*
X58904997Y-38862914D01*
X59487341Y-39104724D01*
X60117893Y-39105275D01*
X60700657Y-38864481D01*
X61074261Y-38491529D01*
X61444997Y-38862914D01*
X62027341Y-39104724D01*
X62657893Y-39105275D01*
X63240657Y-38864481D01*
X63686914Y-38419003D01*
X63928724Y-37836659D01*
X63929275Y-37206107D01*
X63688481Y-36623343D01*
X63315529Y-36249739D01*
X63614261Y-35951529D01*
X63984997Y-36322914D01*
X64567341Y-36564724D01*
X65197893Y-36565275D01*
X65780657Y-36324481D01*
X66154261Y-35951529D01*
X66524997Y-36322914D01*
X67107341Y-36564724D01*
X67737893Y-36565275D01*
X68259231Y-36349862D01*
X68803185Y-36893816D01*
X68951377Y-36992834D01*
X69050395Y-37058996D01*
X69342000Y-37117000D01*
X70612000Y-37117000D01*
X70903605Y-37058996D01*
X71150815Y-36893815D01*
X71687471Y-36357160D01*
X71742000Y-36379803D01*
X71742000Y-43880369D01*
X70661185Y-44961185D01*
X70496004Y-45208395D01*
X70438000Y-45500000D01*
X70438000Y-48700610D01*
X70280659Y-48635276D01*
X69650107Y-48634725D01*
X69462000Y-48712449D01*
X69462000Y-39301939D01*
X69476919Y-39287046D01*
X69634820Y-38906777D01*
X69635179Y-38495029D01*
X69477942Y-38114485D01*
X69187046Y-37823081D01*
X68806777Y-37665180D01*
X68395029Y-37664821D01*
X68014485Y-37822058D01*
X67723081Y-38112954D01*
X67565180Y-38493223D01*
X67564821Y-38904971D01*
X67722058Y-39285515D01*
X67938000Y-39501834D01*
X67938000Y-48717219D01*
X67740659Y-48635276D01*
X67110107Y-48634725D01*
X66527343Y-48875519D01*
X66153739Y-49248471D01*
X65783003Y-48877086D01*
X65200659Y-48635276D01*
X64570107Y-48634725D01*
X63987343Y-48875519D01*
X63613739Y-49248471D01*
X63243003Y-48877086D01*
X62660659Y-48635276D01*
X62030107Y-48634725D01*
X61862000Y-48704186D01*
X61862000Y-45801765D01*
X61976919Y-45687046D01*
X62134820Y-45306777D01*
X62135179Y-44895029D01*
X61977942Y-44514485D01*
X61687046Y-44223081D01*
X61306777Y-44065180D01*
X60895029Y-44064821D01*
X60514485Y-44222058D01*
X60223081Y-44512954D01*
X60065180Y-44893223D01*
X60064821Y-45304971D01*
X60222058Y-45685515D01*
X60338000Y-45801659D01*
X60338000Y-45802715D01*
X60006777Y-45665180D01*
X59595029Y-45664821D01*
X59214485Y-45822058D01*
X58923081Y-46112954D01*
X58765180Y-46493223D01*
X58764821Y-46904971D01*
X58922058Y-47285515D01*
X59042000Y-47405666D01*
X59042000Y-48819880D01*
X58907343Y-48875519D01*
X58533739Y-49248471D01*
X58163003Y-48877086D01*
X58026000Y-48820197D01*
X58026000Y-47737876D01*
X58076919Y-47687046D01*
X58234820Y-47306777D01*
X58235179Y-46895029D01*
X58077942Y-46514485D01*
X57787046Y-46223081D01*
X57406777Y-46065180D01*
X56995029Y-46064821D01*
X56614485Y-46222058D01*
X56323081Y-46512954D01*
X56165180Y-46893223D01*
X56164821Y-47304971D01*
X56322058Y-47685515D01*
X56502000Y-47865771D01*
X56502000Y-48819880D01*
X56367343Y-48875519D01*
X55993739Y-49248471D01*
X55623003Y-48877086D01*
X55486000Y-48820197D01*
X55486000Y-47824000D01*
X55434942Y-47567313D01*
X55435179Y-47295029D01*
X55277942Y-46914485D01*
X54987046Y-46623081D01*
X54606777Y-46465180D01*
X54195029Y-46464821D01*
X53814485Y-46622058D01*
X53523081Y-46912954D01*
X53365180Y-47293223D01*
X53364821Y-47704971D01*
X53522058Y-48085515D01*
X53812954Y-48376919D01*
X53962000Y-48438808D01*
X53962000Y-48819880D01*
X53827343Y-48875519D01*
X53453739Y-49248471D01*
X53083003Y-48877086D01*
X52500659Y-48635276D01*
X51870107Y-48634725D01*
X51287343Y-48875519D01*
X50847884Y-49314211D01*
X50760350Y-49283255D01*
X49823605Y-50220000D01*
X50760350Y-51156745D01*
X50848439Y-51125593D01*
X51284997Y-51562914D01*
X51867341Y-51804724D01*
X52497893Y-51805275D01*
X53080657Y-51564481D01*
X53454261Y-51191529D01*
X53824997Y-51562914D01*
X54407341Y-51804724D01*
X54797631Y-51805065D01*
X54514485Y-51922058D01*
X54223081Y-52212954D01*
X54065180Y-52593223D01*
X54065037Y-52757333D01*
X44109185Y-62713185D01*
X43944004Y-62960395D01*
X43886000Y-63252000D01*
X43886000Y-70408834D01*
X43863520Y-70373899D01*
X43651320Y-70228909D01*
X43399430Y-70177900D01*
X41598570Y-70177900D01*
X41363253Y-70222178D01*
X41147129Y-70361250D01*
X41002139Y-70573450D01*
X40951130Y-70825340D01*
X40951130Y-71534000D01*
X40733440Y-71534000D01*
X40733440Y-70581500D01*
X40689162Y-70346183D01*
X40594000Y-70198297D01*
X40594000Y-67597000D01*
X40535996Y-67305395D01*
X40505376Y-67259569D01*
X40370815Y-67058184D01*
X38778682Y-65466052D01*
X38796019Y-65378896D01*
X38965110Y-65494431D01*
X39217000Y-65545440D01*
X41614000Y-65545440D01*
X41614000Y-66735426D01*
X41452629Y-66896515D01*
X41264215Y-67350266D01*
X41263786Y-67841579D01*
X41451408Y-68295657D01*
X41798515Y-68643371D01*
X42252266Y-68831785D01*
X42743579Y-68832214D01*
X43197657Y-68644592D01*
X43545371Y-68297485D01*
X43733785Y-67843734D01*
X43734214Y-67352421D01*
X43546592Y-66898343D01*
X43384000Y-66735467D01*
X43384000Y-60104000D01*
X43316633Y-59765325D01*
X43124790Y-59478210D01*
X43124787Y-59478208D01*
X40711790Y-57065210D01*
X40686870Y-57048559D01*
X40424675Y-56873367D01*
X40368484Y-56862190D01*
X40086000Y-56805999D01*
X40085995Y-56806000D01*
X34146824Y-56806000D01*
X33906670Y-56446585D01*
X33420489Y-56121729D01*
X32847000Y-56007655D01*
X32273511Y-56121729D01*
X31787330Y-56446585D01*
X31577000Y-56761366D01*
X31366670Y-56446585D01*
X30880489Y-56121729D01*
X30307000Y-56007655D01*
X29733511Y-56121729D01*
X29247330Y-56446585D01*
X29232500Y-56468780D01*
X29168927Y-56315302D01*
X28990299Y-56136673D01*
X28756910Y-56040000D01*
X28052750Y-56040000D01*
X27894000Y-56198750D01*
X27894000Y-57564000D01*
X27914000Y-57564000D01*
X27914000Y-57818000D01*
X27894000Y-57818000D01*
X27894000Y-59183250D01*
X28052750Y-59342000D01*
X28153176Y-59342000D01*
X28119560Y-59508000D01*
X28119560Y-61208000D01*
X28163838Y-61443317D01*
X28302910Y-61659441D01*
X28515110Y-61804431D01*
X28767000Y-61855440D01*
X29162170Y-61855440D01*
X30477645Y-63170915D01*
X30410154Y-63333453D01*
X30409586Y-63983694D01*
X30657898Y-64584655D01*
X31117287Y-65044846D01*
X31717813Y-65294206D01*
X32368054Y-65294774D01*
X32847000Y-65096878D01*
X32847000Y-67472612D01*
X32708942Y-67138485D01*
X32418046Y-66847081D01*
X32037777Y-66689180D01*
X31626029Y-66688821D01*
X31245485Y-66846058D01*
X31176440Y-66914983D01*
X31176440Y-66474000D01*
X31132162Y-66238683D01*
X30993090Y-66022559D01*
X30780890Y-65877569D01*
X30529000Y-65826560D01*
X29529000Y-65826560D01*
X29293683Y-65870838D01*
X29077559Y-66009910D01*
X28932569Y-66222110D01*
X28881560Y-66474000D01*
X28881560Y-68974000D01*
X28925838Y-69209317D01*
X29064910Y-69425441D01*
X29277110Y-69570431D01*
X29529000Y-69621440D01*
X30529000Y-69621440D01*
X30764317Y-69577162D01*
X30980441Y-69438090D01*
X31125431Y-69225890D01*
X31176440Y-68974000D01*
X31176440Y-68533287D01*
X31243954Y-68600919D01*
X31624223Y-68758820D01*
X32004218Y-68759151D01*
X30841000Y-69922370D01*
X30121844Y-69922370D01*
X29553701Y-70035381D01*
X29072052Y-70357208D01*
X28750225Y-70838857D01*
X28637214Y-71407000D01*
X28738262Y-71915000D01*
X28656000Y-71915000D01*
X28552870Y-71935514D01*
X28552870Y-71587340D01*
X28508592Y-71352023D01*
X28369520Y-71135899D01*
X28157320Y-70990909D01*
X27905430Y-70939900D01*
X27767000Y-70939900D01*
X27767000Y-69575436D01*
X27980441Y-69438090D01*
X28125431Y-69225890D01*
X28176440Y-68974000D01*
X28176440Y-66474000D01*
X28132162Y-66238683D01*
X27993090Y-66022559D01*
X27780890Y-65877569D01*
X27529000Y-65826560D01*
X26529000Y-65826560D01*
X26293683Y-65870838D01*
X26077559Y-66009910D01*
X25932569Y-66222110D01*
X25881560Y-66474000D01*
X25881560Y-68974000D01*
X25925838Y-69209317D01*
X26064910Y-69425441D01*
X26243000Y-69547125D01*
X26243000Y-70939900D01*
X26104570Y-70939900D01*
X25869253Y-70984178D01*
X25653129Y-71123250D01*
X25508139Y-71335450D01*
X25457130Y-71587340D01*
X25457130Y-74086700D01*
X25501408Y-74322017D01*
X25640480Y-74538141D01*
X25852680Y-74683131D01*
X26104570Y-74734140D01*
X27905430Y-74734140D01*
X28140747Y-74689862D01*
X28356871Y-74550790D01*
X28501861Y-74338590D01*
X28552870Y-74086700D01*
X28552870Y-73587704D01*
X28715102Y-73555434D01*
X28637214Y-73947000D01*
X28750225Y-74515143D01*
X29072052Y-74996792D01*
X29401617Y-75217000D01*
X29072052Y-75437208D01*
X28750225Y-75918857D01*
X28679416Y-76274836D01*
X28613770Y-76209190D01*
X28593124Y-76195395D01*
X28552870Y-76168498D01*
X28552870Y-75585300D01*
X28508592Y-75349983D01*
X28369520Y-75133859D01*
X28157320Y-74988869D01*
X27905430Y-74937860D01*
X26104570Y-74937860D01*
X25869253Y-74982138D01*
X25653129Y-75121210D01*
X25508139Y-75333410D01*
X25457130Y-75585300D01*
X25457130Y-78084660D01*
X25501408Y-78319977D01*
X25640480Y-78536101D01*
X25852680Y-78681091D01*
X26104570Y-78732100D01*
X27905430Y-78732100D01*
X28101720Y-78695165D01*
X28306197Y-78900000D01*
X28052750Y-78900000D01*
X27894000Y-79058750D01*
X27894000Y-80424000D01*
X27914000Y-80424000D01*
X27914000Y-80678000D01*
X27894000Y-80678000D01*
X27894000Y-82043250D01*
X28052750Y-82202000D01*
X28756910Y-82202000D01*
X28990299Y-82105327D01*
X29168927Y-81926698D01*
X29232500Y-81773220D01*
X29247330Y-81795415D01*
X29733511Y-82120271D01*
X30307000Y-82234345D01*
X30812220Y-82133850D01*
X30993370Y-82315000D01*
X24685000Y-82315000D01*
X24685000Y-80836750D01*
X26268400Y-80836750D01*
X26268400Y-81693309D01*
X26365073Y-81926698D01*
X26543701Y-82105327D01*
X26777090Y-82202000D01*
X27481250Y-82202000D01*
X27640000Y-82043250D01*
X27640000Y-80678000D01*
X26427150Y-80678000D01*
X26268400Y-80836750D01*
X24685000Y-80836750D01*
X24685000Y-79408691D01*
X26268400Y-79408691D01*
X26268400Y-80265250D01*
X26427150Y-80424000D01*
X27640000Y-80424000D01*
X27640000Y-79058750D01*
X27481250Y-78900000D01*
X26777090Y-78900000D01*
X26543701Y-78996673D01*
X26365073Y-79175302D01*
X26268400Y-79408691D01*
X24685000Y-79408691D01*
X24685000Y-62936580D01*
X25408609Y-63660188D01*
X25408326Y-63983694D01*
X25656638Y-64584655D01*
X26116027Y-65044846D01*
X26716553Y-65294206D01*
X27366794Y-65294774D01*
X27967755Y-65046462D01*
X28427946Y-64587073D01*
X28677306Y-63986547D01*
X28677874Y-63336306D01*
X28429562Y-62735345D01*
X27970173Y-62275154D01*
X27369647Y-62025794D01*
X26719406Y-62025226D01*
X26406214Y-62154634D01*
X26085000Y-61833420D01*
X26085000Y-61789250D01*
X26190000Y-61684250D01*
X26190000Y-60485000D01*
X26444000Y-60485000D01*
X26444000Y-61684250D01*
X26602750Y-61843000D01*
X26893309Y-61843000D01*
X27126698Y-61746327D01*
X27305327Y-61567699D01*
X27402000Y-61334310D01*
X27402000Y-60643750D01*
X27243250Y-60485000D01*
X26444000Y-60485000D01*
X26190000Y-60485000D01*
X26170000Y-60485000D01*
X26170000Y-60231000D01*
X26190000Y-60231000D01*
X26190000Y-60211000D01*
X26444000Y-60211000D01*
X26444000Y-60231000D01*
X27243250Y-60231000D01*
X27402000Y-60072250D01*
X27402000Y-59381690D01*
X27385560Y-59342000D01*
X27481250Y-59342000D01*
X27640000Y-59183250D01*
X27640000Y-57818000D01*
X26427150Y-57818000D01*
X26268400Y-57976750D01*
X26268400Y-58833309D01*
X26284841Y-58873000D01*
X26189998Y-58873000D01*
X26189998Y-59031748D01*
X26085000Y-58926750D01*
X26085000Y-56761574D01*
X26246371Y-56600485D01*
X26267877Y-56548691D01*
X26268400Y-56548691D01*
X26268400Y-57405250D01*
X26427150Y-57564000D01*
X27640000Y-57564000D01*
X27640000Y-56198750D01*
X27481250Y-56040000D01*
X26777090Y-56040000D01*
X26543701Y-56136673D01*
X26365073Y-56315302D01*
X26268400Y-56548691D01*
X26267877Y-56548691D01*
X26434785Y-56146734D01*
X26435214Y-55655421D01*
X26247592Y-55201343D01*
X25900485Y-54853629D01*
X25446734Y-54665215D01*
X24955421Y-54664786D01*
X24685000Y-54776522D01*
X24685000Y-37185750D01*
X26365000Y-37185750D01*
X26365000Y-37651310D01*
X26461673Y-37884699D01*
X26640302Y-38063327D01*
X26873691Y-38160000D01*
X27028341Y-38160000D01*
X26996004Y-38208395D01*
X26938000Y-38500000D01*
X26938000Y-43400000D01*
X26996004Y-43691605D01*
X27099728Y-43846838D01*
X27161185Y-43938815D01*
X27577376Y-44355007D01*
X27526655Y-44610000D01*
X27640729Y-45183489D01*
X27965585Y-45669670D01*
X28280366Y-45880000D01*
X27965585Y-46090330D01*
X27640729Y-46576511D01*
X27526655Y-47150000D01*
X27640729Y-47723489D01*
X27965585Y-48209670D01*
X28451766Y-48534526D01*
X29025255Y-48648600D01*
X29394745Y-48648600D01*
X29968234Y-48534526D01*
X30353233Y-48277278D01*
X30316887Y-48460000D01*
X30426120Y-49009151D01*
X30737189Y-49474698D01*
X31119275Y-49730000D01*
X30737189Y-49985302D01*
X30426120Y-50450849D01*
X30316887Y-51000000D01*
X30426120Y-51549151D01*
X30737189Y-52014698D01*
X31018000Y-52202330D01*
X31018000Y-52337670D01*
X30737189Y-52525302D01*
X30426120Y-52990849D01*
X30316887Y-53540000D01*
X30426120Y-54089151D01*
X30737189Y-54554698D01*
X31202736Y-54865767D01*
X31751887Y-54975000D01*
X31808113Y-54975000D01*
X32357264Y-54865767D01*
X32651005Y-54669495D01*
X32735910Y-54801441D01*
X32948110Y-54946431D01*
X33200000Y-54997440D01*
X33900000Y-54997440D01*
X33916673Y-54994303D01*
X34261185Y-55338815D01*
X34508395Y-55503996D01*
X34800000Y-55562000D01*
X39800000Y-55562000D01*
X40091605Y-55503996D01*
X40338815Y-55338815D01*
X44238815Y-51438815D01*
X44307280Y-51336350D01*
X48707255Y-51336350D01*
X48799792Y-51598019D01*
X49391398Y-51816188D01*
X50021461Y-51791352D01*
X50488208Y-51598019D01*
X50580745Y-51336350D01*
X49644000Y-50399605D01*
X48707255Y-51336350D01*
X44307280Y-51336350D01*
X44322913Y-51312954D01*
X44403996Y-51191605D01*
X44462000Y-50900000D01*
X44462000Y-49967398D01*
X48047812Y-49967398D01*
X48072648Y-50597461D01*
X48265981Y-51064208D01*
X48527650Y-51156745D01*
X49464395Y-50220000D01*
X48527650Y-49283255D01*
X48265981Y-49375792D01*
X48047812Y-49967398D01*
X44462000Y-49967398D01*
X44462000Y-48017026D01*
X45509642Y-48017026D01*
X45512291Y-48032791D01*
X45766268Y-48560036D01*
X46202680Y-48949954D01*
X46755087Y-49143184D01*
X46990000Y-48998924D01*
X46990000Y-47785000D01*
X47244000Y-47785000D01*
X47244000Y-48998924D01*
X47478913Y-49143184D01*
X47591933Y-49103650D01*
X48707255Y-49103650D01*
X49644000Y-50040395D01*
X50580745Y-49103650D01*
X50488208Y-48841981D01*
X49896602Y-48623812D01*
X49266539Y-48648648D01*
X48799792Y-48841981D01*
X48707255Y-49103650D01*
X47591933Y-49103650D01*
X48031320Y-48949954D01*
X48467732Y-48560036D01*
X48721709Y-48032791D01*
X48724358Y-48017026D01*
X48603217Y-47785000D01*
X47244000Y-47785000D01*
X46990000Y-47785000D01*
X45630783Y-47785000D01*
X45509642Y-48017026D01*
X44462000Y-48017026D01*
X44462000Y-46400000D01*
X44403996Y-46108395D01*
X44357504Y-46038815D01*
X44238815Y-45861184D01*
X43492851Y-45115220D01*
X43593345Y-44610000D01*
X43479271Y-44036511D01*
X43154415Y-43550330D01*
X42839634Y-43340000D01*
X43154415Y-43129670D01*
X43479271Y-42643489D01*
X43540137Y-42337493D01*
X43938815Y-41938815D01*
X44103996Y-41691605D01*
X44112272Y-41650000D01*
X44162000Y-41400000D01*
X44162000Y-37650000D01*
X44103996Y-37358395D01*
X43938815Y-37111184D01*
X43797440Y-36969809D01*
X43797440Y-36530190D01*
X45438816Y-34888815D01*
X45603997Y-34641604D01*
X45662000Y-34350000D01*
X45662000Y-30328977D01*
X45785515Y-30277942D01*
X46076919Y-29987046D01*
X46234820Y-29606777D01*
X46235179Y-29195029D01*
X46077942Y-28814485D01*
X45787046Y-28523081D01*
X45406777Y-28365180D01*
X44995029Y-28364821D01*
X44614485Y-28522058D01*
X44323081Y-28812954D01*
X44165180Y-29193223D01*
X44164856Y-29564987D01*
X44138000Y-29700000D01*
X44138000Y-34034369D01*
X43785000Y-34387369D01*
X43785000Y-34373691D01*
X43688327Y-34140302D01*
X43509699Y-33961673D01*
X43276310Y-33865000D01*
X42785750Y-33865000D01*
X42627000Y-34023750D01*
X42627000Y-34723000D01*
X42647000Y-34723000D01*
X42647000Y-34977000D01*
X42627000Y-34977000D01*
X42627000Y-34997000D01*
X42373000Y-34997000D01*
X42373000Y-34977000D01*
X41373750Y-34977000D01*
X41215000Y-35135750D01*
X41215000Y-35326309D01*
X41311673Y-35559698D01*
X41490301Y-35738327D01*
X41626287Y-35794654D01*
X41614683Y-35796838D01*
X41398559Y-35935910D01*
X41253569Y-36148110D01*
X41202560Y-36400000D01*
X41202560Y-37100000D01*
X41246838Y-37335317D01*
X41385910Y-37551441D01*
X41598110Y-37696431D01*
X41850000Y-37747440D01*
X42419809Y-37747440D01*
X42638000Y-37965631D01*
X42638000Y-38018960D01*
X41476590Y-38018960D01*
X41218815Y-37761185D01*
X41169393Y-37728162D01*
X40971605Y-37596004D01*
X40680000Y-37538000D01*
X40611659Y-37538000D01*
X40551146Y-37447437D01*
X40616431Y-37351890D01*
X40667440Y-37100000D01*
X40667440Y-36400000D01*
X40623162Y-36164683D01*
X40484090Y-35948559D01*
X40271890Y-35803569D01*
X40258803Y-35800919D01*
X40471441Y-35664090D01*
X40616431Y-35451890D01*
X40667440Y-35200000D01*
X40667440Y-34500000D01*
X40643674Y-34373691D01*
X41215000Y-34373691D01*
X41215000Y-34564250D01*
X41373750Y-34723000D01*
X42373000Y-34723000D01*
X42373000Y-34023750D01*
X42214250Y-33865000D01*
X41723690Y-33865000D01*
X41490301Y-33961673D01*
X41311673Y-34140302D01*
X41215000Y-34373691D01*
X40643674Y-34373691D01*
X40623162Y-34264683D01*
X40484090Y-34048559D01*
X40271890Y-33903569D01*
X40020000Y-33852560D01*
X39396247Y-33852560D01*
X39311605Y-33796004D01*
X39020000Y-33738000D01*
X38996366Y-33738000D01*
X38973162Y-33614683D01*
X38834090Y-33398559D01*
X38621890Y-33253569D01*
X38370000Y-33202560D01*
X37670000Y-33202560D01*
X37434683Y-33246838D01*
X37218559Y-33385910D01*
X37073569Y-33598110D01*
X37070919Y-33611197D01*
X36934090Y-33398559D01*
X36721890Y-33253569D01*
X36470000Y-33202560D01*
X35770000Y-33202560D01*
X35534683Y-33246838D01*
X35318559Y-33385910D01*
X35173569Y-33598110D01*
X35122560Y-33850000D01*
X35122560Y-34138000D01*
X35121662Y-34138000D01*
X35103162Y-34039683D01*
X34977606Y-33844564D01*
X35034820Y-33706777D01*
X35035179Y-33295029D01*
X34877942Y-32914485D01*
X34587046Y-32623081D01*
X34206777Y-32465180D01*
X33795029Y-32464821D01*
X33414485Y-32622058D01*
X33123081Y-32912954D01*
X32965180Y-33293223D01*
X32964821Y-33704971D01*
X33023654Y-33847359D01*
X33000866Y-33880711D01*
X32964090Y-33823559D01*
X32751890Y-33678569D01*
X32500000Y-33627560D01*
X31500000Y-33627560D01*
X31264683Y-33671838D01*
X31048559Y-33810910D01*
X30903569Y-34023110D01*
X30880303Y-34138000D01*
X29500000Y-34138000D01*
X29208396Y-34196003D01*
X28961185Y-34361184D01*
X27961185Y-35361185D01*
X27796004Y-35608395D01*
X27789717Y-35640000D01*
X27785750Y-35640000D01*
X27627000Y-35798750D01*
X27627000Y-36773000D01*
X27647000Y-36773000D01*
X27647000Y-37027000D01*
X27627000Y-37027000D01*
X27627000Y-37047000D01*
X27373000Y-37047000D01*
X27373000Y-37027000D01*
X26523750Y-37027000D01*
X26365000Y-37185750D01*
X24685000Y-37185750D01*
X24685000Y-36148690D01*
X26365000Y-36148690D01*
X26365000Y-36614250D01*
X26523750Y-36773000D01*
X27373000Y-36773000D01*
X27373000Y-35798750D01*
X27214250Y-35640000D01*
X26873691Y-35640000D01*
X26640302Y-35736673D01*
X26461673Y-35915301D01*
X26365000Y-36148690D01*
X24685000Y-36148690D01*
X24685000Y-31528172D01*
X25332538Y-31528172D01*
X25737709Y-32508761D01*
X26487293Y-33259655D01*
X27467173Y-33666536D01*
X28528172Y-33667462D01*
X29508761Y-33262291D01*
X30259655Y-32512707D01*
X30666536Y-31532827D01*
X30667462Y-30471828D01*
X30262291Y-29491239D01*
X29512707Y-28740345D01*
X28532827Y-28333464D01*
X27471828Y-28332538D01*
X26491239Y-28737709D01*
X25740345Y-29487293D01*
X25333464Y-30467173D01*
X25332538Y-31528172D01*
X24685000Y-31528172D01*
X24685000Y-27685000D01*
X46115907Y-27685000D01*
X46082180Y-27766223D01*
G36*
X33677000Y-44973000D02*
X33697000Y-44973000D01*
X33697000Y-45227000D01*
X33677000Y-45227000D01*
X33677000Y-45618750D01*
X33597000Y-45698750D01*
X33597000Y-46673000D01*
X33617000Y-46673000D01*
X33617000Y-46927000D01*
X33597000Y-46927000D01*
X33597000Y-46947000D01*
X33343000Y-46947000D01*
X33343000Y-46927000D01*
X33323000Y-46927000D01*
X33323000Y-46673000D01*
X33343000Y-46673000D01*
X33343000Y-46306250D01*
X33423000Y-46226250D01*
X33423000Y-45227000D01*
X33403000Y-45227000D01*
X33403000Y-44973000D01*
X33423000Y-44973000D01*
X33423000Y-44953000D01*
X33677000Y-44953000D01*
X33677000Y-44973000D01*
X33677000Y-44973000D01*
G37*
X33677000Y-44973000D02*
X33697000Y-44973000D01*
X33697000Y-45227000D01*
X33677000Y-45227000D01*
X33677000Y-45618750D01*
X33597000Y-45698750D01*
X33597000Y-46673000D01*
X33617000Y-46673000D01*
X33617000Y-46927000D01*
X33597000Y-46927000D01*
X33597000Y-46947000D01*
X33343000Y-46947000D01*
X33343000Y-46927000D01*
X33323000Y-46927000D01*
X33323000Y-46673000D01*
X33343000Y-46673000D01*
X33343000Y-46306250D01*
X33423000Y-46226250D01*
X33423000Y-45227000D01*
X33403000Y-45227000D01*
X33403000Y-44973000D01*
X33423000Y-44973000D01*
X33423000Y-44953000D01*
X33677000Y-44953000D01*
X33677000Y-44973000D01*
G36*
X31907000Y-45793000D02*
X31927000Y-45793000D01*
X31927000Y-46047000D01*
X31907000Y-46047000D01*
X31907000Y-46067000D01*
X31653000Y-46067000D01*
X31653000Y-46047000D01*
X31633000Y-46047000D01*
X31633000Y-45793000D01*
X31653000Y-45793000D01*
X31653000Y-45773000D01*
X31907000Y-45773000D01*
X31907000Y-45793000D01*
X31907000Y-45793000D01*
G37*
X31907000Y-45793000D02*
X31927000Y-45793000D01*
X31927000Y-46047000D01*
X31907000Y-46047000D01*
X31907000Y-46067000D01*
X31653000Y-46067000D01*
X31653000Y-46047000D01*
X31633000Y-46047000D01*
X31633000Y-45793000D01*
X31653000Y-45793000D01*
X31653000Y-45773000D01*
X31907000Y-45773000D01*
X31907000Y-45793000D01*
G36*
X29337000Y-41943000D02*
X29357000Y-41943000D01*
X29357000Y-42197000D01*
X29337000Y-42197000D01*
X29337000Y-42217000D01*
X29083000Y-42217000D01*
X29083000Y-42197000D01*
X29063000Y-42197000D01*
X29063000Y-41943000D01*
X29083000Y-41943000D01*
X29083000Y-41923000D01*
X29337000Y-41923000D01*
X29337000Y-41943000D01*
X29337000Y-41943000D01*
G37*
X29337000Y-41943000D02*
X29357000Y-41943000D01*
X29357000Y-42197000D01*
X29337000Y-42197000D01*
X29337000Y-42217000D01*
X29083000Y-42217000D01*
X29083000Y-42197000D01*
X29063000Y-42197000D01*
X29063000Y-41943000D01*
X29083000Y-41943000D01*
X29083000Y-41923000D01*
X29337000Y-41923000D01*
X29337000Y-41943000D01*
G36*
X45862515Y-68643371D02*
X46316266Y-68831785D01*
X46546407Y-68831986D01*
X46887208Y-69172787D01*
X46887210Y-69172790D01*
X47174325Y-69364633D01*
X47207928Y-69371317D01*
X47513000Y-69432001D01*
X47513005Y-69432000D01*
X59783117Y-69432000D01*
X59667569Y-69601110D01*
X59616560Y-69853000D01*
X59616560Y-70553000D01*
X59660838Y-70788317D01*
X59799910Y-71004441D01*
X60012110Y-71149431D01*
X60045490Y-71156191D01*
X59904301Y-71214673D01*
X59725673Y-71393302D01*
X59629000Y-71626691D01*
X59629000Y-71817250D01*
X59787750Y-71976000D01*
X60787000Y-71976000D01*
X60787000Y-71956000D01*
X61041000Y-71956000D01*
X61041000Y-71976000D01*
X62040250Y-71976000D01*
X62199000Y-71817250D01*
X62199000Y-71662941D01*
X62212954Y-71676919D01*
X62593223Y-71834820D01*
X63004971Y-71835179D01*
X63385515Y-71677942D01*
X63450334Y-71613236D01*
X63465910Y-71637441D01*
X63678110Y-71782431D01*
X63930000Y-71833440D01*
X64330000Y-71833440D01*
X64459589Y-71809056D01*
X64580000Y-71833440D01*
X64980000Y-71833440D01*
X65109589Y-71809056D01*
X65230000Y-71833440D01*
X65630000Y-71833440D01*
X65735705Y-71813550D01*
X65753691Y-71821000D01*
X65821250Y-71821000D01*
X65850254Y-71791996D01*
X65865317Y-71789162D01*
X66081441Y-71650090D01*
X66180000Y-71505844D01*
X66180000Y-71662250D01*
X66338750Y-71821000D01*
X66406309Y-71821000D01*
X66639698Y-71724327D01*
X66818327Y-71545699D01*
X66915000Y-71312310D01*
X66915000Y-70871750D01*
X66756250Y-70713000D01*
X66277440Y-70713000D01*
X66277440Y-70459000D01*
X66756250Y-70459000D01*
X66915000Y-70300250D01*
X66915000Y-69859690D01*
X66818327Y-69626301D01*
X66639698Y-69447673D01*
X66406309Y-69351000D01*
X66338750Y-69351000D01*
X66180000Y-69509750D01*
X66180000Y-69668067D01*
X66094090Y-69534559D01*
X65881890Y-69389569D01*
X65854215Y-69383965D01*
X65821250Y-69351000D01*
X65753691Y-69351000D01*
X65733247Y-69359468D01*
X65630000Y-69338560D01*
X65257191Y-69338560D01*
X65162630Y-69244000D01*
X67148364Y-69244000D01*
X67171773Y-82315000D01*
X42945630Y-82315000D01*
X45577815Y-79682816D01*
X45742996Y-79435605D01*
X45746808Y-79416440D01*
X45801000Y-79144000D01*
X45801000Y-76899750D01*
X60755250Y-76899750D01*
X60755250Y-77940460D01*
X60851923Y-78173849D01*
X61030552Y-78352477D01*
X61263941Y-78449150D01*
X63104750Y-78449150D01*
X63263500Y-78290400D01*
X63263500Y-76741000D01*
X63517500Y-76741000D01*
X63517500Y-78290400D01*
X63676250Y-78449150D01*
X65517059Y-78449150D01*
X65750448Y-78352477D01*
X65929077Y-78173849D01*
X66025750Y-77940460D01*
X66025750Y-76899750D01*
X65867000Y-76741000D01*
X63517500Y-76741000D01*
X63263500Y-76741000D01*
X60914000Y-76741000D01*
X60755250Y-76899750D01*
X45801000Y-76899750D01*
X45801000Y-75287540D01*
X60755250Y-75287540D01*
X60755250Y-76328250D01*
X60914000Y-76487000D01*
X63263500Y-76487000D01*
X63263500Y-74937600D01*
X63517500Y-74937600D01*
X63517500Y-76487000D01*
X65867000Y-76487000D01*
X66025750Y-76328250D01*
X66025750Y-75287540D01*
X65929077Y-75054151D01*
X65750448Y-74875523D01*
X65517059Y-74778850D01*
X63676250Y-74778850D01*
X63517500Y-74937600D01*
X63263500Y-74937600D01*
X63104750Y-74778850D01*
X61263941Y-74778850D01*
X61030552Y-74875523D01*
X60851923Y-75054151D01*
X60755250Y-75287540D01*
X45801000Y-75287540D01*
X45801000Y-72388750D01*
X59629000Y-72388750D01*
X59629000Y-72579309D01*
X59725673Y-72812698D01*
X59904301Y-72991327D01*
X60137690Y-73088000D01*
X60628250Y-73088000D01*
X60787000Y-72929250D01*
X60787000Y-72230000D01*
X61041000Y-72230000D01*
X61041000Y-72929250D01*
X61199750Y-73088000D01*
X61690310Y-73088000D01*
X61923699Y-72991327D01*
X62102327Y-72812698D01*
X62199000Y-72579309D01*
X62199000Y-72388750D01*
X62040250Y-72230000D01*
X61041000Y-72230000D01*
X60787000Y-72230000D01*
X59787750Y-72230000D01*
X59629000Y-72388750D01*
X45801000Y-72388750D01*
X45801000Y-68581748D01*
X45862515Y-68643371D01*
X45862515Y-68643371D01*
G37*
X45862515Y-68643371D02*
X46316266Y-68831785D01*
X46546407Y-68831986D01*
X46887208Y-69172787D01*
X46887210Y-69172790D01*
X47174325Y-69364633D01*
X47207928Y-69371317D01*
X47513000Y-69432001D01*
X47513005Y-69432000D01*
X59783117Y-69432000D01*
X59667569Y-69601110D01*
X59616560Y-69853000D01*
X59616560Y-70553000D01*
X59660838Y-70788317D01*
X59799910Y-71004441D01*
X60012110Y-71149431D01*
X60045490Y-71156191D01*
X59904301Y-71214673D01*
X59725673Y-71393302D01*
X59629000Y-71626691D01*
X59629000Y-71817250D01*
X59787750Y-71976000D01*
X60787000Y-71976000D01*
X60787000Y-71956000D01*
X61041000Y-71956000D01*
X61041000Y-71976000D01*
X62040250Y-71976000D01*
X62199000Y-71817250D01*
X62199000Y-71662941D01*
X62212954Y-71676919D01*
X62593223Y-71834820D01*
X63004971Y-71835179D01*
X63385515Y-71677942D01*
X63450334Y-71613236D01*
X63465910Y-71637441D01*
X63678110Y-71782431D01*
X63930000Y-71833440D01*
X64330000Y-71833440D01*
X64459589Y-71809056D01*
X64580000Y-71833440D01*
X64980000Y-71833440D01*
X65109589Y-71809056D01*
X65230000Y-71833440D01*
X65630000Y-71833440D01*
X65735705Y-71813550D01*
X65753691Y-71821000D01*
X65821250Y-71821000D01*
X65850254Y-71791996D01*
X65865317Y-71789162D01*
X66081441Y-71650090D01*
X66180000Y-71505844D01*
X66180000Y-71662250D01*
X66338750Y-71821000D01*
X66406309Y-71821000D01*
X66639698Y-71724327D01*
X66818327Y-71545699D01*
X66915000Y-71312310D01*
X66915000Y-70871750D01*
X66756250Y-70713000D01*
X66277440Y-70713000D01*
X66277440Y-70459000D01*
X66756250Y-70459000D01*
X66915000Y-70300250D01*
X66915000Y-69859690D01*
X66818327Y-69626301D01*
X66639698Y-69447673D01*
X66406309Y-69351000D01*
X66338750Y-69351000D01*
X66180000Y-69509750D01*
X66180000Y-69668067D01*
X66094090Y-69534559D01*
X65881890Y-69389569D01*
X65854215Y-69383965D01*
X65821250Y-69351000D01*
X65753691Y-69351000D01*
X65733247Y-69359468D01*
X65630000Y-69338560D01*
X65257191Y-69338560D01*
X65162630Y-69244000D01*
X67148364Y-69244000D01*
X67171773Y-82315000D01*
X42945630Y-82315000D01*
X45577815Y-79682816D01*
X45742996Y-79435605D01*
X45746808Y-79416440D01*
X45801000Y-79144000D01*
X45801000Y-76899750D01*
X60755250Y-76899750D01*
X60755250Y-77940460D01*
X60851923Y-78173849D01*
X61030552Y-78352477D01*
X61263941Y-78449150D01*
X63104750Y-78449150D01*
X63263500Y-78290400D01*
X63263500Y-76741000D01*
X63517500Y-76741000D01*
X63517500Y-78290400D01*
X63676250Y-78449150D01*
X65517059Y-78449150D01*
X65750448Y-78352477D01*
X65929077Y-78173849D01*
X66025750Y-77940460D01*
X66025750Y-76899750D01*
X65867000Y-76741000D01*
X63517500Y-76741000D01*
X63263500Y-76741000D01*
X60914000Y-76741000D01*
X60755250Y-76899750D01*
X45801000Y-76899750D01*
X45801000Y-75287540D01*
X60755250Y-75287540D01*
X60755250Y-76328250D01*
X60914000Y-76487000D01*
X63263500Y-76487000D01*
X63263500Y-74937600D01*
X63517500Y-74937600D01*
X63517500Y-76487000D01*
X65867000Y-76487000D01*
X66025750Y-76328250D01*
X66025750Y-75287540D01*
X65929077Y-75054151D01*
X65750448Y-74875523D01*
X65517059Y-74778850D01*
X63676250Y-74778850D01*
X63517500Y-74937600D01*
X63263500Y-74937600D01*
X63104750Y-74778850D01*
X61263941Y-74778850D01*
X61030552Y-74875523D01*
X60851923Y-75054151D01*
X60755250Y-75287540D01*
X45801000Y-75287540D01*
X45801000Y-72388750D01*
X59629000Y-72388750D01*
X59629000Y-72579309D01*
X59725673Y-72812698D01*
X59904301Y-72991327D01*
X60137690Y-73088000D01*
X60628250Y-73088000D01*
X60787000Y-72929250D01*
X60787000Y-72230000D01*
X61041000Y-72230000D01*
X61041000Y-72929250D01*
X61199750Y-73088000D01*
X61690310Y-73088000D01*
X61923699Y-72991327D01*
X62102327Y-72812698D01*
X62199000Y-72579309D01*
X62199000Y-72388750D01*
X62040250Y-72230000D01*
X61041000Y-72230000D01*
X60787000Y-72230000D01*
X59787750Y-72230000D01*
X59629000Y-72388750D01*
X45801000Y-72388750D01*
X45801000Y-68581748D01*
X45862515Y-68643371D01*
G36*
X38056110Y-72320931D02*
X38166695Y-72343325D01*
X38658185Y-72834816D01*
X38806377Y-72933834D01*
X38905395Y-72999996D01*
X39197000Y-73058000D01*
X40951130Y-73058000D01*
X40951130Y-73324700D01*
X40995408Y-73560017D01*
X41134480Y-73776141D01*
X41346680Y-73921131D01*
X41598570Y-73972140D01*
X43399430Y-73972140D01*
X43634747Y-73927862D01*
X43850871Y-73788790D01*
X43886000Y-73737377D01*
X43886000Y-74411845D01*
X43759129Y-74284973D01*
X43525740Y-74188300D01*
X42784750Y-74188300D01*
X42626000Y-74347050D01*
X42626000Y-75945980D01*
X42646000Y-75945980D01*
X42646000Y-76199980D01*
X42626000Y-76199980D01*
X42626000Y-77798910D01*
X42784750Y-77957660D01*
X43525740Y-77957660D01*
X43759129Y-77860987D01*
X43886000Y-77734115D01*
X43886000Y-78432369D01*
X41136370Y-81182000D01*
X36796834Y-81182000D01*
X36822096Y-81055000D01*
X37688995Y-81055000D01*
X37689000Y-81055001D01*
X37971484Y-80998810D01*
X38027675Y-80987633D01*
X38314790Y-80795790D01*
X38430140Y-80680440D01*
X38951000Y-80680440D01*
X39186317Y-80636162D01*
X39402441Y-80497090D01*
X39448969Y-80428994D01*
X39591302Y-80571327D01*
X39824691Y-80668000D01*
X40165250Y-80668000D01*
X40324000Y-80509250D01*
X40324000Y-79535000D01*
X40578000Y-79535000D01*
X40578000Y-80509250D01*
X40736750Y-80668000D01*
X41077309Y-80668000D01*
X41310698Y-80571327D01*
X41489327Y-80392699D01*
X41586000Y-80159310D01*
X41586000Y-79693750D01*
X41427250Y-79535000D01*
X40578000Y-79535000D01*
X40324000Y-79535000D01*
X40304000Y-79535000D01*
X40304000Y-79281000D01*
X40324000Y-79281000D01*
X40324000Y-79261000D01*
X40578000Y-79261000D01*
X40578000Y-79281000D01*
X41427250Y-79281000D01*
X41586000Y-79122250D01*
X41586000Y-78656690D01*
X41489327Y-78423301D01*
X41310698Y-78244673D01*
X41077309Y-78148000D01*
X40736750Y-78148000D01*
X40721000Y-78163750D01*
X40721000Y-77788750D01*
X40562250Y-77630000D01*
X39959000Y-77630000D01*
X39959000Y-77650000D01*
X39705000Y-77650000D01*
X39705000Y-77630000D01*
X39685000Y-77630000D01*
X39685000Y-77376000D01*
X39705000Y-77376000D01*
X39705000Y-76455250D01*
X39959000Y-76455250D01*
X39959000Y-77376000D01*
X40562250Y-77376000D01*
X40721000Y-77217250D01*
X40721000Y-76805190D01*
X40624327Y-76571801D01*
X40445698Y-76393173D01*
X40362546Y-76358730D01*
X40963570Y-76358730D01*
X40963570Y-77448969D01*
X41060243Y-77682358D01*
X41238871Y-77860987D01*
X41472260Y-77957660D01*
X42213250Y-77957660D01*
X42372000Y-77798910D01*
X42372000Y-76199980D01*
X41122320Y-76199980D01*
X40963570Y-76358730D01*
X40362546Y-76358730D01*
X40212309Y-76296500D01*
X40117750Y-76296500D01*
X39959000Y-76455250D01*
X39705000Y-76455250D01*
X39546250Y-76296500D01*
X39451691Y-76296500D01*
X39218302Y-76393173D01*
X39191765Y-76419709D01*
X39067890Y-76335069D01*
X38816000Y-76284060D01*
X38308000Y-76284060D01*
X38072683Y-76328338D01*
X37926093Y-76422666D01*
X37797890Y-76335069D01*
X37546000Y-76284060D01*
X37150690Y-76284060D01*
X36814815Y-75948185D01*
X36765240Y-75915060D01*
X36567605Y-75783004D01*
X36276000Y-75725000D01*
X35067630Y-75725000D01*
X36095639Y-74696991D01*
X40963570Y-74696991D01*
X40963570Y-75787230D01*
X41122320Y-75945980D01*
X42372000Y-75945980D01*
X42372000Y-74347050D01*
X42213250Y-74188300D01*
X41472260Y-74188300D01*
X41238871Y-74284973D01*
X41060243Y-74463602D01*
X40963570Y-74696991D01*
X36095639Y-74696991D01*
X37830815Y-72961815D01*
X37877711Y-72891630D01*
X37995996Y-72714605D01*
X38054000Y-72423000D01*
X38054000Y-72319489D01*
X38056110Y-72320931D01*
X38056110Y-72320931D01*
G37*
X38056110Y-72320931D02*
X38166695Y-72343325D01*
X38658185Y-72834816D01*
X38806377Y-72933834D01*
X38905395Y-72999996D01*
X39197000Y-73058000D01*
X40951130Y-73058000D01*
X40951130Y-73324700D01*
X40995408Y-73560017D01*
X41134480Y-73776141D01*
X41346680Y-73921131D01*
X41598570Y-73972140D01*
X43399430Y-73972140D01*
X43634747Y-73927862D01*
X43850871Y-73788790D01*
X43886000Y-73737377D01*
X43886000Y-74411845D01*
X43759129Y-74284973D01*
X43525740Y-74188300D01*
X42784750Y-74188300D01*
X42626000Y-74347050D01*
X42626000Y-75945980D01*
X42646000Y-75945980D01*
X42646000Y-76199980D01*
X42626000Y-76199980D01*
X42626000Y-77798910D01*
X42784750Y-77957660D01*
X43525740Y-77957660D01*
X43759129Y-77860987D01*
X43886000Y-77734115D01*
X43886000Y-78432369D01*
X41136370Y-81182000D01*
X36796834Y-81182000D01*
X36822096Y-81055000D01*
X37688995Y-81055000D01*
X37689000Y-81055001D01*
X37971484Y-80998810D01*
X38027675Y-80987633D01*
X38314790Y-80795790D01*
X38430140Y-80680440D01*
X38951000Y-80680440D01*
X39186317Y-80636162D01*
X39402441Y-80497090D01*
X39448969Y-80428994D01*
X39591302Y-80571327D01*
X39824691Y-80668000D01*
X40165250Y-80668000D01*
X40324000Y-80509250D01*
X40324000Y-79535000D01*
X40578000Y-79535000D01*
X40578000Y-80509250D01*
X40736750Y-80668000D01*
X41077309Y-80668000D01*
X41310698Y-80571327D01*
X41489327Y-80392699D01*
X41586000Y-80159310D01*
X41586000Y-79693750D01*
X41427250Y-79535000D01*
X40578000Y-79535000D01*
X40324000Y-79535000D01*
X40304000Y-79535000D01*
X40304000Y-79281000D01*
X40324000Y-79281000D01*
X40324000Y-79261000D01*
X40578000Y-79261000D01*
X40578000Y-79281000D01*
X41427250Y-79281000D01*
X41586000Y-79122250D01*
X41586000Y-78656690D01*
X41489327Y-78423301D01*
X41310698Y-78244673D01*
X41077309Y-78148000D01*
X40736750Y-78148000D01*
X40721000Y-78163750D01*
X40721000Y-77788750D01*
X40562250Y-77630000D01*
X39959000Y-77630000D01*
X39959000Y-77650000D01*
X39705000Y-77650000D01*
X39705000Y-77630000D01*
X39685000Y-77630000D01*
X39685000Y-77376000D01*
X39705000Y-77376000D01*
X39705000Y-76455250D01*
X39959000Y-76455250D01*
X39959000Y-77376000D01*
X40562250Y-77376000D01*
X40721000Y-77217250D01*
X40721000Y-76805190D01*
X40624327Y-76571801D01*
X40445698Y-76393173D01*
X40362546Y-76358730D01*
X40963570Y-76358730D01*
X40963570Y-77448969D01*
X41060243Y-77682358D01*
X41238871Y-77860987D01*
X41472260Y-77957660D01*
X42213250Y-77957660D01*
X42372000Y-77798910D01*
X42372000Y-76199980D01*
X41122320Y-76199980D01*
X40963570Y-76358730D01*
X40362546Y-76358730D01*
X40212309Y-76296500D01*
X40117750Y-76296500D01*
X39959000Y-76455250D01*
X39705000Y-76455250D01*
X39546250Y-76296500D01*
X39451691Y-76296500D01*
X39218302Y-76393173D01*
X39191765Y-76419709D01*
X39067890Y-76335069D01*
X38816000Y-76284060D01*
X38308000Y-76284060D01*
X38072683Y-76328338D01*
X37926093Y-76422666D01*
X37797890Y-76335069D01*
X37546000Y-76284060D01*
X37150690Y-76284060D01*
X36814815Y-75948185D01*
X36765240Y-75915060D01*
X36567605Y-75783004D01*
X36276000Y-75725000D01*
X35067630Y-75725000D01*
X36095639Y-74696991D01*
X40963570Y-74696991D01*
X40963570Y-75787230D01*
X41122320Y-75945980D01*
X42372000Y-75945980D01*
X42372000Y-74347050D01*
X42213250Y-74188300D01*
X41472260Y-74188300D01*
X41238871Y-74284973D01*
X41060243Y-74463602D01*
X40963570Y-74696991D01*
X36095639Y-74696991D01*
X37830815Y-72961815D01*
X37877711Y-72891630D01*
X37995996Y-72714605D01*
X38054000Y-72423000D01*
X38054000Y-72319489D01*
X38056110Y-72320931D01*
G36*
X83575639Y-70691441D02*
X83609395Y-70713996D01*
X83901000Y-70772000D01*
X84347370Y-70772000D01*
X85267185Y-71691815D01*
X85425000Y-71797264D01*
X85425000Y-72677000D01*
X83520000Y-72677000D01*
X83520000Y-70654264D01*
X83575639Y-70691441D01*
X83575639Y-70691441D01*
G37*
X83575639Y-70691441D02*
X83609395Y-70713996D01*
X83901000Y-70772000D01*
X84347370Y-70772000D01*
X85267185Y-71691815D01*
X85425000Y-71797264D01*
X85425000Y-72677000D01*
X83520000Y-72677000D01*
X83520000Y-70654264D01*
X83575639Y-70691441D01*
G36*
X76684997Y-51562914D02*
X77267341Y-51804724D01*
X77897893Y-51805275D01*
X78060470Y-51738100D01*
X78406435Y-52084065D01*
X78314485Y-52122058D01*
X78023081Y-52412954D01*
X77865180Y-52793223D01*
X77865117Y-52865144D01*
X77495029Y-52864821D01*
X77114485Y-53022058D01*
X76823081Y-53312954D01*
X76665180Y-53693223D01*
X76664821Y-54104971D01*
X76822058Y-54485515D01*
X77112954Y-54776919D01*
X77493223Y-54934820D01*
X77657333Y-54934963D01*
X82884000Y-60161630D01*
X82884000Y-64649060D01*
X82782500Y-64649060D01*
X82547183Y-64693338D01*
X82331059Y-64832410D01*
X82186069Y-65044610D01*
X82135060Y-65296500D01*
X82135060Y-65753500D01*
X82147575Y-65820010D01*
X82147500Y-65820191D01*
X82147500Y-65902000D01*
X82166595Y-65921095D01*
X82179338Y-65988817D01*
X82217420Y-66047998D01*
X82147500Y-66047998D01*
X82147500Y-66063000D01*
X81697988Y-66063000D01*
X81677942Y-66014485D01*
X81387046Y-65723081D01*
X81006777Y-65565180D01*
X80595029Y-65564821D01*
X80214485Y-65722058D01*
X79923081Y-66012954D01*
X79765180Y-66393223D01*
X79764905Y-66708845D01*
X79710000Y-66763750D01*
X79710000Y-67613000D01*
X80540674Y-67613000D01*
X80593223Y-67634820D01*
X81004971Y-67635179D01*
X81121574Y-67587000D01*
X82135060Y-67587000D01*
X82135060Y-67703500D01*
X82179338Y-67938817D01*
X82204552Y-67978000D01*
X80795250Y-67978000D01*
X80684250Y-67867000D01*
X79710000Y-67867000D01*
X79710000Y-67887000D01*
X79456000Y-67887000D01*
X79456000Y-67867000D01*
X78481750Y-67867000D01*
X78370750Y-67978000D01*
X75580630Y-67978000D01*
X75369815Y-67767185D01*
X75341103Y-67748000D01*
X75122605Y-67602004D01*
X74831000Y-67544000D01*
X74763818Y-67544000D01*
X74674090Y-67404559D01*
X74461890Y-67259569D01*
X74210000Y-67208560D01*
X73614000Y-67208560D01*
X73614000Y-67113691D01*
X78323000Y-67113691D01*
X78323000Y-67454250D01*
X78481750Y-67613000D01*
X79456000Y-67613000D01*
X79456000Y-66763750D01*
X79297250Y-66605000D01*
X78831690Y-66605000D01*
X78598301Y-66701673D01*
X78419673Y-66880302D01*
X78323000Y-67113691D01*
X73614000Y-67113691D01*
X73614000Y-65290750D01*
X74427000Y-65290750D01*
X74427000Y-65631309D01*
X74523673Y-65864698D01*
X74702301Y-66043327D01*
X74935690Y-66140000D01*
X76376250Y-66140000D01*
X76535000Y-65981250D01*
X76535000Y-65132000D01*
X76789000Y-65132000D01*
X76789000Y-65981250D01*
X76947750Y-66140000D01*
X78388310Y-66140000D01*
X78621699Y-66043327D01*
X78800327Y-65864698D01*
X78897000Y-65631309D01*
X78897000Y-65290750D01*
X78738250Y-65132000D01*
X76789000Y-65132000D01*
X76535000Y-65132000D01*
X74585750Y-65132000D01*
X74427000Y-65290750D01*
X73614000Y-65290750D01*
X73614000Y-64378691D01*
X74427000Y-64378691D01*
X74427000Y-64719250D01*
X74585750Y-64878000D01*
X76535000Y-64878000D01*
X76535000Y-64028750D01*
X76789000Y-64028750D01*
X76789000Y-64878000D01*
X78738250Y-64878000D01*
X78897000Y-64719250D01*
X78897000Y-64378691D01*
X78800327Y-64145302D01*
X78621699Y-63966673D01*
X78388310Y-63870000D01*
X76947750Y-63870000D01*
X76789000Y-64028750D01*
X76535000Y-64028750D01*
X76376250Y-63870000D01*
X74935690Y-63870000D01*
X74702301Y-63966673D01*
X74523673Y-64145302D01*
X74427000Y-64378691D01*
X73614000Y-64378691D01*
X73614000Y-62898000D01*
X73603994Y-62848590D01*
X73575553Y-62806965D01*
X73533159Y-62779685D01*
X73487000Y-62771000D01*
X71962000Y-62771000D01*
X71962000Y-57997285D01*
X72293223Y-58134820D01*
X72704971Y-58135179D01*
X73085515Y-57977942D01*
X73376919Y-57687046D01*
X73534820Y-57306777D01*
X73535179Y-56895029D01*
X73377942Y-56514485D01*
X73266000Y-56402348D01*
X73266000Y-55343630D01*
X73838000Y-55915630D01*
X73838000Y-59398235D01*
X73723081Y-59512954D01*
X73565180Y-59893223D01*
X73564821Y-60304971D01*
X73722058Y-60685515D01*
X74012954Y-60976919D01*
X74393223Y-61134820D01*
X74804971Y-61135179D01*
X75185515Y-60977942D01*
X75476919Y-60687046D01*
X75634820Y-60306777D01*
X75635179Y-59895029D01*
X75477942Y-59514485D01*
X75362000Y-59398341D01*
X75362000Y-55600000D01*
X75303996Y-55308395D01*
X75138815Y-55061185D01*
X74562000Y-54484370D01*
X74562000Y-51736069D01*
X74727341Y-51804724D01*
X75357893Y-51805275D01*
X75940657Y-51564481D01*
X76314261Y-51191529D01*
X76684997Y-51562914D01*
X76684997Y-51562914D01*
G37*
X76684997Y-51562914D02*
X77267341Y-51804724D01*
X77897893Y-51805275D01*
X78060470Y-51738100D01*
X78406435Y-52084065D01*
X78314485Y-52122058D01*
X78023081Y-52412954D01*
X77865180Y-52793223D01*
X77865117Y-52865144D01*
X77495029Y-52864821D01*
X77114485Y-53022058D01*
X76823081Y-53312954D01*
X76665180Y-53693223D01*
X76664821Y-54104971D01*
X76822058Y-54485515D01*
X77112954Y-54776919D01*
X77493223Y-54934820D01*
X77657333Y-54934963D01*
X82884000Y-60161630D01*
X82884000Y-64649060D01*
X82782500Y-64649060D01*
X82547183Y-64693338D01*
X82331059Y-64832410D01*
X82186069Y-65044610D01*
X82135060Y-65296500D01*
X82135060Y-65753500D01*
X82147575Y-65820010D01*
X82147500Y-65820191D01*
X82147500Y-65902000D01*
X82166595Y-65921095D01*
X82179338Y-65988817D01*
X82217420Y-66047998D01*
X82147500Y-66047998D01*
X82147500Y-66063000D01*
X81697988Y-66063000D01*
X81677942Y-66014485D01*
X81387046Y-65723081D01*
X81006777Y-65565180D01*
X80595029Y-65564821D01*
X80214485Y-65722058D01*
X79923081Y-66012954D01*
X79765180Y-66393223D01*
X79764905Y-66708845D01*
X79710000Y-66763750D01*
X79710000Y-67613000D01*
X80540674Y-67613000D01*
X80593223Y-67634820D01*
X81004971Y-67635179D01*
X81121574Y-67587000D01*
X82135060Y-67587000D01*
X82135060Y-67703500D01*
X82179338Y-67938817D01*
X82204552Y-67978000D01*
X80795250Y-67978000D01*
X80684250Y-67867000D01*
X79710000Y-67867000D01*
X79710000Y-67887000D01*
X79456000Y-67887000D01*
X79456000Y-67867000D01*
X78481750Y-67867000D01*
X78370750Y-67978000D01*
X75580630Y-67978000D01*
X75369815Y-67767185D01*
X75341103Y-67748000D01*
X75122605Y-67602004D01*
X74831000Y-67544000D01*
X74763818Y-67544000D01*
X74674090Y-67404559D01*
X74461890Y-67259569D01*
X74210000Y-67208560D01*
X73614000Y-67208560D01*
X73614000Y-67113691D01*
X78323000Y-67113691D01*
X78323000Y-67454250D01*
X78481750Y-67613000D01*
X79456000Y-67613000D01*
X79456000Y-66763750D01*
X79297250Y-66605000D01*
X78831690Y-66605000D01*
X78598301Y-66701673D01*
X78419673Y-66880302D01*
X78323000Y-67113691D01*
X73614000Y-67113691D01*
X73614000Y-65290750D01*
X74427000Y-65290750D01*
X74427000Y-65631309D01*
X74523673Y-65864698D01*
X74702301Y-66043327D01*
X74935690Y-66140000D01*
X76376250Y-66140000D01*
X76535000Y-65981250D01*
X76535000Y-65132000D01*
X76789000Y-65132000D01*
X76789000Y-65981250D01*
X76947750Y-66140000D01*
X78388310Y-66140000D01*
X78621699Y-66043327D01*
X78800327Y-65864698D01*
X78897000Y-65631309D01*
X78897000Y-65290750D01*
X78738250Y-65132000D01*
X76789000Y-65132000D01*
X76535000Y-65132000D01*
X74585750Y-65132000D01*
X74427000Y-65290750D01*
X73614000Y-65290750D01*
X73614000Y-64378691D01*
X74427000Y-64378691D01*
X74427000Y-64719250D01*
X74585750Y-64878000D01*
X76535000Y-64878000D01*
X76535000Y-64028750D01*
X76789000Y-64028750D01*
X76789000Y-64878000D01*
X78738250Y-64878000D01*
X78897000Y-64719250D01*
X78897000Y-64378691D01*
X78800327Y-64145302D01*
X78621699Y-63966673D01*
X78388310Y-63870000D01*
X76947750Y-63870000D01*
X76789000Y-64028750D01*
X76535000Y-64028750D01*
X76376250Y-63870000D01*
X74935690Y-63870000D01*
X74702301Y-63966673D01*
X74523673Y-64145302D01*
X74427000Y-64378691D01*
X73614000Y-64378691D01*
X73614000Y-62898000D01*
X73603994Y-62848590D01*
X73575553Y-62806965D01*
X73533159Y-62779685D01*
X73487000Y-62771000D01*
X71962000Y-62771000D01*
X71962000Y-57997285D01*
X72293223Y-58134820D01*
X72704971Y-58135179D01*
X73085515Y-57977942D01*
X73376919Y-57687046D01*
X73534820Y-57306777D01*
X73535179Y-56895029D01*
X73377942Y-56514485D01*
X73266000Y-56402348D01*
X73266000Y-55343630D01*
X73838000Y-55915630D01*
X73838000Y-59398235D01*
X73723081Y-59512954D01*
X73565180Y-59893223D01*
X73564821Y-60304971D01*
X73722058Y-60685515D01*
X74012954Y-60976919D01*
X74393223Y-61134820D01*
X74804971Y-61135179D01*
X75185515Y-60977942D01*
X75476919Y-60687046D01*
X75634820Y-60306777D01*
X75635179Y-59895029D01*
X75477942Y-59514485D01*
X75362000Y-59398341D01*
X75362000Y-55600000D01*
X75303996Y-55308395D01*
X75138815Y-55061185D01*
X74562000Y-54484370D01*
X74562000Y-51736069D01*
X74727341Y-51804724D01*
X75357893Y-51805275D01*
X75940657Y-51564481D01*
X76314261Y-51191529D01*
X76684997Y-51562914D01*
G36*
X58904997Y-51562914D02*
X59487341Y-51804724D01*
X59731950Y-51804938D01*
X59596004Y-52008395D01*
X59538000Y-52300000D01*
X59538000Y-61600000D01*
X59596004Y-61891605D01*
X59674445Y-62009000D01*
X59761185Y-62138815D01*
X59997560Y-62375191D01*
X59997560Y-62420000D01*
X60041838Y-62655317D01*
X60180910Y-62871441D01*
X60393110Y-63016431D01*
X60533000Y-63044759D01*
X60533000Y-63078000D01*
X60591004Y-63369605D01*
X60756185Y-63616815D01*
X60779560Y-63640190D01*
X60779560Y-64510000D01*
X60823838Y-64745317D01*
X60962910Y-64961441D01*
X61175110Y-65106431D01*
X61427000Y-65157440D01*
X62327000Y-65157440D01*
X62562317Y-65113162D01*
X62778441Y-64974090D01*
X62923431Y-64761890D01*
X62974440Y-64510000D01*
X62974440Y-62810000D01*
X62930162Y-62574683D01*
X62791090Y-62358559D01*
X62592440Y-62222827D01*
X62592440Y-61720000D01*
X62548162Y-61484683D01*
X62409090Y-61268559D01*
X62196890Y-61123569D01*
X62163510Y-61116809D01*
X62304699Y-61058327D01*
X62483327Y-60879698D01*
X62580000Y-60646309D01*
X62580000Y-60455750D01*
X62421250Y-60297000D01*
X61422000Y-60297000D01*
X61422000Y-60317000D01*
X61168000Y-60317000D01*
X61168000Y-60297000D01*
X61148000Y-60297000D01*
X61148000Y-60043000D01*
X61168000Y-60043000D01*
X61168000Y-59343750D01*
X61422000Y-59343750D01*
X61422000Y-60043000D01*
X62421250Y-60043000D01*
X62580000Y-59884250D01*
X62580000Y-59693691D01*
X62483327Y-59460302D01*
X62304699Y-59281673D01*
X62071310Y-59185000D01*
X61580750Y-59185000D01*
X61422000Y-59343750D01*
X61168000Y-59343750D01*
X61062000Y-59237750D01*
X61062000Y-52615630D01*
X61582000Y-52095630D01*
X61582000Y-53054138D01*
X61523081Y-53112954D01*
X61365180Y-53493223D01*
X61364821Y-53904971D01*
X61426283Y-54053722D01*
X61298559Y-54135910D01*
X61153569Y-54348110D01*
X61102560Y-54600000D01*
X61102560Y-55300000D01*
X61146838Y-55535317D01*
X61285910Y-55751441D01*
X61498110Y-55896431D01*
X61511197Y-55899081D01*
X61298559Y-56035910D01*
X61153569Y-56248110D01*
X61102560Y-56500000D01*
X61102560Y-57200000D01*
X61146838Y-57435317D01*
X61285910Y-57651441D01*
X61498110Y-57796431D01*
X61750000Y-57847440D01*
X63050000Y-57847440D01*
X63285317Y-57803162D01*
X63501441Y-57664090D01*
X63537033Y-57612000D01*
X63760530Y-57612000D01*
X63785910Y-57651441D01*
X63998110Y-57796431D01*
X64250000Y-57847440D01*
X65550000Y-57847440D01*
X65785317Y-57803162D01*
X66001441Y-57664090D01*
X66037033Y-57612000D01*
X66950000Y-57612000D01*
X67241605Y-57553996D01*
X67488815Y-57388815D01*
X69238816Y-55638815D01*
X69339042Y-55488815D01*
X69403996Y-55391605D01*
X69462000Y-55100000D01*
X69462000Y-51727764D01*
X69647341Y-51804724D01*
X70277893Y-51805275D01*
X70438000Y-51739120D01*
X70438000Y-62771000D01*
X67264000Y-62771000D01*
X67214590Y-62781006D01*
X67172965Y-62809447D01*
X67145685Y-62851841D01*
X67137043Y-62898000D01*
X65874440Y-62898000D01*
X65874440Y-62810000D01*
X65830162Y-62574683D01*
X65691090Y-62358559D01*
X65478890Y-62213569D01*
X65227000Y-62162560D01*
X64327000Y-62162560D01*
X64091683Y-62206838D01*
X63875559Y-62345910D01*
X63730569Y-62558110D01*
X63679560Y-62810000D01*
X63679560Y-64510000D01*
X63723838Y-64745317D01*
X63862910Y-64961441D01*
X64075110Y-65106431D01*
X64233768Y-65138560D01*
X63930000Y-65138560D01*
X63694683Y-65182838D01*
X63478559Y-65321910D01*
X63333569Y-65534110D01*
X63282560Y-65786000D01*
X63282560Y-66601930D01*
X62816033Y-66135403D01*
X62802162Y-66061683D01*
X62663090Y-65845559D01*
X62450890Y-65700569D01*
X62199000Y-65649560D01*
X60899000Y-65649560D01*
X60663683Y-65693838D01*
X60447559Y-65832910D01*
X60302569Y-66045110D01*
X60251560Y-66297000D01*
X60251560Y-66997000D01*
X60295838Y-67232317D01*
X60434910Y-67448441D01*
X60647110Y-67593431D01*
X60660197Y-67596081D01*
X60557756Y-67662000D01*
X47879579Y-67662000D01*
X47798015Y-67580436D01*
X47798214Y-67352421D01*
X47610592Y-66898343D01*
X47263485Y-66550629D01*
X46809734Y-66362215D01*
X46318421Y-66361786D01*
X45864343Y-66549408D01*
X45801000Y-66612640D01*
X45801000Y-64626630D01*
X56517594Y-53910037D01*
X56679971Y-53910179D01*
X57060515Y-53752942D01*
X57351919Y-53462046D01*
X57509820Y-53081777D01*
X57510179Y-52670029D01*
X57352942Y-52289485D01*
X57062046Y-51998081D01*
X56681777Y-51840180D01*
X56270029Y-51839821D01*
X55889485Y-51997058D01*
X55825077Y-52061353D01*
X55687046Y-51923081D01*
X55306777Y-51765180D01*
X55135292Y-51765030D01*
X55620657Y-51564481D01*
X55994261Y-51191529D01*
X56364997Y-51562914D01*
X56947341Y-51804724D01*
X57577893Y-51805275D01*
X58160657Y-51564481D01*
X58534261Y-51191529D01*
X58904997Y-51562914D01*
X58904997Y-51562914D01*
G37*
X58904997Y-51562914D02*
X59487341Y-51804724D01*
X59731950Y-51804938D01*
X59596004Y-52008395D01*
X59538000Y-52300000D01*
X59538000Y-61600000D01*
X59596004Y-61891605D01*
X59674445Y-62009000D01*
X59761185Y-62138815D01*
X59997560Y-62375191D01*
X59997560Y-62420000D01*
X60041838Y-62655317D01*
X60180910Y-62871441D01*
X60393110Y-63016431D01*
X60533000Y-63044759D01*
X60533000Y-63078000D01*
X60591004Y-63369605D01*
X60756185Y-63616815D01*
X60779560Y-63640190D01*
X60779560Y-64510000D01*
X60823838Y-64745317D01*
X60962910Y-64961441D01*
X61175110Y-65106431D01*
X61427000Y-65157440D01*
X62327000Y-65157440D01*
X62562317Y-65113162D01*
X62778441Y-64974090D01*
X62923431Y-64761890D01*
X62974440Y-64510000D01*
X62974440Y-62810000D01*
X62930162Y-62574683D01*
X62791090Y-62358559D01*
X62592440Y-62222827D01*
X62592440Y-61720000D01*
X62548162Y-61484683D01*
X62409090Y-61268559D01*
X62196890Y-61123569D01*
X62163510Y-61116809D01*
X62304699Y-61058327D01*
X62483327Y-60879698D01*
X62580000Y-60646309D01*
X62580000Y-60455750D01*
X62421250Y-60297000D01*
X61422000Y-60297000D01*
X61422000Y-60317000D01*
X61168000Y-60317000D01*
X61168000Y-60297000D01*
X61148000Y-60297000D01*
X61148000Y-60043000D01*
X61168000Y-60043000D01*
X61168000Y-59343750D01*
X61422000Y-59343750D01*
X61422000Y-60043000D01*
X62421250Y-60043000D01*
X62580000Y-59884250D01*
X62580000Y-59693691D01*
X62483327Y-59460302D01*
X62304699Y-59281673D01*
X62071310Y-59185000D01*
X61580750Y-59185000D01*
X61422000Y-59343750D01*
X61168000Y-59343750D01*
X61062000Y-59237750D01*
X61062000Y-52615630D01*
X61582000Y-52095630D01*
X61582000Y-53054138D01*
X61523081Y-53112954D01*
X61365180Y-53493223D01*
X61364821Y-53904971D01*
X61426283Y-54053722D01*
X61298559Y-54135910D01*
X61153569Y-54348110D01*
X61102560Y-54600000D01*
X61102560Y-55300000D01*
X61146838Y-55535317D01*
X61285910Y-55751441D01*
X61498110Y-55896431D01*
X61511197Y-55899081D01*
X61298559Y-56035910D01*
X61153569Y-56248110D01*
X61102560Y-56500000D01*
X61102560Y-57200000D01*
X61146838Y-57435317D01*
X61285910Y-57651441D01*
X61498110Y-57796431D01*
X61750000Y-57847440D01*
X63050000Y-57847440D01*
X63285317Y-57803162D01*
X63501441Y-57664090D01*
X63537033Y-57612000D01*
X63760530Y-57612000D01*
X63785910Y-57651441D01*
X63998110Y-57796431D01*
X64250000Y-57847440D01*
X65550000Y-57847440D01*
X65785317Y-57803162D01*
X66001441Y-57664090D01*
X66037033Y-57612000D01*
X66950000Y-57612000D01*
X67241605Y-57553996D01*
X67488815Y-57388815D01*
X69238816Y-55638815D01*
X69339042Y-55488815D01*
X69403996Y-55391605D01*
X69462000Y-55100000D01*
X69462000Y-51727764D01*
X69647341Y-51804724D01*
X70277893Y-51805275D01*
X70438000Y-51739120D01*
X70438000Y-62771000D01*
X67264000Y-62771000D01*
X67214590Y-62781006D01*
X67172965Y-62809447D01*
X67145685Y-62851841D01*
X67137043Y-62898000D01*
X65874440Y-62898000D01*
X65874440Y-62810000D01*
X65830162Y-62574683D01*
X65691090Y-62358559D01*
X65478890Y-62213569D01*
X65227000Y-62162560D01*
X64327000Y-62162560D01*
X64091683Y-62206838D01*
X63875559Y-62345910D01*
X63730569Y-62558110D01*
X63679560Y-62810000D01*
X63679560Y-64510000D01*
X63723838Y-64745317D01*
X63862910Y-64961441D01*
X64075110Y-65106431D01*
X64233768Y-65138560D01*
X63930000Y-65138560D01*
X63694683Y-65182838D01*
X63478559Y-65321910D01*
X63333569Y-65534110D01*
X63282560Y-65786000D01*
X63282560Y-66601930D01*
X62816033Y-66135403D01*
X62802162Y-66061683D01*
X62663090Y-65845559D01*
X62450890Y-65700569D01*
X62199000Y-65649560D01*
X60899000Y-65649560D01*
X60663683Y-65693838D01*
X60447559Y-65832910D01*
X60302569Y-66045110D01*
X60251560Y-66297000D01*
X60251560Y-66997000D01*
X60295838Y-67232317D01*
X60434910Y-67448441D01*
X60647110Y-67593431D01*
X60660197Y-67596081D01*
X60557756Y-67662000D01*
X47879579Y-67662000D01*
X47798015Y-67580436D01*
X47798214Y-67352421D01*
X47610592Y-66898343D01*
X47263485Y-66550629D01*
X46809734Y-66362215D01*
X46318421Y-66361786D01*
X45864343Y-66549408D01*
X45801000Y-66612640D01*
X45801000Y-64626630D01*
X56517594Y-53910037D01*
X56679971Y-53910179D01*
X57060515Y-53752942D01*
X57351919Y-53462046D01*
X57509820Y-53081777D01*
X57510179Y-52670029D01*
X57352942Y-52289485D01*
X57062046Y-51998081D01*
X56681777Y-51840180D01*
X56270029Y-51839821D01*
X55889485Y-51997058D01*
X55825077Y-52061353D01*
X55687046Y-51923081D01*
X55306777Y-51765180D01*
X55135292Y-51765030D01*
X55620657Y-51564481D01*
X55994261Y-51191529D01*
X56364997Y-51562914D01*
X56947341Y-51804724D01*
X57577893Y-51805275D01*
X58160657Y-51564481D01*
X58534261Y-51191529D01*
X58904997Y-51562914D01*
G36*
X97235910Y-54276441D02*
X97448110Y-54421431D01*
X97700000Y-54472440D01*
X98700000Y-54472440D01*
X98935317Y-54428162D01*
X99151441Y-54289090D01*
X99152390Y-54287701D01*
X99348110Y-54421431D01*
X99600000Y-54472440D01*
X99923622Y-54472440D01*
X99903228Y-65819000D01*
X97701440Y-65819000D01*
X97701440Y-65341000D01*
X97657162Y-65105683D01*
X97518090Y-64889559D01*
X97305890Y-64744569D01*
X97054000Y-64693560D01*
X94624000Y-64693560D01*
X94388683Y-64737838D01*
X94172559Y-64876910D01*
X94027569Y-65089110D01*
X93976560Y-65341000D01*
X93976560Y-65819000D01*
X93543000Y-65819000D01*
X93543000Y-65485750D01*
X93384250Y-65327000D01*
X92410000Y-65327000D01*
X92410000Y-65347000D01*
X92156000Y-65347000D01*
X92156000Y-65327000D01*
X92136000Y-65327000D01*
X92136000Y-65073000D01*
X92156000Y-65073000D01*
X92156000Y-65053000D01*
X92410000Y-65053000D01*
X92410000Y-65073000D01*
X93384250Y-65073000D01*
X93543000Y-64914250D01*
X93543000Y-64602072D01*
X93561698Y-64594327D01*
X93740327Y-64415699D01*
X93837000Y-64182310D01*
X93837000Y-63691750D01*
X93678250Y-63533000D01*
X92979000Y-63533000D01*
X92979000Y-63553000D01*
X92725000Y-63553000D01*
X92725000Y-63533000D01*
X92705000Y-63533000D01*
X92705000Y-63279000D01*
X92725000Y-63279000D01*
X92725000Y-62525250D01*
X92775000Y-62475250D01*
X92775000Y-61501000D01*
X92755000Y-61501000D01*
X92755000Y-61247000D01*
X92775000Y-61247000D01*
X92775000Y-61227000D01*
X93029000Y-61227000D01*
X93029000Y-61247000D01*
X93049000Y-61247000D01*
X93049000Y-61501000D01*
X93029000Y-61501000D01*
X93029000Y-62229750D01*
X92979000Y-62279750D01*
X92979000Y-63279000D01*
X93678250Y-63279000D01*
X93837000Y-63120250D01*
X93837000Y-62629690D01*
X93787892Y-62511133D01*
X93940327Y-62358699D01*
X94037000Y-62125310D01*
X94037000Y-61713191D01*
X94085673Y-61830698D01*
X94264301Y-62009327D01*
X94497690Y-62106000D01*
X95553250Y-62106000D01*
X95712000Y-61947250D01*
X95712000Y-60413000D01*
X95966000Y-60413000D01*
X95966000Y-61947250D01*
X96124750Y-62106000D01*
X97180310Y-62106000D01*
X97413699Y-62009327D01*
X97592327Y-61830698D01*
X97689000Y-61597309D01*
X97689000Y-60571750D01*
X97530250Y-60413000D01*
X95966000Y-60413000D01*
X95712000Y-60413000D01*
X94147750Y-60413000D01*
X94008021Y-60552729D01*
X93940327Y-60389301D01*
X93761698Y-60210673D01*
X93528309Y-60114000D01*
X93463630Y-60114000D01*
X93989000Y-59588630D01*
X93989000Y-60000250D01*
X94147750Y-60159000D01*
X95712000Y-60159000D01*
X95712000Y-58624750D01*
X95966000Y-58624750D01*
X95966000Y-60159000D01*
X97530250Y-60159000D01*
X97689000Y-60000250D01*
X97689000Y-58974691D01*
X97592327Y-58741302D01*
X97413699Y-58562673D01*
X97180310Y-58466000D01*
X96124750Y-58466000D01*
X95966000Y-58624750D01*
X95712000Y-58624750D01*
X95553250Y-58466000D01*
X95111630Y-58466000D01*
X95188810Y-58388820D01*
X95188816Y-58388816D01*
X95188820Y-58388810D01*
X95438815Y-58138815D01*
X95603996Y-57891605D01*
X95618637Y-57818000D01*
X95662000Y-57600000D01*
X95662000Y-54464745D01*
X95700000Y-54472440D01*
X96700000Y-54472440D01*
X96935317Y-54428162D01*
X97151441Y-54289090D01*
X97199134Y-54219289D01*
X97235910Y-54276441D01*
X97235910Y-54276441D01*
G37*
X97235910Y-54276441D02*
X97448110Y-54421431D01*
X97700000Y-54472440D01*
X98700000Y-54472440D01*
X98935317Y-54428162D01*
X99151441Y-54289090D01*
X99152390Y-54287701D01*
X99348110Y-54421431D01*
X99600000Y-54472440D01*
X99923622Y-54472440D01*
X99903228Y-65819000D01*
X97701440Y-65819000D01*
X97701440Y-65341000D01*
X97657162Y-65105683D01*
X97518090Y-64889559D01*
X97305890Y-64744569D01*
X97054000Y-64693560D01*
X94624000Y-64693560D01*
X94388683Y-64737838D01*
X94172559Y-64876910D01*
X94027569Y-65089110D01*
X93976560Y-65341000D01*
X93976560Y-65819000D01*
X93543000Y-65819000D01*
X93543000Y-65485750D01*
X93384250Y-65327000D01*
X92410000Y-65327000D01*
X92410000Y-65347000D01*
X92156000Y-65347000D01*
X92156000Y-65327000D01*
X92136000Y-65327000D01*
X92136000Y-65073000D01*
X92156000Y-65073000D01*
X92156000Y-65053000D01*
X92410000Y-65053000D01*
X92410000Y-65073000D01*
X93384250Y-65073000D01*
X93543000Y-64914250D01*
X93543000Y-64602072D01*
X93561698Y-64594327D01*
X93740327Y-64415699D01*
X93837000Y-64182310D01*
X93837000Y-63691750D01*
X93678250Y-63533000D01*
X92979000Y-63533000D01*
X92979000Y-63553000D01*
X92725000Y-63553000D01*
X92725000Y-63533000D01*
X92705000Y-63533000D01*
X92705000Y-63279000D01*
X92725000Y-63279000D01*
X92725000Y-62525250D01*
X92775000Y-62475250D01*
X92775000Y-61501000D01*
X92755000Y-61501000D01*
X92755000Y-61247000D01*
X92775000Y-61247000D01*
X92775000Y-61227000D01*
X93029000Y-61227000D01*
X93029000Y-61247000D01*
X93049000Y-61247000D01*
X93049000Y-61501000D01*
X93029000Y-61501000D01*
X93029000Y-62229750D01*
X92979000Y-62279750D01*
X92979000Y-63279000D01*
X93678250Y-63279000D01*
X93837000Y-63120250D01*
X93837000Y-62629690D01*
X93787892Y-62511133D01*
X93940327Y-62358699D01*
X94037000Y-62125310D01*
X94037000Y-61713191D01*
X94085673Y-61830698D01*
X94264301Y-62009327D01*
X94497690Y-62106000D01*
X95553250Y-62106000D01*
X95712000Y-61947250D01*
X95712000Y-60413000D01*
X95966000Y-60413000D01*
X95966000Y-61947250D01*
X96124750Y-62106000D01*
X97180310Y-62106000D01*
X97413699Y-62009327D01*
X97592327Y-61830698D01*
X97689000Y-61597309D01*
X97689000Y-60571750D01*
X97530250Y-60413000D01*
X95966000Y-60413000D01*
X95712000Y-60413000D01*
X94147750Y-60413000D01*
X94008021Y-60552729D01*
X93940327Y-60389301D01*
X93761698Y-60210673D01*
X93528309Y-60114000D01*
X93463630Y-60114000D01*
X93989000Y-59588630D01*
X93989000Y-60000250D01*
X94147750Y-60159000D01*
X95712000Y-60159000D01*
X95712000Y-58624750D01*
X95966000Y-58624750D01*
X95966000Y-60159000D01*
X97530250Y-60159000D01*
X97689000Y-60000250D01*
X97689000Y-58974691D01*
X97592327Y-58741302D01*
X97413699Y-58562673D01*
X97180310Y-58466000D01*
X96124750Y-58466000D01*
X95966000Y-58624750D01*
X95712000Y-58624750D01*
X95553250Y-58466000D01*
X95111630Y-58466000D01*
X95188810Y-58388820D01*
X95188816Y-58388816D01*
X95188820Y-58388810D01*
X95438815Y-58138815D01*
X95603996Y-57891605D01*
X95618637Y-57818000D01*
X95662000Y-57600000D01*
X95662000Y-54464745D01*
X95700000Y-54472440D01*
X96700000Y-54472440D01*
X96935317Y-54428162D01*
X97151441Y-54289090D01*
X97199134Y-54219289D01*
X97235910Y-54276441D01*
G36*
X41393981Y-60250560D02*
X39217000Y-60250560D01*
X38981683Y-60294838D01*
X38765559Y-60433910D01*
X38743275Y-60466524D01*
X38744540Y-60460832D01*
X38623214Y-60231000D01*
X36530000Y-60231000D01*
X36530000Y-60251000D01*
X36276000Y-60251000D01*
X36276000Y-60231000D01*
X34182786Y-60231000D01*
X34061460Y-60460832D01*
X34082351Y-60554810D01*
X34199525Y-60767417D01*
X34062185Y-60859185D01*
X32741636Y-62179734D01*
X32370907Y-62025794D01*
X31720666Y-62025226D01*
X31555473Y-62093483D01*
X30314440Y-60852450D01*
X30314440Y-59747168D01*
X34061460Y-59747168D01*
X34182786Y-59977000D01*
X36276000Y-59977000D01*
X36276000Y-58619370D01*
X36530000Y-58619370D01*
X36530000Y-59977000D01*
X38623214Y-59977000D01*
X38744540Y-59747168D01*
X38723649Y-59653190D01*
X38443024Y-59144011D01*
X37988906Y-58780982D01*
X37430430Y-58619370D01*
X36530000Y-58619370D01*
X36276000Y-58619370D01*
X35375570Y-58619370D01*
X34817094Y-58780982D01*
X34362976Y-59144011D01*
X34082351Y-59653190D01*
X34061460Y-59747168D01*
X30314440Y-59747168D01*
X30314440Y-59508000D01*
X30288602Y-59370686D01*
X30307000Y-59374345D01*
X30880489Y-59260271D01*
X31366670Y-58935415D01*
X31577000Y-58620634D01*
X31787330Y-58935415D01*
X32273511Y-59260271D01*
X32847000Y-59374345D01*
X33420489Y-59260271D01*
X33906670Y-58935415D01*
X34146824Y-58576000D01*
X39719420Y-58576000D01*
X41393981Y-60250560D01*
X41393981Y-60250560D01*
G37*
X41393981Y-60250560D02*
X39217000Y-60250560D01*
X38981683Y-60294838D01*
X38765559Y-60433910D01*
X38743275Y-60466524D01*
X38744540Y-60460832D01*
X38623214Y-60231000D01*
X36530000Y-60231000D01*
X36530000Y-60251000D01*
X36276000Y-60251000D01*
X36276000Y-60231000D01*
X34182786Y-60231000D01*
X34061460Y-60460832D01*
X34082351Y-60554810D01*
X34199525Y-60767417D01*
X34062185Y-60859185D01*
X32741636Y-62179734D01*
X32370907Y-62025794D01*
X31720666Y-62025226D01*
X31555473Y-62093483D01*
X30314440Y-60852450D01*
X30314440Y-59747168D01*
X34061460Y-59747168D01*
X34182786Y-59977000D01*
X36276000Y-59977000D01*
X36276000Y-58619370D01*
X36530000Y-58619370D01*
X36530000Y-59977000D01*
X38623214Y-59977000D01*
X38744540Y-59747168D01*
X38723649Y-59653190D01*
X38443024Y-59144011D01*
X37988906Y-58780982D01*
X37430430Y-58619370D01*
X36530000Y-58619370D01*
X36276000Y-58619370D01*
X35375570Y-58619370D01*
X34817094Y-58780982D01*
X34362976Y-59144011D01*
X34082351Y-59653190D01*
X34061460Y-59747168D01*
X30314440Y-59747168D01*
X30314440Y-59508000D01*
X30288602Y-59370686D01*
X30307000Y-59374345D01*
X30880489Y-59260271D01*
X31366670Y-58935415D01*
X31577000Y-58620634D01*
X31787330Y-58935415D01*
X32273511Y-59260271D01*
X32847000Y-59374345D01*
X33420489Y-59260271D01*
X33906670Y-58935415D01*
X34146824Y-58576000D01*
X39719420Y-58576000D01*
X41393981Y-60250560D01*
G36*
X90738000Y-29264858D02*
X90695029Y-29264821D01*
X90314485Y-29422058D01*
X90023081Y-29712954D01*
X89865180Y-30093223D01*
X89864821Y-30504971D01*
X90022058Y-30885515D01*
X90312954Y-31176919D01*
X90693223Y-31334820D01*
X91104971Y-31335179D01*
X91485515Y-31177942D01*
X91776919Y-30887046D01*
X91934820Y-30506777D01*
X91934963Y-30342667D01*
X92038815Y-30238815D01*
X92203996Y-29991605D01*
X92212751Y-29947592D01*
X92262000Y-29700000D01*
X92262000Y-27839630D01*
X92564963Y-28142593D01*
X92564821Y-28304971D01*
X92722058Y-28685515D01*
X93012954Y-28976919D01*
X93393223Y-29134820D01*
X93438000Y-29134859D01*
X93438000Y-29888385D01*
X93114485Y-30022058D01*
X92823081Y-30312954D01*
X92665180Y-30693223D01*
X92664821Y-31104971D01*
X92822058Y-31485515D01*
X93112954Y-31776919D01*
X93189163Y-31808564D01*
X92914485Y-31922058D01*
X92683580Y-32152560D01*
X91850000Y-32152560D01*
X91614683Y-32196838D01*
X91398559Y-32335910D01*
X91253569Y-32548110D01*
X91202560Y-32800000D01*
X91202560Y-33500000D01*
X91246838Y-33735317D01*
X91385910Y-33951441D01*
X91598110Y-34096431D01*
X91611197Y-34099081D01*
X91398559Y-34235910D01*
X91253569Y-34448110D01*
X91202560Y-34700000D01*
X91202560Y-35400000D01*
X91246838Y-35635317D01*
X91269518Y-35670563D01*
X91253120Y-35751540D01*
X91253120Y-36950420D01*
X91297398Y-37185737D01*
X91436470Y-37401861D01*
X91437467Y-37402543D01*
X91304129Y-37597690D01*
X91253120Y-37849580D01*
X91253120Y-39048460D01*
X91297398Y-39283777D01*
X91436470Y-39499901D01*
X91648670Y-39644891D01*
X91900560Y-39695900D01*
X93099440Y-39695900D01*
X93334757Y-39651622D01*
X93456510Y-39573276D01*
X93365180Y-39793223D01*
X93364821Y-40204971D01*
X93419325Y-40336881D01*
X93246734Y-40265215D01*
X92755421Y-40264786D01*
X92301343Y-40452408D01*
X91953629Y-40799515D01*
X91765215Y-41253266D01*
X91765014Y-41483406D01*
X91174210Y-42074210D01*
X90982367Y-42361325D01*
X90981576Y-42365302D01*
X90914999Y-42700000D01*
X90915000Y-42700005D01*
X90915000Y-48338600D01*
X90653629Y-48599515D01*
X90465215Y-49053266D01*
X90464786Y-49544579D01*
X90652408Y-49998657D01*
X90999515Y-50346371D01*
X91453266Y-50534785D01*
X91944579Y-50535214D01*
X92398657Y-50347592D01*
X92746371Y-50000485D01*
X92934785Y-49546734D01*
X92935214Y-49055421D01*
X92747592Y-48601343D01*
X92685000Y-48538642D01*
X92685000Y-43066580D01*
X93016565Y-42735015D01*
X93244579Y-42735214D01*
X93698657Y-42547592D01*
X94046371Y-42200485D01*
X94138000Y-41979818D01*
X94138000Y-51198235D01*
X94023081Y-51312954D01*
X93865180Y-51693223D01*
X93864821Y-52104971D01*
X94022058Y-52485515D01*
X94138000Y-52601659D01*
X94138000Y-57088000D01*
X91275789Y-57088000D01*
X91376919Y-56987046D01*
X91534820Y-56606777D01*
X91535179Y-56195029D01*
X91377942Y-55814485D01*
X91087046Y-55523081D01*
X90706777Y-55365180D01*
X90519720Y-55365017D01*
X90341605Y-55246004D01*
X90267281Y-55231220D01*
X90214090Y-55148559D01*
X90001890Y-55003569D01*
X89862000Y-54975241D01*
X89862000Y-54900000D01*
X89803996Y-54608395D01*
X89721890Y-54485515D01*
X89697440Y-54448923D01*
X89697440Y-54340000D01*
X89675007Y-54220778D01*
X89697440Y-54110000D01*
X89697440Y-53690000D01*
X89680138Y-53598048D01*
X89685000Y-53586310D01*
X89685000Y-53513750D01*
X89659473Y-53488223D01*
X89653162Y-53454683D01*
X89514090Y-53238559D01*
X89377162Y-53145000D01*
X89526250Y-53145000D01*
X89685000Y-52986250D01*
X89685000Y-52913690D01*
X89588327Y-52680301D01*
X89409698Y-52501673D01*
X89176309Y-52405000D01*
X89035750Y-52405000D01*
X88934821Y-52505929D01*
X88935179Y-52095029D01*
X88777942Y-51714485D01*
X88487046Y-51423081D01*
X88106777Y-51265180D01*
X87695029Y-51264821D01*
X87314485Y-51422058D01*
X87023081Y-51712954D01*
X86865180Y-52093223D01*
X86865037Y-52257333D01*
X86729810Y-52392560D01*
X86550000Y-52392560D01*
X86314683Y-52436838D01*
X86098559Y-52575910D01*
X85953569Y-52788110D01*
X85902560Y-53040000D01*
X85902560Y-53460000D01*
X85946838Y-53695317D01*
X86080270Y-53902677D01*
X85953569Y-54088110D01*
X85902560Y-54340000D01*
X85902560Y-54760000D01*
X85946838Y-54995317D01*
X86085910Y-55211441D01*
X86088000Y-55212869D01*
X86088000Y-56150000D01*
X86146004Y-56441605D01*
X86224041Y-56558395D01*
X86311185Y-56688815D01*
X87802560Y-58180190D01*
X87802560Y-58200000D01*
X87846838Y-58435317D01*
X87985910Y-58651441D01*
X88198110Y-58796431D01*
X88450000Y-58847440D01*
X89750000Y-58847440D01*
X89985317Y-58803162D01*
X90201441Y-58664090D01*
X90237033Y-58612000D01*
X92810370Y-58612000D01*
X91320810Y-60101560D01*
X90402000Y-60101560D01*
X90166683Y-60145838D01*
X89950559Y-60284910D01*
X89805569Y-60497110D01*
X89760567Y-60719334D01*
X89587185Y-60835184D01*
X89162000Y-61260370D01*
X89162000Y-61000000D01*
X89103996Y-60708395D01*
X88938815Y-60461185D01*
X80282769Y-51805139D01*
X80437893Y-51805275D01*
X81020657Y-51564481D01*
X81394261Y-51191529D01*
X81764997Y-51562914D01*
X82347341Y-51804724D01*
X82977893Y-51805275D01*
X83560657Y-51564481D01*
X84006914Y-51119003D01*
X84248724Y-50536659D01*
X84249275Y-49906107D01*
X84008481Y-49323343D01*
X83563003Y-48877086D01*
X83362000Y-48793622D01*
X83362000Y-46681500D01*
X83432002Y-46681500D01*
X83432002Y-46522752D01*
X83590750Y-46681500D01*
X83685309Y-46681500D01*
X83918698Y-46584827D01*
X84097327Y-46406199D01*
X84194000Y-46172810D01*
X84194000Y-45760750D01*
X84035250Y-45602000D01*
X83432000Y-45602000D01*
X83432000Y-45622000D01*
X83362000Y-45622000D01*
X83362000Y-45328000D01*
X83432000Y-45328000D01*
X83432000Y-45348000D01*
X84035250Y-45348000D01*
X84194000Y-45189250D01*
X84194000Y-44777190D01*
X84097327Y-44543801D01*
X83918698Y-44365173D01*
X83685309Y-44268500D01*
X83609131Y-44268500D01*
X83843816Y-44033815D01*
X84008997Y-43786604D01*
X84067000Y-43495000D01*
X84067000Y-40077813D01*
X84155431Y-39948390D01*
X84206013Y-39698607D01*
X84293223Y-39734820D01*
X84704971Y-39735179D01*
X85085515Y-39577942D01*
X85376919Y-39287046D01*
X85534820Y-38906777D01*
X85534969Y-38734770D01*
X87965560Y-38734770D01*
X87965560Y-39174769D01*
X88062233Y-39408158D01*
X88240861Y-39586787D01*
X88474250Y-39683460D01*
X88914250Y-39683460D01*
X89073000Y-39524710D01*
X89073000Y-38576020D01*
X89327000Y-38576020D01*
X89327000Y-39524710D01*
X89485750Y-39683460D01*
X89925750Y-39683460D01*
X90159139Y-39586787D01*
X90337767Y-39408158D01*
X90434440Y-39174769D01*
X90434440Y-38734770D01*
X90275690Y-38576020D01*
X89327000Y-38576020D01*
X89073000Y-38576020D01*
X88124310Y-38576020D01*
X87965560Y-38734770D01*
X85534969Y-38734770D01*
X85535179Y-38495029D01*
X85377942Y-38114485D01*
X85262000Y-37998341D01*
X85262000Y-37515630D01*
X87902560Y-34875070D01*
X87902560Y-35400000D01*
X87946838Y-35635317D01*
X87969518Y-35670563D01*
X87953120Y-35751540D01*
X87953120Y-36950420D01*
X87997398Y-37185737D01*
X88136470Y-37401861D01*
X88144659Y-37407456D01*
X88062233Y-37489882D01*
X87965560Y-37723271D01*
X87965560Y-38163270D01*
X88124310Y-38322020D01*
X89073000Y-38322020D01*
X89073000Y-38302020D01*
X89327000Y-38302020D01*
X89327000Y-38322020D01*
X90275690Y-38322020D01*
X90434440Y-38163270D01*
X90434440Y-37723271D01*
X90337767Y-37489882D01*
X90255555Y-37407669D01*
X90395871Y-37202310D01*
X90446880Y-36950420D01*
X90446880Y-35751540D01*
X90432081Y-35672892D01*
X90446431Y-35651890D01*
X90497440Y-35400000D01*
X90497440Y-34700000D01*
X90453162Y-34464683D01*
X90314090Y-34248559D01*
X90101890Y-34103569D01*
X90088803Y-34100919D01*
X90301441Y-33964090D01*
X90446431Y-33751890D01*
X90497440Y-33500000D01*
X90497440Y-32800000D01*
X90453162Y-32564683D01*
X90314090Y-32348559D01*
X90101890Y-32203569D01*
X89850000Y-32152560D01*
X89280191Y-32152560D01*
X88328946Y-31201316D01*
X88385515Y-31177942D01*
X88676919Y-30887046D01*
X88834820Y-30506777D01*
X88835179Y-30095029D01*
X88677942Y-29714485D01*
X88562000Y-29598341D01*
X88562000Y-29215630D01*
X90213815Y-27563816D01*
X90378996Y-27316605D01*
X90391523Y-27253629D01*
X90416711Y-27127000D01*
X90738000Y-27127000D01*
X90738000Y-29264858D01*
X90738000Y-29264858D01*
G37*
X90738000Y-29264858D02*
X90695029Y-29264821D01*
X90314485Y-29422058D01*
X90023081Y-29712954D01*
X89865180Y-30093223D01*
X89864821Y-30504971D01*
X90022058Y-30885515D01*
X90312954Y-31176919D01*
X90693223Y-31334820D01*
X91104971Y-31335179D01*
X91485515Y-31177942D01*
X91776919Y-30887046D01*
X91934820Y-30506777D01*
X91934963Y-30342667D01*
X92038815Y-30238815D01*
X92203996Y-29991605D01*
X92212751Y-29947592D01*
X92262000Y-29700000D01*
X92262000Y-27839630D01*
X92564963Y-28142593D01*
X92564821Y-28304971D01*
X92722058Y-28685515D01*
X93012954Y-28976919D01*
X93393223Y-29134820D01*
X93438000Y-29134859D01*
X93438000Y-29888385D01*
X93114485Y-30022058D01*
X92823081Y-30312954D01*
X92665180Y-30693223D01*
X92664821Y-31104971D01*
X92822058Y-31485515D01*
X93112954Y-31776919D01*
X93189163Y-31808564D01*
X92914485Y-31922058D01*
X92683580Y-32152560D01*
X91850000Y-32152560D01*
X91614683Y-32196838D01*
X91398559Y-32335910D01*
X91253569Y-32548110D01*
X91202560Y-32800000D01*
X91202560Y-33500000D01*
X91246838Y-33735317D01*
X91385910Y-33951441D01*
X91598110Y-34096431D01*
X91611197Y-34099081D01*
X91398559Y-34235910D01*
X91253569Y-34448110D01*
X91202560Y-34700000D01*
X91202560Y-35400000D01*
X91246838Y-35635317D01*
X91269518Y-35670563D01*
X91253120Y-35751540D01*
X91253120Y-36950420D01*
X91297398Y-37185737D01*
X91436470Y-37401861D01*
X91437467Y-37402543D01*
X91304129Y-37597690D01*
X91253120Y-37849580D01*
X91253120Y-39048460D01*
X91297398Y-39283777D01*
X91436470Y-39499901D01*
X91648670Y-39644891D01*
X91900560Y-39695900D01*
X93099440Y-39695900D01*
X93334757Y-39651622D01*
X93456510Y-39573276D01*
X93365180Y-39793223D01*
X93364821Y-40204971D01*
X93419325Y-40336881D01*
X93246734Y-40265215D01*
X92755421Y-40264786D01*
X92301343Y-40452408D01*
X91953629Y-40799515D01*
X91765215Y-41253266D01*
X91765014Y-41483406D01*
X91174210Y-42074210D01*
X90982367Y-42361325D01*
X90981576Y-42365302D01*
X90914999Y-42700000D01*
X90915000Y-42700005D01*
X90915000Y-48338600D01*
X90653629Y-48599515D01*
X90465215Y-49053266D01*
X90464786Y-49544579D01*
X90652408Y-49998657D01*
X90999515Y-50346371D01*
X91453266Y-50534785D01*
X91944579Y-50535214D01*
X92398657Y-50347592D01*
X92746371Y-50000485D01*
X92934785Y-49546734D01*
X92935214Y-49055421D01*
X92747592Y-48601343D01*
X92685000Y-48538642D01*
X92685000Y-43066580D01*
X93016565Y-42735015D01*
X93244579Y-42735214D01*
X93698657Y-42547592D01*
X94046371Y-42200485D01*
X94138000Y-41979818D01*
X94138000Y-51198235D01*
X94023081Y-51312954D01*
X93865180Y-51693223D01*
X93864821Y-52104971D01*
X94022058Y-52485515D01*
X94138000Y-52601659D01*
X94138000Y-57088000D01*
X91275789Y-57088000D01*
X91376919Y-56987046D01*
X91534820Y-56606777D01*
X91535179Y-56195029D01*
X91377942Y-55814485D01*
X91087046Y-55523081D01*
X90706777Y-55365180D01*
X90519720Y-55365017D01*
X90341605Y-55246004D01*
X90267281Y-55231220D01*
X90214090Y-55148559D01*
X90001890Y-55003569D01*
X89862000Y-54975241D01*
X89862000Y-54900000D01*
X89803996Y-54608395D01*
X89721890Y-54485515D01*
X89697440Y-54448923D01*
X89697440Y-54340000D01*
X89675007Y-54220778D01*
X89697440Y-54110000D01*
X89697440Y-53690000D01*
X89680138Y-53598048D01*
X89685000Y-53586310D01*
X89685000Y-53513750D01*
X89659473Y-53488223D01*
X89653162Y-53454683D01*
X89514090Y-53238559D01*
X89377162Y-53145000D01*
X89526250Y-53145000D01*
X89685000Y-52986250D01*
X89685000Y-52913690D01*
X89588327Y-52680301D01*
X89409698Y-52501673D01*
X89176309Y-52405000D01*
X89035750Y-52405000D01*
X88934821Y-52505929D01*
X88935179Y-52095029D01*
X88777942Y-51714485D01*
X88487046Y-51423081D01*
X88106777Y-51265180D01*
X87695029Y-51264821D01*
X87314485Y-51422058D01*
X87023081Y-51712954D01*
X86865180Y-52093223D01*
X86865037Y-52257333D01*
X86729810Y-52392560D01*
X86550000Y-52392560D01*
X86314683Y-52436838D01*
X86098559Y-52575910D01*
X85953569Y-52788110D01*
X85902560Y-53040000D01*
X85902560Y-53460000D01*
X85946838Y-53695317D01*
X86080270Y-53902677D01*
X85953569Y-54088110D01*
X85902560Y-54340000D01*
X85902560Y-54760000D01*
X85946838Y-54995317D01*
X86085910Y-55211441D01*
X86088000Y-55212869D01*
X86088000Y-56150000D01*
X86146004Y-56441605D01*
X86224041Y-56558395D01*
X86311185Y-56688815D01*
X87802560Y-58180190D01*
X87802560Y-58200000D01*
X87846838Y-58435317D01*
X87985910Y-58651441D01*
X88198110Y-58796431D01*
X88450000Y-58847440D01*
X89750000Y-58847440D01*
X89985317Y-58803162D01*
X90201441Y-58664090D01*
X90237033Y-58612000D01*
X92810370Y-58612000D01*
X91320810Y-60101560D01*
X90402000Y-60101560D01*
X90166683Y-60145838D01*
X89950559Y-60284910D01*
X89805569Y-60497110D01*
X89760567Y-60719334D01*
X89587185Y-60835184D01*
X89162000Y-61260370D01*
X89162000Y-61000000D01*
X89103996Y-60708395D01*
X88938815Y-60461185D01*
X80282769Y-51805139D01*
X80437893Y-51805275D01*
X81020657Y-51564481D01*
X81394261Y-51191529D01*
X81764997Y-51562914D01*
X82347341Y-51804724D01*
X82977893Y-51805275D01*
X83560657Y-51564481D01*
X84006914Y-51119003D01*
X84248724Y-50536659D01*
X84249275Y-49906107D01*
X84008481Y-49323343D01*
X83563003Y-48877086D01*
X83362000Y-48793622D01*
X83362000Y-46681500D01*
X83432002Y-46681500D01*
X83432002Y-46522752D01*
X83590750Y-46681500D01*
X83685309Y-46681500D01*
X83918698Y-46584827D01*
X84097327Y-46406199D01*
X84194000Y-46172810D01*
X84194000Y-45760750D01*
X84035250Y-45602000D01*
X83432000Y-45602000D01*
X83432000Y-45622000D01*
X83362000Y-45622000D01*
X83362000Y-45328000D01*
X83432000Y-45328000D01*
X83432000Y-45348000D01*
X84035250Y-45348000D01*
X84194000Y-45189250D01*
X84194000Y-44777190D01*
X84097327Y-44543801D01*
X83918698Y-44365173D01*
X83685309Y-44268500D01*
X83609131Y-44268500D01*
X83843816Y-44033815D01*
X84008997Y-43786604D01*
X84067000Y-43495000D01*
X84067000Y-40077813D01*
X84155431Y-39948390D01*
X84206013Y-39698607D01*
X84293223Y-39734820D01*
X84704971Y-39735179D01*
X85085515Y-39577942D01*
X85376919Y-39287046D01*
X85534820Y-38906777D01*
X85534969Y-38734770D01*
X87965560Y-38734770D01*
X87965560Y-39174769D01*
X88062233Y-39408158D01*
X88240861Y-39586787D01*
X88474250Y-39683460D01*
X88914250Y-39683460D01*
X89073000Y-39524710D01*
X89073000Y-38576020D01*
X89327000Y-38576020D01*
X89327000Y-39524710D01*
X89485750Y-39683460D01*
X89925750Y-39683460D01*
X90159139Y-39586787D01*
X90337767Y-39408158D01*
X90434440Y-39174769D01*
X90434440Y-38734770D01*
X90275690Y-38576020D01*
X89327000Y-38576020D01*
X89073000Y-38576020D01*
X88124310Y-38576020D01*
X87965560Y-38734770D01*
X85534969Y-38734770D01*
X85535179Y-38495029D01*
X85377942Y-38114485D01*
X85262000Y-37998341D01*
X85262000Y-37515630D01*
X87902560Y-34875070D01*
X87902560Y-35400000D01*
X87946838Y-35635317D01*
X87969518Y-35670563D01*
X87953120Y-35751540D01*
X87953120Y-36950420D01*
X87997398Y-37185737D01*
X88136470Y-37401861D01*
X88144659Y-37407456D01*
X88062233Y-37489882D01*
X87965560Y-37723271D01*
X87965560Y-38163270D01*
X88124310Y-38322020D01*
X89073000Y-38322020D01*
X89073000Y-38302020D01*
X89327000Y-38302020D01*
X89327000Y-38322020D01*
X90275690Y-38322020D01*
X90434440Y-38163270D01*
X90434440Y-37723271D01*
X90337767Y-37489882D01*
X90255555Y-37407669D01*
X90395871Y-37202310D01*
X90446880Y-36950420D01*
X90446880Y-35751540D01*
X90432081Y-35672892D01*
X90446431Y-35651890D01*
X90497440Y-35400000D01*
X90497440Y-34700000D01*
X90453162Y-34464683D01*
X90314090Y-34248559D01*
X90101890Y-34103569D01*
X90088803Y-34100919D01*
X90301441Y-33964090D01*
X90446431Y-33751890D01*
X90497440Y-33500000D01*
X90497440Y-32800000D01*
X90453162Y-32564683D01*
X90314090Y-32348559D01*
X90101890Y-32203569D01*
X89850000Y-32152560D01*
X89280191Y-32152560D01*
X88328946Y-31201316D01*
X88385515Y-31177942D01*
X88676919Y-30887046D01*
X88834820Y-30506777D01*
X88835179Y-30095029D01*
X88677942Y-29714485D01*
X88562000Y-29598341D01*
X88562000Y-29215630D01*
X90213815Y-27563816D01*
X90378996Y-27316605D01*
X90391523Y-27253629D01*
X90416711Y-27127000D01*
X90738000Y-27127000D01*
X90738000Y-29264858D01*
G36*
X98735910Y-41201441D02*
X98948110Y-41346431D01*
X99068000Y-41370709D01*
X99068000Y-41526560D01*
X98832683Y-41570838D01*
X98616559Y-41709910D01*
X98563537Y-41787511D01*
X98411698Y-41635673D01*
X98178309Y-41539000D01*
X97575750Y-41539000D01*
X97417000Y-41697750D01*
X97417000Y-43063000D01*
X97437000Y-43063000D01*
X97437000Y-43317000D01*
X97417000Y-43317000D01*
X97417000Y-44682250D01*
X97575750Y-44841000D01*
X98111832Y-44841000D01*
X98065215Y-44953266D01*
X98064786Y-45444579D01*
X98252408Y-45898657D01*
X98599515Y-46246371D01*
X98915000Y-46377372D01*
X98915000Y-48138426D01*
X98753629Y-48299515D01*
X98565215Y-48753266D01*
X98564786Y-49244579D01*
X98606268Y-49344972D01*
X98560626Y-49411770D01*
X98516090Y-49342559D01*
X98303890Y-49197569D01*
X98052000Y-49146560D01*
X96528000Y-49146560D01*
X96292683Y-49190838D01*
X96076559Y-49329910D01*
X95931569Y-49542110D01*
X95880560Y-49794000D01*
X95880560Y-50758810D01*
X95662000Y-50977370D01*
X95662000Y-47638808D01*
X95893223Y-47734820D01*
X96304971Y-47735179D01*
X96685515Y-47577942D01*
X96976919Y-47287046D01*
X97134820Y-46906777D01*
X97135179Y-46495029D01*
X96977942Y-46114485D01*
X96862000Y-45998341D01*
X96862000Y-44841000D01*
X97004250Y-44841000D01*
X97163000Y-44682250D01*
X97163000Y-43317000D01*
X97143000Y-43317000D01*
X97143000Y-43063000D01*
X97163000Y-43063000D01*
X97163000Y-41697750D01*
X97146440Y-41681190D01*
X97430190Y-41397440D01*
X98000000Y-41397440D01*
X98235317Y-41353162D01*
X98451441Y-41214090D01*
X98596431Y-41001890D01*
X98599081Y-40988803D01*
X98735910Y-41201441D01*
X98735910Y-41201441D01*
G37*
X98735910Y-41201441D02*
X98948110Y-41346431D01*
X99068000Y-41370709D01*
X99068000Y-41526560D01*
X98832683Y-41570838D01*
X98616559Y-41709910D01*
X98563537Y-41787511D01*
X98411698Y-41635673D01*
X98178309Y-41539000D01*
X97575750Y-41539000D01*
X97417000Y-41697750D01*
X97417000Y-43063000D01*
X97437000Y-43063000D01*
X97437000Y-43317000D01*
X97417000Y-43317000D01*
X97417000Y-44682250D01*
X97575750Y-44841000D01*
X98111832Y-44841000D01*
X98065215Y-44953266D01*
X98064786Y-45444579D01*
X98252408Y-45898657D01*
X98599515Y-46246371D01*
X98915000Y-46377372D01*
X98915000Y-48138426D01*
X98753629Y-48299515D01*
X98565215Y-48753266D01*
X98564786Y-49244579D01*
X98606268Y-49344972D01*
X98560626Y-49411770D01*
X98516090Y-49342559D01*
X98303890Y-49197569D01*
X98052000Y-49146560D01*
X96528000Y-49146560D01*
X96292683Y-49190838D01*
X96076559Y-49329910D01*
X95931569Y-49542110D01*
X95880560Y-49794000D01*
X95880560Y-50758810D01*
X95662000Y-50977370D01*
X95662000Y-47638808D01*
X95893223Y-47734820D01*
X96304971Y-47735179D01*
X96685515Y-47577942D01*
X96976919Y-47287046D01*
X97134820Y-46906777D01*
X97135179Y-46495029D01*
X96977942Y-46114485D01*
X96862000Y-45998341D01*
X96862000Y-44841000D01*
X97004250Y-44841000D01*
X97163000Y-44682250D01*
X97163000Y-43317000D01*
X97143000Y-43317000D01*
X97143000Y-43063000D01*
X97163000Y-43063000D01*
X97163000Y-41697750D01*
X97146440Y-41681190D01*
X97430190Y-41397440D01*
X98000000Y-41397440D01*
X98235317Y-41353162D01*
X98451441Y-41214090D01*
X98596431Y-41001890D01*
X98599081Y-40988803D01*
X98735910Y-41201441D01*
G36*
X76840000Y-37726309D02*
X76936673Y-37959698D01*
X77077910Y-38100936D01*
X77023559Y-38135910D01*
X76878569Y-38348110D01*
X76827560Y-38600000D01*
X76827560Y-39600000D01*
X76871838Y-39835317D01*
X77010910Y-40051441D01*
X77223110Y-40196431D01*
X77338000Y-40219697D01*
X77338000Y-42652560D01*
X77150000Y-42652560D01*
X76914683Y-42696838D01*
X76698559Y-42835910D01*
X76553569Y-43048110D01*
X76502560Y-43300000D01*
X76502560Y-44000000D01*
X76546838Y-44235317D01*
X76685910Y-44451441D01*
X76898110Y-44596431D01*
X76911197Y-44599081D01*
X76698559Y-44735910D01*
X76553569Y-44948110D01*
X76502560Y-45200000D01*
X76502560Y-45769809D01*
X74562000Y-47710370D01*
X74562000Y-46134880D01*
X74904971Y-46135179D01*
X75285515Y-45977942D01*
X75576919Y-45687046D01*
X75734820Y-45306777D01*
X75735179Y-44895029D01*
X75577942Y-44514485D01*
X75462000Y-44398341D01*
X75462000Y-39715630D01*
X76238816Y-38938815D01*
X76403997Y-38691604D01*
X76462000Y-38400000D01*
X76462000Y-37815630D01*
X76840000Y-37437630D01*
X76840000Y-37726309D01*
X76840000Y-37726309D01*
G37*
X76840000Y-37726309D02*
X76936673Y-37959698D01*
X77077910Y-38100936D01*
X77023559Y-38135910D01*
X76878569Y-38348110D01*
X76827560Y-38600000D01*
X76827560Y-39600000D01*
X76871838Y-39835317D01*
X77010910Y-40051441D01*
X77223110Y-40196431D01*
X77338000Y-40219697D01*
X77338000Y-42652560D01*
X77150000Y-42652560D01*
X76914683Y-42696838D01*
X76698559Y-42835910D01*
X76553569Y-43048110D01*
X76502560Y-43300000D01*
X76502560Y-44000000D01*
X76546838Y-44235317D01*
X76685910Y-44451441D01*
X76898110Y-44596431D01*
X76911197Y-44599081D01*
X76698559Y-44735910D01*
X76553569Y-44948110D01*
X76502560Y-45200000D01*
X76502560Y-45769809D01*
X74562000Y-47710370D01*
X74562000Y-46134880D01*
X74904971Y-46135179D01*
X75285515Y-45977942D01*
X75576919Y-45687046D01*
X75734820Y-45306777D01*
X75735179Y-44895029D01*
X75577942Y-44514485D01*
X75462000Y-44398341D01*
X75462000Y-39715630D01*
X76238816Y-38938815D01*
X76403997Y-38691604D01*
X76462000Y-38400000D01*
X76462000Y-37815630D01*
X76840000Y-37437630D01*
X76840000Y-37726309D01*
G36*
X94502560Y-33500000D02*
X94546838Y-33735317D01*
X94685910Y-33951441D01*
X94898110Y-34096431D01*
X94911197Y-34099081D01*
X94698559Y-34235910D01*
X94553569Y-34448110D01*
X94502560Y-34700000D01*
X94502560Y-35400000D01*
X94546838Y-35635317D01*
X94569518Y-35670563D01*
X94553120Y-35751540D01*
X94553120Y-36950420D01*
X94597398Y-37185737D01*
X94736470Y-37401861D01*
X94744659Y-37407456D01*
X94662233Y-37489882D01*
X94565560Y-37723271D01*
X94565560Y-38163270D01*
X94724310Y-38322020D01*
X95673000Y-38322020D01*
X95673000Y-38302020D01*
X95927000Y-38302020D01*
X95927000Y-38322020D01*
X96875690Y-38322020D01*
X97034440Y-38163270D01*
X97034440Y-37855171D01*
X97052408Y-37898657D01*
X97399515Y-38246371D01*
X97853266Y-38434785D01*
X98344579Y-38435214D01*
X98798657Y-38247592D01*
X99146371Y-37900485D01*
X99334785Y-37446734D01*
X99335214Y-36955421D01*
X99147592Y-36501343D01*
X98985000Y-36338467D01*
X98985000Y-36148359D01*
X99193223Y-36234820D01*
X99604971Y-36235179D01*
X99956662Y-36089864D01*
X99951767Y-38813043D01*
X99900000Y-38802560D01*
X99200000Y-38802560D01*
X98964683Y-38846838D01*
X98748559Y-38985910D01*
X98603569Y-39198110D01*
X98600919Y-39211197D01*
X98464090Y-38998559D01*
X98251890Y-38853569D01*
X98000000Y-38802560D01*
X97300000Y-38802560D01*
X97064683Y-38846838D01*
X97034440Y-38866299D01*
X97034440Y-38734770D01*
X96875690Y-38576020D01*
X95927000Y-38576020D01*
X95927000Y-39524710D01*
X96085750Y-39683460D01*
X96525750Y-39683460D01*
X96652560Y-39630934D01*
X96652560Y-40019810D01*
X95662000Y-41010370D01*
X95662000Y-40500000D01*
X95603996Y-40208395D01*
X95510732Y-40068816D01*
X95438816Y-39961185D01*
X95435037Y-39957406D01*
X95435179Y-39795029D01*
X95389080Y-39683460D01*
X95514250Y-39683460D01*
X95673000Y-39524710D01*
X95673000Y-38576020D01*
X94724310Y-38576020D01*
X94565560Y-38734770D01*
X94565560Y-38965144D01*
X94195029Y-38964821D01*
X93814485Y-39122058D01*
X93711071Y-39225292D01*
X93746880Y-39048460D01*
X93746880Y-37849580D01*
X93702602Y-37614263D01*
X93563530Y-37398139D01*
X93562533Y-37397457D01*
X93695871Y-37202310D01*
X93746880Y-36950420D01*
X93746880Y-35751540D01*
X93732081Y-35672892D01*
X93746431Y-35651890D01*
X93797440Y-35400000D01*
X93797440Y-34700000D01*
X93753162Y-34464683D01*
X93614090Y-34248559D01*
X93401890Y-34103569D01*
X93388803Y-34100919D01*
X93601441Y-33964090D01*
X93666451Y-33868945D01*
X93741605Y-33853996D01*
X93874762Y-33765023D01*
X94085515Y-33677942D01*
X94376919Y-33387046D01*
X94502560Y-33084468D01*
X94502560Y-33500000D01*
X94502560Y-33500000D01*
G37*
X94502560Y-33500000D02*
X94546838Y-33735317D01*
X94685910Y-33951441D01*
X94898110Y-34096431D01*
X94911197Y-34099081D01*
X94698559Y-34235910D01*
X94553569Y-34448110D01*
X94502560Y-34700000D01*
X94502560Y-35400000D01*
X94546838Y-35635317D01*
X94569518Y-35670563D01*
X94553120Y-35751540D01*
X94553120Y-36950420D01*
X94597398Y-37185737D01*
X94736470Y-37401861D01*
X94744659Y-37407456D01*
X94662233Y-37489882D01*
X94565560Y-37723271D01*
X94565560Y-38163270D01*
X94724310Y-38322020D01*
X95673000Y-38322020D01*
X95673000Y-38302020D01*
X95927000Y-38302020D01*
X95927000Y-38322020D01*
X96875690Y-38322020D01*
X97034440Y-38163270D01*
X97034440Y-37855171D01*
X97052408Y-37898657D01*
X97399515Y-38246371D01*
X97853266Y-38434785D01*
X98344579Y-38435214D01*
X98798657Y-38247592D01*
X99146371Y-37900485D01*
X99334785Y-37446734D01*
X99335214Y-36955421D01*
X99147592Y-36501343D01*
X98985000Y-36338467D01*
X98985000Y-36148359D01*
X99193223Y-36234820D01*
X99604971Y-36235179D01*
X99956662Y-36089864D01*
X99951767Y-38813043D01*
X99900000Y-38802560D01*
X99200000Y-38802560D01*
X98964683Y-38846838D01*
X98748559Y-38985910D01*
X98603569Y-39198110D01*
X98600919Y-39211197D01*
X98464090Y-38998559D01*
X98251890Y-38853569D01*
X98000000Y-38802560D01*
X97300000Y-38802560D01*
X97064683Y-38846838D01*
X97034440Y-38866299D01*
X97034440Y-38734770D01*
X96875690Y-38576020D01*
X95927000Y-38576020D01*
X95927000Y-39524710D01*
X96085750Y-39683460D01*
X96525750Y-39683460D01*
X96652560Y-39630934D01*
X96652560Y-40019810D01*
X95662000Y-41010370D01*
X95662000Y-40500000D01*
X95603996Y-40208395D01*
X95510732Y-40068816D01*
X95438816Y-39961185D01*
X95435037Y-39957406D01*
X95435179Y-39795029D01*
X95389080Y-39683460D01*
X95514250Y-39683460D01*
X95673000Y-39524710D01*
X95673000Y-38576020D01*
X94724310Y-38576020D01*
X94565560Y-38734770D01*
X94565560Y-38965144D01*
X94195029Y-38964821D01*
X93814485Y-39122058D01*
X93711071Y-39225292D01*
X93746880Y-39048460D01*
X93746880Y-37849580D01*
X93702602Y-37614263D01*
X93563530Y-37398139D01*
X93562533Y-37397457D01*
X93695871Y-37202310D01*
X93746880Y-36950420D01*
X93746880Y-35751540D01*
X93732081Y-35672892D01*
X93746431Y-35651890D01*
X93797440Y-35400000D01*
X93797440Y-34700000D01*
X93753162Y-34464683D01*
X93614090Y-34248559D01*
X93401890Y-34103569D01*
X93388803Y-34100919D01*
X93601441Y-33964090D01*
X93666451Y-33868945D01*
X93741605Y-33853996D01*
X93874762Y-33765023D01*
X94085515Y-33677942D01*
X94376919Y-33387046D01*
X94502560Y-33084468D01*
X94502560Y-33500000D01*
G36*
X83665180Y-27693223D02*
X83664821Y-28104971D01*
X83822058Y-28485515D01*
X83938000Y-28601659D01*
X83938000Y-33917852D01*
X83910174Y-33984864D01*
X83563003Y-33637086D01*
X82980659Y-33395276D01*
X82350107Y-33394725D01*
X81767343Y-33635519D01*
X81393739Y-34008471D01*
X81023003Y-33637086D01*
X80440659Y-33395276D01*
X79810107Y-33394725D01*
X79227343Y-33635519D01*
X78853739Y-34008471D01*
X78483003Y-33637086D01*
X77900659Y-33395276D01*
X77270107Y-33394725D01*
X76687343Y-33635519D01*
X76313739Y-34008471D01*
X75943003Y-33637086D01*
X75360659Y-33395276D01*
X74730107Y-33394725D01*
X74147343Y-33635519D01*
X73773739Y-34008471D01*
X73403003Y-33637086D01*
X72820659Y-33395276D01*
X72190107Y-33394725D01*
X72009000Y-33469557D01*
X72009000Y-32968630D01*
X73442593Y-31535037D01*
X73604971Y-31535179D01*
X73985515Y-31377942D01*
X74276919Y-31087046D01*
X74434820Y-30706777D01*
X74435179Y-30295029D01*
X74277942Y-29914485D01*
X73987046Y-29623081D01*
X73606777Y-29465180D01*
X73195029Y-29464821D01*
X72814485Y-29622058D01*
X72523081Y-29912954D01*
X72365180Y-30293223D01*
X72365037Y-30457332D01*
X71674411Y-31147959D01*
X71577942Y-30914485D01*
X71287046Y-30623081D01*
X70906777Y-30465180D01*
X70495029Y-30464821D01*
X70114485Y-30622058D01*
X69823081Y-30912954D01*
X69665180Y-31293223D01*
X69665037Y-31457333D01*
X69425185Y-31697185D01*
X69260004Y-31944395D01*
X69202000Y-32236000D01*
X69202000Y-33579880D01*
X69067343Y-33635519D01*
X68693739Y-34008471D01*
X68323003Y-33637086D01*
X67740659Y-33395276D01*
X67110107Y-33394725D01*
X66527343Y-33635519D01*
X66153739Y-34008471D01*
X65783003Y-33637086D01*
X65200659Y-33395276D01*
X64570107Y-33394725D01*
X63987343Y-33635519D01*
X63613739Y-34008471D01*
X63243003Y-33637086D01*
X62660659Y-33395276D01*
X62030107Y-33394725D01*
X61447343Y-33635519D01*
X61073739Y-34008471D01*
X60703003Y-33637086D01*
X60120659Y-33395276D01*
X59490107Y-33394725D01*
X58907343Y-33635519D01*
X58533739Y-34008471D01*
X58163003Y-33637086D01*
X57580659Y-33395276D01*
X56950107Y-33394725D01*
X56367343Y-33635519D01*
X55993739Y-34008471D01*
X55623003Y-33637086D01*
X55040659Y-33395276D01*
X54410107Y-33394725D01*
X54229000Y-33469557D01*
X54229000Y-32992765D01*
X54343919Y-32878046D01*
X54501820Y-32497777D01*
X54502179Y-32086029D01*
X54344942Y-31705485D01*
X54232212Y-31592558D01*
X54343919Y-31481046D01*
X54501820Y-31100777D01*
X54502179Y-30689029D01*
X54344942Y-30308485D01*
X54054046Y-30017081D01*
X53673777Y-29859180D01*
X53262029Y-29858821D01*
X52881485Y-30016058D01*
X52590081Y-30306954D01*
X52432180Y-30687223D01*
X52432037Y-30851332D01*
X50388185Y-32895185D01*
X50223004Y-33142395D01*
X50165000Y-33434000D01*
X50165000Y-33480126D01*
X49960659Y-33395276D01*
X49330107Y-33394725D01*
X48747343Y-33635519D01*
X48301086Y-34080997D01*
X48059276Y-34663341D01*
X48058725Y-35293893D01*
X48299519Y-35876657D01*
X48744997Y-36322914D01*
X49327341Y-36564724D01*
X49957893Y-36565275D01*
X50165000Y-36479700D01*
X50165000Y-38706369D01*
X48780440Y-40090929D01*
X48780440Y-39174400D01*
X48736162Y-38939083D01*
X48597090Y-38722959D01*
X48384890Y-38577969D01*
X48133000Y-38526960D01*
X47879000Y-38526960D01*
X47879000Y-28674765D01*
X47993919Y-28560046D01*
X48151820Y-28179777D01*
X48152179Y-27768029D01*
X48117872Y-27685000D01*
X83668594Y-27685000D01*
X83665180Y-27693223D01*
X83665180Y-27693223D01*
G37*
X83665180Y-27693223D02*
X83664821Y-28104971D01*
X83822058Y-28485515D01*
X83938000Y-28601659D01*
X83938000Y-33917852D01*
X83910174Y-33984864D01*
X83563003Y-33637086D01*
X82980659Y-33395276D01*
X82350107Y-33394725D01*
X81767343Y-33635519D01*
X81393739Y-34008471D01*
X81023003Y-33637086D01*
X80440659Y-33395276D01*
X79810107Y-33394725D01*
X79227343Y-33635519D01*
X78853739Y-34008471D01*
X78483003Y-33637086D01*
X77900659Y-33395276D01*
X77270107Y-33394725D01*
X76687343Y-33635519D01*
X76313739Y-34008471D01*
X75943003Y-33637086D01*
X75360659Y-33395276D01*
X74730107Y-33394725D01*
X74147343Y-33635519D01*
X73773739Y-34008471D01*
X73403003Y-33637086D01*
X72820659Y-33395276D01*
X72190107Y-33394725D01*
X72009000Y-33469557D01*
X72009000Y-32968630D01*
X73442593Y-31535037D01*
X73604971Y-31535179D01*
X73985515Y-31377942D01*
X74276919Y-31087046D01*
X74434820Y-30706777D01*
X74435179Y-30295029D01*
X74277942Y-29914485D01*
X73987046Y-29623081D01*
X73606777Y-29465180D01*
X73195029Y-29464821D01*
X72814485Y-29622058D01*
X72523081Y-29912954D01*
X72365180Y-30293223D01*
X72365037Y-30457332D01*
X71674411Y-31147959D01*
X71577942Y-30914485D01*
X71287046Y-30623081D01*
X70906777Y-30465180D01*
X70495029Y-30464821D01*
X70114485Y-30622058D01*
X69823081Y-30912954D01*
X69665180Y-31293223D01*
X69665037Y-31457333D01*
X69425185Y-31697185D01*
X69260004Y-31944395D01*
X69202000Y-32236000D01*
X69202000Y-33579880D01*
X69067343Y-33635519D01*
X68693739Y-34008471D01*
X68323003Y-33637086D01*
X67740659Y-33395276D01*
X67110107Y-33394725D01*
X66527343Y-33635519D01*
X66153739Y-34008471D01*
X65783003Y-33637086D01*
X65200659Y-33395276D01*
X64570107Y-33394725D01*
X63987343Y-33635519D01*
X63613739Y-34008471D01*
X63243003Y-33637086D01*
X62660659Y-33395276D01*
X62030107Y-33394725D01*
X61447343Y-33635519D01*
X61073739Y-34008471D01*
X60703003Y-33637086D01*
X60120659Y-33395276D01*
X59490107Y-33394725D01*
X58907343Y-33635519D01*
X58533739Y-34008471D01*
X58163003Y-33637086D01*
X57580659Y-33395276D01*
X56950107Y-33394725D01*
X56367343Y-33635519D01*
X55993739Y-34008471D01*
X55623003Y-33637086D01*
X55040659Y-33395276D01*
X54410107Y-33394725D01*
X54229000Y-33469557D01*
X54229000Y-32992765D01*
X54343919Y-32878046D01*
X54501820Y-32497777D01*
X54502179Y-32086029D01*
X54344942Y-31705485D01*
X54232212Y-31592558D01*
X54343919Y-31481046D01*
X54501820Y-31100777D01*
X54502179Y-30689029D01*
X54344942Y-30308485D01*
X54054046Y-30017081D01*
X53673777Y-29859180D01*
X53262029Y-29858821D01*
X52881485Y-30016058D01*
X52590081Y-30306954D01*
X52432180Y-30687223D01*
X52432037Y-30851332D01*
X50388185Y-32895185D01*
X50223004Y-33142395D01*
X50165000Y-33434000D01*
X50165000Y-33480126D01*
X49960659Y-33395276D01*
X49330107Y-33394725D01*
X48747343Y-33635519D01*
X48301086Y-34080997D01*
X48059276Y-34663341D01*
X48058725Y-35293893D01*
X48299519Y-35876657D01*
X48744997Y-36322914D01*
X49327341Y-36564724D01*
X49957893Y-36565275D01*
X50165000Y-36479700D01*
X50165000Y-38706369D01*
X48780440Y-40090929D01*
X48780440Y-39174400D01*
X48736162Y-38939083D01*
X48597090Y-38722959D01*
X48384890Y-38577969D01*
X48133000Y-38526960D01*
X47879000Y-38526960D01*
X47879000Y-28674765D01*
X47993919Y-28560046D01*
X48151820Y-28179777D01*
X48152179Y-27768029D01*
X48117872Y-27685000D01*
X83668594Y-27685000D01*
X83665180Y-27693223D01*
G36*
X79807341Y-36564724D02*
X80437893Y-36565275D01*
X80614621Y-36492252D01*
X80638000Y-36515631D01*
X80638000Y-36764946D01*
X80495029Y-36764821D01*
X80114485Y-36922058D01*
X79823081Y-37212954D01*
X79665180Y-37593223D01*
X79664907Y-37906060D01*
X79285545Y-37906060D01*
X79360000Y-37726309D01*
X79360000Y-37385750D01*
X79201250Y-37227000D01*
X78227000Y-37227000D01*
X78227000Y-37247000D01*
X77973000Y-37247000D01*
X77973000Y-37227000D01*
X77953000Y-37227000D01*
X77953000Y-36973000D01*
X77973000Y-36973000D01*
X77973000Y-36953000D01*
X78227000Y-36953000D01*
X78227000Y-36973000D01*
X79201250Y-36973000D01*
X79360000Y-36814250D01*
X79360000Y-36473691D01*
X79312616Y-36359297D01*
X79807341Y-36564724D01*
X79807341Y-36564724D01*
G37*
X79807341Y-36564724D02*
X80437893Y-36565275D01*
X80614621Y-36492252D01*
X80638000Y-36515631D01*
X80638000Y-36764946D01*
X80495029Y-36764821D01*
X80114485Y-36922058D01*
X79823081Y-37212954D01*
X79665180Y-37593223D01*
X79664907Y-37906060D01*
X79285545Y-37906060D01*
X79360000Y-37726309D01*
X79360000Y-37385750D01*
X79201250Y-37227000D01*
X78227000Y-37227000D01*
X78227000Y-37247000D01*
X77973000Y-37247000D01*
X77973000Y-37227000D01*
X77953000Y-37227000D01*
X77953000Y-36973000D01*
X77973000Y-36973000D01*
X77973000Y-36953000D01*
X78227000Y-36953000D01*
X78227000Y-36973000D01*
X79201250Y-36973000D01*
X79360000Y-36814250D01*
X79360000Y-36473691D01*
X79312616Y-36359297D01*
X79807341Y-36564724D01*
M02*
