G04 #@! TF.FileFunction,Legend,Bot*
%FSLAX46Y46*%
G04 Gerber Fmt 4.6, Leading zero omitted, Abs format (unit mm)*
G04 Created by KiCad (PCBNEW 4.0.1-stable) date 11/23/2016 2:12:10 PM*
%MOMM*%
G01*
G04 APERTURE LIST*
%ADD10C,0.150000*%
G04 APERTURE END LIST*
D10*
X40386000Y-75184000D02*
X38989000Y-75184000D01*
X40386000Y-72644000D02*
X38989000Y-72644000D01*
X40386000Y-70104000D02*
X38989000Y-70104000D01*
X55981472Y-72644000D02*
G75*
G03X55981472Y-72644000I-2514472J0D01*
G01*
X48895000Y-67310000D02*
X56896000Y-67310000D01*
X56896000Y-67310000D02*
X56896000Y-77978000D01*
X56896000Y-77978000D02*
X48895000Y-77978000D01*
X40386000Y-67310000D02*
X48895000Y-67310000D01*
X48895000Y-67310000D02*
X48895000Y-77978000D01*
X48895000Y-77978000D02*
X40386000Y-77978000D01*
X40386000Y-72644000D02*
X40386000Y-77978000D01*
X40386000Y-72644000D02*
X40386000Y-67310000D01*
X35052000Y-86487000D02*
X33655000Y-86487000D01*
X35052000Y-83947000D02*
X33655000Y-83947000D01*
X35052000Y-81407000D02*
X33655000Y-81407000D01*
X50647472Y-83947000D02*
G75*
G03X50647472Y-83947000I-2514472J0D01*
G01*
X43561000Y-78613000D02*
X51562000Y-78613000D01*
X51562000Y-78613000D02*
X51562000Y-89281000D01*
X51562000Y-89281000D02*
X43561000Y-89281000D01*
X35052000Y-78613000D02*
X43561000Y-78613000D01*
X43561000Y-78613000D02*
X43561000Y-89281000D01*
X43561000Y-89281000D02*
X35052000Y-89281000D01*
X35052000Y-83947000D02*
X35052000Y-89281000D01*
X35052000Y-83947000D02*
X35052000Y-78613000D01*
X87249000Y-84328000D02*
X87249000Y-85725000D01*
X84709000Y-84328000D02*
X84709000Y-85725000D01*
X82169000Y-84328000D02*
X82169000Y-85725000D01*
X87223472Y-71247000D02*
G75*
G03X87223472Y-71247000I-2514472J0D01*
G01*
X79375000Y-75819000D02*
X79375000Y-67818000D01*
X79375000Y-67818000D02*
X90043000Y-67818000D01*
X90043000Y-67818000D02*
X90043000Y-75819000D01*
X79375000Y-84328000D02*
X79375000Y-75819000D01*
X79375000Y-75819000D02*
X90043000Y-75819000D01*
X90043000Y-75819000D02*
X90043000Y-84328000D01*
X84709000Y-84328000D02*
X90043000Y-84328000D01*
X84709000Y-84328000D02*
X79375000Y-84328000D01*
X104013000Y-62865000D02*
X104013000Y-64262000D01*
X101473000Y-62865000D02*
X101473000Y-64262000D01*
X98933000Y-62865000D02*
X98933000Y-64262000D01*
X103987472Y-49784000D02*
G75*
G03X103987472Y-49784000I-2514472J0D01*
G01*
X96139000Y-54356000D02*
X96139000Y-46355000D01*
X96139000Y-46355000D02*
X106807000Y-46355000D01*
X106807000Y-46355000D02*
X106807000Y-54356000D01*
X96139000Y-62865000D02*
X96139000Y-54356000D01*
X96139000Y-54356000D02*
X106807000Y-54356000D01*
X106807000Y-54356000D02*
X106807000Y-62865000D01*
X101473000Y-62865000D02*
X106807000Y-62865000D01*
X101473000Y-62865000D02*
X96139000Y-62865000D01*
X60100459Y-72299842D02*
X60052840Y-72204604D01*
X59957602Y-72109366D01*
X59814745Y-71966509D01*
X59767126Y-71871270D01*
X59767126Y-71776032D01*
X60005221Y-71823651D02*
X59957602Y-71728413D01*
X59862364Y-71633175D01*
X59671888Y-71585556D01*
X59338554Y-71585556D01*
X59148078Y-71633175D01*
X59052840Y-71728413D01*
X59005221Y-71823651D01*
X59005221Y-72014128D01*
X59052840Y-72109366D01*
X59148078Y-72204604D01*
X59338554Y-72252223D01*
X59671888Y-72252223D01*
X59862364Y-72204604D01*
X59957602Y-72109366D01*
X60005221Y-72014128D01*
X60005221Y-71823651D01*
X59005221Y-73109366D02*
X59005221Y-72918889D01*
X59052840Y-72823651D01*
X59100459Y-72776032D01*
X59243316Y-72680794D01*
X59433792Y-72633175D01*
X59814745Y-72633175D01*
X59909983Y-72680794D01*
X59957602Y-72728413D01*
X60005221Y-72823651D01*
X60005221Y-73014128D01*
X59957602Y-73109366D01*
X59909983Y-73156985D01*
X59814745Y-73204604D01*
X59576650Y-73204604D01*
X59481411Y-73156985D01*
X59433792Y-73109366D01*
X59386173Y-73014128D01*
X59386173Y-72823651D01*
X59433792Y-72728413D01*
X59481411Y-72680794D01*
X59576650Y-72633175D01*
X54766459Y-83602842D02*
X54718840Y-83507604D01*
X54623602Y-83412366D01*
X54480745Y-83269509D01*
X54433126Y-83174270D01*
X54433126Y-83079032D01*
X54671221Y-83126651D02*
X54623602Y-83031413D01*
X54528364Y-82936175D01*
X54337888Y-82888556D01*
X54004554Y-82888556D01*
X53814078Y-82936175D01*
X53718840Y-83031413D01*
X53671221Y-83126651D01*
X53671221Y-83317128D01*
X53718840Y-83412366D01*
X53814078Y-83507604D01*
X54004554Y-83555223D01*
X54337888Y-83555223D01*
X54528364Y-83507604D01*
X54623602Y-83412366D01*
X54671221Y-83317128D01*
X54671221Y-83126651D01*
X53671221Y-84459985D02*
X53671221Y-83983794D01*
X54147411Y-83936175D01*
X54099792Y-83983794D01*
X54052173Y-84079032D01*
X54052173Y-84317128D01*
X54099792Y-84412366D01*
X54147411Y-84459985D01*
X54242650Y-84507604D01*
X54480745Y-84507604D01*
X54575983Y-84459985D01*
X54623602Y-84412366D01*
X54671221Y-84317128D01*
X54671221Y-84079032D01*
X54623602Y-83983794D01*
X54575983Y-83936175D01*
X87147238Y-66616619D02*
X87242476Y-66569000D01*
X87337714Y-66473762D01*
X87480571Y-66330905D01*
X87575810Y-66283286D01*
X87671048Y-66283286D01*
X87623429Y-66521381D02*
X87718667Y-66473762D01*
X87813905Y-66378524D01*
X87861524Y-66188048D01*
X87861524Y-65854714D01*
X87813905Y-65664238D01*
X87718667Y-65569000D01*
X87623429Y-65521381D01*
X87432952Y-65521381D01*
X87337714Y-65569000D01*
X87242476Y-65664238D01*
X87194857Y-65854714D01*
X87194857Y-66188048D01*
X87242476Y-66378524D01*
X87337714Y-66473762D01*
X87432952Y-66521381D01*
X87623429Y-66521381D01*
X86242476Y-66521381D02*
X86813905Y-66521381D01*
X86528191Y-66521381D02*
X86528191Y-65521381D01*
X86623429Y-65664238D01*
X86718667Y-65759476D01*
X86813905Y-65807095D01*
X101319318Y-44245779D02*
X101414556Y-44198160D01*
X101509794Y-44102922D01*
X101652651Y-43960065D01*
X101747890Y-43912446D01*
X101843128Y-43912446D01*
X101795509Y-44150541D02*
X101890747Y-44102922D01*
X101985985Y-44007684D01*
X102033604Y-43817208D01*
X102033604Y-43483874D01*
X101985985Y-43293398D01*
X101890747Y-43198160D01*
X101795509Y-43150541D01*
X101605032Y-43150541D01*
X101509794Y-43198160D01*
X101414556Y-43293398D01*
X101366937Y-43483874D01*
X101366937Y-43817208D01*
X101414556Y-44007684D01*
X101509794Y-44102922D01*
X101605032Y-44150541D01*
X101795509Y-44150541D01*
X100985985Y-43245779D02*
X100938366Y-43198160D01*
X100843128Y-43150541D01*
X100605032Y-43150541D01*
X100509794Y-43198160D01*
X100462175Y-43245779D01*
X100414556Y-43341017D01*
X100414556Y-43436255D01*
X100462175Y-43579112D01*
X101033604Y-44150541D01*
X100414556Y-44150541D01*
M02*
