G04 #@! TF.FileFunction,Copper,L3,Inr,Plane*
%FSLAX46Y46*%
G04 Gerber Fmt 4.6, Leading zero omitted, Abs format (unit mm)*
G04 Created by KiCad (PCBNEW 4.0.1-stable) date 2017-04-04 9:13:48 AM*
%MOMM*%
G01*
G04 APERTURE LIST*
%ADD10C,0.150000*%
%ADD11C,3.000000*%
%ADD12C,1.270000*%
%ADD13R,1.727200X2.032000*%
%ADD14O,1.727200X2.032000*%
%ADD15O,1.600000X1.600000*%
%ADD16C,1.900000*%
%ADD17O,3.500120X1.699260*%
%ADD18O,1.699260X3.500120*%
%ADD19C,1.998980*%
%ADD20R,2.032000X1.727200*%
%ADD21O,2.032000X1.727200*%
%ADD22C,4.064000*%
%ADD23R,1.700000X1.700000*%
%ADD24C,0.800000*%
%ADD25C,0.254000*%
G04 APERTURE END LIST*
D10*
D11*
X60570000Y-77900000D03*
X47430000Y-77900000D03*
D12*
X35600000Y-63842830D03*
X35600000Y-69354630D03*
D13*
X67767000Y-102551000D03*
D14*
X70307000Y-102551000D03*
X72847000Y-102551000D03*
X75387000Y-102551000D03*
D15*
X77700000Y-55850000D03*
X77700000Y-58390000D03*
X77700000Y-60930000D03*
X77700000Y-63470000D03*
X77700000Y-66010000D03*
X77700000Y-68550000D03*
X77700000Y-71090000D03*
X70080000Y-71090000D03*
X70080000Y-68550000D03*
X70080000Y-66010000D03*
X70080000Y-63470000D03*
X70080000Y-60930000D03*
X70080000Y-58390000D03*
X70080000Y-55850000D03*
D16*
X98564000Y-57320000D03*
X101104000Y-57320000D03*
X103644000Y-57320000D03*
X93484000Y-70020000D03*
X96024000Y-70020000D03*
X98564000Y-70020000D03*
X101104000Y-70020000D03*
X103644000Y-70020000D03*
X106184000Y-70020000D03*
X108724000Y-70020000D03*
X111264000Y-70020000D03*
X113804000Y-70020000D03*
X116344000Y-70020000D03*
X118884000Y-70020000D03*
X121424000Y-70020000D03*
X123964000Y-70020000D03*
X123964000Y-54780000D03*
X121424000Y-54780000D03*
X118884000Y-54780000D03*
X116344000Y-54780000D03*
X113804000Y-54780000D03*
X111264000Y-54780000D03*
X108724000Y-54780000D03*
X106184000Y-54780000D03*
X103644000Y-54780000D03*
X101104000Y-54780000D03*
X98564000Y-54780000D03*
X96024000Y-54780000D03*
X93484000Y-54780000D03*
X90944000Y-54780000D03*
X90944000Y-70020000D03*
D17*
X76403000Y-84644000D03*
X76403000Y-87184000D03*
X76403000Y-82104000D03*
X71069000Y-95947000D03*
X71069000Y-98487000D03*
X71069000Y-93407000D03*
D18*
X124409000Y-100011000D03*
X126949000Y-100011000D03*
X121869000Y-100011000D03*
D13*
X67767000Y-79691000D03*
D14*
X70307000Y-79691000D03*
X72847000Y-79691000D03*
D19*
X72044360Y-85660000D03*
X67043100Y-85660000D03*
D20*
X67510000Y-57080000D03*
D21*
X67510000Y-59620000D03*
X67510000Y-62160000D03*
X67510000Y-64700000D03*
D20*
X80210000Y-57080000D03*
D21*
X80210000Y-59620000D03*
X80210000Y-62160000D03*
X80210000Y-64700000D03*
D12*
X136130800Y-22473200D03*
X125869200Y-22473200D03*
X136130800Y-24733800D03*
X125869200Y-24733800D03*
D22*
X144000000Y-25000000D03*
X68000000Y-109000000D03*
X144000000Y-109000000D03*
D23*
X39050000Y-83200000D03*
D24*
X122700000Y-56300000D03*
X120100000Y-56300000D03*
X120800000Y-67700000D03*
X117600000Y-56300000D03*
X118500000Y-67700000D03*
X114600000Y-67000000D03*
X130000000Y-67900000D03*
X126000000Y-67800000D03*
X116100000Y-56400000D03*
X116200000Y-67600000D03*
X113000000Y-56400000D03*
X114700000Y-56400000D03*
X57500000Y-74000000D03*
X133000000Y-44600000D03*
X133000000Y-45600000D03*
X133540000Y-29102600D03*
X129730000Y-27578600D03*
X131800000Y-44600000D03*
X121300000Y-48900000D03*
X126500000Y-43600000D03*
X69100000Y-100600000D03*
X68700000Y-77800000D03*
X136800000Y-48600000D03*
X139000000Y-70000000D03*
X112800000Y-50500000D03*
X84400000Y-58300000D03*
X135100000Y-49200000D03*
X137200000Y-70400000D03*
X124000000Y-43600000D03*
X83400000Y-57300000D03*
X100400000Y-74800000D03*
X80451000Y-101408000D03*
X82499000Y-98072980D03*
X108700000Y-61400000D03*
X139200000Y-57449020D03*
X143800000Y-57449020D03*
X124550000Y-75200000D03*
X128800000Y-74700000D03*
X113600000Y-77200000D03*
X102600000Y-51100000D03*
X81600000Y-60300000D03*
X81700000Y-58900000D03*
X76000000Y-60600000D03*
X99800000Y-101575000D03*
X100975000Y-101550000D03*
X105300000Y-93600000D03*
X142300000Y-67300000D03*
X102200000Y-101550000D03*
X100975000Y-95400000D03*
X99700000Y-95350000D03*
X102250000Y-95400000D03*
X121615000Y-89740000D03*
X116662000Y-85152000D03*
X118186000Y-83755000D03*
X118186000Y-85152000D03*
X116662000Y-83755000D03*
X115265000Y-83755000D03*
X115265000Y-85152000D03*
X124155000Y-93280000D03*
X139141000Y-82866000D03*
X143800000Y-52250000D03*
X128700000Y-94300000D03*
X129700000Y-50900000D03*
X68900000Y-104700000D03*
X141700000Y-91200000D03*
X144400000Y-91300000D03*
X144200000Y-99800000D03*
X144200000Y-98300000D03*
X144200000Y-96900000D03*
X142900000Y-92700000D03*
X121400000Y-63500000D03*
X109000000Y-83450000D03*
X118400000Y-82800000D03*
X130600000Y-87000000D03*
X120800000Y-88600000D03*
X86563000Y-89597000D03*
X82499000Y-89597000D03*
X129200000Y-70300000D03*
X129100000Y-63200000D03*
X139800000Y-71000000D03*
X144900000Y-71000000D03*
X97950000Y-52600000D03*
X142000000Y-40699980D03*
X139200000Y-48300000D03*
X71850000Y-61050000D03*
X81800000Y-51450000D03*
X136250000Y-77000000D03*
X125300000Y-61600000D03*
X127300000Y-88900000D03*
X129500000Y-88900000D03*
X130902000Y-83374000D03*
X130400000Y-80300000D03*
X121675000Y-72995000D03*
X113600000Y-75200000D03*
X101500000Y-52800000D03*
X115200000Y-67800000D03*
X107700000Y-67800000D03*
X107400000Y-76700000D03*
X102100000Y-92300000D03*
X112500000Y-89000000D03*
X71831000Y-89724000D03*
X77165000Y-88962000D03*
X79700000Y-55000000D03*
X135800000Y-48500000D03*
X132800000Y-31200000D03*
X131000000Y-27578600D03*
X141100000Y-76500000D03*
X72300000Y-51050000D03*
X128100000Y-68600000D03*
X139900000Y-59300000D03*
X139600000Y-60800000D03*
X137600000Y-59300000D03*
X142700000Y-60100000D03*
X133500000Y-66800000D03*
X133000000Y-78300000D03*
X111500000Y-48600000D03*
X109600000Y-51400000D03*
X132270000Y-29102600D03*
X112800000Y-48100000D03*
X110900000Y-51400000D03*
X133540000Y-27578600D03*
X98800000Y-80100000D03*
X111200000Y-79800000D03*
X98800000Y-79100000D03*
X108700000Y-79100000D03*
X104800000Y-74400000D03*
X104900000Y-80900000D03*
X118600000Y-81000000D03*
X108000000Y-80500000D03*
X108100000Y-74300000D03*
X118500000Y-80000000D03*
X86000000Y-61500000D03*
X131000000Y-48240000D03*
X122650000Y-48160000D03*
X134700000Y-78500000D03*
X130600000Y-79200000D03*
X130400000Y-77400000D03*
X129130000Y-72810000D03*
X127600000Y-74700000D03*
X124000000Y-58150000D03*
X124800000Y-77400000D03*
X118900000Y-77400000D03*
X103600000Y-73900000D03*
X106200000Y-73900000D03*
X104600000Y-52800000D03*
X123400000Y-73600000D03*
X116450000Y-74300000D03*
X124200000Y-72200000D03*
X36990000Y-83330000D03*
X35581660Y-73520230D03*
X33925000Y-81500000D03*
X33925000Y-85100000D03*
X42610400Y-68465630D03*
X35581660Y-59679770D03*
X47000000Y-69000000D03*
X49400000Y-58200000D03*
X133000000Y-41550000D03*
X134700000Y-41500000D03*
X47000000Y-64500000D03*
X52700000Y-66100000D03*
X53300000Y-66900000D03*
D25*
X33925000Y-81500000D02*
X33925000Y-75176890D01*
X33925000Y-75176890D02*
X35581660Y-73520230D01*
G36*
X144373000Y-51367249D02*
X144006777Y-51215180D01*
X143595029Y-51214821D01*
X143214485Y-51372058D01*
X142923081Y-51662954D01*
X142765180Y-52043223D01*
X142764821Y-52454971D01*
X142922058Y-52835515D01*
X143212954Y-53126919D01*
X143593223Y-53284820D01*
X144004971Y-53285179D01*
X144373000Y-53133113D01*
X144373000Y-70097880D01*
X144314485Y-70122058D01*
X144023081Y-70412954D01*
X143865180Y-70793223D01*
X143864821Y-71204971D01*
X144022058Y-71585515D01*
X144312954Y-71876919D01*
X144373000Y-71901852D01*
X144373000Y-90264976D01*
X144195029Y-90264821D01*
X143814485Y-90422058D01*
X143523081Y-90712954D01*
X143365180Y-91093223D01*
X143364821Y-91504971D01*
X143502769Y-91838831D01*
X143487046Y-91823081D01*
X143106777Y-91665180D01*
X142695029Y-91664821D01*
X142613721Y-91698417D01*
X142734820Y-91406777D01*
X142735179Y-90995029D01*
X142577942Y-90614485D01*
X142287046Y-90323081D01*
X141906777Y-90165180D01*
X141495029Y-90164821D01*
X141114485Y-90322058D01*
X140823081Y-90612954D01*
X140665180Y-90993223D01*
X140664821Y-91404971D01*
X140822058Y-91785515D01*
X141112954Y-92076919D01*
X141344343Y-92173000D01*
X130700000Y-92173000D01*
X130650590Y-92183006D01*
X130608965Y-92211447D01*
X130581685Y-92253841D01*
X130573000Y-92300000D01*
X130573000Y-104300000D01*
X130583006Y-104349410D01*
X130611447Y-104391035D01*
X130653841Y-104418315D01*
X130700000Y-104427000D01*
X142800000Y-104427000D01*
X142849410Y-104416994D01*
X142891035Y-104388553D01*
X142918315Y-104346159D01*
X142927000Y-104300000D01*
X142927000Y-93735024D01*
X143104971Y-93735179D01*
X143485515Y-93577942D01*
X143776919Y-93287046D01*
X143934820Y-92906777D01*
X143935179Y-92495029D01*
X143797231Y-92161169D01*
X143812954Y-92176919D01*
X144193223Y-92334820D01*
X144373000Y-92334977D01*
X144373000Y-95865151D01*
X143995029Y-95864821D01*
X143614485Y-96022058D01*
X143323081Y-96312954D01*
X143165180Y-96693223D01*
X143164821Y-97104971D01*
X143322058Y-97485515D01*
X143436288Y-97599944D01*
X143323081Y-97712954D01*
X143165180Y-98093223D01*
X143164821Y-98504971D01*
X143322058Y-98885515D01*
X143486288Y-99050032D01*
X143323081Y-99212954D01*
X143165180Y-99593223D01*
X143164821Y-100004971D01*
X143322058Y-100385515D01*
X143612954Y-100676919D01*
X143993223Y-100834820D01*
X144373000Y-100835151D01*
X144373000Y-105873000D01*
X68127000Y-105873000D01*
X68127000Y-105390640D01*
X68312954Y-105576919D01*
X68693223Y-105734820D01*
X69104971Y-105735179D01*
X69485515Y-105577942D01*
X69776919Y-105287046D01*
X69934820Y-104906777D01*
X69935179Y-104495029D01*
X69784526Y-104130418D01*
X70307000Y-104234345D01*
X70880489Y-104120271D01*
X71366670Y-103795415D01*
X71577000Y-103480634D01*
X71787330Y-103795415D01*
X72273511Y-104120271D01*
X72847000Y-104234345D01*
X73420489Y-104120271D01*
X73906670Y-103795415D01*
X74117000Y-103480634D01*
X74327330Y-103795415D01*
X74813511Y-104120271D01*
X75387000Y-104234345D01*
X75960489Y-104120271D01*
X76446670Y-103795415D01*
X76771526Y-103309234D01*
X76885600Y-102735745D01*
X76885600Y-102366255D01*
X76771526Y-101792766D01*
X76446670Y-101306585D01*
X75960489Y-100981729D01*
X75387000Y-100867655D01*
X74813511Y-100981729D01*
X74327330Y-101306585D01*
X74117000Y-101621366D01*
X73906670Y-101306585D01*
X73420489Y-100981729D01*
X72847000Y-100867655D01*
X72273511Y-100981729D01*
X71787330Y-101306585D01*
X71577000Y-101621366D01*
X71366670Y-101306585D01*
X70880489Y-100981729D01*
X70307000Y-100867655D01*
X69733511Y-100981729D01*
X69247330Y-101306585D01*
X69232500Y-101328780D01*
X69168927Y-101175302D01*
X68990299Y-100996673D01*
X68756910Y-100900000D01*
X68127000Y-100900000D01*
X68127000Y-93407000D01*
X68637214Y-93407000D01*
X68750225Y-93975143D01*
X69072052Y-94456792D01*
X69401617Y-94677000D01*
X69072052Y-94897208D01*
X68750225Y-95378857D01*
X68637214Y-95947000D01*
X68750225Y-96515143D01*
X69072052Y-96996792D01*
X69401617Y-97217000D01*
X69072052Y-97437208D01*
X68750225Y-97918857D01*
X68637214Y-98487000D01*
X68750225Y-99055143D01*
X69072052Y-99536792D01*
X69553701Y-99858619D01*
X70121844Y-99971630D01*
X72016156Y-99971630D01*
X72584299Y-99858619D01*
X73065948Y-99536792D01*
X73381961Y-99063844D01*
X120384370Y-99063844D01*
X120384370Y-100958156D01*
X120497381Y-101526299D01*
X120819208Y-102007948D01*
X121300857Y-102329775D01*
X121869000Y-102442786D01*
X122437143Y-102329775D01*
X122918792Y-102007948D01*
X123139000Y-101678383D01*
X123359208Y-102007948D01*
X123840857Y-102329775D01*
X124409000Y-102442786D01*
X124977143Y-102329775D01*
X125458792Y-102007948D01*
X125679000Y-101678383D01*
X125899208Y-102007948D01*
X126380857Y-102329775D01*
X126949000Y-102442786D01*
X127517143Y-102329775D01*
X127998792Y-102007948D01*
X128320619Y-101526299D01*
X128433630Y-100958156D01*
X128433630Y-99063844D01*
X128320619Y-98495701D01*
X127998792Y-98014052D01*
X127517143Y-97692225D01*
X126949000Y-97579214D01*
X126380857Y-97692225D01*
X125899208Y-98014052D01*
X125679000Y-98343617D01*
X125458792Y-98014052D01*
X124977143Y-97692225D01*
X124409000Y-97579214D01*
X123840857Y-97692225D01*
X123359208Y-98014052D01*
X123139000Y-98343617D01*
X122918792Y-98014052D01*
X122437143Y-97692225D01*
X121869000Y-97579214D01*
X121300857Y-97692225D01*
X120819208Y-98014052D01*
X120497381Y-98495701D01*
X120384370Y-99063844D01*
X73381961Y-99063844D01*
X73387775Y-99055143D01*
X73500786Y-98487000D01*
X73387775Y-97918857D01*
X73065948Y-97437208D01*
X72736383Y-97217000D01*
X73065948Y-96996792D01*
X73387775Y-96515143D01*
X73500786Y-95947000D01*
X73387775Y-95378857D01*
X73065948Y-94897208D01*
X72736383Y-94677000D01*
X72993842Y-94504971D01*
X127664821Y-94504971D01*
X127822058Y-94885515D01*
X128112954Y-95176919D01*
X128493223Y-95334820D01*
X128904971Y-95335179D01*
X129285515Y-95177942D01*
X129576919Y-94887046D01*
X129734820Y-94506777D01*
X129735179Y-94095029D01*
X129577942Y-93714485D01*
X129287046Y-93423081D01*
X128906777Y-93265180D01*
X128495029Y-93264821D01*
X128114485Y-93422058D01*
X127823081Y-93712954D01*
X127665180Y-94093223D01*
X127664821Y-94504971D01*
X72993842Y-94504971D01*
X73065948Y-94456792D01*
X73387775Y-93975143D01*
X73500786Y-93407000D01*
X73387775Y-92838857D01*
X73164680Y-92504971D01*
X101064821Y-92504971D01*
X101222058Y-92885515D01*
X101512954Y-93176919D01*
X101893223Y-93334820D01*
X102304971Y-93335179D01*
X102685515Y-93177942D01*
X102976919Y-92887046D01*
X103134820Y-92506777D01*
X103135179Y-92095029D01*
X102977942Y-91714485D01*
X102687046Y-91423081D01*
X102306777Y-91265180D01*
X101895029Y-91264821D01*
X101514485Y-91422058D01*
X101223081Y-91712954D01*
X101065180Y-92093223D01*
X101064821Y-92504971D01*
X73164680Y-92504971D01*
X73065948Y-92357208D01*
X72584299Y-92035381D01*
X72016156Y-91922370D01*
X70121844Y-91922370D01*
X69553701Y-92035381D01*
X69072052Y-92357208D01*
X68750225Y-92838857D01*
X68637214Y-93407000D01*
X68127000Y-93407000D01*
X68127000Y-89928971D01*
X70795821Y-89928971D01*
X70953058Y-90309515D01*
X71243954Y-90600919D01*
X71624223Y-90758820D01*
X72035971Y-90759179D01*
X72416515Y-90601942D01*
X72707919Y-90311046D01*
X72865820Y-89930777D01*
X72866179Y-89519029D01*
X72708942Y-89138485D01*
X72418046Y-88847081D01*
X72037777Y-88689180D01*
X71626029Y-88688821D01*
X71245485Y-88846058D01*
X70954081Y-89136954D01*
X70796180Y-89517223D01*
X70795821Y-89928971D01*
X68127000Y-89928971D01*
X68127000Y-87000000D01*
X68116994Y-86950590D01*
X68095422Y-86919018D01*
X68427946Y-86587073D01*
X68677306Y-85986547D01*
X68677308Y-85983694D01*
X70409586Y-85983694D01*
X70657898Y-86584655D01*
X71117287Y-87044846D01*
X71717813Y-87294206D01*
X72368054Y-87294774D01*
X72969015Y-87046462D01*
X73429206Y-86587073D01*
X73678566Y-85986547D01*
X73679134Y-85336306D01*
X73430822Y-84735345D01*
X73339637Y-84644000D01*
X73971214Y-84644000D01*
X74084225Y-85212143D01*
X74406052Y-85693792D01*
X74735617Y-85914000D01*
X74406052Y-86134208D01*
X74084225Y-86615857D01*
X73971214Y-87184000D01*
X74084225Y-87752143D01*
X74406052Y-88233792D01*
X74887701Y-88555619D01*
X75455844Y-88668630D01*
X76166136Y-88668630D01*
X76130180Y-88755223D01*
X76129821Y-89166971D01*
X76287058Y-89547515D01*
X76577954Y-89838919D01*
X76958223Y-89996820D01*
X77369971Y-89997179D01*
X77750515Y-89839942D01*
X77788552Y-89801971D01*
X81463821Y-89801971D01*
X81621058Y-90182515D01*
X81911954Y-90473919D01*
X82292223Y-90631820D01*
X82703971Y-90632179D01*
X83084515Y-90474942D01*
X83375919Y-90184046D01*
X83533820Y-89803777D01*
X83533821Y-89801971D01*
X85527821Y-89801971D01*
X85685058Y-90182515D01*
X85975954Y-90473919D01*
X86356223Y-90631820D01*
X86767971Y-90632179D01*
X87148515Y-90474942D01*
X87439919Y-90184046D01*
X87597820Y-89803777D01*
X87598179Y-89392029D01*
X87520889Y-89204971D01*
X111464821Y-89204971D01*
X111622058Y-89585515D01*
X111912954Y-89876919D01*
X112293223Y-90034820D01*
X112704971Y-90035179D01*
X113085515Y-89877942D01*
X113376919Y-89587046D01*
X113534820Y-89206777D01*
X113535170Y-88804971D01*
X119764821Y-88804971D01*
X119922058Y-89185515D01*
X120212954Y-89476919D01*
X120593223Y-89634820D01*
X121004971Y-89635179D01*
X121385515Y-89477942D01*
X121676919Y-89187046D01*
X121710999Y-89104971D01*
X126264821Y-89104971D01*
X126422058Y-89485515D01*
X126712954Y-89776919D01*
X127093223Y-89934820D01*
X127504971Y-89935179D01*
X127885515Y-89777942D01*
X128176919Y-89487046D01*
X128334820Y-89106777D01*
X128334821Y-89104971D01*
X128464821Y-89104971D01*
X128622058Y-89485515D01*
X128912954Y-89776919D01*
X129293223Y-89934820D01*
X129704971Y-89935179D01*
X130085515Y-89777942D01*
X130376919Y-89487046D01*
X130534820Y-89106777D01*
X130535179Y-88695029D01*
X130377942Y-88314485D01*
X130087046Y-88023081D01*
X129706777Y-87865180D01*
X129295029Y-87864821D01*
X128914485Y-88022058D01*
X128623081Y-88312954D01*
X128465180Y-88693223D01*
X128464821Y-89104971D01*
X128334821Y-89104971D01*
X128335179Y-88695029D01*
X128177942Y-88314485D01*
X127887046Y-88023081D01*
X127506777Y-87865180D01*
X127095029Y-87864821D01*
X126714485Y-88022058D01*
X126423081Y-88312954D01*
X126265180Y-88693223D01*
X126264821Y-89104971D01*
X121710999Y-89104971D01*
X121834820Y-88806777D01*
X121835179Y-88395029D01*
X121677942Y-88014485D01*
X121387046Y-87723081D01*
X121006777Y-87565180D01*
X120595029Y-87564821D01*
X120214485Y-87722058D01*
X119923081Y-88012954D01*
X119765180Y-88393223D01*
X119764821Y-88804971D01*
X113535170Y-88804971D01*
X113535179Y-88795029D01*
X113377942Y-88414485D01*
X113087046Y-88123081D01*
X112706777Y-87965180D01*
X112295029Y-87964821D01*
X111914485Y-88122058D01*
X111623081Y-88412954D01*
X111465180Y-88793223D01*
X111464821Y-89204971D01*
X87520889Y-89204971D01*
X87440942Y-89011485D01*
X87150046Y-88720081D01*
X86769777Y-88562180D01*
X86358029Y-88561821D01*
X85977485Y-88719058D01*
X85686081Y-89009954D01*
X85528180Y-89390223D01*
X85527821Y-89801971D01*
X83533821Y-89801971D01*
X83534179Y-89392029D01*
X83376942Y-89011485D01*
X83086046Y-88720081D01*
X82705777Y-88562180D01*
X82294029Y-88561821D01*
X81913485Y-88719058D01*
X81622081Y-89009954D01*
X81464180Y-89390223D01*
X81463821Y-89801971D01*
X77788552Y-89801971D01*
X78041919Y-89549046D01*
X78199820Y-89168777D01*
X78200179Y-88757029D01*
X78073978Y-88451598D01*
X78399948Y-88233792D01*
X78721775Y-87752143D01*
X78830614Y-87204971D01*
X129564821Y-87204971D01*
X129722058Y-87585515D01*
X130012954Y-87876919D01*
X130393223Y-88034820D01*
X130804971Y-88035179D01*
X131185515Y-87877942D01*
X131476919Y-87587046D01*
X131634820Y-87206777D01*
X131635179Y-86795029D01*
X131477942Y-86414485D01*
X131187046Y-86123081D01*
X130806777Y-85965180D01*
X130395029Y-85964821D01*
X130014485Y-86122058D01*
X129723081Y-86412954D01*
X129565180Y-86793223D01*
X129564821Y-87204971D01*
X78830614Y-87204971D01*
X78834786Y-87184000D01*
X78721775Y-86615857D01*
X78399948Y-86134208D01*
X78070383Y-85914000D01*
X78399948Y-85693792D01*
X78721775Y-85212143D01*
X78834786Y-84644000D01*
X78721775Y-84075857D01*
X78440549Y-83654971D01*
X107964821Y-83654971D01*
X108122058Y-84035515D01*
X108412954Y-84326919D01*
X108793223Y-84484820D01*
X109204971Y-84485179D01*
X109585515Y-84327942D01*
X109876919Y-84037046D01*
X110034820Y-83656777D01*
X110035179Y-83245029D01*
X109935990Y-83004971D01*
X117364821Y-83004971D01*
X117522058Y-83385515D01*
X117812954Y-83676919D01*
X118193223Y-83834820D01*
X118604971Y-83835179D01*
X118985515Y-83677942D01*
X119084658Y-83578971D01*
X129866821Y-83578971D01*
X130024058Y-83959515D01*
X130314954Y-84250919D01*
X130695223Y-84408820D01*
X131106971Y-84409179D01*
X131487515Y-84251942D01*
X131778919Y-83961046D01*
X131936820Y-83580777D01*
X131937179Y-83169029D01*
X131779942Y-82788485D01*
X131489046Y-82497081D01*
X131108777Y-82339180D01*
X130697029Y-82338821D01*
X130316485Y-82496058D01*
X130025081Y-82786954D01*
X129867180Y-83167223D01*
X129866821Y-83578971D01*
X119084658Y-83578971D01*
X119276919Y-83387046D01*
X119434820Y-83006777D01*
X119435179Y-82595029D01*
X119277942Y-82214485D01*
X119013101Y-81949182D01*
X119185515Y-81877942D01*
X119476919Y-81587046D01*
X119634820Y-81206777D01*
X119635179Y-80795029D01*
X119477942Y-80414485D01*
X119457200Y-80393707D01*
X119534820Y-80206777D01*
X119535179Y-79795029D01*
X119377942Y-79414485D01*
X119087046Y-79123081D01*
X118706777Y-78965180D01*
X118295029Y-78964821D01*
X117914485Y-79122058D01*
X117623081Y-79412954D01*
X117465180Y-79793223D01*
X117464821Y-80204971D01*
X117622058Y-80585515D01*
X117642800Y-80606293D01*
X117565180Y-80793223D01*
X117564821Y-81204971D01*
X117722058Y-81585515D01*
X117986899Y-81850818D01*
X117814485Y-81922058D01*
X117523081Y-82212954D01*
X117365180Y-82593223D01*
X117364821Y-83004971D01*
X109935990Y-83004971D01*
X109877942Y-82864485D01*
X109587046Y-82573081D01*
X109206777Y-82415180D01*
X108795029Y-82414821D01*
X108414485Y-82572058D01*
X108123081Y-82862954D01*
X107965180Y-83243223D01*
X107964821Y-83654971D01*
X78440549Y-83654971D01*
X78399948Y-83594208D01*
X78062127Y-83368484D01*
X78443024Y-83063989D01*
X78723649Y-82554810D01*
X78744540Y-82460832D01*
X78623214Y-82231000D01*
X76530000Y-82231000D01*
X76530000Y-82251000D01*
X76276000Y-82251000D01*
X76276000Y-82231000D01*
X74182786Y-82231000D01*
X74061460Y-82460832D01*
X74082351Y-82554810D01*
X74362976Y-83063989D01*
X74743873Y-83368484D01*
X74406052Y-83594208D01*
X74084225Y-84075857D01*
X73971214Y-84644000D01*
X73339637Y-84644000D01*
X72971433Y-84275154D01*
X72370907Y-84025794D01*
X71720666Y-84025226D01*
X71119705Y-84273538D01*
X70659514Y-84732927D01*
X70410154Y-85333453D01*
X70409586Y-85983694D01*
X68677308Y-85983694D01*
X68677874Y-85336306D01*
X68429562Y-84735345D01*
X67970173Y-84275154D01*
X67369647Y-84025794D01*
X66719406Y-84025226D01*
X66118445Y-84273538D01*
X65658254Y-84732927D01*
X65408894Y-85333453D01*
X65408326Y-85983694D01*
X65656638Y-86584655D01*
X65944480Y-86873000D01*
X41127000Y-86873000D01*
X41127000Y-81747168D01*
X74061460Y-81747168D01*
X74182786Y-81977000D01*
X76276000Y-81977000D01*
X76276000Y-80619370D01*
X76530000Y-80619370D01*
X76530000Y-81977000D01*
X78623214Y-81977000D01*
X78744540Y-81747168D01*
X78723649Y-81653190D01*
X78443024Y-81144011D01*
X77988906Y-80780982D01*
X77430430Y-80619370D01*
X76530000Y-80619370D01*
X76276000Y-80619370D01*
X75375570Y-80619370D01*
X74817094Y-80780982D01*
X74362976Y-81144011D01*
X74082351Y-81653190D01*
X74061460Y-81747168D01*
X41127000Y-81747168D01*
X41127000Y-79413970D01*
X46095635Y-79413970D01*
X46255418Y-79732739D01*
X47046187Y-80042723D01*
X47895387Y-80026497D01*
X48604582Y-79732739D01*
X48764365Y-79413970D01*
X59235635Y-79413970D01*
X59395418Y-79732739D01*
X60186187Y-80042723D01*
X61035387Y-80026497D01*
X61155486Y-79976750D01*
X66268400Y-79976750D01*
X66268400Y-80833309D01*
X66365073Y-81066698D01*
X66543701Y-81245327D01*
X66777090Y-81342000D01*
X67481250Y-81342000D01*
X67640000Y-81183250D01*
X67640000Y-79818000D01*
X66427150Y-79818000D01*
X66268400Y-79976750D01*
X61155486Y-79976750D01*
X61744582Y-79732739D01*
X61904365Y-79413970D01*
X60570000Y-78079605D01*
X59235635Y-79413970D01*
X48764365Y-79413970D01*
X47430000Y-78079605D01*
X46095635Y-79413970D01*
X41127000Y-79413970D01*
X41127000Y-77516187D01*
X45287277Y-77516187D01*
X45303503Y-78365387D01*
X45597261Y-79074582D01*
X45916030Y-79234365D01*
X47250395Y-77900000D01*
X47609605Y-77900000D01*
X48943970Y-79234365D01*
X49262739Y-79074582D01*
X49572723Y-78283813D01*
X49558056Y-77516187D01*
X58427277Y-77516187D01*
X58443503Y-78365387D01*
X58737261Y-79074582D01*
X59056030Y-79234365D01*
X60390395Y-77900000D01*
X60749605Y-77900000D01*
X62083970Y-79234365D01*
X62402739Y-79074582D01*
X62608889Y-78548691D01*
X66268400Y-78548691D01*
X66268400Y-79405250D01*
X66427150Y-79564000D01*
X67640000Y-79564000D01*
X67640000Y-78198750D01*
X67894000Y-78198750D01*
X67894000Y-79564000D01*
X67914000Y-79564000D01*
X67914000Y-79818000D01*
X67894000Y-79818000D01*
X67894000Y-81183250D01*
X68052750Y-81342000D01*
X68756910Y-81342000D01*
X68990299Y-81245327D01*
X69168927Y-81066698D01*
X69232500Y-80913220D01*
X69247330Y-80935415D01*
X69733511Y-81260271D01*
X70307000Y-81374345D01*
X70880489Y-81260271D01*
X71366670Y-80935415D01*
X71577000Y-80620634D01*
X71787330Y-80935415D01*
X72273511Y-81260271D01*
X72847000Y-81374345D01*
X73420489Y-81260271D01*
X73906670Y-80935415D01*
X74231526Y-80449234D01*
X74345600Y-79875745D01*
X74345600Y-79506255D01*
X74305563Y-79304971D01*
X97764821Y-79304971D01*
X97886830Y-79600256D01*
X97765180Y-79893223D01*
X97764821Y-80304971D01*
X97922058Y-80685515D01*
X98212954Y-80976919D01*
X98593223Y-81134820D01*
X99004971Y-81135179D01*
X99078080Y-81104971D01*
X103864821Y-81104971D01*
X104022058Y-81485515D01*
X104312954Y-81776919D01*
X104693223Y-81934820D01*
X105104971Y-81935179D01*
X105485515Y-81777942D01*
X105776919Y-81487046D01*
X105934820Y-81106777D01*
X105935170Y-80704971D01*
X106964821Y-80704971D01*
X107122058Y-81085515D01*
X107412954Y-81376919D01*
X107793223Y-81534820D01*
X108204971Y-81535179D01*
X108585515Y-81377942D01*
X108876919Y-81087046D01*
X109034820Y-80706777D01*
X109035179Y-80295029D01*
X108959774Y-80112535D01*
X109220099Y-80004971D01*
X110164821Y-80004971D01*
X110322058Y-80385515D01*
X110612954Y-80676919D01*
X110993223Y-80834820D01*
X111404971Y-80835179D01*
X111785515Y-80677942D01*
X112076919Y-80387046D01*
X112234820Y-80006777D01*
X112235179Y-79595029D01*
X112077942Y-79214485D01*
X111787046Y-78923081D01*
X111406777Y-78765180D01*
X110995029Y-78764821D01*
X110614485Y-78922058D01*
X110323081Y-79212954D01*
X110165180Y-79593223D01*
X110164821Y-80004971D01*
X109220099Y-80004971D01*
X109285515Y-79977942D01*
X109576919Y-79687046D01*
X109734820Y-79306777D01*
X109735179Y-78895029D01*
X109577942Y-78514485D01*
X109287046Y-78223081D01*
X108906777Y-78065180D01*
X108495029Y-78064821D01*
X108114485Y-78222058D01*
X107823081Y-78512954D01*
X107665180Y-78893223D01*
X107664821Y-79304971D01*
X107740226Y-79487465D01*
X107414485Y-79622058D01*
X107123081Y-79912954D01*
X106965180Y-80293223D01*
X106964821Y-80704971D01*
X105935170Y-80704971D01*
X105935179Y-80695029D01*
X105777942Y-80314485D01*
X105487046Y-80023081D01*
X105106777Y-79865180D01*
X104695029Y-79864821D01*
X104314485Y-80022058D01*
X104023081Y-80312954D01*
X103865180Y-80693223D01*
X103864821Y-81104971D01*
X99078080Y-81104971D01*
X99385515Y-80977942D01*
X99676919Y-80687046D01*
X99834820Y-80306777D01*
X99835179Y-79895029D01*
X99713170Y-79599744D01*
X99834820Y-79306777D01*
X99835179Y-78895029D01*
X99677942Y-78514485D01*
X99387046Y-78223081D01*
X99006777Y-78065180D01*
X98595029Y-78064821D01*
X98214485Y-78222058D01*
X97923081Y-78512954D01*
X97765180Y-78893223D01*
X97764821Y-79304971D01*
X74305563Y-79304971D01*
X74231526Y-78932766D01*
X73906670Y-78446585D01*
X73420489Y-78121729D01*
X72847000Y-78007655D01*
X72273511Y-78121729D01*
X71787330Y-78446585D01*
X71577000Y-78761366D01*
X71366670Y-78446585D01*
X70880489Y-78121729D01*
X70307000Y-78007655D01*
X69733511Y-78121729D01*
X69247330Y-78446585D01*
X69232500Y-78468780D01*
X69168927Y-78315302D01*
X68990299Y-78136673D01*
X68756910Y-78040000D01*
X68052750Y-78040000D01*
X67894000Y-78198750D01*
X67640000Y-78198750D01*
X67481250Y-78040000D01*
X66777090Y-78040000D01*
X66543701Y-78136673D01*
X66365073Y-78315302D01*
X66268400Y-78548691D01*
X62608889Y-78548691D01*
X62712723Y-78283813D01*
X62696497Y-77434613D01*
X62477113Y-76904971D01*
X106364821Y-76904971D01*
X106522058Y-77285515D01*
X106812954Y-77576919D01*
X107193223Y-77734820D01*
X107604971Y-77735179D01*
X107920099Y-77604971D01*
X117864821Y-77604971D01*
X118022058Y-77985515D01*
X118312954Y-78276919D01*
X118693223Y-78434820D01*
X119104971Y-78435179D01*
X119485515Y-78277942D01*
X119776919Y-77987046D01*
X119934820Y-77606777D01*
X119934821Y-77604971D01*
X123764821Y-77604971D01*
X123922058Y-77985515D01*
X124212954Y-78276919D01*
X124593223Y-78434820D01*
X125004971Y-78435179D01*
X125385515Y-78277942D01*
X125676919Y-77987046D01*
X125834820Y-77606777D01*
X125834821Y-77604971D01*
X129364821Y-77604971D01*
X129522058Y-77985515D01*
X129812954Y-78276919D01*
X129987217Y-78349279D01*
X129723081Y-78612954D01*
X129565180Y-78993223D01*
X129564821Y-79404971D01*
X129642726Y-79593517D01*
X129523081Y-79712954D01*
X129365180Y-80093223D01*
X129364821Y-80504971D01*
X129522058Y-80885515D01*
X129812954Y-81176919D01*
X130193223Y-81334820D01*
X130604971Y-81335179D01*
X130985515Y-81177942D01*
X131276919Y-80887046D01*
X131434820Y-80506777D01*
X131435179Y-80095029D01*
X131357274Y-79906483D01*
X131476919Y-79787046D01*
X131634820Y-79406777D01*
X131635179Y-78995029D01*
X131477942Y-78614485D01*
X131368619Y-78504971D01*
X131964821Y-78504971D01*
X132122058Y-78885515D01*
X132412954Y-79176919D01*
X132793223Y-79334820D01*
X133204971Y-79335179D01*
X133585515Y-79177942D01*
X133780020Y-78983776D01*
X133822058Y-79085515D01*
X134112954Y-79376919D01*
X134493223Y-79534820D01*
X134904971Y-79535179D01*
X135285515Y-79377942D01*
X135576919Y-79087046D01*
X135734820Y-78706777D01*
X135735179Y-78295029D01*
X135577942Y-77914485D01*
X135287046Y-77623081D01*
X134906777Y-77465180D01*
X134495029Y-77464821D01*
X134114485Y-77622058D01*
X133919980Y-77816224D01*
X133877942Y-77714485D01*
X133587046Y-77423081D01*
X133206777Y-77265180D01*
X132795029Y-77264821D01*
X132414485Y-77422058D01*
X132123081Y-77712954D01*
X131965180Y-78093223D01*
X131964821Y-78504971D01*
X131368619Y-78504971D01*
X131187046Y-78323081D01*
X131012783Y-78250721D01*
X131276919Y-77987046D01*
X131434820Y-77606777D01*
X131435170Y-77204971D01*
X135214821Y-77204971D01*
X135372058Y-77585515D01*
X135662954Y-77876919D01*
X136043223Y-78034820D01*
X136454971Y-78035179D01*
X136835515Y-77877942D01*
X137126919Y-77587046D01*
X137284820Y-77206777D01*
X137285179Y-76795029D01*
X137247968Y-76704971D01*
X140064821Y-76704971D01*
X140222058Y-77085515D01*
X140512954Y-77376919D01*
X140893223Y-77534820D01*
X141304971Y-77535179D01*
X141685515Y-77377942D01*
X141976919Y-77087046D01*
X142134820Y-76706777D01*
X142135179Y-76295029D01*
X141977942Y-75914485D01*
X141687046Y-75623081D01*
X141306777Y-75465180D01*
X140895029Y-75464821D01*
X140514485Y-75622058D01*
X140223081Y-75912954D01*
X140065180Y-76293223D01*
X140064821Y-76704971D01*
X137247968Y-76704971D01*
X137127942Y-76414485D01*
X136837046Y-76123081D01*
X136456777Y-75965180D01*
X136045029Y-75964821D01*
X135664485Y-76122058D01*
X135373081Y-76412954D01*
X135215180Y-76793223D01*
X135214821Y-77204971D01*
X131435170Y-77204971D01*
X131435179Y-77195029D01*
X131277942Y-76814485D01*
X130987046Y-76523081D01*
X130606777Y-76365180D01*
X130195029Y-76364821D01*
X129814485Y-76522058D01*
X129523081Y-76812954D01*
X129365180Y-77193223D01*
X129364821Y-77604971D01*
X125834821Y-77604971D01*
X125835179Y-77195029D01*
X125677942Y-76814485D01*
X125387046Y-76523081D01*
X125006777Y-76365180D01*
X124595029Y-76364821D01*
X124214485Y-76522058D01*
X123923081Y-76812954D01*
X123765180Y-77193223D01*
X123764821Y-77604971D01*
X119934821Y-77604971D01*
X119935179Y-77195029D01*
X119777942Y-76814485D01*
X119487046Y-76523081D01*
X119106777Y-76365180D01*
X118695029Y-76364821D01*
X118314485Y-76522058D01*
X118023081Y-76812954D01*
X117865180Y-77193223D01*
X117864821Y-77604971D01*
X107920099Y-77604971D01*
X107985515Y-77577942D01*
X108276919Y-77287046D01*
X108434820Y-76906777D01*
X108435179Y-76495029D01*
X108277942Y-76114485D01*
X107987046Y-75823081D01*
X107606777Y-75665180D01*
X107195029Y-75664821D01*
X106814485Y-75822058D01*
X106523081Y-76112954D01*
X106365180Y-76493223D01*
X106364821Y-76904971D01*
X62477113Y-76904971D01*
X62402739Y-76725418D01*
X62083970Y-76565635D01*
X60749605Y-77900000D01*
X60390395Y-77900000D01*
X59056030Y-76565635D01*
X58737261Y-76725418D01*
X58427277Y-77516187D01*
X49558056Y-77516187D01*
X49556497Y-77434613D01*
X49262739Y-76725418D01*
X48943970Y-76565635D01*
X47609605Y-77900000D01*
X47250395Y-77900000D01*
X45916030Y-76565635D01*
X45597261Y-76725418D01*
X45287277Y-77516187D01*
X41127000Y-77516187D01*
X41127000Y-76386030D01*
X46095635Y-76386030D01*
X47430000Y-77720395D01*
X48764365Y-76386030D01*
X59235635Y-76386030D01*
X60570000Y-77720395D01*
X61904365Y-76386030D01*
X61744582Y-76067261D01*
X60953813Y-75757277D01*
X60104613Y-75773503D01*
X59395418Y-76067261D01*
X59235635Y-76386030D01*
X48764365Y-76386030D01*
X48604582Y-76067261D01*
X47813813Y-75757277D01*
X46964613Y-75773503D01*
X46255418Y-76067261D01*
X46095635Y-76386030D01*
X41127000Y-76386030D01*
X41127000Y-71127000D01*
X53000000Y-71127000D01*
X53049410Y-71116994D01*
X53091035Y-71088553D01*
X53118315Y-71046159D01*
X53127000Y-71000000D01*
X53127000Y-67934849D01*
X53504971Y-67935179D01*
X53885515Y-67777942D01*
X54176919Y-67487046D01*
X54334820Y-67106777D01*
X54335179Y-66695029D01*
X54177942Y-66314485D01*
X53887046Y-66023081D01*
X53735122Y-65959997D01*
X53735179Y-65895029D01*
X53577942Y-65514485D01*
X53287046Y-65223081D01*
X53127000Y-65156624D01*
X53127000Y-61127000D01*
X63873000Y-61127000D01*
X63873000Y-76000000D01*
X63883006Y-76049410D01*
X63911447Y-76091035D01*
X63953841Y-76118315D01*
X64000000Y-76127000D01*
X87000000Y-76127000D01*
X87049410Y-76116994D01*
X87091035Y-76088553D01*
X87118315Y-76046159D01*
X87127000Y-76000000D01*
X87127000Y-74104971D01*
X102564821Y-74104971D01*
X102722058Y-74485515D01*
X103012954Y-74776919D01*
X103393223Y-74934820D01*
X103804971Y-74935179D01*
X103887218Y-74901195D01*
X103922058Y-74985515D01*
X104212954Y-75276919D01*
X104593223Y-75434820D01*
X105004971Y-75435179D01*
X105078080Y-75404971D01*
X112564821Y-75404971D01*
X112722058Y-75785515D01*
X113012954Y-76076919D01*
X113393223Y-76234820D01*
X113804971Y-76235179D01*
X114185515Y-76077942D01*
X114476919Y-75787046D01*
X114634820Y-75406777D01*
X114635179Y-74995029D01*
X114477942Y-74614485D01*
X114368619Y-74504971D01*
X115414821Y-74504971D01*
X115572058Y-74885515D01*
X115862954Y-75176919D01*
X116243223Y-75334820D01*
X116654971Y-75335179D01*
X117035515Y-75177942D01*
X117308962Y-74904971D01*
X126564821Y-74904971D01*
X126722058Y-75285515D01*
X127012954Y-75576919D01*
X127393223Y-75734820D01*
X127804971Y-75735179D01*
X128185515Y-75577942D01*
X128476919Y-75287046D01*
X128634820Y-74906777D01*
X128635179Y-74495029D01*
X128477942Y-74114485D01*
X128187046Y-73823081D01*
X127806777Y-73665180D01*
X127395029Y-73664821D01*
X127014485Y-73822058D01*
X126723081Y-74112954D01*
X126565180Y-74493223D01*
X126564821Y-74904971D01*
X117308962Y-74904971D01*
X117326919Y-74887046D01*
X117484820Y-74506777D01*
X117485179Y-74095029D01*
X117327942Y-73714485D01*
X117037046Y-73423081D01*
X116656777Y-73265180D01*
X116245029Y-73264821D01*
X115864485Y-73422058D01*
X115573081Y-73712954D01*
X115415180Y-74093223D01*
X115414821Y-74504971D01*
X114368619Y-74504971D01*
X114187046Y-74323081D01*
X113806777Y-74165180D01*
X113395029Y-74164821D01*
X113014485Y-74322058D01*
X112723081Y-74612954D01*
X112565180Y-74993223D01*
X112564821Y-75404971D01*
X105078080Y-75404971D01*
X105385515Y-75277942D01*
X105676919Y-74987046D01*
X105741933Y-74830475D01*
X105993223Y-74934820D01*
X106404971Y-74935179D01*
X106785515Y-74777942D01*
X107064826Y-74499118D01*
X107064821Y-74504971D01*
X107222058Y-74885515D01*
X107512954Y-75176919D01*
X107893223Y-75334820D01*
X108304971Y-75335179D01*
X108685515Y-75177942D01*
X108976919Y-74887046D01*
X109134820Y-74506777D01*
X109135179Y-74095029D01*
X108977942Y-73714485D01*
X108687046Y-73423081D01*
X108306777Y-73265180D01*
X107895029Y-73264821D01*
X107514485Y-73422058D01*
X107235174Y-73700882D01*
X107235179Y-73695029D01*
X107077942Y-73314485D01*
X106787046Y-73023081D01*
X106406777Y-72865180D01*
X105995029Y-72864821D01*
X105614485Y-73022058D01*
X105323081Y-73312954D01*
X105258067Y-73469525D01*
X105006777Y-73365180D01*
X104595029Y-73364821D01*
X104512782Y-73398805D01*
X104477942Y-73314485D01*
X104187046Y-73023081D01*
X103806777Y-72865180D01*
X103395029Y-72864821D01*
X103014485Y-73022058D01*
X102723081Y-73312954D01*
X102565180Y-73693223D01*
X102564821Y-74104971D01*
X87127000Y-74104971D01*
X87127000Y-71136350D01*
X90007255Y-71136350D01*
X90099792Y-71398019D01*
X90691398Y-71616188D01*
X91321461Y-71591352D01*
X91788208Y-71398019D01*
X91880745Y-71136350D01*
X90944000Y-70199605D01*
X90007255Y-71136350D01*
X87127000Y-71136350D01*
X87127000Y-69767398D01*
X89347812Y-69767398D01*
X89372648Y-70397461D01*
X89565981Y-70864208D01*
X89827650Y-70956745D01*
X90764395Y-70020000D01*
X91123605Y-70020000D01*
X92060350Y-70956745D01*
X92148439Y-70925593D01*
X92584997Y-71362914D01*
X93167341Y-71604724D01*
X93797893Y-71605275D01*
X94380657Y-71364481D01*
X94754261Y-70991529D01*
X95124997Y-71362914D01*
X95707341Y-71604724D01*
X96337893Y-71605275D01*
X96920657Y-71364481D01*
X97294261Y-70991529D01*
X97664997Y-71362914D01*
X98247341Y-71604724D01*
X98877893Y-71605275D01*
X99460657Y-71364481D01*
X99834261Y-70991529D01*
X100204997Y-71362914D01*
X100787341Y-71604724D01*
X101417893Y-71605275D01*
X102000657Y-71364481D01*
X102374261Y-70991529D01*
X102744997Y-71362914D01*
X103327341Y-71604724D01*
X103957893Y-71605275D01*
X104540657Y-71364481D01*
X104914261Y-70991529D01*
X105284997Y-71362914D01*
X105867341Y-71604724D01*
X106497893Y-71605275D01*
X107080657Y-71364481D01*
X107454261Y-70991529D01*
X107824997Y-71362914D01*
X108407341Y-71604724D01*
X109037893Y-71605275D01*
X109620657Y-71364481D01*
X109994261Y-70991529D01*
X110364997Y-71362914D01*
X110947341Y-71604724D01*
X111577893Y-71605275D01*
X112160657Y-71364481D01*
X112534261Y-70991529D01*
X112904997Y-71362914D01*
X113487341Y-71604724D01*
X114117893Y-71605275D01*
X114700657Y-71364481D01*
X115074261Y-70991529D01*
X115444997Y-71362914D01*
X116027341Y-71604724D01*
X116657893Y-71605275D01*
X117240657Y-71364481D01*
X117614261Y-70991529D01*
X117984997Y-71362914D01*
X118567341Y-71604724D01*
X119197893Y-71605275D01*
X119780657Y-71364481D01*
X120154261Y-70991529D01*
X120524997Y-71362914D01*
X121107341Y-71604724D01*
X121737893Y-71605275D01*
X122320657Y-71364481D01*
X122694261Y-70991529D01*
X123064997Y-71362914D01*
X123424160Y-71512051D01*
X123323081Y-71612954D01*
X123165180Y-71993223D01*
X123164821Y-72404971D01*
X123230882Y-72564852D01*
X123195029Y-72564821D01*
X122814485Y-72722058D01*
X122710147Y-72826214D01*
X122710179Y-72790029D01*
X122552942Y-72409485D01*
X122262046Y-72118081D01*
X121881777Y-71960180D01*
X121470029Y-71959821D01*
X121089485Y-72117058D01*
X120798081Y-72407954D01*
X120640180Y-72788223D01*
X120639821Y-73199971D01*
X120797058Y-73580515D01*
X121087954Y-73871919D01*
X121468223Y-74029820D01*
X121879971Y-74030179D01*
X122260515Y-73872942D01*
X122364853Y-73768786D01*
X122364821Y-73804971D01*
X122522058Y-74185515D01*
X122812954Y-74476919D01*
X123193223Y-74634820D01*
X123604971Y-74635179D01*
X123985515Y-74477942D01*
X124276919Y-74187046D01*
X124434820Y-73806777D01*
X124435179Y-73395029D01*
X124369118Y-73235148D01*
X124404971Y-73235179D01*
X124785515Y-73077942D01*
X124848595Y-73014971D01*
X128094821Y-73014971D01*
X128252058Y-73395515D01*
X128542954Y-73686919D01*
X128923223Y-73844820D01*
X129334971Y-73845179D01*
X129715515Y-73687942D01*
X130006919Y-73397046D01*
X130164820Y-73016777D01*
X130165179Y-72605029D01*
X130007942Y-72224485D01*
X129717046Y-71933081D01*
X129336777Y-71775180D01*
X128925029Y-71774821D01*
X128544485Y-71932058D01*
X128253081Y-72222954D01*
X128095180Y-72603223D01*
X128094821Y-73014971D01*
X124848595Y-73014971D01*
X125076919Y-72787046D01*
X125234820Y-72406777D01*
X125235179Y-71995029D01*
X125077942Y-71614485D01*
X124837801Y-71373925D01*
X124860657Y-71364481D01*
X125306914Y-70919003D01*
X125548724Y-70336659D01*
X125549275Y-69706107D01*
X125308481Y-69123343D01*
X124863003Y-68677086D01*
X124280659Y-68435276D01*
X123650107Y-68434725D01*
X123067343Y-68675519D01*
X122693739Y-69048471D01*
X122323003Y-68677086D01*
X121740659Y-68435276D01*
X121528616Y-68435091D01*
X121676919Y-68287046D01*
X121794046Y-68004971D01*
X124964821Y-68004971D01*
X125122058Y-68385515D01*
X125412954Y-68676919D01*
X125793223Y-68834820D01*
X126204971Y-68835179D01*
X126278080Y-68804971D01*
X127064821Y-68804971D01*
X127222058Y-69185515D01*
X127512954Y-69476919D01*
X127893223Y-69634820D01*
X128304971Y-69635179D01*
X128468804Y-69567485D01*
X128323081Y-69712954D01*
X128165180Y-70093223D01*
X128164821Y-70504971D01*
X128322058Y-70885515D01*
X128612954Y-71176919D01*
X128993223Y-71334820D01*
X129404971Y-71335179D01*
X129720099Y-71204971D01*
X138764821Y-71204971D01*
X138922058Y-71585515D01*
X139212954Y-71876919D01*
X139593223Y-72034820D01*
X140004971Y-72035179D01*
X140385515Y-71877942D01*
X140676919Y-71587046D01*
X140834820Y-71206777D01*
X140835179Y-70795029D01*
X140677942Y-70414485D01*
X140387046Y-70123081D01*
X140006777Y-69965180D01*
X139595029Y-69964821D01*
X139214485Y-70122058D01*
X138923081Y-70412954D01*
X138765180Y-70793223D01*
X138764821Y-71204971D01*
X129720099Y-71204971D01*
X129785515Y-71177942D01*
X130076919Y-70887046D01*
X130234820Y-70506777D01*
X130235179Y-70095029D01*
X130077942Y-69714485D01*
X129787046Y-69423081D01*
X129406777Y-69265180D01*
X128995029Y-69264821D01*
X128831196Y-69332515D01*
X128976919Y-69187046D01*
X129134820Y-68806777D01*
X129135089Y-68498568D01*
X129412954Y-68776919D01*
X129793223Y-68934820D01*
X130204971Y-68935179D01*
X130585515Y-68777942D01*
X130876919Y-68487046D01*
X131034820Y-68106777D01*
X131035179Y-67695029D01*
X130877942Y-67314485D01*
X130587046Y-67023081D01*
X130543433Y-67004971D01*
X132464821Y-67004971D01*
X132622058Y-67385515D01*
X132912954Y-67676919D01*
X133293223Y-67834820D01*
X133704971Y-67835179D01*
X134085515Y-67677942D01*
X134376919Y-67387046D01*
X134534820Y-67006777D01*
X134535179Y-66595029D01*
X134377942Y-66214485D01*
X134087046Y-65923081D01*
X133706777Y-65765180D01*
X133295029Y-65764821D01*
X132914485Y-65922058D01*
X132623081Y-66212954D01*
X132465180Y-66593223D01*
X132464821Y-67004971D01*
X130543433Y-67004971D01*
X130206777Y-66865180D01*
X129795029Y-66864821D01*
X129414485Y-67022058D01*
X129123081Y-67312954D01*
X128965180Y-67693223D01*
X128964911Y-68001432D01*
X128687046Y-67723081D01*
X128306777Y-67565180D01*
X127895029Y-67564821D01*
X127514485Y-67722058D01*
X127223081Y-68012954D01*
X127065180Y-68393223D01*
X127064821Y-68804971D01*
X126278080Y-68804971D01*
X126585515Y-68677942D01*
X126876919Y-68387046D01*
X127034820Y-68006777D01*
X127035179Y-67595029D01*
X126877942Y-67214485D01*
X126587046Y-66923081D01*
X126206777Y-66765180D01*
X125795029Y-66764821D01*
X125414485Y-66922058D01*
X125123081Y-67212954D01*
X124965180Y-67593223D01*
X124964821Y-68004971D01*
X121794046Y-68004971D01*
X121834820Y-67906777D01*
X121835179Y-67495029D01*
X121677942Y-67114485D01*
X121387046Y-66823081D01*
X121006777Y-66665180D01*
X120595029Y-66664821D01*
X120214485Y-66822058D01*
X119923081Y-67112954D01*
X119765180Y-67493223D01*
X119764821Y-67904971D01*
X119922058Y-68285515D01*
X120212954Y-68576919D01*
X120504743Y-68698080D01*
X120153739Y-69048471D01*
X119783003Y-68677086D01*
X119220272Y-68443420D01*
X119376919Y-68287046D01*
X119534820Y-67906777D01*
X119535179Y-67495029D01*
X119377942Y-67114485D01*
X119087046Y-66823081D01*
X118706777Y-66665180D01*
X118295029Y-66664821D01*
X117914485Y-66822058D01*
X117623081Y-67112954D01*
X117465180Y-67493223D01*
X117464821Y-67904971D01*
X117622058Y-68285515D01*
X117912954Y-68576919D01*
X118069077Y-68641747D01*
X117987343Y-68675519D01*
X117613739Y-69048471D01*
X117243003Y-68677086D01*
X116774435Y-68482520D01*
X116785515Y-68477942D01*
X117076919Y-68187046D01*
X117234820Y-67806777D01*
X117235179Y-67395029D01*
X117077942Y-67014485D01*
X116787046Y-66723081D01*
X116406777Y-66565180D01*
X115995029Y-66564821D01*
X115614485Y-66722058D01*
X115607790Y-66728742D01*
X115477942Y-66414485D01*
X115187046Y-66123081D01*
X114806777Y-65965180D01*
X114395029Y-65964821D01*
X114014485Y-66122058D01*
X113723081Y-66412954D01*
X113565180Y-66793223D01*
X113564821Y-67204971D01*
X113722058Y-67585515D01*
X114012954Y-67876919D01*
X114164878Y-67940003D01*
X114164821Y-68004971D01*
X114322058Y-68385515D01*
X114549486Y-68613340D01*
X114120659Y-68435276D01*
X113490107Y-68434725D01*
X112907343Y-68675519D01*
X112533739Y-69048471D01*
X112163003Y-68677086D01*
X111580659Y-68435276D01*
X110950107Y-68434725D01*
X110367343Y-68675519D01*
X109993739Y-69048471D01*
X109623003Y-68677086D01*
X109040659Y-68435276D01*
X108529053Y-68434829D01*
X108576919Y-68387046D01*
X108734820Y-68006777D01*
X108735179Y-67595029D01*
X108577942Y-67214485D01*
X108287046Y-66923081D01*
X107906777Y-66765180D01*
X107495029Y-66764821D01*
X107114485Y-66922058D01*
X106823081Y-67212954D01*
X106665180Y-67593223D01*
X106664821Y-68004971D01*
X106822058Y-68385515D01*
X107112954Y-68676919D01*
X107493223Y-68834820D01*
X107667611Y-68834972D01*
X107453739Y-69048471D01*
X107083003Y-68677086D01*
X106500659Y-68435276D01*
X105870107Y-68434725D01*
X105287343Y-68675519D01*
X104913739Y-69048471D01*
X104543003Y-68677086D01*
X103960659Y-68435276D01*
X103330107Y-68434725D01*
X102747343Y-68675519D01*
X102373739Y-69048471D01*
X102003003Y-68677086D01*
X101420659Y-68435276D01*
X100790107Y-68434725D01*
X100207343Y-68675519D01*
X99833739Y-69048471D01*
X99463003Y-68677086D01*
X98880659Y-68435276D01*
X98250107Y-68434725D01*
X97667343Y-68675519D01*
X97293739Y-69048471D01*
X96923003Y-68677086D01*
X96340659Y-68435276D01*
X95710107Y-68434725D01*
X95127343Y-68675519D01*
X94753739Y-69048471D01*
X94383003Y-68677086D01*
X93800659Y-68435276D01*
X93170107Y-68434725D01*
X92587343Y-68675519D01*
X92147884Y-69114211D01*
X92060350Y-69083255D01*
X91123605Y-70020000D01*
X90764395Y-70020000D01*
X89827650Y-69083255D01*
X89565981Y-69175792D01*
X89347812Y-69767398D01*
X87127000Y-69767398D01*
X87127000Y-68903650D01*
X90007255Y-68903650D01*
X90944000Y-69840395D01*
X91880745Y-68903650D01*
X91788208Y-68641981D01*
X91196602Y-68423812D01*
X90566539Y-68448648D01*
X90099792Y-68641981D01*
X90007255Y-68903650D01*
X87127000Y-68903650D01*
X87127000Y-65127000D01*
X116000000Y-65127000D01*
X116049410Y-65116994D01*
X116091035Y-65088553D01*
X116118315Y-65046159D01*
X116127000Y-65000000D01*
X116127000Y-63704971D01*
X120364821Y-63704971D01*
X120522058Y-64085515D01*
X120812954Y-64376919D01*
X121193223Y-64534820D01*
X121604971Y-64535179D01*
X121985515Y-64377942D01*
X122276919Y-64087046D01*
X122434820Y-63706777D01*
X122435083Y-63404971D01*
X128064821Y-63404971D01*
X128222058Y-63785515D01*
X128512954Y-64076919D01*
X128893223Y-64234820D01*
X129304971Y-64235179D01*
X129685515Y-64077942D01*
X129976919Y-63787046D01*
X130134820Y-63406777D01*
X130135179Y-62995029D01*
X129977942Y-62614485D01*
X129687046Y-62323081D01*
X129306777Y-62165180D01*
X128895029Y-62164821D01*
X128514485Y-62322058D01*
X128223081Y-62612954D01*
X128065180Y-62993223D01*
X128064821Y-63404971D01*
X122435083Y-63404971D01*
X122435179Y-63295029D01*
X122277942Y-62914485D01*
X121987046Y-62623081D01*
X121606777Y-62465180D01*
X121195029Y-62464821D01*
X120814485Y-62622058D01*
X120523081Y-62912954D01*
X120365180Y-63293223D01*
X120364821Y-63704971D01*
X116127000Y-63704971D01*
X116127000Y-61804971D01*
X124264821Y-61804971D01*
X124422058Y-62185515D01*
X124712954Y-62476919D01*
X125093223Y-62634820D01*
X125504971Y-62635179D01*
X125885515Y-62477942D01*
X126176919Y-62187046D01*
X126334820Y-61806777D01*
X126335179Y-61395029D01*
X126177942Y-61014485D01*
X126168445Y-61004971D01*
X138564821Y-61004971D01*
X138722058Y-61385515D01*
X139012954Y-61676919D01*
X139393223Y-61834820D01*
X139804971Y-61835179D01*
X140185515Y-61677942D01*
X140476919Y-61387046D01*
X140634820Y-61006777D01*
X140635179Y-60595029D01*
X140515330Y-60304971D01*
X141664821Y-60304971D01*
X141822058Y-60685515D01*
X142112954Y-60976919D01*
X142493223Y-61134820D01*
X142904971Y-61135179D01*
X143285515Y-60977942D01*
X143576919Y-60687046D01*
X143734820Y-60306777D01*
X143735179Y-59895029D01*
X143577942Y-59514485D01*
X143287046Y-59223081D01*
X142906777Y-59065180D01*
X142495029Y-59064821D01*
X142114485Y-59222058D01*
X141823081Y-59512954D01*
X141665180Y-59893223D01*
X141664821Y-60304971D01*
X140515330Y-60304971D01*
X140477942Y-60214485D01*
X140454327Y-60190829D01*
X140485515Y-60177942D01*
X140776919Y-59887046D01*
X140934820Y-59506777D01*
X140935179Y-59095029D01*
X140777942Y-58714485D01*
X140487046Y-58423081D01*
X140106777Y-58265180D01*
X139695029Y-58264821D01*
X139314485Y-58422058D01*
X139023081Y-58712954D01*
X138865180Y-59093223D01*
X138864821Y-59504971D01*
X139022058Y-59885515D01*
X139045673Y-59909171D01*
X139014485Y-59922058D01*
X138723081Y-60212954D01*
X138565180Y-60593223D01*
X138564821Y-61004971D01*
X126168445Y-61004971D01*
X125887046Y-60723081D01*
X125506777Y-60565180D01*
X125095029Y-60564821D01*
X124714485Y-60722058D01*
X124423081Y-61012954D01*
X124265180Y-61393223D01*
X124264821Y-61804971D01*
X116127000Y-61804971D01*
X116127000Y-59504971D01*
X136564821Y-59504971D01*
X136722058Y-59885515D01*
X137012954Y-60176919D01*
X137393223Y-60334820D01*
X137804971Y-60335179D01*
X138185515Y-60177942D01*
X138476919Y-59887046D01*
X138634820Y-59506777D01*
X138635179Y-59095029D01*
X138477942Y-58714485D01*
X138187046Y-58423081D01*
X137806777Y-58265180D01*
X137395029Y-58264821D01*
X137014485Y-58422058D01*
X136723081Y-58712954D01*
X136565180Y-59093223D01*
X136564821Y-59504971D01*
X116127000Y-59504971D01*
X116127000Y-58354971D01*
X122964821Y-58354971D01*
X123122058Y-58735515D01*
X123412954Y-59026919D01*
X123793223Y-59184820D01*
X124204971Y-59185179D01*
X124585515Y-59027942D01*
X124876919Y-58737046D01*
X125034820Y-58356777D01*
X125035179Y-57945029D01*
X124877942Y-57564485D01*
X124587046Y-57273081D01*
X124206777Y-57115180D01*
X123795029Y-57114821D01*
X123414485Y-57272058D01*
X123123081Y-57562954D01*
X122965180Y-57943223D01*
X122964821Y-58354971D01*
X116127000Y-58354971D01*
X116127000Y-57435024D01*
X116304971Y-57435179D01*
X116685515Y-57277942D01*
X116900032Y-57063799D01*
X117012954Y-57176919D01*
X117393223Y-57334820D01*
X117804971Y-57335179D01*
X118185515Y-57177942D01*
X118476919Y-56887046D01*
X118634820Y-56506777D01*
X118634944Y-56364783D01*
X119064943Y-56365159D01*
X119064821Y-56504971D01*
X119222058Y-56885515D01*
X119512954Y-57176919D01*
X119893223Y-57334820D01*
X120304971Y-57335179D01*
X120685515Y-57177942D01*
X120976919Y-56887046D01*
X121134820Y-56506777D01*
X121134944Y-56364748D01*
X121664943Y-56365211D01*
X121664821Y-56504971D01*
X121822058Y-56885515D01*
X122112954Y-57176919D01*
X122493223Y-57334820D01*
X122904971Y-57335179D01*
X123285515Y-57177942D01*
X123576919Y-56887046D01*
X123734820Y-56506777D01*
X123734944Y-56364801D01*
X124277893Y-56365275D01*
X124860657Y-56124481D01*
X125306914Y-55679003D01*
X125548724Y-55096659D01*
X125549275Y-54466107D01*
X125308481Y-53883343D01*
X124863003Y-53437086D01*
X124280659Y-53195276D01*
X123650107Y-53194725D01*
X123067343Y-53435519D01*
X122693739Y-53808471D01*
X122323003Y-53437086D01*
X121740659Y-53195276D01*
X121110107Y-53194725D01*
X120527343Y-53435519D01*
X120153739Y-53808471D01*
X119783003Y-53437086D01*
X119200659Y-53195276D01*
X118570107Y-53194725D01*
X117987343Y-53435519D01*
X117613739Y-53808471D01*
X117243003Y-53437086D01*
X116660659Y-53195276D01*
X116127000Y-53194810D01*
X116127000Y-51104971D01*
X128664821Y-51104971D01*
X128822058Y-51485515D01*
X129112954Y-51776919D01*
X129493223Y-51934820D01*
X129904971Y-51935179D01*
X130285515Y-51777942D01*
X130576919Y-51487046D01*
X130734820Y-51106777D01*
X130735179Y-50695029D01*
X130577942Y-50314485D01*
X130287046Y-50023081D01*
X129906777Y-49865180D01*
X129495029Y-49864821D01*
X129114485Y-50022058D01*
X128823081Y-50312954D01*
X128665180Y-50693223D01*
X128664821Y-51104971D01*
X116127000Y-51104971D01*
X116127000Y-50200000D01*
X116116994Y-50150590D01*
X116088553Y-50108965D01*
X116046159Y-50081685D01*
X116000000Y-50073000D01*
X114000000Y-50073000D01*
X113950590Y-50083006D01*
X113908965Y-50111447D01*
X113881685Y-50153841D01*
X113873000Y-50200000D01*
X113873000Y-53195060D01*
X113490107Y-53194725D01*
X112907343Y-53435519D01*
X112533739Y-53808471D01*
X112163003Y-53437086D01*
X111580659Y-53195276D01*
X110950107Y-53194725D01*
X110367343Y-53435519D01*
X109993739Y-53808471D01*
X109623003Y-53437086D01*
X109040659Y-53195276D01*
X108410107Y-53194725D01*
X107827343Y-53435519D01*
X107453739Y-53808471D01*
X107083003Y-53437086D01*
X106500659Y-53195276D01*
X105870107Y-53194725D01*
X105491885Y-53351004D01*
X105634820Y-53006777D01*
X105635179Y-52595029D01*
X105477942Y-52214485D01*
X105187046Y-51923081D01*
X104806777Y-51765180D01*
X104395029Y-51764821D01*
X104014485Y-51922058D01*
X103723081Y-52212954D01*
X103565180Y-52593223D01*
X103564821Y-53004971D01*
X103643339Y-53194999D01*
X103330107Y-53194725D01*
X102747343Y-53435519D01*
X102373739Y-53808471D01*
X102164615Y-53598980D01*
X102376919Y-53387046D01*
X102534820Y-53006777D01*
X102535179Y-52595029D01*
X102377942Y-52214485D01*
X102087046Y-51923081D01*
X101706777Y-51765180D01*
X101295029Y-51764821D01*
X100914485Y-51922058D01*
X100623081Y-52212954D01*
X100465180Y-52593223D01*
X100464821Y-53004971D01*
X100579228Y-53281859D01*
X100207343Y-53435519D01*
X99833739Y-53808471D01*
X99463003Y-53437086D01*
X98880659Y-53195276D01*
X98818729Y-53195222D01*
X98826919Y-53187046D01*
X98984820Y-52806777D01*
X98985179Y-52395029D01*
X98827942Y-52014485D01*
X98537046Y-51723081D01*
X98252605Y-51604971D01*
X108564821Y-51604971D01*
X108722058Y-51985515D01*
X109012954Y-52276919D01*
X109393223Y-52434820D01*
X109804971Y-52435179D01*
X110185515Y-52277942D01*
X110249857Y-52213712D01*
X110312954Y-52276919D01*
X110693223Y-52434820D01*
X111104971Y-52435179D01*
X111485515Y-52277942D01*
X111776919Y-51987046D01*
X111934820Y-51606777D01*
X111935179Y-51195029D01*
X111777942Y-50814485D01*
X111487046Y-50523081D01*
X111106777Y-50365180D01*
X110695029Y-50364821D01*
X110314485Y-50522058D01*
X110250143Y-50586288D01*
X110187046Y-50523081D01*
X109806777Y-50365180D01*
X109395029Y-50364821D01*
X109014485Y-50522058D01*
X108723081Y-50812954D01*
X108565180Y-51193223D01*
X108564821Y-51604971D01*
X98252605Y-51604971D01*
X98156777Y-51565180D01*
X97745029Y-51564821D01*
X97364485Y-51722058D01*
X97073081Y-52012954D01*
X96915180Y-52393223D01*
X96914821Y-52804971D01*
X97072058Y-53185515D01*
X97362954Y-53476919D01*
X97548635Y-53554020D01*
X97293739Y-53808471D01*
X96923003Y-53437086D01*
X96340659Y-53195276D01*
X95710107Y-53194725D01*
X95127343Y-53435519D01*
X94753739Y-53808471D01*
X94383003Y-53437086D01*
X93800659Y-53195276D01*
X93170107Y-53194725D01*
X92587343Y-53435519D01*
X92213739Y-53808471D01*
X91843003Y-53437086D01*
X91260659Y-53195276D01*
X90630107Y-53194725D01*
X90047343Y-53435519D01*
X89601086Y-53880997D01*
X89359276Y-54463341D01*
X89358725Y-55093893D01*
X89599519Y-55676657D01*
X90044997Y-56122914D01*
X90627341Y-56364724D01*
X91257893Y-56365275D01*
X91840657Y-56124481D01*
X92214261Y-55751529D01*
X92584997Y-56122914D01*
X93167341Y-56364724D01*
X93797893Y-56365275D01*
X94380657Y-56124481D01*
X94754261Y-55751529D01*
X95124997Y-56122914D01*
X95707341Y-56364724D01*
X96337893Y-56365275D01*
X96920657Y-56124481D01*
X97294261Y-55751529D01*
X97592471Y-56050261D01*
X97221086Y-56420997D01*
X96979276Y-57003341D01*
X96978725Y-57633893D01*
X97219519Y-58216657D01*
X97664997Y-58662914D01*
X98247341Y-58904724D01*
X98877893Y-58905275D01*
X99460657Y-58664481D01*
X99834261Y-58291529D01*
X100204997Y-58662914D01*
X100787341Y-58904724D01*
X101417893Y-58905275D01*
X102000657Y-58664481D01*
X102374261Y-58291529D01*
X102744997Y-58662914D01*
X103327341Y-58904724D01*
X103957893Y-58905275D01*
X104540657Y-58664481D01*
X104986914Y-58219003D01*
X105228724Y-57636659D01*
X105229275Y-57006107D01*
X104988481Y-56423343D01*
X104615529Y-56049739D01*
X104914261Y-55751529D01*
X105284997Y-56122914D01*
X105867341Y-56364724D01*
X106497893Y-56365275D01*
X107080657Y-56124481D01*
X107454261Y-55751529D01*
X107824997Y-56122914D01*
X108407341Y-56364724D01*
X109037893Y-56365275D01*
X109620657Y-56124481D01*
X109994261Y-55751529D01*
X110364997Y-56122914D01*
X110947341Y-56364724D01*
X111577893Y-56365275D01*
X111965170Y-56205255D01*
X111964821Y-56604971D01*
X112122058Y-56985515D01*
X112412954Y-57276919D01*
X112793223Y-57434820D01*
X113204971Y-57435179D01*
X113585515Y-57277942D01*
X113850206Y-57013712D01*
X113873000Y-57036546D01*
X113873000Y-62873000D01*
X85000000Y-62873000D01*
X84950590Y-62883006D01*
X84908965Y-62911447D01*
X84881685Y-62953841D01*
X84873000Y-63000000D01*
X84873000Y-73873000D01*
X66127000Y-73873000D01*
X66127000Y-65552263D01*
X66265585Y-65759670D01*
X66751766Y-66084526D01*
X67325255Y-66198600D01*
X67694745Y-66198600D01*
X68268234Y-66084526D01*
X68653233Y-65827278D01*
X68616887Y-66010000D01*
X68726120Y-66559151D01*
X69037189Y-67024698D01*
X69419275Y-67280000D01*
X69037189Y-67535302D01*
X68726120Y-68000849D01*
X68616887Y-68550000D01*
X68726120Y-69099151D01*
X69037189Y-69564698D01*
X69419275Y-69820000D01*
X69037189Y-70075302D01*
X68726120Y-70540849D01*
X68616887Y-71090000D01*
X68726120Y-71639151D01*
X69037189Y-72104698D01*
X69502736Y-72415767D01*
X70051887Y-72525000D01*
X70108113Y-72525000D01*
X70657264Y-72415767D01*
X71122811Y-72104698D01*
X71433880Y-71639151D01*
X71543113Y-71090000D01*
X71433880Y-70540849D01*
X71122811Y-70075302D01*
X70740725Y-69820000D01*
X71122811Y-69564698D01*
X71433880Y-69099151D01*
X71543113Y-68550000D01*
X71433880Y-68000849D01*
X71122811Y-67535302D01*
X70740725Y-67280000D01*
X71122811Y-67024698D01*
X71433880Y-66559151D01*
X71543113Y-66010000D01*
X71433880Y-65460849D01*
X71122811Y-64995302D01*
X70718297Y-64725014D01*
X70935134Y-64622389D01*
X71311041Y-64207423D01*
X71471904Y-63819039D01*
X71349915Y-63597000D01*
X70207000Y-63597000D01*
X70207000Y-63617000D01*
X69953000Y-63617000D01*
X69953000Y-63597000D01*
X68810085Y-63597000D01*
X68771901Y-63666500D01*
X68754415Y-63640330D01*
X68439634Y-63430000D01*
X68745573Y-63225578D01*
X68810085Y-63343000D01*
X69953000Y-63343000D01*
X69953000Y-63323000D01*
X70207000Y-63323000D01*
X70207000Y-63343000D01*
X71349915Y-63343000D01*
X71471904Y-63120961D01*
X71311041Y-62732577D01*
X70935134Y-62317611D01*
X70718297Y-62214986D01*
X71122811Y-61944698D01*
X71186119Y-61849950D01*
X71262954Y-61926919D01*
X71643223Y-62084820D01*
X72054971Y-62085179D01*
X72435515Y-61927942D01*
X72726919Y-61637046D01*
X72884820Y-61256777D01*
X72885179Y-60845029D01*
X72727942Y-60464485D01*
X72437046Y-60173081D01*
X72056777Y-60015180D01*
X71645029Y-60014821D01*
X71287904Y-60162381D01*
X71122811Y-59915302D01*
X70740725Y-59660000D01*
X71122811Y-59404698D01*
X71433880Y-58939151D01*
X71543113Y-58390000D01*
X71433880Y-57840849D01*
X71122811Y-57375302D01*
X70740725Y-57120000D01*
X71122811Y-56864698D01*
X71433880Y-56399151D01*
X71543113Y-55850000D01*
X76236887Y-55850000D01*
X76346120Y-56399151D01*
X76657189Y-56864698D01*
X77039275Y-57120000D01*
X76657189Y-57375302D01*
X76346120Y-57840849D01*
X76236887Y-58390000D01*
X76346120Y-58939151D01*
X76657189Y-59404698D01*
X77039275Y-59660000D01*
X76657189Y-59915302D01*
X76346120Y-60380849D01*
X76236887Y-60930000D01*
X76346120Y-61479151D01*
X76657189Y-61944698D01*
X77039275Y-62200000D01*
X76657189Y-62455302D01*
X76346120Y-62920849D01*
X76236887Y-63470000D01*
X76346120Y-64019151D01*
X76657189Y-64484698D01*
X77039275Y-64740000D01*
X76657189Y-64995302D01*
X76346120Y-65460849D01*
X76236887Y-66010000D01*
X76346120Y-66559151D01*
X76657189Y-67024698D01*
X77039275Y-67280000D01*
X76657189Y-67535302D01*
X76346120Y-68000849D01*
X76236887Y-68550000D01*
X76346120Y-69099151D01*
X76657189Y-69564698D01*
X77039275Y-69820000D01*
X76657189Y-70075302D01*
X76346120Y-70540849D01*
X76236887Y-71090000D01*
X76346120Y-71639151D01*
X76657189Y-72104698D01*
X77122736Y-72415767D01*
X77671887Y-72525000D01*
X77728113Y-72525000D01*
X78277264Y-72415767D01*
X78742811Y-72104698D01*
X79053880Y-71639151D01*
X79163113Y-71090000D01*
X79053880Y-70540849D01*
X78742811Y-70075302D01*
X78360725Y-69820000D01*
X78742811Y-69564698D01*
X79053880Y-69099151D01*
X79163113Y-68550000D01*
X79053880Y-68000849D01*
X78742811Y-67535302D01*
X78360725Y-67280000D01*
X78742811Y-67024698D01*
X79053880Y-66559151D01*
X79163113Y-66010000D01*
X79135964Y-65873514D01*
X79451766Y-66084526D01*
X80025255Y-66198600D01*
X80394745Y-66198600D01*
X80968234Y-66084526D01*
X81454415Y-65759670D01*
X81779271Y-65273489D01*
X81893345Y-64700000D01*
X81779271Y-64126511D01*
X81454415Y-63640330D01*
X81139634Y-63430000D01*
X81454415Y-63219670D01*
X81779271Y-62733489D01*
X81893345Y-62160000D01*
X81802835Y-61704971D01*
X84964821Y-61704971D01*
X85122058Y-62085515D01*
X85412954Y-62376919D01*
X85793223Y-62534820D01*
X86204971Y-62535179D01*
X86585515Y-62377942D01*
X86876919Y-62087046D01*
X87034820Y-61706777D01*
X87035179Y-61295029D01*
X86877942Y-60914485D01*
X86587046Y-60623081D01*
X86206777Y-60465180D01*
X85795029Y-60464821D01*
X85414485Y-60622058D01*
X85123081Y-60912954D01*
X84965180Y-61293223D01*
X84964821Y-61704971D01*
X81802835Y-61704971D01*
X81779271Y-61586511D01*
X81454415Y-61100330D01*
X81139634Y-60890000D01*
X81454415Y-60679670D01*
X81779271Y-60193489D01*
X81893345Y-59620000D01*
X81779271Y-59046511D01*
X81454415Y-58560330D01*
X81440087Y-58550757D01*
X81461317Y-58546762D01*
X81677441Y-58407690D01*
X81822431Y-58195490D01*
X81873440Y-57943600D01*
X81873440Y-56216400D01*
X81829162Y-55981083D01*
X81690090Y-55764959D01*
X81477890Y-55619969D01*
X81226000Y-55568960D01*
X80584429Y-55568960D01*
X80734820Y-55206777D01*
X80735179Y-54795029D01*
X80577942Y-54414485D01*
X80287046Y-54123081D01*
X79906777Y-53965180D01*
X79495029Y-53964821D01*
X79114485Y-54122058D01*
X78823081Y-54412954D01*
X78668363Y-54785557D01*
X78277264Y-54524233D01*
X77728113Y-54415000D01*
X77671887Y-54415000D01*
X77122736Y-54524233D01*
X76657189Y-54835302D01*
X76346120Y-55300849D01*
X76236887Y-55850000D01*
X71543113Y-55850000D01*
X71433880Y-55300849D01*
X71122811Y-54835302D01*
X70657264Y-54524233D01*
X70108113Y-54415000D01*
X70051887Y-54415000D01*
X69502736Y-54524233D01*
X69037189Y-54835302D01*
X68726120Y-55300849D01*
X68667106Y-55597535D01*
X68526000Y-55568960D01*
X66494000Y-55568960D01*
X66258683Y-55613238D01*
X66127000Y-55697974D01*
X66127000Y-51254971D01*
X71264821Y-51254971D01*
X71422058Y-51635515D01*
X71712954Y-51926919D01*
X72093223Y-52084820D01*
X72504971Y-52085179D01*
X72885515Y-51927942D01*
X73158962Y-51654971D01*
X80764821Y-51654971D01*
X80922058Y-52035515D01*
X81212954Y-52326919D01*
X81593223Y-52484820D01*
X82004971Y-52485179D01*
X82385515Y-52327942D01*
X82676919Y-52037046D01*
X82834820Y-51656777D01*
X82835179Y-51245029D01*
X82677942Y-50864485D01*
X82387046Y-50573081D01*
X82006777Y-50415180D01*
X81595029Y-50414821D01*
X81214485Y-50572058D01*
X80923081Y-50862954D01*
X80765180Y-51243223D01*
X80764821Y-51654971D01*
X73158962Y-51654971D01*
X73176919Y-51637046D01*
X73334820Y-51256777D01*
X73335179Y-50845029D01*
X73177942Y-50464485D01*
X72887046Y-50173081D01*
X72506777Y-50015180D01*
X72095029Y-50014821D01*
X71714485Y-50172058D01*
X71423081Y-50462954D01*
X71265180Y-50843223D01*
X71264821Y-51254971D01*
X66127000Y-51254971D01*
X66127000Y-47627000D01*
X111144544Y-47627000D01*
X110914485Y-47722058D01*
X110623081Y-48012954D01*
X110465180Y-48393223D01*
X110464821Y-48804971D01*
X110622058Y-49185515D01*
X110912954Y-49476919D01*
X111293223Y-49634820D01*
X111704971Y-49635179D01*
X112085515Y-49477942D01*
X112376919Y-49187046D01*
X112427226Y-49065892D01*
X112593223Y-49134820D01*
X113004971Y-49135179D01*
X113385515Y-48977942D01*
X113676919Y-48687046D01*
X113810655Y-48364971D01*
X121614821Y-48364971D01*
X121772058Y-48745515D01*
X122062954Y-49036919D01*
X122443223Y-49194820D01*
X122854971Y-49195179D01*
X123235515Y-49037942D01*
X123526919Y-48747046D01*
X123652351Y-48444971D01*
X129964821Y-48444971D01*
X130122058Y-48825515D01*
X130412954Y-49116919D01*
X130793223Y-49274820D01*
X131204971Y-49275179D01*
X131585515Y-49117942D01*
X131876919Y-48827046D01*
X131927608Y-48704971D01*
X134764821Y-48704971D01*
X134922058Y-49085515D01*
X135212954Y-49376919D01*
X135593223Y-49534820D01*
X136004971Y-49535179D01*
X136385515Y-49377942D01*
X136676919Y-49087046D01*
X136834820Y-48706777D01*
X136834995Y-48504971D01*
X138164821Y-48504971D01*
X138322058Y-48885515D01*
X138612954Y-49176919D01*
X138993223Y-49334820D01*
X139404971Y-49335179D01*
X139785515Y-49177942D01*
X140076919Y-48887046D01*
X140234820Y-48506777D01*
X140235179Y-48095029D01*
X140077942Y-47714485D01*
X139787046Y-47423081D01*
X139406777Y-47265180D01*
X138995029Y-47264821D01*
X138614485Y-47422058D01*
X138323081Y-47712954D01*
X138165180Y-48093223D01*
X138164821Y-48504971D01*
X136834995Y-48504971D01*
X136835179Y-48295029D01*
X136677942Y-47914485D01*
X136387046Y-47623081D01*
X136006777Y-47465180D01*
X135595029Y-47464821D01*
X135214485Y-47622058D01*
X134923081Y-47912954D01*
X134765180Y-48293223D01*
X134764821Y-48704971D01*
X131927608Y-48704971D01*
X132034820Y-48446777D01*
X132035179Y-48035029D01*
X131877942Y-47654485D01*
X131587046Y-47363081D01*
X131206777Y-47205180D01*
X130795029Y-47204821D01*
X130414485Y-47362058D01*
X130123081Y-47652954D01*
X129965180Y-48033223D01*
X129964821Y-48444971D01*
X123652351Y-48444971D01*
X123684820Y-48366777D01*
X123685179Y-47955029D01*
X123527942Y-47574485D01*
X123237046Y-47283081D01*
X122856777Y-47125180D01*
X122445029Y-47124821D01*
X122064485Y-47282058D01*
X121773081Y-47572954D01*
X121615180Y-47953223D01*
X121614821Y-48364971D01*
X113810655Y-48364971D01*
X113834820Y-48306777D01*
X113835179Y-47895029D01*
X113724432Y-47627000D01*
X116000000Y-47627000D01*
X116049410Y-47616994D01*
X116091035Y-47588553D01*
X116118315Y-47546159D01*
X116127000Y-47500000D01*
X116127000Y-43685000D01*
X124000000Y-43685000D01*
X124262138Y-43632857D01*
X124484368Y-43484368D01*
X124632857Y-43262138D01*
X124659738Y-43127000D01*
X144373000Y-43127000D01*
X144373000Y-51367249D01*
X144373000Y-51367249D01*
G37*
X144373000Y-51367249D02*
X144006777Y-51215180D01*
X143595029Y-51214821D01*
X143214485Y-51372058D01*
X142923081Y-51662954D01*
X142765180Y-52043223D01*
X142764821Y-52454971D01*
X142922058Y-52835515D01*
X143212954Y-53126919D01*
X143593223Y-53284820D01*
X144004971Y-53285179D01*
X144373000Y-53133113D01*
X144373000Y-70097880D01*
X144314485Y-70122058D01*
X144023081Y-70412954D01*
X143865180Y-70793223D01*
X143864821Y-71204971D01*
X144022058Y-71585515D01*
X144312954Y-71876919D01*
X144373000Y-71901852D01*
X144373000Y-90264976D01*
X144195029Y-90264821D01*
X143814485Y-90422058D01*
X143523081Y-90712954D01*
X143365180Y-91093223D01*
X143364821Y-91504971D01*
X143502769Y-91838831D01*
X143487046Y-91823081D01*
X143106777Y-91665180D01*
X142695029Y-91664821D01*
X142613721Y-91698417D01*
X142734820Y-91406777D01*
X142735179Y-90995029D01*
X142577942Y-90614485D01*
X142287046Y-90323081D01*
X141906777Y-90165180D01*
X141495029Y-90164821D01*
X141114485Y-90322058D01*
X140823081Y-90612954D01*
X140665180Y-90993223D01*
X140664821Y-91404971D01*
X140822058Y-91785515D01*
X141112954Y-92076919D01*
X141344343Y-92173000D01*
X130700000Y-92173000D01*
X130650590Y-92183006D01*
X130608965Y-92211447D01*
X130581685Y-92253841D01*
X130573000Y-92300000D01*
X130573000Y-104300000D01*
X130583006Y-104349410D01*
X130611447Y-104391035D01*
X130653841Y-104418315D01*
X130700000Y-104427000D01*
X142800000Y-104427000D01*
X142849410Y-104416994D01*
X142891035Y-104388553D01*
X142918315Y-104346159D01*
X142927000Y-104300000D01*
X142927000Y-93735024D01*
X143104971Y-93735179D01*
X143485515Y-93577942D01*
X143776919Y-93287046D01*
X143934820Y-92906777D01*
X143935179Y-92495029D01*
X143797231Y-92161169D01*
X143812954Y-92176919D01*
X144193223Y-92334820D01*
X144373000Y-92334977D01*
X144373000Y-95865151D01*
X143995029Y-95864821D01*
X143614485Y-96022058D01*
X143323081Y-96312954D01*
X143165180Y-96693223D01*
X143164821Y-97104971D01*
X143322058Y-97485515D01*
X143436288Y-97599944D01*
X143323081Y-97712954D01*
X143165180Y-98093223D01*
X143164821Y-98504971D01*
X143322058Y-98885515D01*
X143486288Y-99050032D01*
X143323081Y-99212954D01*
X143165180Y-99593223D01*
X143164821Y-100004971D01*
X143322058Y-100385515D01*
X143612954Y-100676919D01*
X143993223Y-100834820D01*
X144373000Y-100835151D01*
X144373000Y-105873000D01*
X68127000Y-105873000D01*
X68127000Y-105390640D01*
X68312954Y-105576919D01*
X68693223Y-105734820D01*
X69104971Y-105735179D01*
X69485515Y-105577942D01*
X69776919Y-105287046D01*
X69934820Y-104906777D01*
X69935179Y-104495029D01*
X69784526Y-104130418D01*
X70307000Y-104234345D01*
X70880489Y-104120271D01*
X71366670Y-103795415D01*
X71577000Y-103480634D01*
X71787330Y-103795415D01*
X72273511Y-104120271D01*
X72847000Y-104234345D01*
X73420489Y-104120271D01*
X73906670Y-103795415D01*
X74117000Y-103480634D01*
X74327330Y-103795415D01*
X74813511Y-104120271D01*
X75387000Y-104234345D01*
X75960489Y-104120271D01*
X76446670Y-103795415D01*
X76771526Y-103309234D01*
X76885600Y-102735745D01*
X76885600Y-102366255D01*
X76771526Y-101792766D01*
X76446670Y-101306585D01*
X75960489Y-100981729D01*
X75387000Y-100867655D01*
X74813511Y-100981729D01*
X74327330Y-101306585D01*
X74117000Y-101621366D01*
X73906670Y-101306585D01*
X73420489Y-100981729D01*
X72847000Y-100867655D01*
X72273511Y-100981729D01*
X71787330Y-101306585D01*
X71577000Y-101621366D01*
X71366670Y-101306585D01*
X70880489Y-100981729D01*
X70307000Y-100867655D01*
X69733511Y-100981729D01*
X69247330Y-101306585D01*
X69232500Y-101328780D01*
X69168927Y-101175302D01*
X68990299Y-100996673D01*
X68756910Y-100900000D01*
X68127000Y-100900000D01*
X68127000Y-93407000D01*
X68637214Y-93407000D01*
X68750225Y-93975143D01*
X69072052Y-94456792D01*
X69401617Y-94677000D01*
X69072052Y-94897208D01*
X68750225Y-95378857D01*
X68637214Y-95947000D01*
X68750225Y-96515143D01*
X69072052Y-96996792D01*
X69401617Y-97217000D01*
X69072052Y-97437208D01*
X68750225Y-97918857D01*
X68637214Y-98487000D01*
X68750225Y-99055143D01*
X69072052Y-99536792D01*
X69553701Y-99858619D01*
X70121844Y-99971630D01*
X72016156Y-99971630D01*
X72584299Y-99858619D01*
X73065948Y-99536792D01*
X73381961Y-99063844D01*
X120384370Y-99063844D01*
X120384370Y-100958156D01*
X120497381Y-101526299D01*
X120819208Y-102007948D01*
X121300857Y-102329775D01*
X121869000Y-102442786D01*
X122437143Y-102329775D01*
X122918792Y-102007948D01*
X123139000Y-101678383D01*
X123359208Y-102007948D01*
X123840857Y-102329775D01*
X124409000Y-102442786D01*
X124977143Y-102329775D01*
X125458792Y-102007948D01*
X125679000Y-101678383D01*
X125899208Y-102007948D01*
X126380857Y-102329775D01*
X126949000Y-102442786D01*
X127517143Y-102329775D01*
X127998792Y-102007948D01*
X128320619Y-101526299D01*
X128433630Y-100958156D01*
X128433630Y-99063844D01*
X128320619Y-98495701D01*
X127998792Y-98014052D01*
X127517143Y-97692225D01*
X126949000Y-97579214D01*
X126380857Y-97692225D01*
X125899208Y-98014052D01*
X125679000Y-98343617D01*
X125458792Y-98014052D01*
X124977143Y-97692225D01*
X124409000Y-97579214D01*
X123840857Y-97692225D01*
X123359208Y-98014052D01*
X123139000Y-98343617D01*
X122918792Y-98014052D01*
X122437143Y-97692225D01*
X121869000Y-97579214D01*
X121300857Y-97692225D01*
X120819208Y-98014052D01*
X120497381Y-98495701D01*
X120384370Y-99063844D01*
X73381961Y-99063844D01*
X73387775Y-99055143D01*
X73500786Y-98487000D01*
X73387775Y-97918857D01*
X73065948Y-97437208D01*
X72736383Y-97217000D01*
X73065948Y-96996792D01*
X73387775Y-96515143D01*
X73500786Y-95947000D01*
X73387775Y-95378857D01*
X73065948Y-94897208D01*
X72736383Y-94677000D01*
X72993842Y-94504971D01*
X127664821Y-94504971D01*
X127822058Y-94885515D01*
X128112954Y-95176919D01*
X128493223Y-95334820D01*
X128904971Y-95335179D01*
X129285515Y-95177942D01*
X129576919Y-94887046D01*
X129734820Y-94506777D01*
X129735179Y-94095029D01*
X129577942Y-93714485D01*
X129287046Y-93423081D01*
X128906777Y-93265180D01*
X128495029Y-93264821D01*
X128114485Y-93422058D01*
X127823081Y-93712954D01*
X127665180Y-94093223D01*
X127664821Y-94504971D01*
X72993842Y-94504971D01*
X73065948Y-94456792D01*
X73387775Y-93975143D01*
X73500786Y-93407000D01*
X73387775Y-92838857D01*
X73164680Y-92504971D01*
X101064821Y-92504971D01*
X101222058Y-92885515D01*
X101512954Y-93176919D01*
X101893223Y-93334820D01*
X102304971Y-93335179D01*
X102685515Y-93177942D01*
X102976919Y-92887046D01*
X103134820Y-92506777D01*
X103135179Y-92095029D01*
X102977942Y-91714485D01*
X102687046Y-91423081D01*
X102306777Y-91265180D01*
X101895029Y-91264821D01*
X101514485Y-91422058D01*
X101223081Y-91712954D01*
X101065180Y-92093223D01*
X101064821Y-92504971D01*
X73164680Y-92504971D01*
X73065948Y-92357208D01*
X72584299Y-92035381D01*
X72016156Y-91922370D01*
X70121844Y-91922370D01*
X69553701Y-92035381D01*
X69072052Y-92357208D01*
X68750225Y-92838857D01*
X68637214Y-93407000D01*
X68127000Y-93407000D01*
X68127000Y-89928971D01*
X70795821Y-89928971D01*
X70953058Y-90309515D01*
X71243954Y-90600919D01*
X71624223Y-90758820D01*
X72035971Y-90759179D01*
X72416515Y-90601942D01*
X72707919Y-90311046D01*
X72865820Y-89930777D01*
X72866179Y-89519029D01*
X72708942Y-89138485D01*
X72418046Y-88847081D01*
X72037777Y-88689180D01*
X71626029Y-88688821D01*
X71245485Y-88846058D01*
X70954081Y-89136954D01*
X70796180Y-89517223D01*
X70795821Y-89928971D01*
X68127000Y-89928971D01*
X68127000Y-87000000D01*
X68116994Y-86950590D01*
X68095422Y-86919018D01*
X68427946Y-86587073D01*
X68677306Y-85986547D01*
X68677308Y-85983694D01*
X70409586Y-85983694D01*
X70657898Y-86584655D01*
X71117287Y-87044846D01*
X71717813Y-87294206D01*
X72368054Y-87294774D01*
X72969015Y-87046462D01*
X73429206Y-86587073D01*
X73678566Y-85986547D01*
X73679134Y-85336306D01*
X73430822Y-84735345D01*
X73339637Y-84644000D01*
X73971214Y-84644000D01*
X74084225Y-85212143D01*
X74406052Y-85693792D01*
X74735617Y-85914000D01*
X74406052Y-86134208D01*
X74084225Y-86615857D01*
X73971214Y-87184000D01*
X74084225Y-87752143D01*
X74406052Y-88233792D01*
X74887701Y-88555619D01*
X75455844Y-88668630D01*
X76166136Y-88668630D01*
X76130180Y-88755223D01*
X76129821Y-89166971D01*
X76287058Y-89547515D01*
X76577954Y-89838919D01*
X76958223Y-89996820D01*
X77369971Y-89997179D01*
X77750515Y-89839942D01*
X77788552Y-89801971D01*
X81463821Y-89801971D01*
X81621058Y-90182515D01*
X81911954Y-90473919D01*
X82292223Y-90631820D01*
X82703971Y-90632179D01*
X83084515Y-90474942D01*
X83375919Y-90184046D01*
X83533820Y-89803777D01*
X83533821Y-89801971D01*
X85527821Y-89801971D01*
X85685058Y-90182515D01*
X85975954Y-90473919D01*
X86356223Y-90631820D01*
X86767971Y-90632179D01*
X87148515Y-90474942D01*
X87439919Y-90184046D01*
X87597820Y-89803777D01*
X87598179Y-89392029D01*
X87520889Y-89204971D01*
X111464821Y-89204971D01*
X111622058Y-89585515D01*
X111912954Y-89876919D01*
X112293223Y-90034820D01*
X112704971Y-90035179D01*
X113085515Y-89877942D01*
X113376919Y-89587046D01*
X113534820Y-89206777D01*
X113535170Y-88804971D01*
X119764821Y-88804971D01*
X119922058Y-89185515D01*
X120212954Y-89476919D01*
X120593223Y-89634820D01*
X121004971Y-89635179D01*
X121385515Y-89477942D01*
X121676919Y-89187046D01*
X121710999Y-89104971D01*
X126264821Y-89104971D01*
X126422058Y-89485515D01*
X126712954Y-89776919D01*
X127093223Y-89934820D01*
X127504971Y-89935179D01*
X127885515Y-89777942D01*
X128176919Y-89487046D01*
X128334820Y-89106777D01*
X128334821Y-89104971D01*
X128464821Y-89104971D01*
X128622058Y-89485515D01*
X128912954Y-89776919D01*
X129293223Y-89934820D01*
X129704971Y-89935179D01*
X130085515Y-89777942D01*
X130376919Y-89487046D01*
X130534820Y-89106777D01*
X130535179Y-88695029D01*
X130377942Y-88314485D01*
X130087046Y-88023081D01*
X129706777Y-87865180D01*
X129295029Y-87864821D01*
X128914485Y-88022058D01*
X128623081Y-88312954D01*
X128465180Y-88693223D01*
X128464821Y-89104971D01*
X128334821Y-89104971D01*
X128335179Y-88695029D01*
X128177942Y-88314485D01*
X127887046Y-88023081D01*
X127506777Y-87865180D01*
X127095029Y-87864821D01*
X126714485Y-88022058D01*
X126423081Y-88312954D01*
X126265180Y-88693223D01*
X126264821Y-89104971D01*
X121710999Y-89104971D01*
X121834820Y-88806777D01*
X121835179Y-88395029D01*
X121677942Y-88014485D01*
X121387046Y-87723081D01*
X121006777Y-87565180D01*
X120595029Y-87564821D01*
X120214485Y-87722058D01*
X119923081Y-88012954D01*
X119765180Y-88393223D01*
X119764821Y-88804971D01*
X113535170Y-88804971D01*
X113535179Y-88795029D01*
X113377942Y-88414485D01*
X113087046Y-88123081D01*
X112706777Y-87965180D01*
X112295029Y-87964821D01*
X111914485Y-88122058D01*
X111623081Y-88412954D01*
X111465180Y-88793223D01*
X111464821Y-89204971D01*
X87520889Y-89204971D01*
X87440942Y-89011485D01*
X87150046Y-88720081D01*
X86769777Y-88562180D01*
X86358029Y-88561821D01*
X85977485Y-88719058D01*
X85686081Y-89009954D01*
X85528180Y-89390223D01*
X85527821Y-89801971D01*
X83533821Y-89801971D01*
X83534179Y-89392029D01*
X83376942Y-89011485D01*
X83086046Y-88720081D01*
X82705777Y-88562180D01*
X82294029Y-88561821D01*
X81913485Y-88719058D01*
X81622081Y-89009954D01*
X81464180Y-89390223D01*
X81463821Y-89801971D01*
X77788552Y-89801971D01*
X78041919Y-89549046D01*
X78199820Y-89168777D01*
X78200179Y-88757029D01*
X78073978Y-88451598D01*
X78399948Y-88233792D01*
X78721775Y-87752143D01*
X78830614Y-87204971D01*
X129564821Y-87204971D01*
X129722058Y-87585515D01*
X130012954Y-87876919D01*
X130393223Y-88034820D01*
X130804971Y-88035179D01*
X131185515Y-87877942D01*
X131476919Y-87587046D01*
X131634820Y-87206777D01*
X131635179Y-86795029D01*
X131477942Y-86414485D01*
X131187046Y-86123081D01*
X130806777Y-85965180D01*
X130395029Y-85964821D01*
X130014485Y-86122058D01*
X129723081Y-86412954D01*
X129565180Y-86793223D01*
X129564821Y-87204971D01*
X78830614Y-87204971D01*
X78834786Y-87184000D01*
X78721775Y-86615857D01*
X78399948Y-86134208D01*
X78070383Y-85914000D01*
X78399948Y-85693792D01*
X78721775Y-85212143D01*
X78834786Y-84644000D01*
X78721775Y-84075857D01*
X78440549Y-83654971D01*
X107964821Y-83654971D01*
X108122058Y-84035515D01*
X108412954Y-84326919D01*
X108793223Y-84484820D01*
X109204971Y-84485179D01*
X109585515Y-84327942D01*
X109876919Y-84037046D01*
X110034820Y-83656777D01*
X110035179Y-83245029D01*
X109935990Y-83004971D01*
X117364821Y-83004971D01*
X117522058Y-83385515D01*
X117812954Y-83676919D01*
X118193223Y-83834820D01*
X118604971Y-83835179D01*
X118985515Y-83677942D01*
X119084658Y-83578971D01*
X129866821Y-83578971D01*
X130024058Y-83959515D01*
X130314954Y-84250919D01*
X130695223Y-84408820D01*
X131106971Y-84409179D01*
X131487515Y-84251942D01*
X131778919Y-83961046D01*
X131936820Y-83580777D01*
X131937179Y-83169029D01*
X131779942Y-82788485D01*
X131489046Y-82497081D01*
X131108777Y-82339180D01*
X130697029Y-82338821D01*
X130316485Y-82496058D01*
X130025081Y-82786954D01*
X129867180Y-83167223D01*
X129866821Y-83578971D01*
X119084658Y-83578971D01*
X119276919Y-83387046D01*
X119434820Y-83006777D01*
X119435179Y-82595029D01*
X119277942Y-82214485D01*
X119013101Y-81949182D01*
X119185515Y-81877942D01*
X119476919Y-81587046D01*
X119634820Y-81206777D01*
X119635179Y-80795029D01*
X119477942Y-80414485D01*
X119457200Y-80393707D01*
X119534820Y-80206777D01*
X119535179Y-79795029D01*
X119377942Y-79414485D01*
X119087046Y-79123081D01*
X118706777Y-78965180D01*
X118295029Y-78964821D01*
X117914485Y-79122058D01*
X117623081Y-79412954D01*
X117465180Y-79793223D01*
X117464821Y-80204971D01*
X117622058Y-80585515D01*
X117642800Y-80606293D01*
X117565180Y-80793223D01*
X117564821Y-81204971D01*
X117722058Y-81585515D01*
X117986899Y-81850818D01*
X117814485Y-81922058D01*
X117523081Y-82212954D01*
X117365180Y-82593223D01*
X117364821Y-83004971D01*
X109935990Y-83004971D01*
X109877942Y-82864485D01*
X109587046Y-82573081D01*
X109206777Y-82415180D01*
X108795029Y-82414821D01*
X108414485Y-82572058D01*
X108123081Y-82862954D01*
X107965180Y-83243223D01*
X107964821Y-83654971D01*
X78440549Y-83654971D01*
X78399948Y-83594208D01*
X78062127Y-83368484D01*
X78443024Y-83063989D01*
X78723649Y-82554810D01*
X78744540Y-82460832D01*
X78623214Y-82231000D01*
X76530000Y-82231000D01*
X76530000Y-82251000D01*
X76276000Y-82251000D01*
X76276000Y-82231000D01*
X74182786Y-82231000D01*
X74061460Y-82460832D01*
X74082351Y-82554810D01*
X74362976Y-83063989D01*
X74743873Y-83368484D01*
X74406052Y-83594208D01*
X74084225Y-84075857D01*
X73971214Y-84644000D01*
X73339637Y-84644000D01*
X72971433Y-84275154D01*
X72370907Y-84025794D01*
X71720666Y-84025226D01*
X71119705Y-84273538D01*
X70659514Y-84732927D01*
X70410154Y-85333453D01*
X70409586Y-85983694D01*
X68677308Y-85983694D01*
X68677874Y-85336306D01*
X68429562Y-84735345D01*
X67970173Y-84275154D01*
X67369647Y-84025794D01*
X66719406Y-84025226D01*
X66118445Y-84273538D01*
X65658254Y-84732927D01*
X65408894Y-85333453D01*
X65408326Y-85983694D01*
X65656638Y-86584655D01*
X65944480Y-86873000D01*
X41127000Y-86873000D01*
X41127000Y-81747168D01*
X74061460Y-81747168D01*
X74182786Y-81977000D01*
X76276000Y-81977000D01*
X76276000Y-80619370D01*
X76530000Y-80619370D01*
X76530000Y-81977000D01*
X78623214Y-81977000D01*
X78744540Y-81747168D01*
X78723649Y-81653190D01*
X78443024Y-81144011D01*
X77988906Y-80780982D01*
X77430430Y-80619370D01*
X76530000Y-80619370D01*
X76276000Y-80619370D01*
X75375570Y-80619370D01*
X74817094Y-80780982D01*
X74362976Y-81144011D01*
X74082351Y-81653190D01*
X74061460Y-81747168D01*
X41127000Y-81747168D01*
X41127000Y-79413970D01*
X46095635Y-79413970D01*
X46255418Y-79732739D01*
X47046187Y-80042723D01*
X47895387Y-80026497D01*
X48604582Y-79732739D01*
X48764365Y-79413970D01*
X59235635Y-79413970D01*
X59395418Y-79732739D01*
X60186187Y-80042723D01*
X61035387Y-80026497D01*
X61155486Y-79976750D01*
X66268400Y-79976750D01*
X66268400Y-80833309D01*
X66365073Y-81066698D01*
X66543701Y-81245327D01*
X66777090Y-81342000D01*
X67481250Y-81342000D01*
X67640000Y-81183250D01*
X67640000Y-79818000D01*
X66427150Y-79818000D01*
X66268400Y-79976750D01*
X61155486Y-79976750D01*
X61744582Y-79732739D01*
X61904365Y-79413970D01*
X60570000Y-78079605D01*
X59235635Y-79413970D01*
X48764365Y-79413970D01*
X47430000Y-78079605D01*
X46095635Y-79413970D01*
X41127000Y-79413970D01*
X41127000Y-77516187D01*
X45287277Y-77516187D01*
X45303503Y-78365387D01*
X45597261Y-79074582D01*
X45916030Y-79234365D01*
X47250395Y-77900000D01*
X47609605Y-77900000D01*
X48943970Y-79234365D01*
X49262739Y-79074582D01*
X49572723Y-78283813D01*
X49558056Y-77516187D01*
X58427277Y-77516187D01*
X58443503Y-78365387D01*
X58737261Y-79074582D01*
X59056030Y-79234365D01*
X60390395Y-77900000D01*
X60749605Y-77900000D01*
X62083970Y-79234365D01*
X62402739Y-79074582D01*
X62608889Y-78548691D01*
X66268400Y-78548691D01*
X66268400Y-79405250D01*
X66427150Y-79564000D01*
X67640000Y-79564000D01*
X67640000Y-78198750D01*
X67894000Y-78198750D01*
X67894000Y-79564000D01*
X67914000Y-79564000D01*
X67914000Y-79818000D01*
X67894000Y-79818000D01*
X67894000Y-81183250D01*
X68052750Y-81342000D01*
X68756910Y-81342000D01*
X68990299Y-81245327D01*
X69168927Y-81066698D01*
X69232500Y-80913220D01*
X69247330Y-80935415D01*
X69733511Y-81260271D01*
X70307000Y-81374345D01*
X70880489Y-81260271D01*
X71366670Y-80935415D01*
X71577000Y-80620634D01*
X71787330Y-80935415D01*
X72273511Y-81260271D01*
X72847000Y-81374345D01*
X73420489Y-81260271D01*
X73906670Y-80935415D01*
X74231526Y-80449234D01*
X74345600Y-79875745D01*
X74345600Y-79506255D01*
X74305563Y-79304971D01*
X97764821Y-79304971D01*
X97886830Y-79600256D01*
X97765180Y-79893223D01*
X97764821Y-80304971D01*
X97922058Y-80685515D01*
X98212954Y-80976919D01*
X98593223Y-81134820D01*
X99004971Y-81135179D01*
X99078080Y-81104971D01*
X103864821Y-81104971D01*
X104022058Y-81485515D01*
X104312954Y-81776919D01*
X104693223Y-81934820D01*
X105104971Y-81935179D01*
X105485515Y-81777942D01*
X105776919Y-81487046D01*
X105934820Y-81106777D01*
X105935170Y-80704971D01*
X106964821Y-80704971D01*
X107122058Y-81085515D01*
X107412954Y-81376919D01*
X107793223Y-81534820D01*
X108204971Y-81535179D01*
X108585515Y-81377942D01*
X108876919Y-81087046D01*
X109034820Y-80706777D01*
X109035179Y-80295029D01*
X108959774Y-80112535D01*
X109220099Y-80004971D01*
X110164821Y-80004971D01*
X110322058Y-80385515D01*
X110612954Y-80676919D01*
X110993223Y-80834820D01*
X111404971Y-80835179D01*
X111785515Y-80677942D01*
X112076919Y-80387046D01*
X112234820Y-80006777D01*
X112235179Y-79595029D01*
X112077942Y-79214485D01*
X111787046Y-78923081D01*
X111406777Y-78765180D01*
X110995029Y-78764821D01*
X110614485Y-78922058D01*
X110323081Y-79212954D01*
X110165180Y-79593223D01*
X110164821Y-80004971D01*
X109220099Y-80004971D01*
X109285515Y-79977942D01*
X109576919Y-79687046D01*
X109734820Y-79306777D01*
X109735179Y-78895029D01*
X109577942Y-78514485D01*
X109287046Y-78223081D01*
X108906777Y-78065180D01*
X108495029Y-78064821D01*
X108114485Y-78222058D01*
X107823081Y-78512954D01*
X107665180Y-78893223D01*
X107664821Y-79304971D01*
X107740226Y-79487465D01*
X107414485Y-79622058D01*
X107123081Y-79912954D01*
X106965180Y-80293223D01*
X106964821Y-80704971D01*
X105935170Y-80704971D01*
X105935179Y-80695029D01*
X105777942Y-80314485D01*
X105487046Y-80023081D01*
X105106777Y-79865180D01*
X104695029Y-79864821D01*
X104314485Y-80022058D01*
X104023081Y-80312954D01*
X103865180Y-80693223D01*
X103864821Y-81104971D01*
X99078080Y-81104971D01*
X99385515Y-80977942D01*
X99676919Y-80687046D01*
X99834820Y-80306777D01*
X99835179Y-79895029D01*
X99713170Y-79599744D01*
X99834820Y-79306777D01*
X99835179Y-78895029D01*
X99677942Y-78514485D01*
X99387046Y-78223081D01*
X99006777Y-78065180D01*
X98595029Y-78064821D01*
X98214485Y-78222058D01*
X97923081Y-78512954D01*
X97765180Y-78893223D01*
X97764821Y-79304971D01*
X74305563Y-79304971D01*
X74231526Y-78932766D01*
X73906670Y-78446585D01*
X73420489Y-78121729D01*
X72847000Y-78007655D01*
X72273511Y-78121729D01*
X71787330Y-78446585D01*
X71577000Y-78761366D01*
X71366670Y-78446585D01*
X70880489Y-78121729D01*
X70307000Y-78007655D01*
X69733511Y-78121729D01*
X69247330Y-78446585D01*
X69232500Y-78468780D01*
X69168927Y-78315302D01*
X68990299Y-78136673D01*
X68756910Y-78040000D01*
X68052750Y-78040000D01*
X67894000Y-78198750D01*
X67640000Y-78198750D01*
X67481250Y-78040000D01*
X66777090Y-78040000D01*
X66543701Y-78136673D01*
X66365073Y-78315302D01*
X66268400Y-78548691D01*
X62608889Y-78548691D01*
X62712723Y-78283813D01*
X62696497Y-77434613D01*
X62477113Y-76904971D01*
X106364821Y-76904971D01*
X106522058Y-77285515D01*
X106812954Y-77576919D01*
X107193223Y-77734820D01*
X107604971Y-77735179D01*
X107920099Y-77604971D01*
X117864821Y-77604971D01*
X118022058Y-77985515D01*
X118312954Y-78276919D01*
X118693223Y-78434820D01*
X119104971Y-78435179D01*
X119485515Y-78277942D01*
X119776919Y-77987046D01*
X119934820Y-77606777D01*
X119934821Y-77604971D01*
X123764821Y-77604971D01*
X123922058Y-77985515D01*
X124212954Y-78276919D01*
X124593223Y-78434820D01*
X125004971Y-78435179D01*
X125385515Y-78277942D01*
X125676919Y-77987046D01*
X125834820Y-77606777D01*
X125834821Y-77604971D01*
X129364821Y-77604971D01*
X129522058Y-77985515D01*
X129812954Y-78276919D01*
X129987217Y-78349279D01*
X129723081Y-78612954D01*
X129565180Y-78993223D01*
X129564821Y-79404971D01*
X129642726Y-79593517D01*
X129523081Y-79712954D01*
X129365180Y-80093223D01*
X129364821Y-80504971D01*
X129522058Y-80885515D01*
X129812954Y-81176919D01*
X130193223Y-81334820D01*
X130604971Y-81335179D01*
X130985515Y-81177942D01*
X131276919Y-80887046D01*
X131434820Y-80506777D01*
X131435179Y-80095029D01*
X131357274Y-79906483D01*
X131476919Y-79787046D01*
X131634820Y-79406777D01*
X131635179Y-78995029D01*
X131477942Y-78614485D01*
X131368619Y-78504971D01*
X131964821Y-78504971D01*
X132122058Y-78885515D01*
X132412954Y-79176919D01*
X132793223Y-79334820D01*
X133204971Y-79335179D01*
X133585515Y-79177942D01*
X133780020Y-78983776D01*
X133822058Y-79085515D01*
X134112954Y-79376919D01*
X134493223Y-79534820D01*
X134904971Y-79535179D01*
X135285515Y-79377942D01*
X135576919Y-79087046D01*
X135734820Y-78706777D01*
X135735179Y-78295029D01*
X135577942Y-77914485D01*
X135287046Y-77623081D01*
X134906777Y-77465180D01*
X134495029Y-77464821D01*
X134114485Y-77622058D01*
X133919980Y-77816224D01*
X133877942Y-77714485D01*
X133587046Y-77423081D01*
X133206777Y-77265180D01*
X132795029Y-77264821D01*
X132414485Y-77422058D01*
X132123081Y-77712954D01*
X131965180Y-78093223D01*
X131964821Y-78504971D01*
X131368619Y-78504971D01*
X131187046Y-78323081D01*
X131012783Y-78250721D01*
X131276919Y-77987046D01*
X131434820Y-77606777D01*
X131435170Y-77204971D01*
X135214821Y-77204971D01*
X135372058Y-77585515D01*
X135662954Y-77876919D01*
X136043223Y-78034820D01*
X136454971Y-78035179D01*
X136835515Y-77877942D01*
X137126919Y-77587046D01*
X137284820Y-77206777D01*
X137285179Y-76795029D01*
X137247968Y-76704971D01*
X140064821Y-76704971D01*
X140222058Y-77085515D01*
X140512954Y-77376919D01*
X140893223Y-77534820D01*
X141304971Y-77535179D01*
X141685515Y-77377942D01*
X141976919Y-77087046D01*
X142134820Y-76706777D01*
X142135179Y-76295029D01*
X141977942Y-75914485D01*
X141687046Y-75623081D01*
X141306777Y-75465180D01*
X140895029Y-75464821D01*
X140514485Y-75622058D01*
X140223081Y-75912954D01*
X140065180Y-76293223D01*
X140064821Y-76704971D01*
X137247968Y-76704971D01*
X137127942Y-76414485D01*
X136837046Y-76123081D01*
X136456777Y-75965180D01*
X136045029Y-75964821D01*
X135664485Y-76122058D01*
X135373081Y-76412954D01*
X135215180Y-76793223D01*
X135214821Y-77204971D01*
X131435170Y-77204971D01*
X131435179Y-77195029D01*
X131277942Y-76814485D01*
X130987046Y-76523081D01*
X130606777Y-76365180D01*
X130195029Y-76364821D01*
X129814485Y-76522058D01*
X129523081Y-76812954D01*
X129365180Y-77193223D01*
X129364821Y-77604971D01*
X125834821Y-77604971D01*
X125835179Y-77195029D01*
X125677942Y-76814485D01*
X125387046Y-76523081D01*
X125006777Y-76365180D01*
X124595029Y-76364821D01*
X124214485Y-76522058D01*
X123923081Y-76812954D01*
X123765180Y-77193223D01*
X123764821Y-77604971D01*
X119934821Y-77604971D01*
X119935179Y-77195029D01*
X119777942Y-76814485D01*
X119487046Y-76523081D01*
X119106777Y-76365180D01*
X118695029Y-76364821D01*
X118314485Y-76522058D01*
X118023081Y-76812954D01*
X117865180Y-77193223D01*
X117864821Y-77604971D01*
X107920099Y-77604971D01*
X107985515Y-77577942D01*
X108276919Y-77287046D01*
X108434820Y-76906777D01*
X108435179Y-76495029D01*
X108277942Y-76114485D01*
X107987046Y-75823081D01*
X107606777Y-75665180D01*
X107195029Y-75664821D01*
X106814485Y-75822058D01*
X106523081Y-76112954D01*
X106365180Y-76493223D01*
X106364821Y-76904971D01*
X62477113Y-76904971D01*
X62402739Y-76725418D01*
X62083970Y-76565635D01*
X60749605Y-77900000D01*
X60390395Y-77900000D01*
X59056030Y-76565635D01*
X58737261Y-76725418D01*
X58427277Y-77516187D01*
X49558056Y-77516187D01*
X49556497Y-77434613D01*
X49262739Y-76725418D01*
X48943970Y-76565635D01*
X47609605Y-77900000D01*
X47250395Y-77900000D01*
X45916030Y-76565635D01*
X45597261Y-76725418D01*
X45287277Y-77516187D01*
X41127000Y-77516187D01*
X41127000Y-76386030D01*
X46095635Y-76386030D01*
X47430000Y-77720395D01*
X48764365Y-76386030D01*
X59235635Y-76386030D01*
X60570000Y-77720395D01*
X61904365Y-76386030D01*
X61744582Y-76067261D01*
X60953813Y-75757277D01*
X60104613Y-75773503D01*
X59395418Y-76067261D01*
X59235635Y-76386030D01*
X48764365Y-76386030D01*
X48604582Y-76067261D01*
X47813813Y-75757277D01*
X46964613Y-75773503D01*
X46255418Y-76067261D01*
X46095635Y-76386030D01*
X41127000Y-76386030D01*
X41127000Y-71127000D01*
X53000000Y-71127000D01*
X53049410Y-71116994D01*
X53091035Y-71088553D01*
X53118315Y-71046159D01*
X53127000Y-71000000D01*
X53127000Y-67934849D01*
X53504971Y-67935179D01*
X53885515Y-67777942D01*
X54176919Y-67487046D01*
X54334820Y-67106777D01*
X54335179Y-66695029D01*
X54177942Y-66314485D01*
X53887046Y-66023081D01*
X53735122Y-65959997D01*
X53735179Y-65895029D01*
X53577942Y-65514485D01*
X53287046Y-65223081D01*
X53127000Y-65156624D01*
X53127000Y-61127000D01*
X63873000Y-61127000D01*
X63873000Y-76000000D01*
X63883006Y-76049410D01*
X63911447Y-76091035D01*
X63953841Y-76118315D01*
X64000000Y-76127000D01*
X87000000Y-76127000D01*
X87049410Y-76116994D01*
X87091035Y-76088553D01*
X87118315Y-76046159D01*
X87127000Y-76000000D01*
X87127000Y-74104971D01*
X102564821Y-74104971D01*
X102722058Y-74485515D01*
X103012954Y-74776919D01*
X103393223Y-74934820D01*
X103804971Y-74935179D01*
X103887218Y-74901195D01*
X103922058Y-74985515D01*
X104212954Y-75276919D01*
X104593223Y-75434820D01*
X105004971Y-75435179D01*
X105078080Y-75404971D01*
X112564821Y-75404971D01*
X112722058Y-75785515D01*
X113012954Y-76076919D01*
X113393223Y-76234820D01*
X113804971Y-76235179D01*
X114185515Y-76077942D01*
X114476919Y-75787046D01*
X114634820Y-75406777D01*
X114635179Y-74995029D01*
X114477942Y-74614485D01*
X114368619Y-74504971D01*
X115414821Y-74504971D01*
X115572058Y-74885515D01*
X115862954Y-75176919D01*
X116243223Y-75334820D01*
X116654971Y-75335179D01*
X117035515Y-75177942D01*
X117308962Y-74904971D01*
X126564821Y-74904971D01*
X126722058Y-75285515D01*
X127012954Y-75576919D01*
X127393223Y-75734820D01*
X127804971Y-75735179D01*
X128185515Y-75577942D01*
X128476919Y-75287046D01*
X128634820Y-74906777D01*
X128635179Y-74495029D01*
X128477942Y-74114485D01*
X128187046Y-73823081D01*
X127806777Y-73665180D01*
X127395029Y-73664821D01*
X127014485Y-73822058D01*
X126723081Y-74112954D01*
X126565180Y-74493223D01*
X126564821Y-74904971D01*
X117308962Y-74904971D01*
X117326919Y-74887046D01*
X117484820Y-74506777D01*
X117485179Y-74095029D01*
X117327942Y-73714485D01*
X117037046Y-73423081D01*
X116656777Y-73265180D01*
X116245029Y-73264821D01*
X115864485Y-73422058D01*
X115573081Y-73712954D01*
X115415180Y-74093223D01*
X115414821Y-74504971D01*
X114368619Y-74504971D01*
X114187046Y-74323081D01*
X113806777Y-74165180D01*
X113395029Y-74164821D01*
X113014485Y-74322058D01*
X112723081Y-74612954D01*
X112565180Y-74993223D01*
X112564821Y-75404971D01*
X105078080Y-75404971D01*
X105385515Y-75277942D01*
X105676919Y-74987046D01*
X105741933Y-74830475D01*
X105993223Y-74934820D01*
X106404971Y-74935179D01*
X106785515Y-74777942D01*
X107064826Y-74499118D01*
X107064821Y-74504971D01*
X107222058Y-74885515D01*
X107512954Y-75176919D01*
X107893223Y-75334820D01*
X108304971Y-75335179D01*
X108685515Y-75177942D01*
X108976919Y-74887046D01*
X109134820Y-74506777D01*
X109135179Y-74095029D01*
X108977942Y-73714485D01*
X108687046Y-73423081D01*
X108306777Y-73265180D01*
X107895029Y-73264821D01*
X107514485Y-73422058D01*
X107235174Y-73700882D01*
X107235179Y-73695029D01*
X107077942Y-73314485D01*
X106787046Y-73023081D01*
X106406777Y-72865180D01*
X105995029Y-72864821D01*
X105614485Y-73022058D01*
X105323081Y-73312954D01*
X105258067Y-73469525D01*
X105006777Y-73365180D01*
X104595029Y-73364821D01*
X104512782Y-73398805D01*
X104477942Y-73314485D01*
X104187046Y-73023081D01*
X103806777Y-72865180D01*
X103395029Y-72864821D01*
X103014485Y-73022058D01*
X102723081Y-73312954D01*
X102565180Y-73693223D01*
X102564821Y-74104971D01*
X87127000Y-74104971D01*
X87127000Y-71136350D01*
X90007255Y-71136350D01*
X90099792Y-71398019D01*
X90691398Y-71616188D01*
X91321461Y-71591352D01*
X91788208Y-71398019D01*
X91880745Y-71136350D01*
X90944000Y-70199605D01*
X90007255Y-71136350D01*
X87127000Y-71136350D01*
X87127000Y-69767398D01*
X89347812Y-69767398D01*
X89372648Y-70397461D01*
X89565981Y-70864208D01*
X89827650Y-70956745D01*
X90764395Y-70020000D01*
X91123605Y-70020000D01*
X92060350Y-70956745D01*
X92148439Y-70925593D01*
X92584997Y-71362914D01*
X93167341Y-71604724D01*
X93797893Y-71605275D01*
X94380657Y-71364481D01*
X94754261Y-70991529D01*
X95124997Y-71362914D01*
X95707341Y-71604724D01*
X96337893Y-71605275D01*
X96920657Y-71364481D01*
X97294261Y-70991529D01*
X97664997Y-71362914D01*
X98247341Y-71604724D01*
X98877893Y-71605275D01*
X99460657Y-71364481D01*
X99834261Y-70991529D01*
X100204997Y-71362914D01*
X100787341Y-71604724D01*
X101417893Y-71605275D01*
X102000657Y-71364481D01*
X102374261Y-70991529D01*
X102744997Y-71362914D01*
X103327341Y-71604724D01*
X103957893Y-71605275D01*
X104540657Y-71364481D01*
X104914261Y-70991529D01*
X105284997Y-71362914D01*
X105867341Y-71604724D01*
X106497893Y-71605275D01*
X107080657Y-71364481D01*
X107454261Y-70991529D01*
X107824997Y-71362914D01*
X108407341Y-71604724D01*
X109037893Y-71605275D01*
X109620657Y-71364481D01*
X109994261Y-70991529D01*
X110364997Y-71362914D01*
X110947341Y-71604724D01*
X111577893Y-71605275D01*
X112160657Y-71364481D01*
X112534261Y-70991529D01*
X112904997Y-71362914D01*
X113487341Y-71604724D01*
X114117893Y-71605275D01*
X114700657Y-71364481D01*
X115074261Y-70991529D01*
X115444997Y-71362914D01*
X116027341Y-71604724D01*
X116657893Y-71605275D01*
X117240657Y-71364481D01*
X117614261Y-70991529D01*
X117984997Y-71362914D01*
X118567341Y-71604724D01*
X119197893Y-71605275D01*
X119780657Y-71364481D01*
X120154261Y-70991529D01*
X120524997Y-71362914D01*
X121107341Y-71604724D01*
X121737893Y-71605275D01*
X122320657Y-71364481D01*
X122694261Y-70991529D01*
X123064997Y-71362914D01*
X123424160Y-71512051D01*
X123323081Y-71612954D01*
X123165180Y-71993223D01*
X123164821Y-72404971D01*
X123230882Y-72564852D01*
X123195029Y-72564821D01*
X122814485Y-72722058D01*
X122710147Y-72826214D01*
X122710179Y-72790029D01*
X122552942Y-72409485D01*
X122262046Y-72118081D01*
X121881777Y-71960180D01*
X121470029Y-71959821D01*
X121089485Y-72117058D01*
X120798081Y-72407954D01*
X120640180Y-72788223D01*
X120639821Y-73199971D01*
X120797058Y-73580515D01*
X121087954Y-73871919D01*
X121468223Y-74029820D01*
X121879971Y-74030179D01*
X122260515Y-73872942D01*
X122364853Y-73768786D01*
X122364821Y-73804971D01*
X122522058Y-74185515D01*
X122812954Y-74476919D01*
X123193223Y-74634820D01*
X123604971Y-74635179D01*
X123985515Y-74477942D01*
X124276919Y-74187046D01*
X124434820Y-73806777D01*
X124435179Y-73395029D01*
X124369118Y-73235148D01*
X124404971Y-73235179D01*
X124785515Y-73077942D01*
X124848595Y-73014971D01*
X128094821Y-73014971D01*
X128252058Y-73395515D01*
X128542954Y-73686919D01*
X128923223Y-73844820D01*
X129334971Y-73845179D01*
X129715515Y-73687942D01*
X130006919Y-73397046D01*
X130164820Y-73016777D01*
X130165179Y-72605029D01*
X130007942Y-72224485D01*
X129717046Y-71933081D01*
X129336777Y-71775180D01*
X128925029Y-71774821D01*
X128544485Y-71932058D01*
X128253081Y-72222954D01*
X128095180Y-72603223D01*
X128094821Y-73014971D01*
X124848595Y-73014971D01*
X125076919Y-72787046D01*
X125234820Y-72406777D01*
X125235179Y-71995029D01*
X125077942Y-71614485D01*
X124837801Y-71373925D01*
X124860657Y-71364481D01*
X125306914Y-70919003D01*
X125548724Y-70336659D01*
X125549275Y-69706107D01*
X125308481Y-69123343D01*
X124863003Y-68677086D01*
X124280659Y-68435276D01*
X123650107Y-68434725D01*
X123067343Y-68675519D01*
X122693739Y-69048471D01*
X122323003Y-68677086D01*
X121740659Y-68435276D01*
X121528616Y-68435091D01*
X121676919Y-68287046D01*
X121794046Y-68004971D01*
X124964821Y-68004971D01*
X125122058Y-68385515D01*
X125412954Y-68676919D01*
X125793223Y-68834820D01*
X126204971Y-68835179D01*
X126278080Y-68804971D01*
X127064821Y-68804971D01*
X127222058Y-69185515D01*
X127512954Y-69476919D01*
X127893223Y-69634820D01*
X128304971Y-69635179D01*
X128468804Y-69567485D01*
X128323081Y-69712954D01*
X128165180Y-70093223D01*
X128164821Y-70504971D01*
X128322058Y-70885515D01*
X128612954Y-71176919D01*
X128993223Y-71334820D01*
X129404971Y-71335179D01*
X129720099Y-71204971D01*
X138764821Y-71204971D01*
X138922058Y-71585515D01*
X139212954Y-71876919D01*
X139593223Y-72034820D01*
X140004971Y-72035179D01*
X140385515Y-71877942D01*
X140676919Y-71587046D01*
X140834820Y-71206777D01*
X140835179Y-70795029D01*
X140677942Y-70414485D01*
X140387046Y-70123081D01*
X140006777Y-69965180D01*
X139595029Y-69964821D01*
X139214485Y-70122058D01*
X138923081Y-70412954D01*
X138765180Y-70793223D01*
X138764821Y-71204971D01*
X129720099Y-71204971D01*
X129785515Y-71177942D01*
X130076919Y-70887046D01*
X130234820Y-70506777D01*
X130235179Y-70095029D01*
X130077942Y-69714485D01*
X129787046Y-69423081D01*
X129406777Y-69265180D01*
X128995029Y-69264821D01*
X128831196Y-69332515D01*
X128976919Y-69187046D01*
X129134820Y-68806777D01*
X129135089Y-68498568D01*
X129412954Y-68776919D01*
X129793223Y-68934820D01*
X130204971Y-68935179D01*
X130585515Y-68777942D01*
X130876919Y-68487046D01*
X131034820Y-68106777D01*
X131035179Y-67695029D01*
X130877942Y-67314485D01*
X130587046Y-67023081D01*
X130543433Y-67004971D01*
X132464821Y-67004971D01*
X132622058Y-67385515D01*
X132912954Y-67676919D01*
X133293223Y-67834820D01*
X133704971Y-67835179D01*
X134085515Y-67677942D01*
X134376919Y-67387046D01*
X134534820Y-67006777D01*
X134535179Y-66595029D01*
X134377942Y-66214485D01*
X134087046Y-65923081D01*
X133706777Y-65765180D01*
X133295029Y-65764821D01*
X132914485Y-65922058D01*
X132623081Y-66212954D01*
X132465180Y-66593223D01*
X132464821Y-67004971D01*
X130543433Y-67004971D01*
X130206777Y-66865180D01*
X129795029Y-66864821D01*
X129414485Y-67022058D01*
X129123081Y-67312954D01*
X128965180Y-67693223D01*
X128964911Y-68001432D01*
X128687046Y-67723081D01*
X128306777Y-67565180D01*
X127895029Y-67564821D01*
X127514485Y-67722058D01*
X127223081Y-68012954D01*
X127065180Y-68393223D01*
X127064821Y-68804971D01*
X126278080Y-68804971D01*
X126585515Y-68677942D01*
X126876919Y-68387046D01*
X127034820Y-68006777D01*
X127035179Y-67595029D01*
X126877942Y-67214485D01*
X126587046Y-66923081D01*
X126206777Y-66765180D01*
X125795029Y-66764821D01*
X125414485Y-66922058D01*
X125123081Y-67212954D01*
X124965180Y-67593223D01*
X124964821Y-68004971D01*
X121794046Y-68004971D01*
X121834820Y-67906777D01*
X121835179Y-67495029D01*
X121677942Y-67114485D01*
X121387046Y-66823081D01*
X121006777Y-66665180D01*
X120595029Y-66664821D01*
X120214485Y-66822058D01*
X119923081Y-67112954D01*
X119765180Y-67493223D01*
X119764821Y-67904971D01*
X119922058Y-68285515D01*
X120212954Y-68576919D01*
X120504743Y-68698080D01*
X120153739Y-69048471D01*
X119783003Y-68677086D01*
X119220272Y-68443420D01*
X119376919Y-68287046D01*
X119534820Y-67906777D01*
X119535179Y-67495029D01*
X119377942Y-67114485D01*
X119087046Y-66823081D01*
X118706777Y-66665180D01*
X118295029Y-66664821D01*
X117914485Y-66822058D01*
X117623081Y-67112954D01*
X117465180Y-67493223D01*
X117464821Y-67904971D01*
X117622058Y-68285515D01*
X117912954Y-68576919D01*
X118069077Y-68641747D01*
X117987343Y-68675519D01*
X117613739Y-69048471D01*
X117243003Y-68677086D01*
X116774435Y-68482520D01*
X116785515Y-68477942D01*
X117076919Y-68187046D01*
X117234820Y-67806777D01*
X117235179Y-67395029D01*
X117077942Y-67014485D01*
X116787046Y-66723081D01*
X116406777Y-66565180D01*
X115995029Y-66564821D01*
X115614485Y-66722058D01*
X115607790Y-66728742D01*
X115477942Y-66414485D01*
X115187046Y-66123081D01*
X114806777Y-65965180D01*
X114395029Y-65964821D01*
X114014485Y-66122058D01*
X113723081Y-66412954D01*
X113565180Y-66793223D01*
X113564821Y-67204971D01*
X113722058Y-67585515D01*
X114012954Y-67876919D01*
X114164878Y-67940003D01*
X114164821Y-68004971D01*
X114322058Y-68385515D01*
X114549486Y-68613340D01*
X114120659Y-68435276D01*
X113490107Y-68434725D01*
X112907343Y-68675519D01*
X112533739Y-69048471D01*
X112163003Y-68677086D01*
X111580659Y-68435276D01*
X110950107Y-68434725D01*
X110367343Y-68675519D01*
X109993739Y-69048471D01*
X109623003Y-68677086D01*
X109040659Y-68435276D01*
X108529053Y-68434829D01*
X108576919Y-68387046D01*
X108734820Y-68006777D01*
X108735179Y-67595029D01*
X108577942Y-67214485D01*
X108287046Y-66923081D01*
X107906777Y-66765180D01*
X107495029Y-66764821D01*
X107114485Y-66922058D01*
X106823081Y-67212954D01*
X106665180Y-67593223D01*
X106664821Y-68004971D01*
X106822058Y-68385515D01*
X107112954Y-68676919D01*
X107493223Y-68834820D01*
X107667611Y-68834972D01*
X107453739Y-69048471D01*
X107083003Y-68677086D01*
X106500659Y-68435276D01*
X105870107Y-68434725D01*
X105287343Y-68675519D01*
X104913739Y-69048471D01*
X104543003Y-68677086D01*
X103960659Y-68435276D01*
X103330107Y-68434725D01*
X102747343Y-68675519D01*
X102373739Y-69048471D01*
X102003003Y-68677086D01*
X101420659Y-68435276D01*
X100790107Y-68434725D01*
X100207343Y-68675519D01*
X99833739Y-69048471D01*
X99463003Y-68677086D01*
X98880659Y-68435276D01*
X98250107Y-68434725D01*
X97667343Y-68675519D01*
X97293739Y-69048471D01*
X96923003Y-68677086D01*
X96340659Y-68435276D01*
X95710107Y-68434725D01*
X95127343Y-68675519D01*
X94753739Y-69048471D01*
X94383003Y-68677086D01*
X93800659Y-68435276D01*
X93170107Y-68434725D01*
X92587343Y-68675519D01*
X92147884Y-69114211D01*
X92060350Y-69083255D01*
X91123605Y-70020000D01*
X90764395Y-70020000D01*
X89827650Y-69083255D01*
X89565981Y-69175792D01*
X89347812Y-69767398D01*
X87127000Y-69767398D01*
X87127000Y-68903650D01*
X90007255Y-68903650D01*
X90944000Y-69840395D01*
X91880745Y-68903650D01*
X91788208Y-68641981D01*
X91196602Y-68423812D01*
X90566539Y-68448648D01*
X90099792Y-68641981D01*
X90007255Y-68903650D01*
X87127000Y-68903650D01*
X87127000Y-65127000D01*
X116000000Y-65127000D01*
X116049410Y-65116994D01*
X116091035Y-65088553D01*
X116118315Y-65046159D01*
X116127000Y-65000000D01*
X116127000Y-63704971D01*
X120364821Y-63704971D01*
X120522058Y-64085515D01*
X120812954Y-64376919D01*
X121193223Y-64534820D01*
X121604971Y-64535179D01*
X121985515Y-64377942D01*
X122276919Y-64087046D01*
X122434820Y-63706777D01*
X122435083Y-63404971D01*
X128064821Y-63404971D01*
X128222058Y-63785515D01*
X128512954Y-64076919D01*
X128893223Y-64234820D01*
X129304971Y-64235179D01*
X129685515Y-64077942D01*
X129976919Y-63787046D01*
X130134820Y-63406777D01*
X130135179Y-62995029D01*
X129977942Y-62614485D01*
X129687046Y-62323081D01*
X129306777Y-62165180D01*
X128895029Y-62164821D01*
X128514485Y-62322058D01*
X128223081Y-62612954D01*
X128065180Y-62993223D01*
X128064821Y-63404971D01*
X122435083Y-63404971D01*
X122435179Y-63295029D01*
X122277942Y-62914485D01*
X121987046Y-62623081D01*
X121606777Y-62465180D01*
X121195029Y-62464821D01*
X120814485Y-62622058D01*
X120523081Y-62912954D01*
X120365180Y-63293223D01*
X120364821Y-63704971D01*
X116127000Y-63704971D01*
X116127000Y-61804971D01*
X124264821Y-61804971D01*
X124422058Y-62185515D01*
X124712954Y-62476919D01*
X125093223Y-62634820D01*
X125504971Y-62635179D01*
X125885515Y-62477942D01*
X126176919Y-62187046D01*
X126334820Y-61806777D01*
X126335179Y-61395029D01*
X126177942Y-61014485D01*
X126168445Y-61004971D01*
X138564821Y-61004971D01*
X138722058Y-61385515D01*
X139012954Y-61676919D01*
X139393223Y-61834820D01*
X139804971Y-61835179D01*
X140185515Y-61677942D01*
X140476919Y-61387046D01*
X140634820Y-61006777D01*
X140635179Y-60595029D01*
X140515330Y-60304971D01*
X141664821Y-60304971D01*
X141822058Y-60685515D01*
X142112954Y-60976919D01*
X142493223Y-61134820D01*
X142904971Y-61135179D01*
X143285515Y-60977942D01*
X143576919Y-60687046D01*
X143734820Y-60306777D01*
X143735179Y-59895029D01*
X143577942Y-59514485D01*
X143287046Y-59223081D01*
X142906777Y-59065180D01*
X142495029Y-59064821D01*
X142114485Y-59222058D01*
X141823081Y-59512954D01*
X141665180Y-59893223D01*
X141664821Y-60304971D01*
X140515330Y-60304971D01*
X140477942Y-60214485D01*
X140454327Y-60190829D01*
X140485515Y-60177942D01*
X140776919Y-59887046D01*
X140934820Y-59506777D01*
X140935179Y-59095029D01*
X140777942Y-58714485D01*
X140487046Y-58423081D01*
X140106777Y-58265180D01*
X139695029Y-58264821D01*
X139314485Y-58422058D01*
X139023081Y-58712954D01*
X138865180Y-59093223D01*
X138864821Y-59504971D01*
X139022058Y-59885515D01*
X139045673Y-59909171D01*
X139014485Y-59922058D01*
X138723081Y-60212954D01*
X138565180Y-60593223D01*
X138564821Y-61004971D01*
X126168445Y-61004971D01*
X125887046Y-60723081D01*
X125506777Y-60565180D01*
X125095029Y-60564821D01*
X124714485Y-60722058D01*
X124423081Y-61012954D01*
X124265180Y-61393223D01*
X124264821Y-61804971D01*
X116127000Y-61804971D01*
X116127000Y-59504971D01*
X136564821Y-59504971D01*
X136722058Y-59885515D01*
X137012954Y-60176919D01*
X137393223Y-60334820D01*
X137804971Y-60335179D01*
X138185515Y-60177942D01*
X138476919Y-59887046D01*
X138634820Y-59506777D01*
X138635179Y-59095029D01*
X138477942Y-58714485D01*
X138187046Y-58423081D01*
X137806777Y-58265180D01*
X137395029Y-58264821D01*
X137014485Y-58422058D01*
X136723081Y-58712954D01*
X136565180Y-59093223D01*
X136564821Y-59504971D01*
X116127000Y-59504971D01*
X116127000Y-58354971D01*
X122964821Y-58354971D01*
X123122058Y-58735515D01*
X123412954Y-59026919D01*
X123793223Y-59184820D01*
X124204971Y-59185179D01*
X124585515Y-59027942D01*
X124876919Y-58737046D01*
X125034820Y-58356777D01*
X125035179Y-57945029D01*
X124877942Y-57564485D01*
X124587046Y-57273081D01*
X124206777Y-57115180D01*
X123795029Y-57114821D01*
X123414485Y-57272058D01*
X123123081Y-57562954D01*
X122965180Y-57943223D01*
X122964821Y-58354971D01*
X116127000Y-58354971D01*
X116127000Y-57435024D01*
X116304971Y-57435179D01*
X116685515Y-57277942D01*
X116900032Y-57063799D01*
X117012954Y-57176919D01*
X117393223Y-57334820D01*
X117804971Y-57335179D01*
X118185515Y-57177942D01*
X118476919Y-56887046D01*
X118634820Y-56506777D01*
X118634944Y-56364783D01*
X119064943Y-56365159D01*
X119064821Y-56504971D01*
X119222058Y-56885515D01*
X119512954Y-57176919D01*
X119893223Y-57334820D01*
X120304971Y-57335179D01*
X120685515Y-57177942D01*
X120976919Y-56887046D01*
X121134820Y-56506777D01*
X121134944Y-56364748D01*
X121664943Y-56365211D01*
X121664821Y-56504971D01*
X121822058Y-56885515D01*
X122112954Y-57176919D01*
X122493223Y-57334820D01*
X122904971Y-57335179D01*
X123285515Y-57177942D01*
X123576919Y-56887046D01*
X123734820Y-56506777D01*
X123734944Y-56364801D01*
X124277893Y-56365275D01*
X124860657Y-56124481D01*
X125306914Y-55679003D01*
X125548724Y-55096659D01*
X125549275Y-54466107D01*
X125308481Y-53883343D01*
X124863003Y-53437086D01*
X124280659Y-53195276D01*
X123650107Y-53194725D01*
X123067343Y-53435519D01*
X122693739Y-53808471D01*
X122323003Y-53437086D01*
X121740659Y-53195276D01*
X121110107Y-53194725D01*
X120527343Y-53435519D01*
X120153739Y-53808471D01*
X119783003Y-53437086D01*
X119200659Y-53195276D01*
X118570107Y-53194725D01*
X117987343Y-53435519D01*
X117613739Y-53808471D01*
X117243003Y-53437086D01*
X116660659Y-53195276D01*
X116127000Y-53194810D01*
X116127000Y-51104971D01*
X128664821Y-51104971D01*
X128822058Y-51485515D01*
X129112954Y-51776919D01*
X129493223Y-51934820D01*
X129904971Y-51935179D01*
X130285515Y-51777942D01*
X130576919Y-51487046D01*
X130734820Y-51106777D01*
X130735179Y-50695029D01*
X130577942Y-50314485D01*
X130287046Y-50023081D01*
X129906777Y-49865180D01*
X129495029Y-49864821D01*
X129114485Y-50022058D01*
X128823081Y-50312954D01*
X128665180Y-50693223D01*
X128664821Y-51104971D01*
X116127000Y-51104971D01*
X116127000Y-50200000D01*
X116116994Y-50150590D01*
X116088553Y-50108965D01*
X116046159Y-50081685D01*
X116000000Y-50073000D01*
X114000000Y-50073000D01*
X113950590Y-50083006D01*
X113908965Y-50111447D01*
X113881685Y-50153841D01*
X113873000Y-50200000D01*
X113873000Y-53195060D01*
X113490107Y-53194725D01*
X112907343Y-53435519D01*
X112533739Y-53808471D01*
X112163003Y-53437086D01*
X111580659Y-53195276D01*
X110950107Y-53194725D01*
X110367343Y-53435519D01*
X109993739Y-53808471D01*
X109623003Y-53437086D01*
X109040659Y-53195276D01*
X108410107Y-53194725D01*
X107827343Y-53435519D01*
X107453739Y-53808471D01*
X107083003Y-53437086D01*
X106500659Y-53195276D01*
X105870107Y-53194725D01*
X105491885Y-53351004D01*
X105634820Y-53006777D01*
X105635179Y-52595029D01*
X105477942Y-52214485D01*
X105187046Y-51923081D01*
X104806777Y-51765180D01*
X104395029Y-51764821D01*
X104014485Y-51922058D01*
X103723081Y-52212954D01*
X103565180Y-52593223D01*
X103564821Y-53004971D01*
X103643339Y-53194999D01*
X103330107Y-53194725D01*
X102747343Y-53435519D01*
X102373739Y-53808471D01*
X102164615Y-53598980D01*
X102376919Y-53387046D01*
X102534820Y-53006777D01*
X102535179Y-52595029D01*
X102377942Y-52214485D01*
X102087046Y-51923081D01*
X101706777Y-51765180D01*
X101295029Y-51764821D01*
X100914485Y-51922058D01*
X100623081Y-52212954D01*
X100465180Y-52593223D01*
X100464821Y-53004971D01*
X100579228Y-53281859D01*
X100207343Y-53435519D01*
X99833739Y-53808471D01*
X99463003Y-53437086D01*
X98880659Y-53195276D01*
X98818729Y-53195222D01*
X98826919Y-53187046D01*
X98984820Y-52806777D01*
X98985179Y-52395029D01*
X98827942Y-52014485D01*
X98537046Y-51723081D01*
X98252605Y-51604971D01*
X108564821Y-51604971D01*
X108722058Y-51985515D01*
X109012954Y-52276919D01*
X109393223Y-52434820D01*
X109804971Y-52435179D01*
X110185515Y-52277942D01*
X110249857Y-52213712D01*
X110312954Y-52276919D01*
X110693223Y-52434820D01*
X111104971Y-52435179D01*
X111485515Y-52277942D01*
X111776919Y-51987046D01*
X111934820Y-51606777D01*
X111935179Y-51195029D01*
X111777942Y-50814485D01*
X111487046Y-50523081D01*
X111106777Y-50365180D01*
X110695029Y-50364821D01*
X110314485Y-50522058D01*
X110250143Y-50586288D01*
X110187046Y-50523081D01*
X109806777Y-50365180D01*
X109395029Y-50364821D01*
X109014485Y-50522058D01*
X108723081Y-50812954D01*
X108565180Y-51193223D01*
X108564821Y-51604971D01*
X98252605Y-51604971D01*
X98156777Y-51565180D01*
X97745029Y-51564821D01*
X97364485Y-51722058D01*
X97073081Y-52012954D01*
X96915180Y-52393223D01*
X96914821Y-52804971D01*
X97072058Y-53185515D01*
X97362954Y-53476919D01*
X97548635Y-53554020D01*
X97293739Y-53808471D01*
X96923003Y-53437086D01*
X96340659Y-53195276D01*
X95710107Y-53194725D01*
X95127343Y-53435519D01*
X94753739Y-53808471D01*
X94383003Y-53437086D01*
X93800659Y-53195276D01*
X93170107Y-53194725D01*
X92587343Y-53435519D01*
X92213739Y-53808471D01*
X91843003Y-53437086D01*
X91260659Y-53195276D01*
X90630107Y-53194725D01*
X90047343Y-53435519D01*
X89601086Y-53880997D01*
X89359276Y-54463341D01*
X89358725Y-55093893D01*
X89599519Y-55676657D01*
X90044997Y-56122914D01*
X90627341Y-56364724D01*
X91257893Y-56365275D01*
X91840657Y-56124481D01*
X92214261Y-55751529D01*
X92584997Y-56122914D01*
X93167341Y-56364724D01*
X93797893Y-56365275D01*
X94380657Y-56124481D01*
X94754261Y-55751529D01*
X95124997Y-56122914D01*
X95707341Y-56364724D01*
X96337893Y-56365275D01*
X96920657Y-56124481D01*
X97294261Y-55751529D01*
X97592471Y-56050261D01*
X97221086Y-56420997D01*
X96979276Y-57003341D01*
X96978725Y-57633893D01*
X97219519Y-58216657D01*
X97664997Y-58662914D01*
X98247341Y-58904724D01*
X98877893Y-58905275D01*
X99460657Y-58664481D01*
X99834261Y-58291529D01*
X100204997Y-58662914D01*
X100787341Y-58904724D01*
X101417893Y-58905275D01*
X102000657Y-58664481D01*
X102374261Y-58291529D01*
X102744997Y-58662914D01*
X103327341Y-58904724D01*
X103957893Y-58905275D01*
X104540657Y-58664481D01*
X104986914Y-58219003D01*
X105228724Y-57636659D01*
X105229275Y-57006107D01*
X104988481Y-56423343D01*
X104615529Y-56049739D01*
X104914261Y-55751529D01*
X105284997Y-56122914D01*
X105867341Y-56364724D01*
X106497893Y-56365275D01*
X107080657Y-56124481D01*
X107454261Y-55751529D01*
X107824997Y-56122914D01*
X108407341Y-56364724D01*
X109037893Y-56365275D01*
X109620657Y-56124481D01*
X109994261Y-55751529D01*
X110364997Y-56122914D01*
X110947341Y-56364724D01*
X111577893Y-56365275D01*
X111965170Y-56205255D01*
X111964821Y-56604971D01*
X112122058Y-56985515D01*
X112412954Y-57276919D01*
X112793223Y-57434820D01*
X113204971Y-57435179D01*
X113585515Y-57277942D01*
X113850206Y-57013712D01*
X113873000Y-57036546D01*
X113873000Y-62873000D01*
X85000000Y-62873000D01*
X84950590Y-62883006D01*
X84908965Y-62911447D01*
X84881685Y-62953841D01*
X84873000Y-63000000D01*
X84873000Y-73873000D01*
X66127000Y-73873000D01*
X66127000Y-65552263D01*
X66265585Y-65759670D01*
X66751766Y-66084526D01*
X67325255Y-66198600D01*
X67694745Y-66198600D01*
X68268234Y-66084526D01*
X68653233Y-65827278D01*
X68616887Y-66010000D01*
X68726120Y-66559151D01*
X69037189Y-67024698D01*
X69419275Y-67280000D01*
X69037189Y-67535302D01*
X68726120Y-68000849D01*
X68616887Y-68550000D01*
X68726120Y-69099151D01*
X69037189Y-69564698D01*
X69419275Y-69820000D01*
X69037189Y-70075302D01*
X68726120Y-70540849D01*
X68616887Y-71090000D01*
X68726120Y-71639151D01*
X69037189Y-72104698D01*
X69502736Y-72415767D01*
X70051887Y-72525000D01*
X70108113Y-72525000D01*
X70657264Y-72415767D01*
X71122811Y-72104698D01*
X71433880Y-71639151D01*
X71543113Y-71090000D01*
X71433880Y-70540849D01*
X71122811Y-70075302D01*
X70740725Y-69820000D01*
X71122811Y-69564698D01*
X71433880Y-69099151D01*
X71543113Y-68550000D01*
X71433880Y-68000849D01*
X71122811Y-67535302D01*
X70740725Y-67280000D01*
X71122811Y-67024698D01*
X71433880Y-66559151D01*
X71543113Y-66010000D01*
X71433880Y-65460849D01*
X71122811Y-64995302D01*
X70718297Y-64725014D01*
X70935134Y-64622389D01*
X71311041Y-64207423D01*
X71471904Y-63819039D01*
X71349915Y-63597000D01*
X70207000Y-63597000D01*
X70207000Y-63617000D01*
X69953000Y-63617000D01*
X69953000Y-63597000D01*
X68810085Y-63597000D01*
X68771901Y-63666500D01*
X68754415Y-63640330D01*
X68439634Y-63430000D01*
X68745573Y-63225578D01*
X68810085Y-63343000D01*
X69953000Y-63343000D01*
X69953000Y-63323000D01*
X70207000Y-63323000D01*
X70207000Y-63343000D01*
X71349915Y-63343000D01*
X71471904Y-63120961D01*
X71311041Y-62732577D01*
X70935134Y-62317611D01*
X70718297Y-62214986D01*
X71122811Y-61944698D01*
X71186119Y-61849950D01*
X71262954Y-61926919D01*
X71643223Y-62084820D01*
X72054971Y-62085179D01*
X72435515Y-61927942D01*
X72726919Y-61637046D01*
X72884820Y-61256777D01*
X72885179Y-60845029D01*
X72727942Y-60464485D01*
X72437046Y-60173081D01*
X72056777Y-60015180D01*
X71645029Y-60014821D01*
X71287904Y-60162381D01*
X71122811Y-59915302D01*
X70740725Y-59660000D01*
X71122811Y-59404698D01*
X71433880Y-58939151D01*
X71543113Y-58390000D01*
X71433880Y-57840849D01*
X71122811Y-57375302D01*
X70740725Y-57120000D01*
X71122811Y-56864698D01*
X71433880Y-56399151D01*
X71543113Y-55850000D01*
X76236887Y-55850000D01*
X76346120Y-56399151D01*
X76657189Y-56864698D01*
X77039275Y-57120000D01*
X76657189Y-57375302D01*
X76346120Y-57840849D01*
X76236887Y-58390000D01*
X76346120Y-58939151D01*
X76657189Y-59404698D01*
X77039275Y-59660000D01*
X76657189Y-59915302D01*
X76346120Y-60380849D01*
X76236887Y-60930000D01*
X76346120Y-61479151D01*
X76657189Y-61944698D01*
X77039275Y-62200000D01*
X76657189Y-62455302D01*
X76346120Y-62920849D01*
X76236887Y-63470000D01*
X76346120Y-64019151D01*
X76657189Y-64484698D01*
X77039275Y-64740000D01*
X76657189Y-64995302D01*
X76346120Y-65460849D01*
X76236887Y-66010000D01*
X76346120Y-66559151D01*
X76657189Y-67024698D01*
X77039275Y-67280000D01*
X76657189Y-67535302D01*
X76346120Y-68000849D01*
X76236887Y-68550000D01*
X76346120Y-69099151D01*
X76657189Y-69564698D01*
X77039275Y-69820000D01*
X76657189Y-70075302D01*
X76346120Y-70540849D01*
X76236887Y-71090000D01*
X76346120Y-71639151D01*
X76657189Y-72104698D01*
X77122736Y-72415767D01*
X77671887Y-72525000D01*
X77728113Y-72525000D01*
X78277264Y-72415767D01*
X78742811Y-72104698D01*
X79053880Y-71639151D01*
X79163113Y-71090000D01*
X79053880Y-70540849D01*
X78742811Y-70075302D01*
X78360725Y-69820000D01*
X78742811Y-69564698D01*
X79053880Y-69099151D01*
X79163113Y-68550000D01*
X79053880Y-68000849D01*
X78742811Y-67535302D01*
X78360725Y-67280000D01*
X78742811Y-67024698D01*
X79053880Y-66559151D01*
X79163113Y-66010000D01*
X79135964Y-65873514D01*
X79451766Y-66084526D01*
X80025255Y-66198600D01*
X80394745Y-66198600D01*
X80968234Y-66084526D01*
X81454415Y-65759670D01*
X81779271Y-65273489D01*
X81893345Y-64700000D01*
X81779271Y-64126511D01*
X81454415Y-63640330D01*
X81139634Y-63430000D01*
X81454415Y-63219670D01*
X81779271Y-62733489D01*
X81893345Y-62160000D01*
X81802835Y-61704971D01*
X84964821Y-61704971D01*
X85122058Y-62085515D01*
X85412954Y-62376919D01*
X85793223Y-62534820D01*
X86204971Y-62535179D01*
X86585515Y-62377942D01*
X86876919Y-62087046D01*
X87034820Y-61706777D01*
X87035179Y-61295029D01*
X86877942Y-60914485D01*
X86587046Y-60623081D01*
X86206777Y-60465180D01*
X85795029Y-60464821D01*
X85414485Y-60622058D01*
X85123081Y-60912954D01*
X84965180Y-61293223D01*
X84964821Y-61704971D01*
X81802835Y-61704971D01*
X81779271Y-61586511D01*
X81454415Y-61100330D01*
X81139634Y-60890000D01*
X81454415Y-60679670D01*
X81779271Y-60193489D01*
X81893345Y-59620000D01*
X81779271Y-59046511D01*
X81454415Y-58560330D01*
X81440087Y-58550757D01*
X81461317Y-58546762D01*
X81677441Y-58407690D01*
X81822431Y-58195490D01*
X81873440Y-57943600D01*
X81873440Y-56216400D01*
X81829162Y-55981083D01*
X81690090Y-55764959D01*
X81477890Y-55619969D01*
X81226000Y-55568960D01*
X80584429Y-55568960D01*
X80734820Y-55206777D01*
X80735179Y-54795029D01*
X80577942Y-54414485D01*
X80287046Y-54123081D01*
X79906777Y-53965180D01*
X79495029Y-53964821D01*
X79114485Y-54122058D01*
X78823081Y-54412954D01*
X78668363Y-54785557D01*
X78277264Y-54524233D01*
X77728113Y-54415000D01*
X77671887Y-54415000D01*
X77122736Y-54524233D01*
X76657189Y-54835302D01*
X76346120Y-55300849D01*
X76236887Y-55850000D01*
X71543113Y-55850000D01*
X71433880Y-55300849D01*
X71122811Y-54835302D01*
X70657264Y-54524233D01*
X70108113Y-54415000D01*
X70051887Y-54415000D01*
X69502736Y-54524233D01*
X69037189Y-54835302D01*
X68726120Y-55300849D01*
X68667106Y-55597535D01*
X68526000Y-55568960D01*
X66494000Y-55568960D01*
X66258683Y-55613238D01*
X66127000Y-55697974D01*
X66127000Y-51254971D01*
X71264821Y-51254971D01*
X71422058Y-51635515D01*
X71712954Y-51926919D01*
X72093223Y-52084820D01*
X72504971Y-52085179D01*
X72885515Y-51927942D01*
X73158962Y-51654971D01*
X80764821Y-51654971D01*
X80922058Y-52035515D01*
X81212954Y-52326919D01*
X81593223Y-52484820D01*
X82004971Y-52485179D01*
X82385515Y-52327942D01*
X82676919Y-52037046D01*
X82834820Y-51656777D01*
X82835179Y-51245029D01*
X82677942Y-50864485D01*
X82387046Y-50573081D01*
X82006777Y-50415180D01*
X81595029Y-50414821D01*
X81214485Y-50572058D01*
X80923081Y-50862954D01*
X80765180Y-51243223D01*
X80764821Y-51654971D01*
X73158962Y-51654971D01*
X73176919Y-51637046D01*
X73334820Y-51256777D01*
X73335179Y-50845029D01*
X73177942Y-50464485D01*
X72887046Y-50173081D01*
X72506777Y-50015180D01*
X72095029Y-50014821D01*
X71714485Y-50172058D01*
X71423081Y-50462954D01*
X71265180Y-50843223D01*
X71264821Y-51254971D01*
X66127000Y-51254971D01*
X66127000Y-47627000D01*
X111144544Y-47627000D01*
X110914485Y-47722058D01*
X110623081Y-48012954D01*
X110465180Y-48393223D01*
X110464821Y-48804971D01*
X110622058Y-49185515D01*
X110912954Y-49476919D01*
X111293223Y-49634820D01*
X111704971Y-49635179D01*
X112085515Y-49477942D01*
X112376919Y-49187046D01*
X112427226Y-49065892D01*
X112593223Y-49134820D01*
X113004971Y-49135179D01*
X113385515Y-48977942D01*
X113676919Y-48687046D01*
X113810655Y-48364971D01*
X121614821Y-48364971D01*
X121772058Y-48745515D01*
X122062954Y-49036919D01*
X122443223Y-49194820D01*
X122854971Y-49195179D01*
X123235515Y-49037942D01*
X123526919Y-48747046D01*
X123652351Y-48444971D01*
X129964821Y-48444971D01*
X130122058Y-48825515D01*
X130412954Y-49116919D01*
X130793223Y-49274820D01*
X131204971Y-49275179D01*
X131585515Y-49117942D01*
X131876919Y-48827046D01*
X131927608Y-48704971D01*
X134764821Y-48704971D01*
X134922058Y-49085515D01*
X135212954Y-49376919D01*
X135593223Y-49534820D01*
X136004971Y-49535179D01*
X136385515Y-49377942D01*
X136676919Y-49087046D01*
X136834820Y-48706777D01*
X136834995Y-48504971D01*
X138164821Y-48504971D01*
X138322058Y-48885515D01*
X138612954Y-49176919D01*
X138993223Y-49334820D01*
X139404971Y-49335179D01*
X139785515Y-49177942D01*
X140076919Y-48887046D01*
X140234820Y-48506777D01*
X140235179Y-48095029D01*
X140077942Y-47714485D01*
X139787046Y-47423081D01*
X139406777Y-47265180D01*
X138995029Y-47264821D01*
X138614485Y-47422058D01*
X138323081Y-47712954D01*
X138165180Y-48093223D01*
X138164821Y-48504971D01*
X136834995Y-48504971D01*
X136835179Y-48295029D01*
X136677942Y-47914485D01*
X136387046Y-47623081D01*
X136006777Y-47465180D01*
X135595029Y-47464821D01*
X135214485Y-47622058D01*
X134923081Y-47912954D01*
X134765180Y-48293223D01*
X134764821Y-48704971D01*
X131927608Y-48704971D01*
X132034820Y-48446777D01*
X132035179Y-48035029D01*
X131877942Y-47654485D01*
X131587046Y-47363081D01*
X131206777Y-47205180D01*
X130795029Y-47204821D01*
X130414485Y-47362058D01*
X130123081Y-47652954D01*
X129965180Y-48033223D01*
X129964821Y-48444971D01*
X123652351Y-48444971D01*
X123684820Y-48366777D01*
X123685179Y-47955029D01*
X123527942Y-47574485D01*
X123237046Y-47283081D01*
X122856777Y-47125180D01*
X122445029Y-47124821D01*
X122064485Y-47282058D01*
X121773081Y-47572954D01*
X121615180Y-47953223D01*
X121614821Y-48364971D01*
X113810655Y-48364971D01*
X113834820Y-48306777D01*
X113835179Y-47895029D01*
X113724432Y-47627000D01*
X116000000Y-47627000D01*
X116049410Y-47616994D01*
X116091035Y-47588553D01*
X116118315Y-47546159D01*
X116127000Y-47500000D01*
X116127000Y-43685000D01*
X124000000Y-43685000D01*
X124262138Y-43632857D01*
X124484368Y-43484368D01*
X124632857Y-43262138D01*
X124659738Y-43127000D01*
X144373000Y-43127000D01*
X144373000Y-51367249D01*
G36*
X69419275Y-59660000D02*
X69071958Y-59892070D01*
X68996217Y-59747000D01*
X67637000Y-59747000D01*
X67637000Y-59767000D01*
X67383000Y-59767000D01*
X67383000Y-59747000D01*
X67363000Y-59747000D01*
X67363000Y-59493000D01*
X67383000Y-59493000D01*
X67383000Y-59473000D01*
X67637000Y-59473000D01*
X67637000Y-59493000D01*
X68996217Y-59493000D01*
X69040993Y-59407240D01*
X69419275Y-59660000D01*
X69419275Y-59660000D01*
G37*
X69419275Y-59660000D02*
X69071958Y-59892070D01*
X68996217Y-59747000D01*
X67637000Y-59747000D01*
X67637000Y-59767000D01*
X67383000Y-59767000D01*
X67383000Y-59747000D01*
X67363000Y-59747000D01*
X67363000Y-59493000D01*
X67383000Y-59493000D01*
X67383000Y-59473000D01*
X67637000Y-59473000D01*
X67637000Y-59493000D01*
X68996217Y-59493000D01*
X69040993Y-59407240D01*
X69419275Y-59660000D01*
G36*
X135013621Y-21818503D02*
X134848119Y-22295864D01*
X134877894Y-22800223D01*
X135013621Y-23127897D01*
X135242667Y-23181728D01*
X135951195Y-22473200D01*
X135937053Y-22459058D01*
X136116658Y-22279453D01*
X136130800Y-22293595D01*
X136144943Y-22279453D01*
X136324548Y-22459058D01*
X136310405Y-22473200D01*
X137018933Y-23181728D01*
X137247979Y-23127897D01*
X137256999Y-23101879D01*
X142281484Y-23101879D01*
X144000000Y-24820395D01*
X145718516Y-23101879D01*
X145493846Y-22727832D01*
X144510612Y-22329120D01*
X143449643Y-22337025D01*
X142506154Y-22727832D01*
X142281484Y-23101879D01*
X137256999Y-23101879D01*
X137413481Y-22650536D01*
X137383706Y-22146177D01*
X137247979Y-21818503D01*
X137071388Y-21777000D01*
X147223000Y-21777000D01*
X147223000Y-112223000D01*
X64777000Y-112223000D01*
X64777000Y-110898121D01*
X66281484Y-110898121D01*
X66506154Y-111272168D01*
X67489388Y-111670880D01*
X68550357Y-111662975D01*
X69493846Y-111272168D01*
X69718516Y-110898121D01*
X142281484Y-110898121D01*
X142506154Y-111272168D01*
X143489388Y-111670880D01*
X144550357Y-111662975D01*
X145493846Y-111272168D01*
X145718516Y-110898121D01*
X144000000Y-109179605D01*
X142281484Y-110898121D01*
X69718516Y-110898121D01*
X68000000Y-109179605D01*
X66281484Y-110898121D01*
X64777000Y-110898121D01*
X64777000Y-108489388D01*
X65329120Y-108489388D01*
X65337025Y-109550357D01*
X65727832Y-110493846D01*
X66101879Y-110718516D01*
X67820395Y-109000000D01*
X66101879Y-107281484D01*
X65727832Y-107506154D01*
X65329120Y-108489388D01*
X64777000Y-108489388D01*
X64777000Y-91000000D01*
X64717854Y-90702655D01*
X64549422Y-90450578D01*
X64297345Y-90282146D01*
X64000000Y-90223000D01*
X33777000Y-90223000D01*
X33777000Y-84427024D01*
X33973191Y-84427195D01*
X34387560Y-84255981D01*
X34650180Y-83993819D01*
X34910772Y-84254867D01*
X35324842Y-84426804D01*
X35773191Y-84427195D01*
X36187560Y-84255981D01*
X36504867Y-83939228D01*
X36676804Y-83525158D01*
X36677195Y-83076809D01*
X36505981Y-82662440D01*
X36189228Y-82345133D01*
X35775158Y-82173196D01*
X35326809Y-82172805D01*
X34912440Y-82344019D01*
X34649820Y-82606181D01*
X34389228Y-82345133D01*
X33975158Y-82173196D01*
X33777000Y-82173023D01*
X33777000Y-70242763D01*
X34891472Y-70242763D01*
X34945303Y-70471809D01*
X35422664Y-70637311D01*
X35927023Y-70607536D01*
X36254697Y-70471809D01*
X36308528Y-70242763D01*
X35600000Y-69534235D01*
X34891472Y-70242763D01*
X33777000Y-70242763D01*
X33777000Y-69177294D01*
X34317319Y-69177294D01*
X34347094Y-69681653D01*
X34482821Y-70009327D01*
X34711867Y-70063158D01*
X35420395Y-69354630D01*
X35779605Y-69354630D01*
X36488133Y-70063158D01*
X36717179Y-70009327D01*
X36882681Y-69531966D01*
X36852906Y-69027607D01*
X36717179Y-68699933D01*
X36488133Y-68646102D01*
X35779605Y-69354630D01*
X35420395Y-69354630D01*
X34711867Y-68646102D01*
X34482821Y-68699933D01*
X34317319Y-69177294D01*
X33777000Y-69177294D01*
X33777000Y-68466497D01*
X34891472Y-68466497D01*
X35600000Y-69175025D01*
X36308528Y-68466497D01*
X36254697Y-68237451D01*
X35777336Y-68071949D01*
X35272977Y-68101724D01*
X34945303Y-68237451D01*
X34891472Y-68466497D01*
X33777000Y-68466497D01*
X33777000Y-64730963D01*
X34891472Y-64730963D01*
X34945303Y-64960009D01*
X35422664Y-65125511D01*
X35927023Y-65095736D01*
X36254697Y-64960009D01*
X36308528Y-64730963D01*
X36300756Y-64723191D01*
X45872805Y-64723191D01*
X46044019Y-65137560D01*
X46360772Y-65454867D01*
X46774842Y-65626804D01*
X47223191Y-65627195D01*
X47637560Y-65455981D01*
X47954867Y-65139228D01*
X48126804Y-64725158D01*
X48127195Y-64276809D01*
X47955981Y-63862440D01*
X47639228Y-63545133D01*
X47225158Y-63373196D01*
X46776809Y-63372805D01*
X46362440Y-63544019D01*
X46045133Y-63860772D01*
X45873196Y-64274842D01*
X45872805Y-64723191D01*
X36300756Y-64723191D01*
X35600000Y-64022435D01*
X34891472Y-64730963D01*
X33777000Y-64730963D01*
X33777000Y-63665494D01*
X34317319Y-63665494D01*
X34347094Y-64169853D01*
X34482821Y-64497527D01*
X34711867Y-64551358D01*
X35420395Y-63842830D01*
X35779605Y-63842830D01*
X36488133Y-64551358D01*
X36717179Y-64497527D01*
X36882681Y-64020166D01*
X36852906Y-63515807D01*
X36717179Y-63188133D01*
X36488133Y-63134302D01*
X35779605Y-63842830D01*
X35420395Y-63842830D01*
X34711867Y-63134302D01*
X34482821Y-63188133D01*
X34317319Y-63665494D01*
X33777000Y-63665494D01*
X33777000Y-62954697D01*
X34891472Y-62954697D01*
X35600000Y-63663225D01*
X36308528Y-62954697D01*
X36254697Y-62725651D01*
X35777336Y-62560149D01*
X35272977Y-62589924D01*
X34945303Y-62725651D01*
X34891472Y-62954697D01*
X33777000Y-62954697D01*
X33777000Y-43777000D01*
X113873000Y-43777000D01*
X113873000Y-45873000D01*
X52000000Y-45873000D01*
X51950590Y-45883006D01*
X51908965Y-45911447D01*
X51881685Y-45953841D01*
X51873000Y-46000000D01*
X51873000Y-65333128D01*
X51745133Y-65460772D01*
X51573196Y-65874842D01*
X51572805Y-66323191D01*
X51744019Y-66737560D01*
X51873000Y-66866767D01*
X51873000Y-69873000D01*
X40000000Y-69873000D01*
X39950590Y-69883006D01*
X39908965Y-69911447D01*
X39881685Y-69953841D01*
X39873000Y-70000000D01*
X39873000Y-81608758D01*
X38200000Y-81608758D01*
X37930590Y-81659451D01*
X37683154Y-81818672D01*
X37517157Y-82061615D01*
X37458758Y-82350000D01*
X37458758Y-84050000D01*
X37509451Y-84319410D01*
X37668672Y-84566846D01*
X37911615Y-84732843D01*
X38200000Y-84791242D01*
X39873000Y-84791242D01*
X39873000Y-88000000D01*
X39883006Y-88049410D01*
X39911447Y-88091035D01*
X39953841Y-88118315D01*
X40000000Y-88127000D01*
X66873000Y-88127000D01*
X66873000Y-100799478D01*
X66633990Y-100844451D01*
X66386554Y-101003672D01*
X66220557Y-101246615D01*
X66162158Y-101535000D01*
X66162158Y-103567000D01*
X66212851Y-103836410D01*
X66372072Y-104083846D01*
X66615015Y-104249843D01*
X66873000Y-104302086D01*
X66873000Y-106575879D01*
X66506154Y-106727832D01*
X66281484Y-107101879D01*
X68000000Y-108820395D01*
X68014143Y-108806253D01*
X68193748Y-108985858D01*
X68179605Y-109000000D01*
X69898121Y-110718516D01*
X70272168Y-110493846D01*
X70670880Y-109510612D01*
X70662975Y-108449643D01*
X70272168Y-107506154D01*
X69898123Y-107281485D01*
X70010845Y-107168763D01*
X69969082Y-107127000D01*
X142030918Y-107127000D01*
X141989155Y-107168763D01*
X142101877Y-107281485D01*
X141727832Y-107506154D01*
X141329120Y-108489388D01*
X141337025Y-109550357D01*
X141727832Y-110493846D01*
X142101879Y-110718516D01*
X143820395Y-109000000D01*
X144179605Y-109000000D01*
X145898121Y-110718516D01*
X146272168Y-110493846D01*
X146670880Y-109510612D01*
X146662975Y-108449643D01*
X146272168Y-107506154D01*
X145898121Y-107281484D01*
X144179605Y-109000000D01*
X143820395Y-109000000D01*
X143806253Y-108985858D01*
X143985858Y-108806253D01*
X144000000Y-108820395D01*
X145718516Y-107101879D01*
X145627000Y-106949516D01*
X145627000Y-71866697D01*
X145854867Y-71639228D01*
X146026804Y-71225158D01*
X146027195Y-70776809D01*
X145855981Y-70362440D01*
X145627000Y-70133059D01*
X145627000Y-42000000D01*
X145616994Y-41950590D01*
X145588553Y-41908965D01*
X145546159Y-41881685D01*
X145500000Y-41873000D01*
X124777000Y-41873000D01*
X124777000Y-40923171D01*
X140872805Y-40923171D01*
X141044019Y-41337540D01*
X141360772Y-41654847D01*
X141774842Y-41826784D01*
X142223191Y-41827175D01*
X142637560Y-41655961D01*
X142954867Y-41339208D01*
X143126804Y-40925138D01*
X143127195Y-40476789D01*
X142955981Y-40062420D01*
X142639228Y-39745113D01*
X142225158Y-39573176D01*
X141776809Y-39572785D01*
X141362440Y-39743999D01*
X141045133Y-40060752D01*
X140873196Y-40474822D01*
X140872805Y-40923171D01*
X124777000Y-40923171D01*
X124777000Y-27801791D01*
X128602805Y-27801791D01*
X128774019Y-28216160D01*
X129090772Y-28533467D01*
X129504842Y-28705404D01*
X129953191Y-28705795D01*
X130365502Y-28535431D01*
X130774842Y-28705404D01*
X131214473Y-28705787D01*
X131143196Y-28877442D01*
X131142805Y-29325791D01*
X131314019Y-29740160D01*
X131630772Y-30057467D01*
X132044842Y-30229404D01*
X132197489Y-30229537D01*
X132162440Y-30244019D01*
X131845133Y-30560772D01*
X131673196Y-30974842D01*
X131672805Y-31423191D01*
X131844019Y-31837560D01*
X132160772Y-32154867D01*
X132574842Y-32326804D01*
X133023191Y-32327195D01*
X133437560Y-32155981D01*
X133754867Y-31839228D01*
X133926804Y-31425158D01*
X133927195Y-30976809D01*
X133755981Y-30562440D01*
X133439228Y-30245133D01*
X133401530Y-30229480D01*
X133763191Y-30229795D01*
X134177560Y-30058581D01*
X134494867Y-29741828D01*
X134666804Y-29327758D01*
X134667195Y-28879409D01*
X134495981Y-28465040D01*
X134371819Y-28340661D01*
X134494867Y-28217828D01*
X134666804Y-27803758D01*
X134667195Y-27355409D01*
X134495981Y-26941040D01*
X134453137Y-26898121D01*
X142281484Y-26898121D01*
X142506154Y-27272168D01*
X143489388Y-27670880D01*
X144550357Y-27662975D01*
X145493846Y-27272168D01*
X145718516Y-26898121D01*
X144000000Y-25179605D01*
X142281484Y-26898121D01*
X134453137Y-26898121D01*
X134179228Y-26623733D01*
X133765158Y-26451796D01*
X133316809Y-26451405D01*
X132902440Y-26622619D01*
X132585133Y-26939372D01*
X132413196Y-27353442D01*
X132412805Y-27801791D01*
X132484699Y-27975787D01*
X132055527Y-27975413D01*
X132126804Y-27803758D01*
X132127195Y-27355409D01*
X131955981Y-26941040D01*
X131639228Y-26623733D01*
X131225158Y-26451796D01*
X130776809Y-26451405D01*
X130364498Y-26621769D01*
X129955158Y-26451796D01*
X129506809Y-26451405D01*
X129092440Y-26622619D01*
X128775133Y-26939372D01*
X128603196Y-27353442D01*
X128602805Y-27801791D01*
X124777000Y-27801791D01*
X124777000Y-25621933D01*
X125160672Y-25621933D01*
X125214503Y-25850979D01*
X125691864Y-26016481D01*
X126196223Y-25986706D01*
X126523897Y-25850979D01*
X126577728Y-25621933D01*
X135422272Y-25621933D01*
X135476103Y-25850979D01*
X135953464Y-26016481D01*
X136457823Y-25986706D01*
X136785497Y-25850979D01*
X136839328Y-25621933D01*
X136130800Y-24913405D01*
X135422272Y-25621933D01*
X126577728Y-25621933D01*
X125869200Y-24913405D01*
X125160672Y-25621933D01*
X124777000Y-25621933D01*
X124777000Y-25394368D01*
X124981067Y-25442328D01*
X125689595Y-24733800D01*
X126048805Y-24733800D01*
X126757333Y-25442328D01*
X126986379Y-25388497D01*
X127151881Y-24911136D01*
X127130943Y-24556464D01*
X134848119Y-24556464D01*
X134877894Y-25060823D01*
X135013621Y-25388497D01*
X135242667Y-25442328D01*
X135951195Y-24733800D01*
X136310405Y-24733800D01*
X137018933Y-25442328D01*
X137247979Y-25388497D01*
X137413481Y-24911136D01*
X137388583Y-24489388D01*
X141329120Y-24489388D01*
X141337025Y-25550357D01*
X141727832Y-26493846D01*
X142101879Y-26718516D01*
X143820395Y-25000000D01*
X144179605Y-25000000D01*
X145898121Y-26718516D01*
X146272168Y-26493846D01*
X146670880Y-25510612D01*
X146662975Y-24449643D01*
X146272168Y-23506154D01*
X145898121Y-23281484D01*
X144179605Y-25000000D01*
X143820395Y-25000000D01*
X142101879Y-23281484D01*
X141727832Y-23506154D01*
X141329120Y-24489388D01*
X137388583Y-24489388D01*
X137383706Y-24406777D01*
X137247979Y-24079103D01*
X137018933Y-24025272D01*
X136310405Y-24733800D01*
X135951195Y-24733800D01*
X135242667Y-24025272D01*
X135013621Y-24079103D01*
X134848119Y-24556464D01*
X127130943Y-24556464D01*
X127122106Y-24406777D01*
X126986379Y-24079103D01*
X126757333Y-24025272D01*
X126048805Y-24733800D01*
X125689595Y-24733800D01*
X124981067Y-24025272D01*
X124777000Y-24073232D01*
X124777000Y-23361333D01*
X125160672Y-23361333D01*
X125214503Y-23590379D01*
X125248990Y-23602336D01*
X125214503Y-23616621D01*
X125160672Y-23845667D01*
X125869200Y-24554195D01*
X126577728Y-23845667D01*
X126523897Y-23616621D01*
X126489410Y-23604664D01*
X126523897Y-23590379D01*
X126577728Y-23361333D01*
X135422272Y-23361333D01*
X135476103Y-23590379D01*
X135510590Y-23602336D01*
X135476103Y-23616621D01*
X135422272Y-23845667D01*
X136130800Y-24554195D01*
X136839328Y-23845667D01*
X136785497Y-23616621D01*
X136751010Y-23604664D01*
X136785497Y-23590379D01*
X136839328Y-23361333D01*
X136130800Y-22652805D01*
X135422272Y-23361333D01*
X126577728Y-23361333D01*
X125869200Y-22652805D01*
X125160672Y-23361333D01*
X124777000Y-23361333D01*
X124777000Y-23133768D01*
X124981067Y-23181728D01*
X125689595Y-22473200D01*
X125675453Y-22459058D01*
X125855058Y-22279453D01*
X125869200Y-22293595D01*
X125883343Y-22279453D01*
X126062948Y-22459058D01*
X126048805Y-22473200D01*
X126757333Y-23181728D01*
X126986379Y-23127897D01*
X127151881Y-22650536D01*
X127122106Y-22146177D01*
X126986379Y-21818503D01*
X126809788Y-21777000D01*
X135190212Y-21777000D01*
X135013621Y-21818503D01*
X135013621Y-21818503D01*
G37*
X135013621Y-21818503D02*
X134848119Y-22295864D01*
X134877894Y-22800223D01*
X135013621Y-23127897D01*
X135242667Y-23181728D01*
X135951195Y-22473200D01*
X135937053Y-22459058D01*
X136116658Y-22279453D01*
X136130800Y-22293595D01*
X136144943Y-22279453D01*
X136324548Y-22459058D01*
X136310405Y-22473200D01*
X137018933Y-23181728D01*
X137247979Y-23127897D01*
X137256999Y-23101879D01*
X142281484Y-23101879D01*
X144000000Y-24820395D01*
X145718516Y-23101879D01*
X145493846Y-22727832D01*
X144510612Y-22329120D01*
X143449643Y-22337025D01*
X142506154Y-22727832D01*
X142281484Y-23101879D01*
X137256999Y-23101879D01*
X137413481Y-22650536D01*
X137383706Y-22146177D01*
X137247979Y-21818503D01*
X137071388Y-21777000D01*
X147223000Y-21777000D01*
X147223000Y-112223000D01*
X64777000Y-112223000D01*
X64777000Y-110898121D01*
X66281484Y-110898121D01*
X66506154Y-111272168D01*
X67489388Y-111670880D01*
X68550357Y-111662975D01*
X69493846Y-111272168D01*
X69718516Y-110898121D01*
X142281484Y-110898121D01*
X142506154Y-111272168D01*
X143489388Y-111670880D01*
X144550357Y-111662975D01*
X145493846Y-111272168D01*
X145718516Y-110898121D01*
X144000000Y-109179605D01*
X142281484Y-110898121D01*
X69718516Y-110898121D01*
X68000000Y-109179605D01*
X66281484Y-110898121D01*
X64777000Y-110898121D01*
X64777000Y-108489388D01*
X65329120Y-108489388D01*
X65337025Y-109550357D01*
X65727832Y-110493846D01*
X66101879Y-110718516D01*
X67820395Y-109000000D01*
X66101879Y-107281484D01*
X65727832Y-107506154D01*
X65329120Y-108489388D01*
X64777000Y-108489388D01*
X64777000Y-91000000D01*
X64717854Y-90702655D01*
X64549422Y-90450578D01*
X64297345Y-90282146D01*
X64000000Y-90223000D01*
X33777000Y-90223000D01*
X33777000Y-84427024D01*
X33973191Y-84427195D01*
X34387560Y-84255981D01*
X34650180Y-83993819D01*
X34910772Y-84254867D01*
X35324842Y-84426804D01*
X35773191Y-84427195D01*
X36187560Y-84255981D01*
X36504867Y-83939228D01*
X36676804Y-83525158D01*
X36677195Y-83076809D01*
X36505981Y-82662440D01*
X36189228Y-82345133D01*
X35775158Y-82173196D01*
X35326809Y-82172805D01*
X34912440Y-82344019D01*
X34649820Y-82606181D01*
X34389228Y-82345133D01*
X33975158Y-82173196D01*
X33777000Y-82173023D01*
X33777000Y-70242763D01*
X34891472Y-70242763D01*
X34945303Y-70471809D01*
X35422664Y-70637311D01*
X35927023Y-70607536D01*
X36254697Y-70471809D01*
X36308528Y-70242763D01*
X35600000Y-69534235D01*
X34891472Y-70242763D01*
X33777000Y-70242763D01*
X33777000Y-69177294D01*
X34317319Y-69177294D01*
X34347094Y-69681653D01*
X34482821Y-70009327D01*
X34711867Y-70063158D01*
X35420395Y-69354630D01*
X35779605Y-69354630D01*
X36488133Y-70063158D01*
X36717179Y-70009327D01*
X36882681Y-69531966D01*
X36852906Y-69027607D01*
X36717179Y-68699933D01*
X36488133Y-68646102D01*
X35779605Y-69354630D01*
X35420395Y-69354630D01*
X34711867Y-68646102D01*
X34482821Y-68699933D01*
X34317319Y-69177294D01*
X33777000Y-69177294D01*
X33777000Y-68466497D01*
X34891472Y-68466497D01*
X35600000Y-69175025D01*
X36308528Y-68466497D01*
X36254697Y-68237451D01*
X35777336Y-68071949D01*
X35272977Y-68101724D01*
X34945303Y-68237451D01*
X34891472Y-68466497D01*
X33777000Y-68466497D01*
X33777000Y-64730963D01*
X34891472Y-64730963D01*
X34945303Y-64960009D01*
X35422664Y-65125511D01*
X35927023Y-65095736D01*
X36254697Y-64960009D01*
X36308528Y-64730963D01*
X36300756Y-64723191D01*
X45872805Y-64723191D01*
X46044019Y-65137560D01*
X46360772Y-65454867D01*
X46774842Y-65626804D01*
X47223191Y-65627195D01*
X47637560Y-65455981D01*
X47954867Y-65139228D01*
X48126804Y-64725158D01*
X48127195Y-64276809D01*
X47955981Y-63862440D01*
X47639228Y-63545133D01*
X47225158Y-63373196D01*
X46776809Y-63372805D01*
X46362440Y-63544019D01*
X46045133Y-63860772D01*
X45873196Y-64274842D01*
X45872805Y-64723191D01*
X36300756Y-64723191D01*
X35600000Y-64022435D01*
X34891472Y-64730963D01*
X33777000Y-64730963D01*
X33777000Y-63665494D01*
X34317319Y-63665494D01*
X34347094Y-64169853D01*
X34482821Y-64497527D01*
X34711867Y-64551358D01*
X35420395Y-63842830D01*
X35779605Y-63842830D01*
X36488133Y-64551358D01*
X36717179Y-64497527D01*
X36882681Y-64020166D01*
X36852906Y-63515807D01*
X36717179Y-63188133D01*
X36488133Y-63134302D01*
X35779605Y-63842830D01*
X35420395Y-63842830D01*
X34711867Y-63134302D01*
X34482821Y-63188133D01*
X34317319Y-63665494D01*
X33777000Y-63665494D01*
X33777000Y-62954697D01*
X34891472Y-62954697D01*
X35600000Y-63663225D01*
X36308528Y-62954697D01*
X36254697Y-62725651D01*
X35777336Y-62560149D01*
X35272977Y-62589924D01*
X34945303Y-62725651D01*
X34891472Y-62954697D01*
X33777000Y-62954697D01*
X33777000Y-43777000D01*
X113873000Y-43777000D01*
X113873000Y-45873000D01*
X52000000Y-45873000D01*
X51950590Y-45883006D01*
X51908965Y-45911447D01*
X51881685Y-45953841D01*
X51873000Y-46000000D01*
X51873000Y-65333128D01*
X51745133Y-65460772D01*
X51573196Y-65874842D01*
X51572805Y-66323191D01*
X51744019Y-66737560D01*
X51873000Y-66866767D01*
X51873000Y-69873000D01*
X40000000Y-69873000D01*
X39950590Y-69883006D01*
X39908965Y-69911447D01*
X39881685Y-69953841D01*
X39873000Y-70000000D01*
X39873000Y-81608758D01*
X38200000Y-81608758D01*
X37930590Y-81659451D01*
X37683154Y-81818672D01*
X37517157Y-82061615D01*
X37458758Y-82350000D01*
X37458758Y-84050000D01*
X37509451Y-84319410D01*
X37668672Y-84566846D01*
X37911615Y-84732843D01*
X38200000Y-84791242D01*
X39873000Y-84791242D01*
X39873000Y-88000000D01*
X39883006Y-88049410D01*
X39911447Y-88091035D01*
X39953841Y-88118315D01*
X40000000Y-88127000D01*
X66873000Y-88127000D01*
X66873000Y-100799478D01*
X66633990Y-100844451D01*
X66386554Y-101003672D01*
X66220557Y-101246615D01*
X66162158Y-101535000D01*
X66162158Y-103567000D01*
X66212851Y-103836410D01*
X66372072Y-104083846D01*
X66615015Y-104249843D01*
X66873000Y-104302086D01*
X66873000Y-106575879D01*
X66506154Y-106727832D01*
X66281484Y-107101879D01*
X68000000Y-108820395D01*
X68014143Y-108806253D01*
X68193748Y-108985858D01*
X68179605Y-109000000D01*
X69898121Y-110718516D01*
X70272168Y-110493846D01*
X70670880Y-109510612D01*
X70662975Y-108449643D01*
X70272168Y-107506154D01*
X69898123Y-107281485D01*
X70010845Y-107168763D01*
X69969082Y-107127000D01*
X142030918Y-107127000D01*
X141989155Y-107168763D01*
X142101877Y-107281485D01*
X141727832Y-107506154D01*
X141329120Y-108489388D01*
X141337025Y-109550357D01*
X141727832Y-110493846D01*
X142101879Y-110718516D01*
X143820395Y-109000000D01*
X144179605Y-109000000D01*
X145898121Y-110718516D01*
X146272168Y-110493846D01*
X146670880Y-109510612D01*
X146662975Y-108449643D01*
X146272168Y-107506154D01*
X145898121Y-107281484D01*
X144179605Y-109000000D01*
X143820395Y-109000000D01*
X143806253Y-108985858D01*
X143985858Y-108806253D01*
X144000000Y-108820395D01*
X145718516Y-107101879D01*
X145627000Y-106949516D01*
X145627000Y-71866697D01*
X145854867Y-71639228D01*
X146026804Y-71225158D01*
X146027195Y-70776809D01*
X145855981Y-70362440D01*
X145627000Y-70133059D01*
X145627000Y-42000000D01*
X145616994Y-41950590D01*
X145588553Y-41908965D01*
X145546159Y-41881685D01*
X145500000Y-41873000D01*
X124777000Y-41873000D01*
X124777000Y-40923171D01*
X140872805Y-40923171D01*
X141044019Y-41337540D01*
X141360772Y-41654847D01*
X141774842Y-41826784D01*
X142223191Y-41827175D01*
X142637560Y-41655961D01*
X142954867Y-41339208D01*
X143126804Y-40925138D01*
X143127195Y-40476789D01*
X142955981Y-40062420D01*
X142639228Y-39745113D01*
X142225158Y-39573176D01*
X141776809Y-39572785D01*
X141362440Y-39743999D01*
X141045133Y-40060752D01*
X140873196Y-40474822D01*
X140872805Y-40923171D01*
X124777000Y-40923171D01*
X124777000Y-27801791D01*
X128602805Y-27801791D01*
X128774019Y-28216160D01*
X129090772Y-28533467D01*
X129504842Y-28705404D01*
X129953191Y-28705795D01*
X130365502Y-28535431D01*
X130774842Y-28705404D01*
X131214473Y-28705787D01*
X131143196Y-28877442D01*
X131142805Y-29325791D01*
X131314019Y-29740160D01*
X131630772Y-30057467D01*
X132044842Y-30229404D01*
X132197489Y-30229537D01*
X132162440Y-30244019D01*
X131845133Y-30560772D01*
X131673196Y-30974842D01*
X131672805Y-31423191D01*
X131844019Y-31837560D01*
X132160772Y-32154867D01*
X132574842Y-32326804D01*
X133023191Y-32327195D01*
X133437560Y-32155981D01*
X133754867Y-31839228D01*
X133926804Y-31425158D01*
X133927195Y-30976809D01*
X133755981Y-30562440D01*
X133439228Y-30245133D01*
X133401530Y-30229480D01*
X133763191Y-30229795D01*
X134177560Y-30058581D01*
X134494867Y-29741828D01*
X134666804Y-29327758D01*
X134667195Y-28879409D01*
X134495981Y-28465040D01*
X134371819Y-28340661D01*
X134494867Y-28217828D01*
X134666804Y-27803758D01*
X134667195Y-27355409D01*
X134495981Y-26941040D01*
X134453137Y-26898121D01*
X142281484Y-26898121D01*
X142506154Y-27272168D01*
X143489388Y-27670880D01*
X144550357Y-27662975D01*
X145493846Y-27272168D01*
X145718516Y-26898121D01*
X144000000Y-25179605D01*
X142281484Y-26898121D01*
X134453137Y-26898121D01*
X134179228Y-26623733D01*
X133765158Y-26451796D01*
X133316809Y-26451405D01*
X132902440Y-26622619D01*
X132585133Y-26939372D01*
X132413196Y-27353442D01*
X132412805Y-27801791D01*
X132484699Y-27975787D01*
X132055527Y-27975413D01*
X132126804Y-27803758D01*
X132127195Y-27355409D01*
X131955981Y-26941040D01*
X131639228Y-26623733D01*
X131225158Y-26451796D01*
X130776809Y-26451405D01*
X130364498Y-26621769D01*
X129955158Y-26451796D01*
X129506809Y-26451405D01*
X129092440Y-26622619D01*
X128775133Y-26939372D01*
X128603196Y-27353442D01*
X128602805Y-27801791D01*
X124777000Y-27801791D01*
X124777000Y-25621933D01*
X125160672Y-25621933D01*
X125214503Y-25850979D01*
X125691864Y-26016481D01*
X126196223Y-25986706D01*
X126523897Y-25850979D01*
X126577728Y-25621933D01*
X135422272Y-25621933D01*
X135476103Y-25850979D01*
X135953464Y-26016481D01*
X136457823Y-25986706D01*
X136785497Y-25850979D01*
X136839328Y-25621933D01*
X136130800Y-24913405D01*
X135422272Y-25621933D01*
X126577728Y-25621933D01*
X125869200Y-24913405D01*
X125160672Y-25621933D01*
X124777000Y-25621933D01*
X124777000Y-25394368D01*
X124981067Y-25442328D01*
X125689595Y-24733800D01*
X126048805Y-24733800D01*
X126757333Y-25442328D01*
X126986379Y-25388497D01*
X127151881Y-24911136D01*
X127130943Y-24556464D01*
X134848119Y-24556464D01*
X134877894Y-25060823D01*
X135013621Y-25388497D01*
X135242667Y-25442328D01*
X135951195Y-24733800D01*
X136310405Y-24733800D01*
X137018933Y-25442328D01*
X137247979Y-25388497D01*
X137413481Y-24911136D01*
X137388583Y-24489388D01*
X141329120Y-24489388D01*
X141337025Y-25550357D01*
X141727832Y-26493846D01*
X142101879Y-26718516D01*
X143820395Y-25000000D01*
X144179605Y-25000000D01*
X145898121Y-26718516D01*
X146272168Y-26493846D01*
X146670880Y-25510612D01*
X146662975Y-24449643D01*
X146272168Y-23506154D01*
X145898121Y-23281484D01*
X144179605Y-25000000D01*
X143820395Y-25000000D01*
X142101879Y-23281484D01*
X141727832Y-23506154D01*
X141329120Y-24489388D01*
X137388583Y-24489388D01*
X137383706Y-24406777D01*
X137247979Y-24079103D01*
X137018933Y-24025272D01*
X136310405Y-24733800D01*
X135951195Y-24733800D01*
X135242667Y-24025272D01*
X135013621Y-24079103D01*
X134848119Y-24556464D01*
X127130943Y-24556464D01*
X127122106Y-24406777D01*
X126986379Y-24079103D01*
X126757333Y-24025272D01*
X126048805Y-24733800D01*
X125689595Y-24733800D01*
X124981067Y-24025272D01*
X124777000Y-24073232D01*
X124777000Y-23361333D01*
X125160672Y-23361333D01*
X125214503Y-23590379D01*
X125248990Y-23602336D01*
X125214503Y-23616621D01*
X125160672Y-23845667D01*
X125869200Y-24554195D01*
X126577728Y-23845667D01*
X126523897Y-23616621D01*
X126489410Y-23604664D01*
X126523897Y-23590379D01*
X126577728Y-23361333D01*
X135422272Y-23361333D01*
X135476103Y-23590379D01*
X135510590Y-23602336D01*
X135476103Y-23616621D01*
X135422272Y-23845667D01*
X136130800Y-24554195D01*
X136839328Y-23845667D01*
X136785497Y-23616621D01*
X136751010Y-23604664D01*
X136785497Y-23590379D01*
X136839328Y-23361333D01*
X136130800Y-22652805D01*
X135422272Y-23361333D01*
X126577728Y-23361333D01*
X125869200Y-22652805D01*
X125160672Y-23361333D01*
X124777000Y-23361333D01*
X124777000Y-23133768D01*
X124981067Y-23181728D01*
X125689595Y-22473200D01*
X125675453Y-22459058D01*
X125855058Y-22279453D01*
X125869200Y-22293595D01*
X125883343Y-22279453D01*
X126062948Y-22459058D01*
X126048805Y-22473200D01*
X126757333Y-23181728D01*
X126986379Y-23127897D01*
X127151881Y-22650536D01*
X127122106Y-22146177D01*
X126986379Y-21818503D01*
X126809788Y-21777000D01*
X135190212Y-21777000D01*
X135013621Y-21818503D01*
M02*
