G04 #@! TF.FileFunction,Soldermask,Top*
%FSLAX46Y46*%
G04 Gerber Fmt 4.6, Leading zero omitted, Abs format (unit mm)*
G04 Created by KiCad (PCBNEW 4.0.1-stable) date 2016-12-19 1:07:11 AM*
%MOMM*%
G01*
G04 APERTURE LIST*
%ADD10C,0.150000*%
%ADD11O,2.108000X2.108000*%
%ADD12R,1.706880X1.706880*%
%ADD13C,2.408000*%
%ADD14O,4.008120X2.207260*%
%ADD15O,2.207260X4.008120*%
%ADD16R,2.938000X2.878000*%
%ADD17R,4.638000X2.878000*%
%ADD18R,2.058000X1.108000*%
%ADD19R,0.908000X1.708000*%
%ADD20R,4.508500X2.908300*%
%ADD21R,2.235200X2.540000*%
%ADD22O,2.235200X2.540000*%
%ADD23C,4.572000*%
%ADD24R,2.308860X3.007360*%
%ADD25C,2.506980*%
%ADD26R,1.016000X1.651000*%
%ADD27R,1.508000X1.758000*%
%ADD28R,1.758000X1.508000*%
%ADD29R,1.808000X1.208000*%
%ADD30R,1.208000X1.808000*%
%ADD31R,2.032000X2.540000*%
%ADD32R,2.208000X1.408000*%
%ADD33R,1.408000X2.208000*%
%ADD34R,3.708000X1.508000*%
%ADD35R,1.508000X3.008000*%
%ADD36R,3.008000X1.508000*%
%ADD37R,3.507740X5.408000*%
%ADD38R,3.807460X3.007360*%
%ADD39R,1.008000X3.308000*%
%ADD40R,2.540000X2.235200*%
%ADD41O,2.540000X2.235200*%
%ADD42R,2.235000X0.965000*%
%ADD43R,1.108000X0.928000*%
G04 APERTURE END LIST*
D10*
D11*
X39400000Y-38300000D03*
X39400000Y-40840000D03*
X39400000Y-43380000D03*
X39400000Y-45920000D03*
X39400000Y-48460000D03*
X39400000Y-51000000D03*
X39400000Y-53540000D03*
X31780000Y-53540000D03*
X31780000Y-51000000D03*
X31780000Y-48460000D03*
X31780000Y-45920000D03*
X31780000Y-43380000D03*
X31780000Y-40840000D03*
X31780000Y-38300000D03*
D12*
X89200000Y-36350980D03*
X89200000Y-38449020D03*
D13*
X57264000Y-37520000D03*
X59804000Y-37520000D03*
X62344000Y-37520000D03*
X52184000Y-50220000D03*
X54724000Y-50220000D03*
X57264000Y-50220000D03*
X59804000Y-50220000D03*
X62344000Y-50220000D03*
X64884000Y-50220000D03*
X67424000Y-50220000D03*
X69964000Y-50220000D03*
X72504000Y-50220000D03*
X75044000Y-50220000D03*
X77584000Y-50220000D03*
X80124000Y-50220000D03*
X82664000Y-50220000D03*
X82664000Y-34980000D03*
X80124000Y-34980000D03*
X77584000Y-34980000D03*
X75044000Y-34980000D03*
X72504000Y-34980000D03*
X69964000Y-34980000D03*
X67424000Y-34980000D03*
X64884000Y-34980000D03*
X62344000Y-34980000D03*
X59804000Y-34980000D03*
X57264000Y-34980000D03*
X54724000Y-34980000D03*
X52184000Y-34980000D03*
X49644000Y-34980000D03*
X49644000Y-50220000D03*
D14*
X36403000Y-62644000D03*
X36403000Y-65184000D03*
X36403000Y-60104000D03*
X31069000Y-73947000D03*
X31069000Y-76487000D03*
X31069000Y-71407000D03*
D15*
X84409000Y-78011000D03*
X86949000Y-78011000D03*
X81869000Y-78011000D03*
D16*
X95839000Y-60286000D03*
X95839000Y-66526000D03*
D17*
X102951000Y-60794000D03*
X102951000Y-67034000D03*
D12*
X92500000Y-36350980D03*
X92500000Y-38449020D03*
D18*
X87109000Y-73693000D03*
X87109000Y-72423000D03*
X87109000Y-71153000D03*
X87109000Y-69883000D03*
X81709000Y-69883000D03*
X81709000Y-71153000D03*
X81709000Y-72423000D03*
X81709000Y-73693000D03*
D19*
X66080000Y-66386000D03*
X65430000Y-66386000D03*
X64780000Y-66386000D03*
X64130000Y-66386000D03*
X64130000Y-70586000D03*
X64780000Y-70586000D03*
X65430000Y-70586000D03*
X66080000Y-70586000D03*
D20*
X71391500Y-76614000D03*
X63390500Y-76614000D03*
D21*
X27767000Y-57691000D03*
D22*
X30307000Y-57691000D03*
X32847000Y-57691000D03*
D23*
X28000000Y-31000000D03*
X104000000Y-31000000D03*
D24*
X27005000Y-72837020D03*
X27005000Y-76834980D03*
X42499000Y-72075020D03*
X42499000Y-76072980D03*
D25*
X32044360Y-63660000D03*
X27043100Y-63660000D03*
D26*
X36022000Y-71153000D03*
X37292000Y-71153000D03*
X38562000Y-71153000D03*
X39832000Y-71153000D03*
X39832000Y-77503000D03*
X38562000Y-77503000D03*
X37292000Y-77503000D03*
X36022000Y-77503000D03*
D27*
X37800000Y-41200000D03*
X35800000Y-41200000D03*
X96200000Y-53200000D03*
X98200000Y-53200000D03*
X102100000Y-53200000D03*
X100100000Y-53200000D03*
D28*
X37670000Y-37870000D03*
X37670000Y-39870000D03*
D27*
X35470000Y-46800000D03*
X33470000Y-46800000D03*
X29500000Y-36900000D03*
X27500000Y-36900000D03*
X32000000Y-36500000D03*
X34000000Y-36500000D03*
X35470000Y-48770000D03*
X33470000Y-48770000D03*
X33470000Y-51970000D03*
X35470000Y-51970000D03*
X32000000Y-34900000D03*
X34000000Y-34900000D03*
D29*
X42500000Y-36750000D03*
X42500000Y-34850000D03*
D30*
X33550000Y-43500000D03*
X35450000Y-43500000D03*
X35450000Y-45100000D03*
X33550000Y-45100000D03*
D29*
X35970000Y-37920000D03*
X35970000Y-39820000D03*
D30*
X97650000Y-40100000D03*
X99550000Y-40100000D03*
X102750000Y-40800000D03*
X104650000Y-40800000D03*
X35520000Y-50370000D03*
X33620000Y-50370000D03*
X38020000Y-34500000D03*
X36120000Y-34500000D03*
X33550000Y-53700000D03*
X35450000Y-53700000D03*
D29*
X39370000Y-36750000D03*
X39370000Y-34850000D03*
D31*
X104910000Y-43190000D03*
X102370000Y-43190000D03*
X99830000Y-43190000D03*
X97290000Y-43190000D03*
X97290000Y-50810000D03*
X99830000Y-50810000D03*
X102370000Y-50810000D03*
X104910000Y-50810000D03*
D28*
X92283000Y-67200000D03*
X92283000Y-65200000D03*
D27*
X40451000Y-79408000D03*
X38451000Y-79408000D03*
D28*
X79583000Y-69740000D03*
X79583000Y-67740000D03*
D27*
X92902000Y-61374000D03*
X90902000Y-61374000D03*
D21*
X27767000Y-80551000D03*
D22*
X30307000Y-80551000D03*
X32847000Y-80551000D03*
X35387000Y-80551000D03*
D29*
X89200000Y-33150000D03*
X89200000Y-35050000D03*
X95800000Y-33150000D03*
X95800000Y-35050000D03*
D30*
X90952000Y-63406000D03*
X92852000Y-63406000D03*
D29*
X61295000Y-60170000D03*
X61295000Y-62070000D03*
D30*
X68976000Y-66327000D03*
X67076000Y-66327000D03*
X68346000Y-68359000D03*
X70246000Y-68359000D03*
D29*
X60914000Y-72103000D03*
X60914000Y-70203000D03*
X61549000Y-66647000D03*
X61549000Y-68547000D03*
D30*
X36469000Y-68486000D03*
X38369000Y-68486000D03*
D32*
X73360000Y-71206000D03*
X73360000Y-68306000D03*
D33*
X61877000Y-63660000D03*
X64777000Y-63660000D03*
D34*
X76662000Y-71205000D03*
X76662000Y-65005000D03*
D35*
X30029000Y-67724000D03*
X27029000Y-67724000D03*
D36*
X40467000Y-64398000D03*
X40467000Y-61398000D03*
D33*
X29217000Y-60358000D03*
X26317000Y-60358000D03*
D37*
X92127000Y-76119000D03*
X101327000Y-76319000D03*
D38*
X77127000Y-74017940D03*
X77127000Y-80820060D03*
D39*
X96300000Y-23400000D03*
X97100000Y-23400000D03*
X91500000Y-23400000D03*
X92300000Y-23400000D03*
X90700000Y-23400000D03*
X89900000Y-23400000D03*
X93100000Y-23400000D03*
X93900000Y-23400000D03*
X95500000Y-23400000D03*
X94700000Y-23400000D03*
D12*
X95800000Y-36350980D03*
X95800000Y-38449020D03*
D40*
X47117000Y-40038000D03*
D41*
X47117000Y-42578000D03*
X47117000Y-45118000D03*
X47117000Y-47658000D03*
D29*
X92500000Y-33150000D03*
X92500000Y-35050000D03*
D42*
X85754000Y-67475000D03*
X85754000Y-66825000D03*
X85754000Y-66175000D03*
X85754000Y-65525000D03*
X83646000Y-65525000D03*
X83646000Y-66175000D03*
X83646000Y-66825000D03*
X83646000Y-67475000D03*
D29*
X62400000Y-54950000D03*
X62400000Y-56850000D03*
X64900000Y-54950000D03*
X64900000Y-56850000D03*
D40*
X29210000Y-39530000D03*
D41*
X29210000Y-42070000D03*
X29210000Y-44610000D03*
X29210000Y-47150000D03*
D40*
X41910000Y-39530000D03*
D41*
X41910000Y-42070000D03*
X41910000Y-44610000D03*
X41910000Y-47150000D03*
D43*
X88750000Y-54550000D03*
X88750000Y-53250000D03*
X86850000Y-54550000D03*
X88750000Y-53900000D03*
X86850000Y-53250000D03*
D26*
X79495000Y-39125000D03*
X80765000Y-39125000D03*
X82035000Y-39125000D03*
X83305000Y-39125000D03*
X83305000Y-45475000D03*
X82035000Y-45475000D03*
X80765000Y-45475000D03*
X79495000Y-45475000D03*
D29*
X77800000Y-45550000D03*
X77800000Y-43650000D03*
D28*
X78100000Y-39100000D03*
X78100000Y-37100000D03*
D29*
X89100000Y-55950000D03*
X89100000Y-57850000D03*
M02*
