G04 #@! TF.FileFunction,Legend,Bot*
%FSLAX46Y46*%
G04 Gerber Fmt 4.6, Leading zero omitted, Abs format (unit mm)*
G04 Created by KiCad (PCBNEW 4.0.1-stable) date 2017-04-04 9:13:48 AM*
%MOMM*%
G01*
G04 APERTURE LIST*
%ADD10C,0.150000*%
%ADD11C,0.152400*%
%ADD12C,0.120000*%
%ADD13C,0.127000*%
%ADD14C,0.063500*%
%ADD15C,0.048260*%
%ADD16C,0.076200*%
%ADD17C,0.050800*%
%ADD18C,0.025400*%
G04 APERTURE END LIST*
D10*
D11*
X42734860Y-60388430D02*
X42734860Y-64048570D01*
X42734860Y-72783630D02*
X39537000Y-72783630D01*
X26481400Y-72783630D02*
X26481400Y-60388430D01*
X26481400Y-60388430D02*
X32831400Y-60388430D01*
X42734860Y-69151430D02*
X42734860Y-72783630D01*
X39537000Y-60388430D02*
X42734860Y-60388430D01*
X32831400Y-72783630D02*
X26481400Y-72783630D01*
D10*
X77565000Y-53555000D02*
X77565000Y-54825000D01*
X70215000Y-53555000D02*
X70215000Y-54825000D01*
X70215000Y-73385000D02*
X70215000Y-72115000D01*
X77565000Y-73385000D02*
X77565000Y-72115000D01*
X77565000Y-53555000D02*
X70215000Y-53555000D01*
X77565000Y-73385000D02*
X70215000Y-73385000D01*
X77565000Y-54825000D02*
X78500000Y-54825000D01*
X80086000Y-87184000D02*
X78689000Y-87184000D01*
X80086000Y-84644000D02*
X78689000Y-84644000D01*
X80086000Y-82104000D02*
X78689000Y-82104000D01*
X95681472Y-84644000D02*
G75*
G03X95681472Y-84644000I-2514472J0D01*
G01*
X88595000Y-79310000D02*
X96596000Y-79310000D01*
X96596000Y-79310000D02*
X96596000Y-89978000D01*
X96596000Y-89978000D02*
X88595000Y-89978000D01*
X80086000Y-79310000D02*
X88595000Y-79310000D01*
X88595000Y-79310000D02*
X88595000Y-89978000D01*
X88595000Y-89978000D02*
X80086000Y-89978000D01*
X80086000Y-84644000D02*
X80086000Y-89978000D01*
X80086000Y-84644000D02*
X80086000Y-79310000D01*
X74752000Y-98487000D02*
X73355000Y-98487000D01*
X74752000Y-95947000D02*
X73355000Y-95947000D01*
X74752000Y-93407000D02*
X73355000Y-93407000D01*
X90347472Y-95947000D02*
G75*
G03X90347472Y-95947000I-2514472J0D01*
G01*
X83261000Y-90613000D02*
X91262000Y-90613000D01*
X91262000Y-90613000D02*
X91262000Y-101281000D01*
X91262000Y-101281000D02*
X83261000Y-101281000D01*
X74752000Y-90613000D02*
X83261000Y-90613000D01*
X83261000Y-90613000D02*
X83261000Y-101281000D01*
X83261000Y-101281000D02*
X74752000Y-101281000D01*
X74752000Y-95947000D02*
X74752000Y-101281000D01*
X74752000Y-95947000D02*
X74752000Y-90613000D01*
X126949000Y-96328000D02*
X126949000Y-97725000D01*
X124409000Y-96328000D02*
X124409000Y-97725000D01*
X121869000Y-96328000D02*
X121869000Y-97725000D01*
X126923472Y-83247000D02*
G75*
G03X126923472Y-83247000I-2514472J0D01*
G01*
X119075000Y-87819000D02*
X119075000Y-79818000D01*
X119075000Y-79818000D02*
X129743000Y-79818000D01*
X129743000Y-79818000D02*
X129743000Y-87819000D01*
X119075000Y-96328000D02*
X119075000Y-87819000D01*
X119075000Y-87819000D02*
X129743000Y-87819000D01*
X129743000Y-87819000D02*
X129743000Y-96328000D01*
X124409000Y-96328000D02*
X129743000Y-96328000D01*
X124409000Y-96328000D02*
X119075000Y-96328000D01*
X136020000Y-71540000D02*
X136020000Y-66460000D01*
X136020000Y-66460000D02*
X146180000Y-66460000D01*
X146180000Y-66460000D02*
X146180000Y-71540000D01*
X146180000Y-71540000D02*
X136020000Y-71540000D01*
X136020000Y-70270000D02*
X137290000Y-70270000D01*
X137290000Y-70270000D02*
X137290000Y-67730000D01*
X137290000Y-67730000D02*
X136020000Y-67730000D01*
X135480000Y-66460000D02*
X135480000Y-71540000D01*
X135480000Y-71540000D02*
X125320000Y-71540000D01*
X125320000Y-71540000D02*
X125320000Y-66460000D01*
X125320000Y-66460000D02*
X135480000Y-66460000D01*
X135480000Y-67730000D02*
X134210000Y-67730000D01*
X134210000Y-67730000D02*
X134210000Y-70270000D01*
X134210000Y-70270000D02*
X135480000Y-70270000D01*
X144400000Y-74350000D02*
X145400000Y-74350000D01*
X145400000Y-76050000D02*
X144400000Y-76050000D01*
X141600000Y-76050000D02*
X140600000Y-76050000D01*
X140600000Y-74350000D02*
X141600000Y-74350000D01*
X143100000Y-63675000D02*
X144300000Y-63675000D01*
X144300000Y-61925000D02*
X143100000Y-61925000D01*
X138000000Y-62975000D02*
X139200000Y-62975000D01*
X139200000Y-61225000D02*
X138000000Y-61225000D01*
X134700000Y-77875000D02*
X135900000Y-77875000D01*
X135900000Y-76125000D02*
X134700000Y-76125000D01*
X126100000Y-74325000D02*
X124900000Y-74325000D01*
X124900000Y-76075000D02*
X126100000Y-76075000D01*
X134700000Y-75975000D02*
X135900000Y-75975000D01*
X135900000Y-74225000D02*
X134700000Y-74225000D01*
X127475000Y-63100000D02*
X127475000Y-61900000D01*
X125725000Y-61900000D02*
X125725000Y-63100000D01*
X110025000Y-51700000D02*
X110025000Y-52900000D01*
X111775000Y-52900000D02*
X111775000Y-51700000D01*
X105125000Y-51700000D02*
X105125000Y-52900000D01*
X106875000Y-52900000D02*
X106875000Y-51700000D01*
X107075000Y-76400000D02*
X107075000Y-75200000D01*
X105325000Y-75200000D02*
X105325000Y-76400000D01*
X104475000Y-76400000D02*
X104475000Y-75200000D01*
X102725000Y-75200000D02*
X102725000Y-76400000D01*
D12*
X107850000Y-60900000D02*
X107850000Y-59900000D01*
X109550000Y-59900000D02*
X109550000Y-60900000D01*
X112050000Y-59900000D02*
X112050000Y-60900000D01*
X110350000Y-60900000D02*
X110350000Y-59900000D01*
X103100000Y-53680000D02*
X104300000Y-53680000D01*
X104300000Y-51920000D02*
X103100000Y-51920000D01*
X68600000Y-81920000D02*
X67400000Y-81920000D01*
X67400000Y-83680000D02*
X68600000Y-83680000D01*
X102820000Y-71900000D02*
X102820000Y-73100000D01*
X104580000Y-73100000D02*
X104580000Y-71900000D01*
X105320000Y-71900000D02*
X105320000Y-73100000D01*
X107080000Y-73100000D02*
X107080000Y-71900000D01*
X107820000Y-56700000D02*
X107820000Y-57900000D01*
X109580000Y-57900000D02*
X109580000Y-56700000D01*
X110320000Y-56700000D02*
X110320000Y-57900000D01*
X112080000Y-57900000D02*
X112080000Y-56700000D01*
X108480000Y-53100000D02*
X108480000Y-51900000D01*
X106720000Y-51900000D02*
X106720000Y-53100000D01*
X113380000Y-53000000D02*
X113380000Y-51800000D01*
X111620000Y-51800000D02*
X111620000Y-53000000D01*
X99550000Y-76300000D02*
X99550000Y-75300000D01*
X101250000Y-75300000D02*
X101250000Y-76300000D01*
X117800000Y-75180000D02*
X119000000Y-75180000D01*
X119000000Y-73420000D02*
X117800000Y-73420000D01*
X121100000Y-72680000D02*
X122300000Y-72680000D01*
X122300000Y-70920000D02*
X121100000Y-70920000D01*
X124880000Y-57800000D02*
X124880000Y-56600000D01*
X123120000Y-56600000D02*
X123120000Y-57800000D01*
D13*
X45552200Y-67397560D02*
X45552200Y-65802440D01*
X48447800Y-65802440D02*
X48447800Y-67397560D01*
X48747520Y-64352100D02*
X45252480Y-64352100D01*
X45252480Y-64352100D02*
X45252480Y-68847900D01*
X45252480Y-68847900D02*
X48747520Y-68847900D01*
X48747520Y-68847900D02*
X48747520Y-64352100D01*
D14*
X48219816Y-67168960D02*
G75*
G03X48219816Y-67168960I-10776J0D01*
G01*
D13*
X52198600Y-65750700D02*
X49201400Y-65750700D01*
X49201400Y-65750700D02*
X49201400Y-67249300D01*
X49201400Y-67249300D02*
X52198600Y-67249300D01*
X52198600Y-67249300D02*
X52198600Y-65750700D01*
D15*
X49233729Y-67249300D02*
G75*
G03X49233729Y-67249300I-32329J0D01*
G01*
D12*
X71100000Y-81780000D02*
X73100000Y-81780000D01*
X73100000Y-83820000D02*
X71100000Y-83820000D01*
X33200000Y-85050000D02*
X33200000Y-81550000D01*
X36100000Y-85050000D02*
X36100000Y-81550000D01*
D16*
X36537381Y-57374524D02*
X36537381Y-56104524D01*
X36053572Y-56104524D01*
X35932619Y-56165000D01*
X35872143Y-56225476D01*
X35811667Y-56346429D01*
X35811667Y-56527857D01*
X35872143Y-56648810D01*
X35932619Y-56709286D01*
X36053572Y-56769762D01*
X36537381Y-56769762D01*
X34723095Y-56104524D02*
X34965000Y-56104524D01*
X35085952Y-56165000D01*
X35146429Y-56225476D01*
X35267381Y-56406905D01*
X35327857Y-56648810D01*
X35327857Y-57132619D01*
X35267381Y-57253571D01*
X35206905Y-57314048D01*
X35085952Y-57374524D01*
X34844048Y-57374524D01*
X34723095Y-57314048D01*
X34662619Y-57253571D01*
X34602143Y-57132619D01*
X34602143Y-56830238D01*
X34662619Y-56709286D01*
X34723095Y-56648810D01*
X34844048Y-56588333D01*
X35085952Y-56588333D01*
X35206905Y-56648810D01*
X35267381Y-56709286D01*
X35327857Y-56830238D01*
D10*
X75101190Y-53027381D02*
X75101190Y-52027381D01*
X74053571Y-52932143D02*
X74101190Y-52979762D01*
X74244047Y-53027381D01*
X74339285Y-53027381D01*
X74482143Y-52979762D01*
X74577381Y-52884524D01*
X74625000Y-52789286D01*
X74672619Y-52598810D01*
X74672619Y-52455952D01*
X74625000Y-52265476D01*
X74577381Y-52170238D01*
X74482143Y-52075000D01*
X74339285Y-52027381D01*
X74244047Y-52027381D01*
X74101190Y-52075000D01*
X74053571Y-52122619D01*
X73101190Y-53027381D02*
X73672619Y-53027381D01*
X73386905Y-53027381D02*
X73386905Y-52027381D01*
X73482143Y-52170238D01*
X73577381Y-52265476D01*
X73672619Y-52313095D01*
X99800459Y-84299842D02*
X99752840Y-84204604D01*
X99657602Y-84109366D01*
X99514745Y-83966509D01*
X99467126Y-83871270D01*
X99467126Y-83776032D01*
X99705221Y-83823651D02*
X99657602Y-83728413D01*
X99562364Y-83633175D01*
X99371888Y-83585556D01*
X99038554Y-83585556D01*
X98848078Y-83633175D01*
X98752840Y-83728413D01*
X98705221Y-83823651D01*
X98705221Y-84014128D01*
X98752840Y-84109366D01*
X98848078Y-84204604D01*
X99038554Y-84252223D01*
X99371888Y-84252223D01*
X99562364Y-84204604D01*
X99657602Y-84109366D01*
X99705221Y-84014128D01*
X99705221Y-83823651D01*
X98705221Y-85109366D02*
X98705221Y-84918889D01*
X98752840Y-84823651D01*
X98800459Y-84776032D01*
X98943316Y-84680794D01*
X99133792Y-84633175D01*
X99514745Y-84633175D01*
X99609983Y-84680794D01*
X99657602Y-84728413D01*
X99705221Y-84823651D01*
X99705221Y-85014128D01*
X99657602Y-85109366D01*
X99609983Y-85156985D01*
X99514745Y-85204604D01*
X99276650Y-85204604D01*
X99181411Y-85156985D01*
X99133792Y-85109366D01*
X99086173Y-85014128D01*
X99086173Y-84823651D01*
X99133792Y-84728413D01*
X99181411Y-84680794D01*
X99276650Y-84633175D01*
X94466459Y-95602842D02*
X94418840Y-95507604D01*
X94323602Y-95412366D01*
X94180745Y-95269509D01*
X94133126Y-95174270D01*
X94133126Y-95079032D01*
X94371221Y-95126651D02*
X94323602Y-95031413D01*
X94228364Y-94936175D01*
X94037888Y-94888556D01*
X93704554Y-94888556D01*
X93514078Y-94936175D01*
X93418840Y-95031413D01*
X93371221Y-95126651D01*
X93371221Y-95317128D01*
X93418840Y-95412366D01*
X93514078Y-95507604D01*
X93704554Y-95555223D01*
X94037888Y-95555223D01*
X94228364Y-95507604D01*
X94323602Y-95412366D01*
X94371221Y-95317128D01*
X94371221Y-95126651D01*
X93371221Y-96459985D02*
X93371221Y-95983794D01*
X93847411Y-95936175D01*
X93799792Y-95983794D01*
X93752173Y-96079032D01*
X93752173Y-96317128D01*
X93799792Y-96412366D01*
X93847411Y-96459985D01*
X93942650Y-96507604D01*
X94180745Y-96507604D01*
X94275983Y-96459985D01*
X94323602Y-96412366D01*
X94371221Y-96317128D01*
X94371221Y-96079032D01*
X94323602Y-95983794D01*
X94275983Y-95936175D01*
X119895238Y-97847619D02*
X119990476Y-97800000D01*
X120085714Y-97704762D01*
X120228571Y-97561905D01*
X120323810Y-97514286D01*
X120419048Y-97514286D01*
X120371429Y-97752381D02*
X120466667Y-97704762D01*
X120561905Y-97609524D01*
X120609524Y-97419048D01*
X120609524Y-97085714D01*
X120561905Y-96895238D01*
X120466667Y-96800000D01*
X120371429Y-96752381D01*
X120180952Y-96752381D01*
X120085714Y-96800000D01*
X119990476Y-96895238D01*
X119942857Y-97085714D01*
X119942857Y-97419048D01*
X119990476Y-97609524D01*
X120085714Y-97704762D01*
X120180952Y-97752381D01*
X120371429Y-97752381D01*
X118990476Y-97752381D02*
X119561905Y-97752381D01*
X119276191Y-97752381D02*
X119276191Y-96752381D01*
X119371429Y-96895238D01*
X119466667Y-96990476D01*
X119561905Y-97038095D01*
X146452381Y-68238095D02*
X147261905Y-68238095D01*
X147357143Y-68285714D01*
X147404762Y-68333333D01*
X147452381Y-68428571D01*
X147452381Y-68619048D01*
X147404762Y-68714286D01*
X147357143Y-68761905D01*
X147261905Y-68809524D01*
X146452381Y-68809524D01*
X146452381Y-69190476D02*
X146452381Y-69857143D01*
X147452381Y-69428571D01*
X124152381Y-66838095D02*
X124961905Y-66838095D01*
X125057143Y-66885714D01*
X125104762Y-66933333D01*
X125152381Y-67028571D01*
X125152381Y-67219048D01*
X125104762Y-67314286D01*
X125057143Y-67361905D01*
X124961905Y-67409524D01*
X124152381Y-67409524D01*
X124152381Y-68361905D02*
X124152381Y-67885714D01*
X124628571Y-67838095D01*
X124580952Y-67885714D01*
X124533333Y-67980952D01*
X124533333Y-68219048D01*
X124580952Y-68314286D01*
X124628571Y-68361905D01*
X124723810Y-68409524D01*
X124961905Y-68409524D01*
X125057143Y-68361905D01*
X125104762Y-68314286D01*
X125152381Y-68219048D01*
X125152381Y-67980952D01*
X125104762Y-67885714D01*
X125057143Y-67838095D01*
X145542857Y-77157143D02*
X145590476Y-77204762D01*
X145733333Y-77252381D01*
X145828571Y-77252381D01*
X145971429Y-77204762D01*
X146066667Y-77109524D01*
X146114286Y-77014286D01*
X146161905Y-76823810D01*
X146161905Y-76680952D01*
X146114286Y-76490476D01*
X146066667Y-76395238D01*
X145971429Y-76300000D01*
X145828571Y-76252381D01*
X145733333Y-76252381D01*
X145590476Y-76300000D01*
X145542857Y-76347619D01*
X144590476Y-77252381D02*
X145161905Y-77252381D01*
X144876191Y-77252381D02*
X144876191Y-76252381D01*
X144971429Y-76395238D01*
X145066667Y-76490476D01*
X145161905Y-76538095D01*
X144209524Y-76347619D02*
X144161905Y-76300000D01*
X144066667Y-76252381D01*
X143828571Y-76252381D01*
X143733333Y-76300000D01*
X143685714Y-76347619D01*
X143638095Y-76442857D01*
X143638095Y-76538095D01*
X143685714Y-76680952D01*
X144257143Y-77252381D01*
X143638095Y-77252381D01*
X142557143Y-76757143D02*
X142604762Y-76709524D01*
X142652381Y-76566667D01*
X142652381Y-76471429D01*
X142604762Y-76328571D01*
X142509524Y-76233333D01*
X142414286Y-76185714D01*
X142223810Y-76138095D01*
X142080952Y-76138095D01*
X141890476Y-76185714D01*
X141795238Y-76233333D01*
X141700000Y-76328571D01*
X141652381Y-76471429D01*
X141652381Y-76566667D01*
X141700000Y-76709524D01*
X141747619Y-76757143D01*
X142652381Y-77709524D02*
X142652381Y-77138095D01*
X142652381Y-77423809D02*
X141652381Y-77423809D01*
X141795238Y-77328571D01*
X141890476Y-77233333D01*
X141938095Y-77138095D01*
X141652381Y-78042857D02*
X141652381Y-78661905D01*
X142033333Y-78328571D01*
X142033333Y-78471429D01*
X142080952Y-78566667D01*
X142128571Y-78614286D01*
X142223810Y-78661905D01*
X142461905Y-78661905D01*
X142557143Y-78614286D01*
X142604762Y-78566667D01*
X142652381Y-78471429D01*
X142652381Y-78185714D01*
X142604762Y-78090476D01*
X142557143Y-78042857D01*
X144442857Y-61752381D02*
X144776191Y-61276190D01*
X145014286Y-61752381D02*
X145014286Y-60752381D01*
X144633333Y-60752381D01*
X144538095Y-60800000D01*
X144490476Y-60847619D01*
X144442857Y-60942857D01*
X144442857Y-61085714D01*
X144490476Y-61180952D01*
X144538095Y-61228571D01*
X144633333Y-61276190D01*
X145014286Y-61276190D01*
X144061905Y-60847619D02*
X144014286Y-60800000D01*
X143919048Y-60752381D01*
X143680952Y-60752381D01*
X143585714Y-60800000D01*
X143538095Y-60847619D01*
X143490476Y-60942857D01*
X143490476Y-61038095D01*
X143538095Y-61180952D01*
X144109524Y-61752381D01*
X143490476Y-61752381D01*
X142633333Y-61085714D02*
X142633333Y-61752381D01*
X142871429Y-60704762D02*
X143109524Y-61419048D01*
X142490476Y-61419048D01*
X138442857Y-61052381D02*
X138776191Y-60576190D01*
X139014286Y-61052381D02*
X139014286Y-60052381D01*
X138633333Y-60052381D01*
X138538095Y-60100000D01*
X138490476Y-60147619D01*
X138442857Y-60242857D01*
X138442857Y-60385714D01*
X138490476Y-60480952D01*
X138538095Y-60528571D01*
X138633333Y-60576190D01*
X139014286Y-60576190D01*
X138061905Y-60147619D02*
X138014286Y-60100000D01*
X137919048Y-60052381D01*
X137680952Y-60052381D01*
X137585714Y-60100000D01*
X137538095Y-60147619D01*
X137490476Y-60242857D01*
X137490476Y-60338095D01*
X137538095Y-60480952D01*
X138109524Y-61052381D01*
X137490476Y-61052381D01*
X136919048Y-60480952D02*
X137014286Y-60433333D01*
X137061905Y-60385714D01*
X137109524Y-60290476D01*
X137109524Y-60242857D01*
X137061905Y-60147619D01*
X137014286Y-60100000D01*
X136919048Y-60052381D01*
X136728571Y-60052381D01*
X136633333Y-60100000D01*
X136585714Y-60147619D01*
X136538095Y-60242857D01*
X136538095Y-60290476D01*
X136585714Y-60385714D01*
X136633333Y-60433333D01*
X136728571Y-60480952D01*
X136919048Y-60480952D01*
X137014286Y-60528571D01*
X137061905Y-60576190D01*
X137109524Y-60671429D01*
X137109524Y-60861905D01*
X137061905Y-60957143D01*
X137014286Y-61004762D01*
X136919048Y-61052381D01*
X136728571Y-61052381D01*
X136633333Y-61004762D01*
X136585714Y-60957143D01*
X136538095Y-60861905D01*
X136538095Y-60671429D01*
X136585714Y-60576190D01*
X136633333Y-60528571D01*
X136728571Y-60480952D01*
X133142857Y-77452381D02*
X133476191Y-76976190D01*
X133714286Y-77452381D02*
X133714286Y-76452381D01*
X133333333Y-76452381D01*
X133238095Y-76500000D01*
X133190476Y-76547619D01*
X133142857Y-76642857D01*
X133142857Y-76785714D01*
X133190476Y-76880952D01*
X133238095Y-76928571D01*
X133333333Y-76976190D01*
X133714286Y-76976190D01*
X132190476Y-77452381D02*
X132761905Y-77452381D01*
X132476191Y-77452381D02*
X132476191Y-76452381D01*
X132571429Y-76595238D01*
X132666667Y-76690476D01*
X132761905Y-76738095D01*
X131571429Y-76452381D02*
X131476190Y-76452381D01*
X131380952Y-76500000D01*
X131333333Y-76547619D01*
X131285714Y-76642857D01*
X131238095Y-76833333D01*
X131238095Y-77071429D01*
X131285714Y-77261905D01*
X131333333Y-77357143D01*
X131380952Y-77404762D01*
X131476190Y-77452381D01*
X131571429Y-77452381D01*
X131666667Y-77404762D01*
X131714286Y-77357143D01*
X131761905Y-77261905D01*
X131809524Y-77071429D01*
X131809524Y-76833333D01*
X131761905Y-76642857D01*
X131714286Y-76547619D01*
X131666667Y-76500000D01*
X131571429Y-76452381D01*
X126242857Y-77052381D02*
X126576191Y-76576190D01*
X126814286Y-77052381D02*
X126814286Y-76052381D01*
X126433333Y-76052381D01*
X126338095Y-76100000D01*
X126290476Y-76147619D01*
X126242857Y-76242857D01*
X126242857Y-76385714D01*
X126290476Y-76480952D01*
X126338095Y-76528571D01*
X126433333Y-76576190D01*
X126814286Y-76576190D01*
X125290476Y-77052381D02*
X125861905Y-77052381D01*
X125576191Y-77052381D02*
X125576191Y-76052381D01*
X125671429Y-76195238D01*
X125766667Y-76290476D01*
X125861905Y-76338095D01*
X124338095Y-77052381D02*
X124909524Y-77052381D01*
X124623810Y-77052381D02*
X124623810Y-76052381D01*
X124719048Y-76195238D01*
X124814286Y-76290476D01*
X124909524Y-76338095D01*
X133142857Y-75652381D02*
X133476191Y-75176190D01*
X133714286Y-75652381D02*
X133714286Y-74652381D01*
X133333333Y-74652381D01*
X133238095Y-74700000D01*
X133190476Y-74747619D01*
X133142857Y-74842857D01*
X133142857Y-74985714D01*
X133190476Y-75080952D01*
X133238095Y-75128571D01*
X133333333Y-75176190D01*
X133714286Y-75176190D01*
X132190476Y-75652381D02*
X132761905Y-75652381D01*
X132476191Y-75652381D02*
X132476191Y-74652381D01*
X132571429Y-74795238D01*
X132666667Y-74890476D01*
X132761905Y-74938095D01*
X131809524Y-74747619D02*
X131761905Y-74700000D01*
X131666667Y-74652381D01*
X131428571Y-74652381D01*
X131333333Y-74700000D01*
X131285714Y-74747619D01*
X131238095Y-74842857D01*
X131238095Y-74938095D01*
X131285714Y-75080952D01*
X131857143Y-75652381D01*
X131238095Y-75652381D01*
X124842857Y-63152381D02*
X125176191Y-62676190D01*
X125414286Y-63152381D02*
X125414286Y-62152381D01*
X125033333Y-62152381D01*
X124938095Y-62200000D01*
X124890476Y-62247619D01*
X124842857Y-62342857D01*
X124842857Y-62485714D01*
X124890476Y-62580952D01*
X124938095Y-62628571D01*
X125033333Y-62676190D01*
X125414286Y-62676190D01*
X123890476Y-63152381D02*
X124461905Y-63152381D01*
X124176191Y-63152381D02*
X124176191Y-62152381D01*
X124271429Y-62295238D01*
X124366667Y-62390476D01*
X124461905Y-62438095D01*
X123557143Y-62152381D02*
X122890476Y-62152381D01*
X123319048Y-63152381D01*
X111352381Y-49833334D02*
X110876190Y-49500000D01*
X111352381Y-49261905D02*
X110352381Y-49261905D01*
X110352381Y-49642858D01*
X110400000Y-49738096D01*
X110447619Y-49785715D01*
X110542857Y-49833334D01*
X110685714Y-49833334D01*
X110780952Y-49785715D01*
X110828571Y-49738096D01*
X110876190Y-49642858D01*
X110876190Y-49261905D01*
X110352381Y-50166667D02*
X110352381Y-50785715D01*
X110733333Y-50452381D01*
X110733333Y-50595239D01*
X110780952Y-50690477D01*
X110828571Y-50738096D01*
X110923810Y-50785715D01*
X111161905Y-50785715D01*
X111257143Y-50738096D01*
X111304762Y-50690477D01*
X111352381Y-50595239D01*
X111352381Y-50309524D01*
X111304762Y-50214286D01*
X111257143Y-50166667D01*
X106452381Y-49733334D02*
X105976190Y-49400000D01*
X106452381Y-49161905D02*
X105452381Y-49161905D01*
X105452381Y-49542858D01*
X105500000Y-49638096D01*
X105547619Y-49685715D01*
X105642857Y-49733334D01*
X105785714Y-49733334D01*
X105880952Y-49685715D01*
X105928571Y-49638096D01*
X105976190Y-49542858D01*
X105976190Y-49161905D01*
X105785714Y-50590477D02*
X106452381Y-50590477D01*
X105404762Y-50352381D02*
X106119048Y-50114286D01*
X106119048Y-50733334D01*
X106652381Y-78057143D02*
X106176190Y-77723809D01*
X106652381Y-77485714D02*
X105652381Y-77485714D01*
X105652381Y-77866667D01*
X105700000Y-77961905D01*
X105747619Y-78009524D01*
X105842857Y-78057143D01*
X105985714Y-78057143D01*
X106080952Y-78009524D01*
X106128571Y-77961905D01*
X106176190Y-77866667D01*
X106176190Y-77485714D01*
X106652381Y-79009524D02*
X106652381Y-78438095D01*
X106652381Y-78723809D02*
X105652381Y-78723809D01*
X105795238Y-78628571D01*
X105890476Y-78533333D01*
X105938095Y-78438095D01*
X106652381Y-79485714D02*
X106652381Y-79676190D01*
X106604762Y-79771429D01*
X106557143Y-79819048D01*
X106414286Y-79914286D01*
X106223810Y-79961905D01*
X105842857Y-79961905D01*
X105747619Y-79914286D01*
X105700000Y-79866667D01*
X105652381Y-79771429D01*
X105652381Y-79580952D01*
X105700000Y-79485714D01*
X105747619Y-79438095D01*
X105842857Y-79390476D01*
X106080952Y-79390476D01*
X106176190Y-79438095D01*
X106223810Y-79485714D01*
X106271429Y-79580952D01*
X106271429Y-79771429D01*
X106223810Y-79866667D01*
X106176190Y-79914286D01*
X106080952Y-79961905D01*
X102552381Y-75257143D02*
X102076190Y-74923809D01*
X102552381Y-74685714D02*
X101552381Y-74685714D01*
X101552381Y-75066667D01*
X101600000Y-75161905D01*
X101647619Y-75209524D01*
X101742857Y-75257143D01*
X101885714Y-75257143D01*
X101980952Y-75209524D01*
X102028571Y-75161905D01*
X102076190Y-75066667D01*
X102076190Y-74685714D01*
X101647619Y-75638095D02*
X101600000Y-75685714D01*
X101552381Y-75780952D01*
X101552381Y-76019048D01*
X101600000Y-76114286D01*
X101647619Y-76161905D01*
X101742857Y-76209524D01*
X101838095Y-76209524D01*
X101980952Y-76161905D01*
X102552381Y-75590476D01*
X102552381Y-76209524D01*
X101552381Y-76828571D02*
X101552381Y-76923810D01*
X101600000Y-77019048D01*
X101647619Y-77066667D01*
X101742857Y-77114286D01*
X101933333Y-77161905D01*
X102171429Y-77161905D01*
X102361905Y-77114286D01*
X102457143Y-77066667D01*
X102504762Y-77019048D01*
X102552381Y-76923810D01*
X102552381Y-76828571D01*
X102504762Y-76733333D01*
X102457143Y-76685714D01*
X102361905Y-76638095D01*
X102171429Y-76590476D01*
X101933333Y-76590476D01*
X101742857Y-76638095D01*
X101647619Y-76685714D01*
X101600000Y-76733333D01*
X101552381Y-76828571D01*
X107357143Y-59857143D02*
X107404762Y-59809524D01*
X107452381Y-59666667D01*
X107452381Y-59571429D01*
X107404762Y-59428571D01*
X107309524Y-59333333D01*
X107214286Y-59285714D01*
X107023810Y-59238095D01*
X106880952Y-59238095D01*
X106690476Y-59285714D01*
X106595238Y-59333333D01*
X106500000Y-59428571D01*
X106452381Y-59571429D01*
X106452381Y-59666667D01*
X106500000Y-59809524D01*
X106547619Y-59857143D01*
X106547619Y-60238095D02*
X106500000Y-60285714D01*
X106452381Y-60380952D01*
X106452381Y-60619048D01*
X106500000Y-60714286D01*
X106547619Y-60761905D01*
X106642857Y-60809524D01*
X106738095Y-60809524D01*
X106880952Y-60761905D01*
X107452381Y-60190476D01*
X107452381Y-60809524D01*
X106880952Y-61380952D02*
X106833333Y-61285714D01*
X106785714Y-61238095D01*
X106690476Y-61190476D01*
X106642857Y-61190476D01*
X106547619Y-61238095D01*
X106500000Y-61285714D01*
X106452381Y-61380952D01*
X106452381Y-61571429D01*
X106500000Y-61666667D01*
X106547619Y-61714286D01*
X106642857Y-61761905D01*
X106690476Y-61761905D01*
X106785714Y-61714286D01*
X106833333Y-61666667D01*
X106880952Y-61571429D01*
X106880952Y-61380952D01*
X106928571Y-61285714D01*
X106976190Y-61238095D01*
X107071429Y-61190476D01*
X107261905Y-61190476D01*
X107357143Y-61238095D01*
X107404762Y-61285714D01*
X107452381Y-61380952D01*
X107452381Y-61571429D01*
X107404762Y-61666667D01*
X107357143Y-61714286D01*
X107261905Y-61761905D01*
X107071429Y-61761905D01*
X106976190Y-61714286D01*
X106928571Y-61666667D01*
X106880952Y-61571429D01*
X113257143Y-59757143D02*
X113304762Y-59709524D01*
X113352381Y-59566667D01*
X113352381Y-59471429D01*
X113304762Y-59328571D01*
X113209524Y-59233333D01*
X113114286Y-59185714D01*
X112923810Y-59138095D01*
X112780952Y-59138095D01*
X112590476Y-59185714D01*
X112495238Y-59233333D01*
X112400000Y-59328571D01*
X112352381Y-59471429D01*
X112352381Y-59566667D01*
X112400000Y-59709524D01*
X112447619Y-59757143D01*
X112447619Y-60138095D02*
X112400000Y-60185714D01*
X112352381Y-60280952D01*
X112352381Y-60519048D01*
X112400000Y-60614286D01*
X112447619Y-60661905D01*
X112542857Y-60709524D01*
X112638095Y-60709524D01*
X112780952Y-60661905D01*
X113352381Y-60090476D01*
X113352381Y-60709524D01*
X113352381Y-61185714D02*
X113352381Y-61376190D01*
X113304762Y-61471429D01*
X113257143Y-61519048D01*
X113114286Y-61614286D01*
X112923810Y-61661905D01*
X112542857Y-61661905D01*
X112447619Y-61614286D01*
X112400000Y-61566667D01*
X112352381Y-61471429D01*
X112352381Y-61280952D01*
X112400000Y-61185714D01*
X112447619Y-61138095D01*
X112542857Y-61090476D01*
X112780952Y-61090476D01*
X112876190Y-61138095D01*
X112923810Y-61185714D01*
X112971429Y-61280952D01*
X112971429Y-61471429D01*
X112923810Y-61566667D01*
X112876190Y-61614286D01*
X112780952Y-61661905D01*
X104533333Y-51078571D02*
X104866667Y-51078571D01*
X104866667Y-51602381D02*
X104866667Y-50602381D01*
X104390476Y-50602381D01*
X103676190Y-51078571D02*
X103533333Y-51126190D01*
X103485714Y-51173810D01*
X103438095Y-51269048D01*
X103438095Y-51411905D01*
X103485714Y-51507143D01*
X103533333Y-51554762D01*
X103628571Y-51602381D01*
X104009524Y-51602381D01*
X104009524Y-50602381D01*
X103676190Y-50602381D01*
X103580952Y-50650000D01*
X103533333Y-50697619D01*
X103485714Y-50792857D01*
X103485714Y-50888095D01*
X103533333Y-50983333D01*
X103580952Y-51030952D01*
X103676190Y-51078571D01*
X104009524Y-51078571D01*
X102485714Y-51602381D02*
X103057143Y-51602381D01*
X102771429Y-51602381D02*
X102771429Y-50602381D01*
X102866667Y-50745238D01*
X102961905Y-50840476D01*
X103057143Y-50888095D01*
X65928571Y-82066667D02*
X65928571Y-81733333D01*
X66452381Y-81733333D02*
X65452381Y-81733333D01*
X65452381Y-82209524D01*
X65928571Y-82923810D02*
X65976190Y-83066667D01*
X66023810Y-83114286D01*
X66119048Y-83161905D01*
X66261905Y-83161905D01*
X66357143Y-83114286D01*
X66404762Y-83066667D01*
X66452381Y-82971429D01*
X66452381Y-82590476D01*
X65452381Y-82590476D01*
X65452381Y-82923810D01*
X65500000Y-83019048D01*
X65547619Y-83066667D01*
X65642857Y-83114286D01*
X65738095Y-83114286D01*
X65833333Y-83066667D01*
X65880952Y-83019048D01*
X65928571Y-82923810D01*
X65928571Y-82590476D01*
X65547619Y-83542857D02*
X65500000Y-83590476D01*
X65452381Y-83685714D01*
X65452381Y-83923810D01*
X65500000Y-84019048D01*
X65547619Y-84066667D01*
X65642857Y-84114286D01*
X65738095Y-84114286D01*
X65880952Y-84066667D01*
X66452381Y-83495238D01*
X66452381Y-84114286D01*
X102652381Y-71957143D02*
X102176190Y-71623809D01*
X102652381Y-71385714D02*
X101652381Y-71385714D01*
X101652381Y-71766667D01*
X101700000Y-71861905D01*
X101747619Y-71909524D01*
X101842857Y-71957143D01*
X101985714Y-71957143D01*
X102080952Y-71909524D01*
X102128571Y-71861905D01*
X102176190Y-71766667D01*
X102176190Y-71385714D01*
X101985714Y-72814286D02*
X102652381Y-72814286D01*
X101604762Y-72576190D02*
X102319048Y-72338095D01*
X102319048Y-72957143D01*
X101652381Y-73528571D02*
X101652381Y-73623810D01*
X101700000Y-73719048D01*
X101747619Y-73766667D01*
X101842857Y-73814286D01*
X102033333Y-73861905D01*
X102271429Y-73861905D01*
X102461905Y-73814286D01*
X102557143Y-73766667D01*
X102604762Y-73719048D01*
X102652381Y-73623810D01*
X102652381Y-73528571D01*
X102604762Y-73433333D01*
X102557143Y-73385714D01*
X102461905Y-73338095D01*
X102271429Y-73290476D01*
X102033333Y-73290476D01*
X101842857Y-73338095D01*
X101747619Y-73385714D01*
X101700000Y-73433333D01*
X101652381Y-73528571D01*
X108302381Y-71857143D02*
X107826190Y-71523809D01*
X108302381Y-71285714D02*
X107302381Y-71285714D01*
X107302381Y-71666667D01*
X107350000Y-71761905D01*
X107397619Y-71809524D01*
X107492857Y-71857143D01*
X107635714Y-71857143D01*
X107730952Y-71809524D01*
X107778571Y-71761905D01*
X107826190Y-71666667D01*
X107826190Y-71285714D01*
X107635714Y-72714286D02*
X108302381Y-72714286D01*
X107254762Y-72476190D02*
X107969048Y-72238095D01*
X107969048Y-72857143D01*
X108302381Y-73761905D02*
X108302381Y-73190476D01*
X108302381Y-73476190D02*
X107302381Y-73476190D01*
X107445238Y-73380952D01*
X107540476Y-73285714D01*
X107588095Y-73190476D01*
X107552381Y-56657143D02*
X107076190Y-56323809D01*
X107552381Y-56085714D02*
X106552381Y-56085714D01*
X106552381Y-56466667D01*
X106600000Y-56561905D01*
X106647619Y-56609524D01*
X106742857Y-56657143D01*
X106885714Y-56657143D01*
X106980952Y-56609524D01*
X107028571Y-56561905D01*
X107076190Y-56466667D01*
X107076190Y-56085714D01*
X106885714Y-57514286D02*
X107552381Y-57514286D01*
X106504762Y-57276190D02*
X107219048Y-57038095D01*
X107219048Y-57657143D01*
X106885714Y-58466667D02*
X107552381Y-58466667D01*
X106504762Y-58228571D02*
X107219048Y-57990476D01*
X107219048Y-58609524D01*
X113352381Y-56657143D02*
X112876190Y-56323809D01*
X113352381Y-56085714D02*
X112352381Y-56085714D01*
X112352381Y-56466667D01*
X112400000Y-56561905D01*
X112447619Y-56609524D01*
X112542857Y-56657143D01*
X112685714Y-56657143D01*
X112780952Y-56609524D01*
X112828571Y-56561905D01*
X112876190Y-56466667D01*
X112876190Y-56085714D01*
X112685714Y-57514286D02*
X113352381Y-57514286D01*
X112304762Y-57276190D02*
X113019048Y-57038095D01*
X113019048Y-57657143D01*
X112352381Y-58514286D02*
X112352381Y-58038095D01*
X112828571Y-57990476D01*
X112780952Y-58038095D01*
X112733333Y-58133333D01*
X112733333Y-58371429D01*
X112780952Y-58466667D01*
X112828571Y-58514286D01*
X112923810Y-58561905D01*
X113161905Y-58561905D01*
X113257143Y-58514286D01*
X113304762Y-58466667D01*
X113352381Y-58371429D01*
X113352381Y-58133333D01*
X113304762Y-58038095D01*
X113257143Y-57990476D01*
X108152381Y-49057143D02*
X107676190Y-48723809D01*
X108152381Y-48485714D02*
X107152381Y-48485714D01*
X107152381Y-48866667D01*
X107200000Y-48961905D01*
X107247619Y-49009524D01*
X107342857Y-49057143D01*
X107485714Y-49057143D01*
X107580952Y-49009524D01*
X107628571Y-48961905D01*
X107676190Y-48866667D01*
X107676190Y-48485714D01*
X107152381Y-49961905D02*
X107152381Y-49485714D01*
X107628571Y-49438095D01*
X107580952Y-49485714D01*
X107533333Y-49580952D01*
X107533333Y-49819048D01*
X107580952Y-49914286D01*
X107628571Y-49961905D01*
X107723810Y-50009524D01*
X107961905Y-50009524D01*
X108057143Y-49961905D01*
X108104762Y-49914286D01*
X108152381Y-49819048D01*
X108152381Y-49580952D01*
X108104762Y-49485714D01*
X108057143Y-49438095D01*
X107152381Y-50628571D02*
X107152381Y-50723810D01*
X107200000Y-50819048D01*
X107247619Y-50866667D01*
X107342857Y-50914286D01*
X107533333Y-50961905D01*
X107771429Y-50961905D01*
X107961905Y-50914286D01*
X108057143Y-50866667D01*
X108104762Y-50819048D01*
X108152381Y-50723810D01*
X108152381Y-50628571D01*
X108104762Y-50533333D01*
X108057143Y-50485714D01*
X107961905Y-50438095D01*
X107771429Y-50390476D01*
X107533333Y-50390476D01*
X107342857Y-50438095D01*
X107247619Y-50485714D01*
X107200000Y-50533333D01*
X107152381Y-50628571D01*
X114552381Y-51657143D02*
X114076190Y-51323809D01*
X114552381Y-51085714D02*
X113552381Y-51085714D01*
X113552381Y-51466667D01*
X113600000Y-51561905D01*
X113647619Y-51609524D01*
X113742857Y-51657143D01*
X113885714Y-51657143D01*
X113980952Y-51609524D01*
X114028571Y-51561905D01*
X114076190Y-51466667D01*
X114076190Y-51085714D01*
X113552381Y-52561905D02*
X113552381Y-52085714D01*
X114028571Y-52038095D01*
X113980952Y-52085714D01*
X113933333Y-52180952D01*
X113933333Y-52419048D01*
X113980952Y-52514286D01*
X114028571Y-52561905D01*
X114123810Y-52609524D01*
X114361905Y-52609524D01*
X114457143Y-52561905D01*
X114504762Y-52514286D01*
X114552381Y-52419048D01*
X114552381Y-52180952D01*
X114504762Y-52085714D01*
X114457143Y-52038095D01*
X114552381Y-53561905D02*
X114552381Y-52990476D01*
X114552381Y-53276190D02*
X113552381Y-53276190D01*
X113695238Y-53180952D01*
X113790476Y-53085714D01*
X113838095Y-52990476D01*
X99257143Y-75157143D02*
X99304762Y-75109524D01*
X99352381Y-74966667D01*
X99352381Y-74871429D01*
X99304762Y-74728571D01*
X99209524Y-74633333D01*
X99114286Y-74585714D01*
X98923810Y-74538095D01*
X98780952Y-74538095D01*
X98590476Y-74585714D01*
X98495238Y-74633333D01*
X98400000Y-74728571D01*
X98352381Y-74871429D01*
X98352381Y-74966667D01*
X98400000Y-75109524D01*
X98447619Y-75157143D01*
X98352381Y-75490476D02*
X98352381Y-76109524D01*
X98733333Y-75776190D01*
X98733333Y-75919048D01*
X98780952Y-76014286D01*
X98828571Y-76061905D01*
X98923810Y-76109524D01*
X99161905Y-76109524D01*
X99257143Y-76061905D01*
X99304762Y-76014286D01*
X99352381Y-75919048D01*
X99352381Y-75633333D01*
X99304762Y-75538095D01*
X99257143Y-75490476D01*
X98352381Y-76966667D02*
X98352381Y-76776190D01*
X98400000Y-76680952D01*
X98447619Y-76633333D01*
X98590476Y-76538095D01*
X98780952Y-76490476D01*
X99161905Y-76490476D01*
X99257143Y-76538095D01*
X99304762Y-76585714D01*
X99352381Y-76680952D01*
X99352381Y-76871429D01*
X99304762Y-76966667D01*
X99257143Y-77014286D01*
X99161905Y-77061905D01*
X98923810Y-77061905D01*
X98828571Y-77014286D01*
X98780952Y-76966667D01*
X98733333Y-76871429D01*
X98733333Y-76680952D01*
X98780952Y-76585714D01*
X98828571Y-76538095D01*
X98923810Y-76490476D01*
X122033333Y-74628571D02*
X122366667Y-74628571D01*
X122366667Y-75152381D02*
X122366667Y-74152381D01*
X121890476Y-74152381D01*
X121176190Y-74628571D02*
X121033333Y-74676190D01*
X120985714Y-74723810D01*
X120938095Y-74819048D01*
X120938095Y-74961905D01*
X120985714Y-75057143D01*
X121033333Y-75104762D01*
X121128571Y-75152381D01*
X121509524Y-75152381D01*
X121509524Y-74152381D01*
X121176190Y-74152381D01*
X121080952Y-74200000D01*
X121033333Y-74247619D01*
X120985714Y-74342857D01*
X120985714Y-74438095D01*
X121033333Y-74533333D01*
X121080952Y-74580952D01*
X121176190Y-74628571D01*
X121509524Y-74628571D01*
X120604762Y-74152381D02*
X119985714Y-74152381D01*
X120319048Y-74533333D01*
X120176190Y-74533333D01*
X120080952Y-74580952D01*
X120033333Y-74628571D01*
X119985714Y-74723810D01*
X119985714Y-74961905D01*
X120033333Y-75057143D01*
X120080952Y-75104762D01*
X120176190Y-75152381D01*
X120461905Y-75152381D01*
X120557143Y-75104762D01*
X120604762Y-75057143D01*
X119833333Y-71728571D02*
X120166667Y-71728571D01*
X120166667Y-72252381D02*
X120166667Y-71252381D01*
X119690476Y-71252381D01*
X118976190Y-71728571D02*
X118833333Y-71776190D01*
X118785714Y-71823810D01*
X118738095Y-71919048D01*
X118738095Y-72061905D01*
X118785714Y-72157143D01*
X118833333Y-72204762D01*
X118928571Y-72252381D01*
X119309524Y-72252381D01*
X119309524Y-71252381D01*
X118976190Y-71252381D01*
X118880952Y-71300000D01*
X118833333Y-71347619D01*
X118785714Y-71442857D01*
X118785714Y-71538095D01*
X118833333Y-71633333D01*
X118880952Y-71680952D01*
X118976190Y-71728571D01*
X119309524Y-71728571D01*
X117880952Y-71585714D02*
X117880952Y-72252381D01*
X118119048Y-71204762D02*
X118357143Y-71919048D01*
X117738095Y-71919048D01*
X122278571Y-56366667D02*
X122278571Y-56033333D01*
X122802381Y-56033333D02*
X121802381Y-56033333D01*
X121802381Y-56509524D01*
X122278571Y-57223810D02*
X122326190Y-57366667D01*
X122373810Y-57414286D01*
X122469048Y-57461905D01*
X122611905Y-57461905D01*
X122707143Y-57414286D01*
X122754762Y-57366667D01*
X122802381Y-57271429D01*
X122802381Y-56890476D01*
X121802381Y-56890476D01*
X121802381Y-57223810D01*
X121850000Y-57319048D01*
X121897619Y-57366667D01*
X121992857Y-57414286D01*
X122088095Y-57414286D01*
X122183333Y-57366667D01*
X122230952Y-57319048D01*
X122278571Y-57223810D01*
X122278571Y-56890476D01*
X121802381Y-58366667D02*
X121802381Y-57890476D01*
X122278571Y-57842857D01*
X122230952Y-57890476D01*
X122183333Y-57985714D01*
X122183333Y-58223810D01*
X122230952Y-58319048D01*
X122278571Y-58366667D01*
X122373810Y-58414286D01*
X122611905Y-58414286D01*
X122707143Y-58366667D01*
X122754762Y-58319048D01*
X122802381Y-58223810D01*
X122802381Y-57985714D01*
X122754762Y-57890476D01*
X122707143Y-57842857D01*
D17*
X49575771Y-68050058D02*
X48966171Y-68050058D01*
X48966171Y-68195201D01*
X48995200Y-68282286D01*
X49053257Y-68340344D01*
X49111314Y-68369372D01*
X49227429Y-68398401D01*
X49314514Y-68398401D01*
X49430629Y-68369372D01*
X49488686Y-68340344D01*
X49546743Y-68282286D01*
X49575771Y-68195201D01*
X49575771Y-68050058D01*
X48966171Y-68949944D02*
X48966171Y-68659658D01*
X49256457Y-68630629D01*
X49227429Y-68659658D01*
X49198400Y-68717715D01*
X49198400Y-68862858D01*
X49227429Y-68920915D01*
X49256457Y-68949944D01*
X49314514Y-68978972D01*
X49459657Y-68978972D01*
X49517714Y-68949944D01*
X49546743Y-68920915D01*
X49575771Y-68862858D01*
X49575771Y-68717715D01*
X49546743Y-68659658D01*
X49517714Y-68630629D01*
D18*
X50727093Y-67956388D02*
X50920617Y-67956388D01*
X50920617Y-67549988D01*
X50610979Y-67588692D02*
X50591627Y-67569340D01*
X50552922Y-67549988D01*
X50456160Y-67549988D01*
X50417456Y-67569340D01*
X50398103Y-67588692D01*
X50378751Y-67627397D01*
X50378751Y-67666102D01*
X50398103Y-67724159D01*
X50630332Y-67956388D01*
X50378751Y-67956388D01*
D10*
X72742857Y-81407143D02*
X72790476Y-81454762D01*
X72933333Y-81502381D01*
X73028571Y-81502381D01*
X73171429Y-81454762D01*
X73266667Y-81359524D01*
X73314286Y-81264286D01*
X73361905Y-81073810D01*
X73361905Y-80930952D01*
X73314286Y-80740476D01*
X73266667Y-80645238D01*
X73171429Y-80550000D01*
X73028571Y-80502381D01*
X72933333Y-80502381D01*
X72790476Y-80550000D01*
X72742857Y-80597619D01*
X72409524Y-80502381D02*
X71790476Y-80502381D01*
X72123810Y-80883333D01*
X71980952Y-80883333D01*
X71885714Y-80930952D01*
X71838095Y-80978571D01*
X71790476Y-81073810D01*
X71790476Y-81311905D01*
X71838095Y-81407143D01*
X71885714Y-81454762D01*
X71980952Y-81502381D01*
X72266667Y-81502381D01*
X72361905Y-81454762D01*
X72409524Y-81407143D01*
X70885714Y-80502381D02*
X71361905Y-80502381D01*
X71409524Y-80978571D01*
X71361905Y-80930952D01*
X71266667Y-80883333D01*
X71028571Y-80883333D01*
X70933333Y-80930952D01*
X70885714Y-80978571D01*
X70838095Y-81073810D01*
X70838095Y-81311905D01*
X70885714Y-81407143D01*
X70933333Y-81454762D01*
X71028571Y-81502381D01*
X71266667Y-81502381D01*
X71361905Y-81454762D01*
X71409524Y-81407143D01*
X36083333Y-80304762D02*
X35940476Y-80352381D01*
X35702380Y-80352381D01*
X35607142Y-80304762D01*
X35559523Y-80257143D01*
X35511904Y-80161905D01*
X35511904Y-80066667D01*
X35559523Y-79971429D01*
X35607142Y-79923810D01*
X35702380Y-79876190D01*
X35892857Y-79828571D01*
X35988095Y-79780952D01*
X36035714Y-79733333D01*
X36083333Y-79638095D01*
X36083333Y-79542857D01*
X36035714Y-79447619D01*
X35988095Y-79400000D01*
X35892857Y-79352381D01*
X35654761Y-79352381D01*
X35511904Y-79400000D01*
X35178571Y-79352381D02*
X34940476Y-80352381D01*
X34749999Y-79638095D01*
X34559523Y-80352381D01*
X34321428Y-79352381D01*
X33416666Y-80352381D02*
X33988095Y-80352381D01*
X33702381Y-80352381D02*
X33702381Y-79352381D01*
X33797619Y-79495238D01*
X33892857Y-79590476D01*
X33988095Y-79638095D01*
X37035714Y-87202381D02*
X37035714Y-86202381D01*
X36654761Y-86202381D01*
X36559523Y-86250000D01*
X36511904Y-86297619D01*
X36464285Y-86392857D01*
X36464285Y-86535714D01*
X36511904Y-86630952D01*
X36559523Y-86678571D01*
X36654761Y-86726190D01*
X37035714Y-86726190D01*
X35464285Y-87202381D02*
X35797619Y-86726190D01*
X36035714Y-87202381D02*
X36035714Y-86202381D01*
X35654761Y-86202381D01*
X35559523Y-86250000D01*
X35511904Y-86297619D01*
X35464285Y-86392857D01*
X35464285Y-86535714D01*
X35511904Y-86630952D01*
X35559523Y-86678571D01*
X35654761Y-86726190D01*
X36035714Y-86726190D01*
X34845238Y-86202381D02*
X34654761Y-86202381D01*
X34559523Y-86250000D01*
X34464285Y-86345238D01*
X34416666Y-86535714D01*
X34416666Y-86869048D01*
X34464285Y-87059524D01*
X34559523Y-87154762D01*
X34654761Y-87202381D01*
X34845238Y-87202381D01*
X34940476Y-87154762D01*
X35035714Y-87059524D01*
X35083333Y-86869048D01*
X35083333Y-86535714D01*
X35035714Y-86345238D01*
X34940476Y-86250000D01*
X34845238Y-86202381D01*
X33464285Y-86250000D02*
X33559523Y-86202381D01*
X33702380Y-86202381D01*
X33845238Y-86250000D01*
X33940476Y-86345238D01*
X33988095Y-86440476D01*
X34035714Y-86630952D01*
X34035714Y-86773810D01*
X33988095Y-86964286D01*
X33940476Y-87059524D01*
X33845238Y-87154762D01*
X33702380Y-87202381D01*
X33607142Y-87202381D01*
X33464285Y-87154762D01*
X33416666Y-87107143D01*
X33416666Y-86773810D01*
X33607142Y-86773810D01*
M02*
