G04 #@! TF.FileFunction,Paste,Top*
%FSLAX46Y46*%
G04 Gerber Fmt 4.6, Leading zero omitted, Abs format (unit mm)*
G04 Created by KiCad (PCBNEW 4.0.1-stable) date 2017-04-04 9:13:48 AM*
%MOMM*%
G01*
G04 APERTURE LIST*
%ADD10C,0.150000*%
%ADD11R,1.000000X2.800000*%
%ADD12C,1.270000*%
%ADD13R,1.198880X1.198880*%
%ADD14R,2.430000X2.370000*%
%ADD15R,4.130000X2.370000*%
%ADD16R,1.550000X0.600000*%
%ADD17R,0.400000X1.200000*%
%ADD18R,4.000500X2.400300*%
%ADD19R,1.800860X2.499360*%
%ADD20R,0.508000X1.143000*%
%ADD21R,1.000000X1.250000*%
%ADD22R,1.250000X1.000000*%
%ADD23R,0.700000X1.300000*%
%ADD24R,1.300000X0.700000*%
%ADD25R,1.524000X2.032000*%
%ADD26R,1.700000X0.900000*%
%ADD27R,3.200000X1.000000*%
%ADD28R,2.500000X1.000000*%
%ADD29R,2.999740X4.900000*%
%ADD30R,3.299460X2.499360*%
%ADD31R,1.727000X0.457000*%
%ADD32R,0.600000X0.420000*%
%ADD33R,1.143000X0.508000*%
%ADD34R,0.900000X0.800000*%
%ADD35R,0.736600X1.143000*%
%ADD36R,3.749040X2.550160*%
%ADD37R,1.000000X2.500000*%
%ADD38R,0.900000X1.700000*%
%ADD39R,2.500000X0.900000*%
G04 APERTURE END LIST*
D10*
D11*
X55000000Y-74000000D03*
X57500000Y-74000000D03*
X53000000Y-74000000D03*
X50500000Y-74000000D03*
D12*
X35600000Y-63842830D03*
X35600000Y-69354630D03*
D13*
X143800000Y-55350980D03*
X143800000Y-57449020D03*
X139200000Y-55350980D03*
X139200000Y-57449020D03*
D14*
X135839000Y-82286000D03*
X135839000Y-88526000D03*
D15*
X142951000Y-82794000D03*
X142951000Y-89034000D03*
D16*
X127109000Y-95693000D03*
X127109000Y-94423000D03*
X127109000Y-93153000D03*
X127109000Y-91883000D03*
X121709000Y-91883000D03*
X121709000Y-93153000D03*
X121709000Y-94423000D03*
X121709000Y-95693000D03*
D17*
X105225000Y-88050000D03*
X104575000Y-88050000D03*
X103925000Y-88050000D03*
X103275000Y-88050000D03*
X103275000Y-92250000D03*
X103925000Y-92250000D03*
X104575000Y-92250000D03*
X105225000Y-92250000D03*
D18*
X108950500Y-98600000D03*
X100949500Y-98600000D03*
D19*
X67005000Y-94837020D03*
X67005000Y-98834980D03*
X82499000Y-94075020D03*
X82499000Y-98072980D03*
D20*
X76022000Y-93153000D03*
X77292000Y-93153000D03*
X78562000Y-93153000D03*
X79832000Y-93153000D03*
X79832000Y-99503000D03*
X78562000Y-99503000D03*
X77292000Y-99503000D03*
X76022000Y-99503000D03*
D21*
X76200000Y-58775000D03*
X74200000Y-58775000D03*
X136200000Y-75200000D03*
X138200000Y-75200000D03*
X142100000Y-75200000D03*
X140100000Y-75200000D03*
D22*
X76100000Y-55400000D03*
X76100000Y-57400000D03*
D21*
X73770000Y-64350000D03*
X71770000Y-64350000D03*
D22*
X75900000Y-63200000D03*
X75900000Y-61200000D03*
D21*
X70300000Y-54050000D03*
X72300000Y-54050000D03*
X73770000Y-66320000D03*
X71770000Y-66320000D03*
X71770000Y-69520000D03*
X73770000Y-69520000D03*
X70300000Y-52450000D03*
X72300000Y-52450000D03*
D23*
X79650000Y-55000000D03*
X81550000Y-55000000D03*
X71850000Y-61050000D03*
X73750000Y-61050000D03*
X73750000Y-62650000D03*
X71850000Y-62650000D03*
D24*
X74600000Y-55350000D03*
X74600000Y-57250000D03*
D23*
X137650000Y-62100000D03*
X139550000Y-62100000D03*
X142750000Y-62800000D03*
X144650000Y-62800000D03*
X73820000Y-67920000D03*
X71920000Y-67920000D03*
X76320000Y-52050000D03*
X74420000Y-52050000D03*
X71850000Y-71250000D03*
X73750000Y-71250000D03*
D24*
X77670000Y-54300000D03*
X77670000Y-52400000D03*
D25*
X144910000Y-65190000D03*
X142370000Y-65190000D03*
X139830000Y-65190000D03*
X137290000Y-65190000D03*
X137290000Y-72810000D03*
X139830000Y-72810000D03*
X142370000Y-72810000D03*
X144910000Y-72810000D03*
D22*
X132300000Y-87200000D03*
X132300000Y-89200000D03*
D21*
X80451000Y-101408000D03*
X78451000Y-101408000D03*
D22*
X119583000Y-91740000D03*
X119583000Y-89740000D03*
D21*
X132902000Y-83374000D03*
X130902000Y-83374000D03*
D24*
X139200000Y-52250000D03*
X139200000Y-54150000D03*
X143800000Y-52250000D03*
X143800000Y-54150000D03*
D23*
X130952000Y-85406000D03*
X132852000Y-85406000D03*
D24*
X109000000Y-81550000D03*
X109000000Y-83450000D03*
D23*
X108500000Y-89350000D03*
X106600000Y-89350000D03*
X106600000Y-91200000D03*
X108500000Y-91200000D03*
X100250000Y-92225000D03*
X102150000Y-92225000D03*
D24*
X101549000Y-88647000D03*
X101549000Y-90547000D03*
D23*
X76469000Y-90486000D03*
X78369000Y-90486000D03*
D26*
X113360000Y-93206000D03*
X113360000Y-90306000D03*
X109000000Y-84550000D03*
X109000000Y-87450000D03*
D27*
X116662000Y-93205000D03*
X116662000Y-87005000D03*
D28*
X80467000Y-86398000D03*
X80467000Y-83398000D03*
D29*
X132127000Y-98119000D03*
X141327000Y-98319000D03*
D30*
X117127000Y-96017940D03*
X117127000Y-102820060D03*
D31*
X125754000Y-89475000D03*
X125754000Y-88825000D03*
X125754000Y-88175000D03*
X125754000Y-87525000D03*
X123646000Y-87525000D03*
X123646000Y-88175000D03*
X123646000Y-88825000D03*
X123646000Y-89475000D03*
D32*
X128750000Y-76550000D03*
X128750000Y-75250000D03*
X126850000Y-76550000D03*
X128750000Y-75900000D03*
X126850000Y-75250000D03*
D33*
X121675000Y-72995000D03*
X121675000Y-74265000D03*
X121675000Y-75535000D03*
X121675000Y-76805000D03*
X115325000Y-76805000D03*
X115325000Y-75535000D03*
X115325000Y-74265000D03*
X115325000Y-72995000D03*
D24*
X113600000Y-72150000D03*
X113600000Y-74050000D03*
D22*
X113600000Y-75200000D03*
X113600000Y-77200000D03*
D24*
X129100000Y-77950000D03*
X129100000Y-79850000D03*
D22*
X112775000Y-96925000D03*
X112775000Y-98925000D03*
D34*
X81800000Y-53350000D03*
X81800000Y-51450000D03*
X79800000Y-52400000D03*
D35*
X133540000Y-27578600D03*
X133540000Y-29102600D03*
X132270000Y-27578600D03*
X132270000Y-29102600D03*
X131000000Y-27578600D03*
X131000000Y-29102600D03*
X129730000Y-27578600D03*
X129730000Y-29102600D03*
X128460000Y-27578600D03*
X128460000Y-29102600D03*
D12*
X136130800Y-22473200D03*
X125869200Y-22473200D03*
X136130800Y-24733800D03*
X125869200Y-24733800D03*
D24*
X128875000Y-97600000D03*
X128875000Y-95700000D03*
X112775000Y-101500000D03*
X112775000Y-103400000D03*
D22*
X103600000Y-74600000D03*
X103600000Y-76600000D03*
X106200000Y-76600000D03*
X106200000Y-74600000D03*
D21*
X102600000Y-52800000D03*
X104600000Y-52800000D03*
X102600000Y-51100000D03*
X104600000Y-51100000D03*
D22*
X122050000Y-83900000D03*
X122050000Y-81900000D03*
X127325000Y-81900000D03*
X127325000Y-83900000D03*
D36*
X142000000Y-40699980D03*
X142000000Y-46100020D03*
D22*
X139000000Y-43500000D03*
X139000000Y-41500000D03*
X137000000Y-43500000D03*
X137000000Y-41500000D03*
D24*
X103700000Y-71550000D03*
X103700000Y-73450000D03*
X106200000Y-71550000D03*
X106200000Y-73450000D03*
X123625000Y-84700000D03*
X123625000Y-86600000D03*
X125750000Y-84700000D03*
X125750000Y-86600000D03*
X123625000Y-81850000D03*
X123625000Y-83750000D03*
X125750000Y-81850000D03*
X125750000Y-83750000D03*
D23*
X79150000Y-88125000D03*
X81050000Y-88125000D03*
D21*
X131800000Y-44600000D03*
X129800000Y-44600000D03*
D22*
X134700000Y-41500000D03*
X134700000Y-43500000D03*
D24*
X133000000Y-43450000D03*
X133000000Y-41550000D03*
D23*
X97950000Y-52600000D03*
X96050000Y-52600000D03*
X47050000Y-61700000D03*
X48950000Y-61700000D03*
X49950000Y-61700000D03*
X51850000Y-61700000D03*
D37*
X70029000Y-89724000D03*
X67029000Y-89724000D03*
D22*
X49400000Y-58200000D03*
X49400000Y-60200000D03*
D38*
X69217000Y-82358000D03*
X66317000Y-82358000D03*
D24*
X73900000Y-98400000D03*
X73900000Y-96500000D03*
D39*
X72280000Y-55400000D03*
X72280000Y-58300000D03*
M02*
