G04 #@! TF.FileFunction,Copper,L2,Bot,Signal*
%FSLAX46Y46*%
G04 Gerber Fmt 4.6, Leading zero omitted, Abs format (unit mm)*
G04 Created by KiCad (PCBNEW 4.0.1-stable) date 4/15/2016 12:47:17 PM*
%MOMM*%
G01*
G04 APERTURE LIST*
%ADD10C,0.150000*%
%ADD11O,1.600000X2.300000*%
%ADD12O,1.300000X2.300000*%
%ADD13C,5.461000*%
%ADD14R,1.400000X1.400000*%
%ADD15C,1.524000*%
%ADD16C,1.450000*%
%ADD17R,2.032000X2.032000*%
%ADD18O,2.032000X2.032000*%
%ADD19R,1.727200X2.032000*%
%ADD20O,1.727200X2.032000*%
%ADD21R,1.727200X1.727200*%
%ADD22O,1.727200X1.727200*%
%ADD23C,2.400000*%
%ADD24C,2.500000*%
%ADD25C,1.397000*%
%ADD26C,1.320800*%
%ADD27R,2.540000X2.540000*%
%ADD28C,2.540000*%
%ADD29O,1.699260X3.500120*%
%ADD30C,1.200000*%
%ADD31C,1.000000*%
%ADD32C,0.254000*%
G04 APERTURE END LIST*
D10*
D11*
X43815000Y-36830000D03*
X46355000Y-36830000D03*
D12*
X48895000Y-36830000D03*
X51435000Y-36830000D03*
X53975000Y-36830000D03*
D11*
X56515000Y-36830000D03*
X59055000Y-36830000D03*
X61595000Y-36830000D03*
D12*
X64135000Y-36830000D03*
X66675000Y-36830000D03*
D11*
X69215000Y-36830000D03*
X71755000Y-36830000D03*
X74295000Y-36830000D03*
X76835000Y-36830000D03*
X76835000Y-29210000D03*
X74295000Y-29210000D03*
X71755000Y-29210000D03*
X69215000Y-29210000D03*
X66675000Y-29210000D03*
X64135000Y-29210000D03*
X61595000Y-29210000D03*
X59055000Y-29210000D03*
X56515000Y-29210000D03*
X53975000Y-29210000D03*
X51435000Y-29210000D03*
X48895000Y-29210000D03*
X46355000Y-29210000D03*
X43815000Y-29210000D03*
D13*
X50165000Y-19685000D03*
X78105000Y-19685000D03*
D14*
X59055000Y-20955000D03*
D15*
X59055000Y-18415000D03*
D16*
X61595000Y-20955000D03*
X61595000Y-18415000D03*
X64135000Y-20955000D03*
X64135000Y-18415000D03*
D15*
X66675000Y-20955000D03*
X66675000Y-18415000D03*
D16*
X69215000Y-20955000D03*
X69215000Y-18415000D03*
D17*
X34544000Y-22415500D03*
D18*
X37084000Y-22415500D03*
D19*
X31242000Y-19431000D03*
D20*
X33782000Y-19431000D03*
X36322000Y-19431000D03*
X38862000Y-19431000D03*
X41402000Y-19431000D03*
X43942000Y-19431000D03*
D21*
X84378800Y-30276800D03*
D22*
X84378800Y-27736800D03*
X86918800Y-30276800D03*
X86918800Y-27736800D03*
X89458800Y-30276800D03*
X89458800Y-27736800D03*
D23*
X21590000Y-20320000D03*
D24*
X19050000Y-17780000D03*
X24130000Y-17780000D03*
X24130000Y-22860000D03*
X19050000Y-22860000D03*
D25*
X39842440Y-32463740D03*
X35341560Y-32463740D03*
X39842440Y-26464260D03*
X35341560Y-26464260D03*
D26*
X67335400Y-42621200D03*
X62509400Y-42621200D03*
D27*
X96774000Y-19304000D03*
D28*
X91694000Y-19304000D03*
X86614000Y-19304000D03*
D17*
X82423000Y-42164000D03*
D18*
X84963000Y-42164000D03*
D19*
X87503000Y-35814000D03*
D20*
X84963000Y-35814000D03*
X82423000Y-35814000D03*
D29*
X71120000Y-66040000D03*
X73660000Y-66040000D03*
X68580000Y-66040000D03*
X93980000Y-46990000D03*
X91440000Y-46990000D03*
X96520000Y-46990000D03*
D19*
X20193000Y-67564000D03*
D20*
X22733000Y-67564000D03*
X25273000Y-67564000D03*
X27813000Y-67564000D03*
X30353000Y-67564000D03*
D19*
X20193000Y-44704000D03*
D20*
X22733000Y-44704000D03*
X25273000Y-44704000D03*
D30*
X51181000Y-61976000D03*
X92710000Y-34036000D03*
X87757000Y-50546000D03*
X51181000Y-67818000D03*
X49911000Y-67818000D03*
X52451000Y-67818000D03*
X52451000Y-61976000D03*
X49911000Y-61976000D03*
X69723000Y-40513000D03*
X73787000Y-54737000D03*
X64262000Y-51308000D03*
X62738000Y-51308000D03*
X64262000Y-49784000D03*
X61214000Y-51308000D03*
X61214000Y-49784000D03*
X62738000Y-49784000D03*
X52070000Y-42672000D03*
X47244000Y-66294000D03*
X44577000Y-44640500D03*
X54546500Y-44894500D03*
X52832000Y-22479000D03*
X60325000Y-23495000D03*
X57785000Y-31115000D03*
D31*
X84429600Y-25191720D03*
D30*
X98907600Y-42748200D03*
X58420000Y-45720000D03*
X69342000Y-47244000D03*
X75514200Y-39827200D03*
X69723000Y-42799000D03*
X49403000Y-53340000D03*
X42545000Y-64516000D03*
X56388000Y-32258000D03*
X65405000Y-32131000D03*
X82677000Y-47625000D03*
X76454000Y-44450000D03*
X68580000Y-49022000D03*
X72898000Y-51562000D03*
X79502000Y-45212000D03*
X33147000Y-29540200D03*
X53975000Y-32131000D03*
X50419000Y-32131000D03*
X28829000Y-38100000D03*
X50165000Y-38506400D03*
X41783000Y-52324000D03*
X42164000Y-35814000D03*
X70104000Y-34163000D03*
X72517000Y-34163000D03*
X41275000Y-34544000D03*
D32*
X87503000Y-35814000D02*
X90932000Y-35814000D01*
X90932000Y-35814000D02*
X92710000Y-34036000D01*
X63119000Y-40741600D02*
X69494400Y-40741600D01*
X63119000Y-40741600D02*
X61595000Y-39217600D01*
X61595000Y-36830000D02*
X61595000Y-39217600D01*
X69494400Y-40741600D02*
X69723000Y-40513000D01*
X52120800Y-42621200D02*
X52070000Y-42672000D01*
X55905400Y-42621200D02*
X61595000Y-36931600D01*
X55905400Y-42621200D02*
X52120800Y-42621200D01*
X86614000Y-19304000D02*
X88392000Y-19304000D01*
X96520000Y-27432000D02*
X96520000Y-30480000D01*
X88392000Y-19304000D02*
X96520000Y-27432000D01*
X61595000Y-20955000D02*
X61595000Y-20904200D01*
X61595000Y-36830000D02*
X61595000Y-36931600D01*
X24130000Y-22860000D02*
X24866600Y-22860000D01*
X24866600Y-22860000D02*
X29438600Y-27432000D01*
X29438600Y-27432000D02*
X34373820Y-27432000D01*
X34373820Y-27432000D02*
X35341560Y-26464260D01*
X44577000Y-44640500D02*
X44831000Y-44894500D01*
X44831000Y-44894500D02*
X54546500Y-44894500D01*
X52832000Y-22479000D02*
X52070000Y-22479000D01*
X36512500Y-24384000D02*
X34544000Y-22415500D01*
X50165000Y-24384000D02*
X36512500Y-24384000D01*
X52070000Y-22479000D02*
X50165000Y-24384000D01*
X59309000Y-22479000D02*
X52832000Y-22479000D01*
X60325000Y-23495000D02*
X59309000Y-22479000D01*
X63246000Y-31115000D02*
X64135000Y-30226000D01*
X57785000Y-31115000D02*
X63246000Y-31115000D01*
X64135000Y-30226000D02*
X64135000Y-29210000D01*
X59055000Y-18415000D02*
X59283600Y-18415000D01*
X59283600Y-18415000D02*
X61569600Y-16129000D01*
X88519000Y-16129000D02*
X91694000Y-19304000D01*
X61569600Y-16129000D02*
X88519000Y-16129000D01*
X64135000Y-29210000D02*
X64389000Y-29210000D01*
X64135000Y-29210000D02*
X64135000Y-29591000D01*
X84328000Y-25273000D02*
X84348320Y-25273000D01*
X68935600Y-25273000D02*
X68808600Y-25400000D01*
X67744340Y-26464260D02*
X68808600Y-25400000D01*
X39842440Y-26464260D02*
X67744340Y-26464260D01*
X84328000Y-25273000D02*
X68935600Y-25273000D01*
X84348320Y-25273000D02*
X84429600Y-25191720D01*
X85547200Y-42748200D02*
X98907600Y-42748200D01*
X85547200Y-42748200D02*
X84963000Y-42164000D01*
X67818000Y-45720000D02*
X58420000Y-45720000D01*
X69342000Y-47244000D02*
X67818000Y-45720000D01*
X65481200Y-39217600D02*
X64135000Y-37871400D01*
X74904600Y-39217600D02*
X65481200Y-39217600D01*
X75514200Y-39827200D02*
X74904600Y-39217600D01*
X64135000Y-37871400D02*
X64135000Y-36830000D01*
X69545200Y-42621200D02*
X67335400Y-42621200D01*
X69723000Y-42799000D02*
X69545200Y-42621200D01*
X81889600Y-35280600D02*
X77602080Y-35280600D01*
X77602080Y-35280600D02*
X77449680Y-35128200D01*
X77449680Y-35128200D02*
X53136800Y-35128200D01*
X53136800Y-35128200D02*
X51435000Y-36830000D01*
X81889600Y-35280600D02*
X82423000Y-35814000D01*
X49403000Y-57658000D02*
X49403000Y-53340000D01*
X42545000Y-64516000D02*
X49403000Y-57658000D01*
X65278000Y-32258000D02*
X56388000Y-32258000D01*
X65405000Y-32131000D02*
X65278000Y-32258000D01*
X75768200Y-38557200D02*
X82550000Y-45339000D01*
X75768200Y-38557200D02*
X70942200Y-38557200D01*
X69215000Y-36830000D02*
X70942200Y-38557200D01*
X82550000Y-47498000D02*
X82677000Y-47625000D01*
X82550000Y-45339000D02*
X82550000Y-47498000D01*
X68580000Y-49022000D02*
X71882000Y-49022000D01*
X71882000Y-49022000D02*
X76454000Y-44450000D01*
X72898000Y-51562000D02*
X73152000Y-51562000D01*
X73152000Y-51562000D02*
X79502000Y-45212000D01*
X86106000Y-32258000D02*
X82169000Y-32258000D01*
X86106000Y-32258000D02*
X86918800Y-31445200D01*
X86918800Y-30276800D02*
X86918800Y-31445200D01*
X73152000Y-31623000D02*
X81534000Y-31623000D01*
X81534000Y-31623000D02*
X82169000Y-32258000D01*
X73152000Y-31623000D02*
X71755000Y-30226000D01*
X71755000Y-29210000D02*
X71755000Y-30226000D01*
X71755000Y-29210000D02*
X72034400Y-29210000D01*
X71755000Y-29210000D02*
X72136000Y-29210000D01*
X71755000Y-29210000D02*
X71882000Y-29210000D01*
X69215000Y-29210000D02*
X69596000Y-29210000D01*
X89458800Y-27736800D02*
X89458800Y-26720800D01*
X72390000Y-24130000D02*
X69215000Y-20955000D01*
X86868000Y-24130000D02*
X72390000Y-24130000D01*
X89458800Y-26720800D02*
X86868000Y-24130000D01*
X85471000Y-26289000D02*
X83439000Y-26289000D01*
X86918800Y-27736800D02*
X85471000Y-26289000D01*
X68453000Y-27432000D02*
X66675000Y-29210000D01*
X82296000Y-27432000D02*
X68453000Y-27432000D01*
X83439000Y-26289000D02*
X82296000Y-27432000D01*
X66675000Y-29210000D02*
X66675000Y-28905200D01*
X66675000Y-29210000D02*
X67056000Y-29210000D01*
X34594800Y-30988000D02*
X33147000Y-29540200D01*
X55092600Y-30988000D02*
X34594800Y-30988000D01*
X55092600Y-30988000D02*
X56515000Y-29565600D01*
X56515000Y-29210000D02*
X56515000Y-29565600D01*
X50419000Y-32131000D02*
X53975000Y-32131000D01*
X50546000Y-32004000D02*
X50419000Y-32131000D01*
X50165000Y-38506400D02*
X29235400Y-38506400D01*
X29235400Y-38506400D02*
X28829000Y-38100000D01*
X50165000Y-38506400D02*
X50241200Y-38582600D01*
X25273000Y-44704000D02*
X34163000Y-44704000D01*
X34163000Y-44704000D02*
X41783000Y-52324000D01*
X82423000Y-42164000D02*
X82804000Y-42164000D01*
X82804000Y-42164000D02*
X84836000Y-44196000D01*
X84836000Y-44196000D02*
X92329000Y-44196000D01*
X92329000Y-44196000D02*
X93980000Y-45847000D01*
X93980000Y-45847000D02*
X93980000Y-46990000D01*
X93980000Y-46990000D02*
X93980000Y-46456600D01*
X93980000Y-46075600D02*
X93980000Y-46990000D01*
X42164000Y-35560000D02*
X42164000Y-35814000D01*
X43180000Y-34544000D02*
X42164000Y-35560000D01*
X69723000Y-34544000D02*
X43180000Y-34544000D01*
X70104000Y-34163000D02*
X69723000Y-34544000D01*
X72517000Y-34163000D02*
X71501000Y-33147000D01*
X71501000Y-33147000D02*
X69596000Y-33147000D01*
X69596000Y-33147000D02*
X68707000Y-34036000D01*
X68707000Y-34036000D02*
X42037000Y-34036000D01*
X42037000Y-34036000D02*
X41529000Y-34544000D01*
X41529000Y-34544000D02*
X41275000Y-34544000D01*
G36*
X18025533Y-16153877D02*
X17896285Y-16446680D01*
X19050000Y-17600395D01*
X20203715Y-16446680D01*
X20074467Y-16153877D01*
X19843770Y-16065500D01*
X23318894Y-16065500D01*
X23105533Y-16153877D01*
X22976285Y-16446680D01*
X24130000Y-17600395D01*
X25283715Y-16446680D01*
X25154467Y-16153877D01*
X24923770Y-16065500D01*
X60555469Y-16065500D01*
X59523911Y-17097059D01*
X59334100Y-17018243D01*
X58778339Y-17017758D01*
X58264697Y-17229990D01*
X57871371Y-17622630D01*
X57658243Y-18135900D01*
X57657758Y-18691661D01*
X57869990Y-19205303D01*
X58262630Y-19598629D01*
X58306236Y-19616736D01*
X58119683Y-19651838D01*
X57903559Y-19790910D01*
X57758569Y-20003110D01*
X57707560Y-20255000D01*
X57707560Y-21655000D01*
X57719226Y-21717000D01*
X53816360Y-21717000D01*
X53532485Y-21432629D01*
X53149470Y-21273587D01*
X53529914Y-20357376D01*
X53531083Y-19018498D01*
X53019796Y-17781088D01*
X52073892Y-16833532D01*
X50837376Y-16320086D01*
X49498498Y-16318917D01*
X48261088Y-16830204D01*
X47313532Y-17776108D01*
X46800086Y-19012624D01*
X46798917Y-20351502D01*
X47310204Y-21588912D01*
X48256108Y-22536468D01*
X49492624Y-23049914D01*
X50420646Y-23050724D01*
X49849370Y-23622000D01*
X38241373Y-23622000D01*
X38251433Y-23615278D01*
X38609325Y-23079655D01*
X38735000Y-22447845D01*
X38735000Y-22383155D01*
X38609325Y-21751345D01*
X38251433Y-21215722D01*
X37715810Y-20857830D01*
X37247947Y-20764766D01*
X37381670Y-20675415D01*
X37592000Y-20360634D01*
X37802330Y-20675415D01*
X38288511Y-21000271D01*
X38862000Y-21114345D01*
X39435489Y-21000271D01*
X39921670Y-20675415D01*
X40132000Y-20360634D01*
X40342330Y-20675415D01*
X40828511Y-21000271D01*
X41402000Y-21114345D01*
X41975489Y-21000271D01*
X42461670Y-20675415D01*
X42672000Y-20360634D01*
X42882330Y-20675415D01*
X43368511Y-21000271D01*
X43942000Y-21114345D01*
X44515489Y-21000271D01*
X45001670Y-20675415D01*
X45326526Y-20189234D01*
X45440600Y-19615745D01*
X45440600Y-19246255D01*
X45326526Y-18672766D01*
X45001670Y-18186585D01*
X44515489Y-17861729D01*
X43942000Y-17747655D01*
X43368511Y-17861729D01*
X42882330Y-18186585D01*
X42672000Y-18501366D01*
X42461670Y-18186585D01*
X41975489Y-17861729D01*
X41402000Y-17747655D01*
X40828511Y-17861729D01*
X40342330Y-18186585D01*
X40132000Y-18501366D01*
X39921670Y-18186585D01*
X39435489Y-17861729D01*
X38862000Y-17747655D01*
X38288511Y-17861729D01*
X37802330Y-18186585D01*
X37592000Y-18501366D01*
X37381670Y-18186585D01*
X36895489Y-17861729D01*
X36322000Y-17747655D01*
X35748511Y-17861729D01*
X35262330Y-18186585D01*
X35052000Y-18501366D01*
X34841670Y-18186585D01*
X34355489Y-17861729D01*
X33782000Y-17747655D01*
X33208511Y-17861729D01*
X32722330Y-18186585D01*
X32707500Y-18208780D01*
X32643927Y-18055302D01*
X32465299Y-17876673D01*
X32231910Y-17780000D01*
X31527750Y-17780000D01*
X31369000Y-17938750D01*
X31369000Y-19304000D01*
X31389000Y-19304000D01*
X31389000Y-19558000D01*
X31369000Y-19558000D01*
X31369000Y-20923250D01*
X31527750Y-21082000D01*
X32231910Y-21082000D01*
X32465299Y-20985327D01*
X32643927Y-20806698D01*
X32707500Y-20653220D01*
X32722330Y-20675415D01*
X33094328Y-20923976D01*
X33076559Y-20935410D01*
X32931569Y-21147610D01*
X32880560Y-21399500D01*
X32880560Y-23431500D01*
X32924838Y-23666817D01*
X33063910Y-23882941D01*
X33276110Y-24027931D01*
X33528000Y-24078940D01*
X35129809Y-24078940D01*
X35973684Y-24922815D01*
X36061357Y-24981396D01*
X36220895Y-25087996D01*
X36512500Y-25146000D01*
X39540911Y-25146000D01*
X39088060Y-25333114D01*
X38712613Y-25707907D01*
X38509172Y-26197847D01*
X38508709Y-26728346D01*
X38711294Y-27218640D01*
X39086087Y-27594087D01*
X39576027Y-27797528D01*
X40106526Y-27797991D01*
X40596820Y-27595406D01*
X40966610Y-27226260D01*
X67581109Y-27226260D01*
X67274479Y-27532891D01*
X67224151Y-27499263D01*
X66675000Y-27390030D01*
X66125849Y-27499263D01*
X65660302Y-27810332D01*
X65405000Y-28192418D01*
X65149698Y-27810332D01*
X64684151Y-27499263D01*
X64135000Y-27390030D01*
X63585849Y-27499263D01*
X63120302Y-27810332D01*
X62865000Y-28192418D01*
X62609698Y-27810332D01*
X62144151Y-27499263D01*
X61595000Y-27390030D01*
X61045849Y-27499263D01*
X60580302Y-27810332D01*
X60327851Y-28188151D01*
X59979896Y-27755500D01*
X59486819Y-27485633D01*
X59404039Y-27468096D01*
X59182000Y-27590085D01*
X59182000Y-29083000D01*
X59202000Y-29083000D01*
X59202000Y-29337000D01*
X59182000Y-29337000D01*
X59182000Y-29357000D01*
X58928000Y-29357000D01*
X58928000Y-29337000D01*
X58908000Y-29337000D01*
X58908000Y-29083000D01*
X58928000Y-29083000D01*
X58928000Y-27590085D01*
X58705961Y-27468096D01*
X58623181Y-27485633D01*
X58130104Y-27755500D01*
X57782149Y-28188151D01*
X57529698Y-27810332D01*
X57064151Y-27499263D01*
X56515000Y-27390030D01*
X55965849Y-27499263D01*
X55500302Y-27810332D01*
X55245000Y-28192418D01*
X54989698Y-27810332D01*
X54524151Y-27499263D01*
X53975000Y-27390030D01*
X53425849Y-27499263D01*
X52960302Y-27810332D01*
X52705000Y-28192418D01*
X52449698Y-27810332D01*
X51984151Y-27499263D01*
X51435000Y-27390030D01*
X50885849Y-27499263D01*
X50420302Y-27810332D01*
X50165000Y-28192418D01*
X49909698Y-27810332D01*
X49444151Y-27499263D01*
X48895000Y-27390030D01*
X48345849Y-27499263D01*
X47880302Y-27810332D01*
X47625000Y-28192418D01*
X47369698Y-27810332D01*
X46904151Y-27499263D01*
X46355000Y-27390030D01*
X45805849Y-27499263D01*
X45340302Y-27810332D01*
X45085000Y-28192418D01*
X44829698Y-27810332D01*
X44364151Y-27499263D01*
X43815000Y-27390030D01*
X43265849Y-27499263D01*
X42800302Y-27810332D01*
X42489233Y-28275879D01*
X42380000Y-28825030D01*
X42380000Y-29594970D01*
X42489233Y-30144121D01*
X42543943Y-30226000D01*
X34910431Y-30226000D01*
X34381863Y-29697433D01*
X34382214Y-29295621D01*
X34194592Y-28841543D01*
X33847485Y-28493829D01*
X33393734Y-28305415D01*
X32902421Y-28304986D01*
X32448343Y-28492608D01*
X32100629Y-28839715D01*
X31912215Y-29293466D01*
X31911786Y-29784779D01*
X32099408Y-30238857D01*
X32446515Y-30586571D01*
X32900266Y-30774985D01*
X33304507Y-30775338D01*
X34055984Y-31526815D01*
X34246053Y-31653815D01*
X34303195Y-31691996D01*
X34399640Y-31711180D01*
X34171760Y-31770811D01*
X33995633Y-32271220D01*
X34024412Y-32800939D01*
X34171760Y-33156669D01*
X34407372Y-33218323D01*
X35161955Y-32463740D01*
X35147813Y-32449598D01*
X35327418Y-32269993D01*
X35341560Y-32284135D01*
X35355703Y-32269993D01*
X35535308Y-32449598D01*
X35521165Y-32463740D01*
X36275748Y-33218323D01*
X36511360Y-33156669D01*
X36687487Y-32656260D01*
X36658708Y-32126541D01*
X36511360Y-31770811D01*
X36431830Y-31750000D01*
X38694919Y-31750000D01*
X38509172Y-32197327D01*
X38508709Y-32727826D01*
X38711294Y-33218120D01*
X39086087Y-33593567D01*
X39576027Y-33797008D01*
X40106526Y-33797471D01*
X40393561Y-33678871D01*
X40228629Y-33843515D01*
X40040215Y-34297266D01*
X40039786Y-34788579D01*
X40227408Y-35242657D01*
X40574515Y-35590371D01*
X40929066Y-35737594D01*
X40928786Y-36058579D01*
X41116408Y-36512657D01*
X41463515Y-36860371D01*
X41917266Y-37048785D01*
X42380000Y-37049189D01*
X42380000Y-37214970D01*
X42485310Y-37744400D01*
X30018341Y-37744400D01*
X29876592Y-37401343D01*
X29529485Y-37053629D01*
X29075734Y-36865215D01*
X28584421Y-36864786D01*
X28130343Y-37052408D01*
X27782629Y-37399515D01*
X27594215Y-37853266D01*
X27593786Y-38344579D01*
X27781408Y-38798657D01*
X28128515Y-39146371D01*
X28582266Y-39334785D01*
X29073579Y-39335214D01*
X29235319Y-39268384D01*
X29235400Y-39268400D01*
X49180640Y-39268400D01*
X49464515Y-39552771D01*
X49918266Y-39741185D01*
X50409579Y-39741614D01*
X50863657Y-39553992D01*
X51211371Y-39206885D01*
X51399785Y-38753134D01*
X51399881Y-38642984D01*
X51435000Y-38649970D01*
X51926748Y-38552155D01*
X52343632Y-38273602D01*
X52622185Y-37856718D01*
X52705000Y-37440380D01*
X52787815Y-37856718D01*
X53066368Y-38273602D01*
X53483252Y-38552155D01*
X53975000Y-38649970D01*
X54466748Y-38552155D01*
X54883632Y-38273602D01*
X55162185Y-37856718D01*
X55184918Y-37742430D01*
X55189233Y-37764121D01*
X55500302Y-38229668D01*
X55965849Y-38540737D01*
X56515000Y-38649970D01*
X57064151Y-38540737D01*
X57529698Y-38229668D01*
X57785000Y-37847582D01*
X58040302Y-38229668D01*
X58505849Y-38540737D01*
X59055000Y-38649970D01*
X59604151Y-38540737D01*
X60069698Y-38229668D01*
X60322149Y-37851849D01*
X60670104Y-38284500D01*
X61163181Y-38554367D01*
X61245961Y-38571904D01*
X61468000Y-38449915D01*
X61468000Y-36957000D01*
X61448000Y-36957000D01*
X61448000Y-36703000D01*
X61468000Y-36703000D01*
X61468000Y-36683000D01*
X61722000Y-36683000D01*
X61722000Y-36703000D01*
X61742000Y-36703000D01*
X61742000Y-36957000D01*
X61722000Y-36957000D01*
X61722000Y-38449915D01*
X61944039Y-38571904D01*
X62026819Y-38554367D01*
X62519896Y-38284500D01*
X62872166Y-37846483D01*
X62915986Y-37696704D01*
X62947815Y-37856718D01*
X63226368Y-38273602D01*
X63643252Y-38552155D01*
X63761682Y-38575712D01*
X64942384Y-39756415D01*
X65189595Y-39921596D01*
X65481200Y-39979600D01*
X74279066Y-39979600D01*
X74278986Y-40071779D01*
X74466608Y-40525857D01*
X74813715Y-40873571D01*
X75267466Y-41061985D01*
X75758779Y-41062414D01*
X76212857Y-40874792D01*
X76560571Y-40527685D01*
X76590053Y-40456684D01*
X81788000Y-45654631D01*
X81788000Y-46767419D01*
X81630629Y-46924515D01*
X81442215Y-47378266D01*
X81441786Y-47869579D01*
X81629408Y-48323657D01*
X81976515Y-48671371D01*
X82430266Y-48859785D01*
X82921579Y-48860214D01*
X83375657Y-48672592D01*
X83723371Y-48325485D01*
X83911785Y-47871734D01*
X83912214Y-47380421D01*
X83724592Y-46926343D01*
X83377485Y-46578629D01*
X83312000Y-46551437D01*
X83312000Y-45339000D01*
X83306948Y-45313600D01*
X83253997Y-45047396D01*
X83088816Y-44800185D01*
X82116071Y-43827440D01*
X83389810Y-43827440D01*
X84297185Y-44734815D01*
X84544395Y-44899996D01*
X84836000Y-44958000D01*
X90442667Y-44958000D01*
X90390208Y-44993052D01*
X90068381Y-45474701D01*
X89955370Y-46042844D01*
X89955370Y-47937156D01*
X90068381Y-48505299D01*
X90390208Y-48986948D01*
X90871857Y-49308775D01*
X91440000Y-49421786D01*
X92008143Y-49308775D01*
X92489792Y-48986948D01*
X92710000Y-48657383D01*
X92930208Y-48986948D01*
X93411857Y-49308775D01*
X93980000Y-49421786D01*
X94548143Y-49308775D01*
X95029792Y-48986948D01*
X95255516Y-48649127D01*
X95560011Y-49030024D01*
X96069190Y-49310649D01*
X96163168Y-49331540D01*
X96393000Y-49210214D01*
X96393000Y-47117000D01*
X96647000Y-47117000D01*
X96647000Y-49210214D01*
X96876832Y-49331540D01*
X96970810Y-49310649D01*
X97479989Y-49030024D01*
X97843018Y-48575906D01*
X98004630Y-48017430D01*
X98004630Y-47117000D01*
X96647000Y-47117000D01*
X96393000Y-47117000D01*
X96373000Y-47117000D01*
X96373000Y-46863000D01*
X96393000Y-46863000D01*
X96393000Y-44769786D01*
X96647000Y-44769786D01*
X96647000Y-46863000D01*
X98004630Y-46863000D01*
X98004630Y-45962570D01*
X97843018Y-45404094D01*
X97479989Y-44949976D01*
X96970810Y-44669351D01*
X96876832Y-44648460D01*
X96647000Y-44769786D01*
X96393000Y-44769786D01*
X96163168Y-44648460D01*
X96069190Y-44669351D01*
X95560011Y-44949976D01*
X95255516Y-45330873D01*
X95029792Y-44993052D01*
X94548143Y-44671225D01*
X93980000Y-44558214D01*
X93803878Y-44593247D01*
X92867815Y-43657185D01*
X92848217Y-43644090D01*
X92647837Y-43510200D01*
X97923240Y-43510200D01*
X98207115Y-43794571D01*
X98660866Y-43982985D01*
X99152179Y-43983414D01*
X99250500Y-43942788D01*
X99250500Y-70548500D01*
X95504000Y-70548500D01*
X95504000Y-57404000D01*
X95493994Y-57354590D01*
X95465553Y-57312965D01*
X95423159Y-57285685D01*
X95377000Y-57277000D01*
X77343000Y-57277000D01*
X77293590Y-57287006D01*
X77251965Y-57315447D01*
X77224685Y-57357841D01*
X77216000Y-57404000D01*
X77216000Y-70548500D01*
X17081500Y-70548500D01*
X17081500Y-66548000D01*
X18681960Y-66548000D01*
X18681960Y-68580000D01*
X18726238Y-68815317D01*
X18865310Y-69031441D01*
X19077510Y-69176431D01*
X19329400Y-69227440D01*
X21056600Y-69227440D01*
X21291917Y-69183162D01*
X21508041Y-69044090D01*
X21653031Y-68831890D01*
X21672232Y-68737073D01*
X21830964Y-68914732D01*
X22358209Y-69168709D01*
X22373974Y-69171358D01*
X22606000Y-69050217D01*
X22606000Y-67691000D01*
X22586000Y-67691000D01*
X22586000Y-67437000D01*
X22606000Y-67437000D01*
X22606000Y-66077783D01*
X22860000Y-66077783D01*
X22860000Y-67437000D01*
X22880000Y-67437000D01*
X22880000Y-67691000D01*
X22860000Y-67691000D01*
X22860000Y-69050217D01*
X23092026Y-69171358D01*
X23107791Y-69168709D01*
X23635036Y-68914732D01*
X24006539Y-68498931D01*
X24213330Y-68808415D01*
X24699511Y-69133271D01*
X25273000Y-69247345D01*
X25846489Y-69133271D01*
X26332670Y-68808415D01*
X26543000Y-68493634D01*
X26753330Y-68808415D01*
X27239511Y-69133271D01*
X27813000Y-69247345D01*
X28386489Y-69133271D01*
X28872670Y-68808415D01*
X29083000Y-68493634D01*
X29293330Y-68808415D01*
X29779511Y-69133271D01*
X30353000Y-69247345D01*
X30926489Y-69133271D01*
X31412670Y-68808415D01*
X31737526Y-68322234D01*
X31851600Y-67748745D01*
X31851600Y-67379255D01*
X31737526Y-66805766D01*
X31412670Y-66319585D01*
X30926489Y-65994729D01*
X30353000Y-65880655D01*
X29779511Y-65994729D01*
X29293330Y-66319585D01*
X29083000Y-66634366D01*
X28872670Y-66319585D01*
X28386489Y-65994729D01*
X27813000Y-65880655D01*
X27239511Y-65994729D01*
X26753330Y-66319585D01*
X26543000Y-66634366D01*
X26332670Y-66319585D01*
X25846489Y-65994729D01*
X25273000Y-65880655D01*
X24699511Y-65994729D01*
X24213330Y-66319585D01*
X24006539Y-66629069D01*
X23635036Y-66213268D01*
X23107791Y-65959291D01*
X23092026Y-65956642D01*
X22860000Y-66077783D01*
X22606000Y-66077783D01*
X22373974Y-65956642D01*
X22358209Y-65959291D01*
X21830964Y-66213268D01*
X21674093Y-66388845D01*
X21659762Y-66312683D01*
X21520690Y-66096559D01*
X21308490Y-65951569D01*
X21056600Y-65900560D01*
X19329400Y-65900560D01*
X19094083Y-65944838D01*
X18877959Y-66083910D01*
X18732969Y-66296110D01*
X18681960Y-66548000D01*
X17081500Y-66548000D01*
X17081500Y-64760579D01*
X41309786Y-64760579D01*
X41497408Y-65214657D01*
X41844515Y-65562371D01*
X42298266Y-65750785D01*
X42789579Y-65751214D01*
X43243657Y-65563592D01*
X43591371Y-65216485D01*
X43642711Y-65092844D01*
X67095370Y-65092844D01*
X67095370Y-66987156D01*
X67208381Y-67555299D01*
X67530208Y-68036948D01*
X68011857Y-68358775D01*
X68580000Y-68471786D01*
X69148143Y-68358775D01*
X69629792Y-68036948D01*
X69850000Y-67707383D01*
X70070208Y-68036948D01*
X70551857Y-68358775D01*
X71120000Y-68471786D01*
X71688143Y-68358775D01*
X72169792Y-68036948D01*
X72390000Y-67707383D01*
X72610208Y-68036948D01*
X73091857Y-68358775D01*
X73660000Y-68471786D01*
X74228143Y-68358775D01*
X74709792Y-68036948D01*
X75031619Y-67555299D01*
X75144630Y-66987156D01*
X75144630Y-65092844D01*
X75031619Y-64524701D01*
X74709792Y-64043052D01*
X74228143Y-63721225D01*
X73660000Y-63608214D01*
X73091857Y-63721225D01*
X72610208Y-64043052D01*
X72390000Y-64372617D01*
X72169792Y-64043052D01*
X71688143Y-63721225D01*
X71120000Y-63608214D01*
X70551857Y-63721225D01*
X70070208Y-64043052D01*
X69850000Y-64372617D01*
X69629792Y-64043052D01*
X69148143Y-63721225D01*
X68580000Y-63608214D01*
X68011857Y-63721225D01*
X67530208Y-64043052D01*
X67208381Y-64524701D01*
X67095370Y-65092844D01*
X43642711Y-65092844D01*
X43779785Y-64762734D01*
X43780138Y-64358492D01*
X49941816Y-58196815D01*
X50040834Y-58048623D01*
X50106996Y-57949605D01*
X50165000Y-57658000D01*
X50165000Y-54324360D01*
X50449371Y-54040485D01*
X50637785Y-53586734D01*
X50638214Y-53095421D01*
X50450592Y-52641343D01*
X50103485Y-52293629D01*
X49649734Y-52105215D01*
X49158421Y-52104786D01*
X48704343Y-52292408D01*
X48356629Y-52639515D01*
X48168215Y-53093266D01*
X48167786Y-53584579D01*
X48355408Y-54038657D01*
X48641000Y-54324748D01*
X48641000Y-57342369D01*
X42702233Y-63281137D01*
X42300421Y-63280786D01*
X41846343Y-63468408D01*
X41498629Y-63815515D01*
X41310215Y-64269266D01*
X41309786Y-64760579D01*
X17081500Y-64760579D01*
X17081500Y-44989750D01*
X18694400Y-44989750D01*
X18694400Y-45846309D01*
X18791073Y-46079698D01*
X18969701Y-46258327D01*
X19203090Y-46355000D01*
X19907250Y-46355000D01*
X20066000Y-46196250D01*
X20066000Y-44831000D01*
X18853150Y-44831000D01*
X18694400Y-44989750D01*
X17081500Y-44989750D01*
X17081500Y-43561691D01*
X18694400Y-43561691D01*
X18694400Y-44418250D01*
X18853150Y-44577000D01*
X20066000Y-44577000D01*
X20066000Y-43211750D01*
X20320000Y-43211750D01*
X20320000Y-44577000D01*
X20340000Y-44577000D01*
X20340000Y-44831000D01*
X20320000Y-44831000D01*
X20320000Y-46196250D01*
X20478750Y-46355000D01*
X21182910Y-46355000D01*
X21416299Y-46258327D01*
X21594927Y-46079698D01*
X21658500Y-45926220D01*
X21673330Y-45948415D01*
X22159511Y-46273271D01*
X22733000Y-46387345D01*
X23306489Y-46273271D01*
X23792670Y-45948415D01*
X24003000Y-45633634D01*
X24213330Y-45948415D01*
X24699511Y-46273271D01*
X25273000Y-46387345D01*
X25846489Y-46273271D01*
X26332670Y-45948415D01*
X26655010Y-45466000D01*
X33847370Y-45466000D01*
X40548137Y-52166768D01*
X40547786Y-52568579D01*
X40735408Y-53022657D01*
X41082515Y-53370371D01*
X41536266Y-53558785D01*
X42027579Y-53559214D01*
X42481657Y-53371592D01*
X42829371Y-53024485D01*
X43017785Y-52570734D01*
X43018214Y-52079421D01*
X42905478Y-51806579D01*
X71662786Y-51806579D01*
X71850408Y-52260657D01*
X72197515Y-52608371D01*
X72651266Y-52796785D01*
X73142579Y-52797214D01*
X73596657Y-52609592D01*
X73944371Y-52262485D01*
X74132785Y-51808734D01*
X74132916Y-51658714D01*
X79344767Y-46446863D01*
X79746579Y-46447214D01*
X80200657Y-46259592D01*
X80548371Y-45912485D01*
X80736785Y-45458734D01*
X80737214Y-44967421D01*
X80549592Y-44513343D01*
X80202485Y-44165629D01*
X79748734Y-43977215D01*
X79257421Y-43976786D01*
X78803343Y-44164408D01*
X78455629Y-44511515D01*
X78267215Y-44965266D01*
X78266862Y-45369508D01*
X73260913Y-50375457D01*
X73144734Y-50327215D01*
X72653421Y-50326786D01*
X72199343Y-50514408D01*
X71851629Y-50861515D01*
X71663215Y-51315266D01*
X71662786Y-51806579D01*
X42905478Y-51806579D01*
X42830592Y-51625343D01*
X42483485Y-51277629D01*
X42029734Y-51089215D01*
X41625493Y-51088862D01*
X35421710Y-44885079D01*
X43341786Y-44885079D01*
X43529408Y-45339157D01*
X43876515Y-45686871D01*
X44330266Y-45875285D01*
X44821579Y-45875714D01*
X45275657Y-45688092D01*
X45307304Y-45656500D01*
X53562140Y-45656500D01*
X53846015Y-45940871D01*
X54299766Y-46129285D01*
X54791079Y-46129714D01*
X55190734Y-45964579D01*
X57184786Y-45964579D01*
X57372408Y-46418657D01*
X57719515Y-46766371D01*
X58173266Y-46954785D01*
X58664579Y-46955214D01*
X59118657Y-46767592D01*
X59404748Y-46482000D01*
X67502370Y-46482000D01*
X68107137Y-47086767D01*
X68106786Y-47488579D01*
X68245376Y-47823992D01*
X67881343Y-47974408D01*
X67533629Y-48321515D01*
X67345215Y-48775266D01*
X67344786Y-49266579D01*
X67532408Y-49720657D01*
X67879515Y-50068371D01*
X68333266Y-50256785D01*
X68824579Y-50257214D01*
X69278657Y-50069592D01*
X69564748Y-49784000D01*
X71882000Y-49784000D01*
X72173605Y-49725996D01*
X72420815Y-49560815D01*
X76296768Y-45684863D01*
X76698579Y-45685214D01*
X77152657Y-45497592D01*
X77500371Y-45150485D01*
X77688785Y-44696734D01*
X77689214Y-44205421D01*
X77501592Y-43751343D01*
X77154485Y-43403629D01*
X76700734Y-43215215D01*
X76209421Y-43214786D01*
X75755343Y-43402408D01*
X75407629Y-43749515D01*
X75219215Y-44203266D01*
X75218862Y-44607507D01*
X71566370Y-48260000D01*
X70072304Y-48260000D01*
X70388371Y-47944485D01*
X70576785Y-47490734D01*
X70577214Y-46999421D01*
X70389592Y-46545343D01*
X70042485Y-46197629D01*
X69588734Y-46009215D01*
X69184493Y-46008862D01*
X68356815Y-45181185D01*
X68310869Y-45150485D01*
X68109605Y-45016004D01*
X67818000Y-44958000D01*
X59404360Y-44958000D01*
X59120485Y-44673629D01*
X58666734Y-44485215D01*
X58175421Y-44484786D01*
X57721343Y-44672408D01*
X57373629Y-45019515D01*
X57185215Y-45473266D01*
X57184786Y-45964579D01*
X55190734Y-45964579D01*
X55245157Y-45942092D01*
X55592871Y-45594985D01*
X55781285Y-45141234D01*
X55781714Y-44649921D01*
X55594092Y-44195843D01*
X55246985Y-43848129D01*
X54793234Y-43659715D01*
X54301921Y-43659286D01*
X53847843Y-43846908D01*
X53561752Y-44132500D01*
X45703370Y-44132500D01*
X45624592Y-43941843D01*
X45277485Y-43594129D01*
X44823734Y-43405715D01*
X44332421Y-43405286D01*
X43878343Y-43592908D01*
X43530629Y-43940015D01*
X43342215Y-44393766D01*
X43341786Y-44885079D01*
X35421710Y-44885079D01*
X34701815Y-44165185D01*
X34691655Y-44158396D01*
X34454605Y-44000004D01*
X34163000Y-43942000D01*
X26655010Y-43942000D01*
X26332670Y-43459585D01*
X25846489Y-43134729D01*
X25273000Y-43020655D01*
X24699511Y-43134729D01*
X24213330Y-43459585D01*
X24003000Y-43774366D01*
X23792670Y-43459585D01*
X23306489Y-43134729D01*
X22733000Y-43020655D01*
X22159511Y-43134729D01*
X21673330Y-43459585D01*
X21658500Y-43481780D01*
X21594927Y-43328302D01*
X21416299Y-43149673D01*
X21182910Y-43053000D01*
X20478750Y-43053000D01*
X20320000Y-43211750D01*
X20066000Y-43211750D01*
X19907250Y-43053000D01*
X19203090Y-43053000D01*
X18969701Y-43149673D01*
X18791073Y-43328302D01*
X18694400Y-43561691D01*
X17081500Y-43561691D01*
X17081500Y-42877740D01*
X61213776Y-42877740D01*
X61410573Y-43354026D01*
X61774657Y-43718746D01*
X62250599Y-43916374D01*
X62765940Y-43916824D01*
X63242226Y-43720027D01*
X63606946Y-43355943D01*
X63804574Y-42880001D01*
X63804575Y-42877740D01*
X66039776Y-42877740D01*
X66236573Y-43354026D01*
X66600657Y-43718746D01*
X67076599Y-43916374D01*
X67591940Y-43916824D01*
X68068226Y-43720027D01*
X68405641Y-43383200D01*
X68628115Y-43383200D01*
X68675408Y-43497657D01*
X69022515Y-43845371D01*
X69476266Y-44033785D01*
X69967579Y-44034214D01*
X70421657Y-43846592D01*
X70769371Y-43499485D01*
X70957785Y-43045734D01*
X70958214Y-42554421D01*
X70770592Y-42100343D01*
X70423485Y-41752629D01*
X69969734Y-41564215D01*
X69478421Y-41563786D01*
X69024343Y-41751408D01*
X68916362Y-41859200D01*
X68405104Y-41859200D01*
X68070143Y-41523654D01*
X67594201Y-41326026D01*
X67078860Y-41325576D01*
X66602574Y-41522373D01*
X66237854Y-41886457D01*
X66040226Y-42362399D01*
X66039776Y-42877740D01*
X63804575Y-42877740D01*
X63805024Y-42364660D01*
X63608227Y-41888374D01*
X63244143Y-41523654D01*
X62768201Y-41326026D01*
X62252860Y-41325576D01*
X61776574Y-41522373D01*
X61411854Y-41886457D01*
X61214226Y-42362399D01*
X61213776Y-42877740D01*
X17081500Y-42877740D01*
X17081500Y-33397928D01*
X34586977Y-33397928D01*
X34648631Y-33633540D01*
X35149040Y-33809667D01*
X35678759Y-33780888D01*
X36034489Y-33633540D01*
X36096143Y-33397928D01*
X35341560Y-32643345D01*
X34586977Y-33397928D01*
X17081500Y-33397928D01*
X17081500Y-27398448D01*
X34586977Y-27398448D01*
X34648631Y-27634060D01*
X35149040Y-27810187D01*
X35678759Y-27781408D01*
X36034489Y-27634060D01*
X36096143Y-27398448D01*
X35341560Y-26643865D01*
X34586977Y-27398448D01*
X17081500Y-27398448D01*
X17081500Y-26271740D01*
X33995633Y-26271740D01*
X34024412Y-26801459D01*
X34171760Y-27157189D01*
X34407372Y-27218843D01*
X35161955Y-26464260D01*
X35521165Y-26464260D01*
X36275748Y-27218843D01*
X36511360Y-27157189D01*
X36687487Y-26656780D01*
X36658708Y-26127061D01*
X36511360Y-25771331D01*
X36275748Y-25709677D01*
X35521165Y-26464260D01*
X35161955Y-26464260D01*
X34407372Y-25709677D01*
X34171760Y-25771331D01*
X33995633Y-26271740D01*
X17081500Y-26271740D01*
X17081500Y-25530072D01*
X34586977Y-25530072D01*
X35341560Y-26284655D01*
X36096143Y-25530072D01*
X36034489Y-25294460D01*
X35534080Y-25118333D01*
X35004361Y-25147112D01*
X34648631Y-25294460D01*
X34586977Y-25530072D01*
X17081500Y-25530072D01*
X17081500Y-24193320D01*
X17896285Y-24193320D01*
X18025533Y-24486123D01*
X18725806Y-24754388D01*
X19475435Y-24734250D01*
X20074467Y-24486123D01*
X20203715Y-24193320D01*
X22976285Y-24193320D01*
X23105533Y-24486123D01*
X23805806Y-24754388D01*
X24555435Y-24734250D01*
X25154467Y-24486123D01*
X25283715Y-24193320D01*
X24130000Y-23039605D01*
X22976285Y-24193320D01*
X20203715Y-24193320D01*
X19050000Y-23039605D01*
X17896285Y-24193320D01*
X17081500Y-24193320D01*
X17081500Y-22535806D01*
X17155612Y-22535806D01*
X17175750Y-23285435D01*
X17423877Y-23884467D01*
X17716680Y-24013715D01*
X18870395Y-22860000D01*
X17716680Y-21706285D01*
X17423877Y-21835533D01*
X17155612Y-22535806D01*
X17081500Y-22535806D01*
X17081500Y-19113320D01*
X17896285Y-19113320D01*
X18025533Y-19406123D01*
X18725806Y-19674388D01*
X19475435Y-19654250D01*
X19963476Y-19452097D01*
X19755319Y-19953395D01*
X19754682Y-20683403D01*
X19964769Y-21191853D01*
X19374194Y-20965612D01*
X18624565Y-20985750D01*
X18025533Y-21233877D01*
X17896285Y-21526680D01*
X19050000Y-22680395D01*
X19064143Y-22666253D01*
X19243748Y-22845858D01*
X19229605Y-22860000D01*
X20383320Y-24013715D01*
X20676123Y-23884467D01*
X20944388Y-23184194D01*
X20924250Y-22434565D01*
X20722097Y-21946524D01*
X21223395Y-22154681D01*
X21953403Y-22155318D01*
X22461853Y-21945231D01*
X22235612Y-22535806D01*
X22255750Y-23285435D01*
X22503877Y-23884467D01*
X22796680Y-24013715D01*
X23950395Y-22860000D01*
X24309605Y-22860000D01*
X25463320Y-24013715D01*
X25756123Y-23884467D01*
X26024388Y-23184194D01*
X26004250Y-22434565D01*
X25756123Y-21835533D01*
X25463320Y-21706285D01*
X24309605Y-22860000D01*
X23950395Y-22860000D01*
X23936253Y-22845858D01*
X24115858Y-22666253D01*
X24130000Y-22680395D01*
X25283715Y-21526680D01*
X25154467Y-21233877D01*
X24454194Y-20965612D01*
X23704565Y-20985750D01*
X23216524Y-21187903D01*
X23424681Y-20686605D01*
X23425318Y-19956597D01*
X23326216Y-19716750D01*
X29743400Y-19716750D01*
X29743400Y-20573309D01*
X29840073Y-20806698D01*
X30018701Y-20985327D01*
X30252090Y-21082000D01*
X30956250Y-21082000D01*
X31115000Y-20923250D01*
X31115000Y-19558000D01*
X29902150Y-19558000D01*
X29743400Y-19716750D01*
X23326216Y-19716750D01*
X23215231Y-19448147D01*
X23805806Y-19674388D01*
X24555435Y-19654250D01*
X25154467Y-19406123D01*
X25283715Y-19113320D01*
X24130000Y-17959605D01*
X24115858Y-17973748D01*
X23936253Y-17794143D01*
X23950395Y-17780000D01*
X24309605Y-17780000D01*
X25463320Y-18933715D01*
X25756123Y-18804467D01*
X25953709Y-18288691D01*
X29743400Y-18288691D01*
X29743400Y-19145250D01*
X29902150Y-19304000D01*
X31115000Y-19304000D01*
X31115000Y-17938750D01*
X30956250Y-17780000D01*
X30252090Y-17780000D01*
X30018701Y-17876673D01*
X29840073Y-18055302D01*
X29743400Y-18288691D01*
X25953709Y-18288691D01*
X26024388Y-18104194D01*
X26004250Y-17354565D01*
X25756123Y-16755533D01*
X25463320Y-16626285D01*
X24309605Y-17780000D01*
X23950395Y-17780000D01*
X22796680Y-16626285D01*
X22503877Y-16755533D01*
X22235612Y-17455806D01*
X22255750Y-18205435D01*
X22457903Y-18693476D01*
X21956605Y-18485319D01*
X21226597Y-18484682D01*
X20718147Y-18694769D01*
X20944388Y-18104194D01*
X20924250Y-17354565D01*
X20676123Y-16755533D01*
X20383320Y-16626285D01*
X19229605Y-17780000D01*
X19243748Y-17794143D01*
X19064143Y-17973748D01*
X19050000Y-17959605D01*
X17896285Y-19113320D01*
X17081500Y-19113320D01*
X17081500Y-17455806D01*
X17155612Y-17455806D01*
X17175750Y-18205435D01*
X17423877Y-18804467D01*
X17716680Y-18933715D01*
X18870395Y-17780000D01*
X17716680Y-16626285D01*
X17423877Y-16755533D01*
X17155612Y-17455806D01*
X17081500Y-17455806D01*
X17081500Y-16065500D01*
X18238894Y-16065500D01*
X18025533Y-16153877D01*
X18025533Y-16153877D01*
G37*
X18025533Y-16153877D02*
X17896285Y-16446680D01*
X19050000Y-17600395D01*
X20203715Y-16446680D01*
X20074467Y-16153877D01*
X19843770Y-16065500D01*
X23318894Y-16065500D01*
X23105533Y-16153877D01*
X22976285Y-16446680D01*
X24130000Y-17600395D01*
X25283715Y-16446680D01*
X25154467Y-16153877D01*
X24923770Y-16065500D01*
X60555469Y-16065500D01*
X59523911Y-17097059D01*
X59334100Y-17018243D01*
X58778339Y-17017758D01*
X58264697Y-17229990D01*
X57871371Y-17622630D01*
X57658243Y-18135900D01*
X57657758Y-18691661D01*
X57869990Y-19205303D01*
X58262630Y-19598629D01*
X58306236Y-19616736D01*
X58119683Y-19651838D01*
X57903559Y-19790910D01*
X57758569Y-20003110D01*
X57707560Y-20255000D01*
X57707560Y-21655000D01*
X57719226Y-21717000D01*
X53816360Y-21717000D01*
X53532485Y-21432629D01*
X53149470Y-21273587D01*
X53529914Y-20357376D01*
X53531083Y-19018498D01*
X53019796Y-17781088D01*
X52073892Y-16833532D01*
X50837376Y-16320086D01*
X49498498Y-16318917D01*
X48261088Y-16830204D01*
X47313532Y-17776108D01*
X46800086Y-19012624D01*
X46798917Y-20351502D01*
X47310204Y-21588912D01*
X48256108Y-22536468D01*
X49492624Y-23049914D01*
X50420646Y-23050724D01*
X49849370Y-23622000D01*
X38241373Y-23622000D01*
X38251433Y-23615278D01*
X38609325Y-23079655D01*
X38735000Y-22447845D01*
X38735000Y-22383155D01*
X38609325Y-21751345D01*
X38251433Y-21215722D01*
X37715810Y-20857830D01*
X37247947Y-20764766D01*
X37381670Y-20675415D01*
X37592000Y-20360634D01*
X37802330Y-20675415D01*
X38288511Y-21000271D01*
X38862000Y-21114345D01*
X39435489Y-21000271D01*
X39921670Y-20675415D01*
X40132000Y-20360634D01*
X40342330Y-20675415D01*
X40828511Y-21000271D01*
X41402000Y-21114345D01*
X41975489Y-21000271D01*
X42461670Y-20675415D01*
X42672000Y-20360634D01*
X42882330Y-20675415D01*
X43368511Y-21000271D01*
X43942000Y-21114345D01*
X44515489Y-21000271D01*
X45001670Y-20675415D01*
X45326526Y-20189234D01*
X45440600Y-19615745D01*
X45440600Y-19246255D01*
X45326526Y-18672766D01*
X45001670Y-18186585D01*
X44515489Y-17861729D01*
X43942000Y-17747655D01*
X43368511Y-17861729D01*
X42882330Y-18186585D01*
X42672000Y-18501366D01*
X42461670Y-18186585D01*
X41975489Y-17861729D01*
X41402000Y-17747655D01*
X40828511Y-17861729D01*
X40342330Y-18186585D01*
X40132000Y-18501366D01*
X39921670Y-18186585D01*
X39435489Y-17861729D01*
X38862000Y-17747655D01*
X38288511Y-17861729D01*
X37802330Y-18186585D01*
X37592000Y-18501366D01*
X37381670Y-18186585D01*
X36895489Y-17861729D01*
X36322000Y-17747655D01*
X35748511Y-17861729D01*
X35262330Y-18186585D01*
X35052000Y-18501366D01*
X34841670Y-18186585D01*
X34355489Y-17861729D01*
X33782000Y-17747655D01*
X33208511Y-17861729D01*
X32722330Y-18186585D01*
X32707500Y-18208780D01*
X32643927Y-18055302D01*
X32465299Y-17876673D01*
X32231910Y-17780000D01*
X31527750Y-17780000D01*
X31369000Y-17938750D01*
X31369000Y-19304000D01*
X31389000Y-19304000D01*
X31389000Y-19558000D01*
X31369000Y-19558000D01*
X31369000Y-20923250D01*
X31527750Y-21082000D01*
X32231910Y-21082000D01*
X32465299Y-20985327D01*
X32643927Y-20806698D01*
X32707500Y-20653220D01*
X32722330Y-20675415D01*
X33094328Y-20923976D01*
X33076559Y-20935410D01*
X32931569Y-21147610D01*
X32880560Y-21399500D01*
X32880560Y-23431500D01*
X32924838Y-23666817D01*
X33063910Y-23882941D01*
X33276110Y-24027931D01*
X33528000Y-24078940D01*
X35129809Y-24078940D01*
X35973684Y-24922815D01*
X36061357Y-24981396D01*
X36220895Y-25087996D01*
X36512500Y-25146000D01*
X39540911Y-25146000D01*
X39088060Y-25333114D01*
X38712613Y-25707907D01*
X38509172Y-26197847D01*
X38508709Y-26728346D01*
X38711294Y-27218640D01*
X39086087Y-27594087D01*
X39576027Y-27797528D01*
X40106526Y-27797991D01*
X40596820Y-27595406D01*
X40966610Y-27226260D01*
X67581109Y-27226260D01*
X67274479Y-27532891D01*
X67224151Y-27499263D01*
X66675000Y-27390030D01*
X66125849Y-27499263D01*
X65660302Y-27810332D01*
X65405000Y-28192418D01*
X65149698Y-27810332D01*
X64684151Y-27499263D01*
X64135000Y-27390030D01*
X63585849Y-27499263D01*
X63120302Y-27810332D01*
X62865000Y-28192418D01*
X62609698Y-27810332D01*
X62144151Y-27499263D01*
X61595000Y-27390030D01*
X61045849Y-27499263D01*
X60580302Y-27810332D01*
X60327851Y-28188151D01*
X59979896Y-27755500D01*
X59486819Y-27485633D01*
X59404039Y-27468096D01*
X59182000Y-27590085D01*
X59182000Y-29083000D01*
X59202000Y-29083000D01*
X59202000Y-29337000D01*
X59182000Y-29337000D01*
X59182000Y-29357000D01*
X58928000Y-29357000D01*
X58928000Y-29337000D01*
X58908000Y-29337000D01*
X58908000Y-29083000D01*
X58928000Y-29083000D01*
X58928000Y-27590085D01*
X58705961Y-27468096D01*
X58623181Y-27485633D01*
X58130104Y-27755500D01*
X57782149Y-28188151D01*
X57529698Y-27810332D01*
X57064151Y-27499263D01*
X56515000Y-27390030D01*
X55965849Y-27499263D01*
X55500302Y-27810332D01*
X55245000Y-28192418D01*
X54989698Y-27810332D01*
X54524151Y-27499263D01*
X53975000Y-27390030D01*
X53425849Y-27499263D01*
X52960302Y-27810332D01*
X52705000Y-28192418D01*
X52449698Y-27810332D01*
X51984151Y-27499263D01*
X51435000Y-27390030D01*
X50885849Y-27499263D01*
X50420302Y-27810332D01*
X50165000Y-28192418D01*
X49909698Y-27810332D01*
X49444151Y-27499263D01*
X48895000Y-27390030D01*
X48345849Y-27499263D01*
X47880302Y-27810332D01*
X47625000Y-28192418D01*
X47369698Y-27810332D01*
X46904151Y-27499263D01*
X46355000Y-27390030D01*
X45805849Y-27499263D01*
X45340302Y-27810332D01*
X45085000Y-28192418D01*
X44829698Y-27810332D01*
X44364151Y-27499263D01*
X43815000Y-27390030D01*
X43265849Y-27499263D01*
X42800302Y-27810332D01*
X42489233Y-28275879D01*
X42380000Y-28825030D01*
X42380000Y-29594970D01*
X42489233Y-30144121D01*
X42543943Y-30226000D01*
X34910431Y-30226000D01*
X34381863Y-29697433D01*
X34382214Y-29295621D01*
X34194592Y-28841543D01*
X33847485Y-28493829D01*
X33393734Y-28305415D01*
X32902421Y-28304986D01*
X32448343Y-28492608D01*
X32100629Y-28839715D01*
X31912215Y-29293466D01*
X31911786Y-29784779D01*
X32099408Y-30238857D01*
X32446515Y-30586571D01*
X32900266Y-30774985D01*
X33304507Y-30775338D01*
X34055984Y-31526815D01*
X34246053Y-31653815D01*
X34303195Y-31691996D01*
X34399640Y-31711180D01*
X34171760Y-31770811D01*
X33995633Y-32271220D01*
X34024412Y-32800939D01*
X34171760Y-33156669D01*
X34407372Y-33218323D01*
X35161955Y-32463740D01*
X35147813Y-32449598D01*
X35327418Y-32269993D01*
X35341560Y-32284135D01*
X35355703Y-32269993D01*
X35535308Y-32449598D01*
X35521165Y-32463740D01*
X36275748Y-33218323D01*
X36511360Y-33156669D01*
X36687487Y-32656260D01*
X36658708Y-32126541D01*
X36511360Y-31770811D01*
X36431830Y-31750000D01*
X38694919Y-31750000D01*
X38509172Y-32197327D01*
X38508709Y-32727826D01*
X38711294Y-33218120D01*
X39086087Y-33593567D01*
X39576027Y-33797008D01*
X40106526Y-33797471D01*
X40393561Y-33678871D01*
X40228629Y-33843515D01*
X40040215Y-34297266D01*
X40039786Y-34788579D01*
X40227408Y-35242657D01*
X40574515Y-35590371D01*
X40929066Y-35737594D01*
X40928786Y-36058579D01*
X41116408Y-36512657D01*
X41463515Y-36860371D01*
X41917266Y-37048785D01*
X42380000Y-37049189D01*
X42380000Y-37214970D01*
X42485310Y-37744400D01*
X30018341Y-37744400D01*
X29876592Y-37401343D01*
X29529485Y-37053629D01*
X29075734Y-36865215D01*
X28584421Y-36864786D01*
X28130343Y-37052408D01*
X27782629Y-37399515D01*
X27594215Y-37853266D01*
X27593786Y-38344579D01*
X27781408Y-38798657D01*
X28128515Y-39146371D01*
X28582266Y-39334785D01*
X29073579Y-39335214D01*
X29235319Y-39268384D01*
X29235400Y-39268400D01*
X49180640Y-39268400D01*
X49464515Y-39552771D01*
X49918266Y-39741185D01*
X50409579Y-39741614D01*
X50863657Y-39553992D01*
X51211371Y-39206885D01*
X51399785Y-38753134D01*
X51399881Y-38642984D01*
X51435000Y-38649970D01*
X51926748Y-38552155D01*
X52343632Y-38273602D01*
X52622185Y-37856718D01*
X52705000Y-37440380D01*
X52787815Y-37856718D01*
X53066368Y-38273602D01*
X53483252Y-38552155D01*
X53975000Y-38649970D01*
X54466748Y-38552155D01*
X54883632Y-38273602D01*
X55162185Y-37856718D01*
X55184918Y-37742430D01*
X55189233Y-37764121D01*
X55500302Y-38229668D01*
X55965849Y-38540737D01*
X56515000Y-38649970D01*
X57064151Y-38540737D01*
X57529698Y-38229668D01*
X57785000Y-37847582D01*
X58040302Y-38229668D01*
X58505849Y-38540737D01*
X59055000Y-38649970D01*
X59604151Y-38540737D01*
X60069698Y-38229668D01*
X60322149Y-37851849D01*
X60670104Y-38284500D01*
X61163181Y-38554367D01*
X61245961Y-38571904D01*
X61468000Y-38449915D01*
X61468000Y-36957000D01*
X61448000Y-36957000D01*
X61448000Y-36703000D01*
X61468000Y-36703000D01*
X61468000Y-36683000D01*
X61722000Y-36683000D01*
X61722000Y-36703000D01*
X61742000Y-36703000D01*
X61742000Y-36957000D01*
X61722000Y-36957000D01*
X61722000Y-38449915D01*
X61944039Y-38571904D01*
X62026819Y-38554367D01*
X62519896Y-38284500D01*
X62872166Y-37846483D01*
X62915986Y-37696704D01*
X62947815Y-37856718D01*
X63226368Y-38273602D01*
X63643252Y-38552155D01*
X63761682Y-38575712D01*
X64942384Y-39756415D01*
X65189595Y-39921596D01*
X65481200Y-39979600D01*
X74279066Y-39979600D01*
X74278986Y-40071779D01*
X74466608Y-40525857D01*
X74813715Y-40873571D01*
X75267466Y-41061985D01*
X75758779Y-41062414D01*
X76212857Y-40874792D01*
X76560571Y-40527685D01*
X76590053Y-40456684D01*
X81788000Y-45654631D01*
X81788000Y-46767419D01*
X81630629Y-46924515D01*
X81442215Y-47378266D01*
X81441786Y-47869579D01*
X81629408Y-48323657D01*
X81976515Y-48671371D01*
X82430266Y-48859785D01*
X82921579Y-48860214D01*
X83375657Y-48672592D01*
X83723371Y-48325485D01*
X83911785Y-47871734D01*
X83912214Y-47380421D01*
X83724592Y-46926343D01*
X83377485Y-46578629D01*
X83312000Y-46551437D01*
X83312000Y-45339000D01*
X83306948Y-45313600D01*
X83253997Y-45047396D01*
X83088816Y-44800185D01*
X82116071Y-43827440D01*
X83389810Y-43827440D01*
X84297185Y-44734815D01*
X84544395Y-44899996D01*
X84836000Y-44958000D01*
X90442667Y-44958000D01*
X90390208Y-44993052D01*
X90068381Y-45474701D01*
X89955370Y-46042844D01*
X89955370Y-47937156D01*
X90068381Y-48505299D01*
X90390208Y-48986948D01*
X90871857Y-49308775D01*
X91440000Y-49421786D01*
X92008143Y-49308775D01*
X92489792Y-48986948D01*
X92710000Y-48657383D01*
X92930208Y-48986948D01*
X93411857Y-49308775D01*
X93980000Y-49421786D01*
X94548143Y-49308775D01*
X95029792Y-48986948D01*
X95255516Y-48649127D01*
X95560011Y-49030024D01*
X96069190Y-49310649D01*
X96163168Y-49331540D01*
X96393000Y-49210214D01*
X96393000Y-47117000D01*
X96647000Y-47117000D01*
X96647000Y-49210214D01*
X96876832Y-49331540D01*
X96970810Y-49310649D01*
X97479989Y-49030024D01*
X97843018Y-48575906D01*
X98004630Y-48017430D01*
X98004630Y-47117000D01*
X96647000Y-47117000D01*
X96393000Y-47117000D01*
X96373000Y-47117000D01*
X96373000Y-46863000D01*
X96393000Y-46863000D01*
X96393000Y-44769786D01*
X96647000Y-44769786D01*
X96647000Y-46863000D01*
X98004630Y-46863000D01*
X98004630Y-45962570D01*
X97843018Y-45404094D01*
X97479989Y-44949976D01*
X96970810Y-44669351D01*
X96876832Y-44648460D01*
X96647000Y-44769786D01*
X96393000Y-44769786D01*
X96163168Y-44648460D01*
X96069190Y-44669351D01*
X95560011Y-44949976D01*
X95255516Y-45330873D01*
X95029792Y-44993052D01*
X94548143Y-44671225D01*
X93980000Y-44558214D01*
X93803878Y-44593247D01*
X92867815Y-43657185D01*
X92848217Y-43644090D01*
X92647837Y-43510200D01*
X97923240Y-43510200D01*
X98207115Y-43794571D01*
X98660866Y-43982985D01*
X99152179Y-43983414D01*
X99250500Y-43942788D01*
X99250500Y-70548500D01*
X95504000Y-70548500D01*
X95504000Y-57404000D01*
X95493994Y-57354590D01*
X95465553Y-57312965D01*
X95423159Y-57285685D01*
X95377000Y-57277000D01*
X77343000Y-57277000D01*
X77293590Y-57287006D01*
X77251965Y-57315447D01*
X77224685Y-57357841D01*
X77216000Y-57404000D01*
X77216000Y-70548500D01*
X17081500Y-70548500D01*
X17081500Y-66548000D01*
X18681960Y-66548000D01*
X18681960Y-68580000D01*
X18726238Y-68815317D01*
X18865310Y-69031441D01*
X19077510Y-69176431D01*
X19329400Y-69227440D01*
X21056600Y-69227440D01*
X21291917Y-69183162D01*
X21508041Y-69044090D01*
X21653031Y-68831890D01*
X21672232Y-68737073D01*
X21830964Y-68914732D01*
X22358209Y-69168709D01*
X22373974Y-69171358D01*
X22606000Y-69050217D01*
X22606000Y-67691000D01*
X22586000Y-67691000D01*
X22586000Y-67437000D01*
X22606000Y-67437000D01*
X22606000Y-66077783D01*
X22860000Y-66077783D01*
X22860000Y-67437000D01*
X22880000Y-67437000D01*
X22880000Y-67691000D01*
X22860000Y-67691000D01*
X22860000Y-69050217D01*
X23092026Y-69171358D01*
X23107791Y-69168709D01*
X23635036Y-68914732D01*
X24006539Y-68498931D01*
X24213330Y-68808415D01*
X24699511Y-69133271D01*
X25273000Y-69247345D01*
X25846489Y-69133271D01*
X26332670Y-68808415D01*
X26543000Y-68493634D01*
X26753330Y-68808415D01*
X27239511Y-69133271D01*
X27813000Y-69247345D01*
X28386489Y-69133271D01*
X28872670Y-68808415D01*
X29083000Y-68493634D01*
X29293330Y-68808415D01*
X29779511Y-69133271D01*
X30353000Y-69247345D01*
X30926489Y-69133271D01*
X31412670Y-68808415D01*
X31737526Y-68322234D01*
X31851600Y-67748745D01*
X31851600Y-67379255D01*
X31737526Y-66805766D01*
X31412670Y-66319585D01*
X30926489Y-65994729D01*
X30353000Y-65880655D01*
X29779511Y-65994729D01*
X29293330Y-66319585D01*
X29083000Y-66634366D01*
X28872670Y-66319585D01*
X28386489Y-65994729D01*
X27813000Y-65880655D01*
X27239511Y-65994729D01*
X26753330Y-66319585D01*
X26543000Y-66634366D01*
X26332670Y-66319585D01*
X25846489Y-65994729D01*
X25273000Y-65880655D01*
X24699511Y-65994729D01*
X24213330Y-66319585D01*
X24006539Y-66629069D01*
X23635036Y-66213268D01*
X23107791Y-65959291D01*
X23092026Y-65956642D01*
X22860000Y-66077783D01*
X22606000Y-66077783D01*
X22373974Y-65956642D01*
X22358209Y-65959291D01*
X21830964Y-66213268D01*
X21674093Y-66388845D01*
X21659762Y-66312683D01*
X21520690Y-66096559D01*
X21308490Y-65951569D01*
X21056600Y-65900560D01*
X19329400Y-65900560D01*
X19094083Y-65944838D01*
X18877959Y-66083910D01*
X18732969Y-66296110D01*
X18681960Y-66548000D01*
X17081500Y-66548000D01*
X17081500Y-64760579D01*
X41309786Y-64760579D01*
X41497408Y-65214657D01*
X41844515Y-65562371D01*
X42298266Y-65750785D01*
X42789579Y-65751214D01*
X43243657Y-65563592D01*
X43591371Y-65216485D01*
X43642711Y-65092844D01*
X67095370Y-65092844D01*
X67095370Y-66987156D01*
X67208381Y-67555299D01*
X67530208Y-68036948D01*
X68011857Y-68358775D01*
X68580000Y-68471786D01*
X69148143Y-68358775D01*
X69629792Y-68036948D01*
X69850000Y-67707383D01*
X70070208Y-68036948D01*
X70551857Y-68358775D01*
X71120000Y-68471786D01*
X71688143Y-68358775D01*
X72169792Y-68036948D01*
X72390000Y-67707383D01*
X72610208Y-68036948D01*
X73091857Y-68358775D01*
X73660000Y-68471786D01*
X74228143Y-68358775D01*
X74709792Y-68036948D01*
X75031619Y-67555299D01*
X75144630Y-66987156D01*
X75144630Y-65092844D01*
X75031619Y-64524701D01*
X74709792Y-64043052D01*
X74228143Y-63721225D01*
X73660000Y-63608214D01*
X73091857Y-63721225D01*
X72610208Y-64043052D01*
X72390000Y-64372617D01*
X72169792Y-64043052D01*
X71688143Y-63721225D01*
X71120000Y-63608214D01*
X70551857Y-63721225D01*
X70070208Y-64043052D01*
X69850000Y-64372617D01*
X69629792Y-64043052D01*
X69148143Y-63721225D01*
X68580000Y-63608214D01*
X68011857Y-63721225D01*
X67530208Y-64043052D01*
X67208381Y-64524701D01*
X67095370Y-65092844D01*
X43642711Y-65092844D01*
X43779785Y-64762734D01*
X43780138Y-64358492D01*
X49941816Y-58196815D01*
X50040834Y-58048623D01*
X50106996Y-57949605D01*
X50165000Y-57658000D01*
X50165000Y-54324360D01*
X50449371Y-54040485D01*
X50637785Y-53586734D01*
X50638214Y-53095421D01*
X50450592Y-52641343D01*
X50103485Y-52293629D01*
X49649734Y-52105215D01*
X49158421Y-52104786D01*
X48704343Y-52292408D01*
X48356629Y-52639515D01*
X48168215Y-53093266D01*
X48167786Y-53584579D01*
X48355408Y-54038657D01*
X48641000Y-54324748D01*
X48641000Y-57342369D01*
X42702233Y-63281137D01*
X42300421Y-63280786D01*
X41846343Y-63468408D01*
X41498629Y-63815515D01*
X41310215Y-64269266D01*
X41309786Y-64760579D01*
X17081500Y-64760579D01*
X17081500Y-44989750D01*
X18694400Y-44989750D01*
X18694400Y-45846309D01*
X18791073Y-46079698D01*
X18969701Y-46258327D01*
X19203090Y-46355000D01*
X19907250Y-46355000D01*
X20066000Y-46196250D01*
X20066000Y-44831000D01*
X18853150Y-44831000D01*
X18694400Y-44989750D01*
X17081500Y-44989750D01*
X17081500Y-43561691D01*
X18694400Y-43561691D01*
X18694400Y-44418250D01*
X18853150Y-44577000D01*
X20066000Y-44577000D01*
X20066000Y-43211750D01*
X20320000Y-43211750D01*
X20320000Y-44577000D01*
X20340000Y-44577000D01*
X20340000Y-44831000D01*
X20320000Y-44831000D01*
X20320000Y-46196250D01*
X20478750Y-46355000D01*
X21182910Y-46355000D01*
X21416299Y-46258327D01*
X21594927Y-46079698D01*
X21658500Y-45926220D01*
X21673330Y-45948415D01*
X22159511Y-46273271D01*
X22733000Y-46387345D01*
X23306489Y-46273271D01*
X23792670Y-45948415D01*
X24003000Y-45633634D01*
X24213330Y-45948415D01*
X24699511Y-46273271D01*
X25273000Y-46387345D01*
X25846489Y-46273271D01*
X26332670Y-45948415D01*
X26655010Y-45466000D01*
X33847370Y-45466000D01*
X40548137Y-52166768D01*
X40547786Y-52568579D01*
X40735408Y-53022657D01*
X41082515Y-53370371D01*
X41536266Y-53558785D01*
X42027579Y-53559214D01*
X42481657Y-53371592D01*
X42829371Y-53024485D01*
X43017785Y-52570734D01*
X43018214Y-52079421D01*
X42905478Y-51806579D01*
X71662786Y-51806579D01*
X71850408Y-52260657D01*
X72197515Y-52608371D01*
X72651266Y-52796785D01*
X73142579Y-52797214D01*
X73596657Y-52609592D01*
X73944371Y-52262485D01*
X74132785Y-51808734D01*
X74132916Y-51658714D01*
X79344767Y-46446863D01*
X79746579Y-46447214D01*
X80200657Y-46259592D01*
X80548371Y-45912485D01*
X80736785Y-45458734D01*
X80737214Y-44967421D01*
X80549592Y-44513343D01*
X80202485Y-44165629D01*
X79748734Y-43977215D01*
X79257421Y-43976786D01*
X78803343Y-44164408D01*
X78455629Y-44511515D01*
X78267215Y-44965266D01*
X78266862Y-45369508D01*
X73260913Y-50375457D01*
X73144734Y-50327215D01*
X72653421Y-50326786D01*
X72199343Y-50514408D01*
X71851629Y-50861515D01*
X71663215Y-51315266D01*
X71662786Y-51806579D01*
X42905478Y-51806579D01*
X42830592Y-51625343D01*
X42483485Y-51277629D01*
X42029734Y-51089215D01*
X41625493Y-51088862D01*
X35421710Y-44885079D01*
X43341786Y-44885079D01*
X43529408Y-45339157D01*
X43876515Y-45686871D01*
X44330266Y-45875285D01*
X44821579Y-45875714D01*
X45275657Y-45688092D01*
X45307304Y-45656500D01*
X53562140Y-45656500D01*
X53846015Y-45940871D01*
X54299766Y-46129285D01*
X54791079Y-46129714D01*
X55190734Y-45964579D01*
X57184786Y-45964579D01*
X57372408Y-46418657D01*
X57719515Y-46766371D01*
X58173266Y-46954785D01*
X58664579Y-46955214D01*
X59118657Y-46767592D01*
X59404748Y-46482000D01*
X67502370Y-46482000D01*
X68107137Y-47086767D01*
X68106786Y-47488579D01*
X68245376Y-47823992D01*
X67881343Y-47974408D01*
X67533629Y-48321515D01*
X67345215Y-48775266D01*
X67344786Y-49266579D01*
X67532408Y-49720657D01*
X67879515Y-50068371D01*
X68333266Y-50256785D01*
X68824579Y-50257214D01*
X69278657Y-50069592D01*
X69564748Y-49784000D01*
X71882000Y-49784000D01*
X72173605Y-49725996D01*
X72420815Y-49560815D01*
X76296768Y-45684863D01*
X76698579Y-45685214D01*
X77152657Y-45497592D01*
X77500371Y-45150485D01*
X77688785Y-44696734D01*
X77689214Y-44205421D01*
X77501592Y-43751343D01*
X77154485Y-43403629D01*
X76700734Y-43215215D01*
X76209421Y-43214786D01*
X75755343Y-43402408D01*
X75407629Y-43749515D01*
X75219215Y-44203266D01*
X75218862Y-44607507D01*
X71566370Y-48260000D01*
X70072304Y-48260000D01*
X70388371Y-47944485D01*
X70576785Y-47490734D01*
X70577214Y-46999421D01*
X70389592Y-46545343D01*
X70042485Y-46197629D01*
X69588734Y-46009215D01*
X69184493Y-46008862D01*
X68356815Y-45181185D01*
X68310869Y-45150485D01*
X68109605Y-45016004D01*
X67818000Y-44958000D01*
X59404360Y-44958000D01*
X59120485Y-44673629D01*
X58666734Y-44485215D01*
X58175421Y-44484786D01*
X57721343Y-44672408D01*
X57373629Y-45019515D01*
X57185215Y-45473266D01*
X57184786Y-45964579D01*
X55190734Y-45964579D01*
X55245157Y-45942092D01*
X55592871Y-45594985D01*
X55781285Y-45141234D01*
X55781714Y-44649921D01*
X55594092Y-44195843D01*
X55246985Y-43848129D01*
X54793234Y-43659715D01*
X54301921Y-43659286D01*
X53847843Y-43846908D01*
X53561752Y-44132500D01*
X45703370Y-44132500D01*
X45624592Y-43941843D01*
X45277485Y-43594129D01*
X44823734Y-43405715D01*
X44332421Y-43405286D01*
X43878343Y-43592908D01*
X43530629Y-43940015D01*
X43342215Y-44393766D01*
X43341786Y-44885079D01*
X35421710Y-44885079D01*
X34701815Y-44165185D01*
X34691655Y-44158396D01*
X34454605Y-44000004D01*
X34163000Y-43942000D01*
X26655010Y-43942000D01*
X26332670Y-43459585D01*
X25846489Y-43134729D01*
X25273000Y-43020655D01*
X24699511Y-43134729D01*
X24213330Y-43459585D01*
X24003000Y-43774366D01*
X23792670Y-43459585D01*
X23306489Y-43134729D01*
X22733000Y-43020655D01*
X22159511Y-43134729D01*
X21673330Y-43459585D01*
X21658500Y-43481780D01*
X21594927Y-43328302D01*
X21416299Y-43149673D01*
X21182910Y-43053000D01*
X20478750Y-43053000D01*
X20320000Y-43211750D01*
X20066000Y-43211750D01*
X19907250Y-43053000D01*
X19203090Y-43053000D01*
X18969701Y-43149673D01*
X18791073Y-43328302D01*
X18694400Y-43561691D01*
X17081500Y-43561691D01*
X17081500Y-42877740D01*
X61213776Y-42877740D01*
X61410573Y-43354026D01*
X61774657Y-43718746D01*
X62250599Y-43916374D01*
X62765940Y-43916824D01*
X63242226Y-43720027D01*
X63606946Y-43355943D01*
X63804574Y-42880001D01*
X63804575Y-42877740D01*
X66039776Y-42877740D01*
X66236573Y-43354026D01*
X66600657Y-43718746D01*
X67076599Y-43916374D01*
X67591940Y-43916824D01*
X68068226Y-43720027D01*
X68405641Y-43383200D01*
X68628115Y-43383200D01*
X68675408Y-43497657D01*
X69022515Y-43845371D01*
X69476266Y-44033785D01*
X69967579Y-44034214D01*
X70421657Y-43846592D01*
X70769371Y-43499485D01*
X70957785Y-43045734D01*
X70958214Y-42554421D01*
X70770592Y-42100343D01*
X70423485Y-41752629D01*
X69969734Y-41564215D01*
X69478421Y-41563786D01*
X69024343Y-41751408D01*
X68916362Y-41859200D01*
X68405104Y-41859200D01*
X68070143Y-41523654D01*
X67594201Y-41326026D01*
X67078860Y-41325576D01*
X66602574Y-41522373D01*
X66237854Y-41886457D01*
X66040226Y-42362399D01*
X66039776Y-42877740D01*
X63804575Y-42877740D01*
X63805024Y-42364660D01*
X63608227Y-41888374D01*
X63244143Y-41523654D01*
X62768201Y-41326026D01*
X62252860Y-41325576D01*
X61776574Y-41522373D01*
X61411854Y-41886457D01*
X61214226Y-42362399D01*
X61213776Y-42877740D01*
X17081500Y-42877740D01*
X17081500Y-33397928D01*
X34586977Y-33397928D01*
X34648631Y-33633540D01*
X35149040Y-33809667D01*
X35678759Y-33780888D01*
X36034489Y-33633540D01*
X36096143Y-33397928D01*
X35341560Y-32643345D01*
X34586977Y-33397928D01*
X17081500Y-33397928D01*
X17081500Y-27398448D01*
X34586977Y-27398448D01*
X34648631Y-27634060D01*
X35149040Y-27810187D01*
X35678759Y-27781408D01*
X36034489Y-27634060D01*
X36096143Y-27398448D01*
X35341560Y-26643865D01*
X34586977Y-27398448D01*
X17081500Y-27398448D01*
X17081500Y-26271740D01*
X33995633Y-26271740D01*
X34024412Y-26801459D01*
X34171760Y-27157189D01*
X34407372Y-27218843D01*
X35161955Y-26464260D01*
X35521165Y-26464260D01*
X36275748Y-27218843D01*
X36511360Y-27157189D01*
X36687487Y-26656780D01*
X36658708Y-26127061D01*
X36511360Y-25771331D01*
X36275748Y-25709677D01*
X35521165Y-26464260D01*
X35161955Y-26464260D01*
X34407372Y-25709677D01*
X34171760Y-25771331D01*
X33995633Y-26271740D01*
X17081500Y-26271740D01*
X17081500Y-25530072D01*
X34586977Y-25530072D01*
X35341560Y-26284655D01*
X36096143Y-25530072D01*
X36034489Y-25294460D01*
X35534080Y-25118333D01*
X35004361Y-25147112D01*
X34648631Y-25294460D01*
X34586977Y-25530072D01*
X17081500Y-25530072D01*
X17081500Y-24193320D01*
X17896285Y-24193320D01*
X18025533Y-24486123D01*
X18725806Y-24754388D01*
X19475435Y-24734250D01*
X20074467Y-24486123D01*
X20203715Y-24193320D01*
X22976285Y-24193320D01*
X23105533Y-24486123D01*
X23805806Y-24754388D01*
X24555435Y-24734250D01*
X25154467Y-24486123D01*
X25283715Y-24193320D01*
X24130000Y-23039605D01*
X22976285Y-24193320D01*
X20203715Y-24193320D01*
X19050000Y-23039605D01*
X17896285Y-24193320D01*
X17081500Y-24193320D01*
X17081500Y-22535806D01*
X17155612Y-22535806D01*
X17175750Y-23285435D01*
X17423877Y-23884467D01*
X17716680Y-24013715D01*
X18870395Y-22860000D01*
X17716680Y-21706285D01*
X17423877Y-21835533D01*
X17155612Y-22535806D01*
X17081500Y-22535806D01*
X17081500Y-19113320D01*
X17896285Y-19113320D01*
X18025533Y-19406123D01*
X18725806Y-19674388D01*
X19475435Y-19654250D01*
X19963476Y-19452097D01*
X19755319Y-19953395D01*
X19754682Y-20683403D01*
X19964769Y-21191853D01*
X19374194Y-20965612D01*
X18624565Y-20985750D01*
X18025533Y-21233877D01*
X17896285Y-21526680D01*
X19050000Y-22680395D01*
X19064143Y-22666253D01*
X19243748Y-22845858D01*
X19229605Y-22860000D01*
X20383320Y-24013715D01*
X20676123Y-23884467D01*
X20944388Y-23184194D01*
X20924250Y-22434565D01*
X20722097Y-21946524D01*
X21223395Y-22154681D01*
X21953403Y-22155318D01*
X22461853Y-21945231D01*
X22235612Y-22535806D01*
X22255750Y-23285435D01*
X22503877Y-23884467D01*
X22796680Y-24013715D01*
X23950395Y-22860000D01*
X24309605Y-22860000D01*
X25463320Y-24013715D01*
X25756123Y-23884467D01*
X26024388Y-23184194D01*
X26004250Y-22434565D01*
X25756123Y-21835533D01*
X25463320Y-21706285D01*
X24309605Y-22860000D01*
X23950395Y-22860000D01*
X23936253Y-22845858D01*
X24115858Y-22666253D01*
X24130000Y-22680395D01*
X25283715Y-21526680D01*
X25154467Y-21233877D01*
X24454194Y-20965612D01*
X23704565Y-20985750D01*
X23216524Y-21187903D01*
X23424681Y-20686605D01*
X23425318Y-19956597D01*
X23326216Y-19716750D01*
X29743400Y-19716750D01*
X29743400Y-20573309D01*
X29840073Y-20806698D01*
X30018701Y-20985327D01*
X30252090Y-21082000D01*
X30956250Y-21082000D01*
X31115000Y-20923250D01*
X31115000Y-19558000D01*
X29902150Y-19558000D01*
X29743400Y-19716750D01*
X23326216Y-19716750D01*
X23215231Y-19448147D01*
X23805806Y-19674388D01*
X24555435Y-19654250D01*
X25154467Y-19406123D01*
X25283715Y-19113320D01*
X24130000Y-17959605D01*
X24115858Y-17973748D01*
X23936253Y-17794143D01*
X23950395Y-17780000D01*
X24309605Y-17780000D01*
X25463320Y-18933715D01*
X25756123Y-18804467D01*
X25953709Y-18288691D01*
X29743400Y-18288691D01*
X29743400Y-19145250D01*
X29902150Y-19304000D01*
X31115000Y-19304000D01*
X31115000Y-17938750D01*
X30956250Y-17780000D01*
X30252090Y-17780000D01*
X30018701Y-17876673D01*
X29840073Y-18055302D01*
X29743400Y-18288691D01*
X25953709Y-18288691D01*
X26024388Y-18104194D01*
X26004250Y-17354565D01*
X25756123Y-16755533D01*
X25463320Y-16626285D01*
X24309605Y-17780000D01*
X23950395Y-17780000D01*
X22796680Y-16626285D01*
X22503877Y-16755533D01*
X22235612Y-17455806D01*
X22255750Y-18205435D01*
X22457903Y-18693476D01*
X21956605Y-18485319D01*
X21226597Y-18484682D01*
X20718147Y-18694769D01*
X20944388Y-18104194D01*
X20924250Y-17354565D01*
X20676123Y-16755533D01*
X20383320Y-16626285D01*
X19229605Y-17780000D01*
X19243748Y-17794143D01*
X19064143Y-17973748D01*
X19050000Y-17959605D01*
X17896285Y-19113320D01*
X17081500Y-19113320D01*
X17081500Y-17455806D01*
X17155612Y-17455806D01*
X17175750Y-18205435D01*
X17423877Y-18804467D01*
X17716680Y-18933715D01*
X18870395Y-17780000D01*
X17716680Y-16626285D01*
X17423877Y-16755533D01*
X17155612Y-17455806D01*
X17081500Y-17455806D01*
X17081500Y-16065500D01*
X18238894Y-16065500D01*
X18025533Y-16153877D01*
G36*
X99250500Y-41553347D02*
X99154334Y-41513415D01*
X98663021Y-41512986D01*
X98208943Y-41700608D01*
X97922852Y-41986200D01*
X86585067Y-41986200D01*
X86488325Y-41499845D01*
X86130433Y-40964222D01*
X85594810Y-40606330D01*
X84963000Y-40480655D01*
X84331190Y-40606330D01*
X83991208Y-40833499D01*
X83903090Y-40696559D01*
X83690890Y-40551569D01*
X83439000Y-40500560D01*
X81407000Y-40500560D01*
X81171683Y-40544838D01*
X80955559Y-40683910D01*
X80810569Y-40896110D01*
X80759560Y-41148000D01*
X80759560Y-42470929D01*
X76921412Y-38632782D01*
X77384151Y-38540737D01*
X77849698Y-38229668D01*
X78160767Y-37764121D01*
X78270000Y-37214970D01*
X78270000Y-36445030D01*
X78189952Y-36042600D01*
X80933123Y-36042600D01*
X81038474Y-36572234D01*
X81363330Y-37058415D01*
X81849511Y-37383271D01*
X82423000Y-37497345D01*
X82996489Y-37383271D01*
X83482670Y-37058415D01*
X83693000Y-36743634D01*
X83903330Y-37058415D01*
X84389511Y-37383271D01*
X84963000Y-37497345D01*
X85536489Y-37383271D01*
X86022670Y-37058415D01*
X86037500Y-37036220D01*
X86101073Y-37189698D01*
X86279701Y-37368327D01*
X86513090Y-37465000D01*
X87217250Y-37465000D01*
X87376000Y-37306250D01*
X87376000Y-35941000D01*
X87630000Y-35941000D01*
X87630000Y-37306250D01*
X87788750Y-37465000D01*
X88492910Y-37465000D01*
X88726299Y-37368327D01*
X88904927Y-37189698D01*
X89001600Y-36956309D01*
X89001600Y-36099750D01*
X88842850Y-35941000D01*
X87630000Y-35941000D01*
X87376000Y-35941000D01*
X87356000Y-35941000D01*
X87356000Y-35687000D01*
X87376000Y-35687000D01*
X87376000Y-34321750D01*
X87630000Y-34321750D01*
X87630000Y-35687000D01*
X88842850Y-35687000D01*
X89001600Y-35528250D01*
X89001600Y-34671691D01*
X88904927Y-34438302D01*
X88726299Y-34259673D01*
X88492910Y-34163000D01*
X87788750Y-34163000D01*
X87630000Y-34321750D01*
X87376000Y-34321750D01*
X87217250Y-34163000D01*
X86513090Y-34163000D01*
X86279701Y-34259673D01*
X86101073Y-34438302D01*
X86037500Y-34591780D01*
X86022670Y-34569585D01*
X85536489Y-34244729D01*
X84963000Y-34130655D01*
X84389511Y-34244729D01*
X83903330Y-34569585D01*
X83693000Y-34884366D01*
X83482670Y-34569585D01*
X82996489Y-34244729D01*
X82423000Y-34130655D01*
X81849511Y-34244729D01*
X81439634Y-34518600D01*
X77882558Y-34518600D01*
X77741285Y-34424204D01*
X77449680Y-34366200D01*
X73751823Y-34366200D01*
X73752214Y-33918421D01*
X73564592Y-33464343D01*
X73217485Y-33116629D01*
X72763734Y-32928215D01*
X72359492Y-32927862D01*
X72039815Y-32608185D01*
X71952144Y-32549605D01*
X71792605Y-32443004D01*
X71501000Y-32385000D01*
X69596000Y-32385000D01*
X69304395Y-32443004D01*
X69144856Y-32549605D01*
X69057185Y-32608185D01*
X68391370Y-33274000D01*
X65872753Y-33274000D01*
X66103657Y-33178592D01*
X66451371Y-32831485D01*
X66639785Y-32377734D01*
X66640214Y-31886421D01*
X66452592Y-31432343D01*
X66105485Y-31084629D01*
X65651734Y-30896215D01*
X65160421Y-30895786D01*
X64706343Y-31083408D01*
X64358629Y-31430515D01*
X64331437Y-31496000D01*
X63942630Y-31496000D01*
X64476611Y-30962019D01*
X64684151Y-30920737D01*
X65149698Y-30609668D01*
X65405000Y-30227582D01*
X65660302Y-30609668D01*
X66125849Y-30920737D01*
X66675000Y-31029970D01*
X67224151Y-30920737D01*
X67689698Y-30609668D01*
X67945000Y-30227582D01*
X68200302Y-30609668D01*
X68665849Y-30920737D01*
X69215000Y-31029970D01*
X69764151Y-30920737D01*
X70229698Y-30609668D01*
X70485000Y-30227582D01*
X70740302Y-30609668D01*
X71205849Y-30920737D01*
X71413389Y-30962019D01*
X72613184Y-32161815D01*
X72796249Y-32284135D01*
X72860395Y-32326996D01*
X73152000Y-32385000D01*
X81218370Y-32385000D01*
X81630185Y-32796816D01*
X81778377Y-32895834D01*
X81877395Y-32961996D01*
X82169000Y-33020000D01*
X86106000Y-33020000D01*
X86397605Y-32961996D01*
X86644815Y-32796815D01*
X87457616Y-31984015D01*
X87556634Y-31835823D01*
X87622796Y-31736805D01*
X87653380Y-31583047D01*
X87978470Y-31365829D01*
X88188800Y-31051048D01*
X88399130Y-31365829D01*
X88885311Y-31690685D01*
X89458800Y-31804759D01*
X90032289Y-31690685D01*
X90518470Y-31365829D01*
X90843326Y-30879648D01*
X90957400Y-30306159D01*
X90957400Y-30247441D01*
X90843326Y-29673952D01*
X90518470Y-29187771D01*
X90247628Y-29006800D01*
X90518470Y-28825829D01*
X90843326Y-28339648D01*
X90957400Y-27766159D01*
X90957400Y-27707441D01*
X90843326Y-27133952D01*
X90518470Y-26647771D01*
X90139767Y-26394729D01*
X90091782Y-26322915D01*
X89997615Y-26181984D01*
X87406815Y-23591185D01*
X87310145Y-23526592D01*
X87159605Y-23426004D01*
X86868000Y-23368000D01*
X72705630Y-23368000D01*
X70571704Y-21234074D01*
X70574763Y-21226708D01*
X70575236Y-20685666D01*
X70368624Y-20185628D01*
X69986384Y-19802720D01*
X69702802Y-19684967D01*
X69984372Y-19568624D01*
X70367280Y-19186384D01*
X70574763Y-18686708D01*
X70575236Y-18145666D01*
X70368624Y-17645628D01*
X69986384Y-17262720D01*
X69486708Y-17055237D01*
X68945666Y-17054764D01*
X68445628Y-17261376D01*
X68062720Y-17643616D01*
X67965033Y-17878873D01*
X67860010Y-17624697D01*
X67467370Y-17231371D01*
X66954100Y-17018243D01*
X66398339Y-17017758D01*
X65884697Y-17229990D01*
X65491371Y-17622630D01*
X65384984Y-17878838D01*
X65288624Y-17645628D01*
X64906384Y-17262720D01*
X64406708Y-17055237D01*
X63865666Y-17054764D01*
X63365628Y-17261376D01*
X62982720Y-17643616D01*
X62864967Y-17927198D01*
X62748624Y-17645628D01*
X62366384Y-17262720D01*
X61866708Y-17055237D01*
X61721121Y-17055110D01*
X61885231Y-16891000D01*
X76140186Y-16891000D01*
X75253532Y-17776108D01*
X74740086Y-19012624D01*
X74738917Y-20351502D01*
X75250204Y-21588912D01*
X76196108Y-22536468D01*
X77432624Y-23049914D01*
X78771502Y-23051083D01*
X80008912Y-22539796D01*
X80956468Y-21593892D01*
X81347668Y-20651777D01*
X85445828Y-20651777D01*
X85577520Y-20946657D01*
X86285036Y-21218261D01*
X87042632Y-21198436D01*
X87650480Y-20946657D01*
X87782172Y-20651777D01*
X86614000Y-19483605D01*
X85445828Y-20651777D01*
X81347668Y-20651777D01*
X81469914Y-20357376D01*
X81471083Y-19018498D01*
X81453125Y-18975036D01*
X84699739Y-18975036D01*
X84719564Y-19732632D01*
X84971343Y-20340480D01*
X85266223Y-20472172D01*
X86434395Y-19304000D01*
X86793605Y-19304000D01*
X87961777Y-20472172D01*
X88256657Y-20340480D01*
X88528261Y-19632964D01*
X88508436Y-18875368D01*
X88256657Y-18267520D01*
X87961777Y-18135828D01*
X86793605Y-19304000D01*
X86434395Y-19304000D01*
X85266223Y-18135828D01*
X84971343Y-18267520D01*
X84699739Y-18975036D01*
X81453125Y-18975036D01*
X81032161Y-17956223D01*
X85445828Y-17956223D01*
X86614000Y-19124395D01*
X87782172Y-17956223D01*
X87650480Y-17661343D01*
X86942964Y-17389739D01*
X86185368Y-17409564D01*
X85577520Y-17661343D01*
X85445828Y-17956223D01*
X81032161Y-17956223D01*
X80959796Y-17781088D01*
X80071260Y-16891000D01*
X88203370Y-16891000D01*
X89920321Y-18607951D01*
X89789332Y-18923410D01*
X89788670Y-19681265D01*
X90078078Y-20381686D01*
X90613495Y-20918039D01*
X91313410Y-21208668D01*
X92071265Y-21209330D01*
X92771686Y-20919922D01*
X93308039Y-20384505D01*
X93598668Y-19684590D01*
X93599330Y-18926735D01*
X93309922Y-18226314D01*
X93117944Y-18034000D01*
X94856560Y-18034000D01*
X94856560Y-20574000D01*
X94900838Y-20809317D01*
X95039910Y-21025441D01*
X95252110Y-21170431D01*
X95504000Y-21221440D01*
X98044000Y-21221440D01*
X98279317Y-21177162D01*
X98495441Y-21038090D01*
X98640431Y-20825890D01*
X98691440Y-20574000D01*
X98691440Y-18034000D01*
X98647162Y-17798683D01*
X98508090Y-17582559D01*
X98295890Y-17437569D01*
X98044000Y-17386560D01*
X95504000Y-17386560D01*
X95268683Y-17430838D01*
X95052559Y-17569910D01*
X94907569Y-17782110D01*
X94856560Y-18034000D01*
X93117944Y-18034000D01*
X92774505Y-17689961D01*
X92074590Y-17399332D01*
X91316735Y-17398670D01*
X90997999Y-17530369D01*
X89533130Y-16065500D01*
X99250500Y-16065500D01*
X99250500Y-41553347D01*
X99250500Y-41553347D01*
G37*
X99250500Y-41553347D02*
X99154334Y-41513415D01*
X98663021Y-41512986D01*
X98208943Y-41700608D01*
X97922852Y-41986200D01*
X86585067Y-41986200D01*
X86488325Y-41499845D01*
X86130433Y-40964222D01*
X85594810Y-40606330D01*
X84963000Y-40480655D01*
X84331190Y-40606330D01*
X83991208Y-40833499D01*
X83903090Y-40696559D01*
X83690890Y-40551569D01*
X83439000Y-40500560D01*
X81407000Y-40500560D01*
X81171683Y-40544838D01*
X80955559Y-40683910D01*
X80810569Y-40896110D01*
X80759560Y-41148000D01*
X80759560Y-42470929D01*
X76921412Y-38632782D01*
X77384151Y-38540737D01*
X77849698Y-38229668D01*
X78160767Y-37764121D01*
X78270000Y-37214970D01*
X78270000Y-36445030D01*
X78189952Y-36042600D01*
X80933123Y-36042600D01*
X81038474Y-36572234D01*
X81363330Y-37058415D01*
X81849511Y-37383271D01*
X82423000Y-37497345D01*
X82996489Y-37383271D01*
X83482670Y-37058415D01*
X83693000Y-36743634D01*
X83903330Y-37058415D01*
X84389511Y-37383271D01*
X84963000Y-37497345D01*
X85536489Y-37383271D01*
X86022670Y-37058415D01*
X86037500Y-37036220D01*
X86101073Y-37189698D01*
X86279701Y-37368327D01*
X86513090Y-37465000D01*
X87217250Y-37465000D01*
X87376000Y-37306250D01*
X87376000Y-35941000D01*
X87630000Y-35941000D01*
X87630000Y-37306250D01*
X87788750Y-37465000D01*
X88492910Y-37465000D01*
X88726299Y-37368327D01*
X88904927Y-37189698D01*
X89001600Y-36956309D01*
X89001600Y-36099750D01*
X88842850Y-35941000D01*
X87630000Y-35941000D01*
X87376000Y-35941000D01*
X87356000Y-35941000D01*
X87356000Y-35687000D01*
X87376000Y-35687000D01*
X87376000Y-34321750D01*
X87630000Y-34321750D01*
X87630000Y-35687000D01*
X88842850Y-35687000D01*
X89001600Y-35528250D01*
X89001600Y-34671691D01*
X88904927Y-34438302D01*
X88726299Y-34259673D01*
X88492910Y-34163000D01*
X87788750Y-34163000D01*
X87630000Y-34321750D01*
X87376000Y-34321750D01*
X87217250Y-34163000D01*
X86513090Y-34163000D01*
X86279701Y-34259673D01*
X86101073Y-34438302D01*
X86037500Y-34591780D01*
X86022670Y-34569585D01*
X85536489Y-34244729D01*
X84963000Y-34130655D01*
X84389511Y-34244729D01*
X83903330Y-34569585D01*
X83693000Y-34884366D01*
X83482670Y-34569585D01*
X82996489Y-34244729D01*
X82423000Y-34130655D01*
X81849511Y-34244729D01*
X81439634Y-34518600D01*
X77882558Y-34518600D01*
X77741285Y-34424204D01*
X77449680Y-34366200D01*
X73751823Y-34366200D01*
X73752214Y-33918421D01*
X73564592Y-33464343D01*
X73217485Y-33116629D01*
X72763734Y-32928215D01*
X72359492Y-32927862D01*
X72039815Y-32608185D01*
X71952144Y-32549605D01*
X71792605Y-32443004D01*
X71501000Y-32385000D01*
X69596000Y-32385000D01*
X69304395Y-32443004D01*
X69144856Y-32549605D01*
X69057185Y-32608185D01*
X68391370Y-33274000D01*
X65872753Y-33274000D01*
X66103657Y-33178592D01*
X66451371Y-32831485D01*
X66639785Y-32377734D01*
X66640214Y-31886421D01*
X66452592Y-31432343D01*
X66105485Y-31084629D01*
X65651734Y-30896215D01*
X65160421Y-30895786D01*
X64706343Y-31083408D01*
X64358629Y-31430515D01*
X64331437Y-31496000D01*
X63942630Y-31496000D01*
X64476611Y-30962019D01*
X64684151Y-30920737D01*
X65149698Y-30609668D01*
X65405000Y-30227582D01*
X65660302Y-30609668D01*
X66125849Y-30920737D01*
X66675000Y-31029970D01*
X67224151Y-30920737D01*
X67689698Y-30609668D01*
X67945000Y-30227582D01*
X68200302Y-30609668D01*
X68665849Y-30920737D01*
X69215000Y-31029970D01*
X69764151Y-30920737D01*
X70229698Y-30609668D01*
X70485000Y-30227582D01*
X70740302Y-30609668D01*
X71205849Y-30920737D01*
X71413389Y-30962019D01*
X72613184Y-32161815D01*
X72796249Y-32284135D01*
X72860395Y-32326996D01*
X73152000Y-32385000D01*
X81218370Y-32385000D01*
X81630185Y-32796816D01*
X81778377Y-32895834D01*
X81877395Y-32961996D01*
X82169000Y-33020000D01*
X86106000Y-33020000D01*
X86397605Y-32961996D01*
X86644815Y-32796815D01*
X87457616Y-31984015D01*
X87556634Y-31835823D01*
X87622796Y-31736805D01*
X87653380Y-31583047D01*
X87978470Y-31365829D01*
X88188800Y-31051048D01*
X88399130Y-31365829D01*
X88885311Y-31690685D01*
X89458800Y-31804759D01*
X90032289Y-31690685D01*
X90518470Y-31365829D01*
X90843326Y-30879648D01*
X90957400Y-30306159D01*
X90957400Y-30247441D01*
X90843326Y-29673952D01*
X90518470Y-29187771D01*
X90247628Y-29006800D01*
X90518470Y-28825829D01*
X90843326Y-28339648D01*
X90957400Y-27766159D01*
X90957400Y-27707441D01*
X90843326Y-27133952D01*
X90518470Y-26647771D01*
X90139767Y-26394729D01*
X90091782Y-26322915D01*
X89997615Y-26181984D01*
X87406815Y-23591185D01*
X87310145Y-23526592D01*
X87159605Y-23426004D01*
X86868000Y-23368000D01*
X72705630Y-23368000D01*
X70571704Y-21234074D01*
X70574763Y-21226708D01*
X70575236Y-20685666D01*
X70368624Y-20185628D01*
X69986384Y-19802720D01*
X69702802Y-19684967D01*
X69984372Y-19568624D01*
X70367280Y-19186384D01*
X70574763Y-18686708D01*
X70575236Y-18145666D01*
X70368624Y-17645628D01*
X69986384Y-17262720D01*
X69486708Y-17055237D01*
X68945666Y-17054764D01*
X68445628Y-17261376D01*
X68062720Y-17643616D01*
X67965033Y-17878873D01*
X67860010Y-17624697D01*
X67467370Y-17231371D01*
X66954100Y-17018243D01*
X66398339Y-17017758D01*
X65884697Y-17229990D01*
X65491371Y-17622630D01*
X65384984Y-17878838D01*
X65288624Y-17645628D01*
X64906384Y-17262720D01*
X64406708Y-17055237D01*
X63865666Y-17054764D01*
X63365628Y-17261376D01*
X62982720Y-17643616D01*
X62864967Y-17927198D01*
X62748624Y-17645628D01*
X62366384Y-17262720D01*
X61866708Y-17055237D01*
X61721121Y-17055110D01*
X61885231Y-16891000D01*
X76140186Y-16891000D01*
X75253532Y-17776108D01*
X74740086Y-19012624D01*
X74738917Y-20351502D01*
X75250204Y-21588912D01*
X76196108Y-22536468D01*
X77432624Y-23049914D01*
X78771502Y-23051083D01*
X80008912Y-22539796D01*
X80956468Y-21593892D01*
X81347668Y-20651777D01*
X85445828Y-20651777D01*
X85577520Y-20946657D01*
X86285036Y-21218261D01*
X87042632Y-21198436D01*
X87650480Y-20946657D01*
X87782172Y-20651777D01*
X86614000Y-19483605D01*
X85445828Y-20651777D01*
X81347668Y-20651777D01*
X81469914Y-20357376D01*
X81471083Y-19018498D01*
X81453125Y-18975036D01*
X84699739Y-18975036D01*
X84719564Y-19732632D01*
X84971343Y-20340480D01*
X85266223Y-20472172D01*
X86434395Y-19304000D01*
X86793605Y-19304000D01*
X87961777Y-20472172D01*
X88256657Y-20340480D01*
X88528261Y-19632964D01*
X88508436Y-18875368D01*
X88256657Y-18267520D01*
X87961777Y-18135828D01*
X86793605Y-19304000D01*
X86434395Y-19304000D01*
X85266223Y-18135828D01*
X84971343Y-18267520D01*
X84699739Y-18975036D01*
X81453125Y-18975036D01*
X81032161Y-17956223D01*
X85445828Y-17956223D01*
X86614000Y-19124395D01*
X87782172Y-17956223D01*
X87650480Y-17661343D01*
X86942964Y-17389739D01*
X86185368Y-17409564D01*
X85577520Y-17661343D01*
X85445828Y-17956223D01*
X81032161Y-17956223D01*
X80959796Y-17781088D01*
X80071260Y-16891000D01*
X88203370Y-16891000D01*
X89920321Y-18607951D01*
X89789332Y-18923410D01*
X89788670Y-19681265D01*
X90078078Y-20381686D01*
X90613495Y-20918039D01*
X91313410Y-21208668D01*
X92071265Y-21209330D01*
X92771686Y-20919922D01*
X93308039Y-20384505D01*
X93598668Y-19684590D01*
X93599330Y-18926735D01*
X93309922Y-18226314D01*
X93117944Y-18034000D01*
X94856560Y-18034000D01*
X94856560Y-20574000D01*
X94900838Y-20809317D01*
X95039910Y-21025441D01*
X95252110Y-21170431D01*
X95504000Y-21221440D01*
X98044000Y-21221440D01*
X98279317Y-21177162D01*
X98495441Y-21038090D01*
X98640431Y-20825890D01*
X98691440Y-20574000D01*
X98691440Y-18034000D01*
X98647162Y-17798683D01*
X98508090Y-17582559D01*
X98295890Y-17437569D01*
X98044000Y-17386560D01*
X95504000Y-17386560D01*
X95268683Y-17430838D01*
X95052559Y-17569910D01*
X94907569Y-17782110D01*
X94856560Y-18034000D01*
X93117944Y-18034000D01*
X92774505Y-17689961D01*
X92074590Y-17399332D01*
X91316735Y-17398670D01*
X90997999Y-17530369D01*
X89533130Y-16065500D01*
X99250500Y-16065500D01*
X99250500Y-41553347D01*
G36*
X82994274Y-28339648D02*
X83309326Y-28811156D01*
X83155501Y-28874873D01*
X82976873Y-29053502D01*
X82880200Y-29286891D01*
X82880200Y-29991050D01*
X83038950Y-30149800D01*
X84251800Y-30149800D01*
X84251800Y-30129800D01*
X84505800Y-30129800D01*
X84505800Y-30149800D01*
X84525800Y-30149800D01*
X84525800Y-30403800D01*
X84505800Y-30403800D01*
X84505800Y-30423800D01*
X84251800Y-30423800D01*
X84251800Y-30403800D01*
X83038950Y-30403800D01*
X82880200Y-30562550D01*
X82880200Y-31266709D01*
X82975176Y-31496000D01*
X82484631Y-31496000D01*
X82072815Y-31084185D01*
X82071652Y-31083408D01*
X81825605Y-30919004D01*
X81534000Y-30861000D01*
X77473554Y-30861000D01*
X77849698Y-30609668D01*
X78160767Y-30144121D01*
X78270000Y-29594970D01*
X78270000Y-28825030D01*
X78160767Y-28275879D01*
X78106057Y-28194000D01*
X82296000Y-28194000D01*
X82587605Y-28135996D01*
X82834815Y-27970815D01*
X82906625Y-27899005D01*
X82994274Y-28339648D01*
X82994274Y-28339648D01*
G37*
X82994274Y-28339648D02*
X83309326Y-28811156D01*
X83155501Y-28874873D01*
X82976873Y-29053502D01*
X82880200Y-29286891D01*
X82880200Y-29991050D01*
X83038950Y-30149800D01*
X84251800Y-30149800D01*
X84251800Y-30129800D01*
X84505800Y-30129800D01*
X84505800Y-30149800D01*
X84525800Y-30149800D01*
X84525800Y-30403800D01*
X84505800Y-30403800D01*
X84505800Y-30423800D01*
X84251800Y-30423800D01*
X84251800Y-30403800D01*
X83038950Y-30403800D01*
X82880200Y-30562550D01*
X82880200Y-31266709D01*
X82975176Y-31496000D01*
X82484631Y-31496000D01*
X82072815Y-31084185D01*
X82071652Y-31083408D01*
X81825605Y-30919004D01*
X81534000Y-30861000D01*
X77473554Y-30861000D01*
X77849698Y-30609668D01*
X78160767Y-30144121D01*
X78270000Y-29594970D01*
X78270000Y-28825030D01*
X78160767Y-28275879D01*
X78106057Y-28194000D01*
X82296000Y-28194000D01*
X82587605Y-28135996D01*
X82834815Y-27970815D01*
X82906625Y-27899005D01*
X82994274Y-28339648D01*
G36*
X62981376Y-19184372D02*
X63363616Y-19567280D01*
X63647198Y-19685033D01*
X63365628Y-19801376D01*
X62982720Y-20183616D01*
X62871654Y-20451092D01*
X62786753Y-20246122D01*
X62548398Y-20181207D01*
X61774605Y-20955000D01*
X62548398Y-21728793D01*
X62786753Y-21663878D01*
X62865025Y-21442783D01*
X62981376Y-21724372D01*
X63363616Y-22107280D01*
X63863292Y-22314763D01*
X64404334Y-22315236D01*
X64904372Y-22108624D01*
X65287280Y-21726384D01*
X65384967Y-21491127D01*
X65489990Y-21745303D01*
X65882630Y-22138629D01*
X66395900Y-22351757D01*
X66951661Y-22352242D01*
X67465303Y-22140010D01*
X67858629Y-21747370D01*
X67965016Y-21491162D01*
X68061376Y-21724372D01*
X68443616Y-22107280D01*
X68943292Y-22314763D01*
X69484334Y-22315236D01*
X69493726Y-22311356D01*
X71693370Y-24511000D01*
X68935600Y-24511000D01*
X68643995Y-24569004D01*
X68396785Y-24734185D01*
X67428710Y-25702260D01*
X40965979Y-25702260D01*
X40598793Y-25334433D01*
X40144996Y-25146000D01*
X50165000Y-25146000D01*
X50456605Y-25087996D01*
X50703815Y-24922815D01*
X52116400Y-23510230D01*
X52131515Y-23525371D01*
X52585266Y-23713785D01*
X53076579Y-23714214D01*
X53530657Y-23526592D01*
X53816748Y-23241000D01*
X58993370Y-23241000D01*
X59090137Y-23337767D01*
X59089786Y-23739579D01*
X59277408Y-24193657D01*
X59624515Y-24541371D01*
X60078266Y-24729785D01*
X60569579Y-24730214D01*
X61023657Y-24542592D01*
X61371371Y-24195485D01*
X61559785Y-23741734D01*
X61560214Y-23250421D01*
X61372592Y-22796343D01*
X61025485Y-22448629D01*
X60571734Y-22260215D01*
X60167492Y-22259862D01*
X60097087Y-22189457D01*
X60206441Y-22119090D01*
X60350400Y-21908398D01*
X60821207Y-21908398D01*
X60886122Y-22146753D01*
X61396146Y-22327312D01*
X61936444Y-22298949D01*
X62303878Y-22146753D01*
X62368793Y-21908398D01*
X61595000Y-21134605D01*
X60821207Y-21908398D01*
X60350400Y-21908398D01*
X60351431Y-21906890D01*
X60401497Y-21659654D01*
X60403247Y-21663878D01*
X60641602Y-21728793D01*
X61415395Y-20955000D01*
X60641602Y-20181207D01*
X60403247Y-20246122D01*
X60401629Y-20250692D01*
X60358162Y-20019683D01*
X60219090Y-19803559D01*
X60006890Y-19658569D01*
X59803339Y-19617349D01*
X59845303Y-19600010D01*
X60238629Y-19207370D01*
X60345016Y-18951162D01*
X60441376Y-19184372D01*
X60823616Y-19567280D01*
X61091092Y-19678346D01*
X60886122Y-19763247D01*
X60821207Y-20001602D01*
X61595000Y-20775395D01*
X62368793Y-20001602D01*
X62303878Y-19763247D01*
X62082783Y-19684975D01*
X62364372Y-19568624D01*
X62747280Y-19186384D01*
X62865033Y-18902802D01*
X62981376Y-19184372D01*
X62981376Y-19184372D01*
G37*
X62981376Y-19184372D02*
X63363616Y-19567280D01*
X63647198Y-19685033D01*
X63365628Y-19801376D01*
X62982720Y-20183616D01*
X62871654Y-20451092D01*
X62786753Y-20246122D01*
X62548398Y-20181207D01*
X61774605Y-20955000D01*
X62548398Y-21728793D01*
X62786753Y-21663878D01*
X62865025Y-21442783D01*
X62981376Y-21724372D01*
X63363616Y-22107280D01*
X63863292Y-22314763D01*
X64404334Y-22315236D01*
X64904372Y-22108624D01*
X65287280Y-21726384D01*
X65384967Y-21491127D01*
X65489990Y-21745303D01*
X65882630Y-22138629D01*
X66395900Y-22351757D01*
X66951661Y-22352242D01*
X67465303Y-22140010D01*
X67858629Y-21747370D01*
X67965016Y-21491162D01*
X68061376Y-21724372D01*
X68443616Y-22107280D01*
X68943292Y-22314763D01*
X69484334Y-22315236D01*
X69493726Y-22311356D01*
X71693370Y-24511000D01*
X68935600Y-24511000D01*
X68643995Y-24569004D01*
X68396785Y-24734185D01*
X67428710Y-25702260D01*
X40965979Y-25702260D01*
X40598793Y-25334433D01*
X40144996Y-25146000D01*
X50165000Y-25146000D01*
X50456605Y-25087996D01*
X50703815Y-24922815D01*
X52116400Y-23510230D01*
X52131515Y-23525371D01*
X52585266Y-23713785D01*
X53076579Y-23714214D01*
X53530657Y-23526592D01*
X53816748Y-23241000D01*
X58993370Y-23241000D01*
X59090137Y-23337767D01*
X59089786Y-23739579D01*
X59277408Y-24193657D01*
X59624515Y-24541371D01*
X60078266Y-24729785D01*
X60569579Y-24730214D01*
X61023657Y-24542592D01*
X61371371Y-24195485D01*
X61559785Y-23741734D01*
X61560214Y-23250421D01*
X61372592Y-22796343D01*
X61025485Y-22448629D01*
X60571734Y-22260215D01*
X60167492Y-22259862D01*
X60097087Y-22189457D01*
X60206441Y-22119090D01*
X60350400Y-21908398D01*
X60821207Y-21908398D01*
X60886122Y-22146753D01*
X61396146Y-22327312D01*
X61936444Y-22298949D01*
X62303878Y-22146753D01*
X62368793Y-21908398D01*
X61595000Y-21134605D01*
X60821207Y-21908398D01*
X60350400Y-21908398D01*
X60351431Y-21906890D01*
X60401497Y-21659654D01*
X60403247Y-21663878D01*
X60641602Y-21728793D01*
X61415395Y-20955000D01*
X60641602Y-20181207D01*
X60403247Y-20246122D01*
X60401629Y-20250692D01*
X60358162Y-20019683D01*
X60219090Y-19803559D01*
X60006890Y-19658569D01*
X59803339Y-19617349D01*
X59845303Y-19600010D01*
X60238629Y-19207370D01*
X60345016Y-18951162D01*
X60441376Y-19184372D01*
X60823616Y-19567280D01*
X61091092Y-19678346D01*
X60886122Y-19763247D01*
X60821207Y-20001602D01*
X61595000Y-20775395D01*
X62368793Y-20001602D01*
X62303878Y-19763247D01*
X62082783Y-19684975D01*
X62364372Y-19568624D01*
X62747280Y-19186384D01*
X62865033Y-18902802D01*
X62981376Y-19184372D01*
M02*
