M48
;DRILL file {KiCad 4.0.1-stable} date 4/15/2016 12:19:51 PM
;FORMAT={-:-/ absolute / inch / decimal}
FMAT,2
INCH,TZ
T1C0.031
T2C0.032
T3C0.036
T4C0.039
T5C0.039
T6C0.040
T7C0.059
T8C0.060
T9C0.063
T10C0.106
%
G90
G05
M72
T1
X1.135Y-1.5
X1.305Y-1.163
X1.625Y-1.36
X1.645Y-2.06
X1.66Y-1.41
X1.675Y-2.54
X1.725Y-1.15
X1.725Y-1.45
X1.755Y-1.7575
X1.825Y-1.15
X1.825Y-1.45
X1.86Y-2.61
X1.925Y-1.15
X1.925Y-1.45
X1.945Y-2.1
X1.965Y-2.44
X1.965Y-2.67
X1.975Y-1.516
X1.985Y-1.265
X2.015Y-2.44
X2.015Y-2.67
X2.025Y-1.15
X2.025Y-1.45
X2.03Y-2.23
X2.05Y-1.68
X2.065Y-2.44
X2.065Y-2.67
X2.08Y-0.885
X2.125Y-1.15
X2.125Y-1.265
X2.125Y-1.45
X2.1475Y-1.7675
X2.22Y-1.27
X2.225Y-1.15
X2.225Y-1.45
X2.275Y-1.225
X2.3Y-1.8
X2.325Y-1.15
X2.325Y-1.45
X2.375Y-0.925
X2.41Y-1.96
X2.41Y-2.02
X2.425Y-1.15
X2.425Y-1.45
X2.47Y-1.96
X2.47Y-2.02
X2.525Y-1.15
X2.525Y-1.45
X2.53Y-1.96
X2.53Y-2.02
X2.575Y-1.265
X2.625Y-1.15
X2.625Y-1.45
X2.7Y-1.93
X2.725Y-1.15
X2.725Y-1.45
X2.73Y-1.86
X2.745Y-1.595
X2.745Y-1.685
X2.76Y-1.345
X2.825Y-1.15
X2.825Y-1.45
X2.855Y-1.345
X2.87Y-2.03
X2.905Y-2.155
X2.925Y-1.15
X2.925Y-1.45
X2.973Y-1.568
X3.01Y-1.75
X3.025Y-1.15
X3.025Y-1.45
X3.13Y-1.78
X3.324Y-0.9918
X3.455Y-1.99
X3.65Y-1.34
X3.894Y-1.683
T2
X2.461Y-1.678
X2.651Y-1.678
T3
X2.325Y-0.725
X2.325Y-0.825
X2.425Y-0.725
X2.425Y-0.825
X2.525Y-0.725
X2.525Y-0.825
X2.625Y-0.725
X2.625Y-0.825
X2.725Y-0.725
X2.725Y-0.825
T4
X1.3914Y-1.0419
X1.3914Y-1.2781
X1.5686Y-1.0419
X1.5686Y-1.2781
T5
X2.7Y-2.6
X2.8Y-2.6
X2.9Y-2.6
X3.6Y-1.85
X3.7Y-1.85
X3.8Y-1.85
T6
X0.795Y-1.76
X0.795Y-2.66
X0.895Y-1.76
X0.895Y-2.66
X0.995Y-1.76
X0.995Y-2.66
X1.095Y-2.66
X1.195Y-2.66
X1.23Y-0.765
X1.33Y-0.765
X1.36Y-0.8825
X1.43Y-0.765
X1.46Y-0.8825
X1.53Y-0.765
X1.63Y-0.765
X1.73Y-0.765
X3.307Y-1.389
X3.322Y-1.092
X3.322Y-1.192
X3.407Y-1.389
X3.422Y-1.092
X3.422Y-1.192
X3.422Y-1.595
X3.507Y-1.389
X3.522Y-1.092
X3.522Y-1.192
X3.522Y-1.595
T7
X0.85Y-0.8
T8
X3.41Y-0.76
X3.61Y-0.76
X3.81Y-0.76
T9
X0.75Y-0.7
X0.75Y-0.9
X0.95Y-0.7
X0.95Y-0.9
T10
X1.975Y-0.775
X3.075Y-0.775
T0
M30
