G04 #@! TF.FileFunction,Legend,Bot*
%FSLAX46Y46*%
G04 Gerber Fmt 4.6, Leading zero omitted, Abs format (unit mm)*
G04 Created by KiCad (PCBNEW 4.0.1-stable) date 2/17/2016 12:01:54 PM*
%MOMM*%
G01*
G04 APERTURE LIST*
%ADD10C,0.150000*%
G04 APERTURE END LIST*
D10*
X20447000Y-59055000D02*
X20447000Y-61087000D01*
X20447000Y-40767000D02*
X20447000Y-39243000D01*
X24257000Y-58801000D02*
X16637000Y-58801000D01*
X16637000Y-58801000D02*
X16637000Y-41021000D01*
X16637000Y-41021000D02*
X24257000Y-41021000D01*
X24257000Y-41021000D02*
X24257000Y-58801000D01*
X26649941Y-49468803D02*
X26173750Y-49135469D01*
X26649941Y-48897374D02*
X25649941Y-48897374D01*
X25649941Y-49278327D01*
X25697560Y-49373565D01*
X25745179Y-49421184D01*
X25840417Y-49468803D01*
X25983274Y-49468803D01*
X26078512Y-49421184D01*
X26126131Y-49373565D01*
X26173750Y-49278327D01*
X26173750Y-48897374D01*
X26649941Y-50421184D02*
X26649941Y-49849755D01*
X26649941Y-50135469D02*
X25649941Y-50135469D01*
X25792798Y-50040231D01*
X25888036Y-49944993D01*
X25935655Y-49849755D01*
X26078512Y-50992612D02*
X26030893Y-50897374D01*
X25983274Y-50849755D01*
X25888036Y-50802136D01*
X25840417Y-50802136D01*
X25745179Y-50849755D01*
X25697560Y-50897374D01*
X25649941Y-50992612D01*
X25649941Y-51183089D01*
X25697560Y-51278327D01*
X25745179Y-51325946D01*
X25840417Y-51373565D01*
X25888036Y-51373565D01*
X25983274Y-51325946D01*
X26030893Y-51278327D01*
X26078512Y-51183089D01*
X26078512Y-50992612D01*
X26126131Y-50897374D01*
X26173750Y-50849755D01*
X26268989Y-50802136D01*
X26459465Y-50802136D01*
X26554703Y-50849755D01*
X26602322Y-50897374D01*
X26649941Y-50992612D01*
X26649941Y-51183089D01*
X26602322Y-51278327D01*
X26554703Y-51325946D01*
X26459465Y-51373565D01*
X26268989Y-51373565D01*
X26173750Y-51325946D01*
X26126131Y-51278327D01*
X26078512Y-51183089D01*
M02*
