M48
;DRILL file {KiCad 4.0.1-stable} date 4/16/2016 2:13:02 PM
;FORMAT={2:4/ absolute / inch / suppress leading zeros}
FMAT,2
INCH,TZ
T1C0.024
T2C0.031
T3C0.036
T4C0.039
T5C0.040
T6C0.059
T7C0.060
T8C0.063
T9C0.106
%
G90
G05
M72
T1
X12900Y-9300
X13400Y-9300
X13900Y-9300
X15300Y-9300
X15800Y-9300
X16300Y-9300
T2
X9550Y-16000
X12050Y-16500
X12350Y-11200
X12350Y-17000
X12450Y-7200
X13950Y-16100
X15250Y-8550
X16050Y-12000
X16450Y-20600
X16550Y-11600
X17250Y-10300
X17250Y-16300
X18250Y-10300
X18250Y-16300
X18600Y-26100
X19250Y-10300
X19250Y-16300
X19650Y-24400
X19650Y-26700
X19850Y-20900
X19850Y-21400
X19850Y-21900
X20150Y-26700
X20250Y-10300
X20250Y-14900
X20250Y-16300
X20650Y-24400
X20650Y-26700
X21250Y-10300
X21250Y-16300
X22250Y-10300
X22250Y-16300
X22750Y-18900
X23250Y-10300
X23250Y-16300
X24100Y-19600
X24100Y-20200
X24250Y-10300
X24250Y-15400
X24250Y-16300
X24700Y-19600
X24700Y-20200
X25250Y-10300
X25250Y-16300
X25300Y-19600
X25300Y-20200
X26250Y-10300
X26250Y-16300
X27250Y-10300
X27250Y-11900
X27250Y-16300
X27550Y-18800
X28250Y-10300
X28250Y-11500
X28250Y-16300
X29050Y-21550
X29250Y-10300
X29250Y-16300
X30250Y-10300
X30250Y-16300
X32850Y-18700
X34550Y-19900
X38940Y-16830
T3
X23250Y-7250
X23250Y-8250
X24250Y-7250
X24250Y-8250
X25250Y-7250
X25250Y-8250
X26250Y-7250
X26250Y-8250
X27250Y-7250
X27250Y-8250
T4
X27000Y-26000
X28000Y-26000
X29000Y-26000
X36000Y-18500
X37000Y-18500
X38000Y-18500
T5
X7950Y-17600
X7950Y-26600
X8950Y-17600
X8950Y-26600
X9950Y-17600
X9950Y-26600
X10950Y-26600
X11950Y-26600
X32350Y-11700
X32450Y-15500
X33350Y-11700
X33450Y-15500
X34350Y-11700
T6
X8500Y-8000
T7
X34100Y-7600
X36100Y-7600
X38100Y-7600
T8
X7500Y-7000
X7500Y-9000
X9500Y-7000
X9500Y-9000
T9
X19750Y-7750
X30750Y-7750
T0
M30
