M48
;DRILL file {KiCad 4.0.1-stable} date 2/17/2016 12:01:56 PM
;FORMAT={-:-/ absolute / inch / decimal}
FMAT,2
INCH,TZ
T1C0.031
T2C0.032
T3C0.036
T4C0.039
T5C0.039
T6C0.040
T7C0.047
T8C0.059
T9C0.060
T10C0.063
T11C0.106
T12C0.120
%
G90
G05
M72
T1
X1.01Y-2.1
X1.055Y-1.825
X1.103Y-1.774
X1.188Y-1.5
X1.2Y-2.05
X1.205Y-1.83
X1.305Y-1.163
X1.323Y-1.025
X1.37Y-0.905
X1.454Y-1.835
X1.585Y-1.925
X1.62Y-1.395
X1.64Y-1.47
X1.69Y-2.5
X1.725Y-1.15
X1.725Y-1.45
X1.825Y-1.15
X1.825Y-1.45
X1.86Y-2.61
X1.925Y-1.15
X1.925Y-1.45
X1.94Y-2.5
X1.975Y-1.516
X1.985Y-1.265
X1.99Y-2.4
X1.99Y-2.59
X2.025Y-1.15
X2.025Y-1.45
X2.03Y-2.23
X2.03Y-2.4
X2.03Y-2.59
X2.05Y-1.68
X2.07Y-2.4
X2.07Y-2.59
X2.08Y-0.885
X2.125Y-1.15
X2.125Y-1.265
X2.125Y-1.45
X2.22Y-1.27
X2.225Y-1.15
X2.225Y-1.45
X2.275Y-1.225
X2.3Y-1.8
X2.325Y-1.15
X2.325Y-1.45
X2.375Y-0.925
X2.41Y-1.96
X2.41Y-2.02
X2.425Y-1.15
X2.425Y-1.45
X2.47Y-1.96
X2.47Y-2.02
X2.525Y-1.15
X2.525Y-1.45
X2.53Y-1.96
X2.53Y-2.02
X2.575Y-1.265
X2.625Y-1.15
X2.625Y-1.45
X2.7Y-1.93
X2.725Y-1.15
X2.725Y-1.45
X2.73Y-1.86
X2.745Y-1.595
X2.745Y-1.685
X2.825Y-1.15
X2.825Y-1.335
X2.825Y-1.45
X2.87Y-2.03
X2.905Y-2.155
X2.925Y-1.15
X2.925Y-1.33
X2.925Y-1.45
X2.973Y-1.568
X3.01Y-1.75
X3.025Y-1.15
X3.025Y-1.45
X3.13Y-1.78
X3.324Y-0.9918
X3.57Y-1.96
X3.65Y-1.34
X3.894Y-1.683
T2
X2.461Y-1.678
X2.651Y-1.678
T3
X2.325Y-0.725
X2.325Y-0.825
X2.425Y-0.725
X2.425Y-0.825
X2.525Y-0.725
X2.525Y-0.825
X2.625Y-0.725
X2.625Y-0.825
X2.725Y-0.725
X2.725Y-0.825
T4
X1.3914Y-1.0419
X1.3914Y-1.2781
X1.5686Y-1.0419
X1.5686Y-1.2781
T5
X0.805Y-2.465
X2.7Y-2.6
X2.8Y-2.6
X2.9Y-2.6
X3.6Y-1.85
X3.7Y-1.85
X3.8Y-1.85
T6
X1.23Y-0.765
X1.33Y-0.765
X1.43Y-0.765
X1.53Y-0.765
X1.63Y-0.765
X1.635Y-0.905
X1.73Y-0.765
X1.735Y-0.905
X3.307Y-1.389
X3.322Y-1.092
X3.322Y-1.192
X3.407Y-1.389
X3.422Y-1.092
X3.422Y-1.192
X3.422Y-1.595
X3.507Y-1.389
X3.522Y-1.092
X3.522Y-1.192
X3.522Y-1.595
T7
X0.805Y-1.4808
T8
X0.85Y-0.8
T9
X3.41Y-0.76
X3.61Y-0.76
X3.81Y-0.76
T10
X0.75Y-0.7
X0.75Y-0.9
X0.95Y-0.7
X0.95Y-0.9
T11
X1.975Y-0.775
X3.075Y-0.775
T12
X0.8Y-1.2
X3.8Y-1.2
T0
M30
