G04 #@! TF.FileFunction,Soldermask,Bot*
%FSLAX46Y46*%
G04 Gerber Fmt 4.6, Leading zero omitted, Abs format (unit mm)*
G04 Created by KiCad (PCBNEW 4.0.1-stable) date 2/17/2016 11:05:34 AM*
%MOMM*%
G01*
G04 APERTURE LIST*
%ADD10C,0.150000*%
%ADD11C,4.572000*%
%ADD12C,5.969000*%
%ADD13R,1.908000X1.908000*%
%ADD14C,2.032000*%
%ADD15C,1.958000*%
%ADD16R,2.540000X2.540000*%
%ADD17O,2.540000X2.540000*%
%ADD18R,2.235200X2.540000*%
%ADD19O,2.235200X2.540000*%
%ADD20R,2.235200X2.235200*%
%ADD21O,2.235200X2.235200*%
%ADD22C,2.908000*%
%ADD23C,3.008000*%
%ADD24C,1.905000*%
%ADD25R,3.048000X3.048000*%
%ADD26C,3.048000*%
%ADD27O,2.108000X2.808000*%
%ADD28O,1.808000X2.808000*%
%ADD29C,2.809240*%
%ADD30O,2.207260X4.008120*%
G04 APERTURE END LIST*
D10*
D11*
X20320000Y-30480000D03*
X96520000Y-30480000D03*
D12*
X50165000Y-19685000D03*
X78105000Y-19685000D03*
D13*
X59055000Y-20955000D03*
D14*
X59055000Y-18415000D03*
D15*
X61595000Y-20955000D03*
X61595000Y-18415000D03*
X64135000Y-20955000D03*
X64135000Y-18415000D03*
D14*
X66675000Y-20955000D03*
X66675000Y-18415000D03*
D15*
X69215000Y-20955000D03*
X69215000Y-18415000D03*
D16*
X44069000Y-22987000D03*
D17*
X41529000Y-22987000D03*
D18*
X31242000Y-19431000D03*
D19*
X33782000Y-19431000D03*
X36322000Y-19431000D03*
X38862000Y-19431000D03*
X41402000Y-19431000D03*
X43942000Y-19431000D03*
D20*
X84378800Y-30276800D03*
D21*
X84378800Y-27736800D03*
X86918800Y-30276800D03*
X86918800Y-27736800D03*
X89458800Y-30276800D03*
X89458800Y-27736800D03*
D22*
X21590000Y-20320000D03*
D23*
X19050000Y-17780000D03*
X24130000Y-17780000D03*
X24130000Y-22860000D03*
X19050000Y-22860000D03*
D24*
X39842440Y-32463740D03*
X35341560Y-32463740D03*
X39842440Y-26464260D03*
X35341560Y-26464260D03*
D25*
X96774000Y-19304000D03*
D26*
X91694000Y-19304000D03*
X86614000Y-19304000D03*
D16*
X86918800Y-40513000D03*
D17*
X89458800Y-40513000D03*
D18*
X89077800Y-35280600D03*
D19*
X86537800Y-35280600D03*
X83997800Y-35280600D03*
D27*
X43815000Y-36830000D03*
X46355000Y-36830000D03*
D28*
X48895000Y-36830000D03*
X51435000Y-36830000D03*
X53975000Y-36830000D03*
D27*
X56515000Y-36830000D03*
X59055000Y-36830000D03*
X61595000Y-36830000D03*
D28*
X64135000Y-36830000D03*
X66675000Y-36830000D03*
D27*
X69215000Y-36830000D03*
X71755000Y-36830000D03*
X74295000Y-36830000D03*
X76835000Y-36830000D03*
X76835000Y-29210000D03*
X74295000Y-29210000D03*
X71755000Y-29210000D03*
X69215000Y-29210000D03*
X66675000Y-29210000D03*
X64135000Y-29210000D03*
X61595000Y-29210000D03*
X59055000Y-29210000D03*
X56515000Y-29210000D03*
X53975000Y-29210000D03*
X51435000Y-29210000D03*
X48895000Y-29210000D03*
X46355000Y-29210000D03*
X43815000Y-29210000D03*
D29*
X20320000Y-60960000D03*
X20320000Y-35961320D03*
D30*
X71120000Y-66040000D03*
X73660000Y-66040000D03*
X68580000Y-66040000D03*
X93980000Y-46990000D03*
X91440000Y-46990000D03*
X96520000Y-46990000D03*
M02*
