G04 #@! TF.FileFunction,Copper,L2,Bot,Signal*
%FSLAX46Y46*%
G04 Gerber Fmt 4.6, Leading zero omitted, Abs format (unit mm)*
G04 Created by KiCad (PCBNEW 4.0.1-stable) date 4/16/2016 12:06:08 PM*
%MOMM*%
G01*
G04 APERTURE LIST*
%ADD10C,0.150000*%
%ADD11C,5.461000*%
%ADD12R,1.400000X1.400000*%
%ADD13C,1.524000*%
%ADD14C,1.450000*%
%ADD15C,2.400000*%
%ADD16C,2.500000*%
%ADD17R,2.540000X2.540000*%
%ADD18C,2.540000*%
%ADD19R,2.032000X2.032000*%
%ADD20O,2.032000X2.032000*%
%ADD21R,1.727200X2.032000*%
%ADD22O,1.727200X2.032000*%
%ADD23O,1.699260X3.500120*%
%ADD24O,0.899160X1.501140*%
%ADD25C,1.900000*%
%ADD26C,1.200000*%
%ADD27C,0.254000*%
G04 APERTURE END LIST*
D10*
D11*
X50165000Y-19685000D03*
X78105000Y-19685000D03*
D12*
X59055000Y-20955000D03*
D13*
X59055000Y-18415000D03*
D14*
X61595000Y-20955000D03*
X61595000Y-18415000D03*
X64135000Y-20955000D03*
X64135000Y-18415000D03*
D13*
X66675000Y-20955000D03*
X66675000Y-18415000D03*
D14*
X69215000Y-20955000D03*
X69215000Y-18415000D03*
D15*
X21590000Y-20320000D03*
D16*
X19050000Y-17780000D03*
X24130000Y-17780000D03*
X24130000Y-22860000D03*
X19050000Y-22860000D03*
D17*
X96774000Y-19304000D03*
D18*
X91694000Y-19304000D03*
X86614000Y-19304000D03*
D19*
X82423000Y-39370000D03*
D20*
X84963000Y-39370000D03*
D21*
X87249000Y-29718000D03*
D22*
X84709000Y-29718000D03*
X82169000Y-29718000D03*
D23*
X71120000Y-66040000D03*
X73660000Y-66040000D03*
X68580000Y-66040000D03*
X93980000Y-46990000D03*
X91440000Y-46990000D03*
X96520000Y-46990000D03*
D21*
X20193000Y-67564000D03*
D22*
X22733000Y-67564000D03*
X25273000Y-67564000D03*
X27813000Y-67564000D03*
X30353000Y-67564000D03*
D21*
X20193000Y-44704000D03*
D22*
X22733000Y-44704000D03*
X25273000Y-44704000D03*
D24*
X34036000Y-23622000D03*
X32766000Y-23622000D03*
X35306000Y-23622000D03*
X40132000Y-23622000D03*
X38862000Y-23622000D03*
X41402000Y-23622000D03*
D25*
X46355000Y-41402000D03*
X48895000Y-41402000D03*
X51435000Y-41402000D03*
X53975000Y-41402000D03*
X56515000Y-41402000D03*
X59055000Y-41402000D03*
X61595000Y-41402000D03*
X64135000Y-41402000D03*
X66675000Y-41402000D03*
X69215000Y-41402000D03*
X71755000Y-41402000D03*
X74295000Y-41402000D03*
X76835000Y-41402000D03*
X76835000Y-26162000D03*
X74295000Y-26162000D03*
X71755000Y-26162000D03*
X69215000Y-26162000D03*
X66675000Y-26162000D03*
X64135000Y-26162000D03*
X61595000Y-26162000D03*
X59055000Y-26162000D03*
X56515000Y-26162000D03*
X53975000Y-26162000D03*
X51435000Y-26162000D03*
X48895000Y-26162000D03*
X46355000Y-26162000D03*
X43815000Y-26162000D03*
X43815000Y-41402000D03*
D26*
X50419000Y-54356000D03*
X50419000Y-55626000D03*
X50419000Y-53086000D03*
X87757000Y-50546000D03*
X51181000Y-67818000D03*
X49911000Y-67818000D03*
X52451000Y-67818000D03*
X52451000Y-61976000D03*
X49911000Y-61976000D03*
X73787000Y-54737000D03*
X64262000Y-51308000D03*
X62738000Y-51308000D03*
X64262000Y-49784000D03*
X61214000Y-51308000D03*
X61214000Y-49784000D03*
X62738000Y-49784000D03*
X47244000Y-66294000D03*
X31623000Y-18288000D03*
X98907600Y-42748200D03*
X57785000Y-48006000D03*
X69977000Y-47752000D03*
X51435000Y-37846000D03*
X83439000Y-47498000D03*
X31369000Y-28448000D03*
X71755000Y-29210000D03*
X42037000Y-29464000D03*
X41783000Y-52324000D03*
X30607000Y-41910000D03*
X61595000Y-39116000D03*
X31369000Y-43180000D03*
X38735000Y-21717000D03*
X35433000Y-40894000D03*
X24257000Y-40640000D03*
X69215000Y-30226000D03*
X40767000Y-30480000D03*
D27*
X61595000Y-20955000D02*
X61595000Y-20904200D01*
X24130000Y-22860000D02*
X24866600Y-22860000D01*
X91694000Y-19304000D02*
X91186000Y-19304000D01*
X91186000Y-19304000D02*
X88519000Y-16637000D01*
X33274000Y-16637000D02*
X31623000Y-18288000D01*
X88519000Y-16637000D02*
X33274000Y-16637000D01*
X84963000Y-39370000D02*
X84963000Y-39878000D01*
X84963000Y-39878000D02*
X87833200Y-42748200D01*
X87833200Y-42748200D02*
X98907600Y-42748200D01*
X69723000Y-48006000D02*
X57785000Y-48006000D01*
X69977000Y-47752000D02*
X69723000Y-48006000D01*
X82169000Y-29718000D02*
X82169000Y-29718000D01*
X51689000Y-38100000D02*
X73787000Y-38100000D01*
X51435000Y-37846000D02*
X51689000Y-38100000D01*
X82169000Y-29718000D02*
X73787000Y-38100000D01*
X59055000Y-41402000D02*
X59309000Y-41402000D01*
X59309000Y-41402000D02*
X60833000Y-42926000D01*
X60833000Y-42926000D02*
X78867000Y-42926000D01*
X78867000Y-42926000D02*
X83439000Y-47498000D01*
X72136000Y-28321000D02*
X74295000Y-26162000D01*
X31496000Y-28321000D02*
X72136000Y-28321000D01*
X31369000Y-28448000D02*
X31496000Y-28321000D01*
X42291000Y-29210000D02*
X71755000Y-29210000D01*
X42037000Y-29464000D02*
X42291000Y-29210000D01*
X25273000Y-44704000D02*
X34163000Y-44704000D01*
X34163000Y-44704000D02*
X41783000Y-52324000D01*
X82423000Y-39370000D02*
X82423000Y-40132000D01*
X82423000Y-40132000D02*
X86487000Y-44196000D01*
X86487000Y-44196000D02*
X92329000Y-44196000D01*
X92329000Y-44196000D02*
X93980000Y-45847000D01*
X93980000Y-45847000D02*
X93980000Y-46990000D01*
X93980000Y-46990000D02*
X93980000Y-46456600D01*
X93980000Y-46075600D02*
X93980000Y-46990000D01*
X59055000Y-20955000D02*
X57785000Y-20955000D01*
X32766000Y-22733000D02*
X32766000Y-23622000D01*
X35179000Y-20320000D02*
X32766000Y-22733000D01*
X45212000Y-20320000D02*
X35179000Y-20320000D01*
X47752000Y-22860000D02*
X45212000Y-20320000D01*
X55880000Y-22860000D02*
X47752000Y-22860000D01*
X57785000Y-20955000D02*
X55880000Y-22860000D01*
X59055000Y-18415000D02*
X59283600Y-18415000D01*
X38862000Y-23622000D02*
X38862000Y-23241000D01*
X38862000Y-23241000D02*
X39624000Y-22479000D01*
X60452000Y-19558000D02*
X61595000Y-18415000D01*
X60452000Y-21971000D02*
X60452000Y-19558000D01*
X59055000Y-23368000D02*
X60452000Y-21971000D01*
X47371000Y-23368000D02*
X59055000Y-23368000D01*
X46482000Y-22479000D02*
X47371000Y-23368000D01*
X39624000Y-22479000D02*
X46482000Y-22479000D01*
X61595000Y-39116000D02*
X61595000Y-39116000D01*
X39751000Y-39116000D02*
X61595000Y-39116000D01*
X36957000Y-41910000D02*
X39751000Y-39116000D01*
X30607000Y-41910000D02*
X36957000Y-41910000D01*
X62865000Y-40132000D02*
X64135000Y-41402000D01*
X39497000Y-40132000D02*
X62865000Y-40132000D01*
X36703000Y-42926000D02*
X39497000Y-40132000D01*
X31623000Y-42926000D02*
X36703000Y-42926000D01*
X31369000Y-43180000D02*
X31623000Y-42926000D01*
X64135000Y-26162000D02*
X63881000Y-26162000D01*
X63881000Y-26162000D02*
X62484000Y-27559000D01*
X62484000Y-27559000D02*
X36576000Y-27559000D01*
X36576000Y-27559000D02*
X34036000Y-25019000D01*
X34036000Y-25019000D02*
X34036000Y-23622000D01*
X34036000Y-23622000D02*
X34036000Y-22987000D01*
X34036000Y-22987000D02*
X35306000Y-21717000D01*
X35306000Y-21717000D02*
X38735000Y-21717000D01*
X24511000Y-40894000D02*
X35433000Y-40894000D01*
X24257000Y-40640000D02*
X24511000Y-40894000D01*
X41402000Y-23622000D02*
X41402000Y-24511000D01*
X41402000Y-24511000D02*
X41148000Y-24765000D01*
X41148000Y-24765000D02*
X36449000Y-24765000D01*
X36449000Y-24765000D02*
X35306000Y-23622000D01*
X68707000Y-29718000D02*
X69215000Y-30226000D01*
X43307000Y-29718000D02*
X68707000Y-29718000D01*
X42545000Y-30480000D02*
X43307000Y-29718000D01*
X40767000Y-30480000D02*
X42545000Y-30480000D01*
G36*
X18025533Y-16153877D02*
X17896285Y-16446680D01*
X19050000Y-17600395D01*
X20203715Y-16446680D01*
X20074467Y-16153877D01*
X19843770Y-16065500D01*
X23318894Y-16065500D01*
X23105533Y-16153877D01*
X22976285Y-16446680D01*
X24130000Y-17600395D01*
X25283715Y-16446680D01*
X25154467Y-16153877D01*
X24923770Y-16065500D01*
X32784100Y-16065500D01*
X32735185Y-16098184D01*
X31780233Y-17053137D01*
X31378421Y-17052786D01*
X30924343Y-17240408D01*
X30576629Y-17587515D01*
X30388215Y-18041266D01*
X30387786Y-18532579D01*
X30575408Y-18986657D01*
X30922515Y-19334371D01*
X31376266Y-19522785D01*
X31867579Y-19523214D01*
X32321657Y-19335592D01*
X32669371Y-18988485D01*
X32857785Y-18534734D01*
X32858138Y-18130492D01*
X33589631Y-17399000D01*
X47691299Y-17399000D01*
X47313532Y-17776108D01*
X46800086Y-19012624D01*
X46798917Y-20351502D01*
X47135341Y-21165710D01*
X45750815Y-19781185D01*
X45736127Y-19771371D01*
X45503605Y-19616004D01*
X45212000Y-19558000D01*
X35179000Y-19558000D01*
X34887395Y-19616004D01*
X34640184Y-19781185D01*
X32227185Y-22194185D01*
X32062004Y-22441395D01*
X32052021Y-22491581D01*
X31999086Y-22526951D01*
X31763979Y-22878814D01*
X31681420Y-23293865D01*
X31681420Y-23950135D01*
X31763979Y-24365186D01*
X31999086Y-24717049D01*
X32350949Y-24952156D01*
X32766000Y-25034715D01*
X33181051Y-24952156D01*
X33274000Y-24890050D01*
X33274000Y-25019000D01*
X33332004Y-25310605D01*
X33391736Y-25400000D01*
X33497185Y-25557815D01*
X35498369Y-27559000D01*
X32226581Y-27559000D01*
X32069485Y-27401629D01*
X31615734Y-27213215D01*
X31124421Y-27212786D01*
X30670343Y-27400408D01*
X30322629Y-27747515D01*
X30134215Y-28201266D01*
X30133786Y-28692579D01*
X30321408Y-29146657D01*
X30668515Y-29494371D01*
X31122266Y-29682785D01*
X31613579Y-29683214D01*
X32067657Y-29495592D01*
X32415371Y-29148485D01*
X32442563Y-29083000D01*
X40857967Y-29083000D01*
X40802215Y-29217266D01*
X40802191Y-29245030D01*
X40522421Y-29244786D01*
X40068343Y-29432408D01*
X39720629Y-29779515D01*
X39532215Y-30233266D01*
X39531786Y-30724579D01*
X39719408Y-31178657D01*
X40066515Y-31526371D01*
X40520266Y-31714785D01*
X41011579Y-31715214D01*
X41465657Y-31527592D01*
X41751748Y-31242000D01*
X42545000Y-31242000D01*
X42836605Y-31183996D01*
X43083815Y-31018815D01*
X43622631Y-30480000D01*
X67983679Y-30480000D01*
X68167408Y-30924657D01*
X68514515Y-31272371D01*
X68968266Y-31460785D01*
X69459579Y-31461214D01*
X69913657Y-31273592D01*
X70261371Y-30926485D01*
X70449785Y-30472734D01*
X70450214Y-29981421D01*
X70446321Y-29972000D01*
X70770640Y-29972000D01*
X71054515Y-30256371D01*
X71508266Y-30444785D01*
X71999579Y-30445214D01*
X72453657Y-30257592D01*
X72801371Y-29910485D01*
X72989785Y-29456734D01*
X72990214Y-28965421D01*
X72867119Y-28667511D01*
X73843780Y-27690850D01*
X73978341Y-27746724D01*
X74608893Y-27747275D01*
X75191657Y-27506481D01*
X75565261Y-27133529D01*
X75935997Y-27504914D01*
X76518341Y-27746724D01*
X77148893Y-27747275D01*
X77731657Y-27506481D01*
X78177914Y-27061003D01*
X78419724Y-26478659D01*
X78420275Y-25848107D01*
X78179481Y-25265343D01*
X77734003Y-24819086D01*
X77151659Y-24577276D01*
X76521107Y-24576725D01*
X75938343Y-24817519D01*
X75564739Y-25190471D01*
X75194003Y-24819086D01*
X74611659Y-24577276D01*
X73981107Y-24576725D01*
X73398343Y-24817519D01*
X73024739Y-25190471D01*
X72654003Y-24819086D01*
X72071659Y-24577276D01*
X71441107Y-24576725D01*
X70858343Y-24817519D01*
X70484739Y-25190471D01*
X70114003Y-24819086D01*
X69531659Y-24577276D01*
X68901107Y-24576725D01*
X68318343Y-24817519D01*
X67944739Y-25190471D01*
X67574003Y-24819086D01*
X66991659Y-24577276D01*
X66361107Y-24576725D01*
X65778343Y-24817519D01*
X65404739Y-25190471D01*
X65034003Y-24819086D01*
X64451659Y-24577276D01*
X63821107Y-24576725D01*
X63238343Y-24817519D01*
X62864739Y-25190471D01*
X62494003Y-24819086D01*
X61911659Y-24577276D01*
X61281107Y-24576725D01*
X60698343Y-24817519D01*
X60324739Y-25190471D01*
X59954003Y-24819086D01*
X59371659Y-24577276D01*
X58741107Y-24576725D01*
X58158343Y-24817519D01*
X57784739Y-25190471D01*
X57414003Y-24819086D01*
X56831659Y-24577276D01*
X56201107Y-24576725D01*
X55618343Y-24817519D01*
X55244739Y-25190471D01*
X54874003Y-24819086D01*
X54291659Y-24577276D01*
X53661107Y-24576725D01*
X53078343Y-24817519D01*
X52704739Y-25190471D01*
X52334003Y-24819086D01*
X51751659Y-24577276D01*
X51121107Y-24576725D01*
X50538343Y-24817519D01*
X50164739Y-25190471D01*
X49794003Y-24819086D01*
X49211659Y-24577276D01*
X48581107Y-24576725D01*
X47998343Y-24817519D01*
X47624739Y-25190471D01*
X47254003Y-24819086D01*
X46671659Y-24577276D01*
X46041107Y-24576725D01*
X45458343Y-24817519D01*
X45084739Y-25190471D01*
X44714003Y-24819086D01*
X44131659Y-24577276D01*
X43501107Y-24576725D01*
X42918343Y-24817519D01*
X42472086Y-25262997D01*
X42230276Y-25845341D01*
X42229725Y-26475893D01*
X42362404Y-26797000D01*
X36891631Y-26797000D01*
X35085481Y-24990851D01*
X35306000Y-25034715D01*
X35585491Y-24979121D01*
X35910185Y-25303815D01*
X36157395Y-25468996D01*
X36449000Y-25527000D01*
X41148000Y-25527000D01*
X41439605Y-25468996D01*
X41686815Y-25303815D01*
X41940815Y-25049816D01*
X42105996Y-24802605D01*
X42115587Y-24754388D01*
X42115979Y-24752419D01*
X42168914Y-24717049D01*
X42404021Y-24365186D01*
X42486580Y-23950135D01*
X42486580Y-23293865D01*
X42476064Y-23241000D01*
X46166370Y-23241000D01*
X46832185Y-23906815D01*
X47079395Y-24071996D01*
X47371000Y-24130000D01*
X59055000Y-24130000D01*
X59346605Y-24071996D01*
X59593815Y-23906815D01*
X60990815Y-22509816D01*
X61155996Y-22262605D01*
X61159770Y-22243630D01*
X61396146Y-22327312D01*
X61936444Y-22298949D01*
X62303878Y-22146753D01*
X62368793Y-21908398D01*
X61595000Y-21134605D01*
X61580858Y-21148748D01*
X61401253Y-20969143D01*
X61415395Y-20955000D01*
X61401253Y-20940858D01*
X61580858Y-20761253D01*
X61595000Y-20775395D01*
X62368793Y-20001602D01*
X62303878Y-19763247D01*
X62082783Y-19684975D01*
X62364372Y-19568624D01*
X62747280Y-19186384D01*
X62865033Y-18902802D01*
X62981376Y-19184372D01*
X63363616Y-19567280D01*
X63647198Y-19685033D01*
X63365628Y-19801376D01*
X62982720Y-20183616D01*
X62871654Y-20451092D01*
X62786753Y-20246122D01*
X62548398Y-20181207D01*
X61774605Y-20955000D01*
X62548398Y-21728793D01*
X62786753Y-21663878D01*
X62865025Y-21442783D01*
X62981376Y-21724372D01*
X63363616Y-22107280D01*
X63863292Y-22314763D01*
X64404334Y-22315236D01*
X64904372Y-22108624D01*
X65287280Y-21726384D01*
X65384967Y-21491127D01*
X65489990Y-21745303D01*
X65882630Y-22138629D01*
X66395900Y-22351757D01*
X66951661Y-22352242D01*
X67465303Y-22140010D01*
X67858629Y-21747370D01*
X67965016Y-21491162D01*
X68061376Y-21724372D01*
X68443616Y-22107280D01*
X68943292Y-22314763D01*
X69484334Y-22315236D01*
X69984372Y-22108624D01*
X70367280Y-21726384D01*
X70574763Y-21226708D01*
X70575236Y-20685666D01*
X70368624Y-20185628D01*
X69986384Y-19802720D01*
X69702802Y-19684967D01*
X69984372Y-19568624D01*
X70367280Y-19186384D01*
X70574763Y-18686708D01*
X70575236Y-18145666D01*
X70368624Y-17645628D01*
X70122426Y-17399000D01*
X75631299Y-17399000D01*
X75253532Y-17776108D01*
X74740086Y-19012624D01*
X74738917Y-20351502D01*
X75250204Y-21588912D01*
X76196108Y-22536468D01*
X77432624Y-23049914D01*
X78771502Y-23051083D01*
X80008912Y-22539796D01*
X80956468Y-21593892D01*
X81347668Y-20651777D01*
X85445828Y-20651777D01*
X85577520Y-20946657D01*
X86285036Y-21218261D01*
X87042632Y-21198436D01*
X87650480Y-20946657D01*
X87782172Y-20651777D01*
X86614000Y-19483605D01*
X85445828Y-20651777D01*
X81347668Y-20651777D01*
X81469914Y-20357376D01*
X81471083Y-19018498D01*
X81453125Y-18975036D01*
X84699739Y-18975036D01*
X84719564Y-19732632D01*
X84971343Y-20340480D01*
X85266223Y-20472172D01*
X86434395Y-19304000D01*
X86793605Y-19304000D01*
X87961777Y-20472172D01*
X88256657Y-20340480D01*
X88528261Y-19632964D01*
X88508436Y-18875368D01*
X88256657Y-18267520D01*
X87961777Y-18135828D01*
X86793605Y-19304000D01*
X86434395Y-19304000D01*
X85266223Y-18135828D01*
X84971343Y-18267520D01*
X84699739Y-18975036D01*
X81453125Y-18975036D01*
X80959796Y-17781088D01*
X80578374Y-17399000D01*
X86589063Y-17399000D01*
X86185368Y-17409564D01*
X85577520Y-17661343D01*
X85445828Y-17956223D01*
X86614000Y-19124395D01*
X87782172Y-17956223D01*
X87650480Y-17661343D01*
X86967088Y-17399000D01*
X88203370Y-17399000D01*
X89789278Y-18984909D01*
X89788670Y-19681265D01*
X90078078Y-20381686D01*
X90613495Y-20918039D01*
X91313410Y-21208668D01*
X92071265Y-21209330D01*
X92771686Y-20919922D01*
X93308039Y-20384505D01*
X93598668Y-19684590D01*
X93599330Y-18926735D01*
X93309922Y-18226314D01*
X93117944Y-18034000D01*
X94856560Y-18034000D01*
X94856560Y-20574000D01*
X94900838Y-20809317D01*
X95039910Y-21025441D01*
X95252110Y-21170431D01*
X95504000Y-21221440D01*
X98044000Y-21221440D01*
X98279317Y-21177162D01*
X98495441Y-21038090D01*
X98640431Y-20825890D01*
X98691440Y-20574000D01*
X98691440Y-18034000D01*
X98647162Y-17798683D01*
X98508090Y-17582559D01*
X98295890Y-17437569D01*
X98044000Y-17386560D01*
X95504000Y-17386560D01*
X95268683Y-17430838D01*
X95052559Y-17569910D01*
X94907569Y-17782110D01*
X94856560Y-18034000D01*
X93117944Y-18034000D01*
X92774505Y-17689961D01*
X92074590Y-17399332D01*
X91316735Y-17398670D01*
X90638529Y-17678899D01*
X89057814Y-16098184D01*
X89008899Y-16065500D01*
X99250500Y-16065500D01*
X99250500Y-41553347D01*
X99154334Y-41513415D01*
X98663021Y-41512986D01*
X98208943Y-41700608D01*
X97922852Y-41986200D01*
X88148831Y-41986200D01*
X86371551Y-40208920D01*
X86488325Y-40034155D01*
X86614000Y-39402345D01*
X86614000Y-39337655D01*
X86488325Y-38705845D01*
X86130433Y-38170222D01*
X85594810Y-37812330D01*
X84963000Y-37686655D01*
X84331190Y-37812330D01*
X83991208Y-38039499D01*
X83903090Y-37902559D01*
X83690890Y-37757569D01*
X83439000Y-37706560D01*
X81407000Y-37706560D01*
X81171683Y-37750838D01*
X80955559Y-37889910D01*
X80810569Y-38102110D01*
X80759560Y-38354000D01*
X80759560Y-40386000D01*
X80803838Y-40621317D01*
X80942910Y-40837441D01*
X81155110Y-40982431D01*
X81407000Y-41033440D01*
X82246810Y-41033440D01*
X85948185Y-44734815D01*
X86195395Y-44899996D01*
X86487000Y-44958000D01*
X90442667Y-44958000D01*
X90390208Y-44993052D01*
X90068381Y-45474701D01*
X89955370Y-46042844D01*
X89955370Y-47937156D01*
X90068381Y-48505299D01*
X90390208Y-48986948D01*
X90871857Y-49308775D01*
X91440000Y-49421786D01*
X92008143Y-49308775D01*
X92489792Y-48986948D01*
X92710000Y-48657383D01*
X92930208Y-48986948D01*
X93411857Y-49308775D01*
X93980000Y-49421786D01*
X94548143Y-49308775D01*
X95029792Y-48986948D01*
X95255516Y-48649127D01*
X95560011Y-49030024D01*
X96069190Y-49310649D01*
X96163168Y-49331540D01*
X96393000Y-49210214D01*
X96393000Y-47117000D01*
X96647000Y-47117000D01*
X96647000Y-49210214D01*
X96876832Y-49331540D01*
X96970810Y-49310649D01*
X97479989Y-49030024D01*
X97843018Y-48575906D01*
X98004630Y-48017430D01*
X98004630Y-47117000D01*
X96647000Y-47117000D01*
X96393000Y-47117000D01*
X96373000Y-47117000D01*
X96373000Y-46863000D01*
X96393000Y-46863000D01*
X96393000Y-44769786D01*
X96647000Y-44769786D01*
X96647000Y-46863000D01*
X98004630Y-46863000D01*
X98004630Y-45962570D01*
X97843018Y-45404094D01*
X97479989Y-44949976D01*
X96970810Y-44669351D01*
X96876832Y-44648460D01*
X96647000Y-44769786D01*
X96393000Y-44769786D01*
X96163168Y-44648460D01*
X96069190Y-44669351D01*
X95560011Y-44949976D01*
X95255516Y-45330873D01*
X95029792Y-44993052D01*
X94548143Y-44671225D01*
X93980000Y-44558214D01*
X93803878Y-44593247D01*
X92867815Y-43657185D01*
X92827124Y-43629996D01*
X92647837Y-43510200D01*
X97923240Y-43510200D01*
X98207115Y-43794571D01*
X98660866Y-43982985D01*
X99152179Y-43983414D01*
X99250500Y-43942788D01*
X99250500Y-70548500D01*
X95504000Y-70548500D01*
X95504000Y-57404000D01*
X95493994Y-57354590D01*
X95465553Y-57312965D01*
X95423159Y-57285685D01*
X95377000Y-57277000D01*
X77343000Y-57277000D01*
X77293590Y-57287006D01*
X77251965Y-57315447D01*
X77224685Y-57357841D01*
X77216000Y-57404000D01*
X77216000Y-70548500D01*
X17081500Y-70548500D01*
X17081500Y-66548000D01*
X18681960Y-66548000D01*
X18681960Y-68580000D01*
X18726238Y-68815317D01*
X18865310Y-69031441D01*
X19077510Y-69176431D01*
X19329400Y-69227440D01*
X21056600Y-69227440D01*
X21291917Y-69183162D01*
X21508041Y-69044090D01*
X21653031Y-68831890D01*
X21672232Y-68737073D01*
X21830964Y-68914732D01*
X22358209Y-69168709D01*
X22373974Y-69171358D01*
X22606000Y-69050217D01*
X22606000Y-67691000D01*
X22586000Y-67691000D01*
X22586000Y-67437000D01*
X22606000Y-67437000D01*
X22606000Y-66077783D01*
X22860000Y-66077783D01*
X22860000Y-67437000D01*
X22880000Y-67437000D01*
X22880000Y-67691000D01*
X22860000Y-67691000D01*
X22860000Y-69050217D01*
X23092026Y-69171358D01*
X23107791Y-69168709D01*
X23635036Y-68914732D01*
X24006539Y-68498931D01*
X24213330Y-68808415D01*
X24699511Y-69133271D01*
X25273000Y-69247345D01*
X25846489Y-69133271D01*
X26332670Y-68808415D01*
X26543000Y-68493634D01*
X26753330Y-68808415D01*
X27239511Y-69133271D01*
X27813000Y-69247345D01*
X28386489Y-69133271D01*
X28872670Y-68808415D01*
X29083000Y-68493634D01*
X29293330Y-68808415D01*
X29779511Y-69133271D01*
X30353000Y-69247345D01*
X30926489Y-69133271D01*
X31412670Y-68808415D01*
X31737526Y-68322234D01*
X31851600Y-67748745D01*
X31851600Y-67379255D01*
X31737526Y-66805766D01*
X31412670Y-66319585D01*
X30926489Y-65994729D01*
X30353000Y-65880655D01*
X29779511Y-65994729D01*
X29293330Y-66319585D01*
X29083000Y-66634366D01*
X28872670Y-66319585D01*
X28386489Y-65994729D01*
X27813000Y-65880655D01*
X27239511Y-65994729D01*
X26753330Y-66319585D01*
X26543000Y-66634366D01*
X26332670Y-66319585D01*
X25846489Y-65994729D01*
X25273000Y-65880655D01*
X24699511Y-65994729D01*
X24213330Y-66319585D01*
X24006539Y-66629069D01*
X23635036Y-66213268D01*
X23107791Y-65959291D01*
X23092026Y-65956642D01*
X22860000Y-66077783D01*
X22606000Y-66077783D01*
X22373974Y-65956642D01*
X22358209Y-65959291D01*
X21830964Y-66213268D01*
X21674093Y-66388845D01*
X21659762Y-66312683D01*
X21520690Y-66096559D01*
X21308490Y-65951569D01*
X21056600Y-65900560D01*
X19329400Y-65900560D01*
X19094083Y-65944838D01*
X18877959Y-66083910D01*
X18732969Y-66296110D01*
X18681960Y-66548000D01*
X17081500Y-66548000D01*
X17081500Y-65092844D01*
X67095370Y-65092844D01*
X67095370Y-66987156D01*
X67208381Y-67555299D01*
X67530208Y-68036948D01*
X68011857Y-68358775D01*
X68580000Y-68471786D01*
X69148143Y-68358775D01*
X69629792Y-68036948D01*
X69850000Y-67707383D01*
X70070208Y-68036948D01*
X70551857Y-68358775D01*
X71120000Y-68471786D01*
X71688143Y-68358775D01*
X72169792Y-68036948D01*
X72390000Y-67707383D01*
X72610208Y-68036948D01*
X73091857Y-68358775D01*
X73660000Y-68471786D01*
X74228143Y-68358775D01*
X74709792Y-68036948D01*
X75031619Y-67555299D01*
X75144630Y-66987156D01*
X75144630Y-65092844D01*
X75031619Y-64524701D01*
X74709792Y-64043052D01*
X74228143Y-63721225D01*
X73660000Y-63608214D01*
X73091857Y-63721225D01*
X72610208Y-64043052D01*
X72390000Y-64372617D01*
X72169792Y-64043052D01*
X71688143Y-63721225D01*
X71120000Y-63608214D01*
X70551857Y-63721225D01*
X70070208Y-64043052D01*
X69850000Y-64372617D01*
X69629792Y-64043052D01*
X69148143Y-63721225D01*
X68580000Y-63608214D01*
X68011857Y-63721225D01*
X67530208Y-64043052D01*
X67208381Y-64524701D01*
X67095370Y-65092844D01*
X17081500Y-65092844D01*
X17081500Y-44989750D01*
X18694400Y-44989750D01*
X18694400Y-45846309D01*
X18791073Y-46079698D01*
X18969701Y-46258327D01*
X19203090Y-46355000D01*
X19907250Y-46355000D01*
X20066000Y-46196250D01*
X20066000Y-44831000D01*
X18853150Y-44831000D01*
X18694400Y-44989750D01*
X17081500Y-44989750D01*
X17081500Y-43561691D01*
X18694400Y-43561691D01*
X18694400Y-44418250D01*
X18853150Y-44577000D01*
X20066000Y-44577000D01*
X20066000Y-43211750D01*
X20320000Y-43211750D01*
X20320000Y-44577000D01*
X20340000Y-44577000D01*
X20340000Y-44831000D01*
X20320000Y-44831000D01*
X20320000Y-46196250D01*
X20478750Y-46355000D01*
X21182910Y-46355000D01*
X21416299Y-46258327D01*
X21594927Y-46079698D01*
X21658500Y-45926220D01*
X21673330Y-45948415D01*
X22159511Y-46273271D01*
X22733000Y-46387345D01*
X23306489Y-46273271D01*
X23792670Y-45948415D01*
X24003000Y-45633634D01*
X24213330Y-45948415D01*
X24699511Y-46273271D01*
X25273000Y-46387345D01*
X25846489Y-46273271D01*
X26332670Y-45948415D01*
X26655010Y-45466000D01*
X33847370Y-45466000D01*
X40548137Y-52166768D01*
X40547786Y-52568579D01*
X40735408Y-53022657D01*
X41082515Y-53370371D01*
X41536266Y-53558785D01*
X42027579Y-53559214D01*
X42481657Y-53371592D01*
X42829371Y-53024485D01*
X43017785Y-52570734D01*
X43018214Y-52079421D01*
X42830592Y-51625343D01*
X42483485Y-51277629D01*
X42029734Y-51089215D01*
X41625493Y-51088862D01*
X38787210Y-48250579D01*
X56549786Y-48250579D01*
X56737408Y-48704657D01*
X57084515Y-49052371D01*
X57538266Y-49240785D01*
X58029579Y-49241214D01*
X58483657Y-49053592D01*
X58769748Y-48768000D01*
X69246197Y-48768000D01*
X69276515Y-48798371D01*
X69730266Y-48986785D01*
X70221579Y-48987214D01*
X70675657Y-48799592D01*
X71023371Y-48452485D01*
X71211785Y-47998734D01*
X71212214Y-47507421D01*
X71024592Y-47053343D01*
X70677485Y-46705629D01*
X70223734Y-46517215D01*
X69732421Y-46516786D01*
X69278343Y-46704408D01*
X68930629Y-47051515D01*
X68850702Y-47244000D01*
X58769360Y-47244000D01*
X58485485Y-46959629D01*
X58031734Y-46771215D01*
X57540421Y-46770786D01*
X57086343Y-46958408D01*
X56738629Y-47305515D01*
X56550215Y-47759266D01*
X56549786Y-48250579D01*
X38787210Y-48250579D01*
X34701815Y-44165185D01*
X34454605Y-44000004D01*
X34163000Y-43942000D01*
X32353748Y-43942000D01*
X32415371Y-43880485D01*
X32495298Y-43688000D01*
X36703000Y-43688000D01*
X36994605Y-43629996D01*
X37241815Y-43464815D01*
X38188280Y-42518350D01*
X42878255Y-42518350D01*
X42970792Y-42780019D01*
X43562398Y-42998188D01*
X44192461Y-42973352D01*
X44659208Y-42780019D01*
X44751745Y-42518350D01*
X43815000Y-41581605D01*
X42878255Y-42518350D01*
X38188280Y-42518350D01*
X39812631Y-40894000D01*
X42312996Y-40894000D01*
X42218812Y-41149398D01*
X42243648Y-41779461D01*
X42436981Y-42246208D01*
X42698650Y-42338745D01*
X43635395Y-41402000D01*
X43621253Y-41387858D01*
X43800858Y-41208253D01*
X43815000Y-41222395D01*
X43829143Y-41208253D01*
X44008748Y-41387858D01*
X43994605Y-41402000D01*
X44931350Y-42338745D01*
X45019439Y-42307593D01*
X45455997Y-42744914D01*
X46038341Y-42986724D01*
X46668893Y-42987275D01*
X47251657Y-42746481D01*
X47625261Y-42373529D01*
X47995997Y-42744914D01*
X48578341Y-42986724D01*
X49208893Y-42987275D01*
X49791657Y-42746481D01*
X50165261Y-42373529D01*
X50535997Y-42744914D01*
X51118341Y-42986724D01*
X51748893Y-42987275D01*
X52331657Y-42746481D01*
X52705261Y-42373529D01*
X53075997Y-42744914D01*
X53658341Y-42986724D01*
X54288893Y-42987275D01*
X54871657Y-42746481D01*
X55245261Y-42373529D01*
X55615997Y-42744914D01*
X56198341Y-42986724D01*
X56828893Y-42987275D01*
X57411657Y-42746481D01*
X57785261Y-42373529D01*
X58155997Y-42744914D01*
X58738341Y-42986724D01*
X59368893Y-42987275D01*
X59685730Y-42856360D01*
X60294184Y-43464815D01*
X60541395Y-43629996D01*
X60833000Y-43688000D01*
X78551370Y-43688000D01*
X82204137Y-47340768D01*
X82203786Y-47742579D01*
X82391408Y-48196657D01*
X82738515Y-48544371D01*
X83192266Y-48732785D01*
X83683579Y-48733214D01*
X84137657Y-48545592D01*
X84485371Y-48198485D01*
X84673785Y-47744734D01*
X84674214Y-47253421D01*
X84486592Y-46799343D01*
X84139485Y-46451629D01*
X83685734Y-46263215D01*
X83281493Y-46262862D01*
X79405815Y-42387185D01*
X79405814Y-42387184D01*
X79158605Y-42222004D01*
X78867000Y-42164000D01*
X78234803Y-42164000D01*
X78419724Y-41718659D01*
X78420275Y-41088107D01*
X78179481Y-40505343D01*
X77734003Y-40059086D01*
X77151659Y-39817276D01*
X76521107Y-39816725D01*
X75938343Y-40057519D01*
X75564739Y-40430471D01*
X75194003Y-40059086D01*
X74611659Y-39817276D01*
X73981107Y-39816725D01*
X73398343Y-40057519D01*
X73024739Y-40430471D01*
X72654003Y-40059086D01*
X72071659Y-39817276D01*
X71441107Y-39816725D01*
X70858343Y-40057519D01*
X70484739Y-40430471D01*
X70114003Y-40059086D01*
X69531659Y-39817276D01*
X68901107Y-39816725D01*
X68318343Y-40057519D01*
X67944739Y-40430471D01*
X67574003Y-40059086D01*
X66991659Y-39817276D01*
X66361107Y-39816725D01*
X65778343Y-40057519D01*
X65404739Y-40430471D01*
X65034003Y-40059086D01*
X64451659Y-39817276D01*
X63821107Y-39816725D01*
X63684005Y-39873375D01*
X63403815Y-39593185D01*
X63393655Y-39586396D01*
X63156605Y-39428004D01*
X62865000Y-39370000D01*
X62826768Y-39370000D01*
X62829785Y-39362734D01*
X62830214Y-38871421D01*
X62826321Y-38862000D01*
X73787000Y-38862000D01*
X74078605Y-38803996D01*
X74325815Y-38638815D01*
X81663780Y-31300850D01*
X82169000Y-31401345D01*
X82742489Y-31287271D01*
X83228670Y-30962415D01*
X83439000Y-30647634D01*
X83649330Y-30962415D01*
X84135511Y-31287271D01*
X84709000Y-31401345D01*
X85282489Y-31287271D01*
X85768670Y-30962415D01*
X85783500Y-30940220D01*
X85847073Y-31093698D01*
X86025701Y-31272327D01*
X86259090Y-31369000D01*
X86963250Y-31369000D01*
X87122000Y-31210250D01*
X87122000Y-29845000D01*
X87376000Y-29845000D01*
X87376000Y-31210250D01*
X87534750Y-31369000D01*
X88238910Y-31369000D01*
X88472299Y-31272327D01*
X88650927Y-31093698D01*
X88747600Y-30860309D01*
X88747600Y-30003750D01*
X88588850Y-29845000D01*
X87376000Y-29845000D01*
X87122000Y-29845000D01*
X87102000Y-29845000D01*
X87102000Y-29591000D01*
X87122000Y-29591000D01*
X87122000Y-28225750D01*
X87376000Y-28225750D01*
X87376000Y-29591000D01*
X88588850Y-29591000D01*
X88747600Y-29432250D01*
X88747600Y-28575691D01*
X88650927Y-28342302D01*
X88472299Y-28163673D01*
X88238910Y-28067000D01*
X87534750Y-28067000D01*
X87376000Y-28225750D01*
X87122000Y-28225750D01*
X86963250Y-28067000D01*
X86259090Y-28067000D01*
X86025701Y-28163673D01*
X85847073Y-28342302D01*
X85783500Y-28495780D01*
X85768670Y-28473585D01*
X85282489Y-28148729D01*
X84709000Y-28034655D01*
X84135511Y-28148729D01*
X83649330Y-28473585D01*
X83439000Y-28788366D01*
X83228670Y-28473585D01*
X82742489Y-28148729D01*
X82169000Y-28034655D01*
X81595511Y-28148729D01*
X81109330Y-28473585D01*
X80784474Y-28959766D01*
X80670400Y-29533255D01*
X80670400Y-29902745D01*
X80709592Y-30099778D01*
X73471370Y-37338000D01*
X52561370Y-37338000D01*
X52482592Y-37147343D01*
X52135485Y-36799629D01*
X51681734Y-36611215D01*
X51190421Y-36610786D01*
X50736343Y-36798408D01*
X50388629Y-37145515D01*
X50200215Y-37599266D01*
X50199786Y-38090579D01*
X50308630Y-38354000D01*
X39751000Y-38354000D01*
X39459395Y-38412004D01*
X39360377Y-38478166D01*
X39212185Y-38577184D01*
X36667802Y-41121568D01*
X36668214Y-40649421D01*
X36480592Y-40195343D01*
X36133485Y-39847629D01*
X35679734Y-39659215D01*
X35188421Y-39658786D01*
X34734343Y-39846408D01*
X34448252Y-40132000D01*
X25383370Y-40132000D01*
X25304592Y-39941343D01*
X24957485Y-39593629D01*
X24503734Y-39405215D01*
X24012421Y-39404786D01*
X23558343Y-39592408D01*
X23210629Y-39939515D01*
X23022215Y-40393266D01*
X23021786Y-40884579D01*
X23209408Y-41338657D01*
X23556515Y-41686371D01*
X24010266Y-41874785D01*
X24501579Y-41875214D01*
X24955657Y-41687592D01*
X24987304Y-41656000D01*
X29375232Y-41656000D01*
X29372215Y-41663266D01*
X29371786Y-42154579D01*
X29559408Y-42608657D01*
X29906515Y-42956371D01*
X30134112Y-43050878D01*
X30133786Y-43424579D01*
X30321408Y-43878657D01*
X30384640Y-43942000D01*
X26655010Y-43942000D01*
X26332670Y-43459585D01*
X25846489Y-43134729D01*
X25273000Y-43020655D01*
X24699511Y-43134729D01*
X24213330Y-43459585D01*
X24003000Y-43774366D01*
X23792670Y-43459585D01*
X23306489Y-43134729D01*
X22733000Y-43020655D01*
X22159511Y-43134729D01*
X21673330Y-43459585D01*
X21658500Y-43481780D01*
X21594927Y-43328302D01*
X21416299Y-43149673D01*
X21182910Y-43053000D01*
X20478750Y-43053000D01*
X20320000Y-43211750D01*
X20066000Y-43211750D01*
X19907250Y-43053000D01*
X19203090Y-43053000D01*
X18969701Y-43149673D01*
X18791073Y-43328302D01*
X18694400Y-43561691D01*
X17081500Y-43561691D01*
X17081500Y-24193320D01*
X17896285Y-24193320D01*
X18025533Y-24486123D01*
X18725806Y-24754388D01*
X19475435Y-24734250D01*
X20074467Y-24486123D01*
X20203715Y-24193320D01*
X22976285Y-24193320D01*
X23105533Y-24486123D01*
X23805806Y-24754388D01*
X24555435Y-24734250D01*
X25154467Y-24486123D01*
X25283715Y-24193320D01*
X24130000Y-23039605D01*
X22976285Y-24193320D01*
X20203715Y-24193320D01*
X19050000Y-23039605D01*
X17896285Y-24193320D01*
X17081500Y-24193320D01*
X17081500Y-22535806D01*
X17155612Y-22535806D01*
X17175750Y-23285435D01*
X17423877Y-23884467D01*
X17716680Y-24013715D01*
X18870395Y-22860000D01*
X17716680Y-21706285D01*
X17423877Y-21835533D01*
X17155612Y-22535806D01*
X17081500Y-22535806D01*
X17081500Y-19113320D01*
X17896285Y-19113320D01*
X18025533Y-19406123D01*
X18725806Y-19674388D01*
X19475435Y-19654250D01*
X19963476Y-19452097D01*
X19755319Y-19953395D01*
X19754682Y-20683403D01*
X19964769Y-21191853D01*
X19374194Y-20965612D01*
X18624565Y-20985750D01*
X18025533Y-21233877D01*
X17896285Y-21526680D01*
X19050000Y-22680395D01*
X19064143Y-22666253D01*
X19243748Y-22845858D01*
X19229605Y-22860000D01*
X20383320Y-24013715D01*
X20676123Y-23884467D01*
X20944388Y-23184194D01*
X20924250Y-22434565D01*
X20722097Y-21946524D01*
X21223395Y-22154681D01*
X21953403Y-22155318D01*
X22461853Y-21945231D01*
X22235612Y-22535806D01*
X22255750Y-23285435D01*
X22503877Y-23884467D01*
X22796680Y-24013715D01*
X23950395Y-22860000D01*
X24309605Y-22860000D01*
X25463320Y-24013715D01*
X25756123Y-23884467D01*
X26024388Y-23184194D01*
X26004250Y-22434565D01*
X25756123Y-21835533D01*
X25463320Y-21706285D01*
X24309605Y-22860000D01*
X23950395Y-22860000D01*
X23936253Y-22845858D01*
X24115858Y-22666253D01*
X24130000Y-22680395D01*
X25283715Y-21526680D01*
X25154467Y-21233877D01*
X24454194Y-20965612D01*
X23704565Y-20985750D01*
X23216524Y-21187903D01*
X23424681Y-20686605D01*
X23425318Y-19956597D01*
X23215231Y-19448147D01*
X23805806Y-19674388D01*
X24555435Y-19654250D01*
X25154467Y-19406123D01*
X25283715Y-19113320D01*
X24130000Y-17959605D01*
X24115858Y-17973748D01*
X23936253Y-17794143D01*
X23950395Y-17780000D01*
X24309605Y-17780000D01*
X25463320Y-18933715D01*
X25756123Y-18804467D01*
X26024388Y-18104194D01*
X26004250Y-17354565D01*
X25756123Y-16755533D01*
X25463320Y-16626285D01*
X24309605Y-17780000D01*
X23950395Y-17780000D01*
X22796680Y-16626285D01*
X22503877Y-16755533D01*
X22235612Y-17455806D01*
X22255750Y-18205435D01*
X22457903Y-18693476D01*
X21956605Y-18485319D01*
X21226597Y-18484682D01*
X20718147Y-18694769D01*
X20944388Y-18104194D01*
X20924250Y-17354565D01*
X20676123Y-16755533D01*
X20383320Y-16626285D01*
X19229605Y-17780000D01*
X19243748Y-17794143D01*
X19064143Y-17973748D01*
X19050000Y-17959605D01*
X17896285Y-19113320D01*
X17081500Y-19113320D01*
X17081500Y-17455806D01*
X17155612Y-17455806D01*
X17175750Y-18205435D01*
X17423877Y-18804467D01*
X17716680Y-18933715D01*
X18870395Y-17780000D01*
X17716680Y-16626285D01*
X17423877Y-16755533D01*
X17155612Y-17455806D01*
X17081500Y-17455806D01*
X17081500Y-16065500D01*
X18238894Y-16065500D01*
X18025533Y-16153877D01*
X18025533Y-16153877D01*
G37*
X18025533Y-16153877D02*
X17896285Y-16446680D01*
X19050000Y-17600395D01*
X20203715Y-16446680D01*
X20074467Y-16153877D01*
X19843770Y-16065500D01*
X23318894Y-16065500D01*
X23105533Y-16153877D01*
X22976285Y-16446680D01*
X24130000Y-17600395D01*
X25283715Y-16446680D01*
X25154467Y-16153877D01*
X24923770Y-16065500D01*
X32784100Y-16065500D01*
X32735185Y-16098184D01*
X31780233Y-17053137D01*
X31378421Y-17052786D01*
X30924343Y-17240408D01*
X30576629Y-17587515D01*
X30388215Y-18041266D01*
X30387786Y-18532579D01*
X30575408Y-18986657D01*
X30922515Y-19334371D01*
X31376266Y-19522785D01*
X31867579Y-19523214D01*
X32321657Y-19335592D01*
X32669371Y-18988485D01*
X32857785Y-18534734D01*
X32858138Y-18130492D01*
X33589631Y-17399000D01*
X47691299Y-17399000D01*
X47313532Y-17776108D01*
X46800086Y-19012624D01*
X46798917Y-20351502D01*
X47135341Y-21165710D01*
X45750815Y-19781185D01*
X45736127Y-19771371D01*
X45503605Y-19616004D01*
X45212000Y-19558000D01*
X35179000Y-19558000D01*
X34887395Y-19616004D01*
X34640184Y-19781185D01*
X32227185Y-22194185D01*
X32062004Y-22441395D01*
X32052021Y-22491581D01*
X31999086Y-22526951D01*
X31763979Y-22878814D01*
X31681420Y-23293865D01*
X31681420Y-23950135D01*
X31763979Y-24365186D01*
X31999086Y-24717049D01*
X32350949Y-24952156D01*
X32766000Y-25034715D01*
X33181051Y-24952156D01*
X33274000Y-24890050D01*
X33274000Y-25019000D01*
X33332004Y-25310605D01*
X33391736Y-25400000D01*
X33497185Y-25557815D01*
X35498369Y-27559000D01*
X32226581Y-27559000D01*
X32069485Y-27401629D01*
X31615734Y-27213215D01*
X31124421Y-27212786D01*
X30670343Y-27400408D01*
X30322629Y-27747515D01*
X30134215Y-28201266D01*
X30133786Y-28692579D01*
X30321408Y-29146657D01*
X30668515Y-29494371D01*
X31122266Y-29682785D01*
X31613579Y-29683214D01*
X32067657Y-29495592D01*
X32415371Y-29148485D01*
X32442563Y-29083000D01*
X40857967Y-29083000D01*
X40802215Y-29217266D01*
X40802191Y-29245030D01*
X40522421Y-29244786D01*
X40068343Y-29432408D01*
X39720629Y-29779515D01*
X39532215Y-30233266D01*
X39531786Y-30724579D01*
X39719408Y-31178657D01*
X40066515Y-31526371D01*
X40520266Y-31714785D01*
X41011579Y-31715214D01*
X41465657Y-31527592D01*
X41751748Y-31242000D01*
X42545000Y-31242000D01*
X42836605Y-31183996D01*
X43083815Y-31018815D01*
X43622631Y-30480000D01*
X67983679Y-30480000D01*
X68167408Y-30924657D01*
X68514515Y-31272371D01*
X68968266Y-31460785D01*
X69459579Y-31461214D01*
X69913657Y-31273592D01*
X70261371Y-30926485D01*
X70449785Y-30472734D01*
X70450214Y-29981421D01*
X70446321Y-29972000D01*
X70770640Y-29972000D01*
X71054515Y-30256371D01*
X71508266Y-30444785D01*
X71999579Y-30445214D01*
X72453657Y-30257592D01*
X72801371Y-29910485D01*
X72989785Y-29456734D01*
X72990214Y-28965421D01*
X72867119Y-28667511D01*
X73843780Y-27690850D01*
X73978341Y-27746724D01*
X74608893Y-27747275D01*
X75191657Y-27506481D01*
X75565261Y-27133529D01*
X75935997Y-27504914D01*
X76518341Y-27746724D01*
X77148893Y-27747275D01*
X77731657Y-27506481D01*
X78177914Y-27061003D01*
X78419724Y-26478659D01*
X78420275Y-25848107D01*
X78179481Y-25265343D01*
X77734003Y-24819086D01*
X77151659Y-24577276D01*
X76521107Y-24576725D01*
X75938343Y-24817519D01*
X75564739Y-25190471D01*
X75194003Y-24819086D01*
X74611659Y-24577276D01*
X73981107Y-24576725D01*
X73398343Y-24817519D01*
X73024739Y-25190471D01*
X72654003Y-24819086D01*
X72071659Y-24577276D01*
X71441107Y-24576725D01*
X70858343Y-24817519D01*
X70484739Y-25190471D01*
X70114003Y-24819086D01*
X69531659Y-24577276D01*
X68901107Y-24576725D01*
X68318343Y-24817519D01*
X67944739Y-25190471D01*
X67574003Y-24819086D01*
X66991659Y-24577276D01*
X66361107Y-24576725D01*
X65778343Y-24817519D01*
X65404739Y-25190471D01*
X65034003Y-24819086D01*
X64451659Y-24577276D01*
X63821107Y-24576725D01*
X63238343Y-24817519D01*
X62864739Y-25190471D01*
X62494003Y-24819086D01*
X61911659Y-24577276D01*
X61281107Y-24576725D01*
X60698343Y-24817519D01*
X60324739Y-25190471D01*
X59954003Y-24819086D01*
X59371659Y-24577276D01*
X58741107Y-24576725D01*
X58158343Y-24817519D01*
X57784739Y-25190471D01*
X57414003Y-24819086D01*
X56831659Y-24577276D01*
X56201107Y-24576725D01*
X55618343Y-24817519D01*
X55244739Y-25190471D01*
X54874003Y-24819086D01*
X54291659Y-24577276D01*
X53661107Y-24576725D01*
X53078343Y-24817519D01*
X52704739Y-25190471D01*
X52334003Y-24819086D01*
X51751659Y-24577276D01*
X51121107Y-24576725D01*
X50538343Y-24817519D01*
X50164739Y-25190471D01*
X49794003Y-24819086D01*
X49211659Y-24577276D01*
X48581107Y-24576725D01*
X47998343Y-24817519D01*
X47624739Y-25190471D01*
X47254003Y-24819086D01*
X46671659Y-24577276D01*
X46041107Y-24576725D01*
X45458343Y-24817519D01*
X45084739Y-25190471D01*
X44714003Y-24819086D01*
X44131659Y-24577276D01*
X43501107Y-24576725D01*
X42918343Y-24817519D01*
X42472086Y-25262997D01*
X42230276Y-25845341D01*
X42229725Y-26475893D01*
X42362404Y-26797000D01*
X36891631Y-26797000D01*
X35085481Y-24990851D01*
X35306000Y-25034715D01*
X35585491Y-24979121D01*
X35910185Y-25303815D01*
X36157395Y-25468996D01*
X36449000Y-25527000D01*
X41148000Y-25527000D01*
X41439605Y-25468996D01*
X41686815Y-25303815D01*
X41940815Y-25049816D01*
X42105996Y-24802605D01*
X42115587Y-24754388D01*
X42115979Y-24752419D01*
X42168914Y-24717049D01*
X42404021Y-24365186D01*
X42486580Y-23950135D01*
X42486580Y-23293865D01*
X42476064Y-23241000D01*
X46166370Y-23241000D01*
X46832185Y-23906815D01*
X47079395Y-24071996D01*
X47371000Y-24130000D01*
X59055000Y-24130000D01*
X59346605Y-24071996D01*
X59593815Y-23906815D01*
X60990815Y-22509816D01*
X61155996Y-22262605D01*
X61159770Y-22243630D01*
X61396146Y-22327312D01*
X61936444Y-22298949D01*
X62303878Y-22146753D01*
X62368793Y-21908398D01*
X61595000Y-21134605D01*
X61580858Y-21148748D01*
X61401253Y-20969143D01*
X61415395Y-20955000D01*
X61401253Y-20940858D01*
X61580858Y-20761253D01*
X61595000Y-20775395D01*
X62368793Y-20001602D01*
X62303878Y-19763247D01*
X62082783Y-19684975D01*
X62364372Y-19568624D01*
X62747280Y-19186384D01*
X62865033Y-18902802D01*
X62981376Y-19184372D01*
X63363616Y-19567280D01*
X63647198Y-19685033D01*
X63365628Y-19801376D01*
X62982720Y-20183616D01*
X62871654Y-20451092D01*
X62786753Y-20246122D01*
X62548398Y-20181207D01*
X61774605Y-20955000D01*
X62548398Y-21728793D01*
X62786753Y-21663878D01*
X62865025Y-21442783D01*
X62981376Y-21724372D01*
X63363616Y-22107280D01*
X63863292Y-22314763D01*
X64404334Y-22315236D01*
X64904372Y-22108624D01*
X65287280Y-21726384D01*
X65384967Y-21491127D01*
X65489990Y-21745303D01*
X65882630Y-22138629D01*
X66395900Y-22351757D01*
X66951661Y-22352242D01*
X67465303Y-22140010D01*
X67858629Y-21747370D01*
X67965016Y-21491162D01*
X68061376Y-21724372D01*
X68443616Y-22107280D01*
X68943292Y-22314763D01*
X69484334Y-22315236D01*
X69984372Y-22108624D01*
X70367280Y-21726384D01*
X70574763Y-21226708D01*
X70575236Y-20685666D01*
X70368624Y-20185628D01*
X69986384Y-19802720D01*
X69702802Y-19684967D01*
X69984372Y-19568624D01*
X70367280Y-19186384D01*
X70574763Y-18686708D01*
X70575236Y-18145666D01*
X70368624Y-17645628D01*
X70122426Y-17399000D01*
X75631299Y-17399000D01*
X75253532Y-17776108D01*
X74740086Y-19012624D01*
X74738917Y-20351502D01*
X75250204Y-21588912D01*
X76196108Y-22536468D01*
X77432624Y-23049914D01*
X78771502Y-23051083D01*
X80008912Y-22539796D01*
X80956468Y-21593892D01*
X81347668Y-20651777D01*
X85445828Y-20651777D01*
X85577520Y-20946657D01*
X86285036Y-21218261D01*
X87042632Y-21198436D01*
X87650480Y-20946657D01*
X87782172Y-20651777D01*
X86614000Y-19483605D01*
X85445828Y-20651777D01*
X81347668Y-20651777D01*
X81469914Y-20357376D01*
X81471083Y-19018498D01*
X81453125Y-18975036D01*
X84699739Y-18975036D01*
X84719564Y-19732632D01*
X84971343Y-20340480D01*
X85266223Y-20472172D01*
X86434395Y-19304000D01*
X86793605Y-19304000D01*
X87961777Y-20472172D01*
X88256657Y-20340480D01*
X88528261Y-19632964D01*
X88508436Y-18875368D01*
X88256657Y-18267520D01*
X87961777Y-18135828D01*
X86793605Y-19304000D01*
X86434395Y-19304000D01*
X85266223Y-18135828D01*
X84971343Y-18267520D01*
X84699739Y-18975036D01*
X81453125Y-18975036D01*
X80959796Y-17781088D01*
X80578374Y-17399000D01*
X86589063Y-17399000D01*
X86185368Y-17409564D01*
X85577520Y-17661343D01*
X85445828Y-17956223D01*
X86614000Y-19124395D01*
X87782172Y-17956223D01*
X87650480Y-17661343D01*
X86967088Y-17399000D01*
X88203370Y-17399000D01*
X89789278Y-18984909D01*
X89788670Y-19681265D01*
X90078078Y-20381686D01*
X90613495Y-20918039D01*
X91313410Y-21208668D01*
X92071265Y-21209330D01*
X92771686Y-20919922D01*
X93308039Y-20384505D01*
X93598668Y-19684590D01*
X93599330Y-18926735D01*
X93309922Y-18226314D01*
X93117944Y-18034000D01*
X94856560Y-18034000D01*
X94856560Y-20574000D01*
X94900838Y-20809317D01*
X95039910Y-21025441D01*
X95252110Y-21170431D01*
X95504000Y-21221440D01*
X98044000Y-21221440D01*
X98279317Y-21177162D01*
X98495441Y-21038090D01*
X98640431Y-20825890D01*
X98691440Y-20574000D01*
X98691440Y-18034000D01*
X98647162Y-17798683D01*
X98508090Y-17582559D01*
X98295890Y-17437569D01*
X98044000Y-17386560D01*
X95504000Y-17386560D01*
X95268683Y-17430838D01*
X95052559Y-17569910D01*
X94907569Y-17782110D01*
X94856560Y-18034000D01*
X93117944Y-18034000D01*
X92774505Y-17689961D01*
X92074590Y-17399332D01*
X91316735Y-17398670D01*
X90638529Y-17678899D01*
X89057814Y-16098184D01*
X89008899Y-16065500D01*
X99250500Y-16065500D01*
X99250500Y-41553347D01*
X99154334Y-41513415D01*
X98663021Y-41512986D01*
X98208943Y-41700608D01*
X97922852Y-41986200D01*
X88148831Y-41986200D01*
X86371551Y-40208920D01*
X86488325Y-40034155D01*
X86614000Y-39402345D01*
X86614000Y-39337655D01*
X86488325Y-38705845D01*
X86130433Y-38170222D01*
X85594810Y-37812330D01*
X84963000Y-37686655D01*
X84331190Y-37812330D01*
X83991208Y-38039499D01*
X83903090Y-37902559D01*
X83690890Y-37757569D01*
X83439000Y-37706560D01*
X81407000Y-37706560D01*
X81171683Y-37750838D01*
X80955559Y-37889910D01*
X80810569Y-38102110D01*
X80759560Y-38354000D01*
X80759560Y-40386000D01*
X80803838Y-40621317D01*
X80942910Y-40837441D01*
X81155110Y-40982431D01*
X81407000Y-41033440D01*
X82246810Y-41033440D01*
X85948185Y-44734815D01*
X86195395Y-44899996D01*
X86487000Y-44958000D01*
X90442667Y-44958000D01*
X90390208Y-44993052D01*
X90068381Y-45474701D01*
X89955370Y-46042844D01*
X89955370Y-47937156D01*
X90068381Y-48505299D01*
X90390208Y-48986948D01*
X90871857Y-49308775D01*
X91440000Y-49421786D01*
X92008143Y-49308775D01*
X92489792Y-48986948D01*
X92710000Y-48657383D01*
X92930208Y-48986948D01*
X93411857Y-49308775D01*
X93980000Y-49421786D01*
X94548143Y-49308775D01*
X95029792Y-48986948D01*
X95255516Y-48649127D01*
X95560011Y-49030024D01*
X96069190Y-49310649D01*
X96163168Y-49331540D01*
X96393000Y-49210214D01*
X96393000Y-47117000D01*
X96647000Y-47117000D01*
X96647000Y-49210214D01*
X96876832Y-49331540D01*
X96970810Y-49310649D01*
X97479989Y-49030024D01*
X97843018Y-48575906D01*
X98004630Y-48017430D01*
X98004630Y-47117000D01*
X96647000Y-47117000D01*
X96393000Y-47117000D01*
X96373000Y-47117000D01*
X96373000Y-46863000D01*
X96393000Y-46863000D01*
X96393000Y-44769786D01*
X96647000Y-44769786D01*
X96647000Y-46863000D01*
X98004630Y-46863000D01*
X98004630Y-45962570D01*
X97843018Y-45404094D01*
X97479989Y-44949976D01*
X96970810Y-44669351D01*
X96876832Y-44648460D01*
X96647000Y-44769786D01*
X96393000Y-44769786D01*
X96163168Y-44648460D01*
X96069190Y-44669351D01*
X95560011Y-44949976D01*
X95255516Y-45330873D01*
X95029792Y-44993052D01*
X94548143Y-44671225D01*
X93980000Y-44558214D01*
X93803878Y-44593247D01*
X92867815Y-43657185D01*
X92827124Y-43629996D01*
X92647837Y-43510200D01*
X97923240Y-43510200D01*
X98207115Y-43794571D01*
X98660866Y-43982985D01*
X99152179Y-43983414D01*
X99250500Y-43942788D01*
X99250500Y-70548500D01*
X95504000Y-70548500D01*
X95504000Y-57404000D01*
X95493994Y-57354590D01*
X95465553Y-57312965D01*
X95423159Y-57285685D01*
X95377000Y-57277000D01*
X77343000Y-57277000D01*
X77293590Y-57287006D01*
X77251965Y-57315447D01*
X77224685Y-57357841D01*
X77216000Y-57404000D01*
X77216000Y-70548500D01*
X17081500Y-70548500D01*
X17081500Y-66548000D01*
X18681960Y-66548000D01*
X18681960Y-68580000D01*
X18726238Y-68815317D01*
X18865310Y-69031441D01*
X19077510Y-69176431D01*
X19329400Y-69227440D01*
X21056600Y-69227440D01*
X21291917Y-69183162D01*
X21508041Y-69044090D01*
X21653031Y-68831890D01*
X21672232Y-68737073D01*
X21830964Y-68914732D01*
X22358209Y-69168709D01*
X22373974Y-69171358D01*
X22606000Y-69050217D01*
X22606000Y-67691000D01*
X22586000Y-67691000D01*
X22586000Y-67437000D01*
X22606000Y-67437000D01*
X22606000Y-66077783D01*
X22860000Y-66077783D01*
X22860000Y-67437000D01*
X22880000Y-67437000D01*
X22880000Y-67691000D01*
X22860000Y-67691000D01*
X22860000Y-69050217D01*
X23092026Y-69171358D01*
X23107791Y-69168709D01*
X23635036Y-68914732D01*
X24006539Y-68498931D01*
X24213330Y-68808415D01*
X24699511Y-69133271D01*
X25273000Y-69247345D01*
X25846489Y-69133271D01*
X26332670Y-68808415D01*
X26543000Y-68493634D01*
X26753330Y-68808415D01*
X27239511Y-69133271D01*
X27813000Y-69247345D01*
X28386489Y-69133271D01*
X28872670Y-68808415D01*
X29083000Y-68493634D01*
X29293330Y-68808415D01*
X29779511Y-69133271D01*
X30353000Y-69247345D01*
X30926489Y-69133271D01*
X31412670Y-68808415D01*
X31737526Y-68322234D01*
X31851600Y-67748745D01*
X31851600Y-67379255D01*
X31737526Y-66805766D01*
X31412670Y-66319585D01*
X30926489Y-65994729D01*
X30353000Y-65880655D01*
X29779511Y-65994729D01*
X29293330Y-66319585D01*
X29083000Y-66634366D01*
X28872670Y-66319585D01*
X28386489Y-65994729D01*
X27813000Y-65880655D01*
X27239511Y-65994729D01*
X26753330Y-66319585D01*
X26543000Y-66634366D01*
X26332670Y-66319585D01*
X25846489Y-65994729D01*
X25273000Y-65880655D01*
X24699511Y-65994729D01*
X24213330Y-66319585D01*
X24006539Y-66629069D01*
X23635036Y-66213268D01*
X23107791Y-65959291D01*
X23092026Y-65956642D01*
X22860000Y-66077783D01*
X22606000Y-66077783D01*
X22373974Y-65956642D01*
X22358209Y-65959291D01*
X21830964Y-66213268D01*
X21674093Y-66388845D01*
X21659762Y-66312683D01*
X21520690Y-66096559D01*
X21308490Y-65951569D01*
X21056600Y-65900560D01*
X19329400Y-65900560D01*
X19094083Y-65944838D01*
X18877959Y-66083910D01*
X18732969Y-66296110D01*
X18681960Y-66548000D01*
X17081500Y-66548000D01*
X17081500Y-65092844D01*
X67095370Y-65092844D01*
X67095370Y-66987156D01*
X67208381Y-67555299D01*
X67530208Y-68036948D01*
X68011857Y-68358775D01*
X68580000Y-68471786D01*
X69148143Y-68358775D01*
X69629792Y-68036948D01*
X69850000Y-67707383D01*
X70070208Y-68036948D01*
X70551857Y-68358775D01*
X71120000Y-68471786D01*
X71688143Y-68358775D01*
X72169792Y-68036948D01*
X72390000Y-67707383D01*
X72610208Y-68036948D01*
X73091857Y-68358775D01*
X73660000Y-68471786D01*
X74228143Y-68358775D01*
X74709792Y-68036948D01*
X75031619Y-67555299D01*
X75144630Y-66987156D01*
X75144630Y-65092844D01*
X75031619Y-64524701D01*
X74709792Y-64043052D01*
X74228143Y-63721225D01*
X73660000Y-63608214D01*
X73091857Y-63721225D01*
X72610208Y-64043052D01*
X72390000Y-64372617D01*
X72169792Y-64043052D01*
X71688143Y-63721225D01*
X71120000Y-63608214D01*
X70551857Y-63721225D01*
X70070208Y-64043052D01*
X69850000Y-64372617D01*
X69629792Y-64043052D01*
X69148143Y-63721225D01*
X68580000Y-63608214D01*
X68011857Y-63721225D01*
X67530208Y-64043052D01*
X67208381Y-64524701D01*
X67095370Y-65092844D01*
X17081500Y-65092844D01*
X17081500Y-44989750D01*
X18694400Y-44989750D01*
X18694400Y-45846309D01*
X18791073Y-46079698D01*
X18969701Y-46258327D01*
X19203090Y-46355000D01*
X19907250Y-46355000D01*
X20066000Y-46196250D01*
X20066000Y-44831000D01*
X18853150Y-44831000D01*
X18694400Y-44989750D01*
X17081500Y-44989750D01*
X17081500Y-43561691D01*
X18694400Y-43561691D01*
X18694400Y-44418250D01*
X18853150Y-44577000D01*
X20066000Y-44577000D01*
X20066000Y-43211750D01*
X20320000Y-43211750D01*
X20320000Y-44577000D01*
X20340000Y-44577000D01*
X20340000Y-44831000D01*
X20320000Y-44831000D01*
X20320000Y-46196250D01*
X20478750Y-46355000D01*
X21182910Y-46355000D01*
X21416299Y-46258327D01*
X21594927Y-46079698D01*
X21658500Y-45926220D01*
X21673330Y-45948415D01*
X22159511Y-46273271D01*
X22733000Y-46387345D01*
X23306489Y-46273271D01*
X23792670Y-45948415D01*
X24003000Y-45633634D01*
X24213330Y-45948415D01*
X24699511Y-46273271D01*
X25273000Y-46387345D01*
X25846489Y-46273271D01*
X26332670Y-45948415D01*
X26655010Y-45466000D01*
X33847370Y-45466000D01*
X40548137Y-52166768D01*
X40547786Y-52568579D01*
X40735408Y-53022657D01*
X41082515Y-53370371D01*
X41536266Y-53558785D01*
X42027579Y-53559214D01*
X42481657Y-53371592D01*
X42829371Y-53024485D01*
X43017785Y-52570734D01*
X43018214Y-52079421D01*
X42830592Y-51625343D01*
X42483485Y-51277629D01*
X42029734Y-51089215D01*
X41625493Y-51088862D01*
X38787210Y-48250579D01*
X56549786Y-48250579D01*
X56737408Y-48704657D01*
X57084515Y-49052371D01*
X57538266Y-49240785D01*
X58029579Y-49241214D01*
X58483657Y-49053592D01*
X58769748Y-48768000D01*
X69246197Y-48768000D01*
X69276515Y-48798371D01*
X69730266Y-48986785D01*
X70221579Y-48987214D01*
X70675657Y-48799592D01*
X71023371Y-48452485D01*
X71211785Y-47998734D01*
X71212214Y-47507421D01*
X71024592Y-47053343D01*
X70677485Y-46705629D01*
X70223734Y-46517215D01*
X69732421Y-46516786D01*
X69278343Y-46704408D01*
X68930629Y-47051515D01*
X68850702Y-47244000D01*
X58769360Y-47244000D01*
X58485485Y-46959629D01*
X58031734Y-46771215D01*
X57540421Y-46770786D01*
X57086343Y-46958408D01*
X56738629Y-47305515D01*
X56550215Y-47759266D01*
X56549786Y-48250579D01*
X38787210Y-48250579D01*
X34701815Y-44165185D01*
X34454605Y-44000004D01*
X34163000Y-43942000D01*
X32353748Y-43942000D01*
X32415371Y-43880485D01*
X32495298Y-43688000D01*
X36703000Y-43688000D01*
X36994605Y-43629996D01*
X37241815Y-43464815D01*
X38188280Y-42518350D01*
X42878255Y-42518350D01*
X42970792Y-42780019D01*
X43562398Y-42998188D01*
X44192461Y-42973352D01*
X44659208Y-42780019D01*
X44751745Y-42518350D01*
X43815000Y-41581605D01*
X42878255Y-42518350D01*
X38188280Y-42518350D01*
X39812631Y-40894000D01*
X42312996Y-40894000D01*
X42218812Y-41149398D01*
X42243648Y-41779461D01*
X42436981Y-42246208D01*
X42698650Y-42338745D01*
X43635395Y-41402000D01*
X43621253Y-41387858D01*
X43800858Y-41208253D01*
X43815000Y-41222395D01*
X43829143Y-41208253D01*
X44008748Y-41387858D01*
X43994605Y-41402000D01*
X44931350Y-42338745D01*
X45019439Y-42307593D01*
X45455997Y-42744914D01*
X46038341Y-42986724D01*
X46668893Y-42987275D01*
X47251657Y-42746481D01*
X47625261Y-42373529D01*
X47995997Y-42744914D01*
X48578341Y-42986724D01*
X49208893Y-42987275D01*
X49791657Y-42746481D01*
X50165261Y-42373529D01*
X50535997Y-42744914D01*
X51118341Y-42986724D01*
X51748893Y-42987275D01*
X52331657Y-42746481D01*
X52705261Y-42373529D01*
X53075997Y-42744914D01*
X53658341Y-42986724D01*
X54288893Y-42987275D01*
X54871657Y-42746481D01*
X55245261Y-42373529D01*
X55615997Y-42744914D01*
X56198341Y-42986724D01*
X56828893Y-42987275D01*
X57411657Y-42746481D01*
X57785261Y-42373529D01*
X58155997Y-42744914D01*
X58738341Y-42986724D01*
X59368893Y-42987275D01*
X59685730Y-42856360D01*
X60294184Y-43464815D01*
X60541395Y-43629996D01*
X60833000Y-43688000D01*
X78551370Y-43688000D01*
X82204137Y-47340768D01*
X82203786Y-47742579D01*
X82391408Y-48196657D01*
X82738515Y-48544371D01*
X83192266Y-48732785D01*
X83683579Y-48733214D01*
X84137657Y-48545592D01*
X84485371Y-48198485D01*
X84673785Y-47744734D01*
X84674214Y-47253421D01*
X84486592Y-46799343D01*
X84139485Y-46451629D01*
X83685734Y-46263215D01*
X83281493Y-46262862D01*
X79405815Y-42387185D01*
X79405814Y-42387184D01*
X79158605Y-42222004D01*
X78867000Y-42164000D01*
X78234803Y-42164000D01*
X78419724Y-41718659D01*
X78420275Y-41088107D01*
X78179481Y-40505343D01*
X77734003Y-40059086D01*
X77151659Y-39817276D01*
X76521107Y-39816725D01*
X75938343Y-40057519D01*
X75564739Y-40430471D01*
X75194003Y-40059086D01*
X74611659Y-39817276D01*
X73981107Y-39816725D01*
X73398343Y-40057519D01*
X73024739Y-40430471D01*
X72654003Y-40059086D01*
X72071659Y-39817276D01*
X71441107Y-39816725D01*
X70858343Y-40057519D01*
X70484739Y-40430471D01*
X70114003Y-40059086D01*
X69531659Y-39817276D01*
X68901107Y-39816725D01*
X68318343Y-40057519D01*
X67944739Y-40430471D01*
X67574003Y-40059086D01*
X66991659Y-39817276D01*
X66361107Y-39816725D01*
X65778343Y-40057519D01*
X65404739Y-40430471D01*
X65034003Y-40059086D01*
X64451659Y-39817276D01*
X63821107Y-39816725D01*
X63684005Y-39873375D01*
X63403815Y-39593185D01*
X63393655Y-39586396D01*
X63156605Y-39428004D01*
X62865000Y-39370000D01*
X62826768Y-39370000D01*
X62829785Y-39362734D01*
X62830214Y-38871421D01*
X62826321Y-38862000D01*
X73787000Y-38862000D01*
X74078605Y-38803996D01*
X74325815Y-38638815D01*
X81663780Y-31300850D01*
X82169000Y-31401345D01*
X82742489Y-31287271D01*
X83228670Y-30962415D01*
X83439000Y-30647634D01*
X83649330Y-30962415D01*
X84135511Y-31287271D01*
X84709000Y-31401345D01*
X85282489Y-31287271D01*
X85768670Y-30962415D01*
X85783500Y-30940220D01*
X85847073Y-31093698D01*
X86025701Y-31272327D01*
X86259090Y-31369000D01*
X86963250Y-31369000D01*
X87122000Y-31210250D01*
X87122000Y-29845000D01*
X87376000Y-29845000D01*
X87376000Y-31210250D01*
X87534750Y-31369000D01*
X88238910Y-31369000D01*
X88472299Y-31272327D01*
X88650927Y-31093698D01*
X88747600Y-30860309D01*
X88747600Y-30003750D01*
X88588850Y-29845000D01*
X87376000Y-29845000D01*
X87122000Y-29845000D01*
X87102000Y-29845000D01*
X87102000Y-29591000D01*
X87122000Y-29591000D01*
X87122000Y-28225750D01*
X87376000Y-28225750D01*
X87376000Y-29591000D01*
X88588850Y-29591000D01*
X88747600Y-29432250D01*
X88747600Y-28575691D01*
X88650927Y-28342302D01*
X88472299Y-28163673D01*
X88238910Y-28067000D01*
X87534750Y-28067000D01*
X87376000Y-28225750D01*
X87122000Y-28225750D01*
X86963250Y-28067000D01*
X86259090Y-28067000D01*
X86025701Y-28163673D01*
X85847073Y-28342302D01*
X85783500Y-28495780D01*
X85768670Y-28473585D01*
X85282489Y-28148729D01*
X84709000Y-28034655D01*
X84135511Y-28148729D01*
X83649330Y-28473585D01*
X83439000Y-28788366D01*
X83228670Y-28473585D01*
X82742489Y-28148729D01*
X82169000Y-28034655D01*
X81595511Y-28148729D01*
X81109330Y-28473585D01*
X80784474Y-28959766D01*
X80670400Y-29533255D01*
X80670400Y-29902745D01*
X80709592Y-30099778D01*
X73471370Y-37338000D01*
X52561370Y-37338000D01*
X52482592Y-37147343D01*
X52135485Y-36799629D01*
X51681734Y-36611215D01*
X51190421Y-36610786D01*
X50736343Y-36798408D01*
X50388629Y-37145515D01*
X50200215Y-37599266D01*
X50199786Y-38090579D01*
X50308630Y-38354000D01*
X39751000Y-38354000D01*
X39459395Y-38412004D01*
X39360377Y-38478166D01*
X39212185Y-38577184D01*
X36667802Y-41121568D01*
X36668214Y-40649421D01*
X36480592Y-40195343D01*
X36133485Y-39847629D01*
X35679734Y-39659215D01*
X35188421Y-39658786D01*
X34734343Y-39846408D01*
X34448252Y-40132000D01*
X25383370Y-40132000D01*
X25304592Y-39941343D01*
X24957485Y-39593629D01*
X24503734Y-39405215D01*
X24012421Y-39404786D01*
X23558343Y-39592408D01*
X23210629Y-39939515D01*
X23022215Y-40393266D01*
X23021786Y-40884579D01*
X23209408Y-41338657D01*
X23556515Y-41686371D01*
X24010266Y-41874785D01*
X24501579Y-41875214D01*
X24955657Y-41687592D01*
X24987304Y-41656000D01*
X29375232Y-41656000D01*
X29372215Y-41663266D01*
X29371786Y-42154579D01*
X29559408Y-42608657D01*
X29906515Y-42956371D01*
X30134112Y-43050878D01*
X30133786Y-43424579D01*
X30321408Y-43878657D01*
X30384640Y-43942000D01*
X26655010Y-43942000D01*
X26332670Y-43459585D01*
X25846489Y-43134729D01*
X25273000Y-43020655D01*
X24699511Y-43134729D01*
X24213330Y-43459585D01*
X24003000Y-43774366D01*
X23792670Y-43459585D01*
X23306489Y-43134729D01*
X22733000Y-43020655D01*
X22159511Y-43134729D01*
X21673330Y-43459585D01*
X21658500Y-43481780D01*
X21594927Y-43328302D01*
X21416299Y-43149673D01*
X21182910Y-43053000D01*
X20478750Y-43053000D01*
X20320000Y-43211750D01*
X20066000Y-43211750D01*
X19907250Y-43053000D01*
X19203090Y-43053000D01*
X18969701Y-43149673D01*
X18791073Y-43328302D01*
X18694400Y-43561691D01*
X17081500Y-43561691D01*
X17081500Y-24193320D01*
X17896285Y-24193320D01*
X18025533Y-24486123D01*
X18725806Y-24754388D01*
X19475435Y-24734250D01*
X20074467Y-24486123D01*
X20203715Y-24193320D01*
X22976285Y-24193320D01*
X23105533Y-24486123D01*
X23805806Y-24754388D01*
X24555435Y-24734250D01*
X25154467Y-24486123D01*
X25283715Y-24193320D01*
X24130000Y-23039605D01*
X22976285Y-24193320D01*
X20203715Y-24193320D01*
X19050000Y-23039605D01*
X17896285Y-24193320D01*
X17081500Y-24193320D01*
X17081500Y-22535806D01*
X17155612Y-22535806D01*
X17175750Y-23285435D01*
X17423877Y-23884467D01*
X17716680Y-24013715D01*
X18870395Y-22860000D01*
X17716680Y-21706285D01*
X17423877Y-21835533D01*
X17155612Y-22535806D01*
X17081500Y-22535806D01*
X17081500Y-19113320D01*
X17896285Y-19113320D01*
X18025533Y-19406123D01*
X18725806Y-19674388D01*
X19475435Y-19654250D01*
X19963476Y-19452097D01*
X19755319Y-19953395D01*
X19754682Y-20683403D01*
X19964769Y-21191853D01*
X19374194Y-20965612D01*
X18624565Y-20985750D01*
X18025533Y-21233877D01*
X17896285Y-21526680D01*
X19050000Y-22680395D01*
X19064143Y-22666253D01*
X19243748Y-22845858D01*
X19229605Y-22860000D01*
X20383320Y-24013715D01*
X20676123Y-23884467D01*
X20944388Y-23184194D01*
X20924250Y-22434565D01*
X20722097Y-21946524D01*
X21223395Y-22154681D01*
X21953403Y-22155318D01*
X22461853Y-21945231D01*
X22235612Y-22535806D01*
X22255750Y-23285435D01*
X22503877Y-23884467D01*
X22796680Y-24013715D01*
X23950395Y-22860000D01*
X24309605Y-22860000D01*
X25463320Y-24013715D01*
X25756123Y-23884467D01*
X26024388Y-23184194D01*
X26004250Y-22434565D01*
X25756123Y-21835533D01*
X25463320Y-21706285D01*
X24309605Y-22860000D01*
X23950395Y-22860000D01*
X23936253Y-22845858D01*
X24115858Y-22666253D01*
X24130000Y-22680395D01*
X25283715Y-21526680D01*
X25154467Y-21233877D01*
X24454194Y-20965612D01*
X23704565Y-20985750D01*
X23216524Y-21187903D01*
X23424681Y-20686605D01*
X23425318Y-19956597D01*
X23215231Y-19448147D01*
X23805806Y-19674388D01*
X24555435Y-19654250D01*
X25154467Y-19406123D01*
X25283715Y-19113320D01*
X24130000Y-17959605D01*
X24115858Y-17973748D01*
X23936253Y-17794143D01*
X23950395Y-17780000D01*
X24309605Y-17780000D01*
X25463320Y-18933715D01*
X25756123Y-18804467D01*
X26024388Y-18104194D01*
X26004250Y-17354565D01*
X25756123Y-16755533D01*
X25463320Y-16626285D01*
X24309605Y-17780000D01*
X23950395Y-17780000D01*
X22796680Y-16626285D01*
X22503877Y-16755533D01*
X22235612Y-17455806D01*
X22255750Y-18205435D01*
X22457903Y-18693476D01*
X21956605Y-18485319D01*
X21226597Y-18484682D01*
X20718147Y-18694769D01*
X20944388Y-18104194D01*
X20924250Y-17354565D01*
X20676123Y-16755533D01*
X20383320Y-16626285D01*
X19229605Y-17780000D01*
X19243748Y-17794143D01*
X19064143Y-17973748D01*
X19050000Y-17959605D01*
X17896285Y-19113320D01*
X17081500Y-19113320D01*
X17081500Y-17455806D01*
X17155612Y-17455806D01*
X17175750Y-18205435D01*
X17423877Y-18804467D01*
X17716680Y-18933715D01*
X18870395Y-17780000D01*
X17716680Y-16626285D01*
X17423877Y-16755533D01*
X17155612Y-17455806D01*
X17081500Y-17455806D01*
X17081500Y-16065500D01*
X18238894Y-16065500D01*
X18025533Y-16153877D01*
M02*
