G04 #@! TF.FileFunction,Copper,L1,Top,Signal*
%FSLAX46Y46*%
G04 Gerber Fmt 4.6, Leading zero omitted, Abs format (unit mm)*
G04 Created by KiCad (PCBNEW 4.0.1-stable) date 2/17/2016 12:01:54 PM*
%MOMM*%
G01*
G04 APERTURE LIST*
%ADD10C,0.150000*%
%ADD11C,2.301240*%
%ADD12R,1.000000X3.000000*%
%ADD13C,4.064000*%
%ADD14R,2.430000X2.370000*%
%ADD15R,3.000000X1.000000*%
%ADD16R,4.130000X2.370000*%
%ADD17R,3.500120X2.400300*%
%ADD18R,2.500000X2.000000*%
%ADD19R,1.198880X1.198880*%
%ADD20C,5.461000*%
%ADD21R,1.400000X1.400000*%
%ADD22C,1.524000*%
%ADD23C,1.450000*%
%ADD24R,2.032000X2.032000*%
%ADD25O,2.032000X2.032000*%
%ADD26R,2.999740X2.999740*%
%ADD27R,1.727200X2.032000*%
%ADD28O,1.727200X2.032000*%
%ADD29R,1.727200X1.727200*%
%ADD30O,1.727200X1.727200*%
%ADD31C,2.400000*%
%ADD32C,2.500000*%
%ADD33R,1.700000X0.900000*%
%ADD34R,0.900000X1.700000*%
%ADD35R,3.200000X1.000000*%
%ADD36C,1.397000*%
%ADD37R,0.762000X1.524000*%
%ADD38R,1.550000X0.600000*%
%ADD39C,1.320800*%
%ADD40R,2.540000X2.540000*%
%ADD41C,2.540000*%
%ADD42R,0.400000X1.200000*%
%ADD43R,1.524000X2.032000*%
%ADD44O,1.600000X2.300000*%
%ADD45O,1.300000X2.300000*%
%ADD46R,1.600000X1.000000*%
%ADD47R,1.000000X1.600000*%
%ADD48O,1.699260X3.500120*%
%ADD49C,1.200000*%
%ADD50C,1.000000*%
%ADD51C,0.254000*%
G04 APERTURE END LIST*
D10*
D11*
X20447000Y-62611000D03*
X20447000Y-37612320D03*
D12*
X58180000Y-56388000D03*
X53580000Y-56388000D03*
D13*
X20320000Y-30480000D03*
X96520000Y-30480000D03*
D14*
X84074000Y-50474000D03*
X84074000Y-56714000D03*
D15*
X20320000Y-40245000D03*
X20320000Y-44845000D03*
D16*
X90805000Y-52125000D03*
X90805000Y-58365000D03*
D17*
X58496200Y-63500000D03*
X51993800Y-63500000D03*
D18*
X64135000Y-66470000D03*
X64135000Y-63070000D03*
D19*
X92710000Y-37879020D03*
X92710000Y-35780980D03*
X97155000Y-37879020D03*
X97155000Y-35780980D03*
D20*
X50165000Y-19685000D03*
X78105000Y-19685000D03*
D21*
X59055000Y-20955000D03*
D22*
X59055000Y-18415000D03*
D23*
X61595000Y-20955000D03*
X61595000Y-18415000D03*
X64135000Y-20955000D03*
X64135000Y-18415000D03*
D22*
X66675000Y-20955000D03*
X66675000Y-18415000D03*
D23*
X69215000Y-20955000D03*
X69215000Y-18415000D03*
D24*
X44069000Y-22987000D03*
D25*
X41529000Y-22987000D03*
D26*
X77470000Y-63500000D03*
X87630000Y-63500000D03*
D27*
X31242000Y-19431000D03*
D28*
X33782000Y-19431000D03*
X36322000Y-19431000D03*
X38862000Y-19431000D03*
X41402000Y-19431000D03*
X43942000Y-19431000D03*
D29*
X84378800Y-30276800D03*
D30*
X84378800Y-27736800D03*
X86918800Y-30276800D03*
X86918800Y-27736800D03*
X89458800Y-30276800D03*
X89458800Y-27736800D03*
D31*
X21590000Y-20320000D03*
D32*
X19050000Y-17780000D03*
X24130000Y-17780000D03*
X24130000Y-22860000D03*
X19050000Y-22860000D03*
D33*
X92710000Y-42725000D03*
X92710000Y-39825000D03*
X97155000Y-42725000D03*
X97155000Y-39825000D03*
D34*
X59870000Y-25527000D03*
X56970000Y-25527000D03*
X55298000Y-25527000D03*
X52398000Y-25527000D03*
D35*
X62738000Y-59488000D03*
X62738000Y-53288000D03*
D34*
X78052000Y-50546000D03*
X80952000Y-50546000D03*
D33*
X47244000Y-40079000D03*
X47244000Y-42979000D03*
X50292000Y-42979000D03*
X50292000Y-40079000D03*
D34*
X29411000Y-42545000D03*
X32311000Y-42545000D03*
D33*
X35458400Y-37640600D03*
X35458400Y-40540600D03*
D34*
X25220000Y-42545000D03*
X28120000Y-42545000D03*
X47322400Y-55219600D03*
X44422400Y-55219600D03*
X44371600Y-52527200D03*
X47271600Y-52527200D03*
X47068400Y-64541400D03*
X44168400Y-64541400D03*
D33*
X42240200Y-57203000D03*
X42240200Y-54303000D03*
X31496000Y-26490000D03*
X31496000Y-29390000D03*
D36*
X39842440Y-32463740D03*
X35341560Y-32463740D03*
X39842440Y-26464260D03*
X35341560Y-26464260D03*
D37*
X36931600Y-48407400D03*
X35661600Y-48407400D03*
X34391600Y-48407400D03*
X33121600Y-48407400D03*
X31851600Y-48407400D03*
X30581600Y-48407400D03*
X29311600Y-48407400D03*
X28041600Y-48407400D03*
X26771600Y-48407400D03*
X25501600Y-48407400D03*
X24231600Y-48407400D03*
X22834600Y-48407400D03*
X36931600Y-57307400D03*
X35661600Y-57307400D03*
X34391600Y-57307400D03*
X33121600Y-57307400D03*
X31851600Y-57307400D03*
X30581600Y-57307400D03*
X29311600Y-57307400D03*
X28041600Y-57307400D03*
X26771600Y-57307400D03*
X25501600Y-57307400D03*
X24231600Y-57307400D03*
X22961600Y-57307400D03*
D38*
X71534000Y-59817000D03*
X71534000Y-58547000D03*
X71534000Y-57277000D03*
X71534000Y-56007000D03*
X66134000Y-56007000D03*
X66134000Y-57277000D03*
X66134000Y-58547000D03*
X66134000Y-59817000D03*
X70452000Y-49911000D03*
X70452000Y-51181000D03*
X70452000Y-52451000D03*
X70452000Y-53721000D03*
X75852000Y-53721000D03*
X75852000Y-52451000D03*
X75852000Y-51181000D03*
X75852000Y-49911000D03*
D39*
X67335400Y-42621200D03*
X62509400Y-42621200D03*
D40*
X96774000Y-19304000D03*
D41*
X91694000Y-19304000D03*
X86614000Y-19304000D03*
D42*
X46593400Y-57844000D03*
X45943400Y-57844000D03*
X45293400Y-57844000D03*
X44643400Y-57844000D03*
X44643400Y-62044000D03*
X45293400Y-62044000D03*
X45943400Y-62044000D03*
X46593400Y-62044000D03*
D43*
X25146000Y-39878000D03*
X27686000Y-39878000D03*
X30226000Y-39878000D03*
X32766000Y-39878000D03*
X32766000Y-32258000D03*
X30226000Y-32258000D03*
X27686000Y-32258000D03*
X25146000Y-32258000D03*
D24*
X86918800Y-40513000D03*
D25*
X89458800Y-40513000D03*
D27*
X89077800Y-35280600D03*
D28*
X86537800Y-35280600D03*
X83997800Y-35280600D03*
D33*
X74041000Y-39774200D03*
X74041000Y-42674200D03*
D34*
X39550000Y-35433000D03*
X36650000Y-35433000D03*
D44*
X43815000Y-36830000D03*
X46355000Y-36830000D03*
D45*
X48895000Y-36830000D03*
X51435000Y-36830000D03*
X53975000Y-36830000D03*
D44*
X56515000Y-36830000D03*
X59055000Y-36830000D03*
X61595000Y-36830000D03*
D45*
X64135000Y-36830000D03*
X66675000Y-36830000D03*
D44*
X69215000Y-36830000D03*
X71755000Y-36830000D03*
X74295000Y-36830000D03*
X76835000Y-36830000D03*
X76835000Y-29210000D03*
X74295000Y-29210000D03*
X71755000Y-29210000D03*
X69215000Y-29210000D03*
X66675000Y-29210000D03*
X64135000Y-29210000D03*
X61595000Y-29210000D03*
X59055000Y-29210000D03*
X56515000Y-29210000D03*
X53975000Y-29210000D03*
X51435000Y-29210000D03*
X48895000Y-29210000D03*
X46355000Y-29210000D03*
X43815000Y-29210000D03*
D46*
X31496000Y-21741000D03*
X31496000Y-24741000D03*
X66040000Y-53824000D03*
X66040000Y-50824000D03*
D47*
X79224000Y-48006000D03*
X76224000Y-48006000D03*
D46*
X58039000Y-40156000D03*
X58039000Y-43156000D03*
X71704200Y-39724200D03*
X71704200Y-42724200D03*
X55880000Y-40156000D03*
X55880000Y-43156000D03*
X78486000Y-56618000D03*
X78486000Y-53618000D03*
D47*
X35561400Y-46278800D03*
X32561400Y-46278800D03*
D34*
X71194000Y-47752000D03*
X74094000Y-47752000D03*
D48*
X71120000Y-66040000D03*
X73660000Y-66040000D03*
X68580000Y-66040000D03*
X93980000Y-46990000D03*
X91440000Y-46990000D03*
X96520000Y-46990000D03*
D49*
X69723000Y-40513000D03*
X26797000Y-46355000D03*
X30607000Y-46482000D03*
X40259000Y-48895000D03*
X73787000Y-54737000D03*
X64262000Y-51308000D03*
X62738000Y-51308000D03*
X64262000Y-49784000D03*
X61214000Y-51308000D03*
X61214000Y-49784000D03*
X62738000Y-49784000D03*
X51562000Y-56642000D03*
X52070000Y-42672000D03*
X92710000Y-34036000D03*
X90678000Y-49784000D03*
X51562000Y-60960000D03*
X50546000Y-60960000D03*
X52578000Y-60960000D03*
X51562000Y-65786000D03*
X50546000Y-65786000D03*
X52578000Y-65786000D03*
X47244000Y-66294000D03*
X52832000Y-22479000D03*
X60325000Y-23495000D03*
X57785000Y-31115000D03*
X36931600Y-46609000D03*
X28016200Y-45059600D03*
X33604200Y-26035000D03*
D50*
X84429600Y-25191720D03*
D49*
X98907600Y-42748200D03*
X58420000Y-45720000D03*
X69342000Y-47244000D03*
X75514200Y-39827200D03*
X69723000Y-42799000D03*
X34798000Y-22987000D03*
D50*
X49276000Y-63500000D03*
D49*
X42926000Y-63500000D03*
X56388000Y-32258000D03*
X65405000Y-32131000D03*
X41656000Y-37338000D03*
X71755000Y-33909000D03*
X41148000Y-35433000D03*
X74295000Y-33782000D03*
X76454000Y-44450000D03*
X68580000Y-49022000D03*
X30480000Y-52070000D03*
X72898000Y-51562000D03*
X79502000Y-45212000D03*
X25654000Y-53340000D03*
X33147000Y-29540200D03*
X53975000Y-32131000D03*
X50419000Y-32131000D03*
X30175200Y-38100000D03*
X50165000Y-38506400D03*
D51*
X70511800Y-39724200D02*
X71704200Y-39724200D01*
X69723000Y-40513000D02*
X70511800Y-39724200D01*
X24815800Y-46583600D02*
X26568400Y-46583600D01*
X26568400Y-46583600D02*
X26797000Y-46355000D01*
X32561400Y-46278800D02*
X30810200Y-46278800D01*
X30810200Y-46278800D02*
X30607000Y-46482000D01*
X70452000Y-53721000D02*
X72771000Y-53721000D01*
X72771000Y-53721000D02*
X73787000Y-54737000D01*
X64262000Y-51308000D02*
X65556000Y-51308000D01*
X65556000Y-51308000D02*
X66040000Y-50824000D01*
X66134000Y-57277000D02*
X64643000Y-57277000D01*
X62738000Y-55372000D02*
X62738000Y-53288000D01*
X64643000Y-57277000D02*
X62738000Y-55372000D01*
X66134000Y-58547000D02*
X66134000Y-57277000D01*
X64262000Y-49784000D02*
X64262000Y-51308000D01*
X64262000Y-51308000D02*
X62738000Y-51308000D01*
X62738000Y-51308000D02*
X62738000Y-53288000D01*
X61214000Y-49784000D02*
X61214000Y-51308000D01*
X61214000Y-51308000D02*
X62738000Y-51308000D01*
X62738000Y-51308000D02*
X62738000Y-49784000D01*
X53580000Y-56388000D02*
X51816000Y-56388000D01*
X51816000Y-56388000D02*
X51562000Y-56642000D01*
X50599000Y-42672000D02*
X52070000Y-42672000D01*
X50599000Y-42672000D02*
X50292000Y-42979000D01*
X32561400Y-46278800D02*
X31064200Y-46278800D01*
X31064200Y-46278800D02*
X30734000Y-46609000D01*
X86614000Y-19304000D02*
X86614000Y-19685000D01*
X86614000Y-19685000D02*
X82423000Y-23876000D01*
X83489800Y-30276800D02*
X84378800Y-30276800D01*
X82423000Y-29210000D02*
X83489800Y-30276800D01*
X82423000Y-23876000D02*
X82423000Y-29210000D01*
X92710000Y-35780980D02*
X92710000Y-34036000D01*
X58039000Y-40156000D02*
X59412000Y-40156000D01*
X59412000Y-40156000D02*
X61595000Y-37973000D01*
X61595000Y-37973000D02*
X61595000Y-36830000D01*
X55880000Y-40156000D02*
X58039000Y-40156000D01*
X90805000Y-52125000D02*
X90805000Y-49911000D01*
X90805000Y-49911000D02*
X90678000Y-49784000D01*
X51562000Y-60960000D02*
X50546000Y-60960000D01*
X52578000Y-60960000D02*
X51562000Y-60960000D01*
X51612800Y-61010800D02*
X51562000Y-60960000D01*
X51612800Y-61010800D02*
X51612800Y-63500000D01*
X51562000Y-65786000D02*
X50546000Y-65786000D01*
X52578000Y-65786000D02*
X51562000Y-65786000D01*
X51612800Y-65735200D02*
X51562000Y-65786000D01*
X51612800Y-65735200D02*
X51612800Y-63500000D01*
X47068400Y-64541400D02*
X47068400Y-66118400D01*
X47068400Y-66118400D02*
X47244000Y-66294000D01*
X20320000Y-30480000D02*
X20320000Y-32359600D01*
X24231600Y-48407400D02*
X24231600Y-47040800D01*
X24688800Y-46583600D02*
X24815800Y-46583600D01*
X24231600Y-47040800D02*
X24688800Y-46583600D01*
X22961600Y-57307400D02*
X24231600Y-57307400D01*
X47068400Y-64541400D02*
X47068400Y-64844000D01*
X47068400Y-64541400D02*
X47068400Y-62519000D01*
X47068400Y-62519000D02*
X46593400Y-62044000D01*
X35458400Y-37640600D02*
X35458400Y-32580580D01*
X35458400Y-32580580D02*
X35341560Y-32463740D01*
X59055000Y-29210000D02*
X59156600Y-29210000D01*
X59156600Y-29210000D02*
X61595000Y-31648400D01*
X61595000Y-31648400D02*
X61595000Y-36830000D01*
X61595000Y-20955000D02*
X61595000Y-26670000D01*
X61595000Y-26670000D02*
X59055000Y-29210000D01*
X24130000Y-17780000D02*
X30124400Y-17780000D01*
X41554400Y-17043400D02*
X43942000Y-19431000D01*
X30861000Y-17043400D02*
X41554400Y-17043400D01*
X30124400Y-17780000D02*
X30861000Y-17043400D01*
X20320000Y-30480000D02*
X20320000Y-25908000D01*
X19050000Y-24638000D02*
X19050000Y-22860000D01*
X20320000Y-25908000D02*
X19050000Y-24638000D01*
X24130000Y-17780000D02*
X24130000Y-22860000D01*
X19050000Y-17780000D02*
X19050000Y-22860000D01*
X19050000Y-17780000D02*
X24130000Y-17780000D01*
X86614000Y-19304000D02*
X87706200Y-19304000D01*
X84378800Y-30276800D02*
X84378800Y-30581600D01*
X84378800Y-30581600D02*
X89077800Y-35280600D01*
X35341560Y-26464260D02*
X35341560Y-32463740D01*
X97155000Y-35780980D02*
X97155000Y-31115000D01*
X97155000Y-31115000D02*
X96520000Y-30480000D01*
X89820000Y-53110000D02*
X90805000Y-52125000D01*
X92489020Y-35560000D02*
X92710000Y-35780980D01*
X86537800Y-35280600D02*
X86537800Y-36271200D01*
X86537800Y-36271200D02*
X83947000Y-38862000D01*
X83947000Y-38862000D02*
X83947000Y-46482000D01*
X76224000Y-48006000D02*
X76224000Y-47982000D01*
X76224000Y-47982000D02*
X77724000Y-46482000D01*
X90117000Y-42725000D02*
X92710000Y-42725000D01*
X86360000Y-46482000D02*
X90117000Y-42725000D01*
X77724000Y-46482000D02*
X83947000Y-46482000D01*
X83947000Y-46482000D02*
X86360000Y-46482000D01*
X76224000Y-48006000D02*
X76224000Y-49539000D01*
X76224000Y-49539000D02*
X75852000Y-49911000D01*
X28120000Y-42545000D02*
X29411000Y-42545000D01*
X54406800Y-41200200D02*
X54406800Y-41682800D01*
X58166000Y-38633400D02*
X54922024Y-38633400D01*
X54922024Y-38633400D02*
X54406800Y-39148624D01*
X54406800Y-39148624D02*
X54406800Y-41200200D01*
X59055000Y-37744400D02*
X58166000Y-38633400D01*
X54406800Y-41682800D02*
X55880000Y-43156000D01*
X59870000Y-25527000D02*
X59870000Y-23950000D01*
X59870000Y-23950000D02*
X60325000Y-23495000D01*
X52832000Y-22479000D02*
X52768500Y-22415500D01*
X52768500Y-22415500D02*
X52832000Y-22479000D01*
X52832000Y-22479000D02*
X52832000Y-22352000D01*
X59055000Y-36830000D02*
X59055000Y-32385000D01*
X59055000Y-32385000D02*
X57785000Y-31115000D01*
X55298000Y-25527000D02*
X55298000Y-26215000D01*
X55298000Y-26215000D02*
X56261000Y-27178000D01*
X58219000Y-27178000D02*
X59870000Y-25527000D01*
X56261000Y-27178000D02*
X58219000Y-27178000D01*
X29436400Y-43639400D02*
X29436400Y-43660400D01*
X37160200Y-41198800D02*
X37160200Y-35867000D01*
X32893000Y-44069000D02*
X35052000Y-41910000D01*
X35052000Y-41910000D02*
X36449000Y-41910000D01*
X36449000Y-41910000D02*
X37160200Y-41198800D01*
X29845000Y-44069000D02*
X32893000Y-44069000D01*
X29436400Y-43660400D02*
X29845000Y-44069000D01*
X29436400Y-42722800D02*
X29436400Y-43639400D01*
X36601400Y-46278800D02*
X35561400Y-46278800D01*
X36931600Y-46609000D02*
X36601400Y-46278800D01*
X29436400Y-43639400D02*
X28016200Y-45059600D01*
X35661600Y-48407400D02*
X35661600Y-46302800D01*
X35661600Y-46302800D02*
X35536000Y-46177200D01*
X59055000Y-36830000D02*
X59055000Y-37744400D01*
X29436400Y-42722800D02*
X29436400Y-43558800D01*
X37160200Y-35867000D02*
X36726200Y-35433000D01*
X33604200Y-26035000D02*
X33655000Y-26035000D01*
X36726200Y-25804200D02*
X36726200Y-35433000D01*
X36068000Y-25146000D02*
X36726200Y-25804200D01*
X34544000Y-25146000D02*
X36068000Y-25146000D01*
X33655000Y-26035000D02*
X34544000Y-25146000D01*
X64135000Y-29210000D02*
X64135000Y-23088600D01*
X60355480Y-17114520D02*
X59055000Y-18415000D01*
X62301120Y-17114520D02*
X60355480Y-17114520D01*
X62865000Y-17678400D02*
X62301120Y-17114520D01*
X62865000Y-21818600D02*
X62865000Y-17678400D01*
X64135000Y-23088600D02*
X62865000Y-21818600D01*
X59055000Y-36830000D02*
X59055000Y-36880800D01*
X58826400Y-36601400D02*
X59055000Y-36830000D01*
X31496000Y-26490000D02*
X33149200Y-26490000D01*
X33149200Y-26490000D02*
X33604200Y-26035000D01*
X89458800Y-30276800D02*
X89458800Y-32181800D01*
X87960200Y-37053520D02*
X86362540Y-35455860D01*
X90175080Y-37053520D02*
X87960200Y-37053520D01*
X90551000Y-36677600D02*
X90175080Y-37053520D01*
X90551000Y-33274000D02*
X90551000Y-36677600D01*
X89458800Y-32181800D02*
X90551000Y-33274000D01*
X89458800Y-30276800D02*
X89509600Y-30276800D01*
X89509600Y-30276800D02*
X91694000Y-28092400D01*
X91694000Y-28092400D02*
X91694000Y-19304000D01*
X92710000Y-42725000D02*
X92072800Y-42725000D01*
X44069000Y-22987000D02*
X52197000Y-22987000D01*
X52197000Y-22987000D02*
X52832000Y-22352000D01*
X52832000Y-22352000D02*
X56769000Y-18415000D01*
X56769000Y-18415000D02*
X59055000Y-18415000D01*
X55298000Y-25527000D02*
X55298000Y-26088000D01*
X31242000Y-19431000D02*
X31242000Y-21487000D01*
X31242000Y-21487000D02*
X31496000Y-21741000D01*
X84378800Y-25242520D02*
X84378800Y-27736800D01*
X84429600Y-25191720D02*
X84378800Y-25242520D01*
X39842440Y-32463740D02*
X40845740Y-32463740D01*
X43815000Y-35433000D02*
X43815000Y-36830000D01*
X40845740Y-32463740D02*
X43815000Y-35433000D01*
X36806000Y-24741000D02*
X36322000Y-24257000D01*
X36806000Y-24741000D02*
X38529260Y-26464260D01*
X39842440Y-26464260D02*
X38529260Y-26464260D01*
X36322000Y-24257000D02*
X31980000Y-24257000D01*
X31980000Y-24257000D02*
X31496000Y-24741000D01*
X39842440Y-32463740D02*
X39842440Y-35216760D01*
X39842440Y-35216760D02*
X39626200Y-35433000D01*
X39842440Y-32463740D02*
X39842440Y-32476440D01*
X39842440Y-26464260D02*
X39842440Y-32463740D01*
X25501600Y-57307400D02*
X25501600Y-55803800D01*
X20320000Y-50622200D02*
X20320000Y-44845000D01*
X25501600Y-55803800D02*
X20320000Y-50622200D01*
X26771600Y-57307400D02*
X25501600Y-57307400D01*
X26771600Y-57307400D02*
X28041600Y-57307400D01*
X29311600Y-57307400D02*
X28041600Y-57307400D01*
X30581600Y-57307400D02*
X29311600Y-57307400D01*
X31851600Y-57307400D02*
X30581600Y-57307400D01*
X33121600Y-57307400D02*
X31851600Y-57307400D01*
X34391600Y-57307400D02*
X33121600Y-57307400D01*
X20320000Y-44845000D02*
X21477000Y-44845000D01*
X66134000Y-56007000D02*
X66134000Y-53918000D01*
X66134000Y-53918000D02*
X66040000Y-53824000D01*
X97155000Y-42725000D02*
X98884400Y-42725000D01*
X98884400Y-42725000D02*
X98907600Y-42748200D01*
X96774000Y-19304000D02*
X96774000Y-24638000D01*
X99314000Y-40566000D02*
X97155000Y-42725000D01*
X99314000Y-27178000D02*
X99314000Y-40566000D01*
X96774000Y-24638000D02*
X99314000Y-27178000D01*
X71194000Y-47752000D02*
X69850000Y-47752000D01*
X58180000Y-45960000D02*
X58180000Y-56388000D01*
X58420000Y-45720000D02*
X58180000Y-45960000D01*
X69850000Y-47752000D02*
X69342000Y-47244000D01*
X47244000Y-42979000D02*
X47244000Y-52499600D01*
X47244000Y-52499600D02*
X47271600Y-52527200D01*
X47244000Y-52499600D02*
X47271600Y-52527200D01*
X47322400Y-55219600D02*
X47322400Y-52578000D01*
X47322400Y-52578000D02*
X47271600Y-52527200D01*
X47322400Y-55219600D02*
X47322400Y-57115000D01*
X47322400Y-57115000D02*
X46593400Y-57844000D01*
X58115200Y-63500000D02*
X57404000Y-63500000D01*
X57404000Y-63500000D02*
X53086000Y-67818000D01*
X48107600Y-59358200D02*
X46593400Y-57844000D01*
X48107600Y-65252600D02*
X48107600Y-59358200D01*
X50673000Y-67818000D02*
X48107600Y-65252600D01*
X53086000Y-67818000D02*
X50673000Y-67818000D01*
X64135000Y-63070000D02*
X58545200Y-63070000D01*
X58545200Y-63070000D02*
X58115200Y-63500000D01*
X62509400Y-42621200D02*
X58573800Y-42621200D01*
X58573800Y-42621200D02*
X58039000Y-43156000D01*
X74041000Y-39774200D02*
X75461200Y-39774200D01*
X75461200Y-39774200D02*
X75514200Y-39827200D01*
X64135000Y-36830000D02*
X64135000Y-40995600D01*
X64135000Y-40995600D02*
X62509400Y-42621200D01*
X62482600Y-42648000D02*
X62509400Y-42621200D01*
X71704200Y-42724200D02*
X69797800Y-42724200D01*
X69797800Y-42724200D02*
X69723000Y-42799000D01*
X66675000Y-36830000D02*
X66675000Y-41960800D01*
X66675000Y-41960800D02*
X67335400Y-42621200D01*
X71704200Y-42724200D02*
X73991000Y-42724200D01*
X73991000Y-42724200D02*
X74041000Y-42674200D01*
X67438400Y-42724200D02*
X67335400Y-42621200D01*
X71120000Y-66040000D02*
X71120000Y-67818000D01*
X77470000Y-67564000D02*
X77470000Y-63500000D01*
X76200000Y-68834000D02*
X77470000Y-67564000D01*
X72136000Y-68834000D02*
X76200000Y-68834000D01*
X71120000Y-67818000D02*
X72136000Y-68834000D01*
X71120000Y-66040000D02*
X71120000Y-67564000D01*
X71120000Y-67564000D02*
X69596000Y-69088000D01*
X66753000Y-69088000D02*
X64135000Y-66470000D01*
X69596000Y-69088000D02*
X66753000Y-69088000D01*
X71120000Y-66040000D02*
X71120000Y-65468500D01*
X46355000Y-35623500D02*
X41783000Y-31051500D01*
X41783000Y-31051500D02*
X41783000Y-26562924D01*
X41783000Y-26562924D02*
X40048578Y-24828502D01*
X40048578Y-24828502D02*
X38290502Y-24828502D01*
X46355000Y-35623500D02*
X46355000Y-36830000D01*
X37909502Y-24828502D02*
X38290502Y-24828502D01*
X36322000Y-23241000D02*
X37909502Y-24828502D01*
X35052000Y-23241000D02*
X36322000Y-23241000D01*
X34798000Y-22987000D02*
X35052000Y-23241000D01*
X46355000Y-36830000D02*
X46355000Y-36449000D01*
X33782000Y-19431000D02*
X33909000Y-19431000D01*
X33909000Y-19431000D02*
X37655500Y-23177500D01*
X37655500Y-23177500D02*
X39497000Y-23177500D01*
X39497000Y-23177500D02*
X42481500Y-26162000D01*
X42481500Y-26162000D02*
X42481500Y-30353000D01*
X42481500Y-30353000D02*
X48895000Y-36766500D01*
X48895000Y-36766500D02*
X48895000Y-36830000D01*
X48895000Y-36830000D02*
X48895000Y-35941000D01*
X53975000Y-36830000D02*
X53975000Y-38100000D01*
X52832000Y-52832000D02*
X49022000Y-56642000D01*
X49022000Y-56642000D02*
X49022000Y-63500000D01*
X53213000Y-52451000D02*
X52832000Y-52832000D01*
X53213000Y-38862000D02*
X53213000Y-52451000D01*
X53975000Y-38100000D02*
X53213000Y-38862000D01*
X49276000Y-63500000D02*
X49022000Y-63500000D01*
X42926000Y-63500000D02*
X43967400Y-64541400D01*
X43967400Y-64541400D02*
X44168400Y-64541400D01*
X44168400Y-64541400D02*
X44168400Y-64340400D01*
X44168400Y-64340400D02*
X45293400Y-63215400D01*
X45293400Y-63215400D02*
X45293400Y-62044000D01*
X51435000Y-29210000D02*
X51435000Y-31597600D01*
X51435000Y-31597600D02*
X53975000Y-34137600D01*
X53975000Y-34137600D02*
X53975000Y-36830000D01*
X65405000Y-47625000D02*
X65405000Y-32131000D01*
X70231000Y-56007000D02*
X67818000Y-53594000D01*
X67818000Y-53594000D02*
X67818000Y-50038000D01*
X71534000Y-56007000D02*
X70231000Y-56007000D01*
X56515000Y-32385000D02*
X56388000Y-32258000D01*
X56515000Y-32385000D02*
X56515000Y-36830000D01*
X67818000Y-50038000D02*
X65405000Y-47625000D01*
X39370000Y-39624000D02*
X39370000Y-41656000D01*
X41656000Y-37338000D02*
X39370000Y-39624000D01*
X33909000Y-46990000D02*
X33909000Y-45593000D01*
X33909000Y-46990000D02*
X33121600Y-47777400D01*
X37211000Y-43815000D02*
X39370000Y-41656000D01*
X35687000Y-43815000D02*
X37211000Y-43815000D01*
X33909000Y-45593000D02*
X35687000Y-43815000D01*
X71755000Y-34107120D02*
X71785480Y-34076640D01*
X71755000Y-36830000D02*
X71755000Y-34107120D01*
X33121600Y-47777400D02*
X33121600Y-48407400D01*
X41148000Y-35433000D02*
X41148000Y-36195000D01*
X29311600Y-46431200D02*
X29311600Y-45872400D01*
X29311600Y-48407400D02*
X29311600Y-46431200D01*
X30353000Y-44831000D02*
X33401000Y-44831000D01*
X29311600Y-45872400D02*
X30353000Y-44831000D01*
X38481000Y-38862000D02*
X38481000Y-41021000D01*
X36703000Y-42799000D02*
X35433000Y-42799000D01*
X35433000Y-42799000D02*
X33401000Y-44831000D01*
X38481000Y-41021000D02*
X36703000Y-42799000D01*
X38481000Y-38862000D02*
X41148000Y-36195000D01*
X74295000Y-33782000D02*
X74295000Y-36830000D01*
X76835000Y-44069000D02*
X76835000Y-36830000D01*
X76454000Y-44450000D02*
X76835000Y-44069000D01*
X70452000Y-51181000D02*
X69723000Y-51181000D01*
X69723000Y-51181000D02*
X68580000Y-50038000D01*
X68580000Y-50038000D02*
X68580000Y-49022000D01*
X30480000Y-52070000D02*
X30581600Y-51968400D01*
X30581600Y-51968400D02*
X30581600Y-48407400D01*
X76708000Y-36957000D02*
X76835000Y-36830000D01*
X70452000Y-52451000D02*
X72009000Y-52451000D01*
X72009000Y-52451000D02*
X72898000Y-51562000D01*
X79756000Y-32131000D02*
X76835000Y-29210000D01*
X79756000Y-44958000D02*
X79756000Y-32131000D01*
X79502000Y-45212000D02*
X79756000Y-44958000D01*
X25501600Y-53187600D02*
X25501600Y-48407400D01*
X25654000Y-53340000D02*
X25501600Y-53187600D01*
X72644000Y-46736000D02*
X72644000Y-46482000D01*
X74295000Y-29210000D02*
X78486000Y-33401000D01*
X78486000Y-40894000D02*
X78486000Y-33401000D01*
X72644000Y-49022000D02*
X72644000Y-46736000D01*
X71755000Y-49911000D02*
X72644000Y-49022000D01*
X71755000Y-49911000D02*
X70452000Y-49911000D01*
X78486000Y-44196000D02*
X78486000Y-40894000D01*
X76962000Y-45720000D02*
X78486000Y-44196000D01*
X73406000Y-45720000D02*
X76962000Y-45720000D01*
X72644000Y-46482000D02*
X73406000Y-45720000D01*
X66675000Y-18415000D02*
X66802000Y-18415000D01*
X66802000Y-18415000D02*
X68072000Y-19685000D01*
X68072000Y-19685000D02*
X69723000Y-19685000D01*
X69723000Y-19685000D02*
X71755000Y-21717000D01*
X71755000Y-21717000D02*
X71755000Y-29210000D01*
X69215000Y-20955000D02*
X69215000Y-29210000D01*
X66675000Y-20955000D02*
X66675000Y-29210000D01*
X33147000Y-29540200D02*
X32996800Y-29390000D01*
X32996800Y-29390000D02*
X31496000Y-29390000D01*
X32766000Y-32258000D02*
X32766000Y-30660000D01*
X32766000Y-30660000D02*
X31496000Y-29390000D01*
X53975000Y-32131000D02*
X53975000Y-29210000D01*
X52705000Y-34417000D02*
X50419000Y-32131000D01*
X52578000Y-38100000D02*
X50980000Y-39698000D01*
X52705000Y-37973000D02*
X52578000Y-38100000D01*
X52705000Y-34417000D02*
X52705000Y-37973000D01*
X47244000Y-40079000D02*
X50292000Y-40079000D01*
X50292000Y-39698000D02*
X50980000Y-39698000D01*
X32336400Y-42722800D02*
X32054800Y-42722800D01*
X32054800Y-42722800D02*
X30226000Y-40894000D01*
X30226000Y-40894000D02*
X30226000Y-39878000D01*
X48895000Y-29210000D02*
X48895000Y-33934400D01*
X29057600Y-39217600D02*
X29057600Y-39878000D01*
X30175200Y-38100000D02*
X29057600Y-39217600D01*
X50165000Y-35204400D02*
X50165000Y-38506400D01*
X48895000Y-33934400D02*
X50165000Y-35204400D01*
X30226000Y-39878000D02*
X29057600Y-39878000D01*
X29057600Y-39878000D02*
X27686000Y-39878000D01*
X56970000Y-25527000D02*
X56970000Y-24204000D01*
X48514000Y-27051000D02*
X46355000Y-29210000D01*
X53213000Y-27051000D02*
X48514000Y-27051000D01*
X53848000Y-26416000D02*
X53213000Y-27051000D01*
X53848000Y-24892000D02*
X53848000Y-26416000D01*
X54864000Y-23876000D02*
X53848000Y-24892000D01*
X56642000Y-23876000D02*
X54864000Y-23876000D01*
X56970000Y-24204000D02*
X56642000Y-23876000D01*
X56970000Y-25527000D02*
X56970000Y-25961000D01*
X59055000Y-20955000D02*
X59055000Y-23442000D01*
X59055000Y-23442000D02*
X56970000Y-25527000D01*
X61595000Y-18415000D02*
X61587380Y-18415000D01*
X61587380Y-18415000D02*
X60289440Y-19712940D01*
X60289440Y-19712940D02*
X57757060Y-19712940D01*
X52398000Y-25527000D02*
X52398000Y-25072000D01*
X52398000Y-25072000D02*
X57757060Y-19712940D01*
X52398000Y-25527000D02*
X47498000Y-25527000D01*
X47498000Y-25527000D02*
X43815000Y-29210000D01*
X61595000Y-18415000D02*
X61722000Y-18415000D01*
X41529000Y-22987000D02*
X40830500Y-22987000D01*
X40830500Y-22987000D02*
X38862000Y-21018500D01*
X38862000Y-21018500D02*
X38862000Y-19431000D01*
X27686000Y-32258000D02*
X30226000Y-32258000D01*
X21590000Y-20320000D02*
X21590000Y-23939500D01*
X27686000Y-30035500D02*
X27686000Y-32258000D01*
X21590000Y-23939500D02*
X27686000Y-30035500D01*
X71534000Y-59817000D02*
X71534000Y-59977000D01*
X71534000Y-59977000D02*
X73660000Y-62103000D01*
X73660000Y-62103000D02*
X73660000Y-66040000D01*
X71534000Y-59817000D02*
X71882000Y-59817000D01*
X66134000Y-59817000D02*
X66548000Y-59817000D01*
X66548000Y-59817000D02*
X68580000Y-61849000D01*
X68580000Y-61849000D02*
X68580000Y-66040000D01*
X66134000Y-59817000D02*
X63067000Y-59817000D01*
X63067000Y-59817000D02*
X62738000Y-59488000D01*
X68453000Y-65913000D02*
X68580000Y-66040000D01*
X75852000Y-51181000D02*
X77417000Y-51181000D01*
X77417000Y-51181000D02*
X78052000Y-50546000D01*
X75852000Y-52451000D02*
X75852000Y-51181000D01*
X32766000Y-39878000D02*
X34795800Y-39878000D01*
X34795800Y-39878000D02*
X35458400Y-40540600D01*
X25146000Y-39878000D02*
X25146000Y-42699600D01*
X25146000Y-42699600D02*
X25169200Y-42722800D01*
X45943400Y-57844000D02*
X45943400Y-56740600D01*
X45943400Y-56740600D02*
X44422400Y-55219600D01*
X42240200Y-54303000D02*
X39936000Y-54303000D01*
X39936000Y-54303000D02*
X36931600Y-57307400D01*
X35661600Y-57307400D02*
X36931600Y-57307400D01*
X42240200Y-54303000D02*
X42595800Y-54303000D01*
X42595800Y-54303000D02*
X44371600Y-52527200D01*
X42240200Y-54051200D02*
X42240200Y-54303000D01*
X43434000Y-59182000D02*
X44729400Y-59182000D01*
X44729400Y-59182000D02*
X45293400Y-58618000D01*
X42240200Y-57203000D02*
X42240200Y-57988200D01*
X42240200Y-57988200D02*
X43434000Y-59182000D01*
X45293400Y-58618000D02*
X45293400Y-57844000D01*
X93980000Y-46990000D02*
X93980000Y-46228000D01*
X93980000Y-47434500D02*
X93980000Y-46990000D01*
X92710000Y-37879020D02*
X92710000Y-39825000D01*
X97155000Y-37879020D02*
X97155000Y-39825000D01*
X20447000Y-37612320D02*
X20447000Y-40118000D01*
X20447000Y-40118000D02*
X20320000Y-40245000D01*
X20447000Y-37612320D02*
X23601680Y-37612320D01*
X25146000Y-36068000D02*
X25146000Y-32258000D01*
X23601680Y-37612320D02*
X25146000Y-36068000D01*
X74094000Y-47752000D02*
X74094000Y-53012000D01*
X74803000Y-53721000D02*
X75852000Y-53721000D01*
X74094000Y-53012000D02*
X74803000Y-53721000D01*
X71534000Y-57277000D02*
X72898000Y-57277000D01*
X75852000Y-54323000D02*
X75852000Y-53721000D01*
X72898000Y-57277000D02*
X75852000Y-54323000D01*
G36*
X99250500Y-70548500D02*
X80264000Y-70548500D01*
X80264000Y-63785750D01*
X85495130Y-63785750D01*
X85495130Y-65126180D01*
X85591803Y-65359569D01*
X85770432Y-65538197D01*
X86003821Y-65634870D01*
X87344250Y-65634870D01*
X87503000Y-65476120D01*
X87503000Y-63627000D01*
X87757000Y-63627000D01*
X87757000Y-65476120D01*
X87915750Y-65634870D01*
X89256179Y-65634870D01*
X89489568Y-65538197D01*
X89668197Y-65359569D01*
X89764870Y-65126180D01*
X89764870Y-63785750D01*
X89606120Y-63627000D01*
X87757000Y-63627000D01*
X87503000Y-63627000D01*
X85653880Y-63627000D01*
X85495130Y-63785750D01*
X80264000Y-63785750D01*
X80264000Y-61873820D01*
X85495130Y-61873820D01*
X85495130Y-63214250D01*
X85653880Y-63373000D01*
X87503000Y-63373000D01*
X87503000Y-61523880D01*
X87757000Y-61523880D01*
X87757000Y-63373000D01*
X89606120Y-63373000D01*
X89764870Y-63214250D01*
X89764870Y-61873820D01*
X89668197Y-61640431D01*
X89489568Y-61461803D01*
X89256179Y-61365130D01*
X87915750Y-61365130D01*
X87757000Y-61523880D01*
X87503000Y-61523880D01*
X87344250Y-61365130D01*
X86003821Y-61365130D01*
X85770432Y-61461803D01*
X85591803Y-61640431D01*
X85495130Y-61873820D01*
X80264000Y-61873820D01*
X80264000Y-60706000D01*
X80253994Y-60656590D01*
X80225553Y-60614965D01*
X80183159Y-60587685D01*
X80137000Y-60579000D01*
X75565000Y-60579000D01*
X75565000Y-59309000D01*
X75554994Y-59259590D01*
X75526553Y-59217965D01*
X75484159Y-59190685D01*
X75438000Y-59182000D01*
X72857558Y-59182000D01*
X72944000Y-58973310D01*
X72944000Y-58832750D01*
X72785250Y-58674000D01*
X71661000Y-58674000D01*
X71661000Y-58694000D01*
X71407000Y-58694000D01*
X71407000Y-58674000D01*
X71387000Y-58674000D01*
X71387000Y-58650750D01*
X88105000Y-58650750D01*
X88105000Y-59676309D01*
X88201673Y-59909698D01*
X88380301Y-60088327D01*
X88613690Y-60185000D01*
X90519250Y-60185000D01*
X90678000Y-60026250D01*
X90678000Y-58492000D01*
X90932000Y-58492000D01*
X90932000Y-60026250D01*
X91090750Y-60185000D01*
X92996310Y-60185000D01*
X93229699Y-60088327D01*
X93408327Y-59909698D01*
X93505000Y-59676309D01*
X93505000Y-58650750D01*
X93346250Y-58492000D01*
X90932000Y-58492000D01*
X90678000Y-58492000D01*
X88263750Y-58492000D01*
X88105000Y-58650750D01*
X71387000Y-58650750D01*
X71387000Y-58420000D01*
X71407000Y-58420000D01*
X71407000Y-58400000D01*
X71661000Y-58400000D01*
X71661000Y-58420000D01*
X72785250Y-58420000D01*
X72944000Y-58261250D01*
X72944000Y-58120690D01*
X72909237Y-58036765D01*
X73189605Y-57980996D01*
X73436815Y-57815815D01*
X74348880Y-56903750D01*
X77051000Y-56903750D01*
X77051000Y-57244309D01*
X77147673Y-57477698D01*
X77326301Y-57656327D01*
X77559690Y-57753000D01*
X78200250Y-57753000D01*
X78359000Y-57594250D01*
X78359000Y-56745000D01*
X78613000Y-56745000D01*
X78613000Y-57594250D01*
X78771750Y-57753000D01*
X79412310Y-57753000D01*
X79645699Y-57656327D01*
X79824327Y-57477698D01*
X79921000Y-57244309D01*
X79921000Y-56999750D01*
X82224000Y-56999750D01*
X82224000Y-58025309D01*
X82320673Y-58258698D01*
X82499301Y-58437327D01*
X82732690Y-58534000D01*
X83788250Y-58534000D01*
X83947000Y-58375250D01*
X83947000Y-56841000D01*
X84201000Y-56841000D01*
X84201000Y-58375250D01*
X84359750Y-58534000D01*
X85415310Y-58534000D01*
X85648699Y-58437327D01*
X85827327Y-58258698D01*
X85924000Y-58025309D01*
X85924000Y-57053691D01*
X88105000Y-57053691D01*
X88105000Y-58079250D01*
X88263750Y-58238000D01*
X90678000Y-58238000D01*
X90678000Y-56703750D01*
X90932000Y-56703750D01*
X90932000Y-58238000D01*
X93346250Y-58238000D01*
X93505000Y-58079250D01*
X93505000Y-57053691D01*
X93408327Y-56820302D01*
X93229699Y-56641673D01*
X92996310Y-56545000D01*
X91090750Y-56545000D01*
X90932000Y-56703750D01*
X90678000Y-56703750D01*
X90519250Y-56545000D01*
X88613690Y-56545000D01*
X88380301Y-56641673D01*
X88201673Y-56820302D01*
X88105000Y-57053691D01*
X85924000Y-57053691D01*
X85924000Y-56999750D01*
X85765250Y-56841000D01*
X84201000Y-56841000D01*
X83947000Y-56841000D01*
X82382750Y-56841000D01*
X82224000Y-56999750D01*
X79921000Y-56999750D01*
X79921000Y-56903750D01*
X79762250Y-56745000D01*
X78613000Y-56745000D01*
X78359000Y-56745000D01*
X77209750Y-56745000D01*
X77051000Y-56903750D01*
X74348880Y-56903750D01*
X75260939Y-55991691D01*
X77051000Y-55991691D01*
X77051000Y-56332250D01*
X77209750Y-56491000D01*
X78359000Y-56491000D01*
X78359000Y-55641750D01*
X78613000Y-55641750D01*
X78613000Y-56491000D01*
X79762250Y-56491000D01*
X79921000Y-56332250D01*
X79921000Y-55991691D01*
X79824327Y-55758302D01*
X79645699Y-55579673D01*
X79412310Y-55483000D01*
X78771750Y-55483000D01*
X78613000Y-55641750D01*
X78359000Y-55641750D01*
X78200250Y-55483000D01*
X77559690Y-55483000D01*
X77326301Y-55579673D01*
X77147673Y-55758302D01*
X77051000Y-55991691D01*
X75260939Y-55991691D01*
X76007630Y-55245000D01*
X82289318Y-55245000D01*
X82224000Y-55402691D01*
X82224000Y-56428250D01*
X82382750Y-56587000D01*
X83947000Y-56587000D01*
X83947000Y-56567000D01*
X84201000Y-56567000D01*
X84201000Y-56587000D01*
X85765250Y-56587000D01*
X85924000Y-56428250D01*
X85924000Y-55402691D01*
X85858682Y-55245000D01*
X93218000Y-55245000D01*
X93267410Y-55234994D01*
X93309035Y-55206553D01*
X93336315Y-55164159D01*
X93344997Y-55118814D01*
X93353922Y-53726553D01*
X93466431Y-53561890D01*
X93517440Y-53310000D01*
X93517440Y-50940000D01*
X93473162Y-50704683D01*
X93374278Y-50551013D01*
X93382367Y-49289071D01*
X93411857Y-49308775D01*
X93980000Y-49421786D01*
X94548143Y-49308775D01*
X95029792Y-48986948D01*
X95250000Y-48657383D01*
X95470208Y-48986948D01*
X95951857Y-49308775D01*
X96520000Y-49421786D01*
X97088143Y-49308775D01*
X97569792Y-48986948D01*
X97891619Y-48505299D01*
X98004630Y-47937156D01*
X98004630Y-46042844D01*
X97891619Y-45474701D01*
X97569792Y-44993052D01*
X97088143Y-44671225D01*
X96520000Y-44558214D01*
X95951857Y-44671225D01*
X95470208Y-44993052D01*
X95250000Y-45322617D01*
X95029792Y-44993052D01*
X94548143Y-44671225D01*
X93980000Y-44558214D01*
X93411969Y-44671203D01*
X93417410Y-43822440D01*
X93560000Y-43822440D01*
X93795317Y-43778162D01*
X94011441Y-43639090D01*
X94156431Y-43426890D01*
X94207440Y-43175000D01*
X94207440Y-43010750D01*
X95670000Y-43010750D01*
X95670000Y-43301309D01*
X95766673Y-43534698D01*
X95945301Y-43713327D01*
X96178690Y-43810000D01*
X96869250Y-43810000D01*
X97028000Y-43651250D01*
X97028000Y-42852000D01*
X97282000Y-42852000D01*
X97282000Y-43651250D01*
X97440750Y-43810000D01*
X98131310Y-43810000D01*
X98364699Y-43713327D01*
X98543327Y-43534698D01*
X98640000Y-43301309D01*
X98640000Y-43010750D01*
X98481250Y-42852000D01*
X97282000Y-42852000D01*
X97028000Y-42852000D01*
X95828750Y-42852000D01*
X95670000Y-43010750D01*
X94207440Y-43010750D01*
X94207440Y-42275000D01*
X94183674Y-42148691D01*
X95670000Y-42148691D01*
X95670000Y-42439250D01*
X95828750Y-42598000D01*
X97028000Y-42598000D01*
X97028000Y-41798750D01*
X97282000Y-41798750D01*
X97282000Y-42598000D01*
X98481250Y-42598000D01*
X98640000Y-42439250D01*
X98640000Y-42148691D01*
X98543327Y-41915302D01*
X98364699Y-41736673D01*
X98131310Y-41640000D01*
X97440750Y-41640000D01*
X97282000Y-41798750D01*
X97028000Y-41798750D01*
X96869250Y-41640000D01*
X96178690Y-41640000D01*
X95945301Y-41736673D01*
X95766673Y-41915302D01*
X95670000Y-42148691D01*
X94183674Y-42148691D01*
X94163162Y-42039683D01*
X94024090Y-41823559D01*
X93811890Y-41678569D01*
X93560000Y-41627560D01*
X93431479Y-41627560D01*
X93435999Y-40922440D01*
X93560000Y-40922440D01*
X93795317Y-40878162D01*
X94011441Y-40739090D01*
X94156431Y-40526890D01*
X94207440Y-40275000D01*
X94207440Y-39375000D01*
X94163162Y-39139683D01*
X94024090Y-38923559D01*
X93853499Y-38806999D01*
X93905871Y-38730350D01*
X93956880Y-38478460D01*
X93956880Y-37279580D01*
X93912602Y-37044263D01*
X93773530Y-36828139D01*
X93772533Y-36827457D01*
X93905871Y-36632310D01*
X93956880Y-36380420D01*
X93956880Y-35181540D01*
X93912602Y-34946223D01*
X93773530Y-34730099D01*
X93762229Y-34722377D01*
X93944785Y-34282734D01*
X93945214Y-33791421D01*
X93757592Y-33337343D01*
X93486363Y-33065640D01*
X93499551Y-31008172D01*
X93852538Y-31008172D01*
X94257709Y-31988761D01*
X95007293Y-32739655D01*
X95987173Y-33146536D01*
X96393000Y-33146890D01*
X96393000Y-34564688D01*
X96320243Y-34578378D01*
X96104119Y-34717450D01*
X95959129Y-34929650D01*
X95908120Y-35181540D01*
X95908120Y-36380420D01*
X95952398Y-36615737D01*
X96091470Y-36831861D01*
X96092467Y-36832543D01*
X95959129Y-37027690D01*
X95908120Y-37279580D01*
X95908120Y-38478460D01*
X95952398Y-38713777D01*
X96013163Y-38808208D01*
X95853559Y-38910910D01*
X95708569Y-39123110D01*
X95657560Y-39375000D01*
X95657560Y-40275000D01*
X95701838Y-40510317D01*
X95840910Y-40726441D01*
X96053110Y-40871431D01*
X96305000Y-40922440D01*
X98005000Y-40922440D01*
X98240317Y-40878162D01*
X98456441Y-40739090D01*
X98601431Y-40526890D01*
X98652440Y-40275000D01*
X98652440Y-39375000D01*
X98608162Y-39139683D01*
X98469090Y-38923559D01*
X98298499Y-38806999D01*
X98350871Y-38730350D01*
X98401880Y-38478460D01*
X98401880Y-37279580D01*
X98357602Y-37044263D01*
X98218530Y-36828139D01*
X98217533Y-36827457D01*
X98350871Y-36632310D01*
X98401880Y-36380420D01*
X98401880Y-35181540D01*
X98357602Y-34946223D01*
X98218530Y-34730099D01*
X98006330Y-34585109D01*
X97917000Y-34567019D01*
X97917000Y-32788470D01*
X98028761Y-32742291D01*
X98779655Y-31992707D01*
X99186536Y-31012827D01*
X99187462Y-29951828D01*
X98782291Y-28971239D01*
X98032707Y-28220345D01*
X97052827Y-27813464D01*
X95991828Y-27812538D01*
X95011239Y-28217709D01*
X94260345Y-28967293D01*
X93853464Y-29947173D01*
X93852538Y-31008172D01*
X93499551Y-31008172D01*
X93571723Y-19749480D01*
X93598668Y-19684590D01*
X93598750Y-19589750D01*
X94869000Y-19589750D01*
X94869000Y-20700310D01*
X94965673Y-20933699D01*
X95144302Y-21112327D01*
X95377691Y-21209000D01*
X96488250Y-21209000D01*
X96647000Y-21050250D01*
X96647000Y-19431000D01*
X96901000Y-19431000D01*
X96901000Y-21050250D01*
X97059750Y-21209000D01*
X98170309Y-21209000D01*
X98403698Y-21112327D01*
X98582327Y-20933699D01*
X98679000Y-20700310D01*
X98679000Y-19589750D01*
X98520250Y-19431000D01*
X96901000Y-19431000D01*
X96647000Y-19431000D01*
X95027750Y-19431000D01*
X94869000Y-19589750D01*
X93598750Y-19589750D01*
X93599330Y-18926735D01*
X93577339Y-18873512D01*
X93583530Y-17907690D01*
X94869000Y-17907690D01*
X94869000Y-19018250D01*
X95027750Y-19177000D01*
X96647000Y-19177000D01*
X96647000Y-17557750D01*
X96901000Y-17557750D01*
X96901000Y-19177000D01*
X98520250Y-19177000D01*
X98679000Y-19018250D01*
X98679000Y-17907690D01*
X98582327Y-17674301D01*
X98403698Y-17495673D01*
X98170309Y-17399000D01*
X97059750Y-17399000D01*
X96901000Y-17557750D01*
X96647000Y-17557750D01*
X96488250Y-17399000D01*
X95377691Y-17399000D01*
X95144302Y-17495673D01*
X94965673Y-17674301D01*
X94869000Y-17907690D01*
X93583530Y-17907690D01*
X93595339Y-16065500D01*
X99250500Y-16065500D01*
X99250500Y-70548500D01*
X99250500Y-70548500D01*
G37*
X99250500Y-70548500D02*
X80264000Y-70548500D01*
X80264000Y-63785750D01*
X85495130Y-63785750D01*
X85495130Y-65126180D01*
X85591803Y-65359569D01*
X85770432Y-65538197D01*
X86003821Y-65634870D01*
X87344250Y-65634870D01*
X87503000Y-65476120D01*
X87503000Y-63627000D01*
X87757000Y-63627000D01*
X87757000Y-65476120D01*
X87915750Y-65634870D01*
X89256179Y-65634870D01*
X89489568Y-65538197D01*
X89668197Y-65359569D01*
X89764870Y-65126180D01*
X89764870Y-63785750D01*
X89606120Y-63627000D01*
X87757000Y-63627000D01*
X87503000Y-63627000D01*
X85653880Y-63627000D01*
X85495130Y-63785750D01*
X80264000Y-63785750D01*
X80264000Y-61873820D01*
X85495130Y-61873820D01*
X85495130Y-63214250D01*
X85653880Y-63373000D01*
X87503000Y-63373000D01*
X87503000Y-61523880D01*
X87757000Y-61523880D01*
X87757000Y-63373000D01*
X89606120Y-63373000D01*
X89764870Y-63214250D01*
X89764870Y-61873820D01*
X89668197Y-61640431D01*
X89489568Y-61461803D01*
X89256179Y-61365130D01*
X87915750Y-61365130D01*
X87757000Y-61523880D01*
X87503000Y-61523880D01*
X87344250Y-61365130D01*
X86003821Y-61365130D01*
X85770432Y-61461803D01*
X85591803Y-61640431D01*
X85495130Y-61873820D01*
X80264000Y-61873820D01*
X80264000Y-60706000D01*
X80253994Y-60656590D01*
X80225553Y-60614965D01*
X80183159Y-60587685D01*
X80137000Y-60579000D01*
X75565000Y-60579000D01*
X75565000Y-59309000D01*
X75554994Y-59259590D01*
X75526553Y-59217965D01*
X75484159Y-59190685D01*
X75438000Y-59182000D01*
X72857558Y-59182000D01*
X72944000Y-58973310D01*
X72944000Y-58832750D01*
X72785250Y-58674000D01*
X71661000Y-58674000D01*
X71661000Y-58694000D01*
X71407000Y-58694000D01*
X71407000Y-58674000D01*
X71387000Y-58674000D01*
X71387000Y-58650750D01*
X88105000Y-58650750D01*
X88105000Y-59676309D01*
X88201673Y-59909698D01*
X88380301Y-60088327D01*
X88613690Y-60185000D01*
X90519250Y-60185000D01*
X90678000Y-60026250D01*
X90678000Y-58492000D01*
X90932000Y-58492000D01*
X90932000Y-60026250D01*
X91090750Y-60185000D01*
X92996310Y-60185000D01*
X93229699Y-60088327D01*
X93408327Y-59909698D01*
X93505000Y-59676309D01*
X93505000Y-58650750D01*
X93346250Y-58492000D01*
X90932000Y-58492000D01*
X90678000Y-58492000D01*
X88263750Y-58492000D01*
X88105000Y-58650750D01*
X71387000Y-58650750D01*
X71387000Y-58420000D01*
X71407000Y-58420000D01*
X71407000Y-58400000D01*
X71661000Y-58400000D01*
X71661000Y-58420000D01*
X72785250Y-58420000D01*
X72944000Y-58261250D01*
X72944000Y-58120690D01*
X72909237Y-58036765D01*
X73189605Y-57980996D01*
X73436815Y-57815815D01*
X74348880Y-56903750D01*
X77051000Y-56903750D01*
X77051000Y-57244309D01*
X77147673Y-57477698D01*
X77326301Y-57656327D01*
X77559690Y-57753000D01*
X78200250Y-57753000D01*
X78359000Y-57594250D01*
X78359000Y-56745000D01*
X78613000Y-56745000D01*
X78613000Y-57594250D01*
X78771750Y-57753000D01*
X79412310Y-57753000D01*
X79645699Y-57656327D01*
X79824327Y-57477698D01*
X79921000Y-57244309D01*
X79921000Y-56999750D01*
X82224000Y-56999750D01*
X82224000Y-58025309D01*
X82320673Y-58258698D01*
X82499301Y-58437327D01*
X82732690Y-58534000D01*
X83788250Y-58534000D01*
X83947000Y-58375250D01*
X83947000Y-56841000D01*
X84201000Y-56841000D01*
X84201000Y-58375250D01*
X84359750Y-58534000D01*
X85415310Y-58534000D01*
X85648699Y-58437327D01*
X85827327Y-58258698D01*
X85924000Y-58025309D01*
X85924000Y-57053691D01*
X88105000Y-57053691D01*
X88105000Y-58079250D01*
X88263750Y-58238000D01*
X90678000Y-58238000D01*
X90678000Y-56703750D01*
X90932000Y-56703750D01*
X90932000Y-58238000D01*
X93346250Y-58238000D01*
X93505000Y-58079250D01*
X93505000Y-57053691D01*
X93408327Y-56820302D01*
X93229699Y-56641673D01*
X92996310Y-56545000D01*
X91090750Y-56545000D01*
X90932000Y-56703750D01*
X90678000Y-56703750D01*
X90519250Y-56545000D01*
X88613690Y-56545000D01*
X88380301Y-56641673D01*
X88201673Y-56820302D01*
X88105000Y-57053691D01*
X85924000Y-57053691D01*
X85924000Y-56999750D01*
X85765250Y-56841000D01*
X84201000Y-56841000D01*
X83947000Y-56841000D01*
X82382750Y-56841000D01*
X82224000Y-56999750D01*
X79921000Y-56999750D01*
X79921000Y-56903750D01*
X79762250Y-56745000D01*
X78613000Y-56745000D01*
X78359000Y-56745000D01*
X77209750Y-56745000D01*
X77051000Y-56903750D01*
X74348880Y-56903750D01*
X75260939Y-55991691D01*
X77051000Y-55991691D01*
X77051000Y-56332250D01*
X77209750Y-56491000D01*
X78359000Y-56491000D01*
X78359000Y-55641750D01*
X78613000Y-55641750D01*
X78613000Y-56491000D01*
X79762250Y-56491000D01*
X79921000Y-56332250D01*
X79921000Y-55991691D01*
X79824327Y-55758302D01*
X79645699Y-55579673D01*
X79412310Y-55483000D01*
X78771750Y-55483000D01*
X78613000Y-55641750D01*
X78359000Y-55641750D01*
X78200250Y-55483000D01*
X77559690Y-55483000D01*
X77326301Y-55579673D01*
X77147673Y-55758302D01*
X77051000Y-55991691D01*
X75260939Y-55991691D01*
X76007630Y-55245000D01*
X82289318Y-55245000D01*
X82224000Y-55402691D01*
X82224000Y-56428250D01*
X82382750Y-56587000D01*
X83947000Y-56587000D01*
X83947000Y-56567000D01*
X84201000Y-56567000D01*
X84201000Y-56587000D01*
X85765250Y-56587000D01*
X85924000Y-56428250D01*
X85924000Y-55402691D01*
X85858682Y-55245000D01*
X93218000Y-55245000D01*
X93267410Y-55234994D01*
X93309035Y-55206553D01*
X93336315Y-55164159D01*
X93344997Y-55118814D01*
X93353922Y-53726553D01*
X93466431Y-53561890D01*
X93517440Y-53310000D01*
X93517440Y-50940000D01*
X93473162Y-50704683D01*
X93374278Y-50551013D01*
X93382367Y-49289071D01*
X93411857Y-49308775D01*
X93980000Y-49421786D01*
X94548143Y-49308775D01*
X95029792Y-48986948D01*
X95250000Y-48657383D01*
X95470208Y-48986948D01*
X95951857Y-49308775D01*
X96520000Y-49421786D01*
X97088143Y-49308775D01*
X97569792Y-48986948D01*
X97891619Y-48505299D01*
X98004630Y-47937156D01*
X98004630Y-46042844D01*
X97891619Y-45474701D01*
X97569792Y-44993052D01*
X97088143Y-44671225D01*
X96520000Y-44558214D01*
X95951857Y-44671225D01*
X95470208Y-44993052D01*
X95250000Y-45322617D01*
X95029792Y-44993052D01*
X94548143Y-44671225D01*
X93980000Y-44558214D01*
X93411969Y-44671203D01*
X93417410Y-43822440D01*
X93560000Y-43822440D01*
X93795317Y-43778162D01*
X94011441Y-43639090D01*
X94156431Y-43426890D01*
X94207440Y-43175000D01*
X94207440Y-43010750D01*
X95670000Y-43010750D01*
X95670000Y-43301309D01*
X95766673Y-43534698D01*
X95945301Y-43713327D01*
X96178690Y-43810000D01*
X96869250Y-43810000D01*
X97028000Y-43651250D01*
X97028000Y-42852000D01*
X97282000Y-42852000D01*
X97282000Y-43651250D01*
X97440750Y-43810000D01*
X98131310Y-43810000D01*
X98364699Y-43713327D01*
X98543327Y-43534698D01*
X98640000Y-43301309D01*
X98640000Y-43010750D01*
X98481250Y-42852000D01*
X97282000Y-42852000D01*
X97028000Y-42852000D01*
X95828750Y-42852000D01*
X95670000Y-43010750D01*
X94207440Y-43010750D01*
X94207440Y-42275000D01*
X94183674Y-42148691D01*
X95670000Y-42148691D01*
X95670000Y-42439250D01*
X95828750Y-42598000D01*
X97028000Y-42598000D01*
X97028000Y-41798750D01*
X97282000Y-41798750D01*
X97282000Y-42598000D01*
X98481250Y-42598000D01*
X98640000Y-42439250D01*
X98640000Y-42148691D01*
X98543327Y-41915302D01*
X98364699Y-41736673D01*
X98131310Y-41640000D01*
X97440750Y-41640000D01*
X97282000Y-41798750D01*
X97028000Y-41798750D01*
X96869250Y-41640000D01*
X96178690Y-41640000D01*
X95945301Y-41736673D01*
X95766673Y-41915302D01*
X95670000Y-42148691D01*
X94183674Y-42148691D01*
X94163162Y-42039683D01*
X94024090Y-41823559D01*
X93811890Y-41678569D01*
X93560000Y-41627560D01*
X93431479Y-41627560D01*
X93435999Y-40922440D01*
X93560000Y-40922440D01*
X93795317Y-40878162D01*
X94011441Y-40739090D01*
X94156431Y-40526890D01*
X94207440Y-40275000D01*
X94207440Y-39375000D01*
X94163162Y-39139683D01*
X94024090Y-38923559D01*
X93853499Y-38806999D01*
X93905871Y-38730350D01*
X93956880Y-38478460D01*
X93956880Y-37279580D01*
X93912602Y-37044263D01*
X93773530Y-36828139D01*
X93772533Y-36827457D01*
X93905871Y-36632310D01*
X93956880Y-36380420D01*
X93956880Y-35181540D01*
X93912602Y-34946223D01*
X93773530Y-34730099D01*
X93762229Y-34722377D01*
X93944785Y-34282734D01*
X93945214Y-33791421D01*
X93757592Y-33337343D01*
X93486363Y-33065640D01*
X93499551Y-31008172D01*
X93852538Y-31008172D01*
X94257709Y-31988761D01*
X95007293Y-32739655D01*
X95987173Y-33146536D01*
X96393000Y-33146890D01*
X96393000Y-34564688D01*
X96320243Y-34578378D01*
X96104119Y-34717450D01*
X95959129Y-34929650D01*
X95908120Y-35181540D01*
X95908120Y-36380420D01*
X95952398Y-36615737D01*
X96091470Y-36831861D01*
X96092467Y-36832543D01*
X95959129Y-37027690D01*
X95908120Y-37279580D01*
X95908120Y-38478460D01*
X95952398Y-38713777D01*
X96013163Y-38808208D01*
X95853559Y-38910910D01*
X95708569Y-39123110D01*
X95657560Y-39375000D01*
X95657560Y-40275000D01*
X95701838Y-40510317D01*
X95840910Y-40726441D01*
X96053110Y-40871431D01*
X96305000Y-40922440D01*
X98005000Y-40922440D01*
X98240317Y-40878162D01*
X98456441Y-40739090D01*
X98601431Y-40526890D01*
X98652440Y-40275000D01*
X98652440Y-39375000D01*
X98608162Y-39139683D01*
X98469090Y-38923559D01*
X98298499Y-38806999D01*
X98350871Y-38730350D01*
X98401880Y-38478460D01*
X98401880Y-37279580D01*
X98357602Y-37044263D01*
X98218530Y-36828139D01*
X98217533Y-36827457D01*
X98350871Y-36632310D01*
X98401880Y-36380420D01*
X98401880Y-35181540D01*
X98357602Y-34946223D01*
X98218530Y-34730099D01*
X98006330Y-34585109D01*
X97917000Y-34567019D01*
X97917000Y-32788470D01*
X98028761Y-32742291D01*
X98779655Y-31992707D01*
X99186536Y-31012827D01*
X99187462Y-29951828D01*
X98782291Y-28971239D01*
X98032707Y-28220345D01*
X97052827Y-27813464D01*
X95991828Y-27812538D01*
X95011239Y-28217709D01*
X94260345Y-28967293D01*
X93853464Y-29947173D01*
X93852538Y-31008172D01*
X93499551Y-31008172D01*
X93571723Y-19749480D01*
X93598668Y-19684590D01*
X93598750Y-19589750D01*
X94869000Y-19589750D01*
X94869000Y-20700310D01*
X94965673Y-20933699D01*
X95144302Y-21112327D01*
X95377691Y-21209000D01*
X96488250Y-21209000D01*
X96647000Y-21050250D01*
X96647000Y-19431000D01*
X96901000Y-19431000D01*
X96901000Y-21050250D01*
X97059750Y-21209000D01*
X98170309Y-21209000D01*
X98403698Y-21112327D01*
X98582327Y-20933699D01*
X98679000Y-20700310D01*
X98679000Y-19589750D01*
X98520250Y-19431000D01*
X96901000Y-19431000D01*
X96647000Y-19431000D01*
X95027750Y-19431000D01*
X94869000Y-19589750D01*
X93598750Y-19589750D01*
X93599330Y-18926735D01*
X93577339Y-18873512D01*
X93583530Y-17907690D01*
X94869000Y-17907690D01*
X94869000Y-19018250D01*
X95027750Y-19177000D01*
X96647000Y-19177000D01*
X96647000Y-17557750D01*
X96901000Y-17557750D01*
X96901000Y-19177000D01*
X98520250Y-19177000D01*
X98679000Y-19018250D01*
X98679000Y-17907690D01*
X98582327Y-17674301D01*
X98403698Y-17495673D01*
X98170309Y-17399000D01*
X97059750Y-17399000D01*
X96901000Y-17557750D01*
X96647000Y-17557750D01*
X96488250Y-17399000D01*
X95377691Y-17399000D01*
X95144302Y-17495673D01*
X94965673Y-17674301D01*
X94869000Y-17907690D01*
X93583530Y-17907690D01*
X93595339Y-16065500D01*
X99250500Y-16065500D01*
X99250500Y-70548500D01*
G36*
X54432560Y-43656000D02*
X54476838Y-43891317D01*
X54615910Y-44107441D01*
X54828110Y-44252431D01*
X55080000Y-44303440D01*
X56680000Y-44303440D01*
X56915317Y-44259162D01*
X56957363Y-44232106D01*
X56987110Y-44252431D01*
X57239000Y-44303440D01*
X58839000Y-44303440D01*
X59074317Y-44259162D01*
X59290441Y-44120090D01*
X59435431Y-43907890D01*
X59486440Y-43656000D01*
X59486440Y-43561000D01*
X59817000Y-43561000D01*
X59817000Y-61214000D01*
X59827006Y-61263410D01*
X59855447Y-61305035D01*
X59897841Y-61332315D01*
X59944000Y-61341000D01*
X66167000Y-61341000D01*
X66167000Y-63881000D01*
X66020000Y-63881000D01*
X66020000Y-63355750D01*
X65861250Y-63197000D01*
X64262000Y-63197000D01*
X64262000Y-63217000D01*
X64008000Y-63217000D01*
X64008000Y-63197000D01*
X62408750Y-63197000D01*
X62250000Y-63355750D01*
X62250000Y-63881000D01*
X61468000Y-63881000D01*
X61418590Y-63891006D01*
X61376965Y-63919447D01*
X61349685Y-63961841D01*
X61341000Y-64008000D01*
X61341000Y-70548500D01*
X46101000Y-70548500D01*
X46101000Y-66761753D01*
X46196408Y-66992657D01*
X46543515Y-67340371D01*
X46997266Y-67528785D01*
X47488579Y-67529214D01*
X47942657Y-67341592D01*
X48290371Y-66994485D01*
X48478785Y-66540734D01*
X48479214Y-66049421D01*
X48291592Y-65595343D01*
X48152713Y-65456221D01*
X48165840Y-65391400D01*
X48165840Y-63785369D01*
X48313233Y-64142086D01*
X48632235Y-64461645D01*
X49049244Y-64634803D01*
X49500775Y-64635197D01*
X49596300Y-64595727D01*
X49596300Y-64700150D01*
X49640578Y-64935467D01*
X49644239Y-64941157D01*
X49499629Y-65085515D01*
X49311215Y-65539266D01*
X49310786Y-66030579D01*
X49498408Y-66484657D01*
X49845515Y-66832371D01*
X50299266Y-67020785D01*
X50790579Y-67021214D01*
X51054087Y-66912334D01*
X51315266Y-67020785D01*
X51806579Y-67021214D01*
X52070087Y-66912334D01*
X52331266Y-67020785D01*
X52822579Y-67021214D01*
X53276657Y-66833592D01*
X53624371Y-66486485D01*
X53812785Y-66032734D01*
X53813214Y-65541421D01*
X53733124Y-65347590D01*
X53743860Y-65347590D01*
X53979177Y-65303312D01*
X54195301Y-65164240D01*
X54340291Y-64952040D01*
X54391300Y-64700150D01*
X54391300Y-63785750D01*
X56111140Y-63785750D01*
X56111140Y-64826460D01*
X56207813Y-65059849D01*
X56386442Y-65238477D01*
X56619831Y-65335150D01*
X58210450Y-65335150D01*
X58369200Y-65176400D01*
X58369200Y-63627000D01*
X58623200Y-63627000D01*
X58623200Y-65176400D01*
X58781950Y-65335150D01*
X60372569Y-65335150D01*
X60605958Y-65238477D01*
X60784587Y-65059849D01*
X60881260Y-64826460D01*
X60881260Y-63785750D01*
X60722510Y-63627000D01*
X58623200Y-63627000D01*
X58369200Y-63627000D01*
X56269890Y-63627000D01*
X56111140Y-63785750D01*
X54391300Y-63785750D01*
X54391300Y-62299850D01*
X54367534Y-62173540D01*
X56111140Y-62173540D01*
X56111140Y-63214250D01*
X56269890Y-63373000D01*
X58369200Y-63373000D01*
X58369200Y-61823600D01*
X58623200Y-61823600D01*
X58623200Y-63373000D01*
X60722510Y-63373000D01*
X60881260Y-63214250D01*
X60881260Y-62173540D01*
X60786054Y-61943691D01*
X62250000Y-61943691D01*
X62250000Y-62784250D01*
X62408750Y-62943000D01*
X64008000Y-62943000D01*
X64008000Y-61593750D01*
X64262000Y-61593750D01*
X64262000Y-62943000D01*
X65861250Y-62943000D01*
X66020000Y-62784250D01*
X66020000Y-61943691D01*
X65923327Y-61710302D01*
X65744699Y-61531673D01*
X65511310Y-61435000D01*
X64420750Y-61435000D01*
X64262000Y-61593750D01*
X64008000Y-61593750D01*
X63849250Y-61435000D01*
X62758690Y-61435000D01*
X62525301Y-61531673D01*
X62346673Y-61710302D01*
X62250000Y-61943691D01*
X60786054Y-61943691D01*
X60784587Y-61940151D01*
X60605958Y-61761523D01*
X60372569Y-61664850D01*
X58781950Y-61664850D01*
X58623200Y-61823600D01*
X58369200Y-61823600D01*
X58210450Y-61664850D01*
X56619831Y-61664850D01*
X56386442Y-61761523D01*
X56207813Y-61940151D01*
X56111140Y-62173540D01*
X54367534Y-62173540D01*
X54347022Y-62064533D01*
X54207950Y-61848409D01*
X53995750Y-61703419D01*
X53743860Y-61652410D01*
X53627724Y-61652410D01*
X53812785Y-61206734D01*
X53813214Y-60715421D01*
X53625592Y-60261343D01*
X53278485Y-59913629D01*
X52824734Y-59725215D01*
X52333421Y-59724786D01*
X52069913Y-59833666D01*
X51808734Y-59725215D01*
X51317421Y-59724786D01*
X51053913Y-59833666D01*
X50792734Y-59725215D01*
X50301421Y-59724786D01*
X49847343Y-59912408D01*
X49784000Y-59975640D01*
X49784000Y-56957630D01*
X50327198Y-56414432D01*
X50326786Y-56886579D01*
X50514408Y-57340657D01*
X50861515Y-57688371D01*
X51315266Y-57876785D01*
X51806579Y-57877214D01*
X52260657Y-57689592D01*
X52432560Y-57517989D01*
X52432560Y-57888000D01*
X52476838Y-58123317D01*
X52615910Y-58339441D01*
X52828110Y-58484431D01*
X53080000Y-58535440D01*
X54080000Y-58535440D01*
X54315317Y-58491162D01*
X54531441Y-58352090D01*
X54676431Y-58139890D01*
X54727440Y-57888000D01*
X54727440Y-56673750D01*
X57045000Y-56673750D01*
X57045000Y-58014310D01*
X57141673Y-58247699D01*
X57320302Y-58426327D01*
X57553691Y-58523000D01*
X57894250Y-58523000D01*
X58053000Y-58364250D01*
X58053000Y-56515000D01*
X58307000Y-56515000D01*
X58307000Y-58364250D01*
X58465750Y-58523000D01*
X58806309Y-58523000D01*
X59039698Y-58426327D01*
X59218327Y-58247699D01*
X59315000Y-58014310D01*
X59315000Y-56673750D01*
X59156250Y-56515000D01*
X58307000Y-56515000D01*
X58053000Y-56515000D01*
X57203750Y-56515000D01*
X57045000Y-56673750D01*
X54727440Y-56673750D01*
X54727440Y-54888000D01*
X54703674Y-54761690D01*
X57045000Y-54761690D01*
X57045000Y-56102250D01*
X57203750Y-56261000D01*
X58053000Y-56261000D01*
X58053000Y-54411750D01*
X58307000Y-54411750D01*
X58307000Y-56261000D01*
X59156250Y-56261000D01*
X59315000Y-56102250D01*
X59315000Y-54761690D01*
X59218327Y-54528301D01*
X59039698Y-54349673D01*
X58806309Y-54253000D01*
X58465750Y-54253000D01*
X58307000Y-54411750D01*
X58053000Y-54411750D01*
X57894250Y-54253000D01*
X57553691Y-54253000D01*
X57320302Y-54349673D01*
X57141673Y-54528301D01*
X57045000Y-54761690D01*
X54703674Y-54761690D01*
X54683162Y-54652683D01*
X54544090Y-54436559D01*
X54331890Y-54291569D01*
X54080000Y-54240560D01*
X53080000Y-54240560D01*
X52844683Y-54284838D01*
X52628559Y-54423910D01*
X52483569Y-54636110D01*
X52432560Y-54888000D01*
X52432560Y-55626000D01*
X52292803Y-55626000D01*
X52262485Y-55595629D01*
X51808734Y-55407215D01*
X51334829Y-55406801D01*
X53370816Y-53370815D01*
X53370818Y-53370812D01*
X53751815Y-52989816D01*
X53916996Y-52742605D01*
X53934581Y-52654200D01*
X53975000Y-52451000D01*
X53975000Y-43561000D01*
X54432560Y-43561000D01*
X54432560Y-43656000D01*
X54432560Y-43656000D01*
G37*
X54432560Y-43656000D02*
X54476838Y-43891317D01*
X54615910Y-44107441D01*
X54828110Y-44252431D01*
X55080000Y-44303440D01*
X56680000Y-44303440D01*
X56915317Y-44259162D01*
X56957363Y-44232106D01*
X56987110Y-44252431D01*
X57239000Y-44303440D01*
X58839000Y-44303440D01*
X59074317Y-44259162D01*
X59290441Y-44120090D01*
X59435431Y-43907890D01*
X59486440Y-43656000D01*
X59486440Y-43561000D01*
X59817000Y-43561000D01*
X59817000Y-61214000D01*
X59827006Y-61263410D01*
X59855447Y-61305035D01*
X59897841Y-61332315D01*
X59944000Y-61341000D01*
X66167000Y-61341000D01*
X66167000Y-63881000D01*
X66020000Y-63881000D01*
X66020000Y-63355750D01*
X65861250Y-63197000D01*
X64262000Y-63197000D01*
X64262000Y-63217000D01*
X64008000Y-63217000D01*
X64008000Y-63197000D01*
X62408750Y-63197000D01*
X62250000Y-63355750D01*
X62250000Y-63881000D01*
X61468000Y-63881000D01*
X61418590Y-63891006D01*
X61376965Y-63919447D01*
X61349685Y-63961841D01*
X61341000Y-64008000D01*
X61341000Y-70548500D01*
X46101000Y-70548500D01*
X46101000Y-66761753D01*
X46196408Y-66992657D01*
X46543515Y-67340371D01*
X46997266Y-67528785D01*
X47488579Y-67529214D01*
X47942657Y-67341592D01*
X48290371Y-66994485D01*
X48478785Y-66540734D01*
X48479214Y-66049421D01*
X48291592Y-65595343D01*
X48152713Y-65456221D01*
X48165840Y-65391400D01*
X48165840Y-63785369D01*
X48313233Y-64142086D01*
X48632235Y-64461645D01*
X49049244Y-64634803D01*
X49500775Y-64635197D01*
X49596300Y-64595727D01*
X49596300Y-64700150D01*
X49640578Y-64935467D01*
X49644239Y-64941157D01*
X49499629Y-65085515D01*
X49311215Y-65539266D01*
X49310786Y-66030579D01*
X49498408Y-66484657D01*
X49845515Y-66832371D01*
X50299266Y-67020785D01*
X50790579Y-67021214D01*
X51054087Y-66912334D01*
X51315266Y-67020785D01*
X51806579Y-67021214D01*
X52070087Y-66912334D01*
X52331266Y-67020785D01*
X52822579Y-67021214D01*
X53276657Y-66833592D01*
X53624371Y-66486485D01*
X53812785Y-66032734D01*
X53813214Y-65541421D01*
X53733124Y-65347590D01*
X53743860Y-65347590D01*
X53979177Y-65303312D01*
X54195301Y-65164240D01*
X54340291Y-64952040D01*
X54391300Y-64700150D01*
X54391300Y-63785750D01*
X56111140Y-63785750D01*
X56111140Y-64826460D01*
X56207813Y-65059849D01*
X56386442Y-65238477D01*
X56619831Y-65335150D01*
X58210450Y-65335150D01*
X58369200Y-65176400D01*
X58369200Y-63627000D01*
X58623200Y-63627000D01*
X58623200Y-65176400D01*
X58781950Y-65335150D01*
X60372569Y-65335150D01*
X60605958Y-65238477D01*
X60784587Y-65059849D01*
X60881260Y-64826460D01*
X60881260Y-63785750D01*
X60722510Y-63627000D01*
X58623200Y-63627000D01*
X58369200Y-63627000D01*
X56269890Y-63627000D01*
X56111140Y-63785750D01*
X54391300Y-63785750D01*
X54391300Y-62299850D01*
X54367534Y-62173540D01*
X56111140Y-62173540D01*
X56111140Y-63214250D01*
X56269890Y-63373000D01*
X58369200Y-63373000D01*
X58369200Y-61823600D01*
X58623200Y-61823600D01*
X58623200Y-63373000D01*
X60722510Y-63373000D01*
X60881260Y-63214250D01*
X60881260Y-62173540D01*
X60786054Y-61943691D01*
X62250000Y-61943691D01*
X62250000Y-62784250D01*
X62408750Y-62943000D01*
X64008000Y-62943000D01*
X64008000Y-61593750D01*
X64262000Y-61593750D01*
X64262000Y-62943000D01*
X65861250Y-62943000D01*
X66020000Y-62784250D01*
X66020000Y-61943691D01*
X65923327Y-61710302D01*
X65744699Y-61531673D01*
X65511310Y-61435000D01*
X64420750Y-61435000D01*
X64262000Y-61593750D01*
X64008000Y-61593750D01*
X63849250Y-61435000D01*
X62758690Y-61435000D01*
X62525301Y-61531673D01*
X62346673Y-61710302D01*
X62250000Y-61943691D01*
X60786054Y-61943691D01*
X60784587Y-61940151D01*
X60605958Y-61761523D01*
X60372569Y-61664850D01*
X58781950Y-61664850D01*
X58623200Y-61823600D01*
X58369200Y-61823600D01*
X58210450Y-61664850D01*
X56619831Y-61664850D01*
X56386442Y-61761523D01*
X56207813Y-61940151D01*
X56111140Y-62173540D01*
X54367534Y-62173540D01*
X54347022Y-62064533D01*
X54207950Y-61848409D01*
X53995750Y-61703419D01*
X53743860Y-61652410D01*
X53627724Y-61652410D01*
X53812785Y-61206734D01*
X53813214Y-60715421D01*
X53625592Y-60261343D01*
X53278485Y-59913629D01*
X52824734Y-59725215D01*
X52333421Y-59724786D01*
X52069913Y-59833666D01*
X51808734Y-59725215D01*
X51317421Y-59724786D01*
X51053913Y-59833666D01*
X50792734Y-59725215D01*
X50301421Y-59724786D01*
X49847343Y-59912408D01*
X49784000Y-59975640D01*
X49784000Y-56957630D01*
X50327198Y-56414432D01*
X50326786Y-56886579D01*
X50514408Y-57340657D01*
X50861515Y-57688371D01*
X51315266Y-57876785D01*
X51806579Y-57877214D01*
X52260657Y-57689592D01*
X52432560Y-57517989D01*
X52432560Y-57888000D01*
X52476838Y-58123317D01*
X52615910Y-58339441D01*
X52828110Y-58484431D01*
X53080000Y-58535440D01*
X54080000Y-58535440D01*
X54315317Y-58491162D01*
X54531441Y-58352090D01*
X54676431Y-58139890D01*
X54727440Y-57888000D01*
X54727440Y-56673750D01*
X57045000Y-56673750D01*
X57045000Y-58014310D01*
X57141673Y-58247699D01*
X57320302Y-58426327D01*
X57553691Y-58523000D01*
X57894250Y-58523000D01*
X58053000Y-58364250D01*
X58053000Y-56515000D01*
X58307000Y-56515000D01*
X58307000Y-58364250D01*
X58465750Y-58523000D01*
X58806309Y-58523000D01*
X59039698Y-58426327D01*
X59218327Y-58247699D01*
X59315000Y-58014310D01*
X59315000Y-56673750D01*
X59156250Y-56515000D01*
X58307000Y-56515000D01*
X58053000Y-56515000D01*
X57203750Y-56515000D01*
X57045000Y-56673750D01*
X54727440Y-56673750D01*
X54727440Y-54888000D01*
X54703674Y-54761690D01*
X57045000Y-54761690D01*
X57045000Y-56102250D01*
X57203750Y-56261000D01*
X58053000Y-56261000D01*
X58053000Y-54411750D01*
X58307000Y-54411750D01*
X58307000Y-56261000D01*
X59156250Y-56261000D01*
X59315000Y-56102250D01*
X59315000Y-54761690D01*
X59218327Y-54528301D01*
X59039698Y-54349673D01*
X58806309Y-54253000D01*
X58465750Y-54253000D01*
X58307000Y-54411750D01*
X58053000Y-54411750D01*
X57894250Y-54253000D01*
X57553691Y-54253000D01*
X57320302Y-54349673D01*
X57141673Y-54528301D01*
X57045000Y-54761690D01*
X54703674Y-54761690D01*
X54683162Y-54652683D01*
X54544090Y-54436559D01*
X54331890Y-54291569D01*
X54080000Y-54240560D01*
X53080000Y-54240560D01*
X52844683Y-54284838D01*
X52628559Y-54423910D01*
X52483569Y-54636110D01*
X52432560Y-54888000D01*
X52432560Y-55626000D01*
X52292803Y-55626000D01*
X52262485Y-55595629D01*
X51808734Y-55407215D01*
X51334829Y-55406801D01*
X53370816Y-53370815D01*
X53370818Y-53370812D01*
X53751815Y-52989816D01*
X53916996Y-52742605D01*
X53934581Y-52654200D01*
X53975000Y-52451000D01*
X53975000Y-43561000D01*
X54432560Y-43561000D01*
X54432560Y-43656000D01*
G36*
X48641000Y-42190240D02*
X48632327Y-42169302D01*
X48453699Y-41990673D01*
X48220310Y-41894000D01*
X47529750Y-41894000D01*
X47371000Y-42052750D01*
X47371000Y-42852000D01*
X47391000Y-42852000D01*
X47391000Y-43106000D01*
X47371000Y-43106000D01*
X47371000Y-43905250D01*
X47529750Y-44064000D01*
X48220310Y-44064000D01*
X48453699Y-43967327D01*
X48632327Y-43788698D01*
X48729000Y-43555309D01*
X48729000Y-43553662D01*
X48768000Y-43561000D01*
X48819398Y-43561000D01*
X48838838Y-43664317D01*
X48977910Y-43880441D01*
X49190110Y-44025431D01*
X49442000Y-44076440D01*
X51142000Y-44076440D01*
X51377317Y-44032162D01*
X51593441Y-43893090D01*
X51636946Y-43829418D01*
X51823266Y-43906785D01*
X52314579Y-43907214D01*
X52451000Y-43850846D01*
X52451000Y-52135370D01*
X52293188Y-52293182D01*
X52293185Y-52293184D01*
X48483185Y-56103185D01*
X48384847Y-56250358D01*
X48407400Y-56195910D01*
X48407400Y-55505350D01*
X48248650Y-55346600D01*
X47449400Y-55346600D01*
X47449400Y-56545850D01*
X47608150Y-56704600D01*
X47898709Y-56704600D01*
X48132098Y-56607927D01*
X48300219Y-56439807D01*
X48260000Y-56642000D01*
X48260000Y-62987136D01*
X48141197Y-63273244D01*
X48140948Y-63559108D01*
X48121562Y-63456083D01*
X47982490Y-63239959D01*
X47830400Y-63136040D01*
X47830400Y-62519000D01*
X47772396Y-62227395D01*
X47625528Y-62007592D01*
X47607215Y-61980184D01*
X47440840Y-61813809D01*
X47440840Y-61444000D01*
X47396562Y-61208683D01*
X47257490Y-60992559D01*
X47045290Y-60847569D01*
X46793400Y-60796560D01*
X46393400Y-60796560D01*
X46263811Y-60820944D01*
X46143400Y-60796560D01*
X46101000Y-60796560D01*
X46101000Y-59091440D01*
X46143400Y-59091440D01*
X46249105Y-59071550D01*
X46267091Y-59079000D01*
X46334650Y-59079000D01*
X46363654Y-59049996D01*
X46378717Y-59047162D01*
X46594841Y-58908090D01*
X46693400Y-58763844D01*
X46693400Y-58920250D01*
X46852150Y-59079000D01*
X46919709Y-59079000D01*
X47153098Y-58982327D01*
X47331727Y-58803699D01*
X47428400Y-58570310D01*
X47428400Y-58129750D01*
X47269650Y-57971000D01*
X46790840Y-57971000D01*
X46790840Y-57717000D01*
X47269650Y-57717000D01*
X47428400Y-57558250D01*
X47428400Y-57117690D01*
X47331727Y-56884301D01*
X47153098Y-56705673D01*
X47069998Y-56671252D01*
X47195400Y-56545850D01*
X47195400Y-55346600D01*
X46396150Y-55346600D01*
X46237400Y-55505350D01*
X46237400Y-55956970D01*
X46101000Y-55820570D01*
X46101000Y-52812950D01*
X46186600Y-52812950D01*
X46186600Y-53503510D01*
X46283273Y-53736899D01*
X46445175Y-53898800D01*
X46334073Y-54009901D01*
X46237400Y-54243290D01*
X46237400Y-54933850D01*
X46396150Y-55092600D01*
X47195400Y-55092600D01*
X47195400Y-53893350D01*
X47144600Y-53842550D01*
X47144600Y-52654200D01*
X47398600Y-52654200D01*
X47398600Y-53853450D01*
X47449400Y-53904250D01*
X47449400Y-55092600D01*
X48248650Y-55092600D01*
X48407400Y-54933850D01*
X48407400Y-54243290D01*
X48310727Y-54009901D01*
X48148825Y-53848000D01*
X48259927Y-53736899D01*
X48356600Y-53503510D01*
X48356600Y-52812950D01*
X48197850Y-52654200D01*
X47398600Y-52654200D01*
X47144600Y-52654200D01*
X46345350Y-52654200D01*
X46186600Y-52812950D01*
X46101000Y-52812950D01*
X46101000Y-51550890D01*
X46186600Y-51550890D01*
X46186600Y-52241450D01*
X46345350Y-52400200D01*
X47144600Y-52400200D01*
X47144600Y-51200950D01*
X47398600Y-51200950D01*
X47398600Y-52400200D01*
X48197850Y-52400200D01*
X48356600Y-52241450D01*
X48356600Y-51550890D01*
X48259927Y-51317501D01*
X48081298Y-51138873D01*
X47847909Y-51042200D01*
X47557350Y-51042200D01*
X47398600Y-51200950D01*
X47144600Y-51200950D01*
X46985850Y-51042200D01*
X46695291Y-51042200D01*
X46461902Y-51138873D01*
X46283273Y-51317501D01*
X46186600Y-51550890D01*
X46101000Y-51550890D01*
X46101000Y-43994955D01*
X46267690Y-44064000D01*
X46958250Y-44064000D01*
X47117000Y-43905250D01*
X47117000Y-43106000D01*
X47097000Y-43106000D01*
X47097000Y-42852000D01*
X47117000Y-42852000D01*
X47117000Y-42052750D01*
X46958250Y-41894000D01*
X46267690Y-41894000D01*
X46101000Y-41963045D01*
X46101000Y-41529000D01*
X48641000Y-41529000D01*
X48641000Y-42190240D01*
X48641000Y-42190240D01*
G37*
X48641000Y-42190240D02*
X48632327Y-42169302D01*
X48453699Y-41990673D01*
X48220310Y-41894000D01*
X47529750Y-41894000D01*
X47371000Y-42052750D01*
X47371000Y-42852000D01*
X47391000Y-42852000D01*
X47391000Y-43106000D01*
X47371000Y-43106000D01*
X47371000Y-43905250D01*
X47529750Y-44064000D01*
X48220310Y-44064000D01*
X48453699Y-43967327D01*
X48632327Y-43788698D01*
X48729000Y-43555309D01*
X48729000Y-43553662D01*
X48768000Y-43561000D01*
X48819398Y-43561000D01*
X48838838Y-43664317D01*
X48977910Y-43880441D01*
X49190110Y-44025431D01*
X49442000Y-44076440D01*
X51142000Y-44076440D01*
X51377317Y-44032162D01*
X51593441Y-43893090D01*
X51636946Y-43829418D01*
X51823266Y-43906785D01*
X52314579Y-43907214D01*
X52451000Y-43850846D01*
X52451000Y-52135370D01*
X52293188Y-52293182D01*
X52293185Y-52293184D01*
X48483185Y-56103185D01*
X48384847Y-56250358D01*
X48407400Y-56195910D01*
X48407400Y-55505350D01*
X48248650Y-55346600D01*
X47449400Y-55346600D01*
X47449400Y-56545850D01*
X47608150Y-56704600D01*
X47898709Y-56704600D01*
X48132098Y-56607927D01*
X48300219Y-56439807D01*
X48260000Y-56642000D01*
X48260000Y-62987136D01*
X48141197Y-63273244D01*
X48140948Y-63559108D01*
X48121562Y-63456083D01*
X47982490Y-63239959D01*
X47830400Y-63136040D01*
X47830400Y-62519000D01*
X47772396Y-62227395D01*
X47625528Y-62007592D01*
X47607215Y-61980184D01*
X47440840Y-61813809D01*
X47440840Y-61444000D01*
X47396562Y-61208683D01*
X47257490Y-60992559D01*
X47045290Y-60847569D01*
X46793400Y-60796560D01*
X46393400Y-60796560D01*
X46263811Y-60820944D01*
X46143400Y-60796560D01*
X46101000Y-60796560D01*
X46101000Y-59091440D01*
X46143400Y-59091440D01*
X46249105Y-59071550D01*
X46267091Y-59079000D01*
X46334650Y-59079000D01*
X46363654Y-59049996D01*
X46378717Y-59047162D01*
X46594841Y-58908090D01*
X46693400Y-58763844D01*
X46693400Y-58920250D01*
X46852150Y-59079000D01*
X46919709Y-59079000D01*
X47153098Y-58982327D01*
X47331727Y-58803699D01*
X47428400Y-58570310D01*
X47428400Y-58129750D01*
X47269650Y-57971000D01*
X46790840Y-57971000D01*
X46790840Y-57717000D01*
X47269650Y-57717000D01*
X47428400Y-57558250D01*
X47428400Y-57117690D01*
X47331727Y-56884301D01*
X47153098Y-56705673D01*
X47069998Y-56671252D01*
X47195400Y-56545850D01*
X47195400Y-55346600D01*
X46396150Y-55346600D01*
X46237400Y-55505350D01*
X46237400Y-55956970D01*
X46101000Y-55820570D01*
X46101000Y-52812950D01*
X46186600Y-52812950D01*
X46186600Y-53503510D01*
X46283273Y-53736899D01*
X46445175Y-53898800D01*
X46334073Y-54009901D01*
X46237400Y-54243290D01*
X46237400Y-54933850D01*
X46396150Y-55092600D01*
X47195400Y-55092600D01*
X47195400Y-53893350D01*
X47144600Y-53842550D01*
X47144600Y-52654200D01*
X47398600Y-52654200D01*
X47398600Y-53853450D01*
X47449400Y-53904250D01*
X47449400Y-55092600D01*
X48248650Y-55092600D01*
X48407400Y-54933850D01*
X48407400Y-54243290D01*
X48310727Y-54009901D01*
X48148825Y-53848000D01*
X48259927Y-53736899D01*
X48356600Y-53503510D01*
X48356600Y-52812950D01*
X48197850Y-52654200D01*
X47398600Y-52654200D01*
X47144600Y-52654200D01*
X46345350Y-52654200D01*
X46186600Y-52812950D01*
X46101000Y-52812950D01*
X46101000Y-51550890D01*
X46186600Y-51550890D01*
X46186600Y-52241450D01*
X46345350Y-52400200D01*
X47144600Y-52400200D01*
X47144600Y-51200950D01*
X47398600Y-51200950D01*
X47398600Y-52400200D01*
X48197850Y-52400200D01*
X48356600Y-52241450D01*
X48356600Y-51550890D01*
X48259927Y-51317501D01*
X48081298Y-51138873D01*
X47847909Y-51042200D01*
X47557350Y-51042200D01*
X47398600Y-51200950D01*
X47144600Y-51200950D01*
X46985850Y-51042200D01*
X46695291Y-51042200D01*
X46461902Y-51138873D01*
X46283273Y-51317501D01*
X46186600Y-51550890D01*
X46101000Y-51550890D01*
X46101000Y-43994955D01*
X46267690Y-44064000D01*
X46958250Y-44064000D01*
X47117000Y-43905250D01*
X47117000Y-43106000D01*
X47097000Y-43106000D01*
X47097000Y-42852000D01*
X47117000Y-42852000D01*
X47117000Y-42052750D01*
X46958250Y-41894000D01*
X46267690Y-41894000D01*
X46101000Y-41963045D01*
X46101000Y-41529000D01*
X48641000Y-41529000D01*
X48641000Y-42190240D01*
G36*
X18025533Y-16153877D02*
X17896285Y-16446680D01*
X19050000Y-17600395D01*
X20203715Y-16446680D01*
X20074467Y-16153877D01*
X19843770Y-16065500D01*
X23318894Y-16065500D01*
X23105533Y-16153877D01*
X22976285Y-16446680D01*
X24130000Y-17600395D01*
X25283715Y-16446680D01*
X25154467Y-16153877D01*
X24923770Y-16065500D01*
X92329000Y-16065500D01*
X92329000Y-17504972D01*
X92074590Y-17399332D01*
X91316735Y-17398670D01*
X90616314Y-17688078D01*
X90079961Y-18223495D01*
X89789332Y-18923410D01*
X89788670Y-19681265D01*
X90078078Y-20381686D01*
X90613495Y-20918039D01*
X90932000Y-21050293D01*
X90932000Y-27579747D01*
X90843326Y-27133952D01*
X90518470Y-26647771D01*
X90032289Y-26322915D01*
X89458800Y-26208841D01*
X88885311Y-26322915D01*
X88399130Y-26647771D01*
X88188800Y-26962552D01*
X87978470Y-26647771D01*
X87492289Y-26322915D01*
X86918800Y-26208841D01*
X86345311Y-26322915D01*
X85859130Y-26647771D01*
X85648800Y-26962552D01*
X85438470Y-26647771D01*
X85140800Y-26448874D01*
X85140800Y-26085493D01*
X85391245Y-25835485D01*
X85564403Y-25418476D01*
X85564797Y-24966945D01*
X85392367Y-24549634D01*
X85073365Y-24230075D01*
X84656356Y-24056917D01*
X84204825Y-24056523D01*
X83787514Y-24228953D01*
X83467955Y-24547955D01*
X83294797Y-24964964D01*
X83294403Y-25416495D01*
X83466833Y-25833806D01*
X83616800Y-25984035D01*
X83616800Y-26448874D01*
X83319130Y-26647771D01*
X82994274Y-27133952D01*
X82880200Y-27707441D01*
X82880200Y-27766159D01*
X82994274Y-28339648D01*
X83309326Y-28811156D01*
X83155501Y-28874873D01*
X82976873Y-29053502D01*
X82880200Y-29286891D01*
X82880200Y-29991050D01*
X83038950Y-30149800D01*
X84251800Y-30149800D01*
X84251800Y-30129800D01*
X84505800Y-30129800D01*
X84505800Y-30149800D01*
X84525800Y-30149800D01*
X84525800Y-30403800D01*
X84505800Y-30403800D01*
X84505800Y-31616650D01*
X84664550Y-31775400D01*
X85368710Y-31775400D01*
X85602099Y-31678727D01*
X85780727Y-31500098D01*
X85845063Y-31344777D01*
X85859130Y-31365829D01*
X86345311Y-31690685D01*
X86918800Y-31804759D01*
X87492289Y-31690685D01*
X87978470Y-31365829D01*
X88188800Y-31051048D01*
X88399130Y-31365829D01*
X88696800Y-31564726D01*
X88696800Y-32181800D01*
X88754804Y-32473405D01*
X88890578Y-32676604D01*
X88919985Y-32720615D01*
X89789000Y-33589630D01*
X89789000Y-33629600D01*
X89363550Y-33629600D01*
X89204800Y-33788350D01*
X89204800Y-35153600D01*
X89224800Y-35153600D01*
X89224800Y-35407600D01*
X89204800Y-35407600D01*
X89204800Y-35427600D01*
X88950800Y-35427600D01*
X88950800Y-35407600D01*
X88930800Y-35407600D01*
X88930800Y-35153600D01*
X88950800Y-35153600D01*
X88950800Y-33788350D01*
X88792050Y-33629600D01*
X88087890Y-33629600D01*
X87854501Y-33726273D01*
X87675873Y-33904902D01*
X87612300Y-34058380D01*
X87597470Y-34036185D01*
X87111289Y-33711329D01*
X86537800Y-33597255D01*
X85964311Y-33711329D01*
X85478130Y-34036185D01*
X85267800Y-34350966D01*
X85057470Y-34036185D01*
X84571289Y-33711329D01*
X83997800Y-33597255D01*
X83424311Y-33711329D01*
X82938130Y-34036185D01*
X82613274Y-34522366D01*
X82499200Y-35095855D01*
X82499200Y-35465345D01*
X82613274Y-36038834D01*
X82938130Y-36525015D01*
X83424311Y-36849871D01*
X83997800Y-36963945D01*
X84571289Y-36849871D01*
X85057470Y-36525015D01*
X85267800Y-36210234D01*
X85369272Y-36362097D01*
X83408185Y-38323185D01*
X83243004Y-38570395D01*
X83185000Y-38862000D01*
X83185000Y-45720000D01*
X80628298Y-45720000D01*
X80736785Y-45458734D01*
X80737214Y-44967421D01*
X80549592Y-44513343D01*
X80518000Y-44481696D01*
X80518000Y-32131000D01*
X80459996Y-31839395D01*
X80294815Y-31592185D01*
X79265180Y-30562550D01*
X82880200Y-30562550D01*
X82880200Y-31266709D01*
X82976873Y-31500098D01*
X83155501Y-31678727D01*
X83388890Y-31775400D01*
X84093050Y-31775400D01*
X84251800Y-31616650D01*
X84251800Y-30403800D01*
X83038950Y-30403800D01*
X82880200Y-30562550D01*
X79265180Y-30562550D01*
X78270000Y-29567370D01*
X78270000Y-28825030D01*
X78160767Y-28275879D01*
X77849698Y-27810332D01*
X77384151Y-27499263D01*
X76835000Y-27390030D01*
X76285849Y-27499263D01*
X75820302Y-27810332D01*
X75565000Y-28192418D01*
X75309698Y-27810332D01*
X74844151Y-27499263D01*
X74295000Y-27390030D01*
X73745849Y-27499263D01*
X73280302Y-27810332D01*
X73025000Y-28192418D01*
X72769698Y-27810332D01*
X72517000Y-27641484D01*
X72517000Y-21717000D01*
X72458996Y-21425395D01*
X72293815Y-21178185D01*
X71467132Y-20351502D01*
X74738917Y-20351502D01*
X75250204Y-21588912D01*
X76196108Y-22536468D01*
X77432624Y-23049914D01*
X78771502Y-23051083D01*
X80008912Y-22539796D01*
X80956468Y-21593892D01*
X81347668Y-20651777D01*
X85445828Y-20651777D01*
X85577520Y-20946657D01*
X86285036Y-21218261D01*
X87042632Y-21198436D01*
X87650480Y-20946657D01*
X87782172Y-20651777D01*
X86614000Y-19483605D01*
X85445828Y-20651777D01*
X81347668Y-20651777D01*
X81469914Y-20357376D01*
X81471083Y-19018498D01*
X81453125Y-18975036D01*
X84699739Y-18975036D01*
X84719564Y-19732632D01*
X84971343Y-20340480D01*
X85266223Y-20472172D01*
X86434395Y-19304000D01*
X86793605Y-19304000D01*
X87961777Y-20472172D01*
X88256657Y-20340480D01*
X88528261Y-19632964D01*
X88508436Y-18875368D01*
X88256657Y-18267520D01*
X87961777Y-18135828D01*
X86793605Y-19304000D01*
X86434395Y-19304000D01*
X85266223Y-18135828D01*
X84971343Y-18267520D01*
X84699739Y-18975036D01*
X81453125Y-18975036D01*
X81032161Y-17956223D01*
X85445828Y-17956223D01*
X86614000Y-19124395D01*
X87782172Y-17956223D01*
X87650480Y-17661343D01*
X86942964Y-17389739D01*
X86185368Y-17409564D01*
X85577520Y-17661343D01*
X85445828Y-17956223D01*
X81032161Y-17956223D01*
X80959796Y-17781088D01*
X80013892Y-16833532D01*
X78777376Y-16320086D01*
X77438498Y-16318917D01*
X76201088Y-16830204D01*
X75253532Y-17776108D01*
X74740086Y-19012624D01*
X74738917Y-20351502D01*
X71467132Y-20351502D01*
X70334619Y-19218989D01*
X70367280Y-19186384D01*
X70574763Y-18686708D01*
X70575236Y-18145666D01*
X70368624Y-17645628D01*
X69986384Y-17262720D01*
X69486708Y-17055237D01*
X68945666Y-17054764D01*
X68445628Y-17261376D01*
X68062720Y-17643616D01*
X67965033Y-17878873D01*
X67860010Y-17624697D01*
X67467370Y-17231371D01*
X66954100Y-17018243D01*
X66398339Y-17017758D01*
X65884697Y-17229990D01*
X65491371Y-17622630D01*
X65384984Y-17878838D01*
X65288624Y-17645628D01*
X64906384Y-17262720D01*
X64406708Y-17055237D01*
X63865666Y-17054764D01*
X63459325Y-17222661D01*
X63403816Y-17139585D01*
X62839935Y-16575705D01*
X62592725Y-16410524D01*
X62301120Y-16352520D01*
X60355480Y-16352520D01*
X60063875Y-16410524D01*
X59816664Y-16575705D01*
X59362382Y-17029987D01*
X59334100Y-17018243D01*
X58778339Y-17017758D01*
X58264697Y-17229990D01*
X57871371Y-17622630D01*
X57858760Y-17653000D01*
X56769000Y-17653000D01*
X56477395Y-17711004D01*
X56392753Y-17767560D01*
X56230185Y-17876184D01*
X53374347Y-20732022D01*
X53529914Y-20357376D01*
X53531083Y-19018498D01*
X53019796Y-17781088D01*
X52073892Y-16833532D01*
X50837376Y-16320086D01*
X49498498Y-16318917D01*
X48261088Y-16830204D01*
X47313532Y-17776108D01*
X46800086Y-19012624D01*
X46798917Y-20351502D01*
X47310204Y-21588912D01*
X47945183Y-22225000D01*
X45732440Y-22225000D01*
X45732440Y-21971000D01*
X45688162Y-21735683D01*
X45549090Y-21519559D01*
X45336890Y-21374569D01*
X45085000Y-21323560D01*
X43053000Y-21323560D01*
X42817683Y-21367838D01*
X42601559Y-21506910D01*
X42499802Y-21655837D01*
X42160810Y-21429330D01*
X41529000Y-21303655D01*
X40897190Y-21429330D01*
X40569450Y-21648319D01*
X39726772Y-20805642D01*
X39921670Y-20675415D01*
X40132000Y-20360634D01*
X40342330Y-20675415D01*
X40828511Y-21000271D01*
X41402000Y-21114345D01*
X41975489Y-21000271D01*
X42461670Y-20675415D01*
X42668461Y-20365931D01*
X43039964Y-20781732D01*
X43567209Y-21035709D01*
X43582974Y-21038358D01*
X43815000Y-20917217D01*
X43815000Y-19558000D01*
X44069000Y-19558000D01*
X44069000Y-20917217D01*
X44301026Y-21038358D01*
X44316791Y-21035709D01*
X44844036Y-20781732D01*
X45233954Y-20345320D01*
X45427184Y-19792913D01*
X45282924Y-19558000D01*
X44069000Y-19558000D01*
X43815000Y-19558000D01*
X43795000Y-19558000D01*
X43795000Y-19304000D01*
X43815000Y-19304000D01*
X43815000Y-17944783D01*
X44069000Y-17944783D01*
X44069000Y-19304000D01*
X45282924Y-19304000D01*
X45427184Y-19069087D01*
X45233954Y-18516680D01*
X44844036Y-18080268D01*
X44316791Y-17826291D01*
X44301026Y-17823642D01*
X44069000Y-17944783D01*
X43815000Y-17944783D01*
X43582974Y-17823642D01*
X43567209Y-17826291D01*
X43039964Y-18080268D01*
X42668461Y-18496069D01*
X42461670Y-18186585D01*
X41975489Y-17861729D01*
X41402000Y-17747655D01*
X40828511Y-17861729D01*
X40342330Y-18186585D01*
X40132000Y-18501366D01*
X39921670Y-18186585D01*
X39435489Y-17861729D01*
X38862000Y-17747655D01*
X38288511Y-17861729D01*
X37802330Y-18186585D01*
X37592000Y-18501366D01*
X37381670Y-18186585D01*
X36895489Y-17861729D01*
X36322000Y-17747655D01*
X35748511Y-17861729D01*
X35262330Y-18186585D01*
X35052000Y-18501366D01*
X34841670Y-18186585D01*
X34355489Y-17861729D01*
X33782000Y-17747655D01*
X33208511Y-17861729D01*
X32722330Y-18186585D01*
X32712757Y-18200913D01*
X32708762Y-18179683D01*
X32569690Y-17963559D01*
X32357490Y-17818569D01*
X32105600Y-17767560D01*
X30378400Y-17767560D01*
X30143083Y-17811838D01*
X29926959Y-17950910D01*
X29781969Y-18163110D01*
X29730960Y-18415000D01*
X29730960Y-20447000D01*
X29775238Y-20682317D01*
X29914310Y-20898441D01*
X30093180Y-21020658D01*
X30048560Y-21241000D01*
X30048560Y-22241000D01*
X30092838Y-22476317D01*
X30231910Y-22692441D01*
X30444110Y-22837431D01*
X30696000Y-22888440D01*
X32296000Y-22888440D01*
X32531317Y-22844162D01*
X32747441Y-22705090D01*
X32892431Y-22492890D01*
X32943440Y-22241000D01*
X32943440Y-21241000D01*
X32899162Y-21005683D01*
X32760090Y-20789559D01*
X32678275Y-20733657D01*
X32702031Y-20698890D01*
X32710400Y-20657561D01*
X32722330Y-20675415D01*
X33208511Y-21000271D01*
X33782000Y-21114345D01*
X34355489Y-21000271D01*
X34382556Y-20982186D01*
X35229169Y-21828799D01*
X35044734Y-21752215D01*
X34553421Y-21751786D01*
X34099343Y-21939408D01*
X33751629Y-22286515D01*
X33563215Y-22740266D01*
X33562786Y-23231579D01*
X33671630Y-23495000D01*
X31980000Y-23495000D01*
X31688395Y-23553004D01*
X31627699Y-23593560D01*
X30696000Y-23593560D01*
X30460683Y-23637838D01*
X30244559Y-23776910D01*
X30099569Y-23989110D01*
X30048560Y-24241000D01*
X30048560Y-25241000D01*
X30092838Y-25476317D01*
X30175177Y-25604276D01*
X30049569Y-25788110D01*
X29998560Y-26040000D01*
X29998560Y-26940000D01*
X30042838Y-27175317D01*
X30181910Y-27391441D01*
X30394110Y-27536431D01*
X30646000Y-27587440D01*
X32346000Y-27587440D01*
X32581317Y-27543162D01*
X32797441Y-27404090D01*
X32901360Y-27252000D01*
X33149200Y-27252000D01*
X33261053Y-27229751D01*
X33357466Y-27269785D01*
X33848779Y-27270214D01*
X34164535Y-27139746D01*
X34171760Y-27157189D01*
X34407372Y-27218843D01*
X35161955Y-26464260D01*
X35147813Y-26450118D01*
X35327418Y-26270513D01*
X35341560Y-26284655D01*
X35355703Y-26270513D01*
X35535308Y-26450118D01*
X35521165Y-26464260D01*
X35535308Y-26478403D01*
X35355703Y-26658008D01*
X35341560Y-26643865D01*
X34586977Y-27398448D01*
X34648631Y-27634060D01*
X35149040Y-27810187D01*
X35678759Y-27781408D01*
X35964200Y-27663175D01*
X35964200Y-31269201D01*
X35534080Y-31117813D01*
X35004361Y-31146592D01*
X34648631Y-31293940D01*
X34586977Y-31529552D01*
X35341560Y-32284135D01*
X35355703Y-32269993D01*
X35535308Y-32449598D01*
X35521165Y-32463740D01*
X35535308Y-32477883D01*
X35355703Y-32657488D01*
X35341560Y-32643345D01*
X34586977Y-33397928D01*
X34648631Y-33633540D01*
X35149040Y-33809667D01*
X35678759Y-33780888D01*
X35964200Y-33662655D01*
X35964200Y-33980149D01*
X35748559Y-34118910D01*
X35603569Y-34331110D01*
X35552560Y-34583000D01*
X35552560Y-36283000D01*
X35596838Y-36518317D01*
X35669114Y-36630636D01*
X35585400Y-36714350D01*
X35585400Y-37513600D01*
X35605400Y-37513600D01*
X35605400Y-37767600D01*
X35585400Y-37767600D01*
X35585400Y-38566850D01*
X35744150Y-38725600D01*
X36398200Y-38725600D01*
X36398200Y-39461345D01*
X36308400Y-39443160D01*
X35438590Y-39443160D01*
X35334615Y-39339185D01*
X35258586Y-39288384D01*
X35087405Y-39174004D01*
X34795800Y-39116000D01*
X34175440Y-39116000D01*
X34175440Y-38862000D01*
X34131162Y-38626683D01*
X33992090Y-38410559D01*
X33779890Y-38265569D01*
X33528000Y-38214560D01*
X32004000Y-38214560D01*
X31768683Y-38258838D01*
X31552559Y-38397910D01*
X31496626Y-38479770D01*
X31452090Y-38410559D01*
X31398646Y-38374042D01*
X31409985Y-38346734D01*
X31410352Y-37926350D01*
X33973400Y-37926350D01*
X33973400Y-38216909D01*
X34070073Y-38450298D01*
X34248701Y-38628927D01*
X34482090Y-38725600D01*
X35172650Y-38725600D01*
X35331400Y-38566850D01*
X35331400Y-37767600D01*
X34132150Y-37767600D01*
X33973400Y-37926350D01*
X31410352Y-37926350D01*
X31410414Y-37855421D01*
X31222792Y-37401343D01*
X30886329Y-37064291D01*
X33973400Y-37064291D01*
X33973400Y-37354850D01*
X34132150Y-37513600D01*
X35331400Y-37513600D01*
X35331400Y-36714350D01*
X35172650Y-36555600D01*
X34482090Y-36555600D01*
X34248701Y-36652273D01*
X34070073Y-36830902D01*
X33973400Y-37064291D01*
X30886329Y-37064291D01*
X30875685Y-37053629D01*
X30421934Y-36865215D01*
X29930621Y-36864786D01*
X29476543Y-37052408D01*
X29128829Y-37399515D01*
X28940415Y-37853266D01*
X28940062Y-38257508D01*
X28837783Y-38359787D01*
X28699890Y-38265569D01*
X28448000Y-38214560D01*
X26924000Y-38214560D01*
X26688683Y-38258838D01*
X26472559Y-38397910D01*
X26416626Y-38479770D01*
X26372090Y-38410559D01*
X26159890Y-38265569D01*
X25908000Y-38214560D01*
X24384000Y-38214560D01*
X24148683Y-38258838D01*
X23932559Y-38397910D01*
X23787569Y-38610110D01*
X23736560Y-38862000D01*
X23736560Y-40894000D01*
X23780838Y-41129317D01*
X23919910Y-41345441D01*
X24132110Y-41490431D01*
X24162731Y-41496632D01*
X24122560Y-41695000D01*
X24122560Y-43395000D01*
X24166838Y-43630317D01*
X24305910Y-43846441D01*
X24518110Y-43991431D01*
X24770000Y-44042440D01*
X25670000Y-44042440D01*
X25905317Y-43998162D01*
X26121441Y-43859090D01*
X26266431Y-43646890D01*
X26317440Y-43395000D01*
X26317440Y-41695000D01*
X26273162Y-41459683D01*
X26252196Y-41427100D01*
X26359441Y-41358090D01*
X26415374Y-41276230D01*
X26459910Y-41345441D01*
X26672110Y-41490431D01*
X26924000Y-41541440D01*
X27053657Y-41541440D01*
X27022560Y-41695000D01*
X27022560Y-43395000D01*
X27066838Y-43630317D01*
X27205910Y-43846441D01*
X27398979Y-43978359D01*
X27317543Y-44012008D01*
X26969829Y-44359115D01*
X26781415Y-44812866D01*
X26780986Y-45304179D01*
X26968608Y-45758257D01*
X27315715Y-46105971D01*
X27769466Y-46294385D01*
X28260779Y-46294814D01*
X28549600Y-46175475D01*
X28549600Y-47023678D01*
X28422600Y-46997960D01*
X27660600Y-46997960D01*
X27425283Y-47042238D01*
X27409501Y-47052393D01*
X27404490Y-47048969D01*
X27152600Y-46997960D01*
X26390600Y-46997960D01*
X26155283Y-47042238D01*
X26139501Y-47052393D01*
X26134490Y-47048969D01*
X25882600Y-46997960D01*
X25120600Y-46997960D01*
X24885283Y-47042238D01*
X24858061Y-47059755D01*
X24738909Y-47010400D01*
X24517350Y-47010400D01*
X24358600Y-47169150D01*
X24358600Y-48280400D01*
X24378600Y-48280400D01*
X24378600Y-48534400D01*
X24358600Y-48534400D01*
X24358600Y-49645650D01*
X24517350Y-49804400D01*
X24738909Y-49804400D01*
X24739600Y-49804114D01*
X24739600Y-52507774D01*
X24607629Y-52639515D01*
X24419215Y-53093266D01*
X24418786Y-53584579D01*
X24460173Y-53684743D01*
X21082000Y-50306570D01*
X21082000Y-47645400D01*
X21806160Y-47645400D01*
X21806160Y-49169400D01*
X21850438Y-49404717D01*
X21989510Y-49620841D01*
X22201710Y-49765831D01*
X22453600Y-49816840D01*
X23215600Y-49816840D01*
X23450917Y-49772562D01*
X23527874Y-49723041D01*
X23724291Y-49804400D01*
X23945850Y-49804400D01*
X24104600Y-49645650D01*
X24104600Y-48534400D01*
X24084600Y-48534400D01*
X24084600Y-48280400D01*
X24104600Y-48280400D01*
X24104600Y-47169150D01*
X23945850Y-47010400D01*
X23724291Y-47010400D01*
X23529269Y-47091181D01*
X23467490Y-47048969D01*
X23215600Y-46997960D01*
X22453600Y-46997960D01*
X22218283Y-47042238D01*
X22002159Y-47181310D01*
X21857169Y-47393510D01*
X21806160Y-47645400D01*
X21082000Y-47645400D01*
X21082000Y-45992440D01*
X21820000Y-45992440D01*
X22055317Y-45948162D01*
X22271441Y-45809090D01*
X22416431Y-45596890D01*
X22467440Y-45345000D01*
X22467440Y-44345000D01*
X22423162Y-44109683D01*
X22284090Y-43893559D01*
X22071890Y-43748569D01*
X21820000Y-43697560D01*
X18820000Y-43697560D01*
X18584683Y-43741838D01*
X18368559Y-43880910D01*
X18223569Y-44093110D01*
X18172560Y-44345000D01*
X18172560Y-45345000D01*
X18216838Y-45580317D01*
X18355910Y-45796441D01*
X18568110Y-45941431D01*
X18820000Y-45992440D01*
X19558000Y-45992440D01*
X19558000Y-50622200D01*
X19616004Y-50913805D01*
X19693483Y-51029760D01*
X19781185Y-51161015D01*
X24530570Y-55910400D01*
X24517350Y-55910400D01*
X24358600Y-56069150D01*
X24358600Y-57180400D01*
X24378600Y-57180400D01*
X24378600Y-57434400D01*
X24358600Y-57434400D01*
X24358600Y-58545650D01*
X24517350Y-58704400D01*
X24738909Y-58704400D01*
X24854863Y-58656370D01*
X24868710Y-58665831D01*
X25120600Y-58716840D01*
X25882600Y-58716840D01*
X26117917Y-58672562D01*
X26133699Y-58662407D01*
X26138710Y-58665831D01*
X26390600Y-58716840D01*
X27152600Y-58716840D01*
X27387917Y-58672562D01*
X27403699Y-58662407D01*
X27408710Y-58665831D01*
X27660600Y-58716840D01*
X28422600Y-58716840D01*
X28657917Y-58672562D01*
X28673699Y-58662407D01*
X28678710Y-58665831D01*
X28930600Y-58716840D01*
X29692600Y-58716840D01*
X29927917Y-58672562D01*
X29943699Y-58662407D01*
X29948710Y-58665831D01*
X30200600Y-58716840D01*
X30962600Y-58716840D01*
X31197917Y-58672562D01*
X31213699Y-58662407D01*
X31218710Y-58665831D01*
X31470600Y-58716840D01*
X32232600Y-58716840D01*
X32467917Y-58672562D01*
X32483699Y-58662407D01*
X32488710Y-58665831D01*
X32740600Y-58716840D01*
X33502600Y-58716840D01*
X33737917Y-58672562D01*
X33753699Y-58662407D01*
X33758710Y-58665831D01*
X34010600Y-58716840D01*
X34772600Y-58716840D01*
X35007917Y-58672562D01*
X35023699Y-58662407D01*
X35028710Y-58665831D01*
X35280600Y-58716840D01*
X36042600Y-58716840D01*
X36277917Y-58672562D01*
X36293699Y-58662407D01*
X36298710Y-58665831D01*
X36550600Y-58716840D01*
X37312600Y-58716840D01*
X37547917Y-58672562D01*
X37764041Y-58533490D01*
X37909031Y-58321290D01*
X37960040Y-58069400D01*
X37960040Y-57356590D01*
X40251631Y-55065000D01*
X40836382Y-55065000D01*
X40926110Y-55204441D01*
X41138310Y-55349431D01*
X41390200Y-55400440D01*
X43090200Y-55400440D01*
X43324960Y-55356267D01*
X43324960Y-56069600D01*
X43341294Y-56156408D01*
X43090200Y-56105560D01*
X41390200Y-56105560D01*
X41154883Y-56149838D01*
X40938759Y-56288910D01*
X40793769Y-56501110D01*
X40742760Y-56753000D01*
X40742760Y-57653000D01*
X40787038Y-57888317D01*
X40926110Y-58104441D01*
X41138310Y-58249431D01*
X41390200Y-58300440D01*
X41549992Y-58300440D01*
X41645916Y-58444000D01*
X41701385Y-58527015D01*
X42895185Y-59720815D01*
X43142395Y-59885996D01*
X43434000Y-59944000D01*
X44729400Y-59944000D01*
X45021005Y-59885996D01*
X45268215Y-59720815D01*
X45339000Y-59650030D01*
X45339000Y-60796560D01*
X45093400Y-60796560D01*
X44963811Y-60820944D01*
X44843400Y-60796560D01*
X44443400Y-60796560D01*
X44208083Y-60840838D01*
X43991959Y-60979910D01*
X43846969Y-61192110D01*
X43795960Y-61444000D01*
X43795960Y-62623400D01*
X43626485Y-62453629D01*
X43172734Y-62265215D01*
X42681421Y-62264786D01*
X42227343Y-62452408D01*
X41879629Y-62799515D01*
X41691215Y-63253266D01*
X41690786Y-63744579D01*
X41878408Y-64198657D01*
X42225515Y-64546371D01*
X42679266Y-64734785D01*
X43070960Y-64735127D01*
X43070960Y-65391400D01*
X43115238Y-65626717D01*
X43254310Y-65842841D01*
X43466510Y-65987831D01*
X43718400Y-66038840D01*
X44618400Y-66038840D01*
X44853717Y-65994562D01*
X45069841Y-65855490D01*
X45214831Y-65643290D01*
X45265840Y-65391400D01*
X45265840Y-64320590D01*
X45339000Y-64247430D01*
X45339000Y-70548500D01*
X17081500Y-70548500D01*
X17081500Y-63872473D01*
X19365132Y-63872473D01*
X19482229Y-64154959D01*
X20146515Y-64406634D01*
X20856548Y-64384940D01*
X21411771Y-64154959D01*
X21528868Y-63872473D01*
X20447000Y-62790605D01*
X19365132Y-63872473D01*
X17081500Y-63872473D01*
X17081500Y-62310515D01*
X18651366Y-62310515D01*
X18673060Y-63020548D01*
X18903041Y-63575771D01*
X19185527Y-63692868D01*
X20267395Y-62611000D01*
X20626605Y-62611000D01*
X21708473Y-63692868D01*
X21990959Y-63575771D01*
X22242634Y-62911485D01*
X22220940Y-62201452D01*
X21990959Y-61646229D01*
X21708473Y-61529132D01*
X20626605Y-62611000D01*
X20267395Y-62611000D01*
X19185527Y-61529132D01*
X18903041Y-61646229D01*
X18651366Y-62310515D01*
X17081500Y-62310515D01*
X17081500Y-61349527D01*
X19365132Y-61349527D01*
X20447000Y-62431395D01*
X21528868Y-61349527D01*
X21411771Y-61067041D01*
X20747485Y-60815366D01*
X20037452Y-60837060D01*
X19482229Y-61067041D01*
X19365132Y-61349527D01*
X17081500Y-61349527D01*
X17081500Y-57593150D01*
X21945600Y-57593150D01*
X21945600Y-58195710D01*
X22042273Y-58429099D01*
X22220902Y-58607727D01*
X22454291Y-58704400D01*
X22675850Y-58704400D01*
X22834600Y-58545650D01*
X22834600Y-57434400D01*
X23088600Y-57434400D01*
X23088600Y-58545650D01*
X23247350Y-58704400D01*
X23468909Y-58704400D01*
X23596600Y-58651509D01*
X23724291Y-58704400D01*
X23945850Y-58704400D01*
X24104600Y-58545650D01*
X24104600Y-57434400D01*
X23088600Y-57434400D01*
X22834600Y-57434400D01*
X22104350Y-57434400D01*
X21945600Y-57593150D01*
X17081500Y-57593150D01*
X17081500Y-56419090D01*
X21945600Y-56419090D01*
X21945600Y-57021650D01*
X22104350Y-57180400D01*
X22834600Y-57180400D01*
X22834600Y-56069150D01*
X23088600Y-56069150D01*
X23088600Y-57180400D01*
X24104600Y-57180400D01*
X24104600Y-56069150D01*
X23945850Y-55910400D01*
X23724291Y-55910400D01*
X23596600Y-55963291D01*
X23468909Y-55910400D01*
X23247350Y-55910400D01*
X23088600Y-56069150D01*
X22834600Y-56069150D01*
X22675850Y-55910400D01*
X22454291Y-55910400D01*
X22220902Y-56007073D01*
X22042273Y-56185701D01*
X21945600Y-56419090D01*
X17081500Y-56419090D01*
X17081500Y-32378121D01*
X18601484Y-32378121D01*
X18826154Y-32752168D01*
X19809388Y-33150880D01*
X20870357Y-33142975D01*
X21813846Y-32752168D01*
X22038516Y-32378121D01*
X20320000Y-30659605D01*
X18601484Y-32378121D01*
X17081500Y-32378121D01*
X17081500Y-29969388D01*
X17649120Y-29969388D01*
X17657025Y-31030357D01*
X18047832Y-31973846D01*
X18421879Y-32198516D01*
X20140395Y-30480000D01*
X20499605Y-30480000D01*
X22218121Y-32198516D01*
X22592168Y-31973846D01*
X22990880Y-30990612D01*
X22982975Y-29929643D01*
X22592168Y-28986154D01*
X22218121Y-28761484D01*
X20499605Y-30480000D01*
X20140395Y-30480000D01*
X18421879Y-28761484D01*
X18047832Y-28986154D01*
X17649120Y-29969388D01*
X17081500Y-29969388D01*
X17081500Y-28581879D01*
X18601484Y-28581879D01*
X20320000Y-30300395D01*
X22038516Y-28581879D01*
X21813846Y-28207832D01*
X20830612Y-27809120D01*
X19769643Y-27817025D01*
X18826154Y-28207832D01*
X18601484Y-28581879D01*
X17081500Y-28581879D01*
X17081500Y-24193320D01*
X17896285Y-24193320D01*
X18025533Y-24486123D01*
X18725806Y-24754388D01*
X19475435Y-24734250D01*
X20074467Y-24486123D01*
X20203715Y-24193320D01*
X19050000Y-23039605D01*
X17896285Y-24193320D01*
X17081500Y-24193320D01*
X17081500Y-22535806D01*
X17155612Y-22535806D01*
X17175750Y-23285435D01*
X17423877Y-23884467D01*
X17716680Y-24013715D01*
X18870395Y-22860000D01*
X17716680Y-21706285D01*
X17423877Y-21835533D01*
X17155612Y-22535806D01*
X17081500Y-22535806D01*
X17081500Y-19113320D01*
X17896285Y-19113320D01*
X18025533Y-19406123D01*
X18725806Y-19674388D01*
X19475435Y-19654250D01*
X19963476Y-19452097D01*
X19755319Y-19953395D01*
X19754682Y-20683403D01*
X19964769Y-21191853D01*
X19374194Y-20965612D01*
X18624565Y-20985750D01*
X18025533Y-21233877D01*
X17896285Y-21526680D01*
X19050000Y-22680395D01*
X19064143Y-22666253D01*
X19243748Y-22845858D01*
X19229605Y-22860000D01*
X20383320Y-24013715D01*
X20676123Y-23884467D01*
X20828000Y-23488011D01*
X20828000Y-23939500D01*
X20886004Y-24231105D01*
X21026708Y-24441683D01*
X21051185Y-24478315D01*
X26924000Y-30351130D01*
X26924000Y-30594560D01*
X26688683Y-30638838D01*
X26472559Y-30777910D01*
X26416626Y-30859770D01*
X26372090Y-30790559D01*
X26159890Y-30645569D01*
X25908000Y-30594560D01*
X24384000Y-30594560D01*
X24148683Y-30638838D01*
X23932559Y-30777910D01*
X23787569Y-30990110D01*
X23736560Y-31242000D01*
X23736560Y-33274000D01*
X23780838Y-33509317D01*
X23919910Y-33725441D01*
X24132110Y-33870431D01*
X24384000Y-33921440D01*
X24384000Y-35752369D01*
X23286050Y-36850320D01*
X22064191Y-36850320D01*
X21961657Y-36602169D01*
X21459793Y-36099428D01*
X20803740Y-35827011D01*
X20093377Y-35826391D01*
X19436849Y-36097663D01*
X18934108Y-36599527D01*
X18661691Y-37255580D01*
X18661071Y-37965943D01*
X18932343Y-38622471D01*
X19406603Y-39097560D01*
X18820000Y-39097560D01*
X18584683Y-39141838D01*
X18368559Y-39280910D01*
X18223569Y-39493110D01*
X18172560Y-39745000D01*
X18172560Y-40745000D01*
X18216838Y-40980317D01*
X18355910Y-41196441D01*
X18568110Y-41341431D01*
X18820000Y-41392440D01*
X21820000Y-41392440D01*
X22055317Y-41348162D01*
X22271441Y-41209090D01*
X22416431Y-40996890D01*
X22467440Y-40745000D01*
X22467440Y-39745000D01*
X22423162Y-39509683D01*
X22284090Y-39293559D01*
X22071890Y-39148569D01*
X21820000Y-39097560D01*
X21486619Y-39097560D01*
X21959892Y-38625113D01*
X22064030Y-38374320D01*
X23601680Y-38374320D01*
X23893285Y-38316316D01*
X24140495Y-38151135D01*
X25684815Y-36606816D01*
X25849996Y-36359605D01*
X25856383Y-36327496D01*
X25908000Y-36068000D01*
X25908000Y-33921440D01*
X26143317Y-33877162D01*
X26359441Y-33738090D01*
X26415374Y-33656230D01*
X26459910Y-33725441D01*
X26672110Y-33870431D01*
X26924000Y-33921440D01*
X28448000Y-33921440D01*
X28683317Y-33877162D01*
X28899441Y-33738090D01*
X28955374Y-33656230D01*
X28999910Y-33725441D01*
X29212110Y-33870431D01*
X29464000Y-33921440D01*
X30988000Y-33921440D01*
X31223317Y-33877162D01*
X31439441Y-33738090D01*
X31495374Y-33656230D01*
X31539910Y-33725441D01*
X31752110Y-33870431D01*
X32004000Y-33921440D01*
X33528000Y-33921440D01*
X33763317Y-33877162D01*
X33979441Y-33738090D01*
X34124431Y-33525890D01*
X34175440Y-33274000D01*
X34175440Y-33157632D01*
X34407372Y-33218323D01*
X35161955Y-32463740D01*
X34407372Y-31709157D01*
X34175440Y-31769848D01*
X34175440Y-31242000D01*
X34131162Y-31006683D01*
X33992090Y-30790559D01*
X33779890Y-30645569D01*
X33730186Y-30635504D01*
X33845657Y-30587792D01*
X34193371Y-30240685D01*
X34381785Y-29786934D01*
X34382214Y-29295621D01*
X34194592Y-28841543D01*
X33847485Y-28493829D01*
X33393734Y-28305415D01*
X32902421Y-28304986D01*
X32677461Y-28397938D01*
X32597890Y-28343569D01*
X32346000Y-28292560D01*
X30646000Y-28292560D01*
X30410683Y-28336838D01*
X30194559Y-28475910D01*
X30049569Y-28688110D01*
X29998560Y-28940000D01*
X29998560Y-29840000D01*
X30042838Y-30075317D01*
X30181910Y-30291441D01*
X30394110Y-30436431D01*
X30646000Y-30487440D01*
X31515810Y-30487440D01*
X31706939Y-30678569D01*
X31552559Y-30777910D01*
X31496626Y-30859770D01*
X31452090Y-30790559D01*
X31239890Y-30645569D01*
X30988000Y-30594560D01*
X29464000Y-30594560D01*
X29228683Y-30638838D01*
X29012559Y-30777910D01*
X28956626Y-30859770D01*
X28912090Y-30790559D01*
X28699890Y-30645569D01*
X28448000Y-30594560D01*
X28448000Y-30035500D01*
X28389996Y-29743895D01*
X28224815Y-29496685D01*
X23281765Y-24553635D01*
X23805806Y-24754388D01*
X24555435Y-24734250D01*
X25154467Y-24486123D01*
X25283715Y-24193320D01*
X24130000Y-23039605D01*
X24115858Y-23053748D01*
X23936253Y-22874143D01*
X23950395Y-22860000D01*
X24309605Y-22860000D01*
X25463320Y-24013715D01*
X25756123Y-23884467D01*
X26024388Y-23184194D01*
X26004250Y-22434565D01*
X25756123Y-21835533D01*
X25463320Y-21706285D01*
X24309605Y-22860000D01*
X23950395Y-22860000D01*
X23936253Y-22845858D01*
X24115858Y-22666253D01*
X24130000Y-22680395D01*
X25283715Y-21526680D01*
X25154467Y-21233877D01*
X24454194Y-20965612D01*
X23704565Y-20985750D01*
X23216524Y-21187903D01*
X23424681Y-20686605D01*
X23425318Y-19956597D01*
X23215231Y-19448147D01*
X23805806Y-19674388D01*
X24555435Y-19654250D01*
X25154467Y-19406123D01*
X25283715Y-19113320D01*
X24130000Y-17959605D01*
X24115858Y-17973748D01*
X23936253Y-17794143D01*
X23950395Y-17780000D01*
X24309605Y-17780000D01*
X25463320Y-18933715D01*
X25756123Y-18804467D01*
X26024388Y-18104194D01*
X26004250Y-17354565D01*
X25756123Y-16755533D01*
X25463320Y-16626285D01*
X24309605Y-17780000D01*
X23950395Y-17780000D01*
X22796680Y-16626285D01*
X22503877Y-16755533D01*
X22235612Y-17455806D01*
X22255750Y-18205435D01*
X22457903Y-18693476D01*
X21956605Y-18485319D01*
X21226597Y-18484682D01*
X20718147Y-18694769D01*
X20944388Y-18104194D01*
X20924250Y-17354565D01*
X20676123Y-16755533D01*
X20383320Y-16626285D01*
X19229605Y-17780000D01*
X19243748Y-17794143D01*
X19064143Y-17973748D01*
X19050000Y-17959605D01*
X17896285Y-19113320D01*
X17081500Y-19113320D01*
X17081500Y-17455806D01*
X17155612Y-17455806D01*
X17175750Y-18205435D01*
X17423877Y-18804467D01*
X17716680Y-18933715D01*
X18870395Y-17780000D01*
X17716680Y-16626285D01*
X17423877Y-16755533D01*
X17155612Y-17455806D01*
X17081500Y-17455806D01*
X17081500Y-16065500D01*
X18238894Y-16065500D01*
X18025533Y-16153877D01*
X18025533Y-16153877D01*
G37*
X18025533Y-16153877D02*
X17896285Y-16446680D01*
X19050000Y-17600395D01*
X20203715Y-16446680D01*
X20074467Y-16153877D01*
X19843770Y-16065500D01*
X23318894Y-16065500D01*
X23105533Y-16153877D01*
X22976285Y-16446680D01*
X24130000Y-17600395D01*
X25283715Y-16446680D01*
X25154467Y-16153877D01*
X24923770Y-16065500D01*
X92329000Y-16065500D01*
X92329000Y-17504972D01*
X92074590Y-17399332D01*
X91316735Y-17398670D01*
X90616314Y-17688078D01*
X90079961Y-18223495D01*
X89789332Y-18923410D01*
X89788670Y-19681265D01*
X90078078Y-20381686D01*
X90613495Y-20918039D01*
X90932000Y-21050293D01*
X90932000Y-27579747D01*
X90843326Y-27133952D01*
X90518470Y-26647771D01*
X90032289Y-26322915D01*
X89458800Y-26208841D01*
X88885311Y-26322915D01*
X88399130Y-26647771D01*
X88188800Y-26962552D01*
X87978470Y-26647771D01*
X87492289Y-26322915D01*
X86918800Y-26208841D01*
X86345311Y-26322915D01*
X85859130Y-26647771D01*
X85648800Y-26962552D01*
X85438470Y-26647771D01*
X85140800Y-26448874D01*
X85140800Y-26085493D01*
X85391245Y-25835485D01*
X85564403Y-25418476D01*
X85564797Y-24966945D01*
X85392367Y-24549634D01*
X85073365Y-24230075D01*
X84656356Y-24056917D01*
X84204825Y-24056523D01*
X83787514Y-24228953D01*
X83467955Y-24547955D01*
X83294797Y-24964964D01*
X83294403Y-25416495D01*
X83466833Y-25833806D01*
X83616800Y-25984035D01*
X83616800Y-26448874D01*
X83319130Y-26647771D01*
X82994274Y-27133952D01*
X82880200Y-27707441D01*
X82880200Y-27766159D01*
X82994274Y-28339648D01*
X83309326Y-28811156D01*
X83155501Y-28874873D01*
X82976873Y-29053502D01*
X82880200Y-29286891D01*
X82880200Y-29991050D01*
X83038950Y-30149800D01*
X84251800Y-30149800D01*
X84251800Y-30129800D01*
X84505800Y-30129800D01*
X84505800Y-30149800D01*
X84525800Y-30149800D01*
X84525800Y-30403800D01*
X84505800Y-30403800D01*
X84505800Y-31616650D01*
X84664550Y-31775400D01*
X85368710Y-31775400D01*
X85602099Y-31678727D01*
X85780727Y-31500098D01*
X85845063Y-31344777D01*
X85859130Y-31365829D01*
X86345311Y-31690685D01*
X86918800Y-31804759D01*
X87492289Y-31690685D01*
X87978470Y-31365829D01*
X88188800Y-31051048D01*
X88399130Y-31365829D01*
X88696800Y-31564726D01*
X88696800Y-32181800D01*
X88754804Y-32473405D01*
X88890578Y-32676604D01*
X88919985Y-32720615D01*
X89789000Y-33589630D01*
X89789000Y-33629600D01*
X89363550Y-33629600D01*
X89204800Y-33788350D01*
X89204800Y-35153600D01*
X89224800Y-35153600D01*
X89224800Y-35407600D01*
X89204800Y-35407600D01*
X89204800Y-35427600D01*
X88950800Y-35427600D01*
X88950800Y-35407600D01*
X88930800Y-35407600D01*
X88930800Y-35153600D01*
X88950800Y-35153600D01*
X88950800Y-33788350D01*
X88792050Y-33629600D01*
X88087890Y-33629600D01*
X87854501Y-33726273D01*
X87675873Y-33904902D01*
X87612300Y-34058380D01*
X87597470Y-34036185D01*
X87111289Y-33711329D01*
X86537800Y-33597255D01*
X85964311Y-33711329D01*
X85478130Y-34036185D01*
X85267800Y-34350966D01*
X85057470Y-34036185D01*
X84571289Y-33711329D01*
X83997800Y-33597255D01*
X83424311Y-33711329D01*
X82938130Y-34036185D01*
X82613274Y-34522366D01*
X82499200Y-35095855D01*
X82499200Y-35465345D01*
X82613274Y-36038834D01*
X82938130Y-36525015D01*
X83424311Y-36849871D01*
X83997800Y-36963945D01*
X84571289Y-36849871D01*
X85057470Y-36525015D01*
X85267800Y-36210234D01*
X85369272Y-36362097D01*
X83408185Y-38323185D01*
X83243004Y-38570395D01*
X83185000Y-38862000D01*
X83185000Y-45720000D01*
X80628298Y-45720000D01*
X80736785Y-45458734D01*
X80737214Y-44967421D01*
X80549592Y-44513343D01*
X80518000Y-44481696D01*
X80518000Y-32131000D01*
X80459996Y-31839395D01*
X80294815Y-31592185D01*
X79265180Y-30562550D01*
X82880200Y-30562550D01*
X82880200Y-31266709D01*
X82976873Y-31500098D01*
X83155501Y-31678727D01*
X83388890Y-31775400D01*
X84093050Y-31775400D01*
X84251800Y-31616650D01*
X84251800Y-30403800D01*
X83038950Y-30403800D01*
X82880200Y-30562550D01*
X79265180Y-30562550D01*
X78270000Y-29567370D01*
X78270000Y-28825030D01*
X78160767Y-28275879D01*
X77849698Y-27810332D01*
X77384151Y-27499263D01*
X76835000Y-27390030D01*
X76285849Y-27499263D01*
X75820302Y-27810332D01*
X75565000Y-28192418D01*
X75309698Y-27810332D01*
X74844151Y-27499263D01*
X74295000Y-27390030D01*
X73745849Y-27499263D01*
X73280302Y-27810332D01*
X73025000Y-28192418D01*
X72769698Y-27810332D01*
X72517000Y-27641484D01*
X72517000Y-21717000D01*
X72458996Y-21425395D01*
X72293815Y-21178185D01*
X71467132Y-20351502D01*
X74738917Y-20351502D01*
X75250204Y-21588912D01*
X76196108Y-22536468D01*
X77432624Y-23049914D01*
X78771502Y-23051083D01*
X80008912Y-22539796D01*
X80956468Y-21593892D01*
X81347668Y-20651777D01*
X85445828Y-20651777D01*
X85577520Y-20946657D01*
X86285036Y-21218261D01*
X87042632Y-21198436D01*
X87650480Y-20946657D01*
X87782172Y-20651777D01*
X86614000Y-19483605D01*
X85445828Y-20651777D01*
X81347668Y-20651777D01*
X81469914Y-20357376D01*
X81471083Y-19018498D01*
X81453125Y-18975036D01*
X84699739Y-18975036D01*
X84719564Y-19732632D01*
X84971343Y-20340480D01*
X85266223Y-20472172D01*
X86434395Y-19304000D01*
X86793605Y-19304000D01*
X87961777Y-20472172D01*
X88256657Y-20340480D01*
X88528261Y-19632964D01*
X88508436Y-18875368D01*
X88256657Y-18267520D01*
X87961777Y-18135828D01*
X86793605Y-19304000D01*
X86434395Y-19304000D01*
X85266223Y-18135828D01*
X84971343Y-18267520D01*
X84699739Y-18975036D01*
X81453125Y-18975036D01*
X81032161Y-17956223D01*
X85445828Y-17956223D01*
X86614000Y-19124395D01*
X87782172Y-17956223D01*
X87650480Y-17661343D01*
X86942964Y-17389739D01*
X86185368Y-17409564D01*
X85577520Y-17661343D01*
X85445828Y-17956223D01*
X81032161Y-17956223D01*
X80959796Y-17781088D01*
X80013892Y-16833532D01*
X78777376Y-16320086D01*
X77438498Y-16318917D01*
X76201088Y-16830204D01*
X75253532Y-17776108D01*
X74740086Y-19012624D01*
X74738917Y-20351502D01*
X71467132Y-20351502D01*
X70334619Y-19218989D01*
X70367280Y-19186384D01*
X70574763Y-18686708D01*
X70575236Y-18145666D01*
X70368624Y-17645628D01*
X69986384Y-17262720D01*
X69486708Y-17055237D01*
X68945666Y-17054764D01*
X68445628Y-17261376D01*
X68062720Y-17643616D01*
X67965033Y-17878873D01*
X67860010Y-17624697D01*
X67467370Y-17231371D01*
X66954100Y-17018243D01*
X66398339Y-17017758D01*
X65884697Y-17229990D01*
X65491371Y-17622630D01*
X65384984Y-17878838D01*
X65288624Y-17645628D01*
X64906384Y-17262720D01*
X64406708Y-17055237D01*
X63865666Y-17054764D01*
X63459325Y-17222661D01*
X63403816Y-17139585D01*
X62839935Y-16575705D01*
X62592725Y-16410524D01*
X62301120Y-16352520D01*
X60355480Y-16352520D01*
X60063875Y-16410524D01*
X59816664Y-16575705D01*
X59362382Y-17029987D01*
X59334100Y-17018243D01*
X58778339Y-17017758D01*
X58264697Y-17229990D01*
X57871371Y-17622630D01*
X57858760Y-17653000D01*
X56769000Y-17653000D01*
X56477395Y-17711004D01*
X56392753Y-17767560D01*
X56230185Y-17876184D01*
X53374347Y-20732022D01*
X53529914Y-20357376D01*
X53531083Y-19018498D01*
X53019796Y-17781088D01*
X52073892Y-16833532D01*
X50837376Y-16320086D01*
X49498498Y-16318917D01*
X48261088Y-16830204D01*
X47313532Y-17776108D01*
X46800086Y-19012624D01*
X46798917Y-20351502D01*
X47310204Y-21588912D01*
X47945183Y-22225000D01*
X45732440Y-22225000D01*
X45732440Y-21971000D01*
X45688162Y-21735683D01*
X45549090Y-21519559D01*
X45336890Y-21374569D01*
X45085000Y-21323560D01*
X43053000Y-21323560D01*
X42817683Y-21367838D01*
X42601559Y-21506910D01*
X42499802Y-21655837D01*
X42160810Y-21429330D01*
X41529000Y-21303655D01*
X40897190Y-21429330D01*
X40569450Y-21648319D01*
X39726772Y-20805642D01*
X39921670Y-20675415D01*
X40132000Y-20360634D01*
X40342330Y-20675415D01*
X40828511Y-21000271D01*
X41402000Y-21114345D01*
X41975489Y-21000271D01*
X42461670Y-20675415D01*
X42668461Y-20365931D01*
X43039964Y-20781732D01*
X43567209Y-21035709D01*
X43582974Y-21038358D01*
X43815000Y-20917217D01*
X43815000Y-19558000D01*
X44069000Y-19558000D01*
X44069000Y-20917217D01*
X44301026Y-21038358D01*
X44316791Y-21035709D01*
X44844036Y-20781732D01*
X45233954Y-20345320D01*
X45427184Y-19792913D01*
X45282924Y-19558000D01*
X44069000Y-19558000D01*
X43815000Y-19558000D01*
X43795000Y-19558000D01*
X43795000Y-19304000D01*
X43815000Y-19304000D01*
X43815000Y-17944783D01*
X44069000Y-17944783D01*
X44069000Y-19304000D01*
X45282924Y-19304000D01*
X45427184Y-19069087D01*
X45233954Y-18516680D01*
X44844036Y-18080268D01*
X44316791Y-17826291D01*
X44301026Y-17823642D01*
X44069000Y-17944783D01*
X43815000Y-17944783D01*
X43582974Y-17823642D01*
X43567209Y-17826291D01*
X43039964Y-18080268D01*
X42668461Y-18496069D01*
X42461670Y-18186585D01*
X41975489Y-17861729D01*
X41402000Y-17747655D01*
X40828511Y-17861729D01*
X40342330Y-18186585D01*
X40132000Y-18501366D01*
X39921670Y-18186585D01*
X39435489Y-17861729D01*
X38862000Y-17747655D01*
X38288511Y-17861729D01*
X37802330Y-18186585D01*
X37592000Y-18501366D01*
X37381670Y-18186585D01*
X36895489Y-17861729D01*
X36322000Y-17747655D01*
X35748511Y-17861729D01*
X35262330Y-18186585D01*
X35052000Y-18501366D01*
X34841670Y-18186585D01*
X34355489Y-17861729D01*
X33782000Y-17747655D01*
X33208511Y-17861729D01*
X32722330Y-18186585D01*
X32712757Y-18200913D01*
X32708762Y-18179683D01*
X32569690Y-17963559D01*
X32357490Y-17818569D01*
X32105600Y-17767560D01*
X30378400Y-17767560D01*
X30143083Y-17811838D01*
X29926959Y-17950910D01*
X29781969Y-18163110D01*
X29730960Y-18415000D01*
X29730960Y-20447000D01*
X29775238Y-20682317D01*
X29914310Y-20898441D01*
X30093180Y-21020658D01*
X30048560Y-21241000D01*
X30048560Y-22241000D01*
X30092838Y-22476317D01*
X30231910Y-22692441D01*
X30444110Y-22837431D01*
X30696000Y-22888440D01*
X32296000Y-22888440D01*
X32531317Y-22844162D01*
X32747441Y-22705090D01*
X32892431Y-22492890D01*
X32943440Y-22241000D01*
X32943440Y-21241000D01*
X32899162Y-21005683D01*
X32760090Y-20789559D01*
X32678275Y-20733657D01*
X32702031Y-20698890D01*
X32710400Y-20657561D01*
X32722330Y-20675415D01*
X33208511Y-21000271D01*
X33782000Y-21114345D01*
X34355489Y-21000271D01*
X34382556Y-20982186D01*
X35229169Y-21828799D01*
X35044734Y-21752215D01*
X34553421Y-21751786D01*
X34099343Y-21939408D01*
X33751629Y-22286515D01*
X33563215Y-22740266D01*
X33562786Y-23231579D01*
X33671630Y-23495000D01*
X31980000Y-23495000D01*
X31688395Y-23553004D01*
X31627699Y-23593560D01*
X30696000Y-23593560D01*
X30460683Y-23637838D01*
X30244559Y-23776910D01*
X30099569Y-23989110D01*
X30048560Y-24241000D01*
X30048560Y-25241000D01*
X30092838Y-25476317D01*
X30175177Y-25604276D01*
X30049569Y-25788110D01*
X29998560Y-26040000D01*
X29998560Y-26940000D01*
X30042838Y-27175317D01*
X30181910Y-27391441D01*
X30394110Y-27536431D01*
X30646000Y-27587440D01*
X32346000Y-27587440D01*
X32581317Y-27543162D01*
X32797441Y-27404090D01*
X32901360Y-27252000D01*
X33149200Y-27252000D01*
X33261053Y-27229751D01*
X33357466Y-27269785D01*
X33848779Y-27270214D01*
X34164535Y-27139746D01*
X34171760Y-27157189D01*
X34407372Y-27218843D01*
X35161955Y-26464260D01*
X35147813Y-26450118D01*
X35327418Y-26270513D01*
X35341560Y-26284655D01*
X35355703Y-26270513D01*
X35535308Y-26450118D01*
X35521165Y-26464260D01*
X35535308Y-26478403D01*
X35355703Y-26658008D01*
X35341560Y-26643865D01*
X34586977Y-27398448D01*
X34648631Y-27634060D01*
X35149040Y-27810187D01*
X35678759Y-27781408D01*
X35964200Y-27663175D01*
X35964200Y-31269201D01*
X35534080Y-31117813D01*
X35004361Y-31146592D01*
X34648631Y-31293940D01*
X34586977Y-31529552D01*
X35341560Y-32284135D01*
X35355703Y-32269993D01*
X35535308Y-32449598D01*
X35521165Y-32463740D01*
X35535308Y-32477883D01*
X35355703Y-32657488D01*
X35341560Y-32643345D01*
X34586977Y-33397928D01*
X34648631Y-33633540D01*
X35149040Y-33809667D01*
X35678759Y-33780888D01*
X35964200Y-33662655D01*
X35964200Y-33980149D01*
X35748559Y-34118910D01*
X35603569Y-34331110D01*
X35552560Y-34583000D01*
X35552560Y-36283000D01*
X35596838Y-36518317D01*
X35669114Y-36630636D01*
X35585400Y-36714350D01*
X35585400Y-37513600D01*
X35605400Y-37513600D01*
X35605400Y-37767600D01*
X35585400Y-37767600D01*
X35585400Y-38566850D01*
X35744150Y-38725600D01*
X36398200Y-38725600D01*
X36398200Y-39461345D01*
X36308400Y-39443160D01*
X35438590Y-39443160D01*
X35334615Y-39339185D01*
X35258586Y-39288384D01*
X35087405Y-39174004D01*
X34795800Y-39116000D01*
X34175440Y-39116000D01*
X34175440Y-38862000D01*
X34131162Y-38626683D01*
X33992090Y-38410559D01*
X33779890Y-38265569D01*
X33528000Y-38214560D01*
X32004000Y-38214560D01*
X31768683Y-38258838D01*
X31552559Y-38397910D01*
X31496626Y-38479770D01*
X31452090Y-38410559D01*
X31398646Y-38374042D01*
X31409985Y-38346734D01*
X31410352Y-37926350D01*
X33973400Y-37926350D01*
X33973400Y-38216909D01*
X34070073Y-38450298D01*
X34248701Y-38628927D01*
X34482090Y-38725600D01*
X35172650Y-38725600D01*
X35331400Y-38566850D01*
X35331400Y-37767600D01*
X34132150Y-37767600D01*
X33973400Y-37926350D01*
X31410352Y-37926350D01*
X31410414Y-37855421D01*
X31222792Y-37401343D01*
X30886329Y-37064291D01*
X33973400Y-37064291D01*
X33973400Y-37354850D01*
X34132150Y-37513600D01*
X35331400Y-37513600D01*
X35331400Y-36714350D01*
X35172650Y-36555600D01*
X34482090Y-36555600D01*
X34248701Y-36652273D01*
X34070073Y-36830902D01*
X33973400Y-37064291D01*
X30886329Y-37064291D01*
X30875685Y-37053629D01*
X30421934Y-36865215D01*
X29930621Y-36864786D01*
X29476543Y-37052408D01*
X29128829Y-37399515D01*
X28940415Y-37853266D01*
X28940062Y-38257508D01*
X28837783Y-38359787D01*
X28699890Y-38265569D01*
X28448000Y-38214560D01*
X26924000Y-38214560D01*
X26688683Y-38258838D01*
X26472559Y-38397910D01*
X26416626Y-38479770D01*
X26372090Y-38410559D01*
X26159890Y-38265569D01*
X25908000Y-38214560D01*
X24384000Y-38214560D01*
X24148683Y-38258838D01*
X23932559Y-38397910D01*
X23787569Y-38610110D01*
X23736560Y-38862000D01*
X23736560Y-40894000D01*
X23780838Y-41129317D01*
X23919910Y-41345441D01*
X24132110Y-41490431D01*
X24162731Y-41496632D01*
X24122560Y-41695000D01*
X24122560Y-43395000D01*
X24166838Y-43630317D01*
X24305910Y-43846441D01*
X24518110Y-43991431D01*
X24770000Y-44042440D01*
X25670000Y-44042440D01*
X25905317Y-43998162D01*
X26121441Y-43859090D01*
X26266431Y-43646890D01*
X26317440Y-43395000D01*
X26317440Y-41695000D01*
X26273162Y-41459683D01*
X26252196Y-41427100D01*
X26359441Y-41358090D01*
X26415374Y-41276230D01*
X26459910Y-41345441D01*
X26672110Y-41490431D01*
X26924000Y-41541440D01*
X27053657Y-41541440D01*
X27022560Y-41695000D01*
X27022560Y-43395000D01*
X27066838Y-43630317D01*
X27205910Y-43846441D01*
X27398979Y-43978359D01*
X27317543Y-44012008D01*
X26969829Y-44359115D01*
X26781415Y-44812866D01*
X26780986Y-45304179D01*
X26968608Y-45758257D01*
X27315715Y-46105971D01*
X27769466Y-46294385D01*
X28260779Y-46294814D01*
X28549600Y-46175475D01*
X28549600Y-47023678D01*
X28422600Y-46997960D01*
X27660600Y-46997960D01*
X27425283Y-47042238D01*
X27409501Y-47052393D01*
X27404490Y-47048969D01*
X27152600Y-46997960D01*
X26390600Y-46997960D01*
X26155283Y-47042238D01*
X26139501Y-47052393D01*
X26134490Y-47048969D01*
X25882600Y-46997960D01*
X25120600Y-46997960D01*
X24885283Y-47042238D01*
X24858061Y-47059755D01*
X24738909Y-47010400D01*
X24517350Y-47010400D01*
X24358600Y-47169150D01*
X24358600Y-48280400D01*
X24378600Y-48280400D01*
X24378600Y-48534400D01*
X24358600Y-48534400D01*
X24358600Y-49645650D01*
X24517350Y-49804400D01*
X24738909Y-49804400D01*
X24739600Y-49804114D01*
X24739600Y-52507774D01*
X24607629Y-52639515D01*
X24419215Y-53093266D01*
X24418786Y-53584579D01*
X24460173Y-53684743D01*
X21082000Y-50306570D01*
X21082000Y-47645400D01*
X21806160Y-47645400D01*
X21806160Y-49169400D01*
X21850438Y-49404717D01*
X21989510Y-49620841D01*
X22201710Y-49765831D01*
X22453600Y-49816840D01*
X23215600Y-49816840D01*
X23450917Y-49772562D01*
X23527874Y-49723041D01*
X23724291Y-49804400D01*
X23945850Y-49804400D01*
X24104600Y-49645650D01*
X24104600Y-48534400D01*
X24084600Y-48534400D01*
X24084600Y-48280400D01*
X24104600Y-48280400D01*
X24104600Y-47169150D01*
X23945850Y-47010400D01*
X23724291Y-47010400D01*
X23529269Y-47091181D01*
X23467490Y-47048969D01*
X23215600Y-46997960D01*
X22453600Y-46997960D01*
X22218283Y-47042238D01*
X22002159Y-47181310D01*
X21857169Y-47393510D01*
X21806160Y-47645400D01*
X21082000Y-47645400D01*
X21082000Y-45992440D01*
X21820000Y-45992440D01*
X22055317Y-45948162D01*
X22271441Y-45809090D01*
X22416431Y-45596890D01*
X22467440Y-45345000D01*
X22467440Y-44345000D01*
X22423162Y-44109683D01*
X22284090Y-43893559D01*
X22071890Y-43748569D01*
X21820000Y-43697560D01*
X18820000Y-43697560D01*
X18584683Y-43741838D01*
X18368559Y-43880910D01*
X18223569Y-44093110D01*
X18172560Y-44345000D01*
X18172560Y-45345000D01*
X18216838Y-45580317D01*
X18355910Y-45796441D01*
X18568110Y-45941431D01*
X18820000Y-45992440D01*
X19558000Y-45992440D01*
X19558000Y-50622200D01*
X19616004Y-50913805D01*
X19693483Y-51029760D01*
X19781185Y-51161015D01*
X24530570Y-55910400D01*
X24517350Y-55910400D01*
X24358600Y-56069150D01*
X24358600Y-57180400D01*
X24378600Y-57180400D01*
X24378600Y-57434400D01*
X24358600Y-57434400D01*
X24358600Y-58545650D01*
X24517350Y-58704400D01*
X24738909Y-58704400D01*
X24854863Y-58656370D01*
X24868710Y-58665831D01*
X25120600Y-58716840D01*
X25882600Y-58716840D01*
X26117917Y-58672562D01*
X26133699Y-58662407D01*
X26138710Y-58665831D01*
X26390600Y-58716840D01*
X27152600Y-58716840D01*
X27387917Y-58672562D01*
X27403699Y-58662407D01*
X27408710Y-58665831D01*
X27660600Y-58716840D01*
X28422600Y-58716840D01*
X28657917Y-58672562D01*
X28673699Y-58662407D01*
X28678710Y-58665831D01*
X28930600Y-58716840D01*
X29692600Y-58716840D01*
X29927917Y-58672562D01*
X29943699Y-58662407D01*
X29948710Y-58665831D01*
X30200600Y-58716840D01*
X30962600Y-58716840D01*
X31197917Y-58672562D01*
X31213699Y-58662407D01*
X31218710Y-58665831D01*
X31470600Y-58716840D01*
X32232600Y-58716840D01*
X32467917Y-58672562D01*
X32483699Y-58662407D01*
X32488710Y-58665831D01*
X32740600Y-58716840D01*
X33502600Y-58716840D01*
X33737917Y-58672562D01*
X33753699Y-58662407D01*
X33758710Y-58665831D01*
X34010600Y-58716840D01*
X34772600Y-58716840D01*
X35007917Y-58672562D01*
X35023699Y-58662407D01*
X35028710Y-58665831D01*
X35280600Y-58716840D01*
X36042600Y-58716840D01*
X36277917Y-58672562D01*
X36293699Y-58662407D01*
X36298710Y-58665831D01*
X36550600Y-58716840D01*
X37312600Y-58716840D01*
X37547917Y-58672562D01*
X37764041Y-58533490D01*
X37909031Y-58321290D01*
X37960040Y-58069400D01*
X37960040Y-57356590D01*
X40251631Y-55065000D01*
X40836382Y-55065000D01*
X40926110Y-55204441D01*
X41138310Y-55349431D01*
X41390200Y-55400440D01*
X43090200Y-55400440D01*
X43324960Y-55356267D01*
X43324960Y-56069600D01*
X43341294Y-56156408D01*
X43090200Y-56105560D01*
X41390200Y-56105560D01*
X41154883Y-56149838D01*
X40938759Y-56288910D01*
X40793769Y-56501110D01*
X40742760Y-56753000D01*
X40742760Y-57653000D01*
X40787038Y-57888317D01*
X40926110Y-58104441D01*
X41138310Y-58249431D01*
X41390200Y-58300440D01*
X41549992Y-58300440D01*
X41645916Y-58444000D01*
X41701385Y-58527015D01*
X42895185Y-59720815D01*
X43142395Y-59885996D01*
X43434000Y-59944000D01*
X44729400Y-59944000D01*
X45021005Y-59885996D01*
X45268215Y-59720815D01*
X45339000Y-59650030D01*
X45339000Y-60796560D01*
X45093400Y-60796560D01*
X44963811Y-60820944D01*
X44843400Y-60796560D01*
X44443400Y-60796560D01*
X44208083Y-60840838D01*
X43991959Y-60979910D01*
X43846969Y-61192110D01*
X43795960Y-61444000D01*
X43795960Y-62623400D01*
X43626485Y-62453629D01*
X43172734Y-62265215D01*
X42681421Y-62264786D01*
X42227343Y-62452408D01*
X41879629Y-62799515D01*
X41691215Y-63253266D01*
X41690786Y-63744579D01*
X41878408Y-64198657D01*
X42225515Y-64546371D01*
X42679266Y-64734785D01*
X43070960Y-64735127D01*
X43070960Y-65391400D01*
X43115238Y-65626717D01*
X43254310Y-65842841D01*
X43466510Y-65987831D01*
X43718400Y-66038840D01*
X44618400Y-66038840D01*
X44853717Y-65994562D01*
X45069841Y-65855490D01*
X45214831Y-65643290D01*
X45265840Y-65391400D01*
X45265840Y-64320590D01*
X45339000Y-64247430D01*
X45339000Y-70548500D01*
X17081500Y-70548500D01*
X17081500Y-63872473D01*
X19365132Y-63872473D01*
X19482229Y-64154959D01*
X20146515Y-64406634D01*
X20856548Y-64384940D01*
X21411771Y-64154959D01*
X21528868Y-63872473D01*
X20447000Y-62790605D01*
X19365132Y-63872473D01*
X17081500Y-63872473D01*
X17081500Y-62310515D01*
X18651366Y-62310515D01*
X18673060Y-63020548D01*
X18903041Y-63575771D01*
X19185527Y-63692868D01*
X20267395Y-62611000D01*
X20626605Y-62611000D01*
X21708473Y-63692868D01*
X21990959Y-63575771D01*
X22242634Y-62911485D01*
X22220940Y-62201452D01*
X21990959Y-61646229D01*
X21708473Y-61529132D01*
X20626605Y-62611000D01*
X20267395Y-62611000D01*
X19185527Y-61529132D01*
X18903041Y-61646229D01*
X18651366Y-62310515D01*
X17081500Y-62310515D01*
X17081500Y-61349527D01*
X19365132Y-61349527D01*
X20447000Y-62431395D01*
X21528868Y-61349527D01*
X21411771Y-61067041D01*
X20747485Y-60815366D01*
X20037452Y-60837060D01*
X19482229Y-61067041D01*
X19365132Y-61349527D01*
X17081500Y-61349527D01*
X17081500Y-57593150D01*
X21945600Y-57593150D01*
X21945600Y-58195710D01*
X22042273Y-58429099D01*
X22220902Y-58607727D01*
X22454291Y-58704400D01*
X22675850Y-58704400D01*
X22834600Y-58545650D01*
X22834600Y-57434400D01*
X23088600Y-57434400D01*
X23088600Y-58545650D01*
X23247350Y-58704400D01*
X23468909Y-58704400D01*
X23596600Y-58651509D01*
X23724291Y-58704400D01*
X23945850Y-58704400D01*
X24104600Y-58545650D01*
X24104600Y-57434400D01*
X23088600Y-57434400D01*
X22834600Y-57434400D01*
X22104350Y-57434400D01*
X21945600Y-57593150D01*
X17081500Y-57593150D01*
X17081500Y-56419090D01*
X21945600Y-56419090D01*
X21945600Y-57021650D01*
X22104350Y-57180400D01*
X22834600Y-57180400D01*
X22834600Y-56069150D01*
X23088600Y-56069150D01*
X23088600Y-57180400D01*
X24104600Y-57180400D01*
X24104600Y-56069150D01*
X23945850Y-55910400D01*
X23724291Y-55910400D01*
X23596600Y-55963291D01*
X23468909Y-55910400D01*
X23247350Y-55910400D01*
X23088600Y-56069150D01*
X22834600Y-56069150D01*
X22675850Y-55910400D01*
X22454291Y-55910400D01*
X22220902Y-56007073D01*
X22042273Y-56185701D01*
X21945600Y-56419090D01*
X17081500Y-56419090D01*
X17081500Y-32378121D01*
X18601484Y-32378121D01*
X18826154Y-32752168D01*
X19809388Y-33150880D01*
X20870357Y-33142975D01*
X21813846Y-32752168D01*
X22038516Y-32378121D01*
X20320000Y-30659605D01*
X18601484Y-32378121D01*
X17081500Y-32378121D01*
X17081500Y-29969388D01*
X17649120Y-29969388D01*
X17657025Y-31030357D01*
X18047832Y-31973846D01*
X18421879Y-32198516D01*
X20140395Y-30480000D01*
X20499605Y-30480000D01*
X22218121Y-32198516D01*
X22592168Y-31973846D01*
X22990880Y-30990612D01*
X22982975Y-29929643D01*
X22592168Y-28986154D01*
X22218121Y-28761484D01*
X20499605Y-30480000D01*
X20140395Y-30480000D01*
X18421879Y-28761484D01*
X18047832Y-28986154D01*
X17649120Y-29969388D01*
X17081500Y-29969388D01*
X17081500Y-28581879D01*
X18601484Y-28581879D01*
X20320000Y-30300395D01*
X22038516Y-28581879D01*
X21813846Y-28207832D01*
X20830612Y-27809120D01*
X19769643Y-27817025D01*
X18826154Y-28207832D01*
X18601484Y-28581879D01*
X17081500Y-28581879D01*
X17081500Y-24193320D01*
X17896285Y-24193320D01*
X18025533Y-24486123D01*
X18725806Y-24754388D01*
X19475435Y-24734250D01*
X20074467Y-24486123D01*
X20203715Y-24193320D01*
X19050000Y-23039605D01*
X17896285Y-24193320D01*
X17081500Y-24193320D01*
X17081500Y-22535806D01*
X17155612Y-22535806D01*
X17175750Y-23285435D01*
X17423877Y-23884467D01*
X17716680Y-24013715D01*
X18870395Y-22860000D01*
X17716680Y-21706285D01*
X17423877Y-21835533D01*
X17155612Y-22535806D01*
X17081500Y-22535806D01*
X17081500Y-19113320D01*
X17896285Y-19113320D01*
X18025533Y-19406123D01*
X18725806Y-19674388D01*
X19475435Y-19654250D01*
X19963476Y-19452097D01*
X19755319Y-19953395D01*
X19754682Y-20683403D01*
X19964769Y-21191853D01*
X19374194Y-20965612D01*
X18624565Y-20985750D01*
X18025533Y-21233877D01*
X17896285Y-21526680D01*
X19050000Y-22680395D01*
X19064143Y-22666253D01*
X19243748Y-22845858D01*
X19229605Y-22860000D01*
X20383320Y-24013715D01*
X20676123Y-23884467D01*
X20828000Y-23488011D01*
X20828000Y-23939500D01*
X20886004Y-24231105D01*
X21026708Y-24441683D01*
X21051185Y-24478315D01*
X26924000Y-30351130D01*
X26924000Y-30594560D01*
X26688683Y-30638838D01*
X26472559Y-30777910D01*
X26416626Y-30859770D01*
X26372090Y-30790559D01*
X26159890Y-30645569D01*
X25908000Y-30594560D01*
X24384000Y-30594560D01*
X24148683Y-30638838D01*
X23932559Y-30777910D01*
X23787569Y-30990110D01*
X23736560Y-31242000D01*
X23736560Y-33274000D01*
X23780838Y-33509317D01*
X23919910Y-33725441D01*
X24132110Y-33870431D01*
X24384000Y-33921440D01*
X24384000Y-35752369D01*
X23286050Y-36850320D01*
X22064191Y-36850320D01*
X21961657Y-36602169D01*
X21459793Y-36099428D01*
X20803740Y-35827011D01*
X20093377Y-35826391D01*
X19436849Y-36097663D01*
X18934108Y-36599527D01*
X18661691Y-37255580D01*
X18661071Y-37965943D01*
X18932343Y-38622471D01*
X19406603Y-39097560D01*
X18820000Y-39097560D01*
X18584683Y-39141838D01*
X18368559Y-39280910D01*
X18223569Y-39493110D01*
X18172560Y-39745000D01*
X18172560Y-40745000D01*
X18216838Y-40980317D01*
X18355910Y-41196441D01*
X18568110Y-41341431D01*
X18820000Y-41392440D01*
X21820000Y-41392440D01*
X22055317Y-41348162D01*
X22271441Y-41209090D01*
X22416431Y-40996890D01*
X22467440Y-40745000D01*
X22467440Y-39745000D01*
X22423162Y-39509683D01*
X22284090Y-39293559D01*
X22071890Y-39148569D01*
X21820000Y-39097560D01*
X21486619Y-39097560D01*
X21959892Y-38625113D01*
X22064030Y-38374320D01*
X23601680Y-38374320D01*
X23893285Y-38316316D01*
X24140495Y-38151135D01*
X25684815Y-36606816D01*
X25849996Y-36359605D01*
X25856383Y-36327496D01*
X25908000Y-36068000D01*
X25908000Y-33921440D01*
X26143317Y-33877162D01*
X26359441Y-33738090D01*
X26415374Y-33656230D01*
X26459910Y-33725441D01*
X26672110Y-33870431D01*
X26924000Y-33921440D01*
X28448000Y-33921440D01*
X28683317Y-33877162D01*
X28899441Y-33738090D01*
X28955374Y-33656230D01*
X28999910Y-33725441D01*
X29212110Y-33870431D01*
X29464000Y-33921440D01*
X30988000Y-33921440D01*
X31223317Y-33877162D01*
X31439441Y-33738090D01*
X31495374Y-33656230D01*
X31539910Y-33725441D01*
X31752110Y-33870431D01*
X32004000Y-33921440D01*
X33528000Y-33921440D01*
X33763317Y-33877162D01*
X33979441Y-33738090D01*
X34124431Y-33525890D01*
X34175440Y-33274000D01*
X34175440Y-33157632D01*
X34407372Y-33218323D01*
X35161955Y-32463740D01*
X34407372Y-31709157D01*
X34175440Y-31769848D01*
X34175440Y-31242000D01*
X34131162Y-31006683D01*
X33992090Y-30790559D01*
X33779890Y-30645569D01*
X33730186Y-30635504D01*
X33845657Y-30587792D01*
X34193371Y-30240685D01*
X34381785Y-29786934D01*
X34382214Y-29295621D01*
X34194592Y-28841543D01*
X33847485Y-28493829D01*
X33393734Y-28305415D01*
X32902421Y-28304986D01*
X32677461Y-28397938D01*
X32597890Y-28343569D01*
X32346000Y-28292560D01*
X30646000Y-28292560D01*
X30410683Y-28336838D01*
X30194559Y-28475910D01*
X30049569Y-28688110D01*
X29998560Y-28940000D01*
X29998560Y-29840000D01*
X30042838Y-30075317D01*
X30181910Y-30291441D01*
X30394110Y-30436431D01*
X30646000Y-30487440D01*
X31515810Y-30487440D01*
X31706939Y-30678569D01*
X31552559Y-30777910D01*
X31496626Y-30859770D01*
X31452090Y-30790559D01*
X31239890Y-30645569D01*
X30988000Y-30594560D01*
X29464000Y-30594560D01*
X29228683Y-30638838D01*
X29012559Y-30777910D01*
X28956626Y-30859770D01*
X28912090Y-30790559D01*
X28699890Y-30645569D01*
X28448000Y-30594560D01*
X28448000Y-30035500D01*
X28389996Y-29743895D01*
X28224815Y-29496685D01*
X23281765Y-24553635D01*
X23805806Y-24754388D01*
X24555435Y-24734250D01*
X25154467Y-24486123D01*
X25283715Y-24193320D01*
X24130000Y-23039605D01*
X24115858Y-23053748D01*
X23936253Y-22874143D01*
X23950395Y-22860000D01*
X24309605Y-22860000D01*
X25463320Y-24013715D01*
X25756123Y-23884467D01*
X26024388Y-23184194D01*
X26004250Y-22434565D01*
X25756123Y-21835533D01*
X25463320Y-21706285D01*
X24309605Y-22860000D01*
X23950395Y-22860000D01*
X23936253Y-22845858D01*
X24115858Y-22666253D01*
X24130000Y-22680395D01*
X25283715Y-21526680D01*
X25154467Y-21233877D01*
X24454194Y-20965612D01*
X23704565Y-20985750D01*
X23216524Y-21187903D01*
X23424681Y-20686605D01*
X23425318Y-19956597D01*
X23215231Y-19448147D01*
X23805806Y-19674388D01*
X24555435Y-19654250D01*
X25154467Y-19406123D01*
X25283715Y-19113320D01*
X24130000Y-17959605D01*
X24115858Y-17973748D01*
X23936253Y-17794143D01*
X23950395Y-17780000D01*
X24309605Y-17780000D01*
X25463320Y-18933715D01*
X25756123Y-18804467D01*
X26024388Y-18104194D01*
X26004250Y-17354565D01*
X25756123Y-16755533D01*
X25463320Y-16626285D01*
X24309605Y-17780000D01*
X23950395Y-17780000D01*
X22796680Y-16626285D01*
X22503877Y-16755533D01*
X22235612Y-17455806D01*
X22255750Y-18205435D01*
X22457903Y-18693476D01*
X21956605Y-18485319D01*
X21226597Y-18484682D01*
X20718147Y-18694769D01*
X20944388Y-18104194D01*
X20924250Y-17354565D01*
X20676123Y-16755533D01*
X20383320Y-16626285D01*
X19229605Y-17780000D01*
X19243748Y-17794143D01*
X19064143Y-17973748D01*
X19050000Y-17959605D01*
X17896285Y-19113320D01*
X17081500Y-19113320D01*
X17081500Y-17455806D01*
X17155612Y-17455806D01*
X17175750Y-18205435D01*
X17423877Y-18804467D01*
X17716680Y-18933715D01*
X18870395Y-17780000D01*
X17716680Y-16626285D01*
X17423877Y-16755533D01*
X17155612Y-17455806D01*
X17081500Y-17455806D01*
X17081500Y-16065500D01*
X18238894Y-16065500D01*
X18025533Y-16153877D01*
G36*
X47707815Y-37856718D02*
X47986368Y-38273602D01*
X48403252Y-38552155D01*
X48895000Y-38649970D01*
X48929880Y-38643032D01*
X48929786Y-38750979D01*
X49077661Y-39108862D01*
X48990559Y-39164910D01*
X48886640Y-39317000D01*
X48647818Y-39317000D01*
X48558090Y-39177559D01*
X48345890Y-39032569D01*
X48094000Y-38981560D01*
X46394000Y-38981560D01*
X46158683Y-39025838D01*
X45942559Y-39164910D01*
X45797569Y-39377110D01*
X45746560Y-39629000D01*
X45746560Y-40529000D01*
X45790838Y-40764317D01*
X45792564Y-40767000D01*
X45466000Y-40767000D01*
X45416590Y-40777006D01*
X45374965Y-40805447D01*
X45347685Y-40847841D01*
X45339000Y-40894000D01*
X45339000Y-51308605D01*
X45285690Y-51225759D01*
X45073490Y-51080769D01*
X44821600Y-51029760D01*
X43921600Y-51029760D01*
X43686283Y-51074038D01*
X43470159Y-51213110D01*
X43325169Y-51425310D01*
X43274160Y-51677200D01*
X43274160Y-52547009D01*
X42615610Y-53205560D01*
X41390200Y-53205560D01*
X41154883Y-53249838D01*
X40938759Y-53388910D01*
X40834840Y-53541000D01*
X39936000Y-53541000D01*
X39669557Y-53593999D01*
X39644395Y-53599004D01*
X39397184Y-53764185D01*
X37263410Y-55897960D01*
X36550600Y-55897960D01*
X36315283Y-55942238D01*
X36299501Y-55952393D01*
X36294490Y-55948969D01*
X36042600Y-55897960D01*
X35280600Y-55897960D01*
X35045283Y-55942238D01*
X35029501Y-55952393D01*
X35024490Y-55948969D01*
X34772600Y-55897960D01*
X34010600Y-55897960D01*
X33775283Y-55942238D01*
X33759501Y-55952393D01*
X33754490Y-55948969D01*
X33502600Y-55897960D01*
X32740600Y-55897960D01*
X32505283Y-55942238D01*
X32489501Y-55952393D01*
X32484490Y-55948969D01*
X32232600Y-55897960D01*
X31470600Y-55897960D01*
X31235283Y-55942238D01*
X31219501Y-55952393D01*
X31214490Y-55948969D01*
X30962600Y-55897960D01*
X30200600Y-55897960D01*
X29965283Y-55942238D01*
X29949501Y-55952393D01*
X29944490Y-55948969D01*
X29692600Y-55897960D01*
X28930600Y-55897960D01*
X28695283Y-55942238D01*
X28679501Y-55952393D01*
X28674490Y-55948969D01*
X28422600Y-55897960D01*
X27660600Y-55897960D01*
X27425283Y-55942238D01*
X27409501Y-55952393D01*
X27404490Y-55948969D01*
X27152600Y-55897960D01*
X26390600Y-55897960D01*
X26263600Y-55921857D01*
X26263600Y-55803800D01*
X26205596Y-55512195D01*
X26040415Y-55264985D01*
X25309703Y-54534273D01*
X25407266Y-54574785D01*
X25898579Y-54575214D01*
X26352657Y-54387592D01*
X26700371Y-54040485D01*
X26888785Y-53586734D01*
X26889214Y-53095421D01*
X26701592Y-52641343D01*
X26354485Y-52293629D01*
X26263600Y-52255890D01*
X26263600Y-49791122D01*
X26390600Y-49816840D01*
X27152600Y-49816840D01*
X27387917Y-49772562D01*
X27403699Y-49762407D01*
X27408710Y-49765831D01*
X27660600Y-49816840D01*
X28422600Y-49816840D01*
X28657917Y-49772562D01*
X28673699Y-49762407D01*
X28678710Y-49765831D01*
X28930600Y-49816840D01*
X29692600Y-49816840D01*
X29819600Y-49792943D01*
X29819600Y-51006600D01*
X29781343Y-51022408D01*
X29433629Y-51369515D01*
X29245215Y-51823266D01*
X29244786Y-52314579D01*
X29432408Y-52768657D01*
X29779515Y-53116371D01*
X30233266Y-53304785D01*
X30724579Y-53305214D01*
X31178657Y-53117592D01*
X31526371Y-52770485D01*
X31714785Y-52316734D01*
X31715214Y-51825421D01*
X31527592Y-51371343D01*
X31343600Y-51187029D01*
X31343600Y-49791122D01*
X31470600Y-49816840D01*
X32232600Y-49816840D01*
X32467917Y-49772562D01*
X32483699Y-49762407D01*
X32488710Y-49765831D01*
X32740600Y-49816840D01*
X33502600Y-49816840D01*
X33737917Y-49772562D01*
X33753699Y-49762407D01*
X33758710Y-49765831D01*
X34010600Y-49816840D01*
X34772600Y-49816840D01*
X35007917Y-49772562D01*
X35023699Y-49762407D01*
X35028710Y-49765831D01*
X35280600Y-49816840D01*
X36042600Y-49816840D01*
X36277917Y-49772562D01*
X36293699Y-49762407D01*
X36298710Y-49765831D01*
X36550600Y-49816840D01*
X37312600Y-49816840D01*
X37547917Y-49772562D01*
X37764041Y-49633490D01*
X37909031Y-49421290D01*
X37960040Y-49169400D01*
X37960040Y-47645400D01*
X37915762Y-47410083D01*
X37900678Y-47386643D01*
X37977971Y-47309485D01*
X38166385Y-46855734D01*
X38166814Y-46364421D01*
X37979192Y-45910343D01*
X37632085Y-45562629D01*
X37178334Y-45374215D01*
X36689081Y-45373788D01*
X36664562Y-45243483D01*
X36525490Y-45027359D01*
X36313290Y-44882369D01*
X36061400Y-44831360D01*
X35748271Y-44831360D01*
X36002631Y-44577000D01*
X37211000Y-44577000D01*
X37502605Y-44518996D01*
X37749815Y-44353815D01*
X39908815Y-42194815D01*
X40073996Y-41947605D01*
X40080043Y-41917204D01*
X40132000Y-41656000D01*
X40132000Y-39939630D01*
X41498768Y-38572863D01*
X41900579Y-38573214D01*
X42354657Y-38385592D01*
X42684487Y-38056338D01*
X42800302Y-38229668D01*
X43265849Y-38540737D01*
X43815000Y-38649970D01*
X44364151Y-38540737D01*
X44829698Y-38229668D01*
X45085000Y-37847582D01*
X45340302Y-38229668D01*
X45805849Y-38540737D01*
X46355000Y-38649970D01*
X46904151Y-38540737D01*
X47369698Y-38229668D01*
X47680767Y-37764121D01*
X47685082Y-37742430D01*
X47707815Y-37856718D01*
X47707815Y-37856718D01*
G37*
X47707815Y-37856718D02*
X47986368Y-38273602D01*
X48403252Y-38552155D01*
X48895000Y-38649970D01*
X48929880Y-38643032D01*
X48929786Y-38750979D01*
X49077661Y-39108862D01*
X48990559Y-39164910D01*
X48886640Y-39317000D01*
X48647818Y-39317000D01*
X48558090Y-39177559D01*
X48345890Y-39032569D01*
X48094000Y-38981560D01*
X46394000Y-38981560D01*
X46158683Y-39025838D01*
X45942559Y-39164910D01*
X45797569Y-39377110D01*
X45746560Y-39629000D01*
X45746560Y-40529000D01*
X45790838Y-40764317D01*
X45792564Y-40767000D01*
X45466000Y-40767000D01*
X45416590Y-40777006D01*
X45374965Y-40805447D01*
X45347685Y-40847841D01*
X45339000Y-40894000D01*
X45339000Y-51308605D01*
X45285690Y-51225759D01*
X45073490Y-51080769D01*
X44821600Y-51029760D01*
X43921600Y-51029760D01*
X43686283Y-51074038D01*
X43470159Y-51213110D01*
X43325169Y-51425310D01*
X43274160Y-51677200D01*
X43274160Y-52547009D01*
X42615610Y-53205560D01*
X41390200Y-53205560D01*
X41154883Y-53249838D01*
X40938759Y-53388910D01*
X40834840Y-53541000D01*
X39936000Y-53541000D01*
X39669557Y-53593999D01*
X39644395Y-53599004D01*
X39397184Y-53764185D01*
X37263410Y-55897960D01*
X36550600Y-55897960D01*
X36315283Y-55942238D01*
X36299501Y-55952393D01*
X36294490Y-55948969D01*
X36042600Y-55897960D01*
X35280600Y-55897960D01*
X35045283Y-55942238D01*
X35029501Y-55952393D01*
X35024490Y-55948969D01*
X34772600Y-55897960D01*
X34010600Y-55897960D01*
X33775283Y-55942238D01*
X33759501Y-55952393D01*
X33754490Y-55948969D01*
X33502600Y-55897960D01*
X32740600Y-55897960D01*
X32505283Y-55942238D01*
X32489501Y-55952393D01*
X32484490Y-55948969D01*
X32232600Y-55897960D01*
X31470600Y-55897960D01*
X31235283Y-55942238D01*
X31219501Y-55952393D01*
X31214490Y-55948969D01*
X30962600Y-55897960D01*
X30200600Y-55897960D01*
X29965283Y-55942238D01*
X29949501Y-55952393D01*
X29944490Y-55948969D01*
X29692600Y-55897960D01*
X28930600Y-55897960D01*
X28695283Y-55942238D01*
X28679501Y-55952393D01*
X28674490Y-55948969D01*
X28422600Y-55897960D01*
X27660600Y-55897960D01*
X27425283Y-55942238D01*
X27409501Y-55952393D01*
X27404490Y-55948969D01*
X27152600Y-55897960D01*
X26390600Y-55897960D01*
X26263600Y-55921857D01*
X26263600Y-55803800D01*
X26205596Y-55512195D01*
X26040415Y-55264985D01*
X25309703Y-54534273D01*
X25407266Y-54574785D01*
X25898579Y-54575214D01*
X26352657Y-54387592D01*
X26700371Y-54040485D01*
X26888785Y-53586734D01*
X26889214Y-53095421D01*
X26701592Y-52641343D01*
X26354485Y-52293629D01*
X26263600Y-52255890D01*
X26263600Y-49791122D01*
X26390600Y-49816840D01*
X27152600Y-49816840D01*
X27387917Y-49772562D01*
X27403699Y-49762407D01*
X27408710Y-49765831D01*
X27660600Y-49816840D01*
X28422600Y-49816840D01*
X28657917Y-49772562D01*
X28673699Y-49762407D01*
X28678710Y-49765831D01*
X28930600Y-49816840D01*
X29692600Y-49816840D01*
X29819600Y-49792943D01*
X29819600Y-51006600D01*
X29781343Y-51022408D01*
X29433629Y-51369515D01*
X29245215Y-51823266D01*
X29244786Y-52314579D01*
X29432408Y-52768657D01*
X29779515Y-53116371D01*
X30233266Y-53304785D01*
X30724579Y-53305214D01*
X31178657Y-53117592D01*
X31526371Y-52770485D01*
X31714785Y-52316734D01*
X31715214Y-51825421D01*
X31527592Y-51371343D01*
X31343600Y-51187029D01*
X31343600Y-49791122D01*
X31470600Y-49816840D01*
X32232600Y-49816840D01*
X32467917Y-49772562D01*
X32483699Y-49762407D01*
X32488710Y-49765831D01*
X32740600Y-49816840D01*
X33502600Y-49816840D01*
X33737917Y-49772562D01*
X33753699Y-49762407D01*
X33758710Y-49765831D01*
X34010600Y-49816840D01*
X34772600Y-49816840D01*
X35007917Y-49772562D01*
X35023699Y-49762407D01*
X35028710Y-49765831D01*
X35280600Y-49816840D01*
X36042600Y-49816840D01*
X36277917Y-49772562D01*
X36293699Y-49762407D01*
X36298710Y-49765831D01*
X36550600Y-49816840D01*
X37312600Y-49816840D01*
X37547917Y-49772562D01*
X37764041Y-49633490D01*
X37909031Y-49421290D01*
X37960040Y-49169400D01*
X37960040Y-47645400D01*
X37915762Y-47410083D01*
X37900678Y-47386643D01*
X37977971Y-47309485D01*
X38166385Y-46855734D01*
X38166814Y-46364421D01*
X37979192Y-45910343D01*
X37632085Y-45562629D01*
X37178334Y-45374215D01*
X36689081Y-45373788D01*
X36664562Y-45243483D01*
X36525490Y-45027359D01*
X36313290Y-44882369D01*
X36061400Y-44831360D01*
X35748271Y-44831360D01*
X36002631Y-44577000D01*
X37211000Y-44577000D01*
X37502605Y-44518996D01*
X37749815Y-44353815D01*
X39908815Y-42194815D01*
X40073996Y-41947605D01*
X40080043Y-41917204D01*
X40132000Y-41656000D01*
X40132000Y-39939630D01*
X41498768Y-38572863D01*
X41900579Y-38573214D01*
X42354657Y-38385592D01*
X42684487Y-38056338D01*
X42800302Y-38229668D01*
X43265849Y-38540737D01*
X43815000Y-38649970D01*
X44364151Y-38540737D01*
X44829698Y-38229668D01*
X45085000Y-37847582D01*
X45340302Y-38229668D01*
X45805849Y-38540737D01*
X46355000Y-38649970D01*
X46904151Y-38540737D01*
X47369698Y-38229668D01*
X47680767Y-37764121D01*
X47685082Y-37742430D01*
X47707815Y-37856718D01*
G36*
X69049073Y-51584703D02*
X69073838Y-51716317D01*
X69137678Y-51815528D01*
X69080569Y-51899110D01*
X69029560Y-52151000D01*
X69029560Y-52751000D01*
X69073838Y-52986317D01*
X69132178Y-53076980D01*
X69042000Y-53294690D01*
X69042000Y-53435250D01*
X69200750Y-53594000D01*
X70325000Y-53594000D01*
X70325000Y-53574000D01*
X70579000Y-53574000D01*
X70579000Y-53594000D01*
X71703250Y-53594000D01*
X71862000Y-53435250D01*
X71862000Y-53294690D01*
X71828163Y-53213000D01*
X72009000Y-53213000D01*
X72300605Y-53154996D01*
X72547815Y-52989815D01*
X72740767Y-52796863D01*
X73142579Y-52797214D01*
X73332000Y-52718947D01*
X73332000Y-53012000D01*
X73390004Y-53303605D01*
X73507336Y-53479204D01*
X73555185Y-53550815D01*
X74264184Y-54259815D01*
X74428489Y-54369600D01*
X74511395Y-54424996D01*
X74592800Y-54441188D01*
X74612910Y-54472441D01*
X74620050Y-54477320D01*
X74614370Y-54483000D01*
X71663025Y-54483000D01*
X71765327Y-54380699D01*
X71862000Y-54147310D01*
X71862000Y-54006750D01*
X71703250Y-53848000D01*
X70579000Y-53848000D01*
X70579000Y-53868000D01*
X70325000Y-53868000D01*
X70325000Y-53848000D01*
X69200750Y-53848000D01*
X69175190Y-53873560D01*
X68580000Y-53278370D01*
X68580000Y-51115630D01*
X69049073Y-51584703D01*
X69049073Y-51584703D01*
G37*
X69049073Y-51584703D02*
X69073838Y-51716317D01*
X69137678Y-51815528D01*
X69080569Y-51899110D01*
X69029560Y-52151000D01*
X69029560Y-52751000D01*
X69073838Y-52986317D01*
X69132178Y-53076980D01*
X69042000Y-53294690D01*
X69042000Y-53435250D01*
X69200750Y-53594000D01*
X70325000Y-53594000D01*
X70325000Y-53574000D01*
X70579000Y-53574000D01*
X70579000Y-53594000D01*
X71703250Y-53594000D01*
X71862000Y-53435250D01*
X71862000Y-53294690D01*
X71828163Y-53213000D01*
X72009000Y-53213000D01*
X72300605Y-53154996D01*
X72547815Y-52989815D01*
X72740767Y-52796863D01*
X73142579Y-52797214D01*
X73332000Y-52718947D01*
X73332000Y-53012000D01*
X73390004Y-53303605D01*
X73507336Y-53479204D01*
X73555185Y-53550815D01*
X74264184Y-54259815D01*
X74428489Y-54369600D01*
X74511395Y-54424996D01*
X74592800Y-54441188D01*
X74612910Y-54472441D01*
X74620050Y-54477320D01*
X74614370Y-54483000D01*
X71663025Y-54483000D01*
X71765327Y-54380699D01*
X71862000Y-54147310D01*
X71862000Y-54006750D01*
X71703250Y-53848000D01*
X70579000Y-53848000D01*
X70579000Y-53868000D01*
X70325000Y-53868000D01*
X70325000Y-53848000D01*
X69200750Y-53848000D01*
X69175190Y-53873560D01*
X68580000Y-53278370D01*
X68580000Y-51115630D01*
X69049073Y-51584703D01*
G36*
X91395910Y-43626441D02*
X91608110Y-43771431D01*
X91860000Y-43822440D01*
X92329000Y-43822440D01*
X92329000Y-44885614D01*
X92008143Y-44671225D01*
X91440000Y-44558214D01*
X90871857Y-44671225D01*
X90390208Y-44993052D01*
X90068381Y-45474701D01*
X89955370Y-46042844D01*
X89955370Y-47937156D01*
X90068381Y-48505299D01*
X90390208Y-48986948D01*
X90871857Y-49308775D01*
X91440000Y-49421786D01*
X92008143Y-49308775D01*
X92329000Y-49094386D01*
X92329000Y-50305000D01*
X91090750Y-50305000D01*
X90932000Y-50463750D01*
X90932000Y-51998000D01*
X90952000Y-51998000D01*
X90952000Y-52252000D01*
X90932000Y-52252000D01*
X90932000Y-53786250D01*
X91090750Y-53945000D01*
X92329000Y-53945000D01*
X92329000Y-54483000D01*
X79819025Y-54483000D01*
X79824327Y-54477698D01*
X79921000Y-54244309D01*
X79921000Y-53903750D01*
X79762250Y-53745000D01*
X78613000Y-53745000D01*
X78613000Y-53765000D01*
X78359000Y-53765000D01*
X78359000Y-53745000D01*
X78339000Y-53745000D01*
X78339000Y-53491000D01*
X78359000Y-53491000D01*
X78359000Y-52641750D01*
X78613000Y-52641750D01*
X78613000Y-53491000D01*
X79762250Y-53491000D01*
X79921000Y-53332250D01*
X79921000Y-52991691D01*
X79824327Y-52758302D01*
X79645699Y-52579673D01*
X79412310Y-52483000D01*
X78771750Y-52483000D01*
X78613000Y-52641750D01*
X78359000Y-52641750D01*
X78200250Y-52483000D01*
X77559690Y-52483000D01*
X77326301Y-52579673D01*
X77274440Y-52631534D01*
X77274440Y-52410750D01*
X88105000Y-52410750D01*
X88105000Y-53436309D01*
X88201673Y-53669698D01*
X88380301Y-53848327D01*
X88613690Y-53945000D01*
X90519250Y-53945000D01*
X90678000Y-53786250D01*
X90678000Y-52252000D01*
X88263750Y-52252000D01*
X88105000Y-52410750D01*
X77274440Y-52410750D01*
X77274440Y-52151000D01*
X77235302Y-51943000D01*
X77277765Y-51943000D01*
X77350110Y-51992431D01*
X77602000Y-52043440D01*
X78502000Y-52043440D01*
X78737317Y-51999162D01*
X78953441Y-51860090D01*
X79098431Y-51647890D01*
X79149440Y-51396000D01*
X79149440Y-50831750D01*
X79867000Y-50831750D01*
X79867000Y-51522310D01*
X79963673Y-51755699D01*
X80142302Y-51934327D01*
X80375691Y-52031000D01*
X80666250Y-52031000D01*
X80825000Y-51872250D01*
X80825000Y-50673000D01*
X81079000Y-50673000D01*
X81079000Y-51872250D01*
X81237750Y-52031000D01*
X81528309Y-52031000D01*
X81761698Y-51934327D01*
X81940327Y-51755699D01*
X82037000Y-51522310D01*
X82037000Y-50831750D01*
X81965000Y-50759750D01*
X82224000Y-50759750D01*
X82224000Y-51785309D01*
X82320673Y-52018698D01*
X82499301Y-52197327D01*
X82732690Y-52294000D01*
X83788250Y-52294000D01*
X83947000Y-52135250D01*
X83947000Y-50601000D01*
X84201000Y-50601000D01*
X84201000Y-52135250D01*
X84359750Y-52294000D01*
X85415310Y-52294000D01*
X85648699Y-52197327D01*
X85827327Y-52018698D01*
X85924000Y-51785309D01*
X85924000Y-50813691D01*
X88105000Y-50813691D01*
X88105000Y-51839250D01*
X88263750Y-51998000D01*
X90678000Y-51998000D01*
X90678000Y-50463750D01*
X90519250Y-50305000D01*
X88613690Y-50305000D01*
X88380301Y-50401673D01*
X88201673Y-50580302D01*
X88105000Y-50813691D01*
X85924000Y-50813691D01*
X85924000Y-50759750D01*
X85765250Y-50601000D01*
X84201000Y-50601000D01*
X83947000Y-50601000D01*
X82382750Y-50601000D01*
X82224000Y-50759750D01*
X81965000Y-50759750D01*
X81878250Y-50673000D01*
X81079000Y-50673000D01*
X80825000Y-50673000D01*
X80025750Y-50673000D01*
X79867000Y-50831750D01*
X79149440Y-50831750D01*
X79149440Y-49696000D01*
X79105162Y-49460683D01*
X79032103Y-49347147D01*
X79097000Y-49282250D01*
X79097000Y-48133000D01*
X79351000Y-48133000D01*
X79351000Y-49282250D01*
X79509750Y-49441000D01*
X79850309Y-49441000D01*
X79934802Y-49406002D01*
X79867000Y-49569690D01*
X79867000Y-50260250D01*
X80025750Y-50419000D01*
X80825000Y-50419000D01*
X80825000Y-49219750D01*
X81079000Y-49219750D01*
X81079000Y-50419000D01*
X81878250Y-50419000D01*
X82037000Y-50260250D01*
X82037000Y-49569690D01*
X81940327Y-49336301D01*
X81766717Y-49162691D01*
X82224000Y-49162691D01*
X82224000Y-50188250D01*
X82382750Y-50347000D01*
X83947000Y-50347000D01*
X83947000Y-48812750D01*
X84201000Y-48812750D01*
X84201000Y-50347000D01*
X85765250Y-50347000D01*
X85924000Y-50188250D01*
X85924000Y-49162691D01*
X85827327Y-48929302D01*
X85648699Y-48750673D01*
X85415310Y-48654000D01*
X84359750Y-48654000D01*
X84201000Y-48812750D01*
X83947000Y-48812750D01*
X83788250Y-48654000D01*
X82732690Y-48654000D01*
X82499301Y-48750673D01*
X82320673Y-48929302D01*
X82224000Y-49162691D01*
X81766717Y-49162691D01*
X81761698Y-49157673D01*
X81528309Y-49061000D01*
X81237750Y-49061000D01*
X81079000Y-49219750D01*
X80825000Y-49219750D01*
X80666250Y-49061000D01*
X80375691Y-49061000D01*
X80291198Y-49095998D01*
X80359000Y-48932310D01*
X80359000Y-48291750D01*
X80200250Y-48133000D01*
X79351000Y-48133000D01*
X79097000Y-48133000D01*
X78247750Y-48133000D01*
X78089000Y-48291750D01*
X78089000Y-48932310D01*
X78137152Y-49048560D01*
X77602000Y-49048560D01*
X77366683Y-49092838D01*
X77241522Y-49173377D01*
X77320431Y-49057890D01*
X77371440Y-48806000D01*
X77371440Y-47912190D01*
X78039631Y-47244000D01*
X78089000Y-47244000D01*
X78089000Y-47720250D01*
X78247750Y-47879000D01*
X79097000Y-47879000D01*
X79097000Y-47859000D01*
X79351000Y-47859000D01*
X79351000Y-47879000D01*
X80200250Y-47879000D01*
X80359000Y-47720250D01*
X80359000Y-47244000D01*
X86360000Y-47244000D01*
X86651605Y-47185996D01*
X86898815Y-47020815D01*
X90432631Y-43487000D01*
X91306182Y-43487000D01*
X91395910Y-43626441D01*
X91395910Y-43626441D01*
G37*
X91395910Y-43626441D02*
X91608110Y-43771431D01*
X91860000Y-43822440D01*
X92329000Y-43822440D01*
X92329000Y-44885614D01*
X92008143Y-44671225D01*
X91440000Y-44558214D01*
X90871857Y-44671225D01*
X90390208Y-44993052D01*
X90068381Y-45474701D01*
X89955370Y-46042844D01*
X89955370Y-47937156D01*
X90068381Y-48505299D01*
X90390208Y-48986948D01*
X90871857Y-49308775D01*
X91440000Y-49421786D01*
X92008143Y-49308775D01*
X92329000Y-49094386D01*
X92329000Y-50305000D01*
X91090750Y-50305000D01*
X90932000Y-50463750D01*
X90932000Y-51998000D01*
X90952000Y-51998000D01*
X90952000Y-52252000D01*
X90932000Y-52252000D01*
X90932000Y-53786250D01*
X91090750Y-53945000D01*
X92329000Y-53945000D01*
X92329000Y-54483000D01*
X79819025Y-54483000D01*
X79824327Y-54477698D01*
X79921000Y-54244309D01*
X79921000Y-53903750D01*
X79762250Y-53745000D01*
X78613000Y-53745000D01*
X78613000Y-53765000D01*
X78359000Y-53765000D01*
X78359000Y-53745000D01*
X78339000Y-53745000D01*
X78339000Y-53491000D01*
X78359000Y-53491000D01*
X78359000Y-52641750D01*
X78613000Y-52641750D01*
X78613000Y-53491000D01*
X79762250Y-53491000D01*
X79921000Y-53332250D01*
X79921000Y-52991691D01*
X79824327Y-52758302D01*
X79645699Y-52579673D01*
X79412310Y-52483000D01*
X78771750Y-52483000D01*
X78613000Y-52641750D01*
X78359000Y-52641750D01*
X78200250Y-52483000D01*
X77559690Y-52483000D01*
X77326301Y-52579673D01*
X77274440Y-52631534D01*
X77274440Y-52410750D01*
X88105000Y-52410750D01*
X88105000Y-53436309D01*
X88201673Y-53669698D01*
X88380301Y-53848327D01*
X88613690Y-53945000D01*
X90519250Y-53945000D01*
X90678000Y-53786250D01*
X90678000Y-52252000D01*
X88263750Y-52252000D01*
X88105000Y-52410750D01*
X77274440Y-52410750D01*
X77274440Y-52151000D01*
X77235302Y-51943000D01*
X77277765Y-51943000D01*
X77350110Y-51992431D01*
X77602000Y-52043440D01*
X78502000Y-52043440D01*
X78737317Y-51999162D01*
X78953441Y-51860090D01*
X79098431Y-51647890D01*
X79149440Y-51396000D01*
X79149440Y-50831750D01*
X79867000Y-50831750D01*
X79867000Y-51522310D01*
X79963673Y-51755699D01*
X80142302Y-51934327D01*
X80375691Y-52031000D01*
X80666250Y-52031000D01*
X80825000Y-51872250D01*
X80825000Y-50673000D01*
X81079000Y-50673000D01*
X81079000Y-51872250D01*
X81237750Y-52031000D01*
X81528309Y-52031000D01*
X81761698Y-51934327D01*
X81940327Y-51755699D01*
X82037000Y-51522310D01*
X82037000Y-50831750D01*
X81965000Y-50759750D01*
X82224000Y-50759750D01*
X82224000Y-51785309D01*
X82320673Y-52018698D01*
X82499301Y-52197327D01*
X82732690Y-52294000D01*
X83788250Y-52294000D01*
X83947000Y-52135250D01*
X83947000Y-50601000D01*
X84201000Y-50601000D01*
X84201000Y-52135250D01*
X84359750Y-52294000D01*
X85415310Y-52294000D01*
X85648699Y-52197327D01*
X85827327Y-52018698D01*
X85924000Y-51785309D01*
X85924000Y-50813691D01*
X88105000Y-50813691D01*
X88105000Y-51839250D01*
X88263750Y-51998000D01*
X90678000Y-51998000D01*
X90678000Y-50463750D01*
X90519250Y-50305000D01*
X88613690Y-50305000D01*
X88380301Y-50401673D01*
X88201673Y-50580302D01*
X88105000Y-50813691D01*
X85924000Y-50813691D01*
X85924000Y-50759750D01*
X85765250Y-50601000D01*
X84201000Y-50601000D01*
X83947000Y-50601000D01*
X82382750Y-50601000D01*
X82224000Y-50759750D01*
X81965000Y-50759750D01*
X81878250Y-50673000D01*
X81079000Y-50673000D01*
X80825000Y-50673000D01*
X80025750Y-50673000D01*
X79867000Y-50831750D01*
X79149440Y-50831750D01*
X79149440Y-49696000D01*
X79105162Y-49460683D01*
X79032103Y-49347147D01*
X79097000Y-49282250D01*
X79097000Y-48133000D01*
X79351000Y-48133000D01*
X79351000Y-49282250D01*
X79509750Y-49441000D01*
X79850309Y-49441000D01*
X79934802Y-49406002D01*
X79867000Y-49569690D01*
X79867000Y-50260250D01*
X80025750Y-50419000D01*
X80825000Y-50419000D01*
X80825000Y-49219750D01*
X81079000Y-49219750D01*
X81079000Y-50419000D01*
X81878250Y-50419000D01*
X82037000Y-50260250D01*
X82037000Y-49569690D01*
X81940327Y-49336301D01*
X81766717Y-49162691D01*
X82224000Y-49162691D01*
X82224000Y-50188250D01*
X82382750Y-50347000D01*
X83947000Y-50347000D01*
X83947000Y-48812750D01*
X84201000Y-48812750D01*
X84201000Y-50347000D01*
X85765250Y-50347000D01*
X85924000Y-50188250D01*
X85924000Y-49162691D01*
X85827327Y-48929302D01*
X85648699Y-48750673D01*
X85415310Y-48654000D01*
X84359750Y-48654000D01*
X84201000Y-48812750D01*
X83947000Y-48812750D01*
X83788250Y-48654000D01*
X82732690Y-48654000D01*
X82499301Y-48750673D01*
X82320673Y-48929302D01*
X82224000Y-49162691D01*
X81766717Y-49162691D01*
X81761698Y-49157673D01*
X81528309Y-49061000D01*
X81237750Y-49061000D01*
X81079000Y-49219750D01*
X80825000Y-49219750D01*
X80666250Y-49061000D01*
X80375691Y-49061000D01*
X80291198Y-49095998D01*
X80359000Y-48932310D01*
X80359000Y-48291750D01*
X80200250Y-48133000D01*
X79351000Y-48133000D01*
X79097000Y-48133000D01*
X78247750Y-48133000D01*
X78089000Y-48291750D01*
X78089000Y-48932310D01*
X78137152Y-49048560D01*
X77602000Y-49048560D01*
X77366683Y-49092838D01*
X77241522Y-49173377D01*
X77320431Y-49057890D01*
X77371440Y-48806000D01*
X77371440Y-47912190D01*
X78039631Y-47244000D01*
X78089000Y-47244000D01*
X78089000Y-47720250D01*
X78247750Y-47879000D01*
X79097000Y-47879000D01*
X79097000Y-47859000D01*
X79351000Y-47859000D01*
X79351000Y-47879000D01*
X80200250Y-47879000D01*
X80359000Y-47720250D01*
X80359000Y-47244000D01*
X86360000Y-47244000D01*
X86651605Y-47185996D01*
X86898815Y-47020815D01*
X90432631Y-43487000D01*
X91306182Y-43487000D01*
X91395910Y-43626441D01*
G36*
X64643000Y-47625000D02*
X64701004Y-47916605D01*
X64785863Y-48043605D01*
X64866185Y-48163815D01*
X66391369Y-49689000D01*
X66325750Y-49689000D01*
X66167000Y-49847750D01*
X66167000Y-50697000D01*
X66187000Y-50697000D01*
X66187000Y-50951000D01*
X66167000Y-50951000D01*
X66167000Y-51800250D01*
X66325750Y-51959000D01*
X66966310Y-51959000D01*
X67056000Y-51921849D01*
X67056000Y-52720301D01*
X66840000Y-52676560D01*
X65240000Y-52676560D01*
X65004683Y-52720838D01*
X64973000Y-52741225D01*
X64973000Y-52661691D01*
X64876327Y-52428302D01*
X64697699Y-52249673D01*
X64464310Y-52153000D01*
X63023750Y-52153000D01*
X62865000Y-52311750D01*
X62865000Y-53161000D01*
X62885000Y-53161000D01*
X62885000Y-53415000D01*
X62865000Y-53415000D01*
X62865000Y-54264250D01*
X63023750Y-54423000D01*
X64464310Y-54423000D01*
X64600568Y-54366560D01*
X64622478Y-54483000D01*
X60833000Y-54483000D01*
X60833000Y-54348984D01*
X61011690Y-54423000D01*
X62452250Y-54423000D01*
X62611000Y-54264250D01*
X62611000Y-53415000D01*
X62591000Y-53415000D01*
X62591000Y-53161000D01*
X62611000Y-53161000D01*
X62611000Y-52311750D01*
X62452250Y-52153000D01*
X61011690Y-52153000D01*
X60833000Y-52227016D01*
X60833000Y-51109750D01*
X64605000Y-51109750D01*
X64605000Y-51450309D01*
X64701673Y-51683698D01*
X64880301Y-51862327D01*
X65113690Y-51959000D01*
X65754250Y-51959000D01*
X65913000Y-51800250D01*
X65913000Y-50951000D01*
X64763750Y-50951000D01*
X64605000Y-51109750D01*
X60833000Y-51109750D01*
X60833000Y-50197691D01*
X64605000Y-50197691D01*
X64605000Y-50538250D01*
X64763750Y-50697000D01*
X65913000Y-50697000D01*
X65913000Y-49847750D01*
X65754250Y-49689000D01*
X65113690Y-49689000D01*
X64880301Y-49785673D01*
X64701673Y-49964302D01*
X64605000Y-50197691D01*
X60833000Y-50197691D01*
X60833000Y-43383200D01*
X61439696Y-43383200D01*
X61774657Y-43718746D01*
X62250599Y-43916374D01*
X62765940Y-43916824D01*
X63242226Y-43720027D01*
X63606946Y-43355943D01*
X63804574Y-42880001D01*
X63804990Y-42403240D01*
X64643000Y-41565231D01*
X64643000Y-47625000D01*
X64643000Y-47625000D01*
G37*
X64643000Y-47625000D02*
X64701004Y-47916605D01*
X64785863Y-48043605D01*
X64866185Y-48163815D01*
X66391369Y-49689000D01*
X66325750Y-49689000D01*
X66167000Y-49847750D01*
X66167000Y-50697000D01*
X66187000Y-50697000D01*
X66187000Y-50951000D01*
X66167000Y-50951000D01*
X66167000Y-51800250D01*
X66325750Y-51959000D01*
X66966310Y-51959000D01*
X67056000Y-51921849D01*
X67056000Y-52720301D01*
X66840000Y-52676560D01*
X65240000Y-52676560D01*
X65004683Y-52720838D01*
X64973000Y-52741225D01*
X64973000Y-52661691D01*
X64876327Y-52428302D01*
X64697699Y-52249673D01*
X64464310Y-52153000D01*
X63023750Y-52153000D01*
X62865000Y-52311750D01*
X62865000Y-53161000D01*
X62885000Y-53161000D01*
X62885000Y-53415000D01*
X62865000Y-53415000D01*
X62865000Y-54264250D01*
X63023750Y-54423000D01*
X64464310Y-54423000D01*
X64600568Y-54366560D01*
X64622478Y-54483000D01*
X60833000Y-54483000D01*
X60833000Y-54348984D01*
X61011690Y-54423000D01*
X62452250Y-54423000D01*
X62611000Y-54264250D01*
X62611000Y-53415000D01*
X62591000Y-53415000D01*
X62591000Y-53161000D01*
X62611000Y-53161000D01*
X62611000Y-52311750D01*
X62452250Y-52153000D01*
X61011690Y-52153000D01*
X60833000Y-52227016D01*
X60833000Y-51109750D01*
X64605000Y-51109750D01*
X64605000Y-51450309D01*
X64701673Y-51683698D01*
X64880301Y-51862327D01*
X65113690Y-51959000D01*
X65754250Y-51959000D01*
X65913000Y-51800250D01*
X65913000Y-50951000D01*
X64763750Y-50951000D01*
X64605000Y-51109750D01*
X60833000Y-51109750D01*
X60833000Y-50197691D01*
X64605000Y-50197691D01*
X64605000Y-50538250D01*
X64763750Y-50697000D01*
X65913000Y-50697000D01*
X65913000Y-49847750D01*
X65754250Y-49689000D01*
X65113690Y-49689000D01*
X64880301Y-49785673D01*
X64701673Y-49964302D01*
X64605000Y-50197691D01*
X60833000Y-50197691D01*
X60833000Y-43383200D01*
X61439696Y-43383200D01*
X61774657Y-43718746D01*
X62250599Y-43916374D01*
X62765940Y-43916824D01*
X63242226Y-43720027D01*
X63606946Y-43355943D01*
X63804574Y-42880001D01*
X63804990Y-42403240D01*
X64643000Y-41565231D01*
X64643000Y-47625000D01*
G36*
X67889233Y-37764121D02*
X68200302Y-38229668D01*
X68665849Y-38540737D01*
X69215000Y-38649970D01*
X69764151Y-38540737D01*
X70229698Y-38229668D01*
X70485000Y-37847582D01*
X70740302Y-38229668D01*
X71205849Y-38540737D01*
X71577198Y-38614603D01*
X71577198Y-38747948D01*
X71418450Y-38589200D01*
X70777890Y-38589200D01*
X70544501Y-38685873D01*
X70365873Y-38864502D01*
X70269200Y-39097891D01*
X70269200Y-39438450D01*
X70427950Y-39597200D01*
X71577200Y-39597200D01*
X71577200Y-39577200D01*
X71831200Y-39577200D01*
X71831200Y-39597200D01*
X71851200Y-39597200D01*
X71851200Y-39851200D01*
X71831200Y-39851200D01*
X71831200Y-40700450D01*
X71989950Y-40859200D01*
X72630510Y-40859200D01*
X72857781Y-40765061D01*
X72939110Y-40820631D01*
X73191000Y-40871640D01*
X74811787Y-40871640D01*
X74813715Y-40873571D01*
X75267466Y-41061985D01*
X75758779Y-41062414D01*
X76073000Y-40932580D01*
X76073000Y-43271154D01*
X75755343Y-43402408D01*
X75407629Y-43749515D01*
X75219215Y-44203266D01*
X75218786Y-44694579D01*
X75327630Y-44958000D01*
X73406000Y-44958000D01*
X73114395Y-45016004D01*
X73015377Y-45082166D01*
X72867185Y-45181184D01*
X72105185Y-45943185D01*
X71940004Y-46190395D01*
X71914557Y-46318324D01*
X71895890Y-46305569D01*
X71644000Y-46254560D01*
X70744000Y-46254560D01*
X70508683Y-46298838D01*
X70292559Y-46437910D01*
X70288409Y-46443983D01*
X70042485Y-46197629D01*
X69588734Y-46009215D01*
X69097421Y-46008786D01*
X68643343Y-46196408D01*
X68295629Y-46543515D01*
X68107215Y-46997266D01*
X68106786Y-47488579D01*
X68245376Y-47823992D01*
X67881343Y-47974408D01*
X67533629Y-48321515D01*
X67429622Y-48571991D01*
X66167000Y-47309370D01*
X66167000Y-43185646D01*
X66236573Y-43354026D01*
X66600657Y-43718746D01*
X67076599Y-43916374D01*
X67591940Y-43916824D01*
X68068226Y-43720027D01*
X68432946Y-43355943D01*
X68525126Y-43133948D01*
X68675408Y-43497657D01*
X69022515Y-43845371D01*
X69476266Y-44033785D01*
X69967579Y-44034214D01*
X70421657Y-43846592D01*
X70530819Y-43737620D01*
X70652310Y-43820631D01*
X70904200Y-43871640D01*
X72504200Y-43871640D01*
X72739517Y-43827362D01*
X72922752Y-43709454D01*
X72939110Y-43720631D01*
X73191000Y-43771640D01*
X74891000Y-43771640D01*
X75126317Y-43727362D01*
X75342441Y-43588290D01*
X75487431Y-43376090D01*
X75538440Y-43124200D01*
X75538440Y-42224200D01*
X75494162Y-41988883D01*
X75355090Y-41772759D01*
X75142890Y-41627769D01*
X74891000Y-41576760D01*
X73191000Y-41576760D01*
X72955683Y-41621038D01*
X72847820Y-41690446D01*
X72756090Y-41627769D01*
X72504200Y-41576760D01*
X70904200Y-41576760D01*
X70668883Y-41621038D01*
X70452759Y-41760110D01*
X70443898Y-41773078D01*
X70423485Y-41752629D01*
X69969734Y-41564215D01*
X69478421Y-41563786D01*
X69024343Y-41751408D01*
X68676629Y-42098515D01*
X68598650Y-42286309D01*
X68434227Y-41888374D01*
X68070143Y-41523654D01*
X67594201Y-41326026D01*
X67437000Y-41325889D01*
X67437000Y-40009950D01*
X70269200Y-40009950D01*
X70269200Y-40350509D01*
X70365873Y-40583898D01*
X70544501Y-40762527D01*
X70777890Y-40859200D01*
X71418450Y-40859200D01*
X71577200Y-40700450D01*
X71577200Y-39851200D01*
X70427950Y-39851200D01*
X70269200Y-40009950D01*
X67437000Y-40009950D01*
X67437000Y-38371578D01*
X67583632Y-38273602D01*
X67862185Y-37856718D01*
X67884918Y-37742430D01*
X67889233Y-37764121D01*
X67889233Y-37764121D01*
G37*
X67889233Y-37764121D02*
X68200302Y-38229668D01*
X68665849Y-38540737D01*
X69215000Y-38649970D01*
X69764151Y-38540737D01*
X70229698Y-38229668D01*
X70485000Y-37847582D01*
X70740302Y-38229668D01*
X71205849Y-38540737D01*
X71577198Y-38614603D01*
X71577198Y-38747948D01*
X71418450Y-38589200D01*
X70777890Y-38589200D01*
X70544501Y-38685873D01*
X70365873Y-38864502D01*
X70269200Y-39097891D01*
X70269200Y-39438450D01*
X70427950Y-39597200D01*
X71577200Y-39597200D01*
X71577200Y-39577200D01*
X71831200Y-39577200D01*
X71831200Y-39597200D01*
X71851200Y-39597200D01*
X71851200Y-39851200D01*
X71831200Y-39851200D01*
X71831200Y-40700450D01*
X71989950Y-40859200D01*
X72630510Y-40859200D01*
X72857781Y-40765061D01*
X72939110Y-40820631D01*
X73191000Y-40871640D01*
X74811787Y-40871640D01*
X74813715Y-40873571D01*
X75267466Y-41061985D01*
X75758779Y-41062414D01*
X76073000Y-40932580D01*
X76073000Y-43271154D01*
X75755343Y-43402408D01*
X75407629Y-43749515D01*
X75219215Y-44203266D01*
X75218786Y-44694579D01*
X75327630Y-44958000D01*
X73406000Y-44958000D01*
X73114395Y-45016004D01*
X73015377Y-45082166D01*
X72867185Y-45181184D01*
X72105185Y-45943185D01*
X71940004Y-46190395D01*
X71914557Y-46318324D01*
X71895890Y-46305569D01*
X71644000Y-46254560D01*
X70744000Y-46254560D01*
X70508683Y-46298838D01*
X70292559Y-46437910D01*
X70288409Y-46443983D01*
X70042485Y-46197629D01*
X69588734Y-46009215D01*
X69097421Y-46008786D01*
X68643343Y-46196408D01*
X68295629Y-46543515D01*
X68107215Y-46997266D01*
X68106786Y-47488579D01*
X68245376Y-47823992D01*
X67881343Y-47974408D01*
X67533629Y-48321515D01*
X67429622Y-48571991D01*
X66167000Y-47309370D01*
X66167000Y-43185646D01*
X66236573Y-43354026D01*
X66600657Y-43718746D01*
X67076599Y-43916374D01*
X67591940Y-43916824D01*
X68068226Y-43720027D01*
X68432946Y-43355943D01*
X68525126Y-43133948D01*
X68675408Y-43497657D01*
X69022515Y-43845371D01*
X69476266Y-44033785D01*
X69967579Y-44034214D01*
X70421657Y-43846592D01*
X70530819Y-43737620D01*
X70652310Y-43820631D01*
X70904200Y-43871640D01*
X72504200Y-43871640D01*
X72739517Y-43827362D01*
X72922752Y-43709454D01*
X72939110Y-43720631D01*
X73191000Y-43771640D01*
X74891000Y-43771640D01*
X75126317Y-43727362D01*
X75342441Y-43588290D01*
X75487431Y-43376090D01*
X75538440Y-43124200D01*
X75538440Y-42224200D01*
X75494162Y-41988883D01*
X75355090Y-41772759D01*
X75142890Y-41627769D01*
X74891000Y-41576760D01*
X73191000Y-41576760D01*
X72955683Y-41621038D01*
X72847820Y-41690446D01*
X72756090Y-41627769D01*
X72504200Y-41576760D01*
X70904200Y-41576760D01*
X70668883Y-41621038D01*
X70452759Y-41760110D01*
X70443898Y-41773078D01*
X70423485Y-41752629D01*
X69969734Y-41564215D01*
X69478421Y-41563786D01*
X69024343Y-41751408D01*
X68676629Y-42098515D01*
X68598650Y-42286309D01*
X68434227Y-41888374D01*
X68070143Y-41523654D01*
X67594201Y-41326026D01*
X67437000Y-41325889D01*
X67437000Y-40009950D01*
X70269200Y-40009950D01*
X70269200Y-40350509D01*
X70365873Y-40583898D01*
X70544501Y-40762527D01*
X70777890Y-40859200D01*
X71418450Y-40859200D01*
X71577200Y-40700450D01*
X71577200Y-39851200D01*
X70427950Y-39851200D01*
X70269200Y-40009950D01*
X67437000Y-40009950D01*
X67437000Y-38371578D01*
X67583632Y-38273602D01*
X67862185Y-37856718D01*
X67884918Y-37742430D01*
X67889233Y-37764121D01*
G36*
X31426400Y-45993050D02*
X31585150Y-46151800D01*
X32434400Y-46151800D01*
X32434400Y-46131800D01*
X32688400Y-46131800D01*
X32688400Y-46151800D01*
X32708400Y-46151800D01*
X32708400Y-46405800D01*
X32688400Y-46405800D01*
X32688400Y-46425800D01*
X32434400Y-46425800D01*
X32434400Y-46405800D01*
X31585150Y-46405800D01*
X31426400Y-46564550D01*
X31426400Y-47006277D01*
X31235283Y-47042238D01*
X31219501Y-47052393D01*
X31214490Y-47048969D01*
X30962600Y-46997960D01*
X30200600Y-46997960D01*
X30073600Y-47021857D01*
X30073600Y-46188030D01*
X30668630Y-45593000D01*
X31426400Y-45593000D01*
X31426400Y-45993050D01*
X31426400Y-45993050D01*
G37*
X31426400Y-45993050D02*
X31585150Y-46151800D01*
X32434400Y-46151800D01*
X32434400Y-46131800D01*
X32688400Y-46131800D01*
X32688400Y-46151800D01*
X32708400Y-46151800D01*
X32708400Y-46405800D01*
X32688400Y-46405800D01*
X32688400Y-46425800D01*
X32434400Y-46425800D01*
X32434400Y-46405800D01*
X31585150Y-46405800D01*
X31426400Y-46564550D01*
X31426400Y-47006277D01*
X31235283Y-47042238D01*
X31219501Y-47052393D01*
X31214490Y-47048969D01*
X30962600Y-46997960D01*
X30200600Y-46997960D01*
X30073600Y-47021857D01*
X30073600Y-46188030D01*
X30668630Y-45593000D01*
X31426400Y-45593000D01*
X31426400Y-45993050D01*
G36*
X61788748Y-20940858D02*
X61774605Y-20955000D01*
X61788748Y-20969143D01*
X61609143Y-21148748D01*
X61595000Y-21134605D01*
X60821207Y-21908398D01*
X60886122Y-22146753D01*
X61396146Y-22327312D01*
X61936444Y-22298949D01*
X62211102Y-22185182D01*
X62287119Y-22298949D01*
X62326185Y-22357415D01*
X63373000Y-23404231D01*
X63373000Y-27641484D01*
X63120302Y-27810332D01*
X62865000Y-28192418D01*
X62609698Y-27810332D01*
X62144151Y-27499263D01*
X61595000Y-27390030D01*
X61045849Y-27499263D01*
X60580302Y-27810332D01*
X60327851Y-28188151D01*
X59979896Y-27755500D01*
X59486819Y-27485633D01*
X59404039Y-27468096D01*
X59182000Y-27590085D01*
X59182000Y-29083000D01*
X59202000Y-29083000D01*
X59202000Y-29337000D01*
X59182000Y-29337000D01*
X59182000Y-30829915D01*
X59404039Y-30951904D01*
X59486819Y-30934367D01*
X59979896Y-30664500D01*
X60327851Y-30231849D01*
X60580302Y-30609668D01*
X61045849Y-30920737D01*
X61595000Y-31029970D01*
X62144151Y-30920737D01*
X62609698Y-30609668D01*
X62865000Y-30227582D01*
X63120302Y-30609668D01*
X63585849Y-30920737D01*
X64135000Y-31029970D01*
X64684151Y-30920737D01*
X65149698Y-30609668D01*
X65405000Y-30227582D01*
X65660302Y-30609668D01*
X66125849Y-30920737D01*
X66675000Y-31029970D01*
X67224151Y-30920737D01*
X67689698Y-30609668D01*
X67945000Y-30227582D01*
X68200302Y-30609668D01*
X68665849Y-30920737D01*
X69215000Y-31029970D01*
X69764151Y-30920737D01*
X70229698Y-30609668D01*
X70485000Y-30227582D01*
X70740302Y-30609668D01*
X71205849Y-30920737D01*
X71755000Y-31029970D01*
X72304151Y-30920737D01*
X72769698Y-30609668D01*
X73025000Y-30227582D01*
X73280302Y-30609668D01*
X73745849Y-30920737D01*
X74295000Y-31029970D01*
X74844151Y-30920737D01*
X74894479Y-30887109D01*
X77724000Y-33716630D01*
X77724000Y-35346343D01*
X77384151Y-35119263D01*
X76835000Y-35010030D01*
X76285849Y-35119263D01*
X75820302Y-35430332D01*
X75565000Y-35812418D01*
X75309698Y-35430332D01*
X75057000Y-35261484D01*
X75057000Y-34766360D01*
X75341371Y-34482485D01*
X75529785Y-34028734D01*
X75530214Y-33537421D01*
X75342592Y-33083343D01*
X74995485Y-32735629D01*
X74541734Y-32547215D01*
X74050421Y-32546786D01*
X73596343Y-32734408D01*
X73248629Y-33081515D01*
X73060215Y-33535266D01*
X73059786Y-34026579D01*
X73247408Y-34480657D01*
X73533000Y-34766748D01*
X73533000Y-35261484D01*
X73280302Y-35430332D01*
X73025000Y-35812418D01*
X72769698Y-35430332D01*
X72517000Y-35261484D01*
X72517000Y-34893360D01*
X72801371Y-34609485D01*
X72989785Y-34155734D01*
X72990214Y-33664421D01*
X72802592Y-33210343D01*
X72455485Y-32862629D01*
X72001734Y-32674215D01*
X71510421Y-32673786D01*
X71056343Y-32861408D01*
X70708629Y-33208515D01*
X70520215Y-33662266D01*
X70519786Y-34153579D01*
X70707408Y-34607657D01*
X70993000Y-34893748D01*
X70993000Y-35261484D01*
X70740302Y-35430332D01*
X70485000Y-35812418D01*
X70229698Y-35430332D01*
X69764151Y-35119263D01*
X69215000Y-35010030D01*
X68665849Y-35119263D01*
X68200302Y-35430332D01*
X67889233Y-35895879D01*
X67884918Y-35917570D01*
X67862185Y-35803282D01*
X67583632Y-35386398D01*
X67166748Y-35107845D01*
X66675000Y-35010030D01*
X66183252Y-35107845D01*
X66167000Y-35118704D01*
X66167000Y-33115360D01*
X66451371Y-32831485D01*
X66639785Y-32377734D01*
X66640214Y-31886421D01*
X66452592Y-31432343D01*
X66105485Y-31084629D01*
X65651734Y-30896215D01*
X65160421Y-30895786D01*
X64706343Y-31083408D01*
X64358629Y-31430515D01*
X64170215Y-31884266D01*
X64169786Y-32375579D01*
X64357408Y-32829657D01*
X64643000Y-33115748D01*
X64643000Y-35118704D01*
X64626748Y-35107845D01*
X64135000Y-35010030D01*
X63643252Y-35107845D01*
X63226368Y-35386398D01*
X62947815Y-35803282D01*
X62915986Y-35963296D01*
X62872166Y-35813517D01*
X62519896Y-35375500D01*
X62026819Y-35105633D01*
X61944039Y-35088096D01*
X61722000Y-35210085D01*
X61722000Y-36703000D01*
X61742000Y-36703000D01*
X61742000Y-36957000D01*
X61722000Y-36957000D01*
X61722000Y-38449915D01*
X61944039Y-38571904D01*
X62026819Y-38554367D01*
X62519896Y-38284500D01*
X62872166Y-37846483D01*
X62915986Y-37696704D01*
X62947815Y-37856718D01*
X63226368Y-38273602D01*
X63373000Y-38371578D01*
X63373000Y-40679969D01*
X62726980Y-41325990D01*
X62252860Y-41325576D01*
X61776574Y-41522373D01*
X61439159Y-41859200D01*
X60833000Y-41859200D01*
X60833000Y-40894000D01*
X60822994Y-40844590D01*
X60794553Y-40802965D01*
X60752159Y-40775685D01*
X60706000Y-40767000D01*
X59474000Y-40767000D01*
X59474000Y-40441750D01*
X59315250Y-40283000D01*
X58166000Y-40283000D01*
X58166000Y-40303000D01*
X57912000Y-40303000D01*
X57912000Y-40283000D01*
X56007000Y-40283000D01*
X56007000Y-40303000D01*
X55753000Y-40303000D01*
X55753000Y-40283000D01*
X55733000Y-40283000D01*
X55733000Y-40029000D01*
X55753000Y-40029000D01*
X55753000Y-40009000D01*
X56007000Y-40009000D01*
X56007000Y-40029000D01*
X57912000Y-40029000D01*
X57912000Y-40009000D01*
X58166000Y-40009000D01*
X58166000Y-40029000D01*
X59315250Y-40029000D01*
X59474000Y-39870250D01*
X59474000Y-39529691D01*
X59377327Y-39296302D01*
X59198699Y-39117673D01*
X58965310Y-39021000D01*
X58856030Y-39021000D01*
X59269783Y-38607247D01*
X59604151Y-38540737D01*
X60069698Y-38229668D01*
X60322149Y-37851849D01*
X60670104Y-38284500D01*
X61163181Y-38554367D01*
X61245961Y-38571904D01*
X61468000Y-38449915D01*
X61468000Y-36957000D01*
X61448000Y-36957000D01*
X61448000Y-36703000D01*
X61468000Y-36703000D01*
X61468000Y-35210085D01*
X61245961Y-35088096D01*
X61163181Y-35105633D01*
X60670104Y-35375500D01*
X60322149Y-35808151D01*
X60069698Y-35430332D01*
X59817000Y-35261484D01*
X59817000Y-32385000D01*
X59758996Y-32093395D01*
X59646428Y-31924925D01*
X59593815Y-31846184D01*
X59019863Y-31272233D01*
X59020214Y-30870421D01*
X58928000Y-30647247D01*
X58928000Y-29337000D01*
X58908000Y-29337000D01*
X58908000Y-29083000D01*
X58928000Y-29083000D01*
X58928000Y-27590085D01*
X58899954Y-27574676D01*
X59450190Y-27024440D01*
X60320000Y-27024440D01*
X60555317Y-26980162D01*
X60771441Y-26841090D01*
X60916431Y-26628890D01*
X60967440Y-26377000D01*
X60967440Y-24677000D01*
X60948029Y-24573841D01*
X61023657Y-24542592D01*
X61371371Y-24195485D01*
X61559785Y-23741734D01*
X61560214Y-23250421D01*
X61372592Y-22796343D01*
X61025485Y-22448629D01*
X60571734Y-22260215D01*
X60080421Y-22259786D01*
X59817000Y-22368630D01*
X59817000Y-22290774D01*
X59990317Y-22258162D01*
X60206441Y-22119090D01*
X60351431Y-21906890D01*
X60401497Y-21659654D01*
X60403247Y-21663878D01*
X60641602Y-21728793D01*
X61415395Y-20955000D01*
X61401253Y-20940858D01*
X61580858Y-20761253D01*
X61595000Y-20775395D01*
X61609143Y-20761253D01*
X61788748Y-20940858D01*
X61788748Y-20940858D01*
G37*
X61788748Y-20940858D02*
X61774605Y-20955000D01*
X61788748Y-20969143D01*
X61609143Y-21148748D01*
X61595000Y-21134605D01*
X60821207Y-21908398D01*
X60886122Y-22146753D01*
X61396146Y-22327312D01*
X61936444Y-22298949D01*
X62211102Y-22185182D01*
X62287119Y-22298949D01*
X62326185Y-22357415D01*
X63373000Y-23404231D01*
X63373000Y-27641484D01*
X63120302Y-27810332D01*
X62865000Y-28192418D01*
X62609698Y-27810332D01*
X62144151Y-27499263D01*
X61595000Y-27390030D01*
X61045849Y-27499263D01*
X60580302Y-27810332D01*
X60327851Y-28188151D01*
X59979896Y-27755500D01*
X59486819Y-27485633D01*
X59404039Y-27468096D01*
X59182000Y-27590085D01*
X59182000Y-29083000D01*
X59202000Y-29083000D01*
X59202000Y-29337000D01*
X59182000Y-29337000D01*
X59182000Y-30829915D01*
X59404039Y-30951904D01*
X59486819Y-30934367D01*
X59979896Y-30664500D01*
X60327851Y-30231849D01*
X60580302Y-30609668D01*
X61045849Y-30920737D01*
X61595000Y-31029970D01*
X62144151Y-30920737D01*
X62609698Y-30609668D01*
X62865000Y-30227582D01*
X63120302Y-30609668D01*
X63585849Y-30920737D01*
X64135000Y-31029970D01*
X64684151Y-30920737D01*
X65149698Y-30609668D01*
X65405000Y-30227582D01*
X65660302Y-30609668D01*
X66125849Y-30920737D01*
X66675000Y-31029970D01*
X67224151Y-30920737D01*
X67689698Y-30609668D01*
X67945000Y-30227582D01*
X68200302Y-30609668D01*
X68665849Y-30920737D01*
X69215000Y-31029970D01*
X69764151Y-30920737D01*
X70229698Y-30609668D01*
X70485000Y-30227582D01*
X70740302Y-30609668D01*
X71205849Y-30920737D01*
X71755000Y-31029970D01*
X72304151Y-30920737D01*
X72769698Y-30609668D01*
X73025000Y-30227582D01*
X73280302Y-30609668D01*
X73745849Y-30920737D01*
X74295000Y-31029970D01*
X74844151Y-30920737D01*
X74894479Y-30887109D01*
X77724000Y-33716630D01*
X77724000Y-35346343D01*
X77384151Y-35119263D01*
X76835000Y-35010030D01*
X76285849Y-35119263D01*
X75820302Y-35430332D01*
X75565000Y-35812418D01*
X75309698Y-35430332D01*
X75057000Y-35261484D01*
X75057000Y-34766360D01*
X75341371Y-34482485D01*
X75529785Y-34028734D01*
X75530214Y-33537421D01*
X75342592Y-33083343D01*
X74995485Y-32735629D01*
X74541734Y-32547215D01*
X74050421Y-32546786D01*
X73596343Y-32734408D01*
X73248629Y-33081515D01*
X73060215Y-33535266D01*
X73059786Y-34026579D01*
X73247408Y-34480657D01*
X73533000Y-34766748D01*
X73533000Y-35261484D01*
X73280302Y-35430332D01*
X73025000Y-35812418D01*
X72769698Y-35430332D01*
X72517000Y-35261484D01*
X72517000Y-34893360D01*
X72801371Y-34609485D01*
X72989785Y-34155734D01*
X72990214Y-33664421D01*
X72802592Y-33210343D01*
X72455485Y-32862629D01*
X72001734Y-32674215D01*
X71510421Y-32673786D01*
X71056343Y-32861408D01*
X70708629Y-33208515D01*
X70520215Y-33662266D01*
X70519786Y-34153579D01*
X70707408Y-34607657D01*
X70993000Y-34893748D01*
X70993000Y-35261484D01*
X70740302Y-35430332D01*
X70485000Y-35812418D01*
X70229698Y-35430332D01*
X69764151Y-35119263D01*
X69215000Y-35010030D01*
X68665849Y-35119263D01*
X68200302Y-35430332D01*
X67889233Y-35895879D01*
X67884918Y-35917570D01*
X67862185Y-35803282D01*
X67583632Y-35386398D01*
X67166748Y-35107845D01*
X66675000Y-35010030D01*
X66183252Y-35107845D01*
X66167000Y-35118704D01*
X66167000Y-33115360D01*
X66451371Y-32831485D01*
X66639785Y-32377734D01*
X66640214Y-31886421D01*
X66452592Y-31432343D01*
X66105485Y-31084629D01*
X65651734Y-30896215D01*
X65160421Y-30895786D01*
X64706343Y-31083408D01*
X64358629Y-31430515D01*
X64170215Y-31884266D01*
X64169786Y-32375579D01*
X64357408Y-32829657D01*
X64643000Y-33115748D01*
X64643000Y-35118704D01*
X64626748Y-35107845D01*
X64135000Y-35010030D01*
X63643252Y-35107845D01*
X63226368Y-35386398D01*
X62947815Y-35803282D01*
X62915986Y-35963296D01*
X62872166Y-35813517D01*
X62519896Y-35375500D01*
X62026819Y-35105633D01*
X61944039Y-35088096D01*
X61722000Y-35210085D01*
X61722000Y-36703000D01*
X61742000Y-36703000D01*
X61742000Y-36957000D01*
X61722000Y-36957000D01*
X61722000Y-38449915D01*
X61944039Y-38571904D01*
X62026819Y-38554367D01*
X62519896Y-38284500D01*
X62872166Y-37846483D01*
X62915986Y-37696704D01*
X62947815Y-37856718D01*
X63226368Y-38273602D01*
X63373000Y-38371578D01*
X63373000Y-40679969D01*
X62726980Y-41325990D01*
X62252860Y-41325576D01*
X61776574Y-41522373D01*
X61439159Y-41859200D01*
X60833000Y-41859200D01*
X60833000Y-40894000D01*
X60822994Y-40844590D01*
X60794553Y-40802965D01*
X60752159Y-40775685D01*
X60706000Y-40767000D01*
X59474000Y-40767000D01*
X59474000Y-40441750D01*
X59315250Y-40283000D01*
X58166000Y-40283000D01*
X58166000Y-40303000D01*
X57912000Y-40303000D01*
X57912000Y-40283000D01*
X56007000Y-40283000D01*
X56007000Y-40303000D01*
X55753000Y-40303000D01*
X55753000Y-40283000D01*
X55733000Y-40283000D01*
X55733000Y-40029000D01*
X55753000Y-40029000D01*
X55753000Y-40009000D01*
X56007000Y-40009000D01*
X56007000Y-40029000D01*
X57912000Y-40029000D01*
X57912000Y-40009000D01*
X58166000Y-40009000D01*
X58166000Y-40029000D01*
X59315250Y-40029000D01*
X59474000Y-39870250D01*
X59474000Y-39529691D01*
X59377327Y-39296302D01*
X59198699Y-39117673D01*
X58965310Y-39021000D01*
X58856030Y-39021000D01*
X59269783Y-38607247D01*
X59604151Y-38540737D01*
X60069698Y-38229668D01*
X60322149Y-37851849D01*
X60670104Y-38284500D01*
X61163181Y-38554367D01*
X61245961Y-38571904D01*
X61468000Y-38449915D01*
X61468000Y-36957000D01*
X61448000Y-36957000D01*
X61448000Y-36703000D01*
X61468000Y-36703000D01*
X61468000Y-35210085D01*
X61245961Y-35088096D01*
X61163181Y-35105633D01*
X60670104Y-35375500D01*
X60322149Y-35808151D01*
X60069698Y-35430332D01*
X59817000Y-35261484D01*
X59817000Y-32385000D01*
X59758996Y-32093395D01*
X59646428Y-31924925D01*
X59593815Y-31846184D01*
X59019863Y-31272233D01*
X59020214Y-30870421D01*
X58928000Y-30647247D01*
X58928000Y-29337000D01*
X58908000Y-29337000D01*
X58908000Y-29083000D01*
X58928000Y-29083000D01*
X58928000Y-27590085D01*
X58899954Y-27574676D01*
X59450190Y-27024440D01*
X60320000Y-27024440D01*
X60555317Y-26980162D01*
X60771441Y-26841090D01*
X60916431Y-26628890D01*
X60967440Y-26377000D01*
X60967440Y-24677000D01*
X60948029Y-24573841D01*
X61023657Y-24542592D01*
X61371371Y-24195485D01*
X61559785Y-23741734D01*
X61560214Y-23250421D01*
X61372592Y-22796343D01*
X61025485Y-22448629D01*
X60571734Y-22260215D01*
X60080421Y-22259786D01*
X59817000Y-22368630D01*
X59817000Y-22290774D01*
X59990317Y-22258162D01*
X60206441Y-22119090D01*
X60351431Y-21906890D01*
X60401497Y-21659654D01*
X60403247Y-21663878D01*
X60641602Y-21728793D01*
X61415395Y-20955000D01*
X61401253Y-20940858D01*
X61580858Y-20761253D01*
X61595000Y-20775395D01*
X61609143Y-20761253D01*
X61788748Y-20940858D01*
G36*
X77597000Y-63373000D02*
X77617000Y-63373000D01*
X77617000Y-63627000D01*
X77597000Y-63627000D01*
X77597000Y-65476120D01*
X77755750Y-65634870D01*
X79096179Y-65634870D01*
X79248000Y-65571984D01*
X79248000Y-70548500D01*
X62103000Y-70548500D01*
X62103000Y-66755750D01*
X62250000Y-66755750D01*
X62250000Y-67596309D01*
X62346673Y-67829698D01*
X62525301Y-68008327D01*
X62758690Y-68105000D01*
X63849250Y-68105000D01*
X64008000Y-67946250D01*
X64008000Y-66597000D01*
X64262000Y-66597000D01*
X64262000Y-67946250D01*
X64420750Y-68105000D01*
X65511310Y-68105000D01*
X65744699Y-68008327D01*
X65923327Y-67829698D01*
X66020000Y-67596309D01*
X66020000Y-66755750D01*
X65861250Y-66597000D01*
X64262000Y-66597000D01*
X64008000Y-66597000D01*
X62408750Y-66597000D01*
X62250000Y-66755750D01*
X62103000Y-66755750D01*
X62103000Y-64897000D01*
X62609009Y-64897000D01*
X62525301Y-64931673D01*
X62346673Y-65110302D01*
X62250000Y-65343691D01*
X62250000Y-66184250D01*
X62408750Y-66343000D01*
X64008000Y-66343000D01*
X64008000Y-66323000D01*
X64262000Y-66323000D01*
X64262000Y-66343000D01*
X65861250Y-66343000D01*
X66020000Y-66184250D01*
X66020000Y-65343691D01*
X65923327Y-65110302D01*
X65744699Y-64931673D01*
X65660991Y-64897000D01*
X66167000Y-64897000D01*
X66167000Y-68580000D01*
X66177006Y-68629410D01*
X66205447Y-68671035D01*
X66247841Y-68698315D01*
X66294000Y-68707000D01*
X70104000Y-68707000D01*
X70153410Y-68696994D01*
X70195035Y-68668553D01*
X70222315Y-68626159D01*
X70231000Y-68580000D01*
X70231000Y-68119148D01*
X70669190Y-68360649D01*
X70763168Y-68381540D01*
X70993000Y-68260214D01*
X70993000Y-66167000D01*
X70973000Y-66167000D01*
X70973000Y-65913000D01*
X70993000Y-65913000D01*
X70993000Y-65893000D01*
X71247000Y-65893000D01*
X71247000Y-65913000D01*
X71267000Y-65913000D01*
X71267000Y-66167000D01*
X71247000Y-66167000D01*
X71247000Y-68260214D01*
X71476832Y-68381540D01*
X71570810Y-68360649D01*
X72009000Y-68119148D01*
X72009000Y-68580000D01*
X72019006Y-68629410D01*
X72047447Y-68671035D01*
X72089841Y-68698315D01*
X72136000Y-68707000D01*
X75438000Y-68707000D01*
X75487410Y-68696994D01*
X75529035Y-68668553D01*
X75556315Y-68626159D01*
X75565000Y-68580000D01*
X75565000Y-65492765D01*
X75610432Y-65538197D01*
X75843821Y-65634870D01*
X77184250Y-65634870D01*
X77343000Y-65476120D01*
X77343000Y-63627000D01*
X77323000Y-63627000D01*
X77323000Y-63373000D01*
X77343000Y-63373000D01*
X77343000Y-63353000D01*
X77597000Y-63353000D01*
X77597000Y-63373000D01*
X77597000Y-63373000D01*
G37*
X77597000Y-63373000D02*
X77617000Y-63373000D01*
X77617000Y-63627000D01*
X77597000Y-63627000D01*
X77597000Y-65476120D01*
X77755750Y-65634870D01*
X79096179Y-65634870D01*
X79248000Y-65571984D01*
X79248000Y-70548500D01*
X62103000Y-70548500D01*
X62103000Y-66755750D01*
X62250000Y-66755750D01*
X62250000Y-67596309D01*
X62346673Y-67829698D01*
X62525301Y-68008327D01*
X62758690Y-68105000D01*
X63849250Y-68105000D01*
X64008000Y-67946250D01*
X64008000Y-66597000D01*
X64262000Y-66597000D01*
X64262000Y-67946250D01*
X64420750Y-68105000D01*
X65511310Y-68105000D01*
X65744699Y-68008327D01*
X65923327Y-67829698D01*
X66020000Y-67596309D01*
X66020000Y-66755750D01*
X65861250Y-66597000D01*
X64262000Y-66597000D01*
X64008000Y-66597000D01*
X62408750Y-66597000D01*
X62250000Y-66755750D01*
X62103000Y-66755750D01*
X62103000Y-64897000D01*
X62609009Y-64897000D01*
X62525301Y-64931673D01*
X62346673Y-65110302D01*
X62250000Y-65343691D01*
X62250000Y-66184250D01*
X62408750Y-66343000D01*
X64008000Y-66343000D01*
X64008000Y-66323000D01*
X64262000Y-66323000D01*
X64262000Y-66343000D01*
X65861250Y-66343000D01*
X66020000Y-66184250D01*
X66020000Y-65343691D01*
X65923327Y-65110302D01*
X65744699Y-64931673D01*
X65660991Y-64897000D01*
X66167000Y-64897000D01*
X66167000Y-68580000D01*
X66177006Y-68629410D01*
X66205447Y-68671035D01*
X66247841Y-68698315D01*
X66294000Y-68707000D01*
X70104000Y-68707000D01*
X70153410Y-68696994D01*
X70195035Y-68668553D01*
X70222315Y-68626159D01*
X70231000Y-68580000D01*
X70231000Y-68119148D01*
X70669190Y-68360649D01*
X70763168Y-68381540D01*
X70993000Y-68260214D01*
X70993000Y-66167000D01*
X70973000Y-66167000D01*
X70973000Y-65913000D01*
X70993000Y-65913000D01*
X70993000Y-65893000D01*
X71247000Y-65893000D01*
X71247000Y-65913000D01*
X71267000Y-65913000D01*
X71267000Y-66167000D01*
X71247000Y-66167000D01*
X71247000Y-68260214D01*
X71476832Y-68381540D01*
X71570810Y-68360649D01*
X72009000Y-68119148D01*
X72009000Y-68580000D01*
X72019006Y-68629410D01*
X72047447Y-68671035D01*
X72089841Y-68698315D01*
X72136000Y-68707000D01*
X75438000Y-68707000D01*
X75487410Y-68696994D01*
X75529035Y-68668553D01*
X75556315Y-68626159D01*
X75565000Y-68580000D01*
X75565000Y-65492765D01*
X75610432Y-65538197D01*
X75843821Y-65634870D01*
X77184250Y-65634870D01*
X77343000Y-65476120D01*
X77343000Y-63627000D01*
X77323000Y-63627000D01*
X77323000Y-63373000D01*
X77343000Y-63373000D01*
X77343000Y-63353000D01*
X77597000Y-63353000D01*
X77597000Y-63373000D01*
G36*
X69342000Y-56195631D02*
X69342000Y-63890858D01*
X69030810Y-63719351D01*
X68936832Y-63698460D01*
X68707000Y-63819786D01*
X68707000Y-65913000D01*
X68727000Y-65913000D01*
X68727000Y-66167000D01*
X68707000Y-66167000D01*
X68707000Y-66187000D01*
X68453000Y-66187000D01*
X68453000Y-66167000D01*
X67095370Y-66167000D01*
X67095370Y-67067430D01*
X67256982Y-67625906D01*
X67512071Y-67945000D01*
X66929000Y-67945000D01*
X66929000Y-65012570D01*
X67095370Y-65012570D01*
X67095370Y-65913000D01*
X68453000Y-65913000D01*
X68453000Y-63819786D01*
X68223168Y-63698460D01*
X68129190Y-63719351D01*
X67620011Y-63999976D01*
X67256982Y-64454094D01*
X67095370Y-65012570D01*
X66929000Y-65012570D01*
X66929000Y-60752000D01*
X67035309Y-60752000D01*
X67268698Y-60655327D01*
X67447327Y-60476699D01*
X67544000Y-60243310D01*
X67544000Y-60102750D01*
X67385250Y-59944000D01*
X66261000Y-59944000D01*
X66261000Y-59964000D01*
X66007000Y-59964000D01*
X66007000Y-59944000D01*
X65987000Y-59944000D01*
X65987000Y-59690000D01*
X66007000Y-59690000D01*
X66007000Y-59670000D01*
X66261000Y-59670000D01*
X66261000Y-59690000D01*
X67385250Y-59690000D01*
X67544000Y-59531250D01*
X67544000Y-59390690D01*
X67454194Y-59173878D01*
X67505431Y-59098890D01*
X67556440Y-58847000D01*
X67556440Y-58247000D01*
X67512162Y-58011683D01*
X67448322Y-57912472D01*
X67505431Y-57828890D01*
X67556440Y-57577000D01*
X67556440Y-56977000D01*
X67512162Y-56741683D01*
X67448322Y-56642472D01*
X67505431Y-56558890D01*
X67556440Y-56307000D01*
X67556440Y-55707000D01*
X67541199Y-55626000D01*
X68772369Y-55626000D01*
X69342000Y-56195631D01*
X69342000Y-56195631D01*
G37*
X69342000Y-56195631D02*
X69342000Y-63890858D01*
X69030810Y-63719351D01*
X68936832Y-63698460D01*
X68707000Y-63819786D01*
X68707000Y-65913000D01*
X68727000Y-65913000D01*
X68727000Y-66167000D01*
X68707000Y-66167000D01*
X68707000Y-66187000D01*
X68453000Y-66187000D01*
X68453000Y-66167000D01*
X67095370Y-66167000D01*
X67095370Y-67067430D01*
X67256982Y-67625906D01*
X67512071Y-67945000D01*
X66929000Y-67945000D01*
X66929000Y-65012570D01*
X67095370Y-65012570D01*
X67095370Y-65913000D01*
X68453000Y-65913000D01*
X68453000Y-63819786D01*
X68223168Y-63698460D01*
X68129190Y-63719351D01*
X67620011Y-63999976D01*
X67256982Y-64454094D01*
X67095370Y-65012570D01*
X66929000Y-65012570D01*
X66929000Y-60752000D01*
X67035309Y-60752000D01*
X67268698Y-60655327D01*
X67447327Y-60476699D01*
X67544000Y-60243310D01*
X67544000Y-60102750D01*
X67385250Y-59944000D01*
X66261000Y-59944000D01*
X66261000Y-59964000D01*
X66007000Y-59964000D01*
X66007000Y-59944000D01*
X65987000Y-59944000D01*
X65987000Y-59690000D01*
X66007000Y-59690000D01*
X66007000Y-59670000D01*
X66261000Y-59670000D01*
X66261000Y-59690000D01*
X67385250Y-59690000D01*
X67544000Y-59531250D01*
X67544000Y-59390690D01*
X67454194Y-59173878D01*
X67505431Y-59098890D01*
X67556440Y-58847000D01*
X67556440Y-58247000D01*
X67512162Y-58011683D01*
X67448322Y-57912472D01*
X67505431Y-57828890D01*
X67556440Y-57577000D01*
X67556440Y-56977000D01*
X67512162Y-56741683D01*
X67448322Y-56642472D01*
X67505431Y-56558890D01*
X67556440Y-56307000D01*
X67556440Y-55707000D01*
X67541199Y-55626000D01*
X68772369Y-55626000D01*
X69342000Y-56195631D01*
G36*
X62034004Y-55663605D02*
X62199185Y-55910815D01*
X64104185Y-57815815D01*
X64351395Y-57980996D01*
X64643000Y-58039000D01*
X64753681Y-58039000D01*
X64711560Y-58247000D01*
X64711560Y-58463534D01*
X64697699Y-58449673D01*
X64464310Y-58353000D01*
X63023750Y-58353000D01*
X62865000Y-58511750D01*
X62865000Y-59361000D01*
X62885000Y-59361000D01*
X62885000Y-59615000D01*
X62865000Y-59615000D01*
X62865000Y-59635000D01*
X62611000Y-59635000D01*
X62611000Y-59615000D01*
X62591000Y-59615000D01*
X62591000Y-59361000D01*
X62611000Y-59361000D01*
X62611000Y-58511750D01*
X62452250Y-58353000D01*
X61011690Y-58353000D01*
X60833000Y-58427016D01*
X60833000Y-55626000D01*
X62026524Y-55626000D01*
X62034004Y-55663605D01*
X62034004Y-55663605D01*
G37*
X62034004Y-55663605D02*
X62199185Y-55910815D01*
X64104185Y-57815815D01*
X64351395Y-57980996D01*
X64643000Y-58039000D01*
X64753681Y-58039000D01*
X64711560Y-58247000D01*
X64711560Y-58463534D01*
X64697699Y-58449673D01*
X64464310Y-58353000D01*
X63023750Y-58353000D01*
X62865000Y-58511750D01*
X62865000Y-59361000D01*
X62885000Y-59361000D01*
X62885000Y-59615000D01*
X62865000Y-59615000D01*
X62865000Y-59635000D01*
X62611000Y-59635000D01*
X62611000Y-59615000D01*
X62591000Y-59615000D01*
X62591000Y-59361000D01*
X62611000Y-59361000D01*
X62611000Y-58511750D01*
X62452250Y-58353000D01*
X61011690Y-58353000D01*
X60833000Y-58427016D01*
X60833000Y-55626000D01*
X62026524Y-55626000D01*
X62034004Y-55663605D01*
G36*
X71907000Y-60593250D02*
X72065750Y-60752000D01*
X72435309Y-60752000D01*
X72668698Y-60655327D01*
X72847327Y-60476699D01*
X72944000Y-60243310D01*
X72944000Y-60071000D01*
X74803000Y-60071000D01*
X74803000Y-64149096D01*
X74446041Y-63826028D01*
X74253206Y-63778602D01*
X74033000Y-63867238D01*
X74033000Y-65667000D01*
X74053000Y-65667000D01*
X74053000Y-66413000D01*
X74033000Y-66413000D01*
X74033000Y-66433000D01*
X73287000Y-66433000D01*
X73287000Y-66413000D01*
X73267000Y-66413000D01*
X73267000Y-65667000D01*
X73287000Y-65667000D01*
X73287000Y-63867238D01*
X73066794Y-63778602D01*
X73025000Y-63788881D01*
X73025000Y-63373000D01*
X73014994Y-63323590D01*
X72986553Y-63281965D01*
X72944159Y-63254685D01*
X72898000Y-63246000D01*
X70485000Y-63246000D01*
X70485000Y-60690824D01*
X70632691Y-60752000D01*
X71002250Y-60752000D01*
X71161000Y-60593250D01*
X71161000Y-60071000D01*
X71907000Y-60071000D01*
X71907000Y-60593250D01*
X71907000Y-60593250D01*
G37*
X71907000Y-60593250D02*
X72065750Y-60752000D01*
X72435309Y-60752000D01*
X72668698Y-60655327D01*
X72847327Y-60476699D01*
X72944000Y-60243310D01*
X72944000Y-60071000D01*
X74803000Y-60071000D01*
X74803000Y-64149096D01*
X74446041Y-63826028D01*
X74253206Y-63778602D01*
X74033000Y-63867238D01*
X74033000Y-65667000D01*
X74053000Y-65667000D01*
X74053000Y-66413000D01*
X74033000Y-66413000D01*
X74033000Y-66433000D01*
X73287000Y-66433000D01*
X73287000Y-66413000D01*
X73267000Y-66413000D01*
X73267000Y-65667000D01*
X73287000Y-65667000D01*
X73287000Y-63867238D01*
X73066794Y-63778602D01*
X73025000Y-63788881D01*
X73025000Y-63373000D01*
X73014994Y-63323590D01*
X72986553Y-63281965D01*
X72944159Y-63254685D01*
X72898000Y-63246000D01*
X70485000Y-63246000D01*
X70485000Y-60690824D01*
X70632691Y-60752000D01*
X71002250Y-60752000D01*
X71161000Y-60593250D01*
X71161000Y-60071000D01*
X71907000Y-60071000D01*
X71907000Y-60593250D01*
M02*
