G04 #@! TF.FileFunction,Legend,Top*
%FSLAX46Y46*%
G04 Gerber Fmt 4.6, Leading zero omitted, Abs format (unit mm)*
G04 Created by KiCad (PCBNEW 4.0.1-stable) date 2/17/2016 12:01:54 PM*
%MOMM*%
G01*
G04 APERTURE LIST*
%ADD10C,0.150000*%
%ADD11C,0.200000*%
%ADD12C,0.381000*%
%ADD13C,0.254000*%
%ADD14C,0.444500*%
%ADD15C,0.066040*%
%ADD16C,0.406400*%
%ADD17C,0.152400*%
%ADD18C,0.203200*%
%ADD19C,0.088900*%
%ADD20C,0.075000*%
G04 APERTURE END LIST*
D10*
D11*
X17764095Y-70048381D02*
X17764095Y-69048381D01*
X17764095Y-69524571D02*
X18335524Y-69524571D01*
X18335524Y-70048381D02*
X18335524Y-69048381D01*
X18668857Y-69048381D02*
X19002190Y-70048381D01*
X19335524Y-69048381D01*
X20383143Y-70000762D02*
X20478381Y-70048381D01*
X20668857Y-70048381D01*
X20764096Y-70000762D01*
X20811715Y-69905524D01*
X20811715Y-69857905D01*
X20764096Y-69762667D01*
X20668857Y-69715048D01*
X20526000Y-69715048D01*
X20430762Y-69667429D01*
X20383143Y-69572190D01*
X20383143Y-69524571D01*
X20430762Y-69429333D01*
X20526000Y-69381714D01*
X20668857Y-69381714D01*
X20764096Y-69429333D01*
X21240286Y-70048381D02*
X21240286Y-69381714D01*
X21240286Y-69048381D02*
X21192667Y-69096000D01*
X21240286Y-69143619D01*
X21287905Y-69096000D01*
X21240286Y-69048381D01*
X21240286Y-69143619D01*
X22145048Y-69381714D02*
X22145048Y-70191238D01*
X22097429Y-70286476D01*
X22049810Y-70334095D01*
X21954571Y-70381714D01*
X21811714Y-70381714D01*
X21716476Y-70334095D01*
X22145048Y-70000762D02*
X22049810Y-70048381D01*
X21859333Y-70048381D01*
X21764095Y-70000762D01*
X21716476Y-69953143D01*
X21668857Y-69857905D01*
X21668857Y-69572190D01*
X21716476Y-69476952D01*
X21764095Y-69429333D01*
X21859333Y-69381714D01*
X22049810Y-69381714D01*
X22145048Y-69429333D01*
X22621238Y-69381714D02*
X22621238Y-70048381D01*
X22621238Y-69476952D02*
X22668857Y-69429333D01*
X22764095Y-69381714D01*
X22906953Y-69381714D01*
X23002191Y-69429333D01*
X23049810Y-69524571D01*
X23049810Y-70048381D01*
X23954572Y-70048381D02*
X23954572Y-69524571D01*
X23906953Y-69429333D01*
X23811715Y-69381714D01*
X23621238Y-69381714D01*
X23526000Y-69429333D01*
X23954572Y-70000762D02*
X23859334Y-70048381D01*
X23621238Y-70048381D01*
X23526000Y-70000762D01*
X23478381Y-69905524D01*
X23478381Y-69810286D01*
X23526000Y-69715048D01*
X23621238Y-69667429D01*
X23859334Y-69667429D01*
X23954572Y-69619810D01*
X24573619Y-70048381D02*
X24478381Y-70000762D01*
X24430762Y-69905524D01*
X24430762Y-69048381D01*
X26145049Y-69381714D02*
X26145049Y-70191238D01*
X26097430Y-70286476D01*
X26049811Y-70334095D01*
X25954572Y-70381714D01*
X25811715Y-70381714D01*
X25716477Y-70334095D01*
X26145049Y-70000762D02*
X26049811Y-70048381D01*
X25859334Y-70048381D01*
X25764096Y-70000762D01*
X25716477Y-69953143D01*
X25668858Y-69857905D01*
X25668858Y-69572190D01*
X25716477Y-69476952D01*
X25764096Y-69429333D01*
X25859334Y-69381714D01*
X26049811Y-69381714D01*
X26145049Y-69429333D01*
X27002192Y-70000762D02*
X26906954Y-70048381D01*
X26716477Y-70048381D01*
X26621239Y-70000762D01*
X26573620Y-69905524D01*
X26573620Y-69524571D01*
X26621239Y-69429333D01*
X26716477Y-69381714D01*
X26906954Y-69381714D01*
X27002192Y-69429333D01*
X27049811Y-69524571D01*
X27049811Y-69619810D01*
X26573620Y-69715048D01*
X27478382Y-69381714D02*
X27478382Y-70048381D01*
X27478382Y-69476952D02*
X27526001Y-69429333D01*
X27621239Y-69381714D01*
X27764097Y-69381714D01*
X27859335Y-69429333D01*
X27906954Y-69524571D01*
X27906954Y-70048381D01*
X28764097Y-70000762D02*
X28668859Y-70048381D01*
X28478382Y-70048381D01*
X28383144Y-70000762D01*
X28335525Y-69905524D01*
X28335525Y-69524571D01*
X28383144Y-69429333D01*
X28478382Y-69381714D01*
X28668859Y-69381714D01*
X28764097Y-69429333D01*
X28811716Y-69524571D01*
X28811716Y-69619810D01*
X28335525Y-69715048D01*
X29240287Y-70048381D02*
X29240287Y-69381714D01*
X29240287Y-69572190D02*
X29287906Y-69476952D01*
X29335525Y-69429333D01*
X29430763Y-69381714D01*
X29526002Y-69381714D01*
X30287907Y-70048381D02*
X30287907Y-69524571D01*
X30240288Y-69429333D01*
X30145050Y-69381714D01*
X29954573Y-69381714D01*
X29859335Y-69429333D01*
X30287907Y-70000762D02*
X30192669Y-70048381D01*
X29954573Y-70048381D01*
X29859335Y-70000762D01*
X29811716Y-69905524D01*
X29811716Y-69810286D01*
X29859335Y-69715048D01*
X29954573Y-69667429D01*
X30192669Y-69667429D01*
X30287907Y-69619810D01*
X30621240Y-69381714D02*
X31002192Y-69381714D01*
X30764097Y-69048381D02*
X30764097Y-69905524D01*
X30811716Y-70000762D01*
X30906954Y-70048381D01*
X31002192Y-70048381D01*
X31478383Y-70048381D02*
X31383145Y-70000762D01*
X31335526Y-69953143D01*
X31287907Y-69857905D01*
X31287907Y-69572190D01*
X31335526Y-69476952D01*
X31383145Y-69429333D01*
X31478383Y-69381714D01*
X31621241Y-69381714D01*
X31716479Y-69429333D01*
X31764098Y-69476952D01*
X31811717Y-69572190D01*
X31811717Y-69857905D01*
X31764098Y-69953143D01*
X31716479Y-70000762D01*
X31621241Y-70048381D01*
X31478383Y-70048381D01*
X32240288Y-70048381D02*
X32240288Y-69381714D01*
X32240288Y-69572190D02*
X32287907Y-69476952D01*
X32335526Y-69429333D01*
X32430764Y-69381714D01*
X32526003Y-69381714D01*
X33621241Y-70048381D02*
X33621241Y-69048381D01*
X33621241Y-69429333D02*
X33716479Y-69381714D01*
X33906956Y-69381714D01*
X34002194Y-69429333D01*
X34049813Y-69476952D01*
X34097432Y-69572190D01*
X34097432Y-69857905D01*
X34049813Y-69953143D01*
X34002194Y-70000762D01*
X33906956Y-70048381D01*
X33716479Y-70048381D01*
X33621241Y-70000762D01*
X34668860Y-70048381D02*
X34573622Y-70000762D01*
X34526003Y-69953143D01*
X34478384Y-69857905D01*
X34478384Y-69572190D01*
X34526003Y-69476952D01*
X34573622Y-69429333D01*
X34668860Y-69381714D01*
X34811718Y-69381714D01*
X34906956Y-69429333D01*
X34954575Y-69476952D01*
X35002194Y-69572190D01*
X35002194Y-69857905D01*
X34954575Y-69953143D01*
X34906956Y-70000762D01*
X34811718Y-70048381D01*
X34668860Y-70048381D01*
X35859337Y-70048381D02*
X35859337Y-69524571D01*
X35811718Y-69429333D01*
X35716480Y-69381714D01*
X35526003Y-69381714D01*
X35430765Y-69429333D01*
X35859337Y-70000762D02*
X35764099Y-70048381D01*
X35526003Y-70048381D01*
X35430765Y-70000762D01*
X35383146Y-69905524D01*
X35383146Y-69810286D01*
X35430765Y-69715048D01*
X35526003Y-69667429D01*
X35764099Y-69667429D01*
X35859337Y-69619810D01*
X36335527Y-70048381D02*
X36335527Y-69381714D01*
X36335527Y-69572190D02*
X36383146Y-69476952D01*
X36430765Y-69429333D01*
X36526003Y-69381714D01*
X36621242Y-69381714D01*
X37383147Y-70048381D02*
X37383147Y-69048381D01*
X37383147Y-70000762D02*
X37287909Y-70048381D01*
X37097432Y-70048381D01*
X37002194Y-70000762D01*
X36954575Y-69953143D01*
X36906956Y-69857905D01*
X36906956Y-69572190D01*
X36954575Y-69476952D01*
X37002194Y-69429333D01*
X37097432Y-69381714D01*
X37287909Y-69381714D01*
X37383147Y-69429333D01*
X38526004Y-69381714D02*
X38764099Y-70048381D01*
X39002195Y-69381714D01*
X39573623Y-69048381D02*
X39668862Y-69048381D01*
X39764100Y-69096000D01*
X39811719Y-69143619D01*
X39859338Y-69238857D01*
X39906957Y-69429333D01*
X39906957Y-69667429D01*
X39859338Y-69857905D01*
X39811719Y-69953143D01*
X39764100Y-70000762D01*
X39668862Y-70048381D01*
X39573623Y-70048381D01*
X39478385Y-70000762D01*
X39430766Y-69953143D01*
X39383147Y-69857905D01*
X39335528Y-69667429D01*
X39335528Y-69429333D01*
X39383147Y-69238857D01*
X39430766Y-69143619D01*
X39478385Y-69096000D01*
X39573623Y-69048381D01*
X40335528Y-69953143D02*
X40383147Y-70000762D01*
X40335528Y-70048381D01*
X40287909Y-70000762D01*
X40335528Y-69953143D01*
X40335528Y-70048381D01*
X41335528Y-70048381D02*
X40764099Y-70048381D01*
X41049813Y-70048381D02*
X41049813Y-69048381D01*
X40954575Y-69191238D01*
X40859337Y-69286476D01*
X40764099Y-69334095D01*
D10*
X95364476Y-24060143D02*
X95974000Y-24060143D01*
X95669238Y-24364905D02*
X95669238Y-23755381D01*
X96774000Y-24364905D02*
X96316857Y-24364905D01*
X96545428Y-24364905D02*
X96545428Y-23564905D01*
X96469238Y-23679190D01*
X96393047Y-23755381D01*
X96316857Y-23793476D01*
X97078762Y-23641095D02*
X97116857Y-23603000D01*
X97193048Y-23564905D01*
X97383524Y-23564905D01*
X97459714Y-23603000D01*
X97497810Y-23641095D01*
X97535905Y-23717286D01*
X97535905Y-23793476D01*
X97497810Y-23907762D01*
X97040667Y-24364905D01*
X97535905Y-24364905D01*
X97764476Y-23564905D02*
X98031143Y-24364905D01*
X98297810Y-23564905D01*
X90665429Y-24060143D02*
X91274953Y-24060143D01*
X90970191Y-24364905D02*
X90970191Y-23755381D01*
X92036858Y-23564905D02*
X91655905Y-23564905D01*
X91617810Y-23945857D01*
X91655905Y-23907762D01*
X91732096Y-23869667D01*
X91922572Y-23869667D01*
X91998762Y-23907762D01*
X92036858Y-23945857D01*
X92074953Y-24022048D01*
X92074953Y-24212524D01*
X92036858Y-24288714D01*
X91998762Y-24326810D01*
X91922572Y-24364905D01*
X91732096Y-24364905D01*
X91655905Y-24326810D01*
X91617810Y-24288714D01*
X92303524Y-23564905D02*
X92570191Y-24364905D01*
X92836858Y-23564905D01*
X86823524Y-23603000D02*
X86747333Y-23564905D01*
X86633048Y-23564905D01*
X86518762Y-23603000D01*
X86442571Y-23679190D01*
X86404476Y-23755381D01*
X86366381Y-23907762D01*
X86366381Y-24022048D01*
X86404476Y-24174429D01*
X86442571Y-24250619D01*
X86518762Y-24326810D01*
X86633048Y-24364905D01*
X86709238Y-24364905D01*
X86823524Y-24326810D01*
X86861619Y-24288714D01*
X86861619Y-24022048D01*
X86709238Y-24022048D01*
X54080000Y-58113000D02*
X57680000Y-58113000D01*
X57680000Y-54663000D02*
X54080000Y-54663000D01*
X86274000Y-57794000D02*
X86274000Y-49794000D01*
X81874000Y-49794000D02*
X81874000Y-57894000D01*
X22045000Y-44345000D02*
X22045000Y-40745000D01*
X18595000Y-40745000D02*
X18595000Y-44345000D01*
X93905000Y-51545000D02*
X93905000Y-59445000D01*
X87705000Y-51545000D02*
X87705000Y-59445000D01*
X51435000Y-62484000D02*
X51435000Y-64516000D01*
X51562000Y-64897000D02*
X51562000Y-62103000D01*
X51689000Y-61849000D02*
X51689000Y-65151000D01*
X51816000Y-65405000D02*
X51816000Y-61595000D01*
X51943000Y-65532000D02*
X51943000Y-61468000D01*
X52070000Y-61214000D02*
X52070000Y-65786000D01*
X51054000Y-59309000D02*
X51054000Y-67691000D01*
X51054000Y-67691000D02*
X58674000Y-67691000D01*
X58674000Y-67691000D02*
X59436000Y-66929000D01*
X59436000Y-66929000D02*
X59436000Y-60071000D01*
X59436000Y-60071000D02*
X58674000Y-59309000D01*
X58674000Y-59309000D02*
X51054000Y-59309000D01*
X58928000Y-63500000D02*
X58166000Y-63500000D01*
X58547000Y-63119000D02*
X58547000Y-63881000D01*
X59182000Y-63500000D02*
G75*
G03X59182000Y-63500000I-3937000J0D01*
G01*
X66085000Y-62520000D02*
X65685000Y-62520000D01*
X62185000Y-62520000D02*
X62585000Y-62520000D01*
X62185000Y-67020000D02*
X62585000Y-67020000D01*
X66085000Y-67020000D02*
X65685000Y-67020000D01*
X62185000Y-63420000D02*
X62585000Y-63420000D01*
X62585000Y-63420000D02*
X62585000Y-63570000D01*
X62585000Y-63570000D02*
X62185000Y-63570000D01*
X66085000Y-63420000D02*
X65685000Y-63420000D01*
X65685000Y-63420000D02*
X65685000Y-63570000D01*
X65685000Y-63570000D02*
X66085000Y-63570000D01*
X66085000Y-62520000D02*
X66085000Y-67020000D01*
X62185000Y-67020000D02*
X62185000Y-62520000D01*
X91960000Y-35230000D02*
X91960000Y-37930000D01*
X93460000Y-35230000D02*
X93460000Y-37930000D01*
X92560000Y-36730000D02*
X92810000Y-36730000D01*
X92810000Y-36730000D02*
X92660000Y-36580000D01*
X93060000Y-36480000D02*
X92360000Y-36480000D01*
X92710000Y-36830000D02*
X92710000Y-37180000D01*
X92710000Y-36480000D02*
X93060000Y-36830000D01*
X93060000Y-36830000D02*
X92360000Y-36830000D01*
X92360000Y-36830000D02*
X92710000Y-36480000D01*
X96405000Y-35230000D02*
X96405000Y-37930000D01*
X97905000Y-35230000D02*
X97905000Y-37930000D01*
X97005000Y-36730000D02*
X97255000Y-36730000D01*
X97255000Y-36730000D02*
X97105000Y-36580000D01*
X97505000Y-36480000D02*
X96805000Y-36480000D01*
X97155000Y-36830000D02*
X97155000Y-37180000D01*
X97155000Y-36480000D02*
X97505000Y-36830000D01*
X97505000Y-36830000D02*
X96805000Y-36830000D01*
X96805000Y-36830000D02*
X97155000Y-36480000D01*
X80137000Y-15367000D02*
X80137000Y-24003000D01*
X80137000Y-24003000D02*
X48133000Y-24003000D01*
X48133000Y-15367000D02*
X80137000Y-15367000D01*
X55245000Y-23241000D02*
X55245000Y-16129000D01*
X73025000Y-23241000D02*
X73025000Y-16129000D01*
X61595000Y-24003000D02*
X61595000Y-23241000D01*
X61595000Y-23241000D02*
X55245000Y-23241000D01*
X55245000Y-16129000D02*
X73025000Y-16129000D01*
X73025000Y-23241000D02*
X66675000Y-23241000D01*
X66675000Y-23241000D02*
X66675000Y-24003000D01*
X48133000Y-24003000D02*
X48133000Y-15367000D01*
X57531000Y-20955000D02*
X56261000Y-20193000D01*
X56261000Y-20193000D02*
X56261000Y-21717000D01*
X56261000Y-21717000D02*
X57531000Y-20955000D01*
X42799000Y-24257000D02*
X40259000Y-24257000D01*
X45619000Y-24537000D02*
X44069000Y-24537000D01*
X42799000Y-24257000D02*
X42799000Y-21717000D01*
X44069000Y-21437000D02*
X45619000Y-21437000D01*
X45619000Y-21437000D02*
X45619000Y-24537000D01*
X42799000Y-21717000D02*
X40259000Y-21717000D01*
X40259000Y-21717000D02*
X40259000Y-24257000D01*
X87509509Y-63500000D02*
G75*
G03X87509509Y-63500000I-4959509J0D01*
G01*
X89281000Y-65151000D02*
X85217000Y-67691000D01*
X89281000Y-61849000D02*
X85217000Y-59309000D01*
X89281000Y-61849000D02*
X89281000Y-65151000D01*
X75819000Y-65151000D02*
X79883000Y-67691000D01*
X75819000Y-61849000D02*
X75819000Y-65151000D01*
X75819000Y-61849000D02*
X79883000Y-59309000D01*
X29692000Y-20731000D02*
X31242000Y-20731000D01*
X29692000Y-19431000D02*
X29692000Y-20731000D01*
X31115000Y-15240000D02*
X31115000Y-9398000D01*
X31115000Y-9398000D02*
X31369000Y-9398000D01*
X31369000Y-9398000D02*
X31369000Y-15240000D01*
X31369000Y-15240000D02*
X31242000Y-15240000D01*
X31242000Y-15240000D02*
X31242000Y-9398000D01*
X30988000Y-17907000D02*
X30988000Y-18288000D01*
X31496000Y-17907000D02*
X31496000Y-18288000D01*
X33528000Y-17907000D02*
X33528000Y-18288000D01*
X34036000Y-17907000D02*
X34036000Y-18288000D01*
X36068000Y-17907000D02*
X36068000Y-18288000D01*
X36576000Y-17907000D02*
X36576000Y-18288000D01*
X44196000Y-17907000D02*
X44196000Y-18288000D01*
X43688000Y-17907000D02*
X43688000Y-18288000D01*
X41656000Y-17907000D02*
X41656000Y-18288000D01*
X41148000Y-17907000D02*
X41148000Y-18288000D01*
X39116000Y-17907000D02*
X39116000Y-18288000D01*
X38608000Y-17907000D02*
X38608000Y-18288000D01*
X29972000Y-17907000D02*
X29972000Y-15367000D01*
X32512000Y-17907000D02*
X32512000Y-15367000D01*
X32512000Y-17907000D02*
X35052000Y-17907000D01*
X35052000Y-17907000D02*
X35052000Y-15367000D01*
X33528000Y-15367000D02*
X33528000Y-9271000D01*
X33528000Y-9271000D02*
X34036000Y-9271000D01*
X34036000Y-9271000D02*
X34036000Y-15367000D01*
X35052000Y-15367000D02*
X32512000Y-15367000D01*
X32512000Y-15367000D02*
X29972000Y-15367000D01*
X31496000Y-9271000D02*
X31496000Y-15367000D01*
X30988000Y-9271000D02*
X31496000Y-9271000D01*
X30988000Y-15367000D02*
X30988000Y-9271000D01*
X32512000Y-17907000D02*
X32512000Y-15367000D01*
X29972000Y-17907000D02*
X32512000Y-17907000D01*
X40132000Y-17907000D02*
X40132000Y-15367000D01*
X40132000Y-17907000D02*
X42672000Y-17907000D01*
X42672000Y-17907000D02*
X42672000Y-15367000D01*
X41148000Y-15367000D02*
X41148000Y-9271000D01*
X41148000Y-9271000D02*
X41656000Y-9271000D01*
X41656000Y-9271000D02*
X41656000Y-15367000D01*
X42672000Y-15367000D02*
X40132000Y-15367000D01*
X45212000Y-15367000D02*
X42672000Y-15367000D01*
X44196000Y-9271000D02*
X44196000Y-15367000D01*
X43688000Y-9271000D02*
X44196000Y-9271000D01*
X43688000Y-15367000D02*
X43688000Y-9271000D01*
X45212000Y-17907000D02*
X45212000Y-15367000D01*
X42672000Y-17907000D02*
X45212000Y-17907000D01*
X42672000Y-17907000D02*
X42672000Y-15367000D01*
X37592000Y-17907000D02*
X37592000Y-15367000D01*
X37592000Y-17907000D02*
X40132000Y-17907000D01*
X40132000Y-17907000D02*
X40132000Y-15367000D01*
X38608000Y-15367000D02*
X38608000Y-9271000D01*
X38608000Y-9271000D02*
X39116000Y-9271000D01*
X39116000Y-9271000D02*
X39116000Y-15367000D01*
X40132000Y-15367000D02*
X37592000Y-15367000D01*
X37592000Y-15367000D02*
X35052000Y-15367000D01*
X36576000Y-9271000D02*
X36576000Y-15367000D01*
X36068000Y-9271000D02*
X36576000Y-9271000D01*
X36068000Y-15367000D02*
X36068000Y-9271000D01*
X37592000Y-17907000D02*
X37592000Y-15367000D01*
X35052000Y-17907000D02*
X37592000Y-17907000D01*
X35052000Y-17907000D02*
X35052000Y-15367000D01*
X85648800Y-31546800D02*
X90728800Y-31546800D01*
X82828800Y-31826800D02*
X82828800Y-30276800D01*
X83108800Y-29006800D02*
X85648800Y-29006800D01*
X85648800Y-29006800D02*
X85648800Y-31546800D01*
X90728800Y-31546800D02*
X90728800Y-26466800D01*
X90728800Y-26466800D02*
X85648800Y-26466800D01*
X82828800Y-31826800D02*
X84378800Y-31826800D01*
X83108800Y-26466800D02*
X83108800Y-29006800D01*
X85648800Y-26466800D02*
X83108800Y-26466800D01*
D12*
X25590000Y-16320000D02*
X17590000Y-16320000D01*
X17590000Y-16320000D02*
X17590000Y-24320000D01*
X17590000Y-24320000D02*
X25590000Y-24320000D01*
X25590000Y-24320000D02*
X25590000Y-16320000D01*
D10*
X93785000Y-40275000D02*
X93785000Y-42275000D01*
X91635000Y-42275000D02*
X91635000Y-40275000D01*
X98230000Y-40275000D02*
X98230000Y-42275000D01*
X96080000Y-42275000D02*
X96080000Y-40275000D01*
X57420000Y-24452000D02*
X59420000Y-24452000D01*
X59420000Y-26602000D02*
X57420000Y-26602000D01*
X52848000Y-24452000D02*
X54848000Y-24452000D01*
X54848000Y-26602000D02*
X52848000Y-26602000D01*
X64563000Y-53788000D02*
X64563000Y-58988000D01*
X60913000Y-58988000D02*
X60913000Y-53788000D01*
X80502000Y-51621000D02*
X78502000Y-51621000D01*
X78502000Y-49471000D02*
X80502000Y-49471000D01*
X46169000Y-42529000D02*
X46169000Y-40529000D01*
X48319000Y-40529000D02*
X48319000Y-42529000D01*
X51367000Y-40529000D02*
X51367000Y-42529000D01*
X49217000Y-42529000D02*
X49217000Y-40529000D01*
X31861000Y-43620000D02*
X29861000Y-43620000D01*
X29861000Y-41470000D02*
X31861000Y-41470000D01*
X34383400Y-40090600D02*
X34383400Y-38090600D01*
X36533400Y-38090600D02*
X36533400Y-40090600D01*
X27670000Y-43620000D02*
X25670000Y-43620000D01*
X25670000Y-41470000D02*
X27670000Y-41470000D01*
X44872400Y-54144600D02*
X46872400Y-54144600D01*
X46872400Y-56294600D02*
X44872400Y-56294600D01*
X46821600Y-53602200D02*
X44821600Y-53602200D01*
X44821600Y-51452200D02*
X46821600Y-51452200D01*
X44618400Y-63466400D02*
X46618400Y-63466400D01*
X46618400Y-65616400D02*
X44618400Y-65616400D01*
X43315200Y-54753000D02*
X43315200Y-56753000D01*
X41165200Y-56753000D02*
X41165200Y-54753000D01*
X30421000Y-28940000D02*
X30421000Y-26940000D01*
X32571000Y-26940000D02*
X32571000Y-28940000D01*
D13*
X40342820Y-26464260D02*
X40342820Y-32463740D01*
X40342820Y-32463740D02*
X34841180Y-32463740D01*
X34841180Y-32463740D02*
X34841180Y-26464260D01*
X34841180Y-26464260D02*
X40342820Y-26464260D01*
D14*
X39590980Y-29464000D02*
G75*
G03X39590980Y-29464000I-1998980J0D01*
G01*
D10*
X22326600Y-56607400D02*
X22326600Y-49107400D01*
X37566600Y-56607400D02*
X37566600Y-49107400D01*
X22326600Y-56607400D02*
X37566600Y-56607400D01*
X37566600Y-53492400D02*
X36296600Y-53492400D01*
X36296600Y-53492400D02*
X36296600Y-52222400D01*
X36296600Y-52222400D02*
X37566600Y-52222400D01*
X37566600Y-49107400D02*
X22326600Y-49107400D01*
X70909000Y-60487000D02*
X70909000Y-60342000D01*
X66759000Y-60487000D02*
X66759000Y-60342000D01*
X66759000Y-55337000D02*
X66759000Y-55482000D01*
X70909000Y-55337000D02*
X70909000Y-55482000D01*
X70909000Y-60487000D02*
X66759000Y-60487000D01*
X70909000Y-55337000D02*
X66759000Y-55337000D01*
X70909000Y-60342000D02*
X72309000Y-60342000D01*
X71077000Y-49241000D02*
X71077000Y-49386000D01*
X75227000Y-49241000D02*
X75227000Y-49386000D01*
X75227000Y-54391000D02*
X75227000Y-54246000D01*
X71077000Y-54391000D02*
X71077000Y-54246000D01*
X71077000Y-49241000D02*
X75227000Y-49241000D01*
X71077000Y-54391000D02*
X75227000Y-54391000D01*
X71077000Y-49386000D02*
X69677000Y-49386000D01*
D15*
X68732400Y-39827200D02*
X61112400Y-39827200D01*
X61112400Y-39827200D02*
X61112400Y-45415200D01*
X68732400Y-45415200D02*
X61112400Y-45415200D01*
X68732400Y-39827200D02*
X68732400Y-45415200D01*
X69240400Y-40081200D02*
X68732400Y-40081200D01*
X68732400Y-40081200D02*
X68732400Y-45161200D01*
X69240400Y-45161200D02*
X68732400Y-45161200D01*
X69240400Y-40081200D02*
X69240400Y-45161200D01*
X69748400Y-40335200D02*
X69240400Y-40335200D01*
X69240400Y-40335200D02*
X69240400Y-44907200D01*
X69748400Y-44907200D02*
X69240400Y-44907200D01*
X69748400Y-40335200D02*
X69748400Y-44907200D01*
X70256400Y-40843200D02*
X69748400Y-40843200D01*
X69748400Y-40843200D02*
X69748400Y-44399200D01*
X70256400Y-44399200D02*
X69748400Y-44399200D01*
X70256400Y-40843200D02*
X70256400Y-44399200D01*
X70510400Y-41351200D02*
X70256400Y-41351200D01*
X70256400Y-41351200D02*
X70256400Y-43637200D01*
X70510400Y-43637200D02*
X70256400Y-43637200D01*
X70510400Y-41351200D02*
X70510400Y-43637200D01*
X61112400Y-40081200D02*
X60604400Y-40081200D01*
X60604400Y-40081200D02*
X60604400Y-45161200D01*
X61112400Y-45161200D02*
X60604400Y-45161200D01*
X61112400Y-40081200D02*
X61112400Y-45161200D01*
X60604400Y-40335200D02*
X60096400Y-40335200D01*
X60096400Y-40335200D02*
X60096400Y-44907200D01*
X60604400Y-44907200D02*
X60096400Y-44907200D01*
X60604400Y-40335200D02*
X60604400Y-44907200D01*
X60096400Y-40843200D02*
X59588400Y-40843200D01*
X59588400Y-40843200D02*
X59588400Y-44399200D01*
X60096400Y-44399200D02*
X59588400Y-44399200D01*
X60096400Y-40843200D02*
X60096400Y-44399200D01*
X59588400Y-41605200D02*
X59334400Y-41605200D01*
X59334400Y-41605200D02*
X59334400Y-43637200D01*
X59588400Y-43637200D02*
X59334400Y-43637200D01*
X59588400Y-41605200D02*
X59588400Y-43637200D01*
D16*
X67843400Y-40335200D02*
X62001400Y-40335200D01*
X67843400Y-44907200D02*
X62001400Y-44907200D01*
D17*
X67843400Y-40843200D02*
X62001400Y-40843200D01*
X62001400Y-44399200D02*
X67843400Y-44399200D01*
X65176400Y-43510200D02*
X64668400Y-43510200D01*
X64668400Y-43510200D02*
X64668400Y-41732200D01*
X64668400Y-41732200D02*
X65176400Y-41732200D01*
X65176400Y-41732200D02*
X65176400Y-43510200D01*
X64287400Y-43510200D02*
X64287400Y-42621200D01*
X64287400Y-42621200D02*
X64287400Y-41732200D01*
X65557400Y-43510200D02*
X65557400Y-42621200D01*
X65557400Y-42621200D02*
X65557400Y-41732200D01*
X64287400Y-42621200D02*
X63652400Y-42621200D01*
X65557400Y-42621200D02*
X66192400Y-42621200D01*
X62001400Y-40843200D02*
G75*
G03X62001400Y-44399200I0J-1778000D01*
G01*
D16*
X62001400Y-40335200D02*
G75*
G03X62001400Y-44907200I0J-2286000D01*
G01*
X67843400Y-44907200D02*
G75*
G03X67843400Y-40335200I0J2286000D01*
G01*
D17*
X67843400Y-44399200D02*
G75*
G03X67843400Y-40843200I0J1778000D01*
G01*
D10*
X99314000Y-15494000D02*
X99314000Y-23114000D01*
X84074000Y-15494000D02*
X84074000Y-23114000D01*
X99314000Y-16764000D02*
X84074000Y-16764000D01*
X99314000Y-23114000D02*
X84074000Y-23114000D01*
X99314000Y-15494000D02*
X84074000Y-15494000D01*
X46759821Y-58944000D02*
G75*
G03X46759821Y-58944000I-141421J0D01*
G01*
X47118400Y-61444000D02*
X44118400Y-61444000D01*
X44118400Y-61444000D02*
X44118400Y-58444000D01*
X44118400Y-58444000D02*
X47118400Y-58444000D01*
X47118400Y-58444000D02*
X47118400Y-61444000D01*
X23876000Y-33528000D02*
X23876000Y-38608000D01*
X23876000Y-38608000D02*
X34036000Y-38608000D01*
X34036000Y-38608000D02*
X34036000Y-33528000D01*
X34036000Y-33528000D02*
X23876000Y-33528000D01*
X23876000Y-34798000D02*
X25146000Y-34798000D01*
X25146000Y-34798000D02*
X25146000Y-37338000D01*
X25146000Y-37338000D02*
X23876000Y-37338000D01*
X88188800Y-39243000D02*
X90728800Y-39243000D01*
X85368800Y-38963000D02*
X86918800Y-38963000D01*
X88188800Y-39243000D02*
X88188800Y-41783000D01*
X86918800Y-42063000D02*
X85368800Y-42063000D01*
X85368800Y-42063000D02*
X85368800Y-38963000D01*
X88188800Y-41783000D02*
X90728800Y-41783000D01*
X90728800Y-41783000D02*
X90728800Y-39243000D01*
X87807800Y-34010600D02*
X82727800Y-34010600D01*
X82727800Y-34010600D02*
X82727800Y-36550600D01*
X82727800Y-36550600D02*
X87807800Y-36550600D01*
X90627800Y-36830600D02*
X89077800Y-36830600D01*
X87807800Y-36550600D02*
X87807800Y-34010600D01*
X89077800Y-33730600D02*
X90627800Y-33730600D01*
X90627800Y-33730600D02*
X90627800Y-36830600D01*
X72966000Y-42224200D02*
X72966000Y-40224200D01*
X75116000Y-40224200D02*
X75116000Y-42224200D01*
X37100000Y-34358000D02*
X39100000Y-34358000D01*
X39100000Y-36508000D02*
X37100000Y-36508000D01*
X41520000Y-36695000D02*
X42790000Y-36695000D01*
X41520000Y-29345000D02*
X42790000Y-29345000D01*
X79130000Y-29345000D02*
X77860000Y-29345000D01*
X79130000Y-36695000D02*
X77860000Y-36695000D01*
X41520000Y-36695000D02*
X41520000Y-29345000D01*
X79130000Y-36695000D02*
X79130000Y-29345000D01*
X42790000Y-36695000D02*
X42790000Y-37980000D01*
X32521000Y-24241000D02*
X32521000Y-22241000D01*
X30471000Y-22241000D02*
X30471000Y-24241000D01*
X65015000Y-51324000D02*
X65015000Y-53324000D01*
X67065000Y-53324000D02*
X67065000Y-51324000D01*
X76724000Y-49031000D02*
X78724000Y-49031000D01*
X78724000Y-46981000D02*
X76724000Y-46981000D01*
X59064000Y-42656000D02*
X59064000Y-40656000D01*
X57014000Y-40656000D02*
X57014000Y-42656000D01*
X72729200Y-42224200D02*
X72729200Y-40224200D01*
X70679200Y-40224200D02*
X70679200Y-42224200D01*
X56905000Y-42656000D02*
X56905000Y-40656000D01*
X54855000Y-40656000D02*
X54855000Y-42656000D01*
X77461000Y-54118000D02*
X77461000Y-56118000D01*
X79511000Y-56118000D02*
X79511000Y-54118000D01*
X33061400Y-47303800D02*
X35061400Y-47303800D01*
X35061400Y-45253800D02*
X33061400Y-45253800D01*
X73644000Y-48827000D02*
X71644000Y-48827000D01*
X71644000Y-46677000D02*
X73644000Y-46677000D01*
X65786000Y-67945000D02*
X67691000Y-67945000D01*
X70231000Y-67945000D02*
X69469000Y-67945000D01*
X72644000Y-67945000D02*
X72771000Y-67945000D01*
X72644000Y-67945000D02*
X72009000Y-67945000D01*
X76454000Y-67945000D02*
X74676000Y-67945000D01*
X76454000Y-64262000D02*
X74803000Y-64262000D01*
X72136000Y-64135000D02*
X72771000Y-64135000D01*
X69596000Y-64135000D02*
X70231000Y-64135000D01*
X65786000Y-64262000D02*
X67437000Y-64262000D01*
X72644000Y-69088000D02*
X72644000Y-67945000D01*
X69596000Y-69088000D02*
X69596000Y-67945000D01*
X65786000Y-67945000D02*
X65786000Y-64262000D01*
X76454000Y-64262000D02*
X76454000Y-67945000D01*
X65786000Y-69088000D02*
X65786000Y-67945000D01*
X76454000Y-67945000D02*
X76454000Y-69088000D01*
X71120000Y-69088000D02*
X76454000Y-69088000D01*
X71120000Y-69088000D02*
X65786000Y-69088000D01*
X99314000Y-45085000D02*
X97409000Y-45085000D01*
X94869000Y-45085000D02*
X95631000Y-45085000D01*
X92456000Y-45085000D02*
X92329000Y-45085000D01*
X92456000Y-45085000D02*
X93091000Y-45085000D01*
X88646000Y-45085000D02*
X90424000Y-45085000D01*
X88646000Y-48768000D02*
X90297000Y-48768000D01*
X92964000Y-48895000D02*
X92329000Y-48895000D01*
X95504000Y-48895000D02*
X94869000Y-48895000D01*
X99314000Y-48768000D02*
X97663000Y-48768000D01*
X92456000Y-43942000D02*
X92456000Y-45085000D01*
X95504000Y-43942000D02*
X95504000Y-45085000D01*
X99314000Y-45085000D02*
X99314000Y-48768000D01*
X88646000Y-48768000D02*
X88646000Y-45085000D01*
X99314000Y-43942000D02*
X99314000Y-45085000D01*
X88646000Y-45085000D02*
X88646000Y-43942000D01*
X93980000Y-43942000D02*
X88646000Y-43942000D01*
X93980000Y-43942000D02*
X99314000Y-43942000D01*
X51674734Y-55348143D02*
X51627115Y-55395762D01*
X51484258Y-55443381D01*
X51389020Y-55443381D01*
X51246162Y-55395762D01*
X51150924Y-55300524D01*
X51103305Y-55205286D01*
X51055686Y-55014810D01*
X51055686Y-54871952D01*
X51103305Y-54681476D01*
X51150924Y-54586238D01*
X51246162Y-54491000D01*
X51389020Y-54443381D01*
X51484258Y-54443381D01*
X51627115Y-54491000D01*
X51674734Y-54538619D01*
X52150924Y-55443381D02*
X52341400Y-55443381D01*
X52436639Y-55395762D01*
X52484258Y-55348143D01*
X52579496Y-55205286D01*
X52627115Y-55014810D01*
X52627115Y-54633857D01*
X52579496Y-54538619D01*
X52531877Y-54491000D01*
X52436639Y-54443381D01*
X52246162Y-54443381D01*
X52150924Y-54491000D01*
X52103305Y-54538619D01*
X52055686Y-54633857D01*
X52055686Y-54871952D01*
X52103305Y-54967190D01*
X52150924Y-55014810D01*
X52246162Y-55062429D01*
X52436639Y-55062429D01*
X52531877Y-55014810D01*
X52579496Y-54967190D01*
X52627115Y-54871952D01*
X85177334Y-48744143D02*
X85129715Y-48791762D01*
X84986858Y-48839381D01*
X84891620Y-48839381D01*
X84748762Y-48791762D01*
X84653524Y-48696524D01*
X84605905Y-48601286D01*
X84558286Y-48410810D01*
X84558286Y-48267952D01*
X84605905Y-48077476D01*
X84653524Y-47982238D01*
X84748762Y-47887000D01*
X84891620Y-47839381D01*
X84986858Y-47839381D01*
X85129715Y-47887000D01*
X85177334Y-47934619D01*
X86129715Y-48839381D02*
X85558286Y-48839381D01*
X85844000Y-48839381D02*
X85844000Y-47839381D01*
X85748762Y-47982238D01*
X85653524Y-48077476D01*
X85558286Y-48125095D01*
X23677143Y-42711666D02*
X23724762Y-42759285D01*
X23772381Y-42902142D01*
X23772381Y-42997380D01*
X23724762Y-43140238D01*
X23629524Y-43235476D01*
X23534286Y-43283095D01*
X23343810Y-43330714D01*
X23200952Y-43330714D01*
X23010476Y-43283095D01*
X22915238Y-43235476D01*
X22820000Y-43140238D01*
X22772381Y-42997380D01*
X22772381Y-42902142D01*
X22820000Y-42759285D01*
X22867619Y-42711666D01*
X23105714Y-41854523D02*
X23772381Y-41854523D01*
X22724762Y-42092619D02*
X23439048Y-42330714D01*
X23439048Y-41711666D01*
X90638334Y-60682143D02*
X90590715Y-60729762D01*
X90447858Y-60777381D01*
X90352620Y-60777381D01*
X90209762Y-60729762D01*
X90114524Y-60634524D01*
X90066905Y-60539286D01*
X90019286Y-60348810D01*
X90019286Y-60205952D01*
X90066905Y-60015476D01*
X90114524Y-59920238D01*
X90209762Y-59825000D01*
X90352620Y-59777381D01*
X90447858Y-59777381D01*
X90590715Y-59825000D01*
X90638334Y-59872619D01*
X91495477Y-59777381D02*
X91305000Y-59777381D01*
X91209762Y-59825000D01*
X91162143Y-59872619D01*
X91066905Y-60015476D01*
X91019286Y-60205952D01*
X91019286Y-60586905D01*
X91066905Y-60682143D01*
X91114524Y-60729762D01*
X91209762Y-60777381D01*
X91400239Y-60777381D01*
X91495477Y-60729762D01*
X91543096Y-60682143D01*
X91590715Y-60586905D01*
X91590715Y-60348810D01*
X91543096Y-60253571D01*
X91495477Y-60205952D01*
X91400239Y-60158333D01*
X91209762Y-60158333D01*
X91114524Y-60205952D01*
X91066905Y-60253571D01*
X91019286Y-60348810D01*
X51725534Y-68937143D02*
X51677915Y-68984762D01*
X51535058Y-69032381D01*
X51439820Y-69032381D01*
X51296962Y-68984762D01*
X51201724Y-68889524D01*
X51154105Y-68794286D01*
X51106486Y-68603810D01*
X51106486Y-68460952D01*
X51154105Y-68270476D01*
X51201724Y-68175238D01*
X51296962Y-68080000D01*
X51439820Y-68032381D01*
X51535058Y-68032381D01*
X51677915Y-68080000D01*
X51725534Y-68127619D01*
X52058867Y-68032381D02*
X52725534Y-68032381D01*
X52296962Y-69032381D01*
X64460381Y-69572095D02*
X63460381Y-69572095D01*
X63460381Y-69334000D01*
X63508000Y-69191142D01*
X63603238Y-69095904D01*
X63698476Y-69048285D01*
X63888952Y-69000666D01*
X64031810Y-69000666D01*
X64222286Y-69048285D01*
X64317524Y-69095904D01*
X64412762Y-69191142D01*
X64460381Y-69334000D01*
X64460381Y-69572095D01*
X64460381Y-68048285D02*
X64460381Y-68619714D01*
X64460381Y-68334000D02*
X63460381Y-68334000D01*
X63603238Y-68429238D01*
X63698476Y-68524476D01*
X63746095Y-68619714D01*
X94912381Y-37949047D02*
X94912381Y-38425238D01*
X93912381Y-38425238D01*
X94388571Y-37615714D02*
X94388571Y-37282380D01*
X94912381Y-37139523D02*
X94912381Y-37615714D01*
X93912381Y-37615714D01*
X93912381Y-37139523D01*
X94912381Y-36710952D02*
X93912381Y-36710952D01*
X93912381Y-36472857D01*
X93960000Y-36329999D01*
X94055238Y-36234761D01*
X94150476Y-36187142D01*
X94340952Y-36139523D01*
X94483810Y-36139523D01*
X94674286Y-36187142D01*
X94769524Y-36234761D01*
X94864762Y-36329999D01*
X94912381Y-36472857D01*
X94912381Y-36710952D01*
X94912381Y-35187142D02*
X94912381Y-35758571D01*
X94912381Y-35472857D02*
X93912381Y-35472857D01*
X94055238Y-35568095D01*
X94150476Y-35663333D01*
X94198095Y-35758571D01*
X91424286Y-34361429D02*
X92186191Y-34361429D01*
X91805239Y-34742381D02*
X91805239Y-33980476D01*
X93138572Y-33742381D02*
X92662381Y-33742381D01*
X92614762Y-34218571D01*
X92662381Y-34170952D01*
X92757619Y-34123333D01*
X92995715Y-34123333D01*
X93090953Y-34170952D01*
X93138572Y-34218571D01*
X93186191Y-34313810D01*
X93186191Y-34551905D01*
X93138572Y-34647143D01*
X93090953Y-34694762D01*
X92995715Y-34742381D01*
X92757619Y-34742381D01*
X92662381Y-34694762D01*
X92614762Y-34647143D01*
X93471905Y-33742381D02*
X93805238Y-34742381D01*
X94138572Y-33742381D01*
X99357381Y-37949047D02*
X99357381Y-38425238D01*
X98357381Y-38425238D01*
X98833571Y-37615714D02*
X98833571Y-37282380D01*
X99357381Y-37139523D02*
X99357381Y-37615714D01*
X98357381Y-37615714D01*
X98357381Y-37139523D01*
X99357381Y-36710952D02*
X98357381Y-36710952D01*
X98357381Y-36472857D01*
X98405000Y-36329999D01*
X98500238Y-36234761D01*
X98595476Y-36187142D01*
X98785952Y-36139523D01*
X98928810Y-36139523D01*
X99119286Y-36187142D01*
X99214524Y-36234761D01*
X99309762Y-36329999D01*
X99357381Y-36472857D01*
X99357381Y-36710952D01*
X98452619Y-35758571D02*
X98405000Y-35710952D01*
X98357381Y-35615714D01*
X98357381Y-35377618D01*
X98405000Y-35282380D01*
X98452619Y-35234761D01*
X98547857Y-35187142D01*
X98643095Y-35187142D01*
X98785952Y-35234761D01*
X99357381Y-35806190D01*
X99357381Y-35187142D01*
X95393095Y-34361429D02*
X96155000Y-34361429D01*
X95774048Y-34742381D02*
X95774048Y-33980476D01*
X97155000Y-34742381D02*
X96583571Y-34742381D01*
X96869285Y-34742381D02*
X96869285Y-33742381D01*
X96774047Y-33885238D01*
X96678809Y-33980476D01*
X96583571Y-34028095D01*
X97535952Y-33837619D02*
X97583571Y-33790000D01*
X97678809Y-33742381D01*
X97916905Y-33742381D01*
X98012143Y-33790000D01*
X98059762Y-33837619D01*
X98107381Y-33932857D01*
X98107381Y-34028095D01*
X98059762Y-34170952D01*
X97488333Y-34742381D01*
X98107381Y-34742381D01*
X98393095Y-33742381D02*
X98726428Y-34742381D01*
X99059762Y-33742381D01*
X46847167Y-16089381D02*
X46847167Y-16803667D01*
X46799547Y-16946524D01*
X46704309Y-17041762D01*
X46561452Y-17089381D01*
X46466214Y-17089381D01*
X47275738Y-16184619D02*
X47323357Y-16137000D01*
X47418595Y-16089381D01*
X47656691Y-16089381D01*
X47751929Y-16137000D01*
X47799548Y-16184619D01*
X47847167Y-16279857D01*
X47847167Y-16375095D01*
X47799548Y-16517952D01*
X47228119Y-17089381D01*
X47847167Y-17089381D01*
X61531905Y-25122143D02*
X61484286Y-25169762D01*
X61341429Y-25217381D01*
X61246191Y-25217381D01*
X61103333Y-25169762D01*
X61008095Y-25074524D01*
X60960476Y-24979286D01*
X60912857Y-24788810D01*
X60912857Y-24645952D01*
X60960476Y-24455476D01*
X61008095Y-24360238D01*
X61103333Y-24265000D01*
X61246191Y-24217381D01*
X61341429Y-24217381D01*
X61484286Y-24265000D01*
X61531905Y-24312619D01*
X62150952Y-24217381D02*
X62341429Y-24217381D01*
X62436667Y-24265000D01*
X62531905Y-24360238D01*
X62579524Y-24550714D01*
X62579524Y-24884048D01*
X62531905Y-25074524D01*
X62436667Y-25169762D01*
X62341429Y-25217381D01*
X62150952Y-25217381D01*
X62055714Y-25169762D01*
X61960476Y-25074524D01*
X61912857Y-24884048D01*
X61912857Y-24550714D01*
X61960476Y-24360238D01*
X62055714Y-24265000D01*
X62150952Y-24217381D01*
X63008095Y-25217381D02*
X63008095Y-24217381D01*
X63341429Y-24931667D01*
X63674762Y-24217381D01*
X63674762Y-25217381D01*
X64150952Y-25217381D02*
X64150952Y-24217381D01*
X64484286Y-24931667D01*
X64817619Y-24217381D01*
X64817619Y-25217381D01*
X65055714Y-25312619D02*
X65817619Y-25312619D01*
X66389048Y-24693571D02*
X66531905Y-24741190D01*
X66579524Y-24788810D01*
X66627143Y-24884048D01*
X66627143Y-25026905D01*
X66579524Y-25122143D01*
X66531905Y-25169762D01*
X66436667Y-25217381D01*
X66055714Y-25217381D01*
X66055714Y-24217381D01*
X66389048Y-24217381D01*
X66484286Y-24265000D01*
X66531905Y-24312619D01*
X66579524Y-24407857D01*
X66579524Y-24503095D01*
X66531905Y-24598333D01*
X66484286Y-24645952D01*
X66389048Y-24693571D01*
X66055714Y-24693571D01*
X67055714Y-24217381D02*
X67055714Y-25026905D01*
X67103333Y-25122143D01*
X67150952Y-25169762D01*
X67246190Y-25217381D01*
X67436667Y-25217381D01*
X67531905Y-25169762D01*
X67579524Y-25122143D01*
X67627143Y-25026905D01*
X67627143Y-24217381D01*
X68055714Y-25169762D02*
X68198571Y-25217381D01*
X68436667Y-25217381D01*
X68531905Y-25169762D01*
X68579524Y-25122143D01*
X68627143Y-25026905D01*
X68627143Y-24931667D01*
X68579524Y-24836429D01*
X68531905Y-24788810D01*
X68436667Y-24741190D01*
X68246190Y-24693571D01*
X68150952Y-24645952D01*
X68103333Y-24598333D01*
X68055714Y-24503095D01*
X68055714Y-24407857D01*
X68103333Y-24312619D01*
X68150952Y-24265000D01*
X68246190Y-24217381D01*
X68484286Y-24217381D01*
X68627143Y-24265000D01*
X39012881Y-24518833D02*
X39727167Y-24518833D01*
X39870024Y-24566453D01*
X39965262Y-24661691D01*
X40012881Y-24804548D01*
X40012881Y-24899786D01*
X40012881Y-24042643D02*
X39012881Y-24042643D01*
X39012881Y-23661690D01*
X39060500Y-23566452D01*
X39108119Y-23518833D01*
X39203357Y-23471214D01*
X39346214Y-23471214D01*
X39441452Y-23518833D01*
X39489071Y-23566452D01*
X39536690Y-23661690D01*
X39536690Y-24042643D01*
X40012881Y-22518833D02*
X40012881Y-23090262D01*
X40012881Y-22804548D02*
X39012881Y-22804548D01*
X39155738Y-22899786D01*
X39250976Y-22995024D01*
X39298595Y-23090262D01*
X40981714Y-24661881D02*
X40981714Y-25471405D01*
X41029333Y-25566643D01*
X41076952Y-25614262D01*
X41172190Y-25661881D01*
X41362667Y-25661881D01*
X41457905Y-25614262D01*
X41505524Y-25566643D01*
X41553143Y-25471405D01*
X41553143Y-24661881D01*
X41981714Y-25614262D02*
X42124571Y-25661881D01*
X42362667Y-25661881D01*
X42457905Y-25614262D01*
X42505524Y-25566643D01*
X42553143Y-25471405D01*
X42553143Y-25376167D01*
X42505524Y-25280929D01*
X42457905Y-25233310D01*
X42362667Y-25185690D01*
X42172190Y-25138071D01*
X42076952Y-25090452D01*
X42029333Y-25042833D01*
X41981714Y-24947595D01*
X41981714Y-24852357D01*
X42029333Y-24757119D01*
X42076952Y-24709500D01*
X42172190Y-24661881D01*
X42410286Y-24661881D01*
X42553143Y-24709500D01*
X43315048Y-25138071D02*
X43457905Y-25185690D01*
X43505524Y-25233310D01*
X43553143Y-25328548D01*
X43553143Y-25471405D01*
X43505524Y-25566643D01*
X43457905Y-25614262D01*
X43362667Y-25661881D01*
X42981714Y-25661881D01*
X42981714Y-24661881D01*
X43315048Y-24661881D01*
X43410286Y-24709500D01*
X43457905Y-24757119D01*
X43505524Y-24852357D01*
X43505524Y-24947595D01*
X43457905Y-25042833D01*
X43410286Y-25090452D01*
X43315048Y-25138071D01*
X42981714Y-25138071D01*
X43743619Y-25757119D02*
X44505524Y-25757119D01*
X44743619Y-25661881D02*
X44743619Y-24661881D01*
X45124572Y-24661881D01*
X45219810Y-24709500D01*
X45267429Y-24757119D01*
X45315048Y-24852357D01*
X45315048Y-24995214D01*
X45267429Y-25090452D01*
X45219810Y-25138071D01*
X45124572Y-25185690D01*
X44743619Y-25185690D01*
X45648381Y-24661881D02*
X45886476Y-25661881D01*
X46076953Y-24947595D01*
X46267429Y-25661881D01*
X46505524Y-24661881D01*
X47457905Y-25661881D02*
X47124571Y-25185690D01*
X46886476Y-25661881D02*
X46886476Y-24661881D01*
X47267429Y-24661881D01*
X47362667Y-24709500D01*
X47410286Y-24757119D01*
X47457905Y-24852357D01*
X47457905Y-24995214D01*
X47410286Y-25090452D01*
X47362667Y-25138071D01*
X47267429Y-25185690D01*
X46886476Y-25185690D01*
X78547934Y-68651381D02*
X78071743Y-68651381D01*
X78071743Y-67651381D01*
X79405077Y-68651381D02*
X78833648Y-68651381D01*
X79119362Y-68651381D02*
X79119362Y-67651381D01*
X79024124Y-67794238D01*
X78928886Y-67889476D01*
X78833648Y-67937095D01*
X28090905Y-16708381D02*
X28090905Y-15708381D01*
X28471858Y-15708381D01*
X28567096Y-15756000D01*
X28614715Y-15803619D01*
X28662334Y-15898857D01*
X28662334Y-16041714D01*
X28614715Y-16136952D01*
X28567096Y-16184571D01*
X28471858Y-16232190D01*
X28090905Y-16232190D01*
X29614715Y-16708381D02*
X29043286Y-16708381D01*
X29329000Y-16708381D02*
X29329000Y-15708381D01*
X29233762Y-15851238D01*
X29138524Y-15946476D01*
X29043286Y-15994095D01*
X33210858Y-21518571D02*
X32877524Y-21518571D01*
X32877524Y-22042381D02*
X32877524Y-21042381D01*
X33353715Y-21042381D01*
X33591810Y-21042381D02*
X34163239Y-21042381D01*
X33877524Y-22042381D02*
X33877524Y-21042381D01*
X34496572Y-22042381D02*
X34496572Y-21042381D01*
X34734667Y-21042381D01*
X34877525Y-21090000D01*
X34972763Y-21185238D01*
X35020382Y-21280476D01*
X35068001Y-21470952D01*
X35068001Y-21613810D01*
X35020382Y-21804286D01*
X34972763Y-21899524D01*
X34877525Y-21994762D01*
X34734667Y-22042381D01*
X34496572Y-22042381D01*
X35496572Y-22042381D02*
X35496572Y-21042381D01*
X35734667Y-22137619D02*
X36496572Y-22137619D01*
X36734667Y-21042381D02*
X36734667Y-21851905D01*
X36782286Y-21947143D01*
X36829905Y-21994762D01*
X36925143Y-22042381D01*
X37115620Y-22042381D01*
X37210858Y-21994762D01*
X37258477Y-21947143D01*
X37306096Y-21851905D01*
X37306096Y-21042381D01*
X37734667Y-21994762D02*
X37877524Y-22042381D01*
X38115620Y-22042381D01*
X38210858Y-21994762D01*
X38258477Y-21947143D01*
X38306096Y-21851905D01*
X38306096Y-21756667D01*
X38258477Y-21661429D01*
X38210858Y-21613810D01*
X38115620Y-21566190D01*
X37925143Y-21518571D01*
X37829905Y-21470952D01*
X37782286Y-21423333D01*
X37734667Y-21328095D01*
X37734667Y-21232857D01*
X37782286Y-21137619D01*
X37829905Y-21090000D01*
X37925143Y-21042381D01*
X38163239Y-21042381D01*
X38306096Y-21090000D01*
X39068001Y-21518571D02*
X39210858Y-21566190D01*
X39258477Y-21613810D01*
X39306096Y-21709048D01*
X39306096Y-21851905D01*
X39258477Y-21947143D01*
X39210858Y-21994762D01*
X39115620Y-22042381D01*
X38734667Y-22042381D01*
X38734667Y-21042381D01*
X39068001Y-21042381D01*
X39163239Y-21090000D01*
X39210858Y-21137619D01*
X39258477Y-21232857D01*
X39258477Y-21328095D01*
X39210858Y-21423333D01*
X39163239Y-21470952D01*
X39068001Y-21518571D01*
X38734667Y-21518571D01*
X82646781Y-28170095D02*
X81646781Y-28170095D01*
X81646781Y-27789142D01*
X81694400Y-27693904D01*
X81742019Y-27646285D01*
X81837257Y-27598666D01*
X81980114Y-27598666D01*
X82075352Y-27646285D01*
X82122971Y-27693904D01*
X82170590Y-27789142D01*
X82170590Y-28170095D01*
X81742019Y-27217714D02*
X81694400Y-27170095D01*
X81646781Y-27074857D01*
X81646781Y-26836761D01*
X81694400Y-26741523D01*
X81742019Y-26693904D01*
X81837257Y-26646285D01*
X81932495Y-26646285D01*
X82075352Y-26693904D01*
X82646781Y-27265333D01*
X82646781Y-26646285D01*
X82291181Y-31252990D02*
X81291181Y-31252990D01*
X82243562Y-30824419D02*
X82291181Y-30681562D01*
X82291181Y-30443466D01*
X82243562Y-30348228D01*
X82195943Y-30300609D01*
X82100705Y-30252990D01*
X82005467Y-30252990D01*
X81910229Y-30300609D01*
X81862610Y-30348228D01*
X81814990Y-30443466D01*
X81767371Y-30633943D01*
X81719752Y-30729181D01*
X81672133Y-30776800D01*
X81576895Y-30824419D01*
X81481657Y-30824419D01*
X81386419Y-30776800D01*
X81338800Y-30729181D01*
X81291181Y-30633943D01*
X81291181Y-30395847D01*
X81338800Y-30252990D01*
X82291181Y-29824419D02*
X81291181Y-29824419D01*
X81291181Y-29443466D01*
X81338800Y-29348228D01*
X81386419Y-29300609D01*
X81481657Y-29252990D01*
X81624514Y-29252990D01*
X81719752Y-29300609D01*
X81767371Y-29348228D01*
X81814990Y-29443466D01*
X81814990Y-29824419D01*
D13*
X26047096Y-18938119D02*
X26047096Y-17922119D01*
X26434143Y-17922119D01*
X26530905Y-17970500D01*
X26579286Y-18018881D01*
X26627667Y-18115643D01*
X26627667Y-18260786D01*
X26579286Y-18357548D01*
X26530905Y-18405929D01*
X26434143Y-18454310D01*
X26047096Y-18454310D01*
X27498524Y-18260786D02*
X27498524Y-18938119D01*
X27256620Y-17873738D02*
X27014715Y-18599452D01*
X27643667Y-18599452D01*
X19799905Y-24963619D02*
X20138572Y-25979619D01*
X20477238Y-24963619D01*
X21009429Y-24963619D02*
X21202952Y-24963619D01*
X21299714Y-25012000D01*
X21396476Y-25108762D01*
X21444857Y-25302286D01*
X21444857Y-25640952D01*
X21396476Y-25834476D01*
X21299714Y-25931238D01*
X21202952Y-25979619D01*
X21009429Y-25979619D01*
X20912667Y-25931238D01*
X20815905Y-25834476D01*
X20767524Y-25640952D01*
X20767524Y-25302286D01*
X20815905Y-25108762D01*
X20912667Y-25012000D01*
X21009429Y-24963619D01*
X21880286Y-24963619D02*
X21880286Y-25786095D01*
X21928667Y-25882857D01*
X21977048Y-25931238D01*
X22073810Y-25979619D01*
X22267333Y-25979619D01*
X22364095Y-25931238D01*
X22412476Y-25882857D01*
X22460857Y-25786095D01*
X22460857Y-24963619D01*
X22799524Y-24963619D02*
X23380095Y-24963619D01*
X23089810Y-25979619D02*
X23089810Y-24963619D01*
D10*
X92543334Y-44902381D02*
X92210000Y-44426190D01*
X91971905Y-44902381D02*
X91971905Y-43902381D01*
X92352858Y-43902381D01*
X92448096Y-43950000D01*
X92495715Y-43997619D01*
X92543334Y-44092857D01*
X92543334Y-44235714D01*
X92495715Y-44330952D01*
X92448096Y-44378571D01*
X92352858Y-44426190D01*
X91971905Y-44426190D01*
X93495715Y-44902381D02*
X92924286Y-44902381D01*
X93210000Y-44902381D02*
X93210000Y-43902381D01*
X93114762Y-44045238D01*
X93019524Y-44140476D01*
X92924286Y-44188095D01*
X96988334Y-44902381D02*
X96655000Y-44426190D01*
X96416905Y-44902381D02*
X96416905Y-43902381D01*
X96797858Y-43902381D01*
X96893096Y-43950000D01*
X96940715Y-43997619D01*
X96988334Y-44092857D01*
X96988334Y-44235714D01*
X96940715Y-44330952D01*
X96893096Y-44378571D01*
X96797858Y-44426190D01*
X96416905Y-44426190D01*
X97369286Y-43997619D02*
X97416905Y-43950000D01*
X97512143Y-43902381D01*
X97750239Y-43902381D01*
X97845477Y-43950000D01*
X97893096Y-43997619D01*
X97940715Y-44092857D01*
X97940715Y-44188095D01*
X97893096Y-44330952D01*
X97321667Y-44902381D01*
X97940715Y-44902381D01*
X61423254Y-27315421D02*
X61089920Y-26839230D01*
X60851825Y-27315421D02*
X60851825Y-26315421D01*
X61232778Y-26315421D01*
X61328016Y-26363040D01*
X61375635Y-26410659D01*
X61423254Y-26505897D01*
X61423254Y-26648754D01*
X61375635Y-26743992D01*
X61328016Y-26791611D01*
X61232778Y-26839230D01*
X60851825Y-26839230D01*
X61756587Y-26315421D02*
X62375635Y-26315421D01*
X62042301Y-26696373D01*
X62185159Y-26696373D01*
X62280397Y-26743992D01*
X62328016Y-26791611D01*
X62375635Y-26886850D01*
X62375635Y-27124945D01*
X62328016Y-27220183D01*
X62280397Y-27267802D01*
X62185159Y-27315421D01*
X61899444Y-27315421D01*
X61804206Y-27267802D01*
X61756587Y-27220183D01*
X50379334Y-25852381D02*
X50046000Y-25376190D01*
X49807905Y-25852381D02*
X49807905Y-24852381D01*
X50188858Y-24852381D01*
X50284096Y-24900000D01*
X50331715Y-24947619D01*
X50379334Y-25042857D01*
X50379334Y-25185714D01*
X50331715Y-25280952D01*
X50284096Y-25328571D01*
X50188858Y-25376190D01*
X49807905Y-25376190D01*
X51236477Y-25185714D02*
X51236477Y-25852381D01*
X50998381Y-24804762D02*
X50760286Y-25519048D01*
X51379334Y-25519048D01*
X60090381Y-56554666D02*
X59614190Y-56888000D01*
X60090381Y-57126095D02*
X59090381Y-57126095D01*
X59090381Y-56745142D01*
X59138000Y-56649904D01*
X59185619Y-56602285D01*
X59280857Y-56554666D01*
X59423714Y-56554666D01*
X59518952Y-56602285D01*
X59566571Y-56649904D01*
X59614190Y-56745142D01*
X59614190Y-57126095D01*
X59090381Y-55649904D02*
X59090381Y-56126095D01*
X59566571Y-56173714D01*
X59518952Y-56126095D01*
X59471333Y-56030857D01*
X59471333Y-55792761D01*
X59518952Y-55697523D01*
X59566571Y-55649904D01*
X59661810Y-55602285D01*
X59899905Y-55602285D01*
X59995143Y-55649904D01*
X60042762Y-55697523D01*
X60090381Y-55792761D01*
X60090381Y-56030857D01*
X60042762Y-56126095D01*
X59995143Y-56173714D01*
X80224334Y-52903381D02*
X79891000Y-52427190D01*
X79652905Y-52903381D02*
X79652905Y-51903381D01*
X80033858Y-51903381D01*
X80129096Y-51951000D01*
X80176715Y-51998619D01*
X80224334Y-52093857D01*
X80224334Y-52236714D01*
X80176715Y-52331952D01*
X80129096Y-52379571D01*
X80033858Y-52427190D01*
X79652905Y-52427190D01*
X80557667Y-51903381D02*
X81224334Y-51903381D01*
X80795762Y-52903381D01*
X47077334Y-44902381D02*
X46744000Y-44426190D01*
X46505905Y-44902381D02*
X46505905Y-43902381D01*
X46886858Y-43902381D01*
X46982096Y-43950000D01*
X47029715Y-43997619D01*
X47077334Y-44092857D01*
X47077334Y-44235714D01*
X47029715Y-44330952D01*
X46982096Y-44378571D01*
X46886858Y-44426190D01*
X46505905Y-44426190D01*
X47648762Y-44330952D02*
X47553524Y-44283333D01*
X47505905Y-44235714D01*
X47458286Y-44140476D01*
X47458286Y-44092857D01*
X47505905Y-43997619D01*
X47553524Y-43950000D01*
X47648762Y-43902381D01*
X47839239Y-43902381D01*
X47934477Y-43950000D01*
X47982096Y-43997619D01*
X48029715Y-44092857D01*
X48029715Y-44140476D01*
X47982096Y-44235714D01*
X47934477Y-44283333D01*
X47839239Y-44330952D01*
X47648762Y-44330952D01*
X47553524Y-44378571D01*
X47505905Y-44426190D01*
X47458286Y-44521429D01*
X47458286Y-44711905D01*
X47505905Y-44807143D01*
X47553524Y-44854762D01*
X47648762Y-44902381D01*
X47839239Y-44902381D01*
X47934477Y-44854762D01*
X47982096Y-44807143D01*
X48029715Y-44711905D01*
X48029715Y-44521429D01*
X47982096Y-44426190D01*
X47934477Y-44378571D01*
X47839239Y-44330952D01*
X50125334Y-45029381D02*
X49792000Y-44553190D01*
X49553905Y-45029381D02*
X49553905Y-44029381D01*
X49934858Y-44029381D01*
X50030096Y-44077000D01*
X50077715Y-44124619D01*
X50125334Y-44219857D01*
X50125334Y-44362714D01*
X50077715Y-44457952D01*
X50030096Y-44505571D01*
X49934858Y-44553190D01*
X49553905Y-44553190D01*
X50601524Y-45029381D02*
X50792000Y-45029381D01*
X50887239Y-44981762D01*
X50934858Y-44934143D01*
X51030096Y-44791286D01*
X51077715Y-44600810D01*
X51077715Y-44219857D01*
X51030096Y-44124619D01*
X50982477Y-44077000D01*
X50887239Y-44029381D01*
X50696762Y-44029381D01*
X50601524Y-44077000D01*
X50553905Y-44124619D01*
X50506286Y-44219857D01*
X50506286Y-44457952D01*
X50553905Y-44553190D01*
X50601524Y-44600810D01*
X50696762Y-44648429D01*
X50887239Y-44648429D01*
X50982477Y-44600810D01*
X51030096Y-44553190D01*
X51077715Y-44457952D01*
X30319743Y-44876981D02*
X29986409Y-44400790D01*
X29748314Y-44876981D02*
X29748314Y-43876981D01*
X30129267Y-43876981D01*
X30224505Y-43924600D01*
X30272124Y-43972219D01*
X30319743Y-44067457D01*
X30319743Y-44210314D01*
X30272124Y-44305552D01*
X30224505Y-44353171D01*
X30129267Y-44400790D01*
X29748314Y-44400790D01*
X31272124Y-44876981D02*
X30700695Y-44876981D01*
X30986409Y-44876981D02*
X30986409Y-43876981D01*
X30891171Y-44019838D01*
X30795933Y-44115076D01*
X30700695Y-44162695D01*
X31891171Y-43876981D02*
X31986410Y-43876981D01*
X32081648Y-43924600D01*
X32129267Y-43972219D01*
X32176886Y-44067457D01*
X32224505Y-44257933D01*
X32224505Y-44496029D01*
X32176886Y-44686505D01*
X32129267Y-44781743D01*
X32081648Y-44829362D01*
X31986410Y-44876981D01*
X31891171Y-44876981D01*
X31795933Y-44829362D01*
X31748314Y-44781743D01*
X31700695Y-44686505D01*
X31653076Y-44496029D01*
X31653076Y-44257933D01*
X31700695Y-44067457D01*
X31748314Y-43972219D01*
X31795933Y-43924600D01*
X31891171Y-43876981D01*
X34307543Y-36494981D02*
X33974209Y-36018790D01*
X33736114Y-36494981D02*
X33736114Y-35494981D01*
X34117067Y-35494981D01*
X34212305Y-35542600D01*
X34259924Y-35590219D01*
X34307543Y-35685457D01*
X34307543Y-35828314D01*
X34259924Y-35923552D01*
X34212305Y-35971171D01*
X34117067Y-36018790D01*
X33736114Y-36018790D01*
X35259924Y-36494981D02*
X34688495Y-36494981D01*
X34974209Y-36494981D02*
X34974209Y-35494981D01*
X34878971Y-35637838D01*
X34783733Y-35733076D01*
X34688495Y-35780695D01*
X36212305Y-36494981D02*
X35640876Y-36494981D01*
X35926590Y-36494981D02*
X35926590Y-35494981D01*
X35831352Y-35637838D01*
X35736114Y-35733076D01*
X35640876Y-35780695D01*
X26255743Y-44851581D02*
X25922409Y-44375390D01*
X25684314Y-44851581D02*
X25684314Y-43851581D01*
X26065267Y-43851581D01*
X26160505Y-43899200D01*
X26208124Y-43946819D01*
X26255743Y-44042057D01*
X26255743Y-44184914D01*
X26208124Y-44280152D01*
X26160505Y-44327771D01*
X26065267Y-44375390D01*
X25684314Y-44375390D01*
X27208124Y-44851581D02*
X26636695Y-44851581D01*
X26922409Y-44851581D02*
X26922409Y-43851581D01*
X26827171Y-43994438D01*
X26731933Y-44089676D01*
X26636695Y-44137295D01*
X27589076Y-43946819D02*
X27636695Y-43899200D01*
X27731933Y-43851581D01*
X27970029Y-43851581D01*
X28065267Y-43899200D01*
X28112886Y-43946819D01*
X28160505Y-44042057D01*
X28160505Y-44137295D01*
X28112886Y-44280152D01*
X27541457Y-44851581D01*
X28160505Y-44851581D01*
X49052741Y-55857377D02*
X48576550Y-56190711D01*
X49052741Y-56428806D02*
X48052741Y-56428806D01*
X48052741Y-56047853D01*
X48100360Y-55952615D01*
X48147979Y-55904996D01*
X48243217Y-55857377D01*
X48386074Y-55857377D01*
X48481312Y-55904996D01*
X48528931Y-55952615D01*
X48576550Y-56047853D01*
X48576550Y-56428806D01*
X49052741Y-54904996D02*
X49052741Y-55476425D01*
X49052741Y-55190711D02*
X48052741Y-55190711D01*
X48195598Y-55285949D01*
X48290836Y-55381187D01*
X48338455Y-55476425D01*
X48052741Y-54571663D02*
X48052741Y-53952615D01*
X48433693Y-54285949D01*
X48433693Y-54143091D01*
X48481312Y-54047853D01*
X48528931Y-54000234D01*
X48624170Y-53952615D01*
X48862265Y-53952615D01*
X48957503Y-54000234D01*
X49005122Y-54047853D01*
X49052741Y-54143091D01*
X49052741Y-54428806D01*
X49005122Y-54524044D01*
X48957503Y-54571663D01*
X45178743Y-50679581D02*
X44845409Y-50203390D01*
X44607314Y-50679581D02*
X44607314Y-49679581D01*
X44988267Y-49679581D01*
X45083505Y-49727200D01*
X45131124Y-49774819D01*
X45178743Y-49870057D01*
X45178743Y-50012914D01*
X45131124Y-50108152D01*
X45083505Y-50155771D01*
X44988267Y-50203390D01*
X44607314Y-50203390D01*
X46131124Y-50679581D02*
X45559695Y-50679581D01*
X45845409Y-50679581D02*
X45845409Y-49679581D01*
X45750171Y-49822438D01*
X45654933Y-49917676D01*
X45559695Y-49965295D01*
X46988267Y-50012914D02*
X46988267Y-50679581D01*
X46750171Y-49631962D02*
X46512076Y-50346248D01*
X47131124Y-50346248D01*
X44975543Y-67293781D02*
X44642209Y-66817590D01*
X44404114Y-67293781D02*
X44404114Y-66293781D01*
X44785067Y-66293781D01*
X44880305Y-66341400D01*
X44927924Y-66389019D01*
X44975543Y-66484257D01*
X44975543Y-66627114D01*
X44927924Y-66722352D01*
X44880305Y-66769971D01*
X44785067Y-66817590D01*
X44404114Y-66817590D01*
X45927924Y-67293781D02*
X45356495Y-67293781D01*
X45642209Y-67293781D02*
X45642209Y-66293781D01*
X45546971Y-66436638D01*
X45451733Y-66531876D01*
X45356495Y-66579495D01*
X46832686Y-66293781D02*
X46356495Y-66293781D01*
X46308876Y-66769971D01*
X46356495Y-66722352D01*
X46451733Y-66674733D01*
X46689829Y-66674733D01*
X46785067Y-66722352D01*
X46832686Y-66769971D01*
X46880305Y-66865210D01*
X46880305Y-67103305D01*
X46832686Y-67198543D01*
X46785067Y-67246162D01*
X46689829Y-67293781D01*
X46451733Y-67293781D01*
X46356495Y-67246162D01*
X46308876Y-67198543D01*
X40392581Y-56395857D02*
X39916390Y-56729191D01*
X40392581Y-56967286D02*
X39392581Y-56967286D01*
X39392581Y-56586333D01*
X39440200Y-56491095D01*
X39487819Y-56443476D01*
X39583057Y-56395857D01*
X39725914Y-56395857D01*
X39821152Y-56443476D01*
X39868771Y-56491095D01*
X39916390Y-56586333D01*
X39916390Y-56967286D01*
X40392581Y-55443476D02*
X40392581Y-56014905D01*
X40392581Y-55729191D02*
X39392581Y-55729191D01*
X39535438Y-55824429D01*
X39630676Y-55919667D01*
X39678295Y-56014905D01*
X39392581Y-54586333D02*
X39392581Y-54776810D01*
X39440200Y-54872048D01*
X39487819Y-54919667D01*
X39630676Y-55014905D01*
X39821152Y-55062524D01*
X40202105Y-55062524D01*
X40297343Y-55014905D01*
X40344962Y-54967286D01*
X40392581Y-54872048D01*
X40392581Y-54681571D01*
X40344962Y-54586333D01*
X40297343Y-54538714D01*
X40202105Y-54491095D01*
X39964010Y-54491095D01*
X39868771Y-54538714D01*
X39821152Y-54586333D01*
X39773533Y-54681571D01*
X39773533Y-54872048D01*
X39821152Y-54967286D01*
X39868771Y-55014905D01*
X39964010Y-55062524D01*
X29979881Y-28519357D02*
X29503690Y-28852691D01*
X29979881Y-29090786D02*
X28979881Y-29090786D01*
X28979881Y-28709833D01*
X29027500Y-28614595D01*
X29075119Y-28566976D01*
X29170357Y-28519357D01*
X29313214Y-28519357D01*
X29408452Y-28566976D01*
X29456071Y-28614595D01*
X29503690Y-28709833D01*
X29503690Y-29090786D01*
X29979881Y-27566976D02*
X29979881Y-28138405D01*
X29979881Y-27852691D02*
X28979881Y-27852691D01*
X29122738Y-27947929D01*
X29217976Y-28043167D01*
X29265595Y-28138405D01*
X28979881Y-27233643D02*
X28979881Y-26566976D01*
X29979881Y-26995548D01*
D18*
X36186534Y-26090638D02*
X36331677Y-26139019D01*
X36573581Y-26139019D01*
X36670343Y-26090638D01*
X36718724Y-26042257D01*
X36767105Y-25945495D01*
X36767105Y-25848733D01*
X36718724Y-25751971D01*
X36670343Y-25703590D01*
X36573581Y-25655210D01*
X36380058Y-25606829D01*
X36283296Y-25558448D01*
X36234915Y-25510067D01*
X36186534Y-25413305D01*
X36186534Y-25316543D01*
X36234915Y-25219781D01*
X36283296Y-25171400D01*
X36380058Y-25123019D01*
X36621962Y-25123019D01*
X36767105Y-25171400D01*
X37105772Y-25123019D02*
X37347677Y-26139019D01*
X37541200Y-25413305D01*
X37734724Y-26139019D01*
X37976629Y-25123019D01*
X38895867Y-26139019D02*
X38315296Y-26139019D01*
X38605582Y-26139019D02*
X38605582Y-25123019D01*
X38508820Y-25268162D01*
X38412058Y-25364924D01*
X38315296Y-25413305D01*
X34343219Y-30304619D02*
X33859410Y-30643285D01*
X34343219Y-30885190D02*
X33327219Y-30885190D01*
X33327219Y-30498143D01*
X33375600Y-30401381D01*
X33423981Y-30353000D01*
X33520743Y-30304619D01*
X33665886Y-30304619D01*
X33762648Y-30353000D01*
X33811029Y-30401381D01*
X33859410Y-30498143D01*
X33859410Y-30885190D01*
X33811029Y-29869190D02*
X33811029Y-29530524D01*
X34343219Y-29385381D02*
X34343219Y-29869190D01*
X33327219Y-29869190D01*
X33327219Y-29385381D01*
X34294838Y-28998333D02*
X34343219Y-28853190D01*
X34343219Y-28611286D01*
X34294838Y-28514524D01*
X34246457Y-28466143D01*
X34149695Y-28417762D01*
X34052933Y-28417762D01*
X33956171Y-28466143D01*
X33907790Y-28514524D01*
X33859410Y-28611286D01*
X33811029Y-28804809D01*
X33762648Y-28901571D01*
X33714267Y-28949952D01*
X33617505Y-28998333D01*
X33520743Y-28998333D01*
X33423981Y-28949952D01*
X33375600Y-28901571D01*
X33327219Y-28804809D01*
X33327219Y-28562905D01*
X33375600Y-28417762D01*
X33811029Y-27982333D02*
X33811029Y-27643667D01*
X34343219Y-27498524D02*
X34343219Y-27982333D01*
X33327219Y-27982333D01*
X33327219Y-27498524D01*
X33327219Y-27208238D02*
X33327219Y-26627667D01*
X34343219Y-26917952D02*
X33327219Y-26917952D01*
D10*
X29184695Y-53833781D02*
X29184695Y-54643305D01*
X29232314Y-54738543D01*
X29279933Y-54786162D01*
X29375171Y-54833781D01*
X29565648Y-54833781D01*
X29660886Y-54786162D01*
X29708505Y-54738543D01*
X29756124Y-54643305D01*
X29756124Y-53833781D01*
X30756124Y-54833781D02*
X30184695Y-54833781D01*
X30470409Y-54833781D02*
X30470409Y-53833781D01*
X30375171Y-53976638D01*
X30279933Y-54071876D01*
X30184695Y-54119495D01*
X65608295Y-60666381D02*
X65608295Y-61475905D01*
X65655914Y-61571143D01*
X65703533Y-61618762D01*
X65798771Y-61666381D01*
X65989248Y-61666381D01*
X66084486Y-61618762D01*
X66132105Y-61571143D01*
X66179724Y-61475905D01*
X66179724Y-60666381D01*
X66608295Y-60761619D02*
X66655914Y-60714000D01*
X66751152Y-60666381D01*
X66989248Y-60666381D01*
X67084486Y-60714000D01*
X67132105Y-60761619D01*
X67179724Y-60856857D01*
X67179724Y-60952095D01*
X67132105Y-61094952D01*
X66560676Y-61666381D01*
X67179724Y-61666381D01*
X69138895Y-54392581D02*
X69138895Y-55202105D01*
X69186514Y-55297343D01*
X69234133Y-55344962D01*
X69329371Y-55392581D01*
X69519848Y-55392581D01*
X69615086Y-55344962D01*
X69662705Y-55297343D01*
X69710324Y-55202105D01*
X69710324Y-54392581D01*
X70091276Y-54392581D02*
X70710324Y-54392581D01*
X70376990Y-54773533D01*
X70519848Y-54773533D01*
X70615086Y-54821152D01*
X70662705Y-54868771D01*
X70710324Y-54964010D01*
X70710324Y-55202105D01*
X70662705Y-55297343D01*
X70615086Y-55344962D01*
X70519848Y-55392581D01*
X70234133Y-55392581D01*
X70138895Y-55344962D01*
X70091276Y-55297343D01*
D19*
X67704305Y-45735724D02*
X68550971Y-47005724D01*
X68550971Y-45735724D02*
X67704305Y-47005724D01*
X69700019Y-47005724D02*
X68974305Y-47005724D01*
X69337162Y-47005724D02*
X69337162Y-45735724D01*
X69216210Y-45917152D01*
X69095257Y-46038105D01*
X68974305Y-46098581D01*
X64045495Y-39639724D02*
X63319781Y-39639724D01*
X63682638Y-39639724D02*
X63682638Y-38369724D01*
X63561686Y-38551152D01*
X63440733Y-38672105D01*
X63319781Y-38732581D01*
X65134067Y-38369724D02*
X64892162Y-38369724D01*
X64771210Y-38430200D01*
X64710733Y-38490676D01*
X64589781Y-38672105D01*
X64529305Y-38914010D01*
X64529305Y-39397819D01*
X64589781Y-39518771D01*
X64650257Y-39579248D01*
X64771210Y-39639724D01*
X65013114Y-39639724D01*
X65134067Y-39579248D01*
X65194543Y-39518771D01*
X65255019Y-39397819D01*
X65255019Y-39095438D01*
X65194543Y-38974486D01*
X65134067Y-38914010D01*
X65013114Y-38853533D01*
X64771210Y-38853533D01*
X64650257Y-38914010D01*
X64589781Y-38974486D01*
X64529305Y-39095438D01*
X65799305Y-39639724D02*
X65799305Y-38369724D01*
X66222638Y-39276867D01*
X66645972Y-38369724D01*
X66645972Y-39639724D01*
X67250734Y-39639724D02*
X67250734Y-38369724D01*
X67250734Y-38974486D02*
X67976448Y-38974486D01*
X67976448Y-39639724D02*
X67976448Y-38369724D01*
X68460258Y-38793057D02*
X69125496Y-38793057D01*
X68460258Y-39639724D01*
X69125496Y-39639724D01*
D10*
X82319905Y-16708381D02*
X82319905Y-15708381D01*
X82700858Y-15708381D01*
X82796096Y-15756000D01*
X82843715Y-15803619D01*
X82891334Y-15898857D01*
X82891334Y-16041714D01*
X82843715Y-16136952D01*
X82796096Y-16184571D01*
X82700858Y-16232190D01*
X82319905Y-16232190D01*
X83224667Y-15708381D02*
X83843715Y-15708381D01*
X83510381Y-16089333D01*
X83653239Y-16089333D01*
X83748477Y-16136952D01*
X83796096Y-16184571D01*
X83843715Y-16279810D01*
X83843715Y-16517905D01*
X83796096Y-16613143D01*
X83748477Y-16660762D01*
X83653239Y-16708381D01*
X83367524Y-16708381D01*
X83272286Y-16660762D01*
X83224667Y-16613143D01*
X83510381Y-22375524D02*
X82510381Y-22375524D01*
X82510381Y-21994571D01*
X82558000Y-21899333D01*
X82605619Y-21851714D01*
X82700857Y-21804095D01*
X82843714Y-21804095D01*
X82938952Y-21851714D01*
X82986571Y-21899333D01*
X83034190Y-21994571D01*
X83034190Y-22375524D01*
X82510381Y-21185048D02*
X82510381Y-20994571D01*
X82558000Y-20899333D01*
X82653238Y-20804095D01*
X82843714Y-20756476D01*
X83177048Y-20756476D01*
X83367524Y-20804095D01*
X83462762Y-20899333D01*
X83510381Y-20994571D01*
X83510381Y-21185048D01*
X83462762Y-21280286D01*
X83367524Y-21375524D01*
X83177048Y-21423143D01*
X82843714Y-21423143D01*
X82653238Y-21375524D01*
X82558000Y-21280286D01*
X82510381Y-21185048D01*
X82510381Y-20423143D02*
X83510381Y-20185048D01*
X82796095Y-19994571D01*
X83510381Y-19804095D01*
X82510381Y-19566000D01*
X82986571Y-19185048D02*
X82986571Y-18851714D01*
X83510381Y-18708857D02*
X83510381Y-19185048D01*
X82510381Y-19185048D01*
X82510381Y-18708857D01*
X83510381Y-17708857D02*
X83034190Y-18042191D01*
X83510381Y-18280286D02*
X82510381Y-18280286D01*
X82510381Y-17899333D01*
X82558000Y-17804095D01*
X82605619Y-17756476D01*
X82700857Y-17708857D01*
X82843714Y-17708857D01*
X82938952Y-17756476D01*
X82986571Y-17804095D01*
X83034190Y-17899333D01*
X83034190Y-18280286D01*
D20*
X45389829Y-59279714D02*
X45389829Y-59522571D01*
X45404114Y-59551143D01*
X45418400Y-59565429D01*
X45446971Y-59579714D01*
X45504114Y-59579714D01*
X45532686Y-59565429D01*
X45546971Y-59551143D01*
X45561257Y-59522571D01*
X45561257Y-59279714D01*
X45832686Y-59379714D02*
X45832686Y-59579714D01*
X45761257Y-59265429D02*
X45689829Y-59479714D01*
X45875543Y-59479714D01*
D10*
X28575095Y-34377381D02*
X28575095Y-35186905D01*
X28622714Y-35282143D01*
X28670333Y-35329762D01*
X28765571Y-35377381D01*
X28956048Y-35377381D01*
X29051286Y-35329762D01*
X29098905Y-35282143D01*
X29146524Y-35186905D01*
X29146524Y-34377381D01*
X30098905Y-34377381D02*
X29622714Y-34377381D01*
X29575095Y-34853571D01*
X29622714Y-34805952D01*
X29717952Y-34758333D01*
X29956048Y-34758333D01*
X30051286Y-34805952D01*
X30098905Y-34853571D01*
X30146524Y-34948810D01*
X30146524Y-35186905D01*
X30098905Y-35282143D01*
X30051286Y-35329762D01*
X29956048Y-35377381D01*
X29717952Y-35377381D01*
X29622714Y-35329762D01*
X29575095Y-35282143D01*
X84831181Y-41251095D02*
X83831181Y-41251095D01*
X83831181Y-40870142D01*
X83878800Y-40774904D01*
X83926419Y-40727285D01*
X84021657Y-40679666D01*
X84164514Y-40679666D01*
X84259752Y-40727285D01*
X84307371Y-40774904D01*
X84354990Y-40870142D01*
X84354990Y-41251095D01*
X83831181Y-39774904D02*
X83831181Y-40251095D01*
X84307371Y-40298714D01*
X84259752Y-40251095D01*
X84212133Y-40155857D01*
X84212133Y-39917761D01*
X84259752Y-39822523D01*
X84307371Y-39774904D01*
X84402610Y-39727285D01*
X84640705Y-39727285D01*
X84735943Y-39774904D01*
X84783562Y-39822523D01*
X84831181Y-39917761D01*
X84831181Y-40155857D01*
X84783562Y-40251095D01*
X84735943Y-40298714D01*
X87388867Y-43403781D02*
X86912676Y-43403781D01*
X86912676Y-42403781D01*
X87722200Y-43403781D02*
X87722200Y-42403781D01*
X88722200Y-42451400D02*
X88626962Y-42403781D01*
X88484105Y-42403781D01*
X88341247Y-42451400D01*
X88246009Y-42546638D01*
X88198390Y-42641876D01*
X88150771Y-42832352D01*
X88150771Y-42975210D01*
X88198390Y-43165686D01*
X88246009Y-43260924D01*
X88341247Y-43356162D01*
X88484105Y-43403781D01*
X88579343Y-43403781D01*
X88722200Y-43356162D01*
X88769819Y-43308543D01*
X88769819Y-42975210D01*
X88579343Y-42975210D01*
X89198390Y-43403781D02*
X89198390Y-42403781D01*
X89198390Y-42879971D02*
X89769819Y-42879971D01*
X89769819Y-43403781D02*
X89769819Y-42403781D01*
X90103152Y-42403781D02*
X90674581Y-42403781D01*
X90388866Y-43403781D02*
X90388866Y-42403781D01*
X82392781Y-36044095D02*
X81392781Y-36044095D01*
X81392781Y-35663142D01*
X81440400Y-35567904D01*
X81488019Y-35520285D01*
X81583257Y-35472666D01*
X81726114Y-35472666D01*
X81821352Y-35520285D01*
X81868971Y-35567904D01*
X81916590Y-35663142D01*
X81916590Y-36044095D01*
X81392781Y-34615523D02*
X81392781Y-34806000D01*
X81440400Y-34901238D01*
X81488019Y-34948857D01*
X81630876Y-35044095D01*
X81821352Y-35091714D01*
X82202305Y-35091714D01*
X82297543Y-35044095D01*
X82345162Y-34996476D01*
X82392781Y-34901238D01*
X82392781Y-34710761D01*
X82345162Y-34615523D01*
X82297543Y-34567904D01*
X82202305Y-34520285D01*
X81964210Y-34520285D01*
X81868971Y-34567904D01*
X81821352Y-34615523D01*
X81773733Y-34710761D01*
X81773733Y-34901238D01*
X81821352Y-34996476D01*
X81868971Y-35044095D01*
X81964210Y-35091714D01*
X82648752Y-38272981D02*
X82648752Y-37272981D01*
X82982086Y-37987267D01*
X83315419Y-37272981D01*
X83315419Y-38272981D01*
X83743990Y-37987267D02*
X84220181Y-37987267D01*
X83648752Y-38272981D02*
X83982085Y-37272981D01*
X84315419Y-38272981D01*
X85172562Y-37320600D02*
X85077324Y-37272981D01*
X84934467Y-37272981D01*
X84791609Y-37320600D01*
X84696371Y-37415838D01*
X84648752Y-37511076D01*
X84601133Y-37701552D01*
X84601133Y-37844410D01*
X84648752Y-38034886D01*
X84696371Y-38130124D01*
X84791609Y-38225362D01*
X84934467Y-38272981D01*
X85029705Y-38272981D01*
X85172562Y-38225362D01*
X85220181Y-38177743D01*
X85220181Y-37844410D01*
X85029705Y-37844410D01*
X85648752Y-38272981D02*
X85648752Y-37272981D01*
X86220181Y-38272981D01*
X86220181Y-37272981D01*
X86696371Y-37749171D02*
X87029705Y-37749171D01*
X87172562Y-38272981D02*
X86696371Y-38272981D01*
X86696371Y-37272981D01*
X87172562Y-37272981D01*
X87458276Y-37272981D02*
X88029705Y-37272981D01*
X87743990Y-38272981D02*
X87743990Y-37272981D01*
X74493381Y-45677057D02*
X74017190Y-46010391D01*
X74493381Y-46248486D02*
X73493381Y-46248486D01*
X73493381Y-45867533D01*
X73541000Y-45772295D01*
X73588619Y-45724676D01*
X73683857Y-45677057D01*
X73826714Y-45677057D01*
X73921952Y-45724676D01*
X73969571Y-45772295D01*
X74017190Y-45867533D01*
X74017190Y-46248486D01*
X74493381Y-44724676D02*
X74493381Y-45296105D01*
X74493381Y-45010391D02*
X73493381Y-45010391D01*
X73636238Y-45105629D01*
X73731476Y-45200867D01*
X73779095Y-45296105D01*
X74493381Y-44248486D02*
X74493381Y-44058010D01*
X74445762Y-43962771D01*
X74398143Y-43915152D01*
X74255286Y-43819914D01*
X74064810Y-43772295D01*
X73683857Y-43772295D01*
X73588619Y-43819914D01*
X73541000Y-43867533D01*
X73493381Y-43962771D01*
X73493381Y-44153248D01*
X73541000Y-44248486D01*
X73588619Y-44296105D01*
X73683857Y-44343724D01*
X73921952Y-44343724D01*
X74017190Y-44296105D01*
X74064810Y-44248486D01*
X74112429Y-44153248D01*
X74112429Y-43962771D01*
X74064810Y-43867533D01*
X74017190Y-43819914D01*
X73921952Y-43772295D01*
X37457143Y-38185381D02*
X37123809Y-37709190D01*
X36885714Y-38185381D02*
X36885714Y-37185381D01*
X37266667Y-37185381D01*
X37361905Y-37233000D01*
X37409524Y-37280619D01*
X37457143Y-37375857D01*
X37457143Y-37518714D01*
X37409524Y-37613952D01*
X37361905Y-37661571D01*
X37266667Y-37709190D01*
X36885714Y-37709190D01*
X37838095Y-37280619D02*
X37885714Y-37233000D01*
X37980952Y-37185381D01*
X38219048Y-37185381D01*
X38314286Y-37233000D01*
X38361905Y-37280619D01*
X38409524Y-37375857D01*
X38409524Y-37471095D01*
X38361905Y-37613952D01*
X37790476Y-38185381D01*
X38409524Y-38185381D01*
X39028571Y-37185381D02*
X39123810Y-37185381D01*
X39219048Y-37233000D01*
X39266667Y-37280619D01*
X39314286Y-37375857D01*
X39361905Y-37566333D01*
X39361905Y-37804429D01*
X39314286Y-37994905D01*
X39266667Y-38090143D01*
X39219048Y-38137762D01*
X39123810Y-38185381D01*
X39028571Y-38185381D01*
X38933333Y-38137762D01*
X38885714Y-38090143D01*
X38838095Y-37994905D01*
X38790476Y-37804429D01*
X38790476Y-37566333D01*
X38838095Y-37375857D01*
X38885714Y-37280619D01*
X38933333Y-37233000D01*
X39028571Y-37185381D01*
X42032181Y-39203190D02*
X41032181Y-39203190D01*
X41936943Y-38155571D02*
X41984562Y-38203190D01*
X42032181Y-38346047D01*
X42032181Y-38441285D01*
X41984562Y-38584143D01*
X41889324Y-38679381D01*
X41794086Y-38727000D01*
X41603610Y-38774619D01*
X41460752Y-38774619D01*
X41270276Y-38727000D01*
X41175038Y-38679381D01*
X41079800Y-38584143D01*
X41032181Y-38441285D01*
X41032181Y-38346047D01*
X41079800Y-38203190D01*
X41127419Y-38155571D01*
X42032181Y-37203190D02*
X42032181Y-37774619D01*
X42032181Y-37488905D02*
X41032181Y-37488905D01*
X41175038Y-37584143D01*
X41270276Y-37679381D01*
X41317895Y-37774619D01*
X29043334Y-22328143D02*
X28995715Y-22375762D01*
X28852858Y-22423381D01*
X28757620Y-22423381D01*
X28614762Y-22375762D01*
X28519524Y-22280524D01*
X28471905Y-22185286D01*
X28424286Y-21994810D01*
X28424286Y-21851952D01*
X28471905Y-21661476D01*
X28519524Y-21566238D01*
X28614762Y-21471000D01*
X28757620Y-21423381D01*
X28852858Y-21423381D01*
X28995715Y-21471000D01*
X29043334Y-21518619D01*
X29376667Y-21423381D02*
X29995715Y-21423381D01*
X29662381Y-21804333D01*
X29805239Y-21804333D01*
X29900477Y-21851952D01*
X29948096Y-21899571D01*
X29995715Y-21994810D01*
X29995715Y-22232905D01*
X29948096Y-22328143D01*
X29900477Y-22375762D01*
X29805239Y-22423381D01*
X29519524Y-22423381D01*
X29424286Y-22375762D01*
X29376667Y-22328143D01*
X66270143Y-49061666D02*
X66317762Y-49109285D01*
X66365381Y-49252142D01*
X66365381Y-49347380D01*
X66317762Y-49490238D01*
X66222524Y-49585476D01*
X66127286Y-49633095D01*
X65936810Y-49680714D01*
X65793952Y-49680714D01*
X65603476Y-49633095D01*
X65508238Y-49585476D01*
X65413000Y-49490238D01*
X65365381Y-49347380D01*
X65365381Y-49252142D01*
X65413000Y-49109285D01*
X65460619Y-49061666D01*
X65365381Y-48156904D02*
X65365381Y-48633095D01*
X65841571Y-48680714D01*
X65793952Y-48633095D01*
X65746333Y-48537857D01*
X65746333Y-48299761D01*
X65793952Y-48204523D01*
X65841571Y-48156904D01*
X65936810Y-48109285D01*
X66174905Y-48109285D01*
X66270143Y-48156904D01*
X66317762Y-48204523D01*
X66365381Y-48299761D01*
X66365381Y-48537857D01*
X66317762Y-48633095D01*
X66270143Y-48680714D01*
X80900543Y-48121866D02*
X80948162Y-48169485D01*
X80995781Y-48312342D01*
X80995781Y-48407580D01*
X80948162Y-48550438D01*
X80852924Y-48645676D01*
X80757686Y-48693295D01*
X80567210Y-48740914D01*
X80424352Y-48740914D01*
X80233876Y-48693295D01*
X80138638Y-48645676D01*
X80043400Y-48550438D01*
X79995781Y-48407580D01*
X79995781Y-48312342D01*
X80043400Y-48169485D01*
X80091019Y-48121866D01*
X80424352Y-47550438D02*
X80376733Y-47645676D01*
X80329114Y-47693295D01*
X80233876Y-47740914D01*
X80186257Y-47740914D01*
X80091019Y-47693295D01*
X80043400Y-47645676D01*
X79995781Y-47550438D01*
X79995781Y-47359961D01*
X80043400Y-47264723D01*
X80091019Y-47217104D01*
X80186257Y-47169485D01*
X80233876Y-47169485D01*
X80329114Y-47217104D01*
X80376733Y-47264723D01*
X80424352Y-47359961D01*
X80424352Y-47550438D01*
X80471971Y-47645676D01*
X80519590Y-47693295D01*
X80614829Y-47740914D01*
X80805305Y-47740914D01*
X80900543Y-47693295D01*
X80948162Y-47645676D01*
X80995781Y-47550438D01*
X80995781Y-47359961D01*
X80948162Y-47264723D01*
X80900543Y-47217104D01*
X80805305Y-47169485D01*
X80614829Y-47169485D01*
X80519590Y-47217104D01*
X80471971Y-47264723D01*
X80424352Y-47359961D01*
X58446943Y-46185057D02*
X58494562Y-46232676D01*
X58542181Y-46375533D01*
X58542181Y-46470771D01*
X58494562Y-46613629D01*
X58399324Y-46708867D01*
X58304086Y-46756486D01*
X58113610Y-46804105D01*
X57970752Y-46804105D01*
X57780276Y-46756486D01*
X57685038Y-46708867D01*
X57589800Y-46613629D01*
X57542181Y-46470771D01*
X57542181Y-46375533D01*
X57589800Y-46232676D01*
X57637419Y-46185057D01*
X58542181Y-45232676D02*
X58542181Y-45804105D01*
X58542181Y-45518391D02*
X57542181Y-45518391D01*
X57685038Y-45613629D01*
X57780276Y-45708867D01*
X57827895Y-45804105D01*
X57542181Y-44613629D02*
X57542181Y-44518390D01*
X57589800Y-44423152D01*
X57637419Y-44375533D01*
X57732657Y-44327914D01*
X57923133Y-44280295D01*
X58161229Y-44280295D01*
X58351705Y-44327914D01*
X58446943Y-44375533D01*
X58494562Y-44423152D01*
X58542181Y-44518390D01*
X58542181Y-44613629D01*
X58494562Y-44708867D01*
X58446943Y-44756486D01*
X58351705Y-44804105D01*
X58161229Y-44851724D01*
X57923133Y-44851724D01*
X57732657Y-44804105D01*
X57637419Y-44756486D01*
X57589800Y-44708867D01*
X57542181Y-44613629D01*
X72061343Y-45677057D02*
X72108962Y-45724676D01*
X72156581Y-45867533D01*
X72156581Y-45962771D01*
X72108962Y-46105629D01*
X72013724Y-46200867D01*
X71918486Y-46248486D01*
X71728010Y-46296105D01*
X71585152Y-46296105D01*
X71394676Y-46248486D01*
X71299438Y-46200867D01*
X71204200Y-46105629D01*
X71156581Y-45962771D01*
X71156581Y-45867533D01*
X71204200Y-45724676D01*
X71251819Y-45677057D01*
X72156581Y-44724676D02*
X72156581Y-45296105D01*
X72156581Y-45010391D02*
X71156581Y-45010391D01*
X71299438Y-45105629D01*
X71394676Y-45200867D01*
X71442295Y-45296105D01*
X72156581Y-43772295D02*
X72156581Y-44343724D01*
X72156581Y-44058010D02*
X71156581Y-44058010D01*
X71299438Y-44153248D01*
X71394676Y-44248486D01*
X71442295Y-44343724D01*
X56008543Y-46185057D02*
X56056162Y-46232676D01*
X56103781Y-46375533D01*
X56103781Y-46470771D01*
X56056162Y-46613629D01*
X55960924Y-46708867D01*
X55865686Y-46756486D01*
X55675210Y-46804105D01*
X55532352Y-46804105D01*
X55341876Y-46756486D01*
X55246638Y-46708867D01*
X55151400Y-46613629D01*
X55103781Y-46470771D01*
X55103781Y-46375533D01*
X55151400Y-46232676D01*
X55199019Y-46185057D01*
X56103781Y-45232676D02*
X56103781Y-45804105D01*
X56103781Y-45518391D02*
X55103781Y-45518391D01*
X55246638Y-45613629D01*
X55341876Y-45708867D01*
X55389495Y-45804105D01*
X55103781Y-44899343D02*
X55103781Y-44280295D01*
X55484733Y-44613629D01*
X55484733Y-44470771D01*
X55532352Y-44375533D01*
X55579971Y-44327914D01*
X55675210Y-44280295D01*
X55913305Y-44280295D01*
X56008543Y-44327914D01*
X56056162Y-44375533D01*
X56103781Y-44470771D01*
X56103781Y-44756486D01*
X56056162Y-44851724D01*
X56008543Y-44899343D01*
X77684334Y-58523143D02*
X77636715Y-58570762D01*
X77493858Y-58618381D01*
X77398620Y-58618381D01*
X77255762Y-58570762D01*
X77160524Y-58475524D01*
X77112905Y-58380286D01*
X77065286Y-58189810D01*
X77065286Y-58046952D01*
X77112905Y-57856476D01*
X77160524Y-57761238D01*
X77255762Y-57666000D01*
X77398620Y-57618381D01*
X77493858Y-57618381D01*
X77636715Y-57666000D01*
X77684334Y-57713619D01*
X78065286Y-57713619D02*
X78112905Y-57666000D01*
X78208143Y-57618381D01*
X78446239Y-57618381D01*
X78541477Y-57666000D01*
X78589096Y-57713619D01*
X78636715Y-57808857D01*
X78636715Y-57904095D01*
X78589096Y-58046952D01*
X78017667Y-58618381D01*
X78636715Y-58618381D01*
X33418543Y-48935943D02*
X33370924Y-48983562D01*
X33228067Y-49031181D01*
X33132829Y-49031181D01*
X32989971Y-48983562D01*
X32894733Y-48888324D01*
X32847114Y-48793086D01*
X32799495Y-48602610D01*
X32799495Y-48459752D01*
X32847114Y-48269276D01*
X32894733Y-48174038D01*
X32989971Y-48078800D01*
X33132829Y-48031181D01*
X33228067Y-48031181D01*
X33370924Y-48078800D01*
X33418543Y-48126419D01*
X34370924Y-49031181D02*
X33799495Y-49031181D01*
X34085209Y-49031181D02*
X34085209Y-48031181D01*
X33989971Y-48174038D01*
X33894733Y-48269276D01*
X33799495Y-48316895D01*
X34751876Y-48126419D02*
X34799495Y-48078800D01*
X34894733Y-48031181D01*
X35132829Y-48031181D01*
X35228067Y-48078800D01*
X35275686Y-48126419D01*
X35323305Y-48221657D01*
X35323305Y-48316895D01*
X35275686Y-48459752D01*
X34704257Y-49031181D01*
X35323305Y-49031181D01*
X72477334Y-45904381D02*
X72144000Y-45428190D01*
X71905905Y-45904381D02*
X71905905Y-44904381D01*
X72286858Y-44904381D01*
X72382096Y-44952000D01*
X72429715Y-44999619D01*
X72477334Y-45094857D01*
X72477334Y-45237714D01*
X72429715Y-45332952D01*
X72382096Y-45380571D01*
X72286858Y-45428190D01*
X71905905Y-45428190D01*
X73334477Y-44904381D02*
X73144000Y-44904381D01*
X73048762Y-44952000D01*
X73001143Y-44999619D01*
X72905905Y-45142476D01*
X72858286Y-45332952D01*
X72858286Y-45713905D01*
X72905905Y-45809143D01*
X72953524Y-45856762D01*
X73048762Y-45904381D01*
X73239239Y-45904381D01*
X73334477Y-45856762D01*
X73382096Y-45809143D01*
X73429715Y-45713905D01*
X73429715Y-45475810D01*
X73382096Y-45380571D01*
X73334477Y-45332952D01*
X73239239Y-45285333D01*
X73048762Y-45285333D01*
X72953524Y-45332952D01*
X72905905Y-45380571D01*
X72858286Y-45475810D01*
X71024762Y-71667619D02*
X70929524Y-71620000D01*
X70834286Y-71524762D01*
X70691429Y-71381905D01*
X70596190Y-71334286D01*
X70500952Y-71334286D01*
X70548571Y-71572381D02*
X70453333Y-71524762D01*
X70358095Y-71429524D01*
X70310476Y-71239048D01*
X70310476Y-70905714D01*
X70358095Y-70715238D01*
X70453333Y-70620000D01*
X70548571Y-70572381D01*
X70739048Y-70572381D01*
X70834286Y-70620000D01*
X70929524Y-70715238D01*
X70977143Y-70905714D01*
X70977143Y-71239048D01*
X70929524Y-71429524D01*
X70834286Y-71524762D01*
X70739048Y-71572381D01*
X70548571Y-71572381D01*
X71929524Y-71572381D02*
X71358095Y-71572381D01*
X71643809Y-71572381D02*
X71643809Y-70572381D01*
X71548571Y-70715238D01*
X71453333Y-70810476D01*
X71358095Y-70858095D01*
X93884762Y-42457619D02*
X93789524Y-42410000D01*
X93694286Y-42314762D01*
X93551429Y-42171905D01*
X93456190Y-42124286D01*
X93360952Y-42124286D01*
X93408571Y-42362381D02*
X93313333Y-42314762D01*
X93218095Y-42219524D01*
X93170476Y-42029048D01*
X93170476Y-41695714D01*
X93218095Y-41505238D01*
X93313333Y-41410000D01*
X93408571Y-41362381D01*
X93599048Y-41362381D01*
X93694286Y-41410000D01*
X93789524Y-41505238D01*
X93837143Y-41695714D01*
X93837143Y-42029048D01*
X93789524Y-42219524D01*
X93694286Y-42314762D01*
X93599048Y-42362381D01*
X93408571Y-42362381D01*
X94218095Y-41457619D02*
X94265714Y-41410000D01*
X94360952Y-41362381D01*
X94599048Y-41362381D01*
X94694286Y-41410000D01*
X94741905Y-41457619D01*
X94789524Y-41552857D01*
X94789524Y-41648095D01*
X94741905Y-41790952D01*
X94170476Y-42362381D01*
X94789524Y-42362381D01*
M02*
