G04 #@! TF.FileFunction,Paste,Top*
%FSLAX46Y46*%
G04 Gerber Fmt 4.6, Leading zero omitted, Abs format (unit mm)*
G04 Created by KiCad (PCBNEW 4.0.1-stable) date 4/25/2016 5:58:38 PM*
%MOMM*%
G01*
G04 APERTURE LIST*
%ADD10C,0.150000*%
%ADD11R,2.430000X2.370000*%
%ADD12R,4.130000X2.370000*%
%ADD13R,2.500000X2.000000*%
%ADD14R,1.198880X1.198880*%
%ADD15R,1.700000X0.900000*%
%ADD16R,0.900000X1.700000*%
%ADD17R,3.200000X1.000000*%
%ADD18R,1.550000X0.600000*%
%ADD19R,0.400000X1.200000*%
%ADD20R,1.524000X2.032000*%
%ADD21R,1.600000X1.000000*%
%ADD22R,1.000000X1.600000*%
%ADD23R,4.000500X2.400300*%
%ADD24R,2.999740X2.999740*%
%ADD25R,1.000000X6.350000*%
%ADD26R,0.800100X0.800100*%
G04 APERTURE END LIST*
D10*
D11*
X84709000Y-49712000D03*
X84709000Y-55952000D03*
D12*
X91821000Y-50474000D03*
X91821000Y-56714000D03*
D13*
X64135000Y-66470000D03*
X64135000Y-63070000D03*
D14*
X92710000Y-37879020D03*
X92710000Y-35780980D03*
X97155000Y-37879020D03*
X97155000Y-35780980D03*
D15*
X92710000Y-42725000D03*
X92710000Y-39825000D03*
X97155000Y-42725000D03*
X97155000Y-39825000D03*
D16*
X41455000Y-19558000D03*
X38555000Y-19558000D03*
X41455000Y-17145000D03*
X38555000Y-17145000D03*
D17*
X62738000Y-59488000D03*
X62738000Y-53288000D03*
D16*
X78052000Y-50546000D03*
X80952000Y-50546000D03*
X44143000Y-48260000D03*
X47043000Y-48260000D03*
D15*
X43815000Y-43508000D03*
X43815000Y-46408000D03*
D16*
X29030000Y-40640000D03*
X31930000Y-40640000D03*
X36629000Y-37973000D03*
X33729000Y-37973000D03*
X24077000Y-40640000D03*
X26977000Y-40640000D03*
X47322400Y-55219600D03*
X44422400Y-55219600D03*
X44371600Y-52527200D03*
X47271600Y-52527200D03*
X47068400Y-64541400D03*
X44168400Y-64541400D03*
D15*
X42240200Y-57203000D03*
X42240200Y-54303000D03*
X29337000Y-25474000D03*
X29337000Y-28374000D03*
D18*
X71534000Y-59817000D03*
X71534000Y-58547000D03*
X71534000Y-57277000D03*
X71534000Y-56007000D03*
X66134000Y-56007000D03*
X66134000Y-57277000D03*
X66134000Y-58547000D03*
X66134000Y-59817000D03*
X70452000Y-49911000D03*
X70452000Y-51181000D03*
X70452000Y-52451000D03*
X70452000Y-53721000D03*
X75852000Y-53721000D03*
X75852000Y-52451000D03*
X75852000Y-51181000D03*
X75852000Y-49911000D03*
D19*
X46593400Y-57844000D03*
X45943400Y-57844000D03*
X45293400Y-57844000D03*
X44643400Y-57844000D03*
X44643400Y-62044000D03*
X45293400Y-62044000D03*
X45943400Y-62044000D03*
X46593400Y-62044000D03*
D20*
X24130000Y-37973000D03*
X26670000Y-37973000D03*
X29210000Y-37973000D03*
X31750000Y-37973000D03*
X31750000Y-30353000D03*
X29210000Y-30353000D03*
X26670000Y-30353000D03*
X24130000Y-30353000D03*
D16*
X32967000Y-19558000D03*
X35867000Y-19558000D03*
X32967000Y-17145000D03*
X35867000Y-17145000D03*
D21*
X66040000Y-53824000D03*
X66040000Y-50824000D03*
D22*
X79224000Y-48006000D03*
X76224000Y-48006000D03*
D21*
X78486000Y-56618000D03*
X78486000Y-53618000D03*
D16*
X71194000Y-47752000D03*
X74094000Y-47752000D03*
D23*
X59245500Y-65024000D03*
X51244500Y-65024000D03*
D24*
X78987000Y-64516000D03*
X93987000Y-64516000D03*
D16*
X87683000Y-46990000D03*
X84783000Y-46990000D03*
D25*
X57664000Y-54356000D03*
X52064000Y-54356000D03*
D26*
X32705000Y-24114760D03*
X34605000Y-24114760D03*
X33655000Y-22115780D03*
X37150000Y-24114760D03*
X39050000Y-24114760D03*
X38100000Y-22115780D03*
M02*
