G04 #@! TF.FileFunction,Legend,Bot*
%FSLAX46Y46*%
G04 Gerber Fmt 4.6, Leading zero omitted, Abs format (unit mm)*
G04 Created by KiCad (PCBNEW 4.0.1-stable) date 2/17/2016 11:05:34 AM*
%MOMM*%
G01*
G04 APERTURE LIST*
%ADD10C,0.150000*%
G04 APERTURE END LIST*
D10*
X20320000Y-57404000D02*
X20320000Y-59436000D01*
X20320000Y-39116000D02*
X20320000Y-37592000D01*
X24130000Y-57150000D02*
X16510000Y-57150000D01*
X16510000Y-57150000D02*
X16510000Y-39370000D01*
X16510000Y-39370000D02*
X24130000Y-39370000D01*
X24130000Y-39370000D02*
X24130000Y-57150000D01*
X26522941Y-47817803D02*
X26046750Y-47484469D01*
X26522941Y-47246374D02*
X25522941Y-47246374D01*
X25522941Y-47627327D01*
X25570560Y-47722565D01*
X25618179Y-47770184D01*
X25713417Y-47817803D01*
X25856274Y-47817803D01*
X25951512Y-47770184D01*
X25999131Y-47722565D01*
X26046750Y-47627327D01*
X26046750Y-47246374D01*
X26522941Y-48770184D02*
X26522941Y-48198755D01*
X26522941Y-48484469D02*
X25522941Y-48484469D01*
X25665798Y-48389231D01*
X25761036Y-48293993D01*
X25808655Y-48198755D01*
X25951512Y-49341612D02*
X25903893Y-49246374D01*
X25856274Y-49198755D01*
X25761036Y-49151136D01*
X25713417Y-49151136D01*
X25618179Y-49198755D01*
X25570560Y-49246374D01*
X25522941Y-49341612D01*
X25522941Y-49532089D01*
X25570560Y-49627327D01*
X25618179Y-49674946D01*
X25713417Y-49722565D01*
X25761036Y-49722565D01*
X25856274Y-49674946D01*
X25903893Y-49627327D01*
X25951512Y-49532089D01*
X25951512Y-49341612D01*
X25999131Y-49246374D01*
X26046750Y-49198755D01*
X26141989Y-49151136D01*
X26332465Y-49151136D01*
X26427703Y-49198755D01*
X26475322Y-49246374D01*
X26522941Y-49341612D01*
X26522941Y-49532089D01*
X26475322Y-49627327D01*
X26427703Y-49674946D01*
X26332465Y-49722565D01*
X26141989Y-49722565D01*
X26046750Y-49674946D01*
X25999131Y-49627327D01*
X25951512Y-49532089D01*
M02*
