G04 #@! TF.FileFunction,Soldermask,Top*
%FSLAX46Y46*%
G04 Gerber Fmt 4.6, Leading zero omitted, Abs format (unit mm)*
G04 Created by KiCad (PCBNEW 4.0.1-stable) date 4/16/2016 12:06:08 PM*
%MOMM*%
G01*
G04 APERTURE LIST*
%ADD10C,0.150000*%
%ADD11R,2.938000X2.878000*%
%ADD12R,4.638000X2.878000*%
%ADD13R,3.008000X2.508000*%
%ADD14R,1.706880X1.706880*%
%ADD15C,5.969000*%
%ADD16R,1.908000X1.908000*%
%ADD17C,2.032000*%
%ADD18C,1.958000*%
%ADD19C,2.908000*%
%ADD20C,3.008000*%
%ADD21R,2.208000X1.408000*%
%ADD22R,1.408000X2.208000*%
%ADD23R,3.708000X1.508000*%
%ADD24R,2.058000X1.108000*%
%ADD25R,3.048000X3.048000*%
%ADD26C,3.048000*%
%ADD27R,0.908000X1.708000*%
%ADD28R,2.032000X2.540000*%
%ADD29R,2.540000X2.540000*%
%ADD30O,2.540000X2.540000*%
%ADD31R,2.235200X2.540000*%
%ADD32O,2.235200X2.540000*%
%ADD33R,2.108000X1.508000*%
%ADD34R,1.508000X2.108000*%
%ADD35O,2.207260X4.008120*%
%ADD36R,4.508500X2.908300*%
%ADD37R,3.507740X3.507740*%
%ADD38R,1.508000X6.858000*%
%ADD39O,1.407160X2.009140*%
%ADD40C,2.408000*%
G04 APERTURE END LIST*
D10*
D11*
X84709000Y-49712000D03*
X84709000Y-55952000D03*
D12*
X91821000Y-50474000D03*
X91821000Y-56714000D03*
D13*
X64135000Y-66470000D03*
X64135000Y-63070000D03*
D14*
X92710000Y-37879020D03*
X92710000Y-35780980D03*
X97155000Y-37879020D03*
X97155000Y-35780980D03*
D15*
X50165000Y-19685000D03*
X78105000Y-19685000D03*
D16*
X59055000Y-20955000D03*
D17*
X59055000Y-18415000D03*
D18*
X61595000Y-20955000D03*
X61595000Y-18415000D03*
X64135000Y-20955000D03*
X64135000Y-18415000D03*
D17*
X66675000Y-20955000D03*
X66675000Y-18415000D03*
D18*
X69215000Y-20955000D03*
X69215000Y-18415000D03*
D19*
X21590000Y-20320000D03*
D20*
X19050000Y-17780000D03*
X24130000Y-17780000D03*
X24130000Y-22860000D03*
X19050000Y-22860000D03*
D21*
X92710000Y-42725000D03*
X92710000Y-39825000D03*
X97155000Y-42725000D03*
X97155000Y-39825000D03*
D22*
X41455000Y-19558000D03*
X38555000Y-19558000D03*
X41455000Y-17145000D03*
X38555000Y-17145000D03*
D23*
X62738000Y-59488000D03*
X62738000Y-53288000D03*
D22*
X78052000Y-50546000D03*
X80952000Y-50546000D03*
X44143000Y-48260000D03*
X47043000Y-48260000D03*
D21*
X43815000Y-43508000D03*
X43815000Y-46408000D03*
D22*
X24331000Y-38608000D03*
X27231000Y-38608000D03*
D21*
X29337000Y-38788000D03*
X29337000Y-35888000D03*
D22*
X19759000Y-38608000D03*
X22659000Y-38608000D03*
X47322400Y-55219600D03*
X44422400Y-55219600D03*
X44371600Y-52527200D03*
X47271600Y-52527200D03*
X47068400Y-64541400D03*
X44168400Y-64541400D03*
D21*
X42240200Y-57203000D03*
X42240200Y-54303000D03*
X29337000Y-25474000D03*
X29337000Y-28374000D03*
D24*
X71534000Y-59817000D03*
X71534000Y-58547000D03*
X71534000Y-57277000D03*
X71534000Y-56007000D03*
X66134000Y-56007000D03*
X66134000Y-57277000D03*
X66134000Y-58547000D03*
X66134000Y-59817000D03*
X70452000Y-49911000D03*
X70452000Y-51181000D03*
X70452000Y-52451000D03*
X70452000Y-53721000D03*
X75852000Y-53721000D03*
X75852000Y-52451000D03*
X75852000Y-51181000D03*
X75852000Y-49911000D03*
D25*
X96774000Y-19304000D03*
D26*
X91694000Y-19304000D03*
X86614000Y-19304000D03*
D27*
X46593400Y-57844000D03*
X45943400Y-57844000D03*
X45293400Y-57844000D03*
X44643400Y-57844000D03*
X44643400Y-62044000D03*
X45293400Y-62044000D03*
X45943400Y-62044000D03*
X46593400Y-62044000D03*
D28*
X19431000Y-35814000D03*
X21971000Y-35814000D03*
X24511000Y-35814000D03*
X27051000Y-35814000D03*
X27051000Y-28194000D03*
X24511000Y-28194000D03*
X21971000Y-28194000D03*
X19431000Y-28194000D03*
D29*
X82423000Y-39370000D03*
D30*
X84963000Y-39370000D03*
D31*
X87249000Y-29718000D03*
D32*
X84709000Y-29718000D03*
X82169000Y-29718000D03*
D22*
X32967000Y-19558000D03*
X35867000Y-19558000D03*
X32967000Y-17145000D03*
X35867000Y-17145000D03*
D33*
X66040000Y-53824000D03*
X66040000Y-50824000D03*
D34*
X79224000Y-48006000D03*
X76224000Y-48006000D03*
D33*
X78486000Y-56618000D03*
X78486000Y-53618000D03*
D22*
X71194000Y-47752000D03*
X74094000Y-47752000D03*
D35*
X71120000Y-66040000D03*
X73660000Y-66040000D03*
X68580000Y-66040000D03*
X93980000Y-46990000D03*
X91440000Y-46990000D03*
X96520000Y-46990000D03*
D36*
X59245500Y-65024000D03*
X51244500Y-65024000D03*
D37*
X78987000Y-64516000D03*
X93987000Y-64516000D03*
D31*
X20193000Y-67564000D03*
D32*
X22733000Y-67564000D03*
X25273000Y-67564000D03*
X27813000Y-67564000D03*
X30353000Y-67564000D03*
D31*
X20193000Y-44704000D03*
D32*
X22733000Y-44704000D03*
X25273000Y-44704000D03*
D22*
X87683000Y-46990000D03*
X84783000Y-46990000D03*
D38*
X57664000Y-54356000D03*
X52064000Y-54356000D03*
D39*
X34036000Y-23622000D03*
X32766000Y-23622000D03*
X35306000Y-23622000D03*
X40132000Y-23622000D03*
X38862000Y-23622000D03*
X41402000Y-23622000D03*
D40*
X46355000Y-41402000D03*
X48895000Y-41402000D03*
X51435000Y-41402000D03*
X53975000Y-41402000D03*
X56515000Y-41402000D03*
X59055000Y-41402000D03*
X61595000Y-41402000D03*
X64135000Y-41402000D03*
X66675000Y-41402000D03*
X69215000Y-41402000D03*
X71755000Y-41402000D03*
X74295000Y-41402000D03*
X76835000Y-41402000D03*
X76835000Y-26162000D03*
X74295000Y-26162000D03*
X71755000Y-26162000D03*
X69215000Y-26162000D03*
X66675000Y-26162000D03*
X64135000Y-26162000D03*
X61595000Y-26162000D03*
X59055000Y-26162000D03*
X56515000Y-26162000D03*
X53975000Y-26162000D03*
X51435000Y-26162000D03*
X48895000Y-26162000D03*
X46355000Y-26162000D03*
X43815000Y-26162000D03*
X43815000Y-41402000D03*
M02*
