M48
;DRILL file {KiCad 4.0.1-stable} date 4/16/2016 12:06:10 PM
;FORMAT={-:-/ absolute / inch / decimal}
FMAT,2
INCH,TZ
T1C0.024
T2C0.031
T3C0.036
T4C0.039
T5C0.040
T6C0.059
T7C0.060
T8C0.063
T9C0.106
%
G90
G05
M72
T1
X1.29Y-0.93
X1.34Y-0.93
X1.39Y-0.93
X1.53Y-0.93
X1.58Y-0.93
X1.63Y-0.93
T2
X0.955Y-1.6
X1.205Y-1.65
X1.235Y-1.12
X1.235Y-1.7
X1.245Y-0.72
X1.395Y-1.61
X1.525Y-0.855
X1.605Y-1.2
X1.645Y-2.06
X1.655Y-1.16
X1.725Y-1.03
X1.725Y-1.63
X1.825Y-1.03
X1.825Y-1.63
X1.86Y-2.61
X1.925Y-1.03
X1.925Y-1.63
X1.965Y-2.44
X1.965Y-2.67
X1.985Y-2.09
X1.985Y-2.14
X1.985Y-2.19
X2.015Y-2.67
X2.025Y-1.03
X2.025Y-1.49
X2.025Y-1.63
X2.065Y-2.44
X2.065Y-2.67
X2.125Y-1.03
X2.125Y-1.63
X2.225Y-1.03
X2.225Y-1.63
X2.275Y-1.89
X2.325Y-1.03
X2.325Y-1.63
X2.41Y-1.96
X2.41Y-2.02
X2.425Y-1.03
X2.425Y-1.54
X2.425Y-1.63
X2.47Y-1.96
X2.47Y-2.02
X2.525Y-1.03
X2.525Y-1.63
X2.53Y-1.96
X2.53Y-2.02
X2.625Y-1.03
X2.625Y-1.63
X2.725Y-1.03
X2.725Y-1.19
X2.725Y-1.63
X2.755Y-1.88
X2.825Y-1.03
X2.825Y-1.15
X2.825Y-1.63
X2.905Y-2.155
X2.925Y-1.03
X2.925Y-1.63
X3.025Y-1.03
X3.025Y-1.63
X3.285Y-1.87
X3.455Y-1.99
X3.894Y-1.683
T3
X2.325Y-0.725
X2.325Y-0.825
X2.425Y-0.725
X2.425Y-0.825
X2.525Y-0.725
X2.525Y-0.825
X2.625Y-0.725
X2.625Y-0.825
X2.725Y-0.725
X2.725Y-0.825
T4
X2.7Y-2.6
X2.8Y-2.6
X2.9Y-2.6
X3.6Y-1.85
X3.7Y-1.85
X3.8Y-1.85
T5
X0.795Y-1.76
X0.795Y-2.66
X0.895Y-1.76
X0.895Y-2.66
X0.995Y-1.76
X0.995Y-2.66
X1.095Y-2.66
X1.195Y-2.66
X3.235Y-1.17
X3.245Y-1.55
X3.335Y-1.17
X3.345Y-1.55
X3.435Y-1.17
T6
X0.85Y-0.8
T7
X3.41Y-0.76
X3.61Y-0.76
X3.81Y-0.76
T8
X0.75Y-0.7
X0.75Y-0.9
X0.95Y-0.7
X0.95Y-0.9
T9
X1.975Y-0.775
X3.075Y-0.775
T0
M30
