G04 #@! TF.FileFunction,Legend,Top*
%FSLAX46Y46*%
G04 Gerber Fmt 4.6, Leading zero omitted, Abs format (unit mm)*
G04 Created by KiCad (PCBNEW 4.0.1-stable) date 4/25/2016 5:58:38 PM*
%MOMM*%
G01*
G04 APERTURE LIST*
%ADD10C,0.150000*%
%ADD11C,0.200000*%
%ADD12C,0.381000*%
%ADD13C,0.254000*%
%ADD14C,0.075000*%
G04 APERTURE END LIST*
D10*
D11*
X18399095Y-70683381D02*
X18399095Y-69683381D01*
X18399095Y-70159571D02*
X18970524Y-70159571D01*
X18970524Y-70683381D02*
X18970524Y-69683381D01*
X19303857Y-69683381D02*
X19637190Y-70683381D01*
X19970524Y-69683381D01*
X21018143Y-70635762D02*
X21113381Y-70683381D01*
X21303857Y-70683381D01*
X21399096Y-70635762D01*
X21446715Y-70540524D01*
X21446715Y-70492905D01*
X21399096Y-70397667D01*
X21303857Y-70350048D01*
X21161000Y-70350048D01*
X21065762Y-70302429D01*
X21018143Y-70207190D01*
X21018143Y-70159571D01*
X21065762Y-70064333D01*
X21161000Y-70016714D01*
X21303857Y-70016714D01*
X21399096Y-70064333D01*
X21875286Y-70683381D02*
X21875286Y-70016714D01*
X21875286Y-69683381D02*
X21827667Y-69731000D01*
X21875286Y-69778619D01*
X21922905Y-69731000D01*
X21875286Y-69683381D01*
X21875286Y-69778619D01*
X22780048Y-70016714D02*
X22780048Y-70826238D01*
X22732429Y-70921476D01*
X22684810Y-70969095D01*
X22589571Y-71016714D01*
X22446714Y-71016714D01*
X22351476Y-70969095D01*
X22780048Y-70635762D02*
X22684810Y-70683381D01*
X22494333Y-70683381D01*
X22399095Y-70635762D01*
X22351476Y-70588143D01*
X22303857Y-70492905D01*
X22303857Y-70207190D01*
X22351476Y-70111952D01*
X22399095Y-70064333D01*
X22494333Y-70016714D01*
X22684810Y-70016714D01*
X22780048Y-70064333D01*
X23256238Y-70016714D02*
X23256238Y-70683381D01*
X23256238Y-70111952D02*
X23303857Y-70064333D01*
X23399095Y-70016714D01*
X23541953Y-70016714D01*
X23637191Y-70064333D01*
X23684810Y-70159571D01*
X23684810Y-70683381D01*
X24589572Y-70683381D02*
X24589572Y-70159571D01*
X24541953Y-70064333D01*
X24446715Y-70016714D01*
X24256238Y-70016714D01*
X24161000Y-70064333D01*
X24589572Y-70635762D02*
X24494334Y-70683381D01*
X24256238Y-70683381D01*
X24161000Y-70635762D01*
X24113381Y-70540524D01*
X24113381Y-70445286D01*
X24161000Y-70350048D01*
X24256238Y-70302429D01*
X24494334Y-70302429D01*
X24589572Y-70254810D01*
X25208619Y-70683381D02*
X25113381Y-70635762D01*
X25065762Y-70540524D01*
X25065762Y-69683381D01*
X26780049Y-70016714D02*
X26780049Y-70826238D01*
X26732430Y-70921476D01*
X26684811Y-70969095D01*
X26589572Y-71016714D01*
X26446715Y-71016714D01*
X26351477Y-70969095D01*
X26780049Y-70635762D02*
X26684811Y-70683381D01*
X26494334Y-70683381D01*
X26399096Y-70635762D01*
X26351477Y-70588143D01*
X26303858Y-70492905D01*
X26303858Y-70207190D01*
X26351477Y-70111952D01*
X26399096Y-70064333D01*
X26494334Y-70016714D01*
X26684811Y-70016714D01*
X26780049Y-70064333D01*
X27637192Y-70635762D02*
X27541954Y-70683381D01*
X27351477Y-70683381D01*
X27256239Y-70635762D01*
X27208620Y-70540524D01*
X27208620Y-70159571D01*
X27256239Y-70064333D01*
X27351477Y-70016714D01*
X27541954Y-70016714D01*
X27637192Y-70064333D01*
X27684811Y-70159571D01*
X27684811Y-70254810D01*
X27208620Y-70350048D01*
X28113382Y-70016714D02*
X28113382Y-70683381D01*
X28113382Y-70111952D02*
X28161001Y-70064333D01*
X28256239Y-70016714D01*
X28399097Y-70016714D01*
X28494335Y-70064333D01*
X28541954Y-70159571D01*
X28541954Y-70683381D01*
X29399097Y-70635762D02*
X29303859Y-70683381D01*
X29113382Y-70683381D01*
X29018144Y-70635762D01*
X28970525Y-70540524D01*
X28970525Y-70159571D01*
X29018144Y-70064333D01*
X29113382Y-70016714D01*
X29303859Y-70016714D01*
X29399097Y-70064333D01*
X29446716Y-70159571D01*
X29446716Y-70254810D01*
X28970525Y-70350048D01*
X29875287Y-70683381D02*
X29875287Y-70016714D01*
X29875287Y-70207190D02*
X29922906Y-70111952D01*
X29970525Y-70064333D01*
X30065763Y-70016714D01*
X30161002Y-70016714D01*
X30922907Y-70683381D02*
X30922907Y-70159571D01*
X30875288Y-70064333D01*
X30780050Y-70016714D01*
X30589573Y-70016714D01*
X30494335Y-70064333D01*
X30922907Y-70635762D02*
X30827669Y-70683381D01*
X30589573Y-70683381D01*
X30494335Y-70635762D01*
X30446716Y-70540524D01*
X30446716Y-70445286D01*
X30494335Y-70350048D01*
X30589573Y-70302429D01*
X30827669Y-70302429D01*
X30922907Y-70254810D01*
X31256240Y-70016714D02*
X31637192Y-70016714D01*
X31399097Y-69683381D02*
X31399097Y-70540524D01*
X31446716Y-70635762D01*
X31541954Y-70683381D01*
X31637192Y-70683381D01*
X32113383Y-70683381D02*
X32018145Y-70635762D01*
X31970526Y-70588143D01*
X31922907Y-70492905D01*
X31922907Y-70207190D01*
X31970526Y-70111952D01*
X32018145Y-70064333D01*
X32113383Y-70016714D01*
X32256241Y-70016714D01*
X32351479Y-70064333D01*
X32399098Y-70111952D01*
X32446717Y-70207190D01*
X32446717Y-70492905D01*
X32399098Y-70588143D01*
X32351479Y-70635762D01*
X32256241Y-70683381D01*
X32113383Y-70683381D01*
X32875288Y-70683381D02*
X32875288Y-70016714D01*
X32875288Y-70207190D02*
X32922907Y-70111952D01*
X32970526Y-70064333D01*
X33065764Y-70016714D01*
X33161003Y-70016714D01*
X34256241Y-70683381D02*
X34256241Y-69683381D01*
X34256241Y-70064333D02*
X34351479Y-70016714D01*
X34541956Y-70016714D01*
X34637194Y-70064333D01*
X34684813Y-70111952D01*
X34732432Y-70207190D01*
X34732432Y-70492905D01*
X34684813Y-70588143D01*
X34637194Y-70635762D01*
X34541956Y-70683381D01*
X34351479Y-70683381D01*
X34256241Y-70635762D01*
X35303860Y-70683381D02*
X35208622Y-70635762D01*
X35161003Y-70588143D01*
X35113384Y-70492905D01*
X35113384Y-70207190D01*
X35161003Y-70111952D01*
X35208622Y-70064333D01*
X35303860Y-70016714D01*
X35446718Y-70016714D01*
X35541956Y-70064333D01*
X35589575Y-70111952D01*
X35637194Y-70207190D01*
X35637194Y-70492905D01*
X35589575Y-70588143D01*
X35541956Y-70635762D01*
X35446718Y-70683381D01*
X35303860Y-70683381D01*
X36494337Y-70683381D02*
X36494337Y-70159571D01*
X36446718Y-70064333D01*
X36351480Y-70016714D01*
X36161003Y-70016714D01*
X36065765Y-70064333D01*
X36494337Y-70635762D02*
X36399099Y-70683381D01*
X36161003Y-70683381D01*
X36065765Y-70635762D01*
X36018146Y-70540524D01*
X36018146Y-70445286D01*
X36065765Y-70350048D01*
X36161003Y-70302429D01*
X36399099Y-70302429D01*
X36494337Y-70254810D01*
X36970527Y-70683381D02*
X36970527Y-70016714D01*
X36970527Y-70207190D02*
X37018146Y-70111952D01*
X37065765Y-70064333D01*
X37161003Y-70016714D01*
X37256242Y-70016714D01*
X38018147Y-70683381D02*
X38018147Y-69683381D01*
X38018147Y-70635762D02*
X37922909Y-70683381D01*
X37732432Y-70683381D01*
X37637194Y-70635762D01*
X37589575Y-70588143D01*
X37541956Y-70492905D01*
X37541956Y-70207190D01*
X37589575Y-70111952D01*
X37637194Y-70064333D01*
X37732432Y-70016714D01*
X37922909Y-70016714D01*
X38018147Y-70064333D01*
X39161004Y-70016714D02*
X39399099Y-70683381D01*
X39637195Y-70016714D01*
X40208623Y-69683381D02*
X40303862Y-69683381D01*
X40399100Y-69731000D01*
X40446719Y-69778619D01*
X40494338Y-69873857D01*
X40541957Y-70064333D01*
X40541957Y-70302429D01*
X40494338Y-70492905D01*
X40446719Y-70588143D01*
X40399100Y-70635762D01*
X40303862Y-70683381D01*
X40208623Y-70683381D01*
X40113385Y-70635762D01*
X40065766Y-70588143D01*
X40018147Y-70492905D01*
X39970528Y-70302429D01*
X39970528Y-70064333D01*
X40018147Y-69873857D01*
X40065766Y-69778619D01*
X40113385Y-69731000D01*
X40208623Y-69683381D01*
X40970528Y-70588143D02*
X41018147Y-70635762D01*
X40970528Y-70683381D01*
X40922909Y-70635762D01*
X40970528Y-70588143D01*
X40970528Y-70683381D01*
X41351480Y-69683381D02*
X41970528Y-69683381D01*
X41637194Y-70064333D01*
X41780052Y-70064333D01*
X41875290Y-70111952D01*
X41922909Y-70159571D01*
X41970528Y-70254810D01*
X41970528Y-70492905D01*
X41922909Y-70588143D01*
X41875290Y-70635762D01*
X41780052Y-70683381D01*
X41494337Y-70683381D01*
X41399099Y-70635762D01*
X41351480Y-70588143D01*
D10*
X95364476Y-24060143D02*
X95974000Y-24060143D01*
X95669238Y-24364905D02*
X95669238Y-23755381D01*
X96774000Y-24364905D02*
X96316857Y-24364905D01*
X96545428Y-24364905D02*
X96545428Y-23564905D01*
X96469238Y-23679190D01*
X96393047Y-23755381D01*
X96316857Y-23793476D01*
X97078762Y-23641095D02*
X97116857Y-23603000D01*
X97193048Y-23564905D01*
X97383524Y-23564905D01*
X97459714Y-23603000D01*
X97497810Y-23641095D01*
X97535905Y-23717286D01*
X97535905Y-23793476D01*
X97497810Y-23907762D01*
X97040667Y-24364905D01*
X97535905Y-24364905D01*
X97764476Y-23564905D02*
X98031143Y-24364905D01*
X98297810Y-23564905D01*
X90665429Y-24060143D02*
X91274953Y-24060143D01*
X90970191Y-24364905D02*
X90970191Y-23755381D01*
X92036858Y-23564905D02*
X91655905Y-23564905D01*
X91617810Y-23945857D01*
X91655905Y-23907762D01*
X91732096Y-23869667D01*
X91922572Y-23869667D01*
X91998762Y-23907762D01*
X92036858Y-23945857D01*
X92074953Y-24022048D01*
X92074953Y-24212524D01*
X92036858Y-24288714D01*
X91998762Y-24326810D01*
X91922572Y-24364905D01*
X91732096Y-24364905D01*
X91655905Y-24326810D01*
X91617810Y-24288714D01*
X92303524Y-23564905D02*
X92570191Y-24364905D01*
X92836858Y-23564905D01*
X86823524Y-23603000D02*
X86747333Y-23564905D01*
X86633048Y-23564905D01*
X86518762Y-23603000D01*
X86442571Y-23679190D01*
X86404476Y-23755381D01*
X86366381Y-23907762D01*
X86366381Y-24022048D01*
X86404476Y-24174429D01*
X86442571Y-24250619D01*
X86518762Y-24326810D01*
X86633048Y-24364905D01*
X86709238Y-24364905D01*
X86823524Y-24326810D01*
X86861619Y-24288714D01*
X86861619Y-24022048D01*
X86709238Y-24022048D01*
X86909000Y-57032000D02*
X86909000Y-49032000D01*
X82509000Y-49032000D02*
X82509000Y-57132000D01*
X94921000Y-49894000D02*
X94921000Y-57794000D01*
X88721000Y-49894000D02*
X88721000Y-57794000D01*
X66085000Y-62520000D02*
X65685000Y-62520000D01*
X62185000Y-62520000D02*
X62585000Y-62520000D01*
X62185000Y-67020000D02*
X62585000Y-67020000D01*
X66085000Y-67020000D02*
X65685000Y-67020000D01*
X62185000Y-63420000D02*
X62585000Y-63420000D01*
X62585000Y-63420000D02*
X62585000Y-63570000D01*
X62585000Y-63570000D02*
X62185000Y-63570000D01*
X66085000Y-63420000D02*
X65685000Y-63420000D01*
X65685000Y-63420000D02*
X65685000Y-63570000D01*
X65685000Y-63570000D02*
X66085000Y-63570000D01*
X66085000Y-62520000D02*
X66085000Y-67020000D01*
X62185000Y-67020000D02*
X62185000Y-62520000D01*
X91960000Y-35230000D02*
X91960000Y-37930000D01*
X93460000Y-35230000D02*
X93460000Y-37930000D01*
X92560000Y-36730000D02*
X92810000Y-36730000D01*
X92810000Y-36730000D02*
X92660000Y-36580000D01*
X93060000Y-36480000D02*
X92360000Y-36480000D01*
X92710000Y-36830000D02*
X92710000Y-37180000D01*
X92710000Y-36480000D02*
X93060000Y-36830000D01*
X93060000Y-36830000D02*
X92360000Y-36830000D01*
X92360000Y-36830000D02*
X92710000Y-36480000D01*
X96405000Y-35230000D02*
X96405000Y-37930000D01*
X97905000Y-35230000D02*
X97905000Y-37930000D01*
X97005000Y-36730000D02*
X97255000Y-36730000D01*
X97255000Y-36730000D02*
X97105000Y-36580000D01*
X97505000Y-36480000D02*
X96805000Y-36480000D01*
X97155000Y-36830000D02*
X97155000Y-37180000D01*
X97155000Y-36480000D02*
X97505000Y-36830000D01*
X97505000Y-36830000D02*
X96805000Y-36830000D01*
X96805000Y-36830000D02*
X97155000Y-36480000D01*
X80137000Y-15367000D02*
X80137000Y-24003000D01*
X80137000Y-24003000D02*
X48133000Y-24003000D01*
X48133000Y-15367000D02*
X80137000Y-15367000D01*
X55245000Y-23241000D02*
X55245000Y-16129000D01*
X73025000Y-23241000D02*
X73025000Y-16129000D01*
X61595000Y-24003000D02*
X61595000Y-23241000D01*
X61595000Y-23241000D02*
X55245000Y-23241000D01*
X55245000Y-16129000D02*
X73025000Y-16129000D01*
X73025000Y-23241000D02*
X66675000Y-23241000D01*
X66675000Y-23241000D02*
X66675000Y-24003000D01*
X48133000Y-24003000D02*
X48133000Y-15367000D01*
X57531000Y-20955000D02*
X56261000Y-20193000D01*
X56261000Y-20193000D02*
X56261000Y-21717000D01*
X56261000Y-21717000D02*
X57531000Y-20955000D01*
D12*
X25590000Y-16320000D02*
X17590000Y-16320000D01*
X17590000Y-16320000D02*
X17590000Y-24320000D01*
X17590000Y-24320000D02*
X25590000Y-24320000D01*
X25590000Y-24320000D02*
X25590000Y-16320000D01*
D10*
X93785000Y-40275000D02*
X93785000Y-42275000D01*
X91635000Y-42275000D02*
X91635000Y-40275000D01*
X98230000Y-40275000D02*
X98230000Y-42275000D01*
X96080000Y-42275000D02*
X96080000Y-40275000D01*
X39005000Y-18483000D02*
X41005000Y-18483000D01*
X41005000Y-20633000D02*
X39005000Y-20633000D01*
X39005000Y-16070000D02*
X41005000Y-16070000D01*
X41005000Y-18220000D02*
X39005000Y-18220000D01*
X64563000Y-53788000D02*
X64563000Y-58988000D01*
X60913000Y-58988000D02*
X60913000Y-53788000D01*
X80502000Y-51621000D02*
X78502000Y-51621000D01*
X78502000Y-49471000D02*
X80502000Y-49471000D01*
X46593000Y-49335000D02*
X44593000Y-49335000D01*
X44593000Y-47185000D02*
X46593000Y-47185000D01*
X42740000Y-45958000D02*
X42740000Y-43958000D01*
X44890000Y-43958000D02*
X44890000Y-45958000D01*
X31480000Y-41715000D02*
X29480000Y-41715000D01*
X29480000Y-39565000D02*
X31480000Y-39565000D01*
X34179000Y-36898000D02*
X36179000Y-36898000D01*
X36179000Y-39048000D02*
X34179000Y-39048000D01*
X26527000Y-41715000D02*
X24527000Y-41715000D01*
X24527000Y-39565000D02*
X26527000Y-39565000D01*
X44872400Y-54144600D02*
X46872400Y-54144600D01*
X46872400Y-56294600D02*
X44872400Y-56294600D01*
X46821600Y-53602200D02*
X44821600Y-53602200D01*
X44821600Y-51452200D02*
X46821600Y-51452200D01*
X44618400Y-63466400D02*
X46618400Y-63466400D01*
X46618400Y-65616400D02*
X44618400Y-65616400D01*
X43315200Y-54753000D02*
X43315200Y-56753000D01*
X41165200Y-56753000D02*
X41165200Y-54753000D01*
X28262000Y-27924000D02*
X28262000Y-25924000D01*
X30412000Y-25924000D02*
X30412000Y-27924000D01*
X70909000Y-60487000D02*
X70909000Y-60342000D01*
X66759000Y-60487000D02*
X66759000Y-60342000D01*
X66759000Y-55337000D02*
X66759000Y-55482000D01*
X70909000Y-55337000D02*
X70909000Y-55482000D01*
X70909000Y-60487000D02*
X66759000Y-60487000D01*
X70909000Y-55337000D02*
X66759000Y-55337000D01*
X70909000Y-60342000D02*
X72309000Y-60342000D01*
X71077000Y-49241000D02*
X71077000Y-49386000D01*
X75227000Y-49241000D02*
X75227000Y-49386000D01*
X75227000Y-54391000D02*
X75227000Y-54246000D01*
X71077000Y-54391000D02*
X71077000Y-54246000D01*
X71077000Y-49241000D02*
X75227000Y-49241000D01*
X71077000Y-54391000D02*
X75227000Y-54391000D01*
X71077000Y-49386000D02*
X69677000Y-49386000D01*
X99314000Y-15494000D02*
X99314000Y-23114000D01*
X84074000Y-15494000D02*
X84074000Y-23114000D01*
X99314000Y-16764000D02*
X84074000Y-16764000D01*
X99314000Y-23114000D02*
X84074000Y-23114000D01*
X99314000Y-15494000D02*
X84074000Y-15494000D01*
X46759821Y-58944000D02*
G75*
G03X46759821Y-58944000I-141421J0D01*
G01*
X47118400Y-61444000D02*
X44118400Y-61444000D01*
X44118400Y-61444000D02*
X44118400Y-58444000D01*
X44118400Y-58444000D02*
X47118400Y-58444000D01*
X47118400Y-58444000D02*
X47118400Y-61444000D01*
X22860000Y-31623000D02*
X22860000Y-36703000D01*
X22860000Y-36703000D02*
X33020000Y-36703000D01*
X33020000Y-36703000D02*
X33020000Y-31623000D01*
X33020000Y-31623000D02*
X22860000Y-31623000D01*
X22860000Y-32893000D02*
X24130000Y-32893000D01*
X24130000Y-32893000D02*
X24130000Y-35433000D01*
X24130000Y-35433000D02*
X22860000Y-35433000D01*
X83693000Y-38100000D02*
X86233000Y-38100000D01*
X80873000Y-37820000D02*
X82423000Y-37820000D01*
X83693000Y-38100000D02*
X83693000Y-40640000D01*
X82423000Y-40920000D02*
X80873000Y-40920000D01*
X80873000Y-40920000D02*
X80873000Y-37820000D01*
X83693000Y-40640000D02*
X86233000Y-40640000D01*
X86233000Y-40640000D02*
X86233000Y-38100000D01*
X85979000Y-28448000D02*
X80899000Y-28448000D01*
X80899000Y-28448000D02*
X80899000Y-30988000D01*
X80899000Y-30988000D02*
X85979000Y-30988000D01*
X88799000Y-31268000D02*
X87249000Y-31268000D01*
X85979000Y-30988000D02*
X85979000Y-28448000D01*
X87249000Y-28168000D02*
X88799000Y-28168000D01*
X88799000Y-28168000D02*
X88799000Y-31268000D01*
X35417000Y-20633000D02*
X33417000Y-20633000D01*
X33417000Y-18483000D02*
X35417000Y-18483000D01*
X35417000Y-18220000D02*
X33417000Y-18220000D01*
X33417000Y-16070000D02*
X35417000Y-16070000D01*
X65015000Y-51324000D02*
X65015000Y-53324000D01*
X67065000Y-53324000D02*
X67065000Y-51324000D01*
X76724000Y-49031000D02*
X78724000Y-49031000D01*
X78724000Y-46981000D02*
X76724000Y-46981000D01*
X77461000Y-54118000D02*
X77461000Y-56118000D01*
X79511000Y-56118000D02*
X79511000Y-54118000D01*
X73644000Y-48827000D02*
X71644000Y-48827000D01*
X71644000Y-46677000D02*
X73644000Y-46677000D01*
X65786000Y-67945000D02*
X67691000Y-67945000D01*
X70231000Y-67945000D02*
X69469000Y-67945000D01*
X72644000Y-67945000D02*
X72771000Y-67945000D01*
X72644000Y-67945000D02*
X72009000Y-67945000D01*
X76454000Y-67945000D02*
X74676000Y-67945000D01*
X76454000Y-64262000D02*
X74803000Y-64262000D01*
X72136000Y-64135000D02*
X72771000Y-64135000D01*
X69596000Y-64135000D02*
X70231000Y-64135000D01*
X65786000Y-64262000D02*
X67437000Y-64262000D01*
X72644000Y-69088000D02*
X72644000Y-67945000D01*
X69596000Y-69088000D02*
X69596000Y-67945000D01*
X65786000Y-67945000D02*
X65786000Y-64262000D01*
X76454000Y-64262000D02*
X76454000Y-67945000D01*
X65786000Y-69088000D02*
X65786000Y-67945000D01*
X76454000Y-67945000D02*
X76454000Y-69088000D01*
X71120000Y-69088000D02*
X76454000Y-69088000D01*
X71120000Y-69088000D02*
X65786000Y-69088000D01*
X99314000Y-45085000D02*
X97409000Y-45085000D01*
X94869000Y-45085000D02*
X95631000Y-45085000D01*
X92456000Y-45085000D02*
X92329000Y-45085000D01*
X92456000Y-45085000D02*
X93091000Y-45085000D01*
X88646000Y-45085000D02*
X90424000Y-45085000D01*
X88646000Y-48768000D02*
X90297000Y-48768000D01*
X92964000Y-48895000D02*
X92329000Y-48895000D01*
X95504000Y-48895000D02*
X94869000Y-48895000D01*
X99314000Y-48768000D02*
X97663000Y-48768000D01*
X92456000Y-43942000D02*
X92456000Y-45085000D01*
X95504000Y-43942000D02*
X95504000Y-45085000D01*
X99314000Y-45085000D02*
X99314000Y-48768000D01*
X88646000Y-48768000D02*
X88646000Y-45085000D01*
X99314000Y-43942000D02*
X99314000Y-45085000D01*
X88646000Y-45085000D02*
X88646000Y-43942000D01*
X93980000Y-43942000D02*
X88646000Y-43942000D01*
X93980000Y-43942000D02*
X99314000Y-43942000D01*
X50419000Y-66040000D02*
X50419000Y-64008000D01*
X50546000Y-63627000D02*
X50546000Y-66548000D01*
X50673000Y-66802000D02*
X50673000Y-63246000D01*
X50800000Y-62865000D02*
X50800000Y-67183000D01*
X50927000Y-67437000D02*
X50927000Y-62611000D01*
X51054000Y-62484000D02*
X51054000Y-67564000D01*
X50038000Y-59817000D02*
X50038000Y-70231000D01*
X50038000Y-70231000D02*
X59690000Y-70231000D01*
X59690000Y-70231000D02*
X60452000Y-69469000D01*
X60452000Y-69469000D02*
X60452000Y-60579000D01*
X60452000Y-60579000D02*
X59690000Y-59817000D01*
X59690000Y-59817000D02*
X50038000Y-59817000D01*
X59817000Y-65024000D02*
X59055000Y-65024000D01*
X59436000Y-64643000D02*
X59436000Y-65405000D01*
X60198000Y-65024000D02*
G75*
G03X60198000Y-65024000I-4953000J0D01*
G01*
X77470000Y-66167000D02*
X81661000Y-69596000D01*
X95504000Y-62865000D02*
X91313000Y-59436000D01*
X77470000Y-62865000D02*
X81661000Y-59436000D01*
X93491607Y-64516000D02*
G75*
G03X93491607Y-64516000I-7004607J0D01*
G01*
X95504000Y-62865000D02*
X95504000Y-66167000D01*
X95504000Y-66167000D02*
X91313000Y-69596000D01*
X77470000Y-62865000D02*
X77470000Y-66167000D01*
X20193000Y-69114000D02*
X18643000Y-69114000D01*
X18643000Y-69114000D02*
X18643000Y-66014000D01*
X18643000Y-66014000D02*
X20193000Y-66014000D01*
X21463000Y-66294000D02*
X31623000Y-66294000D01*
X31623000Y-66294000D02*
X31623000Y-68834000D01*
X31623000Y-68834000D02*
X21463000Y-68834000D01*
X21463000Y-66294000D02*
X21463000Y-68834000D01*
X21463000Y-45974000D02*
X26543000Y-45974000D01*
X26543000Y-45974000D02*
X26543000Y-43434000D01*
X26543000Y-43434000D02*
X21463000Y-43434000D01*
X18643000Y-43154000D02*
X20193000Y-43154000D01*
X21463000Y-43434000D02*
X21463000Y-45974000D01*
X20193000Y-46254000D02*
X18643000Y-46254000D01*
X18643000Y-46254000D02*
X18643000Y-43154000D01*
X85233000Y-45915000D02*
X87233000Y-45915000D01*
X87233000Y-48065000D02*
X85233000Y-48065000D01*
X52564000Y-57756000D02*
X57164000Y-57756000D01*
X57164000Y-50956000D02*
X52564000Y-50956000D01*
X43815000Y-28702000D02*
X74295000Y-28702000D01*
X74295000Y-28702000D02*
X74295000Y-38862000D01*
X74295000Y-38862000D02*
X43815000Y-38862000D01*
X43815000Y-38862000D02*
X43815000Y-28702000D01*
X22606000Y-30480000D02*
G75*
G03X22606000Y-30480000I-2286000J0D01*
G01*
X98806000Y-30480000D02*
G75*
G03X98806000Y-30480000I-2286000J0D01*
G01*
X34954160Y-22463760D02*
X34905900Y-22463760D01*
X32155180Y-23164800D02*
X32155180Y-22463760D01*
X32155180Y-22463760D02*
X32404100Y-22463760D01*
X34954160Y-22463760D02*
X35154820Y-22463760D01*
X35154820Y-22463760D02*
X35154820Y-23164800D01*
X39399160Y-22463760D02*
X39350900Y-22463760D01*
X36600180Y-23164800D02*
X36600180Y-22463760D01*
X36600180Y-22463760D02*
X36849100Y-22463760D01*
X39399160Y-22463760D02*
X39599820Y-22463760D01*
X39599820Y-22463760D02*
X39599820Y-23164800D01*
X82256334Y-48744143D02*
X82208715Y-48791762D01*
X82065858Y-48839381D01*
X81970620Y-48839381D01*
X81827762Y-48791762D01*
X81732524Y-48696524D01*
X81684905Y-48601286D01*
X81637286Y-48410810D01*
X81637286Y-48267952D01*
X81684905Y-48077476D01*
X81732524Y-47982238D01*
X81827762Y-47887000D01*
X81970620Y-47839381D01*
X82065858Y-47839381D01*
X82208715Y-47887000D01*
X82256334Y-47934619D01*
X83208715Y-48839381D02*
X82637286Y-48839381D01*
X82923000Y-48839381D02*
X82923000Y-47839381D01*
X82827762Y-47982238D01*
X82732524Y-48077476D01*
X82637286Y-48125095D01*
X91654334Y-59031143D02*
X91606715Y-59078762D01*
X91463858Y-59126381D01*
X91368620Y-59126381D01*
X91225762Y-59078762D01*
X91130524Y-58983524D01*
X91082905Y-58888286D01*
X91035286Y-58697810D01*
X91035286Y-58554952D01*
X91082905Y-58364476D01*
X91130524Y-58269238D01*
X91225762Y-58174000D01*
X91368620Y-58126381D01*
X91463858Y-58126381D01*
X91606715Y-58174000D01*
X91654334Y-58221619D01*
X92511477Y-58126381D02*
X92321000Y-58126381D01*
X92225762Y-58174000D01*
X92178143Y-58221619D01*
X92082905Y-58364476D01*
X92035286Y-58554952D01*
X92035286Y-58935905D01*
X92082905Y-59031143D01*
X92130524Y-59078762D01*
X92225762Y-59126381D01*
X92416239Y-59126381D01*
X92511477Y-59078762D01*
X92559096Y-59031143D01*
X92606715Y-58935905D01*
X92606715Y-58697810D01*
X92559096Y-58602571D01*
X92511477Y-58554952D01*
X92416239Y-58507333D01*
X92225762Y-58507333D01*
X92130524Y-58554952D01*
X92082905Y-58602571D01*
X92035286Y-58697810D01*
X64460381Y-69572095D02*
X63460381Y-69572095D01*
X63460381Y-69334000D01*
X63508000Y-69191142D01*
X63603238Y-69095904D01*
X63698476Y-69048285D01*
X63888952Y-69000666D01*
X64031810Y-69000666D01*
X64222286Y-69048285D01*
X64317524Y-69095904D01*
X64412762Y-69191142D01*
X64460381Y-69334000D01*
X64460381Y-69572095D01*
X64460381Y-68048285D02*
X64460381Y-68619714D01*
X64460381Y-68334000D02*
X63460381Y-68334000D01*
X63603238Y-68429238D01*
X63698476Y-68524476D01*
X63746095Y-68619714D01*
X94912381Y-37949047D02*
X94912381Y-38425238D01*
X93912381Y-38425238D01*
X94388571Y-37615714D02*
X94388571Y-37282380D01*
X94912381Y-37139523D02*
X94912381Y-37615714D01*
X93912381Y-37615714D01*
X93912381Y-37139523D01*
X94912381Y-36710952D02*
X93912381Y-36710952D01*
X93912381Y-36472857D01*
X93960000Y-36329999D01*
X94055238Y-36234761D01*
X94150476Y-36187142D01*
X94340952Y-36139523D01*
X94483810Y-36139523D01*
X94674286Y-36187142D01*
X94769524Y-36234761D01*
X94864762Y-36329999D01*
X94912381Y-36472857D01*
X94912381Y-36710952D01*
X94912381Y-35187142D02*
X94912381Y-35758571D01*
X94912381Y-35472857D02*
X93912381Y-35472857D01*
X94055238Y-35568095D01*
X94150476Y-35663333D01*
X94198095Y-35758571D01*
X91424286Y-34361429D02*
X92186191Y-34361429D01*
X91805239Y-34742381D02*
X91805239Y-33980476D01*
X93138572Y-33742381D02*
X92662381Y-33742381D01*
X92614762Y-34218571D01*
X92662381Y-34170952D01*
X92757619Y-34123333D01*
X92995715Y-34123333D01*
X93090953Y-34170952D01*
X93138572Y-34218571D01*
X93186191Y-34313810D01*
X93186191Y-34551905D01*
X93138572Y-34647143D01*
X93090953Y-34694762D01*
X92995715Y-34742381D01*
X92757619Y-34742381D01*
X92662381Y-34694762D01*
X92614762Y-34647143D01*
X93471905Y-33742381D02*
X93805238Y-34742381D01*
X94138572Y-33742381D01*
X99357381Y-37949047D02*
X99357381Y-38425238D01*
X98357381Y-38425238D01*
X98833571Y-37615714D02*
X98833571Y-37282380D01*
X99357381Y-37139523D02*
X99357381Y-37615714D01*
X98357381Y-37615714D01*
X98357381Y-37139523D01*
X99357381Y-36710952D02*
X98357381Y-36710952D01*
X98357381Y-36472857D01*
X98405000Y-36329999D01*
X98500238Y-36234761D01*
X98595476Y-36187142D01*
X98785952Y-36139523D01*
X98928810Y-36139523D01*
X99119286Y-36187142D01*
X99214524Y-36234761D01*
X99309762Y-36329999D01*
X99357381Y-36472857D01*
X99357381Y-36710952D01*
X98452619Y-35758571D02*
X98405000Y-35710952D01*
X98357381Y-35615714D01*
X98357381Y-35377618D01*
X98405000Y-35282380D01*
X98452619Y-35234761D01*
X98547857Y-35187142D01*
X98643095Y-35187142D01*
X98785952Y-35234761D01*
X99357381Y-35806190D01*
X99357381Y-35187142D01*
X95393095Y-34361429D02*
X96155000Y-34361429D01*
X95774048Y-34742381D02*
X95774048Y-33980476D01*
X97155000Y-34742381D02*
X96583571Y-34742381D01*
X96869285Y-34742381D02*
X96869285Y-33742381D01*
X96774047Y-33885238D01*
X96678809Y-33980476D01*
X96583571Y-34028095D01*
X97535952Y-33837619D02*
X97583571Y-33790000D01*
X97678809Y-33742381D01*
X97916905Y-33742381D01*
X98012143Y-33790000D01*
X98059762Y-33837619D01*
X98107381Y-33932857D01*
X98107381Y-34028095D01*
X98059762Y-34170952D01*
X97488333Y-34742381D01*
X98107381Y-34742381D01*
X98393095Y-33742381D02*
X98726428Y-34742381D01*
X99059762Y-33742381D01*
X46847167Y-16089381D02*
X46847167Y-16803667D01*
X46799547Y-16946524D01*
X46704309Y-17041762D01*
X46561452Y-17089381D01*
X46466214Y-17089381D01*
X47275738Y-16184619D02*
X47323357Y-16137000D01*
X47418595Y-16089381D01*
X47656691Y-16089381D01*
X47751929Y-16137000D01*
X47799548Y-16184619D01*
X47847167Y-16279857D01*
X47847167Y-16375095D01*
X47799548Y-16517952D01*
X47228119Y-17089381D01*
X47847167Y-17089381D01*
X61531905Y-25122143D02*
X61484286Y-25169762D01*
X61341429Y-25217381D01*
X61246191Y-25217381D01*
X61103333Y-25169762D01*
X61008095Y-25074524D01*
X60960476Y-24979286D01*
X60912857Y-24788810D01*
X60912857Y-24645952D01*
X60960476Y-24455476D01*
X61008095Y-24360238D01*
X61103333Y-24265000D01*
X61246191Y-24217381D01*
X61341429Y-24217381D01*
X61484286Y-24265000D01*
X61531905Y-24312619D01*
X62150952Y-24217381D02*
X62341429Y-24217381D01*
X62436667Y-24265000D01*
X62531905Y-24360238D01*
X62579524Y-24550714D01*
X62579524Y-24884048D01*
X62531905Y-25074524D01*
X62436667Y-25169762D01*
X62341429Y-25217381D01*
X62150952Y-25217381D01*
X62055714Y-25169762D01*
X61960476Y-25074524D01*
X61912857Y-24884048D01*
X61912857Y-24550714D01*
X61960476Y-24360238D01*
X62055714Y-24265000D01*
X62150952Y-24217381D01*
X63008095Y-25217381D02*
X63008095Y-24217381D01*
X63341429Y-24931667D01*
X63674762Y-24217381D01*
X63674762Y-25217381D01*
X64150952Y-25217381D02*
X64150952Y-24217381D01*
X64484286Y-24931667D01*
X64817619Y-24217381D01*
X64817619Y-25217381D01*
X65055714Y-25312619D02*
X65817619Y-25312619D01*
X66389048Y-24693571D02*
X66531905Y-24741190D01*
X66579524Y-24788810D01*
X66627143Y-24884048D01*
X66627143Y-25026905D01*
X66579524Y-25122143D01*
X66531905Y-25169762D01*
X66436667Y-25217381D01*
X66055714Y-25217381D01*
X66055714Y-24217381D01*
X66389048Y-24217381D01*
X66484286Y-24265000D01*
X66531905Y-24312619D01*
X66579524Y-24407857D01*
X66579524Y-24503095D01*
X66531905Y-24598333D01*
X66484286Y-24645952D01*
X66389048Y-24693571D01*
X66055714Y-24693571D01*
X67055714Y-24217381D02*
X67055714Y-25026905D01*
X67103333Y-25122143D01*
X67150952Y-25169762D01*
X67246190Y-25217381D01*
X67436667Y-25217381D01*
X67531905Y-25169762D01*
X67579524Y-25122143D01*
X67627143Y-25026905D01*
X67627143Y-24217381D01*
X68055714Y-25169762D02*
X68198571Y-25217381D01*
X68436667Y-25217381D01*
X68531905Y-25169762D01*
X68579524Y-25122143D01*
X68627143Y-25026905D01*
X68627143Y-24931667D01*
X68579524Y-24836429D01*
X68531905Y-24788810D01*
X68436667Y-24741190D01*
X68246190Y-24693571D01*
X68150952Y-24645952D01*
X68103333Y-24598333D01*
X68055714Y-24503095D01*
X68055714Y-24407857D01*
X68103333Y-24312619D01*
X68150952Y-24265000D01*
X68246190Y-24217381D01*
X68484286Y-24217381D01*
X68627143Y-24265000D01*
D13*
X26047096Y-18938119D02*
X26047096Y-17922119D01*
X26434143Y-17922119D01*
X26530905Y-17970500D01*
X26579286Y-18018881D01*
X26627667Y-18115643D01*
X26627667Y-18260786D01*
X26579286Y-18357548D01*
X26530905Y-18405929D01*
X26434143Y-18454310D01*
X26047096Y-18454310D01*
X27498524Y-18260786D02*
X27498524Y-18938119D01*
X27256620Y-17873738D02*
X27014715Y-18599452D01*
X27643667Y-18599452D01*
X19799905Y-24963619D02*
X20138572Y-25979619D01*
X20477238Y-24963619D01*
X21009429Y-24963619D02*
X21202952Y-24963619D01*
X21299714Y-25012000D01*
X21396476Y-25108762D01*
X21444857Y-25302286D01*
X21444857Y-25640952D01*
X21396476Y-25834476D01*
X21299714Y-25931238D01*
X21202952Y-25979619D01*
X21009429Y-25979619D01*
X20912667Y-25931238D01*
X20815905Y-25834476D01*
X20767524Y-25640952D01*
X20767524Y-25302286D01*
X20815905Y-25108762D01*
X20912667Y-25012000D01*
X21009429Y-24963619D01*
X21880286Y-24963619D02*
X21880286Y-25786095D01*
X21928667Y-25882857D01*
X21977048Y-25931238D01*
X22073810Y-25979619D01*
X22267333Y-25979619D01*
X22364095Y-25931238D01*
X22412476Y-25882857D01*
X22460857Y-25786095D01*
X22460857Y-24963619D01*
X22799524Y-24963619D02*
X23380095Y-24963619D01*
X23089810Y-25979619D02*
X23089810Y-24963619D01*
D10*
X92543334Y-44902381D02*
X92210000Y-44426190D01*
X91971905Y-44902381D02*
X91971905Y-43902381D01*
X92352858Y-43902381D01*
X92448096Y-43950000D01*
X92495715Y-43997619D01*
X92543334Y-44092857D01*
X92543334Y-44235714D01*
X92495715Y-44330952D01*
X92448096Y-44378571D01*
X92352858Y-44426190D01*
X91971905Y-44426190D01*
X93495715Y-44902381D02*
X92924286Y-44902381D01*
X93210000Y-44902381D02*
X93210000Y-43902381D01*
X93114762Y-44045238D01*
X93019524Y-44140476D01*
X92924286Y-44188095D01*
X96988334Y-44902381D02*
X96655000Y-44426190D01*
X96416905Y-44902381D02*
X96416905Y-43902381D01*
X96797858Y-43902381D01*
X96893096Y-43950000D01*
X96940715Y-43997619D01*
X96988334Y-44092857D01*
X96988334Y-44235714D01*
X96940715Y-44330952D01*
X96893096Y-44378571D01*
X96797858Y-44426190D01*
X96416905Y-44426190D01*
X97369286Y-43997619D02*
X97416905Y-43950000D01*
X97512143Y-43902381D01*
X97750239Y-43902381D01*
X97845477Y-43950000D01*
X97893096Y-43997619D01*
X97940715Y-44092857D01*
X97940715Y-44188095D01*
X97893096Y-44330952D01*
X97321667Y-44902381D01*
X97940715Y-44902381D01*
X42759334Y-20010381D02*
X42426000Y-19534190D01*
X42187905Y-20010381D02*
X42187905Y-19010381D01*
X42568858Y-19010381D01*
X42664096Y-19058000D01*
X42711715Y-19105619D01*
X42759334Y-19200857D01*
X42759334Y-19343714D01*
X42711715Y-19438952D01*
X42664096Y-19486571D01*
X42568858Y-19534190D01*
X42187905Y-19534190D01*
X43092667Y-19010381D02*
X43711715Y-19010381D01*
X43378381Y-19391333D01*
X43521239Y-19391333D01*
X43616477Y-19438952D01*
X43664096Y-19486571D01*
X43711715Y-19581810D01*
X43711715Y-19819905D01*
X43664096Y-19915143D01*
X43616477Y-19962762D01*
X43521239Y-20010381D01*
X43235524Y-20010381D01*
X43140286Y-19962762D01*
X43092667Y-19915143D01*
X42759334Y-17597381D02*
X42426000Y-17121190D01*
X42187905Y-17597381D02*
X42187905Y-16597381D01*
X42568858Y-16597381D01*
X42664096Y-16645000D01*
X42711715Y-16692619D01*
X42759334Y-16787857D01*
X42759334Y-16930714D01*
X42711715Y-17025952D01*
X42664096Y-17073571D01*
X42568858Y-17121190D01*
X42187905Y-17121190D01*
X43616477Y-16930714D02*
X43616477Y-17597381D01*
X43378381Y-16549762D02*
X43140286Y-17264048D01*
X43759334Y-17264048D01*
X60777381Y-56681666D02*
X60301190Y-57015000D01*
X60777381Y-57253095D02*
X59777381Y-57253095D01*
X59777381Y-56872142D01*
X59825000Y-56776904D01*
X59872619Y-56729285D01*
X59967857Y-56681666D01*
X60110714Y-56681666D01*
X60205952Y-56729285D01*
X60253571Y-56776904D01*
X60301190Y-56872142D01*
X60301190Y-57253095D01*
X59777381Y-55776904D02*
X59777381Y-56253095D01*
X60253571Y-56300714D01*
X60205952Y-56253095D01*
X60158333Y-56157857D01*
X60158333Y-55919761D01*
X60205952Y-55824523D01*
X60253571Y-55776904D01*
X60348810Y-55729285D01*
X60586905Y-55729285D01*
X60682143Y-55776904D01*
X60729762Y-55824523D01*
X60777381Y-55919761D01*
X60777381Y-56157857D01*
X60729762Y-56253095D01*
X60682143Y-56300714D01*
X80224334Y-52903381D02*
X79891000Y-52427190D01*
X79652905Y-52903381D02*
X79652905Y-51903381D01*
X80033858Y-51903381D01*
X80129096Y-51951000D01*
X80176715Y-51998619D01*
X80224334Y-52093857D01*
X80224334Y-52236714D01*
X80176715Y-52331952D01*
X80129096Y-52379571D01*
X80033858Y-52427190D01*
X79652905Y-52427190D01*
X80557667Y-51903381D02*
X81224334Y-51903381D01*
X80795762Y-52903381D01*
X48966381Y-48426666D02*
X48490190Y-48760000D01*
X48966381Y-48998095D02*
X47966381Y-48998095D01*
X47966381Y-48617142D01*
X48014000Y-48521904D01*
X48061619Y-48474285D01*
X48156857Y-48426666D01*
X48299714Y-48426666D01*
X48394952Y-48474285D01*
X48442571Y-48521904D01*
X48490190Y-48617142D01*
X48490190Y-48998095D01*
X48394952Y-47855238D02*
X48347333Y-47950476D01*
X48299714Y-47998095D01*
X48204476Y-48045714D01*
X48156857Y-48045714D01*
X48061619Y-47998095D01*
X48014000Y-47950476D01*
X47966381Y-47855238D01*
X47966381Y-47664761D01*
X48014000Y-47569523D01*
X48061619Y-47521904D01*
X48156857Y-47474285D01*
X48204476Y-47474285D01*
X48299714Y-47521904D01*
X48347333Y-47569523D01*
X48394952Y-47664761D01*
X48394952Y-47855238D01*
X48442571Y-47950476D01*
X48490190Y-47998095D01*
X48585429Y-48045714D01*
X48775905Y-48045714D01*
X48871143Y-47998095D01*
X48918762Y-47950476D01*
X48966381Y-47855238D01*
X48966381Y-47664761D01*
X48918762Y-47569523D01*
X48871143Y-47521904D01*
X48775905Y-47474285D01*
X48585429Y-47474285D01*
X48490190Y-47521904D01*
X48442571Y-47569523D01*
X48394952Y-47664761D01*
X41362334Y-45410381D02*
X41029000Y-44934190D01*
X40790905Y-45410381D02*
X40790905Y-44410381D01*
X41171858Y-44410381D01*
X41267096Y-44458000D01*
X41314715Y-44505619D01*
X41362334Y-44600857D01*
X41362334Y-44743714D01*
X41314715Y-44838952D01*
X41267096Y-44886571D01*
X41171858Y-44934190D01*
X40790905Y-44934190D01*
X41838524Y-45410381D02*
X42029000Y-45410381D01*
X42124239Y-45362762D01*
X42171858Y-45315143D01*
X42267096Y-45172286D01*
X42314715Y-44981810D01*
X42314715Y-44600857D01*
X42267096Y-44505619D01*
X42219477Y-44458000D01*
X42124239Y-44410381D01*
X41933762Y-44410381D01*
X41838524Y-44458000D01*
X41790905Y-44505619D01*
X41743286Y-44600857D01*
X41743286Y-44838952D01*
X41790905Y-44934190D01*
X41838524Y-44981810D01*
X41933762Y-45029429D01*
X42124239Y-45029429D01*
X42219477Y-44981810D01*
X42267096Y-44934190D01*
X42314715Y-44838952D01*
X29938743Y-42971981D02*
X29605409Y-42495790D01*
X29367314Y-42971981D02*
X29367314Y-41971981D01*
X29748267Y-41971981D01*
X29843505Y-42019600D01*
X29891124Y-42067219D01*
X29938743Y-42162457D01*
X29938743Y-42305314D01*
X29891124Y-42400552D01*
X29843505Y-42448171D01*
X29748267Y-42495790D01*
X29367314Y-42495790D01*
X30891124Y-42971981D02*
X30319695Y-42971981D01*
X30605409Y-42971981D02*
X30605409Y-41971981D01*
X30510171Y-42114838D01*
X30414933Y-42210076D01*
X30319695Y-42257695D01*
X31510171Y-41971981D02*
X31605410Y-41971981D01*
X31700648Y-42019600D01*
X31748267Y-42067219D01*
X31795886Y-42162457D01*
X31843505Y-42352933D01*
X31843505Y-42591029D01*
X31795886Y-42781505D01*
X31748267Y-42876743D01*
X31700648Y-42924362D01*
X31605410Y-42971981D01*
X31510171Y-42971981D01*
X31414933Y-42924362D01*
X31367314Y-42876743D01*
X31319695Y-42781505D01*
X31272076Y-42591029D01*
X31272076Y-42352933D01*
X31319695Y-42162457D01*
X31367314Y-42067219D01*
X31414933Y-42019600D01*
X31510171Y-41971981D01*
X38679381Y-38107857D02*
X38203190Y-38441191D01*
X38679381Y-38679286D02*
X37679381Y-38679286D01*
X37679381Y-38298333D01*
X37727000Y-38203095D01*
X37774619Y-38155476D01*
X37869857Y-38107857D01*
X38012714Y-38107857D01*
X38107952Y-38155476D01*
X38155571Y-38203095D01*
X38203190Y-38298333D01*
X38203190Y-38679286D01*
X38679381Y-37155476D02*
X38679381Y-37726905D01*
X38679381Y-37441191D02*
X37679381Y-37441191D01*
X37822238Y-37536429D01*
X37917476Y-37631667D01*
X37965095Y-37726905D01*
X38679381Y-36203095D02*
X38679381Y-36774524D01*
X38679381Y-36488810D02*
X37679381Y-36488810D01*
X37822238Y-36584048D01*
X37917476Y-36679286D01*
X37965095Y-36774524D01*
X25112743Y-42946581D02*
X24779409Y-42470390D01*
X24541314Y-42946581D02*
X24541314Y-41946581D01*
X24922267Y-41946581D01*
X25017505Y-41994200D01*
X25065124Y-42041819D01*
X25112743Y-42137057D01*
X25112743Y-42279914D01*
X25065124Y-42375152D01*
X25017505Y-42422771D01*
X24922267Y-42470390D01*
X24541314Y-42470390D01*
X26065124Y-42946581D02*
X25493695Y-42946581D01*
X25779409Y-42946581D02*
X25779409Y-41946581D01*
X25684171Y-42089438D01*
X25588933Y-42184676D01*
X25493695Y-42232295D01*
X26446076Y-42041819D02*
X26493695Y-41994200D01*
X26588933Y-41946581D01*
X26827029Y-41946581D01*
X26922267Y-41994200D01*
X26969886Y-42041819D01*
X27017505Y-42137057D01*
X27017505Y-42232295D01*
X26969886Y-42375152D01*
X26398457Y-42946581D01*
X27017505Y-42946581D01*
X49052741Y-55857377D02*
X48576550Y-56190711D01*
X49052741Y-56428806D02*
X48052741Y-56428806D01*
X48052741Y-56047853D01*
X48100360Y-55952615D01*
X48147979Y-55904996D01*
X48243217Y-55857377D01*
X48386074Y-55857377D01*
X48481312Y-55904996D01*
X48528931Y-55952615D01*
X48576550Y-56047853D01*
X48576550Y-56428806D01*
X49052741Y-54904996D02*
X49052741Y-55476425D01*
X49052741Y-55190711D02*
X48052741Y-55190711D01*
X48195598Y-55285949D01*
X48290836Y-55381187D01*
X48338455Y-55476425D01*
X48052741Y-54571663D02*
X48052741Y-53952615D01*
X48433693Y-54285949D01*
X48433693Y-54143091D01*
X48481312Y-54047853D01*
X48528931Y-54000234D01*
X48624170Y-53952615D01*
X48862265Y-53952615D01*
X48957503Y-54000234D01*
X49005122Y-54047853D01*
X49052741Y-54143091D01*
X49052741Y-54428806D01*
X49005122Y-54524044D01*
X48957503Y-54571663D01*
X48760143Y-53030381D02*
X48426809Y-52554190D01*
X48188714Y-53030381D02*
X48188714Y-52030381D01*
X48569667Y-52030381D01*
X48664905Y-52078000D01*
X48712524Y-52125619D01*
X48760143Y-52220857D01*
X48760143Y-52363714D01*
X48712524Y-52458952D01*
X48664905Y-52506571D01*
X48569667Y-52554190D01*
X48188714Y-52554190D01*
X49712524Y-53030381D02*
X49141095Y-53030381D01*
X49426809Y-53030381D02*
X49426809Y-52030381D01*
X49331571Y-52173238D01*
X49236333Y-52268476D01*
X49141095Y-52316095D01*
X50569667Y-52363714D02*
X50569667Y-53030381D01*
X50331571Y-51982762D02*
X50093476Y-52697048D01*
X50712524Y-52697048D01*
X44975543Y-67293781D02*
X44642209Y-66817590D01*
X44404114Y-67293781D02*
X44404114Y-66293781D01*
X44785067Y-66293781D01*
X44880305Y-66341400D01*
X44927924Y-66389019D01*
X44975543Y-66484257D01*
X44975543Y-66627114D01*
X44927924Y-66722352D01*
X44880305Y-66769971D01*
X44785067Y-66817590D01*
X44404114Y-66817590D01*
X45927924Y-67293781D02*
X45356495Y-67293781D01*
X45642209Y-67293781D02*
X45642209Y-66293781D01*
X45546971Y-66436638D01*
X45451733Y-66531876D01*
X45356495Y-66579495D01*
X46832686Y-66293781D02*
X46356495Y-66293781D01*
X46308876Y-66769971D01*
X46356495Y-66722352D01*
X46451733Y-66674733D01*
X46689829Y-66674733D01*
X46785067Y-66722352D01*
X46832686Y-66769971D01*
X46880305Y-66865210D01*
X46880305Y-67103305D01*
X46832686Y-67198543D01*
X46785067Y-67246162D01*
X46689829Y-67293781D01*
X46451733Y-67293781D01*
X46356495Y-67246162D01*
X46308876Y-67198543D01*
X40392581Y-56395857D02*
X39916390Y-56729191D01*
X40392581Y-56967286D02*
X39392581Y-56967286D01*
X39392581Y-56586333D01*
X39440200Y-56491095D01*
X39487819Y-56443476D01*
X39583057Y-56395857D01*
X39725914Y-56395857D01*
X39821152Y-56443476D01*
X39868771Y-56491095D01*
X39916390Y-56586333D01*
X39916390Y-56967286D01*
X40392581Y-55443476D02*
X40392581Y-56014905D01*
X40392581Y-55729191D02*
X39392581Y-55729191D01*
X39535438Y-55824429D01*
X39630676Y-55919667D01*
X39678295Y-56014905D01*
X39392581Y-54586333D02*
X39392581Y-54776810D01*
X39440200Y-54872048D01*
X39487819Y-54919667D01*
X39630676Y-55014905D01*
X39821152Y-55062524D01*
X40202105Y-55062524D01*
X40297343Y-55014905D01*
X40344962Y-54967286D01*
X40392581Y-54872048D01*
X40392581Y-54681571D01*
X40344962Y-54586333D01*
X40297343Y-54538714D01*
X40202105Y-54491095D01*
X39964010Y-54491095D01*
X39868771Y-54538714D01*
X39821152Y-54586333D01*
X39773533Y-54681571D01*
X39773533Y-54872048D01*
X39821152Y-54967286D01*
X39868771Y-55014905D01*
X39964010Y-55062524D01*
X27820881Y-27503357D02*
X27344690Y-27836691D01*
X27820881Y-28074786D02*
X26820881Y-28074786D01*
X26820881Y-27693833D01*
X26868500Y-27598595D01*
X26916119Y-27550976D01*
X27011357Y-27503357D01*
X27154214Y-27503357D01*
X27249452Y-27550976D01*
X27297071Y-27598595D01*
X27344690Y-27693833D01*
X27344690Y-28074786D01*
X27820881Y-26550976D02*
X27820881Y-27122405D01*
X27820881Y-26836691D02*
X26820881Y-26836691D01*
X26963738Y-26931929D01*
X27058976Y-27027167D01*
X27106595Y-27122405D01*
X26820881Y-26217643D02*
X26820881Y-25550976D01*
X27820881Y-25979548D01*
X65608295Y-60666381D02*
X65608295Y-61475905D01*
X65655914Y-61571143D01*
X65703533Y-61618762D01*
X65798771Y-61666381D01*
X65989248Y-61666381D01*
X66084486Y-61618762D01*
X66132105Y-61571143D01*
X66179724Y-61475905D01*
X66179724Y-60666381D01*
X66608295Y-60761619D02*
X66655914Y-60714000D01*
X66751152Y-60666381D01*
X66989248Y-60666381D01*
X67084486Y-60714000D01*
X67132105Y-60761619D01*
X67179724Y-60856857D01*
X67179724Y-60952095D01*
X67132105Y-61094952D01*
X66560676Y-61666381D01*
X67179724Y-61666381D01*
X69138895Y-54392581D02*
X69138895Y-55202105D01*
X69186514Y-55297343D01*
X69234133Y-55344962D01*
X69329371Y-55392581D01*
X69519848Y-55392581D01*
X69615086Y-55344962D01*
X69662705Y-55297343D01*
X69710324Y-55202105D01*
X69710324Y-54392581D01*
X70091276Y-54392581D02*
X70710324Y-54392581D01*
X70376990Y-54773533D01*
X70519848Y-54773533D01*
X70615086Y-54821152D01*
X70662705Y-54868771D01*
X70710324Y-54964010D01*
X70710324Y-55202105D01*
X70662705Y-55297343D01*
X70615086Y-55344962D01*
X70519848Y-55392581D01*
X70234133Y-55392581D01*
X70138895Y-55344962D01*
X70091276Y-55297343D01*
X82319905Y-16708381D02*
X82319905Y-15708381D01*
X82700858Y-15708381D01*
X82796096Y-15756000D01*
X82843715Y-15803619D01*
X82891334Y-15898857D01*
X82891334Y-16041714D01*
X82843715Y-16136952D01*
X82796096Y-16184571D01*
X82700858Y-16232190D01*
X82319905Y-16232190D01*
X83224667Y-15708381D02*
X83843715Y-15708381D01*
X83510381Y-16089333D01*
X83653239Y-16089333D01*
X83748477Y-16136952D01*
X83796096Y-16184571D01*
X83843715Y-16279810D01*
X83843715Y-16517905D01*
X83796096Y-16613143D01*
X83748477Y-16660762D01*
X83653239Y-16708381D01*
X83367524Y-16708381D01*
X83272286Y-16660762D01*
X83224667Y-16613143D01*
X83510381Y-22375524D02*
X82510381Y-22375524D01*
X82510381Y-21994571D01*
X82558000Y-21899333D01*
X82605619Y-21851714D01*
X82700857Y-21804095D01*
X82843714Y-21804095D01*
X82938952Y-21851714D01*
X82986571Y-21899333D01*
X83034190Y-21994571D01*
X83034190Y-22375524D01*
X82510381Y-21185048D02*
X82510381Y-20994571D01*
X82558000Y-20899333D01*
X82653238Y-20804095D01*
X82843714Y-20756476D01*
X83177048Y-20756476D01*
X83367524Y-20804095D01*
X83462762Y-20899333D01*
X83510381Y-20994571D01*
X83510381Y-21185048D01*
X83462762Y-21280286D01*
X83367524Y-21375524D01*
X83177048Y-21423143D01*
X82843714Y-21423143D01*
X82653238Y-21375524D01*
X82558000Y-21280286D01*
X82510381Y-21185048D01*
X82510381Y-20423143D02*
X83510381Y-20185048D01*
X82796095Y-19994571D01*
X83510381Y-19804095D01*
X82510381Y-19566000D01*
X82986571Y-19185048D02*
X82986571Y-18851714D01*
X83510381Y-18708857D02*
X83510381Y-19185048D01*
X82510381Y-19185048D01*
X82510381Y-18708857D01*
X83510381Y-17708857D02*
X83034190Y-18042191D01*
X83510381Y-18280286D02*
X82510381Y-18280286D01*
X82510381Y-17899333D01*
X82558000Y-17804095D01*
X82605619Y-17756476D01*
X82700857Y-17708857D01*
X82843714Y-17708857D01*
X82938952Y-17756476D01*
X82986571Y-17804095D01*
X83034190Y-17899333D01*
X83034190Y-18280286D01*
D14*
X45389829Y-59279714D02*
X45389829Y-59522571D01*
X45404114Y-59551143D01*
X45418400Y-59565429D01*
X45446971Y-59579714D01*
X45504114Y-59579714D01*
X45532686Y-59565429D01*
X45546971Y-59551143D01*
X45561257Y-59522571D01*
X45561257Y-59279714D01*
X45832686Y-59379714D02*
X45832686Y-59579714D01*
X45761257Y-59265429D02*
X45689829Y-59479714D01*
X45875543Y-59479714D01*
D10*
X27559095Y-32472381D02*
X27559095Y-33281905D01*
X27606714Y-33377143D01*
X27654333Y-33424762D01*
X27749571Y-33472381D01*
X27940048Y-33472381D01*
X28035286Y-33424762D01*
X28082905Y-33377143D01*
X28130524Y-33281905D01*
X28130524Y-32472381D01*
X29082905Y-32472381D02*
X28606714Y-32472381D01*
X28559095Y-32948571D01*
X28606714Y-32900952D01*
X28701952Y-32853333D01*
X28940048Y-32853333D01*
X29035286Y-32900952D01*
X29082905Y-32948571D01*
X29130524Y-33043810D01*
X29130524Y-33281905D01*
X29082905Y-33377143D01*
X29035286Y-33424762D01*
X28940048Y-33472381D01*
X28701952Y-33472381D01*
X28606714Y-33424762D01*
X28559095Y-33377143D01*
X80335381Y-40108095D02*
X79335381Y-40108095D01*
X79335381Y-39727142D01*
X79383000Y-39631904D01*
X79430619Y-39584285D01*
X79525857Y-39536666D01*
X79668714Y-39536666D01*
X79763952Y-39584285D01*
X79811571Y-39631904D01*
X79859190Y-39727142D01*
X79859190Y-40108095D01*
X79335381Y-38631904D02*
X79335381Y-39108095D01*
X79811571Y-39155714D01*
X79763952Y-39108095D01*
X79716333Y-39012857D01*
X79716333Y-38774761D01*
X79763952Y-38679523D01*
X79811571Y-38631904D01*
X79906810Y-38584285D01*
X80144905Y-38584285D01*
X80240143Y-38631904D01*
X80287762Y-38679523D01*
X80335381Y-38774761D01*
X80335381Y-39012857D01*
X80287762Y-39108095D01*
X80240143Y-39155714D01*
X82893067Y-42260781D02*
X82416876Y-42260781D01*
X82416876Y-41260781D01*
X83226400Y-42260781D02*
X83226400Y-41260781D01*
X84226400Y-41308400D02*
X84131162Y-41260781D01*
X83988305Y-41260781D01*
X83845447Y-41308400D01*
X83750209Y-41403638D01*
X83702590Y-41498876D01*
X83654971Y-41689352D01*
X83654971Y-41832210D01*
X83702590Y-42022686D01*
X83750209Y-42117924D01*
X83845447Y-42213162D01*
X83988305Y-42260781D01*
X84083543Y-42260781D01*
X84226400Y-42213162D01*
X84274019Y-42165543D01*
X84274019Y-41832210D01*
X84083543Y-41832210D01*
X84702590Y-42260781D02*
X84702590Y-41260781D01*
X84702590Y-41736971D02*
X85274019Y-41736971D01*
X85274019Y-42260781D02*
X85274019Y-41260781D01*
X85607352Y-41260781D02*
X86178781Y-41260781D01*
X85893066Y-42260781D02*
X85893066Y-41260781D01*
X80563981Y-30481495D02*
X79563981Y-30481495D01*
X79563981Y-30100542D01*
X79611600Y-30005304D01*
X79659219Y-29957685D01*
X79754457Y-29910066D01*
X79897314Y-29910066D01*
X79992552Y-29957685D01*
X80040171Y-30005304D01*
X80087790Y-30100542D01*
X80087790Y-30481495D01*
X79563981Y-29052923D02*
X79563981Y-29243400D01*
X79611600Y-29338638D01*
X79659219Y-29386257D01*
X79802076Y-29481495D01*
X79992552Y-29529114D01*
X80373505Y-29529114D01*
X80468743Y-29481495D01*
X80516362Y-29433876D01*
X80563981Y-29338638D01*
X80563981Y-29148161D01*
X80516362Y-29052923D01*
X80468743Y-29005304D01*
X80373505Y-28957685D01*
X80135410Y-28957685D01*
X80040171Y-29005304D01*
X79992552Y-29052923D01*
X79944933Y-29148161D01*
X79944933Y-29338638D01*
X79992552Y-29433876D01*
X80040171Y-29481495D01*
X80135410Y-29529114D01*
X80819952Y-32710381D02*
X80819952Y-31710381D01*
X81153286Y-32424667D01*
X81486619Y-31710381D01*
X81486619Y-32710381D01*
X81915190Y-32424667D02*
X82391381Y-32424667D01*
X81819952Y-32710381D02*
X82153285Y-31710381D01*
X82486619Y-32710381D01*
X83343762Y-31758000D02*
X83248524Y-31710381D01*
X83105667Y-31710381D01*
X82962809Y-31758000D01*
X82867571Y-31853238D01*
X82819952Y-31948476D01*
X82772333Y-32138952D01*
X82772333Y-32281810D01*
X82819952Y-32472286D01*
X82867571Y-32567524D01*
X82962809Y-32662762D01*
X83105667Y-32710381D01*
X83200905Y-32710381D01*
X83343762Y-32662762D01*
X83391381Y-32615143D01*
X83391381Y-32281810D01*
X83200905Y-32281810D01*
X83819952Y-32710381D02*
X83819952Y-31710381D01*
X84391381Y-32710381D01*
X84391381Y-31710381D01*
X84867571Y-32186571D02*
X85200905Y-32186571D01*
X85343762Y-32710381D02*
X84867571Y-32710381D01*
X84867571Y-31710381D01*
X85343762Y-31710381D01*
X85629476Y-31710381D02*
X86200905Y-31710381D01*
X85915190Y-32710381D02*
X85915190Y-31710381D01*
X30218143Y-20010381D02*
X29884809Y-19534190D01*
X29646714Y-20010381D02*
X29646714Y-19010381D01*
X30027667Y-19010381D01*
X30122905Y-19058000D01*
X30170524Y-19105619D01*
X30218143Y-19200857D01*
X30218143Y-19343714D01*
X30170524Y-19438952D01*
X30122905Y-19486571D01*
X30027667Y-19534190D01*
X29646714Y-19534190D01*
X31170524Y-20010381D02*
X30599095Y-20010381D01*
X30884809Y-20010381D02*
X30884809Y-19010381D01*
X30789571Y-19153238D01*
X30694333Y-19248476D01*
X30599095Y-19296095D01*
X31646714Y-20010381D02*
X31837190Y-20010381D01*
X31932429Y-19962762D01*
X31980048Y-19915143D01*
X32075286Y-19772286D01*
X32122905Y-19581810D01*
X32122905Y-19200857D01*
X32075286Y-19105619D01*
X32027667Y-19058000D01*
X31932429Y-19010381D01*
X31741952Y-19010381D01*
X31646714Y-19058000D01*
X31599095Y-19105619D01*
X31551476Y-19200857D01*
X31551476Y-19438952D01*
X31599095Y-19534190D01*
X31646714Y-19581810D01*
X31741952Y-19629429D01*
X31932429Y-19629429D01*
X32027667Y-19581810D01*
X32075286Y-19534190D01*
X32122905Y-19438952D01*
X30218143Y-17597381D02*
X29884809Y-17121190D01*
X29646714Y-17597381D02*
X29646714Y-16597381D01*
X30027667Y-16597381D01*
X30122905Y-16645000D01*
X30170524Y-16692619D01*
X30218143Y-16787857D01*
X30218143Y-16930714D01*
X30170524Y-17025952D01*
X30122905Y-17073571D01*
X30027667Y-17121190D01*
X29646714Y-17121190D01*
X30599095Y-16692619D02*
X30646714Y-16645000D01*
X30741952Y-16597381D01*
X30980048Y-16597381D01*
X31075286Y-16645000D01*
X31122905Y-16692619D01*
X31170524Y-16787857D01*
X31170524Y-16883095D01*
X31122905Y-17025952D01*
X30551476Y-17597381D01*
X31170524Y-17597381D01*
X31789571Y-16597381D02*
X31884810Y-16597381D01*
X31980048Y-16645000D01*
X32027667Y-16692619D01*
X32075286Y-16787857D01*
X32122905Y-16978333D01*
X32122905Y-17216429D01*
X32075286Y-17406905D01*
X32027667Y-17502143D01*
X31980048Y-17549762D01*
X31884810Y-17597381D01*
X31789571Y-17597381D01*
X31694333Y-17549762D01*
X31646714Y-17502143D01*
X31599095Y-17406905D01*
X31551476Y-17216429D01*
X31551476Y-16978333D01*
X31599095Y-16787857D01*
X31646714Y-16692619D01*
X31694333Y-16645000D01*
X31789571Y-16597381D01*
X66270143Y-49061666D02*
X66317762Y-49109285D01*
X66365381Y-49252142D01*
X66365381Y-49347380D01*
X66317762Y-49490238D01*
X66222524Y-49585476D01*
X66127286Y-49633095D01*
X65936810Y-49680714D01*
X65793952Y-49680714D01*
X65603476Y-49633095D01*
X65508238Y-49585476D01*
X65413000Y-49490238D01*
X65365381Y-49347380D01*
X65365381Y-49252142D01*
X65413000Y-49109285D01*
X65460619Y-49061666D01*
X65365381Y-48156904D02*
X65365381Y-48633095D01*
X65841571Y-48680714D01*
X65793952Y-48633095D01*
X65746333Y-48537857D01*
X65746333Y-48299761D01*
X65793952Y-48204523D01*
X65841571Y-48156904D01*
X65936810Y-48109285D01*
X66174905Y-48109285D01*
X66270143Y-48156904D01*
X66317762Y-48204523D01*
X66365381Y-48299761D01*
X66365381Y-48537857D01*
X66317762Y-48633095D01*
X66270143Y-48680714D01*
X80900543Y-48121866D02*
X80948162Y-48169485D01*
X80995781Y-48312342D01*
X80995781Y-48407580D01*
X80948162Y-48550438D01*
X80852924Y-48645676D01*
X80757686Y-48693295D01*
X80567210Y-48740914D01*
X80424352Y-48740914D01*
X80233876Y-48693295D01*
X80138638Y-48645676D01*
X80043400Y-48550438D01*
X79995781Y-48407580D01*
X79995781Y-48312342D01*
X80043400Y-48169485D01*
X80091019Y-48121866D01*
X80424352Y-47550438D02*
X80376733Y-47645676D01*
X80329114Y-47693295D01*
X80233876Y-47740914D01*
X80186257Y-47740914D01*
X80091019Y-47693295D01*
X80043400Y-47645676D01*
X79995781Y-47550438D01*
X79995781Y-47359961D01*
X80043400Y-47264723D01*
X80091019Y-47217104D01*
X80186257Y-47169485D01*
X80233876Y-47169485D01*
X80329114Y-47217104D01*
X80376733Y-47264723D01*
X80424352Y-47359961D01*
X80424352Y-47550438D01*
X80471971Y-47645676D01*
X80519590Y-47693295D01*
X80614829Y-47740914D01*
X80805305Y-47740914D01*
X80900543Y-47693295D01*
X80948162Y-47645676D01*
X80995781Y-47550438D01*
X80995781Y-47359961D01*
X80948162Y-47264723D01*
X80900543Y-47217104D01*
X80805305Y-47169485D01*
X80614829Y-47169485D01*
X80519590Y-47217104D01*
X80471971Y-47264723D01*
X80424352Y-47359961D01*
X77684334Y-58523143D02*
X77636715Y-58570762D01*
X77493858Y-58618381D01*
X77398620Y-58618381D01*
X77255762Y-58570762D01*
X77160524Y-58475524D01*
X77112905Y-58380286D01*
X77065286Y-58189810D01*
X77065286Y-58046952D01*
X77112905Y-57856476D01*
X77160524Y-57761238D01*
X77255762Y-57666000D01*
X77398620Y-57618381D01*
X77493858Y-57618381D01*
X77636715Y-57666000D01*
X77684334Y-57713619D01*
X78065286Y-57713619D02*
X78112905Y-57666000D01*
X78208143Y-57618381D01*
X78446239Y-57618381D01*
X78541477Y-57666000D01*
X78589096Y-57713619D01*
X78636715Y-57808857D01*
X78636715Y-57904095D01*
X78589096Y-58046952D01*
X78017667Y-58618381D01*
X78636715Y-58618381D01*
X72477334Y-45904381D02*
X72144000Y-45428190D01*
X71905905Y-45904381D02*
X71905905Y-44904381D01*
X72286858Y-44904381D01*
X72382096Y-44952000D01*
X72429715Y-44999619D01*
X72477334Y-45094857D01*
X72477334Y-45237714D01*
X72429715Y-45332952D01*
X72382096Y-45380571D01*
X72286858Y-45428190D01*
X71905905Y-45428190D01*
X73334477Y-44904381D02*
X73144000Y-44904381D01*
X73048762Y-44952000D01*
X73001143Y-44999619D01*
X72905905Y-45142476D01*
X72858286Y-45332952D01*
X72858286Y-45713905D01*
X72905905Y-45809143D01*
X72953524Y-45856762D01*
X73048762Y-45904381D01*
X73239239Y-45904381D01*
X73334477Y-45856762D01*
X73382096Y-45809143D01*
X73429715Y-45713905D01*
X73429715Y-45475810D01*
X73382096Y-45380571D01*
X73334477Y-45332952D01*
X73239239Y-45285333D01*
X73048762Y-45285333D01*
X72953524Y-45332952D01*
X72905905Y-45380571D01*
X72858286Y-45475810D01*
X71088262Y-70651619D02*
X70993024Y-70604000D01*
X70897786Y-70508762D01*
X70754929Y-70365905D01*
X70659690Y-70318286D01*
X70564452Y-70318286D01*
X70612071Y-70556381D02*
X70516833Y-70508762D01*
X70421595Y-70413524D01*
X70373976Y-70223048D01*
X70373976Y-69889714D01*
X70421595Y-69699238D01*
X70516833Y-69604000D01*
X70612071Y-69556381D01*
X70802548Y-69556381D01*
X70897786Y-69604000D01*
X70993024Y-69699238D01*
X71040643Y-69889714D01*
X71040643Y-70223048D01*
X70993024Y-70413524D01*
X70897786Y-70508762D01*
X70802548Y-70556381D01*
X70612071Y-70556381D01*
X71993024Y-70556381D02*
X71421595Y-70556381D01*
X71707309Y-70556381D02*
X71707309Y-69556381D01*
X71612071Y-69699238D01*
X71516833Y-69794476D01*
X71421595Y-69842095D01*
X93884762Y-42457619D02*
X93789524Y-42410000D01*
X93694286Y-42314762D01*
X93551429Y-42171905D01*
X93456190Y-42124286D01*
X93360952Y-42124286D01*
X93408571Y-42362381D02*
X93313333Y-42314762D01*
X93218095Y-42219524D01*
X93170476Y-42029048D01*
X93170476Y-41695714D01*
X93218095Y-41505238D01*
X93313333Y-41410000D01*
X93408571Y-41362381D01*
X93599048Y-41362381D01*
X93694286Y-41410000D01*
X93789524Y-41505238D01*
X93837143Y-41695714D01*
X93837143Y-42029048D01*
X93789524Y-42219524D01*
X93694286Y-42314762D01*
X93599048Y-42362381D01*
X93408571Y-42362381D01*
X94218095Y-41457619D02*
X94265714Y-41410000D01*
X94360952Y-41362381D01*
X94599048Y-41362381D01*
X94694286Y-41410000D01*
X94741905Y-41457619D01*
X94789524Y-41552857D01*
X94789524Y-41648095D01*
X94741905Y-41790952D01*
X94170476Y-42362381D01*
X94789524Y-42362381D01*
X50633334Y-59412143D02*
X50585715Y-59459762D01*
X50442858Y-59507381D01*
X50347620Y-59507381D01*
X50204762Y-59459762D01*
X50109524Y-59364524D01*
X50061905Y-59269286D01*
X50014286Y-59078810D01*
X50014286Y-58935952D01*
X50061905Y-58745476D01*
X50109524Y-58650238D01*
X50204762Y-58555000D01*
X50347620Y-58507381D01*
X50442858Y-58507381D01*
X50585715Y-58555000D01*
X50633334Y-58602619D01*
X50966667Y-58507381D02*
X51633334Y-58507381D01*
X51204762Y-59507381D01*
X86320334Y-62301381D02*
X85844143Y-62301381D01*
X85844143Y-61301381D01*
X87177477Y-62301381D02*
X86606048Y-62301381D01*
X86891762Y-62301381D02*
X86891762Y-61301381D01*
X86796524Y-61444238D01*
X86701286Y-61539476D01*
X86606048Y-61587095D01*
X32281905Y-67889381D02*
X32281905Y-66889381D01*
X32662858Y-66889381D01*
X32758096Y-66937000D01*
X32805715Y-66984619D01*
X32853334Y-67079857D01*
X32853334Y-67222714D01*
X32805715Y-67317952D01*
X32758096Y-67365571D01*
X32662858Y-67413190D01*
X32281905Y-67413190D01*
X33186667Y-66889381D02*
X33853334Y-66889381D01*
X33424762Y-67889381D01*
X27582905Y-45029381D02*
X27582905Y-44029381D01*
X27963858Y-44029381D01*
X28059096Y-44077000D01*
X28106715Y-44124619D01*
X28154334Y-44219857D01*
X28154334Y-44362714D01*
X28106715Y-44457952D01*
X28059096Y-44505571D01*
X27963858Y-44553190D01*
X27582905Y-44553190D01*
X28725762Y-44457952D02*
X28630524Y-44410333D01*
X28582905Y-44362714D01*
X28535286Y-44267476D01*
X28535286Y-44219857D01*
X28582905Y-44124619D01*
X28630524Y-44077000D01*
X28725762Y-44029381D01*
X28916239Y-44029381D01*
X29011477Y-44077000D01*
X29059096Y-44124619D01*
X29106715Y-44219857D01*
X29106715Y-44267476D01*
X29059096Y-44362714D01*
X29011477Y-44410333D01*
X28916239Y-44457952D01*
X28725762Y-44457952D01*
X28630524Y-44505571D01*
X28582905Y-44553190D01*
X28535286Y-44648429D01*
X28535286Y-44838905D01*
X28582905Y-44934143D01*
X28630524Y-44981762D01*
X28725762Y-45029381D01*
X28916239Y-45029381D01*
X29011477Y-44981762D01*
X29059096Y-44934143D01*
X29106715Y-44838905D01*
X29106715Y-44648429D01*
X29059096Y-44553190D01*
X29011477Y-44505571D01*
X28916239Y-44457952D01*
X82161143Y-46680381D02*
X81827809Y-46204190D01*
X81589714Y-46680381D02*
X81589714Y-45680381D01*
X81970667Y-45680381D01*
X82065905Y-45728000D01*
X82113524Y-45775619D01*
X82161143Y-45870857D01*
X82161143Y-46013714D01*
X82113524Y-46108952D01*
X82065905Y-46156571D01*
X81970667Y-46204190D01*
X81589714Y-46204190D01*
X83113524Y-46680381D02*
X82542095Y-46680381D01*
X82827809Y-46680381D02*
X82827809Y-45680381D01*
X82732571Y-45823238D01*
X82637333Y-45918476D01*
X82542095Y-45966095D01*
X83684952Y-46108952D02*
X83589714Y-46061333D01*
X83542095Y-46013714D01*
X83494476Y-45918476D01*
X83494476Y-45870857D01*
X83542095Y-45775619D01*
X83589714Y-45728000D01*
X83684952Y-45680381D01*
X83875429Y-45680381D01*
X83970667Y-45728000D01*
X84018286Y-45775619D01*
X84065905Y-45870857D01*
X84065905Y-45918476D01*
X84018286Y-46013714D01*
X83970667Y-46061333D01*
X83875429Y-46108952D01*
X83684952Y-46108952D01*
X83589714Y-46156571D01*
X83542095Y-46204190D01*
X83494476Y-46299429D01*
X83494476Y-46489905D01*
X83542095Y-46585143D01*
X83589714Y-46632762D01*
X83684952Y-46680381D01*
X83875429Y-46680381D01*
X83970667Y-46632762D01*
X84018286Y-46585143D01*
X84065905Y-46489905D01*
X84065905Y-46299429D01*
X84018286Y-46204190D01*
X83970667Y-46156571D01*
X83875429Y-46108952D01*
X54697334Y-59413143D02*
X54649715Y-59460762D01*
X54506858Y-59508381D01*
X54411620Y-59508381D01*
X54268762Y-59460762D01*
X54173524Y-59365524D01*
X54125905Y-59270286D01*
X54078286Y-59079810D01*
X54078286Y-58936952D01*
X54125905Y-58746476D01*
X54173524Y-58651238D01*
X54268762Y-58556000D01*
X54411620Y-58508381D01*
X54506858Y-58508381D01*
X54649715Y-58556000D01*
X54697334Y-58603619D01*
X55173524Y-59508381D02*
X55364000Y-59508381D01*
X55459239Y-59460762D01*
X55506858Y-59413143D01*
X55602096Y-59270286D01*
X55649715Y-59079810D01*
X55649715Y-58698857D01*
X55602096Y-58603619D01*
X55554477Y-58556000D01*
X55459239Y-58508381D01*
X55268762Y-58508381D01*
X55173524Y-58556000D01*
X55125905Y-58603619D01*
X55078286Y-58698857D01*
X55078286Y-58936952D01*
X55125905Y-59032190D01*
X55173524Y-59079810D01*
X55268762Y-59127429D01*
X55459239Y-59127429D01*
X55554477Y-59079810D01*
X55602096Y-59032190D01*
X55649715Y-58936952D01*
X40453571Y-34924857D02*
X41667857Y-34924857D01*
X41810714Y-34853429D01*
X41882143Y-34782000D01*
X41953571Y-34639143D01*
X41953571Y-34353429D01*
X41882143Y-34210571D01*
X41810714Y-34139143D01*
X41667857Y-34067714D01*
X40453571Y-34067714D01*
X41953571Y-32567714D02*
X41953571Y-33424857D01*
X41953571Y-32996285D02*
X40453571Y-32996285D01*
X40667857Y-33139142D01*
X40810714Y-33282000D01*
X40882143Y-33424857D01*
X33559762Y-21411619D02*
X33464524Y-21364000D01*
X33369286Y-21268762D01*
X33226429Y-21125905D01*
X33131190Y-21078286D01*
X33035952Y-21078286D01*
X33083571Y-21316381D02*
X32988333Y-21268762D01*
X32893095Y-21173524D01*
X32845476Y-20983048D01*
X32845476Y-20649714D01*
X32893095Y-20459238D01*
X32988333Y-20364000D01*
X33083571Y-20316381D01*
X33274048Y-20316381D01*
X33369286Y-20364000D01*
X33464524Y-20459238D01*
X33512143Y-20649714D01*
X33512143Y-20983048D01*
X33464524Y-21173524D01*
X33369286Y-21268762D01*
X33274048Y-21316381D01*
X33083571Y-21316381D01*
X33845476Y-20316381D02*
X34464524Y-20316381D01*
X34131190Y-20697333D01*
X34274048Y-20697333D01*
X34369286Y-20744952D01*
X34416905Y-20792571D01*
X34464524Y-20887810D01*
X34464524Y-21125905D01*
X34416905Y-21221143D01*
X34369286Y-21268762D01*
X34274048Y-21316381D01*
X33988333Y-21316381D01*
X33893095Y-21268762D01*
X33845476Y-21221143D01*
X38004762Y-21411619D02*
X37909524Y-21364000D01*
X37814286Y-21268762D01*
X37671429Y-21125905D01*
X37576190Y-21078286D01*
X37480952Y-21078286D01*
X37528571Y-21316381D02*
X37433333Y-21268762D01*
X37338095Y-21173524D01*
X37290476Y-20983048D01*
X37290476Y-20649714D01*
X37338095Y-20459238D01*
X37433333Y-20364000D01*
X37528571Y-20316381D01*
X37719048Y-20316381D01*
X37814286Y-20364000D01*
X37909524Y-20459238D01*
X37957143Y-20649714D01*
X37957143Y-20983048D01*
X37909524Y-21173524D01*
X37814286Y-21268762D01*
X37719048Y-21316381D01*
X37528571Y-21316381D01*
X38814286Y-20649714D02*
X38814286Y-21316381D01*
X38576190Y-20268762D02*
X38338095Y-20983048D01*
X38957143Y-20983048D01*
M02*
