G04 #@! TF.FileFunction,Soldermask,Top*
%FSLAX46Y46*%
G04 Gerber Fmt 4.6, Leading zero omitted, Abs format (unit mm)*
G04 Created by KiCad (PCBNEW 4.0.1-stable) date 4/15/2016 12:19:49 PM*
%MOMM*%
G01*
G04 APERTURE LIST*
%ADD10C,0.150000*%
%ADD11O,2.108000X2.808000*%
%ADD12O,1.808000X2.808000*%
%ADD13R,1.508000X3.508000*%
%ADD14R,2.938000X2.878000*%
%ADD15R,4.638000X2.878000*%
%ADD16R,3.008000X2.508000*%
%ADD17R,1.706880X1.706880*%
%ADD18C,5.969000*%
%ADD19R,1.908000X1.908000*%
%ADD20C,2.032000*%
%ADD21C,1.958000*%
%ADD22R,2.540000X2.540000*%
%ADD23O,2.540000X2.540000*%
%ADD24R,2.235200X2.540000*%
%ADD25O,2.235200X2.540000*%
%ADD26R,2.235200X2.235200*%
%ADD27O,2.235200X2.235200*%
%ADD28C,2.908000*%
%ADD29C,3.008000*%
%ADD30R,2.208000X1.408000*%
%ADD31R,1.408000X2.208000*%
%ADD32R,3.708000X1.508000*%
%ADD33C,1.905000*%
%ADD34R,2.058000X1.108000*%
%ADD35C,1.828800*%
%ADD36R,3.048000X3.048000*%
%ADD37C,3.048000*%
%ADD38R,0.908000X1.708000*%
%ADD39R,2.032000X2.540000*%
%ADD40R,1.508000X2.108000*%
%ADD41R,2.108000X1.508000*%
%ADD42O,2.207260X4.008120*%
%ADD43R,4.508500X2.908300*%
%ADD44R,3.507740X3.507740*%
G04 APERTURE END LIST*
D10*
D11*
X43815000Y-36830000D03*
X46355000Y-36830000D03*
D12*
X48895000Y-36830000D03*
X51435000Y-36830000D03*
X53975000Y-36830000D03*
D11*
X56515000Y-36830000D03*
X59055000Y-36830000D03*
X61595000Y-36830000D03*
D12*
X64135000Y-36830000D03*
X66675000Y-36830000D03*
D11*
X69215000Y-36830000D03*
X71755000Y-36830000D03*
X74295000Y-36830000D03*
X76835000Y-36830000D03*
X76835000Y-29210000D03*
X74295000Y-29210000D03*
X71755000Y-29210000D03*
X69215000Y-29210000D03*
X66675000Y-29210000D03*
X64135000Y-29210000D03*
X61595000Y-29210000D03*
X59055000Y-29210000D03*
X56515000Y-29210000D03*
X53975000Y-29210000D03*
X51435000Y-29210000D03*
X48895000Y-29210000D03*
X46355000Y-29210000D03*
X43815000Y-29210000D03*
D13*
X58180000Y-56388000D03*
X53580000Y-56388000D03*
D14*
X84709000Y-49712000D03*
X84709000Y-55952000D03*
D15*
X91821000Y-50474000D03*
X91821000Y-56714000D03*
D16*
X64135000Y-66470000D03*
X64135000Y-63070000D03*
D17*
X92710000Y-37879020D03*
X92710000Y-35780980D03*
X97155000Y-37879020D03*
X97155000Y-35780980D03*
D18*
X50165000Y-19685000D03*
X78105000Y-19685000D03*
D19*
X59055000Y-20955000D03*
D20*
X59055000Y-18415000D03*
D21*
X61595000Y-20955000D03*
X61595000Y-18415000D03*
X64135000Y-20955000D03*
X64135000Y-18415000D03*
D20*
X66675000Y-20955000D03*
X66675000Y-18415000D03*
D21*
X69215000Y-20955000D03*
X69215000Y-18415000D03*
D22*
X34544000Y-22415500D03*
D23*
X37084000Y-22415500D03*
D24*
X31242000Y-19431000D03*
D25*
X33782000Y-19431000D03*
X36322000Y-19431000D03*
X38862000Y-19431000D03*
X41402000Y-19431000D03*
X43942000Y-19431000D03*
D26*
X84378800Y-30276800D03*
D27*
X84378800Y-27736800D03*
X86918800Y-30276800D03*
X86918800Y-27736800D03*
X89458800Y-30276800D03*
X89458800Y-27736800D03*
D28*
X21590000Y-20320000D03*
D29*
X19050000Y-17780000D03*
X24130000Y-17780000D03*
X24130000Y-22860000D03*
X19050000Y-22860000D03*
D30*
X92710000Y-42725000D03*
X92710000Y-39825000D03*
X97155000Y-42725000D03*
X97155000Y-39825000D03*
D31*
X59870000Y-25527000D03*
X56970000Y-25527000D03*
X55298000Y-25527000D03*
X52398000Y-25527000D03*
D32*
X62738000Y-59488000D03*
X62738000Y-53288000D03*
D31*
X78052000Y-50546000D03*
X80952000Y-50546000D03*
D30*
X47244000Y-40079000D03*
X47244000Y-42979000D03*
X50292000Y-42979000D03*
X50292000Y-40079000D03*
D31*
X24331000Y-38608000D03*
X27231000Y-38608000D03*
D30*
X32385000Y-37158000D03*
X32385000Y-40058000D03*
D31*
X19759000Y-38608000D03*
X22659000Y-38608000D03*
X47322400Y-55219600D03*
X44422400Y-55219600D03*
X44371600Y-52527200D03*
X47271600Y-52527200D03*
X47068400Y-64541400D03*
X44168400Y-64541400D03*
D30*
X42240200Y-57203000D03*
X42240200Y-54303000D03*
X29337000Y-25474000D03*
X29337000Y-28374000D03*
D33*
X39842440Y-32463740D03*
X35341560Y-32463740D03*
X39842440Y-26464260D03*
X35341560Y-26464260D03*
D34*
X71534000Y-59817000D03*
X71534000Y-58547000D03*
X71534000Y-57277000D03*
X71534000Y-56007000D03*
X66134000Y-56007000D03*
X66134000Y-57277000D03*
X66134000Y-58547000D03*
X66134000Y-59817000D03*
X70452000Y-49911000D03*
X70452000Y-51181000D03*
X70452000Y-52451000D03*
X70452000Y-53721000D03*
X75852000Y-53721000D03*
X75852000Y-52451000D03*
X75852000Y-51181000D03*
X75852000Y-49911000D03*
D35*
X67335400Y-42621200D03*
X62509400Y-42621200D03*
D36*
X96774000Y-19304000D03*
D37*
X91694000Y-19304000D03*
X86614000Y-19304000D03*
D38*
X46593400Y-57844000D03*
X45943400Y-57844000D03*
X45293400Y-57844000D03*
X44643400Y-57844000D03*
X44643400Y-62044000D03*
X45293400Y-62044000D03*
X45943400Y-62044000D03*
X46593400Y-62044000D03*
D39*
X19431000Y-35814000D03*
X21971000Y-35814000D03*
X24511000Y-35814000D03*
X27051000Y-35814000D03*
X27051000Y-28194000D03*
X24511000Y-28194000D03*
X21971000Y-28194000D03*
X19431000Y-28194000D03*
D22*
X86918800Y-40513000D03*
D23*
X89458800Y-40513000D03*
D24*
X89077800Y-35280600D03*
D25*
X86537800Y-35280600D03*
X83997800Y-35280600D03*
D30*
X74041000Y-39774200D03*
X74041000Y-42674200D03*
D31*
X39550000Y-35433000D03*
X36650000Y-35433000D03*
D40*
X44870500Y-25209500D03*
X41870500Y-25209500D03*
D41*
X66040000Y-53824000D03*
X66040000Y-50824000D03*
D40*
X79224000Y-48006000D03*
X76224000Y-48006000D03*
D41*
X58039000Y-40156000D03*
X58039000Y-43156000D03*
X71704200Y-39724200D03*
X71704200Y-42724200D03*
X55880000Y-40156000D03*
X55880000Y-43156000D03*
X78486000Y-56618000D03*
X78486000Y-53618000D03*
D31*
X71194000Y-47752000D03*
X74094000Y-47752000D03*
D42*
X71120000Y-66040000D03*
X73660000Y-66040000D03*
X68580000Y-66040000D03*
X93980000Y-46990000D03*
X91440000Y-46990000D03*
X96520000Y-46990000D03*
D43*
X59245500Y-65024000D03*
X51244500Y-65024000D03*
D44*
X78987000Y-64516000D03*
X93987000Y-64516000D03*
D24*
X20193000Y-67564000D03*
D25*
X22733000Y-67564000D03*
X25273000Y-67564000D03*
X27813000Y-67564000D03*
X30353000Y-67564000D03*
D24*
X20193000Y-44704000D03*
D25*
X22733000Y-44704000D03*
X25273000Y-44704000D03*
M02*
